<?xml version="1.0" standalone="no"?>
 <!DOCTYPE svg PUBLIC "-//W3C//DTD SVG 1.1//EN" 
 "http://www.w3.org/Graphics/SVG/1.1/DTD/svg11.dtd"> 
<svg xmlns="http://www.w3.org/2000/svg" version="1.1" 
    width="2.6924cm" height="2.3495cm" viewBox="0 0 10600 9250 ">
<title>SVG Picture created as wideband_LO-F_Cu.svg date 2020/06/11 18:34:23 </title>
  <desc>Picture generated by PCBNEW </desc>
<g style="fill:#000000; fill-opacity:1;stroke:#000000; stroke-opacity:1;
stroke-linecap:round; stroke-linejoin:round; "
 transform="translate(0 0) scale(1 1)">
</g>
<g style="fill:#000000; fill-opacity:0.0; 
stroke:#000000; stroke-width:-0.000393701; stroke-opacity:1; 
stroke-linecap:round; stroke-linejoin:round;">
<g >
</g>
<g style="fill:#000000; fill-opacity:0.0; 
stroke:#000000; stroke-width:0; stroke-opacity:1; 
stroke-linecap:round; stroke-linejoin:round;">
</g>
<g style="fill:#000000; fill-opacity:1.0; 
stroke:#000000; stroke-width:0; stroke-opacity:1; 
stroke-linecap:round; stroke-linejoin:round;">
<path style="fill:#000000; fill-opacity:1.0; 
stroke:#000000; stroke-width:0; stroke-opacity:1; 
stroke-linecap:round; stroke-linejoin:round;fill-rule:evenodd;"
d="M 9645.5,5234.28
9291.5,5234.28
9291.5,4900.28
9645.5,4900.28
Z" /> 
<path style="fill:#000000; fill-opacity:1.0; 
stroke:#000000; stroke-width:0; stroke-opacity:1; 
stroke-linecap:round; stroke-linejoin:round;fill-rule:evenodd;"
d="M 9645.5,5690.28
9291.5,5690.28
9291.5,5356.28
9645.5,5356.28
Z" /> 
</g>
<g >
</g>
<g style="fill:#000000; fill-opacity:1.0; 
stroke:#000000; stroke-width:0; stroke-opacity:1; 
stroke-linecap:round; stroke-linejoin:round;">
<path style="fill:#000000; fill-opacity:1.0; 
stroke:#000000; stroke-width:0; stroke-opacity:1; 
stroke-linecap:round; stroke-linejoin:round;fill-rule:evenodd;"
d="M 5470.5,5511.98
5470.5,5865.98
5136.5,5865.98
5136.5,5511.98
Z" /> 
<path style="fill:#000000; fill-opacity:1.0; 
stroke:#000000; stroke-width:0; stroke-opacity:1; 
stroke-linecap:round; stroke-linejoin:round;fill-rule:evenodd;"
d="M 5926.5,5511.98
5926.5,5865.98
5592.5,5865.98
5592.5,5511.98
Z" /> 
</g>
<g >
</g>
<g style="fill:#000000; fill-opacity:1.0; 
stroke:#000000; stroke-width:0; stroke-opacity:1; 
stroke-linecap:round; stroke-linejoin:round;">
<path style="fill:#000000; fill-opacity:1.0; 
stroke:#000000; stroke-width:0; stroke-opacity:1; 
stroke-linecap:round; stroke-linejoin:round;fill-rule:evenodd;"
d="M 4153.71,3801.16
4507.71,3801.16
4507.71,4135.16
4153.71,4135.16
Z" /> 
<path style="fill:#000000; fill-opacity:1.0; 
stroke:#000000; stroke-width:0; stroke-opacity:1; 
stroke-linecap:round; stroke-linejoin:round;fill-rule:evenodd;"
d="M 4153.71,3345.16
4507.71,3345.16
4507.71,3679.16
4153.71,3679.16
Z" /> 
</g>
<g >
</g>
<g style="fill:#000000; fill-opacity:1.0; 
stroke:#000000; stroke-width:0; stroke-opacity:1; 
stroke-linecap:round; stroke-linejoin:round;">
<path style="fill:#000000; fill-opacity:1.0; 
stroke:#000000; stroke-width:0; stroke-opacity:1; 
stroke-linecap:round; stroke-linejoin:round;fill-rule:evenodd;"
d="M 5592.5,6653.38
5592.5,6299.38
5926.5,6299.38
5926.5,6653.38
Z" /> 
<path style="fill:#000000; fill-opacity:1.0; 
stroke:#000000; stroke-width:0; stroke-opacity:1; 
stroke-linecap:round; stroke-linejoin:round;fill-rule:evenodd;"
d="M 5136.5,6653.38
5136.5,6299.38
5470.5,6299.38
5470.5,6653.38
Z" /> 
</g>
<g >
</g>
<g style="fill:#000000; fill-opacity:1.0; 
stroke:#000000; stroke-width:0; stroke-opacity:1; 
stroke-linecap:round; stroke-linejoin:round;">
<path style="fill:#000000; fill-opacity:1.0; 
stroke:#000000; stroke-width:0; stroke-opacity:1; 
stroke-linecap:round; stroke-linejoin:round;fill-rule:evenodd;"
d="M 4783.63,3801.16
5137.63,3801.16
5137.63,4135.16
4783.63,4135.16
Z" /> 
<path style="fill:#000000; fill-opacity:1.0; 
stroke:#000000; stroke-width:0; stroke-opacity:1; 
stroke-linecap:round; stroke-linejoin:round;fill-rule:evenodd;"
d="M 4783.63,3345.16
5137.63,3345.16
5137.63,3679.16
4783.63,3679.16
Z" /> 
</g>
<g >
</g>
<g style="fill:#000000; fill-opacity:1.0; 
stroke:#000000; stroke-width:0; stroke-opacity:1; 
stroke-linecap:round; stroke-linejoin:round;">
<path style="fill:#000000; fill-opacity:1.0; 
stroke:#000000; stroke-width:0; stroke-opacity:1; 
stroke-linecap:round; stroke-linejoin:round;fill-rule:evenodd;"
d="M 3720.31,4761.83
3366.31,4761.83
3366.31,4427.83
3720.31,4427.83
Z" /> 
<path style="fill:#000000; fill-opacity:1.0; 
stroke:#000000; stroke-width:0; stroke-opacity:1; 
stroke-linecap:round; stroke-linejoin:round;fill-rule:evenodd;"
d="M 3720.31,5217.83
3366.31,5217.83
3366.31,4883.83
3720.31,4883.83
Z" /> 
</g>
<g >
</g>
<g style="fill:#000000; fill-opacity:1.0; 
stroke:#000000; stroke-width:0; stroke-opacity:1; 
stroke-linecap:round; stroke-linejoin:round;">
<path style="fill:#000000; fill-opacity:1.0; 
stroke:#000000; stroke-width:0; stroke-opacity:1; 
stroke-linecap:round; stroke-linejoin:round;fill-rule:evenodd;"
d="M 5826.94,7718.48
6180.94,7718.48
6180.94,8052.48
5826.94,8052.48
Z" /> 
<path style="fill:#000000; fill-opacity:1.0; 
stroke:#000000; stroke-width:0; stroke-opacity:1; 
stroke-linecap:round; stroke-linejoin:round;fill-rule:evenodd;"
d="M 5826.94,7262.48
6180.94,7262.48
6180.94,7596.48
5826.94,7596.48
Z" /> 
</g>
<g >
</g>
<g style="fill:#000000; fill-opacity:1.0; 
stroke:#000000; stroke-width:0; stroke-opacity:1; 
stroke-linecap:round; stroke-linejoin:round;">
<path style="fill:#000000; fill-opacity:1.0; 
stroke:#000000; stroke-width:0; stroke-opacity:1; 
stroke-linecap:round; stroke-linejoin:round;fill-rule:evenodd;"
d="M 6180.94,3029.55
5826.94,3029.55
5826.94,2695.55
6180.94,2695.55
Z" /> 
<path style="fill:#000000; fill-opacity:1.0; 
stroke:#000000; stroke-width:0; stroke-opacity:1; 
stroke-linecap:round; stroke-linejoin:round;fill-rule:evenodd;"
d="M 6180.94,3485.55
5826.94,3485.55
5826.94,3151.55
6180.94,3151.55
Z" /> 
</g>
<g >
</g>
<g style="fill:#000000; fill-opacity:1.0; 
stroke:#000000; stroke-width:0; stroke-opacity:1; 
stroke-linecap:round; stroke-linejoin:round;">
<path style="fill:#000000; fill-opacity:1.0; 
stroke:#000000; stroke-width:0; stroke-opacity:1; 
stroke-linecap:round; stroke-linejoin:round;fill-rule:evenodd;"
d="M 6180.94,3808.73
5826.94,3808.73
5826.94,3474.73
6180.94,3474.73
Z" /> 
<path style="fill:#000000; fill-opacity:1.0; 
stroke:#000000; stroke-width:0; stroke-opacity:1; 
stroke-linecap:round; stroke-linejoin:round;fill-rule:evenodd;"
d="M 6180.94,4264.73
5826.94,4264.73
5826.94,3930.73
6180.94,3930.73
Z" /> 
</g>
<g >
</g>
<g style="fill:#000000; fill-opacity:1.0; 
stroke:#000000; stroke-width:0; stroke-opacity:1; 
stroke-linecap:round; stroke-linejoin:round;">
<path style="fill:#000000; fill-opacity:1.0; 
stroke:#000000; stroke-width:0; stroke-opacity:1; 
stroke-linecap:round; stroke-linejoin:round;fill-rule:evenodd;"
d="M 6968.34,5234.28
6614.34,5234.28
6614.34,4900.28
6968.34,4900.28
Z" /> 
<path style="fill:#000000; fill-opacity:1.0; 
stroke:#000000; stroke-width:0; stroke-opacity:1; 
stroke-linecap:round; stroke-linejoin:round;fill-rule:evenodd;"
d="M 6968.34,5690.28
6614.34,5690.28
6614.34,5356.28
6968.34,5356.28
Z" /> 
</g>
<g >
</g>
<g style="fill:#000000; fill-opacity:1.0; 
stroke:#000000; stroke-width:0; stroke-opacity:1; 
stroke-linecap:round; stroke-linejoin:round;">
<path style="fill:#000000; fill-opacity:1.0; 
stroke:#000000; stroke-width:0; stroke-opacity:1; 
stroke-linecap:round; stroke-linejoin:round;fill-rule:evenodd;"
d="M 6968.34,6021.68
6614.34,6021.68
6614.34,5687.68
6968.34,5687.68
Z" /> 
<path style="fill:#000000; fill-opacity:1.0; 
stroke:#000000; stroke-width:0; stroke-opacity:1; 
stroke-linecap:round; stroke-linejoin:round;fill-rule:evenodd;"
d="M 6968.34,6477.68
6614.34,6477.68
6614.34,6143.68
6968.34,6143.68
Z" /> 
</g>
<g >
</g>
<g style="fill:#000000; fill-opacity:1.0; 
stroke:#000000; stroke-width:0; stroke-opacity:1; 
stroke-linecap:round; stroke-linejoin:round;">
<path style="fill:#000000; fill-opacity:1.0; 
stroke:#000000; stroke-width:0; stroke-opacity:1; 
stroke-linecap:round; stroke-linejoin:round;fill-rule:evenodd;"
d="M 2340.57,4134.02
2340.57,4488.02
2006.57,4488.02
2006.57,4134.02
Z" /> 
<path style="fill:#000000; fill-opacity:1.0; 
stroke:#000000; stroke-width:0; stroke-opacity:1; 
stroke-linecap:round; stroke-linejoin:round;fill-rule:evenodd;"
d="M 2796.57,4134.02
2796.57,4488.02
2462.57,4488.02
2462.57,4134.02
Z" /> 
</g>
<g >
</g>
<g style="fill:#000000; fill-opacity:1.0; 
stroke:#000000; stroke-width:0; stroke-opacity:1; 
stroke-linecap:round; stroke-linejoin:round;">
<path style="fill:#000000; fill-opacity:1.0; 
stroke:#000000; stroke-width:0; stroke-opacity:1; 
stroke-linecap:round; stroke-linejoin:round;fill-rule:evenodd;"
d="M 6772.26,2106.65
6772.26,2499.65
6339.26,2499.65
6339.26,2106.65
Z" /> 
<path style="fill:#000000; fill-opacity:1.0; 
stroke:#000000; stroke-width:0; stroke-opacity:1; 
stroke-linecap:round; stroke-linejoin:round;fill-rule:evenodd;"
d="M 7440.26,2106.65
7440.26,2499.65
7007.26,2499.65
7007.26,2106.65
Z" /> 
</g>
<g >
</g>
<g style="fill:#000000; fill-opacity:1.0; 
stroke:#000000; stroke-width:0; stroke-opacity:1; 
stroke-linecap:round; stroke-linejoin:round;">
<path style="fill:#000000; fill-opacity:1.0; 
stroke:#000000; stroke-width:0; stroke-opacity:1; 
stroke-linecap:round; stroke-linejoin:round;fill-rule:evenodd;"
d="M 6180.94,5242.5
5826.94,5242.5
5826.94,4908.5
6180.94,4908.5
Z" /> 
<path style="fill:#000000; fill-opacity:1.0; 
stroke:#000000; stroke-width:0; stroke-opacity:1; 
stroke-linecap:round; stroke-linejoin:round;fill-rule:evenodd;"
d="M 6180.94,5698.5
5826.94,5698.5
5826.94,5364.5
6180.94,5364.5
Z" /> 
</g>
<g >
</g>
<g style="fill:#000000; fill-opacity:1.0; 
stroke:#000000; stroke-width:0; stroke-opacity:1; 
stroke-linecap:round; stroke-linejoin:round;">
<path style="fill:#000000; fill-opacity:1.0; 
stroke:#000000; stroke-width:0; stroke-opacity:1; 
stroke-linecap:round; stroke-linejoin:round;fill-rule:evenodd;"
d="M 7875.96,5078.57
7875.96,4724.57
8209.96,4724.57
8209.96,5078.57
Z" /> 
<path style="fill:#000000; fill-opacity:1.0; 
stroke:#000000; stroke-width:0; stroke-opacity:1; 
stroke-linecap:round; stroke-linejoin:round;fill-rule:evenodd;"
d="M 7419.96,5078.57
7419.96,4724.57
7753.96,4724.57
7753.96,5078.57
Z" /> 
</g>
<g >
</g>
<g style="fill:#000000; fill-opacity:1.0; 
stroke:#000000; stroke-width:0; stroke-opacity:1; 
stroke-linecap:round; stroke-linejoin:round;">
<path style="fill:#000000; fill-opacity:1.0; 
stroke:#000000; stroke-width:0; stroke-opacity:1; 
stroke-linecap:round; stroke-linejoin:round;fill-rule:evenodd;"
d="M 7224.06,7618.72
6831.06,7618.72
6831.06,7185.72
7224.06,7185.72
Z" /> 
<path style="fill:#000000; fill-opacity:1.0; 
stroke:#000000; stroke-width:0; stroke-opacity:1; 
stroke-linecap:round; stroke-linejoin:round;fill-rule:evenodd;"
d="M 7224.06,8286.72
6831.06,8286.72
6831.06,7853.72
7224.06,7853.72
Z" /> 
</g>
<g >
</g>
<g style="fill:#000000; fill-opacity:1.0; 
stroke:#000000; stroke-width:0; stroke-opacity:1; 
stroke-linecap:round; stroke-linejoin:round;">
<path style="fill:#000000; fill-opacity:1.0; 
stroke:#000000; stroke-width:0; stroke-opacity:1; 
stroke-linecap:round; stroke-linejoin:round;fill-rule:evenodd;"
d="M 4663.41,4114.34
4663.41,4468.34
4329.41,4468.34
4329.41,4114.34
Z" /> 
<path style="fill:#000000; fill-opacity:1.0; 
stroke:#000000; stroke-width:0; stroke-opacity:1; 
stroke-linecap:round; stroke-linejoin:round;fill-rule:evenodd;"
d="M 5119.41,4114.34
5119.41,4468.34
4785.41,4468.34
4785.41,4114.34
Z" /> 
</g>
<g >
</g>
<g style="fill:#000000; fill-opacity:1.0; 
stroke:#000000; stroke-width:0; stroke-opacity:1; 
stroke-linecap:round; stroke-linejoin:round;">
<path style="fill:#000000; fill-opacity:1.0; 
stroke:#000000; stroke-width:0; stroke-opacity:1; 
stroke-linecap:round; stroke-linejoin:round;fill-rule:evenodd;"
d="M 4783.11,7028.81
4390.11,7028.81
4390.11,6595.81
4783.11,6595.81
Z" /> 
<path style="fill:#000000; fill-opacity:1.0; 
stroke:#000000; stroke-width:0; stroke-opacity:1; 
stroke-linecap:round; stroke-linejoin:round;fill-rule:evenodd;"
d="M 4783.11,7696.81
4390.11,7696.81
4390.11,7263.81
4783.11,7263.81
Z" /> 
</g>
<g >
</g>
<g style="fill:#000000; fill-opacity:1.0; 
stroke:#000000; stroke-width:0; stroke-opacity:1; 
stroke-linecap:round; stroke-linejoin:round;">
<path style="fill:#000000; fill-opacity:1.0; 
stroke:#000000; stroke-width:0; stroke-opacity:1; 
stroke-linecap:round; stroke-linejoin:round;fill-rule:evenodd;"
d="M 3503.94,6692.91
3503.94,6102.36
4094.49,6102.36
4094.49,6692.91
Z" /> 
</g>
<g >
</g>
<g style="fill:#000000; fill-opacity:1.0; 
stroke:#000000; stroke-width:0; stroke-opacity:1; 
stroke-linecap:round; stroke-linejoin:round;">
<path style="fill:#000000; fill-opacity:1.0; 
stroke:#000000; stroke-width:0; stroke-opacity:1; 
stroke-linecap:round; stroke-linejoin:round;fill-rule:evenodd;"
d="M 3817.74,4179.98
3817.74,4455.57
3581.52,4455.57
3581.52,4179.98
Z" /> 
<path style="fill:#000000; fill-opacity:1.0; 
stroke:#000000; stroke-width:0; stroke-opacity:1; 
stroke-linecap:round; stroke-linejoin:round;fill-rule:evenodd;"
d="M 4368.92,4179.98
4368.92,4455.57
4132.7,4455.57
4132.7,4179.98
Z" /> 
</g>
<g >
</g>
<g style="fill:#000000; fill-opacity:1.0; 
stroke:#000000; stroke-width:0; stroke-opacity:1; 
stroke-linecap:round; stroke-linejoin:round;">
<path style="fill:#000000; fill-opacity:1.0; 
stroke:#000000; stroke-width:0; stroke-opacity:1; 
stroke-linecap:round; stroke-linejoin:round;fill-rule:evenodd;"
d="M 5846.46,6240.16
6122.05,6240.16
6122.05,6476.38
5846.46,6476.38
Z" /> 
<path style="fill:#000000; fill-opacity:1.0; 
stroke:#000000; stroke-width:0; stroke-opacity:1; 
stroke-linecap:round; stroke-linejoin:round;fill-rule:evenodd;"
d="M 5846.46,5688.98
6122.05,5688.98
6122.05,5925.2
5846.46,5925.2
Z" /> 
</g>
<g >
</g>
<g style="fill:#000000; fill-opacity:1.0; 
stroke:#000000; stroke-width:0; stroke-opacity:1; 
stroke-linecap:round; stroke-linejoin:round;">
<path style="fill:#000000; fill-opacity:1.0; 
stroke:#000000; stroke-width:0; stroke-opacity:1; 
stroke-linecap:round; stroke-linejoin:round;fill-rule:evenodd;"
d="M 3346.46,4455.57
3346.46,4179.98
3582.68,4179.98
3582.68,4455.57
Z" /> 
<path style="fill:#000000; fill-opacity:1.0; 
stroke:#000000; stroke-width:0; stroke-opacity:1; 
stroke-linecap:round; stroke-linejoin:round;fill-rule:evenodd;"
d="M 2795.28,4455.57
2795.28,4179.98
3031.5,4179.98
3031.5,4455.57
Z" /> 
</g>
<g >
</g>
<g style="fill:#000000; fill-opacity:1.0; 
stroke:#000000; stroke-width:0; stroke-opacity:1; 
stroke-linecap:round; stroke-linejoin:round;">
<path style="fill:#000000; fill-opacity:1.0; 
stroke:#000000; stroke-width:0; stroke-opacity:1; 
stroke-linecap:round; stroke-linejoin:round;fill-rule:evenodd;"
d="M 6122.05,6712.6
5846.46,6712.6
5846.46,6476.38
6122.05,6476.38
Z" /> 
<path style="fill:#000000; fill-opacity:1.0; 
stroke:#000000; stroke-width:0; stroke-opacity:1; 
stroke-linecap:round; stroke-linejoin:round;fill-rule:evenodd;"
d="M 6122.05,7263.78
5846.46,7263.78
5846.46,7027.56
6122.05,7027.56
Z" /> 
</g>
<g >
</g>
<g style="fill:#000000; fill-opacity:1.0; 
stroke:#000000; stroke-width:0; stroke-opacity:1; 
stroke-linecap:round; stroke-linejoin:round;">
<path style="fill:#000000; fill-opacity:1.0; 
stroke:#000000; stroke-width:0; stroke-opacity:1; 
stroke-linecap:round; stroke-linejoin:round;fill-rule:evenodd;"
d="M 5856.3,4409.45
5856.3,4251.97
6112.2,4251.97
6112.2,4409.45
Z" /> 
<path style="fill:#000000; fill-opacity:1.0; 
stroke:#000000; stroke-width:0; stroke-opacity:1; 
stroke-linecap:round; stroke-linejoin:round;fill-rule:evenodd;"
d="M 5856.3,4921.26
5856.3,4763.78
6112.2,4763.78
6112.2,4921.26
Z" /> 
<path style="fill:#000000; fill-opacity:1.0; 
stroke:#000000; stroke-width:0; stroke-opacity:1; 
stroke-linecap:round; stroke-linejoin:round;fill-rule:evenodd;"
d="M 5108.27,4921.26
5108.27,4763.78
5364.17,4763.78
5364.17,4921.26
Z" /> 
<path style="fill:#000000; fill-opacity:1.0; 
stroke:#000000; stroke-width:0; stroke-opacity:1; 
stroke-linecap:round; stroke-linejoin:round;fill-rule:evenodd;"
d="M 5108.27,4409.45
5108.27,4251.97
5364.17,4251.97
5364.17,4409.45
Z" /> 
</g>
<g >
</g>
<g style="fill:#000000; fill-opacity:1.0; 
stroke:#000000; stroke-width:0; stroke-opacity:1; 
stroke-linecap:round; stroke-linejoin:round;">
<path style="fill:#000000; fill-opacity:1.0; 
stroke:#000000; stroke-width:0; stroke-opacity:1; 
stroke-linecap:round; stroke-linejoin:round;fill-rule:evenodd;"
d="M 5610.24,2696.85
5610.24,1909.45
6397.64,1909.45
6397.64,2696.85
Z" /> 
</g>
<g >
</g>
<g style="fill:#000000; fill-opacity:1.0; 
stroke:#000000; stroke-width:0; stroke-opacity:1; 
stroke-linecap:round; stroke-linejoin:round;">
<path style="fill:#000000; fill-opacity:1.0; 
stroke:#000000; stroke-width:0; stroke-opacity:1; 
stroke-linecap:round; stroke-linejoin:round;fill-rule:evenodd;"
d="M 6633.86,7263.78
6633.86,6476.38
7421.26,6476.38
7421.26,7263.78
Z" /> 
</g>
<g >
</g>
<g style="fill:#000000; fill-opacity:1.0; 
stroke:#000000; stroke-width:0; stroke-opacity:1; 
stroke-linecap:round; stroke-linejoin:round;">
<path style="fill:#000000; fill-opacity:1.0; 
stroke:#000000; stroke-width:0; stroke-opacity:1; 
stroke-linecap:round; stroke-linejoin:round;fill-rule:evenodd;"
d="M 9173.23,5196.85
9173.23,4606.3
9763.78,4606.3
9763.78,5196.85
Z" /> 
</g>
<g >
</g>
<g >
</g>
<g style="fill:#000000; fill-opacity:1.0; 
stroke:#000000; stroke-width:0; stroke-opacity:1; 
stroke-linecap:round; stroke-linejoin:round;">
</g>
<g style="fill:#000000; fill-opacity:1.0; 
stroke:#000000; stroke-width:393.701; stroke-opacity:1; 
stroke-linecap:round; stroke-linejoin:round;">
</g>
<g style="fill:#000000; fill-opacity:0.0; 
stroke:#000000; stroke-width:393.701; stroke-opacity:1; 
stroke-linecap:round; stroke-linejoin:round;">
<path d="M1574 8661
L9251 8661
" />
<path d="M4567 6397
L4586 6416
" />
<path d="M3799 6397
L4567 6397
" />
<path d="M4646 6476
L4586 6416
" />
<path d="M5216 6476
L4559 6476
" />
<path d="M3799 6397
L3799 5472
" />
<path d="M3799 5472
L3543 5216
" />
<path d="M9468 6083
L9448 6103
" />
<path d="M9468 5640
L9468 6200
" />
</g>
<g style="fill:#000000; fill-opacity:0.0; 
stroke:#000000; stroke-width:590.551; stroke-opacity:1; 
stroke-linecap:round; stroke-linejoin:round;">
<path d="M9311 4901
L8366 4901
" />
<path d="M5925 4901
L6200 4901
" />
</g>
<g style="fill:#000000; fill-opacity:0.0; 
stroke:#000000; stroke-width:98.4252; stroke-opacity:1; 
stroke-linecap:round; stroke-linejoin:round;">
<path d="M7665 4901
L7400 4901
" />
</g>
<g style="fill:#000000; fill-opacity:0.0; 
stroke:#000000; stroke-width:590.551; stroke-opacity:1; 
stroke-linecap:round; stroke-linejoin:round;">
<path d="M7263 4901
L6261 4901
" />
</g>
<g >
</g>
<g style="fill:#000000; fill-opacity:0.0; 
stroke:#000000; stroke-width:590.551; stroke-opacity:1; 
stroke-linecap:round; stroke-linejoin:round;">
</g>
<g style="fill:#000000; fill-opacity:1.0; 
stroke:#000000; stroke-width:100; stroke-opacity:1; 
stroke-linecap:round; stroke-linejoin:round;">
<path style="fill:#000000; fill-opacity:1.0; 
stroke:#000000; stroke-width:100; stroke-opacity:1; 
stroke-linecap:round; stroke-linejoin:round;fill-rule:evenodd;"
d="M 9792.52,3767.68
9763.78,3764.85
9173.23,3764.85
9132.09,3768.9
8310.5,3768.9
8144.1,3785.29
7930.59,3850.05
7867.09,3884
7814.96,3889.13
7762.83,3884
7699.33,3850.05
7485.82,3785.29
7319.42,3768.9
7022.39,3768.9
7022.39,3298.86
7094.27,3277.05
7239.75,3199.29
7367.26,3094.65
7471.91,2967.14
7549.66,2821.66
7585.36,2703.98
7617.9,2677.28
7649.14,2639.21
7672.35,2595.78
7686.65,2548.66
7691.47,2499.65
7690.26,2415.65
7627.76,2353.15
7613.72,2353.15
7613.72,2253.15
7627.76,2253.15
7690.26,2190.65
7691.47,2106.65
7686.65,2057.64
7672.35,2010.52
7649.14,1967.09
7617.9,1929.02
7585.36,1902.32
7549.66,1784.64
7471.91,1639.16
7367.26,1511.65
7239.75,1407.01
7094.27,1329.25
6961.64,1289.01
6865.12,1209.81
6719.65,1132.05
6561.8,1084.16
6397.64,1068
5610.24,1068
5446.08,1084.16
5288.23,1132.05
5142.75,1209.81
5015.24,1314.45
4910.59,1441.96
4832.84,1587.44
4784.95,1745.29
4768.78,1909.45
4768.78,2696.85
4784.95,2861.01
4814.89,2959.7
4783.63,2959.7
4645.67,2973.29
4507.71,2959.7
4153.71,2959.7
3989.55,2975.87
3831.7,3023.76
3686.22,3101.51
3558.71,3206.16
3454.07,3333.67
3451.47,3338.53
3346.46,3338.53
3188.98,3354.04
3072.14,3342.53
2960.73,3308.74
2796.57,3292.57
2462.57,3292.57
2298.42,3308.74
2140.56,3356.62
1995.09,3434.38
1867.58,3539.03
1762.93,3666.54
1685.17,3812.01
1637.29,3969.86
1621.12,4134.02
1621.12,4488.02
1637.29,4652.18
1685.17,4810.03
1762.93,4955.51
1867.58,5083.02
1995.09,5187.67
2140.56,5265.42
2298.42,5313.31
2462.57,5329.48
2515.18,5329.48
2524.02,5419.28
2583.16,5614.24
2679.2,5793.91
2710.76,5832.37
2678.65,5938.2
2662.48,6102.36
2662.48,6692.91
2678.65,6857.07
2726.54,7014.92
2804.29,7160.4
2908.94,7287.91
3036.45,7392.56
3181.93,7470.31
3339.78,7518.2
3503.94,7534.37
3927.79,7534.37
4068.1,7609.37
4185.78,7645.06
4212.48,7677.6
4250.55,7708.84
4293.98,7732.05
4341.11,7746.35
4390.11,7751.17
4474.11,7749.96
4536.61,7687.46
4536.61,7673.42
4636.61,7673.42
4636.61,7687.46
4699.11,7749.96
4783.11,7751.17
4832.12,7746.35
4879.25,7732.05
4922.68,7708.84
4960.75,7677.6
4987.44,7645.06
4990.19,7644.23
5001.65,7760.64
5020.88,7824.02
3641.73,7824.02
3631.98,7824.98
3622.6,7827.82
3613.95,7832.44
3606.38,7838.66
3600.16,7846.24
3595.54,7854.88
3592.69,7864.26
3591.73,7874.02
3591.73,9201.97
50,9201.97
50,50
9792.52,50
Z" /> 
<path style="fill:#000000; fill-opacity:1.0; 
stroke:#000000; stroke-width:100; stroke-opacity:1; 
stroke-linecap:round; stroke-linejoin:round;fill-rule:evenodd;"
d="M 8144.1,6017.86
8310.5,6034.25
9043.91,6034.25
9127.34,6059.56
9291.5,6075.73
9645.5,6075.73
9792.52,6061.25
9792.52,9201.97
8908.27,9201.97
8908.27,7874.02
8907.31,7864.26
8904.46,7854.88
8899.84,7846.24
8893.62,7838.66
8886.05,7832.44
8877.4,7827.82
8868.02,7824.98
8858.27,7824.02
8044.78,7824.02
8120.9,7731.27
8198.66,7585.79
8246.54,7427.94
8262.71,7263.78
8262.71,6476.38
8246.54,6312.22
8198.66,6154.37
8122.14,6011.2
Z" /> 
<path style="fill:#000000; fill-opacity:1.0; 
stroke:#000000; stroke-width:100; stroke-opacity:1; 
stroke-linecap:round; stroke-linejoin:round;fill-rule:evenodd;"
d="M 8808.27,9201.97
3691.73,9201.97
3691.73,7924.02
8808.27,7924.02
Z" /> 
<path style="fill:#000000; fill-opacity:1.0; 
stroke:#000000; stroke-width:100; stroke-opacity:1; 
stroke-linecap:round; stroke-linejoin:round;fill-rule:evenodd;"
d="M 9149.1,3591.73
7136.61,3591.73
7136.61,1030.39
Z" /> 
<path style="fill:#000000; fill-opacity:1.0; 
stroke:#000000; stroke-width:100; stroke-opacity:1; 
stroke-linecap:round; stroke-linejoin:round;fill-rule:evenodd;"
d="M 2213.78,6347.64
471.98,6347.64
2213.78,2589.02
Z" /> 
<path style="fill:#000000; fill-opacity:1.0; 
stroke:#000000; stroke-width:100; stroke-opacity:1; 
stroke-linecap:round; stroke-linejoin:round;fill-rule:evenodd;"
d="M 5068.11,3493.31
3790.16,3493.31
3790.16,2482.43
5068.11,1295.76
Z" /> 
</g>
</g>
<g style="fill:#FFFFFF; fill-opacity:1.0; 
stroke:#FFFFFF; stroke-width:100; stroke-opacity:1; 
stroke-linecap:round; stroke-linejoin:round;">
</g>
<g style="fill:#000000; fill-opacity:1.0; 
stroke:#000000; stroke-width:100; stroke-opacity:1; 
stroke-linecap:round; stroke-linejoin:round;">
</g> 
</svg>
