M48
; DRILL file {KiCad 5.1.5+dfsg1-2~bpo9+1} date Sun 13 Sep 2020 10:03:24 PM EDT
; FORMAT={-:-/ absolute / metric / decimal}
; #@! TF.CreationDate,2020-09-13T22:03:24-04:00
; #@! TF.GenerationSoftware,Kicad,Pcbnew,5.1.5+dfsg1-2~bpo9+1
FMAT,2
METRIC
T1C0.100
T2C0.700
T3C1.587
%
G90
G05
T1
X21.896Y-2.313
X21.896Y-20.313
X21.896Y-26.313
X21.896Y-38.313
X21.896Y-44.313
X21.896Y-8.313
X21.896Y-14.313
X21.896Y-32.313
X33.315Y-47.485
X33.315Y-35.485
X33.315Y-41.485
X33.315Y-53.485
X33.315Y-59.485
X33.315Y-65.485
X33.315Y-71.485
X33.315Y-77.485
T2
X33.325Y-47.475
X33.325Y-35.475
X33.325Y-41.475
X33.325Y-53.475
X33.325Y-59.475
X33.325Y-65.475
X33.325Y-71.475
X33.325Y-77.475
T3
X20.043Y-34.499
X20.046Y-4.499
X23.75Y-12.499
X23.75Y-42.499
X31.475Y-37.671
X31.475Y-67.671
X35.175Y-45.671
X35.175Y-75.671
T0
M30
