<?xml version="1.0" standalone="no"?>
 <!DOCTYPE svg PUBLIC "-//W3C//DTD SVG 1.1//EN" 
 "http://www.w3.org/Graphics/SVG/1.1/DTD/svg11.dtd"> 
<svg xmlns="http://www.w3.org/2000/svg" version="1.1" 
    width="29.7002cm" height="21.0007cm" viewBox="0 0 116930 82680 ">
<title>SVG Picture created as wideband_LO-F_Paste.svg date 2020/07/24 23:05:28 </title>
  <desc>Picture generated by PCBNEW </desc>
<g style="fill:#000000; fill-opacity:1;stroke:#000000; stroke-opacity:1;
stroke-linecap:round; stroke-linejoin:round; "
 transform="translate(0 0) scale(1 1)">
</g>
<g style="fill:#000000; fill-opacity:0.0; 
stroke:#000000; stroke-width:-0.000393701; stroke-opacity:1; 
stroke-linecap:round; stroke-linejoin:round;">
<g >
</g>
<g >
</g>
<g style="fill:#000000; fill-opacity:0.0; 
stroke:#000000; stroke-width:-0.000393701; stroke-opacity:1; 
stroke-linecap:round; stroke-linejoin:round;">
</g>
<g style="fill:#000000; fill-opacity:0.0; 
stroke:#000000; stroke-width:0; stroke-opacity:1; 
stroke-linecap:round; stroke-linejoin:round;">
</g>
<g style="fill:#000000; fill-opacity:1.0; 
stroke:#000000; stroke-width:0; stroke-opacity:1; 
stroke-linecap:round; stroke-linejoin:round;">
<path style="fill:#000000; fill-opacity:1.0; 
stroke:#000000; stroke-width:0; stroke-opacity:1; 
stroke-linecap:round; stroke-linejoin:round;fill-rule:evenodd;"
d="M 38346.8,35944.3
38739.8,35944.3
38739.8,36377.3
38346.8,36377.3
Z" /> 
<path style="fill:#000000; fill-opacity:1.0; 
stroke:#000000; stroke-width:0; stroke-opacity:1; 
stroke-linecap:round; stroke-linejoin:round;fill-rule:evenodd;"
d="M 38346.8,35276.3
38739.8,35276.3
38739.8,35709.3
38346.8,35709.3
Z" /> 
</g>
<g >
</g>
<g style="fill:#000000; fill-opacity:1.0; 
stroke:#000000; stroke-width:0; stroke-opacity:1; 
stroke-linecap:round; stroke-linejoin:round;">
<path style="fill:#000000; fill-opacity:1.0; 
stroke:#000000; stroke-width:0; stroke-opacity:1; 
stroke-linecap:round; stroke-linejoin:round;fill-rule:evenodd;"
d="M 35550.6,39861.9
35550.6,39468.9
35983.6,39468.9
35983.6,39861.9
Z" /> 
<path style="fill:#000000; fill-opacity:1.0; 
stroke:#000000; stroke-width:0; stroke-opacity:1; 
stroke-linecap:round; stroke-linejoin:round;fill-rule:evenodd;"
d="M 34882.6,39861.9
34882.6,39468.9
35315.6,39468.9
35315.6,39861.9
Z" /> 
</g>
<g >
</g>
<g style="fill:#000000; fill-opacity:1.0; 
stroke:#000000; stroke-width:0; stroke-opacity:1; 
stroke-linecap:round; stroke-linejoin:round;">
<path style="fill:#000000; fill-opacity:1.0; 
stroke:#000000; stroke-width:0; stroke-opacity:1; 
stroke-linecap:round; stroke-linejoin:round;fill-rule:evenodd;"
d="M 37126.6,36417.7
37126.6,36810.7
36693.6,36810.7
36693.6,36417.7
Z" /> 
<path style="fill:#000000; fill-opacity:1.0; 
stroke:#000000; stroke-width:0; stroke-opacity:1; 
stroke-linecap:round; stroke-linejoin:round;fill-rule:evenodd;"
d="M 37794.6,36417.7
37794.6,36810.7
37361.6,36810.7
37361.6,36417.7
Z" /> 
</g>
<g >
</g>
<g style="fill:#000000; fill-opacity:1.0; 
stroke:#000000; stroke-width:0; stroke-opacity:1; 
stroke-linecap:round; stroke-linejoin:round;">
<path style="fill:#000000; fill-opacity:1.0; 
stroke:#000000; stroke-width:0; stroke-opacity:1; 
stroke-linecap:round; stroke-linejoin:round;fill-rule:evenodd;"
d="M 39173.6,35944.3
39566.6,35944.3
39566.6,36377.3
39173.6,36377.3
Z" /> 
<path style="fill:#000000; fill-opacity:1.0; 
stroke:#000000; stroke-width:0; stroke-opacity:1; 
stroke-linecap:round; stroke-linejoin:round;fill-rule:evenodd;"
d="M 39173.6,35276.3
39566.6,35276.3
39566.6,35709.3
39173.6,35709.3
Z" /> 
</g>
<g >
</g>
<g style="fill:#000000; fill-opacity:1.0; 
stroke:#000000; stroke-width:0; stroke-opacity:1; 
stroke-linecap:round; stroke-linejoin:round;">
<path style="fill:#000000; fill-opacity:1.0; 
stroke:#000000; stroke-width:0; stroke-opacity:1; 
stroke-linecap:round; stroke-linejoin:round;fill-rule:evenodd;"
d="M 36902.3,35897.9
36908,35898.8
36913.5,35900.1
36918.9,35902.1
36924,35904.5
36928.9,35907.4
36933.5,35910.8
36937.7,35914.6
36941.5,35918.9
36944.9,35923.4
36947.9,35928.3
36950.3,35933.5
36952.2,35938.9
36953.6,35944.4
36954.4,35950
36954.7,35955.7
36954.7,36091.5
36954.4,36097.2
36953.6,36102.9
36952.2,36108.4
36950.3,36113.8
36947.9,36118.9
36944.9,36123.8
36941.5,36128.4
36937.7,36132.6
36933.5,36136.4
36928.9,36139.8
36924,36142.7
36918.9,36145.2
36913.5,36147.1
36908,36148.5
36902.3,36149.3
36896.7,36149.6
36780.5,36149.6
36774.8,36149.3
36769.2,36148.5
36763.7,36147.1
36758.3,36145.2
36753.1,36142.7
36748.2,36139.8
36743.7,36136.4
36739.4,36132.6
36735.6,36128.4
36732.2,36123.8
36729.3,36118.9
36726.9,36113.8
36724.9,36108.4
36723.6,36102.9
36722.7,36097.2
36722.4,36091.5
36722.4,35955.7
36722.7,35950
36723.6,35944.4
36724.9,35938.9
36726.9,35933.5
36729.3,35928.3
36732.2,35923.4
36735.6,35918.9
36739.4,35914.6
36743.7,35910.8
36748.2,35907.4
36753.1,35904.5
36758.3,35902.1
36763.7,35900.1
36769.2,35898.8
36774.8,35897.9
36780.5,35897.6
36896.7,35897.6
Z" /> 
<path style="fill:#000000; fill-opacity:1.0; 
stroke:#000000; stroke-width:0; stroke-opacity:1; 
stroke-linecap:round; stroke-linejoin:round;fill-rule:evenodd;"
d="M 36520.5,35897.9
36526.1,35898.8
36531.6,35900.1
36537,35902.1
36542.1,35904.5
36547,35907.4
36551.6,35910.8
36555.8,35914.6
36559.7,35918.9
36563,35923.4
36566,35928.3
36568.4,35933.5
36570.3,35938.9
36571.7,35944.4
36572.6,35950
36572.8,35955.7
36572.8,36091.5
36572.6,36097.2
36571.7,36102.9
36570.3,36108.4
36568.4,36113.8
36566,36118.9
36563,36123.8
36559.7,36128.4
36555.8,36132.6
36551.6,36136.4
36547,36139.8
36542.1,36142.7
36537,36145.2
36531.6,36147.1
36526.1,36148.5
36520.5,36149.3
36514.8,36149.6
36398.6,36149.6
36392.9,36149.3
36387.3,36148.5
36381.8,36147.1
36376.4,36145.2
36371.2,36142.7
36366.4,36139.8
36361.8,36136.4
36357.6,36132.6
36353.7,36128.4
36350.3,36123.8
36347.4,36118.9
36345,36113.8
36343.1,36108.4
36341.7,36102.9
36340.8,36097.2
36340.6,36091.5
36340.6,35955.7
36340.8,35950
36341.7,35944.4
36343.1,35938.9
36345,35933.5
36347.4,35928.3
36350.3,35923.4
36353.7,35918.9
36357.6,35914.6
36361.8,35910.8
36366.4,35907.4
36371.2,35904.5
36376.4,35902.1
36381.8,35900.1
36387.3,35898.8
36392.9,35897.9
36398.6,35897.6
36514.8,35897.6
Z" /> 
</g>
<g >
</g>
<g style="fill:#000000; fill-opacity:1.0; 
stroke:#000000; stroke-width:0; stroke-opacity:1; 
stroke-linecap:round; stroke-linejoin:round;">
<path style="fill:#000000; fill-opacity:1.0; 
stroke:#000000; stroke-width:0; stroke-opacity:1; 
stroke-linecap:round; stroke-linejoin:round;fill-rule:evenodd;"
d="M 36333.4,37724.7
36339.1,37725.5
36344.6,37726.9
36350,37728.8
36355.1,37731.3
36360,37734.2
36364.6,37737.6
36368.8,37741.4
36372.6,37745.6
36376,37750.2
36379,37755.1
36381.4,37760.3
36383.3,37765.6
36384.7,37771.2
36385.5,37776.8
36385.8,37782.5
36385.8,37898.6
36385.5,37904.3
36384.7,37910
36383.3,37915.5
36381.4,37920.8
36379,37926
36376,37930.9
36372.6,37935.5
36368.8,37939.7
36364.6,37943.5
36360,37946.9
36355.1,37949.8
36350,37952.3
36344.6,37954.2
36339.1,37955.6
36333.4,37956.4
36327.8,37956.7
36191.9,37956.7
36186.2,37956.4
36180.6,37955.6
36175.1,37954.2
36169.7,37952.3
36164.6,37949.8
36159.7,37946.9
36155.1,37943.5
36150.9,37939.7
36147,37935.5
36143.6,37930.9
36140.7,37926
36138.3,37920.8
36136.4,37915.5
36135,37910
36134.1,37904.3
36133.9,37898.6
36133.9,37782.5
36134.1,37776.8
36135,37771.2
36136.4,37765.6
36138.3,37760.3
36140.7,37755.1
36143.6,37750.2
36147,37745.6
36150.9,37741.4
36155.1,37737.6
36159.7,37734.2
36164.6,37731.3
36169.7,37728.8
36175.1,37726.9
36180.6,37725.5
36186.2,37724.7
36191.9,37724.4
36327.8,37724.4
Z" /> 
<path style="fill:#000000; fill-opacity:1.0; 
stroke:#000000; stroke-width:0; stroke-opacity:1; 
stroke-linecap:round; stroke-linejoin:round;fill-rule:evenodd;"
d="M 36333.4,38106.6
36339.1,38107.4
36344.6,38108.8
36350,38110.7
36355.1,38113.2
36360,38116.1
36364.6,38119.5
36368.8,38123.3
36372.6,38127.5
36376,38132.1
36379,38137
36381.4,38142.1
36383.3,38147.5
36384.7,38153
36385.5,38158.7
36385.8,38164.4
36385.8,38280.5
36385.5,38286.2
36384.7,38291.8
36383.3,38297.4
36381.4,38302.7
36379,38307.9
36376,38312.8
36372.6,38317.4
36368.8,38321.6
36364.6,38325.4
36360,38328.8
36355.1,38331.7
36350,38334.2
36344.6,38336.1
36339.1,38337.5
36333.4,38338.3
36327.8,38338.6
36191.9,38338.6
36186.2,38338.3
36180.6,38337.5
36175.1,38336.1
36169.7,38334.2
36164.6,38331.7
36159.7,38328.8
36155.1,38325.4
36150.9,38321.6
36147,38317.4
36143.6,38312.8
36140.7,38307.9
36138.3,38302.7
36136.4,38297.4
36135,38291.8
36134.1,38286.2
36133.9,38280.5
36133.9,38164.4
36134.1,38158.7
36135,38153
36136.4,38147.5
36138.3,38142.1
36140.7,38137
36143.6,38132.1
36147,38127.5
36150.9,38123.3
36155.1,38119.5
36159.7,38116.1
36164.6,38113.2
36169.7,38110.7
36175.1,38108.8
36180.6,38107.4
36186.2,38106.6
36191.9,38106.3
36327.8,38106.3
Z" /> 
</g>
<g >
</g>
<g style="fill:#000000; fill-opacity:1.0; 
stroke:#000000; stroke-width:0; stroke-opacity:1; 
stroke-linecap:round; stroke-linejoin:round;">
<path style="fill:#000000; fill-opacity:1.0; 
stroke:#000000; stroke-width:0; stroke-opacity:1; 
stroke-linecap:round; stroke-linejoin:round;fill-rule:evenodd;"
d="M 38616.9,36346.7
38622.5,36347.6
38628.1,36349
38633.4,36350.9
38638.6,36353.3
38643.5,36356.2
38648.1,36359.6
38652.3,36363.5
38656.1,36367.7
38659.5,36372.3
38662.4,36377.2
38664.9,36382.3
38666.8,36387.7
38668.2,36393.2
38669,36398.8
38669.3,36404.5
38669.3,36520.7
38669,36526.4
38668.2,36532
38666.8,36537.5
38664.9,36542.9
38662.4,36548
38659.5,36552.9
38656.1,36557.5
38652.3,36561.7
38648.1,36565.6
38643.5,36569
38638.6,36571.9
38633.4,36574.3
38628.1,36576.2
38622.5,36577.6
38616.9,36578.5
38611.2,36578.7
38475.4,36578.7
38469.7,36578.5
38464.1,36577.6
38458.5,36576.2
38453.2,36574.3
38448,36571.9
38443.1,36569
38438.6,36565.6
38434.3,36561.7
38430.5,36557.5
38427.1,36552.9
38424.2,36548
38421.7,36542.9
38419.8,36537.5
38418.4,36532
38417.6,36526.4
38417.3,36520.7
38417.3,36404.5
38417.6,36398.8
38418.4,36393.2
38419.8,36387.7
38421.7,36382.3
38424.2,36377.2
38427.1,36372.3
38430.5,36367.7
38434.3,36363.5
38438.6,36359.6
38443.1,36356.2
38448,36353.3
38453.2,36350.9
38458.5,36349
38464.1,36347.6
38469.7,36346.7
38475.4,36346.5
38611.2,36346.5
Z" /> 
<path style="fill:#000000; fill-opacity:1.0; 
stroke:#000000; stroke-width:0; stroke-opacity:1; 
stroke-linecap:round; stroke-linejoin:round;fill-rule:evenodd;"
d="M 38616.9,36728.6
38622.5,36729.5
38628.1,36730.8
38633.4,36732.8
38638.6,36735.2
38643.5,36738.1
38648.1,36741.5
38652.3,36745.4
38656.1,36749.6
38659.5,36754.2
38662.4,36759
38664.9,36764.2
38666.8,36769.6
38668.2,36775.1
38669,36780.7
38669.3,36786.4
38669.3,36902.6
38669,36908.3
38668.2,36913.9
38666.8,36919.4
38664.9,36924.8
38662.4,36929.9
38659.5,36934.8
38656.1,36939.4
38652.3,36943.6
38648.1,36947.4
38643.5,36950.8
38638.6,36953.8
38633.4,36956.2
38628.1,36958.1
38622.5,36959.5
38616.9,36960.4
38611.2,36960.6
38475.4,36960.6
38469.7,36960.4
38464.1,36959.5
38458.5,36958.1
38453.2,36956.2
38448,36953.8
38443.1,36950.8
38438.6,36947.4
38434.3,36943.6
38430.5,36939.4
38427.1,36934.8
38424.2,36929.9
38421.7,36924.8
38419.8,36919.4
38418.4,36913.9
38417.6,36908.3
38417.3,36902.6
38417.3,36786.4
38417.6,36780.7
38418.4,36775.1
38419.8,36769.6
38421.7,36764.2
38424.2,36759
38427.1,36754.2
38430.5,36749.6
38434.3,36745.4
38438.6,36741.5
38443.1,36738.1
38448,36735.2
38453.2,36732.8
38458.5,36730.8
38464.1,36729.5
38469.7,36728.6
38475.4,36728.3
38611.2,36728.3
Z" /> 
</g>
<g >
</g>
<g style="fill:#000000; fill-opacity:1.0; 
stroke:#000000; stroke-width:0; stroke-opacity:1; 
stroke-linecap:round; stroke-linejoin:round;">
<path style="fill:#000000; fill-opacity:1.0; 
stroke:#000000; stroke-width:0; stroke-opacity:1; 
stroke-linecap:round; stroke-linejoin:round;fill-rule:evenodd;"
d="M 41884.6,38256.2
41890.3,38257
41895.8,38258.4
41901.2,38260.3
41906.3,38262.8
41911.2,38265.7
41915.8,38269.1
41920,38272.9
41923.8,38277.1
41927.2,38281.7
41930.2,38286.6
41932.6,38291.8
41934.5,38297.1
41935.9,38302.6
41936.7,38308.3
41937,38314
41937,38430.1
41936.7,38435.8
41935.9,38441.4
41934.5,38447
41932.6,38452.3
41930.2,38457.5
41927.2,38462.4
41923.8,38467
41920,38471.2
41915.8,38475
41911.2,38478.4
41906.3,38481.3
41901.2,38483.8
41895.8,38485.7
41890.3,38487.1
41884.6,38487.9
41878.9,38488.2
41743.1,38488.2
41737.4,38487.9
41731.8,38487.1
41726.3,38485.7
41720.9,38483.8
41715.7,38481.3
41710.8,38478.4
41706.3,38475
41702,38471.2
41698.2,38467
41694.8,38462.4
41691.9,38457.5
41689.5,38452.3
41687.5,38447
41686.2,38441.4
41685.3,38435.8
41685,38430.1
41685,38314
41685.3,38308.3
41686.2,38302.6
41687.5,38297.1
41689.5,38291.8
41691.9,38286.6
41694.8,38281.7
41698.2,38277.1
41702,38272.9
41706.3,38269.1
41710.8,38265.7
41715.7,38262.8
41720.9,38260.3
41726.3,38258.4
41731.8,38257
41737.4,38256.2
41743.1,38255.9
41878.9,38255.9
Z" /> 
<path style="fill:#000000; fill-opacity:1.0; 
stroke:#000000; stroke-width:0; stroke-opacity:1; 
stroke-linecap:round; stroke-linejoin:round;fill-rule:evenodd;"
d="M 41884.6,38638.1
41890.3,38638.9
41895.8,38640.3
41901.2,38642.2
41906.3,38644.7
41911.2,38647.6
41915.8,38651
41920,38654.8
41923.8,38659
41927.2,38663.6
41930.2,38668.5
41932.6,38673.6
41934.5,38679
41935.9,38684.5
41936.7,38690.2
41937,38695.9
41937,38812
41936.7,38817.7
41935.9,38823.3
41934.5,38828.9
41932.6,38834.2
41930.2,38839.4
41927.2,38844.3
41923.8,38848.8
41920,38853.1
41915.8,38856.9
41911.2,38860.3
41906.3,38863.2
41901.2,38865.7
41895.8,38867.6
41890.3,38869
41884.6,38869.8
41878.9,38870.1
41743.1,38870.1
41737.4,38869.8
41731.8,38869
41726.3,38867.6
41720.9,38865.7
41715.7,38863.2
41710.8,38860.3
41706.3,38856.9
41702,38853.1
41698.2,38848.8
41694.8,38844.3
41691.9,38839.4
41689.5,38834.2
41687.5,38828.9
41686.2,38823.3
41685.3,38817.7
41685,38812
41685,38695.9
41685.3,38690.2
41686.2,38684.5
41687.5,38679
41689.5,38673.6
41691.9,38668.5
41694.8,38663.6
41698.2,38659
41702,38654.8
41706.3,38651
41710.8,38647.6
41715.7,38644.7
41720.9,38642.2
41726.3,38640.3
41731.8,38638.9
41737.4,38638.1
41743.1,38637.8
41878.9,38637.8
Z" /> 
</g>
<g >
</g>
<g style="fill:#000000; fill-opacity:1.0; 
stroke:#000000; stroke-width:0; stroke-opacity:1; 
stroke-linecap:round; stroke-linejoin:round;">
<path style="fill:#000000; fill-opacity:1.0; 
stroke:#000000; stroke-width:0; stroke-opacity:1; 
stroke-linecap:round; stroke-linejoin:round;fill-rule:evenodd;"
d="M 39211.4,38850.7
39217,38851.5
39222.6,38852.9
39227.9,38854.8
39233.1,38857.3
39238,38860.2
39242.5,38863.6
39246.8,38867.4
39250.6,38871.6
39254,38876.2
39256.9,38881.1
39259.4,38886.2
39261.3,38891.6
39262.7,38897.1
39263.5,38902.8
39263.8,38908.5
39263.8,39044.3
39263.5,39050
39262.7,39055.6
39261.3,39061.1
39259.4,39066.5
39256.9,39071.7
39254,39076.6
39250.6,39081.1
39246.8,39085.4
39242.5,39089.2
39238,39092.6
39233.1,39095.5
39227.9,39097.9
39222.6,39099.9
39217,39101.2
39211.4,39102.1
39205.7,39102.4
39089.6,39102.4
39083.9,39102.1
39078.2,39101.2
39072.7,39099.9
39067.3,39097.9
39062.2,39095.5
39057.3,39092.6
39052.7,39089.2
39048.5,39085.4
39044.7,39081.1
39041.3,39076.6
39038.4,39071.7
39035.9,39066.5
39034,39061.1
39032.6,39055.6
39031.8,39050
39031.5,39044.3
39031.5,38908.5
39031.8,38902.8
39032.6,38897.1
39034,38891.6
39035.9,38886.2
39038.4,38881.1
39041.3,38876.2
39044.7,38871.6
39048.5,38867.4
39052.7,38863.6
39057.3,38860.2
39062.2,38857.3
39067.3,38854.8
39072.7,38852.9
39078.2,38851.5
39083.9,38850.7
39089.6,38850.4
39205.7,38850.4
Z" /> 
<path style="fill:#000000; fill-opacity:1.0; 
stroke:#000000; stroke-width:0; stroke-opacity:1; 
stroke-linecap:round; stroke-linejoin:round;fill-rule:evenodd;"
d="M 38829.5,38850.7
38835.1,38851.5
38840.7,38852.9
38846,38854.8
38851.2,38857.3
38856.1,38860.2
38860.7,38863.6
38864.9,38867.4
38868.7,38871.6
38872.1,38876.2
38875,38881.1
38877.5,38886.2
38879.4,38891.6
38880.8,38897.1
38881.6,38902.8
38881.9,38908.5
38881.9,39044.3
38881.6,39050
38880.8,39055.6
38879.4,39061.1
38877.5,39066.5
38875,39071.7
38872.1,39076.6
38868.7,39081.1
38864.9,39085.4
38860.7,39089.2
38856.1,39092.6
38851.2,39095.5
38846,39097.9
38840.7,39099.9
38835.1,39101.2
38829.5,39102.1
38823.8,39102.4
38707.7,39102.4
38702,39102.1
38696.3,39101.2
38690.8,39099.9
38685.5,39097.9
38680.3,39095.5
38675.4,39092.6
38670.8,39089.2
38666.6,39085.4
38662.8,39081.1
38659.4,39076.6
38656.5,39071.7
38654,39066.5
38652.1,39061.1
38650.7,39055.6
38649.9,39050
38649.6,39044.3
38649.6,38908.5
38649.9,38902.8
38650.7,38897.1
38652.1,38891.6
38654,38886.2
38656.5,38881.1
38659.4,38876.2
38662.8,38871.6
38666.6,38867.4
38670.8,38863.6
38675.4,38860.2
38680.3,38857.3
38685.5,38854.8
38690.8,38852.9
38696.3,38851.5
38702,38850.7
38707.7,38850.4
38823.8,38850.4
Z" /> 
</g>
<g >
</g>
<g style="fill:#000000; fill-opacity:1.0; 
stroke:#000000; stroke-width:0; stroke-opacity:1; 
stroke-linecap:round; stroke-linejoin:round;">
<path style="fill:#000000; fill-opacity:1.0; 
stroke:#000000; stroke-width:0; stroke-opacity:1; 
stroke-linecap:round; stroke-linejoin:round;fill-rule:evenodd;"
d="M 37042.1,37279.8
37047.7,37280.6
37053.3,37282
37058.6,37283.9
37063.8,37286.4
37068.7,37289.3
37073.3,37292.7
37077.5,37296.5
37081.3,37300.8
37084.7,37305.3
37087.6,37310.2
37090.1,37315.4
37092,37320.7
37093.4,37326.3
37094.2,37331.9
37094.5,37337.6
37094.5,37453.7
37094.2,37459.4
37093.4,37465.1
37092,37470.6
37090.1,37476
37087.6,37481.1
37084.7,37486
37081.3,37490.6
37077.5,37494.8
37073.3,37498.6
37068.7,37502
37063.8,37505
37058.6,37507.4
37053.3,37509.3
37047.7,37510.7
37042.1,37511.5
37036.4,37511.8
36900.6,37511.8
36894.9,37511.5
36889.3,37510.7
36883.7,37509.3
36878.4,37507.4
36873.2,37505
36868.3,37502
36863.8,37498.6
36859.5,37494.8
36855.7,37490.6
36852.3,37486
36849.4,37481.1
36846.9,37476
36845,37470.6
36843.6,37465.1
36842.8,37459.4
36842.5,37453.7
36842.5,37337.6
36842.8,37331.9
36843.6,37326.3
36845,37320.7
36846.9,37315.4
36849.4,37310.2
36852.3,37305.3
36855.7,37300.8
36859.5,37296.5
36863.8,37292.7
36868.3,37289.3
36873.2,37286.4
36878.4,37283.9
36883.7,37282
36889.3,37280.6
36894.9,37279.8
36900.6,37279.5
37036.4,37279.5
Z" /> 
<path style="fill:#000000; fill-opacity:1.0; 
stroke:#000000; stroke-width:0; stroke-opacity:1; 
stroke-linecap:round; stroke-linejoin:round;fill-rule:evenodd;"
d="M 37042.1,36897.9
37047.7,36898.8
37053.3,36900.1
37058.6,36902.1
37063.8,36904.5
37068.7,36907.4
37073.3,36910.8
37077.5,36914.6
37081.3,36918.9
37084.7,36923.4
37087.6,36928.3
37090.1,36933.5
37092,36938.9
37093.4,36944.4
37094.2,36950
37094.5,36955.7
37094.5,37071.9
37094.2,37077.5
37093.4,37083.2
37092,37088.7
37090.1,37094.1
37087.6,37099.2
37084.7,37104.1
37081.3,37108.7
37077.5,37112.9
37073.3,37116.7
37068.7,37120.1
37063.8,37123.1
37058.6,37125.5
37053.3,37127.4
37047.7,37128.8
37042.1,37129.6
37036.4,37129.9
36900.6,37129.9
36894.9,37129.6
36889.3,37128.8
36883.7,37127.4
36878.4,37125.5
36873.2,37123.1
36868.3,37120.1
36863.8,37116.7
36859.5,37112.9
36855.7,37108.7
36852.3,37104.1
36849.4,37099.2
36846.9,37094.1
36845,37088.7
36843.6,37083.2
36842.8,37077.5
36842.5,37071.9
36842.5,36955.7
36842.8,36950
36843.6,36944.4
36845,36938.9
36846.9,36933.5
36849.4,36928.3
36852.3,36923.4
36855.7,36918.9
36859.5,36914.6
36863.8,36910.8
36868.3,36907.4
36873.2,36904.5
36878.4,36902.1
36883.7,36900.1
36889.3,36898.8
36894.9,36897.9
36900.6,36897.6
37036.4,36897.6
Z" /> 
</g>
<g >
</g>
<g style="fill:#000000; fill-opacity:1.0; 
stroke:#000000; stroke-width:0; stroke-opacity:1; 
stroke-linecap:round; stroke-linejoin:round;">
<path style="fill:#000000; fill-opacity:1.0; 
stroke:#000000; stroke-width:0; stroke-opacity:1; 
stroke-linecap:round; stroke-linejoin:round;fill-rule:evenodd;"
d="M 38364.9,39520
38370.6,39520.8
38376.1,39522.2
38381.5,39524.1
38386.6,39526.5
38391.5,39529.5
38396.1,39532.9
38400.3,39536.7
38404.1,39540.9
38407.5,39545.5
38410.5,39550.4
38412.9,39555.5
38414.8,39560.9
38416.2,39566.4
38417,39572.1
38417.3,39577.8
38417.3,39713.6
38417,39719.3
38416.2,39724.9
38414.8,39730.4
38412.9,39735.8
38410.5,39741
38407.5,39745.8
38404.1,39750.4
38400.3,39754.6
38396.1,39758.5
38391.5,39761.9
38386.6,39764.8
38381.5,39767.2
38376.1,39769.2
38370.6,39770.5
38364.9,39771.4
38359.3,39771.7
38243.1,39771.7
38237.4,39771.4
38231.8,39770.5
38226.3,39769.2
38220.9,39767.2
38215.7,39764.8
38210.8,39761.9
38206.3,39758.5
38202,39754.6
38198.2,39750.4
38194.8,39745.8
38191.9,39741
38189.5,39735.8
38187.5,39730.4
38186.2,39724.9
38185.3,39719.3
38185,39713.6
38185,39577.8
38185.3,39572.1
38186.2,39566.4
38187.5,39560.9
38189.5,39555.5
38191.9,39550.4
38194.8,39545.5
38198.2,39540.9
38202,39536.7
38206.3,39532.9
38210.8,39529.5
38215.7,39526.5
38220.9,39524.1
38226.3,39522.2
38231.8,39520.8
38237.4,39520
38243.1,39519.7
38359.3,39519.7
Z" /> 
<path style="fill:#000000; fill-opacity:1.0; 
stroke:#000000; stroke-width:0; stroke-opacity:1; 
stroke-linecap:round; stroke-linejoin:round;fill-rule:evenodd;"
d="M 37983.1,39520
37988.7,39520.8
37994.2,39522.2
37999.6,39524.1
38004.7,39526.5
38009.6,39529.5
38014.2,39532.9
38018.4,39536.7
38022.3,39540.9
38025.6,39545.5
38028.6,39550.4
38031,39555.5
38032.9,39560.9
38034.3,39566.4
38035.2,39572.1
38035.4,39577.8
38035.4,39713.6
38035.2,39719.3
38034.3,39724.9
38032.9,39730.4
38031,39735.8
38028.6,39741
38025.6,39745.8
38022.3,39750.4
38018.4,39754.6
38014.2,39758.5
38009.6,39761.9
38004.7,39764.8
37999.6,39767.2
37994.2,39769.2
37988.7,39770.5
37983.1,39771.4
37977.4,39771.7
37861.2,39771.7
37855.5,39771.4
37849.9,39770.5
37844.4,39769.2
37839,39767.2
37833.8,39764.8
37829,39761.9
37824.4,39758.5
37820.2,39754.6
37816.3,39750.4
37812.9,39745.8
37810,39741
37807.6,39735.8
37805.7,39730.4
37804.3,39724.9
37803.4,39719.3
37803.1,39713.6
37803.1,39577.8
37803.4,39572.1
37804.3,39566.4
37805.7,39560.9
37807.6,39555.5
37810,39550.4
37812.9,39545.5
37816.3,39540.9
37820.2,39536.7
37824.4,39532.9
37829,39529.5
37833.8,39526.5
37839,39524.1
37844.4,39522.2
37849.9,39520.8
37855.5,39520
37861.2,39519.7
37977.4,39519.7
Z" /> 
</g>
<g >
</g>
<g style="fill:#000000; fill-opacity:1.0; 
stroke:#000000; stroke-width:0; stroke-opacity:1; 
stroke-linecap:round; stroke-linejoin:round;">
<path style="fill:#000000; fill-opacity:1.0; 
stroke:#000000; stroke-width:0; stroke-opacity:1; 
stroke-linecap:round; stroke-linejoin:round;fill-rule:evenodd;"
d="M 37632.7,37279.8
37638.3,37280.6
37643.8,37282
37649.2,37283.9
37654.3,37286.4
37659.2,37289.3
37663.8,37292.7
37668,37296.5
37671.9,37300.8
37675.3,37305.3
37678.2,37310.2
37680.6,37315.4
37682.5,37320.7
37683.9,37326.3
37684.8,37331.9
37685,37337.6
37685,37453.7
37684.8,37459.4
37683.9,37465.1
37682.5,37470.6
37680.6,37476
37678.2,37481.1
37675.3,37486
37671.9,37490.6
37668,37494.8
37663.8,37498.6
37659.2,37502
37654.3,37505
37649.2,37507.4
37643.8,37509.3
37638.3,37510.7
37632.7,37511.5
37627,37511.8
37491.1,37511.8
37485.4,37511.5
37479.8,37510.7
37474.3,37509.3
37468.9,37507.4
37463.8,37505
37458.9,37502
37454.3,37498.6
37450.1,37494.8
37446.3,37490.6
37442.9,37486
37439.9,37481.1
37437.5,37476
37435.6,37470.6
37434.2,37465.1
37433.4,37459.4
37433.1,37453.7
37433.1,37337.6
37433.4,37331.9
37434.2,37326.3
37435.6,37320.7
37437.5,37315.4
37439.9,37310.2
37442.9,37305.3
37446.3,37300.8
37450.1,37296.5
37454.3,37292.7
37458.9,37289.3
37463.8,37286.4
37468.9,37283.9
37474.3,37282
37479.8,37280.6
37485.4,37279.8
37491.1,37279.5
37627,37279.5
Z" /> 
<path style="fill:#000000; fill-opacity:1.0; 
stroke:#000000; stroke-width:0; stroke-opacity:1; 
stroke-linecap:round; stroke-linejoin:round;fill-rule:evenodd;"
d="M 37632.7,36897.9
37638.3,36898.8
37643.8,36900.1
37649.2,36902.1
37654.3,36904.5
37659.2,36907.4
37663.8,36910.8
37668,36914.6
37671.9,36918.9
37675.3,36923.4
37678.2,36928.3
37680.6,36933.5
37682.5,36938.9
37683.9,36944.4
37684.8,36950
37685,36955.7
37685,37071.9
37684.8,37077.5
37683.9,37083.2
37682.5,37088.7
37680.6,37094.1
37678.2,37099.2
37675.3,37104.1
37671.9,37108.7
37668,37112.9
37663.8,37116.7
37659.2,37120.1
37654.3,37123.1
37649.2,37125.5
37643.8,37127.4
37638.3,37128.8
37632.7,37129.6
37627,37129.9
37491.1,37129.9
37485.4,37129.6
37479.8,37128.8
37474.3,37127.4
37468.9,37125.5
37463.8,37123.1
37458.9,37120.1
37454.3,37116.7
37450.1,37112.9
37446.3,37108.7
37442.9,37104.1
37439.9,37099.2
37437.5,37094.1
37435.6,37088.7
37434.2,37083.2
37433.4,37077.5
37433.1,37071.9
37433.1,36955.7
37433.4,36950
37434.2,36944.4
37435.6,36938.9
37437.5,36933.5
37439.9,36928.3
37442.9,36923.4
37446.3,36918.9
37450.1,36914.6
37454.3,36910.8
37458.9,36907.4
37463.8,36904.5
37468.9,36902.1
37474.3,36900.1
37479.8,36898.8
37485.4,36897.9
37491.1,36897.6
37627,36897.6
Z" /> 
</g>
<g >
</g>
<g style="fill:#000000; fill-opacity:1.0; 
stroke:#000000; stroke-width:0; stroke-opacity:1; 
stroke-linecap:round; stroke-linejoin:round;">
<path style="fill:#000000; fill-opacity:1.0; 
stroke:#000000; stroke-width:0; stroke-opacity:1; 
stroke-linecap:round; stroke-linejoin:round;fill-rule:evenodd;"
d="M 38597.2,40783.7
38602.9,40784.6
38608.4,40786
38613.8,40787.9
38618.9,40790.3
38623.8,40793.3
38628.4,40796.6
38632.6,40800.5
38636.4,40804.7
38639.8,40809.3
38642.7,40814.2
38645.2,40819.3
38647.1,40824.7
38648.5,40830.2
38649.3,40835.8
38649.6,40841.5
38649.6,40957.7
38649.3,40963.4
38648.5,40969
38647.1,40974.5
38645.2,40979.9
38642.7,40985.1
38639.8,40989.9
38636.4,40994.5
38632.6,40998.7
38628.4,41002.6
38623.8,41006
38618.9,41008.9
38613.8,41011.3
38608.4,41013.2
38602.9,41014.6
38597.2,41015.5
38591.5,41015.7
38455.7,41015.7
38450,41015.5
38444.4,41014.6
38438.9,41013.2
38433.5,41011.3
38428.3,41008.9
38423.4,41006
38418.9,41002.6
38414.6,40998.7
38410.8,40994.5
38407.4,40989.9
38404.5,40985.1
38402.1,40979.9
38400.1,40974.5
38398.8,40969
38397.9,40963.4
38397.6,40957.7
38397.6,40841.5
38397.9,40835.8
38398.8,40830.2
38400.1,40824.7
38402.1,40819.3
38404.5,40814.2
38407.4,40809.3
38410.8,40804.7
38414.6,40800.5
38418.9,40796.6
38423.4,40793.3
38428.3,40790.3
38433.5,40787.9
38438.9,40786
38444.4,40784.6
38450,40783.7
38455.7,40783.5
38591.5,40783.5
Z" /> 
<path style="fill:#000000; fill-opacity:1.0; 
stroke:#000000; stroke-width:0; stroke-opacity:1; 
stroke-linecap:round; stroke-linejoin:round;fill-rule:evenodd;"
d="M 38597.2,40401.9
38602.9,40402.7
38608.4,40404.1
38613.8,40406
38618.9,40408.4
38623.8,40411.4
38628.4,40414.8
38632.6,40418.6
38636.4,40422.8
38639.8,40427.4
38642.7,40432.3
38645.2,40437.4
38647.1,40442.8
38648.5,40448.3
38649.3,40454
38649.6,40459.6
38649.6,40575.8
38649.3,40581.5
38648.5,40587.1
38647.1,40592.6
38645.2,40598
38642.7,40603.2
38639.8,40608.1
38636.4,40612.6
38632.6,40616.8
38628.4,40620.7
38623.8,40624.1
38618.9,40627
38613.8,40629.4
38608.4,40631.4
38602.9,40632.7
38597.2,40633.6
38591.5,40633.9
38455.7,40633.9
38450,40633.6
38444.4,40632.7
38438.9,40631.4
38433.5,40629.4
38428.3,40627
38423.4,40624.1
38418.9,40620.7
38414.6,40616.8
38410.8,40612.6
38407.4,40608.1
38404.5,40603.2
38402.1,40598
38400.1,40592.6
38398.8,40587.1
38397.9,40581.5
38397.6,40575.8
38397.6,40459.6
38397.9,40454
38398.8,40448.3
38400.1,40442.8
38402.1,40437.4
38404.5,40432.3
38407.4,40427.4
38410.8,40422.8
38414.6,40418.6
38418.9,40414.8
38423.4,40411.4
38428.3,40408.4
38433.5,40406
38438.9,40404.1
38444.4,40402.7
38450,40401.9
38455.7,40401.6
38591.5,40401.6
Z" /> 
</g>
<g >
</g>
<g style="fill:#000000; fill-opacity:1.0; 
stroke:#000000; stroke-width:0; stroke-opacity:1; 
stroke-linecap:round; stroke-linejoin:round;">
<path style="fill:#000000; fill-opacity:1.0; 
stroke:#000000; stroke-width:0; stroke-opacity:1; 
stroke-linecap:round; stroke-linejoin:round;fill-rule:evenodd;"
d="M 38616.9,36937.3
38622.5,36938.1
38628.1,36939.5
38633.4,36941.4
38638.6,36943.9
38643.5,36946.8
38648.1,36950.2
38652.3,36954
38656.1,36958.2
38659.5,36962.8
38662.4,36967.7
38664.9,36972.9
38666.8,36978.2
38668.2,36983.7
38669,36989.4
38669.3,36995.1
38669.3,37111.2
38669,37116.9
38668.2,37122.5
38666.8,37128.1
38664.9,37133.4
38662.4,37138.6
38659.5,37143.5
38656.1,37148.1
38652.3,37152.3
38648.1,37156.1
38643.5,37159.5
38638.6,37162.4
38633.4,37164.9
38628.1,37166.8
38622.5,37168.2
38616.9,37169
38611.2,37169.3
38475.4,37169.3
38469.7,37169
38464.1,37168.2
38458.5,37166.8
38453.2,37164.9
38448,37162.4
38443.1,37159.5
38438.6,37156.1
38434.3,37152.3
38430.5,37148.1
38427.1,37143.5
38424.2,37138.6
38421.7,37133.4
38419.8,37128.1
38418.4,37122.5
38417.6,37116.9
38417.3,37111.2
38417.3,36995.1
38417.6,36989.4
38418.4,36983.7
38419.8,36978.2
38421.7,36972.9
38424.2,36967.7
38427.1,36962.8
38430.5,36958.2
38434.3,36954
38438.6,36950.2
38443.1,36946.8
38448,36943.9
38453.2,36941.4
38458.5,36939.5
38464.1,36938.1
38469.7,36937.3
38475.4,36937
38611.2,36937
Z" /> 
<path style="fill:#000000; fill-opacity:1.0; 
stroke:#000000; stroke-width:0; stroke-opacity:1; 
stroke-linecap:round; stroke-linejoin:round;fill-rule:evenodd;"
d="M 38616.9,37319.2
38622.5,37320
38628.1,37321.4
38633.4,37323.3
38638.6,37325.8
38643.5,37328.7
38648.1,37332.1
38652.3,37335.9
38656.1,37340.1
38659.5,37344.7
38662.4,37349.6
38664.9,37354.7
38666.8,37360.1
38668.2,37365.6
38669,37371.3
38669.3,37377
38669.3,37493.1
38669,37498.8
38668.2,37504.4
38666.8,37510
38664.9,37515.3
38662.4,37520.5
38659.5,37525.4
38656.1,37529.9
38652.3,37534.2
38648.1,37538
38643.5,37541.4
38638.6,37544.3
38633.4,37546.8
38628.1,37548.7
38622.5,37550.1
38616.9,37550.9
38611.2,37551.2
38475.4,37551.2
38469.7,37550.9
38464.1,37550.1
38458.5,37548.7
38453.2,37546.8
38448,37544.3
38443.1,37541.4
38438.6,37538
38434.3,37534.2
38430.5,37529.9
38427.1,37525.4
38424.2,37520.5
38421.7,37515.3
38419.8,37510
38418.4,37504.4
38417.6,37498.8
38417.3,37493.1
38417.3,37377
38417.6,37371.3
38418.4,37365.6
38419.8,37360.1
38421.7,37354.7
38424.2,37349.6
38427.1,37344.7
38430.5,37340.1
38434.3,37335.9
38438.6,37332.1
38443.1,37328.7
38448,37325.8
38453.2,37323.3
38458.5,37321.4
38464.1,37320
38469.7,37319.2
38475.4,37318.9
38611.2,37318.9
Z" /> 
</g>
<g >
</g>
<g style="fill:#000000; fill-opacity:1.0; 
stroke:#000000; stroke-width:0; stroke-opacity:1; 
stroke-linecap:round; stroke-linejoin:round;">
<path style="fill:#000000; fill-opacity:1.0; 
stroke:#000000; stroke-width:0; stroke-opacity:1; 
stroke-linecap:round; stroke-linejoin:round;fill-rule:evenodd;"
d="M 39404.3,37850.7
39410,37851.5
39415.5,37852.9
39420.8,37854.8
39426,37857.3
39430.9,37860.2
39435.5,37863.6
39439.7,37867.4
39443.5,37871.6
39446.9,37876.2
39449.8,37881.1
39452.3,37886.2
39454.2,37891.6
39455.6,37897.1
39456.4,37902.8
39456.7,37908.5
39456.7,38024.6
39456.4,38030.3
39455.6,38035.9
39454.2,38041.5
39452.3,38046.8
39449.8,38052
39446.9,38056.9
39443.5,38061.4
39439.7,38065.7
39435.5,38069.5
39430.9,38072.9
39426,38075.8
39420.8,38078.3
39415.5,38080.2
39410,38081.6
39404.3,38082.4
39398.6,38082.7
39262.8,38082.7
39257.1,38082.4
39251.5,38081.6
39245.9,38080.2
39240.6,38078.3
39235.4,38075.8
39230.5,38072.9
39226,38069.5
39221.7,38065.7
39217.9,38061.4
39214.5,38056.9
39211.6,38052
39209.1,38046.8
39207.2,38041.5
39205.8,38035.9
39205,38030.3
39204.7,38024.6
39204.7,37908.5
39205,37902.8
39205.8,37897.1
39207.2,37891.6
39209.1,37886.2
39211.6,37881.1
39214.5,37876.2
39217.9,37871.6
39221.7,37867.4
39226,37863.6
39230.5,37860.2
39235.4,37857.3
39240.6,37854.8
39245.9,37852.9
39251.5,37851.5
39257.1,37850.7
39262.8,37850.4
39398.6,37850.4
Z" /> 
<path style="fill:#000000; fill-opacity:1.0; 
stroke:#000000; stroke-width:0; stroke-opacity:1; 
stroke-linecap:round; stroke-linejoin:round;fill-rule:evenodd;"
d="M 39404.3,37468.8
39410,37469.6
39415.5,37471
39420.8,37472.9
39426,37475.4
39430.9,37478.3
39435.5,37481.7
39439.7,37485.5
39443.5,37489.7
39446.9,37494.3
39449.8,37499.2
39452.3,37504.4
39454.2,37509.7
39455.6,37515.2
39456.4,37520.9
39456.7,37526.6
39456.7,37642.7
39456.4,37648.4
39455.6,37654
39454.2,37659.6
39452.3,37664.9
39449.8,37670.1
39446.9,37675
39443.5,37679.6
39439.7,37683.8
39435.5,37687.6
39430.9,37691
39426,37693.9
39420.8,37696.4
39415.5,37698.3
39410,37699.7
39404.3,37700.5
39398.6,37700.8
39262.8,37700.8
39257.1,37700.5
39251.5,37699.7
39245.9,37698.3
39240.6,37696.4
39235.4,37693.9
39230.5,37691
39226,37687.6
39221.7,37683.8
39217.9,37679.6
39214.5,37675
39211.6,37670.1
39209.1,37664.9
39207.2,37659.6
39205.8,37654
39205,37648.4
39204.7,37642.7
39204.7,37526.6
39205,37520.9
39205.8,37515.2
39207.2,37509.7
39209.1,37504.4
39211.6,37499.2
39214.5,37494.3
39217.9,37489.7
39221.7,37485.5
39226,37481.7
39230.5,37478.3
39235.4,37475.4
39240.6,37472.9
39245.9,37471
39251.5,37469.6
39257.1,37468.8
39262.8,37468.5
39398.6,37468.5
Z" /> 
</g>
<g >
</g>
<g style="fill:#000000; fill-opacity:1.0; 
stroke:#000000; stroke-width:0; stroke-opacity:1; 
stroke-linecap:round; stroke-linejoin:round;">
<path style="fill:#000000; fill-opacity:1.0; 
stroke:#000000; stroke-width:0; stroke-opacity:1; 
stroke-linecap:round; stroke-linejoin:round;fill-rule:evenodd;"
d="M 39404.3,37240.4
39410,37241.3
39415.5,37242.7
39420.8,37244.6
39426,37247
39430.9,37249.9
39435.5,37253.3
39439.7,37257.2
39443.5,37261.4
39446.9,37266
39449.8,37270.9
39452.3,37276
39454.2,37281.4
39455.6,37286.9
39456.4,37292.5
39456.7,37298.2
39456.7,37414.4
39456.4,37420.1
39455.6,37425.7
39454.2,37431.2
39452.3,37436.6
39449.8,37441.7
39446.9,37446.6
39443.5,37451.2
39439.7,37455.4
39435.5,37459.3
39430.9,37462.7
39426,37465.6
39420.8,37468
39415.5,37469.9
39410,37471.3
39404.3,37472.2
39398.6,37472.4
39262.8,37472.4
39257.1,37472.2
39251.5,37471.3
39245.9,37469.9
39240.6,37468
39235.4,37465.6
39230.5,37462.7
39226,37459.3
39221.7,37455.4
39217.9,37451.2
39214.5,37446.6
39211.6,37441.7
39209.1,37436.6
39207.2,37431.2
39205.8,37425.7
39205,37420.1
39204.7,37414.4
39204.7,37298.2
39205,37292.5
39205.8,37286.9
39207.2,37281.4
39209.1,37276
39211.6,37270.9
39214.5,37266
39217.9,37261.4
39221.7,37257.2
39226,37253.3
39230.5,37249.9
39235.4,37247
39240.6,37244.6
39245.9,37242.7
39251.5,37241.3
39257.1,37240.4
39262.8,37240.2
39398.6,37240.2
Z" /> 
<path style="fill:#000000; fill-opacity:1.0; 
stroke:#000000; stroke-width:0; stroke-opacity:1; 
stroke-linecap:round; stroke-linejoin:round;fill-rule:evenodd;"
d="M 39404.3,36858.5
39410,36859.4
39415.5,36860.8
39420.8,36862.7
39426,36865.1
39430.9,36868.1
39435.5,36871.4
39439.7,36875.3
39443.5,36879.5
39446.9,36884.1
39449.8,36889
39452.3,36894.1
39454.2,36899.5
39455.6,36905
39456.4,36910.6
39456.7,36916.3
39456.7,37032.5
39456.4,37038.2
39455.6,37043.8
39454.2,37049.3
39452.3,37054.7
39449.8,37059.9
39446.9,37064.7
39443.5,37069.3
39439.7,37073.5
39435.5,37077.4
39430.9,37080.8
39426,37083.7
39420.8,37086.1
39415.5,37088.1
39410,37089.4
39404.3,37090.3
39398.6,37090.6
39262.8,37090.6
39257.1,37090.3
39251.5,37089.4
39245.9,37088.1
39240.6,37086.1
39235.4,37083.7
39230.5,37080.8
39226,37077.4
39221.7,37073.5
39217.9,37069.3
39214.5,37064.7
39211.6,37059.9
39209.1,37054.7
39207.2,37049.3
39205.8,37043.8
39205,37038.2
39204.7,37032.5
39204.7,36916.3
39205,36910.6
39205.8,36905
39207.2,36899.5
39209.1,36894.1
39211.6,36889
39214.5,36884.1
39217.9,36879.5
39221.7,36875.3
39226,36871.4
39230.5,36868.1
39235.4,36865.1
39240.6,36862.7
39245.9,36860.8
39251.5,36859.4
39257.1,36858.5
39262.8,36858.3
39398.6,36858.3
Z" /> 
</g>
<g >
</g>
<g style="fill:#000000; fill-opacity:1.0; 
stroke:#000000; stroke-width:0; stroke-opacity:1; 
stroke-linecap:round; stroke-linejoin:round;">
<path style="fill:#000000; fill-opacity:1.0; 
stroke:#000000; stroke-width:0; stroke-opacity:1; 
stroke-linecap:round; stroke-linejoin:round;fill-rule:evenodd;"
d="M 35109,37472.7
35114.7,37473.6
35120.2,37474.9
35125.6,37476.9
35130.7,37479.3
35135.6,37482.2
35140.2,37485.6
35144.4,37489.4
35148.2,37493.7
35151.6,37498.2
35154.6,37503.1
35157,37508.3
35158.9,37513.7
35160.3,37519.2
35161.1,37524.8
35161.4,37530.5
35161.4,37666.3
35161.1,37672
35160.3,37677.7
35158.9,37683.2
35157,37688.6
35154.6,37693.7
35151.6,37698.6
35148.2,37703.2
35144.4,37707.4
35140.2,37711.2
35135.6,37714.6
35130.7,37717.6
35125.6,37720
35120.2,37721.9
35114.7,37723.3
35109,37724.1
35103.3,37724.4
34987.2,37724.4
34981.5,37724.1
34975.9,37723.3
34970.3,37721.9
34965,37720
34959.8,37717.6
34954.9,37714.6
34950.4,37711.2
34946.1,37707.4
34942.3,37703.2
34938.9,37698.6
34936,37693.7
34933.6,37688.6
34931.6,37683.2
34930.2,37677.7
34929.4,37672
34929.1,37666.3
34929.1,37530.5
34929.4,37524.8
34930.2,37519.2
34931.6,37513.7
34933.6,37508.3
34936,37503.1
34938.9,37498.2
34942.3,37493.7
34946.1,37489.4
34950.4,37485.6
34954.9,37482.2
34959.8,37479.3
34965,37476.9
34970.3,37474.9
34975.9,37473.6
34981.5,37472.7
34987.2,37472.4
35103.3,37472.4
Z" /> 
<path style="fill:#000000; fill-opacity:1.0; 
stroke:#000000; stroke-width:0; stroke-opacity:1; 
stroke-linecap:round; stroke-linejoin:round;fill-rule:evenodd;"
d="M 35490.9,37472.7
35496.6,37473.6
35502.1,37474.9
35507.5,37476.9
35512.6,37479.3
35517.5,37482.2
35522.1,37485.6
35526.3,37489.4
35530.1,37493.7
35533.5,37498.2
35536.4,37503.1
35538.9,37508.3
35540.8,37513.7
35542.2,37519.2
35543,37524.8
35543.3,37530.5
35543.3,37666.3
35543,37672
35542.2,37677.7
35540.8,37683.2
35538.9,37688.6
35536.4,37693.7
35533.5,37698.6
35530.1,37703.2
35526.3,37707.4
35522.1,37711.2
35517.5,37714.6
35512.6,37717.6
35507.5,37720
35502.1,37721.9
35496.6,37723.3
35490.9,37724.1
35485.2,37724.4
35369.1,37724.4
35363.4,37724.1
35357.8,37723.3
35352.2,37721.9
35346.9,37720
35341.7,37717.6
35336.8,37714.6
35332.3,37711.2
35328,37707.4
35324.2,37703.2
35320.8,37698.6
35317.9,37693.7
35315.4,37688.6
35313.5,37683.2
35312.1,37677.7
35311.3,37672
35311,37666.3
35311,37530.5
35311.3,37524.8
35312.1,37519.2
35313.5,37513.7
35315.4,37508.3
35317.9,37503.1
35320.8,37498.2
35324.2,37493.7
35328,37489.4
35332.3,37485.6
35336.8,37482.2
35341.7,37479.3
35346.9,37476.9
35352.2,37474.9
35357.8,37473.6
35363.4,37472.7
35369.1,37472.4
35485.2,37472.4
Z" /> 
</g>
<g >
</g>
<g style="fill:#000000; fill-opacity:1.0; 
stroke:#000000; stroke-width:0; stroke-opacity:1; 
stroke-linecap:round; stroke-linejoin:round;">
<path style="fill:#000000; fill-opacity:1.0; 
stroke:#000000; stroke-width:0; stroke-opacity:1; 
stroke-linecap:round; stroke-linejoin:round;fill-rule:evenodd;"
d="M 38597.2,38264.4
38602.9,38265.2
38608.4,38266.6
38613.8,38268.5
38618.9,38271
38623.8,38273.9
38628.4,38277.3
38632.6,38281.1
38636.4,38285.4
38639.8,38289.9
38642.7,38294.8
38645.2,38300
38647.1,38305.3
38648.5,38310.9
38649.3,38316.5
38649.6,38322.2
38649.6,38438.3
38649.3,38444
38648.5,38449.7
38647.1,38455.2
38645.2,38460.6
38642.7,38465.7
38639.8,38470.6
38636.4,38475.2
38632.6,38479.4
38628.4,38483.2
38623.8,38486.6
38618.9,38489.6
38613.8,38492
38608.4,38493.9
38602.9,38495.3
38597.2,38496.1
38591.5,38496.4
38455.7,38496.4
38450,38496.1
38444.4,38495.3
38438.9,38493.9
38433.5,38492
38428.3,38489.6
38423.4,38486.6
38418.9,38483.2
38414.6,38479.4
38410.8,38475.2
38407.4,38470.6
38404.5,38465.7
38402.1,38460.6
38400.1,38455.2
38398.8,38449.7
38397.9,38444
38397.6,38438.3
38397.6,38322.2
38397.9,38316.5
38398.8,38310.9
38400.1,38305.3
38402.1,38300
38404.5,38294.8
38407.4,38289.9
38410.8,38285.4
38414.6,38281.1
38418.9,38277.3
38423.4,38273.9
38428.3,38271
38433.5,38268.5
38438.9,38266.6
38444.4,38265.2
38450,38264.4
38455.7,38264.1
38591.5,38264.1
Z" /> 
<path style="fill:#000000; fill-opacity:1.0; 
stroke:#000000; stroke-width:0; stroke-opacity:1; 
stroke-linecap:round; stroke-linejoin:round;fill-rule:evenodd;"
d="M 38597.2,38646.3
38602.9,38647.1
38608.4,38648.5
38613.8,38650.4
38618.9,38652.9
38623.8,38655.8
38628.4,38659.2
38632.6,38663
38636.4,38667.2
38639.8,38671.8
38642.7,38676.7
38645.2,38681.9
38647.1,38687.2
38648.5,38692.8
38649.3,38698.4
38649.6,38704.1
38649.6,38820.2
38649.3,38825.9
38648.5,38831.6
38647.1,38837.1
38645.2,38842.5
38642.7,38847.6
38639.8,38852.5
38636.4,38857.1
38632.6,38861.3
38628.4,38865.1
38623.8,38868.5
38618.9,38871.4
38613.8,38873.9
38608.4,38875.8
38602.9,38877.2
38597.2,38878
38591.5,38878.3
38455.7,38878.3
38450,38878
38444.4,38877.2
38438.9,38875.8
38433.5,38873.9
38428.3,38871.4
38423.4,38868.5
38418.9,38865.1
38414.6,38861.3
38410.8,38857.1
38407.4,38852.5
38404.5,38847.6
38402.1,38842.5
38400.1,38837.1
38398.8,38831.6
38397.9,38825.9
38397.6,38820.2
38397.6,38704.1
38397.9,38698.4
38398.8,38692.8
38400.1,38687.2
38402.1,38681.9
38404.5,38676.7
38407.4,38671.8
38410.8,38667.2
38414.6,38663
38418.9,38659.2
38423.4,38655.8
38428.3,38652.9
38433.5,38650.4
38438.9,38648.5
38444.4,38647.1
38450,38646.3
38455.7,38646
38591.5,38646
Z" /> 
</g>
<g >
</g>
<g style="fill:#000000; fill-opacity:1.0; 
stroke:#000000; stroke-width:0; stroke-opacity:1; 
stroke-linecap:round; stroke-linejoin:round;">
<path style="fill:#000000; fill-opacity:1.0; 
stroke:#000000; stroke-width:0; stroke-opacity:1; 
stroke-linecap:round; stroke-linejoin:round;fill-rule:evenodd;"
d="M 40451.6,38043.6
40457.2,38044.4
40462.7,38045.8
40468.1,38047.7
40473.2,38050.2
40478.1,38053.1
40482.7,38056.5
40486.9,38060.3
40490.8,38064.5
40494.2,38069.1
40497.1,38074
40499.5,38079.2
40501.4,38084.5
40502.8,38090
40503.7,38095.7
40503.9,38101.4
40503.9,38237.2
40503.7,38242.9
40502.8,38248.5
40501.4,38254.1
40499.5,38259.4
40497.1,38264.6
40494.2,38269.5
40490.8,38274
40486.9,38278.3
40482.7,38282.1
40478.1,38285.5
40473.2,38288.4
40468.1,38290.9
40462.7,38292.8
40457.2,38294.2
40451.6,38295
40445.9,38295.3
40329.7,38295.3
40324,38295
40318.4,38294.2
40312.9,38292.8
40307.5,38290.9
40302.3,38288.4
40297.5,38285.5
40292.9,38282.1
40288.7,38278.3
40284.8,38274
40281.4,38269.5
40278.5,38264.6
40276.1,38259.4
40274.2,38254.1
40272.8,38248.5
40271.9,38242.9
40271.7,38237.2
40271.7,38101.4
40271.9,38095.7
40272.8,38090
40274.2,38084.5
40276.1,38079.2
40278.5,38074
40281.4,38069.1
40284.8,38064.5
40288.7,38060.3
40292.9,38056.5
40297.5,38053.1
40302.3,38050.2
40307.5,38047.7
40312.9,38045.8
40318.4,38044.4
40324,38043.6
40329.7,38043.3
40445.9,38043.3
Z" /> 
<path style="fill:#000000; fill-opacity:1.0; 
stroke:#000000; stroke-width:0; stroke-opacity:1; 
stroke-linecap:round; stroke-linejoin:round;fill-rule:evenodd;"
d="M 40069.7,38043.6
40075.3,38044.4
40080.8,38045.8
40086.2,38047.7
40091.4,38050.2
40096.2,38053.1
40100.8,38056.5
40105,38060.3
40108.9,38064.5
40112.3,38069.1
40115.2,38074
40117.6,38079.2
40119.5,38084.5
40120.9,38090
40121.8,38095.7
40122,38101.4
40122,38237.2
40121.8,38242.9
40120.9,38248.5
40119.5,38254.1
40117.6,38259.4
40115.2,38264.6
40112.3,38269.5
40108.9,38274
40105,38278.3
40100.8,38282.1
40096.2,38285.5
40091.4,38288.4
40086.2,38290.9
40080.8,38292.8
40075.3,38294.2
40069.7,38295
40064,38295.3
39947.8,38295.3
39942.1,38295
39936.5,38294.2
39931,38292.8
39925.6,38290.9
39920.5,38288.4
39915.6,38285.5
39911,38282.1
39906.8,38278.3
39902.9,38274
39899.6,38269.5
39896.6,38264.6
39894.2,38259.4
39892.3,38254.1
39890.9,38248.5
39890,38242.9
39889.8,38237.2
39889.8,38101.4
39890,38095.7
39890.9,38090
39892.3,38084.5
39894.2,38079.2
39896.6,38074
39899.6,38069.1
39902.9,38064.5
39906.8,38060.3
39911,38056.5
39915.6,38053.1
39920.5,38050.2
39925.6,38047.7
39931,38045.8
39936.5,38044.4
39942.1,38043.6
39947.8,38043.3
40064,38043.3
Z" /> 
</g>
<g >
</g>
<g style="fill:#000000; fill-opacity:1.0; 
stroke:#000000; stroke-width:0; stroke-opacity:1; 
stroke-linecap:round; stroke-linejoin:round;">
<path style="fill:#000000; fill-opacity:1.0; 
stroke:#000000; stroke-width:0; stroke-opacity:1; 
stroke-linecap:round; stroke-linejoin:round;fill-rule:evenodd;"
d="M 37235,37472.7
37240.7,37473.6
37246.2,37474.9
37251.6,37476.9
37256.7,37479.3
37261.6,37482.2
37266.2,37485.6
37270.4,37489.4
37274.2,37493.7
37277.6,37498.2
37280.5,37503.1
37283,37508.3
37284.9,37513.7
37286.3,37519.2
37287.1,37524.8
37287.4,37530.5
37287.4,37666.3
37287.1,37672
37286.3,37677.7
37284.9,37683.2
37283,37688.6
37280.5,37693.7
37277.6,37698.6
37274.2,37703.2
37270.4,37707.4
37266.2,37711.2
37261.6,37714.6
37256.7,37717.6
37251.6,37720
37246.2,37721.9
37240.7,37723.3
37235,37724.1
37229.3,37724.4
37113.2,37724.4
37107.5,37724.1
37101.9,37723.3
37096.3,37721.9
37091,37720
37085.8,37717.6
37080.9,37714.6
37076.3,37711.2
37072.1,37707.4
37068.3,37703.2
37064.9,37698.6
37062,37693.7
37059.5,37688.6
37057.6,37683.2
37056.2,37677.7
37055.4,37672
37055.1,37666.3
37055.1,37530.5
37055.4,37524.8
37056.2,37519.2
37057.6,37513.7
37059.5,37508.3
37062,37503.1
37064.9,37498.2
37068.3,37493.7
37072.1,37489.4
37076.3,37485.6
37080.9,37482.2
37085.8,37479.3
37091,37476.9
37096.3,37474.9
37101.9,37473.6
37107.5,37472.7
37113.2,37472.4
37229.3,37472.4
Z" /> 
<path style="fill:#000000; fill-opacity:1.0; 
stroke:#000000; stroke-width:0; stroke-opacity:1; 
stroke-linecap:round; stroke-linejoin:round;fill-rule:evenodd;"
d="M 37616.9,37472.7
37622.5,37473.6
37628.1,37474.9
37633.4,37476.9
37638.6,37479.3
37643.5,37482.2
37648.1,37485.6
37652.3,37489.4
37656.1,37493.7
37659.5,37498.2
37662.4,37503.1
37664.9,37508.3
37666.8,37513.7
37668.2,37519.2
37669,37524.8
37669.3,37530.5
37669.3,37666.3
37669,37672
37668.2,37677.7
37666.8,37683.2
37664.9,37688.6
37662.4,37693.7
37659.5,37698.6
37656.1,37703.2
37652.3,37707.4
37648.1,37711.2
37643.5,37714.6
37638.6,37717.6
37633.4,37720
37628.1,37721.9
37622.5,37723.3
37616.9,37724.1
37611.2,37724.4
37495.1,37724.4
37489.4,37724.1
37483.7,37723.3
37478.2,37721.9
37472.9,37720
37467.7,37717.6
37462.8,37714.6
37458.2,37711.2
37454,37707.4
37450.2,37703.2
37446.8,37698.6
37443.9,37693.7
37441.4,37688.6
37439.5,37683.2
37438.1,37677.7
37437.3,37672
37437,37666.3
37437,37530.5
37437.3,37524.8
37438.1,37519.2
37439.5,37513.7
37441.4,37508.3
37443.9,37503.1
37446.8,37498.2
37450.2,37493.7
37454,37489.4
37458.2,37485.6
37462.8,37482.2
37467.7,37479.3
37472.9,37476.9
37478.2,37474.9
37483.7,37473.6
37489.4,37472.7
37495.1,37472.4
37611.2,37472.4
Z" /> 
</g>
<g >
</g>
<g >
</g>
<g style="fill:#000000; fill-opacity:1.0; 
stroke:#000000; stroke-width:0; stroke-opacity:1; 
stroke-linecap:round; stroke-linejoin:round;">
<path style="fill:#000000; fill-opacity:1.0; 
stroke:#000000; stroke-width:0; stroke-opacity:1; 
stroke-linecap:round; stroke-linejoin:round;fill-rule:evenodd;"
d="M 36535.4,37460.6
36535.4,37736.2
36299.2,37736.2
36299.2,37460.6
Z" /> 
<path style="fill:#000000; fill-opacity:1.0; 
stroke:#000000; stroke-width:0; stroke-opacity:1; 
stroke-linecap:round; stroke-linejoin:round;fill-rule:evenodd;"
d="M 37086.6,37460.6
37086.6,37736.2
36850.4,37736.2
36850.4,37460.6
Z" /> 
</g>
<g >
</g>
<g style="fill:#000000; fill-opacity:1.0; 
stroke:#000000; stroke-width:0; stroke-opacity:1; 
stroke-linecap:round; stroke-linejoin:round;">
<path style="fill:#000000; fill-opacity:1.0; 
stroke:#000000; stroke-width:0; stroke-opacity:1; 
stroke-linecap:round; stroke-linejoin:round;fill-rule:evenodd;"
d="M 38385.8,39409.4
38661.4,39409.4
38661.4,39645.7
38385.8,39645.7
Z" /> 
<path style="fill:#000000; fill-opacity:1.0; 
stroke:#000000; stroke-width:0; stroke-opacity:1; 
stroke-linecap:round; stroke-linejoin:round;fill-rule:evenodd;"
d="M 38385.8,38858.3
38661.4,38858.3
38661.4,39094.5
38385.8,39094.5
Z" /> 
</g>
<g >
</g>
<g style="fill:#000000; fill-opacity:1.0; 
stroke:#000000; stroke-width:0; stroke-opacity:1; 
stroke-linecap:round; stroke-linejoin:round;">
<path style="fill:#000000; fill-opacity:1.0; 
stroke:#000000; stroke-width:0; stroke-opacity:1; 
stroke-linecap:round; stroke-linejoin:round;fill-rule:evenodd;"
d="M 36063,37736.2
36063,37460.6
36299.2,37460.6
36299.2,37736.2
Z" /> 
<path style="fill:#000000; fill-opacity:1.0; 
stroke:#000000; stroke-width:0; stroke-opacity:1; 
stroke-linecap:round; stroke-linejoin:round;fill-rule:evenodd;"
d="M 35511.8,37736.2
35511.8,37460.6
35748,37460.6
35748,37736.2
Z" /> 
</g>
<g >
</g>
<g style="fill:#000000; fill-opacity:1.0; 
stroke:#000000; stroke-width:0; stroke-opacity:1; 
stroke-linecap:round; stroke-linejoin:round;">
<path style="fill:#000000; fill-opacity:1.0; 
stroke:#000000; stroke-width:0; stroke-opacity:1; 
stroke-linecap:round; stroke-linejoin:round;fill-rule:evenodd;"
d="M 38661.4,39881.9
38385.8,39881.9
38385.8,39645.7
38661.4,39645.7
Z" /> 
<path style="fill:#000000; fill-opacity:1.0; 
stroke:#000000; stroke-width:0; stroke-opacity:1; 
stroke-linecap:round; stroke-linejoin:round;fill-rule:evenodd;"
d="M 38661.4,40433.1
38385.8,40433.1
38385.8,40196.9
38661.4,40196.9
Z" /> 
</g>
<g >
</g>
<g style="fill:#000000; fill-opacity:1.0; 
stroke:#000000; stroke-width:0; stroke-opacity:1; 
stroke-linecap:round; stroke-linejoin:round;">
<path style="fill:#000000; fill-opacity:1.0; 
stroke:#000000; stroke-width:0; stroke-opacity:1; 
stroke-linecap:round; stroke-linejoin:round;fill-rule:evenodd;"
d="M 38395.7,37677.2
38395.7,37519.7
38651.6,37519.7
38651.6,37677.2
Z" /> 
<path style="fill:#000000; fill-opacity:1.0; 
stroke:#000000; stroke-width:0; stroke-opacity:1; 
stroke-linecap:round; stroke-linejoin:round;fill-rule:evenodd;"
d="M 38395.7,38189
38395.7,38031.5
38651.6,38031.5
38651.6,38189
Z" /> 
<path style="fill:#000000; fill-opacity:1.0; 
stroke:#000000; stroke-width:0; stroke-opacity:1; 
stroke-linecap:round; stroke-linejoin:round;fill-rule:evenodd;"
d="M 37647.6,38248
37647.6,37972.4
37903.5,37972.4
37903.5,38248
Z" /> 
<path style="fill:#000000; fill-opacity:1.0; 
stroke:#000000; stroke-width:0; stroke-opacity:1; 
stroke-linecap:round; stroke-linejoin:round;fill-rule:evenodd;"
d="M 37647.6,37677.2
37647.6,37519.7
37903.5,37519.7
37903.5,37677.2
Z" /> 
</g>
<g >
</g>
<g >
</g>
<g >
</g>
<g >
</g>
<g >
</g>
</g> 
</svg>
