G04 #@! TF.GenerationSoftware,KiCad,Pcbnew,5.1.5+dfsg1-2~bpo9+1*
G04 #@! TF.CreationDate,2020-06-12T18:19:56-04:00*
G04 #@! TF.ProjectId,wideband_LO,77696465-6261-46e6-945f-4c4f2e6b6963,rev?*
G04 #@! TF.SameCoordinates,PX4fdec70PY51c70f0*
G04 #@! TF.FileFunction,Copper,L1,Top*
G04 #@! TF.FilePolarity,Positive*
%FSLAX46Y46*%
G04 Gerber Fmt 4.6, Leading zero omitted, Abs format (unit mm)*
G04 Created by KiCad (PCBNEW 5.1.5+dfsg1-2~bpo9+1) date 2020-06-12 18:19:56*
%MOMM*%
%LPD*%
G04 APERTURE LIST*
%ADD10R,0.899160X0.848360*%
%ADD11R,0.848360X0.899160*%
%ADD12R,1.099820X0.998220*%
%ADD13R,0.998220X1.099820*%
%ADD14R,1.500000X1.500000*%
%ADD15R,0.600000X0.700000*%
%ADD16R,0.700000X0.600000*%
%ADD17R,0.650000X0.400000*%
%ADD18R,2.000000X2.000000*%
%ADD19C,1.000000*%
%ADD20C,1.500000*%
%ADD21C,0.250000*%
%ADD22C,0.254000*%
G04 APERTURE END LIST*
D10*
X21800000Y-12870880D03*
X21800000Y-14029120D03*
D11*
X11220880Y-14450000D03*
X12379120Y-14450000D03*
D10*
X8750000Y-10079120D03*
X8750000Y-8920880D03*
D11*
X12379120Y-16450000D03*
X11220880Y-16450000D03*
D10*
X10350000Y-10079120D03*
X10350000Y-8920880D03*
X6750000Y-11670880D03*
X6750000Y-12829120D03*
X13000000Y-20029120D03*
X13000000Y-18870880D03*
X13000000Y-7270880D03*
X13000000Y-8429120D03*
X13000000Y-9250000D03*
X13000000Y-10408240D03*
X15000000Y-12870880D03*
X15000000Y-14029120D03*
X15000000Y-14870880D03*
X15000000Y-16029120D03*
D11*
X3270880Y-10950000D03*
X4429120Y-10950000D03*
D12*
X14401640Y-5850000D03*
X16098360Y-5850000D03*
D10*
X13000000Y-12891760D03*
X13000000Y-14050000D03*
D11*
X18179120Y-12450000D03*
X17020880Y-12450000D03*
D13*
X15600000Y-18801640D03*
X15600000Y-20498360D03*
D11*
X9170880Y-10900000D03*
X10329120Y-10900000D03*
D13*
X9400000Y-17303280D03*
X9400000Y-19000000D03*
D14*
X7400000Y-16250000D03*
D15*
X7147057Y-10967156D03*
X8547057Y-10967156D03*
D16*
X12950000Y-16150000D03*
X12950000Y-14750000D03*
D15*
X6550000Y-10967157D03*
X5150000Y-10967157D03*
D16*
X12950000Y-16749999D03*
X12950000Y-18149999D03*
D17*
X12950000Y-11000000D03*
X12950000Y-12300000D03*
X11050000Y-12300000D03*
X11050000Y-11000000D03*
D18*
X13000000Y-5850000D03*
X15600000Y-17450000D03*
D14*
X21800000Y-12450000D03*
D19*
X1750000Y-22000000D02*
X21250000Y-22000000D01*
X9351640Y-16250000D02*
X9400000Y-16298360D01*
X7400000Y-16250000D02*
X9351640Y-16250000D01*
X9551640Y-16450000D02*
X9400000Y-16298360D01*
X11000000Y-16450000D02*
X9330760Y-16450000D01*
X7400000Y-16250000D02*
X7400000Y-13900000D01*
X7400000Y-13900000D02*
X6750000Y-13250000D01*
X21800000Y-15453300D02*
X21750000Y-15503300D01*
X21800000Y-14325820D02*
X21800000Y-15750000D01*
D20*
X21400000Y-12450000D02*
X19000000Y-12450000D01*
X12800000Y-12450000D02*
X13499580Y-12450000D01*
D21*
X17220880Y-12450000D02*
X16546700Y-12450000D01*
D20*
X16200000Y-12450000D02*
X13653300Y-12450000D01*
D22*
G36*
X22623000Y-9569899D02*
G01*
X22550000Y-9562709D01*
X21050000Y-9562709D01*
X20945513Y-9573000D01*
X18858667Y-9573000D01*
X18436009Y-9614628D01*
X17893693Y-9779138D01*
X17732405Y-9865349D01*
X17600000Y-9878389D01*
X17467595Y-9865349D01*
X17306307Y-9779138D01*
X16763991Y-9614628D01*
X16341333Y-9573000D01*
X15586871Y-9573000D01*
X15586871Y-8379096D01*
X15769456Y-8323709D01*
X16138965Y-8126203D01*
X16462843Y-7860403D01*
X16728643Y-7536525D01*
X16926149Y-7167016D01*
X17016822Y-6868110D01*
X17099455Y-6800295D01*
X17178807Y-6703604D01*
X17237772Y-6593290D01*
X17274082Y-6473592D01*
X17286342Y-6349110D01*
X17283270Y-6135750D01*
X17124520Y-5977000D01*
X17088841Y-5977000D01*
X17088841Y-5723000D01*
X17124520Y-5723000D01*
X17283270Y-5564250D01*
X17286342Y-5350890D01*
X17274082Y-5226408D01*
X17237772Y-5106710D01*
X17178807Y-4996396D01*
X17099455Y-4899705D01*
X17016822Y-4831890D01*
X16926149Y-4532984D01*
X16728643Y-4163475D01*
X16462843Y-3839597D01*
X16138965Y-3573797D01*
X15769456Y-3376291D01*
X15432563Y-3274095D01*
X15187415Y-3072907D01*
X14817906Y-2875401D01*
X14416965Y-2753776D01*
X14000000Y-2712709D01*
X12000000Y-2712709D01*
X11583035Y-2753776D01*
X11182094Y-2875401D01*
X10812585Y-3072907D01*
X10488707Y-3338707D01*
X10222907Y-3662585D01*
X10025401Y-4032094D01*
X9903776Y-4433035D01*
X9862709Y-4850000D01*
X9862709Y-6850000D01*
X9903776Y-7266965D01*
X9979821Y-7517649D01*
X9900420Y-7517649D01*
X9550000Y-7552162D01*
X9199580Y-7517649D01*
X8300420Y-7517649D01*
X7883455Y-7558716D01*
X7482514Y-7680341D01*
X7113005Y-7877847D01*
X6789127Y-8143647D01*
X6523327Y-8467525D01*
X6516731Y-8479866D01*
X6250000Y-8479866D01*
X5850000Y-8519262D01*
X5553230Y-8490033D01*
X5270265Y-8404196D01*
X4853300Y-8363129D01*
X4004940Y-8363129D01*
X3587975Y-8404196D01*
X3187034Y-8525821D01*
X2817525Y-8723327D01*
X2493647Y-8989127D01*
X2227847Y-9313005D01*
X2030341Y-9682514D01*
X1908716Y-10083455D01*
X1867649Y-10500420D01*
X1867649Y-11399580D01*
X1908716Y-11816545D01*
X2030341Y-12217486D01*
X2227847Y-12586995D01*
X2493647Y-12910873D01*
X2817525Y-13176673D01*
X3187034Y-13374179D01*
X3587975Y-13495804D01*
X4004940Y-13536871D01*
X4138545Y-13536871D01*
X4161012Y-13764982D01*
X4311227Y-14260173D01*
X4555162Y-14716544D01*
X4635321Y-14814218D01*
X4553776Y-15083035D01*
X4512709Y-15500000D01*
X4512709Y-17000000D01*
X4553776Y-17416965D01*
X4675401Y-17817906D01*
X4872907Y-18187415D01*
X5138707Y-18511293D01*
X5462585Y-18777093D01*
X5832094Y-18974599D01*
X6233035Y-19096224D01*
X6650000Y-19137291D01*
X7203145Y-19137291D01*
X7389597Y-19364483D01*
X7713475Y-19630283D01*
X8082984Y-19827789D01*
X8232024Y-19873000D01*
X7000000Y-19873000D01*
X6975224Y-19875440D01*
X6951399Y-19882667D01*
X6929443Y-19894403D01*
X6910197Y-19910197D01*
X6894403Y-19929443D01*
X6882667Y-19951399D01*
X6875440Y-19975224D01*
X6873000Y-20000000D01*
X6873000Y-23373000D01*
X127000Y-23373000D01*
X127000Y-127000D01*
X22623000Y-127000D01*
X22623000Y-9569899D01*
G37*
X22623000Y-9569899D02*
X22550000Y-9562709D01*
X21050000Y-9562709D01*
X20945513Y-9573000D01*
X18858667Y-9573000D01*
X18436009Y-9614628D01*
X17893693Y-9779138D01*
X17732405Y-9865349D01*
X17600000Y-9878389D01*
X17467595Y-9865349D01*
X17306307Y-9779138D01*
X16763991Y-9614628D01*
X16341333Y-9573000D01*
X15586871Y-9573000D01*
X15586871Y-8379096D01*
X15769456Y-8323709D01*
X16138965Y-8126203D01*
X16462843Y-7860403D01*
X16728643Y-7536525D01*
X16926149Y-7167016D01*
X17016822Y-6868110D01*
X17099455Y-6800295D01*
X17178807Y-6703604D01*
X17237772Y-6593290D01*
X17274082Y-6473592D01*
X17286342Y-6349110D01*
X17283270Y-6135750D01*
X17124520Y-5977000D01*
X17088841Y-5977000D01*
X17088841Y-5723000D01*
X17124520Y-5723000D01*
X17283270Y-5564250D01*
X17286342Y-5350890D01*
X17274082Y-5226408D01*
X17237772Y-5106710D01*
X17178807Y-4996396D01*
X17099455Y-4899705D01*
X17016822Y-4831890D01*
X16926149Y-4532984D01*
X16728643Y-4163475D01*
X16462843Y-3839597D01*
X16138965Y-3573797D01*
X15769456Y-3376291D01*
X15432563Y-3274095D01*
X15187415Y-3072907D01*
X14817906Y-2875401D01*
X14416965Y-2753776D01*
X14000000Y-2712709D01*
X12000000Y-2712709D01*
X11583035Y-2753776D01*
X11182094Y-2875401D01*
X10812585Y-3072907D01*
X10488707Y-3338707D01*
X10222907Y-3662585D01*
X10025401Y-4032094D01*
X9903776Y-4433035D01*
X9862709Y-4850000D01*
X9862709Y-6850000D01*
X9903776Y-7266965D01*
X9979821Y-7517649D01*
X9900420Y-7517649D01*
X9550000Y-7552162D01*
X9199580Y-7517649D01*
X8300420Y-7517649D01*
X7883455Y-7558716D01*
X7482514Y-7680341D01*
X7113005Y-7877847D01*
X6789127Y-8143647D01*
X6523327Y-8467525D01*
X6516731Y-8479866D01*
X6250000Y-8479866D01*
X5850000Y-8519262D01*
X5553230Y-8490033D01*
X5270265Y-8404196D01*
X4853300Y-8363129D01*
X4004940Y-8363129D01*
X3587975Y-8404196D01*
X3187034Y-8525821D01*
X2817525Y-8723327D01*
X2493647Y-8989127D01*
X2227847Y-9313005D01*
X2030341Y-9682514D01*
X1908716Y-10083455D01*
X1867649Y-10500420D01*
X1867649Y-11399580D01*
X1908716Y-11816545D01*
X2030341Y-12217486D01*
X2227847Y-12586995D01*
X2493647Y-12910873D01*
X2817525Y-13176673D01*
X3187034Y-13374179D01*
X3587975Y-13495804D01*
X4004940Y-13536871D01*
X4138545Y-13536871D01*
X4161012Y-13764982D01*
X4311227Y-14260173D01*
X4555162Y-14716544D01*
X4635321Y-14814218D01*
X4553776Y-15083035D01*
X4512709Y-15500000D01*
X4512709Y-17000000D01*
X4553776Y-17416965D01*
X4675401Y-17817906D01*
X4872907Y-18187415D01*
X5138707Y-18511293D01*
X5462585Y-18777093D01*
X5832094Y-18974599D01*
X6233035Y-19096224D01*
X6650000Y-19137291D01*
X7203145Y-19137291D01*
X7389597Y-19364483D01*
X7713475Y-19630283D01*
X8082984Y-19827789D01*
X8232024Y-19873000D01*
X7000000Y-19873000D01*
X6975224Y-19875440D01*
X6951399Y-19882667D01*
X6929443Y-19894403D01*
X6910197Y-19910197D01*
X6894403Y-19929443D01*
X6882667Y-19951399D01*
X6875440Y-19975224D01*
X6873000Y-20000000D01*
X6873000Y-23373000D01*
X127000Y-23373000D01*
X127000Y-127000D01*
X22623000Y-127000D01*
X22623000Y-9569899D01*
G36*
X18436009Y-15285372D02*
G01*
X18858667Y-15327000D01*
X20721541Y-15327000D01*
X20933455Y-15391284D01*
X21350420Y-15432351D01*
X22249580Y-15432351D01*
X22623000Y-15395573D01*
X22623000Y-23373000D01*
X20377000Y-23373000D01*
X20377000Y-20000000D01*
X20374560Y-19975224D01*
X20367333Y-19951399D01*
X20355597Y-19929443D01*
X20339803Y-19910197D01*
X20320557Y-19894403D01*
X20298601Y-19882667D01*
X20274776Y-19875440D01*
X20250000Y-19873000D01*
X18183753Y-19873000D01*
X18377093Y-19637415D01*
X18574599Y-19267906D01*
X18696224Y-18866965D01*
X18737291Y-18450000D01*
X18737291Y-16450000D01*
X18696224Y-16033035D01*
X18574599Y-15632094D01*
X18380229Y-15268451D01*
X18436009Y-15285372D01*
G37*
X18436009Y-15285372D02*
X18858667Y-15327000D01*
X20721541Y-15327000D01*
X20933455Y-15391284D01*
X21350420Y-15432351D01*
X22249580Y-15432351D01*
X22623000Y-15395573D01*
X22623000Y-23373000D01*
X20377000Y-23373000D01*
X20377000Y-20000000D01*
X20374560Y-19975224D01*
X20367333Y-19951399D01*
X20355597Y-19929443D01*
X20339803Y-19910197D01*
X20320557Y-19894403D01*
X20298601Y-19882667D01*
X20274776Y-19875440D01*
X20250000Y-19873000D01*
X18183753Y-19873000D01*
X18377093Y-19637415D01*
X18574599Y-19267906D01*
X18696224Y-18866965D01*
X18737291Y-18450000D01*
X18737291Y-16450000D01*
X18696224Y-16033035D01*
X18574599Y-15632094D01*
X18380229Y-15268451D01*
X18436009Y-15285372D01*
G36*
X20123000Y-23373000D02*
G01*
X7127000Y-23373000D01*
X7127000Y-20127000D01*
X20123000Y-20127000D01*
X20123000Y-23373000D01*
G37*
X20123000Y-23373000D02*
X7127000Y-23373000D01*
X7127000Y-20127000D01*
X20123000Y-20127000D01*
X20123000Y-23373000D01*
G36*
X20988703Y-9123000D02*
G01*
X15877000Y-9123000D01*
X15877000Y-2617196D01*
X20988703Y-9123000D01*
G37*
X20988703Y-9123000D02*
X15877000Y-9123000D01*
X15877000Y-2617196D01*
X20988703Y-9123000D01*
G36*
X3373000Y-13373000D02*
G01*
X687584Y-13373000D01*
X3373000Y-6659460D01*
X3373000Y-13373000D01*
G37*
X3373000Y-13373000D02*
X687584Y-13373000D01*
X3373000Y-6659460D01*
X3373000Y-13373000D01*
G36*
X10623000Y-8873000D02*
G01*
X7377000Y-8873000D01*
X7377000Y-6305381D01*
X10623000Y-3291238D01*
X10623000Y-8873000D01*
G37*
X10623000Y-8873000D02*
X7377000Y-8873000D01*
X7377000Y-6305381D01*
X10623000Y-3291238D01*
X10623000Y-8873000D01*
M02*
