G04 #@! TF.GenerationSoftware,KiCad,Pcbnew,5.1.5+dfsg1-2~bpo9+1*
G04 #@! TF.CreationDate,2020-06-15T18:45:28-04:00*
G04 #@! TF.ProjectId,wideband_LO,77696465-6261-46e6-945f-4c4f2e6b6963,rev?*
G04 #@! TF.SameCoordinates,PX4fdec70PY51c70f0*
G04 #@! TF.FileFunction,Copper,L1,Top*
G04 #@! TF.FilePolarity,Positive*
%FSLAX46Y46*%
G04 Gerber Fmt 4.6, Leading zero omitted, Abs format (unit mm)*
G04 Created by KiCad (PCBNEW 5.1.5+dfsg1-2~bpo9+1) date 2020-06-15 18:45:28*
%MOMM*%
%LPD*%
G04 APERTURE LIST*
%ADD10R,1.500000X1.500000*%
%ADD11R,0.998220X1.099820*%
%ADD12R,1.099820X0.998220*%
%ADD13C,0.020000*%
%ADD14R,0.600000X0.700000*%
%ADD15R,0.700000X0.600000*%
%ADD16R,0.650000X0.400000*%
%ADD17R,0.650000X0.700000*%
%ADD18R,2.000000X2.000000*%
%ADD19C,1.000000*%
%ADD20C,0.500000*%
%ADD21C,1.500000*%
%ADD22C,0.254000*%
G04 APERTURE END LIST*
D10*
X8350000Y-14950000D03*
D11*
X14150000Y-6098360D03*
X14150000Y-4401640D03*
D12*
X7098360Y-15000000D03*
X5401640Y-15000000D03*
X10001640Y-7250000D03*
X11698360Y-7250000D03*
D11*
X16250000Y-6098360D03*
X16250000Y-4401640D03*
G04 #@! TA.AperFunction,SMDPad,CuDef*
D13*
G36*
X9981959Y-5430711D02*
G01*
X9996277Y-5432835D01*
X10010318Y-5436352D01*
X10023947Y-5441229D01*
X10037032Y-5447418D01*
X10049448Y-5454859D01*
X10061074Y-5463482D01*
X10071799Y-5473203D01*
X10081520Y-5483928D01*
X10090143Y-5495554D01*
X10097584Y-5507970D01*
X10103773Y-5521055D01*
X10108650Y-5534684D01*
X10112167Y-5548725D01*
X10114291Y-5563043D01*
X10115001Y-5577501D01*
X10115001Y-5922501D01*
X10114291Y-5936959D01*
X10112167Y-5951277D01*
X10108650Y-5965318D01*
X10103773Y-5978947D01*
X10097584Y-5992032D01*
X10090143Y-6004448D01*
X10081520Y-6016074D01*
X10071799Y-6026799D01*
X10061074Y-6036520D01*
X10049448Y-6045143D01*
X10037032Y-6052584D01*
X10023947Y-6058773D01*
X10010318Y-6063650D01*
X9996277Y-6067167D01*
X9981959Y-6069291D01*
X9967501Y-6070001D01*
X9672501Y-6070001D01*
X9658043Y-6069291D01*
X9643725Y-6067167D01*
X9629684Y-6063650D01*
X9616055Y-6058773D01*
X9602970Y-6052584D01*
X9590554Y-6045143D01*
X9578928Y-6036520D01*
X9568203Y-6026799D01*
X9558482Y-6016074D01*
X9549859Y-6004448D01*
X9542418Y-5992032D01*
X9536229Y-5978947D01*
X9531352Y-5965318D01*
X9527835Y-5951277D01*
X9525711Y-5936959D01*
X9525001Y-5922501D01*
X9525001Y-5577501D01*
X9525711Y-5563043D01*
X9527835Y-5548725D01*
X9531352Y-5534684D01*
X9536229Y-5521055D01*
X9542418Y-5507970D01*
X9549859Y-5495554D01*
X9558482Y-5483928D01*
X9568203Y-5473203D01*
X9578928Y-5463482D01*
X9590554Y-5454859D01*
X9602970Y-5447418D01*
X9616055Y-5441229D01*
X9629684Y-5436352D01*
X9643725Y-5432835D01*
X9658043Y-5430711D01*
X9672501Y-5430001D01*
X9967501Y-5430001D01*
X9981959Y-5430711D01*
G37*
G04 #@! TD.AperFunction*
G04 #@! TA.AperFunction,SMDPad,CuDef*
G36*
X9011959Y-5430711D02*
G01*
X9026277Y-5432835D01*
X9040318Y-5436352D01*
X9053947Y-5441229D01*
X9067032Y-5447418D01*
X9079448Y-5454859D01*
X9091074Y-5463482D01*
X9101799Y-5473203D01*
X9111520Y-5483928D01*
X9120143Y-5495554D01*
X9127584Y-5507970D01*
X9133773Y-5521055D01*
X9138650Y-5534684D01*
X9142167Y-5548725D01*
X9144291Y-5563043D01*
X9145001Y-5577501D01*
X9145001Y-5922501D01*
X9144291Y-5936959D01*
X9142167Y-5951277D01*
X9138650Y-5965318D01*
X9133773Y-5978947D01*
X9127584Y-5992032D01*
X9120143Y-6004448D01*
X9111520Y-6016074D01*
X9101799Y-6026799D01*
X9091074Y-6036520D01*
X9079448Y-6045143D01*
X9067032Y-6052584D01*
X9053947Y-6058773D01*
X9040318Y-6063650D01*
X9026277Y-6067167D01*
X9011959Y-6069291D01*
X8997501Y-6070001D01*
X8702501Y-6070001D01*
X8688043Y-6069291D01*
X8673725Y-6067167D01*
X8659684Y-6063650D01*
X8646055Y-6058773D01*
X8632970Y-6052584D01*
X8620554Y-6045143D01*
X8608928Y-6036520D01*
X8598203Y-6026799D01*
X8588482Y-6016074D01*
X8579859Y-6004448D01*
X8572418Y-5992032D01*
X8566229Y-5978947D01*
X8561352Y-5965318D01*
X8557835Y-5951277D01*
X8555711Y-5936959D01*
X8555001Y-5922501D01*
X8555001Y-5577501D01*
X8555711Y-5563043D01*
X8557835Y-5548725D01*
X8561352Y-5534684D01*
X8566229Y-5521055D01*
X8572418Y-5507970D01*
X8579859Y-5495554D01*
X8588482Y-5483928D01*
X8598203Y-5473203D01*
X8608928Y-5463482D01*
X8620554Y-5454859D01*
X8632970Y-5447418D01*
X8646055Y-5441229D01*
X8659684Y-5436352D01*
X8673725Y-5432835D01*
X8688043Y-5430711D01*
X8702501Y-5430001D01*
X8997501Y-5430001D01*
X9011959Y-5430711D01*
G37*
G04 #@! TD.AperFunction*
G04 #@! TA.AperFunction,SMDPad,CuDef*
G36*
X8536958Y-10070710D02*
G01*
X8551276Y-10072834D01*
X8565317Y-10076351D01*
X8578946Y-10081228D01*
X8592031Y-10087417D01*
X8604447Y-10094858D01*
X8616073Y-10103481D01*
X8626798Y-10113202D01*
X8636519Y-10123927D01*
X8645142Y-10135553D01*
X8652583Y-10147969D01*
X8658772Y-10161054D01*
X8663649Y-10174683D01*
X8667166Y-10188724D01*
X8669290Y-10203042D01*
X8670000Y-10217500D01*
X8670000Y-10512500D01*
X8669290Y-10526958D01*
X8667166Y-10541276D01*
X8663649Y-10555317D01*
X8658772Y-10568946D01*
X8652583Y-10582031D01*
X8645142Y-10594447D01*
X8636519Y-10606073D01*
X8626798Y-10616798D01*
X8616073Y-10626519D01*
X8604447Y-10635142D01*
X8592031Y-10642583D01*
X8578946Y-10648772D01*
X8565317Y-10653649D01*
X8551276Y-10657166D01*
X8536958Y-10659290D01*
X8522500Y-10660000D01*
X8177500Y-10660000D01*
X8163042Y-10659290D01*
X8148724Y-10657166D01*
X8134683Y-10653649D01*
X8121054Y-10648772D01*
X8107969Y-10642583D01*
X8095553Y-10635142D01*
X8083927Y-10626519D01*
X8073202Y-10616798D01*
X8063481Y-10606073D01*
X8054858Y-10594447D01*
X8047417Y-10582031D01*
X8041228Y-10568946D01*
X8036351Y-10555317D01*
X8032834Y-10541276D01*
X8030710Y-10526958D01*
X8030000Y-10512500D01*
X8030000Y-10217500D01*
X8030710Y-10203042D01*
X8032834Y-10188724D01*
X8036351Y-10174683D01*
X8041228Y-10161054D01*
X8047417Y-10147969D01*
X8054858Y-10135553D01*
X8063481Y-10123927D01*
X8073202Y-10113202D01*
X8083927Y-10103481D01*
X8095553Y-10094858D01*
X8107969Y-10087417D01*
X8121054Y-10081228D01*
X8134683Y-10076351D01*
X8148724Y-10072834D01*
X8163042Y-10070710D01*
X8177500Y-10070000D01*
X8522500Y-10070000D01*
X8536958Y-10070710D01*
G37*
G04 #@! TD.AperFunction*
G04 #@! TA.AperFunction,SMDPad,CuDef*
G36*
X8536958Y-11040710D02*
G01*
X8551276Y-11042834D01*
X8565317Y-11046351D01*
X8578946Y-11051228D01*
X8592031Y-11057417D01*
X8604447Y-11064858D01*
X8616073Y-11073481D01*
X8626798Y-11083202D01*
X8636519Y-11093927D01*
X8645142Y-11105553D01*
X8652583Y-11117969D01*
X8658772Y-11131054D01*
X8663649Y-11144683D01*
X8667166Y-11158724D01*
X8669290Y-11173042D01*
X8670000Y-11187500D01*
X8670000Y-11482500D01*
X8669290Y-11496958D01*
X8667166Y-11511276D01*
X8663649Y-11525317D01*
X8658772Y-11538946D01*
X8652583Y-11552031D01*
X8645142Y-11564447D01*
X8636519Y-11576073D01*
X8626798Y-11586798D01*
X8616073Y-11596519D01*
X8604447Y-11605142D01*
X8592031Y-11612583D01*
X8578946Y-11618772D01*
X8565317Y-11623649D01*
X8551276Y-11627166D01*
X8536958Y-11629290D01*
X8522500Y-11630000D01*
X8177500Y-11630000D01*
X8163042Y-11629290D01*
X8148724Y-11627166D01*
X8134683Y-11623649D01*
X8121054Y-11618772D01*
X8107969Y-11612583D01*
X8095553Y-11605142D01*
X8083927Y-11596519D01*
X8073202Y-11586798D01*
X8063481Y-11576073D01*
X8054858Y-11564447D01*
X8047417Y-11552031D01*
X8041228Y-11538946D01*
X8036351Y-11525317D01*
X8032834Y-11511276D01*
X8030710Y-11496958D01*
X8030000Y-11482500D01*
X8030000Y-11187500D01*
X8030710Y-11173042D01*
X8032834Y-11158724D01*
X8036351Y-11144683D01*
X8041228Y-11131054D01*
X8047417Y-11117969D01*
X8054858Y-11105553D01*
X8063481Y-11093927D01*
X8073202Y-11083202D01*
X8083927Y-11073481D01*
X8095553Y-11064858D01*
X8107969Y-11057417D01*
X8121054Y-11051228D01*
X8134683Y-11046351D01*
X8148724Y-11042834D01*
X8163042Y-11040710D01*
X8177500Y-11040000D01*
X8522500Y-11040000D01*
X8536958Y-11040710D01*
G37*
G04 #@! TD.AperFunction*
G04 #@! TA.AperFunction,SMDPad,CuDef*
G36*
X14336958Y-6570710D02*
G01*
X14351276Y-6572834D01*
X14365317Y-6576351D01*
X14378946Y-6581228D01*
X14392031Y-6587417D01*
X14404447Y-6594858D01*
X14416073Y-6603481D01*
X14426798Y-6613202D01*
X14436519Y-6623927D01*
X14445142Y-6635553D01*
X14452583Y-6647969D01*
X14458772Y-6661054D01*
X14463649Y-6674683D01*
X14467166Y-6688724D01*
X14469290Y-6703042D01*
X14470000Y-6717500D01*
X14470000Y-7012500D01*
X14469290Y-7026958D01*
X14467166Y-7041276D01*
X14463649Y-7055317D01*
X14458772Y-7068946D01*
X14452583Y-7082031D01*
X14445142Y-7094447D01*
X14436519Y-7106073D01*
X14426798Y-7116798D01*
X14416073Y-7126519D01*
X14404447Y-7135142D01*
X14392031Y-7142583D01*
X14378946Y-7148772D01*
X14365317Y-7153649D01*
X14351276Y-7157166D01*
X14336958Y-7159290D01*
X14322500Y-7160000D01*
X13977500Y-7160000D01*
X13963042Y-7159290D01*
X13948724Y-7157166D01*
X13934683Y-7153649D01*
X13921054Y-7148772D01*
X13907969Y-7142583D01*
X13895553Y-7135142D01*
X13883927Y-7126519D01*
X13873202Y-7116798D01*
X13863481Y-7106073D01*
X13854858Y-7094447D01*
X13847417Y-7082031D01*
X13841228Y-7068946D01*
X13836351Y-7055317D01*
X13832834Y-7041276D01*
X13830710Y-7026958D01*
X13830000Y-7012500D01*
X13830000Y-6717500D01*
X13830710Y-6703042D01*
X13832834Y-6688724D01*
X13836351Y-6674683D01*
X13841228Y-6661054D01*
X13847417Y-6647969D01*
X13854858Y-6635553D01*
X13863481Y-6623927D01*
X13873202Y-6613202D01*
X13883927Y-6603481D01*
X13895553Y-6594858D01*
X13907969Y-6587417D01*
X13921054Y-6581228D01*
X13934683Y-6576351D01*
X13948724Y-6572834D01*
X13963042Y-6570710D01*
X13977500Y-6570000D01*
X14322500Y-6570000D01*
X14336958Y-6570710D01*
G37*
G04 #@! TD.AperFunction*
G04 #@! TA.AperFunction,SMDPad,CuDef*
G36*
X14336958Y-7540710D02*
G01*
X14351276Y-7542834D01*
X14365317Y-7546351D01*
X14378946Y-7551228D01*
X14392031Y-7557417D01*
X14404447Y-7564858D01*
X14416073Y-7573481D01*
X14426798Y-7583202D01*
X14436519Y-7593927D01*
X14445142Y-7605553D01*
X14452583Y-7617969D01*
X14458772Y-7631054D01*
X14463649Y-7644683D01*
X14467166Y-7658724D01*
X14469290Y-7673042D01*
X14470000Y-7687500D01*
X14470000Y-7982500D01*
X14469290Y-7996958D01*
X14467166Y-8011276D01*
X14463649Y-8025317D01*
X14458772Y-8038946D01*
X14452583Y-8052031D01*
X14445142Y-8064447D01*
X14436519Y-8076073D01*
X14426798Y-8086798D01*
X14416073Y-8096519D01*
X14404447Y-8105142D01*
X14392031Y-8112583D01*
X14378946Y-8118772D01*
X14365317Y-8123649D01*
X14351276Y-8127166D01*
X14336958Y-8129290D01*
X14322500Y-8130000D01*
X13977500Y-8130000D01*
X13963042Y-8129290D01*
X13948724Y-8127166D01*
X13934683Y-8123649D01*
X13921054Y-8118772D01*
X13907969Y-8112583D01*
X13895553Y-8105142D01*
X13883927Y-8096519D01*
X13873202Y-8086798D01*
X13863481Y-8076073D01*
X13854858Y-8064447D01*
X13847417Y-8052031D01*
X13841228Y-8038946D01*
X13836351Y-8025317D01*
X13832834Y-8011276D01*
X13830710Y-7996958D01*
X13830000Y-7982500D01*
X13830000Y-7687500D01*
X13830710Y-7673042D01*
X13832834Y-7658724D01*
X13836351Y-7644683D01*
X13841228Y-7631054D01*
X13847417Y-7617969D01*
X13854858Y-7605553D01*
X13863481Y-7593927D01*
X13873202Y-7583202D01*
X13883927Y-7573481D01*
X13895553Y-7564858D01*
X13907969Y-7557417D01*
X13921054Y-7551228D01*
X13934683Y-7546351D01*
X13948724Y-7542834D01*
X13963042Y-7540710D01*
X13977500Y-7540000D01*
X14322500Y-7540000D01*
X14336958Y-7540710D01*
G37*
G04 #@! TD.AperFunction*
G04 #@! TA.AperFunction,SMDPad,CuDef*
G36*
X22636958Y-11420710D02*
G01*
X22651276Y-11422834D01*
X22665317Y-11426351D01*
X22678946Y-11431228D01*
X22692031Y-11437417D01*
X22704447Y-11444858D01*
X22716073Y-11453481D01*
X22726798Y-11463202D01*
X22736519Y-11473927D01*
X22745142Y-11485553D01*
X22752583Y-11497969D01*
X22758772Y-11511054D01*
X22763649Y-11524683D01*
X22767166Y-11538724D01*
X22769290Y-11553042D01*
X22770000Y-11567500D01*
X22770000Y-11862500D01*
X22769290Y-11876958D01*
X22767166Y-11891276D01*
X22763649Y-11905317D01*
X22758772Y-11918946D01*
X22752583Y-11932031D01*
X22745142Y-11944447D01*
X22736519Y-11956073D01*
X22726798Y-11966798D01*
X22716073Y-11976519D01*
X22704447Y-11985142D01*
X22692031Y-11992583D01*
X22678946Y-11998772D01*
X22665317Y-12003649D01*
X22651276Y-12007166D01*
X22636958Y-12009290D01*
X22622500Y-12010000D01*
X22277500Y-12010000D01*
X22263042Y-12009290D01*
X22248724Y-12007166D01*
X22234683Y-12003649D01*
X22221054Y-11998772D01*
X22207969Y-11992583D01*
X22195553Y-11985142D01*
X22183927Y-11976519D01*
X22173202Y-11966798D01*
X22163481Y-11956073D01*
X22154858Y-11944447D01*
X22147417Y-11932031D01*
X22141228Y-11918946D01*
X22136351Y-11905317D01*
X22132834Y-11891276D01*
X22130710Y-11876958D01*
X22130000Y-11862500D01*
X22130000Y-11567500D01*
X22130710Y-11553042D01*
X22132834Y-11538724D01*
X22136351Y-11524683D01*
X22141228Y-11511054D01*
X22147417Y-11497969D01*
X22154858Y-11485553D01*
X22163481Y-11473927D01*
X22173202Y-11463202D01*
X22183927Y-11453481D01*
X22195553Y-11444858D01*
X22207969Y-11437417D01*
X22221054Y-11431228D01*
X22234683Y-11426351D01*
X22248724Y-11422834D01*
X22263042Y-11420710D01*
X22277500Y-11420000D01*
X22622500Y-11420000D01*
X22636958Y-11420710D01*
G37*
G04 #@! TD.AperFunction*
G04 #@! TA.AperFunction,SMDPad,CuDef*
G36*
X22636958Y-12390710D02*
G01*
X22651276Y-12392834D01*
X22665317Y-12396351D01*
X22678946Y-12401228D01*
X22692031Y-12407417D01*
X22704447Y-12414858D01*
X22716073Y-12423481D01*
X22726798Y-12433202D01*
X22736519Y-12443927D01*
X22745142Y-12455553D01*
X22752583Y-12467969D01*
X22758772Y-12481054D01*
X22763649Y-12494683D01*
X22767166Y-12508724D01*
X22769290Y-12523042D01*
X22770000Y-12537500D01*
X22770000Y-12832500D01*
X22769290Y-12846958D01*
X22767166Y-12861276D01*
X22763649Y-12875317D01*
X22758772Y-12888946D01*
X22752583Y-12902031D01*
X22745142Y-12914447D01*
X22736519Y-12926073D01*
X22726798Y-12936798D01*
X22716073Y-12946519D01*
X22704447Y-12955142D01*
X22692031Y-12962583D01*
X22678946Y-12968772D01*
X22665317Y-12973649D01*
X22651276Y-12977166D01*
X22636958Y-12979290D01*
X22622500Y-12980000D01*
X22277500Y-12980000D01*
X22263042Y-12979290D01*
X22248724Y-12977166D01*
X22234683Y-12973649D01*
X22221054Y-12968772D01*
X22207969Y-12962583D01*
X22195553Y-12955142D01*
X22183927Y-12946519D01*
X22173202Y-12936798D01*
X22163481Y-12926073D01*
X22154858Y-12914447D01*
X22147417Y-12902031D01*
X22141228Y-12888946D01*
X22136351Y-12875317D01*
X22132834Y-12861276D01*
X22130710Y-12846958D01*
X22130000Y-12832500D01*
X22130000Y-12537500D01*
X22130710Y-12523042D01*
X22132834Y-12508724D01*
X22136351Y-12494683D01*
X22141228Y-12481054D01*
X22147417Y-12467969D01*
X22154858Y-12455553D01*
X22163481Y-12443927D01*
X22173202Y-12433202D01*
X22183927Y-12423481D01*
X22195553Y-12414858D01*
X22207969Y-12407417D01*
X22221054Y-12401228D01*
X22234683Y-12396351D01*
X22248724Y-12392834D01*
X22263042Y-12390710D01*
X22277500Y-12390000D01*
X22622500Y-12390000D01*
X22636958Y-12390710D01*
G37*
G04 #@! TD.AperFunction*
G04 #@! TA.AperFunction,SMDPad,CuDef*
G36*
X15846958Y-12930710D02*
G01*
X15861276Y-12932834D01*
X15875317Y-12936351D01*
X15888946Y-12941228D01*
X15902031Y-12947417D01*
X15914447Y-12954858D01*
X15926073Y-12963481D01*
X15936798Y-12973202D01*
X15946519Y-12983927D01*
X15955142Y-12995553D01*
X15962583Y-13007969D01*
X15968772Y-13021054D01*
X15973649Y-13034683D01*
X15977166Y-13048724D01*
X15979290Y-13063042D01*
X15980000Y-13077500D01*
X15980000Y-13422500D01*
X15979290Y-13436958D01*
X15977166Y-13451276D01*
X15973649Y-13465317D01*
X15968772Y-13478946D01*
X15962583Y-13492031D01*
X15955142Y-13504447D01*
X15946519Y-13516073D01*
X15936798Y-13526798D01*
X15926073Y-13536519D01*
X15914447Y-13545142D01*
X15902031Y-13552583D01*
X15888946Y-13558772D01*
X15875317Y-13563649D01*
X15861276Y-13567166D01*
X15846958Y-13569290D01*
X15832500Y-13570000D01*
X15537500Y-13570000D01*
X15523042Y-13569290D01*
X15508724Y-13567166D01*
X15494683Y-13563649D01*
X15481054Y-13558772D01*
X15467969Y-13552583D01*
X15455553Y-13545142D01*
X15443927Y-13536519D01*
X15433202Y-13526798D01*
X15423481Y-13516073D01*
X15414858Y-13504447D01*
X15407417Y-13492031D01*
X15401228Y-13478946D01*
X15396351Y-13465317D01*
X15392834Y-13451276D01*
X15390710Y-13436958D01*
X15390000Y-13422500D01*
X15390000Y-13077500D01*
X15390710Y-13063042D01*
X15392834Y-13048724D01*
X15396351Y-13034683D01*
X15401228Y-13021054D01*
X15407417Y-13007969D01*
X15414858Y-12995553D01*
X15423481Y-12983927D01*
X15433202Y-12973202D01*
X15443927Y-12963481D01*
X15455553Y-12954858D01*
X15467969Y-12947417D01*
X15481054Y-12941228D01*
X15494683Y-12936351D01*
X15508724Y-12932834D01*
X15523042Y-12930710D01*
X15537500Y-12930000D01*
X15832500Y-12930000D01*
X15846958Y-12930710D01*
G37*
G04 #@! TD.AperFunction*
G04 #@! TA.AperFunction,SMDPad,CuDef*
G36*
X14876958Y-12930710D02*
G01*
X14891276Y-12932834D01*
X14905317Y-12936351D01*
X14918946Y-12941228D01*
X14932031Y-12947417D01*
X14944447Y-12954858D01*
X14956073Y-12963481D01*
X14966798Y-12973202D01*
X14976519Y-12983927D01*
X14985142Y-12995553D01*
X14992583Y-13007969D01*
X14998772Y-13021054D01*
X15003649Y-13034683D01*
X15007166Y-13048724D01*
X15009290Y-13063042D01*
X15010000Y-13077500D01*
X15010000Y-13422500D01*
X15009290Y-13436958D01*
X15007166Y-13451276D01*
X15003649Y-13465317D01*
X14998772Y-13478946D01*
X14992583Y-13492031D01*
X14985142Y-13504447D01*
X14976519Y-13516073D01*
X14966798Y-13526798D01*
X14956073Y-13536519D01*
X14944447Y-13545142D01*
X14932031Y-13552583D01*
X14918946Y-13558772D01*
X14905317Y-13563649D01*
X14891276Y-13567166D01*
X14876958Y-13569290D01*
X14862500Y-13570000D01*
X14567500Y-13570000D01*
X14553042Y-13569290D01*
X14538724Y-13567166D01*
X14524683Y-13563649D01*
X14511054Y-13558772D01*
X14497969Y-13552583D01*
X14485553Y-13545142D01*
X14473927Y-13536519D01*
X14463202Y-13526798D01*
X14453481Y-13516073D01*
X14444858Y-13504447D01*
X14437417Y-13492031D01*
X14431228Y-13478946D01*
X14426351Y-13465317D01*
X14422834Y-13451276D01*
X14420710Y-13436958D01*
X14420000Y-13422500D01*
X14420000Y-13077500D01*
X14420710Y-13063042D01*
X14422834Y-13048724D01*
X14426351Y-13034683D01*
X14431228Y-13021054D01*
X14437417Y-13007969D01*
X14444858Y-12995553D01*
X14453481Y-12983927D01*
X14463202Y-12973202D01*
X14473927Y-12963481D01*
X14485553Y-12954858D01*
X14497969Y-12947417D01*
X14511054Y-12941228D01*
X14524683Y-12936351D01*
X14538724Y-12932834D01*
X14553042Y-12930710D01*
X14567500Y-12930000D01*
X14862500Y-12930000D01*
X14876958Y-12930710D01*
G37*
G04 #@! TD.AperFunction*
G04 #@! TA.AperFunction,SMDPad,CuDef*
G36*
X10336958Y-8940710D02*
G01*
X10351276Y-8942834D01*
X10365317Y-8946351D01*
X10378946Y-8951228D01*
X10392031Y-8957417D01*
X10404447Y-8964858D01*
X10416073Y-8973481D01*
X10426798Y-8983202D01*
X10436519Y-8993927D01*
X10445142Y-9005553D01*
X10452583Y-9017969D01*
X10458772Y-9031054D01*
X10463649Y-9044683D01*
X10467166Y-9058724D01*
X10469290Y-9073042D01*
X10470000Y-9087500D01*
X10470000Y-9382500D01*
X10469290Y-9396958D01*
X10467166Y-9411276D01*
X10463649Y-9425317D01*
X10458772Y-9438946D01*
X10452583Y-9452031D01*
X10445142Y-9464447D01*
X10436519Y-9476073D01*
X10426798Y-9486798D01*
X10416073Y-9496519D01*
X10404447Y-9505142D01*
X10392031Y-9512583D01*
X10378946Y-9518772D01*
X10365317Y-9523649D01*
X10351276Y-9527166D01*
X10336958Y-9529290D01*
X10322500Y-9530000D01*
X9977500Y-9530000D01*
X9963042Y-9529290D01*
X9948724Y-9527166D01*
X9934683Y-9523649D01*
X9921054Y-9518772D01*
X9907969Y-9512583D01*
X9895553Y-9505142D01*
X9883927Y-9496519D01*
X9873202Y-9486798D01*
X9863481Y-9476073D01*
X9854858Y-9464447D01*
X9847417Y-9452031D01*
X9841228Y-9438946D01*
X9836351Y-9425317D01*
X9832834Y-9411276D01*
X9830710Y-9396958D01*
X9830000Y-9382500D01*
X9830000Y-9087500D01*
X9830710Y-9073042D01*
X9832834Y-9058724D01*
X9836351Y-9044683D01*
X9841228Y-9031054D01*
X9847417Y-9017969D01*
X9854858Y-9005553D01*
X9863481Y-8993927D01*
X9873202Y-8983202D01*
X9883927Y-8973481D01*
X9895553Y-8964858D01*
X9907969Y-8957417D01*
X9921054Y-8951228D01*
X9934683Y-8946351D01*
X9948724Y-8942834D01*
X9963042Y-8940710D01*
X9977500Y-8940000D01*
X10322500Y-8940000D01*
X10336958Y-8940710D01*
G37*
G04 #@! TD.AperFunction*
G04 #@! TA.AperFunction,SMDPad,CuDef*
G36*
X10336958Y-7970710D02*
G01*
X10351276Y-7972834D01*
X10365317Y-7976351D01*
X10378946Y-7981228D01*
X10392031Y-7987417D01*
X10404447Y-7994858D01*
X10416073Y-8003481D01*
X10426798Y-8013202D01*
X10436519Y-8023927D01*
X10445142Y-8035553D01*
X10452583Y-8047969D01*
X10458772Y-8061054D01*
X10463649Y-8074683D01*
X10467166Y-8088724D01*
X10469290Y-8103042D01*
X10470000Y-8117500D01*
X10470000Y-8412500D01*
X10469290Y-8426958D01*
X10467166Y-8441276D01*
X10463649Y-8455317D01*
X10458772Y-8468946D01*
X10452583Y-8482031D01*
X10445142Y-8494447D01*
X10436519Y-8506073D01*
X10426798Y-8516798D01*
X10416073Y-8526519D01*
X10404447Y-8535142D01*
X10392031Y-8542583D01*
X10378946Y-8548772D01*
X10365317Y-8553649D01*
X10351276Y-8557166D01*
X10336958Y-8559290D01*
X10322500Y-8560000D01*
X9977500Y-8560000D01*
X9963042Y-8559290D01*
X9948724Y-8557166D01*
X9934683Y-8553649D01*
X9921054Y-8548772D01*
X9907969Y-8542583D01*
X9895553Y-8535142D01*
X9883927Y-8526519D01*
X9873202Y-8516798D01*
X9863481Y-8506073D01*
X9854858Y-8494447D01*
X9847417Y-8482031D01*
X9841228Y-8468946D01*
X9836351Y-8455317D01*
X9832834Y-8441276D01*
X9830710Y-8426958D01*
X9830000Y-8412500D01*
X9830000Y-8117500D01*
X9830710Y-8103042D01*
X9832834Y-8088724D01*
X9836351Y-8074683D01*
X9841228Y-8061054D01*
X9847417Y-8047969D01*
X9854858Y-8035553D01*
X9863481Y-8023927D01*
X9873202Y-8013202D01*
X9883927Y-8003481D01*
X9895553Y-7994858D01*
X9907969Y-7987417D01*
X9921054Y-7981228D01*
X9934683Y-7976351D01*
X9948724Y-7972834D01*
X9963042Y-7970710D01*
X9977500Y-7970000D01*
X10322500Y-7970000D01*
X10336958Y-7970710D01*
G37*
G04 #@! TD.AperFunction*
G04 #@! TA.AperFunction,SMDPad,CuDef*
G36*
X13696958Y-14630710D02*
G01*
X13711276Y-14632834D01*
X13725317Y-14636351D01*
X13738946Y-14641228D01*
X13752031Y-14647417D01*
X13764447Y-14654858D01*
X13776073Y-14663481D01*
X13786798Y-14673202D01*
X13796519Y-14683927D01*
X13805142Y-14695553D01*
X13812583Y-14707969D01*
X13818772Y-14721054D01*
X13823649Y-14734683D01*
X13827166Y-14748724D01*
X13829290Y-14763042D01*
X13830000Y-14777500D01*
X13830000Y-15122500D01*
X13829290Y-15136958D01*
X13827166Y-15151276D01*
X13823649Y-15165317D01*
X13818772Y-15178946D01*
X13812583Y-15192031D01*
X13805142Y-15204447D01*
X13796519Y-15216073D01*
X13786798Y-15226798D01*
X13776073Y-15236519D01*
X13764447Y-15245142D01*
X13752031Y-15252583D01*
X13738946Y-15258772D01*
X13725317Y-15263649D01*
X13711276Y-15267166D01*
X13696958Y-15269290D01*
X13682500Y-15270000D01*
X13387500Y-15270000D01*
X13373042Y-15269290D01*
X13358724Y-15267166D01*
X13344683Y-15263649D01*
X13331054Y-15258772D01*
X13317969Y-15252583D01*
X13305553Y-15245142D01*
X13293927Y-15236519D01*
X13283202Y-15226798D01*
X13273481Y-15216073D01*
X13264858Y-15204447D01*
X13257417Y-15192031D01*
X13251228Y-15178946D01*
X13246351Y-15165317D01*
X13242834Y-15151276D01*
X13240710Y-15136958D01*
X13240000Y-15122500D01*
X13240000Y-14777500D01*
X13240710Y-14763042D01*
X13242834Y-14748724D01*
X13246351Y-14734683D01*
X13251228Y-14721054D01*
X13257417Y-14707969D01*
X13264858Y-14695553D01*
X13273481Y-14683927D01*
X13283202Y-14673202D01*
X13293927Y-14663481D01*
X13305553Y-14654858D01*
X13317969Y-14647417D01*
X13331054Y-14641228D01*
X13344683Y-14636351D01*
X13358724Y-14632834D01*
X13373042Y-14630710D01*
X13387500Y-14630000D01*
X13682500Y-14630000D01*
X13696958Y-14630710D01*
G37*
G04 #@! TD.AperFunction*
G04 #@! TA.AperFunction,SMDPad,CuDef*
G36*
X12726958Y-14630710D02*
G01*
X12741276Y-14632834D01*
X12755317Y-14636351D01*
X12768946Y-14641228D01*
X12782031Y-14647417D01*
X12794447Y-14654858D01*
X12806073Y-14663481D01*
X12816798Y-14673202D01*
X12826519Y-14683927D01*
X12835142Y-14695553D01*
X12842583Y-14707969D01*
X12848772Y-14721054D01*
X12853649Y-14734683D01*
X12857166Y-14748724D01*
X12859290Y-14763042D01*
X12860000Y-14777500D01*
X12860000Y-15122500D01*
X12859290Y-15136958D01*
X12857166Y-15151276D01*
X12853649Y-15165317D01*
X12848772Y-15178946D01*
X12842583Y-15192031D01*
X12835142Y-15204447D01*
X12826519Y-15216073D01*
X12816798Y-15226798D01*
X12806073Y-15236519D01*
X12794447Y-15245142D01*
X12782031Y-15252583D01*
X12768946Y-15258772D01*
X12755317Y-15263649D01*
X12741276Y-15267166D01*
X12726958Y-15269290D01*
X12712500Y-15270000D01*
X12417500Y-15270000D01*
X12403042Y-15269290D01*
X12388724Y-15267166D01*
X12374683Y-15263649D01*
X12361054Y-15258772D01*
X12347969Y-15252583D01*
X12335553Y-15245142D01*
X12323927Y-15236519D01*
X12313202Y-15226798D01*
X12303481Y-15216073D01*
X12294858Y-15204447D01*
X12287417Y-15192031D01*
X12281228Y-15178946D01*
X12276351Y-15165317D01*
X12272834Y-15151276D01*
X12270710Y-15136958D01*
X12270000Y-15122500D01*
X12270000Y-14777500D01*
X12270710Y-14763042D01*
X12272834Y-14748724D01*
X12276351Y-14734683D01*
X12281228Y-14721054D01*
X12287417Y-14707969D01*
X12294858Y-14695553D01*
X12303481Y-14683927D01*
X12313202Y-14673202D01*
X12323927Y-14663481D01*
X12335553Y-14654858D01*
X12347969Y-14647417D01*
X12361054Y-14641228D01*
X12374683Y-14636351D01*
X12388724Y-14632834D01*
X12403042Y-14630710D01*
X12417500Y-14630000D01*
X12712500Y-14630000D01*
X12726958Y-14630710D01*
G37*
G04 #@! TD.AperFunction*
G04 #@! TA.AperFunction,SMDPad,CuDef*
G36*
X11836958Y-8940710D02*
G01*
X11851276Y-8942834D01*
X11865317Y-8946351D01*
X11878946Y-8951228D01*
X11892031Y-8957417D01*
X11904447Y-8964858D01*
X11916073Y-8973481D01*
X11926798Y-8983202D01*
X11936519Y-8993927D01*
X11945142Y-9005553D01*
X11952583Y-9017969D01*
X11958772Y-9031054D01*
X11963649Y-9044683D01*
X11967166Y-9058724D01*
X11969290Y-9073042D01*
X11970000Y-9087500D01*
X11970000Y-9382500D01*
X11969290Y-9396958D01*
X11967166Y-9411276D01*
X11963649Y-9425317D01*
X11958772Y-9438946D01*
X11952583Y-9452031D01*
X11945142Y-9464447D01*
X11936519Y-9476073D01*
X11926798Y-9486798D01*
X11916073Y-9496519D01*
X11904447Y-9505142D01*
X11892031Y-9512583D01*
X11878946Y-9518772D01*
X11865317Y-9523649D01*
X11851276Y-9527166D01*
X11836958Y-9529290D01*
X11822500Y-9530000D01*
X11477500Y-9530000D01*
X11463042Y-9529290D01*
X11448724Y-9527166D01*
X11434683Y-9523649D01*
X11421054Y-9518772D01*
X11407969Y-9512583D01*
X11395553Y-9505142D01*
X11383927Y-9496519D01*
X11373202Y-9486798D01*
X11363481Y-9476073D01*
X11354858Y-9464447D01*
X11347417Y-9452031D01*
X11341228Y-9438946D01*
X11336351Y-9425317D01*
X11332834Y-9411276D01*
X11330710Y-9396958D01*
X11330000Y-9382500D01*
X11330000Y-9087500D01*
X11330710Y-9073042D01*
X11332834Y-9058724D01*
X11336351Y-9044683D01*
X11341228Y-9031054D01*
X11347417Y-9017969D01*
X11354858Y-9005553D01*
X11363481Y-8993927D01*
X11373202Y-8983202D01*
X11383927Y-8973481D01*
X11395553Y-8964858D01*
X11407969Y-8957417D01*
X11421054Y-8951228D01*
X11434683Y-8946351D01*
X11448724Y-8942834D01*
X11463042Y-8940710D01*
X11477500Y-8940000D01*
X11822500Y-8940000D01*
X11836958Y-8940710D01*
G37*
G04 #@! TD.AperFunction*
G04 #@! TA.AperFunction,SMDPad,CuDef*
G36*
X11836958Y-7970710D02*
G01*
X11851276Y-7972834D01*
X11865317Y-7976351D01*
X11878946Y-7981228D01*
X11892031Y-7987417D01*
X11904447Y-7994858D01*
X11916073Y-8003481D01*
X11926798Y-8013202D01*
X11936519Y-8023927D01*
X11945142Y-8035553D01*
X11952583Y-8047969D01*
X11958772Y-8061054D01*
X11963649Y-8074683D01*
X11967166Y-8088724D01*
X11969290Y-8103042D01*
X11970000Y-8117500D01*
X11970000Y-8412500D01*
X11969290Y-8426958D01*
X11967166Y-8441276D01*
X11963649Y-8455317D01*
X11958772Y-8468946D01*
X11952583Y-8482031D01*
X11945142Y-8494447D01*
X11936519Y-8506073D01*
X11926798Y-8516798D01*
X11916073Y-8526519D01*
X11904447Y-8535142D01*
X11892031Y-8542583D01*
X11878946Y-8548772D01*
X11865317Y-8553649D01*
X11851276Y-8557166D01*
X11836958Y-8559290D01*
X11822500Y-8560000D01*
X11477500Y-8560000D01*
X11463042Y-8559290D01*
X11448724Y-8557166D01*
X11434683Y-8553649D01*
X11421054Y-8548772D01*
X11407969Y-8542583D01*
X11395553Y-8535142D01*
X11383927Y-8526519D01*
X11373202Y-8516798D01*
X11363481Y-8506073D01*
X11354858Y-8494447D01*
X11347417Y-8482031D01*
X11341228Y-8468946D01*
X11336351Y-8455317D01*
X11332834Y-8441276D01*
X11330710Y-8426958D01*
X11330000Y-8412500D01*
X11330000Y-8117500D01*
X11330710Y-8103042D01*
X11332834Y-8088724D01*
X11336351Y-8074683D01*
X11341228Y-8061054D01*
X11347417Y-8047969D01*
X11354858Y-8035553D01*
X11363481Y-8023927D01*
X11373202Y-8013202D01*
X11383927Y-8003481D01*
X11395553Y-7994858D01*
X11407969Y-7987417D01*
X11421054Y-7981228D01*
X11434683Y-7976351D01*
X11448724Y-7972834D01*
X11463042Y-7970710D01*
X11477500Y-7970000D01*
X11822500Y-7970000D01*
X11836958Y-7970710D01*
G37*
G04 #@! TD.AperFunction*
G04 #@! TA.AperFunction,SMDPad,CuDef*
G36*
X14286958Y-17840710D02*
G01*
X14301276Y-17842834D01*
X14315317Y-17846351D01*
X14328946Y-17851228D01*
X14342031Y-17857417D01*
X14354447Y-17864858D01*
X14366073Y-17873481D01*
X14376798Y-17883202D01*
X14386519Y-17893927D01*
X14395142Y-17905553D01*
X14402583Y-17917969D01*
X14408772Y-17931054D01*
X14413649Y-17944683D01*
X14417166Y-17958724D01*
X14419290Y-17973042D01*
X14420000Y-17987500D01*
X14420000Y-18282500D01*
X14419290Y-18296958D01*
X14417166Y-18311276D01*
X14413649Y-18325317D01*
X14408772Y-18338946D01*
X14402583Y-18352031D01*
X14395142Y-18364447D01*
X14386519Y-18376073D01*
X14376798Y-18386798D01*
X14366073Y-18396519D01*
X14354447Y-18405142D01*
X14342031Y-18412583D01*
X14328946Y-18418772D01*
X14315317Y-18423649D01*
X14301276Y-18427166D01*
X14286958Y-18429290D01*
X14272500Y-18430000D01*
X13927500Y-18430000D01*
X13913042Y-18429290D01*
X13898724Y-18427166D01*
X13884683Y-18423649D01*
X13871054Y-18418772D01*
X13857969Y-18412583D01*
X13845553Y-18405142D01*
X13833927Y-18396519D01*
X13823202Y-18386798D01*
X13813481Y-18376073D01*
X13804858Y-18364447D01*
X13797417Y-18352031D01*
X13791228Y-18338946D01*
X13786351Y-18325317D01*
X13782834Y-18311276D01*
X13780710Y-18296958D01*
X13780000Y-18282500D01*
X13780000Y-17987500D01*
X13780710Y-17973042D01*
X13782834Y-17958724D01*
X13786351Y-17944683D01*
X13791228Y-17931054D01*
X13797417Y-17917969D01*
X13804858Y-17905553D01*
X13813481Y-17893927D01*
X13823202Y-17883202D01*
X13833927Y-17873481D01*
X13845553Y-17864858D01*
X13857969Y-17857417D01*
X13871054Y-17851228D01*
X13884683Y-17846351D01*
X13898724Y-17842834D01*
X13913042Y-17840710D01*
X13927500Y-17840000D01*
X14272500Y-17840000D01*
X14286958Y-17840710D01*
G37*
G04 #@! TD.AperFunction*
G04 #@! TA.AperFunction,SMDPad,CuDef*
G36*
X14286958Y-16870710D02*
G01*
X14301276Y-16872834D01*
X14315317Y-16876351D01*
X14328946Y-16881228D01*
X14342031Y-16887417D01*
X14354447Y-16894858D01*
X14366073Y-16903481D01*
X14376798Y-16913202D01*
X14386519Y-16923927D01*
X14395142Y-16935553D01*
X14402583Y-16947969D01*
X14408772Y-16961054D01*
X14413649Y-16974683D01*
X14417166Y-16988724D01*
X14419290Y-17003042D01*
X14420000Y-17017500D01*
X14420000Y-17312500D01*
X14419290Y-17326958D01*
X14417166Y-17341276D01*
X14413649Y-17355317D01*
X14408772Y-17368946D01*
X14402583Y-17382031D01*
X14395142Y-17394447D01*
X14386519Y-17406073D01*
X14376798Y-17416798D01*
X14366073Y-17426519D01*
X14354447Y-17435142D01*
X14342031Y-17442583D01*
X14328946Y-17448772D01*
X14315317Y-17453649D01*
X14301276Y-17457166D01*
X14286958Y-17459290D01*
X14272500Y-17460000D01*
X13927500Y-17460000D01*
X13913042Y-17459290D01*
X13898724Y-17457166D01*
X13884683Y-17453649D01*
X13871054Y-17448772D01*
X13857969Y-17442583D01*
X13845553Y-17435142D01*
X13833927Y-17426519D01*
X13823202Y-17416798D01*
X13813481Y-17406073D01*
X13804858Y-17394447D01*
X13797417Y-17382031D01*
X13791228Y-17368946D01*
X13786351Y-17355317D01*
X13782834Y-17341276D01*
X13780710Y-17326958D01*
X13780000Y-17312500D01*
X13780000Y-17017500D01*
X13780710Y-17003042D01*
X13782834Y-16988724D01*
X13786351Y-16974683D01*
X13791228Y-16961054D01*
X13797417Y-16947969D01*
X13804858Y-16935553D01*
X13813481Y-16923927D01*
X13823202Y-16913202D01*
X13833927Y-16903481D01*
X13845553Y-16894858D01*
X13857969Y-16887417D01*
X13871054Y-16881228D01*
X13884683Y-16876351D01*
X13898724Y-16872834D01*
X13913042Y-16870710D01*
X13927500Y-16870000D01*
X14272500Y-16870000D01*
X14286958Y-16870710D01*
G37*
G04 #@! TD.AperFunction*
G04 #@! TA.AperFunction,SMDPad,CuDef*
G36*
X14336958Y-8070710D02*
G01*
X14351276Y-8072834D01*
X14365317Y-8076351D01*
X14378946Y-8081228D01*
X14392031Y-8087417D01*
X14404447Y-8094858D01*
X14416073Y-8103481D01*
X14426798Y-8113202D01*
X14436519Y-8123927D01*
X14445142Y-8135553D01*
X14452583Y-8147969D01*
X14458772Y-8161054D01*
X14463649Y-8174683D01*
X14467166Y-8188724D01*
X14469290Y-8203042D01*
X14470000Y-8217500D01*
X14470000Y-8512500D01*
X14469290Y-8526958D01*
X14467166Y-8541276D01*
X14463649Y-8555317D01*
X14458772Y-8568946D01*
X14452583Y-8582031D01*
X14445142Y-8594447D01*
X14436519Y-8606073D01*
X14426798Y-8616798D01*
X14416073Y-8626519D01*
X14404447Y-8635142D01*
X14392031Y-8642583D01*
X14378946Y-8648772D01*
X14365317Y-8653649D01*
X14351276Y-8657166D01*
X14336958Y-8659290D01*
X14322500Y-8660000D01*
X13977500Y-8660000D01*
X13963042Y-8659290D01*
X13948724Y-8657166D01*
X13934683Y-8653649D01*
X13921054Y-8648772D01*
X13907969Y-8642583D01*
X13895553Y-8635142D01*
X13883927Y-8626519D01*
X13873202Y-8616798D01*
X13863481Y-8606073D01*
X13854858Y-8594447D01*
X13847417Y-8582031D01*
X13841228Y-8568946D01*
X13836351Y-8555317D01*
X13832834Y-8541276D01*
X13830710Y-8526958D01*
X13830000Y-8512500D01*
X13830000Y-8217500D01*
X13830710Y-8203042D01*
X13832834Y-8188724D01*
X13836351Y-8174683D01*
X13841228Y-8161054D01*
X13847417Y-8147969D01*
X13854858Y-8135553D01*
X13863481Y-8123927D01*
X13873202Y-8113202D01*
X13883927Y-8103481D01*
X13895553Y-8094858D01*
X13907969Y-8087417D01*
X13921054Y-8081228D01*
X13934683Y-8076351D01*
X13948724Y-8072834D01*
X13963042Y-8070710D01*
X13977500Y-8070000D01*
X14322500Y-8070000D01*
X14336958Y-8070710D01*
G37*
G04 #@! TD.AperFunction*
G04 #@! TA.AperFunction,SMDPad,CuDef*
G36*
X14336958Y-9040710D02*
G01*
X14351276Y-9042834D01*
X14365317Y-9046351D01*
X14378946Y-9051228D01*
X14392031Y-9057417D01*
X14404447Y-9064858D01*
X14416073Y-9073481D01*
X14426798Y-9083202D01*
X14436519Y-9093927D01*
X14445142Y-9105553D01*
X14452583Y-9117969D01*
X14458772Y-9131054D01*
X14463649Y-9144683D01*
X14467166Y-9158724D01*
X14469290Y-9173042D01*
X14470000Y-9187500D01*
X14470000Y-9482500D01*
X14469290Y-9496958D01*
X14467166Y-9511276D01*
X14463649Y-9525317D01*
X14458772Y-9538946D01*
X14452583Y-9552031D01*
X14445142Y-9564447D01*
X14436519Y-9576073D01*
X14426798Y-9586798D01*
X14416073Y-9596519D01*
X14404447Y-9605142D01*
X14392031Y-9612583D01*
X14378946Y-9618772D01*
X14365317Y-9623649D01*
X14351276Y-9627166D01*
X14336958Y-9629290D01*
X14322500Y-9630000D01*
X13977500Y-9630000D01*
X13963042Y-9629290D01*
X13948724Y-9627166D01*
X13934683Y-9623649D01*
X13921054Y-9618772D01*
X13907969Y-9612583D01*
X13895553Y-9605142D01*
X13883927Y-9596519D01*
X13873202Y-9586798D01*
X13863481Y-9576073D01*
X13854858Y-9564447D01*
X13847417Y-9552031D01*
X13841228Y-9538946D01*
X13836351Y-9525317D01*
X13832834Y-9511276D01*
X13830710Y-9496958D01*
X13830000Y-9482500D01*
X13830000Y-9187500D01*
X13830710Y-9173042D01*
X13832834Y-9158724D01*
X13836351Y-9144683D01*
X13841228Y-9131054D01*
X13847417Y-9117969D01*
X13854858Y-9105553D01*
X13863481Y-9093927D01*
X13873202Y-9083202D01*
X13883927Y-9073481D01*
X13895553Y-9064858D01*
X13907969Y-9057417D01*
X13921054Y-9051228D01*
X13934683Y-9046351D01*
X13948724Y-9042834D01*
X13963042Y-9040710D01*
X13977500Y-9040000D01*
X14322500Y-9040000D01*
X14336958Y-9040710D01*
G37*
G04 #@! TD.AperFunction*
G04 #@! TA.AperFunction,SMDPad,CuDef*
G36*
X16336958Y-10390710D02*
G01*
X16351276Y-10392834D01*
X16365317Y-10396351D01*
X16378946Y-10401228D01*
X16392031Y-10407417D01*
X16404447Y-10414858D01*
X16416073Y-10423481D01*
X16426798Y-10433202D01*
X16436519Y-10443927D01*
X16445142Y-10455553D01*
X16452583Y-10467969D01*
X16458772Y-10481054D01*
X16463649Y-10494683D01*
X16467166Y-10508724D01*
X16469290Y-10523042D01*
X16470000Y-10537500D01*
X16470000Y-10832500D01*
X16469290Y-10846958D01*
X16467166Y-10861276D01*
X16463649Y-10875317D01*
X16458772Y-10888946D01*
X16452583Y-10902031D01*
X16445142Y-10914447D01*
X16436519Y-10926073D01*
X16426798Y-10936798D01*
X16416073Y-10946519D01*
X16404447Y-10955142D01*
X16392031Y-10962583D01*
X16378946Y-10968772D01*
X16365317Y-10973649D01*
X16351276Y-10977166D01*
X16336958Y-10979290D01*
X16322500Y-10980000D01*
X15977500Y-10980000D01*
X15963042Y-10979290D01*
X15948724Y-10977166D01*
X15934683Y-10973649D01*
X15921054Y-10968772D01*
X15907969Y-10962583D01*
X15895553Y-10955142D01*
X15883927Y-10946519D01*
X15873202Y-10936798D01*
X15863481Y-10926073D01*
X15854858Y-10914447D01*
X15847417Y-10902031D01*
X15841228Y-10888946D01*
X15836351Y-10875317D01*
X15832834Y-10861276D01*
X15830710Y-10846958D01*
X15830000Y-10832500D01*
X15830000Y-10537500D01*
X15830710Y-10523042D01*
X15832834Y-10508724D01*
X15836351Y-10494683D01*
X15841228Y-10481054D01*
X15847417Y-10467969D01*
X15854858Y-10455553D01*
X15863481Y-10443927D01*
X15873202Y-10433202D01*
X15883927Y-10423481D01*
X15895553Y-10414858D01*
X15907969Y-10407417D01*
X15921054Y-10401228D01*
X15934683Y-10396351D01*
X15948724Y-10392834D01*
X15963042Y-10390710D01*
X15977500Y-10390000D01*
X16322500Y-10390000D01*
X16336958Y-10390710D01*
G37*
G04 #@! TD.AperFunction*
G04 #@! TA.AperFunction,SMDPad,CuDef*
G36*
X16336958Y-9420710D02*
G01*
X16351276Y-9422834D01*
X16365317Y-9426351D01*
X16378946Y-9431228D01*
X16392031Y-9437417D01*
X16404447Y-9444858D01*
X16416073Y-9453481D01*
X16426798Y-9463202D01*
X16436519Y-9473927D01*
X16445142Y-9485553D01*
X16452583Y-9497969D01*
X16458772Y-9511054D01*
X16463649Y-9524683D01*
X16467166Y-9538724D01*
X16469290Y-9553042D01*
X16470000Y-9567500D01*
X16470000Y-9862500D01*
X16469290Y-9876958D01*
X16467166Y-9891276D01*
X16463649Y-9905317D01*
X16458772Y-9918946D01*
X16452583Y-9932031D01*
X16445142Y-9944447D01*
X16436519Y-9956073D01*
X16426798Y-9966798D01*
X16416073Y-9976519D01*
X16404447Y-9985142D01*
X16392031Y-9992583D01*
X16378946Y-9998772D01*
X16365317Y-10003649D01*
X16351276Y-10007166D01*
X16336958Y-10009290D01*
X16322500Y-10010000D01*
X15977500Y-10010000D01*
X15963042Y-10009290D01*
X15948724Y-10007166D01*
X15934683Y-10003649D01*
X15921054Y-9998772D01*
X15907969Y-9992583D01*
X15895553Y-9985142D01*
X15883927Y-9976519D01*
X15873202Y-9966798D01*
X15863481Y-9956073D01*
X15854858Y-9944447D01*
X15847417Y-9932031D01*
X15841228Y-9918946D01*
X15836351Y-9905317D01*
X15832834Y-9891276D01*
X15830710Y-9876958D01*
X15830000Y-9862500D01*
X15830000Y-9567500D01*
X15830710Y-9553042D01*
X15832834Y-9538724D01*
X15836351Y-9524683D01*
X15841228Y-9511054D01*
X15847417Y-9497969D01*
X15854858Y-9485553D01*
X15863481Y-9473927D01*
X15873202Y-9463202D01*
X15883927Y-9453481D01*
X15895553Y-9444858D01*
X15907969Y-9437417D01*
X15921054Y-9431228D01*
X15934683Y-9426351D01*
X15948724Y-9422834D01*
X15963042Y-9420710D01*
X15977500Y-9420000D01*
X16322500Y-9420000D01*
X16336958Y-9420710D01*
G37*
G04 #@! TD.AperFunction*
G04 #@! TA.AperFunction,SMDPad,CuDef*
G36*
X16336958Y-8840710D02*
G01*
X16351276Y-8842834D01*
X16365317Y-8846351D01*
X16378946Y-8851228D01*
X16392031Y-8857417D01*
X16404447Y-8864858D01*
X16416073Y-8873481D01*
X16426798Y-8883202D01*
X16436519Y-8893927D01*
X16445142Y-8905553D01*
X16452583Y-8917969D01*
X16458772Y-8931054D01*
X16463649Y-8944683D01*
X16467166Y-8958724D01*
X16469290Y-8973042D01*
X16470000Y-8987500D01*
X16470000Y-9282500D01*
X16469290Y-9296958D01*
X16467166Y-9311276D01*
X16463649Y-9325317D01*
X16458772Y-9338946D01*
X16452583Y-9352031D01*
X16445142Y-9364447D01*
X16436519Y-9376073D01*
X16426798Y-9386798D01*
X16416073Y-9396519D01*
X16404447Y-9405142D01*
X16392031Y-9412583D01*
X16378946Y-9418772D01*
X16365317Y-9423649D01*
X16351276Y-9427166D01*
X16336958Y-9429290D01*
X16322500Y-9430000D01*
X15977500Y-9430000D01*
X15963042Y-9429290D01*
X15948724Y-9427166D01*
X15934683Y-9423649D01*
X15921054Y-9418772D01*
X15907969Y-9412583D01*
X15895553Y-9405142D01*
X15883927Y-9396519D01*
X15873202Y-9386798D01*
X15863481Y-9376073D01*
X15854858Y-9364447D01*
X15847417Y-9352031D01*
X15841228Y-9338946D01*
X15836351Y-9325317D01*
X15832834Y-9311276D01*
X15830710Y-9296958D01*
X15830000Y-9282500D01*
X15830000Y-8987500D01*
X15830710Y-8973042D01*
X15832834Y-8958724D01*
X15836351Y-8944683D01*
X15841228Y-8931054D01*
X15847417Y-8917969D01*
X15854858Y-8905553D01*
X15863481Y-8893927D01*
X15873202Y-8883202D01*
X15883927Y-8873481D01*
X15895553Y-8864858D01*
X15907969Y-8857417D01*
X15921054Y-8851228D01*
X15934683Y-8846351D01*
X15948724Y-8842834D01*
X15963042Y-8840710D01*
X15977500Y-8840000D01*
X16322500Y-8840000D01*
X16336958Y-8840710D01*
G37*
G04 #@! TD.AperFunction*
G04 #@! TA.AperFunction,SMDPad,CuDef*
G36*
X16336958Y-7870710D02*
G01*
X16351276Y-7872834D01*
X16365317Y-7876351D01*
X16378946Y-7881228D01*
X16392031Y-7887417D01*
X16404447Y-7894858D01*
X16416073Y-7903481D01*
X16426798Y-7913202D01*
X16436519Y-7923927D01*
X16445142Y-7935553D01*
X16452583Y-7947969D01*
X16458772Y-7961054D01*
X16463649Y-7974683D01*
X16467166Y-7988724D01*
X16469290Y-8003042D01*
X16470000Y-8017500D01*
X16470000Y-8312500D01*
X16469290Y-8326958D01*
X16467166Y-8341276D01*
X16463649Y-8355317D01*
X16458772Y-8368946D01*
X16452583Y-8382031D01*
X16445142Y-8394447D01*
X16436519Y-8406073D01*
X16426798Y-8416798D01*
X16416073Y-8426519D01*
X16404447Y-8435142D01*
X16392031Y-8442583D01*
X16378946Y-8448772D01*
X16365317Y-8453649D01*
X16351276Y-8457166D01*
X16336958Y-8459290D01*
X16322500Y-8460000D01*
X15977500Y-8460000D01*
X15963042Y-8459290D01*
X15948724Y-8457166D01*
X15934683Y-8453649D01*
X15921054Y-8448772D01*
X15907969Y-8442583D01*
X15895553Y-8435142D01*
X15883927Y-8426519D01*
X15873202Y-8416798D01*
X15863481Y-8406073D01*
X15854858Y-8394447D01*
X15847417Y-8382031D01*
X15841228Y-8368946D01*
X15836351Y-8355317D01*
X15832834Y-8341276D01*
X15830710Y-8326958D01*
X15830000Y-8312500D01*
X15830000Y-8017500D01*
X15830710Y-8003042D01*
X15832834Y-7988724D01*
X15836351Y-7974683D01*
X15841228Y-7961054D01*
X15847417Y-7947969D01*
X15854858Y-7935553D01*
X15863481Y-7923927D01*
X15873202Y-7913202D01*
X15883927Y-7903481D01*
X15895553Y-7894858D01*
X15907969Y-7887417D01*
X15921054Y-7881228D01*
X15934683Y-7876351D01*
X15948724Y-7872834D01*
X15963042Y-7870710D01*
X15977500Y-7870000D01*
X16322500Y-7870000D01*
X16336958Y-7870710D01*
G37*
G04 #@! TD.AperFunction*
G04 #@! TA.AperFunction,SMDPad,CuDef*
G36*
X5426958Y-9430710D02*
G01*
X5441276Y-9432834D01*
X5455317Y-9436351D01*
X5468946Y-9441228D01*
X5482031Y-9447417D01*
X5494447Y-9454858D01*
X5506073Y-9463481D01*
X5516798Y-9473202D01*
X5526519Y-9483927D01*
X5535142Y-9495553D01*
X5542583Y-9507969D01*
X5548772Y-9521054D01*
X5553649Y-9534683D01*
X5557166Y-9548724D01*
X5559290Y-9563042D01*
X5560000Y-9577500D01*
X5560000Y-9922500D01*
X5559290Y-9936958D01*
X5557166Y-9951276D01*
X5553649Y-9965317D01*
X5548772Y-9978946D01*
X5542583Y-9992031D01*
X5535142Y-10004447D01*
X5526519Y-10016073D01*
X5516798Y-10026798D01*
X5506073Y-10036519D01*
X5494447Y-10045142D01*
X5482031Y-10052583D01*
X5468946Y-10058772D01*
X5455317Y-10063649D01*
X5441276Y-10067166D01*
X5426958Y-10069290D01*
X5412500Y-10070000D01*
X5117500Y-10070000D01*
X5103042Y-10069290D01*
X5088724Y-10067166D01*
X5074683Y-10063649D01*
X5061054Y-10058772D01*
X5047969Y-10052583D01*
X5035553Y-10045142D01*
X5023927Y-10036519D01*
X5013202Y-10026798D01*
X5003481Y-10016073D01*
X4994858Y-10004447D01*
X4987417Y-9992031D01*
X4981228Y-9978946D01*
X4976351Y-9965317D01*
X4972834Y-9951276D01*
X4970710Y-9936958D01*
X4970000Y-9922500D01*
X4970000Y-9577500D01*
X4970710Y-9563042D01*
X4972834Y-9548724D01*
X4976351Y-9534683D01*
X4981228Y-9521054D01*
X4987417Y-9507969D01*
X4994858Y-9495553D01*
X5003481Y-9483927D01*
X5013202Y-9473202D01*
X5023927Y-9463481D01*
X5035553Y-9454858D01*
X5047969Y-9447417D01*
X5061054Y-9441228D01*
X5074683Y-9436351D01*
X5088724Y-9432834D01*
X5103042Y-9430710D01*
X5117500Y-9430000D01*
X5412500Y-9430000D01*
X5426958Y-9430710D01*
G37*
G04 #@! TD.AperFunction*
G04 #@! TA.AperFunction,SMDPad,CuDef*
G36*
X6396958Y-9430710D02*
G01*
X6411276Y-9432834D01*
X6425317Y-9436351D01*
X6438946Y-9441228D01*
X6452031Y-9447417D01*
X6464447Y-9454858D01*
X6476073Y-9463481D01*
X6486798Y-9473202D01*
X6496519Y-9483927D01*
X6505142Y-9495553D01*
X6512583Y-9507969D01*
X6518772Y-9521054D01*
X6523649Y-9534683D01*
X6527166Y-9548724D01*
X6529290Y-9563042D01*
X6530000Y-9577500D01*
X6530000Y-9922500D01*
X6529290Y-9936958D01*
X6527166Y-9951276D01*
X6523649Y-9965317D01*
X6518772Y-9978946D01*
X6512583Y-9992031D01*
X6505142Y-10004447D01*
X6496519Y-10016073D01*
X6486798Y-10026798D01*
X6476073Y-10036519D01*
X6464447Y-10045142D01*
X6452031Y-10052583D01*
X6438946Y-10058772D01*
X6425317Y-10063649D01*
X6411276Y-10067166D01*
X6396958Y-10069290D01*
X6382500Y-10070000D01*
X6087500Y-10070000D01*
X6073042Y-10069290D01*
X6058724Y-10067166D01*
X6044683Y-10063649D01*
X6031054Y-10058772D01*
X6017969Y-10052583D01*
X6005553Y-10045142D01*
X5993927Y-10036519D01*
X5983202Y-10026798D01*
X5973481Y-10016073D01*
X5964858Y-10004447D01*
X5957417Y-9992031D01*
X5951228Y-9978946D01*
X5946351Y-9965317D01*
X5942834Y-9951276D01*
X5940710Y-9936958D01*
X5940000Y-9922500D01*
X5940000Y-9577500D01*
X5940710Y-9563042D01*
X5942834Y-9548724D01*
X5946351Y-9534683D01*
X5951228Y-9521054D01*
X5957417Y-9507969D01*
X5964858Y-9495553D01*
X5973481Y-9483927D01*
X5983202Y-9473202D01*
X5993927Y-9463481D01*
X6005553Y-9454858D01*
X6017969Y-9447417D01*
X6031054Y-9441228D01*
X6044683Y-9436351D01*
X6058724Y-9432834D01*
X6073042Y-9430710D01*
X6087500Y-9430000D01*
X6382500Y-9430000D01*
X6396958Y-9430710D01*
G37*
G04 #@! TD.AperFunction*
G04 #@! TA.AperFunction,SMDPad,CuDef*
G36*
X14286958Y-11441590D02*
G01*
X14301276Y-11443714D01*
X14315317Y-11447231D01*
X14328946Y-11452108D01*
X14342031Y-11458297D01*
X14354447Y-11465738D01*
X14366073Y-11474361D01*
X14376798Y-11484082D01*
X14386519Y-11494807D01*
X14395142Y-11506433D01*
X14402583Y-11518849D01*
X14408772Y-11531934D01*
X14413649Y-11545563D01*
X14417166Y-11559604D01*
X14419290Y-11573922D01*
X14420000Y-11588380D01*
X14420000Y-11883380D01*
X14419290Y-11897838D01*
X14417166Y-11912156D01*
X14413649Y-11926197D01*
X14408772Y-11939826D01*
X14402583Y-11952911D01*
X14395142Y-11965327D01*
X14386519Y-11976953D01*
X14376798Y-11987678D01*
X14366073Y-11997399D01*
X14354447Y-12006022D01*
X14342031Y-12013463D01*
X14328946Y-12019652D01*
X14315317Y-12024529D01*
X14301276Y-12028046D01*
X14286958Y-12030170D01*
X14272500Y-12030880D01*
X13927500Y-12030880D01*
X13913042Y-12030170D01*
X13898724Y-12028046D01*
X13884683Y-12024529D01*
X13871054Y-12019652D01*
X13857969Y-12013463D01*
X13845553Y-12006022D01*
X13833927Y-11997399D01*
X13823202Y-11987678D01*
X13813481Y-11976953D01*
X13804858Y-11965327D01*
X13797417Y-11952911D01*
X13791228Y-11939826D01*
X13786351Y-11926197D01*
X13782834Y-11912156D01*
X13780710Y-11897838D01*
X13780000Y-11883380D01*
X13780000Y-11588380D01*
X13780710Y-11573922D01*
X13782834Y-11559604D01*
X13786351Y-11545563D01*
X13791228Y-11531934D01*
X13797417Y-11518849D01*
X13804858Y-11506433D01*
X13813481Y-11494807D01*
X13823202Y-11484082D01*
X13833927Y-11474361D01*
X13845553Y-11465738D01*
X13857969Y-11458297D01*
X13871054Y-11452108D01*
X13884683Y-11447231D01*
X13898724Y-11443714D01*
X13913042Y-11441590D01*
X13927500Y-11440880D01*
X14272500Y-11440880D01*
X14286958Y-11441590D01*
G37*
G04 #@! TD.AperFunction*
G04 #@! TA.AperFunction,SMDPad,CuDef*
G36*
X14286958Y-12411590D02*
G01*
X14301276Y-12413714D01*
X14315317Y-12417231D01*
X14328946Y-12422108D01*
X14342031Y-12428297D01*
X14354447Y-12435738D01*
X14366073Y-12444361D01*
X14376798Y-12454082D01*
X14386519Y-12464807D01*
X14395142Y-12476433D01*
X14402583Y-12488849D01*
X14408772Y-12501934D01*
X14413649Y-12515563D01*
X14417166Y-12529604D01*
X14419290Y-12543922D01*
X14420000Y-12558380D01*
X14420000Y-12853380D01*
X14419290Y-12867838D01*
X14417166Y-12882156D01*
X14413649Y-12896197D01*
X14408772Y-12909826D01*
X14402583Y-12922911D01*
X14395142Y-12935327D01*
X14386519Y-12946953D01*
X14376798Y-12957678D01*
X14366073Y-12967399D01*
X14354447Y-12976022D01*
X14342031Y-12983463D01*
X14328946Y-12989652D01*
X14315317Y-12994529D01*
X14301276Y-12998046D01*
X14286958Y-13000170D01*
X14272500Y-13000880D01*
X13927500Y-13000880D01*
X13913042Y-13000170D01*
X13898724Y-12998046D01*
X13884683Y-12994529D01*
X13871054Y-12989652D01*
X13857969Y-12983463D01*
X13845553Y-12976022D01*
X13833927Y-12967399D01*
X13823202Y-12957678D01*
X13813481Y-12946953D01*
X13804858Y-12935327D01*
X13797417Y-12922911D01*
X13791228Y-12909826D01*
X13786351Y-12896197D01*
X13782834Y-12882156D01*
X13780710Y-12867838D01*
X13780000Y-12853380D01*
X13780000Y-12558380D01*
X13780710Y-12543922D01*
X13782834Y-12529604D01*
X13786351Y-12515563D01*
X13791228Y-12501934D01*
X13797417Y-12488849D01*
X13804858Y-12476433D01*
X13813481Y-12464807D01*
X13823202Y-12454082D01*
X13833927Y-12444361D01*
X13845553Y-12435738D01*
X13857969Y-12428297D01*
X13871054Y-12422108D01*
X13884683Y-12417231D01*
X13898724Y-12413714D01*
X13913042Y-12411590D01*
X13927500Y-12410880D01*
X14272500Y-12410880D01*
X14286958Y-12411590D01*
G37*
G04 #@! TD.AperFunction*
G04 #@! TA.AperFunction,SMDPad,CuDef*
G36*
X18996958Y-10880710D02*
G01*
X19011276Y-10882834D01*
X19025317Y-10886351D01*
X19038946Y-10891228D01*
X19052031Y-10897417D01*
X19064447Y-10904858D01*
X19076073Y-10913481D01*
X19086798Y-10923202D01*
X19096519Y-10933927D01*
X19105142Y-10945553D01*
X19112583Y-10957969D01*
X19118772Y-10971054D01*
X19123649Y-10984683D01*
X19127166Y-10998724D01*
X19129290Y-11013042D01*
X19130000Y-11027500D01*
X19130000Y-11372500D01*
X19129290Y-11386958D01*
X19127166Y-11401276D01*
X19123649Y-11415317D01*
X19118772Y-11428946D01*
X19112583Y-11442031D01*
X19105142Y-11454447D01*
X19096519Y-11466073D01*
X19086798Y-11476798D01*
X19076073Y-11486519D01*
X19064447Y-11495142D01*
X19052031Y-11502583D01*
X19038946Y-11508772D01*
X19025317Y-11513649D01*
X19011276Y-11517166D01*
X18996958Y-11519290D01*
X18982500Y-11520000D01*
X18687500Y-11520000D01*
X18673042Y-11519290D01*
X18658724Y-11517166D01*
X18644683Y-11513649D01*
X18631054Y-11508772D01*
X18617969Y-11502583D01*
X18605553Y-11495142D01*
X18593927Y-11486519D01*
X18583202Y-11476798D01*
X18573481Y-11466073D01*
X18564858Y-11454447D01*
X18557417Y-11442031D01*
X18551228Y-11428946D01*
X18546351Y-11415317D01*
X18542834Y-11401276D01*
X18540710Y-11386958D01*
X18540000Y-11372500D01*
X18540000Y-11027500D01*
X18540710Y-11013042D01*
X18542834Y-10998724D01*
X18546351Y-10984683D01*
X18551228Y-10971054D01*
X18557417Y-10957969D01*
X18564858Y-10945553D01*
X18573481Y-10933927D01*
X18583202Y-10923202D01*
X18593927Y-10913481D01*
X18605553Y-10904858D01*
X18617969Y-10897417D01*
X18631054Y-10891228D01*
X18644683Y-10886351D01*
X18658724Y-10882834D01*
X18673042Y-10880710D01*
X18687500Y-10880000D01*
X18982500Y-10880000D01*
X18996958Y-10880710D01*
G37*
G04 #@! TD.AperFunction*
G04 #@! TA.AperFunction,SMDPad,CuDef*
G36*
X18026958Y-10880710D02*
G01*
X18041276Y-10882834D01*
X18055317Y-10886351D01*
X18068946Y-10891228D01*
X18082031Y-10897417D01*
X18094447Y-10904858D01*
X18106073Y-10913481D01*
X18116798Y-10923202D01*
X18126519Y-10933927D01*
X18135142Y-10945553D01*
X18142583Y-10957969D01*
X18148772Y-10971054D01*
X18153649Y-10984683D01*
X18157166Y-10998724D01*
X18159290Y-11013042D01*
X18160000Y-11027500D01*
X18160000Y-11372500D01*
X18159290Y-11386958D01*
X18157166Y-11401276D01*
X18153649Y-11415317D01*
X18148772Y-11428946D01*
X18142583Y-11442031D01*
X18135142Y-11454447D01*
X18126519Y-11466073D01*
X18116798Y-11476798D01*
X18106073Y-11486519D01*
X18094447Y-11495142D01*
X18082031Y-11502583D01*
X18068946Y-11508772D01*
X18055317Y-11513649D01*
X18041276Y-11517166D01*
X18026958Y-11519290D01*
X18012500Y-11520000D01*
X17717500Y-11520000D01*
X17703042Y-11519290D01*
X17688724Y-11517166D01*
X17674683Y-11513649D01*
X17661054Y-11508772D01*
X17647969Y-11502583D01*
X17635553Y-11495142D01*
X17623927Y-11486519D01*
X17613202Y-11476798D01*
X17603481Y-11466073D01*
X17594858Y-11454447D01*
X17587417Y-11442031D01*
X17581228Y-11428946D01*
X17576351Y-11415317D01*
X17572834Y-11401276D01*
X17570710Y-11386958D01*
X17570000Y-11372500D01*
X17570000Y-11027500D01*
X17570710Y-11013042D01*
X17572834Y-10998724D01*
X17576351Y-10984683D01*
X17581228Y-10971054D01*
X17587417Y-10957969D01*
X17594858Y-10945553D01*
X17603481Y-10933927D01*
X17613202Y-10923202D01*
X17623927Y-10913481D01*
X17635553Y-10904858D01*
X17647969Y-10897417D01*
X17661054Y-10891228D01*
X17674683Y-10886351D01*
X17688724Y-10882834D01*
X17703042Y-10880710D01*
X17717500Y-10880000D01*
X18012500Y-10880000D01*
X18026958Y-10880710D01*
G37*
G04 #@! TD.AperFunction*
G04 #@! TA.AperFunction,SMDPad,CuDef*
G36*
X10826958Y-9430710D02*
G01*
X10841276Y-9432834D01*
X10855317Y-9436351D01*
X10868946Y-9441228D01*
X10882031Y-9447417D01*
X10894447Y-9454858D01*
X10906073Y-9463481D01*
X10916798Y-9473202D01*
X10926519Y-9483927D01*
X10935142Y-9495553D01*
X10942583Y-9507969D01*
X10948772Y-9521054D01*
X10953649Y-9534683D01*
X10957166Y-9548724D01*
X10959290Y-9563042D01*
X10960000Y-9577500D01*
X10960000Y-9922500D01*
X10959290Y-9936958D01*
X10957166Y-9951276D01*
X10953649Y-9965317D01*
X10948772Y-9978946D01*
X10942583Y-9992031D01*
X10935142Y-10004447D01*
X10926519Y-10016073D01*
X10916798Y-10026798D01*
X10906073Y-10036519D01*
X10894447Y-10045142D01*
X10882031Y-10052583D01*
X10868946Y-10058772D01*
X10855317Y-10063649D01*
X10841276Y-10067166D01*
X10826958Y-10069290D01*
X10812500Y-10070000D01*
X10517500Y-10070000D01*
X10503042Y-10069290D01*
X10488724Y-10067166D01*
X10474683Y-10063649D01*
X10461054Y-10058772D01*
X10447969Y-10052583D01*
X10435553Y-10045142D01*
X10423927Y-10036519D01*
X10413202Y-10026798D01*
X10403481Y-10016073D01*
X10394858Y-10004447D01*
X10387417Y-9992031D01*
X10381228Y-9978946D01*
X10376351Y-9965317D01*
X10372834Y-9951276D01*
X10370710Y-9936958D01*
X10370000Y-9922500D01*
X10370000Y-9577500D01*
X10370710Y-9563042D01*
X10372834Y-9548724D01*
X10376351Y-9534683D01*
X10381228Y-9521054D01*
X10387417Y-9507969D01*
X10394858Y-9495553D01*
X10403481Y-9483927D01*
X10413202Y-9473202D01*
X10423927Y-9463481D01*
X10435553Y-9454858D01*
X10447969Y-9447417D01*
X10461054Y-9441228D01*
X10474683Y-9436351D01*
X10488724Y-9432834D01*
X10503042Y-9430710D01*
X10517500Y-9430000D01*
X10812500Y-9430000D01*
X10826958Y-9430710D01*
G37*
G04 #@! TD.AperFunction*
G04 #@! TA.AperFunction,SMDPad,CuDef*
G36*
X11796958Y-9430710D02*
G01*
X11811276Y-9432834D01*
X11825317Y-9436351D01*
X11838946Y-9441228D01*
X11852031Y-9447417D01*
X11864447Y-9454858D01*
X11876073Y-9463481D01*
X11886798Y-9473202D01*
X11896519Y-9483927D01*
X11905142Y-9495553D01*
X11912583Y-9507969D01*
X11918772Y-9521054D01*
X11923649Y-9534683D01*
X11927166Y-9548724D01*
X11929290Y-9563042D01*
X11930000Y-9577500D01*
X11930000Y-9922500D01*
X11929290Y-9936958D01*
X11927166Y-9951276D01*
X11923649Y-9965317D01*
X11918772Y-9978946D01*
X11912583Y-9992031D01*
X11905142Y-10004447D01*
X11896519Y-10016073D01*
X11886798Y-10026798D01*
X11876073Y-10036519D01*
X11864447Y-10045142D01*
X11852031Y-10052583D01*
X11838946Y-10058772D01*
X11825317Y-10063649D01*
X11811276Y-10067166D01*
X11796958Y-10069290D01*
X11782500Y-10070000D01*
X11487500Y-10070000D01*
X11473042Y-10069290D01*
X11458724Y-10067166D01*
X11444683Y-10063649D01*
X11431054Y-10058772D01*
X11417969Y-10052583D01*
X11405553Y-10045142D01*
X11393927Y-10036519D01*
X11383202Y-10026798D01*
X11373481Y-10016073D01*
X11364858Y-10004447D01*
X11357417Y-9992031D01*
X11351228Y-9978946D01*
X11346351Y-9965317D01*
X11342834Y-9951276D01*
X11340710Y-9936958D01*
X11340000Y-9922500D01*
X11340000Y-9577500D01*
X11340710Y-9563042D01*
X11342834Y-9548724D01*
X11346351Y-9534683D01*
X11351228Y-9521054D01*
X11357417Y-9507969D01*
X11364858Y-9495553D01*
X11373481Y-9483927D01*
X11383202Y-9473202D01*
X11393927Y-9463481D01*
X11405553Y-9454858D01*
X11417969Y-9447417D01*
X11431054Y-9441228D01*
X11444683Y-9436351D01*
X11458724Y-9432834D01*
X11473042Y-9430710D01*
X11487500Y-9430000D01*
X11782500Y-9430000D01*
X11796958Y-9430710D01*
G37*
G04 #@! TD.AperFunction*
D10*
X7850000Y-5400000D03*
D14*
X8750000Y-9750000D03*
X10150000Y-9750000D03*
D15*
X14100000Y-14650000D03*
X14100000Y-13250000D03*
D14*
X8150000Y-9750000D03*
X6750000Y-9750000D03*
D15*
X14100000Y-15250000D03*
X14100000Y-16650000D03*
D16*
X14100000Y-9750000D03*
X14100000Y-11050000D03*
D17*
X12200000Y-11050000D03*
D16*
X12200000Y-9750000D03*
D18*
X17000000Y-6950000D03*
D10*
X22450000Y-11200000D03*
D19*
X22450000Y-13125820D02*
X22450000Y-14550000D01*
D20*
X5265000Y-7265000D02*
X5265000Y-9750000D01*
X5250000Y-7250000D02*
X5265000Y-7265000D01*
X10001640Y-7250000D02*
X5250000Y-7250000D01*
X10001640Y-8116640D02*
X10150000Y-8265000D01*
X10001640Y-7250000D02*
X10001640Y-8116640D01*
X16030000Y-13250000D02*
X18250000Y-15470000D01*
X15735000Y-13250000D02*
X16030000Y-13250000D01*
D21*
X13950000Y-11200000D02*
X14649580Y-11200000D01*
X17350000Y-11200000D02*
X14803300Y-11200000D01*
D20*
X8350000Y-14950000D02*
X8350000Y-11335000D01*
X8350000Y-14950000D02*
X12565000Y-14950000D01*
D21*
X21750000Y-11200000D02*
X19350000Y-11200000D01*
D20*
X11197471Y-5750001D02*
X9820001Y-5750001D01*
X11698360Y-6250890D02*
X11197471Y-5750001D01*
X11698360Y-7250000D02*
X11698360Y-6250890D01*
X11698360Y-8216640D02*
X11650000Y-8265000D01*
X11698360Y-7250000D02*
X11698360Y-8216640D01*
D22*
G36*
X23080452Y-8312709D02*
G01*
X21700000Y-8312709D01*
X21595513Y-8323000D01*
X21350554Y-8323000D01*
X21387291Y-7950000D01*
X21387291Y-5950000D01*
X21346224Y-5533035D01*
X21224599Y-5132094D01*
X21027093Y-4762585D01*
X20761293Y-4438707D01*
X20437415Y-4172907D01*
X20067906Y-3975401D01*
X19726728Y-3871905D01*
X19563968Y-3784908D01*
X19164957Y-3663870D01*
X18750000Y-3623000D01*
X17658968Y-3623000D01*
X17567016Y-3573851D01*
X17268110Y-3483178D01*
X17200295Y-3400545D01*
X17103604Y-3321193D01*
X16993290Y-3262228D01*
X16873592Y-3225918D01*
X16749110Y-3213658D01*
X16535750Y-3216730D01*
X16377000Y-3375480D01*
X16377000Y-3411159D01*
X16123000Y-3411159D01*
X16123000Y-3375480D01*
X15964250Y-3216730D01*
X15750890Y-3213658D01*
X15626408Y-3225918D01*
X15506710Y-3262228D01*
X15396396Y-3321193D01*
X15299705Y-3400545D01*
X15231890Y-3483178D01*
X15200000Y-3492852D01*
X15168110Y-3483178D01*
X15100295Y-3400545D01*
X15003604Y-3321193D01*
X14893290Y-3262228D01*
X14773592Y-3225918D01*
X14649110Y-3213658D01*
X14435750Y-3216730D01*
X14277000Y-3375480D01*
X14277000Y-3411159D01*
X14023000Y-3411159D01*
X14023000Y-3375480D01*
X13864250Y-3216730D01*
X13650890Y-3213658D01*
X13526408Y-3225918D01*
X13406710Y-3262228D01*
X13296396Y-3321193D01*
X13199705Y-3400545D01*
X13131890Y-3483178D01*
X12832984Y-3573851D01*
X12500812Y-3751400D01*
X12111511Y-3543314D01*
X11663444Y-3407394D01*
X11314243Y-3373001D01*
X11314233Y-3373001D01*
X11197471Y-3361501D01*
X11080709Y-3373001D01*
X10533201Y-3373001D01*
X10413242Y-3336612D01*
X9967501Y-3292710D01*
X9872470Y-3292710D01*
X9787415Y-3222907D01*
X9417906Y-3025401D01*
X9016965Y-2903776D01*
X8600000Y-2862709D01*
X7100000Y-2862709D01*
X6683035Y-2903776D01*
X6282094Y-3025401D01*
X5912585Y-3222907D01*
X5588707Y-3488707D01*
X5322907Y-3812585D01*
X5125401Y-4182094D01*
X5003776Y-4583035D01*
X4962709Y-5000000D01*
X4962709Y-6500000D01*
X5003776Y-6916965D01*
X5125401Y-7317906D01*
X5206728Y-7470059D01*
X4818138Y-7677766D01*
X4471909Y-7961909D01*
X4187766Y-8308138D01*
X3976628Y-8703148D01*
X3846611Y-9131759D01*
X3802709Y-9577500D01*
X3802709Y-9922500D01*
X3846611Y-10368241D01*
X3976628Y-10796852D01*
X4187766Y-11191862D01*
X4471909Y-11538091D01*
X4818138Y-11822234D01*
X5213148Y-12033372D01*
X5641759Y-12163389D01*
X5973000Y-12196014D01*
X5973000Y-12829696D01*
X5822907Y-13012585D01*
X5625401Y-13382094D01*
X5503776Y-13783035D01*
X5462709Y-14200000D01*
X5462709Y-15700000D01*
X5503776Y-16116965D01*
X5625401Y-16517906D01*
X5822907Y-16887415D01*
X6088707Y-17211293D01*
X6412585Y-17477093D01*
X6782094Y-17674599D01*
X7183035Y-17796224D01*
X7600000Y-17837291D01*
X9100000Y-17837291D01*
X9516965Y-17796224D01*
X9917906Y-17674599D01*
X10287415Y-17477093D01*
X10470304Y-17327000D01*
X11644137Y-17327000D01*
X11686611Y-17758241D01*
X11816628Y-18186852D01*
X12027766Y-18581862D01*
X12311909Y-18928091D01*
X12658138Y-19212234D01*
X13053148Y-19423372D01*
X13481759Y-19553389D01*
X13927500Y-19597291D01*
X14272500Y-19597291D01*
X14718241Y-19553389D01*
X15146852Y-19423372D01*
X15541862Y-19212234D01*
X15888091Y-18928091D01*
X16172234Y-18581862D01*
X16383372Y-18186852D01*
X16513389Y-17758241D01*
X16557291Y-17312500D01*
X16557291Y-17254599D01*
X16587291Y-16950000D01*
X16587291Y-16350000D01*
X16547895Y-15950000D01*
X16587291Y-15550000D01*
X16587291Y-14544105D01*
X16712234Y-14391862D01*
X16880532Y-14077000D01*
X17491333Y-14077000D01*
X17913991Y-14035372D01*
X18350000Y-13903110D01*
X18786009Y-14035372D01*
X19208667Y-14077000D01*
X21595513Y-14077000D01*
X21700000Y-14087291D01*
X21778691Y-14087291D01*
X21831759Y-14103389D01*
X22277500Y-14147291D01*
X22622500Y-14147291D01*
X23068241Y-14103389D01*
X23080452Y-14099685D01*
X23080452Y-21373000D01*
X127000Y-21373000D01*
X127000Y-127000D01*
X23080452Y-127000D01*
X23080452Y-8312709D01*
G37*
X23080452Y-8312709D02*
X21700000Y-8312709D01*
X21595513Y-8323000D01*
X21350554Y-8323000D01*
X21387291Y-7950000D01*
X21387291Y-5950000D01*
X21346224Y-5533035D01*
X21224599Y-5132094D01*
X21027093Y-4762585D01*
X20761293Y-4438707D01*
X20437415Y-4172907D01*
X20067906Y-3975401D01*
X19726728Y-3871905D01*
X19563968Y-3784908D01*
X19164957Y-3663870D01*
X18750000Y-3623000D01*
X17658968Y-3623000D01*
X17567016Y-3573851D01*
X17268110Y-3483178D01*
X17200295Y-3400545D01*
X17103604Y-3321193D01*
X16993290Y-3262228D01*
X16873592Y-3225918D01*
X16749110Y-3213658D01*
X16535750Y-3216730D01*
X16377000Y-3375480D01*
X16377000Y-3411159D01*
X16123000Y-3411159D01*
X16123000Y-3375480D01*
X15964250Y-3216730D01*
X15750890Y-3213658D01*
X15626408Y-3225918D01*
X15506710Y-3262228D01*
X15396396Y-3321193D01*
X15299705Y-3400545D01*
X15231890Y-3483178D01*
X15200000Y-3492852D01*
X15168110Y-3483178D01*
X15100295Y-3400545D01*
X15003604Y-3321193D01*
X14893290Y-3262228D01*
X14773592Y-3225918D01*
X14649110Y-3213658D01*
X14435750Y-3216730D01*
X14277000Y-3375480D01*
X14277000Y-3411159D01*
X14023000Y-3411159D01*
X14023000Y-3375480D01*
X13864250Y-3216730D01*
X13650890Y-3213658D01*
X13526408Y-3225918D01*
X13406710Y-3262228D01*
X13296396Y-3321193D01*
X13199705Y-3400545D01*
X13131890Y-3483178D01*
X12832984Y-3573851D01*
X12500812Y-3751400D01*
X12111511Y-3543314D01*
X11663444Y-3407394D01*
X11314243Y-3373001D01*
X11314233Y-3373001D01*
X11197471Y-3361501D01*
X11080709Y-3373001D01*
X10533201Y-3373001D01*
X10413242Y-3336612D01*
X9967501Y-3292710D01*
X9872470Y-3292710D01*
X9787415Y-3222907D01*
X9417906Y-3025401D01*
X9016965Y-2903776D01*
X8600000Y-2862709D01*
X7100000Y-2862709D01*
X6683035Y-2903776D01*
X6282094Y-3025401D01*
X5912585Y-3222907D01*
X5588707Y-3488707D01*
X5322907Y-3812585D01*
X5125401Y-4182094D01*
X5003776Y-4583035D01*
X4962709Y-5000000D01*
X4962709Y-6500000D01*
X5003776Y-6916965D01*
X5125401Y-7317906D01*
X5206728Y-7470059D01*
X4818138Y-7677766D01*
X4471909Y-7961909D01*
X4187766Y-8308138D01*
X3976628Y-8703148D01*
X3846611Y-9131759D01*
X3802709Y-9577500D01*
X3802709Y-9922500D01*
X3846611Y-10368241D01*
X3976628Y-10796852D01*
X4187766Y-11191862D01*
X4471909Y-11538091D01*
X4818138Y-11822234D01*
X5213148Y-12033372D01*
X5641759Y-12163389D01*
X5973000Y-12196014D01*
X5973000Y-12829696D01*
X5822907Y-13012585D01*
X5625401Y-13382094D01*
X5503776Y-13783035D01*
X5462709Y-14200000D01*
X5462709Y-15700000D01*
X5503776Y-16116965D01*
X5625401Y-16517906D01*
X5822907Y-16887415D01*
X6088707Y-17211293D01*
X6412585Y-17477093D01*
X6782094Y-17674599D01*
X7183035Y-17796224D01*
X7600000Y-17837291D01*
X9100000Y-17837291D01*
X9516965Y-17796224D01*
X9917906Y-17674599D01*
X10287415Y-17477093D01*
X10470304Y-17327000D01*
X11644137Y-17327000D01*
X11686611Y-17758241D01*
X11816628Y-18186852D01*
X12027766Y-18581862D01*
X12311909Y-18928091D01*
X12658138Y-19212234D01*
X13053148Y-19423372D01*
X13481759Y-19553389D01*
X13927500Y-19597291D01*
X14272500Y-19597291D01*
X14718241Y-19553389D01*
X15146852Y-19423372D01*
X15541862Y-19212234D01*
X15888091Y-18928091D01*
X16172234Y-18581862D01*
X16383372Y-18186852D01*
X16513389Y-17758241D01*
X16557291Y-17312500D01*
X16557291Y-17254599D01*
X16587291Y-16950000D01*
X16587291Y-16350000D01*
X16547895Y-15950000D01*
X16587291Y-15550000D01*
X16587291Y-14544105D01*
X16712234Y-14391862D01*
X16880532Y-14077000D01*
X17491333Y-14077000D01*
X17913991Y-14035372D01*
X18350000Y-13903110D01*
X18786009Y-14035372D01*
X19208667Y-14077000D01*
X21595513Y-14077000D01*
X21700000Y-14087291D01*
X21778691Y-14087291D01*
X21831759Y-14103389D01*
X22277500Y-14147291D01*
X22622500Y-14147291D01*
X23068241Y-14103389D01*
X23080452Y-14099685D01*
X23080452Y-21373000D01*
X127000Y-21373000D01*
X127000Y-127000D01*
X23080452Y-127000D01*
X23080452Y-8312709D01*
G36*
X5373000Y-18623000D02*
G01*
X2627000Y-18623000D01*
X2627000Y-1877000D01*
X5373000Y-1877000D01*
X5373000Y-18623000D01*
G37*
X5373000Y-18623000D02*
X2627000Y-18623000D01*
X2627000Y-1877000D01*
X5373000Y-1877000D01*
X5373000Y-18623000D01*
G36*
X18373000Y-8123000D02*
G01*
X15877000Y-8123000D01*
X15877000Y-5877000D01*
X18373000Y-5877000D01*
X18373000Y-8123000D01*
G37*
X18373000Y-8123000D02*
X15877000Y-8123000D01*
X15877000Y-5877000D01*
X18373000Y-5877000D01*
X18373000Y-8123000D01*
G36*
X21623000Y-4623000D02*
G01*
X10377000Y-4623000D01*
X10377000Y-1127000D01*
X21623000Y-1127000D01*
X21623000Y-4623000D01*
G37*
X21623000Y-4623000D02*
X10377000Y-4623000D01*
X10377000Y-1127000D01*
X21623000Y-1127000D01*
X21623000Y-4623000D01*
G36*
X18373000Y-20373000D02*
G01*
X9377000Y-20373000D01*
X9377000Y-18127000D01*
X18373000Y-18127000D01*
X18373000Y-20373000D01*
G37*
X18373000Y-20373000D02*
X9377000Y-20373000D01*
X9377000Y-18127000D01*
X18373000Y-18127000D01*
X18373000Y-20373000D01*
G36*
X22673000Y-8273000D02*
G01*
X19627000Y-8273000D01*
X19627000Y-3027000D01*
X22673000Y-3027000D01*
X22673000Y-8273000D01*
G37*
X22673000Y-8273000D02*
X19627000Y-8273000D01*
X19627000Y-3027000D01*
X22673000Y-3027000D01*
X22673000Y-8273000D01*
M02*
