G04 #@! TF.GenerationSoftware,KiCad,Pcbnew,5.1.5+dfsg1-2~bpo9+1*
G04 #@! TF.CreationDate,2020-08-27T13:41:08-04:00*
G04 #@! TF.ProjectId,turbidimeter,74757262-6964-4696-9d65-7465722e6b69,rev?*
G04 #@! TF.SameCoordinates,PX6578b58PY2cd02b0*
G04 #@! TF.FileFunction,Copper,L1,Top*
G04 #@! TF.FilePolarity,Positive*
%FSLAX46Y46*%
G04 Gerber Fmt 4.6, Leading zero omitted, Abs format (unit mm)*
G04 Created by KiCad (PCBNEW 5.1.5+dfsg1-2~bpo9+1) date 2020-08-27 13:41:08*
%MOMM*%
%LPD*%
G04 APERTURE LIST*
%ADD10C,0.150000*%
%ADD11O,1.049020X0.299720*%
%ADD12R,1.049020X0.299720*%
%ADD13R,2.000000X0.600000*%
%ADD14R,0.797560X1.198880*%
%ADD15R,2.999740X1.249680*%
%ADD16R,1.099820X0.998220*%
%ADD17C,2.000000*%
%ADD18C,0.250000*%
%ADD19C,0.400000*%
%ADD20C,0.300000*%
%ADD21C,0.254000*%
G04 APERTURE END LIST*
G04 #@! TA.AperFunction,SMDPad,CuDef*
D10*
G36*
X11568491Y-8771653D02*
G01*
X11589726Y-8774803D01*
X11610550Y-8780019D01*
X11630762Y-8787251D01*
X11650168Y-8796430D01*
X11668581Y-8807466D01*
X11685824Y-8820254D01*
X11701730Y-8834670D01*
X11716146Y-8850576D01*
X11728934Y-8867819D01*
X11739970Y-8886232D01*
X11749149Y-8905638D01*
X11756381Y-8925850D01*
X11761597Y-8946674D01*
X11764747Y-8967909D01*
X11765800Y-8989350D01*
X11765800Y-9501850D01*
X11764747Y-9523291D01*
X11761597Y-9544526D01*
X11756381Y-9565350D01*
X11749149Y-9585562D01*
X11739970Y-9604968D01*
X11728934Y-9623381D01*
X11716146Y-9640624D01*
X11701730Y-9656530D01*
X11685824Y-9670946D01*
X11668581Y-9683734D01*
X11650168Y-9694770D01*
X11630762Y-9703949D01*
X11610550Y-9711181D01*
X11589726Y-9716397D01*
X11568491Y-9719547D01*
X11547050Y-9720600D01*
X11109550Y-9720600D01*
X11088109Y-9719547D01*
X11066874Y-9716397D01*
X11046050Y-9711181D01*
X11025838Y-9703949D01*
X11006432Y-9694770D01*
X10988019Y-9683734D01*
X10970776Y-9670946D01*
X10954870Y-9656530D01*
X10940454Y-9640624D01*
X10927666Y-9623381D01*
X10916630Y-9604968D01*
X10907451Y-9585562D01*
X10900219Y-9565350D01*
X10895003Y-9544526D01*
X10891853Y-9523291D01*
X10890800Y-9501850D01*
X10890800Y-8989350D01*
X10891853Y-8967909D01*
X10895003Y-8946674D01*
X10900219Y-8925850D01*
X10907451Y-8905638D01*
X10916630Y-8886232D01*
X10927666Y-8867819D01*
X10940454Y-8850576D01*
X10954870Y-8834670D01*
X10970776Y-8820254D01*
X10988019Y-8807466D01*
X11006432Y-8796430D01*
X11025838Y-8787251D01*
X11046050Y-8780019D01*
X11066874Y-8774803D01*
X11088109Y-8771653D01*
X11109550Y-8770600D01*
X11547050Y-8770600D01*
X11568491Y-8771653D01*
G37*
G04 #@! TD.AperFunction*
G04 #@! TA.AperFunction,SMDPad,CuDef*
G36*
X13143491Y-8771653D02*
G01*
X13164726Y-8774803D01*
X13185550Y-8780019D01*
X13205762Y-8787251D01*
X13225168Y-8796430D01*
X13243581Y-8807466D01*
X13260824Y-8820254D01*
X13276730Y-8834670D01*
X13291146Y-8850576D01*
X13303934Y-8867819D01*
X13314970Y-8886232D01*
X13324149Y-8905638D01*
X13331381Y-8925850D01*
X13336597Y-8946674D01*
X13339747Y-8967909D01*
X13340800Y-8989350D01*
X13340800Y-9501850D01*
X13339747Y-9523291D01*
X13336597Y-9544526D01*
X13331381Y-9565350D01*
X13324149Y-9585562D01*
X13314970Y-9604968D01*
X13303934Y-9623381D01*
X13291146Y-9640624D01*
X13276730Y-9656530D01*
X13260824Y-9670946D01*
X13243581Y-9683734D01*
X13225168Y-9694770D01*
X13205762Y-9703949D01*
X13185550Y-9711181D01*
X13164726Y-9716397D01*
X13143491Y-9719547D01*
X13122050Y-9720600D01*
X12684550Y-9720600D01*
X12663109Y-9719547D01*
X12641874Y-9716397D01*
X12621050Y-9711181D01*
X12600838Y-9703949D01*
X12581432Y-9694770D01*
X12563019Y-9683734D01*
X12545776Y-9670946D01*
X12529870Y-9656530D01*
X12515454Y-9640624D01*
X12502666Y-9623381D01*
X12491630Y-9604968D01*
X12482451Y-9585562D01*
X12475219Y-9565350D01*
X12470003Y-9544526D01*
X12466853Y-9523291D01*
X12465800Y-9501850D01*
X12465800Y-8989350D01*
X12466853Y-8967909D01*
X12470003Y-8946674D01*
X12475219Y-8925850D01*
X12482451Y-8905638D01*
X12491630Y-8886232D01*
X12502666Y-8867819D01*
X12515454Y-8850576D01*
X12529870Y-8834670D01*
X12545776Y-8820254D01*
X12563019Y-8807466D01*
X12581432Y-8796430D01*
X12600838Y-8787251D01*
X12621050Y-8780019D01*
X12641874Y-8774803D01*
X12663109Y-8771653D01*
X12684550Y-8770600D01*
X13122050Y-8770600D01*
X13143491Y-8771653D01*
G37*
G04 #@! TD.AperFunction*
D11*
X12959400Y-46788000D03*
X12959400Y-47435700D03*
X12959400Y-48083400D03*
X11410000Y-48083400D03*
X11410000Y-47435700D03*
D12*
X11410000Y-46788000D03*
D13*
X30059400Y-19603000D03*
X30059400Y-20873000D03*
X30059400Y-22143000D03*
X30059400Y-23413000D03*
X30059400Y-24683000D03*
X30059400Y-25953000D03*
X30059400Y-27223000D03*
X30059400Y-28493000D03*
X30059400Y-29763000D03*
X30059400Y-31033000D03*
X30059400Y-32303000D03*
X30059400Y-33573000D03*
X20659400Y-33573000D03*
X20659400Y-32303000D03*
X20659400Y-31033000D03*
X20659400Y-29763000D03*
X20659400Y-28493000D03*
X20659400Y-27223000D03*
X20659400Y-25953000D03*
X20659400Y-24683000D03*
X20659400Y-23413000D03*
X20659400Y-22143000D03*
X20659400Y-20873000D03*
X20659400Y-19603000D03*
G04 #@! TA.AperFunction,SMDPad,CuDef*
D10*
G36*
X16432091Y-16173553D02*
G01*
X16453326Y-16176703D01*
X16474150Y-16181919D01*
X16494362Y-16189151D01*
X16513768Y-16198330D01*
X16532181Y-16209366D01*
X16549424Y-16222154D01*
X16565330Y-16236570D01*
X16579746Y-16252476D01*
X16592534Y-16269719D01*
X16603570Y-16288132D01*
X16612749Y-16307538D01*
X16619981Y-16327750D01*
X16625197Y-16348574D01*
X16628347Y-16369809D01*
X16629400Y-16391250D01*
X16629400Y-16828750D01*
X16628347Y-16850191D01*
X16625197Y-16871426D01*
X16619981Y-16892250D01*
X16612749Y-16912462D01*
X16603570Y-16931868D01*
X16592534Y-16950281D01*
X16579746Y-16967524D01*
X16565330Y-16983430D01*
X16549424Y-16997846D01*
X16532181Y-17010634D01*
X16513768Y-17021670D01*
X16494362Y-17030849D01*
X16474150Y-17038081D01*
X16453326Y-17043297D01*
X16432091Y-17046447D01*
X16410650Y-17047500D01*
X15898150Y-17047500D01*
X15876709Y-17046447D01*
X15855474Y-17043297D01*
X15834650Y-17038081D01*
X15814438Y-17030849D01*
X15795032Y-17021670D01*
X15776619Y-17010634D01*
X15759376Y-16997846D01*
X15743470Y-16983430D01*
X15729054Y-16967524D01*
X15716266Y-16950281D01*
X15705230Y-16931868D01*
X15696051Y-16912462D01*
X15688819Y-16892250D01*
X15683603Y-16871426D01*
X15680453Y-16850191D01*
X15679400Y-16828750D01*
X15679400Y-16391250D01*
X15680453Y-16369809D01*
X15683603Y-16348574D01*
X15688819Y-16327750D01*
X15696051Y-16307538D01*
X15705230Y-16288132D01*
X15716266Y-16269719D01*
X15729054Y-16252476D01*
X15743470Y-16236570D01*
X15759376Y-16222154D01*
X15776619Y-16209366D01*
X15795032Y-16198330D01*
X15814438Y-16189151D01*
X15834650Y-16181919D01*
X15855474Y-16176703D01*
X15876709Y-16173553D01*
X15898150Y-16172500D01*
X16410650Y-16172500D01*
X16432091Y-16173553D01*
G37*
G04 #@! TD.AperFunction*
G04 #@! TA.AperFunction,SMDPad,CuDef*
G36*
X16432091Y-17748553D02*
G01*
X16453326Y-17751703D01*
X16474150Y-17756919D01*
X16494362Y-17764151D01*
X16513768Y-17773330D01*
X16532181Y-17784366D01*
X16549424Y-17797154D01*
X16565330Y-17811570D01*
X16579746Y-17827476D01*
X16592534Y-17844719D01*
X16603570Y-17863132D01*
X16612749Y-17882538D01*
X16619981Y-17902750D01*
X16625197Y-17923574D01*
X16628347Y-17944809D01*
X16629400Y-17966250D01*
X16629400Y-18403750D01*
X16628347Y-18425191D01*
X16625197Y-18446426D01*
X16619981Y-18467250D01*
X16612749Y-18487462D01*
X16603570Y-18506868D01*
X16592534Y-18525281D01*
X16579746Y-18542524D01*
X16565330Y-18558430D01*
X16549424Y-18572846D01*
X16532181Y-18585634D01*
X16513768Y-18596670D01*
X16494362Y-18605849D01*
X16474150Y-18613081D01*
X16453326Y-18618297D01*
X16432091Y-18621447D01*
X16410650Y-18622500D01*
X15898150Y-18622500D01*
X15876709Y-18621447D01*
X15855474Y-18618297D01*
X15834650Y-18613081D01*
X15814438Y-18605849D01*
X15795032Y-18596670D01*
X15776619Y-18585634D01*
X15759376Y-18572846D01*
X15743470Y-18558430D01*
X15729054Y-18542524D01*
X15716266Y-18525281D01*
X15705230Y-18506868D01*
X15696051Y-18487462D01*
X15688819Y-18467250D01*
X15683603Y-18446426D01*
X15680453Y-18425191D01*
X15679400Y-18403750D01*
X15679400Y-17966250D01*
X15680453Y-17944809D01*
X15683603Y-17923574D01*
X15688819Y-17902750D01*
X15696051Y-17882538D01*
X15705230Y-17863132D01*
X15716266Y-17844719D01*
X15729054Y-17827476D01*
X15743470Y-17811570D01*
X15759376Y-17797154D01*
X15776619Y-17784366D01*
X15795032Y-17773330D01*
X15814438Y-17764151D01*
X15834650Y-17756919D01*
X15855474Y-17751703D01*
X15876709Y-17748553D01*
X15898150Y-17747500D01*
X16410650Y-17747500D01*
X16432091Y-17748553D01*
G37*
G04 #@! TD.AperFunction*
G04 #@! TA.AperFunction,SMDPad,CuDef*
G36*
X16432091Y-22173553D02*
G01*
X16453326Y-22176703D01*
X16474150Y-22181919D01*
X16494362Y-22189151D01*
X16513768Y-22198330D01*
X16532181Y-22209366D01*
X16549424Y-22222154D01*
X16565330Y-22236570D01*
X16579746Y-22252476D01*
X16592534Y-22269719D01*
X16603570Y-22288132D01*
X16612749Y-22307538D01*
X16619981Y-22327750D01*
X16625197Y-22348574D01*
X16628347Y-22369809D01*
X16629400Y-22391250D01*
X16629400Y-22828750D01*
X16628347Y-22850191D01*
X16625197Y-22871426D01*
X16619981Y-22892250D01*
X16612749Y-22912462D01*
X16603570Y-22931868D01*
X16592534Y-22950281D01*
X16579746Y-22967524D01*
X16565330Y-22983430D01*
X16549424Y-22997846D01*
X16532181Y-23010634D01*
X16513768Y-23021670D01*
X16494362Y-23030849D01*
X16474150Y-23038081D01*
X16453326Y-23043297D01*
X16432091Y-23046447D01*
X16410650Y-23047500D01*
X15898150Y-23047500D01*
X15876709Y-23046447D01*
X15855474Y-23043297D01*
X15834650Y-23038081D01*
X15814438Y-23030849D01*
X15795032Y-23021670D01*
X15776619Y-23010634D01*
X15759376Y-22997846D01*
X15743470Y-22983430D01*
X15729054Y-22967524D01*
X15716266Y-22950281D01*
X15705230Y-22931868D01*
X15696051Y-22912462D01*
X15688819Y-22892250D01*
X15683603Y-22871426D01*
X15680453Y-22850191D01*
X15679400Y-22828750D01*
X15679400Y-22391250D01*
X15680453Y-22369809D01*
X15683603Y-22348574D01*
X15688819Y-22327750D01*
X15696051Y-22307538D01*
X15705230Y-22288132D01*
X15716266Y-22269719D01*
X15729054Y-22252476D01*
X15743470Y-22236570D01*
X15759376Y-22222154D01*
X15776619Y-22209366D01*
X15795032Y-22198330D01*
X15814438Y-22189151D01*
X15834650Y-22181919D01*
X15855474Y-22176703D01*
X15876709Y-22173553D01*
X15898150Y-22172500D01*
X16410650Y-22172500D01*
X16432091Y-22173553D01*
G37*
G04 #@! TD.AperFunction*
G04 #@! TA.AperFunction,SMDPad,CuDef*
G36*
X16432091Y-23748553D02*
G01*
X16453326Y-23751703D01*
X16474150Y-23756919D01*
X16494362Y-23764151D01*
X16513768Y-23773330D01*
X16532181Y-23784366D01*
X16549424Y-23797154D01*
X16565330Y-23811570D01*
X16579746Y-23827476D01*
X16592534Y-23844719D01*
X16603570Y-23863132D01*
X16612749Y-23882538D01*
X16619981Y-23902750D01*
X16625197Y-23923574D01*
X16628347Y-23944809D01*
X16629400Y-23966250D01*
X16629400Y-24403750D01*
X16628347Y-24425191D01*
X16625197Y-24446426D01*
X16619981Y-24467250D01*
X16612749Y-24487462D01*
X16603570Y-24506868D01*
X16592534Y-24525281D01*
X16579746Y-24542524D01*
X16565330Y-24558430D01*
X16549424Y-24572846D01*
X16532181Y-24585634D01*
X16513768Y-24596670D01*
X16494362Y-24605849D01*
X16474150Y-24613081D01*
X16453326Y-24618297D01*
X16432091Y-24621447D01*
X16410650Y-24622500D01*
X15898150Y-24622500D01*
X15876709Y-24621447D01*
X15855474Y-24618297D01*
X15834650Y-24613081D01*
X15814438Y-24605849D01*
X15795032Y-24596670D01*
X15776619Y-24585634D01*
X15759376Y-24572846D01*
X15743470Y-24558430D01*
X15729054Y-24542524D01*
X15716266Y-24525281D01*
X15705230Y-24506868D01*
X15696051Y-24487462D01*
X15688819Y-24467250D01*
X15683603Y-24446426D01*
X15680453Y-24425191D01*
X15679400Y-24403750D01*
X15679400Y-23966250D01*
X15680453Y-23944809D01*
X15683603Y-23923574D01*
X15688819Y-23902750D01*
X15696051Y-23882538D01*
X15705230Y-23863132D01*
X15716266Y-23844719D01*
X15729054Y-23827476D01*
X15743470Y-23811570D01*
X15759376Y-23797154D01*
X15776619Y-23784366D01*
X15795032Y-23773330D01*
X15814438Y-23764151D01*
X15834650Y-23756919D01*
X15855474Y-23751703D01*
X15876709Y-23748553D01*
X15898150Y-23747500D01*
X16410650Y-23747500D01*
X16432091Y-23748553D01*
G37*
G04 #@! TD.AperFunction*
D14*
X2047240Y-18540500D03*
X3845560Y-18540500D03*
X2047240Y-42540500D03*
X3845560Y-42540500D03*
X2047240Y-30540500D03*
X3845560Y-30540500D03*
X6946900Y-16635500D03*
X5148580Y-16635500D03*
X6957060Y-36540500D03*
X5158740Y-36540500D03*
X6957060Y-6540500D03*
X5158740Y-6540500D03*
X2047240Y-36540500D03*
X3845560Y-36540500D03*
X2047240Y-24540500D03*
X3845560Y-24540500D03*
X6957060Y-12540500D03*
X5158740Y-12540500D03*
X6957060Y-18540500D03*
X5158740Y-18540500D03*
X6957060Y-24540500D03*
X5158740Y-24540500D03*
X6957060Y-30540500D03*
X5158740Y-30540500D03*
X6957060Y-42540500D03*
X5158740Y-42540500D03*
X6957060Y-48540500D03*
X5158740Y-48540500D03*
X2047240Y-12540500D03*
X3845560Y-12540500D03*
X6946900Y-4635500D03*
X5148580Y-4635500D03*
X6946900Y-22635500D03*
X5148580Y-22635500D03*
X6946900Y-28635500D03*
X5148580Y-28635500D03*
X6946900Y-34635500D03*
X5148580Y-34635500D03*
X6946900Y-46635500D03*
X5148580Y-46635500D03*
X6946900Y-40635500D03*
X5148580Y-40635500D03*
X6946900Y-10635500D03*
X5148580Y-10635500D03*
X2047240Y-6540500D03*
X3845560Y-6540500D03*
X2047240Y-48540500D03*
X3845560Y-48540500D03*
D11*
X12959400Y-4788000D03*
X12959400Y-5435700D03*
X12959400Y-6083400D03*
X11410000Y-6083400D03*
X11410000Y-5435700D03*
D12*
X11410000Y-4788000D03*
D11*
X12959400Y-10788000D03*
X12959400Y-11435700D03*
X12959400Y-12083400D03*
X11410000Y-12083400D03*
X11410000Y-11435700D03*
D12*
X11410000Y-10788000D03*
D15*
X25303480Y-50355500D03*
X25303480Y-47815500D03*
X25303480Y-45275500D03*
X25303480Y-42735500D03*
X25303480Y-40195500D03*
X25303480Y-37655500D03*
X24922480Y-15494000D03*
X24922480Y-12954000D03*
X24922480Y-10414000D03*
X24922480Y-7874000D03*
X24922480Y-5334000D03*
X24922480Y-2794000D03*
G04 #@! TA.AperFunction,SMDPad,CuDef*
D10*
G36*
X11612091Y-3114053D02*
G01*
X11633326Y-3117203D01*
X11654150Y-3122419D01*
X11674362Y-3129651D01*
X11693768Y-3138830D01*
X11712181Y-3149866D01*
X11729424Y-3162654D01*
X11745330Y-3177070D01*
X11759746Y-3192976D01*
X11772534Y-3210219D01*
X11783570Y-3228632D01*
X11792749Y-3248038D01*
X11799981Y-3268250D01*
X11805197Y-3289074D01*
X11808347Y-3310309D01*
X11809400Y-3331750D01*
X11809400Y-3844250D01*
X11808347Y-3865691D01*
X11805197Y-3886926D01*
X11799981Y-3907750D01*
X11792749Y-3927962D01*
X11783570Y-3947368D01*
X11772534Y-3965781D01*
X11759746Y-3983024D01*
X11745330Y-3998930D01*
X11729424Y-4013346D01*
X11712181Y-4026134D01*
X11693768Y-4037170D01*
X11674362Y-4046349D01*
X11654150Y-4053581D01*
X11633326Y-4058797D01*
X11612091Y-4061947D01*
X11590650Y-4063000D01*
X11153150Y-4063000D01*
X11131709Y-4061947D01*
X11110474Y-4058797D01*
X11089650Y-4053581D01*
X11069438Y-4046349D01*
X11050032Y-4037170D01*
X11031619Y-4026134D01*
X11014376Y-4013346D01*
X10998470Y-3998930D01*
X10984054Y-3983024D01*
X10971266Y-3965781D01*
X10960230Y-3947368D01*
X10951051Y-3927962D01*
X10943819Y-3907750D01*
X10938603Y-3886926D01*
X10935453Y-3865691D01*
X10934400Y-3844250D01*
X10934400Y-3331750D01*
X10935453Y-3310309D01*
X10938603Y-3289074D01*
X10943819Y-3268250D01*
X10951051Y-3248038D01*
X10960230Y-3228632D01*
X10971266Y-3210219D01*
X10984054Y-3192976D01*
X10998470Y-3177070D01*
X11014376Y-3162654D01*
X11031619Y-3149866D01*
X11050032Y-3138830D01*
X11069438Y-3129651D01*
X11089650Y-3122419D01*
X11110474Y-3117203D01*
X11131709Y-3114053D01*
X11153150Y-3113000D01*
X11590650Y-3113000D01*
X11612091Y-3114053D01*
G37*
G04 #@! TD.AperFunction*
G04 #@! TA.AperFunction,SMDPad,CuDef*
G36*
X13187091Y-3114053D02*
G01*
X13208326Y-3117203D01*
X13229150Y-3122419D01*
X13249362Y-3129651D01*
X13268768Y-3138830D01*
X13287181Y-3149866D01*
X13304424Y-3162654D01*
X13320330Y-3177070D01*
X13334746Y-3192976D01*
X13347534Y-3210219D01*
X13358570Y-3228632D01*
X13367749Y-3248038D01*
X13374981Y-3268250D01*
X13380197Y-3289074D01*
X13383347Y-3310309D01*
X13384400Y-3331750D01*
X13384400Y-3844250D01*
X13383347Y-3865691D01*
X13380197Y-3886926D01*
X13374981Y-3907750D01*
X13367749Y-3927962D01*
X13358570Y-3947368D01*
X13347534Y-3965781D01*
X13334746Y-3983024D01*
X13320330Y-3998930D01*
X13304424Y-4013346D01*
X13287181Y-4026134D01*
X13268768Y-4037170D01*
X13249362Y-4046349D01*
X13229150Y-4053581D01*
X13208326Y-4058797D01*
X13187091Y-4061947D01*
X13165650Y-4063000D01*
X12728150Y-4063000D01*
X12706709Y-4061947D01*
X12685474Y-4058797D01*
X12664650Y-4053581D01*
X12644438Y-4046349D01*
X12625032Y-4037170D01*
X12606619Y-4026134D01*
X12589376Y-4013346D01*
X12573470Y-3998930D01*
X12559054Y-3983024D01*
X12546266Y-3965781D01*
X12535230Y-3947368D01*
X12526051Y-3927962D01*
X12518819Y-3907750D01*
X12513603Y-3886926D01*
X12510453Y-3865691D01*
X12509400Y-3844250D01*
X12509400Y-3331750D01*
X12510453Y-3310309D01*
X12513603Y-3289074D01*
X12518819Y-3268250D01*
X12526051Y-3248038D01*
X12535230Y-3228632D01*
X12546266Y-3210219D01*
X12559054Y-3192976D01*
X12573470Y-3177070D01*
X12589376Y-3162654D01*
X12606619Y-3149866D01*
X12625032Y-3138830D01*
X12644438Y-3129651D01*
X12664650Y-3122419D01*
X12685474Y-3117203D01*
X12706709Y-3114053D01*
X12728150Y-3113000D01*
X13165650Y-3113000D01*
X13187091Y-3114053D01*
G37*
G04 #@! TD.AperFunction*
G04 #@! TA.AperFunction,SMDPad,CuDef*
G36*
X16432091Y-46173553D02*
G01*
X16453326Y-46176703D01*
X16474150Y-46181919D01*
X16494362Y-46189151D01*
X16513768Y-46198330D01*
X16532181Y-46209366D01*
X16549424Y-46222154D01*
X16565330Y-46236570D01*
X16579746Y-46252476D01*
X16592534Y-46269719D01*
X16603570Y-46288132D01*
X16612749Y-46307538D01*
X16619981Y-46327750D01*
X16625197Y-46348574D01*
X16628347Y-46369809D01*
X16629400Y-46391250D01*
X16629400Y-46828750D01*
X16628347Y-46850191D01*
X16625197Y-46871426D01*
X16619981Y-46892250D01*
X16612749Y-46912462D01*
X16603570Y-46931868D01*
X16592534Y-46950281D01*
X16579746Y-46967524D01*
X16565330Y-46983430D01*
X16549424Y-46997846D01*
X16532181Y-47010634D01*
X16513768Y-47021670D01*
X16494362Y-47030849D01*
X16474150Y-47038081D01*
X16453326Y-47043297D01*
X16432091Y-47046447D01*
X16410650Y-47047500D01*
X15898150Y-47047500D01*
X15876709Y-47046447D01*
X15855474Y-47043297D01*
X15834650Y-47038081D01*
X15814438Y-47030849D01*
X15795032Y-47021670D01*
X15776619Y-47010634D01*
X15759376Y-46997846D01*
X15743470Y-46983430D01*
X15729054Y-46967524D01*
X15716266Y-46950281D01*
X15705230Y-46931868D01*
X15696051Y-46912462D01*
X15688819Y-46892250D01*
X15683603Y-46871426D01*
X15680453Y-46850191D01*
X15679400Y-46828750D01*
X15679400Y-46391250D01*
X15680453Y-46369809D01*
X15683603Y-46348574D01*
X15688819Y-46327750D01*
X15696051Y-46307538D01*
X15705230Y-46288132D01*
X15716266Y-46269719D01*
X15729054Y-46252476D01*
X15743470Y-46236570D01*
X15759376Y-46222154D01*
X15776619Y-46209366D01*
X15795032Y-46198330D01*
X15814438Y-46189151D01*
X15834650Y-46181919D01*
X15855474Y-46176703D01*
X15876709Y-46173553D01*
X15898150Y-46172500D01*
X16410650Y-46172500D01*
X16432091Y-46173553D01*
G37*
G04 #@! TD.AperFunction*
G04 #@! TA.AperFunction,SMDPad,CuDef*
G36*
X16432091Y-47748553D02*
G01*
X16453326Y-47751703D01*
X16474150Y-47756919D01*
X16494362Y-47764151D01*
X16513768Y-47773330D01*
X16532181Y-47784366D01*
X16549424Y-47797154D01*
X16565330Y-47811570D01*
X16579746Y-47827476D01*
X16592534Y-47844719D01*
X16603570Y-47863132D01*
X16612749Y-47882538D01*
X16619981Y-47902750D01*
X16625197Y-47923574D01*
X16628347Y-47944809D01*
X16629400Y-47966250D01*
X16629400Y-48403750D01*
X16628347Y-48425191D01*
X16625197Y-48446426D01*
X16619981Y-48467250D01*
X16612749Y-48487462D01*
X16603570Y-48506868D01*
X16592534Y-48525281D01*
X16579746Y-48542524D01*
X16565330Y-48558430D01*
X16549424Y-48572846D01*
X16532181Y-48585634D01*
X16513768Y-48596670D01*
X16494362Y-48605849D01*
X16474150Y-48613081D01*
X16453326Y-48618297D01*
X16432091Y-48621447D01*
X16410650Y-48622500D01*
X15898150Y-48622500D01*
X15876709Y-48621447D01*
X15855474Y-48618297D01*
X15834650Y-48613081D01*
X15814438Y-48605849D01*
X15795032Y-48596670D01*
X15776619Y-48585634D01*
X15759376Y-48572846D01*
X15743470Y-48558430D01*
X15729054Y-48542524D01*
X15716266Y-48525281D01*
X15705230Y-48506868D01*
X15696051Y-48487462D01*
X15688819Y-48467250D01*
X15683603Y-48446426D01*
X15680453Y-48425191D01*
X15679400Y-48403750D01*
X15679400Y-47966250D01*
X15680453Y-47944809D01*
X15683603Y-47923574D01*
X15688819Y-47902750D01*
X15696051Y-47882538D01*
X15705230Y-47863132D01*
X15716266Y-47844719D01*
X15729054Y-47827476D01*
X15743470Y-47811570D01*
X15759376Y-47797154D01*
X15776619Y-47784366D01*
X15795032Y-47773330D01*
X15814438Y-47764151D01*
X15834650Y-47756919D01*
X15855474Y-47751703D01*
X15876709Y-47748553D01*
X15898150Y-47747500D01*
X16410650Y-47747500D01*
X16432091Y-47748553D01*
G37*
G04 #@! TD.AperFunction*
G04 #@! TA.AperFunction,SMDPad,CuDef*
G36*
X16432091Y-28173553D02*
G01*
X16453326Y-28176703D01*
X16474150Y-28181919D01*
X16494362Y-28189151D01*
X16513768Y-28198330D01*
X16532181Y-28209366D01*
X16549424Y-28222154D01*
X16565330Y-28236570D01*
X16579746Y-28252476D01*
X16592534Y-28269719D01*
X16603570Y-28288132D01*
X16612749Y-28307538D01*
X16619981Y-28327750D01*
X16625197Y-28348574D01*
X16628347Y-28369809D01*
X16629400Y-28391250D01*
X16629400Y-28828750D01*
X16628347Y-28850191D01*
X16625197Y-28871426D01*
X16619981Y-28892250D01*
X16612749Y-28912462D01*
X16603570Y-28931868D01*
X16592534Y-28950281D01*
X16579746Y-28967524D01*
X16565330Y-28983430D01*
X16549424Y-28997846D01*
X16532181Y-29010634D01*
X16513768Y-29021670D01*
X16494362Y-29030849D01*
X16474150Y-29038081D01*
X16453326Y-29043297D01*
X16432091Y-29046447D01*
X16410650Y-29047500D01*
X15898150Y-29047500D01*
X15876709Y-29046447D01*
X15855474Y-29043297D01*
X15834650Y-29038081D01*
X15814438Y-29030849D01*
X15795032Y-29021670D01*
X15776619Y-29010634D01*
X15759376Y-28997846D01*
X15743470Y-28983430D01*
X15729054Y-28967524D01*
X15716266Y-28950281D01*
X15705230Y-28931868D01*
X15696051Y-28912462D01*
X15688819Y-28892250D01*
X15683603Y-28871426D01*
X15680453Y-28850191D01*
X15679400Y-28828750D01*
X15679400Y-28391250D01*
X15680453Y-28369809D01*
X15683603Y-28348574D01*
X15688819Y-28327750D01*
X15696051Y-28307538D01*
X15705230Y-28288132D01*
X15716266Y-28269719D01*
X15729054Y-28252476D01*
X15743470Y-28236570D01*
X15759376Y-28222154D01*
X15776619Y-28209366D01*
X15795032Y-28198330D01*
X15814438Y-28189151D01*
X15834650Y-28181919D01*
X15855474Y-28176703D01*
X15876709Y-28173553D01*
X15898150Y-28172500D01*
X16410650Y-28172500D01*
X16432091Y-28173553D01*
G37*
G04 #@! TD.AperFunction*
G04 #@! TA.AperFunction,SMDPad,CuDef*
G36*
X16432091Y-29748553D02*
G01*
X16453326Y-29751703D01*
X16474150Y-29756919D01*
X16494362Y-29764151D01*
X16513768Y-29773330D01*
X16532181Y-29784366D01*
X16549424Y-29797154D01*
X16565330Y-29811570D01*
X16579746Y-29827476D01*
X16592534Y-29844719D01*
X16603570Y-29863132D01*
X16612749Y-29882538D01*
X16619981Y-29902750D01*
X16625197Y-29923574D01*
X16628347Y-29944809D01*
X16629400Y-29966250D01*
X16629400Y-30403750D01*
X16628347Y-30425191D01*
X16625197Y-30446426D01*
X16619981Y-30467250D01*
X16612749Y-30487462D01*
X16603570Y-30506868D01*
X16592534Y-30525281D01*
X16579746Y-30542524D01*
X16565330Y-30558430D01*
X16549424Y-30572846D01*
X16532181Y-30585634D01*
X16513768Y-30596670D01*
X16494362Y-30605849D01*
X16474150Y-30613081D01*
X16453326Y-30618297D01*
X16432091Y-30621447D01*
X16410650Y-30622500D01*
X15898150Y-30622500D01*
X15876709Y-30621447D01*
X15855474Y-30618297D01*
X15834650Y-30613081D01*
X15814438Y-30605849D01*
X15795032Y-30596670D01*
X15776619Y-30585634D01*
X15759376Y-30572846D01*
X15743470Y-30558430D01*
X15729054Y-30542524D01*
X15716266Y-30525281D01*
X15705230Y-30506868D01*
X15696051Y-30487462D01*
X15688819Y-30467250D01*
X15683603Y-30446426D01*
X15680453Y-30425191D01*
X15679400Y-30403750D01*
X15679400Y-29966250D01*
X15680453Y-29944809D01*
X15683603Y-29923574D01*
X15688819Y-29902750D01*
X15696051Y-29882538D01*
X15705230Y-29863132D01*
X15716266Y-29844719D01*
X15729054Y-29827476D01*
X15743470Y-29811570D01*
X15759376Y-29797154D01*
X15776619Y-29784366D01*
X15795032Y-29773330D01*
X15814438Y-29764151D01*
X15834650Y-29756919D01*
X15855474Y-29751703D01*
X15876709Y-29748553D01*
X15898150Y-29747500D01*
X16410650Y-29747500D01*
X16432091Y-29748553D01*
G37*
G04 #@! TD.AperFunction*
G04 #@! TA.AperFunction,SMDPad,CuDef*
G36*
X16432091Y-4173553D02*
G01*
X16453326Y-4176703D01*
X16474150Y-4181919D01*
X16494362Y-4189151D01*
X16513768Y-4198330D01*
X16532181Y-4209366D01*
X16549424Y-4222154D01*
X16565330Y-4236570D01*
X16579746Y-4252476D01*
X16592534Y-4269719D01*
X16603570Y-4288132D01*
X16612749Y-4307538D01*
X16619981Y-4327750D01*
X16625197Y-4348574D01*
X16628347Y-4369809D01*
X16629400Y-4391250D01*
X16629400Y-4828750D01*
X16628347Y-4850191D01*
X16625197Y-4871426D01*
X16619981Y-4892250D01*
X16612749Y-4912462D01*
X16603570Y-4931868D01*
X16592534Y-4950281D01*
X16579746Y-4967524D01*
X16565330Y-4983430D01*
X16549424Y-4997846D01*
X16532181Y-5010634D01*
X16513768Y-5021670D01*
X16494362Y-5030849D01*
X16474150Y-5038081D01*
X16453326Y-5043297D01*
X16432091Y-5046447D01*
X16410650Y-5047500D01*
X15898150Y-5047500D01*
X15876709Y-5046447D01*
X15855474Y-5043297D01*
X15834650Y-5038081D01*
X15814438Y-5030849D01*
X15795032Y-5021670D01*
X15776619Y-5010634D01*
X15759376Y-4997846D01*
X15743470Y-4983430D01*
X15729054Y-4967524D01*
X15716266Y-4950281D01*
X15705230Y-4931868D01*
X15696051Y-4912462D01*
X15688819Y-4892250D01*
X15683603Y-4871426D01*
X15680453Y-4850191D01*
X15679400Y-4828750D01*
X15679400Y-4391250D01*
X15680453Y-4369809D01*
X15683603Y-4348574D01*
X15688819Y-4327750D01*
X15696051Y-4307538D01*
X15705230Y-4288132D01*
X15716266Y-4269719D01*
X15729054Y-4252476D01*
X15743470Y-4236570D01*
X15759376Y-4222154D01*
X15776619Y-4209366D01*
X15795032Y-4198330D01*
X15814438Y-4189151D01*
X15834650Y-4181919D01*
X15855474Y-4176703D01*
X15876709Y-4173553D01*
X15898150Y-4172500D01*
X16410650Y-4172500D01*
X16432091Y-4173553D01*
G37*
G04 #@! TD.AperFunction*
G04 #@! TA.AperFunction,SMDPad,CuDef*
G36*
X16432091Y-5748553D02*
G01*
X16453326Y-5751703D01*
X16474150Y-5756919D01*
X16494362Y-5764151D01*
X16513768Y-5773330D01*
X16532181Y-5784366D01*
X16549424Y-5797154D01*
X16565330Y-5811570D01*
X16579746Y-5827476D01*
X16592534Y-5844719D01*
X16603570Y-5863132D01*
X16612749Y-5882538D01*
X16619981Y-5902750D01*
X16625197Y-5923574D01*
X16628347Y-5944809D01*
X16629400Y-5966250D01*
X16629400Y-6403750D01*
X16628347Y-6425191D01*
X16625197Y-6446426D01*
X16619981Y-6467250D01*
X16612749Y-6487462D01*
X16603570Y-6506868D01*
X16592534Y-6525281D01*
X16579746Y-6542524D01*
X16565330Y-6558430D01*
X16549424Y-6572846D01*
X16532181Y-6585634D01*
X16513768Y-6596670D01*
X16494362Y-6605849D01*
X16474150Y-6613081D01*
X16453326Y-6618297D01*
X16432091Y-6621447D01*
X16410650Y-6622500D01*
X15898150Y-6622500D01*
X15876709Y-6621447D01*
X15855474Y-6618297D01*
X15834650Y-6613081D01*
X15814438Y-6605849D01*
X15795032Y-6596670D01*
X15776619Y-6585634D01*
X15759376Y-6572846D01*
X15743470Y-6558430D01*
X15729054Y-6542524D01*
X15716266Y-6525281D01*
X15705230Y-6506868D01*
X15696051Y-6487462D01*
X15688819Y-6467250D01*
X15683603Y-6446426D01*
X15680453Y-6425191D01*
X15679400Y-6403750D01*
X15679400Y-5966250D01*
X15680453Y-5944809D01*
X15683603Y-5923574D01*
X15688819Y-5902750D01*
X15696051Y-5882538D01*
X15705230Y-5863132D01*
X15716266Y-5844719D01*
X15729054Y-5827476D01*
X15743470Y-5811570D01*
X15759376Y-5797154D01*
X15776619Y-5784366D01*
X15795032Y-5773330D01*
X15814438Y-5764151D01*
X15834650Y-5756919D01*
X15855474Y-5751703D01*
X15876709Y-5748553D01*
X15898150Y-5747500D01*
X16410650Y-5747500D01*
X16432091Y-5748553D01*
G37*
G04 #@! TD.AperFunction*
G04 #@! TA.AperFunction,SMDPad,CuDef*
G36*
X16432091Y-40173553D02*
G01*
X16453326Y-40176703D01*
X16474150Y-40181919D01*
X16494362Y-40189151D01*
X16513768Y-40198330D01*
X16532181Y-40209366D01*
X16549424Y-40222154D01*
X16565330Y-40236570D01*
X16579746Y-40252476D01*
X16592534Y-40269719D01*
X16603570Y-40288132D01*
X16612749Y-40307538D01*
X16619981Y-40327750D01*
X16625197Y-40348574D01*
X16628347Y-40369809D01*
X16629400Y-40391250D01*
X16629400Y-40828750D01*
X16628347Y-40850191D01*
X16625197Y-40871426D01*
X16619981Y-40892250D01*
X16612749Y-40912462D01*
X16603570Y-40931868D01*
X16592534Y-40950281D01*
X16579746Y-40967524D01*
X16565330Y-40983430D01*
X16549424Y-40997846D01*
X16532181Y-41010634D01*
X16513768Y-41021670D01*
X16494362Y-41030849D01*
X16474150Y-41038081D01*
X16453326Y-41043297D01*
X16432091Y-41046447D01*
X16410650Y-41047500D01*
X15898150Y-41047500D01*
X15876709Y-41046447D01*
X15855474Y-41043297D01*
X15834650Y-41038081D01*
X15814438Y-41030849D01*
X15795032Y-41021670D01*
X15776619Y-41010634D01*
X15759376Y-40997846D01*
X15743470Y-40983430D01*
X15729054Y-40967524D01*
X15716266Y-40950281D01*
X15705230Y-40931868D01*
X15696051Y-40912462D01*
X15688819Y-40892250D01*
X15683603Y-40871426D01*
X15680453Y-40850191D01*
X15679400Y-40828750D01*
X15679400Y-40391250D01*
X15680453Y-40369809D01*
X15683603Y-40348574D01*
X15688819Y-40327750D01*
X15696051Y-40307538D01*
X15705230Y-40288132D01*
X15716266Y-40269719D01*
X15729054Y-40252476D01*
X15743470Y-40236570D01*
X15759376Y-40222154D01*
X15776619Y-40209366D01*
X15795032Y-40198330D01*
X15814438Y-40189151D01*
X15834650Y-40181919D01*
X15855474Y-40176703D01*
X15876709Y-40173553D01*
X15898150Y-40172500D01*
X16410650Y-40172500D01*
X16432091Y-40173553D01*
G37*
G04 #@! TD.AperFunction*
G04 #@! TA.AperFunction,SMDPad,CuDef*
G36*
X16432091Y-41748553D02*
G01*
X16453326Y-41751703D01*
X16474150Y-41756919D01*
X16494362Y-41764151D01*
X16513768Y-41773330D01*
X16532181Y-41784366D01*
X16549424Y-41797154D01*
X16565330Y-41811570D01*
X16579746Y-41827476D01*
X16592534Y-41844719D01*
X16603570Y-41863132D01*
X16612749Y-41882538D01*
X16619981Y-41902750D01*
X16625197Y-41923574D01*
X16628347Y-41944809D01*
X16629400Y-41966250D01*
X16629400Y-42403750D01*
X16628347Y-42425191D01*
X16625197Y-42446426D01*
X16619981Y-42467250D01*
X16612749Y-42487462D01*
X16603570Y-42506868D01*
X16592534Y-42525281D01*
X16579746Y-42542524D01*
X16565330Y-42558430D01*
X16549424Y-42572846D01*
X16532181Y-42585634D01*
X16513768Y-42596670D01*
X16494362Y-42605849D01*
X16474150Y-42613081D01*
X16453326Y-42618297D01*
X16432091Y-42621447D01*
X16410650Y-42622500D01*
X15898150Y-42622500D01*
X15876709Y-42621447D01*
X15855474Y-42618297D01*
X15834650Y-42613081D01*
X15814438Y-42605849D01*
X15795032Y-42596670D01*
X15776619Y-42585634D01*
X15759376Y-42572846D01*
X15743470Y-42558430D01*
X15729054Y-42542524D01*
X15716266Y-42525281D01*
X15705230Y-42506868D01*
X15696051Y-42487462D01*
X15688819Y-42467250D01*
X15683603Y-42446426D01*
X15680453Y-42425191D01*
X15679400Y-42403750D01*
X15679400Y-41966250D01*
X15680453Y-41944809D01*
X15683603Y-41923574D01*
X15688819Y-41902750D01*
X15696051Y-41882538D01*
X15705230Y-41863132D01*
X15716266Y-41844719D01*
X15729054Y-41827476D01*
X15743470Y-41811570D01*
X15759376Y-41797154D01*
X15776619Y-41784366D01*
X15795032Y-41773330D01*
X15814438Y-41764151D01*
X15834650Y-41756919D01*
X15855474Y-41751703D01*
X15876709Y-41748553D01*
X15898150Y-41747500D01*
X16410650Y-41747500D01*
X16432091Y-41748553D01*
G37*
G04 #@! TD.AperFunction*
G04 #@! TA.AperFunction,SMDPad,CuDef*
G36*
X16432091Y-34173553D02*
G01*
X16453326Y-34176703D01*
X16474150Y-34181919D01*
X16494362Y-34189151D01*
X16513768Y-34198330D01*
X16532181Y-34209366D01*
X16549424Y-34222154D01*
X16565330Y-34236570D01*
X16579746Y-34252476D01*
X16592534Y-34269719D01*
X16603570Y-34288132D01*
X16612749Y-34307538D01*
X16619981Y-34327750D01*
X16625197Y-34348574D01*
X16628347Y-34369809D01*
X16629400Y-34391250D01*
X16629400Y-34828750D01*
X16628347Y-34850191D01*
X16625197Y-34871426D01*
X16619981Y-34892250D01*
X16612749Y-34912462D01*
X16603570Y-34931868D01*
X16592534Y-34950281D01*
X16579746Y-34967524D01*
X16565330Y-34983430D01*
X16549424Y-34997846D01*
X16532181Y-35010634D01*
X16513768Y-35021670D01*
X16494362Y-35030849D01*
X16474150Y-35038081D01*
X16453326Y-35043297D01*
X16432091Y-35046447D01*
X16410650Y-35047500D01*
X15898150Y-35047500D01*
X15876709Y-35046447D01*
X15855474Y-35043297D01*
X15834650Y-35038081D01*
X15814438Y-35030849D01*
X15795032Y-35021670D01*
X15776619Y-35010634D01*
X15759376Y-34997846D01*
X15743470Y-34983430D01*
X15729054Y-34967524D01*
X15716266Y-34950281D01*
X15705230Y-34931868D01*
X15696051Y-34912462D01*
X15688819Y-34892250D01*
X15683603Y-34871426D01*
X15680453Y-34850191D01*
X15679400Y-34828750D01*
X15679400Y-34391250D01*
X15680453Y-34369809D01*
X15683603Y-34348574D01*
X15688819Y-34327750D01*
X15696051Y-34307538D01*
X15705230Y-34288132D01*
X15716266Y-34269719D01*
X15729054Y-34252476D01*
X15743470Y-34236570D01*
X15759376Y-34222154D01*
X15776619Y-34209366D01*
X15795032Y-34198330D01*
X15814438Y-34189151D01*
X15834650Y-34181919D01*
X15855474Y-34176703D01*
X15876709Y-34173553D01*
X15898150Y-34172500D01*
X16410650Y-34172500D01*
X16432091Y-34173553D01*
G37*
G04 #@! TD.AperFunction*
G04 #@! TA.AperFunction,SMDPad,CuDef*
G36*
X16432091Y-35748553D02*
G01*
X16453326Y-35751703D01*
X16474150Y-35756919D01*
X16494362Y-35764151D01*
X16513768Y-35773330D01*
X16532181Y-35784366D01*
X16549424Y-35797154D01*
X16565330Y-35811570D01*
X16579746Y-35827476D01*
X16592534Y-35844719D01*
X16603570Y-35863132D01*
X16612749Y-35882538D01*
X16619981Y-35902750D01*
X16625197Y-35923574D01*
X16628347Y-35944809D01*
X16629400Y-35966250D01*
X16629400Y-36403750D01*
X16628347Y-36425191D01*
X16625197Y-36446426D01*
X16619981Y-36467250D01*
X16612749Y-36487462D01*
X16603570Y-36506868D01*
X16592534Y-36525281D01*
X16579746Y-36542524D01*
X16565330Y-36558430D01*
X16549424Y-36572846D01*
X16532181Y-36585634D01*
X16513768Y-36596670D01*
X16494362Y-36605849D01*
X16474150Y-36613081D01*
X16453326Y-36618297D01*
X16432091Y-36621447D01*
X16410650Y-36622500D01*
X15898150Y-36622500D01*
X15876709Y-36621447D01*
X15855474Y-36618297D01*
X15834650Y-36613081D01*
X15814438Y-36605849D01*
X15795032Y-36596670D01*
X15776619Y-36585634D01*
X15759376Y-36572846D01*
X15743470Y-36558430D01*
X15729054Y-36542524D01*
X15716266Y-36525281D01*
X15705230Y-36506868D01*
X15696051Y-36487462D01*
X15688819Y-36467250D01*
X15683603Y-36446426D01*
X15680453Y-36425191D01*
X15679400Y-36403750D01*
X15679400Y-35966250D01*
X15680453Y-35944809D01*
X15683603Y-35923574D01*
X15688819Y-35902750D01*
X15696051Y-35882538D01*
X15705230Y-35863132D01*
X15716266Y-35844719D01*
X15729054Y-35827476D01*
X15743470Y-35811570D01*
X15759376Y-35797154D01*
X15776619Y-35784366D01*
X15795032Y-35773330D01*
X15814438Y-35764151D01*
X15834650Y-35756919D01*
X15855474Y-35751703D01*
X15876709Y-35748553D01*
X15898150Y-35747500D01*
X16410650Y-35747500D01*
X16432091Y-35748553D01*
G37*
G04 #@! TD.AperFunction*
G04 #@! TA.AperFunction,SMDPad,CuDef*
G36*
X16432091Y-10173553D02*
G01*
X16453326Y-10176703D01*
X16474150Y-10181919D01*
X16494362Y-10189151D01*
X16513768Y-10198330D01*
X16532181Y-10209366D01*
X16549424Y-10222154D01*
X16565330Y-10236570D01*
X16579746Y-10252476D01*
X16592534Y-10269719D01*
X16603570Y-10288132D01*
X16612749Y-10307538D01*
X16619981Y-10327750D01*
X16625197Y-10348574D01*
X16628347Y-10369809D01*
X16629400Y-10391250D01*
X16629400Y-10828750D01*
X16628347Y-10850191D01*
X16625197Y-10871426D01*
X16619981Y-10892250D01*
X16612749Y-10912462D01*
X16603570Y-10931868D01*
X16592534Y-10950281D01*
X16579746Y-10967524D01*
X16565330Y-10983430D01*
X16549424Y-10997846D01*
X16532181Y-11010634D01*
X16513768Y-11021670D01*
X16494362Y-11030849D01*
X16474150Y-11038081D01*
X16453326Y-11043297D01*
X16432091Y-11046447D01*
X16410650Y-11047500D01*
X15898150Y-11047500D01*
X15876709Y-11046447D01*
X15855474Y-11043297D01*
X15834650Y-11038081D01*
X15814438Y-11030849D01*
X15795032Y-11021670D01*
X15776619Y-11010634D01*
X15759376Y-10997846D01*
X15743470Y-10983430D01*
X15729054Y-10967524D01*
X15716266Y-10950281D01*
X15705230Y-10931868D01*
X15696051Y-10912462D01*
X15688819Y-10892250D01*
X15683603Y-10871426D01*
X15680453Y-10850191D01*
X15679400Y-10828750D01*
X15679400Y-10391250D01*
X15680453Y-10369809D01*
X15683603Y-10348574D01*
X15688819Y-10327750D01*
X15696051Y-10307538D01*
X15705230Y-10288132D01*
X15716266Y-10269719D01*
X15729054Y-10252476D01*
X15743470Y-10236570D01*
X15759376Y-10222154D01*
X15776619Y-10209366D01*
X15795032Y-10198330D01*
X15814438Y-10189151D01*
X15834650Y-10181919D01*
X15855474Y-10176703D01*
X15876709Y-10173553D01*
X15898150Y-10172500D01*
X16410650Y-10172500D01*
X16432091Y-10173553D01*
G37*
G04 #@! TD.AperFunction*
G04 #@! TA.AperFunction,SMDPad,CuDef*
G36*
X16432091Y-11748553D02*
G01*
X16453326Y-11751703D01*
X16474150Y-11756919D01*
X16494362Y-11764151D01*
X16513768Y-11773330D01*
X16532181Y-11784366D01*
X16549424Y-11797154D01*
X16565330Y-11811570D01*
X16579746Y-11827476D01*
X16592534Y-11844719D01*
X16603570Y-11863132D01*
X16612749Y-11882538D01*
X16619981Y-11902750D01*
X16625197Y-11923574D01*
X16628347Y-11944809D01*
X16629400Y-11966250D01*
X16629400Y-12403750D01*
X16628347Y-12425191D01*
X16625197Y-12446426D01*
X16619981Y-12467250D01*
X16612749Y-12487462D01*
X16603570Y-12506868D01*
X16592534Y-12525281D01*
X16579746Y-12542524D01*
X16565330Y-12558430D01*
X16549424Y-12572846D01*
X16532181Y-12585634D01*
X16513768Y-12596670D01*
X16494362Y-12605849D01*
X16474150Y-12613081D01*
X16453326Y-12618297D01*
X16432091Y-12621447D01*
X16410650Y-12622500D01*
X15898150Y-12622500D01*
X15876709Y-12621447D01*
X15855474Y-12618297D01*
X15834650Y-12613081D01*
X15814438Y-12605849D01*
X15795032Y-12596670D01*
X15776619Y-12585634D01*
X15759376Y-12572846D01*
X15743470Y-12558430D01*
X15729054Y-12542524D01*
X15716266Y-12525281D01*
X15705230Y-12506868D01*
X15696051Y-12487462D01*
X15688819Y-12467250D01*
X15683603Y-12446426D01*
X15680453Y-12425191D01*
X15679400Y-12403750D01*
X15679400Y-11966250D01*
X15680453Y-11944809D01*
X15683603Y-11923574D01*
X15688819Y-11902750D01*
X15696051Y-11882538D01*
X15705230Y-11863132D01*
X15716266Y-11844719D01*
X15729054Y-11827476D01*
X15743470Y-11811570D01*
X15759376Y-11797154D01*
X15776619Y-11784366D01*
X15795032Y-11773330D01*
X15814438Y-11764151D01*
X15834650Y-11756919D01*
X15855474Y-11751703D01*
X15876709Y-11748553D01*
X15898150Y-11747500D01*
X16410650Y-11747500D01*
X16432091Y-11748553D01*
G37*
G04 #@! TD.AperFunction*
D11*
X12959400Y-28788000D03*
X12959400Y-29435700D03*
X12959400Y-30083400D03*
X11410000Y-30083400D03*
X11410000Y-29435700D03*
D12*
X11410000Y-28788000D03*
D11*
X12959400Y-34788000D03*
X12959400Y-35435700D03*
X12959400Y-36083400D03*
X11410000Y-36083400D03*
X11410000Y-35435700D03*
D12*
X11410000Y-34788000D03*
G04 #@! TA.AperFunction,SMDPad,CuDef*
D10*
G36*
X8685091Y-11748553D02*
G01*
X8706326Y-11751703D01*
X8727150Y-11756919D01*
X8747362Y-11764151D01*
X8766768Y-11773330D01*
X8785181Y-11784366D01*
X8802424Y-11797154D01*
X8818330Y-11811570D01*
X8832746Y-11827476D01*
X8845534Y-11844719D01*
X8856570Y-11863132D01*
X8865749Y-11882538D01*
X8872981Y-11902750D01*
X8878197Y-11923574D01*
X8881347Y-11944809D01*
X8882400Y-11966250D01*
X8882400Y-12403750D01*
X8881347Y-12425191D01*
X8878197Y-12446426D01*
X8872981Y-12467250D01*
X8865749Y-12487462D01*
X8856570Y-12506868D01*
X8845534Y-12525281D01*
X8832746Y-12542524D01*
X8818330Y-12558430D01*
X8802424Y-12572846D01*
X8785181Y-12585634D01*
X8766768Y-12596670D01*
X8747362Y-12605849D01*
X8727150Y-12613081D01*
X8706326Y-12618297D01*
X8685091Y-12621447D01*
X8663650Y-12622500D01*
X8151150Y-12622500D01*
X8129709Y-12621447D01*
X8108474Y-12618297D01*
X8087650Y-12613081D01*
X8067438Y-12605849D01*
X8048032Y-12596670D01*
X8029619Y-12585634D01*
X8012376Y-12572846D01*
X7996470Y-12558430D01*
X7982054Y-12542524D01*
X7969266Y-12525281D01*
X7958230Y-12506868D01*
X7949051Y-12487462D01*
X7941819Y-12467250D01*
X7936603Y-12446426D01*
X7933453Y-12425191D01*
X7932400Y-12403750D01*
X7932400Y-11966250D01*
X7933453Y-11944809D01*
X7936603Y-11923574D01*
X7941819Y-11902750D01*
X7949051Y-11882538D01*
X7958230Y-11863132D01*
X7969266Y-11844719D01*
X7982054Y-11827476D01*
X7996470Y-11811570D01*
X8012376Y-11797154D01*
X8029619Y-11784366D01*
X8048032Y-11773330D01*
X8067438Y-11764151D01*
X8087650Y-11756919D01*
X8108474Y-11751703D01*
X8129709Y-11748553D01*
X8151150Y-11747500D01*
X8663650Y-11747500D01*
X8685091Y-11748553D01*
G37*
G04 #@! TD.AperFunction*
G04 #@! TA.AperFunction,SMDPad,CuDef*
G36*
X8685091Y-10173553D02*
G01*
X8706326Y-10176703D01*
X8727150Y-10181919D01*
X8747362Y-10189151D01*
X8766768Y-10198330D01*
X8785181Y-10209366D01*
X8802424Y-10222154D01*
X8818330Y-10236570D01*
X8832746Y-10252476D01*
X8845534Y-10269719D01*
X8856570Y-10288132D01*
X8865749Y-10307538D01*
X8872981Y-10327750D01*
X8878197Y-10348574D01*
X8881347Y-10369809D01*
X8882400Y-10391250D01*
X8882400Y-10828750D01*
X8881347Y-10850191D01*
X8878197Y-10871426D01*
X8872981Y-10892250D01*
X8865749Y-10912462D01*
X8856570Y-10931868D01*
X8845534Y-10950281D01*
X8832746Y-10967524D01*
X8818330Y-10983430D01*
X8802424Y-10997846D01*
X8785181Y-11010634D01*
X8766768Y-11021670D01*
X8747362Y-11030849D01*
X8727150Y-11038081D01*
X8706326Y-11043297D01*
X8685091Y-11046447D01*
X8663650Y-11047500D01*
X8151150Y-11047500D01*
X8129709Y-11046447D01*
X8108474Y-11043297D01*
X8087650Y-11038081D01*
X8067438Y-11030849D01*
X8048032Y-11021670D01*
X8029619Y-11010634D01*
X8012376Y-10997846D01*
X7996470Y-10983430D01*
X7982054Y-10967524D01*
X7969266Y-10950281D01*
X7958230Y-10931868D01*
X7949051Y-10912462D01*
X7941819Y-10892250D01*
X7936603Y-10871426D01*
X7933453Y-10850191D01*
X7932400Y-10828750D01*
X7932400Y-10391250D01*
X7933453Y-10369809D01*
X7936603Y-10348574D01*
X7941819Y-10327750D01*
X7949051Y-10307538D01*
X7958230Y-10288132D01*
X7969266Y-10269719D01*
X7982054Y-10252476D01*
X7996470Y-10236570D01*
X8012376Y-10222154D01*
X8029619Y-10209366D01*
X8048032Y-10198330D01*
X8067438Y-10189151D01*
X8087650Y-10181919D01*
X8108474Y-10176703D01*
X8129709Y-10173553D01*
X8151150Y-10172500D01*
X8663650Y-10172500D01*
X8685091Y-10173553D01*
G37*
G04 #@! TD.AperFunction*
D16*
X27688540Y-17716500D03*
X29385260Y-17716500D03*
G04 #@! TA.AperFunction,SMDPad,CuDef*
D10*
G36*
X8685091Y-5748553D02*
G01*
X8706326Y-5751703D01*
X8727150Y-5756919D01*
X8747362Y-5764151D01*
X8766768Y-5773330D01*
X8785181Y-5784366D01*
X8802424Y-5797154D01*
X8818330Y-5811570D01*
X8832746Y-5827476D01*
X8845534Y-5844719D01*
X8856570Y-5863132D01*
X8865749Y-5882538D01*
X8872981Y-5902750D01*
X8878197Y-5923574D01*
X8881347Y-5944809D01*
X8882400Y-5966250D01*
X8882400Y-6403750D01*
X8881347Y-6425191D01*
X8878197Y-6446426D01*
X8872981Y-6467250D01*
X8865749Y-6487462D01*
X8856570Y-6506868D01*
X8845534Y-6525281D01*
X8832746Y-6542524D01*
X8818330Y-6558430D01*
X8802424Y-6572846D01*
X8785181Y-6585634D01*
X8766768Y-6596670D01*
X8747362Y-6605849D01*
X8727150Y-6613081D01*
X8706326Y-6618297D01*
X8685091Y-6621447D01*
X8663650Y-6622500D01*
X8151150Y-6622500D01*
X8129709Y-6621447D01*
X8108474Y-6618297D01*
X8087650Y-6613081D01*
X8067438Y-6605849D01*
X8048032Y-6596670D01*
X8029619Y-6585634D01*
X8012376Y-6572846D01*
X7996470Y-6558430D01*
X7982054Y-6542524D01*
X7969266Y-6525281D01*
X7958230Y-6506868D01*
X7949051Y-6487462D01*
X7941819Y-6467250D01*
X7936603Y-6446426D01*
X7933453Y-6425191D01*
X7932400Y-6403750D01*
X7932400Y-5966250D01*
X7933453Y-5944809D01*
X7936603Y-5923574D01*
X7941819Y-5902750D01*
X7949051Y-5882538D01*
X7958230Y-5863132D01*
X7969266Y-5844719D01*
X7982054Y-5827476D01*
X7996470Y-5811570D01*
X8012376Y-5797154D01*
X8029619Y-5784366D01*
X8048032Y-5773330D01*
X8067438Y-5764151D01*
X8087650Y-5756919D01*
X8108474Y-5751703D01*
X8129709Y-5748553D01*
X8151150Y-5747500D01*
X8663650Y-5747500D01*
X8685091Y-5748553D01*
G37*
G04 #@! TD.AperFunction*
G04 #@! TA.AperFunction,SMDPad,CuDef*
G36*
X8685091Y-4173553D02*
G01*
X8706326Y-4176703D01*
X8727150Y-4181919D01*
X8747362Y-4189151D01*
X8766768Y-4198330D01*
X8785181Y-4209366D01*
X8802424Y-4222154D01*
X8818330Y-4236570D01*
X8832746Y-4252476D01*
X8845534Y-4269719D01*
X8856570Y-4288132D01*
X8865749Y-4307538D01*
X8872981Y-4327750D01*
X8878197Y-4348574D01*
X8881347Y-4369809D01*
X8882400Y-4391250D01*
X8882400Y-4828750D01*
X8881347Y-4850191D01*
X8878197Y-4871426D01*
X8872981Y-4892250D01*
X8865749Y-4912462D01*
X8856570Y-4931868D01*
X8845534Y-4950281D01*
X8832746Y-4967524D01*
X8818330Y-4983430D01*
X8802424Y-4997846D01*
X8785181Y-5010634D01*
X8766768Y-5021670D01*
X8747362Y-5030849D01*
X8727150Y-5038081D01*
X8706326Y-5043297D01*
X8685091Y-5046447D01*
X8663650Y-5047500D01*
X8151150Y-5047500D01*
X8129709Y-5046447D01*
X8108474Y-5043297D01*
X8087650Y-5038081D01*
X8067438Y-5030849D01*
X8048032Y-5021670D01*
X8029619Y-5010634D01*
X8012376Y-4997846D01*
X7996470Y-4983430D01*
X7982054Y-4967524D01*
X7969266Y-4950281D01*
X7958230Y-4931868D01*
X7949051Y-4912462D01*
X7941819Y-4892250D01*
X7936603Y-4871426D01*
X7933453Y-4850191D01*
X7932400Y-4828750D01*
X7932400Y-4391250D01*
X7933453Y-4369809D01*
X7936603Y-4348574D01*
X7941819Y-4327750D01*
X7949051Y-4307538D01*
X7958230Y-4288132D01*
X7969266Y-4269719D01*
X7982054Y-4252476D01*
X7996470Y-4236570D01*
X8012376Y-4222154D01*
X8029619Y-4209366D01*
X8048032Y-4198330D01*
X8067438Y-4189151D01*
X8087650Y-4181919D01*
X8108474Y-4176703D01*
X8129709Y-4173553D01*
X8151150Y-4172500D01*
X8663650Y-4172500D01*
X8685091Y-4173553D01*
G37*
G04 #@! TD.AperFunction*
G04 #@! TA.AperFunction,SMDPad,CuDef*
G36*
X11612091Y-21114053D02*
G01*
X11633326Y-21117203D01*
X11654150Y-21122419D01*
X11674362Y-21129651D01*
X11693768Y-21138830D01*
X11712181Y-21149866D01*
X11729424Y-21162654D01*
X11745330Y-21177070D01*
X11759746Y-21192976D01*
X11772534Y-21210219D01*
X11783570Y-21228632D01*
X11792749Y-21248038D01*
X11799981Y-21268250D01*
X11805197Y-21289074D01*
X11808347Y-21310309D01*
X11809400Y-21331750D01*
X11809400Y-21844250D01*
X11808347Y-21865691D01*
X11805197Y-21886926D01*
X11799981Y-21907750D01*
X11792749Y-21927962D01*
X11783570Y-21947368D01*
X11772534Y-21965781D01*
X11759746Y-21983024D01*
X11745330Y-21998930D01*
X11729424Y-22013346D01*
X11712181Y-22026134D01*
X11693768Y-22037170D01*
X11674362Y-22046349D01*
X11654150Y-22053581D01*
X11633326Y-22058797D01*
X11612091Y-22061947D01*
X11590650Y-22063000D01*
X11153150Y-22063000D01*
X11131709Y-22061947D01*
X11110474Y-22058797D01*
X11089650Y-22053581D01*
X11069438Y-22046349D01*
X11050032Y-22037170D01*
X11031619Y-22026134D01*
X11014376Y-22013346D01*
X10998470Y-21998930D01*
X10984054Y-21983024D01*
X10971266Y-21965781D01*
X10960230Y-21947368D01*
X10951051Y-21927962D01*
X10943819Y-21907750D01*
X10938603Y-21886926D01*
X10935453Y-21865691D01*
X10934400Y-21844250D01*
X10934400Y-21331750D01*
X10935453Y-21310309D01*
X10938603Y-21289074D01*
X10943819Y-21268250D01*
X10951051Y-21248038D01*
X10960230Y-21228632D01*
X10971266Y-21210219D01*
X10984054Y-21192976D01*
X10998470Y-21177070D01*
X11014376Y-21162654D01*
X11031619Y-21149866D01*
X11050032Y-21138830D01*
X11069438Y-21129651D01*
X11089650Y-21122419D01*
X11110474Y-21117203D01*
X11131709Y-21114053D01*
X11153150Y-21113000D01*
X11590650Y-21113000D01*
X11612091Y-21114053D01*
G37*
G04 #@! TD.AperFunction*
G04 #@! TA.AperFunction,SMDPad,CuDef*
G36*
X13187091Y-21114053D02*
G01*
X13208326Y-21117203D01*
X13229150Y-21122419D01*
X13249362Y-21129651D01*
X13268768Y-21138830D01*
X13287181Y-21149866D01*
X13304424Y-21162654D01*
X13320330Y-21177070D01*
X13334746Y-21192976D01*
X13347534Y-21210219D01*
X13358570Y-21228632D01*
X13367749Y-21248038D01*
X13374981Y-21268250D01*
X13380197Y-21289074D01*
X13383347Y-21310309D01*
X13384400Y-21331750D01*
X13384400Y-21844250D01*
X13383347Y-21865691D01*
X13380197Y-21886926D01*
X13374981Y-21907750D01*
X13367749Y-21927962D01*
X13358570Y-21947368D01*
X13347534Y-21965781D01*
X13334746Y-21983024D01*
X13320330Y-21998930D01*
X13304424Y-22013346D01*
X13287181Y-22026134D01*
X13268768Y-22037170D01*
X13249362Y-22046349D01*
X13229150Y-22053581D01*
X13208326Y-22058797D01*
X13187091Y-22061947D01*
X13165650Y-22063000D01*
X12728150Y-22063000D01*
X12706709Y-22061947D01*
X12685474Y-22058797D01*
X12664650Y-22053581D01*
X12644438Y-22046349D01*
X12625032Y-22037170D01*
X12606619Y-22026134D01*
X12589376Y-22013346D01*
X12573470Y-21998930D01*
X12559054Y-21983024D01*
X12546266Y-21965781D01*
X12535230Y-21947368D01*
X12526051Y-21927962D01*
X12518819Y-21907750D01*
X12513603Y-21886926D01*
X12510453Y-21865691D01*
X12509400Y-21844250D01*
X12509400Y-21331750D01*
X12510453Y-21310309D01*
X12513603Y-21289074D01*
X12518819Y-21268250D01*
X12526051Y-21248038D01*
X12535230Y-21228632D01*
X12546266Y-21210219D01*
X12559054Y-21192976D01*
X12573470Y-21177070D01*
X12589376Y-21162654D01*
X12606619Y-21149866D01*
X12625032Y-21138830D01*
X12644438Y-21129651D01*
X12664650Y-21122419D01*
X12685474Y-21117203D01*
X12706709Y-21114053D01*
X12728150Y-21113000D01*
X13165650Y-21113000D01*
X13187091Y-21114053D01*
G37*
G04 #@! TD.AperFunction*
G04 #@! TA.AperFunction,SMDPad,CuDef*
G36*
X8685091Y-23748553D02*
G01*
X8706326Y-23751703D01*
X8727150Y-23756919D01*
X8747362Y-23764151D01*
X8766768Y-23773330D01*
X8785181Y-23784366D01*
X8802424Y-23797154D01*
X8818330Y-23811570D01*
X8832746Y-23827476D01*
X8845534Y-23844719D01*
X8856570Y-23863132D01*
X8865749Y-23882538D01*
X8872981Y-23902750D01*
X8878197Y-23923574D01*
X8881347Y-23944809D01*
X8882400Y-23966250D01*
X8882400Y-24403750D01*
X8881347Y-24425191D01*
X8878197Y-24446426D01*
X8872981Y-24467250D01*
X8865749Y-24487462D01*
X8856570Y-24506868D01*
X8845534Y-24525281D01*
X8832746Y-24542524D01*
X8818330Y-24558430D01*
X8802424Y-24572846D01*
X8785181Y-24585634D01*
X8766768Y-24596670D01*
X8747362Y-24605849D01*
X8727150Y-24613081D01*
X8706326Y-24618297D01*
X8685091Y-24621447D01*
X8663650Y-24622500D01*
X8151150Y-24622500D01*
X8129709Y-24621447D01*
X8108474Y-24618297D01*
X8087650Y-24613081D01*
X8067438Y-24605849D01*
X8048032Y-24596670D01*
X8029619Y-24585634D01*
X8012376Y-24572846D01*
X7996470Y-24558430D01*
X7982054Y-24542524D01*
X7969266Y-24525281D01*
X7958230Y-24506868D01*
X7949051Y-24487462D01*
X7941819Y-24467250D01*
X7936603Y-24446426D01*
X7933453Y-24425191D01*
X7932400Y-24403750D01*
X7932400Y-23966250D01*
X7933453Y-23944809D01*
X7936603Y-23923574D01*
X7941819Y-23902750D01*
X7949051Y-23882538D01*
X7958230Y-23863132D01*
X7969266Y-23844719D01*
X7982054Y-23827476D01*
X7996470Y-23811570D01*
X8012376Y-23797154D01*
X8029619Y-23784366D01*
X8048032Y-23773330D01*
X8067438Y-23764151D01*
X8087650Y-23756919D01*
X8108474Y-23751703D01*
X8129709Y-23748553D01*
X8151150Y-23747500D01*
X8663650Y-23747500D01*
X8685091Y-23748553D01*
G37*
G04 #@! TD.AperFunction*
G04 #@! TA.AperFunction,SMDPad,CuDef*
G36*
X8685091Y-22173553D02*
G01*
X8706326Y-22176703D01*
X8727150Y-22181919D01*
X8747362Y-22189151D01*
X8766768Y-22198330D01*
X8785181Y-22209366D01*
X8802424Y-22222154D01*
X8818330Y-22236570D01*
X8832746Y-22252476D01*
X8845534Y-22269719D01*
X8856570Y-22288132D01*
X8865749Y-22307538D01*
X8872981Y-22327750D01*
X8878197Y-22348574D01*
X8881347Y-22369809D01*
X8882400Y-22391250D01*
X8882400Y-22828750D01*
X8881347Y-22850191D01*
X8878197Y-22871426D01*
X8872981Y-22892250D01*
X8865749Y-22912462D01*
X8856570Y-22931868D01*
X8845534Y-22950281D01*
X8832746Y-22967524D01*
X8818330Y-22983430D01*
X8802424Y-22997846D01*
X8785181Y-23010634D01*
X8766768Y-23021670D01*
X8747362Y-23030849D01*
X8727150Y-23038081D01*
X8706326Y-23043297D01*
X8685091Y-23046447D01*
X8663650Y-23047500D01*
X8151150Y-23047500D01*
X8129709Y-23046447D01*
X8108474Y-23043297D01*
X8087650Y-23038081D01*
X8067438Y-23030849D01*
X8048032Y-23021670D01*
X8029619Y-23010634D01*
X8012376Y-22997846D01*
X7996470Y-22983430D01*
X7982054Y-22967524D01*
X7969266Y-22950281D01*
X7958230Y-22931868D01*
X7949051Y-22912462D01*
X7941819Y-22892250D01*
X7936603Y-22871426D01*
X7933453Y-22850191D01*
X7932400Y-22828750D01*
X7932400Y-22391250D01*
X7933453Y-22369809D01*
X7936603Y-22348574D01*
X7941819Y-22327750D01*
X7949051Y-22307538D01*
X7958230Y-22288132D01*
X7969266Y-22269719D01*
X7982054Y-22252476D01*
X7996470Y-22236570D01*
X8012376Y-22222154D01*
X8029619Y-22209366D01*
X8048032Y-22198330D01*
X8067438Y-22189151D01*
X8087650Y-22181919D01*
X8108474Y-22176703D01*
X8129709Y-22173553D01*
X8151150Y-22172500D01*
X8663650Y-22172500D01*
X8685091Y-22173553D01*
G37*
G04 #@! TD.AperFunction*
G04 #@! TA.AperFunction,SMDPad,CuDef*
G36*
X11612091Y-33114053D02*
G01*
X11633326Y-33117203D01*
X11654150Y-33122419D01*
X11674362Y-33129651D01*
X11693768Y-33138830D01*
X11712181Y-33149866D01*
X11729424Y-33162654D01*
X11745330Y-33177070D01*
X11759746Y-33192976D01*
X11772534Y-33210219D01*
X11783570Y-33228632D01*
X11792749Y-33248038D01*
X11799981Y-33268250D01*
X11805197Y-33289074D01*
X11808347Y-33310309D01*
X11809400Y-33331750D01*
X11809400Y-33844250D01*
X11808347Y-33865691D01*
X11805197Y-33886926D01*
X11799981Y-33907750D01*
X11792749Y-33927962D01*
X11783570Y-33947368D01*
X11772534Y-33965781D01*
X11759746Y-33983024D01*
X11745330Y-33998930D01*
X11729424Y-34013346D01*
X11712181Y-34026134D01*
X11693768Y-34037170D01*
X11674362Y-34046349D01*
X11654150Y-34053581D01*
X11633326Y-34058797D01*
X11612091Y-34061947D01*
X11590650Y-34063000D01*
X11153150Y-34063000D01*
X11131709Y-34061947D01*
X11110474Y-34058797D01*
X11089650Y-34053581D01*
X11069438Y-34046349D01*
X11050032Y-34037170D01*
X11031619Y-34026134D01*
X11014376Y-34013346D01*
X10998470Y-33998930D01*
X10984054Y-33983024D01*
X10971266Y-33965781D01*
X10960230Y-33947368D01*
X10951051Y-33927962D01*
X10943819Y-33907750D01*
X10938603Y-33886926D01*
X10935453Y-33865691D01*
X10934400Y-33844250D01*
X10934400Y-33331750D01*
X10935453Y-33310309D01*
X10938603Y-33289074D01*
X10943819Y-33268250D01*
X10951051Y-33248038D01*
X10960230Y-33228632D01*
X10971266Y-33210219D01*
X10984054Y-33192976D01*
X10998470Y-33177070D01*
X11014376Y-33162654D01*
X11031619Y-33149866D01*
X11050032Y-33138830D01*
X11069438Y-33129651D01*
X11089650Y-33122419D01*
X11110474Y-33117203D01*
X11131709Y-33114053D01*
X11153150Y-33113000D01*
X11590650Y-33113000D01*
X11612091Y-33114053D01*
G37*
G04 #@! TD.AperFunction*
G04 #@! TA.AperFunction,SMDPad,CuDef*
G36*
X13187091Y-33114053D02*
G01*
X13208326Y-33117203D01*
X13229150Y-33122419D01*
X13249362Y-33129651D01*
X13268768Y-33138830D01*
X13287181Y-33149866D01*
X13304424Y-33162654D01*
X13320330Y-33177070D01*
X13334746Y-33192976D01*
X13347534Y-33210219D01*
X13358570Y-33228632D01*
X13367749Y-33248038D01*
X13374981Y-33268250D01*
X13380197Y-33289074D01*
X13383347Y-33310309D01*
X13384400Y-33331750D01*
X13384400Y-33844250D01*
X13383347Y-33865691D01*
X13380197Y-33886926D01*
X13374981Y-33907750D01*
X13367749Y-33927962D01*
X13358570Y-33947368D01*
X13347534Y-33965781D01*
X13334746Y-33983024D01*
X13320330Y-33998930D01*
X13304424Y-34013346D01*
X13287181Y-34026134D01*
X13268768Y-34037170D01*
X13249362Y-34046349D01*
X13229150Y-34053581D01*
X13208326Y-34058797D01*
X13187091Y-34061947D01*
X13165650Y-34063000D01*
X12728150Y-34063000D01*
X12706709Y-34061947D01*
X12685474Y-34058797D01*
X12664650Y-34053581D01*
X12644438Y-34046349D01*
X12625032Y-34037170D01*
X12606619Y-34026134D01*
X12589376Y-34013346D01*
X12573470Y-33998930D01*
X12559054Y-33983024D01*
X12546266Y-33965781D01*
X12535230Y-33947368D01*
X12526051Y-33927962D01*
X12518819Y-33907750D01*
X12513603Y-33886926D01*
X12510453Y-33865691D01*
X12509400Y-33844250D01*
X12509400Y-33331750D01*
X12510453Y-33310309D01*
X12513603Y-33289074D01*
X12518819Y-33268250D01*
X12526051Y-33248038D01*
X12535230Y-33228632D01*
X12546266Y-33210219D01*
X12559054Y-33192976D01*
X12573470Y-33177070D01*
X12589376Y-33162654D01*
X12606619Y-33149866D01*
X12625032Y-33138830D01*
X12644438Y-33129651D01*
X12664650Y-33122419D01*
X12685474Y-33117203D01*
X12706709Y-33114053D01*
X12728150Y-33113000D01*
X13165650Y-33113000D01*
X13187091Y-33114053D01*
G37*
G04 #@! TD.AperFunction*
D11*
X12959400Y-40788000D03*
X12959400Y-41435700D03*
X12959400Y-42083400D03*
X11410000Y-42083400D03*
X11410000Y-41435700D03*
D12*
X11410000Y-40788000D03*
G04 #@! TA.AperFunction,SMDPad,CuDef*
D10*
G36*
X11612091Y-15114053D02*
G01*
X11633326Y-15117203D01*
X11654150Y-15122419D01*
X11674362Y-15129651D01*
X11693768Y-15138830D01*
X11712181Y-15149866D01*
X11729424Y-15162654D01*
X11745330Y-15177070D01*
X11759746Y-15192976D01*
X11772534Y-15210219D01*
X11783570Y-15228632D01*
X11792749Y-15248038D01*
X11799981Y-15268250D01*
X11805197Y-15289074D01*
X11808347Y-15310309D01*
X11809400Y-15331750D01*
X11809400Y-15844250D01*
X11808347Y-15865691D01*
X11805197Y-15886926D01*
X11799981Y-15907750D01*
X11792749Y-15927962D01*
X11783570Y-15947368D01*
X11772534Y-15965781D01*
X11759746Y-15983024D01*
X11745330Y-15998930D01*
X11729424Y-16013346D01*
X11712181Y-16026134D01*
X11693768Y-16037170D01*
X11674362Y-16046349D01*
X11654150Y-16053581D01*
X11633326Y-16058797D01*
X11612091Y-16061947D01*
X11590650Y-16063000D01*
X11153150Y-16063000D01*
X11131709Y-16061947D01*
X11110474Y-16058797D01*
X11089650Y-16053581D01*
X11069438Y-16046349D01*
X11050032Y-16037170D01*
X11031619Y-16026134D01*
X11014376Y-16013346D01*
X10998470Y-15998930D01*
X10984054Y-15983024D01*
X10971266Y-15965781D01*
X10960230Y-15947368D01*
X10951051Y-15927962D01*
X10943819Y-15907750D01*
X10938603Y-15886926D01*
X10935453Y-15865691D01*
X10934400Y-15844250D01*
X10934400Y-15331750D01*
X10935453Y-15310309D01*
X10938603Y-15289074D01*
X10943819Y-15268250D01*
X10951051Y-15248038D01*
X10960230Y-15228632D01*
X10971266Y-15210219D01*
X10984054Y-15192976D01*
X10998470Y-15177070D01*
X11014376Y-15162654D01*
X11031619Y-15149866D01*
X11050032Y-15138830D01*
X11069438Y-15129651D01*
X11089650Y-15122419D01*
X11110474Y-15117203D01*
X11131709Y-15114053D01*
X11153150Y-15113000D01*
X11590650Y-15113000D01*
X11612091Y-15114053D01*
G37*
G04 #@! TD.AperFunction*
G04 #@! TA.AperFunction,SMDPad,CuDef*
G36*
X13187091Y-15114053D02*
G01*
X13208326Y-15117203D01*
X13229150Y-15122419D01*
X13249362Y-15129651D01*
X13268768Y-15138830D01*
X13287181Y-15149866D01*
X13304424Y-15162654D01*
X13320330Y-15177070D01*
X13334746Y-15192976D01*
X13347534Y-15210219D01*
X13358570Y-15228632D01*
X13367749Y-15248038D01*
X13374981Y-15268250D01*
X13380197Y-15289074D01*
X13383347Y-15310309D01*
X13384400Y-15331750D01*
X13384400Y-15844250D01*
X13383347Y-15865691D01*
X13380197Y-15886926D01*
X13374981Y-15907750D01*
X13367749Y-15927962D01*
X13358570Y-15947368D01*
X13347534Y-15965781D01*
X13334746Y-15983024D01*
X13320330Y-15998930D01*
X13304424Y-16013346D01*
X13287181Y-16026134D01*
X13268768Y-16037170D01*
X13249362Y-16046349D01*
X13229150Y-16053581D01*
X13208326Y-16058797D01*
X13187091Y-16061947D01*
X13165650Y-16063000D01*
X12728150Y-16063000D01*
X12706709Y-16061947D01*
X12685474Y-16058797D01*
X12664650Y-16053581D01*
X12644438Y-16046349D01*
X12625032Y-16037170D01*
X12606619Y-16026134D01*
X12589376Y-16013346D01*
X12573470Y-15998930D01*
X12559054Y-15983024D01*
X12546266Y-15965781D01*
X12535230Y-15947368D01*
X12526051Y-15927962D01*
X12518819Y-15907750D01*
X12513603Y-15886926D01*
X12510453Y-15865691D01*
X12509400Y-15844250D01*
X12509400Y-15331750D01*
X12510453Y-15310309D01*
X12513603Y-15289074D01*
X12518819Y-15268250D01*
X12526051Y-15248038D01*
X12535230Y-15228632D01*
X12546266Y-15210219D01*
X12559054Y-15192976D01*
X12573470Y-15177070D01*
X12589376Y-15162654D01*
X12606619Y-15149866D01*
X12625032Y-15138830D01*
X12644438Y-15129651D01*
X12664650Y-15122419D01*
X12685474Y-15117203D01*
X12706709Y-15114053D01*
X12728150Y-15113000D01*
X13165650Y-15113000D01*
X13187091Y-15114053D01*
G37*
G04 #@! TD.AperFunction*
G04 #@! TA.AperFunction,SMDPad,CuDef*
G36*
X8685091Y-35748553D02*
G01*
X8706326Y-35751703D01*
X8727150Y-35756919D01*
X8747362Y-35764151D01*
X8766768Y-35773330D01*
X8785181Y-35784366D01*
X8802424Y-35797154D01*
X8818330Y-35811570D01*
X8832746Y-35827476D01*
X8845534Y-35844719D01*
X8856570Y-35863132D01*
X8865749Y-35882538D01*
X8872981Y-35902750D01*
X8878197Y-35923574D01*
X8881347Y-35944809D01*
X8882400Y-35966250D01*
X8882400Y-36403750D01*
X8881347Y-36425191D01*
X8878197Y-36446426D01*
X8872981Y-36467250D01*
X8865749Y-36487462D01*
X8856570Y-36506868D01*
X8845534Y-36525281D01*
X8832746Y-36542524D01*
X8818330Y-36558430D01*
X8802424Y-36572846D01*
X8785181Y-36585634D01*
X8766768Y-36596670D01*
X8747362Y-36605849D01*
X8727150Y-36613081D01*
X8706326Y-36618297D01*
X8685091Y-36621447D01*
X8663650Y-36622500D01*
X8151150Y-36622500D01*
X8129709Y-36621447D01*
X8108474Y-36618297D01*
X8087650Y-36613081D01*
X8067438Y-36605849D01*
X8048032Y-36596670D01*
X8029619Y-36585634D01*
X8012376Y-36572846D01*
X7996470Y-36558430D01*
X7982054Y-36542524D01*
X7969266Y-36525281D01*
X7958230Y-36506868D01*
X7949051Y-36487462D01*
X7941819Y-36467250D01*
X7936603Y-36446426D01*
X7933453Y-36425191D01*
X7932400Y-36403750D01*
X7932400Y-35966250D01*
X7933453Y-35944809D01*
X7936603Y-35923574D01*
X7941819Y-35902750D01*
X7949051Y-35882538D01*
X7958230Y-35863132D01*
X7969266Y-35844719D01*
X7982054Y-35827476D01*
X7996470Y-35811570D01*
X8012376Y-35797154D01*
X8029619Y-35784366D01*
X8048032Y-35773330D01*
X8067438Y-35764151D01*
X8087650Y-35756919D01*
X8108474Y-35751703D01*
X8129709Y-35748553D01*
X8151150Y-35747500D01*
X8663650Y-35747500D01*
X8685091Y-35748553D01*
G37*
G04 #@! TD.AperFunction*
G04 #@! TA.AperFunction,SMDPad,CuDef*
G36*
X8685091Y-34173553D02*
G01*
X8706326Y-34176703D01*
X8727150Y-34181919D01*
X8747362Y-34189151D01*
X8766768Y-34198330D01*
X8785181Y-34209366D01*
X8802424Y-34222154D01*
X8818330Y-34236570D01*
X8832746Y-34252476D01*
X8845534Y-34269719D01*
X8856570Y-34288132D01*
X8865749Y-34307538D01*
X8872981Y-34327750D01*
X8878197Y-34348574D01*
X8881347Y-34369809D01*
X8882400Y-34391250D01*
X8882400Y-34828750D01*
X8881347Y-34850191D01*
X8878197Y-34871426D01*
X8872981Y-34892250D01*
X8865749Y-34912462D01*
X8856570Y-34931868D01*
X8845534Y-34950281D01*
X8832746Y-34967524D01*
X8818330Y-34983430D01*
X8802424Y-34997846D01*
X8785181Y-35010634D01*
X8766768Y-35021670D01*
X8747362Y-35030849D01*
X8727150Y-35038081D01*
X8706326Y-35043297D01*
X8685091Y-35046447D01*
X8663650Y-35047500D01*
X8151150Y-35047500D01*
X8129709Y-35046447D01*
X8108474Y-35043297D01*
X8087650Y-35038081D01*
X8067438Y-35030849D01*
X8048032Y-35021670D01*
X8029619Y-35010634D01*
X8012376Y-34997846D01*
X7996470Y-34983430D01*
X7982054Y-34967524D01*
X7969266Y-34950281D01*
X7958230Y-34931868D01*
X7949051Y-34912462D01*
X7941819Y-34892250D01*
X7936603Y-34871426D01*
X7933453Y-34850191D01*
X7932400Y-34828750D01*
X7932400Y-34391250D01*
X7933453Y-34369809D01*
X7936603Y-34348574D01*
X7941819Y-34327750D01*
X7949051Y-34307538D01*
X7958230Y-34288132D01*
X7969266Y-34269719D01*
X7982054Y-34252476D01*
X7996470Y-34236570D01*
X8012376Y-34222154D01*
X8029619Y-34209366D01*
X8048032Y-34198330D01*
X8067438Y-34189151D01*
X8087650Y-34181919D01*
X8108474Y-34176703D01*
X8129709Y-34173553D01*
X8151150Y-34172500D01*
X8663650Y-34172500D01*
X8685091Y-34173553D01*
G37*
G04 #@! TD.AperFunction*
G04 #@! TA.AperFunction,SMDPad,CuDef*
G36*
X8685091Y-17748553D02*
G01*
X8706326Y-17751703D01*
X8727150Y-17756919D01*
X8747362Y-17764151D01*
X8766768Y-17773330D01*
X8785181Y-17784366D01*
X8802424Y-17797154D01*
X8818330Y-17811570D01*
X8832746Y-17827476D01*
X8845534Y-17844719D01*
X8856570Y-17863132D01*
X8865749Y-17882538D01*
X8872981Y-17902750D01*
X8878197Y-17923574D01*
X8881347Y-17944809D01*
X8882400Y-17966250D01*
X8882400Y-18403750D01*
X8881347Y-18425191D01*
X8878197Y-18446426D01*
X8872981Y-18467250D01*
X8865749Y-18487462D01*
X8856570Y-18506868D01*
X8845534Y-18525281D01*
X8832746Y-18542524D01*
X8818330Y-18558430D01*
X8802424Y-18572846D01*
X8785181Y-18585634D01*
X8766768Y-18596670D01*
X8747362Y-18605849D01*
X8727150Y-18613081D01*
X8706326Y-18618297D01*
X8685091Y-18621447D01*
X8663650Y-18622500D01*
X8151150Y-18622500D01*
X8129709Y-18621447D01*
X8108474Y-18618297D01*
X8087650Y-18613081D01*
X8067438Y-18605849D01*
X8048032Y-18596670D01*
X8029619Y-18585634D01*
X8012376Y-18572846D01*
X7996470Y-18558430D01*
X7982054Y-18542524D01*
X7969266Y-18525281D01*
X7958230Y-18506868D01*
X7949051Y-18487462D01*
X7941819Y-18467250D01*
X7936603Y-18446426D01*
X7933453Y-18425191D01*
X7932400Y-18403750D01*
X7932400Y-17966250D01*
X7933453Y-17944809D01*
X7936603Y-17923574D01*
X7941819Y-17902750D01*
X7949051Y-17882538D01*
X7958230Y-17863132D01*
X7969266Y-17844719D01*
X7982054Y-17827476D01*
X7996470Y-17811570D01*
X8012376Y-17797154D01*
X8029619Y-17784366D01*
X8048032Y-17773330D01*
X8067438Y-17764151D01*
X8087650Y-17756919D01*
X8108474Y-17751703D01*
X8129709Y-17748553D01*
X8151150Y-17747500D01*
X8663650Y-17747500D01*
X8685091Y-17748553D01*
G37*
G04 #@! TD.AperFunction*
G04 #@! TA.AperFunction,SMDPad,CuDef*
G36*
X8685091Y-16173553D02*
G01*
X8706326Y-16176703D01*
X8727150Y-16181919D01*
X8747362Y-16189151D01*
X8766768Y-16198330D01*
X8785181Y-16209366D01*
X8802424Y-16222154D01*
X8818330Y-16236570D01*
X8832746Y-16252476D01*
X8845534Y-16269719D01*
X8856570Y-16288132D01*
X8865749Y-16307538D01*
X8872981Y-16327750D01*
X8878197Y-16348574D01*
X8881347Y-16369809D01*
X8882400Y-16391250D01*
X8882400Y-16828750D01*
X8881347Y-16850191D01*
X8878197Y-16871426D01*
X8872981Y-16892250D01*
X8865749Y-16912462D01*
X8856570Y-16931868D01*
X8845534Y-16950281D01*
X8832746Y-16967524D01*
X8818330Y-16983430D01*
X8802424Y-16997846D01*
X8785181Y-17010634D01*
X8766768Y-17021670D01*
X8747362Y-17030849D01*
X8727150Y-17038081D01*
X8706326Y-17043297D01*
X8685091Y-17046447D01*
X8663650Y-17047500D01*
X8151150Y-17047500D01*
X8129709Y-17046447D01*
X8108474Y-17043297D01*
X8087650Y-17038081D01*
X8067438Y-17030849D01*
X8048032Y-17021670D01*
X8029619Y-17010634D01*
X8012376Y-16997846D01*
X7996470Y-16983430D01*
X7982054Y-16967524D01*
X7969266Y-16950281D01*
X7958230Y-16931868D01*
X7949051Y-16912462D01*
X7941819Y-16892250D01*
X7936603Y-16871426D01*
X7933453Y-16850191D01*
X7932400Y-16828750D01*
X7932400Y-16391250D01*
X7933453Y-16369809D01*
X7936603Y-16348574D01*
X7941819Y-16327750D01*
X7949051Y-16307538D01*
X7958230Y-16288132D01*
X7969266Y-16269719D01*
X7982054Y-16252476D01*
X7996470Y-16236570D01*
X8012376Y-16222154D01*
X8029619Y-16209366D01*
X8048032Y-16198330D01*
X8067438Y-16189151D01*
X8087650Y-16181919D01*
X8108474Y-16176703D01*
X8129709Y-16173553D01*
X8151150Y-16172500D01*
X8663650Y-16172500D01*
X8685091Y-16173553D01*
G37*
G04 #@! TD.AperFunction*
D11*
X12959400Y-22788000D03*
X12959400Y-23435700D03*
X12959400Y-24083400D03*
X11410000Y-24083400D03*
X11410000Y-23435700D03*
D12*
X11410000Y-22788000D03*
D11*
X12959400Y-16788000D03*
X12959400Y-17435700D03*
X12959400Y-18083400D03*
X11410000Y-18083400D03*
X11410000Y-17435700D03*
D12*
X11410000Y-16788000D03*
G04 #@! TA.AperFunction,SMDPad,CuDef*
D10*
G36*
X8685091Y-47748553D02*
G01*
X8706326Y-47751703D01*
X8727150Y-47756919D01*
X8747362Y-47764151D01*
X8766768Y-47773330D01*
X8785181Y-47784366D01*
X8802424Y-47797154D01*
X8818330Y-47811570D01*
X8832746Y-47827476D01*
X8845534Y-47844719D01*
X8856570Y-47863132D01*
X8865749Y-47882538D01*
X8872981Y-47902750D01*
X8878197Y-47923574D01*
X8881347Y-47944809D01*
X8882400Y-47966250D01*
X8882400Y-48403750D01*
X8881347Y-48425191D01*
X8878197Y-48446426D01*
X8872981Y-48467250D01*
X8865749Y-48487462D01*
X8856570Y-48506868D01*
X8845534Y-48525281D01*
X8832746Y-48542524D01*
X8818330Y-48558430D01*
X8802424Y-48572846D01*
X8785181Y-48585634D01*
X8766768Y-48596670D01*
X8747362Y-48605849D01*
X8727150Y-48613081D01*
X8706326Y-48618297D01*
X8685091Y-48621447D01*
X8663650Y-48622500D01*
X8151150Y-48622500D01*
X8129709Y-48621447D01*
X8108474Y-48618297D01*
X8087650Y-48613081D01*
X8067438Y-48605849D01*
X8048032Y-48596670D01*
X8029619Y-48585634D01*
X8012376Y-48572846D01*
X7996470Y-48558430D01*
X7982054Y-48542524D01*
X7969266Y-48525281D01*
X7958230Y-48506868D01*
X7949051Y-48487462D01*
X7941819Y-48467250D01*
X7936603Y-48446426D01*
X7933453Y-48425191D01*
X7932400Y-48403750D01*
X7932400Y-47966250D01*
X7933453Y-47944809D01*
X7936603Y-47923574D01*
X7941819Y-47902750D01*
X7949051Y-47882538D01*
X7958230Y-47863132D01*
X7969266Y-47844719D01*
X7982054Y-47827476D01*
X7996470Y-47811570D01*
X8012376Y-47797154D01*
X8029619Y-47784366D01*
X8048032Y-47773330D01*
X8067438Y-47764151D01*
X8087650Y-47756919D01*
X8108474Y-47751703D01*
X8129709Y-47748553D01*
X8151150Y-47747500D01*
X8663650Y-47747500D01*
X8685091Y-47748553D01*
G37*
G04 #@! TD.AperFunction*
G04 #@! TA.AperFunction,SMDPad,CuDef*
G36*
X8685091Y-46173553D02*
G01*
X8706326Y-46176703D01*
X8727150Y-46181919D01*
X8747362Y-46189151D01*
X8766768Y-46198330D01*
X8785181Y-46209366D01*
X8802424Y-46222154D01*
X8818330Y-46236570D01*
X8832746Y-46252476D01*
X8845534Y-46269719D01*
X8856570Y-46288132D01*
X8865749Y-46307538D01*
X8872981Y-46327750D01*
X8878197Y-46348574D01*
X8881347Y-46369809D01*
X8882400Y-46391250D01*
X8882400Y-46828750D01*
X8881347Y-46850191D01*
X8878197Y-46871426D01*
X8872981Y-46892250D01*
X8865749Y-46912462D01*
X8856570Y-46931868D01*
X8845534Y-46950281D01*
X8832746Y-46967524D01*
X8818330Y-46983430D01*
X8802424Y-46997846D01*
X8785181Y-47010634D01*
X8766768Y-47021670D01*
X8747362Y-47030849D01*
X8727150Y-47038081D01*
X8706326Y-47043297D01*
X8685091Y-47046447D01*
X8663650Y-47047500D01*
X8151150Y-47047500D01*
X8129709Y-47046447D01*
X8108474Y-47043297D01*
X8087650Y-47038081D01*
X8067438Y-47030849D01*
X8048032Y-47021670D01*
X8029619Y-47010634D01*
X8012376Y-46997846D01*
X7996470Y-46983430D01*
X7982054Y-46967524D01*
X7969266Y-46950281D01*
X7958230Y-46931868D01*
X7949051Y-46912462D01*
X7941819Y-46892250D01*
X7936603Y-46871426D01*
X7933453Y-46850191D01*
X7932400Y-46828750D01*
X7932400Y-46391250D01*
X7933453Y-46369809D01*
X7936603Y-46348574D01*
X7941819Y-46327750D01*
X7949051Y-46307538D01*
X7958230Y-46288132D01*
X7969266Y-46269719D01*
X7982054Y-46252476D01*
X7996470Y-46236570D01*
X8012376Y-46222154D01*
X8029619Y-46209366D01*
X8048032Y-46198330D01*
X8067438Y-46189151D01*
X8087650Y-46181919D01*
X8108474Y-46176703D01*
X8129709Y-46173553D01*
X8151150Y-46172500D01*
X8663650Y-46172500D01*
X8685091Y-46173553D01*
G37*
G04 #@! TD.AperFunction*
G04 #@! TA.AperFunction,SMDPad,CuDef*
G36*
X11612091Y-39114053D02*
G01*
X11633326Y-39117203D01*
X11654150Y-39122419D01*
X11674362Y-39129651D01*
X11693768Y-39138830D01*
X11712181Y-39149866D01*
X11729424Y-39162654D01*
X11745330Y-39177070D01*
X11759746Y-39192976D01*
X11772534Y-39210219D01*
X11783570Y-39228632D01*
X11792749Y-39248038D01*
X11799981Y-39268250D01*
X11805197Y-39289074D01*
X11808347Y-39310309D01*
X11809400Y-39331750D01*
X11809400Y-39844250D01*
X11808347Y-39865691D01*
X11805197Y-39886926D01*
X11799981Y-39907750D01*
X11792749Y-39927962D01*
X11783570Y-39947368D01*
X11772534Y-39965781D01*
X11759746Y-39983024D01*
X11745330Y-39998930D01*
X11729424Y-40013346D01*
X11712181Y-40026134D01*
X11693768Y-40037170D01*
X11674362Y-40046349D01*
X11654150Y-40053581D01*
X11633326Y-40058797D01*
X11612091Y-40061947D01*
X11590650Y-40063000D01*
X11153150Y-40063000D01*
X11131709Y-40061947D01*
X11110474Y-40058797D01*
X11089650Y-40053581D01*
X11069438Y-40046349D01*
X11050032Y-40037170D01*
X11031619Y-40026134D01*
X11014376Y-40013346D01*
X10998470Y-39998930D01*
X10984054Y-39983024D01*
X10971266Y-39965781D01*
X10960230Y-39947368D01*
X10951051Y-39927962D01*
X10943819Y-39907750D01*
X10938603Y-39886926D01*
X10935453Y-39865691D01*
X10934400Y-39844250D01*
X10934400Y-39331750D01*
X10935453Y-39310309D01*
X10938603Y-39289074D01*
X10943819Y-39268250D01*
X10951051Y-39248038D01*
X10960230Y-39228632D01*
X10971266Y-39210219D01*
X10984054Y-39192976D01*
X10998470Y-39177070D01*
X11014376Y-39162654D01*
X11031619Y-39149866D01*
X11050032Y-39138830D01*
X11069438Y-39129651D01*
X11089650Y-39122419D01*
X11110474Y-39117203D01*
X11131709Y-39114053D01*
X11153150Y-39113000D01*
X11590650Y-39113000D01*
X11612091Y-39114053D01*
G37*
G04 #@! TD.AperFunction*
G04 #@! TA.AperFunction,SMDPad,CuDef*
G36*
X13187091Y-39114053D02*
G01*
X13208326Y-39117203D01*
X13229150Y-39122419D01*
X13249362Y-39129651D01*
X13268768Y-39138830D01*
X13287181Y-39149866D01*
X13304424Y-39162654D01*
X13320330Y-39177070D01*
X13334746Y-39192976D01*
X13347534Y-39210219D01*
X13358570Y-39228632D01*
X13367749Y-39248038D01*
X13374981Y-39268250D01*
X13380197Y-39289074D01*
X13383347Y-39310309D01*
X13384400Y-39331750D01*
X13384400Y-39844250D01*
X13383347Y-39865691D01*
X13380197Y-39886926D01*
X13374981Y-39907750D01*
X13367749Y-39927962D01*
X13358570Y-39947368D01*
X13347534Y-39965781D01*
X13334746Y-39983024D01*
X13320330Y-39998930D01*
X13304424Y-40013346D01*
X13287181Y-40026134D01*
X13268768Y-40037170D01*
X13249362Y-40046349D01*
X13229150Y-40053581D01*
X13208326Y-40058797D01*
X13187091Y-40061947D01*
X13165650Y-40063000D01*
X12728150Y-40063000D01*
X12706709Y-40061947D01*
X12685474Y-40058797D01*
X12664650Y-40053581D01*
X12644438Y-40046349D01*
X12625032Y-40037170D01*
X12606619Y-40026134D01*
X12589376Y-40013346D01*
X12573470Y-39998930D01*
X12559054Y-39983024D01*
X12546266Y-39965781D01*
X12535230Y-39947368D01*
X12526051Y-39927962D01*
X12518819Y-39907750D01*
X12513603Y-39886926D01*
X12510453Y-39865691D01*
X12509400Y-39844250D01*
X12509400Y-39331750D01*
X12510453Y-39310309D01*
X12513603Y-39289074D01*
X12518819Y-39268250D01*
X12526051Y-39248038D01*
X12535230Y-39228632D01*
X12546266Y-39210219D01*
X12559054Y-39192976D01*
X12573470Y-39177070D01*
X12589376Y-39162654D01*
X12606619Y-39149866D01*
X12625032Y-39138830D01*
X12644438Y-39129651D01*
X12664650Y-39122419D01*
X12685474Y-39117203D01*
X12706709Y-39114053D01*
X12728150Y-39113000D01*
X13165650Y-39113000D01*
X13187091Y-39114053D01*
G37*
G04 #@! TD.AperFunction*
G04 #@! TA.AperFunction,SMDPad,CuDef*
G36*
X8685091Y-29748553D02*
G01*
X8706326Y-29751703D01*
X8727150Y-29756919D01*
X8747362Y-29764151D01*
X8766768Y-29773330D01*
X8785181Y-29784366D01*
X8802424Y-29797154D01*
X8818330Y-29811570D01*
X8832746Y-29827476D01*
X8845534Y-29844719D01*
X8856570Y-29863132D01*
X8865749Y-29882538D01*
X8872981Y-29902750D01*
X8878197Y-29923574D01*
X8881347Y-29944809D01*
X8882400Y-29966250D01*
X8882400Y-30403750D01*
X8881347Y-30425191D01*
X8878197Y-30446426D01*
X8872981Y-30467250D01*
X8865749Y-30487462D01*
X8856570Y-30506868D01*
X8845534Y-30525281D01*
X8832746Y-30542524D01*
X8818330Y-30558430D01*
X8802424Y-30572846D01*
X8785181Y-30585634D01*
X8766768Y-30596670D01*
X8747362Y-30605849D01*
X8727150Y-30613081D01*
X8706326Y-30618297D01*
X8685091Y-30621447D01*
X8663650Y-30622500D01*
X8151150Y-30622500D01*
X8129709Y-30621447D01*
X8108474Y-30618297D01*
X8087650Y-30613081D01*
X8067438Y-30605849D01*
X8048032Y-30596670D01*
X8029619Y-30585634D01*
X8012376Y-30572846D01*
X7996470Y-30558430D01*
X7982054Y-30542524D01*
X7969266Y-30525281D01*
X7958230Y-30506868D01*
X7949051Y-30487462D01*
X7941819Y-30467250D01*
X7936603Y-30446426D01*
X7933453Y-30425191D01*
X7932400Y-30403750D01*
X7932400Y-29966250D01*
X7933453Y-29944809D01*
X7936603Y-29923574D01*
X7941819Y-29902750D01*
X7949051Y-29882538D01*
X7958230Y-29863132D01*
X7969266Y-29844719D01*
X7982054Y-29827476D01*
X7996470Y-29811570D01*
X8012376Y-29797154D01*
X8029619Y-29784366D01*
X8048032Y-29773330D01*
X8067438Y-29764151D01*
X8087650Y-29756919D01*
X8108474Y-29751703D01*
X8129709Y-29748553D01*
X8151150Y-29747500D01*
X8663650Y-29747500D01*
X8685091Y-29748553D01*
G37*
G04 #@! TD.AperFunction*
G04 #@! TA.AperFunction,SMDPad,CuDef*
G36*
X8685091Y-28173553D02*
G01*
X8706326Y-28176703D01*
X8727150Y-28181919D01*
X8747362Y-28189151D01*
X8766768Y-28198330D01*
X8785181Y-28209366D01*
X8802424Y-28222154D01*
X8818330Y-28236570D01*
X8832746Y-28252476D01*
X8845534Y-28269719D01*
X8856570Y-28288132D01*
X8865749Y-28307538D01*
X8872981Y-28327750D01*
X8878197Y-28348574D01*
X8881347Y-28369809D01*
X8882400Y-28391250D01*
X8882400Y-28828750D01*
X8881347Y-28850191D01*
X8878197Y-28871426D01*
X8872981Y-28892250D01*
X8865749Y-28912462D01*
X8856570Y-28931868D01*
X8845534Y-28950281D01*
X8832746Y-28967524D01*
X8818330Y-28983430D01*
X8802424Y-28997846D01*
X8785181Y-29010634D01*
X8766768Y-29021670D01*
X8747362Y-29030849D01*
X8727150Y-29038081D01*
X8706326Y-29043297D01*
X8685091Y-29046447D01*
X8663650Y-29047500D01*
X8151150Y-29047500D01*
X8129709Y-29046447D01*
X8108474Y-29043297D01*
X8087650Y-29038081D01*
X8067438Y-29030849D01*
X8048032Y-29021670D01*
X8029619Y-29010634D01*
X8012376Y-28997846D01*
X7996470Y-28983430D01*
X7982054Y-28967524D01*
X7969266Y-28950281D01*
X7958230Y-28931868D01*
X7949051Y-28912462D01*
X7941819Y-28892250D01*
X7936603Y-28871426D01*
X7933453Y-28850191D01*
X7932400Y-28828750D01*
X7932400Y-28391250D01*
X7933453Y-28369809D01*
X7936603Y-28348574D01*
X7941819Y-28327750D01*
X7949051Y-28307538D01*
X7958230Y-28288132D01*
X7969266Y-28269719D01*
X7982054Y-28252476D01*
X7996470Y-28236570D01*
X8012376Y-28222154D01*
X8029619Y-28209366D01*
X8048032Y-28198330D01*
X8067438Y-28189151D01*
X8087650Y-28181919D01*
X8108474Y-28176703D01*
X8129709Y-28173553D01*
X8151150Y-28172500D01*
X8663650Y-28172500D01*
X8685091Y-28173553D01*
G37*
G04 #@! TD.AperFunction*
G04 #@! TA.AperFunction,SMDPad,CuDef*
G36*
X10857291Y-44941253D02*
G01*
X10878526Y-44944403D01*
X10899350Y-44949619D01*
X10919562Y-44956851D01*
X10938968Y-44966030D01*
X10957381Y-44977066D01*
X10974624Y-44989854D01*
X10990530Y-45004270D01*
X11004946Y-45020176D01*
X11017734Y-45037419D01*
X11028770Y-45055832D01*
X11037949Y-45075238D01*
X11045181Y-45095450D01*
X11050397Y-45116274D01*
X11053547Y-45137509D01*
X11054600Y-45158950D01*
X11054600Y-45671450D01*
X11053547Y-45692891D01*
X11050397Y-45714126D01*
X11045181Y-45734950D01*
X11037949Y-45755162D01*
X11028770Y-45774568D01*
X11017734Y-45792981D01*
X11004946Y-45810224D01*
X10990530Y-45826130D01*
X10974624Y-45840546D01*
X10957381Y-45853334D01*
X10938968Y-45864370D01*
X10919562Y-45873549D01*
X10899350Y-45880781D01*
X10878526Y-45885997D01*
X10857291Y-45889147D01*
X10835850Y-45890200D01*
X10398350Y-45890200D01*
X10376909Y-45889147D01*
X10355674Y-45885997D01*
X10334850Y-45880781D01*
X10314638Y-45873549D01*
X10295232Y-45864370D01*
X10276819Y-45853334D01*
X10259576Y-45840546D01*
X10243670Y-45826130D01*
X10229254Y-45810224D01*
X10216466Y-45792981D01*
X10205430Y-45774568D01*
X10196251Y-45755162D01*
X10189019Y-45734950D01*
X10183803Y-45714126D01*
X10180653Y-45692891D01*
X10179600Y-45671450D01*
X10179600Y-45158950D01*
X10180653Y-45137509D01*
X10183803Y-45116274D01*
X10189019Y-45095450D01*
X10196251Y-45075238D01*
X10205430Y-45055832D01*
X10216466Y-45037419D01*
X10229254Y-45020176D01*
X10243670Y-45004270D01*
X10259576Y-44989854D01*
X10276819Y-44977066D01*
X10295232Y-44966030D01*
X10314638Y-44956851D01*
X10334850Y-44949619D01*
X10355674Y-44944403D01*
X10376909Y-44941253D01*
X10398350Y-44940200D01*
X10835850Y-44940200D01*
X10857291Y-44941253D01*
G37*
G04 #@! TD.AperFunction*
G04 #@! TA.AperFunction,SMDPad,CuDef*
G36*
X12432291Y-44941253D02*
G01*
X12453526Y-44944403D01*
X12474350Y-44949619D01*
X12494562Y-44956851D01*
X12513968Y-44966030D01*
X12532381Y-44977066D01*
X12549624Y-44989854D01*
X12565530Y-45004270D01*
X12579946Y-45020176D01*
X12592734Y-45037419D01*
X12603770Y-45055832D01*
X12612949Y-45075238D01*
X12620181Y-45095450D01*
X12625397Y-45116274D01*
X12628547Y-45137509D01*
X12629600Y-45158950D01*
X12629600Y-45671450D01*
X12628547Y-45692891D01*
X12625397Y-45714126D01*
X12620181Y-45734950D01*
X12612949Y-45755162D01*
X12603770Y-45774568D01*
X12592734Y-45792981D01*
X12579946Y-45810224D01*
X12565530Y-45826130D01*
X12549624Y-45840546D01*
X12532381Y-45853334D01*
X12513968Y-45864370D01*
X12494562Y-45873549D01*
X12474350Y-45880781D01*
X12453526Y-45885997D01*
X12432291Y-45889147D01*
X12410850Y-45890200D01*
X11973350Y-45890200D01*
X11951909Y-45889147D01*
X11930674Y-45885997D01*
X11909850Y-45880781D01*
X11889638Y-45873549D01*
X11870232Y-45864370D01*
X11851819Y-45853334D01*
X11834576Y-45840546D01*
X11818670Y-45826130D01*
X11804254Y-45810224D01*
X11791466Y-45792981D01*
X11780430Y-45774568D01*
X11771251Y-45755162D01*
X11764019Y-45734950D01*
X11758803Y-45714126D01*
X11755653Y-45692891D01*
X11754600Y-45671450D01*
X11754600Y-45158950D01*
X11755653Y-45137509D01*
X11758803Y-45116274D01*
X11764019Y-45095450D01*
X11771251Y-45075238D01*
X11780430Y-45055832D01*
X11791466Y-45037419D01*
X11804254Y-45020176D01*
X11818670Y-45004270D01*
X11834576Y-44989854D01*
X11851819Y-44977066D01*
X11870232Y-44966030D01*
X11889638Y-44956851D01*
X11909850Y-44949619D01*
X11930674Y-44944403D01*
X11951909Y-44941253D01*
X11973350Y-44940200D01*
X12410850Y-44940200D01*
X12432291Y-44941253D01*
G37*
G04 #@! TD.AperFunction*
G04 #@! TA.AperFunction,SMDPad,CuDef*
G36*
X8685091Y-41748553D02*
G01*
X8706326Y-41751703D01*
X8727150Y-41756919D01*
X8747362Y-41764151D01*
X8766768Y-41773330D01*
X8785181Y-41784366D01*
X8802424Y-41797154D01*
X8818330Y-41811570D01*
X8832746Y-41827476D01*
X8845534Y-41844719D01*
X8856570Y-41863132D01*
X8865749Y-41882538D01*
X8872981Y-41902750D01*
X8878197Y-41923574D01*
X8881347Y-41944809D01*
X8882400Y-41966250D01*
X8882400Y-42403750D01*
X8881347Y-42425191D01*
X8878197Y-42446426D01*
X8872981Y-42467250D01*
X8865749Y-42487462D01*
X8856570Y-42506868D01*
X8845534Y-42525281D01*
X8832746Y-42542524D01*
X8818330Y-42558430D01*
X8802424Y-42572846D01*
X8785181Y-42585634D01*
X8766768Y-42596670D01*
X8747362Y-42605849D01*
X8727150Y-42613081D01*
X8706326Y-42618297D01*
X8685091Y-42621447D01*
X8663650Y-42622500D01*
X8151150Y-42622500D01*
X8129709Y-42621447D01*
X8108474Y-42618297D01*
X8087650Y-42613081D01*
X8067438Y-42605849D01*
X8048032Y-42596670D01*
X8029619Y-42585634D01*
X8012376Y-42572846D01*
X7996470Y-42558430D01*
X7982054Y-42542524D01*
X7969266Y-42525281D01*
X7958230Y-42506868D01*
X7949051Y-42487462D01*
X7941819Y-42467250D01*
X7936603Y-42446426D01*
X7933453Y-42425191D01*
X7932400Y-42403750D01*
X7932400Y-41966250D01*
X7933453Y-41944809D01*
X7936603Y-41923574D01*
X7941819Y-41902750D01*
X7949051Y-41882538D01*
X7958230Y-41863132D01*
X7969266Y-41844719D01*
X7982054Y-41827476D01*
X7996470Y-41811570D01*
X8012376Y-41797154D01*
X8029619Y-41784366D01*
X8048032Y-41773330D01*
X8067438Y-41764151D01*
X8087650Y-41756919D01*
X8108474Y-41751703D01*
X8129709Y-41748553D01*
X8151150Y-41747500D01*
X8663650Y-41747500D01*
X8685091Y-41748553D01*
G37*
G04 #@! TD.AperFunction*
G04 #@! TA.AperFunction,SMDPad,CuDef*
G36*
X8685091Y-40173553D02*
G01*
X8706326Y-40176703D01*
X8727150Y-40181919D01*
X8747362Y-40189151D01*
X8766768Y-40198330D01*
X8785181Y-40209366D01*
X8802424Y-40222154D01*
X8818330Y-40236570D01*
X8832746Y-40252476D01*
X8845534Y-40269719D01*
X8856570Y-40288132D01*
X8865749Y-40307538D01*
X8872981Y-40327750D01*
X8878197Y-40348574D01*
X8881347Y-40369809D01*
X8882400Y-40391250D01*
X8882400Y-40828750D01*
X8881347Y-40850191D01*
X8878197Y-40871426D01*
X8872981Y-40892250D01*
X8865749Y-40912462D01*
X8856570Y-40931868D01*
X8845534Y-40950281D01*
X8832746Y-40967524D01*
X8818330Y-40983430D01*
X8802424Y-40997846D01*
X8785181Y-41010634D01*
X8766768Y-41021670D01*
X8747362Y-41030849D01*
X8727150Y-41038081D01*
X8706326Y-41043297D01*
X8685091Y-41046447D01*
X8663650Y-41047500D01*
X8151150Y-41047500D01*
X8129709Y-41046447D01*
X8108474Y-41043297D01*
X8087650Y-41038081D01*
X8067438Y-41030849D01*
X8048032Y-41021670D01*
X8029619Y-41010634D01*
X8012376Y-40997846D01*
X7996470Y-40983430D01*
X7982054Y-40967524D01*
X7969266Y-40950281D01*
X7958230Y-40931868D01*
X7949051Y-40912462D01*
X7941819Y-40892250D01*
X7936603Y-40871426D01*
X7933453Y-40850191D01*
X7932400Y-40828750D01*
X7932400Y-40391250D01*
X7933453Y-40369809D01*
X7936603Y-40348574D01*
X7941819Y-40327750D01*
X7949051Y-40307538D01*
X7958230Y-40288132D01*
X7969266Y-40269719D01*
X7982054Y-40252476D01*
X7996470Y-40236570D01*
X8012376Y-40222154D01*
X8029619Y-40209366D01*
X8048032Y-40198330D01*
X8067438Y-40189151D01*
X8087650Y-40181919D01*
X8108474Y-40176703D01*
X8129709Y-40173553D01*
X8151150Y-40172500D01*
X8663650Y-40172500D01*
X8685091Y-40173553D01*
G37*
G04 #@! TD.AperFunction*
G04 #@! TA.AperFunction,SMDPad,CuDef*
G36*
X11612091Y-27114053D02*
G01*
X11633326Y-27117203D01*
X11654150Y-27122419D01*
X11674362Y-27129651D01*
X11693768Y-27138830D01*
X11712181Y-27149866D01*
X11729424Y-27162654D01*
X11745330Y-27177070D01*
X11759746Y-27192976D01*
X11772534Y-27210219D01*
X11783570Y-27228632D01*
X11792749Y-27248038D01*
X11799981Y-27268250D01*
X11805197Y-27289074D01*
X11808347Y-27310309D01*
X11809400Y-27331750D01*
X11809400Y-27844250D01*
X11808347Y-27865691D01*
X11805197Y-27886926D01*
X11799981Y-27907750D01*
X11792749Y-27927962D01*
X11783570Y-27947368D01*
X11772534Y-27965781D01*
X11759746Y-27983024D01*
X11745330Y-27998930D01*
X11729424Y-28013346D01*
X11712181Y-28026134D01*
X11693768Y-28037170D01*
X11674362Y-28046349D01*
X11654150Y-28053581D01*
X11633326Y-28058797D01*
X11612091Y-28061947D01*
X11590650Y-28063000D01*
X11153150Y-28063000D01*
X11131709Y-28061947D01*
X11110474Y-28058797D01*
X11089650Y-28053581D01*
X11069438Y-28046349D01*
X11050032Y-28037170D01*
X11031619Y-28026134D01*
X11014376Y-28013346D01*
X10998470Y-27998930D01*
X10984054Y-27983024D01*
X10971266Y-27965781D01*
X10960230Y-27947368D01*
X10951051Y-27927962D01*
X10943819Y-27907750D01*
X10938603Y-27886926D01*
X10935453Y-27865691D01*
X10934400Y-27844250D01*
X10934400Y-27331750D01*
X10935453Y-27310309D01*
X10938603Y-27289074D01*
X10943819Y-27268250D01*
X10951051Y-27248038D01*
X10960230Y-27228632D01*
X10971266Y-27210219D01*
X10984054Y-27192976D01*
X10998470Y-27177070D01*
X11014376Y-27162654D01*
X11031619Y-27149866D01*
X11050032Y-27138830D01*
X11069438Y-27129651D01*
X11089650Y-27122419D01*
X11110474Y-27117203D01*
X11131709Y-27114053D01*
X11153150Y-27113000D01*
X11590650Y-27113000D01*
X11612091Y-27114053D01*
G37*
G04 #@! TD.AperFunction*
G04 #@! TA.AperFunction,SMDPad,CuDef*
G36*
X13187091Y-27114053D02*
G01*
X13208326Y-27117203D01*
X13229150Y-27122419D01*
X13249362Y-27129651D01*
X13268768Y-27138830D01*
X13287181Y-27149866D01*
X13304424Y-27162654D01*
X13320330Y-27177070D01*
X13334746Y-27192976D01*
X13347534Y-27210219D01*
X13358570Y-27228632D01*
X13367749Y-27248038D01*
X13374981Y-27268250D01*
X13380197Y-27289074D01*
X13383347Y-27310309D01*
X13384400Y-27331750D01*
X13384400Y-27844250D01*
X13383347Y-27865691D01*
X13380197Y-27886926D01*
X13374981Y-27907750D01*
X13367749Y-27927962D01*
X13358570Y-27947368D01*
X13347534Y-27965781D01*
X13334746Y-27983024D01*
X13320330Y-27998930D01*
X13304424Y-28013346D01*
X13287181Y-28026134D01*
X13268768Y-28037170D01*
X13249362Y-28046349D01*
X13229150Y-28053581D01*
X13208326Y-28058797D01*
X13187091Y-28061947D01*
X13165650Y-28063000D01*
X12728150Y-28063000D01*
X12706709Y-28061947D01*
X12685474Y-28058797D01*
X12664650Y-28053581D01*
X12644438Y-28046349D01*
X12625032Y-28037170D01*
X12606619Y-28026134D01*
X12589376Y-28013346D01*
X12573470Y-27998930D01*
X12559054Y-27983024D01*
X12546266Y-27965781D01*
X12535230Y-27947368D01*
X12526051Y-27927962D01*
X12518819Y-27907750D01*
X12513603Y-27886926D01*
X12510453Y-27865691D01*
X12509400Y-27844250D01*
X12509400Y-27331750D01*
X12510453Y-27310309D01*
X12513603Y-27289074D01*
X12518819Y-27268250D01*
X12526051Y-27248038D01*
X12535230Y-27228632D01*
X12546266Y-27210219D01*
X12559054Y-27192976D01*
X12573470Y-27177070D01*
X12589376Y-27162654D01*
X12606619Y-27149866D01*
X12625032Y-27138830D01*
X12644438Y-27129651D01*
X12664650Y-27122419D01*
X12685474Y-27117203D01*
X12706709Y-27114053D01*
X12728150Y-27113000D01*
X13165650Y-27113000D01*
X13187091Y-27114053D01*
G37*
G04 #@! TD.AperFunction*
D17*
X10128600Y-37435700D03*
X14133900Y-45435700D03*
X10179400Y-7435700D03*
X14184700Y-15435700D03*
D18*
X8407400Y-42673382D02*
X8407400Y-42622500D01*
X7323622Y-7810500D02*
X6121400Y-7810500D01*
X6121400Y-32448500D02*
X6121400Y-38354000D01*
D19*
X26365150Y-15494000D02*
X24922480Y-15494000D01*
D18*
X6121400Y-32448500D02*
X6581400Y-32448500D01*
X8509000Y-18083400D02*
X8407400Y-18185000D01*
X11410000Y-18083400D02*
X8509000Y-18083400D01*
X6121400Y-38354000D02*
X6675900Y-38354000D01*
X8407400Y-48641000D02*
X8407400Y-48185000D01*
X6121400Y-44513500D02*
X6121400Y-50927000D01*
X8509000Y-36083400D02*
X8407400Y-36185000D01*
X8407400Y-18185000D02*
X8407400Y-18726722D01*
X8407400Y-12185000D02*
X8407400Y-12726722D01*
X6675900Y-38354000D02*
X8407400Y-36622500D01*
X8407400Y-36622500D02*
X8407400Y-36185000D01*
X6121400Y-14668500D02*
X6121400Y-20510500D01*
X11410000Y-36083400D02*
X8509000Y-36083400D01*
X8509000Y-24083400D02*
X8407400Y-24185000D01*
X11410000Y-24083400D02*
X8509000Y-24083400D01*
X6121400Y-20510500D02*
X6121400Y-26416000D01*
X8407400Y-30185000D02*
X8407400Y-30726722D01*
X11410000Y-12083400D02*
X8509000Y-12083400D01*
X6121400Y-26416000D02*
X6613900Y-26416000D01*
X6121400Y-20510500D02*
X6519400Y-20510500D01*
X11410000Y-6083400D02*
X8509000Y-6083400D01*
X8509000Y-30083400D02*
X8407400Y-30185000D01*
X6519400Y-20510500D02*
X8407400Y-18622500D01*
X6121400Y-50927000D02*
X8407400Y-48641000D01*
X8407400Y-24622500D02*
X8407400Y-24185000D01*
X6121400Y-26416000D02*
X6121400Y-32448500D01*
X6121400Y-38354000D02*
X6121400Y-44513500D01*
X8407400Y-18622500D02*
X8407400Y-18185000D01*
X6121400Y-44513500D02*
X6567282Y-44513500D01*
X6567282Y-44513500D02*
X8407400Y-42673382D01*
X8407400Y-42622500D02*
X8407400Y-42185000D01*
X8407400Y-30622500D02*
X8407400Y-30185000D01*
X6581400Y-32448500D02*
X8407400Y-30622500D01*
X6361400Y-14668500D02*
X8407400Y-12622500D01*
X8407400Y-12622500D02*
X8407400Y-12185000D01*
X6613900Y-26416000D02*
X8407400Y-24622500D01*
X8407400Y-42185000D02*
X8407400Y-42726722D01*
X8407400Y-24185000D02*
X8407400Y-24726722D01*
X11410000Y-30083400D02*
X8509000Y-30083400D01*
D19*
X27688540Y-16817390D02*
X26365150Y-15494000D01*
D18*
X8509000Y-42083400D02*
X8407400Y-42185000D01*
X11410000Y-48083400D02*
X8509000Y-48083400D01*
D19*
X27688540Y-17716500D02*
X27688540Y-16817390D01*
D18*
X6121400Y-7810500D02*
X6121400Y-14668500D01*
X6121400Y-14668500D02*
X6361400Y-14668500D01*
X8509000Y-12083400D02*
X8407400Y-12185000D01*
X8407400Y-48185000D02*
X8407400Y-48726722D01*
X8509000Y-6083400D02*
X8407400Y-6185000D01*
X8407400Y-6185000D02*
X8407400Y-6726722D01*
X8407400Y-6726722D02*
X7323622Y-7810500D01*
X8407400Y-36185000D02*
X8407400Y-36726722D01*
X11410000Y-42083400D02*
X8509000Y-42083400D01*
X8509000Y-48083400D02*
X8407400Y-48185000D01*
X4167338Y-22635500D02*
X2946400Y-23856438D01*
X4167338Y-34635500D02*
X2946400Y-35856438D01*
D19*
X5148580Y-3636060D02*
X6071650Y-2712990D01*
X5148580Y-4635500D02*
X5148580Y-3636060D01*
X23022609Y-10128149D02*
X23022610Y-11929160D01*
D18*
X4167338Y-16635500D02*
X2946400Y-17856438D01*
X5148580Y-10635500D02*
X4167338Y-10635500D01*
X5148580Y-22635500D02*
X4167338Y-22635500D01*
X5148580Y-34635500D02*
X4167338Y-34635500D01*
X5148580Y-4635500D02*
X4167338Y-4635500D01*
D19*
X29385260Y-18928860D02*
X30059400Y-19603000D01*
D18*
X4167338Y-46635500D02*
X2946400Y-47856438D01*
X4167338Y-4635500D02*
X2946400Y-5856438D01*
X5148580Y-28635500D02*
X4167338Y-28635500D01*
X4167338Y-28635500D02*
X2946400Y-29856438D01*
D19*
X23022610Y-11929160D02*
X24047450Y-12954000D01*
X15607450Y-2712990D02*
X23022609Y-10128149D01*
D18*
X5148580Y-40635500D02*
X4167338Y-40635500D01*
X4167338Y-40635500D02*
X2946400Y-41856438D01*
D19*
X29385260Y-15516910D02*
X29385260Y-16817390D01*
X29385260Y-16817390D02*
X29385260Y-17716500D01*
D18*
X2946400Y-29856438D02*
X2946400Y-47856438D01*
X4167338Y-10635500D02*
X2946400Y-11856438D01*
D19*
X29385260Y-17716500D02*
X29385260Y-18928860D01*
X24047450Y-12954000D02*
X24922480Y-12954000D01*
D18*
X2946400Y-5856438D02*
X2946400Y-29856438D01*
D19*
X6071650Y-2712990D02*
X15607450Y-2712990D01*
X24922480Y-12954000D02*
X26822350Y-12954000D01*
X26822350Y-12954000D02*
X29385260Y-15516910D01*
D18*
X5148580Y-16635500D02*
X4167338Y-16635500D01*
X5148580Y-46635500D02*
X4167338Y-46635500D01*
D19*
X23771310Y-52912510D02*
X25303480Y-51380340D01*
X25303480Y-51380340D02*
X25303480Y-50355500D01*
X2047240Y-49539940D02*
X5419810Y-52912510D01*
X5419810Y-52912510D02*
X23771310Y-52912510D01*
D18*
X2047240Y-6540500D02*
X2047240Y-42540500D01*
D19*
X2047240Y-48540500D02*
X2047240Y-49539940D01*
D18*
X2047240Y-48540500D02*
X2047240Y-42540500D01*
D20*
X12946900Y-3588000D02*
X12946900Y-4775500D01*
X12946900Y-4775500D02*
X12959400Y-4788000D01*
D18*
X19409400Y-20873000D02*
X20659400Y-20873000D01*
X12959400Y-4788000D02*
X13357917Y-4788000D01*
X13357917Y-4788000D02*
X19334399Y-10764482D01*
X19334399Y-10764482D02*
X19334399Y-20797999D01*
X19334399Y-20797999D02*
X19409400Y-20873000D01*
X12959400Y-10788000D02*
X13357917Y-10788000D01*
X13357917Y-10788000D02*
X18884390Y-16314473D01*
X12959400Y-10788000D02*
X12959400Y-9301700D01*
X12959400Y-9301700D02*
X12903300Y-9245600D01*
X18884390Y-16314473D02*
X18884390Y-21617990D01*
X19409400Y-22143000D02*
X20659400Y-22143000D01*
D20*
X12946900Y-10775500D02*
X12959400Y-10788000D01*
D18*
X18884390Y-21617990D02*
X19409400Y-22143000D01*
X19409400Y-22779410D02*
X19409400Y-22863000D01*
X19409400Y-22863000D02*
X19959400Y-23413000D01*
X19959400Y-23413000D02*
X20659400Y-23413000D01*
X12985730Y-16960830D02*
X13590820Y-16960830D01*
X12946900Y-16606000D02*
X12946900Y-16922000D01*
X13590820Y-16960830D02*
X19409400Y-22779410D01*
D20*
X12946900Y-16775500D02*
X12959400Y-16788000D01*
X12946900Y-16606000D02*
X12946900Y-16775500D01*
X12946900Y-15588000D02*
X12946900Y-16606000D01*
D18*
X12946900Y-16922000D02*
X12985730Y-16960830D01*
D20*
X12946900Y-21588000D02*
X12946900Y-22775500D01*
D18*
X12959400Y-22788000D02*
X13357917Y-22788000D01*
X13357917Y-22788000D02*
X15517427Y-24947510D01*
D20*
X12946900Y-22775500D02*
X12959400Y-22788000D01*
D18*
X15517427Y-24947510D02*
X19144890Y-24947510D01*
X19144890Y-24947510D02*
X19409400Y-24683000D01*
X19409400Y-24683000D02*
X20659400Y-24683000D01*
X12959400Y-28388140D02*
X15394540Y-25953000D01*
X19409400Y-25953000D02*
X20659400Y-25953000D01*
D20*
X12946900Y-27588000D02*
X12946900Y-28775500D01*
D18*
X15394540Y-25953000D02*
X19409400Y-25953000D01*
D20*
X12946900Y-28775500D02*
X12959400Y-28788000D01*
D18*
X12959400Y-28788000D02*
X12959400Y-28388140D01*
D20*
X12946900Y-34775500D02*
X12959400Y-34788000D01*
X12946900Y-33588000D02*
X12946900Y-34775500D01*
D18*
X19409400Y-27223000D02*
X20659400Y-27223000D01*
D19*
X17470890Y-30218570D02*
X17470890Y-29011510D01*
X12946900Y-33588000D02*
X14101460Y-33588000D01*
X14101460Y-33588000D02*
X17470890Y-30218570D01*
X17470890Y-29011510D02*
X19259400Y-27223000D01*
X19259400Y-27223000D02*
X20659400Y-27223000D01*
D18*
X12959400Y-34788000D02*
X13733910Y-34788000D01*
D20*
X12946900Y-39588000D02*
X12946900Y-40775500D01*
D18*
X13733910Y-40788000D02*
X17995900Y-36526010D01*
X12959400Y-40788000D02*
X13733910Y-40788000D01*
X17995900Y-36526010D02*
X17995900Y-29906500D01*
X17995900Y-29906500D02*
X19409400Y-28493000D01*
D20*
X12946900Y-40775500D02*
X12959400Y-40788000D01*
D18*
X19409400Y-28493000D02*
X20659400Y-28493000D01*
X12192100Y-45415200D02*
X12192100Y-46020700D01*
X18630900Y-30541500D02*
X19409400Y-29763000D01*
X18630900Y-42889506D02*
X18630900Y-30541500D01*
X12959400Y-46788000D02*
X14732406Y-46788000D01*
X12192100Y-46020700D02*
X12959400Y-46788000D01*
D20*
X12946900Y-46775500D02*
X12959400Y-46788000D01*
D18*
X14732406Y-46788000D02*
X18630900Y-42889506D01*
X19409400Y-29763000D02*
X20659400Y-29763000D01*
X11371900Y-3588000D02*
X11371900Y-4749900D01*
X11371900Y-4749900D02*
X11410000Y-4788000D01*
X8407400Y-4610000D02*
X11232000Y-4610000D01*
X6946900Y-4635500D02*
X8381900Y-4635500D01*
D20*
X11410000Y-3626100D02*
X11371900Y-3588000D01*
D18*
X11232000Y-4610000D02*
X11410000Y-4788000D01*
X8381900Y-4635500D02*
X8407400Y-4610000D01*
X11232000Y-10610000D02*
X11410000Y-10788000D01*
X8407400Y-10610000D02*
X11232000Y-10610000D01*
X11410000Y-10190900D02*
X11328300Y-10109200D01*
X11328300Y-10109200D02*
X11328300Y-9245600D01*
X11410000Y-10788000D02*
X11410000Y-10190900D01*
X8381900Y-10635500D02*
X8407400Y-10610000D01*
X6946900Y-10635500D02*
X8381900Y-10635500D01*
X11371900Y-10749900D02*
X11410000Y-10788000D01*
X8407400Y-16610000D02*
X11232000Y-16610000D01*
X11371900Y-15588000D02*
X11371900Y-16749900D01*
X11371900Y-16749900D02*
X11410000Y-16788000D01*
X8381900Y-16635500D02*
X8407400Y-16610000D01*
D20*
X11410000Y-15626100D02*
X11371900Y-15588000D01*
D18*
X6946900Y-16635500D02*
X8381900Y-16635500D01*
X11232000Y-16610000D02*
X11410000Y-16788000D01*
X11371900Y-22749900D02*
X11410000Y-22788000D01*
X11232000Y-22610000D02*
X11410000Y-22788000D01*
X8381900Y-22635500D02*
X8407400Y-22610000D01*
X6946900Y-22635500D02*
X8381900Y-22635500D01*
X11371900Y-21588000D02*
X11371900Y-22749900D01*
X8407400Y-22610000D02*
X11232000Y-22610000D01*
D20*
X11410000Y-21626100D02*
X11371900Y-21588000D01*
D18*
X8407400Y-28610000D02*
X11232000Y-28610000D01*
X6946900Y-28635500D02*
X8381900Y-28635500D01*
D20*
X11410000Y-27626100D02*
X11371900Y-27588000D01*
D18*
X11232000Y-28610000D02*
X11410000Y-28788000D01*
X8381900Y-28635500D02*
X8407400Y-28610000D01*
X11371900Y-27588000D02*
X11371900Y-28749900D01*
X11371900Y-28749900D02*
X11410000Y-28788000D01*
X11232000Y-34610000D02*
X11410000Y-34788000D01*
X8381900Y-34635500D02*
X8407400Y-34610000D01*
X11371900Y-34749900D02*
X11410000Y-34788000D01*
X11371900Y-33588000D02*
X11371900Y-34749900D01*
X6946900Y-34635500D02*
X8381900Y-34635500D01*
D20*
X11410000Y-33626100D02*
X11371900Y-33588000D01*
D18*
X8407400Y-34610000D02*
X11232000Y-34610000D01*
X6946900Y-40635500D02*
X8381900Y-40635500D01*
X8381900Y-40635500D02*
X8407400Y-40610000D01*
X11232000Y-40610000D02*
X11410000Y-40788000D01*
X11371900Y-40749900D02*
X11410000Y-40788000D01*
D20*
X11410000Y-39626100D02*
X11371900Y-39588000D01*
D18*
X11371900Y-39588000D02*
X11371900Y-40749900D01*
X8407400Y-40610000D02*
X11232000Y-40610000D01*
X10617100Y-45415200D02*
X10617100Y-45890200D01*
X6946900Y-46635500D02*
X8381900Y-46635500D01*
X8381900Y-46635500D02*
X8407400Y-46610000D01*
X11049000Y-46532800D02*
X11232000Y-46610000D01*
X10617100Y-45890200D02*
X11049000Y-46322100D01*
X8407400Y-46610000D02*
X11049000Y-46532800D01*
X11371900Y-46749900D02*
X11410000Y-46788000D01*
X11232000Y-46610000D02*
X11410000Y-46788000D01*
X11049000Y-46322100D02*
X11049000Y-46532800D01*
X10635490Y-5435700D02*
X10572300Y-5372510D01*
X11410000Y-5435700D02*
X10635490Y-5435700D01*
X7010400Y-6155222D02*
X7010400Y-6540500D01*
X7793112Y-5372510D02*
X7010400Y-6155222D01*
X10572300Y-5372510D02*
X7793112Y-5372510D01*
X10572300Y-17372510D02*
X7793112Y-17372510D01*
X11410000Y-17435700D02*
X10635490Y-17435700D01*
X10635490Y-17435700D02*
X10572300Y-17372510D01*
X7793112Y-17372510D02*
X7010400Y-18155222D01*
X7010400Y-18155222D02*
X7010400Y-18540500D01*
X11410000Y-23435700D02*
X10635490Y-23435700D01*
X10635490Y-23435700D02*
X10572300Y-23372510D01*
X7010400Y-24155222D02*
X7010400Y-24540500D01*
X10572300Y-23372510D02*
X7793112Y-23372510D01*
X7793112Y-23372510D02*
X7010400Y-24155222D01*
X7793112Y-29372510D02*
X7010400Y-30155222D01*
X10635490Y-29435700D02*
X10572300Y-29372510D01*
X10572300Y-29372510D02*
X7793112Y-29372510D01*
X11410000Y-29435700D02*
X10635490Y-29435700D01*
X7010400Y-30155222D02*
X7010400Y-30540500D01*
X7793112Y-35372510D02*
X7010400Y-36155222D01*
X11410000Y-35435700D02*
X10635490Y-35435700D01*
X7010400Y-36155222D02*
X7010400Y-36540500D01*
X10635490Y-35435700D02*
X10572300Y-35372510D01*
X10572300Y-35372510D02*
X7793112Y-35372510D01*
X10635490Y-41435700D02*
X10572300Y-41372510D01*
X7793112Y-41372510D02*
X7010400Y-42155222D01*
X10572300Y-41372510D02*
X7793112Y-41372510D01*
X7010400Y-42155222D02*
X7010400Y-42540500D01*
X11410000Y-41435700D02*
X10635490Y-41435700D01*
X10572300Y-47372510D02*
X7793112Y-47372510D01*
X10635490Y-47435700D02*
X10572300Y-47372510D01*
X11410000Y-47435700D02*
X10635490Y-47435700D01*
X7010400Y-48155222D02*
X7010400Y-48540500D01*
X7793112Y-47372510D02*
X7010400Y-48155222D01*
X10572300Y-11372510D02*
X7793112Y-11372510D01*
X7793112Y-11372510D02*
X7010400Y-12155222D01*
X10635490Y-11435700D02*
X10572300Y-11372510D01*
X11410000Y-11435700D02*
X10635490Y-11435700D01*
X7010400Y-12155222D02*
X7010400Y-12540500D01*
D19*
X31459405Y-35939444D02*
X31459400Y-32303000D01*
X25303480Y-40195500D02*
X27203350Y-40195500D01*
X27203350Y-40195500D02*
X31459405Y-35939444D01*
X31459400Y-32303000D02*
X30059400Y-32303000D01*
X25303480Y-37655500D02*
X27203350Y-37655500D01*
X30059400Y-34799450D02*
X30059400Y-34273000D01*
X30059400Y-34273000D02*
X30059400Y-33573000D01*
X27203350Y-37655500D02*
X30059400Y-34799450D01*
X22659411Y-31633011D02*
X22059400Y-31033000D01*
X25303480Y-45275500D02*
X24428450Y-45275500D01*
X20659400Y-31033000D02*
X19909398Y-31033000D01*
X22059400Y-31033000D02*
X20659400Y-31033000D01*
D18*
X23553610Y-45275500D02*
X25303480Y-45275500D01*
X22659411Y-44381301D02*
X23553610Y-45275500D01*
X22659411Y-31633011D02*
X22659411Y-44381301D01*
D19*
X22693902Y-47815500D02*
X25303480Y-47815500D01*
X20659400Y-32303000D02*
X21359400Y-32303000D01*
X20659400Y-32303000D02*
X19909398Y-32303000D01*
X22059401Y-47180999D02*
X22693902Y-47815500D01*
X21359400Y-32303000D02*
X22059401Y-33003001D01*
D18*
X22059401Y-47180999D02*
X22059401Y-33003001D01*
D19*
X25303480Y-42735500D02*
X24428450Y-42735500D01*
X23259421Y-20803021D02*
X22059400Y-19603000D01*
X22059400Y-19603000D02*
X20659400Y-19603000D01*
X21359400Y-19603000D02*
X20659400Y-19603000D01*
D18*
X23259421Y-42441311D02*
X23553610Y-42735500D01*
X23553610Y-42735500D02*
X25303480Y-42735500D01*
X23259421Y-20803021D02*
X23259421Y-42441311D01*
X5158740Y-6540500D02*
X3845560Y-6540500D01*
X5158740Y-18540500D02*
X3845560Y-18540500D01*
X5158740Y-24540500D02*
X3845560Y-24540500D01*
X5158740Y-30540500D02*
X3845560Y-30540500D01*
X5158740Y-36540500D02*
X3845560Y-36540500D01*
X5158740Y-42540500D02*
X3845560Y-42540500D01*
X5158740Y-48540500D02*
X3845560Y-48540500D01*
X5158740Y-12540500D02*
X3845560Y-12540500D01*
D21*
G36*
X35712400Y-54483000D02*
G01*
X-101008Y-54483000D01*
X124768Y-5941060D01*
X1018427Y-5941060D01*
X1018427Y-7139940D01*
X1030533Y-7262853D01*
X1066385Y-7381043D01*
X1124607Y-7489968D01*
X1202959Y-7585441D01*
X1295240Y-7661173D01*
X1295240Y-11419826D01*
X1202959Y-11495559D01*
X1124607Y-11591032D01*
X1066385Y-11699957D01*
X1030533Y-11818147D01*
X1018427Y-11941060D01*
X1018427Y-13139940D01*
X1030533Y-13262853D01*
X1066385Y-13381043D01*
X1124607Y-13489968D01*
X1202959Y-13585441D01*
X1295240Y-13661174D01*
X1295240Y-17419826D01*
X1202959Y-17495559D01*
X1124607Y-17591032D01*
X1066385Y-17699957D01*
X1030533Y-17818147D01*
X1018427Y-17941060D01*
X1018427Y-19139940D01*
X1030533Y-19262853D01*
X1066385Y-19381043D01*
X1124607Y-19489968D01*
X1202959Y-19585441D01*
X1295240Y-19661174D01*
X1295240Y-23419826D01*
X1202959Y-23495559D01*
X1124607Y-23591032D01*
X1066385Y-23699957D01*
X1030533Y-23818147D01*
X1018427Y-23941060D01*
X1018427Y-25139940D01*
X1030533Y-25262853D01*
X1066385Y-25381043D01*
X1124607Y-25489968D01*
X1202959Y-25585441D01*
X1295241Y-25661174D01*
X1295241Y-29419826D01*
X1202959Y-29495559D01*
X1124607Y-29591032D01*
X1066385Y-29699957D01*
X1030533Y-29818147D01*
X1018427Y-29941060D01*
X1018427Y-31139940D01*
X1030533Y-31262853D01*
X1066385Y-31381043D01*
X1124607Y-31489968D01*
X1202959Y-31585441D01*
X1295241Y-31661174D01*
X1295241Y-35419826D01*
X1202959Y-35495559D01*
X1124607Y-35591032D01*
X1066385Y-35699957D01*
X1030533Y-35818147D01*
X1018427Y-35941060D01*
X1018427Y-37139940D01*
X1030533Y-37262853D01*
X1066385Y-37381043D01*
X1124607Y-37489968D01*
X1202959Y-37585441D01*
X1295241Y-37661174D01*
X1295241Y-41419826D01*
X1202959Y-41495559D01*
X1124607Y-41591032D01*
X1066385Y-41699957D01*
X1030533Y-41818147D01*
X1018427Y-41941060D01*
X1018427Y-43139940D01*
X1030533Y-43262853D01*
X1066385Y-43381043D01*
X1124607Y-43489968D01*
X1202959Y-43585441D01*
X1295241Y-43661174D01*
X1295240Y-47419826D01*
X1202959Y-47495559D01*
X1124607Y-47591032D01*
X1066385Y-47699957D01*
X1030533Y-47818147D01*
X1018427Y-47941060D01*
X1018427Y-49139940D01*
X1030533Y-49262853D01*
X1066385Y-49381043D01*
X1124607Y-49489968D01*
X1202959Y-49585441D01*
X1222283Y-49601300D01*
X1232207Y-49702060D01*
X1279496Y-49857950D01*
X1356288Y-50001619D01*
X1433738Y-50095991D01*
X1459635Y-50127546D01*
X1491188Y-50153441D01*
X4806309Y-53468563D01*
X4832204Y-53500116D01*
X4863757Y-53526011D01*
X4863758Y-53526012D01*
X4958129Y-53603462D01*
X5058217Y-53656960D01*
X5101800Y-53680255D01*
X5257690Y-53727544D01*
X5379186Y-53739510D01*
X5379195Y-53739510D01*
X5419809Y-53743510D01*
X5460423Y-53739510D01*
X23730696Y-53739510D01*
X23771310Y-53743510D01*
X23811924Y-53739510D01*
X23811934Y-53739510D01*
X23933430Y-53727544D01*
X24089320Y-53680255D01*
X24232989Y-53603462D01*
X24358916Y-53500116D01*
X24384815Y-53468558D01*
X25859539Y-51993835D01*
X25891086Y-51967946D01*
X25916976Y-51936399D01*
X25916983Y-51936392D01*
X25994432Y-51842020D01*
X26071225Y-51698351D01*
X26085570Y-51651062D01*
X26097913Y-51610373D01*
X26803350Y-51610373D01*
X26926263Y-51598267D01*
X27044453Y-51562415D01*
X27153378Y-51504193D01*
X27248851Y-51425841D01*
X27327203Y-51330368D01*
X27385425Y-51221443D01*
X27421277Y-51103253D01*
X27433383Y-50980340D01*
X27433383Y-49730660D01*
X27421277Y-49607747D01*
X27385425Y-49489557D01*
X27327203Y-49380632D01*
X27248851Y-49285159D01*
X27153378Y-49206807D01*
X27044453Y-49148585D01*
X26926263Y-49112733D01*
X26803350Y-49100627D01*
X23803610Y-49100627D01*
X23680697Y-49112733D01*
X23562507Y-49148585D01*
X23453582Y-49206807D01*
X23358109Y-49285159D01*
X23279757Y-49380632D01*
X23221535Y-49489557D01*
X23185683Y-49607747D01*
X23173577Y-49730660D01*
X23173577Y-50980340D01*
X23185683Y-51103253D01*
X23221535Y-51221443D01*
X23279757Y-51330368D01*
X23358109Y-51425841D01*
X23453582Y-51504193D01*
X23562507Y-51562415D01*
X23680697Y-51598267D01*
X23803610Y-51610373D01*
X23903893Y-51610373D01*
X23428757Y-52085510D01*
X5762364Y-52085510D01*
X3446826Y-49769973D01*
X4244340Y-49769973D01*
X4367253Y-49757867D01*
X4485443Y-49722015D01*
X4502150Y-49713085D01*
X4518857Y-49722015D01*
X4637047Y-49757867D01*
X4759960Y-49769973D01*
X5557520Y-49769973D01*
X5680433Y-49757867D01*
X5798623Y-49722015D01*
X5907548Y-49663793D01*
X6003021Y-49585441D01*
X6057900Y-49518570D01*
X6112779Y-49585441D01*
X6208252Y-49663793D01*
X6317177Y-49722015D01*
X6435367Y-49757867D01*
X6558280Y-49769973D01*
X7355840Y-49769973D01*
X7478753Y-49757867D01*
X7596943Y-49722015D01*
X7705868Y-49663793D01*
X7801341Y-49585441D01*
X7879693Y-49489968D01*
X7937915Y-49381043D01*
X7973767Y-49262853D01*
X7985873Y-49139940D01*
X7985873Y-48243238D01*
X8104601Y-48124510D01*
X10328906Y-48124510D01*
X10346320Y-48133818D01*
X10488072Y-48176819D01*
X10598552Y-48187700D01*
X10598554Y-48187700D01*
X10635489Y-48191338D01*
X10672425Y-48187700D01*
X10838163Y-48187700D01*
X10883059Y-48201319D01*
X10997193Y-48212560D01*
X11816853Y-48212560D01*
X11819131Y-48235691D01*
X11863553Y-48382130D01*
X11935690Y-48517088D01*
X12032770Y-48635380D01*
X12151062Y-48732460D01*
X12286020Y-48804597D01*
X12432459Y-48849019D01*
X12546593Y-48860260D01*
X13372207Y-48860260D01*
X13486341Y-48849019D01*
X13632780Y-48804597D01*
X13767738Y-48732460D01*
X13886030Y-48635380D01*
X13983110Y-48517088D01*
X14055247Y-48382130D01*
X14099669Y-48235691D01*
X14114668Y-48083400D01*
X14099669Y-47931109D01*
X14055247Y-47784670D01*
X14041820Y-47759550D01*
X14055247Y-47734430D01*
X14099669Y-47587991D01*
X14104396Y-47540000D01*
X14695471Y-47540000D01*
X14732406Y-47543638D01*
X14769341Y-47540000D01*
X14769344Y-47540000D01*
X14879824Y-47529119D01*
X15021576Y-47486118D01*
X15152216Y-47416290D01*
X15233112Y-47349901D01*
X15272176Y-47397500D01*
X15192413Y-47494691D01*
X15113977Y-47641435D01*
X15065676Y-47800661D01*
X15049367Y-47966250D01*
X15049367Y-48403750D01*
X15065676Y-48569339D01*
X15113977Y-48728565D01*
X15192413Y-48875309D01*
X15297970Y-49003930D01*
X15426591Y-49109487D01*
X15573335Y-49187923D01*
X15732561Y-49236224D01*
X15898150Y-49252533D01*
X16410650Y-49252533D01*
X16576239Y-49236224D01*
X16735465Y-49187923D01*
X16882209Y-49109487D01*
X17010830Y-49003930D01*
X17116387Y-48875309D01*
X17194823Y-48728565D01*
X17243124Y-48569339D01*
X17259433Y-48403750D01*
X17259433Y-47966250D01*
X17243124Y-47800661D01*
X17194823Y-47641435D01*
X17116387Y-47494691D01*
X17036624Y-47397500D01*
X17116387Y-47300309D01*
X17194823Y-47153565D01*
X17243124Y-46994339D01*
X17259433Y-46828750D01*
X17259433Y-46391250D01*
X17243124Y-46225661D01*
X17194823Y-46066435D01*
X17116387Y-45919691D01*
X17010830Y-45791070D01*
X16891092Y-45692803D01*
X19136527Y-43447368D01*
X19165217Y-43423823D01*
X19188763Y-43395132D01*
X19259190Y-43309317D01*
X19289541Y-43252533D01*
X19329018Y-43178676D01*
X19372019Y-43036924D01*
X19382900Y-42926444D01*
X19382900Y-42926442D01*
X19386538Y-42889507D01*
X19382900Y-42852571D01*
X19382900Y-33166155D01*
X19418297Y-33185075D01*
X19536487Y-33220927D01*
X19659400Y-33233033D01*
X21119880Y-33233033D01*
X21307402Y-33420556D01*
X21307401Y-46833534D01*
X21291657Y-46862989D01*
X21244368Y-47018879D01*
X21228401Y-47180999D01*
X21244368Y-47343119D01*
X21291657Y-47499009D01*
X21368449Y-47642678D01*
X21445899Y-47737050D01*
X22080401Y-48371553D01*
X22106296Y-48403106D01*
X22137849Y-48429001D01*
X22137850Y-48429002D01*
X22232222Y-48506452D01*
X22252121Y-48517088D01*
X22375892Y-48583245D01*
X22531782Y-48630534D01*
X22653278Y-48642500D01*
X22653288Y-48642500D01*
X22693902Y-48646500D01*
X22734516Y-48642500D01*
X23209722Y-48642500D01*
X23221535Y-48681443D01*
X23279757Y-48790368D01*
X23358109Y-48885841D01*
X23453582Y-48964193D01*
X23562507Y-49022415D01*
X23680697Y-49058267D01*
X23803610Y-49070373D01*
X26803350Y-49070373D01*
X26926263Y-49058267D01*
X27044453Y-49022415D01*
X27153378Y-48964193D01*
X27248851Y-48885841D01*
X27327203Y-48790368D01*
X27385425Y-48681443D01*
X27421277Y-48563253D01*
X27433383Y-48440340D01*
X27433383Y-47190660D01*
X27421277Y-47067747D01*
X27385425Y-46949557D01*
X27327203Y-46840632D01*
X27248851Y-46745159D01*
X27153378Y-46666807D01*
X27044453Y-46608585D01*
X26926263Y-46572733D01*
X26803350Y-46560627D01*
X23803610Y-46560627D01*
X23680697Y-46572733D01*
X23562507Y-46608585D01*
X23453582Y-46666807D01*
X23358109Y-46745159D01*
X23279757Y-46840632D01*
X23221535Y-46949557D01*
X23209722Y-46988500D01*
X23036456Y-46988500D01*
X22811401Y-46763446D01*
X22811401Y-45596780D01*
X22995747Y-45781126D01*
X23019293Y-45809817D01*
X23047984Y-45833363D01*
X23133799Y-45903790D01*
X23176146Y-45926425D01*
X23185683Y-46023253D01*
X23221535Y-46141443D01*
X23279757Y-46250368D01*
X23358109Y-46345841D01*
X23453582Y-46424193D01*
X23562507Y-46482415D01*
X23680697Y-46518267D01*
X23803610Y-46530373D01*
X26803350Y-46530373D01*
X26926263Y-46518267D01*
X27044453Y-46482415D01*
X27153378Y-46424193D01*
X27248851Y-46345841D01*
X27327203Y-46250368D01*
X27385425Y-46141443D01*
X27421277Y-46023253D01*
X27433383Y-45900340D01*
X27433383Y-44650660D01*
X27421277Y-44527747D01*
X27385425Y-44409557D01*
X27327203Y-44300632D01*
X27248851Y-44205159D01*
X27153378Y-44126807D01*
X27044453Y-44068585D01*
X26926263Y-44032733D01*
X26803350Y-44020627D01*
X23803610Y-44020627D01*
X23680697Y-44032733D01*
X23562507Y-44068585D01*
X23463242Y-44121644D01*
X23411411Y-44069813D01*
X23411411Y-43849584D01*
X23453582Y-43884193D01*
X23562507Y-43942415D01*
X23680697Y-43978267D01*
X23803610Y-43990373D01*
X26803350Y-43990373D01*
X26926263Y-43978267D01*
X27044453Y-43942415D01*
X27153378Y-43884193D01*
X27248851Y-43805841D01*
X27327203Y-43710368D01*
X27385425Y-43601443D01*
X27421277Y-43483253D01*
X27433383Y-43360340D01*
X27433383Y-42110660D01*
X27421277Y-41987747D01*
X27385425Y-41869557D01*
X27327203Y-41760632D01*
X27248851Y-41665159D01*
X27153378Y-41586807D01*
X27044453Y-41528585D01*
X26926263Y-41492733D01*
X26803350Y-41480627D01*
X24011421Y-41480627D01*
X24011421Y-41450373D01*
X26803350Y-41450373D01*
X26926263Y-41438267D01*
X27044453Y-41402415D01*
X27153378Y-41344193D01*
X27248851Y-41265841D01*
X27327203Y-41170368D01*
X27385425Y-41061443D01*
X27404455Y-40998708D01*
X27521360Y-40963245D01*
X27665029Y-40886452D01*
X27790956Y-40783106D01*
X27816855Y-40751548D01*
X32015469Y-36552935D01*
X32047011Y-36527049D01*
X32072897Y-36495507D01*
X32072907Y-36495497D01*
X32150356Y-36401125D01*
X32227149Y-36257455D01*
X32240768Y-36212560D01*
X32274439Y-36101562D01*
X32286405Y-35980066D01*
X32286405Y-35980056D01*
X32290405Y-35939445D01*
X32286405Y-35898832D01*
X32286399Y-32343633D01*
X32290401Y-32303000D01*
X32274434Y-32140880D01*
X32227145Y-31984990D01*
X32150352Y-31841321D01*
X32047006Y-31715394D01*
X31921079Y-31612048D01*
X31777410Y-31535255D01*
X31621520Y-31487966D01*
X31500024Y-31476000D01*
X31500015Y-31476000D01*
X31459399Y-31472000D01*
X31418785Y-31476000D01*
X31403540Y-31476000D01*
X31300503Y-31420925D01*
X31182313Y-31385073D01*
X31059400Y-31372967D01*
X29059400Y-31372967D01*
X28936487Y-31385073D01*
X28818297Y-31420925D01*
X28709372Y-31479147D01*
X28613899Y-31557499D01*
X28535547Y-31652972D01*
X28477325Y-31761897D01*
X28441473Y-31880087D01*
X28429367Y-32003000D01*
X28429367Y-32603000D01*
X28441473Y-32725913D01*
X28477325Y-32844103D01*
X28527514Y-32938000D01*
X28477325Y-33031897D01*
X28441473Y-33150087D01*
X28429367Y-33273000D01*
X28429367Y-33873000D01*
X28441473Y-33995913D01*
X28477325Y-34114103D01*
X28535547Y-34223028D01*
X28613899Y-34318501D01*
X28709372Y-34396853D01*
X28818297Y-34455075D01*
X28936487Y-34490927D01*
X29059400Y-34503033D01*
X29186262Y-34503033D01*
X27169367Y-36519929D01*
X27153378Y-36506807D01*
X27044453Y-36448585D01*
X26926263Y-36412733D01*
X26803350Y-36400627D01*
X24011421Y-36400627D01*
X24011421Y-21150486D01*
X24027165Y-21121031D01*
X24074454Y-20965141D01*
X24090421Y-20803021D01*
X24074454Y-20640900D01*
X24027165Y-20485010D01*
X23950373Y-20341341D01*
X23872923Y-20246969D01*
X22672905Y-19046952D01*
X22647006Y-19015394D01*
X22521079Y-18912048D01*
X22377410Y-18835255D01*
X22221520Y-18787966D01*
X22100024Y-18776000D01*
X22100014Y-18776000D01*
X22059400Y-18772000D01*
X22018786Y-18776000D01*
X22003540Y-18776000D01*
X21900503Y-18720925D01*
X21782313Y-18685073D01*
X21659400Y-18672967D01*
X20086399Y-18672967D01*
X20086399Y-10801417D01*
X20090037Y-10764482D01*
X20086399Y-10727544D01*
X20075518Y-10617064D01*
X20032517Y-10475312D01*
X19962689Y-10344672D01*
X19868716Y-10230165D01*
X19840026Y-10206620D01*
X16791420Y-7158015D01*
X16882209Y-7109487D01*
X17010830Y-7003930D01*
X17116387Y-6875309D01*
X17194823Y-6728565D01*
X17243124Y-6569339D01*
X17259433Y-6403750D01*
X17259433Y-5966250D01*
X17243124Y-5800661D01*
X17194823Y-5641435D01*
X17116387Y-5494691D01*
X17036624Y-5397500D01*
X17075291Y-5350384D01*
X22195609Y-10470704D01*
X22195611Y-11888537D01*
X22191610Y-11929160D01*
X22207577Y-12091280D01*
X22254866Y-12247170D01*
X22331658Y-12390839D01*
X22375608Y-12444391D01*
X22435005Y-12516766D01*
X22466557Y-12542660D01*
X22792577Y-12868681D01*
X22792577Y-13578840D01*
X22804683Y-13701753D01*
X22840535Y-13819943D01*
X22898757Y-13928868D01*
X22977109Y-14024341D01*
X23072582Y-14102693D01*
X23181507Y-14160915D01*
X23299697Y-14196767D01*
X23422610Y-14208873D01*
X26422350Y-14208873D01*
X26545263Y-14196767D01*
X26663453Y-14160915D01*
X26772378Y-14102693D01*
X26788368Y-14089571D01*
X28558260Y-15859464D01*
X28558261Y-16654550D01*
X28485322Y-16693537D01*
X28389849Y-16771889D01*
X28311497Y-16867362D01*
X28253275Y-16976287D01*
X28217423Y-17094477D01*
X28205317Y-17217390D01*
X28205317Y-18215610D01*
X28217423Y-18338523D01*
X28253275Y-18456713D01*
X28311497Y-18565638D01*
X28389849Y-18661111D01*
X28485322Y-18739463D01*
X28558261Y-18778450D01*
X28558261Y-18888237D01*
X28554260Y-18928860D01*
X28554375Y-18930030D01*
X28535547Y-18952972D01*
X28477325Y-19061897D01*
X28441473Y-19180087D01*
X28429367Y-19303000D01*
X28429367Y-19903000D01*
X28441473Y-20025913D01*
X28477325Y-20144103D01*
X28527514Y-20238000D01*
X28477325Y-20331897D01*
X28441473Y-20450087D01*
X28429367Y-20573000D01*
X28429367Y-21173000D01*
X28441473Y-21295913D01*
X28477325Y-21414103D01*
X28527514Y-21508000D01*
X28477325Y-21601897D01*
X28441473Y-21720087D01*
X28429367Y-21843000D01*
X28429367Y-22443000D01*
X28441473Y-22565913D01*
X28477325Y-22684103D01*
X28527514Y-22778000D01*
X28477325Y-22871897D01*
X28441473Y-22990087D01*
X28429367Y-23113000D01*
X28429367Y-23713000D01*
X28441473Y-23835913D01*
X28477325Y-23954103D01*
X28527514Y-24048000D01*
X28477325Y-24141897D01*
X28441473Y-24260087D01*
X28429367Y-24383000D01*
X28429367Y-24983000D01*
X28441473Y-25105913D01*
X28477325Y-25224103D01*
X28527514Y-25318000D01*
X28477325Y-25411897D01*
X28441473Y-25530087D01*
X28429367Y-25653000D01*
X28429367Y-26253000D01*
X28441473Y-26375913D01*
X28477325Y-26494103D01*
X28527514Y-26588000D01*
X28477325Y-26681897D01*
X28441473Y-26800087D01*
X28429367Y-26923000D01*
X28429367Y-27523000D01*
X28441473Y-27645913D01*
X28477325Y-27764103D01*
X28527514Y-27858000D01*
X28477325Y-27951897D01*
X28441473Y-28070087D01*
X28429367Y-28193000D01*
X28429367Y-28793000D01*
X28441473Y-28915913D01*
X28477325Y-29034103D01*
X28527514Y-29128000D01*
X28477325Y-29221897D01*
X28441473Y-29340087D01*
X28429367Y-29463000D01*
X28429367Y-30063000D01*
X28441473Y-30185913D01*
X28477325Y-30304103D01*
X28535547Y-30413028D01*
X28613899Y-30508501D01*
X28709372Y-30586853D01*
X28818297Y-30645075D01*
X28936487Y-30680927D01*
X29059400Y-30693033D01*
X31059400Y-30693033D01*
X31182313Y-30680927D01*
X31300503Y-30645075D01*
X31409428Y-30586853D01*
X31504901Y-30508501D01*
X31583253Y-30413028D01*
X31641475Y-30304103D01*
X31677327Y-30185913D01*
X31689433Y-30063000D01*
X31689433Y-29463000D01*
X31677327Y-29340087D01*
X31641475Y-29221897D01*
X31591286Y-29128000D01*
X31641475Y-29034103D01*
X31677327Y-28915913D01*
X31689433Y-28793000D01*
X31689433Y-28193000D01*
X31677327Y-28070087D01*
X31641475Y-27951897D01*
X31591286Y-27858000D01*
X31641475Y-27764103D01*
X31677327Y-27645913D01*
X31689433Y-27523000D01*
X31689433Y-26923000D01*
X31677327Y-26800087D01*
X31641475Y-26681897D01*
X31591286Y-26588000D01*
X31641475Y-26494103D01*
X31677327Y-26375913D01*
X31689433Y-26253000D01*
X31689433Y-25653000D01*
X31677327Y-25530087D01*
X31641475Y-25411897D01*
X31591286Y-25318000D01*
X31641475Y-25224103D01*
X31677327Y-25105913D01*
X31689433Y-24983000D01*
X31689433Y-24383000D01*
X31677327Y-24260087D01*
X31641475Y-24141897D01*
X31591286Y-24048000D01*
X31641475Y-23954103D01*
X31677327Y-23835913D01*
X31689433Y-23713000D01*
X31689433Y-23113000D01*
X31677327Y-22990087D01*
X31641475Y-22871897D01*
X31591286Y-22778000D01*
X31641475Y-22684103D01*
X31677327Y-22565913D01*
X31689433Y-22443000D01*
X31689433Y-21843000D01*
X31677327Y-21720087D01*
X31641475Y-21601897D01*
X31591286Y-21508000D01*
X31641475Y-21414103D01*
X31677327Y-21295913D01*
X31689433Y-21173000D01*
X31689433Y-20573000D01*
X31677327Y-20450087D01*
X31641475Y-20331897D01*
X31591286Y-20238000D01*
X31641475Y-20144103D01*
X31677327Y-20025913D01*
X31689433Y-19903000D01*
X31689433Y-19303000D01*
X31677327Y-19180087D01*
X31641475Y-19061897D01*
X31583253Y-18952972D01*
X31504901Y-18857499D01*
X31409428Y-18779147D01*
X31300503Y-18720925D01*
X31182313Y-18685073D01*
X31059400Y-18672967D01*
X30366224Y-18672967D01*
X30380671Y-18661111D01*
X30459023Y-18565638D01*
X30517245Y-18456713D01*
X30553097Y-18338523D01*
X30565203Y-18215610D01*
X30565203Y-17217390D01*
X30553097Y-17094477D01*
X30517245Y-16976287D01*
X30459023Y-16867362D01*
X30380671Y-16771889D01*
X30285198Y-16693537D01*
X30212260Y-16654551D01*
X30212260Y-15557523D01*
X30216260Y-15516909D01*
X30212260Y-15476295D01*
X30212260Y-15476286D01*
X30200294Y-15354790D01*
X30153005Y-15198900D01*
X30076213Y-15055232D01*
X30076212Y-15055230D01*
X29998762Y-14960858D01*
X29998761Y-14960857D01*
X29972866Y-14929304D01*
X29941314Y-14903410D01*
X27435855Y-12397952D01*
X27409956Y-12366394D01*
X27284029Y-12263048D01*
X27140360Y-12186255D01*
X27023455Y-12150792D01*
X27004425Y-12088057D01*
X26946203Y-11979132D01*
X26867851Y-11883659D01*
X26772378Y-11805307D01*
X26663453Y-11747085D01*
X26545263Y-11711233D01*
X26422350Y-11699127D01*
X23962131Y-11699127D01*
X23931877Y-11668873D01*
X26422350Y-11668873D01*
X26545263Y-11656767D01*
X26663453Y-11620915D01*
X26772378Y-11562693D01*
X26867851Y-11484341D01*
X26946203Y-11388868D01*
X27004425Y-11279943D01*
X27040277Y-11161753D01*
X27052383Y-11038840D01*
X27052383Y-9789160D01*
X27040277Y-9666247D01*
X27004425Y-9548057D01*
X26946203Y-9439132D01*
X26867851Y-9343659D01*
X26772378Y-9265307D01*
X26663453Y-9207085D01*
X26545263Y-9171233D01*
X26422350Y-9159127D01*
X23422610Y-9159127D01*
X23299697Y-9171233D01*
X23250248Y-9186233D01*
X23102929Y-9038914D01*
X23181507Y-9080915D01*
X23299697Y-9116767D01*
X23422610Y-9128873D01*
X26422350Y-9128873D01*
X26545263Y-9116767D01*
X26663453Y-9080915D01*
X26772378Y-9022693D01*
X26867851Y-8944341D01*
X26946203Y-8848868D01*
X27004425Y-8739943D01*
X27040277Y-8621753D01*
X27052383Y-8498840D01*
X27052383Y-7249160D01*
X27040277Y-7126247D01*
X27004425Y-7008057D01*
X26946203Y-6899132D01*
X26867851Y-6803659D01*
X26772378Y-6725307D01*
X26663453Y-6667085D01*
X26545263Y-6631233D01*
X26422350Y-6619127D01*
X23422610Y-6619127D01*
X23299697Y-6631233D01*
X23181507Y-6667085D01*
X23072582Y-6725307D01*
X22977109Y-6803659D01*
X22898757Y-6899132D01*
X22840535Y-7008057D01*
X22804683Y-7126247D01*
X22792577Y-7249160D01*
X22792577Y-8498840D01*
X22804683Y-8621753D01*
X22840535Y-8739943D01*
X22882536Y-8818522D01*
X18773174Y-4709160D01*
X22792577Y-4709160D01*
X22792577Y-5958840D01*
X22804683Y-6081753D01*
X22840535Y-6199943D01*
X22898757Y-6308868D01*
X22977109Y-6404341D01*
X23072582Y-6482693D01*
X23181507Y-6540915D01*
X23299697Y-6576767D01*
X23422610Y-6588873D01*
X26422350Y-6588873D01*
X26545263Y-6576767D01*
X26663453Y-6540915D01*
X26772378Y-6482693D01*
X26867851Y-6404341D01*
X26946203Y-6308868D01*
X27004425Y-6199943D01*
X27040277Y-6081753D01*
X27052383Y-5958840D01*
X27052383Y-4709160D01*
X27040277Y-4586247D01*
X27004425Y-4468057D01*
X26946203Y-4359132D01*
X26867851Y-4263659D01*
X26772378Y-4185307D01*
X26663453Y-4127085D01*
X26545263Y-4091233D01*
X26422350Y-4079127D01*
X23422610Y-4079127D01*
X23299697Y-4091233D01*
X23181507Y-4127085D01*
X23072582Y-4185307D01*
X22977109Y-4263659D01*
X22898757Y-4359132D01*
X22840535Y-4468057D01*
X22804683Y-4586247D01*
X22792577Y-4709160D01*
X18773174Y-4709160D01*
X16233174Y-2169160D01*
X22792577Y-2169160D01*
X22792577Y-3418840D01*
X22804683Y-3541753D01*
X22840535Y-3659943D01*
X22898757Y-3768868D01*
X22977109Y-3864341D01*
X23072582Y-3942693D01*
X23181507Y-4000915D01*
X23299697Y-4036767D01*
X23422610Y-4048873D01*
X26422350Y-4048873D01*
X26545263Y-4036767D01*
X26663453Y-4000915D01*
X26772378Y-3942693D01*
X26867851Y-3864341D01*
X26946203Y-3768868D01*
X27004425Y-3659943D01*
X27040277Y-3541753D01*
X27052383Y-3418840D01*
X27052383Y-2169160D01*
X27040277Y-2046247D01*
X27004425Y-1928057D01*
X26946203Y-1819132D01*
X26867851Y-1723659D01*
X26772378Y-1645307D01*
X26663453Y-1587085D01*
X26545263Y-1551233D01*
X26422350Y-1539127D01*
X23422610Y-1539127D01*
X23299697Y-1551233D01*
X23181507Y-1587085D01*
X23072582Y-1645307D01*
X22977109Y-1723659D01*
X22898757Y-1819132D01*
X22840535Y-1928057D01*
X22804683Y-2046247D01*
X22792577Y-2169160D01*
X16233174Y-2169160D01*
X16220955Y-2156942D01*
X16195056Y-2125384D01*
X16069129Y-2022038D01*
X15925460Y-1945245D01*
X15769570Y-1897956D01*
X15648074Y-1885990D01*
X15648064Y-1885990D01*
X15607450Y-1881990D01*
X15566836Y-1885990D01*
X6112263Y-1885990D01*
X6071649Y-1881990D01*
X6031035Y-1885990D01*
X6031026Y-1885990D01*
X5909530Y-1897956D01*
X5753640Y-1945245D01*
X5686763Y-1980992D01*
X5609970Y-2022038D01*
X5580472Y-2046247D01*
X5484044Y-2125384D01*
X5458149Y-2156937D01*
X4592528Y-3022559D01*
X4560975Y-3048454D01*
X4535080Y-3080007D01*
X4535078Y-3080009D01*
X4457628Y-3174381D01*
X4380836Y-3318050D01*
X4333547Y-3473940D01*
X4323623Y-3574700D01*
X4304299Y-3590559D01*
X4225947Y-3686032D01*
X4167725Y-3794957D01*
X4141188Y-3882438D01*
X4130402Y-3883500D01*
X4130400Y-3883500D01*
X4019920Y-3894381D01*
X3878168Y-3937382D01*
X3795236Y-3981710D01*
X3747527Y-4007210D01*
X3683366Y-4059866D01*
X3633021Y-4101183D01*
X3609475Y-4129874D01*
X2440779Y-5298571D01*
X2425601Y-5311027D01*
X1648460Y-5311027D01*
X1525547Y-5323133D01*
X1407357Y-5358985D01*
X1298432Y-5417207D01*
X1202959Y-5495559D01*
X1124607Y-5591032D01*
X1066385Y-5699957D01*
X1030533Y-5818147D01*
X1018427Y-5941060D01*
X124768Y-5941060D01*
X151811Y-127000D01*
X35712400Y-127000D01*
X35712400Y-54483000D01*
G37*
X35712400Y-54483000D02*
X-101008Y-54483000D01*
X124768Y-5941060D01*
X1018427Y-5941060D01*
X1018427Y-7139940D01*
X1030533Y-7262853D01*
X1066385Y-7381043D01*
X1124607Y-7489968D01*
X1202959Y-7585441D01*
X1295240Y-7661173D01*
X1295240Y-11419826D01*
X1202959Y-11495559D01*
X1124607Y-11591032D01*
X1066385Y-11699957D01*
X1030533Y-11818147D01*
X1018427Y-11941060D01*
X1018427Y-13139940D01*
X1030533Y-13262853D01*
X1066385Y-13381043D01*
X1124607Y-13489968D01*
X1202959Y-13585441D01*
X1295240Y-13661174D01*
X1295240Y-17419826D01*
X1202959Y-17495559D01*
X1124607Y-17591032D01*
X1066385Y-17699957D01*
X1030533Y-17818147D01*
X1018427Y-17941060D01*
X1018427Y-19139940D01*
X1030533Y-19262853D01*
X1066385Y-19381043D01*
X1124607Y-19489968D01*
X1202959Y-19585441D01*
X1295240Y-19661174D01*
X1295240Y-23419826D01*
X1202959Y-23495559D01*
X1124607Y-23591032D01*
X1066385Y-23699957D01*
X1030533Y-23818147D01*
X1018427Y-23941060D01*
X1018427Y-25139940D01*
X1030533Y-25262853D01*
X1066385Y-25381043D01*
X1124607Y-25489968D01*
X1202959Y-25585441D01*
X1295241Y-25661174D01*
X1295241Y-29419826D01*
X1202959Y-29495559D01*
X1124607Y-29591032D01*
X1066385Y-29699957D01*
X1030533Y-29818147D01*
X1018427Y-29941060D01*
X1018427Y-31139940D01*
X1030533Y-31262853D01*
X1066385Y-31381043D01*
X1124607Y-31489968D01*
X1202959Y-31585441D01*
X1295241Y-31661174D01*
X1295241Y-35419826D01*
X1202959Y-35495559D01*
X1124607Y-35591032D01*
X1066385Y-35699957D01*
X1030533Y-35818147D01*
X1018427Y-35941060D01*
X1018427Y-37139940D01*
X1030533Y-37262853D01*
X1066385Y-37381043D01*
X1124607Y-37489968D01*
X1202959Y-37585441D01*
X1295241Y-37661174D01*
X1295241Y-41419826D01*
X1202959Y-41495559D01*
X1124607Y-41591032D01*
X1066385Y-41699957D01*
X1030533Y-41818147D01*
X1018427Y-41941060D01*
X1018427Y-43139940D01*
X1030533Y-43262853D01*
X1066385Y-43381043D01*
X1124607Y-43489968D01*
X1202959Y-43585441D01*
X1295241Y-43661174D01*
X1295240Y-47419826D01*
X1202959Y-47495559D01*
X1124607Y-47591032D01*
X1066385Y-47699957D01*
X1030533Y-47818147D01*
X1018427Y-47941060D01*
X1018427Y-49139940D01*
X1030533Y-49262853D01*
X1066385Y-49381043D01*
X1124607Y-49489968D01*
X1202959Y-49585441D01*
X1222283Y-49601300D01*
X1232207Y-49702060D01*
X1279496Y-49857950D01*
X1356288Y-50001619D01*
X1433738Y-50095991D01*
X1459635Y-50127546D01*
X1491188Y-50153441D01*
X4806309Y-53468563D01*
X4832204Y-53500116D01*
X4863757Y-53526011D01*
X4863758Y-53526012D01*
X4958129Y-53603462D01*
X5058217Y-53656960D01*
X5101800Y-53680255D01*
X5257690Y-53727544D01*
X5379186Y-53739510D01*
X5379195Y-53739510D01*
X5419809Y-53743510D01*
X5460423Y-53739510D01*
X23730696Y-53739510D01*
X23771310Y-53743510D01*
X23811924Y-53739510D01*
X23811934Y-53739510D01*
X23933430Y-53727544D01*
X24089320Y-53680255D01*
X24232989Y-53603462D01*
X24358916Y-53500116D01*
X24384815Y-53468558D01*
X25859539Y-51993835D01*
X25891086Y-51967946D01*
X25916976Y-51936399D01*
X25916983Y-51936392D01*
X25994432Y-51842020D01*
X26071225Y-51698351D01*
X26085570Y-51651062D01*
X26097913Y-51610373D01*
X26803350Y-51610373D01*
X26926263Y-51598267D01*
X27044453Y-51562415D01*
X27153378Y-51504193D01*
X27248851Y-51425841D01*
X27327203Y-51330368D01*
X27385425Y-51221443D01*
X27421277Y-51103253D01*
X27433383Y-50980340D01*
X27433383Y-49730660D01*
X27421277Y-49607747D01*
X27385425Y-49489557D01*
X27327203Y-49380632D01*
X27248851Y-49285159D01*
X27153378Y-49206807D01*
X27044453Y-49148585D01*
X26926263Y-49112733D01*
X26803350Y-49100627D01*
X23803610Y-49100627D01*
X23680697Y-49112733D01*
X23562507Y-49148585D01*
X23453582Y-49206807D01*
X23358109Y-49285159D01*
X23279757Y-49380632D01*
X23221535Y-49489557D01*
X23185683Y-49607747D01*
X23173577Y-49730660D01*
X23173577Y-50980340D01*
X23185683Y-51103253D01*
X23221535Y-51221443D01*
X23279757Y-51330368D01*
X23358109Y-51425841D01*
X23453582Y-51504193D01*
X23562507Y-51562415D01*
X23680697Y-51598267D01*
X23803610Y-51610373D01*
X23903893Y-51610373D01*
X23428757Y-52085510D01*
X5762364Y-52085510D01*
X3446826Y-49769973D01*
X4244340Y-49769973D01*
X4367253Y-49757867D01*
X4485443Y-49722015D01*
X4502150Y-49713085D01*
X4518857Y-49722015D01*
X4637047Y-49757867D01*
X4759960Y-49769973D01*
X5557520Y-49769973D01*
X5680433Y-49757867D01*
X5798623Y-49722015D01*
X5907548Y-49663793D01*
X6003021Y-49585441D01*
X6057900Y-49518570D01*
X6112779Y-49585441D01*
X6208252Y-49663793D01*
X6317177Y-49722015D01*
X6435367Y-49757867D01*
X6558280Y-49769973D01*
X7355840Y-49769973D01*
X7478753Y-49757867D01*
X7596943Y-49722015D01*
X7705868Y-49663793D01*
X7801341Y-49585441D01*
X7879693Y-49489968D01*
X7937915Y-49381043D01*
X7973767Y-49262853D01*
X7985873Y-49139940D01*
X7985873Y-48243238D01*
X8104601Y-48124510D01*
X10328906Y-48124510D01*
X10346320Y-48133818D01*
X10488072Y-48176819D01*
X10598552Y-48187700D01*
X10598554Y-48187700D01*
X10635489Y-48191338D01*
X10672425Y-48187700D01*
X10838163Y-48187700D01*
X10883059Y-48201319D01*
X10997193Y-48212560D01*
X11816853Y-48212560D01*
X11819131Y-48235691D01*
X11863553Y-48382130D01*
X11935690Y-48517088D01*
X12032770Y-48635380D01*
X12151062Y-48732460D01*
X12286020Y-48804597D01*
X12432459Y-48849019D01*
X12546593Y-48860260D01*
X13372207Y-48860260D01*
X13486341Y-48849019D01*
X13632780Y-48804597D01*
X13767738Y-48732460D01*
X13886030Y-48635380D01*
X13983110Y-48517088D01*
X14055247Y-48382130D01*
X14099669Y-48235691D01*
X14114668Y-48083400D01*
X14099669Y-47931109D01*
X14055247Y-47784670D01*
X14041820Y-47759550D01*
X14055247Y-47734430D01*
X14099669Y-47587991D01*
X14104396Y-47540000D01*
X14695471Y-47540000D01*
X14732406Y-47543638D01*
X14769341Y-47540000D01*
X14769344Y-47540000D01*
X14879824Y-47529119D01*
X15021576Y-47486118D01*
X15152216Y-47416290D01*
X15233112Y-47349901D01*
X15272176Y-47397500D01*
X15192413Y-47494691D01*
X15113977Y-47641435D01*
X15065676Y-47800661D01*
X15049367Y-47966250D01*
X15049367Y-48403750D01*
X15065676Y-48569339D01*
X15113977Y-48728565D01*
X15192413Y-48875309D01*
X15297970Y-49003930D01*
X15426591Y-49109487D01*
X15573335Y-49187923D01*
X15732561Y-49236224D01*
X15898150Y-49252533D01*
X16410650Y-49252533D01*
X16576239Y-49236224D01*
X16735465Y-49187923D01*
X16882209Y-49109487D01*
X17010830Y-49003930D01*
X17116387Y-48875309D01*
X17194823Y-48728565D01*
X17243124Y-48569339D01*
X17259433Y-48403750D01*
X17259433Y-47966250D01*
X17243124Y-47800661D01*
X17194823Y-47641435D01*
X17116387Y-47494691D01*
X17036624Y-47397500D01*
X17116387Y-47300309D01*
X17194823Y-47153565D01*
X17243124Y-46994339D01*
X17259433Y-46828750D01*
X17259433Y-46391250D01*
X17243124Y-46225661D01*
X17194823Y-46066435D01*
X17116387Y-45919691D01*
X17010830Y-45791070D01*
X16891092Y-45692803D01*
X19136527Y-43447368D01*
X19165217Y-43423823D01*
X19188763Y-43395132D01*
X19259190Y-43309317D01*
X19289541Y-43252533D01*
X19329018Y-43178676D01*
X19372019Y-43036924D01*
X19382900Y-42926444D01*
X19382900Y-42926442D01*
X19386538Y-42889507D01*
X19382900Y-42852571D01*
X19382900Y-33166155D01*
X19418297Y-33185075D01*
X19536487Y-33220927D01*
X19659400Y-33233033D01*
X21119880Y-33233033D01*
X21307402Y-33420556D01*
X21307401Y-46833534D01*
X21291657Y-46862989D01*
X21244368Y-47018879D01*
X21228401Y-47180999D01*
X21244368Y-47343119D01*
X21291657Y-47499009D01*
X21368449Y-47642678D01*
X21445899Y-47737050D01*
X22080401Y-48371553D01*
X22106296Y-48403106D01*
X22137849Y-48429001D01*
X22137850Y-48429002D01*
X22232222Y-48506452D01*
X22252121Y-48517088D01*
X22375892Y-48583245D01*
X22531782Y-48630534D01*
X22653278Y-48642500D01*
X22653288Y-48642500D01*
X22693902Y-48646500D01*
X22734516Y-48642500D01*
X23209722Y-48642500D01*
X23221535Y-48681443D01*
X23279757Y-48790368D01*
X23358109Y-48885841D01*
X23453582Y-48964193D01*
X23562507Y-49022415D01*
X23680697Y-49058267D01*
X23803610Y-49070373D01*
X26803350Y-49070373D01*
X26926263Y-49058267D01*
X27044453Y-49022415D01*
X27153378Y-48964193D01*
X27248851Y-48885841D01*
X27327203Y-48790368D01*
X27385425Y-48681443D01*
X27421277Y-48563253D01*
X27433383Y-48440340D01*
X27433383Y-47190660D01*
X27421277Y-47067747D01*
X27385425Y-46949557D01*
X27327203Y-46840632D01*
X27248851Y-46745159D01*
X27153378Y-46666807D01*
X27044453Y-46608585D01*
X26926263Y-46572733D01*
X26803350Y-46560627D01*
X23803610Y-46560627D01*
X23680697Y-46572733D01*
X23562507Y-46608585D01*
X23453582Y-46666807D01*
X23358109Y-46745159D01*
X23279757Y-46840632D01*
X23221535Y-46949557D01*
X23209722Y-46988500D01*
X23036456Y-46988500D01*
X22811401Y-46763446D01*
X22811401Y-45596780D01*
X22995747Y-45781126D01*
X23019293Y-45809817D01*
X23047984Y-45833363D01*
X23133799Y-45903790D01*
X23176146Y-45926425D01*
X23185683Y-46023253D01*
X23221535Y-46141443D01*
X23279757Y-46250368D01*
X23358109Y-46345841D01*
X23453582Y-46424193D01*
X23562507Y-46482415D01*
X23680697Y-46518267D01*
X23803610Y-46530373D01*
X26803350Y-46530373D01*
X26926263Y-46518267D01*
X27044453Y-46482415D01*
X27153378Y-46424193D01*
X27248851Y-46345841D01*
X27327203Y-46250368D01*
X27385425Y-46141443D01*
X27421277Y-46023253D01*
X27433383Y-45900340D01*
X27433383Y-44650660D01*
X27421277Y-44527747D01*
X27385425Y-44409557D01*
X27327203Y-44300632D01*
X27248851Y-44205159D01*
X27153378Y-44126807D01*
X27044453Y-44068585D01*
X26926263Y-44032733D01*
X26803350Y-44020627D01*
X23803610Y-44020627D01*
X23680697Y-44032733D01*
X23562507Y-44068585D01*
X23463242Y-44121644D01*
X23411411Y-44069813D01*
X23411411Y-43849584D01*
X23453582Y-43884193D01*
X23562507Y-43942415D01*
X23680697Y-43978267D01*
X23803610Y-43990373D01*
X26803350Y-43990373D01*
X26926263Y-43978267D01*
X27044453Y-43942415D01*
X27153378Y-43884193D01*
X27248851Y-43805841D01*
X27327203Y-43710368D01*
X27385425Y-43601443D01*
X27421277Y-43483253D01*
X27433383Y-43360340D01*
X27433383Y-42110660D01*
X27421277Y-41987747D01*
X27385425Y-41869557D01*
X27327203Y-41760632D01*
X27248851Y-41665159D01*
X27153378Y-41586807D01*
X27044453Y-41528585D01*
X26926263Y-41492733D01*
X26803350Y-41480627D01*
X24011421Y-41480627D01*
X24011421Y-41450373D01*
X26803350Y-41450373D01*
X26926263Y-41438267D01*
X27044453Y-41402415D01*
X27153378Y-41344193D01*
X27248851Y-41265841D01*
X27327203Y-41170368D01*
X27385425Y-41061443D01*
X27404455Y-40998708D01*
X27521360Y-40963245D01*
X27665029Y-40886452D01*
X27790956Y-40783106D01*
X27816855Y-40751548D01*
X32015469Y-36552935D01*
X32047011Y-36527049D01*
X32072897Y-36495507D01*
X32072907Y-36495497D01*
X32150356Y-36401125D01*
X32227149Y-36257455D01*
X32240768Y-36212560D01*
X32274439Y-36101562D01*
X32286405Y-35980066D01*
X32286405Y-35980056D01*
X32290405Y-35939445D01*
X32286405Y-35898832D01*
X32286399Y-32343633D01*
X32290401Y-32303000D01*
X32274434Y-32140880D01*
X32227145Y-31984990D01*
X32150352Y-31841321D01*
X32047006Y-31715394D01*
X31921079Y-31612048D01*
X31777410Y-31535255D01*
X31621520Y-31487966D01*
X31500024Y-31476000D01*
X31500015Y-31476000D01*
X31459399Y-31472000D01*
X31418785Y-31476000D01*
X31403540Y-31476000D01*
X31300503Y-31420925D01*
X31182313Y-31385073D01*
X31059400Y-31372967D01*
X29059400Y-31372967D01*
X28936487Y-31385073D01*
X28818297Y-31420925D01*
X28709372Y-31479147D01*
X28613899Y-31557499D01*
X28535547Y-31652972D01*
X28477325Y-31761897D01*
X28441473Y-31880087D01*
X28429367Y-32003000D01*
X28429367Y-32603000D01*
X28441473Y-32725913D01*
X28477325Y-32844103D01*
X28527514Y-32938000D01*
X28477325Y-33031897D01*
X28441473Y-33150087D01*
X28429367Y-33273000D01*
X28429367Y-33873000D01*
X28441473Y-33995913D01*
X28477325Y-34114103D01*
X28535547Y-34223028D01*
X28613899Y-34318501D01*
X28709372Y-34396853D01*
X28818297Y-34455075D01*
X28936487Y-34490927D01*
X29059400Y-34503033D01*
X29186262Y-34503033D01*
X27169367Y-36519929D01*
X27153378Y-36506807D01*
X27044453Y-36448585D01*
X26926263Y-36412733D01*
X26803350Y-36400627D01*
X24011421Y-36400627D01*
X24011421Y-21150486D01*
X24027165Y-21121031D01*
X24074454Y-20965141D01*
X24090421Y-20803021D01*
X24074454Y-20640900D01*
X24027165Y-20485010D01*
X23950373Y-20341341D01*
X23872923Y-20246969D01*
X22672905Y-19046952D01*
X22647006Y-19015394D01*
X22521079Y-18912048D01*
X22377410Y-18835255D01*
X22221520Y-18787966D01*
X22100024Y-18776000D01*
X22100014Y-18776000D01*
X22059400Y-18772000D01*
X22018786Y-18776000D01*
X22003540Y-18776000D01*
X21900503Y-18720925D01*
X21782313Y-18685073D01*
X21659400Y-18672967D01*
X20086399Y-18672967D01*
X20086399Y-10801417D01*
X20090037Y-10764482D01*
X20086399Y-10727544D01*
X20075518Y-10617064D01*
X20032517Y-10475312D01*
X19962689Y-10344672D01*
X19868716Y-10230165D01*
X19840026Y-10206620D01*
X16791420Y-7158015D01*
X16882209Y-7109487D01*
X17010830Y-7003930D01*
X17116387Y-6875309D01*
X17194823Y-6728565D01*
X17243124Y-6569339D01*
X17259433Y-6403750D01*
X17259433Y-5966250D01*
X17243124Y-5800661D01*
X17194823Y-5641435D01*
X17116387Y-5494691D01*
X17036624Y-5397500D01*
X17075291Y-5350384D01*
X22195609Y-10470704D01*
X22195611Y-11888537D01*
X22191610Y-11929160D01*
X22207577Y-12091280D01*
X22254866Y-12247170D01*
X22331658Y-12390839D01*
X22375608Y-12444391D01*
X22435005Y-12516766D01*
X22466557Y-12542660D01*
X22792577Y-12868681D01*
X22792577Y-13578840D01*
X22804683Y-13701753D01*
X22840535Y-13819943D01*
X22898757Y-13928868D01*
X22977109Y-14024341D01*
X23072582Y-14102693D01*
X23181507Y-14160915D01*
X23299697Y-14196767D01*
X23422610Y-14208873D01*
X26422350Y-14208873D01*
X26545263Y-14196767D01*
X26663453Y-14160915D01*
X26772378Y-14102693D01*
X26788368Y-14089571D01*
X28558260Y-15859464D01*
X28558261Y-16654550D01*
X28485322Y-16693537D01*
X28389849Y-16771889D01*
X28311497Y-16867362D01*
X28253275Y-16976287D01*
X28217423Y-17094477D01*
X28205317Y-17217390D01*
X28205317Y-18215610D01*
X28217423Y-18338523D01*
X28253275Y-18456713D01*
X28311497Y-18565638D01*
X28389849Y-18661111D01*
X28485322Y-18739463D01*
X28558261Y-18778450D01*
X28558261Y-18888237D01*
X28554260Y-18928860D01*
X28554375Y-18930030D01*
X28535547Y-18952972D01*
X28477325Y-19061897D01*
X28441473Y-19180087D01*
X28429367Y-19303000D01*
X28429367Y-19903000D01*
X28441473Y-20025913D01*
X28477325Y-20144103D01*
X28527514Y-20238000D01*
X28477325Y-20331897D01*
X28441473Y-20450087D01*
X28429367Y-20573000D01*
X28429367Y-21173000D01*
X28441473Y-21295913D01*
X28477325Y-21414103D01*
X28527514Y-21508000D01*
X28477325Y-21601897D01*
X28441473Y-21720087D01*
X28429367Y-21843000D01*
X28429367Y-22443000D01*
X28441473Y-22565913D01*
X28477325Y-22684103D01*
X28527514Y-22778000D01*
X28477325Y-22871897D01*
X28441473Y-22990087D01*
X28429367Y-23113000D01*
X28429367Y-23713000D01*
X28441473Y-23835913D01*
X28477325Y-23954103D01*
X28527514Y-24048000D01*
X28477325Y-24141897D01*
X28441473Y-24260087D01*
X28429367Y-24383000D01*
X28429367Y-24983000D01*
X28441473Y-25105913D01*
X28477325Y-25224103D01*
X28527514Y-25318000D01*
X28477325Y-25411897D01*
X28441473Y-25530087D01*
X28429367Y-25653000D01*
X28429367Y-26253000D01*
X28441473Y-26375913D01*
X28477325Y-26494103D01*
X28527514Y-26588000D01*
X28477325Y-26681897D01*
X28441473Y-26800087D01*
X28429367Y-26923000D01*
X28429367Y-27523000D01*
X28441473Y-27645913D01*
X28477325Y-27764103D01*
X28527514Y-27858000D01*
X28477325Y-27951897D01*
X28441473Y-28070087D01*
X28429367Y-28193000D01*
X28429367Y-28793000D01*
X28441473Y-28915913D01*
X28477325Y-29034103D01*
X28527514Y-29128000D01*
X28477325Y-29221897D01*
X28441473Y-29340087D01*
X28429367Y-29463000D01*
X28429367Y-30063000D01*
X28441473Y-30185913D01*
X28477325Y-30304103D01*
X28535547Y-30413028D01*
X28613899Y-30508501D01*
X28709372Y-30586853D01*
X28818297Y-30645075D01*
X28936487Y-30680927D01*
X29059400Y-30693033D01*
X31059400Y-30693033D01*
X31182313Y-30680927D01*
X31300503Y-30645075D01*
X31409428Y-30586853D01*
X31504901Y-30508501D01*
X31583253Y-30413028D01*
X31641475Y-30304103D01*
X31677327Y-30185913D01*
X31689433Y-30063000D01*
X31689433Y-29463000D01*
X31677327Y-29340087D01*
X31641475Y-29221897D01*
X31591286Y-29128000D01*
X31641475Y-29034103D01*
X31677327Y-28915913D01*
X31689433Y-28793000D01*
X31689433Y-28193000D01*
X31677327Y-28070087D01*
X31641475Y-27951897D01*
X31591286Y-27858000D01*
X31641475Y-27764103D01*
X31677327Y-27645913D01*
X31689433Y-27523000D01*
X31689433Y-26923000D01*
X31677327Y-26800087D01*
X31641475Y-26681897D01*
X31591286Y-26588000D01*
X31641475Y-26494103D01*
X31677327Y-26375913D01*
X31689433Y-26253000D01*
X31689433Y-25653000D01*
X31677327Y-25530087D01*
X31641475Y-25411897D01*
X31591286Y-25318000D01*
X31641475Y-25224103D01*
X31677327Y-25105913D01*
X31689433Y-24983000D01*
X31689433Y-24383000D01*
X31677327Y-24260087D01*
X31641475Y-24141897D01*
X31591286Y-24048000D01*
X31641475Y-23954103D01*
X31677327Y-23835913D01*
X31689433Y-23713000D01*
X31689433Y-23113000D01*
X31677327Y-22990087D01*
X31641475Y-22871897D01*
X31591286Y-22778000D01*
X31641475Y-22684103D01*
X31677327Y-22565913D01*
X31689433Y-22443000D01*
X31689433Y-21843000D01*
X31677327Y-21720087D01*
X31641475Y-21601897D01*
X31591286Y-21508000D01*
X31641475Y-21414103D01*
X31677327Y-21295913D01*
X31689433Y-21173000D01*
X31689433Y-20573000D01*
X31677327Y-20450087D01*
X31641475Y-20331897D01*
X31591286Y-20238000D01*
X31641475Y-20144103D01*
X31677327Y-20025913D01*
X31689433Y-19903000D01*
X31689433Y-19303000D01*
X31677327Y-19180087D01*
X31641475Y-19061897D01*
X31583253Y-18952972D01*
X31504901Y-18857499D01*
X31409428Y-18779147D01*
X31300503Y-18720925D01*
X31182313Y-18685073D01*
X31059400Y-18672967D01*
X30366224Y-18672967D01*
X30380671Y-18661111D01*
X30459023Y-18565638D01*
X30517245Y-18456713D01*
X30553097Y-18338523D01*
X30565203Y-18215610D01*
X30565203Y-17217390D01*
X30553097Y-17094477D01*
X30517245Y-16976287D01*
X30459023Y-16867362D01*
X30380671Y-16771889D01*
X30285198Y-16693537D01*
X30212260Y-16654551D01*
X30212260Y-15557523D01*
X30216260Y-15516909D01*
X30212260Y-15476295D01*
X30212260Y-15476286D01*
X30200294Y-15354790D01*
X30153005Y-15198900D01*
X30076213Y-15055232D01*
X30076212Y-15055230D01*
X29998762Y-14960858D01*
X29998761Y-14960857D01*
X29972866Y-14929304D01*
X29941314Y-14903410D01*
X27435855Y-12397952D01*
X27409956Y-12366394D01*
X27284029Y-12263048D01*
X27140360Y-12186255D01*
X27023455Y-12150792D01*
X27004425Y-12088057D01*
X26946203Y-11979132D01*
X26867851Y-11883659D01*
X26772378Y-11805307D01*
X26663453Y-11747085D01*
X26545263Y-11711233D01*
X26422350Y-11699127D01*
X23962131Y-11699127D01*
X23931877Y-11668873D01*
X26422350Y-11668873D01*
X26545263Y-11656767D01*
X26663453Y-11620915D01*
X26772378Y-11562693D01*
X26867851Y-11484341D01*
X26946203Y-11388868D01*
X27004425Y-11279943D01*
X27040277Y-11161753D01*
X27052383Y-11038840D01*
X27052383Y-9789160D01*
X27040277Y-9666247D01*
X27004425Y-9548057D01*
X26946203Y-9439132D01*
X26867851Y-9343659D01*
X26772378Y-9265307D01*
X26663453Y-9207085D01*
X26545263Y-9171233D01*
X26422350Y-9159127D01*
X23422610Y-9159127D01*
X23299697Y-9171233D01*
X23250248Y-9186233D01*
X23102929Y-9038914D01*
X23181507Y-9080915D01*
X23299697Y-9116767D01*
X23422610Y-9128873D01*
X26422350Y-9128873D01*
X26545263Y-9116767D01*
X26663453Y-9080915D01*
X26772378Y-9022693D01*
X26867851Y-8944341D01*
X26946203Y-8848868D01*
X27004425Y-8739943D01*
X27040277Y-8621753D01*
X27052383Y-8498840D01*
X27052383Y-7249160D01*
X27040277Y-7126247D01*
X27004425Y-7008057D01*
X26946203Y-6899132D01*
X26867851Y-6803659D01*
X26772378Y-6725307D01*
X26663453Y-6667085D01*
X26545263Y-6631233D01*
X26422350Y-6619127D01*
X23422610Y-6619127D01*
X23299697Y-6631233D01*
X23181507Y-6667085D01*
X23072582Y-6725307D01*
X22977109Y-6803659D01*
X22898757Y-6899132D01*
X22840535Y-7008057D01*
X22804683Y-7126247D01*
X22792577Y-7249160D01*
X22792577Y-8498840D01*
X22804683Y-8621753D01*
X22840535Y-8739943D01*
X22882536Y-8818522D01*
X18773174Y-4709160D01*
X22792577Y-4709160D01*
X22792577Y-5958840D01*
X22804683Y-6081753D01*
X22840535Y-6199943D01*
X22898757Y-6308868D01*
X22977109Y-6404341D01*
X23072582Y-6482693D01*
X23181507Y-6540915D01*
X23299697Y-6576767D01*
X23422610Y-6588873D01*
X26422350Y-6588873D01*
X26545263Y-6576767D01*
X26663453Y-6540915D01*
X26772378Y-6482693D01*
X26867851Y-6404341D01*
X26946203Y-6308868D01*
X27004425Y-6199943D01*
X27040277Y-6081753D01*
X27052383Y-5958840D01*
X27052383Y-4709160D01*
X27040277Y-4586247D01*
X27004425Y-4468057D01*
X26946203Y-4359132D01*
X26867851Y-4263659D01*
X26772378Y-4185307D01*
X26663453Y-4127085D01*
X26545263Y-4091233D01*
X26422350Y-4079127D01*
X23422610Y-4079127D01*
X23299697Y-4091233D01*
X23181507Y-4127085D01*
X23072582Y-4185307D01*
X22977109Y-4263659D01*
X22898757Y-4359132D01*
X22840535Y-4468057D01*
X22804683Y-4586247D01*
X22792577Y-4709160D01*
X18773174Y-4709160D01*
X16233174Y-2169160D01*
X22792577Y-2169160D01*
X22792577Y-3418840D01*
X22804683Y-3541753D01*
X22840535Y-3659943D01*
X22898757Y-3768868D01*
X22977109Y-3864341D01*
X23072582Y-3942693D01*
X23181507Y-4000915D01*
X23299697Y-4036767D01*
X23422610Y-4048873D01*
X26422350Y-4048873D01*
X26545263Y-4036767D01*
X26663453Y-4000915D01*
X26772378Y-3942693D01*
X26867851Y-3864341D01*
X26946203Y-3768868D01*
X27004425Y-3659943D01*
X27040277Y-3541753D01*
X27052383Y-3418840D01*
X27052383Y-2169160D01*
X27040277Y-2046247D01*
X27004425Y-1928057D01*
X26946203Y-1819132D01*
X26867851Y-1723659D01*
X26772378Y-1645307D01*
X26663453Y-1587085D01*
X26545263Y-1551233D01*
X26422350Y-1539127D01*
X23422610Y-1539127D01*
X23299697Y-1551233D01*
X23181507Y-1587085D01*
X23072582Y-1645307D01*
X22977109Y-1723659D01*
X22898757Y-1819132D01*
X22840535Y-1928057D01*
X22804683Y-2046247D01*
X22792577Y-2169160D01*
X16233174Y-2169160D01*
X16220955Y-2156942D01*
X16195056Y-2125384D01*
X16069129Y-2022038D01*
X15925460Y-1945245D01*
X15769570Y-1897956D01*
X15648074Y-1885990D01*
X15648064Y-1885990D01*
X15607450Y-1881990D01*
X15566836Y-1885990D01*
X6112263Y-1885990D01*
X6071649Y-1881990D01*
X6031035Y-1885990D01*
X6031026Y-1885990D01*
X5909530Y-1897956D01*
X5753640Y-1945245D01*
X5686763Y-1980992D01*
X5609970Y-2022038D01*
X5580472Y-2046247D01*
X5484044Y-2125384D01*
X5458149Y-2156937D01*
X4592528Y-3022559D01*
X4560975Y-3048454D01*
X4535080Y-3080007D01*
X4535078Y-3080009D01*
X4457628Y-3174381D01*
X4380836Y-3318050D01*
X4333547Y-3473940D01*
X4323623Y-3574700D01*
X4304299Y-3590559D01*
X4225947Y-3686032D01*
X4167725Y-3794957D01*
X4141188Y-3882438D01*
X4130402Y-3883500D01*
X4130400Y-3883500D01*
X4019920Y-3894381D01*
X3878168Y-3937382D01*
X3795236Y-3981710D01*
X3747527Y-4007210D01*
X3683366Y-4059866D01*
X3633021Y-4101183D01*
X3609475Y-4129874D01*
X2440779Y-5298571D01*
X2425601Y-5311027D01*
X1648460Y-5311027D01*
X1525547Y-5323133D01*
X1407357Y-5358985D01*
X1298432Y-5417207D01*
X1202959Y-5495559D01*
X1124607Y-5591032D01*
X1066385Y-5699957D01*
X1030533Y-5818147D01*
X1018427Y-5941060D01*
X124768Y-5941060D01*
X151811Y-127000D01*
X35712400Y-127000D01*
X35712400Y-54483000D01*
G36*
X17878900Y-42578017D02*
G01*
X15639041Y-44817877D01*
X15575728Y-44665027D01*
X15397673Y-44398548D01*
X15171052Y-44171927D01*
X14904573Y-43993872D01*
X14608478Y-43871225D01*
X14294145Y-43808700D01*
X13973655Y-43808700D01*
X13659322Y-43871225D01*
X13363227Y-43993872D01*
X13096748Y-44171927D01*
X12870127Y-44398548D01*
X12846445Y-44433990D01*
X12735665Y-44374777D01*
X12576439Y-44326476D01*
X12410850Y-44310167D01*
X11973350Y-44310167D01*
X11807761Y-44326476D01*
X11648535Y-44374777D01*
X11501791Y-44453213D01*
X11404600Y-44532976D01*
X11307409Y-44453213D01*
X11160665Y-44374777D01*
X11001439Y-44326476D01*
X10835850Y-44310167D01*
X10398350Y-44310167D01*
X10232761Y-44326476D01*
X10073535Y-44374777D01*
X9926791Y-44453213D01*
X9798170Y-44558770D01*
X9692613Y-44687391D01*
X9614177Y-44834135D01*
X9565876Y-44993361D01*
X9549567Y-45158950D01*
X9549567Y-45671450D01*
X9564578Y-45823861D01*
X9297155Y-45831676D01*
X9263830Y-45791070D01*
X9135209Y-45685513D01*
X8988465Y-45607077D01*
X8829239Y-45558776D01*
X8663650Y-45542467D01*
X8151150Y-45542467D01*
X7985561Y-45558776D01*
X7826335Y-45607077D01*
X7811322Y-45615101D01*
X7791181Y-45590559D01*
X7695708Y-45512207D01*
X7586783Y-45453985D01*
X7468593Y-45418133D01*
X7345680Y-45406027D01*
X6548120Y-45406027D01*
X6425207Y-45418133D01*
X6307017Y-45453985D01*
X6198092Y-45512207D01*
X6102619Y-45590559D01*
X6047740Y-45657430D01*
X5992861Y-45590559D01*
X5897388Y-45512207D01*
X5788463Y-45453985D01*
X5670273Y-45418133D01*
X5547360Y-45406027D01*
X4749800Y-45406027D01*
X4626887Y-45418133D01*
X4508697Y-45453985D01*
X4399772Y-45512207D01*
X4304299Y-45590559D01*
X4225947Y-45686032D01*
X4167725Y-45794957D01*
X4141188Y-45882438D01*
X4130402Y-45883500D01*
X4130400Y-45883500D01*
X4019920Y-45894381D01*
X3878168Y-45937382D01*
X3810377Y-45973617D01*
X3747527Y-46007210D01*
X3698400Y-46047528D01*
X3698400Y-43769973D01*
X4244340Y-43769973D01*
X4367253Y-43757867D01*
X4485443Y-43722015D01*
X4502150Y-43713085D01*
X4518857Y-43722015D01*
X4637047Y-43757867D01*
X4759960Y-43769973D01*
X5557520Y-43769973D01*
X5680433Y-43757867D01*
X5798623Y-43722015D01*
X5907548Y-43663793D01*
X6003021Y-43585441D01*
X6057900Y-43518570D01*
X6112779Y-43585441D01*
X6208252Y-43663793D01*
X6317177Y-43722015D01*
X6435367Y-43757867D01*
X6558280Y-43769973D01*
X7355840Y-43769973D01*
X7478753Y-43757867D01*
X7596943Y-43722015D01*
X7705868Y-43663793D01*
X7801341Y-43585441D01*
X7879693Y-43489968D01*
X7937915Y-43381043D01*
X7973767Y-43262853D01*
X7985873Y-43139940D01*
X7985873Y-42243238D01*
X8104601Y-42124510D01*
X10328906Y-42124510D01*
X10346320Y-42133818D01*
X10488072Y-42176819D01*
X10598552Y-42187700D01*
X10598554Y-42187700D01*
X10635489Y-42191338D01*
X10672425Y-42187700D01*
X10838163Y-42187700D01*
X10883059Y-42201319D01*
X10997193Y-42212560D01*
X11816853Y-42212560D01*
X11819131Y-42235691D01*
X11863553Y-42382130D01*
X11935690Y-42517088D01*
X12032770Y-42635380D01*
X12151062Y-42732460D01*
X12286020Y-42804597D01*
X12432459Y-42849019D01*
X12546593Y-42860260D01*
X13372207Y-42860260D01*
X13486341Y-42849019D01*
X13632780Y-42804597D01*
X13767738Y-42732460D01*
X13886030Y-42635380D01*
X13983110Y-42517088D01*
X14055247Y-42382130D01*
X14099669Y-42235691D01*
X14114668Y-42083400D01*
X14099669Y-41931109D01*
X14055247Y-41784670D01*
X14041820Y-41759550D01*
X14055247Y-41734430D01*
X14099669Y-41587991D01*
X14114516Y-41437245D01*
X14153720Y-41416290D01*
X14268227Y-41322317D01*
X14291777Y-41293621D01*
X15049367Y-40536031D01*
X15049367Y-40828750D01*
X15065676Y-40994339D01*
X15113977Y-41153565D01*
X15192413Y-41300309D01*
X15272176Y-41397500D01*
X15192413Y-41494691D01*
X15113977Y-41641435D01*
X15065676Y-41800661D01*
X15049367Y-41966250D01*
X15049367Y-42403750D01*
X15065676Y-42569339D01*
X15113977Y-42728565D01*
X15192413Y-42875309D01*
X15297970Y-43003930D01*
X15426591Y-43109487D01*
X15573335Y-43187923D01*
X15732561Y-43236224D01*
X15898150Y-43252533D01*
X16410650Y-43252533D01*
X16576239Y-43236224D01*
X16735465Y-43187923D01*
X16882209Y-43109487D01*
X17010830Y-43003930D01*
X17116387Y-42875309D01*
X17194823Y-42728565D01*
X17243124Y-42569339D01*
X17259433Y-42403750D01*
X17259433Y-41966250D01*
X17243124Y-41800661D01*
X17194823Y-41641435D01*
X17116387Y-41494691D01*
X17036624Y-41397500D01*
X17116387Y-41300309D01*
X17194823Y-41153565D01*
X17243124Y-40994339D01*
X17259433Y-40828750D01*
X17259433Y-40391250D01*
X17243124Y-40225661D01*
X17194823Y-40066435D01*
X17116387Y-39919691D01*
X17010830Y-39791070D01*
X16882209Y-39685513D01*
X16735465Y-39607077D01*
X16576239Y-39558776D01*
X16410650Y-39542467D01*
X16042931Y-39542467D01*
X17878900Y-37706498D01*
X17878900Y-42578017D01*
G37*
X17878900Y-42578017D02*
X15639041Y-44817877D01*
X15575728Y-44665027D01*
X15397673Y-44398548D01*
X15171052Y-44171927D01*
X14904573Y-43993872D01*
X14608478Y-43871225D01*
X14294145Y-43808700D01*
X13973655Y-43808700D01*
X13659322Y-43871225D01*
X13363227Y-43993872D01*
X13096748Y-44171927D01*
X12870127Y-44398548D01*
X12846445Y-44433990D01*
X12735665Y-44374777D01*
X12576439Y-44326476D01*
X12410850Y-44310167D01*
X11973350Y-44310167D01*
X11807761Y-44326476D01*
X11648535Y-44374777D01*
X11501791Y-44453213D01*
X11404600Y-44532976D01*
X11307409Y-44453213D01*
X11160665Y-44374777D01*
X11001439Y-44326476D01*
X10835850Y-44310167D01*
X10398350Y-44310167D01*
X10232761Y-44326476D01*
X10073535Y-44374777D01*
X9926791Y-44453213D01*
X9798170Y-44558770D01*
X9692613Y-44687391D01*
X9614177Y-44834135D01*
X9565876Y-44993361D01*
X9549567Y-45158950D01*
X9549567Y-45671450D01*
X9564578Y-45823861D01*
X9297155Y-45831676D01*
X9263830Y-45791070D01*
X9135209Y-45685513D01*
X8988465Y-45607077D01*
X8829239Y-45558776D01*
X8663650Y-45542467D01*
X8151150Y-45542467D01*
X7985561Y-45558776D01*
X7826335Y-45607077D01*
X7811322Y-45615101D01*
X7791181Y-45590559D01*
X7695708Y-45512207D01*
X7586783Y-45453985D01*
X7468593Y-45418133D01*
X7345680Y-45406027D01*
X6548120Y-45406027D01*
X6425207Y-45418133D01*
X6307017Y-45453985D01*
X6198092Y-45512207D01*
X6102619Y-45590559D01*
X6047740Y-45657430D01*
X5992861Y-45590559D01*
X5897388Y-45512207D01*
X5788463Y-45453985D01*
X5670273Y-45418133D01*
X5547360Y-45406027D01*
X4749800Y-45406027D01*
X4626887Y-45418133D01*
X4508697Y-45453985D01*
X4399772Y-45512207D01*
X4304299Y-45590559D01*
X4225947Y-45686032D01*
X4167725Y-45794957D01*
X4141188Y-45882438D01*
X4130402Y-45883500D01*
X4130400Y-45883500D01*
X4019920Y-45894381D01*
X3878168Y-45937382D01*
X3810377Y-45973617D01*
X3747527Y-46007210D01*
X3698400Y-46047528D01*
X3698400Y-43769973D01*
X4244340Y-43769973D01*
X4367253Y-43757867D01*
X4485443Y-43722015D01*
X4502150Y-43713085D01*
X4518857Y-43722015D01*
X4637047Y-43757867D01*
X4759960Y-43769973D01*
X5557520Y-43769973D01*
X5680433Y-43757867D01*
X5798623Y-43722015D01*
X5907548Y-43663793D01*
X6003021Y-43585441D01*
X6057900Y-43518570D01*
X6112779Y-43585441D01*
X6208252Y-43663793D01*
X6317177Y-43722015D01*
X6435367Y-43757867D01*
X6558280Y-43769973D01*
X7355840Y-43769973D01*
X7478753Y-43757867D01*
X7596943Y-43722015D01*
X7705868Y-43663793D01*
X7801341Y-43585441D01*
X7879693Y-43489968D01*
X7937915Y-43381043D01*
X7973767Y-43262853D01*
X7985873Y-43139940D01*
X7985873Y-42243238D01*
X8104601Y-42124510D01*
X10328906Y-42124510D01*
X10346320Y-42133818D01*
X10488072Y-42176819D01*
X10598552Y-42187700D01*
X10598554Y-42187700D01*
X10635489Y-42191338D01*
X10672425Y-42187700D01*
X10838163Y-42187700D01*
X10883059Y-42201319D01*
X10997193Y-42212560D01*
X11816853Y-42212560D01*
X11819131Y-42235691D01*
X11863553Y-42382130D01*
X11935690Y-42517088D01*
X12032770Y-42635380D01*
X12151062Y-42732460D01*
X12286020Y-42804597D01*
X12432459Y-42849019D01*
X12546593Y-42860260D01*
X13372207Y-42860260D01*
X13486341Y-42849019D01*
X13632780Y-42804597D01*
X13767738Y-42732460D01*
X13886030Y-42635380D01*
X13983110Y-42517088D01*
X14055247Y-42382130D01*
X14099669Y-42235691D01*
X14114668Y-42083400D01*
X14099669Y-41931109D01*
X14055247Y-41784670D01*
X14041820Y-41759550D01*
X14055247Y-41734430D01*
X14099669Y-41587991D01*
X14114516Y-41437245D01*
X14153720Y-41416290D01*
X14268227Y-41322317D01*
X14291777Y-41293621D01*
X15049367Y-40536031D01*
X15049367Y-40828750D01*
X15065676Y-40994339D01*
X15113977Y-41153565D01*
X15192413Y-41300309D01*
X15272176Y-41397500D01*
X15192413Y-41494691D01*
X15113977Y-41641435D01*
X15065676Y-41800661D01*
X15049367Y-41966250D01*
X15049367Y-42403750D01*
X15065676Y-42569339D01*
X15113977Y-42728565D01*
X15192413Y-42875309D01*
X15297970Y-43003930D01*
X15426591Y-43109487D01*
X15573335Y-43187923D01*
X15732561Y-43236224D01*
X15898150Y-43252533D01*
X16410650Y-43252533D01*
X16576239Y-43236224D01*
X16735465Y-43187923D01*
X16882209Y-43109487D01*
X17010830Y-43003930D01*
X17116387Y-42875309D01*
X17194823Y-42728565D01*
X17243124Y-42569339D01*
X17259433Y-42403750D01*
X17259433Y-41966250D01*
X17243124Y-41800661D01*
X17194823Y-41641435D01*
X17116387Y-41494691D01*
X17036624Y-41397500D01*
X17116387Y-41300309D01*
X17194823Y-41153565D01*
X17243124Y-40994339D01*
X17259433Y-40828750D01*
X17259433Y-40391250D01*
X17243124Y-40225661D01*
X17194823Y-40066435D01*
X17116387Y-39919691D01*
X17010830Y-39791070D01*
X16882209Y-39685513D01*
X16735465Y-39607077D01*
X16576239Y-39558776D01*
X16410650Y-39542467D01*
X16042931Y-39542467D01*
X17878900Y-37706498D01*
X17878900Y-42578017D01*
G36*
X9091448Y-36171927D02*
G01*
X8864827Y-36398548D01*
X8686772Y-36665027D01*
X8564125Y-36961122D01*
X8501600Y-37275455D01*
X8501600Y-37595945D01*
X8564125Y-37910278D01*
X8686772Y-38206373D01*
X8864827Y-38472852D01*
X9091448Y-38699473D01*
X9357927Y-38877528D01*
X9654022Y-39000175D01*
X9968355Y-39062700D01*
X10288845Y-39062700D01*
X10356120Y-39049318D01*
X10320676Y-39166161D01*
X10304367Y-39331750D01*
X10304367Y-39844250D01*
X10305721Y-39858000D01*
X9318758Y-39858000D01*
X9263830Y-39791070D01*
X9135209Y-39685513D01*
X8988465Y-39607077D01*
X8829239Y-39558776D01*
X8663650Y-39542467D01*
X8151150Y-39542467D01*
X7985561Y-39558776D01*
X7826335Y-39607077D01*
X7811322Y-39615101D01*
X7791181Y-39590559D01*
X7695708Y-39512207D01*
X7586783Y-39453985D01*
X7468593Y-39418133D01*
X7345680Y-39406027D01*
X6548120Y-39406027D01*
X6425207Y-39418133D01*
X6307017Y-39453985D01*
X6198092Y-39512207D01*
X6102619Y-39590559D01*
X6047740Y-39657430D01*
X5992861Y-39590559D01*
X5897388Y-39512207D01*
X5788463Y-39453985D01*
X5670273Y-39418133D01*
X5547360Y-39406027D01*
X4749800Y-39406027D01*
X4626887Y-39418133D01*
X4508697Y-39453985D01*
X4399772Y-39512207D01*
X4304299Y-39590559D01*
X4225947Y-39686032D01*
X4167725Y-39794957D01*
X4141188Y-39882438D01*
X4130402Y-39883500D01*
X4130400Y-39883500D01*
X4019920Y-39894381D01*
X3878168Y-39937382D01*
X3795236Y-39981710D01*
X3747527Y-40007210D01*
X3698400Y-40047528D01*
X3698400Y-37769973D01*
X4244340Y-37769973D01*
X4367253Y-37757867D01*
X4485443Y-37722015D01*
X4502150Y-37713085D01*
X4518857Y-37722015D01*
X4637047Y-37757867D01*
X4759960Y-37769973D01*
X5557520Y-37769973D01*
X5680433Y-37757867D01*
X5798623Y-37722015D01*
X5907548Y-37663793D01*
X6003021Y-37585441D01*
X6057900Y-37518570D01*
X6112779Y-37585441D01*
X6208252Y-37663793D01*
X6317177Y-37722015D01*
X6435367Y-37757867D01*
X6558280Y-37769973D01*
X7355840Y-37769973D01*
X7478753Y-37757867D01*
X7596943Y-37722015D01*
X7705868Y-37663793D01*
X7801341Y-37585441D01*
X7879693Y-37489968D01*
X7937915Y-37381043D01*
X7973767Y-37262853D01*
X7985873Y-37139940D01*
X7985873Y-36243238D01*
X8104601Y-36124510D01*
X9162413Y-36124510D01*
X9091448Y-36171927D01*
G37*
X9091448Y-36171927D02*
X8864827Y-36398548D01*
X8686772Y-36665027D01*
X8564125Y-36961122D01*
X8501600Y-37275455D01*
X8501600Y-37595945D01*
X8564125Y-37910278D01*
X8686772Y-38206373D01*
X8864827Y-38472852D01*
X9091448Y-38699473D01*
X9357927Y-38877528D01*
X9654022Y-39000175D01*
X9968355Y-39062700D01*
X10288845Y-39062700D01*
X10356120Y-39049318D01*
X10320676Y-39166161D01*
X10304367Y-39331750D01*
X10304367Y-39844250D01*
X10305721Y-39858000D01*
X9318758Y-39858000D01*
X9263830Y-39791070D01*
X9135209Y-39685513D01*
X8988465Y-39607077D01*
X8829239Y-39558776D01*
X8663650Y-39542467D01*
X8151150Y-39542467D01*
X7985561Y-39558776D01*
X7826335Y-39607077D01*
X7811322Y-39615101D01*
X7791181Y-39590559D01*
X7695708Y-39512207D01*
X7586783Y-39453985D01*
X7468593Y-39418133D01*
X7345680Y-39406027D01*
X6548120Y-39406027D01*
X6425207Y-39418133D01*
X6307017Y-39453985D01*
X6198092Y-39512207D01*
X6102619Y-39590559D01*
X6047740Y-39657430D01*
X5992861Y-39590559D01*
X5897388Y-39512207D01*
X5788463Y-39453985D01*
X5670273Y-39418133D01*
X5547360Y-39406027D01*
X4749800Y-39406027D01*
X4626887Y-39418133D01*
X4508697Y-39453985D01*
X4399772Y-39512207D01*
X4304299Y-39590559D01*
X4225947Y-39686032D01*
X4167725Y-39794957D01*
X4141188Y-39882438D01*
X4130402Y-39883500D01*
X4130400Y-39883500D01*
X4019920Y-39894381D01*
X3878168Y-39937382D01*
X3795236Y-39981710D01*
X3747527Y-40007210D01*
X3698400Y-40047528D01*
X3698400Y-37769973D01*
X4244340Y-37769973D01*
X4367253Y-37757867D01*
X4485443Y-37722015D01*
X4502150Y-37713085D01*
X4518857Y-37722015D01*
X4637047Y-37757867D01*
X4759960Y-37769973D01*
X5557520Y-37769973D01*
X5680433Y-37757867D01*
X5798623Y-37722015D01*
X5907548Y-37663793D01*
X6003021Y-37585441D01*
X6057900Y-37518570D01*
X6112779Y-37585441D01*
X6208252Y-37663793D01*
X6317177Y-37722015D01*
X6435367Y-37757867D01*
X6558280Y-37769973D01*
X7355840Y-37769973D01*
X7478753Y-37757867D01*
X7596943Y-37722015D01*
X7705868Y-37663793D01*
X7801341Y-37585441D01*
X7879693Y-37489968D01*
X7937915Y-37381043D01*
X7973767Y-37262853D01*
X7985873Y-37139940D01*
X7985873Y-36243238D01*
X8104601Y-36124510D01*
X9162413Y-36124510D01*
X9091448Y-36171927D01*
G36*
X17206830Y-28106017D02*
G01*
X17194823Y-28066435D01*
X17116387Y-27919691D01*
X17010830Y-27791070D01*
X16882209Y-27685513D01*
X16735465Y-27607077D01*
X16576239Y-27558776D01*
X16410650Y-27542467D01*
X15898150Y-27542467D01*
X15732561Y-27558776D01*
X15573335Y-27607077D01*
X15426591Y-27685513D01*
X15297970Y-27791070D01*
X15192413Y-27919691D01*
X15113977Y-28066435D01*
X15065676Y-28225661D01*
X15049367Y-28391250D01*
X15049367Y-28828750D01*
X15065676Y-28994339D01*
X15113977Y-29153565D01*
X15192413Y-29300309D01*
X15272176Y-29397500D01*
X15192413Y-29494691D01*
X15113977Y-29641435D01*
X15065676Y-29800661D01*
X15049367Y-29966250D01*
X15049367Y-30403750D01*
X15065676Y-30569339D01*
X15113977Y-30728565D01*
X15192413Y-30875309D01*
X15297970Y-31003930D01*
X15417709Y-31102197D01*
X13775975Y-32743932D01*
X13765830Y-32731570D01*
X13637209Y-32626013D01*
X13490465Y-32547577D01*
X13331239Y-32499276D01*
X13165650Y-32482967D01*
X12728150Y-32482967D01*
X12562561Y-32499276D01*
X12403335Y-32547577D01*
X12256591Y-32626013D01*
X12159400Y-32705776D01*
X12062209Y-32626013D01*
X11915465Y-32547577D01*
X11756239Y-32499276D01*
X11590650Y-32482967D01*
X11153150Y-32482967D01*
X10987561Y-32499276D01*
X10828335Y-32547577D01*
X10681591Y-32626013D01*
X10552970Y-32731570D01*
X10447413Y-32860191D01*
X10368977Y-33006935D01*
X10320676Y-33166161D01*
X10304367Y-33331750D01*
X10304367Y-33844250D01*
X10305721Y-33858000D01*
X9318758Y-33858000D01*
X9263830Y-33791070D01*
X9135209Y-33685513D01*
X8988465Y-33607077D01*
X8829239Y-33558776D01*
X8663650Y-33542467D01*
X8151150Y-33542467D01*
X7985561Y-33558776D01*
X7826335Y-33607077D01*
X7811322Y-33615101D01*
X7791181Y-33590559D01*
X7695708Y-33512207D01*
X7586783Y-33453985D01*
X7468593Y-33418133D01*
X7345680Y-33406027D01*
X6548120Y-33406027D01*
X6425207Y-33418133D01*
X6307017Y-33453985D01*
X6198092Y-33512207D01*
X6102619Y-33590559D01*
X6047740Y-33657430D01*
X5992861Y-33590559D01*
X5897388Y-33512207D01*
X5788463Y-33453985D01*
X5670273Y-33418133D01*
X5547360Y-33406027D01*
X4749800Y-33406027D01*
X4626887Y-33418133D01*
X4508697Y-33453985D01*
X4399772Y-33512207D01*
X4304299Y-33590559D01*
X4225947Y-33686032D01*
X4167725Y-33794957D01*
X4141188Y-33882438D01*
X4130402Y-33883500D01*
X4130400Y-33883500D01*
X4019920Y-33894381D01*
X3878168Y-33937382D01*
X3795236Y-33981710D01*
X3747527Y-34007210D01*
X3698400Y-34047528D01*
X3698400Y-31769973D01*
X4244340Y-31769973D01*
X4367253Y-31757867D01*
X4485443Y-31722015D01*
X4502150Y-31713085D01*
X4518857Y-31722015D01*
X4637047Y-31757867D01*
X4759960Y-31769973D01*
X5557520Y-31769973D01*
X5680433Y-31757867D01*
X5798623Y-31722015D01*
X5907548Y-31663793D01*
X6003021Y-31585441D01*
X6057900Y-31518570D01*
X6112779Y-31585441D01*
X6208252Y-31663793D01*
X6317177Y-31722015D01*
X6435367Y-31757867D01*
X6558280Y-31769973D01*
X7355840Y-31769973D01*
X7478753Y-31757867D01*
X7596943Y-31722015D01*
X7705868Y-31663793D01*
X7801341Y-31585441D01*
X7879693Y-31489968D01*
X7937915Y-31381043D01*
X7973767Y-31262853D01*
X7985873Y-31139940D01*
X7985873Y-30243238D01*
X8104601Y-30124510D01*
X10328906Y-30124510D01*
X10346320Y-30133818D01*
X10488072Y-30176819D01*
X10598552Y-30187700D01*
X10598554Y-30187700D01*
X10635489Y-30191338D01*
X10672425Y-30187700D01*
X10838163Y-30187700D01*
X10883059Y-30201319D01*
X10997193Y-30212560D01*
X11816853Y-30212560D01*
X11819131Y-30235691D01*
X11863553Y-30382130D01*
X11935690Y-30517088D01*
X12032770Y-30635380D01*
X12151062Y-30732460D01*
X12286020Y-30804597D01*
X12432459Y-30849019D01*
X12546593Y-30860260D01*
X13372207Y-30860260D01*
X13486341Y-30849019D01*
X13632780Y-30804597D01*
X13767738Y-30732460D01*
X13886030Y-30635380D01*
X13983110Y-30517088D01*
X14055247Y-30382130D01*
X14099669Y-30235691D01*
X14114668Y-30083400D01*
X14099669Y-29931109D01*
X14055247Y-29784670D01*
X14041820Y-29759550D01*
X14055247Y-29734430D01*
X14099669Y-29587991D01*
X14114668Y-29435700D01*
X14099669Y-29283409D01*
X14055247Y-29136970D01*
X14041820Y-29111850D01*
X14055247Y-29086730D01*
X14099669Y-28940291D01*
X14114668Y-28788000D01*
X14099669Y-28635709D01*
X14055247Y-28489270D01*
X14008749Y-28402279D01*
X15706029Y-26705000D01*
X18607846Y-26705000D01*
X17206830Y-28106017D01*
G37*
X17206830Y-28106017D02*
X17194823Y-28066435D01*
X17116387Y-27919691D01*
X17010830Y-27791070D01*
X16882209Y-27685513D01*
X16735465Y-27607077D01*
X16576239Y-27558776D01*
X16410650Y-27542467D01*
X15898150Y-27542467D01*
X15732561Y-27558776D01*
X15573335Y-27607077D01*
X15426591Y-27685513D01*
X15297970Y-27791070D01*
X15192413Y-27919691D01*
X15113977Y-28066435D01*
X15065676Y-28225661D01*
X15049367Y-28391250D01*
X15049367Y-28828750D01*
X15065676Y-28994339D01*
X15113977Y-29153565D01*
X15192413Y-29300309D01*
X15272176Y-29397500D01*
X15192413Y-29494691D01*
X15113977Y-29641435D01*
X15065676Y-29800661D01*
X15049367Y-29966250D01*
X15049367Y-30403750D01*
X15065676Y-30569339D01*
X15113977Y-30728565D01*
X15192413Y-30875309D01*
X15297970Y-31003930D01*
X15417709Y-31102197D01*
X13775975Y-32743932D01*
X13765830Y-32731570D01*
X13637209Y-32626013D01*
X13490465Y-32547577D01*
X13331239Y-32499276D01*
X13165650Y-32482967D01*
X12728150Y-32482967D01*
X12562561Y-32499276D01*
X12403335Y-32547577D01*
X12256591Y-32626013D01*
X12159400Y-32705776D01*
X12062209Y-32626013D01*
X11915465Y-32547577D01*
X11756239Y-32499276D01*
X11590650Y-32482967D01*
X11153150Y-32482967D01*
X10987561Y-32499276D01*
X10828335Y-32547577D01*
X10681591Y-32626013D01*
X10552970Y-32731570D01*
X10447413Y-32860191D01*
X10368977Y-33006935D01*
X10320676Y-33166161D01*
X10304367Y-33331750D01*
X10304367Y-33844250D01*
X10305721Y-33858000D01*
X9318758Y-33858000D01*
X9263830Y-33791070D01*
X9135209Y-33685513D01*
X8988465Y-33607077D01*
X8829239Y-33558776D01*
X8663650Y-33542467D01*
X8151150Y-33542467D01*
X7985561Y-33558776D01*
X7826335Y-33607077D01*
X7811322Y-33615101D01*
X7791181Y-33590559D01*
X7695708Y-33512207D01*
X7586783Y-33453985D01*
X7468593Y-33418133D01*
X7345680Y-33406027D01*
X6548120Y-33406027D01*
X6425207Y-33418133D01*
X6307017Y-33453985D01*
X6198092Y-33512207D01*
X6102619Y-33590559D01*
X6047740Y-33657430D01*
X5992861Y-33590559D01*
X5897388Y-33512207D01*
X5788463Y-33453985D01*
X5670273Y-33418133D01*
X5547360Y-33406027D01*
X4749800Y-33406027D01*
X4626887Y-33418133D01*
X4508697Y-33453985D01*
X4399772Y-33512207D01*
X4304299Y-33590559D01*
X4225947Y-33686032D01*
X4167725Y-33794957D01*
X4141188Y-33882438D01*
X4130402Y-33883500D01*
X4130400Y-33883500D01*
X4019920Y-33894381D01*
X3878168Y-33937382D01*
X3795236Y-33981710D01*
X3747527Y-34007210D01*
X3698400Y-34047528D01*
X3698400Y-31769973D01*
X4244340Y-31769973D01*
X4367253Y-31757867D01*
X4485443Y-31722015D01*
X4502150Y-31713085D01*
X4518857Y-31722015D01*
X4637047Y-31757867D01*
X4759960Y-31769973D01*
X5557520Y-31769973D01*
X5680433Y-31757867D01*
X5798623Y-31722015D01*
X5907548Y-31663793D01*
X6003021Y-31585441D01*
X6057900Y-31518570D01*
X6112779Y-31585441D01*
X6208252Y-31663793D01*
X6317177Y-31722015D01*
X6435367Y-31757867D01*
X6558280Y-31769973D01*
X7355840Y-31769973D01*
X7478753Y-31757867D01*
X7596943Y-31722015D01*
X7705868Y-31663793D01*
X7801341Y-31585441D01*
X7879693Y-31489968D01*
X7937915Y-31381043D01*
X7973767Y-31262853D01*
X7985873Y-31139940D01*
X7985873Y-30243238D01*
X8104601Y-30124510D01*
X10328906Y-30124510D01*
X10346320Y-30133818D01*
X10488072Y-30176819D01*
X10598552Y-30187700D01*
X10598554Y-30187700D01*
X10635489Y-30191338D01*
X10672425Y-30187700D01*
X10838163Y-30187700D01*
X10883059Y-30201319D01*
X10997193Y-30212560D01*
X11816853Y-30212560D01*
X11819131Y-30235691D01*
X11863553Y-30382130D01*
X11935690Y-30517088D01*
X12032770Y-30635380D01*
X12151062Y-30732460D01*
X12286020Y-30804597D01*
X12432459Y-30849019D01*
X12546593Y-30860260D01*
X13372207Y-30860260D01*
X13486341Y-30849019D01*
X13632780Y-30804597D01*
X13767738Y-30732460D01*
X13886030Y-30635380D01*
X13983110Y-30517088D01*
X14055247Y-30382130D01*
X14099669Y-30235691D01*
X14114668Y-30083400D01*
X14099669Y-29931109D01*
X14055247Y-29784670D01*
X14041820Y-29759550D01*
X14055247Y-29734430D01*
X14099669Y-29587991D01*
X14114668Y-29435700D01*
X14099669Y-29283409D01*
X14055247Y-29136970D01*
X14041820Y-29111850D01*
X14055247Y-29086730D01*
X14099669Y-28940291D01*
X14114668Y-28788000D01*
X14099669Y-28635709D01*
X14055247Y-28489270D01*
X14008749Y-28402279D01*
X15706029Y-26705000D01*
X18607846Y-26705000D01*
X17206830Y-28106017D01*
G36*
X10346320Y-24133818D02*
G01*
X10488072Y-24176819D01*
X10598552Y-24187700D01*
X10598554Y-24187700D01*
X10635489Y-24191338D01*
X10672425Y-24187700D01*
X10838163Y-24187700D01*
X10883059Y-24201319D01*
X10997193Y-24212560D01*
X11816853Y-24212560D01*
X11819131Y-24235691D01*
X11863553Y-24382130D01*
X11935690Y-24517088D01*
X12032770Y-24635380D01*
X12151062Y-24732460D01*
X12286020Y-24804597D01*
X12432459Y-24849019D01*
X12546593Y-24860260D01*
X13372207Y-24860260D01*
X13486341Y-24849019D01*
X13632780Y-24804597D01*
X13767738Y-24732460D01*
X13886030Y-24635380D01*
X13983110Y-24517088D01*
X13997185Y-24490756D01*
X14895863Y-25389435D01*
X14860223Y-25418683D01*
X14836677Y-25447374D01*
X13648649Y-26635402D01*
X13637209Y-26626013D01*
X13490465Y-26547577D01*
X13331239Y-26499276D01*
X13165650Y-26482967D01*
X12728150Y-26482967D01*
X12562561Y-26499276D01*
X12403335Y-26547577D01*
X12256591Y-26626013D01*
X12159400Y-26705776D01*
X12062209Y-26626013D01*
X11915465Y-26547577D01*
X11756239Y-26499276D01*
X11590650Y-26482967D01*
X11153150Y-26482967D01*
X10987561Y-26499276D01*
X10828335Y-26547577D01*
X10681591Y-26626013D01*
X10552970Y-26731570D01*
X10447413Y-26860191D01*
X10368977Y-27006935D01*
X10320676Y-27166161D01*
X10304367Y-27331750D01*
X10304367Y-27844250D01*
X10305721Y-27858000D01*
X9318758Y-27858000D01*
X9263830Y-27791070D01*
X9135209Y-27685513D01*
X8988465Y-27607077D01*
X8829239Y-27558776D01*
X8663650Y-27542467D01*
X8151150Y-27542467D01*
X7985561Y-27558776D01*
X7826335Y-27607077D01*
X7811322Y-27615101D01*
X7791181Y-27590559D01*
X7695708Y-27512207D01*
X7586783Y-27453985D01*
X7468593Y-27418133D01*
X7345680Y-27406027D01*
X6548120Y-27406027D01*
X6425207Y-27418133D01*
X6307017Y-27453985D01*
X6198092Y-27512207D01*
X6102619Y-27590559D01*
X6047740Y-27657430D01*
X5992861Y-27590559D01*
X5897388Y-27512207D01*
X5788463Y-27453985D01*
X5670273Y-27418133D01*
X5547360Y-27406027D01*
X4749800Y-27406027D01*
X4626887Y-27418133D01*
X4508697Y-27453985D01*
X4399772Y-27512207D01*
X4304299Y-27590559D01*
X4225947Y-27686032D01*
X4167725Y-27794957D01*
X4141188Y-27882438D01*
X4130402Y-27883500D01*
X4130400Y-27883500D01*
X4019920Y-27894381D01*
X3878168Y-27937382D01*
X3807789Y-27975000D01*
X3747527Y-28007210D01*
X3698400Y-28047528D01*
X3698400Y-25769973D01*
X4244340Y-25769973D01*
X4367253Y-25757867D01*
X4485443Y-25722015D01*
X4502150Y-25713085D01*
X4518857Y-25722015D01*
X4637047Y-25757867D01*
X4759960Y-25769973D01*
X5557520Y-25769973D01*
X5680433Y-25757867D01*
X5798623Y-25722015D01*
X5907548Y-25663793D01*
X6003021Y-25585441D01*
X6057900Y-25518570D01*
X6112779Y-25585441D01*
X6208252Y-25663793D01*
X6317177Y-25722015D01*
X6435367Y-25757867D01*
X6558280Y-25769973D01*
X7355840Y-25769973D01*
X7478753Y-25757867D01*
X7596943Y-25722015D01*
X7705868Y-25663793D01*
X7801341Y-25585441D01*
X7879693Y-25489968D01*
X7937915Y-25381043D01*
X7973767Y-25262853D01*
X7985873Y-25139940D01*
X7985873Y-24243238D01*
X8104601Y-24124510D01*
X10328906Y-24124510D01*
X10346320Y-24133818D01*
G37*
X10346320Y-24133818D02*
X10488072Y-24176819D01*
X10598552Y-24187700D01*
X10598554Y-24187700D01*
X10635489Y-24191338D01*
X10672425Y-24187700D01*
X10838163Y-24187700D01*
X10883059Y-24201319D01*
X10997193Y-24212560D01*
X11816853Y-24212560D01*
X11819131Y-24235691D01*
X11863553Y-24382130D01*
X11935690Y-24517088D01*
X12032770Y-24635380D01*
X12151062Y-24732460D01*
X12286020Y-24804597D01*
X12432459Y-24849019D01*
X12546593Y-24860260D01*
X13372207Y-24860260D01*
X13486341Y-24849019D01*
X13632780Y-24804597D01*
X13767738Y-24732460D01*
X13886030Y-24635380D01*
X13983110Y-24517088D01*
X13997185Y-24490756D01*
X14895863Y-25389435D01*
X14860223Y-25418683D01*
X14836677Y-25447374D01*
X13648649Y-26635402D01*
X13637209Y-26626013D01*
X13490465Y-26547577D01*
X13331239Y-26499276D01*
X13165650Y-26482967D01*
X12728150Y-26482967D01*
X12562561Y-26499276D01*
X12403335Y-26547577D01*
X12256591Y-26626013D01*
X12159400Y-26705776D01*
X12062209Y-26626013D01*
X11915465Y-26547577D01*
X11756239Y-26499276D01*
X11590650Y-26482967D01*
X11153150Y-26482967D01*
X10987561Y-26499276D01*
X10828335Y-26547577D01*
X10681591Y-26626013D01*
X10552970Y-26731570D01*
X10447413Y-26860191D01*
X10368977Y-27006935D01*
X10320676Y-27166161D01*
X10304367Y-27331750D01*
X10304367Y-27844250D01*
X10305721Y-27858000D01*
X9318758Y-27858000D01*
X9263830Y-27791070D01*
X9135209Y-27685513D01*
X8988465Y-27607077D01*
X8829239Y-27558776D01*
X8663650Y-27542467D01*
X8151150Y-27542467D01*
X7985561Y-27558776D01*
X7826335Y-27607077D01*
X7811322Y-27615101D01*
X7791181Y-27590559D01*
X7695708Y-27512207D01*
X7586783Y-27453985D01*
X7468593Y-27418133D01*
X7345680Y-27406027D01*
X6548120Y-27406027D01*
X6425207Y-27418133D01*
X6307017Y-27453985D01*
X6198092Y-27512207D01*
X6102619Y-27590559D01*
X6047740Y-27657430D01*
X5992861Y-27590559D01*
X5897388Y-27512207D01*
X5788463Y-27453985D01*
X5670273Y-27418133D01*
X5547360Y-27406027D01*
X4749800Y-27406027D01*
X4626887Y-27418133D01*
X4508697Y-27453985D01*
X4399772Y-27512207D01*
X4304299Y-27590559D01*
X4225947Y-27686032D01*
X4167725Y-27794957D01*
X4141188Y-27882438D01*
X4130402Y-27883500D01*
X4130400Y-27883500D01*
X4019920Y-27894381D01*
X3878168Y-27937382D01*
X3807789Y-27975000D01*
X3747527Y-28007210D01*
X3698400Y-28047528D01*
X3698400Y-25769973D01*
X4244340Y-25769973D01*
X4367253Y-25757867D01*
X4485443Y-25722015D01*
X4502150Y-25713085D01*
X4518857Y-25722015D01*
X4637047Y-25757867D01*
X4759960Y-25769973D01*
X5557520Y-25769973D01*
X5680433Y-25757867D01*
X5798623Y-25722015D01*
X5907548Y-25663793D01*
X6003021Y-25585441D01*
X6057900Y-25518570D01*
X6112779Y-25585441D01*
X6208252Y-25663793D01*
X6317177Y-25722015D01*
X6435367Y-25757867D01*
X6558280Y-25769973D01*
X7355840Y-25769973D01*
X7478753Y-25757867D01*
X7596943Y-25722015D01*
X7705868Y-25663793D01*
X7801341Y-25585441D01*
X7879693Y-25489968D01*
X7937915Y-25381043D01*
X7973767Y-25262853D01*
X7985873Y-25139940D01*
X7985873Y-24243238D01*
X8104601Y-24124510D01*
X10328906Y-24124510D01*
X10346320Y-24133818D01*
G36*
X10346320Y-18133818D02*
G01*
X10488072Y-18176819D01*
X10598552Y-18187700D01*
X10598554Y-18187700D01*
X10635489Y-18191338D01*
X10672425Y-18187700D01*
X10838163Y-18187700D01*
X10883059Y-18201319D01*
X10997193Y-18212560D01*
X11816853Y-18212560D01*
X11819131Y-18235691D01*
X11863553Y-18382130D01*
X11935690Y-18517088D01*
X12032770Y-18635380D01*
X12151062Y-18732460D01*
X12286020Y-18804597D01*
X12432459Y-18849019D01*
X12546593Y-18860260D01*
X13372207Y-18860260D01*
X13486341Y-18849019D01*
X13632780Y-18804597D01*
X13767738Y-18732460D01*
X13886030Y-18635380D01*
X13983110Y-18517088D01*
X14018110Y-18451608D01*
X18708064Y-23141563D01*
X18711282Y-23152170D01*
X18781110Y-23282810D01*
X18875083Y-23397317D01*
X18903778Y-23420866D01*
X19029367Y-23546455D01*
X19029367Y-23713000D01*
X19041473Y-23835913D01*
X19077325Y-23954103D01*
X19099655Y-23995879D01*
X18989590Y-24054710D01*
X18875083Y-24148683D01*
X18851529Y-24177384D01*
X18833403Y-24195510D01*
X17259433Y-24195510D01*
X17259433Y-23966250D01*
X17243124Y-23800661D01*
X17194823Y-23641435D01*
X17116387Y-23494691D01*
X17036624Y-23397500D01*
X17116387Y-23300309D01*
X17194823Y-23153565D01*
X17243124Y-22994339D01*
X17259433Y-22828750D01*
X17259433Y-22391250D01*
X17243124Y-22225661D01*
X17194823Y-22066435D01*
X17116387Y-21919691D01*
X17010830Y-21791070D01*
X16882209Y-21685513D01*
X16735465Y-21607077D01*
X16576239Y-21558776D01*
X16410650Y-21542467D01*
X15898150Y-21542467D01*
X15732561Y-21558776D01*
X15573335Y-21607077D01*
X15426591Y-21685513D01*
X15297970Y-21791070D01*
X15192413Y-21919691D01*
X15113977Y-22066435D01*
X15065676Y-22225661D01*
X15049367Y-22391250D01*
X15049367Y-22828750D01*
X15065676Y-22994339D01*
X15113977Y-23153565D01*
X15192413Y-23300309D01*
X15272176Y-23397500D01*
X15192413Y-23494691D01*
X15170010Y-23536604D01*
X13962025Y-22328620D01*
X13902989Y-22256685D01*
X13949823Y-22169065D01*
X13998124Y-22009839D01*
X14014433Y-21844250D01*
X14014433Y-21331750D01*
X13998124Y-21166161D01*
X13949823Y-21006935D01*
X13871387Y-20860191D01*
X13765830Y-20731570D01*
X13637209Y-20626013D01*
X13490465Y-20547577D01*
X13331239Y-20499276D01*
X13165650Y-20482967D01*
X12728150Y-20482967D01*
X12562561Y-20499276D01*
X12403335Y-20547577D01*
X12256591Y-20626013D01*
X12159400Y-20705776D01*
X12062209Y-20626013D01*
X11915465Y-20547577D01*
X11756239Y-20499276D01*
X11590650Y-20482967D01*
X11153150Y-20482967D01*
X10987561Y-20499276D01*
X10828335Y-20547577D01*
X10681591Y-20626013D01*
X10552970Y-20731570D01*
X10447413Y-20860191D01*
X10368977Y-21006935D01*
X10320676Y-21166161D01*
X10304367Y-21331750D01*
X10304367Y-21844250D01*
X10305721Y-21858000D01*
X9318758Y-21858000D01*
X9263830Y-21791070D01*
X9135209Y-21685513D01*
X8988465Y-21607077D01*
X8829239Y-21558776D01*
X8663650Y-21542467D01*
X8151150Y-21542467D01*
X7985561Y-21558776D01*
X7826335Y-21607077D01*
X7811322Y-21615101D01*
X7791181Y-21590559D01*
X7695708Y-21512207D01*
X7586783Y-21453985D01*
X7468593Y-21418133D01*
X7345680Y-21406027D01*
X6548120Y-21406027D01*
X6425207Y-21418133D01*
X6307017Y-21453985D01*
X6198092Y-21512207D01*
X6102619Y-21590559D01*
X6047740Y-21657430D01*
X5992861Y-21590559D01*
X5897388Y-21512207D01*
X5788463Y-21453985D01*
X5670273Y-21418133D01*
X5547360Y-21406027D01*
X4749800Y-21406027D01*
X4626887Y-21418133D01*
X4508697Y-21453985D01*
X4399772Y-21512207D01*
X4304299Y-21590559D01*
X4225947Y-21686032D01*
X4167725Y-21794957D01*
X4141188Y-21882438D01*
X4130402Y-21883500D01*
X4130400Y-21883500D01*
X4019920Y-21894381D01*
X3878168Y-21937382D01*
X3795236Y-21981710D01*
X3747527Y-22007210D01*
X3698400Y-22047528D01*
X3698400Y-19769973D01*
X4244340Y-19769973D01*
X4367253Y-19757867D01*
X4485443Y-19722015D01*
X4502150Y-19713085D01*
X4518857Y-19722015D01*
X4637047Y-19757867D01*
X4759960Y-19769973D01*
X5557520Y-19769973D01*
X5680433Y-19757867D01*
X5798623Y-19722015D01*
X5907548Y-19663793D01*
X6003021Y-19585441D01*
X6057900Y-19518570D01*
X6112779Y-19585441D01*
X6208252Y-19663793D01*
X6317177Y-19722015D01*
X6435367Y-19757867D01*
X6558280Y-19769973D01*
X7355840Y-19769973D01*
X7478753Y-19757867D01*
X7596943Y-19722015D01*
X7705868Y-19663793D01*
X7801341Y-19585441D01*
X7879693Y-19489968D01*
X7937915Y-19381043D01*
X7973767Y-19262853D01*
X7985873Y-19139940D01*
X7985873Y-18243238D01*
X8104601Y-18124510D01*
X10328906Y-18124510D01*
X10346320Y-18133818D01*
G37*
X10346320Y-18133818D02*
X10488072Y-18176819D01*
X10598552Y-18187700D01*
X10598554Y-18187700D01*
X10635489Y-18191338D01*
X10672425Y-18187700D01*
X10838163Y-18187700D01*
X10883059Y-18201319D01*
X10997193Y-18212560D01*
X11816853Y-18212560D01*
X11819131Y-18235691D01*
X11863553Y-18382130D01*
X11935690Y-18517088D01*
X12032770Y-18635380D01*
X12151062Y-18732460D01*
X12286020Y-18804597D01*
X12432459Y-18849019D01*
X12546593Y-18860260D01*
X13372207Y-18860260D01*
X13486341Y-18849019D01*
X13632780Y-18804597D01*
X13767738Y-18732460D01*
X13886030Y-18635380D01*
X13983110Y-18517088D01*
X14018110Y-18451608D01*
X18708064Y-23141563D01*
X18711282Y-23152170D01*
X18781110Y-23282810D01*
X18875083Y-23397317D01*
X18903778Y-23420866D01*
X19029367Y-23546455D01*
X19029367Y-23713000D01*
X19041473Y-23835913D01*
X19077325Y-23954103D01*
X19099655Y-23995879D01*
X18989590Y-24054710D01*
X18875083Y-24148683D01*
X18851529Y-24177384D01*
X18833403Y-24195510D01*
X17259433Y-24195510D01*
X17259433Y-23966250D01*
X17243124Y-23800661D01*
X17194823Y-23641435D01*
X17116387Y-23494691D01*
X17036624Y-23397500D01*
X17116387Y-23300309D01*
X17194823Y-23153565D01*
X17243124Y-22994339D01*
X17259433Y-22828750D01*
X17259433Y-22391250D01*
X17243124Y-22225661D01*
X17194823Y-22066435D01*
X17116387Y-21919691D01*
X17010830Y-21791070D01*
X16882209Y-21685513D01*
X16735465Y-21607077D01*
X16576239Y-21558776D01*
X16410650Y-21542467D01*
X15898150Y-21542467D01*
X15732561Y-21558776D01*
X15573335Y-21607077D01*
X15426591Y-21685513D01*
X15297970Y-21791070D01*
X15192413Y-21919691D01*
X15113977Y-22066435D01*
X15065676Y-22225661D01*
X15049367Y-22391250D01*
X15049367Y-22828750D01*
X15065676Y-22994339D01*
X15113977Y-23153565D01*
X15192413Y-23300309D01*
X15272176Y-23397500D01*
X15192413Y-23494691D01*
X15170010Y-23536604D01*
X13962025Y-22328620D01*
X13902989Y-22256685D01*
X13949823Y-22169065D01*
X13998124Y-22009839D01*
X14014433Y-21844250D01*
X14014433Y-21331750D01*
X13998124Y-21166161D01*
X13949823Y-21006935D01*
X13871387Y-20860191D01*
X13765830Y-20731570D01*
X13637209Y-20626013D01*
X13490465Y-20547577D01*
X13331239Y-20499276D01*
X13165650Y-20482967D01*
X12728150Y-20482967D01*
X12562561Y-20499276D01*
X12403335Y-20547577D01*
X12256591Y-20626013D01*
X12159400Y-20705776D01*
X12062209Y-20626013D01*
X11915465Y-20547577D01*
X11756239Y-20499276D01*
X11590650Y-20482967D01*
X11153150Y-20482967D01*
X10987561Y-20499276D01*
X10828335Y-20547577D01*
X10681591Y-20626013D01*
X10552970Y-20731570D01*
X10447413Y-20860191D01*
X10368977Y-21006935D01*
X10320676Y-21166161D01*
X10304367Y-21331750D01*
X10304367Y-21844250D01*
X10305721Y-21858000D01*
X9318758Y-21858000D01*
X9263830Y-21791070D01*
X9135209Y-21685513D01*
X8988465Y-21607077D01*
X8829239Y-21558776D01*
X8663650Y-21542467D01*
X8151150Y-21542467D01*
X7985561Y-21558776D01*
X7826335Y-21607077D01*
X7811322Y-21615101D01*
X7791181Y-21590559D01*
X7695708Y-21512207D01*
X7586783Y-21453985D01*
X7468593Y-21418133D01*
X7345680Y-21406027D01*
X6548120Y-21406027D01*
X6425207Y-21418133D01*
X6307017Y-21453985D01*
X6198092Y-21512207D01*
X6102619Y-21590559D01*
X6047740Y-21657430D01*
X5992861Y-21590559D01*
X5897388Y-21512207D01*
X5788463Y-21453985D01*
X5670273Y-21418133D01*
X5547360Y-21406027D01*
X4749800Y-21406027D01*
X4626887Y-21418133D01*
X4508697Y-21453985D01*
X4399772Y-21512207D01*
X4304299Y-21590559D01*
X4225947Y-21686032D01*
X4167725Y-21794957D01*
X4141188Y-21882438D01*
X4130402Y-21883500D01*
X4130400Y-21883500D01*
X4019920Y-21894381D01*
X3878168Y-21937382D01*
X3795236Y-21981710D01*
X3747527Y-22007210D01*
X3698400Y-22047528D01*
X3698400Y-19769973D01*
X4244340Y-19769973D01*
X4367253Y-19757867D01*
X4485443Y-19722015D01*
X4502150Y-19713085D01*
X4518857Y-19722015D01*
X4637047Y-19757867D01*
X4759960Y-19769973D01*
X5557520Y-19769973D01*
X5680433Y-19757867D01*
X5798623Y-19722015D01*
X5907548Y-19663793D01*
X6003021Y-19585441D01*
X6057900Y-19518570D01*
X6112779Y-19585441D01*
X6208252Y-19663793D01*
X6317177Y-19722015D01*
X6435367Y-19757867D01*
X6558280Y-19769973D01*
X7355840Y-19769973D01*
X7478753Y-19757867D01*
X7596943Y-19722015D01*
X7705868Y-19663793D01*
X7801341Y-19585441D01*
X7879693Y-19489968D01*
X7937915Y-19381043D01*
X7973767Y-19262853D01*
X7985873Y-19139940D01*
X7985873Y-18243238D01*
X8104601Y-18124510D01*
X10328906Y-18124510D01*
X10346320Y-18133818D01*
G36*
X10346320Y-12133818D02*
G01*
X10488072Y-12176819D01*
X10598552Y-12187700D01*
X10598554Y-12187700D01*
X10635489Y-12191338D01*
X10672425Y-12187700D01*
X10838163Y-12187700D01*
X10883059Y-12201319D01*
X10997193Y-12212560D01*
X11816853Y-12212560D01*
X11819131Y-12235691D01*
X11863553Y-12382130D01*
X11935690Y-12517088D01*
X12032770Y-12635380D01*
X12151062Y-12732460D01*
X12286020Y-12804597D01*
X12432459Y-12849019D01*
X12546593Y-12860260D01*
X13372207Y-12860260D01*
X13486341Y-12849019D01*
X13632780Y-12804597D01*
X13767738Y-12732460D01*
X13886030Y-12635380D01*
X13983110Y-12517088D01*
X13997185Y-12490756D01*
X18132390Y-16625962D01*
X18132391Y-20438912D01*
X16830568Y-19137090D01*
X16882209Y-19109487D01*
X17010830Y-19003930D01*
X17116387Y-18875309D01*
X17194823Y-18728565D01*
X17243124Y-18569339D01*
X17259433Y-18403750D01*
X17259433Y-17966250D01*
X17243124Y-17800661D01*
X17194823Y-17641435D01*
X17116387Y-17494691D01*
X17036624Y-17397500D01*
X17116387Y-17300309D01*
X17194823Y-17153565D01*
X17243124Y-16994339D01*
X17259433Y-16828750D01*
X17259433Y-16391250D01*
X17243124Y-16225661D01*
X17194823Y-16066435D01*
X17116387Y-15919691D01*
X17010830Y-15791070D01*
X16882209Y-15685513D01*
X16735465Y-15607077D01*
X16576239Y-15558776D01*
X16410650Y-15542467D01*
X15898150Y-15542467D01*
X15732561Y-15558776D01*
X15573335Y-15607077D01*
X15426591Y-15685513D01*
X15297970Y-15791070D01*
X15192413Y-15919691D01*
X15113977Y-16066435D01*
X15065676Y-16225661D01*
X15049367Y-16391250D01*
X15049367Y-16828750D01*
X15065676Y-16994339D01*
X15113977Y-17153565D01*
X15192413Y-17300309D01*
X15272176Y-17397500D01*
X15192413Y-17494691D01*
X15190935Y-17497457D01*
X14148687Y-16455209D01*
X14125137Y-16426513D01*
X14010630Y-16332540D01*
X13929774Y-16289322D01*
X13902989Y-16256685D01*
X13949823Y-16169065D01*
X13998124Y-16009839D01*
X14014433Y-15844250D01*
X14014433Y-15331750D01*
X13998124Y-15166161D01*
X13949823Y-15006935D01*
X13871387Y-14860191D01*
X13765830Y-14731570D01*
X13637209Y-14626013D01*
X13490465Y-14547577D01*
X13331239Y-14499276D01*
X13165650Y-14482967D01*
X12728150Y-14482967D01*
X12562561Y-14499276D01*
X12403335Y-14547577D01*
X12256591Y-14626013D01*
X12159400Y-14705776D01*
X12062209Y-14626013D01*
X11915465Y-14547577D01*
X11756239Y-14499276D01*
X11590650Y-14482967D01*
X11153150Y-14482967D01*
X10987561Y-14499276D01*
X10828335Y-14547577D01*
X10681591Y-14626013D01*
X10552970Y-14731570D01*
X10447413Y-14860191D01*
X10368977Y-15006935D01*
X10320676Y-15166161D01*
X10304367Y-15331750D01*
X10304367Y-15844250D01*
X10305721Y-15858000D01*
X9318758Y-15858000D01*
X9263830Y-15791070D01*
X9135209Y-15685513D01*
X8988465Y-15607077D01*
X8829239Y-15558776D01*
X8663650Y-15542467D01*
X8151150Y-15542467D01*
X7985561Y-15558776D01*
X7826335Y-15607077D01*
X7811322Y-15615101D01*
X7791181Y-15590559D01*
X7695708Y-15512207D01*
X7586783Y-15453985D01*
X7468593Y-15418133D01*
X7345680Y-15406027D01*
X6548120Y-15406027D01*
X6425207Y-15418133D01*
X6307017Y-15453985D01*
X6198092Y-15512207D01*
X6102619Y-15590559D01*
X6047740Y-15657430D01*
X5992861Y-15590559D01*
X5897388Y-15512207D01*
X5788463Y-15453985D01*
X5670273Y-15418133D01*
X5547360Y-15406027D01*
X4749800Y-15406027D01*
X4626887Y-15418133D01*
X4508697Y-15453985D01*
X4399772Y-15512207D01*
X4304299Y-15590559D01*
X4225947Y-15686032D01*
X4167725Y-15794957D01*
X4141188Y-15882438D01*
X4130402Y-15883500D01*
X4130400Y-15883500D01*
X4019920Y-15894381D01*
X3878168Y-15937382D01*
X3802719Y-15977710D01*
X3747527Y-16007210D01*
X3698400Y-16047528D01*
X3698400Y-13769973D01*
X4244340Y-13769973D01*
X4367253Y-13757867D01*
X4485443Y-13722015D01*
X4502150Y-13713085D01*
X4518857Y-13722015D01*
X4637047Y-13757867D01*
X4759960Y-13769973D01*
X5557520Y-13769973D01*
X5680433Y-13757867D01*
X5798623Y-13722015D01*
X5907548Y-13663793D01*
X6003021Y-13585441D01*
X6057900Y-13518570D01*
X6112779Y-13585441D01*
X6208252Y-13663793D01*
X6317177Y-13722015D01*
X6435367Y-13757867D01*
X6558280Y-13769973D01*
X7355840Y-13769973D01*
X7478753Y-13757867D01*
X7596943Y-13722015D01*
X7705868Y-13663793D01*
X7801341Y-13585441D01*
X7879693Y-13489968D01*
X7937915Y-13381043D01*
X7973767Y-13262853D01*
X7985873Y-13139940D01*
X7985873Y-12243238D01*
X8104601Y-12124510D01*
X10328906Y-12124510D01*
X10346320Y-12133818D01*
G37*
X10346320Y-12133818D02*
X10488072Y-12176819D01*
X10598552Y-12187700D01*
X10598554Y-12187700D01*
X10635489Y-12191338D01*
X10672425Y-12187700D01*
X10838163Y-12187700D01*
X10883059Y-12201319D01*
X10997193Y-12212560D01*
X11816853Y-12212560D01*
X11819131Y-12235691D01*
X11863553Y-12382130D01*
X11935690Y-12517088D01*
X12032770Y-12635380D01*
X12151062Y-12732460D01*
X12286020Y-12804597D01*
X12432459Y-12849019D01*
X12546593Y-12860260D01*
X13372207Y-12860260D01*
X13486341Y-12849019D01*
X13632780Y-12804597D01*
X13767738Y-12732460D01*
X13886030Y-12635380D01*
X13983110Y-12517088D01*
X13997185Y-12490756D01*
X18132390Y-16625962D01*
X18132391Y-20438912D01*
X16830568Y-19137090D01*
X16882209Y-19109487D01*
X17010830Y-19003930D01*
X17116387Y-18875309D01*
X17194823Y-18728565D01*
X17243124Y-18569339D01*
X17259433Y-18403750D01*
X17259433Y-17966250D01*
X17243124Y-17800661D01*
X17194823Y-17641435D01*
X17116387Y-17494691D01*
X17036624Y-17397500D01*
X17116387Y-17300309D01*
X17194823Y-17153565D01*
X17243124Y-16994339D01*
X17259433Y-16828750D01*
X17259433Y-16391250D01*
X17243124Y-16225661D01*
X17194823Y-16066435D01*
X17116387Y-15919691D01*
X17010830Y-15791070D01*
X16882209Y-15685513D01*
X16735465Y-15607077D01*
X16576239Y-15558776D01*
X16410650Y-15542467D01*
X15898150Y-15542467D01*
X15732561Y-15558776D01*
X15573335Y-15607077D01*
X15426591Y-15685513D01*
X15297970Y-15791070D01*
X15192413Y-15919691D01*
X15113977Y-16066435D01*
X15065676Y-16225661D01*
X15049367Y-16391250D01*
X15049367Y-16828750D01*
X15065676Y-16994339D01*
X15113977Y-17153565D01*
X15192413Y-17300309D01*
X15272176Y-17397500D01*
X15192413Y-17494691D01*
X15190935Y-17497457D01*
X14148687Y-16455209D01*
X14125137Y-16426513D01*
X14010630Y-16332540D01*
X13929774Y-16289322D01*
X13902989Y-16256685D01*
X13949823Y-16169065D01*
X13998124Y-16009839D01*
X14014433Y-15844250D01*
X14014433Y-15331750D01*
X13998124Y-15166161D01*
X13949823Y-15006935D01*
X13871387Y-14860191D01*
X13765830Y-14731570D01*
X13637209Y-14626013D01*
X13490465Y-14547577D01*
X13331239Y-14499276D01*
X13165650Y-14482967D01*
X12728150Y-14482967D01*
X12562561Y-14499276D01*
X12403335Y-14547577D01*
X12256591Y-14626013D01*
X12159400Y-14705776D01*
X12062209Y-14626013D01*
X11915465Y-14547577D01*
X11756239Y-14499276D01*
X11590650Y-14482967D01*
X11153150Y-14482967D01*
X10987561Y-14499276D01*
X10828335Y-14547577D01*
X10681591Y-14626013D01*
X10552970Y-14731570D01*
X10447413Y-14860191D01*
X10368977Y-15006935D01*
X10320676Y-15166161D01*
X10304367Y-15331750D01*
X10304367Y-15844250D01*
X10305721Y-15858000D01*
X9318758Y-15858000D01*
X9263830Y-15791070D01*
X9135209Y-15685513D01*
X8988465Y-15607077D01*
X8829239Y-15558776D01*
X8663650Y-15542467D01*
X8151150Y-15542467D01*
X7985561Y-15558776D01*
X7826335Y-15607077D01*
X7811322Y-15615101D01*
X7791181Y-15590559D01*
X7695708Y-15512207D01*
X7586783Y-15453985D01*
X7468593Y-15418133D01*
X7345680Y-15406027D01*
X6548120Y-15406027D01*
X6425207Y-15418133D01*
X6307017Y-15453985D01*
X6198092Y-15512207D01*
X6102619Y-15590559D01*
X6047740Y-15657430D01*
X5992861Y-15590559D01*
X5897388Y-15512207D01*
X5788463Y-15453985D01*
X5670273Y-15418133D01*
X5547360Y-15406027D01*
X4749800Y-15406027D01*
X4626887Y-15418133D01*
X4508697Y-15453985D01*
X4399772Y-15512207D01*
X4304299Y-15590559D01*
X4225947Y-15686032D01*
X4167725Y-15794957D01*
X4141188Y-15882438D01*
X4130402Y-15883500D01*
X4130400Y-15883500D01*
X4019920Y-15894381D01*
X3878168Y-15937382D01*
X3802719Y-15977710D01*
X3747527Y-16007210D01*
X3698400Y-16047528D01*
X3698400Y-13769973D01*
X4244340Y-13769973D01*
X4367253Y-13757867D01*
X4485443Y-13722015D01*
X4502150Y-13713085D01*
X4518857Y-13722015D01*
X4637047Y-13757867D01*
X4759960Y-13769973D01*
X5557520Y-13769973D01*
X5680433Y-13757867D01*
X5798623Y-13722015D01*
X5907548Y-13663793D01*
X6003021Y-13585441D01*
X6057900Y-13518570D01*
X6112779Y-13585441D01*
X6208252Y-13663793D01*
X6317177Y-13722015D01*
X6435367Y-13757867D01*
X6558280Y-13769973D01*
X7355840Y-13769973D01*
X7478753Y-13757867D01*
X7596943Y-13722015D01*
X7705868Y-13663793D01*
X7801341Y-13585441D01*
X7879693Y-13489968D01*
X7937915Y-13381043D01*
X7973767Y-13262853D01*
X7985873Y-13139940D01*
X7985873Y-12243238D01*
X8104601Y-12124510D01*
X10328906Y-12124510D01*
X10346320Y-12133818D01*
G36*
X10346320Y-6133818D02*
G01*
X10488072Y-6176819D01*
X10598552Y-6187700D01*
X10598554Y-6187700D01*
X10635489Y-6191338D01*
X10672425Y-6187700D01*
X10838163Y-6187700D01*
X10883059Y-6201319D01*
X10997193Y-6212560D01*
X11816853Y-6212560D01*
X11819131Y-6235691D01*
X11863553Y-6382130D01*
X11935690Y-6517088D01*
X12032770Y-6635380D01*
X12151062Y-6732460D01*
X12286020Y-6804597D01*
X12432459Y-6849019D01*
X12546593Y-6860260D01*
X13372207Y-6860260D01*
X13486341Y-6849019D01*
X13632780Y-6804597D01*
X13767738Y-6732460D01*
X13886030Y-6635380D01*
X13983110Y-6517088D01*
X13997185Y-6490756D01*
X18582399Y-11075971D01*
X18582399Y-14948994D01*
X16791420Y-13158015D01*
X16882209Y-13109487D01*
X17010830Y-13003930D01*
X17116387Y-12875309D01*
X17194823Y-12728565D01*
X17243124Y-12569339D01*
X17259433Y-12403750D01*
X17259433Y-11966250D01*
X17243124Y-11800661D01*
X17194823Y-11641435D01*
X17116387Y-11494691D01*
X17036624Y-11397500D01*
X17116387Y-11300309D01*
X17194823Y-11153565D01*
X17243124Y-10994339D01*
X17259433Y-10828750D01*
X17259433Y-10391250D01*
X17243124Y-10225661D01*
X17194823Y-10066435D01*
X17116387Y-9919691D01*
X17010830Y-9791070D01*
X16882209Y-9685513D01*
X16735465Y-9607077D01*
X16576239Y-9558776D01*
X16410650Y-9542467D01*
X15898150Y-9542467D01*
X15732561Y-9558776D01*
X15573335Y-9607077D01*
X15426591Y-9685513D01*
X15297970Y-9791070D01*
X15192413Y-9919691D01*
X15113977Y-10066435D01*
X15065676Y-10225661D01*
X15049367Y-10391250D01*
X15049367Y-10828750D01*
X15065676Y-10994339D01*
X15113977Y-11153565D01*
X15192413Y-11300309D01*
X15272176Y-11397500D01*
X15192413Y-11494691D01*
X15170010Y-11536605D01*
X13962025Y-10328620D01*
X13886030Y-10236020D01*
X13767738Y-10138940D01*
X13712943Y-10109651D01*
X13722230Y-10102030D01*
X13827787Y-9973409D01*
X13906223Y-9826665D01*
X13954524Y-9667439D01*
X13970833Y-9501850D01*
X13970833Y-8989350D01*
X13954524Y-8823761D01*
X13906223Y-8664535D01*
X13827787Y-8517791D01*
X13722230Y-8389170D01*
X13593609Y-8283613D01*
X13446865Y-8205177D01*
X13287639Y-8156876D01*
X13122050Y-8140567D01*
X12684550Y-8140567D01*
X12518961Y-8156876D01*
X12359735Y-8205177D01*
X12212991Y-8283613D01*
X12115800Y-8363376D01*
X12018609Y-8283613D01*
X11871865Y-8205177D01*
X11712639Y-8156876D01*
X11547050Y-8140567D01*
X11109550Y-8140567D01*
X10943961Y-8156876D01*
X10784735Y-8205177D01*
X10637991Y-8283613D01*
X10509370Y-8389170D01*
X10403813Y-8517791D01*
X10325377Y-8664535D01*
X10277076Y-8823761D01*
X10260767Y-8989350D01*
X10260767Y-9501850D01*
X10277076Y-9667439D01*
X10325377Y-9826665D01*
X10342126Y-9858000D01*
X9318758Y-9858000D01*
X9263830Y-9791070D01*
X9135209Y-9685513D01*
X8988465Y-9607077D01*
X8829239Y-9558776D01*
X8663650Y-9542467D01*
X8151150Y-9542467D01*
X7985561Y-9558776D01*
X7826335Y-9607077D01*
X7811322Y-9615101D01*
X7791181Y-9590559D01*
X7695708Y-9512207D01*
X7586783Y-9453985D01*
X7468593Y-9418133D01*
X7345680Y-9406027D01*
X6548120Y-9406027D01*
X6425207Y-9418133D01*
X6307017Y-9453985D01*
X6198092Y-9512207D01*
X6102619Y-9590559D01*
X6047740Y-9657430D01*
X5992861Y-9590559D01*
X5897388Y-9512207D01*
X5788463Y-9453985D01*
X5670273Y-9418133D01*
X5547360Y-9406027D01*
X4749800Y-9406027D01*
X4626887Y-9418133D01*
X4508697Y-9453985D01*
X4399772Y-9512207D01*
X4304299Y-9590559D01*
X4225947Y-9686032D01*
X4167725Y-9794957D01*
X4141188Y-9882438D01*
X4130402Y-9883500D01*
X4130400Y-9883500D01*
X4019920Y-9894381D01*
X3878168Y-9937382D01*
X3810766Y-9973409D01*
X3747527Y-10007210D01*
X3698400Y-10047528D01*
X3698400Y-7769973D01*
X4244340Y-7769973D01*
X4367253Y-7757867D01*
X4485443Y-7722015D01*
X4502150Y-7713085D01*
X4518857Y-7722015D01*
X4637047Y-7757867D01*
X4759960Y-7769973D01*
X5557520Y-7769973D01*
X5680433Y-7757867D01*
X5798623Y-7722015D01*
X5907548Y-7663793D01*
X6003021Y-7585441D01*
X6057900Y-7518570D01*
X6112779Y-7585441D01*
X6208252Y-7663793D01*
X6317177Y-7722015D01*
X6435367Y-7757867D01*
X6558280Y-7769973D01*
X7355840Y-7769973D01*
X7478753Y-7757867D01*
X7596943Y-7722015D01*
X7705868Y-7663793D01*
X7801341Y-7585441D01*
X7879693Y-7489968D01*
X7937915Y-7381043D01*
X7973767Y-7262853D01*
X7985873Y-7139940D01*
X7985873Y-6243238D01*
X8104601Y-6124510D01*
X10328906Y-6124510D01*
X10346320Y-6133818D01*
G37*
X10346320Y-6133818D02*
X10488072Y-6176819D01*
X10598552Y-6187700D01*
X10598554Y-6187700D01*
X10635489Y-6191338D01*
X10672425Y-6187700D01*
X10838163Y-6187700D01*
X10883059Y-6201319D01*
X10997193Y-6212560D01*
X11816853Y-6212560D01*
X11819131Y-6235691D01*
X11863553Y-6382130D01*
X11935690Y-6517088D01*
X12032770Y-6635380D01*
X12151062Y-6732460D01*
X12286020Y-6804597D01*
X12432459Y-6849019D01*
X12546593Y-6860260D01*
X13372207Y-6860260D01*
X13486341Y-6849019D01*
X13632780Y-6804597D01*
X13767738Y-6732460D01*
X13886030Y-6635380D01*
X13983110Y-6517088D01*
X13997185Y-6490756D01*
X18582399Y-11075971D01*
X18582399Y-14948994D01*
X16791420Y-13158015D01*
X16882209Y-13109487D01*
X17010830Y-13003930D01*
X17116387Y-12875309D01*
X17194823Y-12728565D01*
X17243124Y-12569339D01*
X17259433Y-12403750D01*
X17259433Y-11966250D01*
X17243124Y-11800661D01*
X17194823Y-11641435D01*
X17116387Y-11494691D01*
X17036624Y-11397500D01*
X17116387Y-11300309D01*
X17194823Y-11153565D01*
X17243124Y-10994339D01*
X17259433Y-10828750D01*
X17259433Y-10391250D01*
X17243124Y-10225661D01*
X17194823Y-10066435D01*
X17116387Y-9919691D01*
X17010830Y-9791070D01*
X16882209Y-9685513D01*
X16735465Y-9607077D01*
X16576239Y-9558776D01*
X16410650Y-9542467D01*
X15898150Y-9542467D01*
X15732561Y-9558776D01*
X15573335Y-9607077D01*
X15426591Y-9685513D01*
X15297970Y-9791070D01*
X15192413Y-9919691D01*
X15113977Y-10066435D01*
X15065676Y-10225661D01*
X15049367Y-10391250D01*
X15049367Y-10828750D01*
X15065676Y-10994339D01*
X15113977Y-11153565D01*
X15192413Y-11300309D01*
X15272176Y-11397500D01*
X15192413Y-11494691D01*
X15170010Y-11536605D01*
X13962025Y-10328620D01*
X13886030Y-10236020D01*
X13767738Y-10138940D01*
X13712943Y-10109651D01*
X13722230Y-10102030D01*
X13827787Y-9973409D01*
X13906223Y-9826665D01*
X13954524Y-9667439D01*
X13970833Y-9501850D01*
X13970833Y-8989350D01*
X13954524Y-8823761D01*
X13906223Y-8664535D01*
X13827787Y-8517791D01*
X13722230Y-8389170D01*
X13593609Y-8283613D01*
X13446865Y-8205177D01*
X13287639Y-8156876D01*
X13122050Y-8140567D01*
X12684550Y-8140567D01*
X12518961Y-8156876D01*
X12359735Y-8205177D01*
X12212991Y-8283613D01*
X12115800Y-8363376D01*
X12018609Y-8283613D01*
X11871865Y-8205177D01*
X11712639Y-8156876D01*
X11547050Y-8140567D01*
X11109550Y-8140567D01*
X10943961Y-8156876D01*
X10784735Y-8205177D01*
X10637991Y-8283613D01*
X10509370Y-8389170D01*
X10403813Y-8517791D01*
X10325377Y-8664535D01*
X10277076Y-8823761D01*
X10260767Y-8989350D01*
X10260767Y-9501850D01*
X10277076Y-9667439D01*
X10325377Y-9826665D01*
X10342126Y-9858000D01*
X9318758Y-9858000D01*
X9263830Y-9791070D01*
X9135209Y-9685513D01*
X8988465Y-9607077D01*
X8829239Y-9558776D01*
X8663650Y-9542467D01*
X8151150Y-9542467D01*
X7985561Y-9558776D01*
X7826335Y-9607077D01*
X7811322Y-9615101D01*
X7791181Y-9590559D01*
X7695708Y-9512207D01*
X7586783Y-9453985D01*
X7468593Y-9418133D01*
X7345680Y-9406027D01*
X6548120Y-9406027D01*
X6425207Y-9418133D01*
X6307017Y-9453985D01*
X6198092Y-9512207D01*
X6102619Y-9590559D01*
X6047740Y-9657430D01*
X5992861Y-9590559D01*
X5897388Y-9512207D01*
X5788463Y-9453985D01*
X5670273Y-9418133D01*
X5547360Y-9406027D01*
X4749800Y-9406027D01*
X4626887Y-9418133D01*
X4508697Y-9453985D01*
X4399772Y-9512207D01*
X4304299Y-9590559D01*
X4225947Y-9686032D01*
X4167725Y-9794957D01*
X4141188Y-9882438D01*
X4130402Y-9883500D01*
X4130400Y-9883500D01*
X4019920Y-9894381D01*
X3878168Y-9937382D01*
X3810766Y-9973409D01*
X3747527Y-10007210D01*
X3698400Y-10047528D01*
X3698400Y-7769973D01*
X4244340Y-7769973D01*
X4367253Y-7757867D01*
X4485443Y-7722015D01*
X4502150Y-7713085D01*
X4518857Y-7722015D01*
X4637047Y-7757867D01*
X4759960Y-7769973D01*
X5557520Y-7769973D01*
X5680433Y-7757867D01*
X5798623Y-7722015D01*
X5907548Y-7663793D01*
X6003021Y-7585441D01*
X6057900Y-7518570D01*
X6112779Y-7585441D01*
X6208252Y-7663793D01*
X6317177Y-7722015D01*
X6435367Y-7757867D01*
X6558280Y-7769973D01*
X7355840Y-7769973D01*
X7478753Y-7757867D01*
X7596943Y-7722015D01*
X7705868Y-7663793D01*
X7801341Y-7585441D01*
X7879693Y-7489968D01*
X7937915Y-7381043D01*
X7973767Y-7262853D01*
X7985873Y-7139940D01*
X7985873Y-6243238D01*
X8104601Y-6124510D01*
X10328906Y-6124510D01*
X10346320Y-6133818D01*
M02*
