G04 #@! TF.GenerationSoftware,KiCad,Pcbnew,5.1.5+dfsg1-2~bpo9+1*
G04 #@! TF.CreationDate,2020-05-11T11:24:31-04:00*
G04 #@! TF.ProjectId,local_oscillator,6c6f6361-6c5f-46f7-9363-696c6c61746f,rev?*
G04 #@! TF.SameCoordinates,PX317ee60PY35ee270*
G04 #@! TF.FileFunction,Copper,L1,Top*
G04 #@! TF.FilePolarity,Positive*
%FSLAX46Y46*%
G04 Gerber Fmt 4.6, Leading zero omitted, Abs format (unit mm)*
G04 Created by KiCad (PCBNEW 5.1.5+dfsg1-2~bpo9+1) date 2020-05-11 11:24:31*
%MOMM*%
%LPD*%
G04 APERTURE LIST*
%ADD10R,0.899160X0.848360*%
%ADD11R,0.848360X0.899160*%
%ADD12R,1.099820X0.998220*%
%ADD13R,0.998220X1.099820*%
%ADD14R,1.500000X1.500000*%
%ADD15R,0.700000X0.600000*%
%ADD16R,0.650000X1.000000*%
%ADD17R,1.000000X0.650000*%
%ADD18C,1.500000*%
%ADD19C,1.300000*%
%ADD20C,1.000000*%
%ADD21C,5.000000*%
%ADD22C,0.200000*%
%ADD23C,0.254000*%
G04 APERTURE END LIST*
D10*
X7900000Y-9179120D03*
X7900000Y-8020880D03*
D11*
X14920880Y-10400000D03*
X16079120Y-10400000D03*
D10*
X7550000Y-20629120D03*
X7550000Y-19470880D03*
D11*
X15270880Y-16950000D03*
X16429120Y-16950000D03*
X12154120Y-13100000D03*
X10995880Y-13100000D03*
X7850000Y-11800000D03*
X6691760Y-11800000D03*
D12*
X6348360Y-5700000D03*
X4651640Y-5700000D03*
D10*
X13050000Y-15625000D03*
X13050000Y-14466760D03*
D13*
X16100000Y-11950000D03*
X16100000Y-13646720D03*
D11*
X7429120Y-16950000D03*
X6270880Y-16950000D03*
D12*
X3700000Y-21700000D03*
X5396720Y-21700000D03*
X3701640Y-23200000D03*
X5398360Y-23200000D03*
D13*
X11500000Y-4701640D03*
X11500000Y-6398360D03*
X4700000Y-9698360D03*
X4700000Y-8001640D03*
D10*
X10100000Y-14475000D03*
X10100000Y-15633240D03*
D14*
X18200000Y-11100000D03*
X7900000Y-5700000D03*
X15300000Y-7800000D03*
D15*
X10250000Y-9200000D03*
X10250000Y-7800000D03*
X12750000Y-9200000D03*
X12750000Y-7800000D03*
D16*
X11575000Y-18300000D03*
D17*
X12925000Y-16950000D03*
D16*
X11575000Y-15600000D03*
D17*
X10225000Y-16950000D03*
D14*
X900000Y-16950000D03*
X7550000Y-22650000D03*
X4700000Y-11800000D03*
D15*
X12750000Y-10400000D03*
X12750000Y-11800000D03*
X10250000Y-10400000D03*
X10250000Y-11800000D03*
D18*
X3850000Y-16950000D02*
X5616760Y-16950000D01*
D19*
X11575000Y-18300000D02*
X11575000Y-15600000D01*
D20*
X16429120Y-16950000D02*
X21250000Y-16950000D01*
D21*
X11575000Y-20350000D02*
X11575000Y-33225000D01*
D20*
X11500000Y-4701640D02*
X11500000Y-3151730D01*
X11500000Y-3151730D02*
X11500000Y-750000D01*
D18*
X2650000Y-16950000D02*
X3850000Y-16950000D01*
X900000Y-16950000D02*
X2650000Y-16950000D01*
D20*
X10141770Y-15675010D02*
X10100000Y-15675010D01*
X10225000Y-15758240D02*
X10141770Y-15675010D01*
X10225000Y-16950000D02*
X10225000Y-15758240D01*
D18*
X8100000Y-16950000D02*
X9866760Y-16950000D01*
D22*
X7550000Y-19470880D02*
X7550000Y-16991760D01*
D20*
X4700000Y-11800000D02*
X6691760Y-11800000D01*
X4700000Y-11800000D02*
X4700000Y-9698360D01*
X10100000Y-11950000D02*
X10250000Y-11800000D01*
X10100000Y-14475000D02*
X10100000Y-11950000D01*
D22*
X7850000Y-11800000D02*
X10250000Y-11800000D01*
D20*
X13008230Y-15666770D02*
X13050000Y-15666770D01*
X12925000Y-15750000D02*
X13008230Y-15666770D01*
X12925000Y-16950000D02*
X12925000Y-15750000D01*
D22*
X15270880Y-16950000D02*
X12925000Y-16950000D01*
D20*
X13050000Y-12100000D02*
X12750000Y-11800000D01*
X13050000Y-14466760D02*
X13050000Y-12100000D01*
X12750000Y-7800000D02*
X14400000Y-7800000D01*
X12750000Y-7648360D02*
X11500000Y-6398360D01*
X12750000Y-7800000D02*
X12750000Y-7648360D01*
X6196720Y-5700000D02*
X8300000Y-5700000D01*
X7900000Y-8020880D02*
X7900000Y-5700000D01*
X10229120Y-9179120D02*
X10250000Y-9200000D01*
D22*
X7900000Y-9179120D02*
X10229120Y-9179120D01*
D20*
X10250000Y-10400000D02*
X10250000Y-9200000D01*
D22*
X14920880Y-10400000D02*
X12750000Y-10400000D01*
D20*
X12750000Y-10400000D02*
X12750000Y-9200000D01*
D23*
G36*
X12923000Y-7723000D02*
G01*
X10027000Y-7723000D01*
X10027000Y-6577000D01*
X12923000Y-6577000D01*
X12923000Y-7723000D01*
G37*
X12923000Y-7723000D02*
X10027000Y-7723000D01*
X10027000Y-6577000D01*
X12923000Y-6577000D01*
X12923000Y-7723000D01*
G36*
X24083415Y-28985566D02*
G01*
X-10172Y-28997935D01*
X10847Y-20828425D01*
X73000Y-20834546D01*
X73000Y-28575000D01*
X75602Y-28600574D01*
X82981Y-28624352D01*
X94858Y-28646233D01*
X110775Y-28665376D01*
X130121Y-28681047D01*
X152152Y-28692642D01*
X176022Y-28699716D01*
X200814Y-28701997D01*
X4100814Y-28676997D01*
X4124776Y-28674560D01*
X4148601Y-28667333D01*
X4170557Y-28655597D01*
X4189803Y-28639803D01*
X4205597Y-28620557D01*
X4217333Y-28598601D01*
X4224560Y-28574776D01*
X4227000Y-28550000D01*
X4227000Y-26778301D01*
X4235451Y-26780865D01*
X4848450Y-26841240D01*
X5948270Y-26841240D01*
X6561269Y-26780865D01*
X7150711Y-26602060D01*
X7262832Y-26542130D01*
X8300000Y-26542130D01*
X8912999Y-26481755D01*
X9502441Y-26302950D01*
X10045674Y-26012586D01*
X10521821Y-25621821D01*
X10912586Y-25145674D01*
X11202950Y-24602441D01*
X11381755Y-24012999D01*
X11442130Y-23400000D01*
X11442130Y-21900000D01*
X11381755Y-21287001D01*
X11202950Y-20697559D01*
X11156297Y-20610277D01*
X11357602Y-20549212D01*
X11697126Y-20367733D01*
X12213984Y-20524520D01*
X12925000Y-20594549D01*
X13636015Y-20524520D01*
X14006039Y-20412275D01*
X14233701Y-20481335D01*
X14846700Y-20541710D01*
X15695060Y-20541710D01*
X16073000Y-20504486D01*
X16073000Y-21150000D01*
X16075655Y-21175831D01*
X16083083Y-21199593D01*
X16095005Y-21221450D01*
X16110962Y-21240560D01*
X16130340Y-21256191D01*
X16152395Y-21267740D01*
X16176280Y-21274765D01*
X16201076Y-21276995D01*
X22101076Y-21226995D01*
X22124776Y-21224560D01*
X22148601Y-21217333D01*
X22170557Y-21205597D01*
X22189803Y-21189803D01*
X22205597Y-21170557D01*
X22217333Y-21148601D01*
X22224560Y-21124776D01*
X22227000Y-21100000D01*
X22227000Y-13300000D01*
X22224560Y-13275224D01*
X22217333Y-13251399D01*
X22205597Y-13229443D01*
X22189803Y-13210197D01*
X22170557Y-13194403D01*
X22148601Y-13182667D01*
X22124776Y-13175440D01*
X22100000Y-13173000D01*
X21788510Y-13173000D01*
X21852950Y-13052441D01*
X22031755Y-12462999D01*
X22092130Y-11850000D01*
X22092130Y-10350000D01*
X22031755Y-9737001D01*
X21852950Y-9147559D01*
X21562586Y-8604326D01*
X21171821Y-8128179D01*
X20695674Y-7737414D01*
X20152441Y-7447050D01*
X19562999Y-7268245D01*
X19192130Y-7231718D01*
X19192130Y-7050000D01*
X19131755Y-6437001D01*
X18952950Y-5847559D01*
X18662586Y-5304326D01*
X18271821Y-4828179D01*
X17795674Y-4437414D01*
X17252441Y-4147050D01*
X16662999Y-3968245D01*
X16050000Y-3907870D01*
X14550000Y-3907870D01*
X14459089Y-3916824D01*
X14220931Y-3626629D01*
X13744784Y-3235864D01*
X13201551Y-2945500D01*
X12612109Y-2766695D01*
X11999110Y-2706320D01*
X11000890Y-2706320D01*
X10861870Y-2720012D01*
X10395674Y-2337414D01*
X9852441Y-2047050D01*
X9262999Y-1868245D01*
X8650000Y-1807870D01*
X7150000Y-1807870D01*
X6537001Y-1868245D01*
X5947559Y-2047050D01*
X5925651Y-2058760D01*
X5798450Y-2058760D01*
X5277000Y-2110118D01*
X5277000Y-700000D01*
X5274809Y-676509D01*
X5267827Y-652611D01*
X5256318Y-630535D01*
X5240724Y-611128D01*
X5221642Y-595136D01*
X5199808Y-583175D01*
X5176059Y-575702D01*
X5151309Y-573007D01*
X301309Y-523007D01*
X275224Y-525440D01*
X251399Y-532667D01*
X229443Y-544403D01*
X210197Y-560197D01*
X194403Y-579443D01*
X182667Y-601399D01*
X175440Y-625224D01*
X173000Y-650000D01*
X173000Y-8500000D01*
X175440Y-8524776D01*
X182667Y-8548601D01*
X194403Y-8570557D01*
X210197Y-8589803D01*
X229443Y-8605597D01*
X251399Y-8617333D01*
X275224Y-8624560D01*
X300000Y-8627000D01*
X1110118Y-8627000D01*
X1058760Y-9148450D01*
X1058760Y-9825651D01*
X1047050Y-9847559D01*
X868245Y-10437001D01*
X807870Y-11050000D01*
X807870Y-12550000D01*
X857891Y-13057870D01*
X150000Y-13057870D01*
X30810Y-13069609D01*
X64174Y-101934D01*
X23612554Y-89566D01*
X24083415Y-28985566D01*
G37*
X24083415Y-28985566D02*
X-10172Y-28997935D01*
X10847Y-20828425D01*
X73000Y-20834546D01*
X73000Y-28575000D01*
X75602Y-28600574D01*
X82981Y-28624352D01*
X94858Y-28646233D01*
X110775Y-28665376D01*
X130121Y-28681047D01*
X152152Y-28692642D01*
X176022Y-28699716D01*
X200814Y-28701997D01*
X4100814Y-28676997D01*
X4124776Y-28674560D01*
X4148601Y-28667333D01*
X4170557Y-28655597D01*
X4189803Y-28639803D01*
X4205597Y-28620557D01*
X4217333Y-28598601D01*
X4224560Y-28574776D01*
X4227000Y-28550000D01*
X4227000Y-26778301D01*
X4235451Y-26780865D01*
X4848450Y-26841240D01*
X5948270Y-26841240D01*
X6561269Y-26780865D01*
X7150711Y-26602060D01*
X7262832Y-26542130D01*
X8300000Y-26542130D01*
X8912999Y-26481755D01*
X9502441Y-26302950D01*
X10045674Y-26012586D01*
X10521821Y-25621821D01*
X10912586Y-25145674D01*
X11202950Y-24602441D01*
X11381755Y-24012999D01*
X11442130Y-23400000D01*
X11442130Y-21900000D01*
X11381755Y-21287001D01*
X11202950Y-20697559D01*
X11156297Y-20610277D01*
X11357602Y-20549212D01*
X11697126Y-20367733D01*
X12213984Y-20524520D01*
X12925000Y-20594549D01*
X13636015Y-20524520D01*
X14006039Y-20412275D01*
X14233701Y-20481335D01*
X14846700Y-20541710D01*
X15695060Y-20541710D01*
X16073000Y-20504486D01*
X16073000Y-21150000D01*
X16075655Y-21175831D01*
X16083083Y-21199593D01*
X16095005Y-21221450D01*
X16110962Y-21240560D01*
X16130340Y-21256191D01*
X16152395Y-21267740D01*
X16176280Y-21274765D01*
X16201076Y-21276995D01*
X22101076Y-21226995D01*
X22124776Y-21224560D01*
X22148601Y-21217333D01*
X22170557Y-21205597D01*
X22189803Y-21189803D01*
X22205597Y-21170557D01*
X22217333Y-21148601D01*
X22224560Y-21124776D01*
X22227000Y-21100000D01*
X22227000Y-13300000D01*
X22224560Y-13275224D01*
X22217333Y-13251399D01*
X22205597Y-13229443D01*
X22189803Y-13210197D01*
X22170557Y-13194403D01*
X22148601Y-13182667D01*
X22124776Y-13175440D01*
X22100000Y-13173000D01*
X21788510Y-13173000D01*
X21852950Y-13052441D01*
X22031755Y-12462999D01*
X22092130Y-11850000D01*
X22092130Y-10350000D01*
X22031755Y-9737001D01*
X21852950Y-9147559D01*
X21562586Y-8604326D01*
X21171821Y-8128179D01*
X20695674Y-7737414D01*
X20152441Y-7447050D01*
X19562999Y-7268245D01*
X19192130Y-7231718D01*
X19192130Y-7050000D01*
X19131755Y-6437001D01*
X18952950Y-5847559D01*
X18662586Y-5304326D01*
X18271821Y-4828179D01*
X17795674Y-4437414D01*
X17252441Y-4147050D01*
X16662999Y-3968245D01*
X16050000Y-3907870D01*
X14550000Y-3907870D01*
X14459089Y-3916824D01*
X14220931Y-3626629D01*
X13744784Y-3235864D01*
X13201551Y-2945500D01*
X12612109Y-2766695D01*
X11999110Y-2706320D01*
X11000890Y-2706320D01*
X10861870Y-2720012D01*
X10395674Y-2337414D01*
X9852441Y-2047050D01*
X9262999Y-1868245D01*
X8650000Y-1807870D01*
X7150000Y-1807870D01*
X6537001Y-1868245D01*
X5947559Y-2047050D01*
X5925651Y-2058760D01*
X5798450Y-2058760D01*
X5277000Y-2110118D01*
X5277000Y-700000D01*
X5274809Y-676509D01*
X5267827Y-652611D01*
X5256318Y-630535D01*
X5240724Y-611128D01*
X5221642Y-595136D01*
X5199808Y-583175D01*
X5176059Y-575702D01*
X5151309Y-573007D01*
X301309Y-523007D01*
X275224Y-525440D01*
X251399Y-532667D01*
X229443Y-544403D01*
X210197Y-560197D01*
X194403Y-579443D01*
X182667Y-601399D01*
X175440Y-625224D01*
X173000Y-650000D01*
X173000Y-8500000D01*
X175440Y-8524776D01*
X182667Y-8548601D01*
X194403Y-8570557D01*
X210197Y-8589803D01*
X229443Y-8605597D01*
X251399Y-8617333D01*
X275224Y-8624560D01*
X300000Y-8627000D01*
X1110118Y-8627000D01*
X1058760Y-9148450D01*
X1058760Y-9825651D01*
X1047050Y-9847559D01*
X868245Y-10437001D01*
X807870Y-11050000D01*
X807870Y-12550000D01*
X857891Y-13057870D01*
X150000Y-13057870D01*
X30810Y-13069609D01*
X64174Y-101934D01*
X23612554Y-89566D01*
X24083415Y-28985566D01*
G36*
X5023000Y-825697D02*
G01*
X5023000Y-8373000D01*
X427000Y-8373000D01*
X427000Y-778316D01*
X5023000Y-825697D01*
G37*
X5023000Y-825697D02*
X5023000Y-8373000D01*
X427000Y-8373000D01*
X427000Y-778316D01*
X5023000Y-825697D01*
G36*
X19123000Y-12173000D02*
G01*
X15877000Y-12173000D01*
X15877000Y-10227000D01*
X19123000Y-10227000D01*
X19123000Y-12173000D01*
G37*
X19123000Y-12173000D02*
X15877000Y-12173000D01*
X15877000Y-10227000D01*
X19123000Y-10227000D01*
X19123000Y-12173000D01*
G36*
X3973000Y-20876188D02*
G01*
X3973000Y-28423812D01*
X327000Y-28447184D01*
X327000Y-20852816D01*
X3973000Y-20876188D01*
G37*
X3973000Y-20876188D02*
X3973000Y-28423812D01*
X327000Y-28447184D01*
X327000Y-20852816D01*
X3973000Y-20876188D01*
G36*
X21973000Y-20974072D02*
G01*
X16327000Y-21021920D01*
X16327000Y-13427000D01*
X21973000Y-13427000D01*
X21973000Y-20974072D01*
G37*
X21973000Y-20974072D02*
X16327000Y-21021920D01*
X16327000Y-13427000D01*
X21973000Y-13427000D01*
X21973000Y-20974072D01*
M02*
