G04 #@! TF.GenerationSoftware,KiCad,Pcbnew,5.1.5+dfsg1-2~bpo9+1*
G04 #@! TF.CreationDate,2020-05-12T16:19:05-04:00*
G04 #@! TF.ProjectId,local_oscillator,6c6f6361-6c5f-46f7-9363-696c6c61746f,rev?*
G04 #@! TF.SameCoordinates,PX3cfccb0PY1a39de0*
G04 #@! TF.FileFunction,Copper,L1,Top*
G04 #@! TF.FilePolarity,Positive*
%FSLAX46Y46*%
G04 Gerber Fmt 4.6, Leading zero omitted, Abs format (unit mm)*
G04 Created by KiCad (PCBNEW 5.1.5+dfsg1-2~bpo9+1) date 2020-05-12 16:19:05*
%MOMM*%
%LPD*%
G04 APERTURE LIST*
%ADD10R,0.899160X0.848360*%
%ADD11R,0.848360X0.899160*%
%ADD12R,1.099820X0.998220*%
%ADD13R,0.998220X1.099820*%
%ADD14R,1.500000X1.500000*%
%ADD15R,0.650000X1.000000*%
%ADD16R,1.000000X0.650000*%
%ADD17R,0.600000X0.700000*%
%ADD18R,0.700000X0.600000*%
%ADD19C,1.500000*%
%ADD20C,0.200000*%
%ADD21C,5.000000*%
%ADD22C,1.200000*%
%ADD23C,2.000000*%
%ADD24C,0.500000*%
%ADD25C,1.000000*%
%ADD26C,0.254000*%
G04 APERTURE END LIST*
D10*
X6325000Y-8491760D03*
X6325000Y-9650000D03*
X15600000Y-9979120D03*
X15600000Y-8820880D03*
X17350000Y-18070880D03*
X17350000Y-19229120D03*
D11*
X5370880Y-18200000D03*
X6529120Y-18200000D03*
D12*
X18901640Y-18050000D03*
X20598360Y-18050000D03*
D11*
X5429120Y-11675000D03*
X4270880Y-11675000D03*
D12*
X9623360Y-8400000D03*
X7926640Y-8400000D03*
X9621720Y-6925000D03*
X7925000Y-6925000D03*
D13*
X3250000Y-20201640D03*
X3250000Y-21898360D03*
D10*
X13900000Y-12829120D03*
X13900000Y-11670880D03*
X9300000Y-11670880D03*
X9300000Y-12829120D03*
D14*
X17350000Y-15900000D03*
X3250000Y-18350000D03*
D15*
X11600000Y-13000000D03*
D16*
X12950000Y-11650000D03*
D15*
X11600000Y-10300000D03*
D16*
X10250000Y-11650000D03*
D14*
X825000Y-11675000D03*
X5875000Y-6650000D03*
D17*
X12450000Y-18300000D03*
X13850000Y-18300000D03*
D18*
X12250000Y-17650000D03*
X12250000Y-16250000D03*
X12300000Y-18900000D03*
X12300000Y-20300000D03*
X10950000Y-18900000D03*
X10950000Y-20300000D03*
X11000000Y-17650000D03*
X11000000Y-16250000D03*
D17*
X10800000Y-18300000D03*
X9400000Y-18300000D03*
D19*
X3741760Y-11675000D02*
X1800000Y-11675000D01*
D20*
X11600000Y-10300000D02*
X11600000Y-9600000D01*
D21*
X11600000Y-8275000D02*
X11600000Y-5500000D01*
D22*
X11600000Y-13000000D02*
X11600000Y-10300000D01*
D20*
X9810000Y-21620000D02*
X13960000Y-21620000D01*
X9260000Y-21620000D02*
X9810000Y-21620000D01*
D19*
X11600000Y-12750000D02*
X11600000Y-16050000D01*
D23*
X17050000Y-8100000D02*
X14245460Y-8100000D01*
D20*
X14070460Y-8275000D02*
X14245460Y-8100000D01*
X11600000Y-8275000D02*
X14070460Y-8275000D01*
X1801640Y-23201640D02*
X1900000Y-23300000D01*
X7358240Y-11670880D02*
X7354120Y-11675000D01*
D19*
X8150000Y-11670880D02*
X6208240Y-11670880D01*
D20*
X6325000Y-11670880D02*
X6325000Y-9650000D01*
X8287640Y-11650000D02*
X8266760Y-11670880D01*
X10250000Y-11650000D02*
X8287640Y-11650000D01*
X13900000Y-18260000D02*
X13960000Y-18320000D01*
X13900000Y-13600000D02*
X14700000Y-13600000D01*
X13900000Y-12829120D02*
X13900000Y-13600000D01*
X13900000Y-13600000D02*
X13900000Y-18260000D01*
X13900000Y-11029540D02*
X13900000Y-11046700D01*
X14950420Y-9979120D02*
X13900000Y-11029540D01*
X13900000Y-11046700D02*
X13900000Y-11670880D01*
X15600000Y-9979120D02*
X14950420Y-9979120D01*
X12970880Y-11670880D02*
X12950000Y-11650000D01*
X13900000Y-11670880D02*
X12970880Y-11670880D01*
D19*
X10950000Y-20300000D02*
X12300000Y-20300000D01*
D20*
X3420880Y-18179120D02*
X3250000Y-18350000D01*
D24*
X5500000Y-18179120D02*
X3420880Y-18179120D01*
D25*
X3250000Y-20201640D02*
X3250000Y-18350000D01*
D24*
X17350000Y-17750000D02*
X17350000Y-16203300D01*
D20*
X17350000Y-18070880D02*
X17350000Y-17446700D01*
X17370880Y-18050000D02*
X17350000Y-18070880D01*
D25*
X18901640Y-18050000D02*
X17370880Y-18050000D01*
D20*
X10950000Y-18900000D02*
X10400000Y-18900000D01*
X10400000Y-18900000D02*
X9350000Y-19950000D01*
X10800000Y-17850000D02*
X11000000Y-17650000D01*
X10800000Y-18300000D02*
X10800000Y-17850000D01*
X10800000Y-18750000D02*
X10950000Y-18900000D01*
X10800000Y-18300000D02*
X10800000Y-18750000D01*
X9350000Y-19950000D02*
X7550000Y-19950000D01*
X6529120Y-18929120D02*
X6529120Y-18200000D01*
X7550000Y-19950000D02*
X6529120Y-18929120D01*
X9300000Y-12829120D02*
X9300000Y-17750000D01*
X9400000Y-18300000D02*
X9400000Y-17900000D01*
X9300000Y-17800000D02*
X9300000Y-17750000D01*
X9400000Y-17900000D02*
X9300000Y-17800000D01*
X17109120Y-19470000D02*
X17350000Y-19229120D01*
X12450000Y-18850000D02*
X12450000Y-18300000D01*
X17350000Y-19853300D02*
X17350000Y-19229120D01*
X13700000Y-19900000D02*
X17303300Y-19900000D01*
X17303300Y-19900000D02*
X17350000Y-19853300D01*
X12500000Y-18700000D02*
X13700000Y-19900000D01*
X12450000Y-17850000D02*
X12250000Y-17650000D01*
X12450000Y-18300000D02*
X12450000Y-17850000D01*
D26*
G36*
X10168000Y-13758000D02*
G01*
X9550000Y-13758000D01*
X9525224Y-13760440D01*
X9501399Y-13767667D01*
X9479443Y-13779403D01*
X9460197Y-13795197D01*
X9444403Y-13814443D01*
X9432667Y-13836399D01*
X9425440Y-13860224D01*
X9423000Y-13885000D01*
X9423001Y-17902660D01*
X9177000Y-17902660D01*
X9177000Y-13885000D01*
X9174560Y-13860224D01*
X9167333Y-13836399D01*
X9155597Y-13814443D01*
X9139803Y-13795197D01*
X9120557Y-13779403D01*
X9098601Y-13767667D01*
X9074776Y-13760440D01*
X9050000Y-13758000D01*
X8422000Y-13758000D01*
X8422000Y-13362000D01*
X10168000Y-13362000D01*
X10168000Y-13758000D01*
G37*
X10168000Y-13758000D02*
X9550000Y-13758000D01*
X9525224Y-13760440D01*
X9501399Y-13767667D01*
X9479443Y-13779403D01*
X9460197Y-13795197D01*
X9444403Y-13814443D01*
X9432667Y-13836399D01*
X9425440Y-13860224D01*
X9423000Y-13885000D01*
X9423001Y-17902660D01*
X9177000Y-17902660D01*
X9177000Y-13885000D01*
X9174560Y-13860224D01*
X9167333Y-13836399D01*
X9155597Y-13814443D01*
X9139803Y-13795197D01*
X9120557Y-13779403D01*
X9098601Y-13767667D01*
X9074776Y-13760440D01*
X9050000Y-13758000D01*
X8422000Y-13758000D01*
X8422000Y-13362000D01*
X10168000Y-13362000D01*
X10168000Y-13758000D01*
G36*
X14808000Y-13778000D02*
G01*
X14190000Y-13778000D01*
X14165224Y-13780440D01*
X14141399Y-13787667D01*
X14119443Y-13799403D01*
X14100197Y-13815197D01*
X14084403Y-13834443D01*
X14072667Y-13856399D01*
X14065440Y-13880224D01*
X14063000Y-13905000D01*
X14063001Y-17922660D01*
X13817000Y-17922660D01*
X13817000Y-13905000D01*
X13814560Y-13880224D01*
X13807333Y-13856399D01*
X13795597Y-13834443D01*
X13779803Y-13815197D01*
X13760557Y-13799403D01*
X13738601Y-13787667D01*
X13714776Y-13780440D01*
X13690000Y-13778000D01*
X13062000Y-13778000D01*
X13062000Y-13382000D01*
X14808000Y-13382000D01*
X14808000Y-13778000D01*
G37*
X14808000Y-13778000D02*
X14190000Y-13778000D01*
X14165224Y-13780440D01*
X14141399Y-13787667D01*
X14119443Y-13799403D01*
X14100197Y-13815197D01*
X14084403Y-13834443D01*
X14072667Y-13856399D01*
X14065440Y-13880224D01*
X14063000Y-13905000D01*
X14063001Y-17922660D01*
X13817000Y-17922660D01*
X13817000Y-13905000D01*
X13814560Y-13880224D01*
X13807333Y-13856399D01*
X13795597Y-13834443D01*
X13779803Y-13815197D01*
X13760557Y-13799403D01*
X13738601Y-13787667D01*
X13714776Y-13780440D01*
X13690000Y-13778000D01*
X13062000Y-13778000D01*
X13062000Y-13382000D01*
X14808000Y-13382000D01*
X14808000Y-13778000D01*
G36*
X26824356Y-27554808D02*
G01*
X242659Y-27672436D01*
X243033Y-26277000D01*
X22350000Y-26277000D01*
X22374776Y-26274560D01*
X22398601Y-26267333D01*
X22420557Y-26255597D01*
X22439803Y-26239803D01*
X22455597Y-26220557D01*
X22467333Y-26198601D01*
X22474560Y-26174776D01*
X22477000Y-26150000D01*
X22477000Y-21150000D01*
X22474560Y-21125224D01*
X22467333Y-21101399D01*
X22455597Y-21079443D01*
X22439803Y-21060197D01*
X22420557Y-21044403D01*
X22398601Y-21032667D01*
X22374776Y-21025440D01*
X22350000Y-21023000D01*
X20429811Y-21023000D01*
X20488354Y-20913473D01*
X20638569Y-20418282D01*
X20689290Y-19903300D01*
X20689290Y-19054940D01*
X20674030Y-18900000D01*
X20689290Y-18745060D01*
X20689290Y-18096295D01*
X20788774Y-17910173D01*
X20938989Y-17414982D01*
X20989710Y-16900000D01*
X20989710Y-15400000D01*
X20938989Y-14885018D01*
X20788774Y-14389827D01*
X20544839Y-13933456D01*
X20216557Y-13533443D01*
X19816544Y-13205161D01*
X19360173Y-12961226D01*
X18864982Y-12811011D01*
X18350000Y-12760290D01*
X17316730Y-12760290D01*
X17333555Y-12743464D01*
X17337720Y-12740047D01*
X17416124Y-12698139D01*
X17816137Y-12369857D01*
X18144419Y-11969844D01*
X18388354Y-11513473D01*
X18538569Y-11018282D01*
X18589290Y-10503300D01*
X18589290Y-9654940D01*
X18538569Y-9139958D01*
X18388354Y-8644767D01*
X18144419Y-8188396D01*
X17816137Y-7788383D01*
X17416124Y-7460101D01*
X16959753Y-7216166D01*
X16464562Y-7065951D01*
X15949580Y-7015230D01*
X15050420Y-7015230D01*
X14535438Y-7065951D01*
X14040247Y-7216166D01*
X13583876Y-7460101D01*
X13183863Y-7788383D01*
X12855581Y-8188396D01*
X12611646Y-8644767D01*
X12599353Y-8685290D01*
X12450000Y-8685290D01*
X11935018Y-8736011D01*
X11600000Y-8837638D01*
X11264982Y-8736011D01*
X11116260Y-8721363D01*
X11116260Y-7900890D01*
X11091961Y-7654174D01*
X11114620Y-7424110D01*
X11114620Y-6425890D01*
X11063899Y-5910908D01*
X10913684Y-5415717D01*
X10669749Y-4959346D01*
X10341467Y-4559333D01*
X9941454Y-4231051D01*
X9485083Y-3987116D01*
X8989892Y-3836901D01*
X8474910Y-3786180D01*
X8190266Y-3786180D01*
X8091544Y-3705161D01*
X7635173Y-3461226D01*
X7139982Y-3311011D01*
X6625000Y-3260290D01*
X5125000Y-3260290D01*
X4610018Y-3311011D01*
X4114827Y-3461226D01*
X3658456Y-3705161D01*
X3258443Y-4033443D01*
X2930161Y-4433456D01*
X2686226Y-4889827D01*
X2536011Y-5385018D01*
X2485290Y-5900000D01*
X2485290Y-7400000D01*
X2536011Y-7914982D01*
X2652199Y-8298000D01*
X1704048Y-8298000D01*
X1575000Y-8285290D01*
X247851Y-8285290D01*
X250013Y-211052D01*
X26949371Y-142951D01*
X26824356Y-27554808D01*
G37*
X26824356Y-27554808D02*
X242659Y-27672436D01*
X243033Y-26277000D01*
X22350000Y-26277000D01*
X22374776Y-26274560D01*
X22398601Y-26267333D01*
X22420557Y-26255597D01*
X22439803Y-26239803D01*
X22455597Y-26220557D01*
X22467333Y-26198601D01*
X22474560Y-26174776D01*
X22477000Y-26150000D01*
X22477000Y-21150000D01*
X22474560Y-21125224D01*
X22467333Y-21101399D01*
X22455597Y-21079443D01*
X22439803Y-21060197D01*
X22420557Y-21044403D01*
X22398601Y-21032667D01*
X22374776Y-21025440D01*
X22350000Y-21023000D01*
X20429811Y-21023000D01*
X20488354Y-20913473D01*
X20638569Y-20418282D01*
X20689290Y-19903300D01*
X20689290Y-19054940D01*
X20674030Y-18900000D01*
X20689290Y-18745060D01*
X20689290Y-18096295D01*
X20788774Y-17910173D01*
X20938989Y-17414982D01*
X20989710Y-16900000D01*
X20989710Y-15400000D01*
X20938989Y-14885018D01*
X20788774Y-14389827D01*
X20544839Y-13933456D01*
X20216557Y-13533443D01*
X19816544Y-13205161D01*
X19360173Y-12961226D01*
X18864982Y-12811011D01*
X18350000Y-12760290D01*
X17316730Y-12760290D01*
X17333555Y-12743464D01*
X17337720Y-12740047D01*
X17416124Y-12698139D01*
X17816137Y-12369857D01*
X18144419Y-11969844D01*
X18388354Y-11513473D01*
X18538569Y-11018282D01*
X18589290Y-10503300D01*
X18589290Y-9654940D01*
X18538569Y-9139958D01*
X18388354Y-8644767D01*
X18144419Y-8188396D01*
X17816137Y-7788383D01*
X17416124Y-7460101D01*
X16959753Y-7216166D01*
X16464562Y-7065951D01*
X15949580Y-7015230D01*
X15050420Y-7015230D01*
X14535438Y-7065951D01*
X14040247Y-7216166D01*
X13583876Y-7460101D01*
X13183863Y-7788383D01*
X12855581Y-8188396D01*
X12611646Y-8644767D01*
X12599353Y-8685290D01*
X12450000Y-8685290D01*
X11935018Y-8736011D01*
X11600000Y-8837638D01*
X11264982Y-8736011D01*
X11116260Y-8721363D01*
X11116260Y-7900890D01*
X11091961Y-7654174D01*
X11114620Y-7424110D01*
X11114620Y-6425890D01*
X11063899Y-5910908D01*
X10913684Y-5415717D01*
X10669749Y-4959346D01*
X10341467Y-4559333D01*
X9941454Y-4231051D01*
X9485083Y-3987116D01*
X8989892Y-3836901D01*
X8474910Y-3786180D01*
X8190266Y-3786180D01*
X8091544Y-3705161D01*
X7635173Y-3461226D01*
X7139982Y-3311011D01*
X6625000Y-3260290D01*
X5125000Y-3260290D01*
X4610018Y-3311011D01*
X4114827Y-3461226D01*
X3658456Y-3705161D01*
X3258443Y-4033443D01*
X2930161Y-4433456D01*
X2686226Y-4889827D01*
X2536011Y-5385018D01*
X2485290Y-5900000D01*
X2485290Y-7400000D01*
X2536011Y-7914982D01*
X2652199Y-8298000D01*
X1704048Y-8298000D01*
X1575000Y-8285290D01*
X247851Y-8285290D01*
X250013Y-211052D01*
X26949371Y-142951D01*
X26824356Y-27554808D01*
G36*
X22223000Y-26023000D02*
G01*
X277000Y-26023000D01*
X277000Y-21277000D01*
X22223000Y-21277000D01*
X22223000Y-26023000D01*
G37*
X22223000Y-26023000D02*
X277000Y-26023000D01*
X277000Y-21277000D01*
X22223000Y-21277000D01*
X22223000Y-26023000D01*
G36*
X8223000Y-8673000D02*
G01*
X5977000Y-8673000D01*
X5977000Y-6627000D01*
X8223000Y-6627000D01*
X8223000Y-8673000D01*
G37*
X8223000Y-8673000D02*
X5977000Y-8673000D01*
X5977000Y-6627000D01*
X8223000Y-6627000D01*
X8223000Y-8673000D01*
M02*
