G04 #@! TF.GenerationSoftware,KiCad,Pcbnew,5.1.5+dfsg1-2~bpo9+1*
G04 #@! TF.CreationDate,2020-08-27T14:33:41-04:00*
G04 #@! TF.ProjectId,turbidimeter,74757262-6964-4696-9d65-7465722e6b69,rev?*
G04 #@! TF.SameCoordinates,PX69d4eb8PY3e41030*
G04 #@! TF.FileFunction,Copper,L1,Top*
G04 #@! TF.FilePolarity,Positive*
%FSLAX46Y46*%
G04 Gerber Fmt 4.6, Leading zero omitted, Abs format (unit mm)*
G04 Created by KiCad (PCBNEW 5.1.5+dfsg1-2~bpo9+1) date 2020-08-27 14:33:41*
%MOMM*%
%LPD*%
G04 APERTURE LIST*
%ADD10R,2.999740X1.249680*%
%ADD11C,0.150000*%
%ADD12R,1.498600X1.597660*%
%ADD13O,1.049020X0.299720*%
%ADD14R,1.049020X0.299720*%
%ADD15C,2.000000*%
%ADD16C,0.400000*%
%ADD17C,0.250000*%
%ADD18C,0.254000*%
G04 APERTURE END LIST*
D10*
X15435580Y-7416800D03*
X15435580Y-4876800D03*
G04 #@! TA.AperFunction,SMDPad,CuDef*
D11*
G36*
X3376491Y-21953553D02*
G01*
X3397726Y-21956703D01*
X3418550Y-21961919D01*
X3438762Y-21969151D01*
X3458168Y-21978330D01*
X3476581Y-21989366D01*
X3493824Y-22002154D01*
X3509730Y-22016570D01*
X3524146Y-22032476D01*
X3536934Y-22049719D01*
X3547970Y-22068132D01*
X3557149Y-22087538D01*
X3564381Y-22107750D01*
X3569597Y-22128574D01*
X3572747Y-22149809D01*
X3573800Y-22171250D01*
X3573800Y-22608750D01*
X3572747Y-22630191D01*
X3569597Y-22651426D01*
X3564381Y-22672250D01*
X3557149Y-22692462D01*
X3547970Y-22711868D01*
X3536934Y-22730281D01*
X3524146Y-22747524D01*
X3509730Y-22763430D01*
X3493824Y-22777846D01*
X3476581Y-22790634D01*
X3458168Y-22801670D01*
X3438762Y-22810849D01*
X3418550Y-22818081D01*
X3397726Y-22823297D01*
X3376491Y-22826447D01*
X3355050Y-22827500D01*
X2842550Y-22827500D01*
X2821109Y-22826447D01*
X2799874Y-22823297D01*
X2779050Y-22818081D01*
X2758838Y-22810849D01*
X2739432Y-22801670D01*
X2721019Y-22790634D01*
X2703776Y-22777846D01*
X2687870Y-22763430D01*
X2673454Y-22747524D01*
X2660666Y-22730281D01*
X2649630Y-22711868D01*
X2640451Y-22692462D01*
X2633219Y-22672250D01*
X2628003Y-22651426D01*
X2624853Y-22630191D01*
X2623800Y-22608750D01*
X2623800Y-22171250D01*
X2624853Y-22149809D01*
X2628003Y-22128574D01*
X2633219Y-22107750D01*
X2640451Y-22087538D01*
X2649630Y-22068132D01*
X2660666Y-22049719D01*
X2673454Y-22032476D01*
X2687870Y-22016570D01*
X2703776Y-22002154D01*
X2721019Y-21989366D01*
X2739432Y-21978330D01*
X2758838Y-21969151D01*
X2779050Y-21961919D01*
X2799874Y-21956703D01*
X2821109Y-21953553D01*
X2842550Y-21952500D01*
X3355050Y-21952500D01*
X3376491Y-21953553D01*
G37*
G04 #@! TD.AperFunction*
G04 #@! TA.AperFunction,SMDPad,CuDef*
G36*
X3376491Y-23528553D02*
G01*
X3397726Y-23531703D01*
X3418550Y-23536919D01*
X3438762Y-23544151D01*
X3458168Y-23553330D01*
X3476581Y-23564366D01*
X3493824Y-23577154D01*
X3509730Y-23591570D01*
X3524146Y-23607476D01*
X3536934Y-23624719D01*
X3547970Y-23643132D01*
X3557149Y-23662538D01*
X3564381Y-23682750D01*
X3569597Y-23703574D01*
X3572747Y-23724809D01*
X3573800Y-23746250D01*
X3573800Y-24183750D01*
X3572747Y-24205191D01*
X3569597Y-24226426D01*
X3564381Y-24247250D01*
X3557149Y-24267462D01*
X3547970Y-24286868D01*
X3536934Y-24305281D01*
X3524146Y-24322524D01*
X3509730Y-24338430D01*
X3493824Y-24352846D01*
X3476581Y-24365634D01*
X3458168Y-24376670D01*
X3438762Y-24385849D01*
X3418550Y-24393081D01*
X3397726Y-24398297D01*
X3376491Y-24401447D01*
X3355050Y-24402500D01*
X2842550Y-24402500D01*
X2821109Y-24401447D01*
X2799874Y-24398297D01*
X2779050Y-24393081D01*
X2758838Y-24385849D01*
X2739432Y-24376670D01*
X2721019Y-24365634D01*
X2703776Y-24352846D01*
X2687870Y-24338430D01*
X2673454Y-24322524D01*
X2660666Y-24305281D01*
X2649630Y-24286868D01*
X2640451Y-24267462D01*
X2633219Y-24247250D01*
X2628003Y-24226426D01*
X2624853Y-24205191D01*
X2623800Y-24183750D01*
X2623800Y-23746250D01*
X2624853Y-23724809D01*
X2628003Y-23703574D01*
X2633219Y-23682750D01*
X2640451Y-23662538D01*
X2649630Y-23643132D01*
X2660666Y-23624719D01*
X2673454Y-23607476D01*
X2687870Y-23591570D01*
X2703776Y-23577154D01*
X2721019Y-23564366D01*
X2739432Y-23553330D01*
X2758838Y-23544151D01*
X2779050Y-23536919D01*
X2799874Y-23531703D01*
X2821109Y-23528553D01*
X2842550Y-23527500D01*
X3355050Y-23527500D01*
X3376491Y-23528553D01*
G37*
G04 #@! TD.AperFunction*
D12*
X9012020Y-7409800D03*
X5415380Y-7409800D03*
D13*
X8331300Y-22500000D03*
X8331300Y-23147700D03*
X8331300Y-23795400D03*
X6781900Y-23795400D03*
X6781900Y-23147700D03*
D14*
X6781900Y-22500000D03*
G04 #@! TA.AperFunction,SMDPad,CuDef*
D11*
G36*
X11619291Y-6930153D02*
G01*
X11640526Y-6933303D01*
X11661350Y-6938519D01*
X11681562Y-6945751D01*
X11700968Y-6954930D01*
X11719381Y-6965966D01*
X11736624Y-6978754D01*
X11752530Y-6993170D01*
X11766946Y-7009076D01*
X11779734Y-7026319D01*
X11790770Y-7044732D01*
X11799949Y-7064138D01*
X11807181Y-7084350D01*
X11812397Y-7105174D01*
X11815547Y-7126409D01*
X11816600Y-7147850D01*
X11816600Y-7660350D01*
X11815547Y-7681791D01*
X11812397Y-7703026D01*
X11807181Y-7723850D01*
X11799949Y-7744062D01*
X11790770Y-7763468D01*
X11779734Y-7781881D01*
X11766946Y-7799124D01*
X11752530Y-7815030D01*
X11736624Y-7829446D01*
X11719381Y-7842234D01*
X11700968Y-7853270D01*
X11681562Y-7862449D01*
X11661350Y-7869681D01*
X11640526Y-7874897D01*
X11619291Y-7878047D01*
X11597850Y-7879100D01*
X11160350Y-7879100D01*
X11138909Y-7878047D01*
X11117674Y-7874897D01*
X11096850Y-7869681D01*
X11076638Y-7862449D01*
X11057232Y-7853270D01*
X11038819Y-7842234D01*
X11021576Y-7829446D01*
X11005670Y-7815030D01*
X10991254Y-7799124D01*
X10978466Y-7781881D01*
X10967430Y-7763468D01*
X10958251Y-7744062D01*
X10951019Y-7723850D01*
X10945803Y-7703026D01*
X10942653Y-7681791D01*
X10941600Y-7660350D01*
X10941600Y-7147850D01*
X10942653Y-7126409D01*
X10945803Y-7105174D01*
X10951019Y-7084350D01*
X10958251Y-7064138D01*
X10967430Y-7044732D01*
X10978466Y-7026319D01*
X10991254Y-7009076D01*
X11005670Y-6993170D01*
X11021576Y-6978754D01*
X11038819Y-6965966D01*
X11057232Y-6954930D01*
X11076638Y-6945751D01*
X11096850Y-6938519D01*
X11117674Y-6933303D01*
X11138909Y-6930153D01*
X11160350Y-6929100D01*
X11597850Y-6929100D01*
X11619291Y-6930153D01*
G37*
G04 #@! TD.AperFunction*
G04 #@! TA.AperFunction,SMDPad,CuDef*
G36*
X13194291Y-6930153D02*
G01*
X13215526Y-6933303D01*
X13236350Y-6938519D01*
X13256562Y-6945751D01*
X13275968Y-6954930D01*
X13294381Y-6965966D01*
X13311624Y-6978754D01*
X13327530Y-6993170D01*
X13341946Y-7009076D01*
X13354734Y-7026319D01*
X13365770Y-7044732D01*
X13374949Y-7064138D01*
X13382181Y-7084350D01*
X13387397Y-7105174D01*
X13390547Y-7126409D01*
X13391600Y-7147850D01*
X13391600Y-7660350D01*
X13390547Y-7681791D01*
X13387397Y-7703026D01*
X13382181Y-7723850D01*
X13374949Y-7744062D01*
X13365770Y-7763468D01*
X13354734Y-7781881D01*
X13341946Y-7799124D01*
X13327530Y-7815030D01*
X13311624Y-7829446D01*
X13294381Y-7842234D01*
X13275968Y-7853270D01*
X13256562Y-7862449D01*
X13236350Y-7869681D01*
X13215526Y-7874897D01*
X13194291Y-7878047D01*
X13172850Y-7879100D01*
X12735350Y-7879100D01*
X12713909Y-7878047D01*
X12692674Y-7874897D01*
X12671850Y-7869681D01*
X12651638Y-7862449D01*
X12632232Y-7853270D01*
X12613819Y-7842234D01*
X12596576Y-7829446D01*
X12580670Y-7815030D01*
X12566254Y-7799124D01*
X12553466Y-7781881D01*
X12542430Y-7763468D01*
X12533251Y-7744062D01*
X12526019Y-7723850D01*
X12520803Y-7703026D01*
X12517653Y-7681791D01*
X12516600Y-7660350D01*
X12516600Y-7147850D01*
X12517653Y-7126409D01*
X12520803Y-7105174D01*
X12526019Y-7084350D01*
X12533251Y-7064138D01*
X12542430Y-7044732D01*
X12553466Y-7026319D01*
X12566254Y-7009076D01*
X12580670Y-6993170D01*
X12596576Y-6978754D01*
X12613819Y-6965966D01*
X12632232Y-6954930D01*
X12651638Y-6945751D01*
X12671850Y-6938519D01*
X12692674Y-6933303D01*
X12713909Y-6930153D01*
X12735350Y-6929100D01*
X13172850Y-6929100D01*
X13194291Y-6930153D01*
G37*
G04 #@! TD.AperFunction*
D10*
X14775180Y-27216100D03*
X14775180Y-24676100D03*
X14775180Y-22136100D03*
X14775180Y-19596100D03*
X14775180Y-17056100D03*
X14775180Y-14516100D03*
G04 #@! TA.AperFunction,SMDPad,CuDef*
D11*
G36*
X12825291Y-26208253D02*
G01*
X12846526Y-26211403D01*
X12867350Y-26216619D01*
X12887562Y-26223851D01*
X12906968Y-26233030D01*
X12925381Y-26244066D01*
X12942624Y-26256854D01*
X12958530Y-26271270D01*
X12972946Y-26287176D01*
X12985734Y-26304419D01*
X12996770Y-26322832D01*
X13005949Y-26342238D01*
X13013181Y-26362450D01*
X13018397Y-26383274D01*
X13021547Y-26404509D01*
X13022600Y-26425950D01*
X13022600Y-26863450D01*
X13021547Y-26884891D01*
X13018397Y-26906126D01*
X13013181Y-26926950D01*
X13005949Y-26947162D01*
X12996770Y-26966568D01*
X12985734Y-26984981D01*
X12972946Y-27002224D01*
X12958530Y-27018130D01*
X12942624Y-27032546D01*
X12925381Y-27045334D01*
X12906968Y-27056370D01*
X12887562Y-27065549D01*
X12867350Y-27072781D01*
X12846526Y-27077997D01*
X12825291Y-27081147D01*
X12803850Y-27082200D01*
X12291350Y-27082200D01*
X12269909Y-27081147D01*
X12248674Y-27077997D01*
X12227850Y-27072781D01*
X12207638Y-27065549D01*
X12188232Y-27056370D01*
X12169819Y-27045334D01*
X12152576Y-27032546D01*
X12136670Y-27018130D01*
X12122254Y-27002224D01*
X12109466Y-26984981D01*
X12098430Y-26966568D01*
X12089251Y-26947162D01*
X12082019Y-26926950D01*
X12076803Y-26906126D01*
X12073653Y-26884891D01*
X12072600Y-26863450D01*
X12072600Y-26425950D01*
X12073653Y-26404509D01*
X12076803Y-26383274D01*
X12082019Y-26362450D01*
X12089251Y-26342238D01*
X12098430Y-26322832D01*
X12109466Y-26304419D01*
X12122254Y-26287176D01*
X12136670Y-26271270D01*
X12152576Y-26256854D01*
X12169819Y-26244066D01*
X12188232Y-26233030D01*
X12207638Y-26223851D01*
X12227850Y-26216619D01*
X12248674Y-26211403D01*
X12269909Y-26208253D01*
X12291350Y-26207200D01*
X12803850Y-26207200D01*
X12825291Y-26208253D01*
G37*
G04 #@! TD.AperFunction*
G04 #@! TA.AperFunction,SMDPad,CuDef*
G36*
X12825291Y-24633253D02*
G01*
X12846526Y-24636403D01*
X12867350Y-24641619D01*
X12887562Y-24648851D01*
X12906968Y-24658030D01*
X12925381Y-24669066D01*
X12942624Y-24681854D01*
X12958530Y-24696270D01*
X12972946Y-24712176D01*
X12985734Y-24729419D01*
X12996770Y-24747832D01*
X13005949Y-24767238D01*
X13013181Y-24787450D01*
X13018397Y-24808274D01*
X13021547Y-24829509D01*
X13022600Y-24850950D01*
X13022600Y-25288450D01*
X13021547Y-25309891D01*
X13018397Y-25331126D01*
X13013181Y-25351950D01*
X13005949Y-25372162D01*
X12996770Y-25391568D01*
X12985734Y-25409981D01*
X12972946Y-25427224D01*
X12958530Y-25443130D01*
X12942624Y-25457546D01*
X12925381Y-25470334D01*
X12906968Y-25481370D01*
X12887562Y-25490549D01*
X12867350Y-25497781D01*
X12846526Y-25502997D01*
X12825291Y-25506147D01*
X12803850Y-25507200D01*
X12291350Y-25507200D01*
X12269909Y-25506147D01*
X12248674Y-25502997D01*
X12227850Y-25497781D01*
X12207638Y-25490549D01*
X12188232Y-25481370D01*
X12169819Y-25470334D01*
X12152576Y-25457546D01*
X12136670Y-25443130D01*
X12122254Y-25427224D01*
X12109466Y-25409981D01*
X12098430Y-25391568D01*
X12089251Y-25372162D01*
X12082019Y-25351950D01*
X12076803Y-25331126D01*
X12073653Y-25309891D01*
X12072600Y-25288450D01*
X12072600Y-24850950D01*
X12073653Y-24829509D01*
X12076803Y-24808274D01*
X12082019Y-24787450D01*
X12089251Y-24767238D01*
X12098430Y-24747832D01*
X12109466Y-24729419D01*
X12122254Y-24712176D01*
X12136670Y-24696270D01*
X12152576Y-24681854D01*
X12169819Y-24669066D01*
X12188232Y-24658030D01*
X12207638Y-24648851D01*
X12227850Y-24641619D01*
X12248674Y-24636403D01*
X12269909Y-24633253D01*
X12291350Y-24632200D01*
X12803850Y-24632200D01*
X12825291Y-24633253D01*
G37*
G04 #@! TD.AperFunction*
D15*
X9561900Y-27147700D03*
X5556600Y-19147700D03*
X5213700Y-3409800D03*
X9219000Y-11409800D03*
D16*
X6834070Y-23847570D02*
X6781900Y-23847570D01*
X14775180Y-27216100D02*
X11924302Y-27216100D01*
X8119800Y-25133300D02*
X6834070Y-23847570D01*
X11924302Y-27216100D02*
X9841502Y-25133300D01*
X9841502Y-25133300D02*
X8119800Y-25133300D01*
X12966800Y-7416800D02*
X12954100Y-7404100D01*
X15435580Y-7416800D02*
X12966800Y-7416800D01*
X6834070Y-22447830D02*
X6781900Y-22447830D01*
X8320641Y-20961259D02*
X6834070Y-22447830D01*
X14775180Y-24676100D02*
X16675050Y-24676100D01*
X16675050Y-24676100D02*
X16825051Y-24526099D01*
X16715051Y-20961259D02*
X8320641Y-20961259D01*
X16825051Y-21071259D02*
X16715051Y-20961259D01*
X16825051Y-24526099D02*
X16825051Y-21071259D01*
X12875310Y-24676100D02*
X12268200Y-25283210D01*
X14775180Y-24676100D02*
X12875310Y-24676100D01*
X12334090Y-25283210D02*
X12547600Y-25069700D01*
X12268200Y-25283210D02*
X12334090Y-25283210D01*
X5707389Y-21290913D02*
X5707389Y-23089861D01*
X5707389Y-23089861D02*
X5817389Y-23199861D01*
X7402202Y-19596100D02*
X5707389Y-21290913D01*
X14775180Y-19596100D02*
X7402202Y-19596100D01*
X5817389Y-23199861D02*
X6007100Y-23199861D01*
D17*
X5869550Y-23147700D02*
X5817389Y-23199861D01*
X6781900Y-23147700D02*
X5869550Y-23147700D01*
D16*
X12563580Y-22447830D02*
X8331300Y-22447830D01*
X12875310Y-22136100D02*
X12563580Y-22447830D01*
X14775180Y-22136100D02*
X12875310Y-22136100D01*
X9017720Y-7404100D02*
X9012020Y-7409800D01*
X11379100Y-7404100D02*
X9017720Y-7404100D01*
X5415380Y-6210970D02*
X5415380Y-7409800D01*
X6749550Y-4876800D02*
X5415380Y-6210970D01*
X15435580Y-4876800D02*
X6749550Y-4876800D01*
D18*
G36*
X18669000Y-29845000D02*
G01*
X127000Y-29845000D01*
X127000Y-26987455D01*
X7934900Y-26987455D01*
X7934900Y-27307945D01*
X7997425Y-27622278D01*
X8120072Y-27918373D01*
X8298127Y-28184852D01*
X8524748Y-28411473D01*
X8791227Y-28589528D01*
X9087322Y-28712175D01*
X9401655Y-28774700D01*
X9722145Y-28774700D01*
X10036478Y-28712175D01*
X10332573Y-28589528D01*
X10599052Y-28411473D01*
X10825673Y-28184852D01*
X11003728Y-27918373D01*
X11126375Y-27622278D01*
X11188900Y-27307945D01*
X11188900Y-26987455D01*
X11126375Y-26673122D01*
X11003728Y-26377027D01*
X10825673Y-26110548D01*
X10599052Y-25883927D01*
X10332573Y-25705872D01*
X10036478Y-25583225D01*
X9722145Y-25520700D01*
X9401655Y-25520700D01*
X9087322Y-25583225D01*
X8791227Y-25705872D01*
X8524748Y-25883927D01*
X8298127Y-26110548D01*
X8120072Y-26377027D01*
X7997425Y-26673122D01*
X7934900Y-26987455D01*
X127000Y-26987455D01*
X127000Y-22171250D01*
X1993767Y-22171250D01*
X1993767Y-22608750D01*
X2010076Y-22774339D01*
X2058377Y-22933565D01*
X2136813Y-23080309D01*
X2216576Y-23177500D01*
X2136813Y-23274691D01*
X2058377Y-23421435D01*
X2010076Y-23580661D01*
X1993767Y-23746250D01*
X1993767Y-24183750D01*
X2010076Y-24349339D01*
X2058377Y-24508565D01*
X2136813Y-24655309D01*
X2242370Y-24783930D01*
X2370991Y-24889487D01*
X2517735Y-24967923D01*
X2676961Y-25016224D01*
X2842550Y-25032533D01*
X3355050Y-25032533D01*
X3520639Y-25016224D01*
X3679865Y-24967923D01*
X3826609Y-24889487D01*
X3955230Y-24783930D01*
X4060787Y-24655309D01*
X4139223Y-24508565D01*
X4187524Y-24349339D01*
X4203833Y-24183750D01*
X4203833Y-23746250D01*
X4187524Y-23580661D01*
X4139223Y-23421435D01*
X4060787Y-23274691D01*
X3981024Y-23177500D01*
X4060787Y-23080309D01*
X4139223Y-22933565D01*
X4187524Y-22774339D01*
X4203833Y-22608750D01*
X4203833Y-22171250D01*
X4187524Y-22005661D01*
X4139223Y-21846435D01*
X4060787Y-21699691D01*
X3955230Y-21571070D01*
X3826609Y-21465513D01*
X3679865Y-21387077D01*
X3520639Y-21338776D01*
X3355050Y-21322467D01*
X2842550Y-21322467D01*
X2676961Y-21338776D01*
X2517735Y-21387077D01*
X2370991Y-21465513D01*
X2242370Y-21571070D01*
X2136813Y-21699691D01*
X2058377Y-21846435D01*
X2010076Y-22005661D01*
X1993767Y-22171250D01*
X127000Y-22171250D01*
X127000Y-18987455D01*
X3929600Y-18987455D01*
X3929600Y-19307945D01*
X3992125Y-19622278D01*
X4114772Y-19918373D01*
X4292827Y-20184852D01*
X4519448Y-20411473D01*
X4785927Y-20589528D01*
X5082022Y-20712175D01*
X5108227Y-20717388D01*
X5078798Y-20753248D01*
X5016437Y-20829234D01*
X4982176Y-20893333D01*
X4939644Y-20972904D01*
X4892355Y-21128794D01*
X4880389Y-21250290D01*
X4880389Y-21250299D01*
X4876389Y-21290913D01*
X4880389Y-21331527D01*
X4880390Y-23049238D01*
X4876389Y-23089861D01*
X4892356Y-23251981D01*
X4939645Y-23407871D01*
X5016437Y-23551540D01*
X5091587Y-23643109D01*
X5119784Y-23677467D01*
X5151335Y-23703360D01*
X5203887Y-23755912D01*
X5229783Y-23787467D01*
X5355710Y-23890813D01*
X5499379Y-23967606D01*
X5655269Y-24014895D01*
X5776765Y-24026861D01*
X5776777Y-24026861D01*
X5817388Y-24030861D01*
X5857999Y-24026861D01*
X6047724Y-24026861D01*
X6169220Y-24014895D01*
X6325110Y-23967606D01*
X6405643Y-23924560D01*
X7188753Y-23924560D01*
X7191031Y-23947691D01*
X7235453Y-24094130D01*
X7307590Y-24229088D01*
X7404670Y-24347380D01*
X7522962Y-24444460D01*
X7657920Y-24516597D01*
X7804359Y-24561019D01*
X7918493Y-24572260D01*
X8744107Y-24572260D01*
X8858241Y-24561019D01*
X9004680Y-24516597D01*
X9139638Y-24444460D01*
X9257930Y-24347380D01*
X9355010Y-24229088D01*
X9427147Y-24094130D01*
X9471569Y-23947691D01*
X9486568Y-23795400D01*
X9471569Y-23643109D01*
X9427147Y-23496670D01*
X9413720Y-23471550D01*
X9427147Y-23446430D01*
X9471569Y-23299991D01*
X9474047Y-23274830D01*
X12522966Y-23274830D01*
X12563580Y-23278830D01*
X12604194Y-23274830D01*
X12604204Y-23274830D01*
X12725700Y-23262864D01*
X12851910Y-23224578D01*
X12925282Y-23284793D01*
X13034207Y-23343015D01*
X13152397Y-23378867D01*
X13275310Y-23390973D01*
X15998051Y-23390973D01*
X15998051Y-23421227D01*
X13275310Y-23421227D01*
X13152397Y-23433333D01*
X13034207Y-23469185D01*
X12925282Y-23527407D01*
X12829809Y-23605759D01*
X12751457Y-23701232D01*
X12693235Y-23810157D01*
X12674205Y-23872892D01*
X12557300Y-23908355D01*
X12526983Y-23924560D01*
X12413629Y-23985148D01*
X12392892Y-24002167D01*
X12291350Y-24002167D01*
X12125761Y-24018476D01*
X11966535Y-24066777D01*
X11819791Y-24145213D01*
X11691170Y-24250770D01*
X11585613Y-24379391D01*
X11507177Y-24526135D01*
X11458876Y-24685361D01*
X11442567Y-24850950D01*
X11442567Y-25228706D01*
X11437199Y-25283210D01*
X11453166Y-25445330D01*
X11500455Y-25601220D01*
X11577248Y-25744889D01*
X11578060Y-25745879D01*
X11585613Y-25760009D01*
X11691170Y-25888630D01*
X11819791Y-25994187D01*
X11966535Y-26072623D01*
X12125761Y-26120924D01*
X12291350Y-26137233D01*
X12803850Y-26137233D01*
X12969439Y-26120924D01*
X13128665Y-26072623D01*
X13275409Y-25994187D01*
X13352435Y-25930973D01*
X16275050Y-25930973D01*
X16397963Y-25918867D01*
X16516153Y-25883015D01*
X16625078Y-25824793D01*
X16720551Y-25746441D01*
X16798903Y-25650968D01*
X16857125Y-25542043D01*
X16876155Y-25479308D01*
X16993060Y-25443845D01*
X17136729Y-25367052D01*
X17262656Y-25263706D01*
X17288554Y-25232149D01*
X17381104Y-25139600D01*
X17412657Y-25113705D01*
X17516003Y-24987778D01*
X17592796Y-24844109D01*
X17640085Y-24688219D01*
X17652051Y-24566723D01*
X17652051Y-24566711D01*
X17656051Y-24526100D01*
X17652051Y-24485489D01*
X17652051Y-21111869D01*
X17656051Y-21071258D01*
X17652051Y-21030647D01*
X17652051Y-21030635D01*
X17640085Y-20909139D01*
X17592796Y-20753249D01*
X17516003Y-20609580D01*
X17412657Y-20483653D01*
X17381102Y-20457757D01*
X17328555Y-20405210D01*
X17302657Y-20373653D01*
X17176730Y-20270307D01*
X17033061Y-20193514D01*
X16905083Y-20154692D01*
X16905083Y-18971260D01*
X16892977Y-18848347D01*
X16857125Y-18730157D01*
X16798903Y-18621232D01*
X16720551Y-18525759D01*
X16625078Y-18447407D01*
X16516153Y-18389185D01*
X16397963Y-18353333D01*
X16275050Y-18341227D01*
X13275310Y-18341227D01*
X13152397Y-18353333D01*
X13034207Y-18389185D01*
X12925282Y-18447407D01*
X12829809Y-18525759D01*
X12751457Y-18621232D01*
X12693235Y-18730157D01*
X12681422Y-18769100D01*
X7442816Y-18769100D01*
X7402202Y-18765100D01*
X7361588Y-18769100D01*
X7361578Y-18769100D01*
X7240082Y-18781066D01*
X7148097Y-18808970D01*
X7121075Y-18673122D01*
X6998428Y-18377027D01*
X6820373Y-18110548D01*
X6593752Y-17883927D01*
X6327273Y-17705872D01*
X6031178Y-17583225D01*
X5716845Y-17520700D01*
X5396355Y-17520700D01*
X5082022Y-17583225D01*
X4785927Y-17705872D01*
X4519448Y-17883927D01*
X4292827Y-18110548D01*
X4114772Y-18377027D01*
X3992125Y-18673122D01*
X3929600Y-18987455D01*
X127000Y-18987455D01*
X127000Y-16431260D01*
X12645277Y-16431260D01*
X12645277Y-17680940D01*
X12657383Y-17803853D01*
X12693235Y-17922043D01*
X12751457Y-18030968D01*
X12829809Y-18126441D01*
X12925282Y-18204793D01*
X13034207Y-18263015D01*
X13152397Y-18298867D01*
X13275310Y-18310973D01*
X16275050Y-18310973D01*
X16397963Y-18298867D01*
X16516153Y-18263015D01*
X16625078Y-18204793D01*
X16720551Y-18126441D01*
X16798903Y-18030968D01*
X16857125Y-17922043D01*
X16892977Y-17803853D01*
X16905083Y-17680940D01*
X16905083Y-16431260D01*
X16892977Y-16308347D01*
X16857125Y-16190157D01*
X16798903Y-16081232D01*
X16720551Y-15985759D01*
X16625078Y-15907407D01*
X16516153Y-15849185D01*
X16397963Y-15813333D01*
X16275050Y-15801227D01*
X13275310Y-15801227D01*
X13152397Y-15813333D01*
X13034207Y-15849185D01*
X12925282Y-15907407D01*
X12829809Y-15985759D01*
X12751457Y-16081232D01*
X12693235Y-16190157D01*
X12657383Y-16308347D01*
X12645277Y-16431260D01*
X127000Y-16431260D01*
X127000Y-13891260D01*
X12645277Y-13891260D01*
X12645277Y-15140940D01*
X12657383Y-15263853D01*
X12693235Y-15382043D01*
X12751457Y-15490968D01*
X12829809Y-15586441D01*
X12925282Y-15664793D01*
X13034207Y-15723015D01*
X13152397Y-15758867D01*
X13275310Y-15770973D01*
X16275050Y-15770973D01*
X16397963Y-15758867D01*
X16516153Y-15723015D01*
X16625078Y-15664793D01*
X16720551Y-15586441D01*
X16798903Y-15490968D01*
X16857125Y-15382043D01*
X16892977Y-15263853D01*
X16905083Y-15140940D01*
X16905083Y-13891260D01*
X16892977Y-13768347D01*
X16857125Y-13650157D01*
X16798903Y-13541232D01*
X16720551Y-13445759D01*
X16625078Y-13367407D01*
X16516153Y-13309185D01*
X16397963Y-13273333D01*
X16275050Y-13261227D01*
X13275310Y-13261227D01*
X13152397Y-13273333D01*
X13034207Y-13309185D01*
X12925282Y-13367407D01*
X12829809Y-13445759D01*
X12751457Y-13541232D01*
X12693235Y-13650157D01*
X12657383Y-13768347D01*
X12645277Y-13891260D01*
X127000Y-13891260D01*
X127000Y-6610970D01*
X4036047Y-6610970D01*
X4036047Y-8208630D01*
X4048153Y-8331543D01*
X4084005Y-8449733D01*
X4142227Y-8558658D01*
X4220579Y-8654131D01*
X4316052Y-8732483D01*
X4424977Y-8790705D01*
X4543167Y-8826557D01*
X4666080Y-8838663D01*
X6154799Y-8838663D01*
X6372283Y-8983981D01*
X6695558Y-9117886D01*
X7038745Y-9186150D01*
X7388655Y-9186150D01*
X7731842Y-9117886D01*
X8055117Y-8983981D01*
X8272601Y-8838663D01*
X9761320Y-8838663D01*
X9884233Y-8826557D01*
X10002423Y-8790705D01*
X10111348Y-8732483D01*
X10206821Y-8654131D01*
X10285173Y-8558658D01*
X10343395Y-8449733D01*
X10379247Y-8331543D01*
X10389140Y-8231100D01*
X10536017Y-8231100D01*
X10560170Y-8260530D01*
X10688791Y-8366087D01*
X10835535Y-8444523D01*
X10994761Y-8492824D01*
X11160350Y-8509133D01*
X11597850Y-8509133D01*
X11763439Y-8492824D01*
X11922665Y-8444523D01*
X12069409Y-8366087D01*
X12198030Y-8260530D01*
X12303587Y-8131909D01*
X12382023Y-7985165D01*
X12430324Y-7825939D01*
X12446633Y-7660350D01*
X12446633Y-7147850D01*
X12430324Y-6982261D01*
X12382023Y-6823035D01*
X12303587Y-6676291D01*
X12198030Y-6547670D01*
X12069409Y-6442113D01*
X11922665Y-6363677D01*
X11763439Y-6315376D01*
X11597850Y-6299067D01*
X11160350Y-6299067D01*
X10994761Y-6315376D01*
X10835535Y-6363677D01*
X10688791Y-6442113D01*
X10560170Y-6547670D01*
X10536017Y-6577100D01*
X10388017Y-6577100D01*
X10379247Y-6488057D01*
X10343395Y-6369867D01*
X10285173Y-6260942D01*
X10206821Y-6165469D01*
X10111348Y-6087117D01*
X10002423Y-6028895D01*
X9884233Y-5993043D01*
X9761320Y-5980937D01*
X8272601Y-5980937D01*
X8055117Y-5835619D01*
X7736878Y-5703800D01*
X13341822Y-5703800D01*
X13353635Y-5742743D01*
X13411857Y-5851668D01*
X13490209Y-5947141D01*
X13585682Y-6025493D01*
X13694607Y-6083715D01*
X13812797Y-6119567D01*
X13935710Y-6131673D01*
X16935450Y-6131673D01*
X17058363Y-6119567D01*
X17176553Y-6083715D01*
X17285478Y-6025493D01*
X17380951Y-5947141D01*
X17459303Y-5851668D01*
X17517525Y-5742743D01*
X17553377Y-5624553D01*
X17565483Y-5501640D01*
X17565483Y-4251960D01*
X17553377Y-4129047D01*
X17517525Y-4010857D01*
X17459303Y-3901932D01*
X17380951Y-3806459D01*
X17285478Y-3728107D01*
X17176553Y-3669885D01*
X17058363Y-3634033D01*
X16935450Y-3621927D01*
X13935710Y-3621927D01*
X13812797Y-3634033D01*
X13694607Y-3669885D01*
X13585682Y-3728107D01*
X13490209Y-3806459D01*
X13411857Y-3901932D01*
X13353635Y-4010857D01*
X13341822Y-4049800D01*
X6790160Y-4049800D01*
X6749549Y-4045800D01*
X6708938Y-4049800D01*
X6708926Y-4049800D01*
X6587430Y-4061766D01*
X6431540Y-4109055D01*
X6394138Y-4129047D01*
X6287869Y-4185848D01*
X6193497Y-4263298D01*
X6193491Y-4263304D01*
X6161944Y-4289194D01*
X6136053Y-4320742D01*
X4859332Y-5597465D01*
X4827774Y-5623364D01*
X4801878Y-5654919D01*
X4724428Y-5749291D01*
X4683382Y-5826084D01*
X4647635Y-5892961D01*
X4619558Y-5985519D01*
X4543167Y-5993043D01*
X4424977Y-6028895D01*
X4316052Y-6087117D01*
X4220579Y-6165469D01*
X4142227Y-6260942D01*
X4084005Y-6369867D01*
X4048153Y-6488057D01*
X4036047Y-6610970D01*
X127000Y-6610970D01*
X127000Y-127000D01*
X18669000Y-127000D01*
X18669000Y-29845000D01*
G37*
X18669000Y-29845000D02*
X127000Y-29845000D01*
X127000Y-26987455D01*
X7934900Y-26987455D01*
X7934900Y-27307945D01*
X7997425Y-27622278D01*
X8120072Y-27918373D01*
X8298127Y-28184852D01*
X8524748Y-28411473D01*
X8791227Y-28589528D01*
X9087322Y-28712175D01*
X9401655Y-28774700D01*
X9722145Y-28774700D01*
X10036478Y-28712175D01*
X10332573Y-28589528D01*
X10599052Y-28411473D01*
X10825673Y-28184852D01*
X11003728Y-27918373D01*
X11126375Y-27622278D01*
X11188900Y-27307945D01*
X11188900Y-26987455D01*
X11126375Y-26673122D01*
X11003728Y-26377027D01*
X10825673Y-26110548D01*
X10599052Y-25883927D01*
X10332573Y-25705872D01*
X10036478Y-25583225D01*
X9722145Y-25520700D01*
X9401655Y-25520700D01*
X9087322Y-25583225D01*
X8791227Y-25705872D01*
X8524748Y-25883927D01*
X8298127Y-26110548D01*
X8120072Y-26377027D01*
X7997425Y-26673122D01*
X7934900Y-26987455D01*
X127000Y-26987455D01*
X127000Y-22171250D01*
X1993767Y-22171250D01*
X1993767Y-22608750D01*
X2010076Y-22774339D01*
X2058377Y-22933565D01*
X2136813Y-23080309D01*
X2216576Y-23177500D01*
X2136813Y-23274691D01*
X2058377Y-23421435D01*
X2010076Y-23580661D01*
X1993767Y-23746250D01*
X1993767Y-24183750D01*
X2010076Y-24349339D01*
X2058377Y-24508565D01*
X2136813Y-24655309D01*
X2242370Y-24783930D01*
X2370991Y-24889487D01*
X2517735Y-24967923D01*
X2676961Y-25016224D01*
X2842550Y-25032533D01*
X3355050Y-25032533D01*
X3520639Y-25016224D01*
X3679865Y-24967923D01*
X3826609Y-24889487D01*
X3955230Y-24783930D01*
X4060787Y-24655309D01*
X4139223Y-24508565D01*
X4187524Y-24349339D01*
X4203833Y-24183750D01*
X4203833Y-23746250D01*
X4187524Y-23580661D01*
X4139223Y-23421435D01*
X4060787Y-23274691D01*
X3981024Y-23177500D01*
X4060787Y-23080309D01*
X4139223Y-22933565D01*
X4187524Y-22774339D01*
X4203833Y-22608750D01*
X4203833Y-22171250D01*
X4187524Y-22005661D01*
X4139223Y-21846435D01*
X4060787Y-21699691D01*
X3955230Y-21571070D01*
X3826609Y-21465513D01*
X3679865Y-21387077D01*
X3520639Y-21338776D01*
X3355050Y-21322467D01*
X2842550Y-21322467D01*
X2676961Y-21338776D01*
X2517735Y-21387077D01*
X2370991Y-21465513D01*
X2242370Y-21571070D01*
X2136813Y-21699691D01*
X2058377Y-21846435D01*
X2010076Y-22005661D01*
X1993767Y-22171250D01*
X127000Y-22171250D01*
X127000Y-18987455D01*
X3929600Y-18987455D01*
X3929600Y-19307945D01*
X3992125Y-19622278D01*
X4114772Y-19918373D01*
X4292827Y-20184852D01*
X4519448Y-20411473D01*
X4785927Y-20589528D01*
X5082022Y-20712175D01*
X5108227Y-20717388D01*
X5078798Y-20753248D01*
X5016437Y-20829234D01*
X4982176Y-20893333D01*
X4939644Y-20972904D01*
X4892355Y-21128794D01*
X4880389Y-21250290D01*
X4880389Y-21250299D01*
X4876389Y-21290913D01*
X4880389Y-21331527D01*
X4880390Y-23049238D01*
X4876389Y-23089861D01*
X4892356Y-23251981D01*
X4939645Y-23407871D01*
X5016437Y-23551540D01*
X5091587Y-23643109D01*
X5119784Y-23677467D01*
X5151335Y-23703360D01*
X5203887Y-23755912D01*
X5229783Y-23787467D01*
X5355710Y-23890813D01*
X5499379Y-23967606D01*
X5655269Y-24014895D01*
X5776765Y-24026861D01*
X5776777Y-24026861D01*
X5817388Y-24030861D01*
X5857999Y-24026861D01*
X6047724Y-24026861D01*
X6169220Y-24014895D01*
X6325110Y-23967606D01*
X6405643Y-23924560D01*
X7188753Y-23924560D01*
X7191031Y-23947691D01*
X7235453Y-24094130D01*
X7307590Y-24229088D01*
X7404670Y-24347380D01*
X7522962Y-24444460D01*
X7657920Y-24516597D01*
X7804359Y-24561019D01*
X7918493Y-24572260D01*
X8744107Y-24572260D01*
X8858241Y-24561019D01*
X9004680Y-24516597D01*
X9139638Y-24444460D01*
X9257930Y-24347380D01*
X9355010Y-24229088D01*
X9427147Y-24094130D01*
X9471569Y-23947691D01*
X9486568Y-23795400D01*
X9471569Y-23643109D01*
X9427147Y-23496670D01*
X9413720Y-23471550D01*
X9427147Y-23446430D01*
X9471569Y-23299991D01*
X9474047Y-23274830D01*
X12522966Y-23274830D01*
X12563580Y-23278830D01*
X12604194Y-23274830D01*
X12604204Y-23274830D01*
X12725700Y-23262864D01*
X12851910Y-23224578D01*
X12925282Y-23284793D01*
X13034207Y-23343015D01*
X13152397Y-23378867D01*
X13275310Y-23390973D01*
X15998051Y-23390973D01*
X15998051Y-23421227D01*
X13275310Y-23421227D01*
X13152397Y-23433333D01*
X13034207Y-23469185D01*
X12925282Y-23527407D01*
X12829809Y-23605759D01*
X12751457Y-23701232D01*
X12693235Y-23810157D01*
X12674205Y-23872892D01*
X12557300Y-23908355D01*
X12526983Y-23924560D01*
X12413629Y-23985148D01*
X12392892Y-24002167D01*
X12291350Y-24002167D01*
X12125761Y-24018476D01*
X11966535Y-24066777D01*
X11819791Y-24145213D01*
X11691170Y-24250770D01*
X11585613Y-24379391D01*
X11507177Y-24526135D01*
X11458876Y-24685361D01*
X11442567Y-24850950D01*
X11442567Y-25228706D01*
X11437199Y-25283210D01*
X11453166Y-25445330D01*
X11500455Y-25601220D01*
X11577248Y-25744889D01*
X11578060Y-25745879D01*
X11585613Y-25760009D01*
X11691170Y-25888630D01*
X11819791Y-25994187D01*
X11966535Y-26072623D01*
X12125761Y-26120924D01*
X12291350Y-26137233D01*
X12803850Y-26137233D01*
X12969439Y-26120924D01*
X13128665Y-26072623D01*
X13275409Y-25994187D01*
X13352435Y-25930973D01*
X16275050Y-25930973D01*
X16397963Y-25918867D01*
X16516153Y-25883015D01*
X16625078Y-25824793D01*
X16720551Y-25746441D01*
X16798903Y-25650968D01*
X16857125Y-25542043D01*
X16876155Y-25479308D01*
X16993060Y-25443845D01*
X17136729Y-25367052D01*
X17262656Y-25263706D01*
X17288554Y-25232149D01*
X17381104Y-25139600D01*
X17412657Y-25113705D01*
X17516003Y-24987778D01*
X17592796Y-24844109D01*
X17640085Y-24688219D01*
X17652051Y-24566723D01*
X17652051Y-24566711D01*
X17656051Y-24526100D01*
X17652051Y-24485489D01*
X17652051Y-21111869D01*
X17656051Y-21071258D01*
X17652051Y-21030647D01*
X17652051Y-21030635D01*
X17640085Y-20909139D01*
X17592796Y-20753249D01*
X17516003Y-20609580D01*
X17412657Y-20483653D01*
X17381102Y-20457757D01*
X17328555Y-20405210D01*
X17302657Y-20373653D01*
X17176730Y-20270307D01*
X17033061Y-20193514D01*
X16905083Y-20154692D01*
X16905083Y-18971260D01*
X16892977Y-18848347D01*
X16857125Y-18730157D01*
X16798903Y-18621232D01*
X16720551Y-18525759D01*
X16625078Y-18447407D01*
X16516153Y-18389185D01*
X16397963Y-18353333D01*
X16275050Y-18341227D01*
X13275310Y-18341227D01*
X13152397Y-18353333D01*
X13034207Y-18389185D01*
X12925282Y-18447407D01*
X12829809Y-18525759D01*
X12751457Y-18621232D01*
X12693235Y-18730157D01*
X12681422Y-18769100D01*
X7442816Y-18769100D01*
X7402202Y-18765100D01*
X7361588Y-18769100D01*
X7361578Y-18769100D01*
X7240082Y-18781066D01*
X7148097Y-18808970D01*
X7121075Y-18673122D01*
X6998428Y-18377027D01*
X6820373Y-18110548D01*
X6593752Y-17883927D01*
X6327273Y-17705872D01*
X6031178Y-17583225D01*
X5716845Y-17520700D01*
X5396355Y-17520700D01*
X5082022Y-17583225D01*
X4785927Y-17705872D01*
X4519448Y-17883927D01*
X4292827Y-18110548D01*
X4114772Y-18377027D01*
X3992125Y-18673122D01*
X3929600Y-18987455D01*
X127000Y-18987455D01*
X127000Y-16431260D01*
X12645277Y-16431260D01*
X12645277Y-17680940D01*
X12657383Y-17803853D01*
X12693235Y-17922043D01*
X12751457Y-18030968D01*
X12829809Y-18126441D01*
X12925282Y-18204793D01*
X13034207Y-18263015D01*
X13152397Y-18298867D01*
X13275310Y-18310973D01*
X16275050Y-18310973D01*
X16397963Y-18298867D01*
X16516153Y-18263015D01*
X16625078Y-18204793D01*
X16720551Y-18126441D01*
X16798903Y-18030968D01*
X16857125Y-17922043D01*
X16892977Y-17803853D01*
X16905083Y-17680940D01*
X16905083Y-16431260D01*
X16892977Y-16308347D01*
X16857125Y-16190157D01*
X16798903Y-16081232D01*
X16720551Y-15985759D01*
X16625078Y-15907407D01*
X16516153Y-15849185D01*
X16397963Y-15813333D01*
X16275050Y-15801227D01*
X13275310Y-15801227D01*
X13152397Y-15813333D01*
X13034207Y-15849185D01*
X12925282Y-15907407D01*
X12829809Y-15985759D01*
X12751457Y-16081232D01*
X12693235Y-16190157D01*
X12657383Y-16308347D01*
X12645277Y-16431260D01*
X127000Y-16431260D01*
X127000Y-13891260D01*
X12645277Y-13891260D01*
X12645277Y-15140940D01*
X12657383Y-15263853D01*
X12693235Y-15382043D01*
X12751457Y-15490968D01*
X12829809Y-15586441D01*
X12925282Y-15664793D01*
X13034207Y-15723015D01*
X13152397Y-15758867D01*
X13275310Y-15770973D01*
X16275050Y-15770973D01*
X16397963Y-15758867D01*
X16516153Y-15723015D01*
X16625078Y-15664793D01*
X16720551Y-15586441D01*
X16798903Y-15490968D01*
X16857125Y-15382043D01*
X16892977Y-15263853D01*
X16905083Y-15140940D01*
X16905083Y-13891260D01*
X16892977Y-13768347D01*
X16857125Y-13650157D01*
X16798903Y-13541232D01*
X16720551Y-13445759D01*
X16625078Y-13367407D01*
X16516153Y-13309185D01*
X16397963Y-13273333D01*
X16275050Y-13261227D01*
X13275310Y-13261227D01*
X13152397Y-13273333D01*
X13034207Y-13309185D01*
X12925282Y-13367407D01*
X12829809Y-13445759D01*
X12751457Y-13541232D01*
X12693235Y-13650157D01*
X12657383Y-13768347D01*
X12645277Y-13891260D01*
X127000Y-13891260D01*
X127000Y-6610970D01*
X4036047Y-6610970D01*
X4036047Y-8208630D01*
X4048153Y-8331543D01*
X4084005Y-8449733D01*
X4142227Y-8558658D01*
X4220579Y-8654131D01*
X4316052Y-8732483D01*
X4424977Y-8790705D01*
X4543167Y-8826557D01*
X4666080Y-8838663D01*
X6154799Y-8838663D01*
X6372283Y-8983981D01*
X6695558Y-9117886D01*
X7038745Y-9186150D01*
X7388655Y-9186150D01*
X7731842Y-9117886D01*
X8055117Y-8983981D01*
X8272601Y-8838663D01*
X9761320Y-8838663D01*
X9884233Y-8826557D01*
X10002423Y-8790705D01*
X10111348Y-8732483D01*
X10206821Y-8654131D01*
X10285173Y-8558658D01*
X10343395Y-8449733D01*
X10379247Y-8331543D01*
X10389140Y-8231100D01*
X10536017Y-8231100D01*
X10560170Y-8260530D01*
X10688791Y-8366087D01*
X10835535Y-8444523D01*
X10994761Y-8492824D01*
X11160350Y-8509133D01*
X11597850Y-8509133D01*
X11763439Y-8492824D01*
X11922665Y-8444523D01*
X12069409Y-8366087D01*
X12198030Y-8260530D01*
X12303587Y-8131909D01*
X12382023Y-7985165D01*
X12430324Y-7825939D01*
X12446633Y-7660350D01*
X12446633Y-7147850D01*
X12430324Y-6982261D01*
X12382023Y-6823035D01*
X12303587Y-6676291D01*
X12198030Y-6547670D01*
X12069409Y-6442113D01*
X11922665Y-6363677D01*
X11763439Y-6315376D01*
X11597850Y-6299067D01*
X11160350Y-6299067D01*
X10994761Y-6315376D01*
X10835535Y-6363677D01*
X10688791Y-6442113D01*
X10560170Y-6547670D01*
X10536017Y-6577100D01*
X10388017Y-6577100D01*
X10379247Y-6488057D01*
X10343395Y-6369867D01*
X10285173Y-6260942D01*
X10206821Y-6165469D01*
X10111348Y-6087117D01*
X10002423Y-6028895D01*
X9884233Y-5993043D01*
X9761320Y-5980937D01*
X8272601Y-5980937D01*
X8055117Y-5835619D01*
X7736878Y-5703800D01*
X13341822Y-5703800D01*
X13353635Y-5742743D01*
X13411857Y-5851668D01*
X13490209Y-5947141D01*
X13585682Y-6025493D01*
X13694607Y-6083715D01*
X13812797Y-6119567D01*
X13935710Y-6131673D01*
X16935450Y-6131673D01*
X17058363Y-6119567D01*
X17176553Y-6083715D01*
X17285478Y-6025493D01*
X17380951Y-5947141D01*
X17459303Y-5851668D01*
X17517525Y-5742743D01*
X17553377Y-5624553D01*
X17565483Y-5501640D01*
X17565483Y-4251960D01*
X17553377Y-4129047D01*
X17517525Y-4010857D01*
X17459303Y-3901932D01*
X17380951Y-3806459D01*
X17285478Y-3728107D01*
X17176553Y-3669885D01*
X17058363Y-3634033D01*
X16935450Y-3621927D01*
X13935710Y-3621927D01*
X13812797Y-3634033D01*
X13694607Y-3669885D01*
X13585682Y-3728107D01*
X13490209Y-3806459D01*
X13411857Y-3901932D01*
X13353635Y-4010857D01*
X13341822Y-4049800D01*
X6790160Y-4049800D01*
X6749549Y-4045800D01*
X6708938Y-4049800D01*
X6708926Y-4049800D01*
X6587430Y-4061766D01*
X6431540Y-4109055D01*
X6394138Y-4129047D01*
X6287869Y-4185848D01*
X6193497Y-4263298D01*
X6193491Y-4263304D01*
X6161944Y-4289194D01*
X6136053Y-4320742D01*
X4859332Y-5597465D01*
X4827774Y-5623364D01*
X4801878Y-5654919D01*
X4724428Y-5749291D01*
X4683382Y-5826084D01*
X4647635Y-5892961D01*
X4619558Y-5985519D01*
X4543167Y-5993043D01*
X4424977Y-6028895D01*
X4316052Y-6087117D01*
X4220579Y-6165469D01*
X4142227Y-6260942D01*
X4084005Y-6369867D01*
X4048153Y-6488057D01*
X4036047Y-6610970D01*
X127000Y-6610970D01*
X127000Y-127000D01*
X18669000Y-127000D01*
X18669000Y-29845000D01*
M02*
