<?xml version="1.0" standalone="no"?>
 <!DOCTYPE svg PUBLIC "-//W3C//DTD SVG 1.1//EN" 
 "http://www.w3.org/Graphics/SVG/1.1/DTD/svg11.dtd"> 
<svg xmlns="http://www.w3.org/2000/svg" version="1.1" 
    width="29.7002cm" height="21.0007cm" viewBox="0 0 116930 82680 ">
<title>SVG Picture created as eppenwolf_bottom-F_Paste.svg date 2020/07/24 23:04:24 </title>
  <desc>Picture generated by PCBNEW </desc>
<g style="fill:#000000; fill-opacity:1;stroke:#000000; stroke-opacity:1;
stroke-linecap:round; stroke-linejoin:round; "
 transform="translate(0 0) scale(1 1)">
</g>
<g style="fill:#000000; fill-opacity:0.0; 
stroke:#000000; stroke-width:-0.000393701; stroke-opacity:1; 
stroke-linecap:round; stroke-linejoin:round;">
<g >
</g>
<g style="fill:#000000; fill-opacity:0.0; 
stroke:#000000; stroke-width:0; stroke-opacity:1; 
stroke-linecap:round; stroke-linejoin:round;">
</g>
<g style="fill:#000000; fill-opacity:1.0; 
stroke:#000000; stroke-width:0; stroke-opacity:1; 
stroke-linecap:round; stroke-linejoin:round;">
<path style="fill:#000000; fill-opacity:1.0; 
stroke:#000000; stroke-width:0; stroke-opacity:1; 
stroke-linecap:round; stroke-linejoin:round;fill-rule:evenodd;"
d="M 15590.4,34505.9
15236.4,34505.9
15236.4,34171.9
15590.4,34171.9
Z" /> 
<path style="fill:#000000; fill-opacity:1.0; 
stroke:#000000; stroke-width:0; stroke-opacity:1; 
stroke-linecap:round; stroke-linejoin:round;fill-rule:evenodd;"
d="M 15590.4,34961.9
15236.4,34961.9
15236.4,34627.9
15590.4,34627.9
Z" /> 
</g>
<g >
</g>
<g style="fill:#000000; fill-opacity:1.0; 
stroke:#000000; stroke-width:0; stroke-opacity:1; 
stroke-linecap:round; stroke-linejoin:round;">
<path style="fill:#000000; fill-opacity:1.0; 
stroke:#000000; stroke-width:0; stroke-opacity:1; 
stroke-linecap:round; stroke-linejoin:round;fill-rule:evenodd;"
d="M 16887.8,31811.2
16887.8,32165.2
16553.8,32165.2
16553.8,31811.2
Z" /> 
<path style="fill:#000000; fill-opacity:1.0; 
stroke:#000000; stroke-width:0; stroke-opacity:1; 
stroke-linecap:round; stroke-linejoin:round;fill-rule:evenodd;"
d="M 17343.8,31811.2
17343.8,32165.2
17009.8,32165.2
17009.8,31811.2
Z" /> 
</g>
<g >
</g>
<g style="fill:#000000; fill-opacity:1.0; 
stroke:#000000; stroke-width:0; stroke-opacity:1; 
stroke-linecap:round; stroke-linejoin:round;">
<path style="fill:#000000; fill-opacity:1.0; 
stroke:#000000; stroke-width:0; stroke-opacity:1; 
stroke-linecap:round; stroke-linejoin:round;fill-rule:evenodd;"
d="M 15590.4,11348.1
15236.4,11348.1
15236.4,11014.1
15590.4,11014.1
Z" /> 
<path style="fill:#000000; fill-opacity:1.0; 
stroke:#000000; stroke-width:0; stroke-opacity:1; 
stroke-linecap:round; stroke-linejoin:round;fill-rule:evenodd;"
d="M 15590.4,11804.1
15236.4,11804.1
15236.4,11470.1
15590.4,11470.1
Z" /> 
</g>
<g >
</g>
<g style="fill:#000000; fill-opacity:1.0; 
stroke:#000000; stroke-width:0; stroke-opacity:1; 
stroke-linecap:round; stroke-linejoin:round;">
<path style="fill:#000000; fill-opacity:1.0; 
stroke:#000000; stroke-width:0; stroke-opacity:1; 
stroke-linecap:round; stroke-linejoin:round;fill-rule:evenodd;"
d="M 16730.3,8484.42
16730.3,8838.42
16396.3,8838.42
16396.3,8484.42
Z" /> 
<path style="fill:#000000; fill-opacity:1.0; 
stroke:#000000; stroke-width:0; stroke-opacity:1; 
stroke-linecap:round; stroke-linejoin:round;fill-rule:evenodd;"
d="M 17186.3,8484.42
17186.3,8838.42
16852.3,8838.42
16852.3,8484.42
Z" /> 
</g>
<g >
</g>
<g style="fill:#000000; fill-opacity:1.0; 
stroke:#000000; stroke-width:0; stroke-opacity:1; 
stroke-linecap:round; stroke-linejoin:round;">
<path style="fill:#000000; fill-opacity:1.0; 
stroke:#000000; stroke-width:0; stroke-opacity:1; 
stroke-linecap:round; stroke-linejoin:round;fill-rule:evenodd;"
d="M 18346.2,34153.4
17874.2,34153.4
17874.2,33839.4
18346.2,33839.4
Z" /> 
<path style="fill:#000000; fill-opacity:1.0; 
stroke:#000000; stroke-width:0; stroke-opacity:1; 
stroke-linecap:round; stroke-linejoin:round;fill-rule:evenodd;"
d="M 18346.2,34861.4
17874.2,34861.4
17874.2,34547.4
18346.2,34547.4
Z" /> 
</g>
<g >
</g>
<g style="fill:#000000; fill-opacity:1.0; 
stroke:#000000; stroke-width:0; stroke-opacity:1; 
stroke-linecap:round; stroke-linejoin:round;">
<path style="fill:#000000; fill-opacity:1.0; 
stroke:#000000; stroke-width:0; stroke-opacity:1; 
stroke-linecap:round; stroke-linejoin:round;fill-rule:evenodd;"
d="M 21010,35516.3
21010,33266.3
22910,33266.3
22910,35516.3
Z" /> 
<path style="fill:#000000; fill-opacity:1.0; 
stroke:#000000; stroke-width:0; stroke-opacity:1; 
stroke-linecap:round; stroke-linejoin:round;fill-rule:evenodd;"
d="M 22542.5,37696.8
22542.5,36515.8
23171.5,36515.8
23171.5,37696.8
Z" /> 
<path style="fill:#000000; fill-opacity:1.0; 
stroke:#000000; stroke-width:0; stroke-opacity:1; 
stroke-linecap:round; stroke-linejoin:round;fill-rule:evenodd;"
d="M 20748.5,37696.8
20748.5,36515.8
21377.5,36515.8
21377.5,37696.8
Z" /> 
</g>
<g >
</g>
<g >
</g>
<g >
</g>
<g >
</g>
<g >
</g>
<g style="fill:#000000; fill-opacity:1.0; 
stroke:#000000; stroke-width:0; stroke-opacity:1; 
stroke-linecap:round; stroke-linejoin:round;">
<path style="fill:#000000; fill-opacity:1.0; 
stroke:#000000; stroke-width:0; stroke-opacity:1; 
stroke-linecap:round; stroke-linejoin:round;fill-rule:evenodd;"
d="M 17813.8,10622.3
17819.4,10623.2
17824.9,10624.5
17830.3,10626.5
17835.4,10628.9
17840.3,10631.8
17844.9,10635.2
17849.1,10639.1
17853,10643.3
17856.4,10647.9
17859.3,10652.7
17861.7,10657.9
17863.6,10663.3
17865,10668.8
17865.9,10674.4
17866.1,10680.1
17866.1,10815.9
17865.9,10821.6
17865,10827.3
17863.6,10832.8
17861.7,10838.2
17859.3,10843.3
17856.4,10848.2
17853,10852.8
17849.1,10857
17844.9,10860.8
17840.3,10864.2
17835.4,10867.2
17830.3,10869.6
17824.9,10871.5
17819.4,10872.9
17813.8,10873.7
17808.1,10874
17691.9,10874
17686.2,10873.7
17680.6,10872.9
17675.1,10871.5
17669.7,10869.6
17664.6,10867.2
17659.7,10864.2
17655.1,10860.8
17650.9,10857
17647,10852.8
17643.6,10848.2
17640.7,10843.3
17638.3,10838.2
17636.4,10832.8
17635,10827.3
17634.1,10821.6
17633.9,10815.9
17633.9,10680.1
17634.1,10674.4
17635,10668.8
17636.4,10663.3
17638.3,10657.9
17640.7,10652.7
17643.6,10647.9
17647,10643.3
17650.9,10639.1
17655.1,10635.2
17659.7,10631.8
17664.6,10628.9
17669.7,10626.5
17675.1,10624.5
17680.6,10623.2
17686.2,10622.3
17691.9,10622
17808.1,10622
Z" /> 
<path style="fill:#000000; fill-opacity:1.0; 
stroke:#000000; stroke-width:0; stroke-opacity:1; 
stroke-linecap:round; stroke-linejoin:round;fill-rule:evenodd;"
d="M 17431.9,10622.3
17437.5,10623.2
17443,10624.5
17448.4,10626.5
17453.6,10628.9
17458.4,10631.8
17463,10635.2
17467.2,10639.1
17471.1,10643.3
17474.5,10647.9
17477.4,10652.7
17479.8,10657.9
17481.8,10663.3
17483.1,10668.8
17484,10674.4
17484.3,10680.1
17484.3,10815.9
17484,10821.6
17483.1,10827.3
17481.8,10832.8
17479.8,10838.2
17477.4,10843.3
17474.5,10848.2
17471.1,10852.8
17467.2,10857
17463,10860.8
17458.4,10864.2
17453.6,10867.2
17448.4,10869.6
17443,10871.5
17437.5,10872.9
17431.9,10873.7
17426.2,10874
17310,10874
17304.3,10873.7
17298.7,10872.9
17293.2,10871.5
17287.8,10869.6
17282.7,10867.2
17277.8,10864.2
17273.2,10860.8
17269,10857
17265.2,10852.8
17261.8,10848.2
17258.8,10843.3
17256.4,10838.2
17254.5,10832.8
17253.1,10827.3
17252.2,10821.6
17252,10815.9
17252,10680.1
17252.2,10674.4
17253.1,10668.8
17254.5,10663.3
17256.4,10657.9
17258.8,10652.7
17261.8,10647.9
17265.2,10643.3
17269,10639.1
17273.2,10635.2
17277.8,10631.8
17282.7,10628.9
17287.8,10626.5
17293.2,10624.5
17298.7,10623.2
17304.3,10622.3
17310,10622
17426.2,10622
Z" /> 
</g>
<g >
</g>
<g style="fill:#000000; fill-opacity:1.0; 
stroke:#000000; stroke-width:0; stroke-opacity:1; 
stroke-linecap:round; stroke-linejoin:round;">
<path style="fill:#000000; fill-opacity:1.0; 
stroke:#000000; stroke-width:0; stroke-opacity:1; 
stroke-linecap:round; stroke-linejoin:round;fill-rule:evenodd;"
d="M 15979.1,34642
15984.8,34642.8
15990.3,34644.2
15995.6,34646.2
16000.8,34648.6
16005.7,34651.5
16010.3,34654.9
16014.5,34658.7
16018.3,34663
16021.7,34667.5
16024.6,34672.4
16027.1,34677.6
16029,34682.9
16030.4,34688.5
16031.2,34694.1
16031.5,34699.8
16031.5,34815.9
16031.2,34821.6
16030.4,34827.3
16029,34832.8
16027.1,34838.2
16024.6,34843.3
16021.7,34848.2
16018.3,34852.8
16014.5,34857
16010.3,34860.8
16005.7,34864.2
16000.8,34867.2
15995.6,34869.6
15990.3,34871.5
15984.8,34872.9
15979.1,34873.7
15973.4,34874
15837.6,34874
15831.9,34873.7
15826.3,34872.9
15820.7,34871.5
15815.4,34869.6
15810.2,34867.2
15805.3,34864.2
15800.8,34860.8
15796.5,34857
15792.7,34852.8
15789.3,34848.2
15786.4,34843.3
15783.9,34838.2
15782,34832.8
15780.6,34827.3
15779.8,34821.6
15779.5,34815.9
15779.5,34699.8
15779.8,34694.1
15780.6,34688.5
15782,34682.9
15783.9,34677.6
15786.4,34672.4
15789.3,34667.5
15792.7,34663
15796.5,34658.7
15800.8,34654.9
15805.3,34651.5
15810.2,34648.6
15815.4,34646.2
15820.7,34644.2
15826.3,34642.8
15831.9,34642
15837.6,34641.7
15973.4,34641.7
Z" /> 
<path style="fill:#000000; fill-opacity:1.0; 
stroke:#000000; stroke-width:0; stroke-opacity:1; 
stroke-linecap:round; stroke-linejoin:round;fill-rule:evenodd;"
d="M 15979.1,34260.1
15984.8,34261
15990.3,34262.3
15995.6,34264.3
16000.8,34266.7
16005.7,34269.6
16010.3,34273
16014.5,34276.9
16018.3,34281.1
16021.7,34285.7
16024.6,34290.5
16027.1,34295.7
16029,34301.1
16030.4,34306.6
16031.2,34312.2
16031.5,34317.9
16031.5,34434.1
16031.2,34439.7
16030.4,34445.4
16029,34450.9
16027.1,34456.3
16024.6,34461.4
16021.7,34466.3
16018.3,34470.9
16014.5,34475.1
16010.3,34478.9
16005.7,34482.3
16000.8,34485.3
15995.6,34487.7
15990.3,34489.6
15984.8,34491
15979.1,34491.8
15973.4,34492.1
15837.6,34492.1
15831.9,34491.8
15826.3,34491
15820.7,34489.6
15815.4,34487.7
15810.2,34485.3
15805.3,34482.3
15800.8,34478.9
15796.5,34475.1
15792.7,34470.9
15789.3,34466.3
15786.4,34461.4
15783.9,34456.3
15782,34450.9
15780.6,34445.4
15779.8,34439.7
15779.5,34434.1
15779.5,34317.9
15779.8,34312.2
15780.6,34306.6
15782,34301.1
15783.9,34295.7
15786.4,34290.5
15789.3,34285.7
15792.7,34281.1
15796.5,34276.9
15800.8,34273
15805.3,34269.6
15810.2,34266.7
15815.4,34264.3
15820.7,34262.3
15826.3,34261
15831.9,34260.1
15837.6,34259.8
15973.4,34259.8
Z" /> 
</g>
<g >
</g>
<g style="fill:#000000; fill-opacity:1.0; 
stroke:#000000; stroke-width:0; stroke-opacity:1; 
stroke-linecap:round; stroke-linejoin:round;">
<path style="fill:#000000; fill-opacity:1.0; 
stroke:#000000; stroke-width:0; stroke-opacity:1; 
stroke-linecap:round; stroke-linejoin:round;fill-rule:evenodd;"
d="M 17203.5,32354.6
17209.2,32355.4
17214.7,32356.8
17220.1,32358.8
17225.2,32361.2
17230.1,32364.1
17234.7,32367.5
17238.9,32371.3
17242.7,32375.6
17246.1,32380.1
17249,32385
17251.5,32390.2
17253.4,32395.5
17254.8,32401.1
17255.6,32406.7
17255.9,32412.4
17255.9,32548.2
17255.6,32553.9
17254.8,32559.6
17253.4,32565.1
17251.5,32570.5
17249,32575.6
17246.1,32580.5
17242.7,32585.1
17238.9,32589.3
17234.7,32593.1
17230.1,32596.5
17225.2,32599.4
17220.1,32601.9
17214.7,32603.8
17209.2,32605.2
17203.5,32606
17197.8,32606.3
17081.7,32606.3
17076,32606
17070.4,32605.2
17064.8,32603.8
17059.5,32601.9
17054.3,32599.4
17049.4,32596.5
17044.9,32593.1
17040.6,32589.3
17036.8,32585.1
17033.4,32580.5
17030.5,32575.6
17028,32570.5
17026.1,32565.1
17024.7,32559.6
17023.9,32553.9
17023.6,32548.2
17023.6,32412.4
17023.9,32406.7
17024.7,32401.1
17026.1,32395.5
17028,32390.2
17030.5,32385
17033.4,32380.1
17036.8,32375.6
17040.6,32371.3
17044.9,32367.5
17049.4,32364.1
17054.3,32361.2
17059.5,32358.8
17064.8,32356.8
17070.4,32355.4
17076,32354.6
17081.7,32354.3
17197.8,32354.3
Z" /> 
<path style="fill:#000000; fill-opacity:1.0; 
stroke:#000000; stroke-width:0; stroke-opacity:1; 
stroke-linecap:round; stroke-linejoin:round;fill-rule:evenodd;"
d="M 16821.6,32354.6
16827.3,32355.4
16832.8,32356.8
16838.2,32358.8
16843.3,32361.2
16848.2,32364.1
16852.8,32367.5
16857,32371.3
16860.8,32375.6
16864.2,32380.1
16867.2,32385
16869.6,32390.2
16871.5,32395.5
16872.9,32401.1
16873.7,32406.7
16874,32412.4
16874,32548.2
16873.7,32553.9
16872.9,32559.6
16871.5,32565.1
16869.6,32570.5
16867.2,32575.6
16864.2,32580.5
16860.8,32585.1
16857,32589.3
16852.8,32593.1
16848.2,32596.5
16843.3,32599.4
16838.2,32601.9
16832.8,32603.8
16827.3,32605.2
16821.6,32606
16815.9,32606.3
16699.8,32606.3
16694.1,32606
16688.5,32605.2
16682.9,32603.8
16677.6,32601.9
16672.4,32599.4
16667.5,32596.5
16663,32593.1
16658.7,32589.3
16654.9,32585.1
16651.5,32580.5
16648.6,32575.6
16646.2,32570.5
16644.2,32565.1
16642.8,32559.6
16642,32553.9
16641.7,32548.2
16641.7,32412.4
16642,32406.7
16642.8,32401.1
16644.2,32395.5
16646.2,32390.2
16648.6,32385
16651.5,32380.1
16654.9,32375.6
16658.7,32371.3
16663,32367.5
16667.5,32364.1
16672.4,32361.2
16677.6,32358.8
16682.9,32356.8
16688.5,32355.4
16694.1,32354.6
16699.8,32354.3
16815.9,32354.3
Z" /> 
</g>
<g >
</g>
<g style="fill:#000000; fill-opacity:1.0; 
stroke:#000000; stroke-width:0; stroke-opacity:1; 
stroke-linecap:round; stroke-linejoin:round;">
<path style="fill:#000000; fill-opacity:1.0; 
stroke:#000000; stroke-width:0; stroke-opacity:1; 
stroke-linecap:round; stroke-linejoin:round;fill-rule:evenodd;"
d="M 15880.7,11551.5
15886.3,11552.3
15891.9,11553.7
15897.2,11555.6
15902.4,11558
15907.3,11561
15911.8,11564.4
15916.1,11568.2
15919.9,11572.4
15923.3,11577
15926.2,11581.9
15928.6,11587
15930.6,11592.4
15932,11597.9
15932.8,11603.6
15933.1,11609.3
15933.1,11725.4
15932.8,11731.1
15932,11736.7
15930.6,11742.3
15928.6,11747.6
15926.2,11752.8
15923.3,11757.7
15919.9,11762.2
15916.1,11766.5
15911.8,11770.3
15907.3,11773.7
15902.4,11776.6
15897.2,11779
15891.9,11781
15886.3,11782.3
15880.7,11783.2
15875,11783.5
15739.2,11783.5
15733.5,11783.2
15727.8,11782.3
15722.3,11781
15716.9,11779
15711.8,11776.6
15706.9,11773.7
15702.3,11770.3
15698.1,11766.5
15694.3,11762.2
15690.9,11757.7
15688,11752.8
15685.5,11747.6
15683.6,11742.3
15682.2,11736.7
15681.4,11731.1
15681.1,11725.4
15681.1,11609.3
15681.4,11603.6
15682.2,11597.9
15683.6,11592.4
15685.5,11587
15688,11581.9
15690.9,11577
15694.3,11572.4
15698.1,11568.2
15702.3,11564.4
15706.9,11561
15711.8,11558
15716.9,11555.6
15722.3,11553.7
15727.8,11552.3
15733.5,11551.5
15739.2,11551.2
15875,11551.2
Z" /> 
<path style="fill:#000000; fill-opacity:1.0; 
stroke:#000000; stroke-width:0; stroke-opacity:1; 
stroke-linecap:round; stroke-linejoin:round;fill-rule:evenodd;"
d="M 15880.7,11169.6
15886.3,11170.4
15891.9,11171.8
15897.2,11173.7
15902.4,11176.1
15907.3,11179.1
15911.8,11182.5
15916.1,11186.3
15919.9,11190.5
15923.3,11195.1
15926.2,11200
15928.6,11205.1
15930.6,11210.5
15932,11216
15932.8,11221.7
15933.1,11227.4
15933.1,11343.5
15932.8,11349.2
15932,11354.8
15930.6,11360.4
15928.6,11365.7
15926.2,11370.9
15923.3,11375.8
15919.9,11380.3
15916.1,11384.6
15911.8,11388.4
15907.3,11391.8
15902.4,11394.7
15897.2,11397.2
15891.9,11399.1
15886.3,11400.5
15880.7,11401.3
15875,11401.6
15739.2,11401.6
15733.5,11401.3
15727.8,11400.5
15722.3,11399.1
15716.9,11397.2
15711.8,11394.7
15706.9,11391.8
15702.3,11388.4
15698.1,11384.6
15694.3,11380.3
15690.9,11375.8
15688,11370.9
15685.5,11365.7
15683.6,11360.4
15682.2,11354.8
15681.4,11349.2
15681.1,11343.5
15681.1,11227.4
15681.4,11221.7
15682.2,11216
15683.6,11210.5
15685.5,11205.1
15688,11200
15690.9,11195.1
15694.3,11190.5
15698.1,11186.3
15702.3,11182.5
15706.9,11179.1
15711.8,11176.1
15716.9,11173.7
15722.3,11171.8
15727.8,11170.4
15733.5,11169.6
15739.2,11169.3
15875,11169.3
Z" /> 
</g>
<g >
</g>
<g style="fill:#000000; fill-opacity:1.0; 
stroke:#000000; stroke-width:0; stroke-opacity:1; 
stroke-linecap:round; stroke-linejoin:round;">
<path style="fill:#000000; fill-opacity:1.0; 
stroke:#000000; stroke-width:0; stroke-opacity:1; 
stroke-linecap:round; stroke-linejoin:round;fill-rule:evenodd;"
d="M 17105.1,9027.84
17110.7,9028.67
17116.3,9030.06
17121.6,9031.98
17126.8,9034.42
17131.7,9037.35
17136.2,9040.74
17140.5,9044.57
17144.3,9048.79
17147.7,9053.37
17150.6,9058.26
17153.1,9063.41
17155,9068.77
17156.4,9074.3
17157.2,9079.94
17157.5,9085.63
17157.5,9221.46
17157.2,9227.15
17156.4,9232.79
17155,9238.31
17153.1,9243.68
17150.6,9248.83
17147.7,9253.72
17144.3,9258.3
17140.5,9262.52
17136.2,9266.35
17131.7,9269.74
17126.8,9272.67
17121.6,9275.11
17116.3,9277.03
17110.7,9278.41
17105.1,9279.25
17099.4,9279.53
16983.3,9279.53
16977.6,9279.25
16971.9,9278.41
16966.4,9277.03
16961,9275.11
16955.9,9272.67
16951,9269.74
16946.4,9266.35
16942.2,9262.52
16938.4,9258.3
16935,9253.72
16932.1,9248.83
16929.6,9243.68
16927.7,9238.31
16926.3,9232.79
16925.5,9227.15
16925.2,9221.46
16925.2,9085.63
16925.5,9079.94
16926.3,9074.3
16927.7,9068.77
16929.6,9063.41
16932.1,9058.26
16935,9053.37
16938.4,9048.79
16942.2,9044.57
16946.4,9040.74
16951,9037.35
16955.9,9034.42
16961,9031.98
16966.4,9030.06
16971.9,9028.67
16977.6,9027.84
16983.3,9027.56
17099.4,9027.56
Z" /> 
<path style="fill:#000000; fill-opacity:1.0; 
stroke:#000000; stroke-width:0; stroke-opacity:1; 
stroke-linecap:round; stroke-linejoin:round;fill-rule:evenodd;"
d="M 16723.2,9027.84
16728.8,9028.67
16734.4,9030.06
16739.7,9031.98
16744.9,9034.42
16749.8,9037.35
16754.4,9040.74
16758.6,9044.57
16762.4,9048.79
16765.8,9053.37
16768.7,9058.26
16771.2,9063.41
16773.1,9068.77
16774.5,9074.3
16775.3,9079.94
16775.6,9085.63
16775.6,9221.46
16775.3,9227.15
16774.5,9232.79
16773.1,9238.31
16771.2,9243.68
16768.7,9248.83
16765.8,9253.72
16762.4,9258.3
16758.6,9262.52
16754.4,9266.35
16749.8,9269.74
16744.9,9272.67
16739.7,9275.11
16734.4,9277.03
16728.8,9278.41
16723.2,9279.25
16717.5,9279.53
16601.4,9279.53
16595.7,9279.25
16590,9278.41
16584.5,9277.03
16579.2,9275.11
16574,9272.67
16569.1,9269.74
16564.5,9266.35
16560.3,9262.52
16556.5,9258.3
16553.1,9253.72
16550.2,9248.83
16547.7,9243.68
16545.8,9238.31
16544.4,9232.79
16543.6,9227.15
16543.3,9221.46
16543.3,9085.63
16543.6,9079.94
16544.4,9074.3
16545.8,9068.77
16547.7,9063.41
16550.2,9058.26
16553.1,9053.37
16556.5,9048.79
16560.3,9044.57
16564.5,9040.74
16569.1,9037.35
16574,9034.42
16579.2,9031.98
16584.5,9030.06
16590,9028.67
16595.7,9027.84
16601.4,9027.56
16717.5,9027.56
Z" /> 
</g>
<g >
</g>
<g style="fill:#000000; fill-opacity:1.0; 
stroke:#000000; stroke-width:0; stroke-opacity:1; 
stroke-linecap:round; stroke-linejoin:round;">
<path style="fill:#000000; fill-opacity:1.0; 
stroke:#000000; stroke-width:0; stroke-opacity:1; 
stroke-linecap:round; stroke-linejoin:round;fill-rule:evenodd;"
d="M 17510.6,33555.4
17516.3,33556.2
17521.8,33557.6
17527.1,33559.5
17532.3,33562
17537.2,33564.9
17541.8,33568.3
17546,33572.1
17549.8,33576.3
17553.2,33580.9
17556.1,33585.8
17558.6,33591
17560.5,33596.3
17561.9,33601.9
17562.7,33607.5
17563,33613.2
17563,33749
17562.7,33754.7
17561.9,33760.3
17560.5,33765.9
17558.6,33771.2
17556.1,33776.4
17553.2,33781.3
17549.8,33785.9
17546,33790.1
17541.8,33793.9
17537.2,33797.3
17532.3,33800.2
17527.1,33802.7
17521.8,33804.6
17516.3,33806
17510.6,33806.8
17504.9,33807.1
17388.8,33807.1
17383.1,33806.8
17377.5,33806
17371.9,33804.6
17366.6,33802.7
17361.4,33800.2
17356.5,33797.3
17351.9,33793.9
17347.7,33790.1
17343.9,33785.9
17340.5,33781.3
17337.6,33776.4
17335.1,33771.2
17333.2,33765.9
17331.8,33760.3
17331,33754.7
17330.7,33749
17330.7,33613.2
17331,33607.5
17331.8,33601.9
17333.2,33596.3
17335.1,33591
17337.6,33585.8
17340.5,33580.9
17343.9,33576.3
17347.7,33572.1
17351.9,33568.3
17356.5,33564.9
17361.4,33562
17366.6,33559.5
17371.9,33557.6
17377.5,33556.2
17383.1,33555.4
17388.8,33555.1
17504.9,33555.1
Z" /> 
<path style="fill:#000000; fill-opacity:1.0; 
stroke:#000000; stroke-width:0; stroke-opacity:1; 
stroke-linecap:round; stroke-linejoin:round;fill-rule:evenodd;"
d="M 17892.5,33555.4
17898.1,33556.2
17903.7,33557.6
17909,33559.5
17914.2,33562
17919.1,33564.9
17923.7,33568.3
17927.9,33572.1
17931.7,33576.3
17935.1,33580.9
17938,33585.8
17940.5,33591
17942.4,33596.3
17943.8,33601.9
17944.6,33607.5
17944.9,33613.2
17944.9,33749
17944.6,33754.7
17943.8,33760.3
17942.4,33765.9
17940.5,33771.2
17938,33776.4
17935.1,33781.3
17931.7,33785.9
17927.9,33790.1
17923.7,33793.9
17919.1,33797.3
17914.2,33800.2
17909,33802.7
17903.7,33804.6
17898.1,33806
17892.5,33806.8
17886.8,33807.1
17770.7,33807.1
17765,33806.8
17759.3,33806
17753.8,33804.6
17748.4,33802.7
17743.3,33800.2
17738.4,33797.3
17733.8,33793.9
17729.6,33790.1
17725.8,33785.9
17722.4,33781.3
17719.5,33776.4
17717,33771.2
17715.1,33765.9
17713.7,33760.3
17712.9,33754.7
17712.6,33749
17712.6,33613.2
17712.9,33607.5
17713.7,33601.9
17715.1,33596.3
17717,33591
17719.5,33585.8
17722.4,33580.9
17725.8,33576.3
17729.6,33572.1
17733.8,33568.3
17738.4,33564.9
17743.3,33562
17748.4,33559.5
17753.8,33557.6
17759.3,33556.2
17765,33555.4
17770.7,33555.1
17886.8,33555.1
Z" /> 
</g>
<g >
</g>
<g style="fill:#000000; fill-opacity:1.0; 
stroke:#000000; stroke-width:0; stroke-opacity:1; 
stroke-linecap:round; stroke-linejoin:round;">
<path style="fill:#000000; fill-opacity:1.0; 
stroke:#000000; stroke-width:0; stroke-opacity:1; 
stroke-linecap:round; stroke-linejoin:round;fill-rule:evenodd;"
d="M 16594.5,34586.6
16909.4,34586.6
16909.4,34940.9
16594.5,34940.9
Z" /> 
<path style="fill:#000000; fill-opacity:1.0; 
stroke:#000000; stroke-width:0; stroke-opacity:1; 
stroke-linecap:round; stroke-linejoin:round;fill-rule:evenodd;"
d="M 16220.5,33799.2
16535.4,33799.2
16535.4,34153.5
16220.5,34153.5
Z" /> 
<path style="fill:#000000; fill-opacity:1.0; 
stroke:#000000; stroke-width:0; stroke-opacity:1; 
stroke-linecap:round; stroke-linejoin:round;fill-rule:evenodd;"
d="M 16968.5,33799.2
17283.5,33799.2
17283.5,34153.5
16968.5,34153.5
Z" /> 
</g>
<g >
</g>
<g style="fill:#000000; fill-opacity:1.0; 
stroke:#000000; stroke-width:0; stroke-opacity:1; 
stroke-linecap:round; stroke-linejoin:round;">
<path style="fill:#000000; fill-opacity:1.0; 
stroke:#000000; stroke-width:0; stroke-opacity:1; 
stroke-linecap:round; stroke-linejoin:round;fill-rule:evenodd;"
d="M 21817,36919.7
21825.4,36920.9
21833.6,36923
21841.5,36925.8
21849.2,36929.5
21856.4,36933.8
21863.2,36938.8
21869.5,36944.5
21875.1,36950.8
21880.2,36957.6
21884.5,36964.8
21888.1,36972.5
21891,36980.4
21893,36988.6
21894.3,36997
21894.7,37005.4
21894.7,37207.2
21894.3,37215.6
21893,37224
21891,37232.2
21888.1,37240.1
21884.5,37247.8
21880.2,37255
21875.1,37261.8
21869.5,37268.1
21863.2,37273.8
21856.4,37278.8
21849.2,37283.1
21841.5,37286.8
21833.6,37289.6
21825.4,37291.7
21817,37292.9
21808.6,37293.3
21636.3,37293.3
21627.9,37292.9
21619.5,37291.7
21611.3,37289.6
21603.4,37286.8
21595.7,37283.1
21588.5,37278.8
21581.7,37273.8
21575.4,37268.1
21569.7,37261.8
21564.7,37255
21560.4,37247.8
21556.8,37240.1
21553.9,37232.2
21551.9,37224
21550.6,37215.6
21550.2,37207.2
21550.2,37005.4
21550.6,36997
21551.9,36988.6
21553.9,36980.4
21556.8,36972.5
21560.4,36964.8
21564.7,36957.6
21569.7,36950.8
21575.4,36944.5
21581.7,36938.8
21588.5,36933.8
21595.7,36929.5
21603.4,36925.8
21611.3,36923
21619.5,36920.9
21627.9,36919.7
21636.3,36919.3
21808.6,36919.3
Z" /> 
<path style="fill:#000000; fill-opacity:1.0; 
stroke:#000000; stroke-width:0; stroke-opacity:1; 
stroke-linecap:round; stroke-linejoin:round;fill-rule:evenodd;"
d="M 22437.1,36919.7
22445.4,36920.9
22453.6,36923
22461.6,36925.8
22469.2,36929.5
22476.5,36933.8
22483.3,36938.8
22489.5,36944.5
22495.2,36950.8
22500.2,36957.6
22504.6,36964.8
22508.2,36972.5
22511.1,36980.4
22513.1,36988.6
22514.3,36997
22514.8,37005.4
22514.8,37207.2
22514.3,37215.6
22513.1,37224
22511.1,37232.2
22508.2,37240.1
22504.6,37247.8
22500.2,37255
22495.2,37261.8
22489.5,37268.1
22483.3,37273.8
22476.5,37278.8
22469.2,37283.1
22461.6,37286.8
22453.6,37289.6
22445.4,37291.7
22437.1,37292.9
22428.6,37293.3
22256.4,37293.3
22248,37292.9
22239.6,37291.7
22231.4,37289.6
22223.4,37286.8
22215.8,37283.1
22208.6,37278.8
22201.8,37273.8
22195.5,37268.1
22189.8,37261.8
22184.8,37255
22180.4,37247.8
22176.8,37240.1
22174,37232.2
22171.9,37224
22170.7,37215.6
22170.3,37207.2
22170.3,37005.4
22170.7,36997
22171.9,36988.6
22174,36980.4
22176.8,36972.5
22180.4,36964.8
22184.8,36957.6
22189.8,36950.8
22195.5,36944.5
22201.8,36938.8
22208.6,36933.8
22215.8,36929.5
22223.4,36925.8
22231.4,36923
22239.6,36920.9
22248,36919.7
22256.4,36919.3
22428.6,36919.3
Z" /> 
</g>
<g >
</g>
<g style="fill:#000000; fill-opacity:1.0; 
stroke:#000000; stroke-width:0; stroke-opacity:1; 
stroke-linecap:round; stroke-linejoin:round;">
<path style="fill:#000000; fill-opacity:1.0; 
stroke:#000000; stroke-width:0; stroke-opacity:1; 
stroke-linecap:round; stroke-linejoin:round;fill-rule:evenodd;"
d="M 16535.4,33129.9
16535.4,33444.9
16181.1,33444.9
16181.1,33129.9
Z" /> 
<path style="fill:#000000; fill-opacity:1.0; 
stroke:#000000; stroke-width:0; stroke-opacity:1; 
stroke-linecap:round; stroke-linejoin:round;fill-rule:evenodd;"
d="M 17322.8,32755.9
17322.8,33070.9
16968.5,33070.9
16968.5,32755.9
Z" /> 
<path style="fill:#000000; fill-opacity:1.0; 
stroke:#000000; stroke-width:0; stroke-opacity:1; 
stroke-linecap:round; stroke-linejoin:round;fill-rule:evenodd;"
d="M 17322.8,33503.9
17322.8,33818.9
16968.5,33818.9
16968.5,33503.9
Z" /> 
</g>
<g >
</g>
<g style="fill:#000000; fill-opacity:1.0; 
stroke:#000000; stroke-width:0; stroke-opacity:1; 
stroke-linecap:round; stroke-linejoin:round;">
<path style="fill:#000000; fill-opacity:1.0; 
stroke:#000000; stroke-width:0; stroke-opacity:1; 
stroke-linecap:round; stroke-linejoin:round;fill-rule:evenodd;"
d="M 16535.4,11496.1
16850.4,11496.1
16850.4,11850.4
16535.4,11850.4
Z" /> 
<path style="fill:#000000; fill-opacity:1.0; 
stroke:#000000; stroke-width:0; stroke-opacity:1; 
stroke-linecap:round; stroke-linejoin:round;fill-rule:evenodd;"
d="M 16161.4,10708.7
16476.4,10708.7
16476.4,11063
16161.4,11063
Z" /> 
<path style="fill:#000000; fill-opacity:1.0; 
stroke:#000000; stroke-width:0; stroke-opacity:1; 
stroke-linecap:round; stroke-linejoin:round;fill-rule:evenodd;"
d="M 16909.4,10708.7
17224.4,10708.7
17224.4,11063
16909.4,11063
Z" /> 
</g>
<g >
</g>
<g style="fill:#000000; fill-opacity:1.0; 
stroke:#000000; stroke-width:0; stroke-opacity:1; 
stroke-linecap:round; stroke-linejoin:round;">
<path style="fill:#000000; fill-opacity:1.0; 
stroke:#000000; stroke-width:0; stroke-opacity:1; 
stroke-linecap:round; stroke-linejoin:round;fill-rule:evenodd;"
d="M 16437,9822.83
16437,10137.8
16082.7,10137.8
16082.7,9822.83
Z" /> 
<path style="fill:#000000; fill-opacity:1.0; 
stroke:#000000; stroke-width:0; stroke-opacity:1; 
stroke-linecap:round; stroke-linejoin:round;fill-rule:evenodd;"
d="M 17224.4,9448.82
17224.4,9763.78
16870.1,9763.78
16870.1,9448.82
Z" /> 
<path style="fill:#000000; fill-opacity:1.0; 
stroke:#000000; stroke-width:0; stroke-opacity:1; 
stroke-linecap:round; stroke-linejoin:round;fill-rule:evenodd;"
d="M 17224.4,10196.9
17224.4,10511.8
16870.1,10511.8
16870.1,10196.9
Z" /> 
</g>
<g >
</g>
<g >
</g>
<g >
</g>
</g> 
</svg>
