G04 #@! TF.GenerationSoftware,KiCad,Pcbnew,5.1.5+dfsg1-2~bpo9+1*
G04 #@! TF.CreationDate,2020-07-24T13:04:41-04:00*
G04 #@! TF.ProjectId,eppenwolf_bottom,65707065-6e77-46f6-9c66-5f626f74746f,rev?*
G04 #@! TF.SameCoordinates,PX1d905c0PY138ce20*
G04 #@! TF.FileFunction,Copper,L1,Top*
G04 #@! TF.FilePolarity,Positive*
%FSLAX46Y46*%
G04 Gerber Fmt 4.6, Leading zero omitted, Abs format (unit mm)*
G04 Created by KiCad (PCBNEW 5.1.5+dfsg1-2~bpo9+1) date 2020-07-24 13:04:41*
%MOMM*%
%LPD*%
G04 APERTURE LIST*
%ADD10R,0.899160X0.848360*%
%ADD11R,0.848360X0.899160*%
%ADD12R,1.198880X0.797560*%
%ADD13R,4.826000X5.715000*%
%ADD14R,1.597660X2.999740*%
%ADD15R,1.500000X1.500000*%
%ADD16C,0.020000*%
%ADD17R,0.800000X0.900000*%
%ADD18R,0.900000X0.800000*%
%ADD19C,1.310000*%
%ADD20C,1.500000*%
%ADD21C,0.250000*%
%ADD22C,3.000000*%
%ADD23C,0.500000*%
%ADD24C,1.000000*%
%ADD25C,0.200000*%
G04 APERTURE END LIST*
D10*
X8150000Y-66720880D03*
X8150000Y-67879120D03*
D11*
X11470880Y-60750000D03*
X12629120Y-60750000D03*
D10*
X8150000Y-7900000D03*
X8150000Y-9058240D03*
D11*
X11070880Y-1499999D03*
X12229120Y-1499999D03*
D12*
X15000000Y-65850840D03*
X15000000Y-67649160D03*
D13*
X24778380Y-66853900D03*
D14*
X27056760Y-73750000D03*
X22500000Y-73750000D03*
D15*
X8750000Y-69000000D03*
X8500000Y-63500000D03*
X6250000Y-8400000D03*
X7750000Y-4000000D03*
G04 #@! TA.AperFunction,SMDPad,CuDef*
D16*
G36*
X14246958Y-6480710D02*
G01*
X14261276Y-6482834D01*
X14275317Y-6486351D01*
X14288946Y-6491228D01*
X14302031Y-6497417D01*
X14314447Y-6504858D01*
X14326073Y-6513481D01*
X14336798Y-6523202D01*
X14346519Y-6533927D01*
X14355142Y-6545553D01*
X14362583Y-6557969D01*
X14368772Y-6571054D01*
X14373649Y-6584683D01*
X14377166Y-6598724D01*
X14379290Y-6613042D01*
X14380000Y-6627500D01*
X14380000Y-6972500D01*
X14379290Y-6986958D01*
X14377166Y-7001276D01*
X14373649Y-7015317D01*
X14368772Y-7028946D01*
X14362583Y-7042031D01*
X14355142Y-7054447D01*
X14346519Y-7066073D01*
X14336798Y-7076798D01*
X14326073Y-7086519D01*
X14314447Y-7095142D01*
X14302031Y-7102583D01*
X14288946Y-7108772D01*
X14275317Y-7113649D01*
X14261276Y-7117166D01*
X14246958Y-7119290D01*
X14232500Y-7120000D01*
X13937500Y-7120000D01*
X13923042Y-7119290D01*
X13908724Y-7117166D01*
X13894683Y-7113649D01*
X13881054Y-7108772D01*
X13867969Y-7102583D01*
X13855553Y-7095142D01*
X13843927Y-7086519D01*
X13833202Y-7076798D01*
X13823481Y-7066073D01*
X13814858Y-7054447D01*
X13807417Y-7042031D01*
X13801228Y-7028946D01*
X13796351Y-7015317D01*
X13792834Y-7001276D01*
X13790710Y-6986958D01*
X13790000Y-6972500D01*
X13790000Y-6627500D01*
X13790710Y-6613042D01*
X13792834Y-6598724D01*
X13796351Y-6584683D01*
X13801228Y-6571054D01*
X13807417Y-6557969D01*
X13814858Y-6545553D01*
X13823481Y-6533927D01*
X13833202Y-6523202D01*
X13843927Y-6513481D01*
X13855553Y-6504858D01*
X13867969Y-6497417D01*
X13881054Y-6491228D01*
X13894683Y-6486351D01*
X13908724Y-6482834D01*
X13923042Y-6480710D01*
X13937500Y-6480000D01*
X14232500Y-6480000D01*
X14246958Y-6480710D01*
G37*
G04 #@! TD.AperFunction*
G04 #@! TA.AperFunction,SMDPad,CuDef*
G36*
X13276958Y-6480710D02*
G01*
X13291276Y-6482834D01*
X13305317Y-6486351D01*
X13318946Y-6491228D01*
X13332031Y-6497417D01*
X13344447Y-6504858D01*
X13356073Y-6513481D01*
X13366798Y-6523202D01*
X13376519Y-6533927D01*
X13385142Y-6545553D01*
X13392583Y-6557969D01*
X13398772Y-6571054D01*
X13403649Y-6584683D01*
X13407166Y-6598724D01*
X13409290Y-6613042D01*
X13410000Y-6627500D01*
X13410000Y-6972500D01*
X13409290Y-6986958D01*
X13407166Y-7001276D01*
X13403649Y-7015317D01*
X13398772Y-7028946D01*
X13392583Y-7042031D01*
X13385142Y-7054447D01*
X13376519Y-7066073D01*
X13366798Y-7076798D01*
X13356073Y-7086519D01*
X13344447Y-7095142D01*
X13332031Y-7102583D01*
X13318946Y-7108772D01*
X13305317Y-7113649D01*
X13291276Y-7117166D01*
X13276958Y-7119290D01*
X13262500Y-7120000D01*
X12967500Y-7120000D01*
X12953042Y-7119290D01*
X12938724Y-7117166D01*
X12924683Y-7113649D01*
X12911054Y-7108772D01*
X12897969Y-7102583D01*
X12885553Y-7095142D01*
X12873927Y-7086519D01*
X12863202Y-7076798D01*
X12853481Y-7066073D01*
X12844858Y-7054447D01*
X12837417Y-7042031D01*
X12831228Y-7028946D01*
X12826351Y-7015317D01*
X12822834Y-7001276D01*
X12820710Y-6986958D01*
X12820000Y-6972500D01*
X12820000Y-6627500D01*
X12820710Y-6613042D01*
X12822834Y-6598724D01*
X12826351Y-6584683D01*
X12831228Y-6571054D01*
X12837417Y-6557969D01*
X12844858Y-6545553D01*
X12853481Y-6533927D01*
X12863202Y-6523202D01*
X12873927Y-6513481D01*
X12885553Y-6504858D01*
X12897969Y-6497417D01*
X12911054Y-6491228D01*
X12924683Y-6486351D01*
X12938724Y-6482834D01*
X12953042Y-6480710D01*
X12967500Y-6480000D01*
X13262500Y-6480000D01*
X13276958Y-6480710D01*
G37*
G04 #@! TD.AperFunction*
G04 #@! TA.AperFunction,SMDPad,CuDef*
G36*
X9586958Y-67490710D02*
G01*
X9601276Y-67492834D01*
X9615317Y-67496351D01*
X9628946Y-67501228D01*
X9642031Y-67507417D01*
X9654447Y-67514858D01*
X9666073Y-67523481D01*
X9676798Y-67533202D01*
X9686519Y-67543927D01*
X9695142Y-67555553D01*
X9702583Y-67567969D01*
X9708772Y-67581054D01*
X9713649Y-67594683D01*
X9717166Y-67608724D01*
X9719290Y-67623042D01*
X9720000Y-67637500D01*
X9720000Y-67932500D01*
X9719290Y-67946958D01*
X9717166Y-67961276D01*
X9713649Y-67975317D01*
X9708772Y-67988946D01*
X9702583Y-68002031D01*
X9695142Y-68014447D01*
X9686519Y-68026073D01*
X9676798Y-68036798D01*
X9666073Y-68046519D01*
X9654447Y-68055142D01*
X9642031Y-68062583D01*
X9628946Y-68068772D01*
X9615317Y-68073649D01*
X9601276Y-68077166D01*
X9586958Y-68079290D01*
X9572500Y-68080000D01*
X9227500Y-68080000D01*
X9213042Y-68079290D01*
X9198724Y-68077166D01*
X9184683Y-68073649D01*
X9171054Y-68068772D01*
X9157969Y-68062583D01*
X9145553Y-68055142D01*
X9133927Y-68046519D01*
X9123202Y-68036798D01*
X9113481Y-68026073D01*
X9104858Y-68014447D01*
X9097417Y-68002031D01*
X9091228Y-67988946D01*
X9086351Y-67975317D01*
X9082834Y-67961276D01*
X9080710Y-67946958D01*
X9080000Y-67932500D01*
X9080000Y-67637500D01*
X9080710Y-67623042D01*
X9082834Y-67608724D01*
X9086351Y-67594683D01*
X9091228Y-67581054D01*
X9097417Y-67567969D01*
X9104858Y-67555553D01*
X9113481Y-67543927D01*
X9123202Y-67533202D01*
X9133927Y-67523481D01*
X9145553Y-67514858D01*
X9157969Y-67507417D01*
X9171054Y-67501228D01*
X9184683Y-67496351D01*
X9198724Y-67492834D01*
X9213042Y-67490710D01*
X9227500Y-67490000D01*
X9572500Y-67490000D01*
X9586958Y-67490710D01*
G37*
G04 #@! TD.AperFunction*
G04 #@! TA.AperFunction,SMDPad,CuDef*
G36*
X9586958Y-66520710D02*
G01*
X9601276Y-66522834D01*
X9615317Y-66526351D01*
X9628946Y-66531228D01*
X9642031Y-66537417D01*
X9654447Y-66544858D01*
X9666073Y-66553481D01*
X9676798Y-66563202D01*
X9686519Y-66573927D01*
X9695142Y-66585553D01*
X9702583Y-66597969D01*
X9708772Y-66611054D01*
X9713649Y-66624683D01*
X9717166Y-66638724D01*
X9719290Y-66653042D01*
X9720000Y-66667500D01*
X9720000Y-66962500D01*
X9719290Y-66976958D01*
X9717166Y-66991276D01*
X9713649Y-67005317D01*
X9708772Y-67018946D01*
X9702583Y-67032031D01*
X9695142Y-67044447D01*
X9686519Y-67056073D01*
X9676798Y-67066798D01*
X9666073Y-67076519D01*
X9654447Y-67085142D01*
X9642031Y-67092583D01*
X9628946Y-67098772D01*
X9615317Y-67103649D01*
X9601276Y-67107166D01*
X9586958Y-67109290D01*
X9572500Y-67110000D01*
X9227500Y-67110000D01*
X9213042Y-67109290D01*
X9198724Y-67107166D01*
X9184683Y-67103649D01*
X9171054Y-67098772D01*
X9157969Y-67092583D01*
X9145553Y-67085142D01*
X9133927Y-67076519D01*
X9123202Y-67066798D01*
X9113481Y-67056073D01*
X9104858Y-67044447D01*
X9097417Y-67032031D01*
X9091228Y-67018946D01*
X9086351Y-67005317D01*
X9082834Y-66991276D01*
X9080710Y-66976958D01*
X9080000Y-66962500D01*
X9080000Y-66667500D01*
X9080710Y-66653042D01*
X9082834Y-66638724D01*
X9086351Y-66624683D01*
X9091228Y-66611054D01*
X9097417Y-66597969D01*
X9104858Y-66585553D01*
X9113481Y-66573927D01*
X9123202Y-66563202D01*
X9133927Y-66553481D01*
X9145553Y-66544858D01*
X9157969Y-66537417D01*
X9171054Y-66531228D01*
X9184683Y-66526351D01*
X9198724Y-66522834D01*
X9213042Y-66520710D01*
X9227500Y-66520000D01*
X9572500Y-66520000D01*
X9586958Y-66520710D01*
G37*
G04 #@! TD.AperFunction*
G04 #@! TA.AperFunction,SMDPad,CuDef*
G36*
X12696959Y-61680710D02*
G01*
X12711277Y-61682834D01*
X12725318Y-61686351D01*
X12738947Y-61691228D01*
X12752032Y-61697417D01*
X12764448Y-61704858D01*
X12776074Y-61713481D01*
X12786799Y-61723202D01*
X12796520Y-61733927D01*
X12805143Y-61745553D01*
X12812584Y-61757969D01*
X12818773Y-61771054D01*
X12823650Y-61784683D01*
X12827167Y-61798724D01*
X12829291Y-61813042D01*
X12830001Y-61827500D01*
X12830001Y-62172500D01*
X12829291Y-62186958D01*
X12827167Y-62201276D01*
X12823650Y-62215317D01*
X12818773Y-62228946D01*
X12812584Y-62242031D01*
X12805143Y-62254447D01*
X12796520Y-62266073D01*
X12786799Y-62276798D01*
X12776074Y-62286519D01*
X12764448Y-62295142D01*
X12752032Y-62302583D01*
X12738947Y-62308772D01*
X12725318Y-62313649D01*
X12711277Y-62317166D01*
X12696959Y-62319290D01*
X12682501Y-62320000D01*
X12387501Y-62320000D01*
X12373043Y-62319290D01*
X12358725Y-62317166D01*
X12344684Y-62313649D01*
X12331055Y-62308772D01*
X12317970Y-62302583D01*
X12305554Y-62295142D01*
X12293928Y-62286519D01*
X12283203Y-62276798D01*
X12273482Y-62266073D01*
X12264859Y-62254447D01*
X12257418Y-62242031D01*
X12251229Y-62228946D01*
X12246352Y-62215317D01*
X12242835Y-62201276D01*
X12240711Y-62186958D01*
X12240001Y-62172500D01*
X12240001Y-61827500D01*
X12240711Y-61813042D01*
X12242835Y-61798724D01*
X12246352Y-61784683D01*
X12251229Y-61771054D01*
X12257418Y-61757969D01*
X12264859Y-61745553D01*
X12273482Y-61733927D01*
X12283203Y-61723202D01*
X12293928Y-61713481D01*
X12305554Y-61704858D01*
X12317970Y-61697417D01*
X12331055Y-61691228D01*
X12344684Y-61686351D01*
X12358725Y-61682834D01*
X12373043Y-61680710D01*
X12387501Y-61680000D01*
X12682501Y-61680000D01*
X12696959Y-61680710D01*
G37*
G04 #@! TD.AperFunction*
G04 #@! TA.AperFunction,SMDPad,CuDef*
G36*
X11726959Y-61680710D02*
G01*
X11741277Y-61682834D01*
X11755318Y-61686351D01*
X11768947Y-61691228D01*
X11782032Y-61697417D01*
X11794448Y-61704858D01*
X11806074Y-61713481D01*
X11816799Y-61723202D01*
X11826520Y-61733927D01*
X11835143Y-61745553D01*
X11842584Y-61757969D01*
X11848773Y-61771054D01*
X11853650Y-61784683D01*
X11857167Y-61798724D01*
X11859291Y-61813042D01*
X11860001Y-61827500D01*
X11860001Y-62172500D01*
X11859291Y-62186958D01*
X11857167Y-62201276D01*
X11853650Y-62215317D01*
X11848773Y-62228946D01*
X11842584Y-62242031D01*
X11835143Y-62254447D01*
X11826520Y-62266073D01*
X11816799Y-62276798D01*
X11806074Y-62286519D01*
X11794448Y-62295142D01*
X11782032Y-62302583D01*
X11768947Y-62308772D01*
X11755318Y-62313649D01*
X11741277Y-62317166D01*
X11726959Y-62319290D01*
X11712501Y-62320000D01*
X11417501Y-62320000D01*
X11403043Y-62319290D01*
X11388725Y-62317166D01*
X11374684Y-62313649D01*
X11361055Y-62308772D01*
X11347970Y-62302583D01*
X11335554Y-62295142D01*
X11323928Y-62286519D01*
X11313203Y-62276798D01*
X11303482Y-62266073D01*
X11294859Y-62254447D01*
X11287418Y-62242031D01*
X11281229Y-62228946D01*
X11276352Y-62215317D01*
X11272835Y-62201276D01*
X11270711Y-62186958D01*
X11270001Y-62172500D01*
X11270001Y-61827500D01*
X11270711Y-61813042D01*
X11272835Y-61798724D01*
X11276352Y-61784683D01*
X11281229Y-61771054D01*
X11287418Y-61757969D01*
X11294859Y-61745553D01*
X11303482Y-61733927D01*
X11313203Y-61723202D01*
X11323928Y-61713481D01*
X11335554Y-61704858D01*
X11347970Y-61697417D01*
X11361055Y-61691228D01*
X11374684Y-61686351D01*
X11388725Y-61682834D01*
X11403043Y-61680710D01*
X11417501Y-61680000D01*
X11712501Y-61680000D01*
X11726959Y-61680710D01*
G37*
G04 #@! TD.AperFunction*
G04 #@! TA.AperFunction,SMDPad,CuDef*
G36*
X9336957Y-8840710D02*
G01*
X9351275Y-8842834D01*
X9365316Y-8846351D01*
X9378945Y-8851228D01*
X9392030Y-8857417D01*
X9404446Y-8864858D01*
X9416072Y-8873481D01*
X9426797Y-8883202D01*
X9436518Y-8893927D01*
X9445141Y-8905553D01*
X9452582Y-8917969D01*
X9458771Y-8931054D01*
X9463648Y-8944683D01*
X9467165Y-8958724D01*
X9469289Y-8973042D01*
X9469999Y-8987500D01*
X9469999Y-9282500D01*
X9469289Y-9296958D01*
X9467165Y-9311276D01*
X9463648Y-9325317D01*
X9458771Y-9338946D01*
X9452582Y-9352031D01*
X9445141Y-9364447D01*
X9436518Y-9376073D01*
X9426797Y-9386798D01*
X9416072Y-9396519D01*
X9404446Y-9405142D01*
X9392030Y-9412583D01*
X9378945Y-9418772D01*
X9365316Y-9423649D01*
X9351275Y-9427166D01*
X9336957Y-9429290D01*
X9322499Y-9430000D01*
X8977499Y-9430000D01*
X8963041Y-9429290D01*
X8948723Y-9427166D01*
X8934682Y-9423649D01*
X8921053Y-9418772D01*
X8907968Y-9412583D01*
X8895552Y-9405142D01*
X8883926Y-9396519D01*
X8873201Y-9386798D01*
X8863480Y-9376073D01*
X8854857Y-9364447D01*
X8847416Y-9352031D01*
X8841227Y-9338946D01*
X8836350Y-9325317D01*
X8832833Y-9311276D01*
X8830709Y-9296958D01*
X8829999Y-9282500D01*
X8829999Y-8987500D01*
X8830709Y-8973042D01*
X8832833Y-8958724D01*
X8836350Y-8944683D01*
X8841227Y-8931054D01*
X8847416Y-8917969D01*
X8854857Y-8905553D01*
X8863480Y-8893927D01*
X8873201Y-8883202D01*
X8883926Y-8873481D01*
X8895552Y-8864858D01*
X8907968Y-8857417D01*
X8921053Y-8851228D01*
X8934682Y-8846351D01*
X8948723Y-8842834D01*
X8963041Y-8840710D01*
X8977499Y-8840000D01*
X9322499Y-8840000D01*
X9336957Y-8840710D01*
G37*
G04 #@! TD.AperFunction*
G04 #@! TA.AperFunction,SMDPad,CuDef*
G36*
X9336957Y-7870710D02*
G01*
X9351275Y-7872834D01*
X9365316Y-7876351D01*
X9378945Y-7881228D01*
X9392030Y-7887417D01*
X9404446Y-7894858D01*
X9416072Y-7903481D01*
X9426797Y-7913202D01*
X9436518Y-7923927D01*
X9445141Y-7935553D01*
X9452582Y-7947969D01*
X9458771Y-7961054D01*
X9463648Y-7974683D01*
X9467165Y-7988724D01*
X9469289Y-8003042D01*
X9469999Y-8017500D01*
X9469999Y-8312500D01*
X9469289Y-8326958D01*
X9467165Y-8341276D01*
X9463648Y-8355317D01*
X9458771Y-8368946D01*
X9452582Y-8382031D01*
X9445141Y-8394447D01*
X9436518Y-8406073D01*
X9426797Y-8416798D01*
X9416072Y-8426519D01*
X9404446Y-8435142D01*
X9392030Y-8442583D01*
X9378945Y-8448772D01*
X9365316Y-8453649D01*
X9351275Y-8457166D01*
X9336957Y-8459290D01*
X9322499Y-8460000D01*
X8977499Y-8460000D01*
X8963041Y-8459290D01*
X8948723Y-8457166D01*
X8934682Y-8453649D01*
X8921053Y-8448772D01*
X8907968Y-8442583D01*
X8895552Y-8435142D01*
X8883926Y-8426519D01*
X8873201Y-8416798D01*
X8863480Y-8406073D01*
X8854857Y-8394447D01*
X8847416Y-8382031D01*
X8841227Y-8368946D01*
X8836350Y-8355317D01*
X8832833Y-8341276D01*
X8830709Y-8326958D01*
X8829999Y-8312500D01*
X8829999Y-8017500D01*
X8830709Y-8003042D01*
X8832833Y-7988724D01*
X8836350Y-7974683D01*
X8841227Y-7961054D01*
X8847416Y-7947969D01*
X8854857Y-7935553D01*
X8863480Y-7923927D01*
X8873201Y-7913202D01*
X8883926Y-7903481D01*
X8895552Y-7894858D01*
X8907968Y-7887417D01*
X8921053Y-7881228D01*
X8934682Y-7876351D01*
X8948723Y-7872834D01*
X8963041Y-7870710D01*
X8977499Y-7870000D01*
X9322499Y-7870000D01*
X9336957Y-7870710D01*
G37*
G04 #@! TD.AperFunction*
G04 #@! TA.AperFunction,SMDPad,CuDef*
G36*
X12446958Y-2430710D02*
G01*
X12461276Y-2432834D01*
X12475317Y-2436351D01*
X12488946Y-2441228D01*
X12502031Y-2447417D01*
X12514447Y-2454858D01*
X12526073Y-2463481D01*
X12536798Y-2473202D01*
X12546519Y-2483927D01*
X12555142Y-2495553D01*
X12562583Y-2507969D01*
X12568772Y-2521054D01*
X12573649Y-2534683D01*
X12577166Y-2548724D01*
X12579290Y-2563042D01*
X12580000Y-2577500D01*
X12580000Y-2922500D01*
X12579290Y-2936958D01*
X12577166Y-2951276D01*
X12573649Y-2965317D01*
X12568772Y-2978946D01*
X12562583Y-2992031D01*
X12555142Y-3004447D01*
X12546519Y-3016073D01*
X12536798Y-3026798D01*
X12526073Y-3036519D01*
X12514447Y-3045142D01*
X12502031Y-3052583D01*
X12488946Y-3058772D01*
X12475317Y-3063649D01*
X12461276Y-3067166D01*
X12446958Y-3069290D01*
X12432500Y-3070000D01*
X12137500Y-3070000D01*
X12123042Y-3069290D01*
X12108724Y-3067166D01*
X12094683Y-3063649D01*
X12081054Y-3058772D01*
X12067969Y-3052583D01*
X12055553Y-3045142D01*
X12043927Y-3036519D01*
X12033202Y-3026798D01*
X12023481Y-3016073D01*
X12014858Y-3004447D01*
X12007417Y-2992031D01*
X12001228Y-2978946D01*
X11996351Y-2965317D01*
X11992834Y-2951276D01*
X11990710Y-2936958D01*
X11990000Y-2922500D01*
X11990000Y-2577500D01*
X11990710Y-2563042D01*
X11992834Y-2548724D01*
X11996351Y-2534683D01*
X12001228Y-2521054D01*
X12007417Y-2507969D01*
X12014858Y-2495553D01*
X12023481Y-2483927D01*
X12033202Y-2473202D01*
X12043927Y-2463481D01*
X12055553Y-2454858D01*
X12067969Y-2447417D01*
X12081054Y-2441228D01*
X12094683Y-2436351D01*
X12108724Y-2432834D01*
X12123042Y-2430710D01*
X12137500Y-2430000D01*
X12432500Y-2430000D01*
X12446958Y-2430710D01*
G37*
G04 #@! TD.AperFunction*
G04 #@! TA.AperFunction,SMDPad,CuDef*
G36*
X11476958Y-2430710D02*
G01*
X11491276Y-2432834D01*
X11505317Y-2436351D01*
X11518946Y-2441228D01*
X11532031Y-2447417D01*
X11544447Y-2454858D01*
X11556073Y-2463481D01*
X11566798Y-2473202D01*
X11576519Y-2483927D01*
X11585142Y-2495553D01*
X11592583Y-2507969D01*
X11598772Y-2521054D01*
X11603649Y-2534683D01*
X11607166Y-2548724D01*
X11609290Y-2563042D01*
X11610000Y-2577500D01*
X11610000Y-2922500D01*
X11609290Y-2936958D01*
X11607166Y-2951276D01*
X11603649Y-2965317D01*
X11598772Y-2978946D01*
X11592583Y-2992031D01*
X11585142Y-3004447D01*
X11576519Y-3016073D01*
X11566798Y-3026798D01*
X11556073Y-3036519D01*
X11544447Y-3045142D01*
X11532031Y-3052583D01*
X11518946Y-3058772D01*
X11505317Y-3063649D01*
X11491276Y-3067166D01*
X11476958Y-3069290D01*
X11462500Y-3070000D01*
X11167500Y-3070000D01*
X11153042Y-3069290D01*
X11138724Y-3067166D01*
X11124683Y-3063649D01*
X11111054Y-3058772D01*
X11097969Y-3052583D01*
X11085553Y-3045142D01*
X11073927Y-3036519D01*
X11063202Y-3026798D01*
X11053481Y-3016073D01*
X11044858Y-3004447D01*
X11037417Y-2992031D01*
X11031228Y-2978946D01*
X11026351Y-2965317D01*
X11022834Y-2951276D01*
X11020710Y-2936958D01*
X11020000Y-2922500D01*
X11020000Y-2577500D01*
X11020710Y-2563042D01*
X11022834Y-2548724D01*
X11026351Y-2534683D01*
X11031228Y-2521054D01*
X11037417Y-2507969D01*
X11044858Y-2495553D01*
X11053481Y-2483927D01*
X11063202Y-2473202D01*
X11073927Y-2463481D01*
X11085553Y-2454858D01*
X11097969Y-2447417D01*
X11111054Y-2441228D01*
X11124683Y-2436351D01*
X11138724Y-2432834D01*
X11153042Y-2430710D01*
X11167500Y-2430000D01*
X11462500Y-2430000D01*
X11476958Y-2430710D01*
G37*
G04 #@! TD.AperFunction*
G04 #@! TA.AperFunction,SMDPad,CuDef*
G36*
X13476958Y-64730710D02*
G01*
X13491276Y-64732834D01*
X13505317Y-64736351D01*
X13518946Y-64741228D01*
X13532031Y-64747417D01*
X13544447Y-64754858D01*
X13556073Y-64763481D01*
X13566798Y-64773202D01*
X13576519Y-64783927D01*
X13585142Y-64795553D01*
X13592583Y-64807969D01*
X13598772Y-64821054D01*
X13603649Y-64834683D01*
X13607166Y-64848724D01*
X13609290Y-64863042D01*
X13610000Y-64877500D01*
X13610000Y-65222500D01*
X13609290Y-65236958D01*
X13607166Y-65251276D01*
X13603649Y-65265317D01*
X13598772Y-65278946D01*
X13592583Y-65292031D01*
X13585142Y-65304447D01*
X13576519Y-65316073D01*
X13566798Y-65326798D01*
X13556073Y-65336519D01*
X13544447Y-65345142D01*
X13532031Y-65352583D01*
X13518946Y-65358772D01*
X13505317Y-65363649D01*
X13491276Y-65367166D01*
X13476958Y-65369290D01*
X13462500Y-65370000D01*
X13167500Y-65370000D01*
X13153042Y-65369290D01*
X13138724Y-65367166D01*
X13124683Y-65363649D01*
X13111054Y-65358772D01*
X13097969Y-65352583D01*
X13085553Y-65345142D01*
X13073927Y-65336519D01*
X13063202Y-65326798D01*
X13053481Y-65316073D01*
X13044858Y-65304447D01*
X13037417Y-65292031D01*
X13031228Y-65278946D01*
X13026351Y-65265317D01*
X13022834Y-65251276D01*
X13020710Y-65236958D01*
X13020000Y-65222500D01*
X13020000Y-64877500D01*
X13020710Y-64863042D01*
X13022834Y-64848724D01*
X13026351Y-64834683D01*
X13031228Y-64821054D01*
X13037417Y-64807969D01*
X13044858Y-64795553D01*
X13053481Y-64783927D01*
X13063202Y-64773202D01*
X13073927Y-64763481D01*
X13085553Y-64754858D01*
X13097969Y-64747417D01*
X13111054Y-64741228D01*
X13124683Y-64736351D01*
X13138724Y-64732834D01*
X13153042Y-64730710D01*
X13167500Y-64730000D01*
X13462500Y-64730000D01*
X13476958Y-64730710D01*
G37*
G04 #@! TD.AperFunction*
G04 #@! TA.AperFunction,SMDPad,CuDef*
G36*
X14446958Y-64730710D02*
G01*
X14461276Y-64732834D01*
X14475317Y-64736351D01*
X14488946Y-64741228D01*
X14502031Y-64747417D01*
X14514447Y-64754858D01*
X14526073Y-64763481D01*
X14536798Y-64773202D01*
X14546519Y-64783927D01*
X14555142Y-64795553D01*
X14562583Y-64807969D01*
X14568772Y-64821054D01*
X14573649Y-64834683D01*
X14577166Y-64848724D01*
X14579290Y-64863042D01*
X14580000Y-64877500D01*
X14580000Y-65222500D01*
X14579290Y-65236958D01*
X14577166Y-65251276D01*
X14573649Y-65265317D01*
X14568772Y-65278946D01*
X14562583Y-65292031D01*
X14555142Y-65304447D01*
X14546519Y-65316073D01*
X14536798Y-65326798D01*
X14526073Y-65336519D01*
X14514447Y-65345142D01*
X14502031Y-65352583D01*
X14488946Y-65358772D01*
X14475317Y-65363649D01*
X14461276Y-65367166D01*
X14446958Y-65369290D01*
X14432500Y-65370000D01*
X14137500Y-65370000D01*
X14123042Y-65369290D01*
X14108724Y-65367166D01*
X14094683Y-65363649D01*
X14081054Y-65358772D01*
X14067969Y-65352583D01*
X14055553Y-65345142D01*
X14043927Y-65336519D01*
X14033202Y-65326798D01*
X14023481Y-65316073D01*
X14014858Y-65304447D01*
X14007417Y-65292031D01*
X14001228Y-65278946D01*
X13996351Y-65265317D01*
X13992834Y-65251276D01*
X13990710Y-65236958D01*
X13990000Y-65222500D01*
X13990000Y-64877500D01*
X13990710Y-64863042D01*
X13992834Y-64848724D01*
X13996351Y-64834683D01*
X14001228Y-64821054D01*
X14007417Y-64807969D01*
X14014858Y-64795553D01*
X14023481Y-64783927D01*
X14033202Y-64773202D01*
X14043927Y-64763481D01*
X14055553Y-64754858D01*
X14067969Y-64747417D01*
X14081054Y-64741228D01*
X14094683Y-64736351D01*
X14108724Y-64732834D01*
X14123042Y-64730710D01*
X14137500Y-64730000D01*
X14432500Y-64730000D01*
X14446958Y-64730710D01*
G37*
G04 #@! TD.AperFunction*
D17*
X11550000Y-67800000D03*
X10600000Y-65800000D03*
X12500000Y-65800000D03*
G04 #@! TA.AperFunction,SMDPad,CuDef*
D16*
G36*
X24415191Y-73276053D02*
G01*
X24436426Y-73279203D01*
X24457250Y-73284419D01*
X24477462Y-73291651D01*
X24496868Y-73300830D01*
X24515281Y-73311866D01*
X24532524Y-73324654D01*
X24548430Y-73339070D01*
X24562846Y-73354976D01*
X24575634Y-73372219D01*
X24586670Y-73390632D01*
X24595849Y-73410038D01*
X24603081Y-73430250D01*
X24608297Y-73451074D01*
X24611447Y-73472309D01*
X24612500Y-73493750D01*
X24612500Y-74006250D01*
X24611447Y-74027691D01*
X24608297Y-74048926D01*
X24603081Y-74069750D01*
X24595849Y-74089962D01*
X24586670Y-74109368D01*
X24575634Y-74127781D01*
X24562846Y-74145024D01*
X24548430Y-74160930D01*
X24532524Y-74175346D01*
X24515281Y-74188134D01*
X24496868Y-74199170D01*
X24477462Y-74208349D01*
X24457250Y-74215581D01*
X24436426Y-74220797D01*
X24415191Y-74223947D01*
X24393750Y-74225000D01*
X23956250Y-74225000D01*
X23934809Y-74223947D01*
X23913574Y-74220797D01*
X23892750Y-74215581D01*
X23872538Y-74208349D01*
X23853132Y-74199170D01*
X23834719Y-74188134D01*
X23817476Y-74175346D01*
X23801570Y-74160930D01*
X23787154Y-74145024D01*
X23774366Y-74127781D01*
X23763330Y-74109368D01*
X23754151Y-74089962D01*
X23746919Y-74069750D01*
X23741703Y-74048926D01*
X23738553Y-74027691D01*
X23737500Y-74006250D01*
X23737500Y-73493750D01*
X23738553Y-73472309D01*
X23741703Y-73451074D01*
X23746919Y-73430250D01*
X23754151Y-73410038D01*
X23763330Y-73390632D01*
X23774366Y-73372219D01*
X23787154Y-73354976D01*
X23801570Y-73339070D01*
X23817476Y-73324654D01*
X23834719Y-73311866D01*
X23853132Y-73300830D01*
X23872538Y-73291651D01*
X23892750Y-73284419D01*
X23913574Y-73279203D01*
X23934809Y-73276053D01*
X23956250Y-73275000D01*
X24393750Y-73275000D01*
X24415191Y-73276053D01*
G37*
G04 #@! TD.AperFunction*
G04 #@! TA.AperFunction,SMDPad,CuDef*
G36*
X25990191Y-73276053D02*
G01*
X26011426Y-73279203D01*
X26032250Y-73284419D01*
X26052462Y-73291651D01*
X26071868Y-73300830D01*
X26090281Y-73311866D01*
X26107524Y-73324654D01*
X26123430Y-73339070D01*
X26137846Y-73354976D01*
X26150634Y-73372219D01*
X26161670Y-73390632D01*
X26170849Y-73410038D01*
X26178081Y-73430250D01*
X26183297Y-73451074D01*
X26186447Y-73472309D01*
X26187500Y-73493750D01*
X26187500Y-74006250D01*
X26186447Y-74027691D01*
X26183297Y-74048926D01*
X26178081Y-74069750D01*
X26170849Y-74089962D01*
X26161670Y-74109368D01*
X26150634Y-74127781D01*
X26137846Y-74145024D01*
X26123430Y-74160930D01*
X26107524Y-74175346D01*
X26090281Y-74188134D01*
X26071868Y-74199170D01*
X26052462Y-74208349D01*
X26032250Y-74215581D01*
X26011426Y-74220797D01*
X25990191Y-74223947D01*
X25968750Y-74225000D01*
X25531250Y-74225000D01*
X25509809Y-74223947D01*
X25488574Y-74220797D01*
X25467750Y-74215581D01*
X25447538Y-74208349D01*
X25428132Y-74199170D01*
X25409719Y-74188134D01*
X25392476Y-74175346D01*
X25376570Y-74160930D01*
X25362154Y-74145024D01*
X25349366Y-74127781D01*
X25338330Y-74109368D01*
X25329151Y-74089962D01*
X25321919Y-74069750D01*
X25316703Y-74048926D01*
X25313553Y-74027691D01*
X25312500Y-74006250D01*
X25312500Y-73493750D01*
X25313553Y-73472309D01*
X25316703Y-73451074D01*
X25321919Y-73430250D01*
X25329151Y-73410038D01*
X25338330Y-73390632D01*
X25349366Y-73372219D01*
X25362154Y-73354976D01*
X25376570Y-73339070D01*
X25392476Y-73324654D01*
X25409719Y-73311866D01*
X25428132Y-73300830D01*
X25447538Y-73291651D01*
X25467750Y-73284419D01*
X25488574Y-73279203D01*
X25509809Y-73276053D01*
X25531250Y-73275000D01*
X25968750Y-73275000D01*
X25990191Y-73276053D01*
G37*
G04 #@! TD.AperFunction*
D18*
X10550000Y-64050000D03*
X12550000Y-63100000D03*
X12550000Y-65000000D03*
D17*
X11400000Y-9150000D03*
X10450000Y-7150000D03*
X12350000Y-7150000D03*
D18*
X10300000Y-4850000D03*
X12300000Y-3900000D03*
X12300000Y-5800000D03*
D19*
X19000000Y-35000000D03*
D20*
X24000000Y-5500000D02*
X24000000Y-58500000D01*
D21*
X29000000Y-55000000D02*
X29000000Y-46000000D01*
X8150000Y-66720880D02*
X7450420Y-66720880D01*
X4000000Y-70171300D02*
X4000000Y-71000000D01*
D22*
X15000001Y-68750000D02*
X15000000Y-75600840D01*
D23*
X25750000Y-73750000D02*
X27056760Y-73750000D01*
X25750000Y-73750000D02*
X30250000Y-73750000D01*
D24*
X22500000Y-73750000D02*
X24175000Y-73750000D01*
D21*
X12200000Y-4000000D02*
X12300000Y-3900000D01*
X7850000Y-3900000D02*
X7750000Y-4000000D01*
D23*
X12300000Y-3900000D02*
X7850000Y-3900000D01*
X12300000Y-2765000D02*
X12285000Y-2750000D01*
X12300000Y-3900000D02*
X12300000Y-2765000D01*
X12229120Y-2694120D02*
X12285000Y-2750000D01*
X12229120Y-1500000D02*
X12229120Y-2694120D01*
D21*
X6691760Y-9058240D02*
X6500000Y-9249999D01*
D24*
X8150000Y-9058240D02*
X6691760Y-9058240D01*
D23*
X9164999Y-9150000D02*
X9149999Y-9135000D01*
X11400000Y-9150000D02*
X9164999Y-9150000D01*
X8226760Y-9135000D02*
X8150000Y-9058240D01*
X9149999Y-9135000D02*
X8226760Y-9135000D01*
D21*
X8900000Y-63100000D02*
X8500000Y-63500000D01*
D23*
X12550000Y-63100001D02*
X8900000Y-63100000D01*
X12550000Y-62015000D02*
X12535000Y-62000001D01*
X12550000Y-63100001D02*
X12550000Y-62015000D01*
X12535000Y-60844120D02*
X12629120Y-60750000D01*
X12535000Y-62000001D02*
X12535000Y-60844120D01*
X8750000Y-68479120D02*
X8150000Y-67879120D01*
X8750000Y-69000000D02*
X8750000Y-68479120D01*
X9305880Y-67879120D02*
X9400000Y-67785000D01*
X8150000Y-67879120D02*
X9305880Y-67879120D01*
X9415000Y-67800000D02*
X9400000Y-67785000D01*
X11550000Y-67800000D02*
X9415000Y-67800000D01*
D20*
X15000000Y-65000000D02*
X15000000Y0D01*
D21*
X12350000Y-6014214D02*
X12607107Y-5757107D01*
D24*
X12350000Y-6800000D02*
X12350000Y-6014214D01*
D23*
X13115000Y-6800000D02*
X12350000Y-6800000D01*
D20*
X21000000Y-63250000D02*
X24603900Y-66853900D01*
X24603900Y-66853900D02*
X24778380Y-66853900D01*
X21000000Y-5250000D02*
X21000000Y-63250000D01*
D25*
G36*
X9242560Y-540730D02*
G01*
X9221757Y-751950D01*
X9009689Y-687620D01*
X8500000Y-637420D01*
X7000000Y-637420D01*
X6490311Y-687620D01*
X6000209Y-836291D01*
X5548528Y-1077719D01*
X5152627Y-1402627D01*
X4827719Y-1798528D01*
X4586291Y-2250209D01*
X4437620Y-2740311D01*
X4387420Y-3250000D01*
X4387420Y-4750000D01*
X4437620Y-5259689D01*
X4440245Y-5268342D01*
X4048528Y-5477719D01*
X3652627Y-5802627D01*
X3327719Y-6198528D01*
X3086291Y-6650209D01*
X2937620Y-7140311D01*
X2887420Y-7650000D01*
X2887420Y-9150000D01*
X2937620Y-9659689D01*
X3086291Y-10149791D01*
X3327719Y-10601472D01*
X3652627Y-10997373D01*
X4048528Y-11322281D01*
X4500209Y-11563709D01*
X4990311Y-11712380D01*
X5101615Y-11723343D01*
X5499701Y-11936124D01*
X6084054Y-12113385D01*
X6539473Y-12158240D01*
X8302287Y-12158240D01*
X8757706Y-12113385D01*
X8923478Y-12063099D01*
X9109269Y-12044800D01*
X9116587Y-12042580D01*
X9322499Y-12042580D01*
X9860964Y-11989546D01*
X9920956Y-11971348D01*
X10000209Y-12013709D01*
X10490311Y-12162380D01*
X10900000Y-12202731D01*
X10900000Y-57999999D01*
X10901921Y-58019508D01*
X10907612Y-58038267D01*
X10910722Y-58044085D01*
X10753468Y-58128139D01*
X10357567Y-58453047D01*
X10032659Y-58848948D01*
X9791231Y-59300629D01*
X9642560Y-59790731D01*
X9604971Y-60172382D01*
X9250000Y-60137420D01*
X7750000Y-60137420D01*
X7240311Y-60187620D01*
X6750209Y-60336291D01*
X6298528Y-60577719D01*
X5902627Y-60902627D01*
X5577719Y-61298528D01*
X5336291Y-61750209D01*
X5187620Y-62240311D01*
X5137420Y-62750000D01*
X5137420Y-64250000D01*
X5187620Y-64759689D01*
X5336291Y-65249791D01*
X5577719Y-65701472D01*
X5676850Y-65822263D01*
X5528139Y-66003468D01*
X5286711Y-66455149D01*
X5138040Y-66945251D01*
X5087840Y-67454940D01*
X5087840Y-68303300D01*
X5138040Y-68812989D01*
X5286711Y-69303091D01*
X5387420Y-69491505D01*
X5387420Y-69750000D01*
X5437620Y-70259689D01*
X5586291Y-70749791D01*
X5827719Y-71201472D01*
X6152627Y-71597373D01*
X6548528Y-71922281D01*
X7000209Y-72163709D01*
X7490311Y-72312380D01*
X8000000Y-72362580D01*
X9500000Y-72362580D01*
X10009689Y-72312380D01*
X10499791Y-72163709D01*
X10951472Y-71922281D01*
X11347373Y-71597373D01*
X11672281Y-71201472D01*
X11853422Y-70862580D01*
X11950000Y-70862580D01*
X12459689Y-70812380D01*
X12949791Y-70663709D01*
X13401472Y-70422281D01*
X13797373Y-70097373D01*
X14122281Y-69701472D01*
X14363709Y-69249791D01*
X14481284Y-68862200D01*
X15599440Y-68862200D01*
X16109129Y-68812000D01*
X16599231Y-68663329D01*
X17050912Y-68421901D01*
X17446813Y-68096993D01*
X17771721Y-67701092D01*
X18013149Y-67249411D01*
X18161820Y-66759309D01*
X18212020Y-66249620D01*
X18212020Y-65951784D01*
X18301528Y-65656715D01*
X18337950Y-65286917D01*
X18619732Y-65630269D01*
X18747564Y-65735178D01*
X19752800Y-66740414D01*
X19752800Y-69711400D01*
X19803000Y-70221089D01*
X19857249Y-70399924D01*
X19853797Y-70402757D01*
X19528889Y-70798658D01*
X19287461Y-71250339D01*
X19138790Y-71740441D01*
X19088590Y-72250130D01*
X19088590Y-75249870D01*
X19138790Y-75759559D01*
X19287461Y-76249661D01*
X19528889Y-76701342D01*
X19853797Y-77097243D01*
X20249698Y-77422151D01*
X20701379Y-77663579D01*
X21191481Y-77812250D01*
X21701170Y-77862450D01*
X23298830Y-77862450D01*
X23808519Y-77812250D01*
X24298621Y-77663579D01*
X24750302Y-77422151D01*
X25146203Y-77097243D01*
X25471111Y-76701342D01*
X25527983Y-76594942D01*
X25966753Y-76360415D01*
X26395803Y-76008303D01*
X26747915Y-75579253D01*
X27009558Y-75089753D01*
X27170677Y-74558615D01*
X27171387Y-74551406D01*
X27230145Y-74357706D01*
X27289999Y-73750000D01*
X27230145Y-73142294D01*
X27171387Y-72948594D01*
X27170677Y-72941385D01*
X27009558Y-72410247D01*
X26963447Y-72323980D01*
X27191380Y-72323980D01*
X27701069Y-72273780D01*
X28191171Y-72125109D01*
X28642852Y-71883681D01*
X29038753Y-71558773D01*
X29363661Y-71162872D01*
X29605089Y-70711191D01*
X29753760Y-70221089D01*
X29803960Y-69711400D01*
X29803960Y-63996400D01*
X29753760Y-63486711D01*
X29605089Y-62996609D01*
X29363661Y-62544928D01*
X29038753Y-62149027D01*
X28642852Y-61824119D01*
X28191171Y-61582691D01*
X27701069Y-61434020D01*
X27191380Y-61383820D01*
X25711292Y-61383820D01*
X25870166Y-61298900D01*
X26380269Y-60880269D01*
X26798900Y-60370166D01*
X27109972Y-59788192D01*
X27301528Y-59156715D01*
X27350000Y-58664572D01*
X27350000Y-5335428D01*
X27301528Y-4843285D01*
X27109972Y-4211808D01*
X26798900Y-3629834D01*
X26380269Y-3119731D01*
X25870165Y-2701100D01*
X25288191Y-2390028D01*
X24656714Y-2198472D01*
X24000000Y-2133791D01*
X23343285Y-2198472D01*
X22739941Y-2381494D01*
X22288191Y-2140028D01*
X21656714Y-1948472D01*
X21000000Y-1883791D01*
X20343285Y-1948472D01*
X19711808Y-2140028D01*
X19129834Y-2451100D01*
X18619731Y-2869731D01*
X18350000Y-3198400D01*
X18350000Y-100000D01*
X32900000Y-100000D01*
X32900000Y-79400000D01*
X100000Y-79400000D01*
X100000Y-100000D01*
X9376254Y-100000D01*
X9242560Y-540730D01*
G37*
X9242560Y-540730D02*
X9221757Y-751950D01*
X9009689Y-687620D01*
X8500000Y-637420D01*
X7000000Y-637420D01*
X6490311Y-687620D01*
X6000209Y-836291D01*
X5548528Y-1077719D01*
X5152627Y-1402627D01*
X4827719Y-1798528D01*
X4586291Y-2250209D01*
X4437620Y-2740311D01*
X4387420Y-3250000D01*
X4387420Y-4750000D01*
X4437620Y-5259689D01*
X4440245Y-5268342D01*
X4048528Y-5477719D01*
X3652627Y-5802627D01*
X3327719Y-6198528D01*
X3086291Y-6650209D01*
X2937620Y-7140311D01*
X2887420Y-7650000D01*
X2887420Y-9150000D01*
X2937620Y-9659689D01*
X3086291Y-10149791D01*
X3327719Y-10601472D01*
X3652627Y-10997373D01*
X4048528Y-11322281D01*
X4500209Y-11563709D01*
X4990311Y-11712380D01*
X5101615Y-11723343D01*
X5499701Y-11936124D01*
X6084054Y-12113385D01*
X6539473Y-12158240D01*
X8302287Y-12158240D01*
X8757706Y-12113385D01*
X8923478Y-12063099D01*
X9109269Y-12044800D01*
X9116587Y-12042580D01*
X9322499Y-12042580D01*
X9860964Y-11989546D01*
X9920956Y-11971348D01*
X10000209Y-12013709D01*
X10490311Y-12162380D01*
X10900000Y-12202731D01*
X10900000Y-57999999D01*
X10901921Y-58019508D01*
X10907612Y-58038267D01*
X10910722Y-58044085D01*
X10753468Y-58128139D01*
X10357567Y-58453047D01*
X10032659Y-58848948D01*
X9791231Y-59300629D01*
X9642560Y-59790731D01*
X9604971Y-60172382D01*
X9250000Y-60137420D01*
X7750000Y-60137420D01*
X7240311Y-60187620D01*
X6750209Y-60336291D01*
X6298528Y-60577719D01*
X5902627Y-60902627D01*
X5577719Y-61298528D01*
X5336291Y-61750209D01*
X5187620Y-62240311D01*
X5137420Y-62750000D01*
X5137420Y-64250000D01*
X5187620Y-64759689D01*
X5336291Y-65249791D01*
X5577719Y-65701472D01*
X5676850Y-65822263D01*
X5528139Y-66003468D01*
X5286711Y-66455149D01*
X5138040Y-66945251D01*
X5087840Y-67454940D01*
X5087840Y-68303300D01*
X5138040Y-68812989D01*
X5286711Y-69303091D01*
X5387420Y-69491505D01*
X5387420Y-69750000D01*
X5437620Y-70259689D01*
X5586291Y-70749791D01*
X5827719Y-71201472D01*
X6152627Y-71597373D01*
X6548528Y-71922281D01*
X7000209Y-72163709D01*
X7490311Y-72312380D01*
X8000000Y-72362580D01*
X9500000Y-72362580D01*
X10009689Y-72312380D01*
X10499791Y-72163709D01*
X10951472Y-71922281D01*
X11347373Y-71597373D01*
X11672281Y-71201472D01*
X11853422Y-70862580D01*
X11950000Y-70862580D01*
X12459689Y-70812380D01*
X12949791Y-70663709D01*
X13401472Y-70422281D01*
X13797373Y-70097373D01*
X14122281Y-69701472D01*
X14363709Y-69249791D01*
X14481284Y-68862200D01*
X15599440Y-68862200D01*
X16109129Y-68812000D01*
X16599231Y-68663329D01*
X17050912Y-68421901D01*
X17446813Y-68096993D01*
X17771721Y-67701092D01*
X18013149Y-67249411D01*
X18161820Y-66759309D01*
X18212020Y-66249620D01*
X18212020Y-65951784D01*
X18301528Y-65656715D01*
X18337950Y-65286917D01*
X18619732Y-65630269D01*
X18747564Y-65735178D01*
X19752800Y-66740414D01*
X19752800Y-69711400D01*
X19803000Y-70221089D01*
X19857249Y-70399924D01*
X19853797Y-70402757D01*
X19528889Y-70798658D01*
X19287461Y-71250339D01*
X19138790Y-71740441D01*
X19088590Y-72250130D01*
X19088590Y-75249870D01*
X19138790Y-75759559D01*
X19287461Y-76249661D01*
X19528889Y-76701342D01*
X19853797Y-77097243D01*
X20249698Y-77422151D01*
X20701379Y-77663579D01*
X21191481Y-77812250D01*
X21701170Y-77862450D01*
X23298830Y-77862450D01*
X23808519Y-77812250D01*
X24298621Y-77663579D01*
X24750302Y-77422151D01*
X25146203Y-77097243D01*
X25471111Y-76701342D01*
X25527983Y-76594942D01*
X25966753Y-76360415D01*
X26395803Y-76008303D01*
X26747915Y-75579253D01*
X27009558Y-75089753D01*
X27170677Y-74558615D01*
X27171387Y-74551406D01*
X27230145Y-74357706D01*
X27289999Y-73750000D01*
X27230145Y-73142294D01*
X27171387Y-72948594D01*
X27170677Y-72941385D01*
X27009558Y-72410247D01*
X26963447Y-72323980D01*
X27191380Y-72323980D01*
X27701069Y-72273780D01*
X28191171Y-72125109D01*
X28642852Y-71883681D01*
X29038753Y-71558773D01*
X29363661Y-71162872D01*
X29605089Y-70711191D01*
X29753760Y-70221089D01*
X29803960Y-69711400D01*
X29803960Y-63996400D01*
X29753760Y-63486711D01*
X29605089Y-62996609D01*
X29363661Y-62544928D01*
X29038753Y-62149027D01*
X28642852Y-61824119D01*
X28191171Y-61582691D01*
X27701069Y-61434020D01*
X27191380Y-61383820D01*
X25711292Y-61383820D01*
X25870166Y-61298900D01*
X26380269Y-60880269D01*
X26798900Y-60370166D01*
X27109972Y-59788192D01*
X27301528Y-59156715D01*
X27350000Y-58664572D01*
X27350000Y-5335428D01*
X27301528Y-4843285D01*
X27109972Y-4211808D01*
X26798900Y-3629834D01*
X26380269Y-3119731D01*
X25870165Y-2701100D01*
X25288191Y-2390028D01*
X24656714Y-2198472D01*
X24000000Y-2133791D01*
X23343285Y-2198472D01*
X22739941Y-2381494D01*
X22288191Y-2140028D01*
X21656714Y-1948472D01*
X21000000Y-1883791D01*
X20343285Y-1948472D01*
X19711808Y-2140028D01*
X19129834Y-2451100D01*
X18619731Y-2869731D01*
X18350000Y-3198400D01*
X18350000Y-100000D01*
X32900000Y-100000D01*
X32900000Y-79400000D01*
X100000Y-79400000D01*
X100000Y-100000D01*
X9376254Y-100000D01*
X9242560Y-540730D01*
G36*
X9400000Y-65100000D02*
G01*
X9400000Y-66900000D01*
X4100000Y-66900000D01*
X4100000Y-65099999D01*
X9400000Y-65100000D01*
G37*
X9400000Y-65100000D02*
X9400000Y-66900000D01*
X4100000Y-66900000D01*
X4100000Y-65099999D01*
X9400000Y-65100000D01*
G36*
X11650001Y-61900000D02*
G01*
X10311804Y-61900001D01*
X10089443Y-61455279D01*
X10078999Y-61438689D01*
X10065520Y-61424455D01*
X10049523Y-61413124D01*
X10031623Y-61405132D01*
X10012507Y-61400785D01*
X10000000Y-61400000D01*
X4115301Y-61400000D01*
X4336730Y-59850000D01*
X11650000Y-59850000D01*
X11650001Y-61900000D01*
G37*
X11650001Y-61900000D02*
X10311804Y-61900001D01*
X10089443Y-61455279D01*
X10078999Y-61438689D01*
X10065520Y-61424455D01*
X10049523Y-61413124D01*
X10031623Y-61405132D01*
X10012507Y-61400785D01*
X10000000Y-61400000D01*
X4115301Y-61400000D01*
X4336730Y-59850000D01*
X11650000Y-59850000D01*
X11650001Y-61900000D01*
G36*
X9150000Y-5844123D02*
G01*
X9150000Y-8128020D01*
X8100000Y-7918020D01*
X8100000Y-7000000D01*
X8098079Y-6980491D01*
X8092388Y-6961732D01*
X8083147Y-6944443D01*
X8070711Y-6929289D01*
X8055557Y-6916853D01*
X8038268Y-6907612D01*
X8019509Y-6901921D01*
X8000000Y-6900000D01*
X865301Y-6900000D01*
X1085959Y-5355393D01*
X9150000Y-5844123D01*
G37*
X9150000Y-5844123D02*
X9150000Y-8128020D01*
X8100000Y-7918020D01*
X8100000Y-7000000D01*
X8098079Y-6980491D01*
X8092388Y-6961732D01*
X8083147Y-6944443D01*
X8070711Y-6929289D01*
X8055557Y-6916853D01*
X8038268Y-6907612D01*
X8019509Y-6901921D01*
X8000000Y-6900000D01*
X865301Y-6900000D01*
X1085959Y-5355393D01*
X9150000Y-5844123D01*
G36*
X11150000Y-2900000D02*
G01*
X9800000Y-2900000D01*
X9080000Y-1940000D01*
X9066757Y-1925546D01*
X9050949Y-1913953D01*
X9033183Y-1905666D01*
X9014142Y-1901005D01*
X9000000Y-1900000D01*
X3600000Y-1900000D01*
X3600000Y-100000D01*
X11150000Y-100000D01*
X11150000Y-2900000D01*
G37*
X11150000Y-2900000D02*
X9800000Y-2900000D01*
X9080000Y-1940000D01*
X9066757Y-1925546D01*
X9050949Y-1913953D01*
X9033183Y-1905666D01*
X9014142Y-1901005D01*
X9000000Y-1900000D01*
X3600000Y-1900000D01*
X3600000Y-100000D01*
X11150000Y-100000D01*
X11150000Y-2900000D01*
M02*
