<?xml version="1.0" encoding="utf-8" standalone="no"?>
<!DOCTYPE svg PUBLIC "-//W3C//DTD SVG 1.1//EN"
  "http://www.w3.org/Graphics/SVG/1.1/DTD/svg11.dtd">
<!-- Created with matplotlib (https://matplotlib.org/) -->
<svg height="345.6pt" version="1.1" viewBox="0 0 460.8 345.6" width="460.8pt" xmlns="http://www.w3.org/2000/svg" xmlns:xlink="http://www.w3.org/1999/xlink">
 <defs>
  <style type="text/css">
*{stroke-linecap:butt;stroke-linejoin:round;}
  </style>
 </defs>
 <g id="figure_1">
  <g id="patch_1">
   <path d="M 0 345.6 
L 460.8 345.6 
L 460.8 0 
L 0 0 
z
" style="fill:#ffffff;"/>
  </g>
  <g id="axes_1">
   <g id="patch_2">
    <path d="M 57.6 307.584 
L 414.72 307.584 
L 414.72 41.472 
L 57.6 41.472 
z
" style="fill:#ffffff;"/>
   </g>
   <g id="matplotlib.axis_1">
    <g id="xtick_1">
     <g id="line2d_1">
      <defs>
       <path d="M 0 0 
L 0 3.5 
" id="ma7965a7922" style="stroke:#000000;stroke-width:0.8;"/>
      </defs>
      <g>
       <use style="stroke:#000000;stroke-width:0.8;" x="80.973186" xlink:href="#ma7965a7922" y="307.584"/>
      </g>
     </g>
     <g id="text_1">
      <!-- 0.6 -->
      <defs>
       <path d="M 31.78125 66.40625 
Q 24.171875 66.40625 20.328125 58.90625 
Q 16.5 51.421875 16.5 36.375 
Q 16.5 21.390625 20.328125 13.890625 
Q 24.171875 6.390625 31.78125 6.390625 
Q 39.453125 6.390625 43.28125 13.890625 
Q 47.125 21.390625 47.125 36.375 
Q 47.125 51.421875 43.28125 58.90625 
Q 39.453125 66.40625 31.78125 66.40625 
z
M 31.78125 74.21875 
Q 44.046875 74.21875 50.515625 64.515625 
Q 56.984375 54.828125 56.984375 36.375 
Q 56.984375 17.96875 50.515625 8.265625 
Q 44.046875 -1.421875 31.78125 -1.421875 
Q 19.53125 -1.421875 13.0625 8.265625 
Q 6.59375 17.96875 6.59375 36.375 
Q 6.59375 54.828125 13.0625 64.515625 
Q 19.53125 74.21875 31.78125 74.21875 
z
" id="DejaVuSans-48"/>
       <path d="M 10.6875 12.40625 
L 21 12.40625 
L 21 0 
L 10.6875 0 
z
" id="DejaVuSans-46"/>
       <path d="M 33.015625 40.375 
Q 26.375 40.375 22.484375 35.828125 
Q 18.609375 31.296875 18.609375 23.390625 
Q 18.609375 15.53125 22.484375 10.953125 
Q 26.375 6.390625 33.015625 6.390625 
Q 39.65625 6.390625 43.53125 10.953125 
Q 47.40625 15.53125 47.40625 23.390625 
Q 47.40625 31.296875 43.53125 35.828125 
Q 39.65625 40.375 33.015625 40.375 
z
M 52.59375 71.296875 
L 52.59375 62.3125 
Q 48.875 64.0625 45.09375 64.984375 
Q 41.3125 65.921875 37.59375 65.921875 
Q 27.828125 65.921875 22.671875 59.328125 
Q 17.53125 52.734375 16.796875 39.40625 
Q 19.671875 43.65625 24.015625 45.921875 
Q 28.375 48.1875 33.59375 48.1875 
Q 44.578125 48.1875 50.953125 41.515625 
Q 57.328125 34.859375 57.328125 23.390625 
Q 57.328125 12.15625 50.6875 5.359375 
Q 44.046875 -1.421875 33.015625 -1.421875 
Q 20.359375 -1.421875 13.671875 8.265625 
Q 6.984375 17.96875 6.984375 36.375 
Q 6.984375 53.65625 15.1875 63.9375 
Q 23.390625 74.21875 37.203125 74.21875 
Q 40.921875 74.21875 44.703125 73.484375 
Q 48.484375 72.75 52.59375 71.296875 
z
" id="DejaVuSans-54"/>
      </defs>
      <g transform="translate(73.021623 322.182437)scale(0.1 -0.1)">
       <use xlink:href="#DejaVuSans-48"/>
       <use x="63.623047" xlink:href="#DejaVuSans-46"/>
       <use x="95.410156" xlink:href="#DejaVuSans-54"/>
      </g>
     </g>
    </g>
    <g id="xtick_2">
     <g id="line2d_2">
      <g>
       <use style="stroke:#000000;stroke-width:0.8;" x="137.643491" xlink:href="#ma7965a7922" y="307.584"/>
      </g>
     </g>
     <g id="text_2">
      <!-- 0.7 -->
      <defs>
       <path d="M 8.203125 72.90625 
L 55.078125 72.90625 
L 55.078125 68.703125 
L 28.609375 0 
L 18.3125 0 
L 43.21875 64.59375 
L 8.203125 64.59375 
z
" id="DejaVuSans-55"/>
      </defs>
      <g transform="translate(129.691929 322.182437)scale(0.1 -0.1)">
       <use xlink:href="#DejaVuSans-48"/>
       <use x="63.623047" xlink:href="#DejaVuSans-46"/>
       <use x="95.410156" xlink:href="#DejaVuSans-55"/>
      </g>
     </g>
    </g>
    <g id="xtick_3">
     <g id="line2d_3">
      <g>
       <use style="stroke:#000000;stroke-width:0.8;" x="194.313796" xlink:href="#ma7965a7922" y="307.584"/>
      </g>
     </g>
     <g id="text_3">
      <!-- 0.8 -->
      <defs>
       <path d="M 31.78125 34.625 
Q 24.75 34.625 20.71875 30.859375 
Q 16.703125 27.09375 16.703125 20.515625 
Q 16.703125 13.921875 20.71875 10.15625 
Q 24.75 6.390625 31.78125 6.390625 
Q 38.8125 6.390625 42.859375 10.171875 
Q 46.921875 13.96875 46.921875 20.515625 
Q 46.921875 27.09375 42.890625 30.859375 
Q 38.875 34.625 31.78125 34.625 
z
M 21.921875 38.8125 
Q 15.578125 40.375 12.03125 44.71875 
Q 8.5 49.078125 8.5 55.328125 
Q 8.5 64.0625 14.71875 69.140625 
Q 20.953125 74.21875 31.78125 74.21875 
Q 42.671875 74.21875 48.875 69.140625 
Q 55.078125 64.0625 55.078125 55.328125 
Q 55.078125 49.078125 51.53125 44.71875 
Q 48 40.375 41.703125 38.8125 
Q 48.828125 37.15625 52.796875 32.3125 
Q 56.78125 27.484375 56.78125 20.515625 
Q 56.78125 9.90625 50.3125 4.234375 
Q 43.84375 -1.421875 31.78125 -1.421875 
Q 19.734375 -1.421875 13.25 4.234375 
Q 6.78125 9.90625 6.78125 20.515625 
Q 6.78125 27.484375 10.78125 32.3125 
Q 14.796875 37.15625 21.921875 38.8125 
z
M 18.3125 54.390625 
Q 18.3125 48.734375 21.84375 45.5625 
Q 25.390625 42.390625 31.78125 42.390625 
Q 38.140625 42.390625 41.71875 45.5625 
Q 45.3125 48.734375 45.3125 54.390625 
Q 45.3125 60.0625 41.71875 63.234375 
Q 38.140625 66.40625 31.78125 66.40625 
Q 25.390625 66.40625 21.84375 63.234375 
Q 18.3125 60.0625 18.3125 54.390625 
z
" id="DejaVuSans-56"/>
      </defs>
      <g transform="translate(186.362234 322.182437)scale(0.1 -0.1)">
       <use xlink:href="#DejaVuSans-48"/>
       <use x="63.623047" xlink:href="#DejaVuSans-46"/>
       <use x="95.410156" xlink:href="#DejaVuSans-56"/>
      </g>
     </g>
    </g>
    <g id="xtick_4">
     <g id="line2d_4">
      <g>
       <use style="stroke:#000000;stroke-width:0.8;" x="250.984102" xlink:href="#ma7965a7922" y="307.584"/>
      </g>
     </g>
     <g id="text_4">
      <!-- 0.9 -->
      <defs>
       <path d="M 10.984375 1.515625 
L 10.984375 10.5 
Q 14.703125 8.734375 18.5 7.8125 
Q 22.3125 6.890625 25.984375 6.890625 
Q 35.75 6.890625 40.890625 13.453125 
Q 46.046875 20.015625 46.78125 33.40625 
Q 43.953125 29.203125 39.59375 26.953125 
Q 35.25 24.703125 29.984375 24.703125 
Q 19.046875 24.703125 12.671875 31.3125 
Q 6.296875 37.9375 6.296875 49.421875 
Q 6.296875 60.640625 12.9375 67.421875 
Q 19.578125 74.21875 30.609375 74.21875 
Q 43.265625 74.21875 49.921875 64.515625 
Q 56.59375 54.828125 56.59375 36.375 
Q 56.59375 19.140625 48.40625 8.859375 
Q 40.234375 -1.421875 26.421875 -1.421875 
Q 22.703125 -1.421875 18.890625 -0.6875 
Q 15.09375 0.046875 10.984375 1.515625 
z
M 30.609375 32.421875 
Q 37.25 32.421875 41.125 36.953125 
Q 45.015625 41.5 45.015625 49.421875 
Q 45.015625 57.28125 41.125 61.84375 
Q 37.25 66.40625 30.609375 66.40625 
Q 23.96875 66.40625 20.09375 61.84375 
Q 16.21875 57.28125 16.21875 49.421875 
Q 16.21875 41.5 20.09375 36.953125 
Q 23.96875 32.421875 30.609375 32.421875 
z
" id="DejaVuSans-57"/>
      </defs>
      <g transform="translate(243.032539 322.182437)scale(0.1 -0.1)">
       <use xlink:href="#DejaVuSans-48"/>
       <use x="63.623047" xlink:href="#DejaVuSans-46"/>
       <use x="95.410156" xlink:href="#DejaVuSans-57"/>
      </g>
     </g>
    </g>
    <g id="xtick_5">
     <g id="line2d_5">
      <g>
       <use style="stroke:#000000;stroke-width:0.8;" x="307.654407" xlink:href="#ma7965a7922" y="307.584"/>
      </g>
     </g>
     <g id="text_5">
      <!-- 1.0 -->
      <defs>
       <path d="M 12.40625 8.296875 
L 28.515625 8.296875 
L 28.515625 63.921875 
L 10.984375 60.40625 
L 10.984375 69.390625 
L 28.421875 72.90625 
L 38.28125 72.90625 
L 38.28125 8.296875 
L 54.390625 8.296875 
L 54.390625 0 
L 12.40625 0 
z
" id="DejaVuSans-49"/>
      </defs>
      <g transform="translate(299.702845 322.182437)scale(0.1 -0.1)">
       <use xlink:href="#DejaVuSans-49"/>
       <use x="63.623047" xlink:href="#DejaVuSans-46"/>
       <use x="95.410156" xlink:href="#DejaVuSans-48"/>
      </g>
     </g>
    </g>
    <g id="xtick_6">
     <g id="line2d_6">
      <g>
       <use style="stroke:#000000;stroke-width:0.8;" x="364.324713" xlink:href="#ma7965a7922" y="307.584"/>
      </g>
     </g>
     <g id="text_6">
      <!-- 1.1 -->
      <g transform="translate(356.37315 322.182437)scale(0.1 -0.1)">
       <use xlink:href="#DejaVuSans-49"/>
       <use x="63.623047" xlink:href="#DejaVuSans-46"/>
       <use x="95.410156" xlink:href="#DejaVuSans-49"/>
      </g>
     </g>
    </g>
    <g id="text_7">
     <!-- 1e10 -->
     <defs>
      <path d="M 56.203125 29.59375 
L 56.203125 25.203125 
L 14.890625 25.203125 
Q 15.484375 15.921875 20.484375 11.0625 
Q 25.484375 6.203125 34.421875 6.203125 
Q 39.59375 6.203125 44.453125 7.46875 
Q 49.3125 8.734375 54.109375 11.28125 
L 54.109375 2.78125 
Q 49.265625 0.734375 44.1875 -0.34375 
Q 39.109375 -1.421875 33.890625 -1.421875 
Q 20.796875 -1.421875 13.15625 6.1875 
Q 5.515625 13.8125 5.515625 26.8125 
Q 5.515625 40.234375 12.765625 48.109375 
Q 20.015625 56 32.328125 56 
Q 43.359375 56 49.78125 48.890625 
Q 56.203125 41.796875 56.203125 29.59375 
z
M 47.21875 32.234375 
Q 47.125 39.59375 43.09375 43.984375 
Q 39.0625 48.390625 32.421875 48.390625 
Q 24.90625 48.390625 20.390625 44.140625 
Q 15.875 39.890625 15.1875 32.171875 
z
" id="DejaVuSans-101"/>
     </defs>
     <g transform="translate(389.479375 334.860562)scale(0.1 -0.1)">
      <use xlink:href="#DejaVuSans-49"/>
      <use x="63.623047" xlink:href="#DejaVuSans-101"/>
      <use x="125.146484" xlink:href="#DejaVuSans-49"/>
      <use x="188.769531" xlink:href="#DejaVuSans-48"/>
     </g>
    </g>
   </g>
   <g id="matplotlib.axis_2">
    <g id="ytick_1">
     <g id="line2d_7">
      <defs>
       <path d="M 0 0 
L -3.5 0 
" id="mf6f39066d6" style="stroke:#000000;stroke-width:0.8;"/>
      </defs>
      <g>
       <use style="stroke:#000000;stroke-width:0.8;" x="57.6" xlink:href="#mf6f39066d6" y="296.662093"/>
      </g>
     </g>
     <g id="text_8">
      <!-- −0.10 -->
      <defs>
       <path d="M 10.59375 35.5 
L 73.1875 35.5 
L 73.1875 27.203125 
L 10.59375 27.203125 
z
" id="DejaVuSans-8722"/>
      </defs>
      <g transform="translate(19.954687 300.461312)scale(0.1 -0.1)">
       <use xlink:href="#DejaVuSans-8722"/>
       <use x="83.789062" xlink:href="#DejaVuSans-48"/>
       <use x="147.412109" xlink:href="#DejaVuSans-46"/>
       <use x="179.199219" xlink:href="#DejaVuSans-49"/>
       <use x="242.822266" xlink:href="#DejaVuSans-48"/>
      </g>
     </g>
    </g>
    <g id="ytick_2">
     <g id="line2d_8">
      <g>
       <use style="stroke:#000000;stroke-width:0.8;" x="57.6" xlink:href="#mf6f39066d6" y="259.467926"/>
      </g>
     </g>
     <g id="text_9">
      <!-- −0.08 -->
      <g transform="translate(19.954687 263.267145)scale(0.1 -0.1)">
       <use xlink:href="#DejaVuSans-8722"/>
       <use x="83.789062" xlink:href="#DejaVuSans-48"/>
       <use x="147.412109" xlink:href="#DejaVuSans-46"/>
       <use x="179.199219" xlink:href="#DejaVuSans-48"/>
       <use x="242.822266" xlink:href="#DejaVuSans-56"/>
      </g>
     </g>
    </g>
    <g id="ytick_3">
     <g id="line2d_9">
      <g>
       <use style="stroke:#000000;stroke-width:0.8;" x="57.6" xlink:href="#mf6f39066d6" y="222.273759"/>
      </g>
     </g>
     <g id="text_10">
      <!-- −0.06 -->
      <g transform="translate(19.954687 226.072978)scale(0.1 -0.1)">
       <use xlink:href="#DejaVuSans-8722"/>
       <use x="83.789062" xlink:href="#DejaVuSans-48"/>
       <use x="147.412109" xlink:href="#DejaVuSans-46"/>
       <use x="179.199219" xlink:href="#DejaVuSans-48"/>
       <use x="242.822266" xlink:href="#DejaVuSans-54"/>
      </g>
     </g>
    </g>
    <g id="ytick_4">
     <g id="line2d_10">
      <g>
       <use style="stroke:#000000;stroke-width:0.8;" x="57.6" xlink:href="#mf6f39066d6" y="185.079592"/>
      </g>
     </g>
     <g id="text_11">
      <!-- −0.04 -->
      <defs>
       <path d="M 37.796875 64.3125 
L 12.890625 25.390625 
L 37.796875 25.390625 
z
M 35.203125 72.90625 
L 47.609375 72.90625 
L 47.609375 25.390625 
L 58.015625 25.390625 
L 58.015625 17.1875 
L 47.609375 17.1875 
L 47.609375 0 
L 37.796875 0 
L 37.796875 17.1875 
L 4.890625 17.1875 
L 4.890625 26.703125 
z
" id="DejaVuSans-52"/>
      </defs>
      <g transform="translate(19.954687 188.878811)scale(0.1 -0.1)">
       <use xlink:href="#DejaVuSans-8722"/>
       <use x="83.789062" xlink:href="#DejaVuSans-48"/>
       <use x="147.412109" xlink:href="#DejaVuSans-46"/>
       <use x="179.199219" xlink:href="#DejaVuSans-48"/>
       <use x="242.822266" xlink:href="#DejaVuSans-52"/>
      </g>
     </g>
    </g>
    <g id="ytick_5">
     <g id="line2d_11">
      <g>
       <use style="stroke:#000000;stroke-width:0.8;" x="57.6" xlink:href="#mf6f39066d6" y="147.885425"/>
      </g>
     </g>
     <g id="text_12">
      <!-- −0.02 -->
      <defs>
       <path d="M 19.1875 8.296875 
L 53.609375 8.296875 
L 53.609375 0 
L 7.328125 0 
L 7.328125 8.296875 
Q 12.9375 14.109375 22.625 23.890625 
Q 32.328125 33.6875 34.8125 36.53125 
Q 39.546875 41.84375 41.421875 45.53125 
Q 43.3125 49.21875 43.3125 52.78125 
Q 43.3125 58.59375 39.234375 62.25 
Q 35.15625 65.921875 28.609375 65.921875 
Q 23.96875 65.921875 18.8125 64.3125 
Q 13.671875 62.703125 7.8125 59.421875 
L 7.8125 69.390625 
Q 13.765625 71.78125 18.9375 73 
Q 24.125 74.21875 28.421875 74.21875 
Q 39.75 74.21875 46.484375 68.546875 
Q 53.21875 62.890625 53.21875 53.421875 
Q 53.21875 48.921875 51.53125 44.890625 
Q 49.859375 40.875 45.40625 35.40625 
Q 44.1875 33.984375 37.640625 27.21875 
Q 31.109375 20.453125 19.1875 8.296875 
z
" id="DejaVuSans-50"/>
      </defs>
      <g transform="translate(19.954687 151.684644)scale(0.1 -0.1)">
       <use xlink:href="#DejaVuSans-8722"/>
       <use x="83.789062" xlink:href="#DejaVuSans-48"/>
       <use x="147.412109" xlink:href="#DejaVuSans-46"/>
       <use x="179.199219" xlink:href="#DejaVuSans-48"/>
       <use x="242.822266" xlink:href="#DejaVuSans-50"/>
      </g>
     </g>
    </g>
    <g id="ytick_6">
     <g id="line2d_12">
      <g>
       <use style="stroke:#000000;stroke-width:0.8;" x="57.6" xlink:href="#mf6f39066d6" y="110.691259"/>
      </g>
     </g>
     <g id="text_13">
      <!-- 0.00 -->
      <g transform="translate(28.334375 114.490477)scale(0.1 -0.1)">
       <use xlink:href="#DejaVuSans-48"/>
       <use x="63.623047" xlink:href="#DejaVuSans-46"/>
       <use x="95.410156" xlink:href="#DejaVuSans-48"/>
       <use x="159.033203" xlink:href="#DejaVuSans-48"/>
      </g>
     </g>
    </g>
    <g id="ytick_7">
     <g id="line2d_13">
      <g>
       <use style="stroke:#000000;stroke-width:0.8;" x="57.6" xlink:href="#mf6f39066d6" y="73.497092"/>
      </g>
     </g>
     <g id="text_14">
      <!-- 0.02 -->
      <g transform="translate(28.334375 77.29631)scale(0.1 -0.1)">
       <use xlink:href="#DejaVuSans-48"/>
       <use x="63.623047" xlink:href="#DejaVuSans-46"/>
       <use x="95.410156" xlink:href="#DejaVuSans-48"/>
       <use x="159.033203" xlink:href="#DejaVuSans-50"/>
      </g>
     </g>
    </g>
   </g>
   <g id="line2d_14">
    <path clip-path="url(#pb50c935032)" d="M 73.832727 82.064305 
L 75.191114 295.488 
L 76.549502 292.624951 
L 79.266276 280.740745 
L 80.624663 278.182839 
L 81.983051 273.914731 
L 83.341438 267.266929 
L 84.699825 256.599728 
L 86.058212 247.246709 
L 87.416599 235.769542 
L 91.491761 198.089836 
L 92.850148 187.912183 
L 94.208536 175.496742 
L 95.566923 161.678997 
L 96.92531 150.575783 
L 99.642084 130.745959 
L 101.000472 121.923793 
L 103.717246 110.120297 
L 105.075633 106.412587 
L 106.434021 104.620329 
L 107.792408 104.19272 
L 109.150795 102.451062 
L 110.509182 98.59751 
L 111.867569 95.144489 
L 113.225957 90.330609 
L 114.584344 86.04332 
L 115.942731 82.152546 
L 117.301118 94.124937 
L 118.659506 74.717481 
L 120.017893 74.320227 
L 122.734667 69.759103 
L 124.093054 65.148838 
L 125.451442 61.049377 
L 126.809829 58.775336 
L 128.168216 54.951155 
L 129.526603 53.568 
L 130.88499 53.854428 
L 132.243378 54.704219 
L 133.601765 54.879401 
L 134.960152 57.255652 
L 136.318539 60.74154 
L 140.393701 76.299296 
L 141.752088 79.250204 
L 143.110475 82.627728 
L 144.468863 85.357791 
L 145.82725 86.142307 
L 149.902412 86.412143 
L 152.619186 88.077657 
L 153.977573 88.422448 
L 156.694348 92.478552 
L 158.052735 93.281364 
L 159.411122 95.263112 
L 160.769509 109.316368 
L 162.127897 94.320081 
L 163.486284 97.058418 
L 164.844671 97.585406 
L 167.561445 95.737627 
L 168.919833 94.299497 
L 170.27822 94.038652 
L 171.636607 93.093117 
L 172.994994 91.293032 
L 174.353382 89.807777 
L 175.711769 87.482 
L 179.78693 84.640883 
L 181.145318 83.864715 
L 182.503705 83.285267 
L 183.862092 82.134997 
L 186.578866 81.385784 
L 187.937254 81.351129 
L 189.295641 81.594658 
L 190.654028 82.044051 
L 192.012415 83.131841 
L 193.370803 84.736163 
L 196.087577 89.756325 
L 198.804351 97.978421 
L 200.162739 102.449523 
L 201.521126 105.660115 
L 202.879513 108.266276 
L 204.2379 118.540172 
L 205.596288 112.919128 
L 206.954675 115.907122 
L 208.313062 117.949307 
L 211.029836 121.020816 
L 212.388224 122.09459 
L 213.746611 123.782182 
L 216.463385 124.933577 
L 217.821773 125.17303 
L 219.18016 124.81902 
L 220.538547 124.22902 
L 221.896934 123.907997 
L 223.255321 123.186804 
L 225.972096 120.380414 
L 227.330483 120.161261 
L 228.68887 120.393474 
L 230.047258 120.021537 
L 231.405645 120.608405 
L 232.764032 122.012701 
L 234.122419 122.592551 
L 236.839194 125.060258 
L 239.555968 128.611003 
L 243.63113 131.519091 
L 244.989517 131.553189 
L 246.347904 131.263932 
L 247.706291 141.373027 
L 249.064679 134.152304 
L 250.423066 136.423115 
L 253.13984 139.997904 
L 254.498227 138.963188 
L 257.215002 142.621049 
L 258.573389 140.511242 
L 259.931776 137.915692 
L 261.290164 135.849776 
L 262.648551 136.038009 
L 264.006938 136.791338 
L 265.365325 136.467663 
L 266.723712 137.524652 
L 268.0821 138.843979 
L 269.440487 140.943141 
L 270.798874 142.740523 
L 273.515649 138.849713 
L 274.874036 134.623483 
L 276.232423 132.931587 
L 277.59081 128.845449 
L 278.949197 129.481032 
L 280.307585 135.57271 
L 281.665972 140.545907 
L 283.024359 139.385848 
L 285.741134 130.416813 
L 287.099521 122.605191 
L 288.457908 116.232488 
L 289.816295 111.356785 
L 291.174682 118.384049 
L 292.53307 114.030957 
L 293.891457 114.174328 
L 296.608231 120.67334 
L 297.966618 122.598861 
L 299.325006 126.743691 
L 300.683393 130.378944 
L 302.04178 134.477503 
L 303.400167 139.16189 
L 304.758555 143.319837 
L 307.475329 150.735936 
L 308.833716 156.83886 
L 310.192103 162.224516 
L 311.550491 166.294222 
L 312.908878 171.495392 
L 314.267265 177.707518 
L 315.625652 181.096879 
L 316.98404 185.238928 
L 318.342427 187.980943 
L 321.059201 191.805843 
L 322.417588 194.149379 
L 323.775976 197.739079 
L 325.134363 200.456723 
L 326.49275 202.925582 
L 327.851137 204.854702 
L 329.209525 207.004027 
L 333.284686 210.285949 
L 334.643073 217.672295 
L 336.001461 209.126216 
L 337.359848 212.785357 
L 338.718235 214.712216 
L 340.076622 217.923029 
L 341.43501 220.738978 
L 342.793397 222.543571 
L 344.151784 225.306201 
L 345.510171 228.910188 
L 346.868558 231.114464 
L 348.226946 233.853616 
L 350.94372 240.245156 
L 355.018882 248.455391 
L 356.377269 252.176986 
L 359.094043 257.077537 
L 360.452431 258.958204 
L 361.810818 261.044891 
L 363.169205 262.587478 
L 364.527592 263.72161 
L 365.885979 265.869814 
L 368.602754 267.003095 
L 369.961141 267.552305 
L 371.319528 267.17741 
L 372.677916 267.763423 
L 374.036303 267.441677 
L 376.753077 265.189876 
L 378.111464 269.429968 
L 379.469852 261.681837 
L 383.545013 262.027901 
L 384.903401 261.748736 
L 386.261788 261.144423 
L 387.620175 260.829131 
L 388.978562 261.544108 
L 391.695337 258.14761 
L 393.053724 257.716025 
L 394.412111 258.161539 
L 395.770498 256.941681 
L 397.128886 256.131098 
L 398.487273 255.086581 
L 398.487273 255.086581 
" style="fill:none;stroke:#1f77b4;stroke-linecap:square;stroke-width:1.5;"/>
   </g>
   <g id="line2d_15">
    <path clip-path="url(#pb50c935032)" d="M 73.832727 106.518861 
L 75.191114 74.922508 
L 76.549502 71.004517 
L 77.907889 71.583393 
L 79.266276 71.83304 
L 80.624663 72.797165 
L 81.983051 78.102062 
L 83.341438 82.701073 
L 84.699825 84.494888 
L 86.058212 85.229479 
L 87.416599 85.029243 
L 88.774987 84.186293 
L 90.133374 80.999887 
L 91.491761 79.864267 
L 92.850148 79.586929 
L 94.208536 77.81889 
L 95.566923 80.183364 
L 96.92531 75.159083 
L 98.283697 71.979751 
L 99.642084 70.90323 
L 101.000472 70.461491 
L 102.358859 72.907926 
L 103.717246 78.827008 
L 106.434021 92.826439 
L 109.150795 103.914436 
L 110.509182 106.672464 
L 111.867569 108.122841 
L 113.225957 110.117858 
L 114.584344 111.164422 
L 115.942731 114.40875 
L 117.301118 116.951157 
L 118.659506 117.171211 
L 120.017893 115.207779 
L 121.37628 111.974322 
L 122.734667 110.612575 
L 124.093054 111.21657 
L 125.451442 110.780453 
L 126.809829 111.073134 
L 128.168216 111.519699 
L 129.526603 110.781607 
L 130.88499 109.390181 
L 132.243378 108.480292 
L 133.601765 106.426174 
L 134.960152 105.332146 
L 136.318539 103.498184 
L 137.676927 100.452889 
L 139.035314 98.378366 
L 140.393701 96.680793 
L 141.752088 94.480297 
L 143.110475 95.193986 
L 144.468863 95.623049 
L 145.82725 98.04578 
L 147.185637 98.828576 
L 148.544024 100.498298 
L 149.902412 102.928658 
L 151.260799 101.302502 
L 153.977573 102.846531 
L 155.33596 102.352693 
L 156.694348 102.503258 
L 158.052735 103.235285 
L 159.411122 103.512983 
L 160.769509 105.400615 
L 163.486284 105.524248 
L 164.844671 106.028076 
L 166.203058 107.084745 
L 167.561445 107.816093 
L 168.919833 109.044069 
L 171.636607 109.787406 
L 172.994994 109.910541 
L 174.353382 110.367453 
L 175.711769 111.871935 
L 177.070156 112.819406 
L 178.428543 113.494929 
L 179.78693 113.900261 
L 181.145318 114.039257 
L 182.503705 114.054865 
L 183.862092 116.433671 
L 185.220479 117.338304 
L 186.578866 119.024315 
L 187.937254 120.363392 
L 189.295641 123.042357 
L 190.654028 125.20875 
L 192.012415 125.474199 
L 193.370803 124.4988 
L 194.72919 123.738939 
L 196.087577 122.600892 
L 197.445964 121.917192 
L 198.804351 121.492136 
L 200.162739 122.429404 
L 201.521126 120.812029 
L 202.879513 120.271344 
L 204.2379 122.851647 
L 205.596288 122.174922 
L 208.313062 118.785178 
L 209.671449 116.557249 
L 211.029836 114.586244 
L 212.388224 111.897549 
L 213.746611 108.885261 
L 215.104998 105.243968 
L 216.463385 101.956124 
L 219.18016 97.593756 
L 221.896934 91.638433 
L 223.255321 90.917396 
L 224.613709 89.796098 
L 225.972096 89.390956 
L 227.330483 88.211943 
L 228.68887 86.196791 
L 230.047258 85.26983 
L 231.405645 85.871179 
L 232.764032 87.625697 
L 234.122419 90.267556 
L 235.480806 94.519455 
L 236.839194 96.958819 
L 239.555968 104.475515 
L 240.914355 107.120833 
L 242.272742 109.458724 
L 243.63113 112.693941 
L 244.989517 115.131907 
L 246.347904 118.880977 
L 247.706291 124.927907 
L 249.064679 127.365299 
L 250.423066 128.583426 
L 251.781453 128.068434 
L 253.13984 127.938796 
L 255.856615 119.334227 
L 257.215002 115.074804 
L 258.573389 109.784397 
L 259.931776 108.112078 
L 261.290164 106.900421 
L 262.648551 105.260909 
L 264.006938 101.689928 
L 265.365325 97.749003 
L 266.723712 95.391678 
L 268.0821 92.626063 
L 269.440487 94.483798 
L 270.798874 95.162946 
L 272.157261 100.161316 
L 273.515649 102.61086 
L 274.874036 99.166721 
L 276.232423 101.197424 
L 277.59081 104.785487 
L 278.949197 109.865662 
L 280.307585 129.710959 
L 283.024359 157.669774 
L 284.382746 161.488967 
L 285.741134 160.275319 
L 287.099521 161.875127 
L 288.457908 160.275981 
L 289.816295 156.18533 
L 291.174682 153.296021 
L 292.53307 152.319966 
L 293.891457 152.021131 
L 295.249844 149.388903 
L 296.608231 150.868473 
L 297.966618 152.719589 
L 299.325006 148.980983 
L 300.683393 146.903535 
L 302.04178 148.910563 
L 303.400167 149.983736 
L 306.116942 141.663465 
L 307.475329 143.305017 
L 308.833716 142.560062 
L 310.192103 140.278767 
L 311.550491 141.805387 
L 312.908878 142.138984 
L 314.267265 141.754153 
L 315.625652 140.646321 
L 316.98404 139.817294 
L 318.342427 138.273257 
L 319.700814 140.641477 
L 321.059201 136.959183 
L 322.417588 137.985534 
L 323.775976 141.417469 
L 326.49275 140.502445 
L 327.851137 142.310737 
L 329.209525 143.527765 
L 330.567912 144.160691 
L 333.284686 143.25579 
L 334.643073 145.962474 
L 336.001461 145.609916 
L 337.359848 142.525085 
L 338.718235 140.641449 
L 341.43501 141.679476 
L 342.793397 141.127273 
L 344.151784 142.508275 
L 345.510171 142.232924 
L 346.868558 141.44988 
L 348.226946 141.271766 
L 352.302107 141.533919 
L 355.018882 137.36966 
L 356.377269 136.80933 
L 359.094043 132.216196 
L 360.452431 131.440301 
L 361.810818 131.382587 
L 363.169205 131.591333 
L 364.527592 130.514743 
L 365.885979 129.055969 
L 367.244367 128.961797 
L 368.602754 130.191389 
L 371.319528 125.947846 
L 372.677916 125.362896 
L 374.036303 122.581257 
L 375.39469 121.431021 
L 376.753077 121.060767 
L 379.469852 121.595863 
L 380.828239 118.717947 
L 382.186626 116.936942 
L 383.545013 117.134373 
L 384.903401 115.462432 
L 386.261788 112.168671 
L 387.620175 110.348093 
L 388.978562 109.925257 
L 390.336949 107.785733 
L 391.695337 106.942137 
L 393.053724 104.016232 
L 394.412111 103.727973 
L 395.770498 104.756114 
L 397.128886 104.055165 
L 398.487273 101.1287 
L 398.487273 101.1287 
" style="fill:none;stroke:#ff7f0e;stroke-linecap:square;stroke-width:1.5;"/>
   </g>
   <g id="patch_3">
    <path d="M 57.6 307.584 
L 57.6 41.472 
" style="fill:none;stroke:#000000;stroke-linecap:square;stroke-linejoin:miter;stroke-width:0.8;"/>
   </g>
   <g id="patch_4">
    <path d="M 414.72 307.584 
L 414.72 41.472 
" style="fill:none;stroke:#000000;stroke-linecap:square;stroke-linejoin:miter;stroke-width:0.8;"/>
   </g>
   <g id="patch_5">
    <path d="M 57.6 307.584 
L 414.72 307.584 
" style="fill:none;stroke:#000000;stroke-linecap:square;stroke-linejoin:miter;stroke-width:0.8;"/>
   </g>
   <g id="patch_6">
    <path d="M 57.6 41.472 
L 414.72 41.472 
" style="fill:none;stroke:#000000;stroke-linecap:square;stroke-linejoin:miter;stroke-width:0.8;"/>
   </g>
  </g>
 </g>
 <defs>
  <clipPath id="pb50c935032">
   <rect height="266.112" width="357.12" x="57.6" y="41.472"/>
  </clipPath>
 </defs>
</svg>
