<?xml version="1.0" encoding="utf-8" standalone="no"?>
<!DOCTYPE svg PUBLIC "-//W3C//DTD SVG 1.1//EN"
  "http://www.w3.org/Graphics/SVG/1.1/DTD/svg11.dtd">
<!-- Created with matplotlib (https://matplotlib.org/) -->
<svg height="345.6pt" version="1.1" viewBox="0 0 460.8 345.6" width="460.8pt" xmlns="http://www.w3.org/2000/svg" xmlns:xlink="http://www.w3.org/1999/xlink">
 <defs>
  <style type="text/css">
*{stroke-linecap:butt;stroke-linejoin:round;}
  </style>
 </defs>
 <g id="figure_1">
  <g id="patch_1">
   <path d="M 0 345.6 
L 460.8 345.6 
L 460.8 0 
L 0 0 
z
" style="fill:#ffffff;"/>
  </g>
  <g id="axes_1">
   <g id="patch_2">
    <path d="M 57.6 307.584 
L 414.72 307.584 
L 414.72 41.472 
L 57.6 41.472 
z
" style="fill:#ffffff;"/>
   </g>
   <g id="matplotlib.axis_1">
    <g id="xtick_1">
     <g id="line2d_1">
      <defs>
       <path d="M 0 0 
L 0 3.5 
" id="m69d32f0712" style="stroke:#000000;stroke-width:0.8;"/>
      </defs>
      <g>
       <use style="stroke:#000000;stroke-width:0.8;" x="80.973186" xlink:href="#m69d32f0712" y="307.584"/>
      </g>
     </g>
     <g id="text_1">
      <!-- 0.6 -->
      <defs>
       <path d="M 31.78125 66.40625 
Q 24.171875 66.40625 20.328125 58.90625 
Q 16.5 51.421875 16.5 36.375 
Q 16.5 21.390625 20.328125 13.890625 
Q 24.171875 6.390625 31.78125 6.390625 
Q 39.453125 6.390625 43.28125 13.890625 
Q 47.125 21.390625 47.125 36.375 
Q 47.125 51.421875 43.28125 58.90625 
Q 39.453125 66.40625 31.78125 66.40625 
z
M 31.78125 74.21875 
Q 44.046875 74.21875 50.515625 64.515625 
Q 56.984375 54.828125 56.984375 36.375 
Q 56.984375 17.96875 50.515625 8.265625 
Q 44.046875 -1.421875 31.78125 -1.421875 
Q 19.53125 -1.421875 13.0625 8.265625 
Q 6.59375 17.96875 6.59375 36.375 
Q 6.59375 54.828125 13.0625 64.515625 
Q 19.53125 74.21875 31.78125 74.21875 
z
" id="DejaVuSans-48"/>
       <path d="M 10.6875 12.40625 
L 21 12.40625 
L 21 0 
L 10.6875 0 
z
" id="DejaVuSans-46"/>
       <path d="M 33.015625 40.375 
Q 26.375 40.375 22.484375 35.828125 
Q 18.609375 31.296875 18.609375 23.390625 
Q 18.609375 15.53125 22.484375 10.953125 
Q 26.375 6.390625 33.015625 6.390625 
Q 39.65625 6.390625 43.53125 10.953125 
Q 47.40625 15.53125 47.40625 23.390625 
Q 47.40625 31.296875 43.53125 35.828125 
Q 39.65625 40.375 33.015625 40.375 
z
M 52.59375 71.296875 
L 52.59375 62.3125 
Q 48.875 64.0625 45.09375 64.984375 
Q 41.3125 65.921875 37.59375 65.921875 
Q 27.828125 65.921875 22.671875 59.328125 
Q 17.53125 52.734375 16.796875 39.40625 
Q 19.671875 43.65625 24.015625 45.921875 
Q 28.375 48.1875 33.59375 48.1875 
Q 44.578125 48.1875 50.953125 41.515625 
Q 57.328125 34.859375 57.328125 23.390625 
Q 57.328125 12.15625 50.6875 5.359375 
Q 44.046875 -1.421875 33.015625 -1.421875 
Q 20.359375 -1.421875 13.671875 8.265625 
Q 6.984375 17.96875 6.984375 36.375 
Q 6.984375 53.65625 15.1875 63.9375 
Q 23.390625 74.21875 37.203125 74.21875 
Q 40.921875 74.21875 44.703125 73.484375 
Q 48.484375 72.75 52.59375 71.296875 
z
" id="DejaVuSans-54"/>
      </defs>
      <g transform="translate(73.021623 322.182437)scale(0.1 -0.1)">
       <use xlink:href="#DejaVuSans-48"/>
       <use x="63.623047" xlink:href="#DejaVuSans-46"/>
       <use x="95.410156" xlink:href="#DejaVuSans-54"/>
      </g>
     </g>
    </g>
    <g id="xtick_2">
     <g id="line2d_2">
      <g>
       <use style="stroke:#000000;stroke-width:0.8;" x="137.643491" xlink:href="#m69d32f0712" y="307.584"/>
      </g>
     </g>
     <g id="text_2">
      <!-- 0.7 -->
      <defs>
       <path d="M 8.203125 72.90625 
L 55.078125 72.90625 
L 55.078125 68.703125 
L 28.609375 0 
L 18.3125 0 
L 43.21875 64.59375 
L 8.203125 64.59375 
z
" id="DejaVuSans-55"/>
      </defs>
      <g transform="translate(129.691929 322.182437)scale(0.1 -0.1)">
       <use xlink:href="#DejaVuSans-48"/>
       <use x="63.623047" xlink:href="#DejaVuSans-46"/>
       <use x="95.410156" xlink:href="#DejaVuSans-55"/>
      </g>
     </g>
    </g>
    <g id="xtick_3">
     <g id="line2d_3">
      <g>
       <use style="stroke:#000000;stroke-width:0.8;" x="194.313796" xlink:href="#m69d32f0712" y="307.584"/>
      </g>
     </g>
     <g id="text_3">
      <!-- 0.8 -->
      <defs>
       <path d="M 31.78125 34.625 
Q 24.75 34.625 20.71875 30.859375 
Q 16.703125 27.09375 16.703125 20.515625 
Q 16.703125 13.921875 20.71875 10.15625 
Q 24.75 6.390625 31.78125 6.390625 
Q 38.8125 6.390625 42.859375 10.171875 
Q 46.921875 13.96875 46.921875 20.515625 
Q 46.921875 27.09375 42.890625 30.859375 
Q 38.875 34.625 31.78125 34.625 
z
M 21.921875 38.8125 
Q 15.578125 40.375 12.03125 44.71875 
Q 8.5 49.078125 8.5 55.328125 
Q 8.5 64.0625 14.71875 69.140625 
Q 20.953125 74.21875 31.78125 74.21875 
Q 42.671875 74.21875 48.875 69.140625 
Q 55.078125 64.0625 55.078125 55.328125 
Q 55.078125 49.078125 51.53125 44.71875 
Q 48 40.375 41.703125 38.8125 
Q 48.828125 37.15625 52.796875 32.3125 
Q 56.78125 27.484375 56.78125 20.515625 
Q 56.78125 9.90625 50.3125 4.234375 
Q 43.84375 -1.421875 31.78125 -1.421875 
Q 19.734375 -1.421875 13.25 4.234375 
Q 6.78125 9.90625 6.78125 20.515625 
Q 6.78125 27.484375 10.78125 32.3125 
Q 14.796875 37.15625 21.921875 38.8125 
z
M 18.3125 54.390625 
Q 18.3125 48.734375 21.84375 45.5625 
Q 25.390625 42.390625 31.78125 42.390625 
Q 38.140625 42.390625 41.71875 45.5625 
Q 45.3125 48.734375 45.3125 54.390625 
Q 45.3125 60.0625 41.71875 63.234375 
Q 38.140625 66.40625 31.78125 66.40625 
Q 25.390625 66.40625 21.84375 63.234375 
Q 18.3125 60.0625 18.3125 54.390625 
z
" id="DejaVuSans-56"/>
      </defs>
      <g transform="translate(186.362234 322.182437)scale(0.1 -0.1)">
       <use xlink:href="#DejaVuSans-48"/>
       <use x="63.623047" xlink:href="#DejaVuSans-46"/>
       <use x="95.410156" xlink:href="#DejaVuSans-56"/>
      </g>
     </g>
    </g>
    <g id="xtick_4">
     <g id="line2d_4">
      <g>
       <use style="stroke:#000000;stroke-width:0.8;" x="250.984102" xlink:href="#m69d32f0712" y="307.584"/>
      </g>
     </g>
     <g id="text_4">
      <!-- 0.9 -->
      <defs>
       <path d="M 10.984375 1.515625 
L 10.984375 10.5 
Q 14.703125 8.734375 18.5 7.8125 
Q 22.3125 6.890625 25.984375 6.890625 
Q 35.75 6.890625 40.890625 13.453125 
Q 46.046875 20.015625 46.78125 33.40625 
Q 43.953125 29.203125 39.59375 26.953125 
Q 35.25 24.703125 29.984375 24.703125 
Q 19.046875 24.703125 12.671875 31.3125 
Q 6.296875 37.9375 6.296875 49.421875 
Q 6.296875 60.640625 12.9375 67.421875 
Q 19.578125 74.21875 30.609375 74.21875 
Q 43.265625 74.21875 49.921875 64.515625 
Q 56.59375 54.828125 56.59375 36.375 
Q 56.59375 19.140625 48.40625 8.859375 
Q 40.234375 -1.421875 26.421875 -1.421875 
Q 22.703125 -1.421875 18.890625 -0.6875 
Q 15.09375 0.046875 10.984375 1.515625 
z
M 30.609375 32.421875 
Q 37.25 32.421875 41.125 36.953125 
Q 45.015625 41.5 45.015625 49.421875 
Q 45.015625 57.28125 41.125 61.84375 
Q 37.25 66.40625 30.609375 66.40625 
Q 23.96875 66.40625 20.09375 61.84375 
Q 16.21875 57.28125 16.21875 49.421875 
Q 16.21875 41.5 20.09375 36.953125 
Q 23.96875 32.421875 30.609375 32.421875 
z
" id="DejaVuSans-57"/>
      </defs>
      <g transform="translate(243.032539 322.182437)scale(0.1 -0.1)">
       <use xlink:href="#DejaVuSans-48"/>
       <use x="63.623047" xlink:href="#DejaVuSans-46"/>
       <use x="95.410156" xlink:href="#DejaVuSans-57"/>
      </g>
     </g>
    </g>
    <g id="xtick_5">
     <g id="line2d_5">
      <g>
       <use style="stroke:#000000;stroke-width:0.8;" x="307.654407" xlink:href="#m69d32f0712" y="307.584"/>
      </g>
     </g>
     <g id="text_5">
      <!-- 1.0 -->
      <defs>
       <path d="M 12.40625 8.296875 
L 28.515625 8.296875 
L 28.515625 63.921875 
L 10.984375 60.40625 
L 10.984375 69.390625 
L 28.421875 72.90625 
L 38.28125 72.90625 
L 38.28125 8.296875 
L 54.390625 8.296875 
L 54.390625 0 
L 12.40625 0 
z
" id="DejaVuSans-49"/>
      </defs>
      <g transform="translate(299.702845 322.182437)scale(0.1 -0.1)">
       <use xlink:href="#DejaVuSans-49"/>
       <use x="63.623047" xlink:href="#DejaVuSans-46"/>
       <use x="95.410156" xlink:href="#DejaVuSans-48"/>
      </g>
     </g>
    </g>
    <g id="xtick_6">
     <g id="line2d_6">
      <g>
       <use style="stroke:#000000;stroke-width:0.8;" x="364.324713" xlink:href="#m69d32f0712" y="307.584"/>
      </g>
     </g>
     <g id="text_6">
      <!-- 1.1 -->
      <g transform="translate(356.37315 322.182437)scale(0.1 -0.1)">
       <use xlink:href="#DejaVuSans-49"/>
       <use x="63.623047" xlink:href="#DejaVuSans-46"/>
       <use x="95.410156" xlink:href="#DejaVuSans-49"/>
      </g>
     </g>
    </g>
    <g id="text_7">
     <!-- 1e10 -->
     <defs>
      <path d="M 56.203125 29.59375 
L 56.203125 25.203125 
L 14.890625 25.203125 
Q 15.484375 15.921875 20.484375 11.0625 
Q 25.484375 6.203125 34.421875 6.203125 
Q 39.59375 6.203125 44.453125 7.46875 
Q 49.3125 8.734375 54.109375 11.28125 
L 54.109375 2.78125 
Q 49.265625 0.734375 44.1875 -0.34375 
Q 39.109375 -1.421875 33.890625 -1.421875 
Q 20.796875 -1.421875 13.15625 6.1875 
Q 5.515625 13.8125 5.515625 26.8125 
Q 5.515625 40.234375 12.765625 48.109375 
Q 20.015625 56 32.328125 56 
Q 43.359375 56 49.78125 48.890625 
Q 56.203125 41.796875 56.203125 29.59375 
z
M 47.21875 32.234375 
Q 47.125 39.59375 43.09375 43.984375 
Q 39.0625 48.390625 32.421875 48.390625 
Q 24.90625 48.390625 20.390625 44.140625 
Q 15.875 39.890625 15.1875 32.171875 
z
" id="DejaVuSans-101"/>
     </defs>
     <g transform="translate(389.479375 334.860562)scale(0.1 -0.1)">
      <use xlink:href="#DejaVuSans-49"/>
      <use x="63.623047" xlink:href="#DejaVuSans-101"/>
      <use x="125.146484" xlink:href="#DejaVuSans-49"/>
      <use x="188.769531" xlink:href="#DejaVuSans-48"/>
     </g>
    </g>
   </g>
   <g id="matplotlib.axis_2">
    <g id="ytick_1">
     <g id="line2d_7">
      <defs>
       <path d="M 0 0 
L -3.5 0 
" id="ma5e8544f53" style="stroke:#000000;stroke-width:0.8;"/>
      </defs>
      <g>
       <use style="stroke:#000000;stroke-width:0.8;" x="57.6" xlink:href="#ma5e8544f53" y="277.944639"/>
      </g>
     </g>
     <g id="text_8">
      <!-- −0.02 -->
      <defs>
       <path d="M 10.59375 35.5 
L 73.1875 35.5 
L 73.1875 27.203125 
L 10.59375 27.203125 
z
" id="DejaVuSans-8722"/>
       <path d="M 19.1875 8.296875 
L 53.609375 8.296875 
L 53.609375 0 
L 7.328125 0 
L 7.328125 8.296875 
Q 12.9375 14.109375 22.625 23.890625 
Q 32.328125 33.6875 34.8125 36.53125 
Q 39.546875 41.84375 41.421875 45.53125 
Q 43.3125 49.21875 43.3125 52.78125 
Q 43.3125 58.59375 39.234375 62.25 
Q 35.15625 65.921875 28.609375 65.921875 
Q 23.96875 65.921875 18.8125 64.3125 
Q 13.671875 62.703125 7.8125 59.421875 
L 7.8125 69.390625 
Q 13.765625 71.78125 18.9375 73 
Q 24.125 74.21875 28.421875 74.21875 
Q 39.75 74.21875 46.484375 68.546875 
Q 53.21875 62.890625 53.21875 53.421875 
Q 53.21875 48.921875 51.53125 44.890625 
Q 49.859375 40.875 45.40625 35.40625 
Q 44.1875 33.984375 37.640625 27.21875 
Q 31.109375 20.453125 19.1875 8.296875 
z
" id="DejaVuSans-50"/>
      </defs>
      <g transform="translate(19.954687 281.743858)scale(0.1 -0.1)">
       <use xlink:href="#DejaVuSans-8722"/>
       <use x="83.789062" xlink:href="#DejaVuSans-48"/>
       <use x="147.412109" xlink:href="#DejaVuSans-46"/>
       <use x="179.199219" xlink:href="#DejaVuSans-48"/>
       <use x="242.822266" xlink:href="#DejaVuSans-50"/>
      </g>
     </g>
    </g>
    <g id="ytick_2">
     <g id="line2d_8">
      <g>
       <use style="stroke:#000000;stroke-width:0.8;" x="57.6" xlink:href="#ma5e8544f53" y="245.318949"/>
      </g>
     </g>
     <g id="text_9">
      <!-- −0.01 -->
      <g transform="translate(19.954687 249.118167)scale(0.1 -0.1)">
       <use xlink:href="#DejaVuSans-8722"/>
       <use x="83.789062" xlink:href="#DejaVuSans-48"/>
       <use x="147.412109" xlink:href="#DejaVuSans-46"/>
       <use x="179.199219" xlink:href="#DejaVuSans-48"/>
       <use x="242.822266" xlink:href="#DejaVuSans-49"/>
      </g>
     </g>
    </g>
    <g id="ytick_3">
     <g id="line2d_9">
      <g>
       <use style="stroke:#000000;stroke-width:0.8;" x="57.6" xlink:href="#ma5e8544f53" y="212.693259"/>
      </g>
     </g>
     <g id="text_10">
      <!-- 0.00 -->
      <g transform="translate(28.334375 216.492477)scale(0.1 -0.1)">
       <use xlink:href="#DejaVuSans-48"/>
       <use x="63.623047" xlink:href="#DejaVuSans-46"/>
       <use x="95.410156" xlink:href="#DejaVuSans-48"/>
       <use x="159.033203" xlink:href="#DejaVuSans-48"/>
      </g>
     </g>
    </g>
    <g id="ytick_4">
     <g id="line2d_10">
      <g>
       <use style="stroke:#000000;stroke-width:0.8;" x="57.6" xlink:href="#ma5e8544f53" y="180.067569"/>
      </g>
     </g>
     <g id="text_11">
      <!-- 0.01 -->
      <g transform="translate(28.334375 183.866787)scale(0.1 -0.1)">
       <use xlink:href="#DejaVuSans-48"/>
       <use x="63.623047" xlink:href="#DejaVuSans-46"/>
       <use x="95.410156" xlink:href="#DejaVuSans-48"/>
       <use x="159.033203" xlink:href="#DejaVuSans-49"/>
      </g>
     </g>
    </g>
    <g id="ytick_5">
     <g id="line2d_11">
      <g>
       <use style="stroke:#000000;stroke-width:0.8;" x="57.6" xlink:href="#ma5e8544f53" y="147.441878"/>
      </g>
     </g>
     <g id="text_12">
      <!-- 0.02 -->
      <g transform="translate(28.334375 151.241097)scale(0.1 -0.1)">
       <use xlink:href="#DejaVuSans-48"/>
       <use x="63.623047" xlink:href="#DejaVuSans-46"/>
       <use x="95.410156" xlink:href="#DejaVuSans-48"/>
       <use x="159.033203" xlink:href="#DejaVuSans-50"/>
      </g>
     </g>
    </g>
    <g id="ytick_6">
     <g id="line2d_12">
      <g>
       <use style="stroke:#000000;stroke-width:0.8;" x="57.6" xlink:href="#ma5e8544f53" y="114.816188"/>
      </g>
     </g>
     <g id="text_13">
      <!-- 0.03 -->
      <defs>
       <path d="M 40.578125 39.3125 
Q 47.65625 37.796875 51.625 33 
Q 55.609375 28.21875 55.609375 21.1875 
Q 55.609375 10.40625 48.1875 4.484375 
Q 40.765625 -1.421875 27.09375 -1.421875 
Q 22.515625 -1.421875 17.65625 -0.515625 
Q 12.796875 0.390625 7.625 2.203125 
L 7.625 11.71875 
Q 11.71875 9.328125 16.59375 8.109375 
Q 21.484375 6.890625 26.8125 6.890625 
Q 36.078125 6.890625 40.9375 10.546875 
Q 45.796875 14.203125 45.796875 21.1875 
Q 45.796875 27.640625 41.28125 31.265625 
Q 36.765625 34.90625 28.71875 34.90625 
L 20.21875 34.90625 
L 20.21875 43.015625 
L 29.109375 43.015625 
Q 36.375 43.015625 40.234375 45.921875 
Q 44.09375 48.828125 44.09375 54.296875 
Q 44.09375 59.90625 40.109375 62.90625 
Q 36.140625 65.921875 28.71875 65.921875 
Q 24.65625 65.921875 20.015625 65.03125 
Q 15.375 64.15625 9.8125 62.3125 
L 9.8125 71.09375 
Q 15.4375 72.65625 20.34375 73.4375 
Q 25.25 74.21875 29.59375 74.21875 
Q 40.828125 74.21875 47.359375 69.109375 
Q 53.90625 64.015625 53.90625 55.328125 
Q 53.90625 49.265625 50.4375 45.09375 
Q 46.96875 40.921875 40.578125 39.3125 
z
" id="DejaVuSans-51"/>
      </defs>
      <g transform="translate(28.334375 118.615407)scale(0.1 -0.1)">
       <use xlink:href="#DejaVuSans-48"/>
       <use x="63.623047" xlink:href="#DejaVuSans-46"/>
       <use x="95.410156" xlink:href="#DejaVuSans-48"/>
       <use x="159.033203" xlink:href="#DejaVuSans-51"/>
      </g>
     </g>
    </g>
    <g id="ytick_7">
     <g id="line2d_13">
      <g>
       <use style="stroke:#000000;stroke-width:0.8;" x="57.6" xlink:href="#ma5e8544f53" y="82.190498"/>
      </g>
     </g>
     <g id="text_14">
      <!-- 0.04 -->
      <defs>
       <path d="M 37.796875 64.3125 
L 12.890625 25.390625 
L 37.796875 25.390625 
z
M 35.203125 72.90625 
L 47.609375 72.90625 
L 47.609375 25.390625 
L 58.015625 25.390625 
L 58.015625 17.1875 
L 47.609375 17.1875 
L 47.609375 0 
L 37.796875 0 
L 37.796875 17.1875 
L 4.890625 17.1875 
L 4.890625 26.703125 
z
" id="DejaVuSans-52"/>
      </defs>
      <g transform="translate(28.334375 85.989717)scale(0.1 -0.1)">
       <use xlink:href="#DejaVuSans-48"/>
       <use x="63.623047" xlink:href="#DejaVuSans-46"/>
       <use x="95.410156" xlink:href="#DejaVuSans-48"/>
       <use x="159.033203" xlink:href="#DejaVuSans-52"/>
      </g>
     </g>
    </g>
    <g id="ytick_8">
     <g id="line2d_14">
      <g>
       <use style="stroke:#000000;stroke-width:0.8;" x="57.6" xlink:href="#ma5e8544f53" y="49.564808"/>
      </g>
     </g>
     <g id="text_15">
      <!-- 0.05 -->
      <defs>
       <path d="M 10.796875 72.90625 
L 49.515625 72.90625 
L 49.515625 64.59375 
L 19.828125 64.59375 
L 19.828125 46.734375 
Q 21.96875 47.46875 24.109375 47.828125 
Q 26.265625 48.1875 28.421875 48.1875 
Q 40.625 48.1875 47.75 41.5 
Q 54.890625 34.8125 54.890625 23.390625 
Q 54.890625 11.625 47.5625 5.09375 
Q 40.234375 -1.421875 26.90625 -1.421875 
Q 22.3125 -1.421875 17.546875 -0.640625 
Q 12.796875 0.140625 7.71875 1.703125 
L 7.71875 11.625 
Q 12.109375 9.234375 16.796875 8.0625 
Q 21.484375 6.890625 26.703125 6.890625 
Q 35.15625 6.890625 40.078125 11.328125 
Q 45.015625 15.765625 45.015625 23.390625 
Q 45.015625 31 40.078125 35.4375 
Q 35.15625 39.890625 26.703125 39.890625 
Q 22.75 39.890625 18.8125 39.015625 
Q 14.890625 38.140625 10.796875 36.28125 
z
" id="DejaVuSans-53"/>
      </defs>
      <g transform="translate(28.334375 53.364027)scale(0.1 -0.1)">
       <use xlink:href="#DejaVuSans-48"/>
       <use x="63.623047" xlink:href="#DejaVuSans-46"/>
       <use x="95.410156" xlink:href="#DejaVuSans-48"/>
       <use x="159.033203" xlink:href="#DejaVuSans-53"/>
      </g>
     </g>
    </g>
   </g>
   <g id="line2d_15">
    <path clip-path="url(#p8ab12a221f)" d="M 73.832727 212.631848 
L 75.191114 220.069478 
L 76.549502 224.314997 
L 77.907889 221.009733 
L 79.266276 225.831929 
L 80.624663 234.314523 
L 81.983051 238.348447 
L 83.341438 240.527302 
L 84.699825 241.475193 
L 86.058212 236.647562 
L 87.416599 232.666148 
L 88.774987 224.412308 
L 90.133374 222.54033 
L 91.491761 215.962228 
L 94.208536 193.010812 
L 95.566923 184.18316 
L 96.92531 178.498185 
L 98.283697 177.199365 
L 101.000472 183.575427 
L 103.717246 204.553294 
L 105.075633 223.533557 
L 106.434021 244.30133 
L 107.792408 261.927237 
L 109.150795 269.208092 
L 110.509182 271.502597 
L 111.867569 278.54755 
L 113.225957 278.637003 
L 114.584344 278.077661 
L 115.942731 275.751342 
L 117.301118 277.414401 
L 118.659506 255.758322 
L 120.017893 257.797894 
L 121.37628 253.877443 
L 122.734667 250.654872 
L 124.093054 244.979056 
L 125.451442 243.036594 
L 128.168216 242.700593 
L 129.526603 240.749047 
L 130.88499 238.524775 
L 132.243378 237.238163 
L 133.601765 234.100579 
L 134.960152 231.73567 
L 136.318539 228.460258 
L 137.676927 226.406234 
L 139.035314 221.660232 
L 140.393701 215.526663 
L 141.752088 212.744508 
L 143.110475 212.061641 
L 144.468863 212.752592 
L 145.82725 210.081325 
L 147.185637 209.205369 
L 148.544024 206.633393 
L 149.902412 205.954766 
L 151.260799 206.297795 
L 152.619186 204.924382 
L 153.977573 206.139377 
L 155.33596 206.639446 
L 156.694348 205.809144 
L 158.052735 207.378749 
L 159.411122 205.852693 
L 160.769509 215.721669 
L 162.127897 200.020487 
L 163.486284 202.381825 
L 164.844671 204.330877 
L 166.203058 203.030139 
L 167.561445 199.72129 
L 168.919833 198.388174 
L 170.27822 198.61688 
L 171.636607 201.335903 
L 172.994994 203.288886 
L 174.353382 206.681866 
L 175.711769 208.398735 
L 177.070156 209.591529 
L 178.428543 211.066126 
L 179.78693 212.125214 
L 181.145318 213.833822 
L 182.503705 216.235179 
L 183.862092 217.822172 
L 185.220479 217.198172 
L 187.937254 223.297551 
L 189.295641 225.052043 
L 190.654028 227.868625 
L 192.012415 228.492522 
L 193.370803 228.916598 
L 194.72919 228.154011 
L 196.087577 227.838574 
L 197.445964 228.098341 
L 198.804351 227.259072 
L 200.162739 227.048183 
L 201.521126 227.46414 
L 202.879513 227.609527 
L 204.2379 232.643193 
L 205.596288 223.62383 
L 206.954675 224.86919 
L 208.313062 223.160868 
L 209.671449 221.789358 
L 211.029836 217.734963 
L 212.388224 210.45767 
L 213.746611 205.111385 
L 216.463385 188.861883 
L 217.821773 183.392739 
L 219.18016 180.151386 
L 220.538547 178.206258 
L 221.896934 176.999409 
L 223.255321 174.131744 
L 224.613709 170.253674 
L 227.330483 164.426041 
L 228.68887 158.526242 
L 230.047258 154.11972 
L 231.405645 153.13457 
L 232.764032 155.063132 
L 234.122419 160.107403 
L 235.480806 172.179668 
L 236.839194 183.08586 
L 238.197581 195.826781 
L 239.555968 206.339521 
L 240.914355 213.580533 
L 243.63113 230.089992 
L 244.989517 238.851832 
L 246.347904 245.559172 
L 247.706291 263.286311 
L 249.064679 266.924801 
L 250.423066 274.33017 
L 251.781453 277.293017 
L 253.13984 275.481757 
L 254.498227 271.692775 
L 255.856615 264.513404 
L 257.215002 254.668352 
L 258.573389 245.842273 
L 259.931776 238.537766 
L 261.290164 234.945624 
L 264.006938 225.734491 
L 265.365325 229.227045 
L 266.723712 227.035605 
L 268.0821 223.870337 
L 269.440487 223.682338 
L 270.798874 224.405185 
L 272.157261 220.482885 
L 273.515649 219.654872 
L 274.874036 213.127655 
L 276.232423 203.979928 
L 277.59081 199.976412 
L 278.949197 203.578886 
L 280.307585 208.324047 
L 281.665972 219.937733 
L 283.024359 234.279779 
L 284.382746 246.20077 
L 285.741134 245.186317 
L 287.099521 245.805655 
L 288.457908 250.043847 
L 289.816295 255.313831 
L 291.174682 271.816716 
L 292.53307 262.257118 
L 293.891457 268.603228 
L 295.249844 270.764832 
L 296.608231 273.997267 
L 297.966618 275.421125 
L 299.325006 279.219467 
L 300.683393 272.855828 
L 302.04178 269.466206 
L 303.400167 264.487534 
L 304.758555 261.433057 
L 306.116942 261.955003 
L 307.475329 263.319875 
L 308.833716 262.308731 
L 310.192103 264.032331 
L 311.550491 264.550265 
L 312.908878 266.228834 
L 314.267265 266.175565 
L 315.625652 269.801487 
L 316.98404 269.172169 
L 318.342427 269.457486 
L 319.700814 266.237093 
L 321.059201 264.210406 
L 322.417588 258.769908 
L 323.775976 256.890583 
L 325.134363 259.323922 
L 326.49275 255.215469 
L 327.851137 252.782266 
L 329.209525 249.617675 
L 330.567912 246.828609 
L 331.926299 247.184385 
L 333.284686 243.627945 
L 334.643073 239.275401 
L 336.001461 222.700305 
L 337.359848 220.301681 
L 338.718235 216.562755 
L 340.076622 216.355352 
L 341.43501 214.384787 
L 342.793397 213.262837 
L 344.151784 212.475643 
L 345.510171 213.84257 
L 346.868558 214.902049 
L 348.226946 217.027428 
L 349.585333 223.267015 
L 350.94372 227.470533 
L 352.302107 231.152487 
L 353.660494 235.42613 
L 355.018882 241.1683 
L 356.377269 243.602804 
L 357.735656 242.541929 
L 359.094043 245.226788 
L 360.452431 244.423799 
L 361.810818 248.087865 
L 363.169205 244.895842 
L 364.527592 244.861544 
L 365.885979 243.930215 
L 367.244367 239.715462 
L 369.961141 232.743005 
L 372.677916 230.783253 
L 374.036303 235.434839 
L 375.39469 234.734851 
L 376.753077 232.964581 
L 378.111464 238.982044 
L 379.469852 226.302034 
L 380.828239 222.671009 
L 382.186626 221.92177 
L 383.545013 218.955438 
L 384.903401 219.576417 
L 386.261788 216.792965 
L 387.620175 211.487426 
L 388.978562 209.921078 
L 391.695337 208.343677 
L 393.053724 205.830158 
L 394.412111 201.255717 
L 395.770498 200.896189 
L 397.128886 203.352306 
L 398.487273 201.266278 
L 398.487273 201.266278 
" style="fill:none;stroke:#1f77b4;stroke-linecap:square;stroke-width:1.5;"/>
   </g>
   <g id="line2d_16">
    <path clip-path="url(#p8ab12a221f)" d="M 73.832727 199.805531 
L 75.191114 96.519448 
L 76.549502 96.225669 
L 77.907889 104.616882 
L 79.266276 104.177521 
L 80.624663 113.8454 
L 81.983051 117.319903 
L 83.341438 113.648077 
L 84.699825 111.42288 
L 86.058212 113.108287 
L 87.416599 105.060314 
L 88.774987 94.882582 
L 91.491761 78.084936 
L 92.850148 74.301062 
L 95.566923 63.019369 
L 96.92531 56.096769 
L 98.283697 53.568 
L 101.000472 57.607585 
L 102.358859 68.202582 
L 103.717246 86.549251 
L 105.075633 107.243577 
L 107.792408 153.763788 
L 110.509182 187.786616 
L 111.867569 200.341926 
L 113.225957 209.660231 
L 114.584344 213.350323 
L 115.942731 219.924269 
L 117.301118 161.220523 
L 118.659506 233.858695 
L 120.017893 223.224067 
L 121.37628 214.077519 
L 122.734667 209.399101 
L 125.451442 202.632079 
L 126.809829 202.768032 
L 128.168216 199.581377 
L 129.526603 195.788659 
L 130.88499 190.62793 
L 132.243378 189.487159 
L 133.601765 186.818879 
L 134.960152 187.721452 
L 136.318539 187.7704 
L 137.676927 189.752271 
L 139.035314 189.586705 
L 140.393701 189.039358 
L 141.752088 192.872107 
L 143.110475 194.843164 
L 144.468863 198.14578 
L 147.185637 200.307045 
L 149.902412 202.708207 
L 151.260799 200.51589 
L 152.619186 201.196094 
L 153.977573 202.770814 
L 155.33596 200.771343 
L 158.052735 199.347701 
L 159.411122 199.226197 
L 160.769509 151.086391 
L 162.127897 224.69533 
L 163.486284 209.018941 
L 164.844671 205.730295 
L 166.203058 204.461587 
L 167.561445 205.107754 
L 168.919833 207.8173 
L 170.27822 208.217421 
L 171.636607 206.444748 
L 172.994994 205.884257 
L 174.353382 207.186037 
L 175.711769 210.343928 
L 177.070156 211.866536 
L 178.428543 214.299482 
L 179.78693 217.088804 
L 181.145318 220.16273 
L 182.503705 220.090903 
L 183.862092 221.488512 
L 185.220479 223.58245 
L 186.578866 222.956194 
L 187.937254 223.195497 
L 189.295641 225.375155 
L 190.654028 226.267901 
L 192.012415 225.190628 
L 193.370803 221.704702 
L 194.72919 221.501627 
L 196.087577 219.994043 
L 197.445964 219.113633 
L 198.804351 218.626206 
L 200.162739 219.362444 
L 201.521126 216.819174 
L 202.879513 217.539312 
L 204.2379 190.882803 
L 205.596288 234.71582 
L 206.954675 226.861836 
L 208.313062 223.744857 
L 209.671449 222.240834 
L 211.029836 222.716978 
L 212.388224 220.858706 
L 213.746611 220.310377 
L 215.104998 216.961976 
L 216.463385 211.247951 
L 217.821773 207.534042 
L 219.18016 203.121714 
L 220.538547 201.202606 
L 221.896934 198.956992 
L 223.255321 198.190971 
L 227.330483 185.649703 
L 228.68887 180.678372 
L 230.047258 176.359327 
L 231.405645 176.687462 
L 232.764032 181.216064 
L 234.122419 188.799415 
L 235.480806 202.953085 
L 236.839194 213.746513 
L 238.197581 225.961208 
L 239.555968 236.455961 
L 242.272742 245.352256 
L 243.63113 251.541033 
L 244.989517 259.40176 
L 246.347904 270.532845 
L 247.706291 248.541408 
L 249.064679 295.488 
L 250.423066 295.041099 
L 251.781453 293.595456 
L 253.13984 290.145283 
L 255.856615 266.833885 
L 258.573389 239.616267 
L 259.931776 230.56449 
L 261.290164 220.275199 
L 262.648551 216.369902 
L 264.006938 214.957849 
L 265.365325 206.932453 
L 266.723712 201.669555 
L 268.0821 194.58852 
L 269.440487 198.60975 
L 270.798874 197.270247 
L 272.157261 199.620444 
L 273.515649 196.503015 
L 276.232423 172.268596 
L 277.59081 158.049714 
L 278.949197 140.977498 
L 280.307585 133.625696 
L 281.665972 128.284355 
L 285.741134 141.334043 
L 288.457908 163.389708 
L 289.816295 167.658221 
L 291.174682 148.718793 
L 292.53307 193.305451 
L 293.891457 196.473792 
L 295.249844 202.418086 
L 297.966618 223.002736 
L 299.325006 226.658033 
L 300.683393 231.108893 
L 302.04178 240.831657 
L 303.400167 246.312919 
L 304.758555 248.587958 
L 306.116942 254.28121 
L 307.475329 263.024134 
L 308.833716 263.722512 
L 310.192103 265.240763 
L 311.550491 266.482736 
L 312.908878 264.719256 
L 314.267265 266.782858 
L 315.625652 265.237471 
L 316.98404 260.815539 
L 318.342427 259.213303 
L 319.700814 261.860633 
L 321.059201 254.868541 
L 322.417588 255.111972 
L 323.775976 259.232596 
L 325.134363 257.814832 
L 326.49275 257.341376 
L 327.851137 257.987503 
L 329.209525 259.039012 
L 331.926299 249.433371 
L 333.284686 246.296943 
L 334.643073 220.924681 
L 336.001461 261.328497 
L 337.359848 249.983107 
L 338.718235 246.446318 
L 340.076622 247.179224 
L 341.43501 244.382198 
L 342.793397 244.671481 
L 344.151784 248.829706 
L 345.510171 250.626499 
L 346.868558 248.80243 
L 348.226946 247.927725 
L 349.585333 249.618557 
L 350.94372 252.239462 
L 352.302107 251.079657 
L 353.660494 250.50895 
L 355.018882 249.360334 
L 356.377269 244.975449 
L 357.735656 242.68711 
L 359.094043 239.475602 
L 360.452431 238.018789 
L 361.810818 238.864397 
L 363.169205 238.22465 
L 364.527592 237.184777 
L 365.885979 235.33411 
L 367.244367 233.714213 
L 368.602754 233.632011 
L 369.961141 230.374321 
L 371.319528 228.440612 
L 372.677916 228.328691 
L 374.036303 225.545437 
L 375.39469 224.64466 
L 376.753077 221.554557 
L 378.111464 193.575123 
L 379.469852 225.686334 
L 380.828239 221.978176 
L 382.186626 220.656992 
L 383.545013 220.802395 
L 384.903401 219.18094 
L 386.261788 215.234924 
L 387.620175 216.709461 
L 388.978562 214.561652 
L 390.336949 213.252388 
L 391.695337 211.224802 
L 393.053724 211.097187 
L 394.412111 212.381987 
L 395.770498 215.01559 
L 397.128886 214.06226 
L 398.487273 210.450707 
L 398.487273 210.450707 
" style="fill:none;stroke:#ff7f0e;stroke-linecap:square;stroke-width:1.5;"/>
   </g>
   <g id="patch_3">
    <path d="M 57.6 307.584 
L 57.6 41.472 
" style="fill:none;stroke:#000000;stroke-linecap:square;stroke-linejoin:miter;stroke-width:0.8;"/>
   </g>
   <g id="patch_4">
    <path d="M 414.72 307.584 
L 414.72 41.472 
" style="fill:none;stroke:#000000;stroke-linecap:square;stroke-linejoin:miter;stroke-width:0.8;"/>
   </g>
   <g id="patch_5">
    <path d="M 57.6 307.584 
L 414.72 307.584 
" style="fill:none;stroke:#000000;stroke-linecap:square;stroke-linejoin:miter;stroke-width:0.8;"/>
   </g>
   <g id="patch_6">
    <path d="M 57.6 41.472 
L 414.72 41.472 
" style="fill:none;stroke:#000000;stroke-linecap:square;stroke-linejoin:miter;stroke-width:0.8;"/>
   </g>
  </g>
 </g>
 <defs>
  <clipPath id="p8ab12a221f">
   <rect height="266.112" width="357.12" x="57.6" y="41.472"/>
  </clipPath>
 </defs>
</svg>
