G04 #@! TF.GenerationSoftware,KiCad,Pcbnew,5.1.5+dfsg1-2~bpo9+1*
G04 #@! TF.CreationDate,2020-08-27T13:13:01-04:00*
G04 #@! TF.ProjectId,turbidimeter,74757262-6964-4696-9d65-7465722e6b69,rev?*
G04 #@! TF.SameCoordinates,PXc8664b8PY125c7d0*
G04 #@! TF.FileFunction,Copper,L1,Top*
G04 #@! TF.FilePolarity,Positive*
%FSLAX46Y46*%
G04 Gerber Fmt 4.6, Leading zero omitted, Abs format (unit mm)*
G04 Created by KiCad (PCBNEW 5.1.5+dfsg1-2~bpo9+1) date 2020-08-27 13:13:01*
%MOMM*%
%LPD*%
G04 APERTURE LIST*
%ADD10R,1.498600X1.597660*%
%ADD11R,0.998220X1.099820*%
%ADD12R,2.999740X1.249680*%
%ADD13R,1.500000X0.600000*%
%ADD14C,0.150000*%
%ADD15C,2.000000*%
%ADD16C,0.400000*%
%ADD17C,0.500000*%
%ADD18C,0.254000*%
G04 APERTURE END LIST*
D10*
X17343120Y-8977800D03*
X13746480Y-8977800D03*
X17343120Y-14977800D03*
X13746480Y-14977800D03*
X17343120Y-20977800D03*
X13746480Y-20977800D03*
X17343120Y-26977800D03*
X13746480Y-26977800D03*
X17343120Y-32977800D03*
X13746480Y-32977800D03*
X17343120Y-38977800D03*
X13746480Y-38977800D03*
X17343120Y-44977800D03*
X13746480Y-44977800D03*
X17343120Y-50977800D03*
X13746480Y-50977800D03*
D11*
X5257800Y-34427160D03*
X5257800Y-32730440D03*
D12*
X6273800Y-1117600D03*
X6273800Y-3657600D03*
X6273800Y-6197600D03*
X6273800Y-8737600D03*
X6273800Y-11277600D03*
X6273800Y-13817600D03*
D13*
X5097800Y-30784800D03*
X5097800Y-29514800D03*
X5097800Y-28244800D03*
X5097800Y-26974800D03*
X5097800Y-25704800D03*
X5097800Y-24434800D03*
X5097800Y-23164800D03*
X5097800Y-21894800D03*
X10497800Y-21894800D03*
X10497800Y-23164800D03*
X10497800Y-24434800D03*
X10497800Y-25704800D03*
X10497800Y-26974800D03*
X10497800Y-28244800D03*
X10497800Y-29514800D03*
X10497800Y-30784800D03*
G04 #@! TA.AperFunction,SMDPad,CuDef*
D14*
G36*
X9599491Y-11069853D02*
G01*
X9620726Y-11073003D01*
X9641550Y-11078219D01*
X9661762Y-11085451D01*
X9681168Y-11094630D01*
X9699581Y-11105666D01*
X9716824Y-11118454D01*
X9732730Y-11132870D01*
X9747146Y-11148776D01*
X9759934Y-11166019D01*
X9770970Y-11184432D01*
X9780149Y-11203838D01*
X9787381Y-11224050D01*
X9792597Y-11244874D01*
X9795747Y-11266109D01*
X9796800Y-11287550D01*
X9796800Y-11725050D01*
X9795747Y-11746491D01*
X9792597Y-11767726D01*
X9787381Y-11788550D01*
X9780149Y-11808762D01*
X9770970Y-11828168D01*
X9759934Y-11846581D01*
X9747146Y-11863824D01*
X9732730Y-11879730D01*
X9716824Y-11894146D01*
X9699581Y-11906934D01*
X9681168Y-11917970D01*
X9661762Y-11927149D01*
X9641550Y-11934381D01*
X9620726Y-11939597D01*
X9599491Y-11942747D01*
X9578050Y-11943800D01*
X9065550Y-11943800D01*
X9044109Y-11942747D01*
X9022874Y-11939597D01*
X9002050Y-11934381D01*
X8981838Y-11927149D01*
X8962432Y-11917970D01*
X8944019Y-11906934D01*
X8926776Y-11894146D01*
X8910870Y-11879730D01*
X8896454Y-11863824D01*
X8883666Y-11846581D01*
X8872630Y-11828168D01*
X8863451Y-11808762D01*
X8856219Y-11788550D01*
X8851003Y-11767726D01*
X8847853Y-11746491D01*
X8846800Y-11725050D01*
X8846800Y-11287550D01*
X8847853Y-11266109D01*
X8851003Y-11244874D01*
X8856219Y-11224050D01*
X8863451Y-11203838D01*
X8872630Y-11184432D01*
X8883666Y-11166019D01*
X8896454Y-11148776D01*
X8910870Y-11132870D01*
X8926776Y-11118454D01*
X8944019Y-11105666D01*
X8962432Y-11094630D01*
X8981838Y-11085451D01*
X9002050Y-11078219D01*
X9022874Y-11073003D01*
X9044109Y-11069853D01*
X9065550Y-11068800D01*
X9578050Y-11068800D01*
X9599491Y-11069853D01*
G37*
G04 #@! TD.AperFunction*
G04 #@! TA.AperFunction,SMDPad,CuDef*
G36*
X9599491Y-9494853D02*
G01*
X9620726Y-9498003D01*
X9641550Y-9503219D01*
X9661762Y-9510451D01*
X9681168Y-9519630D01*
X9699581Y-9530666D01*
X9716824Y-9543454D01*
X9732730Y-9557870D01*
X9747146Y-9573776D01*
X9759934Y-9591019D01*
X9770970Y-9609432D01*
X9780149Y-9628838D01*
X9787381Y-9649050D01*
X9792597Y-9669874D01*
X9795747Y-9691109D01*
X9796800Y-9712550D01*
X9796800Y-10150050D01*
X9795747Y-10171491D01*
X9792597Y-10192726D01*
X9787381Y-10213550D01*
X9780149Y-10233762D01*
X9770970Y-10253168D01*
X9759934Y-10271581D01*
X9747146Y-10288824D01*
X9732730Y-10304730D01*
X9716824Y-10319146D01*
X9699581Y-10331934D01*
X9681168Y-10342970D01*
X9661762Y-10352149D01*
X9641550Y-10359381D01*
X9620726Y-10364597D01*
X9599491Y-10367747D01*
X9578050Y-10368800D01*
X9065550Y-10368800D01*
X9044109Y-10367747D01*
X9022874Y-10364597D01*
X9002050Y-10359381D01*
X8981838Y-10352149D01*
X8962432Y-10342970D01*
X8944019Y-10331934D01*
X8926776Y-10319146D01*
X8910870Y-10304730D01*
X8896454Y-10288824D01*
X8883666Y-10271581D01*
X8872630Y-10253168D01*
X8863451Y-10233762D01*
X8856219Y-10213550D01*
X8851003Y-10192726D01*
X8847853Y-10171491D01*
X8846800Y-10150050D01*
X8846800Y-9712550D01*
X8847853Y-9691109D01*
X8851003Y-9669874D01*
X8856219Y-9649050D01*
X8863451Y-9628838D01*
X8872630Y-9609432D01*
X8883666Y-9591019D01*
X8896454Y-9573776D01*
X8910870Y-9557870D01*
X8926776Y-9543454D01*
X8944019Y-9530666D01*
X8962432Y-9519630D01*
X8981838Y-9510451D01*
X9002050Y-9503219D01*
X9022874Y-9498003D01*
X9044109Y-9494853D01*
X9065550Y-9493800D01*
X9578050Y-9493800D01*
X9599491Y-9494853D01*
G37*
G04 #@! TD.AperFunction*
G04 #@! TA.AperFunction,SMDPad,CuDef*
G36*
X19188491Y-8503853D02*
G01*
X19209726Y-8507003D01*
X19230550Y-8512219D01*
X19250762Y-8519451D01*
X19270168Y-8528630D01*
X19288581Y-8539666D01*
X19305824Y-8552454D01*
X19321730Y-8566870D01*
X19336146Y-8582776D01*
X19348934Y-8600019D01*
X19359970Y-8618432D01*
X19369149Y-8637838D01*
X19376381Y-8658050D01*
X19381597Y-8678874D01*
X19384747Y-8700109D01*
X19385800Y-8721550D01*
X19385800Y-9234050D01*
X19384747Y-9255491D01*
X19381597Y-9276726D01*
X19376381Y-9297550D01*
X19369149Y-9317762D01*
X19359970Y-9337168D01*
X19348934Y-9355581D01*
X19336146Y-9372824D01*
X19321730Y-9388730D01*
X19305824Y-9403146D01*
X19288581Y-9415934D01*
X19270168Y-9426970D01*
X19250762Y-9436149D01*
X19230550Y-9443381D01*
X19209726Y-9448597D01*
X19188491Y-9451747D01*
X19167050Y-9452800D01*
X18729550Y-9452800D01*
X18708109Y-9451747D01*
X18686874Y-9448597D01*
X18666050Y-9443381D01*
X18645838Y-9436149D01*
X18626432Y-9426970D01*
X18608019Y-9415934D01*
X18590776Y-9403146D01*
X18574870Y-9388730D01*
X18560454Y-9372824D01*
X18547666Y-9355581D01*
X18536630Y-9337168D01*
X18527451Y-9317762D01*
X18520219Y-9297550D01*
X18515003Y-9276726D01*
X18511853Y-9255491D01*
X18510800Y-9234050D01*
X18510800Y-8721550D01*
X18511853Y-8700109D01*
X18515003Y-8678874D01*
X18520219Y-8658050D01*
X18527451Y-8637838D01*
X18536630Y-8618432D01*
X18547666Y-8600019D01*
X18560454Y-8582776D01*
X18574870Y-8566870D01*
X18590776Y-8552454D01*
X18608019Y-8539666D01*
X18626432Y-8528630D01*
X18645838Y-8519451D01*
X18666050Y-8512219D01*
X18686874Y-8507003D01*
X18708109Y-8503853D01*
X18729550Y-8502800D01*
X19167050Y-8502800D01*
X19188491Y-8503853D01*
G37*
G04 #@! TD.AperFunction*
G04 #@! TA.AperFunction,SMDPad,CuDef*
G36*
X20763491Y-8503853D02*
G01*
X20784726Y-8507003D01*
X20805550Y-8512219D01*
X20825762Y-8519451D01*
X20845168Y-8528630D01*
X20863581Y-8539666D01*
X20880824Y-8552454D01*
X20896730Y-8566870D01*
X20911146Y-8582776D01*
X20923934Y-8600019D01*
X20934970Y-8618432D01*
X20944149Y-8637838D01*
X20951381Y-8658050D01*
X20956597Y-8678874D01*
X20959747Y-8700109D01*
X20960800Y-8721550D01*
X20960800Y-9234050D01*
X20959747Y-9255491D01*
X20956597Y-9276726D01*
X20951381Y-9297550D01*
X20944149Y-9317762D01*
X20934970Y-9337168D01*
X20923934Y-9355581D01*
X20911146Y-9372824D01*
X20896730Y-9388730D01*
X20880824Y-9403146D01*
X20863581Y-9415934D01*
X20845168Y-9426970D01*
X20825762Y-9436149D01*
X20805550Y-9443381D01*
X20784726Y-9448597D01*
X20763491Y-9451747D01*
X20742050Y-9452800D01*
X20304550Y-9452800D01*
X20283109Y-9451747D01*
X20261874Y-9448597D01*
X20241050Y-9443381D01*
X20220838Y-9436149D01*
X20201432Y-9426970D01*
X20183019Y-9415934D01*
X20165776Y-9403146D01*
X20149870Y-9388730D01*
X20135454Y-9372824D01*
X20122666Y-9355581D01*
X20111630Y-9337168D01*
X20102451Y-9317762D01*
X20095219Y-9297550D01*
X20090003Y-9276726D01*
X20086853Y-9255491D01*
X20085800Y-9234050D01*
X20085800Y-8721550D01*
X20086853Y-8700109D01*
X20090003Y-8678874D01*
X20095219Y-8658050D01*
X20102451Y-8637838D01*
X20111630Y-8618432D01*
X20122666Y-8600019D01*
X20135454Y-8582776D01*
X20149870Y-8566870D01*
X20165776Y-8552454D01*
X20183019Y-8539666D01*
X20201432Y-8528630D01*
X20220838Y-8519451D01*
X20241050Y-8512219D01*
X20261874Y-8507003D01*
X20283109Y-8503853D01*
X20304550Y-8502800D01*
X20742050Y-8502800D01*
X20763491Y-8503853D01*
G37*
G04 #@! TD.AperFunction*
G04 #@! TA.AperFunction,SMDPad,CuDef*
G36*
X19188491Y-14503853D02*
G01*
X19209726Y-14507003D01*
X19230550Y-14512219D01*
X19250762Y-14519451D01*
X19270168Y-14528630D01*
X19288581Y-14539666D01*
X19305824Y-14552454D01*
X19321730Y-14566870D01*
X19336146Y-14582776D01*
X19348934Y-14600019D01*
X19359970Y-14618432D01*
X19369149Y-14637838D01*
X19376381Y-14658050D01*
X19381597Y-14678874D01*
X19384747Y-14700109D01*
X19385800Y-14721550D01*
X19385800Y-15234050D01*
X19384747Y-15255491D01*
X19381597Y-15276726D01*
X19376381Y-15297550D01*
X19369149Y-15317762D01*
X19359970Y-15337168D01*
X19348934Y-15355581D01*
X19336146Y-15372824D01*
X19321730Y-15388730D01*
X19305824Y-15403146D01*
X19288581Y-15415934D01*
X19270168Y-15426970D01*
X19250762Y-15436149D01*
X19230550Y-15443381D01*
X19209726Y-15448597D01*
X19188491Y-15451747D01*
X19167050Y-15452800D01*
X18729550Y-15452800D01*
X18708109Y-15451747D01*
X18686874Y-15448597D01*
X18666050Y-15443381D01*
X18645838Y-15436149D01*
X18626432Y-15426970D01*
X18608019Y-15415934D01*
X18590776Y-15403146D01*
X18574870Y-15388730D01*
X18560454Y-15372824D01*
X18547666Y-15355581D01*
X18536630Y-15337168D01*
X18527451Y-15317762D01*
X18520219Y-15297550D01*
X18515003Y-15276726D01*
X18511853Y-15255491D01*
X18510800Y-15234050D01*
X18510800Y-14721550D01*
X18511853Y-14700109D01*
X18515003Y-14678874D01*
X18520219Y-14658050D01*
X18527451Y-14637838D01*
X18536630Y-14618432D01*
X18547666Y-14600019D01*
X18560454Y-14582776D01*
X18574870Y-14566870D01*
X18590776Y-14552454D01*
X18608019Y-14539666D01*
X18626432Y-14528630D01*
X18645838Y-14519451D01*
X18666050Y-14512219D01*
X18686874Y-14507003D01*
X18708109Y-14503853D01*
X18729550Y-14502800D01*
X19167050Y-14502800D01*
X19188491Y-14503853D01*
G37*
G04 #@! TD.AperFunction*
G04 #@! TA.AperFunction,SMDPad,CuDef*
G36*
X20763491Y-14503853D02*
G01*
X20784726Y-14507003D01*
X20805550Y-14512219D01*
X20825762Y-14519451D01*
X20845168Y-14528630D01*
X20863581Y-14539666D01*
X20880824Y-14552454D01*
X20896730Y-14566870D01*
X20911146Y-14582776D01*
X20923934Y-14600019D01*
X20934970Y-14618432D01*
X20944149Y-14637838D01*
X20951381Y-14658050D01*
X20956597Y-14678874D01*
X20959747Y-14700109D01*
X20960800Y-14721550D01*
X20960800Y-15234050D01*
X20959747Y-15255491D01*
X20956597Y-15276726D01*
X20951381Y-15297550D01*
X20944149Y-15317762D01*
X20934970Y-15337168D01*
X20923934Y-15355581D01*
X20911146Y-15372824D01*
X20896730Y-15388730D01*
X20880824Y-15403146D01*
X20863581Y-15415934D01*
X20845168Y-15426970D01*
X20825762Y-15436149D01*
X20805550Y-15443381D01*
X20784726Y-15448597D01*
X20763491Y-15451747D01*
X20742050Y-15452800D01*
X20304550Y-15452800D01*
X20283109Y-15451747D01*
X20261874Y-15448597D01*
X20241050Y-15443381D01*
X20220838Y-15436149D01*
X20201432Y-15426970D01*
X20183019Y-15415934D01*
X20165776Y-15403146D01*
X20149870Y-15388730D01*
X20135454Y-15372824D01*
X20122666Y-15355581D01*
X20111630Y-15337168D01*
X20102451Y-15317762D01*
X20095219Y-15297550D01*
X20090003Y-15276726D01*
X20086853Y-15255491D01*
X20085800Y-15234050D01*
X20085800Y-14721550D01*
X20086853Y-14700109D01*
X20090003Y-14678874D01*
X20095219Y-14658050D01*
X20102451Y-14637838D01*
X20111630Y-14618432D01*
X20122666Y-14600019D01*
X20135454Y-14582776D01*
X20149870Y-14566870D01*
X20165776Y-14552454D01*
X20183019Y-14539666D01*
X20201432Y-14528630D01*
X20220838Y-14519451D01*
X20241050Y-14512219D01*
X20261874Y-14507003D01*
X20283109Y-14503853D01*
X20304550Y-14502800D01*
X20742050Y-14502800D01*
X20763491Y-14503853D01*
G37*
G04 #@! TD.AperFunction*
G04 #@! TA.AperFunction,SMDPad,CuDef*
G36*
X19188491Y-20503853D02*
G01*
X19209726Y-20507003D01*
X19230550Y-20512219D01*
X19250762Y-20519451D01*
X19270168Y-20528630D01*
X19288581Y-20539666D01*
X19305824Y-20552454D01*
X19321730Y-20566870D01*
X19336146Y-20582776D01*
X19348934Y-20600019D01*
X19359970Y-20618432D01*
X19369149Y-20637838D01*
X19376381Y-20658050D01*
X19381597Y-20678874D01*
X19384747Y-20700109D01*
X19385800Y-20721550D01*
X19385800Y-21234050D01*
X19384747Y-21255491D01*
X19381597Y-21276726D01*
X19376381Y-21297550D01*
X19369149Y-21317762D01*
X19359970Y-21337168D01*
X19348934Y-21355581D01*
X19336146Y-21372824D01*
X19321730Y-21388730D01*
X19305824Y-21403146D01*
X19288581Y-21415934D01*
X19270168Y-21426970D01*
X19250762Y-21436149D01*
X19230550Y-21443381D01*
X19209726Y-21448597D01*
X19188491Y-21451747D01*
X19167050Y-21452800D01*
X18729550Y-21452800D01*
X18708109Y-21451747D01*
X18686874Y-21448597D01*
X18666050Y-21443381D01*
X18645838Y-21436149D01*
X18626432Y-21426970D01*
X18608019Y-21415934D01*
X18590776Y-21403146D01*
X18574870Y-21388730D01*
X18560454Y-21372824D01*
X18547666Y-21355581D01*
X18536630Y-21337168D01*
X18527451Y-21317762D01*
X18520219Y-21297550D01*
X18515003Y-21276726D01*
X18511853Y-21255491D01*
X18510800Y-21234050D01*
X18510800Y-20721550D01*
X18511853Y-20700109D01*
X18515003Y-20678874D01*
X18520219Y-20658050D01*
X18527451Y-20637838D01*
X18536630Y-20618432D01*
X18547666Y-20600019D01*
X18560454Y-20582776D01*
X18574870Y-20566870D01*
X18590776Y-20552454D01*
X18608019Y-20539666D01*
X18626432Y-20528630D01*
X18645838Y-20519451D01*
X18666050Y-20512219D01*
X18686874Y-20507003D01*
X18708109Y-20503853D01*
X18729550Y-20502800D01*
X19167050Y-20502800D01*
X19188491Y-20503853D01*
G37*
G04 #@! TD.AperFunction*
G04 #@! TA.AperFunction,SMDPad,CuDef*
G36*
X20763491Y-20503853D02*
G01*
X20784726Y-20507003D01*
X20805550Y-20512219D01*
X20825762Y-20519451D01*
X20845168Y-20528630D01*
X20863581Y-20539666D01*
X20880824Y-20552454D01*
X20896730Y-20566870D01*
X20911146Y-20582776D01*
X20923934Y-20600019D01*
X20934970Y-20618432D01*
X20944149Y-20637838D01*
X20951381Y-20658050D01*
X20956597Y-20678874D01*
X20959747Y-20700109D01*
X20960800Y-20721550D01*
X20960800Y-21234050D01*
X20959747Y-21255491D01*
X20956597Y-21276726D01*
X20951381Y-21297550D01*
X20944149Y-21317762D01*
X20934970Y-21337168D01*
X20923934Y-21355581D01*
X20911146Y-21372824D01*
X20896730Y-21388730D01*
X20880824Y-21403146D01*
X20863581Y-21415934D01*
X20845168Y-21426970D01*
X20825762Y-21436149D01*
X20805550Y-21443381D01*
X20784726Y-21448597D01*
X20763491Y-21451747D01*
X20742050Y-21452800D01*
X20304550Y-21452800D01*
X20283109Y-21451747D01*
X20261874Y-21448597D01*
X20241050Y-21443381D01*
X20220838Y-21436149D01*
X20201432Y-21426970D01*
X20183019Y-21415934D01*
X20165776Y-21403146D01*
X20149870Y-21388730D01*
X20135454Y-21372824D01*
X20122666Y-21355581D01*
X20111630Y-21337168D01*
X20102451Y-21317762D01*
X20095219Y-21297550D01*
X20090003Y-21276726D01*
X20086853Y-21255491D01*
X20085800Y-21234050D01*
X20085800Y-20721550D01*
X20086853Y-20700109D01*
X20090003Y-20678874D01*
X20095219Y-20658050D01*
X20102451Y-20637838D01*
X20111630Y-20618432D01*
X20122666Y-20600019D01*
X20135454Y-20582776D01*
X20149870Y-20566870D01*
X20165776Y-20552454D01*
X20183019Y-20539666D01*
X20201432Y-20528630D01*
X20220838Y-20519451D01*
X20241050Y-20512219D01*
X20261874Y-20507003D01*
X20283109Y-20503853D01*
X20304550Y-20502800D01*
X20742050Y-20502800D01*
X20763491Y-20503853D01*
G37*
G04 #@! TD.AperFunction*
G04 #@! TA.AperFunction,SMDPad,CuDef*
G36*
X19188491Y-26503853D02*
G01*
X19209726Y-26507003D01*
X19230550Y-26512219D01*
X19250762Y-26519451D01*
X19270168Y-26528630D01*
X19288581Y-26539666D01*
X19305824Y-26552454D01*
X19321730Y-26566870D01*
X19336146Y-26582776D01*
X19348934Y-26600019D01*
X19359970Y-26618432D01*
X19369149Y-26637838D01*
X19376381Y-26658050D01*
X19381597Y-26678874D01*
X19384747Y-26700109D01*
X19385800Y-26721550D01*
X19385800Y-27234050D01*
X19384747Y-27255491D01*
X19381597Y-27276726D01*
X19376381Y-27297550D01*
X19369149Y-27317762D01*
X19359970Y-27337168D01*
X19348934Y-27355581D01*
X19336146Y-27372824D01*
X19321730Y-27388730D01*
X19305824Y-27403146D01*
X19288581Y-27415934D01*
X19270168Y-27426970D01*
X19250762Y-27436149D01*
X19230550Y-27443381D01*
X19209726Y-27448597D01*
X19188491Y-27451747D01*
X19167050Y-27452800D01*
X18729550Y-27452800D01*
X18708109Y-27451747D01*
X18686874Y-27448597D01*
X18666050Y-27443381D01*
X18645838Y-27436149D01*
X18626432Y-27426970D01*
X18608019Y-27415934D01*
X18590776Y-27403146D01*
X18574870Y-27388730D01*
X18560454Y-27372824D01*
X18547666Y-27355581D01*
X18536630Y-27337168D01*
X18527451Y-27317762D01*
X18520219Y-27297550D01*
X18515003Y-27276726D01*
X18511853Y-27255491D01*
X18510800Y-27234050D01*
X18510800Y-26721550D01*
X18511853Y-26700109D01*
X18515003Y-26678874D01*
X18520219Y-26658050D01*
X18527451Y-26637838D01*
X18536630Y-26618432D01*
X18547666Y-26600019D01*
X18560454Y-26582776D01*
X18574870Y-26566870D01*
X18590776Y-26552454D01*
X18608019Y-26539666D01*
X18626432Y-26528630D01*
X18645838Y-26519451D01*
X18666050Y-26512219D01*
X18686874Y-26507003D01*
X18708109Y-26503853D01*
X18729550Y-26502800D01*
X19167050Y-26502800D01*
X19188491Y-26503853D01*
G37*
G04 #@! TD.AperFunction*
G04 #@! TA.AperFunction,SMDPad,CuDef*
G36*
X20763491Y-26503853D02*
G01*
X20784726Y-26507003D01*
X20805550Y-26512219D01*
X20825762Y-26519451D01*
X20845168Y-26528630D01*
X20863581Y-26539666D01*
X20880824Y-26552454D01*
X20896730Y-26566870D01*
X20911146Y-26582776D01*
X20923934Y-26600019D01*
X20934970Y-26618432D01*
X20944149Y-26637838D01*
X20951381Y-26658050D01*
X20956597Y-26678874D01*
X20959747Y-26700109D01*
X20960800Y-26721550D01*
X20960800Y-27234050D01*
X20959747Y-27255491D01*
X20956597Y-27276726D01*
X20951381Y-27297550D01*
X20944149Y-27317762D01*
X20934970Y-27337168D01*
X20923934Y-27355581D01*
X20911146Y-27372824D01*
X20896730Y-27388730D01*
X20880824Y-27403146D01*
X20863581Y-27415934D01*
X20845168Y-27426970D01*
X20825762Y-27436149D01*
X20805550Y-27443381D01*
X20784726Y-27448597D01*
X20763491Y-27451747D01*
X20742050Y-27452800D01*
X20304550Y-27452800D01*
X20283109Y-27451747D01*
X20261874Y-27448597D01*
X20241050Y-27443381D01*
X20220838Y-27436149D01*
X20201432Y-27426970D01*
X20183019Y-27415934D01*
X20165776Y-27403146D01*
X20149870Y-27388730D01*
X20135454Y-27372824D01*
X20122666Y-27355581D01*
X20111630Y-27337168D01*
X20102451Y-27317762D01*
X20095219Y-27297550D01*
X20090003Y-27276726D01*
X20086853Y-27255491D01*
X20085800Y-27234050D01*
X20085800Y-26721550D01*
X20086853Y-26700109D01*
X20090003Y-26678874D01*
X20095219Y-26658050D01*
X20102451Y-26637838D01*
X20111630Y-26618432D01*
X20122666Y-26600019D01*
X20135454Y-26582776D01*
X20149870Y-26566870D01*
X20165776Y-26552454D01*
X20183019Y-26539666D01*
X20201432Y-26528630D01*
X20220838Y-26519451D01*
X20241050Y-26512219D01*
X20261874Y-26507003D01*
X20283109Y-26503853D01*
X20304550Y-26502800D01*
X20742050Y-26502800D01*
X20763491Y-26503853D01*
G37*
G04 #@! TD.AperFunction*
G04 #@! TA.AperFunction,SMDPad,CuDef*
G36*
X19188491Y-32503853D02*
G01*
X19209726Y-32507003D01*
X19230550Y-32512219D01*
X19250762Y-32519451D01*
X19270168Y-32528630D01*
X19288581Y-32539666D01*
X19305824Y-32552454D01*
X19321730Y-32566870D01*
X19336146Y-32582776D01*
X19348934Y-32600019D01*
X19359970Y-32618432D01*
X19369149Y-32637838D01*
X19376381Y-32658050D01*
X19381597Y-32678874D01*
X19384747Y-32700109D01*
X19385800Y-32721550D01*
X19385800Y-33234050D01*
X19384747Y-33255491D01*
X19381597Y-33276726D01*
X19376381Y-33297550D01*
X19369149Y-33317762D01*
X19359970Y-33337168D01*
X19348934Y-33355581D01*
X19336146Y-33372824D01*
X19321730Y-33388730D01*
X19305824Y-33403146D01*
X19288581Y-33415934D01*
X19270168Y-33426970D01*
X19250762Y-33436149D01*
X19230550Y-33443381D01*
X19209726Y-33448597D01*
X19188491Y-33451747D01*
X19167050Y-33452800D01*
X18729550Y-33452800D01*
X18708109Y-33451747D01*
X18686874Y-33448597D01*
X18666050Y-33443381D01*
X18645838Y-33436149D01*
X18626432Y-33426970D01*
X18608019Y-33415934D01*
X18590776Y-33403146D01*
X18574870Y-33388730D01*
X18560454Y-33372824D01*
X18547666Y-33355581D01*
X18536630Y-33337168D01*
X18527451Y-33317762D01*
X18520219Y-33297550D01*
X18515003Y-33276726D01*
X18511853Y-33255491D01*
X18510800Y-33234050D01*
X18510800Y-32721550D01*
X18511853Y-32700109D01*
X18515003Y-32678874D01*
X18520219Y-32658050D01*
X18527451Y-32637838D01*
X18536630Y-32618432D01*
X18547666Y-32600019D01*
X18560454Y-32582776D01*
X18574870Y-32566870D01*
X18590776Y-32552454D01*
X18608019Y-32539666D01*
X18626432Y-32528630D01*
X18645838Y-32519451D01*
X18666050Y-32512219D01*
X18686874Y-32507003D01*
X18708109Y-32503853D01*
X18729550Y-32502800D01*
X19167050Y-32502800D01*
X19188491Y-32503853D01*
G37*
G04 #@! TD.AperFunction*
G04 #@! TA.AperFunction,SMDPad,CuDef*
G36*
X20763491Y-32503853D02*
G01*
X20784726Y-32507003D01*
X20805550Y-32512219D01*
X20825762Y-32519451D01*
X20845168Y-32528630D01*
X20863581Y-32539666D01*
X20880824Y-32552454D01*
X20896730Y-32566870D01*
X20911146Y-32582776D01*
X20923934Y-32600019D01*
X20934970Y-32618432D01*
X20944149Y-32637838D01*
X20951381Y-32658050D01*
X20956597Y-32678874D01*
X20959747Y-32700109D01*
X20960800Y-32721550D01*
X20960800Y-33234050D01*
X20959747Y-33255491D01*
X20956597Y-33276726D01*
X20951381Y-33297550D01*
X20944149Y-33317762D01*
X20934970Y-33337168D01*
X20923934Y-33355581D01*
X20911146Y-33372824D01*
X20896730Y-33388730D01*
X20880824Y-33403146D01*
X20863581Y-33415934D01*
X20845168Y-33426970D01*
X20825762Y-33436149D01*
X20805550Y-33443381D01*
X20784726Y-33448597D01*
X20763491Y-33451747D01*
X20742050Y-33452800D01*
X20304550Y-33452800D01*
X20283109Y-33451747D01*
X20261874Y-33448597D01*
X20241050Y-33443381D01*
X20220838Y-33436149D01*
X20201432Y-33426970D01*
X20183019Y-33415934D01*
X20165776Y-33403146D01*
X20149870Y-33388730D01*
X20135454Y-33372824D01*
X20122666Y-33355581D01*
X20111630Y-33337168D01*
X20102451Y-33317762D01*
X20095219Y-33297550D01*
X20090003Y-33276726D01*
X20086853Y-33255491D01*
X20085800Y-33234050D01*
X20085800Y-32721550D01*
X20086853Y-32700109D01*
X20090003Y-32678874D01*
X20095219Y-32658050D01*
X20102451Y-32637838D01*
X20111630Y-32618432D01*
X20122666Y-32600019D01*
X20135454Y-32582776D01*
X20149870Y-32566870D01*
X20165776Y-32552454D01*
X20183019Y-32539666D01*
X20201432Y-32528630D01*
X20220838Y-32519451D01*
X20241050Y-32512219D01*
X20261874Y-32507003D01*
X20283109Y-32503853D01*
X20304550Y-32502800D01*
X20742050Y-32502800D01*
X20763491Y-32503853D01*
G37*
G04 #@! TD.AperFunction*
G04 #@! TA.AperFunction,SMDPad,CuDef*
G36*
X19188491Y-38503853D02*
G01*
X19209726Y-38507003D01*
X19230550Y-38512219D01*
X19250762Y-38519451D01*
X19270168Y-38528630D01*
X19288581Y-38539666D01*
X19305824Y-38552454D01*
X19321730Y-38566870D01*
X19336146Y-38582776D01*
X19348934Y-38600019D01*
X19359970Y-38618432D01*
X19369149Y-38637838D01*
X19376381Y-38658050D01*
X19381597Y-38678874D01*
X19384747Y-38700109D01*
X19385800Y-38721550D01*
X19385800Y-39234050D01*
X19384747Y-39255491D01*
X19381597Y-39276726D01*
X19376381Y-39297550D01*
X19369149Y-39317762D01*
X19359970Y-39337168D01*
X19348934Y-39355581D01*
X19336146Y-39372824D01*
X19321730Y-39388730D01*
X19305824Y-39403146D01*
X19288581Y-39415934D01*
X19270168Y-39426970D01*
X19250762Y-39436149D01*
X19230550Y-39443381D01*
X19209726Y-39448597D01*
X19188491Y-39451747D01*
X19167050Y-39452800D01*
X18729550Y-39452800D01*
X18708109Y-39451747D01*
X18686874Y-39448597D01*
X18666050Y-39443381D01*
X18645838Y-39436149D01*
X18626432Y-39426970D01*
X18608019Y-39415934D01*
X18590776Y-39403146D01*
X18574870Y-39388730D01*
X18560454Y-39372824D01*
X18547666Y-39355581D01*
X18536630Y-39337168D01*
X18527451Y-39317762D01*
X18520219Y-39297550D01*
X18515003Y-39276726D01*
X18511853Y-39255491D01*
X18510800Y-39234050D01*
X18510800Y-38721550D01*
X18511853Y-38700109D01*
X18515003Y-38678874D01*
X18520219Y-38658050D01*
X18527451Y-38637838D01*
X18536630Y-38618432D01*
X18547666Y-38600019D01*
X18560454Y-38582776D01*
X18574870Y-38566870D01*
X18590776Y-38552454D01*
X18608019Y-38539666D01*
X18626432Y-38528630D01*
X18645838Y-38519451D01*
X18666050Y-38512219D01*
X18686874Y-38507003D01*
X18708109Y-38503853D01*
X18729550Y-38502800D01*
X19167050Y-38502800D01*
X19188491Y-38503853D01*
G37*
G04 #@! TD.AperFunction*
G04 #@! TA.AperFunction,SMDPad,CuDef*
G36*
X20763491Y-38503853D02*
G01*
X20784726Y-38507003D01*
X20805550Y-38512219D01*
X20825762Y-38519451D01*
X20845168Y-38528630D01*
X20863581Y-38539666D01*
X20880824Y-38552454D01*
X20896730Y-38566870D01*
X20911146Y-38582776D01*
X20923934Y-38600019D01*
X20934970Y-38618432D01*
X20944149Y-38637838D01*
X20951381Y-38658050D01*
X20956597Y-38678874D01*
X20959747Y-38700109D01*
X20960800Y-38721550D01*
X20960800Y-39234050D01*
X20959747Y-39255491D01*
X20956597Y-39276726D01*
X20951381Y-39297550D01*
X20944149Y-39317762D01*
X20934970Y-39337168D01*
X20923934Y-39355581D01*
X20911146Y-39372824D01*
X20896730Y-39388730D01*
X20880824Y-39403146D01*
X20863581Y-39415934D01*
X20845168Y-39426970D01*
X20825762Y-39436149D01*
X20805550Y-39443381D01*
X20784726Y-39448597D01*
X20763491Y-39451747D01*
X20742050Y-39452800D01*
X20304550Y-39452800D01*
X20283109Y-39451747D01*
X20261874Y-39448597D01*
X20241050Y-39443381D01*
X20220838Y-39436149D01*
X20201432Y-39426970D01*
X20183019Y-39415934D01*
X20165776Y-39403146D01*
X20149870Y-39388730D01*
X20135454Y-39372824D01*
X20122666Y-39355581D01*
X20111630Y-39337168D01*
X20102451Y-39317762D01*
X20095219Y-39297550D01*
X20090003Y-39276726D01*
X20086853Y-39255491D01*
X20085800Y-39234050D01*
X20085800Y-38721550D01*
X20086853Y-38700109D01*
X20090003Y-38678874D01*
X20095219Y-38658050D01*
X20102451Y-38637838D01*
X20111630Y-38618432D01*
X20122666Y-38600019D01*
X20135454Y-38582776D01*
X20149870Y-38566870D01*
X20165776Y-38552454D01*
X20183019Y-38539666D01*
X20201432Y-38528630D01*
X20220838Y-38519451D01*
X20241050Y-38512219D01*
X20261874Y-38507003D01*
X20283109Y-38503853D01*
X20304550Y-38502800D01*
X20742050Y-38502800D01*
X20763491Y-38503853D01*
G37*
G04 #@! TD.AperFunction*
G04 #@! TA.AperFunction,SMDPad,CuDef*
G36*
X19188491Y-44503853D02*
G01*
X19209726Y-44507003D01*
X19230550Y-44512219D01*
X19250762Y-44519451D01*
X19270168Y-44528630D01*
X19288581Y-44539666D01*
X19305824Y-44552454D01*
X19321730Y-44566870D01*
X19336146Y-44582776D01*
X19348934Y-44600019D01*
X19359970Y-44618432D01*
X19369149Y-44637838D01*
X19376381Y-44658050D01*
X19381597Y-44678874D01*
X19384747Y-44700109D01*
X19385800Y-44721550D01*
X19385800Y-45234050D01*
X19384747Y-45255491D01*
X19381597Y-45276726D01*
X19376381Y-45297550D01*
X19369149Y-45317762D01*
X19359970Y-45337168D01*
X19348934Y-45355581D01*
X19336146Y-45372824D01*
X19321730Y-45388730D01*
X19305824Y-45403146D01*
X19288581Y-45415934D01*
X19270168Y-45426970D01*
X19250762Y-45436149D01*
X19230550Y-45443381D01*
X19209726Y-45448597D01*
X19188491Y-45451747D01*
X19167050Y-45452800D01*
X18729550Y-45452800D01*
X18708109Y-45451747D01*
X18686874Y-45448597D01*
X18666050Y-45443381D01*
X18645838Y-45436149D01*
X18626432Y-45426970D01*
X18608019Y-45415934D01*
X18590776Y-45403146D01*
X18574870Y-45388730D01*
X18560454Y-45372824D01*
X18547666Y-45355581D01*
X18536630Y-45337168D01*
X18527451Y-45317762D01*
X18520219Y-45297550D01*
X18515003Y-45276726D01*
X18511853Y-45255491D01*
X18510800Y-45234050D01*
X18510800Y-44721550D01*
X18511853Y-44700109D01*
X18515003Y-44678874D01*
X18520219Y-44658050D01*
X18527451Y-44637838D01*
X18536630Y-44618432D01*
X18547666Y-44600019D01*
X18560454Y-44582776D01*
X18574870Y-44566870D01*
X18590776Y-44552454D01*
X18608019Y-44539666D01*
X18626432Y-44528630D01*
X18645838Y-44519451D01*
X18666050Y-44512219D01*
X18686874Y-44507003D01*
X18708109Y-44503853D01*
X18729550Y-44502800D01*
X19167050Y-44502800D01*
X19188491Y-44503853D01*
G37*
G04 #@! TD.AperFunction*
G04 #@! TA.AperFunction,SMDPad,CuDef*
G36*
X20763491Y-44503853D02*
G01*
X20784726Y-44507003D01*
X20805550Y-44512219D01*
X20825762Y-44519451D01*
X20845168Y-44528630D01*
X20863581Y-44539666D01*
X20880824Y-44552454D01*
X20896730Y-44566870D01*
X20911146Y-44582776D01*
X20923934Y-44600019D01*
X20934970Y-44618432D01*
X20944149Y-44637838D01*
X20951381Y-44658050D01*
X20956597Y-44678874D01*
X20959747Y-44700109D01*
X20960800Y-44721550D01*
X20960800Y-45234050D01*
X20959747Y-45255491D01*
X20956597Y-45276726D01*
X20951381Y-45297550D01*
X20944149Y-45317762D01*
X20934970Y-45337168D01*
X20923934Y-45355581D01*
X20911146Y-45372824D01*
X20896730Y-45388730D01*
X20880824Y-45403146D01*
X20863581Y-45415934D01*
X20845168Y-45426970D01*
X20825762Y-45436149D01*
X20805550Y-45443381D01*
X20784726Y-45448597D01*
X20763491Y-45451747D01*
X20742050Y-45452800D01*
X20304550Y-45452800D01*
X20283109Y-45451747D01*
X20261874Y-45448597D01*
X20241050Y-45443381D01*
X20220838Y-45436149D01*
X20201432Y-45426970D01*
X20183019Y-45415934D01*
X20165776Y-45403146D01*
X20149870Y-45388730D01*
X20135454Y-45372824D01*
X20122666Y-45355581D01*
X20111630Y-45337168D01*
X20102451Y-45317762D01*
X20095219Y-45297550D01*
X20090003Y-45276726D01*
X20086853Y-45255491D01*
X20085800Y-45234050D01*
X20085800Y-44721550D01*
X20086853Y-44700109D01*
X20090003Y-44678874D01*
X20095219Y-44658050D01*
X20102451Y-44637838D01*
X20111630Y-44618432D01*
X20122666Y-44600019D01*
X20135454Y-44582776D01*
X20149870Y-44566870D01*
X20165776Y-44552454D01*
X20183019Y-44539666D01*
X20201432Y-44528630D01*
X20220838Y-44519451D01*
X20241050Y-44512219D01*
X20261874Y-44507003D01*
X20283109Y-44503853D01*
X20304550Y-44502800D01*
X20742050Y-44502800D01*
X20763491Y-44503853D01*
G37*
G04 #@! TD.AperFunction*
G04 #@! TA.AperFunction,SMDPad,CuDef*
G36*
X19188491Y-50503853D02*
G01*
X19209726Y-50507003D01*
X19230550Y-50512219D01*
X19250762Y-50519451D01*
X19270168Y-50528630D01*
X19288581Y-50539666D01*
X19305824Y-50552454D01*
X19321730Y-50566870D01*
X19336146Y-50582776D01*
X19348934Y-50600019D01*
X19359970Y-50618432D01*
X19369149Y-50637838D01*
X19376381Y-50658050D01*
X19381597Y-50678874D01*
X19384747Y-50700109D01*
X19385800Y-50721550D01*
X19385800Y-51234050D01*
X19384747Y-51255491D01*
X19381597Y-51276726D01*
X19376381Y-51297550D01*
X19369149Y-51317762D01*
X19359970Y-51337168D01*
X19348934Y-51355581D01*
X19336146Y-51372824D01*
X19321730Y-51388730D01*
X19305824Y-51403146D01*
X19288581Y-51415934D01*
X19270168Y-51426970D01*
X19250762Y-51436149D01*
X19230550Y-51443381D01*
X19209726Y-51448597D01*
X19188491Y-51451747D01*
X19167050Y-51452800D01*
X18729550Y-51452800D01*
X18708109Y-51451747D01*
X18686874Y-51448597D01*
X18666050Y-51443381D01*
X18645838Y-51436149D01*
X18626432Y-51426970D01*
X18608019Y-51415934D01*
X18590776Y-51403146D01*
X18574870Y-51388730D01*
X18560454Y-51372824D01*
X18547666Y-51355581D01*
X18536630Y-51337168D01*
X18527451Y-51317762D01*
X18520219Y-51297550D01*
X18515003Y-51276726D01*
X18511853Y-51255491D01*
X18510800Y-51234050D01*
X18510800Y-50721550D01*
X18511853Y-50700109D01*
X18515003Y-50678874D01*
X18520219Y-50658050D01*
X18527451Y-50637838D01*
X18536630Y-50618432D01*
X18547666Y-50600019D01*
X18560454Y-50582776D01*
X18574870Y-50566870D01*
X18590776Y-50552454D01*
X18608019Y-50539666D01*
X18626432Y-50528630D01*
X18645838Y-50519451D01*
X18666050Y-50512219D01*
X18686874Y-50507003D01*
X18708109Y-50503853D01*
X18729550Y-50502800D01*
X19167050Y-50502800D01*
X19188491Y-50503853D01*
G37*
G04 #@! TD.AperFunction*
G04 #@! TA.AperFunction,SMDPad,CuDef*
G36*
X20763491Y-50503853D02*
G01*
X20784726Y-50507003D01*
X20805550Y-50512219D01*
X20825762Y-50519451D01*
X20845168Y-50528630D01*
X20863581Y-50539666D01*
X20880824Y-50552454D01*
X20896730Y-50566870D01*
X20911146Y-50582776D01*
X20923934Y-50600019D01*
X20934970Y-50618432D01*
X20944149Y-50637838D01*
X20951381Y-50658050D01*
X20956597Y-50678874D01*
X20959747Y-50700109D01*
X20960800Y-50721550D01*
X20960800Y-51234050D01*
X20959747Y-51255491D01*
X20956597Y-51276726D01*
X20951381Y-51297550D01*
X20944149Y-51317762D01*
X20934970Y-51337168D01*
X20923934Y-51355581D01*
X20911146Y-51372824D01*
X20896730Y-51388730D01*
X20880824Y-51403146D01*
X20863581Y-51415934D01*
X20845168Y-51426970D01*
X20825762Y-51436149D01*
X20805550Y-51443381D01*
X20784726Y-51448597D01*
X20763491Y-51451747D01*
X20742050Y-51452800D01*
X20304550Y-51452800D01*
X20283109Y-51451747D01*
X20261874Y-51448597D01*
X20241050Y-51443381D01*
X20220838Y-51436149D01*
X20201432Y-51426970D01*
X20183019Y-51415934D01*
X20165776Y-51403146D01*
X20149870Y-51388730D01*
X20135454Y-51372824D01*
X20122666Y-51355581D01*
X20111630Y-51337168D01*
X20102451Y-51317762D01*
X20095219Y-51297550D01*
X20090003Y-51276726D01*
X20086853Y-51255491D01*
X20085800Y-51234050D01*
X20085800Y-50721550D01*
X20086853Y-50700109D01*
X20090003Y-50678874D01*
X20095219Y-50658050D01*
X20102451Y-50637838D01*
X20111630Y-50618432D01*
X20122666Y-50600019D01*
X20135454Y-50582776D01*
X20149870Y-50566870D01*
X20165776Y-50552454D01*
X20183019Y-50539666D01*
X20201432Y-50528630D01*
X20220838Y-50519451D01*
X20241050Y-50512219D01*
X20261874Y-50507003D01*
X20283109Y-50503853D01*
X20304550Y-50502800D01*
X20742050Y-50502800D01*
X20763491Y-50503853D01*
G37*
G04 #@! TD.AperFunction*
D15*
X13544800Y-10976800D03*
X17544800Y-18977800D03*
X13544800Y-40976800D03*
X17544800Y-48977800D03*
D16*
X5097800Y-32570440D02*
X5257800Y-32730440D01*
X5097800Y-30784800D02*
X5097800Y-32570440D01*
X1066800Y-10985500D02*
X1066800Y-6913930D01*
X4373930Y-3606800D02*
X6273800Y-3606800D01*
X1079500Y-10998200D02*
X1066800Y-10985500D01*
X1079500Y-26873200D02*
X1079500Y-10998200D01*
X5257800Y-32730440D02*
X4358690Y-32730440D01*
X1066800Y-6913930D02*
X4373930Y-3606800D01*
X1355791Y-29727541D02*
X1355791Y-27149491D01*
X4358690Y-32730440D02*
X1355791Y-29727541D01*
X1355791Y-27149491D02*
X1079500Y-26873200D01*
D17*
X12497180Y-50977800D02*
X13746480Y-50977800D01*
X9797790Y-48278410D02*
X12497180Y-50977800D01*
X9797790Y-33624788D02*
X9797790Y-48278410D01*
X5687802Y-29514800D02*
X9797790Y-33624788D01*
X5097800Y-29514800D02*
X5687802Y-29514800D01*
X12497180Y-8977800D02*
X13746480Y-8977800D01*
X11847169Y-9627811D02*
X12497180Y-8977800D01*
X11847169Y-22265431D02*
X11847169Y-9627811D01*
X10947800Y-23164800D02*
X11847169Y-22265431D01*
X10497800Y-23164800D02*
X10947800Y-23164800D01*
X13746480Y-16276630D02*
X13746480Y-14977800D01*
X12547179Y-17475931D02*
X13746480Y-16276630D01*
X12547179Y-22975423D02*
X12547179Y-17475931D01*
X11087802Y-24434800D02*
X12547179Y-22975423D01*
X10497800Y-24434800D02*
X11087802Y-24434800D01*
X13746480Y-22276630D02*
X13746480Y-20977800D01*
X13746480Y-23706120D02*
X13746480Y-22276630D01*
X11747800Y-25704800D02*
X13746480Y-23706120D01*
X10497800Y-25704800D02*
X11747800Y-25704800D01*
X13743480Y-26974800D02*
X13746480Y-26977800D01*
X10497800Y-26974800D02*
X13743480Y-26974800D01*
X13746480Y-31678970D02*
X13746480Y-32977800D01*
X11747800Y-28244800D02*
X13746480Y-30243480D01*
X13746480Y-30243480D02*
X13746480Y-31678970D01*
X10497800Y-28244800D02*
X11747800Y-28244800D01*
X12497180Y-38977800D02*
X13746480Y-38977800D01*
X12115800Y-38596420D02*
X12497180Y-38977800D01*
X11861800Y-29514800D02*
X12115800Y-29768800D01*
X12115800Y-29768800D02*
X12115800Y-38596420D01*
X10497800Y-29514800D02*
X11861800Y-29514800D01*
X12497180Y-44977800D02*
X13746480Y-44977800D01*
X10497800Y-42978420D02*
X12497180Y-44977800D01*
X10497800Y-30784800D02*
X10497800Y-42978420D01*
X17343120Y-50977800D02*
X18948300Y-50977800D01*
X18948300Y-44977800D02*
X17343120Y-44977800D01*
X17343120Y-38977800D02*
X18948300Y-38977800D01*
X17343120Y-32977800D02*
X18948300Y-32977800D01*
X17343120Y-26977800D02*
X18948300Y-26977800D01*
X17343120Y-20977800D02*
X18948300Y-20977800D01*
X17343120Y-14977800D02*
X18948300Y-14977800D01*
X17343120Y-8977800D02*
X18948300Y-8977800D01*
D16*
X6205220Y-8750300D02*
X7080250Y-8750300D01*
X2625790Y-10429860D02*
X2625790Y-24382790D01*
X3947800Y-25704800D02*
X5097800Y-25704800D01*
X2625790Y-24382790D02*
X3947800Y-25704800D01*
X4305350Y-8750300D02*
X2625790Y-10429860D01*
X6205220Y-8750300D02*
X4305350Y-8750300D01*
X7080250Y-11290300D02*
X6205220Y-11290300D01*
X5097800Y-23164800D02*
X6247800Y-23164800D01*
X8105105Y-21307494D02*
X8105105Y-21079495D01*
X9321800Y-19862800D02*
X9321800Y-11506300D01*
X8105105Y-21079495D02*
X9321800Y-19862800D01*
X6421220Y-11506300D02*
X6205220Y-11290300D01*
X9321800Y-11506300D02*
X6421220Y-11506300D01*
X6247800Y-23164800D02*
X8105105Y-21307494D01*
X4305350Y-13830300D02*
X6205220Y-13830300D01*
X3947799Y-23734799D02*
X3947799Y-14187851D01*
X3947799Y-14187851D02*
X4305350Y-13830300D01*
X4647800Y-24434800D02*
X3947799Y-23734799D01*
X5097800Y-24434800D02*
X4647800Y-24434800D01*
X4305350Y-6210300D02*
X1955800Y-8559850D01*
X6205220Y-6210300D02*
X4305350Y-6210300D01*
X3947800Y-28244800D02*
X5097800Y-28244800D01*
X1955800Y-26252800D02*
X3947800Y-28244800D01*
X1955800Y-8559850D02*
X1955800Y-26252800D01*
D18*
G36*
X21641602Y-322721D02*
G01*
X21987979Y-54532619D01*
X477998Y-54334917D01*
X304407Y-27166986D01*
X311755Y-27191209D01*
X311756Y-27191210D01*
X388548Y-27334879D01*
X440115Y-27397713D01*
X491894Y-27460806D01*
X523451Y-27486705D01*
X528792Y-27492045D01*
X528791Y-29686927D01*
X524791Y-29727541D01*
X528791Y-29768155D01*
X528791Y-29768164D01*
X540757Y-29889660D01*
X588046Y-30045550D01*
X588047Y-30045551D01*
X664839Y-30189220D01*
X709369Y-30243479D01*
X768185Y-30315147D01*
X799743Y-30341046D01*
X3745194Y-33286499D01*
X3771084Y-33318046D01*
X3802631Y-33343936D01*
X3802637Y-33343942D01*
X3897009Y-33421391D01*
X4036484Y-33495942D01*
X4040680Y-33498185D01*
X4188078Y-33542898D01*
X4234837Y-33630378D01*
X4313189Y-33725851D01*
X4408662Y-33804203D01*
X4517587Y-33862425D01*
X4635777Y-33898277D01*
X4758690Y-33910383D01*
X5756910Y-33910383D01*
X5879823Y-33898277D01*
X5998013Y-33862425D01*
X6106938Y-33804203D01*
X6202411Y-33725851D01*
X6280763Y-33630378D01*
X6338985Y-33521453D01*
X6374837Y-33403263D01*
X6386943Y-33280350D01*
X6386943Y-32180530D01*
X6374837Y-32057617D01*
X6338985Y-31939427D01*
X6280763Y-31830502D01*
X6202411Y-31735029D01*
X6107350Y-31657015D01*
X6197828Y-31608653D01*
X6293301Y-31530301D01*
X6369810Y-31437074D01*
X8920790Y-33988054D01*
X8920791Y-48235320D01*
X8916547Y-48278410D01*
X8933480Y-48450332D01*
X8983628Y-48615646D01*
X9065064Y-48768002D01*
X9147196Y-48868081D01*
X9147199Y-48868084D01*
X9174658Y-48901543D01*
X9208117Y-48929002D01*
X11846588Y-51567474D01*
X11874047Y-51600933D01*
X12007588Y-51710527D01*
X12131259Y-51776630D01*
X12159943Y-51791962D01*
X12325257Y-51842110D01*
X12374070Y-51846918D01*
X12379253Y-51899543D01*
X12415105Y-52017733D01*
X12473327Y-52126658D01*
X12551679Y-52222131D01*
X12647152Y-52300483D01*
X12756077Y-52358705D01*
X12874267Y-52394557D01*
X12997180Y-52406663D01*
X14485899Y-52406663D01*
X14703383Y-52551981D01*
X15026658Y-52685886D01*
X15369845Y-52754150D01*
X15719755Y-52754150D01*
X16062942Y-52685886D01*
X16386217Y-52551981D01*
X16603701Y-52406663D01*
X18092420Y-52406663D01*
X18215333Y-52394557D01*
X18333523Y-52358705D01*
X18442448Y-52300483D01*
X18537921Y-52222131D01*
X18616273Y-52126658D01*
X18644192Y-52074426D01*
X18729550Y-52082833D01*
X19167050Y-52082833D01*
X19332639Y-52066524D01*
X19491865Y-52018223D01*
X19638609Y-51939787D01*
X19767230Y-51834230D01*
X19872787Y-51705609D01*
X19951223Y-51558865D01*
X19999524Y-51399639D01*
X20015833Y-51234050D01*
X20015833Y-50721550D01*
X19999524Y-50555961D01*
X19951223Y-50396735D01*
X19872787Y-50249991D01*
X19767230Y-50121370D01*
X19638609Y-50015813D01*
X19491865Y-49937377D01*
X19332639Y-49889076D01*
X19167050Y-49872767D01*
X18903578Y-49872767D01*
X18986628Y-49748473D01*
X19109275Y-49452378D01*
X19171800Y-49138045D01*
X19171800Y-48817555D01*
X19109275Y-48503222D01*
X18986628Y-48207127D01*
X18808573Y-47940648D01*
X18581952Y-47714027D01*
X18315473Y-47535972D01*
X18019378Y-47413325D01*
X17705045Y-47350800D01*
X17384555Y-47350800D01*
X17070222Y-47413325D01*
X16774127Y-47535972D01*
X16507648Y-47714027D01*
X16281027Y-47940648D01*
X16102972Y-48207127D01*
X15980325Y-48503222D01*
X15917800Y-48817555D01*
X15917800Y-49138045D01*
X15939090Y-49245078D01*
X15719755Y-49201450D01*
X15369845Y-49201450D01*
X15026658Y-49269714D01*
X14703383Y-49403619D01*
X14485899Y-49548937D01*
X12997180Y-49548937D01*
X12874267Y-49561043D01*
X12756077Y-49596895D01*
X12647152Y-49655117D01*
X12551679Y-49733469D01*
X12525281Y-49765635D01*
X10674790Y-47915145D01*
X10674790Y-44395675D01*
X11846583Y-45567468D01*
X11874047Y-45600933D01*
X12007588Y-45710527D01*
X12159943Y-45791962D01*
X12325258Y-45842110D01*
X12374070Y-45846918D01*
X12379253Y-45899543D01*
X12415105Y-46017733D01*
X12473327Y-46126658D01*
X12551679Y-46222131D01*
X12647152Y-46300483D01*
X12756077Y-46358705D01*
X12874267Y-46394557D01*
X12997180Y-46406663D01*
X14485899Y-46406663D01*
X14703383Y-46551981D01*
X15026658Y-46685886D01*
X15369845Y-46754150D01*
X15719755Y-46754150D01*
X16062942Y-46685886D01*
X16386217Y-46551981D01*
X16603701Y-46406663D01*
X18092420Y-46406663D01*
X18215333Y-46394557D01*
X18333523Y-46358705D01*
X18442448Y-46300483D01*
X18537921Y-46222131D01*
X18616273Y-46126658D01*
X18644192Y-46074426D01*
X18729550Y-46082833D01*
X19167050Y-46082833D01*
X19332639Y-46066524D01*
X19491865Y-46018223D01*
X19638609Y-45939787D01*
X19767230Y-45834230D01*
X19872787Y-45705609D01*
X19951223Y-45558865D01*
X19999524Y-45399639D01*
X20015833Y-45234050D01*
X20015833Y-44721550D01*
X19999524Y-44555961D01*
X19951223Y-44396735D01*
X19872787Y-44249991D01*
X19767230Y-44121370D01*
X19638609Y-44015813D01*
X19491865Y-43937377D01*
X19332639Y-43889076D01*
X19167050Y-43872767D01*
X18729550Y-43872767D01*
X18644192Y-43881174D01*
X18616273Y-43828942D01*
X18537921Y-43733469D01*
X18442448Y-43655117D01*
X18333523Y-43596895D01*
X18215333Y-43561043D01*
X18092420Y-43548937D01*
X16603701Y-43548937D01*
X16386217Y-43403619D01*
X16062942Y-43269714D01*
X15719755Y-43201450D01*
X15369845Y-43201450D01*
X15026658Y-43269714D01*
X14703383Y-43403619D01*
X14485899Y-43548937D01*
X12997180Y-43548937D01*
X12874267Y-43561043D01*
X12756077Y-43596895D01*
X12647152Y-43655117D01*
X12551679Y-43733469D01*
X12525281Y-43765636D01*
X11374800Y-42615155D01*
X11374800Y-39070532D01*
X11383074Y-39086012D01*
X11465206Y-39186091D01*
X11465209Y-39186094D01*
X11492668Y-39219553D01*
X11526127Y-39247012D01*
X11846583Y-39567468D01*
X11874047Y-39600933D01*
X12007588Y-39710527D01*
X12131259Y-39776630D01*
X12159943Y-39791962D01*
X12325257Y-39842110D01*
X12373785Y-39846890D01*
X12281027Y-39939648D01*
X12102972Y-40206127D01*
X11980325Y-40502222D01*
X11917800Y-40816555D01*
X11917800Y-41137045D01*
X11980325Y-41451378D01*
X12102972Y-41747473D01*
X12281027Y-42013952D01*
X12507648Y-42240573D01*
X12774127Y-42418628D01*
X13070222Y-42541275D01*
X13384555Y-42603800D01*
X13705045Y-42603800D01*
X14019378Y-42541275D01*
X14315473Y-42418628D01*
X14581952Y-42240573D01*
X14808573Y-42013952D01*
X14986628Y-41747473D01*
X15109275Y-41451378D01*
X15171800Y-41137045D01*
X15171800Y-40816555D01*
X15150717Y-40710563D01*
X15369845Y-40754150D01*
X15719755Y-40754150D01*
X16062942Y-40685886D01*
X16386217Y-40551981D01*
X16603701Y-40406663D01*
X18092420Y-40406663D01*
X18215333Y-40394557D01*
X18333523Y-40358705D01*
X18442448Y-40300483D01*
X18537921Y-40222131D01*
X18616273Y-40126658D01*
X18644192Y-40074426D01*
X18729550Y-40082833D01*
X19167050Y-40082833D01*
X19332639Y-40066524D01*
X19491865Y-40018223D01*
X19638609Y-39939787D01*
X19767230Y-39834230D01*
X19872787Y-39705609D01*
X19951223Y-39558865D01*
X19999524Y-39399639D01*
X20015833Y-39234050D01*
X20015833Y-38721550D01*
X19999524Y-38555961D01*
X19951223Y-38396735D01*
X19872787Y-38249991D01*
X19767230Y-38121370D01*
X19638609Y-38015813D01*
X19491865Y-37937377D01*
X19332639Y-37889076D01*
X19167050Y-37872767D01*
X18729550Y-37872767D01*
X18644192Y-37881174D01*
X18616273Y-37828942D01*
X18537921Y-37733469D01*
X18442448Y-37655117D01*
X18333523Y-37596895D01*
X18215333Y-37561043D01*
X18092420Y-37548937D01*
X16603701Y-37548937D01*
X16386217Y-37403619D01*
X16062942Y-37269714D01*
X15719755Y-37201450D01*
X15369845Y-37201450D01*
X15026658Y-37269714D01*
X14703383Y-37403619D01*
X14485899Y-37548937D01*
X12997180Y-37548937D01*
X12992800Y-37549368D01*
X12992800Y-34406232D01*
X12997180Y-34406663D01*
X14485899Y-34406663D01*
X14703383Y-34551981D01*
X15026658Y-34685886D01*
X15369845Y-34754150D01*
X15719755Y-34754150D01*
X16062942Y-34685886D01*
X16386217Y-34551981D01*
X16603701Y-34406663D01*
X18092420Y-34406663D01*
X18215333Y-34394557D01*
X18333523Y-34358705D01*
X18442448Y-34300483D01*
X18537921Y-34222131D01*
X18616273Y-34126658D01*
X18644192Y-34074426D01*
X18729550Y-34082833D01*
X19167050Y-34082833D01*
X19332639Y-34066524D01*
X19491865Y-34018223D01*
X19638609Y-33939787D01*
X19767230Y-33834230D01*
X19872787Y-33705609D01*
X19951223Y-33558865D01*
X19999524Y-33399639D01*
X20015833Y-33234050D01*
X20015833Y-32721550D01*
X19999524Y-32555961D01*
X19951223Y-32396735D01*
X19872787Y-32249991D01*
X19767230Y-32121370D01*
X19638609Y-32015813D01*
X19491865Y-31937377D01*
X19332639Y-31889076D01*
X19167050Y-31872767D01*
X18729550Y-31872767D01*
X18644192Y-31881174D01*
X18616273Y-31828942D01*
X18537921Y-31733469D01*
X18442448Y-31655117D01*
X18333523Y-31596895D01*
X18215333Y-31561043D01*
X18092420Y-31548937D01*
X16603701Y-31548937D01*
X16386217Y-31403619D01*
X16062942Y-31269714D01*
X15719755Y-31201450D01*
X15369845Y-31201450D01*
X15026658Y-31269714D01*
X14703383Y-31403619D01*
X14623480Y-31457009D01*
X14623480Y-30286549D01*
X14627722Y-30243479D01*
X14623480Y-30200410D01*
X14623480Y-30200401D01*
X14610790Y-30071558D01*
X14560642Y-29906243D01*
X14479207Y-29753888D01*
X14369613Y-29620347D01*
X14336149Y-29592884D01*
X13149928Y-28406663D01*
X14485899Y-28406663D01*
X14703383Y-28551981D01*
X15026658Y-28685886D01*
X15369845Y-28754150D01*
X15719755Y-28754150D01*
X16062942Y-28685886D01*
X16386217Y-28551981D01*
X16603701Y-28406663D01*
X18092420Y-28406663D01*
X18215333Y-28394557D01*
X18333523Y-28358705D01*
X18442448Y-28300483D01*
X18537921Y-28222131D01*
X18616273Y-28126658D01*
X18644192Y-28074426D01*
X18729550Y-28082833D01*
X19167050Y-28082833D01*
X19332639Y-28066524D01*
X19491865Y-28018223D01*
X19638609Y-27939787D01*
X19767230Y-27834230D01*
X19872787Y-27705609D01*
X19951223Y-27558865D01*
X19999524Y-27399639D01*
X20015833Y-27234050D01*
X20015833Y-26721550D01*
X19999524Y-26555961D01*
X19951223Y-26396735D01*
X19872787Y-26249991D01*
X19767230Y-26121370D01*
X19638609Y-26015813D01*
X19491865Y-25937377D01*
X19332639Y-25889076D01*
X19167050Y-25872767D01*
X18729550Y-25872767D01*
X18644192Y-25881174D01*
X18616273Y-25828942D01*
X18537921Y-25733469D01*
X18442448Y-25655117D01*
X18333523Y-25596895D01*
X18215333Y-25561043D01*
X18092420Y-25548937D01*
X16603701Y-25548937D01*
X16386217Y-25403619D01*
X16062942Y-25269714D01*
X15719755Y-25201450D01*
X15369845Y-25201450D01*
X15026658Y-25269714D01*
X14703383Y-25403619D01*
X14485899Y-25548937D01*
X13143928Y-25548937D01*
X14336149Y-24356716D01*
X14369613Y-24329253D01*
X14479207Y-24195712D01*
X14560642Y-24043357D01*
X14610790Y-23878042D01*
X14623480Y-23749199D01*
X14623480Y-23749190D01*
X14627722Y-23706121D01*
X14623480Y-23663051D01*
X14623480Y-22498591D01*
X14703383Y-22551981D01*
X15026658Y-22685886D01*
X15369845Y-22754150D01*
X15719755Y-22754150D01*
X16062942Y-22685886D01*
X16386217Y-22551981D01*
X16603701Y-22406663D01*
X18092420Y-22406663D01*
X18215333Y-22394557D01*
X18333523Y-22358705D01*
X18442448Y-22300483D01*
X18537921Y-22222131D01*
X18616273Y-22126658D01*
X18644192Y-22074426D01*
X18729550Y-22082833D01*
X19167050Y-22082833D01*
X19332639Y-22066524D01*
X19491865Y-22018223D01*
X19638609Y-21939787D01*
X19767230Y-21834230D01*
X19872787Y-21705609D01*
X19951223Y-21558865D01*
X19999524Y-21399639D01*
X20015833Y-21234050D01*
X20015833Y-20721550D01*
X19999524Y-20555961D01*
X19951223Y-20396735D01*
X19872787Y-20249991D01*
X19767230Y-20121370D01*
X19638609Y-20015813D01*
X19491865Y-19937377D01*
X19332639Y-19889076D01*
X19167050Y-19872767D01*
X18903578Y-19872767D01*
X18986628Y-19748473D01*
X19109275Y-19452378D01*
X19171800Y-19138045D01*
X19171800Y-18817555D01*
X19109275Y-18503222D01*
X18986628Y-18207127D01*
X18808573Y-17940648D01*
X18581952Y-17714027D01*
X18315473Y-17535972D01*
X18019378Y-17413325D01*
X17705045Y-17350800D01*
X17384555Y-17350800D01*
X17070222Y-17413325D01*
X16774127Y-17535972D01*
X16507648Y-17714027D01*
X16281027Y-17940648D01*
X16102972Y-18207127D01*
X15980325Y-18503222D01*
X15917800Y-18817555D01*
X15917800Y-19138045D01*
X15939090Y-19245078D01*
X15719755Y-19201450D01*
X15369845Y-19201450D01*
X15026658Y-19269714D01*
X14703383Y-19403619D01*
X14485899Y-19548937D01*
X13424179Y-19548937D01*
X13424179Y-17839196D01*
X14336155Y-16927221D01*
X14369613Y-16899763D01*
X14479207Y-16766222D01*
X14560642Y-16613867D01*
X14600307Y-16483108D01*
X14703383Y-16551981D01*
X15026658Y-16685886D01*
X15369845Y-16754150D01*
X15719755Y-16754150D01*
X16062942Y-16685886D01*
X16386217Y-16551981D01*
X16603701Y-16406663D01*
X18092420Y-16406663D01*
X18215333Y-16394557D01*
X18333523Y-16358705D01*
X18442448Y-16300483D01*
X18537921Y-16222131D01*
X18616273Y-16126658D01*
X18644192Y-16074426D01*
X18729550Y-16082833D01*
X19167050Y-16082833D01*
X19332639Y-16066524D01*
X19491865Y-16018223D01*
X19638609Y-15939787D01*
X19767230Y-15834230D01*
X19872787Y-15705609D01*
X19951223Y-15558865D01*
X19999524Y-15399639D01*
X20015833Y-15234050D01*
X20015833Y-14721550D01*
X19999524Y-14555961D01*
X19951223Y-14396735D01*
X19872787Y-14249991D01*
X19767230Y-14121370D01*
X19638609Y-14015813D01*
X19491865Y-13937377D01*
X19332639Y-13889076D01*
X19167050Y-13872767D01*
X18729550Y-13872767D01*
X18644192Y-13881174D01*
X18616273Y-13828942D01*
X18537921Y-13733469D01*
X18442448Y-13655117D01*
X18333523Y-13596895D01*
X18215333Y-13561043D01*
X18092420Y-13548937D01*
X16603701Y-13548937D01*
X16386217Y-13403619D01*
X16062942Y-13269714D01*
X15719755Y-13201450D01*
X15369845Y-13201450D01*
X15026658Y-13269714D01*
X14703383Y-13403619D01*
X14485899Y-13548937D01*
X12997180Y-13548937D01*
X12874267Y-13561043D01*
X12756077Y-13596895D01*
X12724169Y-13613950D01*
X12724169Y-12385247D01*
X12774127Y-12418628D01*
X13070222Y-12541275D01*
X13384555Y-12603800D01*
X13705045Y-12603800D01*
X14019378Y-12541275D01*
X14315473Y-12418628D01*
X14581952Y-12240573D01*
X14808573Y-12013952D01*
X14986628Y-11747473D01*
X15109275Y-11451378D01*
X15171800Y-11137045D01*
X15171800Y-10816555D01*
X15150717Y-10710563D01*
X15369845Y-10754150D01*
X15719755Y-10754150D01*
X16062942Y-10685886D01*
X16386217Y-10551981D01*
X16603701Y-10406663D01*
X18092420Y-10406663D01*
X18215333Y-10394557D01*
X18333523Y-10358705D01*
X18442448Y-10300483D01*
X18537921Y-10222131D01*
X18616273Y-10126658D01*
X18644192Y-10074426D01*
X18729550Y-10082833D01*
X19167050Y-10082833D01*
X19332639Y-10066524D01*
X19491865Y-10018223D01*
X19638609Y-9939787D01*
X19767230Y-9834230D01*
X19872787Y-9705609D01*
X19951223Y-9558865D01*
X19999524Y-9399639D01*
X20015833Y-9234050D01*
X20015833Y-8721550D01*
X19999524Y-8555961D01*
X19951223Y-8396735D01*
X19872787Y-8249991D01*
X19767230Y-8121370D01*
X19638609Y-8015813D01*
X19491865Y-7937377D01*
X19332639Y-7889076D01*
X19167050Y-7872767D01*
X18729550Y-7872767D01*
X18644192Y-7881174D01*
X18616273Y-7828942D01*
X18537921Y-7733469D01*
X18442448Y-7655117D01*
X18333523Y-7596895D01*
X18215333Y-7561043D01*
X18092420Y-7548937D01*
X16603701Y-7548937D01*
X16386217Y-7403619D01*
X16062942Y-7269714D01*
X15719755Y-7201450D01*
X15369845Y-7201450D01*
X15026658Y-7269714D01*
X14703383Y-7403619D01*
X14485899Y-7548937D01*
X12997180Y-7548937D01*
X12874267Y-7561043D01*
X12756077Y-7596895D01*
X12647152Y-7655117D01*
X12551679Y-7733469D01*
X12473327Y-7828942D01*
X12415105Y-7937867D01*
X12379253Y-8056057D01*
X12374070Y-8108682D01*
X12325258Y-8113490D01*
X12159943Y-8163638D01*
X12007588Y-8245073D01*
X11874047Y-8354667D01*
X11846583Y-8388132D01*
X11257496Y-8977219D01*
X11224037Y-9004678D01*
X11196578Y-9038137D01*
X11196575Y-9038140D01*
X11114443Y-9138219D01*
X11033007Y-9290575D01*
X10982859Y-9455889D01*
X10965926Y-9627811D01*
X10970170Y-9670901D01*
X10970169Y-21902165D01*
X10637568Y-22234767D01*
X9747800Y-22234767D01*
X9624887Y-22246873D01*
X9506697Y-22282725D01*
X9397772Y-22340947D01*
X9302299Y-22419299D01*
X9223947Y-22514772D01*
X9165725Y-22623697D01*
X9129873Y-22741887D01*
X9117767Y-22864800D01*
X9117767Y-23464800D01*
X9129873Y-23587713D01*
X9165725Y-23705903D01*
X9215914Y-23799800D01*
X9165725Y-23893697D01*
X9129873Y-24011887D01*
X9117767Y-24134800D01*
X9117767Y-24734800D01*
X9129873Y-24857713D01*
X9165725Y-24975903D01*
X9215914Y-25069800D01*
X9165725Y-25163697D01*
X9129873Y-25281887D01*
X9117767Y-25404800D01*
X9117767Y-26004800D01*
X9129873Y-26127713D01*
X9165725Y-26245903D01*
X9215914Y-26339800D01*
X9165725Y-26433697D01*
X9129873Y-26551887D01*
X9117767Y-26674800D01*
X9117767Y-27274800D01*
X9129873Y-27397713D01*
X9165725Y-27515903D01*
X9215914Y-27609800D01*
X9165725Y-27703697D01*
X9129873Y-27821887D01*
X9117767Y-27944800D01*
X9117767Y-28544800D01*
X9129873Y-28667713D01*
X9165725Y-28785903D01*
X9215914Y-28879800D01*
X9165725Y-28973697D01*
X9129873Y-29091887D01*
X9117767Y-29214800D01*
X9117767Y-29814800D01*
X9129873Y-29937713D01*
X9165725Y-30055903D01*
X9215914Y-30149800D01*
X9165725Y-30243697D01*
X9129873Y-30361887D01*
X9117767Y-30484800D01*
X9117767Y-31084800D01*
X9129873Y-31207713D01*
X9165725Y-31325903D01*
X9223947Y-31434828D01*
X9302299Y-31530301D01*
X9397772Y-31608653D01*
X9506697Y-31666875D01*
X9620800Y-31701487D01*
X9620800Y-32207532D01*
X6448559Y-29035292D01*
X6429875Y-28973697D01*
X6379686Y-28879800D01*
X6429875Y-28785903D01*
X6465727Y-28667713D01*
X6477833Y-28544800D01*
X6477833Y-27944800D01*
X6465727Y-27821887D01*
X6429875Y-27703697D01*
X6371653Y-27594772D01*
X6293301Y-27499299D01*
X6197828Y-27420947D01*
X6088903Y-27362725D01*
X5970713Y-27326873D01*
X5847800Y-27314767D01*
X4347800Y-27314767D01*
X4224887Y-27326873D01*
X4205353Y-27332798D01*
X2782800Y-25910247D01*
X2782800Y-25709354D01*
X3334303Y-26260858D01*
X3360194Y-26292406D01*
X3391741Y-26318296D01*
X3391747Y-26318302D01*
X3486119Y-26395751D01*
X3603587Y-26458539D01*
X3629790Y-26472545D01*
X3785680Y-26519834D01*
X3907176Y-26531800D01*
X3907188Y-26531800D01*
X3947799Y-26535800D01*
X3988410Y-26531800D01*
X4003660Y-26531800D01*
X4106697Y-26586875D01*
X4224887Y-26622727D01*
X4347800Y-26634833D01*
X5847800Y-26634833D01*
X5970713Y-26622727D01*
X6088903Y-26586875D01*
X6197828Y-26528653D01*
X6293301Y-26450301D01*
X6371653Y-26354828D01*
X6429875Y-26245903D01*
X6465727Y-26127713D01*
X6477833Y-26004800D01*
X6477833Y-25404800D01*
X6465727Y-25281887D01*
X6429875Y-25163697D01*
X6379686Y-25069800D01*
X6429875Y-24975903D01*
X6465727Y-24857713D01*
X6477833Y-24734800D01*
X6477833Y-24134800D01*
X6465727Y-24011887D01*
X6452121Y-23967032D01*
X6565810Y-23932545D01*
X6667778Y-23878042D01*
X6709480Y-23855752D01*
X6792116Y-23787933D01*
X6835406Y-23752406D01*
X6861305Y-23720848D01*
X8661165Y-21920989D01*
X8692711Y-21895100D01*
X8718601Y-21863553D01*
X8718608Y-21863546D01*
X8796057Y-21769174D01*
X8872850Y-21625505D01*
X8893065Y-21558865D01*
X8920139Y-21469614D01*
X8924028Y-21430125D01*
X9877859Y-20476296D01*
X9909406Y-20450406D01*
X9935296Y-20418859D01*
X9935303Y-20418852D01*
X10012752Y-20324480D01*
X10089545Y-20180811D01*
X10115103Y-20096557D01*
X10136834Y-20024920D01*
X10148800Y-19903424D01*
X10148800Y-19903414D01*
X10152800Y-19862800D01*
X10148800Y-19822186D01*
X10148800Y-12349383D01*
X10178230Y-12325230D01*
X10283787Y-12196609D01*
X10362223Y-12049865D01*
X10410524Y-11890639D01*
X10426833Y-11725050D01*
X10426833Y-11287550D01*
X10410524Y-11121961D01*
X10362223Y-10962735D01*
X10283787Y-10815991D01*
X10178230Y-10687370D01*
X10049609Y-10581813D01*
X9902865Y-10503377D01*
X9743639Y-10455076D01*
X9578050Y-10438767D01*
X9065550Y-10438767D01*
X8899961Y-10455076D01*
X8740735Y-10503377D01*
X8593991Y-10581813D01*
X8475203Y-10679300D01*
X8403703Y-10679300D01*
X8403703Y-10652760D01*
X8391597Y-10529847D01*
X8355745Y-10411657D01*
X8297523Y-10302732D01*
X8219171Y-10207259D01*
X8123698Y-10128907D01*
X8014773Y-10070685D01*
X7896583Y-10034833D01*
X7773670Y-10022727D01*
X4773930Y-10022727D01*
X4651017Y-10034833D01*
X4532827Y-10070685D01*
X4423902Y-10128907D01*
X4328429Y-10207259D01*
X4250077Y-10302732D01*
X4191855Y-10411657D01*
X4156003Y-10529847D01*
X4143897Y-10652760D01*
X4143897Y-11902440D01*
X4156003Y-12025353D01*
X4191855Y-12143543D01*
X4250077Y-12252468D01*
X4328429Y-12347941D01*
X4423902Y-12426293D01*
X4532827Y-12484515D01*
X4651017Y-12520367D01*
X4773930Y-12532473D01*
X7773670Y-12532473D01*
X7896583Y-12520367D01*
X8014773Y-12484515D01*
X8123698Y-12426293D01*
X8219171Y-12347941D01*
X8231186Y-12333300D01*
X8475203Y-12333300D01*
X8494801Y-12349383D01*
X8494800Y-19520245D01*
X7549056Y-20465991D01*
X7517499Y-20491889D01*
X7414153Y-20617816D01*
X7337360Y-20761485D01*
X7290071Y-20917375D01*
X7286182Y-20956863D01*
X6477833Y-21765213D01*
X6477833Y-21594800D01*
X6465727Y-21471887D01*
X6429875Y-21353697D01*
X6371653Y-21244772D01*
X6293301Y-21149299D01*
X6197828Y-21070947D01*
X6088903Y-21012725D01*
X5970713Y-20976873D01*
X5847800Y-20964767D01*
X4774799Y-20964767D01*
X4774799Y-15072473D01*
X7773670Y-15072473D01*
X7896583Y-15060367D01*
X8014773Y-15024515D01*
X8123698Y-14966293D01*
X8219171Y-14887941D01*
X8297523Y-14792468D01*
X8355745Y-14683543D01*
X8391597Y-14565353D01*
X8403703Y-14442440D01*
X8403703Y-13192760D01*
X8391597Y-13069847D01*
X8355745Y-12951657D01*
X8297523Y-12842732D01*
X8219171Y-12747259D01*
X8123698Y-12668907D01*
X8014773Y-12610685D01*
X7896583Y-12574833D01*
X7773670Y-12562727D01*
X4773930Y-12562727D01*
X4651017Y-12574833D01*
X4532827Y-12610685D01*
X4423902Y-12668907D01*
X4328429Y-12747259D01*
X4250077Y-12842732D01*
X4191855Y-12951657D01*
X4173463Y-13012288D01*
X4143230Y-13015266D01*
X3987340Y-13062555D01*
X3843671Y-13139348D01*
X3843669Y-13139349D01*
X3843670Y-13139349D01*
X3778589Y-13192760D01*
X3717744Y-13242694D01*
X3691849Y-13274248D01*
X3452790Y-13513307D01*
X3452790Y-10772413D01*
X4377221Y-9847983D01*
X4423902Y-9886293D01*
X4532827Y-9944515D01*
X4651017Y-9980367D01*
X4773930Y-9992473D01*
X7773670Y-9992473D01*
X7896583Y-9980367D01*
X8014773Y-9944515D01*
X8123698Y-9886293D01*
X8219171Y-9807941D01*
X8297523Y-9712468D01*
X8355745Y-9603543D01*
X8391597Y-9485353D01*
X8403703Y-9362440D01*
X8403703Y-8112760D01*
X8391597Y-7989847D01*
X8355745Y-7871657D01*
X8297523Y-7762732D01*
X8219171Y-7667259D01*
X8123698Y-7588907D01*
X8014773Y-7530685D01*
X7896583Y-7494833D01*
X7773670Y-7482727D01*
X4773930Y-7482727D01*
X4651017Y-7494833D01*
X4532827Y-7530685D01*
X4423902Y-7588907D01*
X4328429Y-7667259D01*
X4250077Y-7762732D01*
X4191855Y-7871657D01*
X4173463Y-7932288D01*
X4143230Y-7935266D01*
X4034628Y-7968210D01*
X3987339Y-7982555D01*
X3843670Y-8059348D01*
X3749298Y-8136797D01*
X3749291Y-8136804D01*
X3717744Y-8162694D01*
X3691853Y-8194242D01*
X2782800Y-9103296D01*
X2782800Y-8902403D01*
X4377221Y-7307983D01*
X4423902Y-7346293D01*
X4532827Y-7404515D01*
X4651017Y-7440367D01*
X4773930Y-7452473D01*
X7773670Y-7452473D01*
X7896583Y-7440367D01*
X8014773Y-7404515D01*
X8123698Y-7346293D01*
X8219171Y-7267941D01*
X8297523Y-7172468D01*
X8355745Y-7063543D01*
X8391597Y-6945353D01*
X8403703Y-6822440D01*
X8403703Y-5572760D01*
X8391597Y-5449847D01*
X8355745Y-5331657D01*
X8297523Y-5222732D01*
X8219171Y-5127259D01*
X8123698Y-5048907D01*
X8014773Y-4990685D01*
X7896583Y-4954833D01*
X7773670Y-4942727D01*
X4773930Y-4942727D01*
X4651017Y-4954833D01*
X4532827Y-4990685D01*
X4423902Y-5048907D01*
X4328429Y-5127259D01*
X4250077Y-5222732D01*
X4191855Y-5331657D01*
X4173463Y-5392288D01*
X4143230Y-5395266D01*
X3987340Y-5442555D01*
X3987338Y-5442556D01*
X3843669Y-5519349D01*
X3749297Y-5596798D01*
X3749291Y-5596804D01*
X3717744Y-5622694D01*
X3691854Y-5654242D01*
X1893800Y-7452297D01*
X1893800Y-7256483D01*
X4380011Y-4770273D01*
X4423902Y-4806293D01*
X4532827Y-4864515D01*
X4651017Y-4900367D01*
X4773930Y-4912473D01*
X7773670Y-4912473D01*
X7896583Y-4900367D01*
X8014773Y-4864515D01*
X8123698Y-4806293D01*
X8219171Y-4727941D01*
X8297523Y-4632468D01*
X8355745Y-4523543D01*
X8391597Y-4405353D01*
X8403703Y-4282440D01*
X8403703Y-3032760D01*
X8391597Y-2909847D01*
X8355745Y-2791657D01*
X8297523Y-2682732D01*
X8219171Y-2587259D01*
X8123698Y-2508907D01*
X8014773Y-2450685D01*
X7896583Y-2414833D01*
X7773670Y-2402727D01*
X4773930Y-2402727D01*
X4651017Y-2414833D01*
X4532827Y-2450685D01*
X4423902Y-2508907D01*
X4328429Y-2587259D01*
X4250077Y-2682732D01*
X4191855Y-2791657D01*
X4189796Y-2798444D01*
X4055920Y-2839055D01*
X3989043Y-2874802D01*
X3912250Y-2915848D01*
X3817878Y-2993298D01*
X3786324Y-3019194D01*
X3760429Y-3050747D01*
X510748Y-6300429D01*
X479195Y-6326324D01*
X453300Y-6357877D01*
X453298Y-6357879D01*
X375848Y-6452251D01*
X299056Y-6595920D01*
X251767Y-6751810D01*
X235800Y-6913930D01*
X239801Y-6954554D01*
X239800Y-10944886D01*
X235800Y-10985500D01*
X239800Y-11026114D01*
X239800Y-11026123D01*
X251766Y-11147619D01*
X252501Y-11150042D01*
X252500Y-19043322D01*
X131621Y-125019D01*
X21641602Y-322721D01*
G37*
X21641602Y-322721D02*
X21987979Y-54532619D01*
X477998Y-54334917D01*
X304407Y-27166986D01*
X311755Y-27191209D01*
X311756Y-27191210D01*
X388548Y-27334879D01*
X440115Y-27397713D01*
X491894Y-27460806D01*
X523451Y-27486705D01*
X528792Y-27492045D01*
X528791Y-29686927D01*
X524791Y-29727541D01*
X528791Y-29768155D01*
X528791Y-29768164D01*
X540757Y-29889660D01*
X588046Y-30045550D01*
X588047Y-30045551D01*
X664839Y-30189220D01*
X709369Y-30243479D01*
X768185Y-30315147D01*
X799743Y-30341046D01*
X3745194Y-33286499D01*
X3771084Y-33318046D01*
X3802631Y-33343936D01*
X3802637Y-33343942D01*
X3897009Y-33421391D01*
X4036484Y-33495942D01*
X4040680Y-33498185D01*
X4188078Y-33542898D01*
X4234837Y-33630378D01*
X4313189Y-33725851D01*
X4408662Y-33804203D01*
X4517587Y-33862425D01*
X4635777Y-33898277D01*
X4758690Y-33910383D01*
X5756910Y-33910383D01*
X5879823Y-33898277D01*
X5998013Y-33862425D01*
X6106938Y-33804203D01*
X6202411Y-33725851D01*
X6280763Y-33630378D01*
X6338985Y-33521453D01*
X6374837Y-33403263D01*
X6386943Y-33280350D01*
X6386943Y-32180530D01*
X6374837Y-32057617D01*
X6338985Y-31939427D01*
X6280763Y-31830502D01*
X6202411Y-31735029D01*
X6107350Y-31657015D01*
X6197828Y-31608653D01*
X6293301Y-31530301D01*
X6369810Y-31437074D01*
X8920790Y-33988054D01*
X8920791Y-48235320D01*
X8916547Y-48278410D01*
X8933480Y-48450332D01*
X8983628Y-48615646D01*
X9065064Y-48768002D01*
X9147196Y-48868081D01*
X9147199Y-48868084D01*
X9174658Y-48901543D01*
X9208117Y-48929002D01*
X11846588Y-51567474D01*
X11874047Y-51600933D01*
X12007588Y-51710527D01*
X12131259Y-51776630D01*
X12159943Y-51791962D01*
X12325257Y-51842110D01*
X12374070Y-51846918D01*
X12379253Y-51899543D01*
X12415105Y-52017733D01*
X12473327Y-52126658D01*
X12551679Y-52222131D01*
X12647152Y-52300483D01*
X12756077Y-52358705D01*
X12874267Y-52394557D01*
X12997180Y-52406663D01*
X14485899Y-52406663D01*
X14703383Y-52551981D01*
X15026658Y-52685886D01*
X15369845Y-52754150D01*
X15719755Y-52754150D01*
X16062942Y-52685886D01*
X16386217Y-52551981D01*
X16603701Y-52406663D01*
X18092420Y-52406663D01*
X18215333Y-52394557D01*
X18333523Y-52358705D01*
X18442448Y-52300483D01*
X18537921Y-52222131D01*
X18616273Y-52126658D01*
X18644192Y-52074426D01*
X18729550Y-52082833D01*
X19167050Y-52082833D01*
X19332639Y-52066524D01*
X19491865Y-52018223D01*
X19638609Y-51939787D01*
X19767230Y-51834230D01*
X19872787Y-51705609D01*
X19951223Y-51558865D01*
X19999524Y-51399639D01*
X20015833Y-51234050D01*
X20015833Y-50721550D01*
X19999524Y-50555961D01*
X19951223Y-50396735D01*
X19872787Y-50249991D01*
X19767230Y-50121370D01*
X19638609Y-50015813D01*
X19491865Y-49937377D01*
X19332639Y-49889076D01*
X19167050Y-49872767D01*
X18903578Y-49872767D01*
X18986628Y-49748473D01*
X19109275Y-49452378D01*
X19171800Y-49138045D01*
X19171800Y-48817555D01*
X19109275Y-48503222D01*
X18986628Y-48207127D01*
X18808573Y-47940648D01*
X18581952Y-47714027D01*
X18315473Y-47535972D01*
X18019378Y-47413325D01*
X17705045Y-47350800D01*
X17384555Y-47350800D01*
X17070222Y-47413325D01*
X16774127Y-47535972D01*
X16507648Y-47714027D01*
X16281027Y-47940648D01*
X16102972Y-48207127D01*
X15980325Y-48503222D01*
X15917800Y-48817555D01*
X15917800Y-49138045D01*
X15939090Y-49245078D01*
X15719755Y-49201450D01*
X15369845Y-49201450D01*
X15026658Y-49269714D01*
X14703383Y-49403619D01*
X14485899Y-49548937D01*
X12997180Y-49548937D01*
X12874267Y-49561043D01*
X12756077Y-49596895D01*
X12647152Y-49655117D01*
X12551679Y-49733469D01*
X12525281Y-49765635D01*
X10674790Y-47915145D01*
X10674790Y-44395675D01*
X11846583Y-45567468D01*
X11874047Y-45600933D01*
X12007588Y-45710527D01*
X12159943Y-45791962D01*
X12325258Y-45842110D01*
X12374070Y-45846918D01*
X12379253Y-45899543D01*
X12415105Y-46017733D01*
X12473327Y-46126658D01*
X12551679Y-46222131D01*
X12647152Y-46300483D01*
X12756077Y-46358705D01*
X12874267Y-46394557D01*
X12997180Y-46406663D01*
X14485899Y-46406663D01*
X14703383Y-46551981D01*
X15026658Y-46685886D01*
X15369845Y-46754150D01*
X15719755Y-46754150D01*
X16062942Y-46685886D01*
X16386217Y-46551981D01*
X16603701Y-46406663D01*
X18092420Y-46406663D01*
X18215333Y-46394557D01*
X18333523Y-46358705D01*
X18442448Y-46300483D01*
X18537921Y-46222131D01*
X18616273Y-46126658D01*
X18644192Y-46074426D01*
X18729550Y-46082833D01*
X19167050Y-46082833D01*
X19332639Y-46066524D01*
X19491865Y-46018223D01*
X19638609Y-45939787D01*
X19767230Y-45834230D01*
X19872787Y-45705609D01*
X19951223Y-45558865D01*
X19999524Y-45399639D01*
X20015833Y-45234050D01*
X20015833Y-44721550D01*
X19999524Y-44555961D01*
X19951223Y-44396735D01*
X19872787Y-44249991D01*
X19767230Y-44121370D01*
X19638609Y-44015813D01*
X19491865Y-43937377D01*
X19332639Y-43889076D01*
X19167050Y-43872767D01*
X18729550Y-43872767D01*
X18644192Y-43881174D01*
X18616273Y-43828942D01*
X18537921Y-43733469D01*
X18442448Y-43655117D01*
X18333523Y-43596895D01*
X18215333Y-43561043D01*
X18092420Y-43548937D01*
X16603701Y-43548937D01*
X16386217Y-43403619D01*
X16062942Y-43269714D01*
X15719755Y-43201450D01*
X15369845Y-43201450D01*
X15026658Y-43269714D01*
X14703383Y-43403619D01*
X14485899Y-43548937D01*
X12997180Y-43548937D01*
X12874267Y-43561043D01*
X12756077Y-43596895D01*
X12647152Y-43655117D01*
X12551679Y-43733469D01*
X12525281Y-43765636D01*
X11374800Y-42615155D01*
X11374800Y-39070532D01*
X11383074Y-39086012D01*
X11465206Y-39186091D01*
X11465209Y-39186094D01*
X11492668Y-39219553D01*
X11526127Y-39247012D01*
X11846583Y-39567468D01*
X11874047Y-39600933D01*
X12007588Y-39710527D01*
X12131259Y-39776630D01*
X12159943Y-39791962D01*
X12325257Y-39842110D01*
X12373785Y-39846890D01*
X12281027Y-39939648D01*
X12102972Y-40206127D01*
X11980325Y-40502222D01*
X11917800Y-40816555D01*
X11917800Y-41137045D01*
X11980325Y-41451378D01*
X12102972Y-41747473D01*
X12281027Y-42013952D01*
X12507648Y-42240573D01*
X12774127Y-42418628D01*
X13070222Y-42541275D01*
X13384555Y-42603800D01*
X13705045Y-42603800D01*
X14019378Y-42541275D01*
X14315473Y-42418628D01*
X14581952Y-42240573D01*
X14808573Y-42013952D01*
X14986628Y-41747473D01*
X15109275Y-41451378D01*
X15171800Y-41137045D01*
X15171800Y-40816555D01*
X15150717Y-40710563D01*
X15369845Y-40754150D01*
X15719755Y-40754150D01*
X16062942Y-40685886D01*
X16386217Y-40551981D01*
X16603701Y-40406663D01*
X18092420Y-40406663D01*
X18215333Y-40394557D01*
X18333523Y-40358705D01*
X18442448Y-40300483D01*
X18537921Y-40222131D01*
X18616273Y-40126658D01*
X18644192Y-40074426D01*
X18729550Y-40082833D01*
X19167050Y-40082833D01*
X19332639Y-40066524D01*
X19491865Y-40018223D01*
X19638609Y-39939787D01*
X19767230Y-39834230D01*
X19872787Y-39705609D01*
X19951223Y-39558865D01*
X19999524Y-39399639D01*
X20015833Y-39234050D01*
X20015833Y-38721550D01*
X19999524Y-38555961D01*
X19951223Y-38396735D01*
X19872787Y-38249991D01*
X19767230Y-38121370D01*
X19638609Y-38015813D01*
X19491865Y-37937377D01*
X19332639Y-37889076D01*
X19167050Y-37872767D01*
X18729550Y-37872767D01*
X18644192Y-37881174D01*
X18616273Y-37828942D01*
X18537921Y-37733469D01*
X18442448Y-37655117D01*
X18333523Y-37596895D01*
X18215333Y-37561043D01*
X18092420Y-37548937D01*
X16603701Y-37548937D01*
X16386217Y-37403619D01*
X16062942Y-37269714D01*
X15719755Y-37201450D01*
X15369845Y-37201450D01*
X15026658Y-37269714D01*
X14703383Y-37403619D01*
X14485899Y-37548937D01*
X12997180Y-37548937D01*
X12992800Y-37549368D01*
X12992800Y-34406232D01*
X12997180Y-34406663D01*
X14485899Y-34406663D01*
X14703383Y-34551981D01*
X15026658Y-34685886D01*
X15369845Y-34754150D01*
X15719755Y-34754150D01*
X16062942Y-34685886D01*
X16386217Y-34551981D01*
X16603701Y-34406663D01*
X18092420Y-34406663D01*
X18215333Y-34394557D01*
X18333523Y-34358705D01*
X18442448Y-34300483D01*
X18537921Y-34222131D01*
X18616273Y-34126658D01*
X18644192Y-34074426D01*
X18729550Y-34082833D01*
X19167050Y-34082833D01*
X19332639Y-34066524D01*
X19491865Y-34018223D01*
X19638609Y-33939787D01*
X19767230Y-33834230D01*
X19872787Y-33705609D01*
X19951223Y-33558865D01*
X19999524Y-33399639D01*
X20015833Y-33234050D01*
X20015833Y-32721550D01*
X19999524Y-32555961D01*
X19951223Y-32396735D01*
X19872787Y-32249991D01*
X19767230Y-32121370D01*
X19638609Y-32015813D01*
X19491865Y-31937377D01*
X19332639Y-31889076D01*
X19167050Y-31872767D01*
X18729550Y-31872767D01*
X18644192Y-31881174D01*
X18616273Y-31828942D01*
X18537921Y-31733469D01*
X18442448Y-31655117D01*
X18333523Y-31596895D01*
X18215333Y-31561043D01*
X18092420Y-31548937D01*
X16603701Y-31548937D01*
X16386217Y-31403619D01*
X16062942Y-31269714D01*
X15719755Y-31201450D01*
X15369845Y-31201450D01*
X15026658Y-31269714D01*
X14703383Y-31403619D01*
X14623480Y-31457009D01*
X14623480Y-30286549D01*
X14627722Y-30243479D01*
X14623480Y-30200410D01*
X14623480Y-30200401D01*
X14610790Y-30071558D01*
X14560642Y-29906243D01*
X14479207Y-29753888D01*
X14369613Y-29620347D01*
X14336149Y-29592884D01*
X13149928Y-28406663D01*
X14485899Y-28406663D01*
X14703383Y-28551981D01*
X15026658Y-28685886D01*
X15369845Y-28754150D01*
X15719755Y-28754150D01*
X16062942Y-28685886D01*
X16386217Y-28551981D01*
X16603701Y-28406663D01*
X18092420Y-28406663D01*
X18215333Y-28394557D01*
X18333523Y-28358705D01*
X18442448Y-28300483D01*
X18537921Y-28222131D01*
X18616273Y-28126658D01*
X18644192Y-28074426D01*
X18729550Y-28082833D01*
X19167050Y-28082833D01*
X19332639Y-28066524D01*
X19491865Y-28018223D01*
X19638609Y-27939787D01*
X19767230Y-27834230D01*
X19872787Y-27705609D01*
X19951223Y-27558865D01*
X19999524Y-27399639D01*
X20015833Y-27234050D01*
X20015833Y-26721550D01*
X19999524Y-26555961D01*
X19951223Y-26396735D01*
X19872787Y-26249991D01*
X19767230Y-26121370D01*
X19638609Y-26015813D01*
X19491865Y-25937377D01*
X19332639Y-25889076D01*
X19167050Y-25872767D01*
X18729550Y-25872767D01*
X18644192Y-25881174D01*
X18616273Y-25828942D01*
X18537921Y-25733469D01*
X18442448Y-25655117D01*
X18333523Y-25596895D01*
X18215333Y-25561043D01*
X18092420Y-25548937D01*
X16603701Y-25548937D01*
X16386217Y-25403619D01*
X16062942Y-25269714D01*
X15719755Y-25201450D01*
X15369845Y-25201450D01*
X15026658Y-25269714D01*
X14703383Y-25403619D01*
X14485899Y-25548937D01*
X13143928Y-25548937D01*
X14336149Y-24356716D01*
X14369613Y-24329253D01*
X14479207Y-24195712D01*
X14560642Y-24043357D01*
X14610790Y-23878042D01*
X14623480Y-23749199D01*
X14623480Y-23749190D01*
X14627722Y-23706121D01*
X14623480Y-23663051D01*
X14623480Y-22498591D01*
X14703383Y-22551981D01*
X15026658Y-22685886D01*
X15369845Y-22754150D01*
X15719755Y-22754150D01*
X16062942Y-22685886D01*
X16386217Y-22551981D01*
X16603701Y-22406663D01*
X18092420Y-22406663D01*
X18215333Y-22394557D01*
X18333523Y-22358705D01*
X18442448Y-22300483D01*
X18537921Y-22222131D01*
X18616273Y-22126658D01*
X18644192Y-22074426D01*
X18729550Y-22082833D01*
X19167050Y-22082833D01*
X19332639Y-22066524D01*
X19491865Y-22018223D01*
X19638609Y-21939787D01*
X19767230Y-21834230D01*
X19872787Y-21705609D01*
X19951223Y-21558865D01*
X19999524Y-21399639D01*
X20015833Y-21234050D01*
X20015833Y-20721550D01*
X19999524Y-20555961D01*
X19951223Y-20396735D01*
X19872787Y-20249991D01*
X19767230Y-20121370D01*
X19638609Y-20015813D01*
X19491865Y-19937377D01*
X19332639Y-19889076D01*
X19167050Y-19872767D01*
X18903578Y-19872767D01*
X18986628Y-19748473D01*
X19109275Y-19452378D01*
X19171800Y-19138045D01*
X19171800Y-18817555D01*
X19109275Y-18503222D01*
X18986628Y-18207127D01*
X18808573Y-17940648D01*
X18581952Y-17714027D01*
X18315473Y-17535972D01*
X18019378Y-17413325D01*
X17705045Y-17350800D01*
X17384555Y-17350800D01*
X17070222Y-17413325D01*
X16774127Y-17535972D01*
X16507648Y-17714027D01*
X16281027Y-17940648D01*
X16102972Y-18207127D01*
X15980325Y-18503222D01*
X15917800Y-18817555D01*
X15917800Y-19138045D01*
X15939090Y-19245078D01*
X15719755Y-19201450D01*
X15369845Y-19201450D01*
X15026658Y-19269714D01*
X14703383Y-19403619D01*
X14485899Y-19548937D01*
X13424179Y-19548937D01*
X13424179Y-17839196D01*
X14336155Y-16927221D01*
X14369613Y-16899763D01*
X14479207Y-16766222D01*
X14560642Y-16613867D01*
X14600307Y-16483108D01*
X14703383Y-16551981D01*
X15026658Y-16685886D01*
X15369845Y-16754150D01*
X15719755Y-16754150D01*
X16062942Y-16685886D01*
X16386217Y-16551981D01*
X16603701Y-16406663D01*
X18092420Y-16406663D01*
X18215333Y-16394557D01*
X18333523Y-16358705D01*
X18442448Y-16300483D01*
X18537921Y-16222131D01*
X18616273Y-16126658D01*
X18644192Y-16074426D01*
X18729550Y-16082833D01*
X19167050Y-16082833D01*
X19332639Y-16066524D01*
X19491865Y-16018223D01*
X19638609Y-15939787D01*
X19767230Y-15834230D01*
X19872787Y-15705609D01*
X19951223Y-15558865D01*
X19999524Y-15399639D01*
X20015833Y-15234050D01*
X20015833Y-14721550D01*
X19999524Y-14555961D01*
X19951223Y-14396735D01*
X19872787Y-14249991D01*
X19767230Y-14121370D01*
X19638609Y-14015813D01*
X19491865Y-13937377D01*
X19332639Y-13889076D01*
X19167050Y-13872767D01*
X18729550Y-13872767D01*
X18644192Y-13881174D01*
X18616273Y-13828942D01*
X18537921Y-13733469D01*
X18442448Y-13655117D01*
X18333523Y-13596895D01*
X18215333Y-13561043D01*
X18092420Y-13548937D01*
X16603701Y-13548937D01*
X16386217Y-13403619D01*
X16062942Y-13269714D01*
X15719755Y-13201450D01*
X15369845Y-13201450D01*
X15026658Y-13269714D01*
X14703383Y-13403619D01*
X14485899Y-13548937D01*
X12997180Y-13548937D01*
X12874267Y-13561043D01*
X12756077Y-13596895D01*
X12724169Y-13613950D01*
X12724169Y-12385247D01*
X12774127Y-12418628D01*
X13070222Y-12541275D01*
X13384555Y-12603800D01*
X13705045Y-12603800D01*
X14019378Y-12541275D01*
X14315473Y-12418628D01*
X14581952Y-12240573D01*
X14808573Y-12013952D01*
X14986628Y-11747473D01*
X15109275Y-11451378D01*
X15171800Y-11137045D01*
X15171800Y-10816555D01*
X15150717Y-10710563D01*
X15369845Y-10754150D01*
X15719755Y-10754150D01*
X16062942Y-10685886D01*
X16386217Y-10551981D01*
X16603701Y-10406663D01*
X18092420Y-10406663D01*
X18215333Y-10394557D01*
X18333523Y-10358705D01*
X18442448Y-10300483D01*
X18537921Y-10222131D01*
X18616273Y-10126658D01*
X18644192Y-10074426D01*
X18729550Y-10082833D01*
X19167050Y-10082833D01*
X19332639Y-10066524D01*
X19491865Y-10018223D01*
X19638609Y-9939787D01*
X19767230Y-9834230D01*
X19872787Y-9705609D01*
X19951223Y-9558865D01*
X19999524Y-9399639D01*
X20015833Y-9234050D01*
X20015833Y-8721550D01*
X19999524Y-8555961D01*
X19951223Y-8396735D01*
X19872787Y-8249991D01*
X19767230Y-8121370D01*
X19638609Y-8015813D01*
X19491865Y-7937377D01*
X19332639Y-7889076D01*
X19167050Y-7872767D01*
X18729550Y-7872767D01*
X18644192Y-7881174D01*
X18616273Y-7828942D01*
X18537921Y-7733469D01*
X18442448Y-7655117D01*
X18333523Y-7596895D01*
X18215333Y-7561043D01*
X18092420Y-7548937D01*
X16603701Y-7548937D01*
X16386217Y-7403619D01*
X16062942Y-7269714D01*
X15719755Y-7201450D01*
X15369845Y-7201450D01*
X15026658Y-7269714D01*
X14703383Y-7403619D01*
X14485899Y-7548937D01*
X12997180Y-7548937D01*
X12874267Y-7561043D01*
X12756077Y-7596895D01*
X12647152Y-7655117D01*
X12551679Y-7733469D01*
X12473327Y-7828942D01*
X12415105Y-7937867D01*
X12379253Y-8056057D01*
X12374070Y-8108682D01*
X12325258Y-8113490D01*
X12159943Y-8163638D01*
X12007588Y-8245073D01*
X11874047Y-8354667D01*
X11846583Y-8388132D01*
X11257496Y-8977219D01*
X11224037Y-9004678D01*
X11196578Y-9038137D01*
X11196575Y-9038140D01*
X11114443Y-9138219D01*
X11033007Y-9290575D01*
X10982859Y-9455889D01*
X10965926Y-9627811D01*
X10970170Y-9670901D01*
X10970169Y-21902165D01*
X10637568Y-22234767D01*
X9747800Y-22234767D01*
X9624887Y-22246873D01*
X9506697Y-22282725D01*
X9397772Y-22340947D01*
X9302299Y-22419299D01*
X9223947Y-22514772D01*
X9165725Y-22623697D01*
X9129873Y-22741887D01*
X9117767Y-22864800D01*
X9117767Y-23464800D01*
X9129873Y-23587713D01*
X9165725Y-23705903D01*
X9215914Y-23799800D01*
X9165725Y-23893697D01*
X9129873Y-24011887D01*
X9117767Y-24134800D01*
X9117767Y-24734800D01*
X9129873Y-24857713D01*
X9165725Y-24975903D01*
X9215914Y-25069800D01*
X9165725Y-25163697D01*
X9129873Y-25281887D01*
X9117767Y-25404800D01*
X9117767Y-26004800D01*
X9129873Y-26127713D01*
X9165725Y-26245903D01*
X9215914Y-26339800D01*
X9165725Y-26433697D01*
X9129873Y-26551887D01*
X9117767Y-26674800D01*
X9117767Y-27274800D01*
X9129873Y-27397713D01*
X9165725Y-27515903D01*
X9215914Y-27609800D01*
X9165725Y-27703697D01*
X9129873Y-27821887D01*
X9117767Y-27944800D01*
X9117767Y-28544800D01*
X9129873Y-28667713D01*
X9165725Y-28785903D01*
X9215914Y-28879800D01*
X9165725Y-28973697D01*
X9129873Y-29091887D01*
X9117767Y-29214800D01*
X9117767Y-29814800D01*
X9129873Y-29937713D01*
X9165725Y-30055903D01*
X9215914Y-30149800D01*
X9165725Y-30243697D01*
X9129873Y-30361887D01*
X9117767Y-30484800D01*
X9117767Y-31084800D01*
X9129873Y-31207713D01*
X9165725Y-31325903D01*
X9223947Y-31434828D01*
X9302299Y-31530301D01*
X9397772Y-31608653D01*
X9506697Y-31666875D01*
X9620800Y-31701487D01*
X9620800Y-32207532D01*
X6448559Y-29035292D01*
X6429875Y-28973697D01*
X6379686Y-28879800D01*
X6429875Y-28785903D01*
X6465727Y-28667713D01*
X6477833Y-28544800D01*
X6477833Y-27944800D01*
X6465727Y-27821887D01*
X6429875Y-27703697D01*
X6371653Y-27594772D01*
X6293301Y-27499299D01*
X6197828Y-27420947D01*
X6088903Y-27362725D01*
X5970713Y-27326873D01*
X5847800Y-27314767D01*
X4347800Y-27314767D01*
X4224887Y-27326873D01*
X4205353Y-27332798D01*
X2782800Y-25910247D01*
X2782800Y-25709354D01*
X3334303Y-26260858D01*
X3360194Y-26292406D01*
X3391741Y-26318296D01*
X3391747Y-26318302D01*
X3486119Y-26395751D01*
X3603587Y-26458539D01*
X3629790Y-26472545D01*
X3785680Y-26519834D01*
X3907176Y-26531800D01*
X3907188Y-26531800D01*
X3947799Y-26535800D01*
X3988410Y-26531800D01*
X4003660Y-26531800D01*
X4106697Y-26586875D01*
X4224887Y-26622727D01*
X4347800Y-26634833D01*
X5847800Y-26634833D01*
X5970713Y-26622727D01*
X6088903Y-26586875D01*
X6197828Y-26528653D01*
X6293301Y-26450301D01*
X6371653Y-26354828D01*
X6429875Y-26245903D01*
X6465727Y-26127713D01*
X6477833Y-26004800D01*
X6477833Y-25404800D01*
X6465727Y-25281887D01*
X6429875Y-25163697D01*
X6379686Y-25069800D01*
X6429875Y-24975903D01*
X6465727Y-24857713D01*
X6477833Y-24734800D01*
X6477833Y-24134800D01*
X6465727Y-24011887D01*
X6452121Y-23967032D01*
X6565810Y-23932545D01*
X6667778Y-23878042D01*
X6709480Y-23855752D01*
X6792116Y-23787933D01*
X6835406Y-23752406D01*
X6861305Y-23720848D01*
X8661165Y-21920989D01*
X8692711Y-21895100D01*
X8718601Y-21863553D01*
X8718608Y-21863546D01*
X8796057Y-21769174D01*
X8872850Y-21625505D01*
X8893065Y-21558865D01*
X8920139Y-21469614D01*
X8924028Y-21430125D01*
X9877859Y-20476296D01*
X9909406Y-20450406D01*
X9935296Y-20418859D01*
X9935303Y-20418852D01*
X10012752Y-20324480D01*
X10089545Y-20180811D01*
X10115103Y-20096557D01*
X10136834Y-20024920D01*
X10148800Y-19903424D01*
X10148800Y-19903414D01*
X10152800Y-19862800D01*
X10148800Y-19822186D01*
X10148800Y-12349383D01*
X10178230Y-12325230D01*
X10283787Y-12196609D01*
X10362223Y-12049865D01*
X10410524Y-11890639D01*
X10426833Y-11725050D01*
X10426833Y-11287550D01*
X10410524Y-11121961D01*
X10362223Y-10962735D01*
X10283787Y-10815991D01*
X10178230Y-10687370D01*
X10049609Y-10581813D01*
X9902865Y-10503377D01*
X9743639Y-10455076D01*
X9578050Y-10438767D01*
X9065550Y-10438767D01*
X8899961Y-10455076D01*
X8740735Y-10503377D01*
X8593991Y-10581813D01*
X8475203Y-10679300D01*
X8403703Y-10679300D01*
X8403703Y-10652760D01*
X8391597Y-10529847D01*
X8355745Y-10411657D01*
X8297523Y-10302732D01*
X8219171Y-10207259D01*
X8123698Y-10128907D01*
X8014773Y-10070685D01*
X7896583Y-10034833D01*
X7773670Y-10022727D01*
X4773930Y-10022727D01*
X4651017Y-10034833D01*
X4532827Y-10070685D01*
X4423902Y-10128907D01*
X4328429Y-10207259D01*
X4250077Y-10302732D01*
X4191855Y-10411657D01*
X4156003Y-10529847D01*
X4143897Y-10652760D01*
X4143897Y-11902440D01*
X4156003Y-12025353D01*
X4191855Y-12143543D01*
X4250077Y-12252468D01*
X4328429Y-12347941D01*
X4423902Y-12426293D01*
X4532827Y-12484515D01*
X4651017Y-12520367D01*
X4773930Y-12532473D01*
X7773670Y-12532473D01*
X7896583Y-12520367D01*
X8014773Y-12484515D01*
X8123698Y-12426293D01*
X8219171Y-12347941D01*
X8231186Y-12333300D01*
X8475203Y-12333300D01*
X8494801Y-12349383D01*
X8494800Y-19520245D01*
X7549056Y-20465991D01*
X7517499Y-20491889D01*
X7414153Y-20617816D01*
X7337360Y-20761485D01*
X7290071Y-20917375D01*
X7286182Y-20956863D01*
X6477833Y-21765213D01*
X6477833Y-21594800D01*
X6465727Y-21471887D01*
X6429875Y-21353697D01*
X6371653Y-21244772D01*
X6293301Y-21149299D01*
X6197828Y-21070947D01*
X6088903Y-21012725D01*
X5970713Y-20976873D01*
X5847800Y-20964767D01*
X4774799Y-20964767D01*
X4774799Y-15072473D01*
X7773670Y-15072473D01*
X7896583Y-15060367D01*
X8014773Y-15024515D01*
X8123698Y-14966293D01*
X8219171Y-14887941D01*
X8297523Y-14792468D01*
X8355745Y-14683543D01*
X8391597Y-14565353D01*
X8403703Y-14442440D01*
X8403703Y-13192760D01*
X8391597Y-13069847D01*
X8355745Y-12951657D01*
X8297523Y-12842732D01*
X8219171Y-12747259D01*
X8123698Y-12668907D01*
X8014773Y-12610685D01*
X7896583Y-12574833D01*
X7773670Y-12562727D01*
X4773930Y-12562727D01*
X4651017Y-12574833D01*
X4532827Y-12610685D01*
X4423902Y-12668907D01*
X4328429Y-12747259D01*
X4250077Y-12842732D01*
X4191855Y-12951657D01*
X4173463Y-13012288D01*
X4143230Y-13015266D01*
X3987340Y-13062555D01*
X3843671Y-13139348D01*
X3843669Y-13139349D01*
X3843670Y-13139349D01*
X3778589Y-13192760D01*
X3717744Y-13242694D01*
X3691849Y-13274248D01*
X3452790Y-13513307D01*
X3452790Y-10772413D01*
X4377221Y-9847983D01*
X4423902Y-9886293D01*
X4532827Y-9944515D01*
X4651017Y-9980367D01*
X4773930Y-9992473D01*
X7773670Y-9992473D01*
X7896583Y-9980367D01*
X8014773Y-9944515D01*
X8123698Y-9886293D01*
X8219171Y-9807941D01*
X8297523Y-9712468D01*
X8355745Y-9603543D01*
X8391597Y-9485353D01*
X8403703Y-9362440D01*
X8403703Y-8112760D01*
X8391597Y-7989847D01*
X8355745Y-7871657D01*
X8297523Y-7762732D01*
X8219171Y-7667259D01*
X8123698Y-7588907D01*
X8014773Y-7530685D01*
X7896583Y-7494833D01*
X7773670Y-7482727D01*
X4773930Y-7482727D01*
X4651017Y-7494833D01*
X4532827Y-7530685D01*
X4423902Y-7588907D01*
X4328429Y-7667259D01*
X4250077Y-7762732D01*
X4191855Y-7871657D01*
X4173463Y-7932288D01*
X4143230Y-7935266D01*
X4034628Y-7968210D01*
X3987339Y-7982555D01*
X3843670Y-8059348D01*
X3749298Y-8136797D01*
X3749291Y-8136804D01*
X3717744Y-8162694D01*
X3691853Y-8194242D01*
X2782800Y-9103296D01*
X2782800Y-8902403D01*
X4377221Y-7307983D01*
X4423902Y-7346293D01*
X4532827Y-7404515D01*
X4651017Y-7440367D01*
X4773930Y-7452473D01*
X7773670Y-7452473D01*
X7896583Y-7440367D01*
X8014773Y-7404515D01*
X8123698Y-7346293D01*
X8219171Y-7267941D01*
X8297523Y-7172468D01*
X8355745Y-7063543D01*
X8391597Y-6945353D01*
X8403703Y-6822440D01*
X8403703Y-5572760D01*
X8391597Y-5449847D01*
X8355745Y-5331657D01*
X8297523Y-5222732D01*
X8219171Y-5127259D01*
X8123698Y-5048907D01*
X8014773Y-4990685D01*
X7896583Y-4954833D01*
X7773670Y-4942727D01*
X4773930Y-4942727D01*
X4651017Y-4954833D01*
X4532827Y-4990685D01*
X4423902Y-5048907D01*
X4328429Y-5127259D01*
X4250077Y-5222732D01*
X4191855Y-5331657D01*
X4173463Y-5392288D01*
X4143230Y-5395266D01*
X3987340Y-5442555D01*
X3987338Y-5442556D01*
X3843669Y-5519349D01*
X3749297Y-5596798D01*
X3749291Y-5596804D01*
X3717744Y-5622694D01*
X3691854Y-5654242D01*
X1893800Y-7452297D01*
X1893800Y-7256483D01*
X4380011Y-4770273D01*
X4423902Y-4806293D01*
X4532827Y-4864515D01*
X4651017Y-4900367D01*
X4773930Y-4912473D01*
X7773670Y-4912473D01*
X7896583Y-4900367D01*
X8014773Y-4864515D01*
X8123698Y-4806293D01*
X8219171Y-4727941D01*
X8297523Y-4632468D01*
X8355745Y-4523543D01*
X8391597Y-4405353D01*
X8403703Y-4282440D01*
X8403703Y-3032760D01*
X8391597Y-2909847D01*
X8355745Y-2791657D01*
X8297523Y-2682732D01*
X8219171Y-2587259D01*
X8123698Y-2508907D01*
X8014773Y-2450685D01*
X7896583Y-2414833D01*
X7773670Y-2402727D01*
X4773930Y-2402727D01*
X4651017Y-2414833D01*
X4532827Y-2450685D01*
X4423902Y-2508907D01*
X4328429Y-2587259D01*
X4250077Y-2682732D01*
X4191855Y-2791657D01*
X4189796Y-2798444D01*
X4055920Y-2839055D01*
X3989043Y-2874802D01*
X3912250Y-2915848D01*
X3817878Y-2993298D01*
X3786324Y-3019194D01*
X3760429Y-3050747D01*
X510748Y-6300429D01*
X479195Y-6326324D01*
X453300Y-6357877D01*
X453298Y-6357879D01*
X375848Y-6452251D01*
X299056Y-6595920D01*
X251767Y-6751810D01*
X235800Y-6913930D01*
X239801Y-6954554D01*
X239800Y-10944886D01*
X235800Y-10985500D01*
X239800Y-11026114D01*
X239800Y-11026123D01*
X251766Y-11147619D01*
X252501Y-11150042D01*
X252500Y-19043322D01*
X131621Y-125019D01*
X21641602Y-322721D01*
M02*
