<?xml version="1.0" encoding="utf-8" standalone="no"?>
<!DOCTYPE svg PUBLIC "-//W3C//DTD SVG 1.1//EN"
  "http://www.w3.org/Graphics/SVG/1.1/DTD/svg11.dtd">
<!-- Created with matplotlib (https://matplotlib.org/) -->
<svg height="740.88pt" version="1.1" viewBox="0 0 689.76 740.88" width="689.76pt" xmlns="http://www.w3.org/2000/svg" xmlns:xlink="http://www.w3.org/1999/xlink">
 <defs>
  <style type="text/css">
*{stroke-linecap:butt;stroke-linejoin:round;}
  </style>
 </defs>
 <g id="figure_1">
  <g id="patch_1">
   <path d="M 0 740.88 
L 689.76 740.88 
L 689.76 0 
L 0 0 
z
" style="fill:#ffffff;"/>
  </g>
  <g id="axes_1">
   <g id="patch_2">
    <path d="M 86.22 659.3832 
L 620.784 659.3832 
L 620.784 88.9056 
L 86.22 88.9056 
z
" style="fill:#ffffff;"/>
   </g>
   <g id="matplotlib.axis_1">
    <g id="xtick_1">
     <g id="line2d_1">
      <defs>
       <path d="M 0 0 
L 0 3.5 
" id="mb8058bae1f" style="stroke:#000000;stroke-width:0.8;"/>
      </defs>
      <g>
       <use style="stroke:#000000;stroke-width:0.8;" x="121.206737" xlink:href="#mb8058bae1f" y="659.3832"/>
      </g>
     </g>
     <g id="text_1">
      <!-- 0.6 -->
      <defs>
       <path d="M 31.78125 66.40625 
Q 24.171875 66.40625 20.328125 58.90625 
Q 16.5 51.421875 16.5 36.375 
Q 16.5 21.390625 20.328125 13.890625 
Q 24.171875 6.390625 31.78125 6.390625 
Q 39.453125 6.390625 43.28125 13.890625 
Q 47.125 21.390625 47.125 36.375 
Q 47.125 51.421875 43.28125 58.90625 
Q 39.453125 66.40625 31.78125 66.40625 
z
M 31.78125 74.21875 
Q 44.046875 74.21875 50.515625 64.515625 
Q 56.984375 54.828125 56.984375 36.375 
Q 56.984375 17.96875 50.515625 8.265625 
Q 44.046875 -1.421875 31.78125 -1.421875 
Q 19.53125 -1.421875 13.0625 8.265625 
Q 6.59375 17.96875 6.59375 36.375 
Q 6.59375 54.828125 13.0625 64.515625 
Q 19.53125 74.21875 31.78125 74.21875 
z
" id="DejaVuSans-48"/>
       <path d="M 10.6875 12.40625 
L 21 12.40625 
L 21 0 
L 10.6875 0 
z
" id="DejaVuSans-46"/>
       <path d="M 33.015625 40.375 
Q 26.375 40.375 22.484375 35.828125 
Q 18.609375 31.296875 18.609375 23.390625 
Q 18.609375 15.53125 22.484375 10.953125 
Q 26.375 6.390625 33.015625 6.390625 
Q 39.65625 6.390625 43.53125 10.953125 
Q 47.40625 15.53125 47.40625 23.390625 
Q 47.40625 31.296875 43.53125 35.828125 
Q 39.65625 40.375 33.015625 40.375 
z
M 52.59375 71.296875 
L 52.59375 62.3125 
Q 48.875 64.0625 45.09375 64.984375 
Q 41.3125 65.921875 37.59375 65.921875 
Q 27.828125 65.921875 22.671875 59.328125 
Q 17.53125 52.734375 16.796875 39.40625 
Q 19.671875 43.65625 24.015625 45.921875 
Q 28.375 48.1875 33.59375 48.1875 
Q 44.578125 48.1875 50.953125 41.515625 
Q 57.328125 34.859375 57.328125 23.390625 
Q 57.328125 12.15625 50.6875 5.359375 
Q 44.046875 -1.421875 33.015625 -1.421875 
Q 20.359375 -1.421875 13.671875 8.265625 
Q 6.984375 17.96875 6.984375 36.375 
Q 6.984375 53.65625 15.1875 63.9375 
Q 23.390625 74.21875 37.203125 74.21875 
Q 40.921875 74.21875 44.703125 73.484375 
Q 48.484375 72.75 52.59375 71.296875 
z
" id="DejaVuSans-54"/>
      </defs>
      <g transform="translate(113.255175 673.981637)scale(0.1 -0.1)">
       <use xlink:href="#DejaVuSans-48"/>
       <use x="63.623047" xlink:href="#DejaVuSans-46"/>
       <use x="95.410156" xlink:href="#DejaVuSans-54"/>
      </g>
     </g>
    </g>
    <g id="xtick_2">
     <g id="line2d_2">
      <g>
       <use style="stroke:#000000;stroke-width:0.8;" x="206.035101" xlink:href="#mb8058bae1f" y="659.3832"/>
      </g>
     </g>
     <g id="text_2">
      <!-- 0.7 -->
      <defs>
       <path d="M 8.203125 72.90625 
L 55.078125 72.90625 
L 55.078125 68.703125 
L 28.609375 0 
L 18.3125 0 
L 43.21875 64.59375 
L 8.203125 64.59375 
z
" id="DejaVuSans-55"/>
      </defs>
      <g transform="translate(198.083538 673.981637)scale(0.1 -0.1)">
       <use xlink:href="#DejaVuSans-48"/>
       <use x="63.623047" xlink:href="#DejaVuSans-46"/>
       <use x="95.410156" xlink:href="#DejaVuSans-55"/>
      </g>
     </g>
    </g>
    <g id="xtick_3">
     <g id="line2d_3">
      <g>
       <use style="stroke:#000000;stroke-width:0.8;" x="290.863464" xlink:href="#mb8058bae1f" y="659.3832"/>
      </g>
     </g>
     <g id="text_3">
      <!-- 0.8 -->
      <defs>
       <path d="M 31.78125 34.625 
Q 24.75 34.625 20.71875 30.859375 
Q 16.703125 27.09375 16.703125 20.515625 
Q 16.703125 13.921875 20.71875 10.15625 
Q 24.75 6.390625 31.78125 6.390625 
Q 38.8125 6.390625 42.859375 10.171875 
Q 46.921875 13.96875 46.921875 20.515625 
Q 46.921875 27.09375 42.890625 30.859375 
Q 38.875 34.625 31.78125 34.625 
z
M 21.921875 38.8125 
Q 15.578125 40.375 12.03125 44.71875 
Q 8.5 49.078125 8.5 55.328125 
Q 8.5 64.0625 14.71875 69.140625 
Q 20.953125 74.21875 31.78125 74.21875 
Q 42.671875 74.21875 48.875 69.140625 
Q 55.078125 64.0625 55.078125 55.328125 
Q 55.078125 49.078125 51.53125 44.71875 
Q 48 40.375 41.703125 38.8125 
Q 48.828125 37.15625 52.796875 32.3125 
Q 56.78125 27.484375 56.78125 20.515625 
Q 56.78125 9.90625 50.3125 4.234375 
Q 43.84375 -1.421875 31.78125 -1.421875 
Q 19.734375 -1.421875 13.25 4.234375 
Q 6.78125 9.90625 6.78125 20.515625 
Q 6.78125 27.484375 10.78125 32.3125 
Q 14.796875 37.15625 21.921875 38.8125 
z
M 18.3125 54.390625 
Q 18.3125 48.734375 21.84375 45.5625 
Q 25.390625 42.390625 31.78125 42.390625 
Q 38.140625 42.390625 41.71875 45.5625 
Q 45.3125 48.734375 45.3125 54.390625 
Q 45.3125 60.0625 41.71875 63.234375 
Q 38.140625 66.40625 31.78125 66.40625 
Q 25.390625 66.40625 21.84375 63.234375 
Q 18.3125 60.0625 18.3125 54.390625 
z
" id="DejaVuSans-56"/>
      </defs>
      <g transform="translate(282.911902 673.981637)scale(0.1 -0.1)">
       <use xlink:href="#DejaVuSans-48"/>
       <use x="63.623047" xlink:href="#DejaVuSans-46"/>
       <use x="95.410156" xlink:href="#DejaVuSans-56"/>
      </g>
     </g>
    </g>
    <g id="xtick_4">
     <g id="line2d_4">
      <g>
       <use style="stroke:#000000;stroke-width:0.8;" x="375.691827" xlink:href="#mb8058bae1f" y="659.3832"/>
      </g>
     </g>
     <g id="text_4">
      <!-- 0.9 -->
      <defs>
       <path d="M 10.984375 1.515625 
L 10.984375 10.5 
Q 14.703125 8.734375 18.5 7.8125 
Q 22.3125 6.890625 25.984375 6.890625 
Q 35.75 6.890625 40.890625 13.453125 
Q 46.046875 20.015625 46.78125 33.40625 
Q 43.953125 29.203125 39.59375 26.953125 
Q 35.25 24.703125 29.984375 24.703125 
Q 19.046875 24.703125 12.671875 31.3125 
Q 6.296875 37.9375 6.296875 49.421875 
Q 6.296875 60.640625 12.9375 67.421875 
Q 19.578125 74.21875 30.609375 74.21875 
Q 43.265625 74.21875 49.921875 64.515625 
Q 56.59375 54.828125 56.59375 36.375 
Q 56.59375 19.140625 48.40625 8.859375 
Q 40.234375 -1.421875 26.421875 -1.421875 
Q 22.703125 -1.421875 18.890625 -0.6875 
Q 15.09375 0.046875 10.984375 1.515625 
z
M 30.609375 32.421875 
Q 37.25 32.421875 41.125 36.953125 
Q 45.015625 41.5 45.015625 49.421875 
Q 45.015625 57.28125 41.125 61.84375 
Q 37.25 66.40625 30.609375 66.40625 
Q 23.96875 66.40625 20.09375 61.84375 
Q 16.21875 57.28125 16.21875 49.421875 
Q 16.21875 41.5 20.09375 36.953125 
Q 23.96875 32.421875 30.609375 32.421875 
z
" id="DejaVuSans-57"/>
      </defs>
      <g transform="translate(367.740265 673.981637)scale(0.1 -0.1)">
       <use xlink:href="#DejaVuSans-48"/>
       <use x="63.623047" xlink:href="#DejaVuSans-46"/>
       <use x="95.410156" xlink:href="#DejaVuSans-57"/>
      </g>
     </g>
    </g>
    <g id="xtick_5">
     <g id="line2d_5">
      <g>
       <use style="stroke:#000000;stroke-width:0.8;" x="460.520191" xlink:href="#mb8058bae1f" y="659.3832"/>
      </g>
     </g>
     <g id="text_5">
      <!-- 1.0 -->
      <defs>
       <path d="M 12.40625 8.296875 
L 28.515625 8.296875 
L 28.515625 63.921875 
L 10.984375 60.40625 
L 10.984375 69.390625 
L 28.421875 72.90625 
L 38.28125 72.90625 
L 38.28125 8.296875 
L 54.390625 8.296875 
L 54.390625 0 
L 12.40625 0 
z
" id="DejaVuSans-49"/>
      </defs>
      <g transform="translate(452.568628 673.981637)scale(0.1 -0.1)">
       <use xlink:href="#DejaVuSans-49"/>
       <use x="63.623047" xlink:href="#DejaVuSans-46"/>
       <use x="95.410156" xlink:href="#DejaVuSans-48"/>
      </g>
     </g>
    </g>
    <g id="xtick_6">
     <g id="line2d_6">
      <g>
       <use style="stroke:#000000;stroke-width:0.8;" x="545.348554" xlink:href="#mb8058bae1f" y="659.3832"/>
      </g>
     </g>
     <g id="text_6">
      <!-- 1.1 -->
      <g transform="translate(537.396992 673.981637)scale(0.1 -0.1)">
       <use xlink:href="#DejaVuSans-49"/>
       <use x="63.623047" xlink:href="#DejaVuSans-46"/>
       <use x="95.410156" xlink:href="#DejaVuSans-49"/>
      </g>
     </g>
    </g>
    <g id="text_7">
     <!-- 1e10 -->
     <defs>
      <path d="M 56.203125 29.59375 
L 56.203125 25.203125 
L 14.890625 25.203125 
Q 15.484375 15.921875 20.484375 11.0625 
Q 25.484375 6.203125 34.421875 6.203125 
Q 39.59375 6.203125 44.453125 7.46875 
Q 49.3125 8.734375 54.109375 11.28125 
L 54.109375 2.78125 
Q 49.265625 0.734375 44.1875 -0.34375 
Q 39.109375 -1.421875 33.890625 -1.421875 
Q 20.796875 -1.421875 13.15625 6.1875 
Q 5.515625 13.8125 5.515625 26.8125 
Q 5.515625 40.234375 12.765625 48.109375 
Q 20.015625 56 32.328125 56 
Q 43.359375 56 49.78125 48.890625 
Q 56.203125 41.796875 56.203125 29.59375 
z
M 47.21875 32.234375 
Q 47.125 39.59375 43.09375 43.984375 
Q 39.0625 48.390625 32.421875 48.390625 
Q 24.90625 48.390625 20.390625 44.140625 
Q 15.875 39.890625 15.1875 32.171875 
z
" id="DejaVuSans-101"/>
     </defs>
     <g transform="translate(595.543375 686.659762)scale(0.1 -0.1)">
      <use xlink:href="#DejaVuSans-49"/>
      <use x="63.623047" xlink:href="#DejaVuSans-101"/>
      <use x="125.146484" xlink:href="#DejaVuSans-49"/>
      <use x="188.769531" xlink:href="#DejaVuSans-48"/>
     </g>
    </g>
   </g>
   <g id="matplotlib.axis_2">
    <g id="ytick_1">
     <g id="line2d_7">
      <defs>
       <path d="M 0 0 
L -3.5 0 
" id="m7df68ad9d6" style="stroke:#000000;stroke-width:0.8;"/>
      </defs>
      <g>
       <use style="stroke:#000000;stroke-width:0.8;" x="86.22" xlink:href="#m7df68ad9d6" y="633.659198"/>
      </g>
     </g>
     <g id="text_8">
      <!-- 0.0 -->
      <g transform="translate(63.316875 637.458417)scale(0.1 -0.1)">
       <use xlink:href="#DejaVuSans-48"/>
       <use x="63.623047" xlink:href="#DejaVuSans-46"/>
       <use x="95.410156" xlink:href="#DejaVuSans-48"/>
      </g>
     </g>
    </g>
    <g id="ytick_2">
     <g id="line2d_8">
      <g>
       <use style="stroke:#000000;stroke-width:0.8;" x="86.22" xlink:href="#m7df68ad9d6" y="564.006867"/>
      </g>
     </g>
     <g id="text_9">
      <!-- 0.2 -->
      <defs>
       <path d="M 19.1875 8.296875 
L 53.609375 8.296875 
L 53.609375 0 
L 7.328125 0 
L 7.328125 8.296875 
Q 12.9375 14.109375 22.625 23.890625 
Q 32.328125 33.6875 34.8125 36.53125 
Q 39.546875 41.84375 41.421875 45.53125 
Q 43.3125 49.21875 43.3125 52.78125 
Q 43.3125 58.59375 39.234375 62.25 
Q 35.15625 65.921875 28.609375 65.921875 
Q 23.96875 65.921875 18.8125 64.3125 
Q 13.671875 62.703125 7.8125 59.421875 
L 7.8125 69.390625 
Q 13.765625 71.78125 18.9375 73 
Q 24.125 74.21875 28.421875 74.21875 
Q 39.75 74.21875 46.484375 68.546875 
Q 53.21875 62.890625 53.21875 53.421875 
Q 53.21875 48.921875 51.53125 44.890625 
Q 49.859375 40.875 45.40625 35.40625 
Q 44.1875 33.984375 37.640625 27.21875 
Q 31.109375 20.453125 19.1875 8.296875 
z
" id="DejaVuSans-50"/>
      </defs>
      <g transform="translate(63.316875 567.806086)scale(0.1 -0.1)">
       <use xlink:href="#DejaVuSans-48"/>
       <use x="63.623047" xlink:href="#DejaVuSans-46"/>
       <use x="95.410156" xlink:href="#DejaVuSans-50"/>
      </g>
     </g>
    </g>
    <g id="ytick_3">
     <g id="line2d_9">
      <g>
       <use style="stroke:#000000;stroke-width:0.8;" x="86.22" xlink:href="#m7df68ad9d6" y="494.354537"/>
      </g>
     </g>
     <g id="text_10">
      <!-- 0.4 -->
      <defs>
       <path d="M 37.796875 64.3125 
L 12.890625 25.390625 
L 37.796875 25.390625 
z
M 35.203125 72.90625 
L 47.609375 72.90625 
L 47.609375 25.390625 
L 58.015625 25.390625 
L 58.015625 17.1875 
L 47.609375 17.1875 
L 47.609375 0 
L 37.796875 0 
L 37.796875 17.1875 
L 4.890625 17.1875 
L 4.890625 26.703125 
z
" id="DejaVuSans-52"/>
      </defs>
      <g transform="translate(63.316875 498.153755)scale(0.1 -0.1)">
       <use xlink:href="#DejaVuSans-48"/>
       <use x="63.623047" xlink:href="#DejaVuSans-46"/>
       <use x="95.410156" xlink:href="#DejaVuSans-52"/>
      </g>
     </g>
    </g>
    <g id="ytick_4">
     <g id="line2d_10">
      <g>
       <use style="stroke:#000000;stroke-width:0.8;" x="86.22" xlink:href="#m7df68ad9d6" y="424.702206"/>
      </g>
     </g>
     <g id="text_11">
      <!-- 0.6 -->
      <g transform="translate(63.316875 428.501425)scale(0.1 -0.1)">
       <use xlink:href="#DejaVuSans-48"/>
       <use x="63.623047" xlink:href="#DejaVuSans-46"/>
       <use x="95.410156" xlink:href="#DejaVuSans-54"/>
      </g>
     </g>
    </g>
    <g id="ytick_5">
     <g id="line2d_11">
      <g>
       <use style="stroke:#000000;stroke-width:0.8;" x="86.22" xlink:href="#m7df68ad9d6" y="355.049875"/>
      </g>
     </g>
     <g id="text_12">
      <!-- 0.8 -->
      <g transform="translate(63.316875 358.849094)scale(0.1 -0.1)">
       <use xlink:href="#DejaVuSans-48"/>
       <use x="63.623047" xlink:href="#DejaVuSans-46"/>
       <use x="95.410156" xlink:href="#DejaVuSans-56"/>
      </g>
     </g>
    </g>
    <g id="ytick_6">
     <g id="line2d_12">
      <g>
       <use style="stroke:#000000;stroke-width:0.8;" x="86.22" xlink:href="#m7df68ad9d6" y="285.397545"/>
      </g>
     </g>
     <g id="text_13">
      <!-- 1.0 -->
      <g transform="translate(63.316875 289.196763)scale(0.1 -0.1)">
       <use xlink:href="#DejaVuSans-49"/>
       <use x="63.623047" xlink:href="#DejaVuSans-46"/>
       <use x="95.410156" xlink:href="#DejaVuSans-48"/>
      </g>
     </g>
    </g>
    <g id="ytick_7">
     <g id="line2d_13">
      <g>
       <use style="stroke:#000000;stroke-width:0.8;" x="86.22" xlink:href="#m7df68ad9d6" y="215.745214"/>
      </g>
     </g>
     <g id="text_14">
      <!-- 1.2 -->
      <g transform="translate(63.316875 219.544433)scale(0.1 -0.1)">
       <use xlink:href="#DejaVuSans-49"/>
       <use x="63.623047" xlink:href="#DejaVuSans-46"/>
       <use x="95.410156" xlink:href="#DejaVuSans-50"/>
      </g>
     </g>
    </g>
    <g id="ytick_8">
     <g id="line2d_14">
      <g>
       <use style="stroke:#000000;stroke-width:0.8;" x="86.22" xlink:href="#m7df68ad9d6" y="146.092883"/>
      </g>
     </g>
     <g id="text_15">
      <!-- 1.4 -->
      <g transform="translate(63.316875 149.892102)scale(0.1 -0.1)">
       <use xlink:href="#DejaVuSans-49"/>
       <use x="63.623047" xlink:href="#DejaVuSans-46"/>
       <use x="95.410156" xlink:href="#DejaVuSans-52"/>
      </g>
     </g>
    </g>
   </g>
   <g id="line2d_15">
    <path clip-path="url(#p17a46ad064)" d="M 110.518364 413.111605 
L 112.5517 408.551537 
L 114.585035 402.718189 
L 116.618371 397.635728 
L 118.651707 391.388785 
L 120.685043 384.499751 
L 122.718379 378.12221 
L 124.751715 369.68773 
L 126.785051 360.698227 
L 128.818386 352.54671 
L 130.851722 341.228241 
L 132.885058 329.049949 
L 134.918394 318.569467 
L 136.95173 305.694652 
L 138.985066 294.746176 
L 143.051738 266.874343 
L 145.085073 254.162793 
L 149.151745 223.5593 
L 151.185081 211.326609 
L 155.251753 183.26978 
L 159.318424 161.503427 
L 161.35176 152.209194 
L 163.385096 146.005783 
L 165.418432 138.757587 
L 167.451768 133.446597 
L 169.485104 127.722046 
L 171.51844 122.911682 
L 173.551776 120.038524 
L 175.585111 116.83887 
L 179.651783 115.206428 
L 181.685119 114.8364 
L 183.718455 115.40229 
L 185.751791 115.619954 
L 189.818463 117.295963 
L 191.851798 118.732542 
L 193.885134 119.994991 
L 195.91847 121.496904 
L 199.985142 125.85014 
L 202.018478 128.244439 
L 204.051814 131.683557 
L 206.085149 135.449102 
L 208.118485 138.931718 
L 210.151821 143.415622 
L 212.185157 148.269484 
L 214.218493 152.339792 
L 216.251829 158.129677 
L 218.285165 163.549464 
L 220.318501 171.037089 
L 222.351836 180.048395 
L 224.385172 188.297842 
L 226.418508 199.181019 
L 228.451844 210.673654 
L 230.48518 220.860307 
L 234.551852 246.522803 
L 236.585188 257.776007 
L 238.618523 271.924137 
L 240.651859 283.090276 
L 242.685195 296.977245 
L 244.718531 309.993489 
L 246.751867 320.898467 
L 250.818539 345.23325 
L 256.918546 374.911655 
L 258.951882 382.529879 
L 263.018554 399.213771 
L 265.05189 405.547815 
L 267.085226 412.796011 
L 269.118561 417.921969 
L 271.151897 423.668287 
L 273.185233 428.456884 
L 275.218569 432.146299 
L 277.251905 435.585383 
L 279.285241 438.774136 
L 283.351913 442.735612 
L 285.385248 444.400756 
L 287.418584 445.27141 
L 289.45192 445.891733 
L 291.485256 445.608771 
L 293.518592 444.934014 
L 297.585264 441.179335 
L 299.618599 437.979681 
L 301.651935 434.355566 
L 303.685271 430.981781 
L 305.718607 426.204084 
L 307.751943 421.926978 
L 309.785279 418.585861 
L 313.851951 410.184048 
L 315.885286 406.646998 
L 317.918622 402.261096 
L 319.951958 398.571681 
L 324.01863 389.691009 
L 326.051966 386.64372 
L 328.085302 383.18287 
L 330.118638 380.45121 
L 332.151973 378.568403 
L 334.185309 377.001225 
L 336.218645 376.402668 
L 338.251981 376.108805 
L 340.285317 376.652964 
L 342.318653 378.263674 
L 344.351989 380.331477 
L 346.385324 383.357 
L 348.41866 386.088695 
L 350.451996 389.669243 
L 352.485332 393.489255 
L 354.518668 397.058902 
L 356.552004 401.36864 
L 358.58534 405.243086 
L 360.618676 408.181544 
L 362.652011 411.315899 
L 364.685347 414.047559 
L 366.718683 416.278627 
L 368.752019 418.25933 
L 370.785355 419.108253 
L 372.818691 420.91486 
L 374.852027 422.525571 
L 380.952034 426.867941 
L 382.98537 427.82566 
L 385.018706 428.173922 
L 387.052042 427.999791 
L 389.085378 427.17267 
L 391.118714 425.757857 
L 393.152049 423.896851 
L 397.218721 420.599231 
L 399.252057 419.271483 
L 403.318729 415.462371 
L 405.352065 414.014926 
L 411.452072 406.320503 
L 413.485408 402.914086 
L 415.518744 399.279105 
L 417.55208 396.122984 
L 419.585416 392.357405 
L 421.618752 389.277448 
L 423.652087 385.598935 
L 425.685423 382.562546 
L 431.785431 376.130571 
L 433.818767 375.270817 
L 435.852103 373.747138 
L 437.885439 374.258665 
L 439.918774 375.390515 
L 441.95211 377.218889 
L 446.018782 381.90952 
L 448.052118 385.707766 
L 450.085454 388.667991 
L 452.11879 393.249825 
L 454.152126 398.832878 
L 456.185461 403.697675 
L 462.285469 424.756604 
L 464.318805 432.244265 
L 466.352141 440.188949 
L 468.385477 447.110649 
L 472.452148 462.749791 
L 474.485484 469.31233 
L 476.51882 476.48436 
L 478.552156 482.480973 
L 482.618828 496.367907 
L 484.652164 501.216371 
L 486.685499 507.305517 
L 488.718835 512.975634 
L 490.752171 517.726167 
L 494.818843 528.250182 
L 496.852179 532.587119 
L 498.885515 537.615146 
L 500.918851 540.428474 
L 502.952186 545.298669 
L 504.985522 549.379878 
L 507.018858 552.421734 
L 511.08553 559.3815 
L 513.118866 561.977163 
L 515.152202 565.067986 
L 517.185537 567.516683 
L 519.218873 569.538237 
L 521.252209 571.92982 
L 523.285545 574.136371 
L 525.318881 575.744364 
L 527.352217 577.877467 
L 529.385553 579.760274 
L 531.418889 581.428099 
L 533.452224 583.384354 
L 543.618904 591.56307 
L 547.685576 594.275715 
L 549.718911 595.630662 
L 551.752247 596.493132 
L 555.818919 598.726917 
L 557.852255 599.341808 
L 561.918927 600.985185 
L 563.952262 601.472194 
L 565.985598 601.708908 
L 568.018934 602.236733 
L 572.085606 602.993122 
L 576.152278 603.613481 
L 584.285621 604.405219 
L 590.385629 604.854163 
L 594.4523 605.047309 
L 596.485636 605.183375 
L 596.485636 605.183375 
" style="fill:none;stroke:#1f77b4;stroke-linecap:square;stroke-width:1.5;"/>
   </g>
   <g id="line2d_16">
    <path clip-path="url(#p17a46ad064)" d="M 110.518364 626.783747 
L 112.5517 626.563367 
L 116.618371 625.526731 
L 118.651707 624.813909 
L 122.718379 622.963769 
L 124.751715 621.788386 
L 128.818386 618.90161 
L 130.851722 617.111336 
L 134.918394 613.027411 
L 138.985066 608.22248 
L 141.018402 605.335739 
L 145.085073 598.895615 
L 147.118409 595.01302 
L 149.151745 590.787631 
L 151.185081 586.937703 
L 159.318424 568.659434 
L 161.35176 563.517107 
L 167.451768 549.728139 
L 169.485104 545.423834 
L 171.51844 540.640704 
L 173.551776 537.778411 
L 175.585111 533.708103 
L 177.618447 530.127521 
L 179.651783 527.129232 
L 183.718455 520.283696 
L 187.785127 514.063952 
L 189.818463 511.566289 
L 193.885134 506.026735 
L 195.91847 503.480071 
L 202.018478 494.457935 
L 206.085149 487.906228 
L 212.185157 478.884092 
L 216.251829 474.002996 
L 220.318501 470.416981 
L 222.351836 469.132766 
L 224.385172 468.506975 
L 226.418508 468.131514 
L 228.451844 468.485208 
L 230.48518 469.404863 
L 232.518516 470.792442 
L 236.585188 474.666853 
L 238.618523 477.028519 
L 240.651859 478.818793 
L 242.685195 481.327357 
L 246.751867 485.822126 
L 263.018554 503.654202 
L 267.085226 507.376249 
L 273.185233 511.566289 
L 277.251905 513.634093 
L 279.285241 514.444881 
L 283.351913 515.288336 
L 285.385248 515.375401 
L 287.418584 515.261101 
L 289.45192 514.820342 
L 291.485256 514.009554 
L 293.518592 512.991968 
L 297.585264 509.863046 
L 299.618599 507.800675 
L 301.651935 505.42271 
L 303.685271 503.267841 
L 305.718607 500.596047 
L 307.751943 498.430277 
L 311.818615 494.866028 
L 313.851951 492.972356 
L 315.885286 491.377979 
L 317.918622 489.397241 
L 324.01863 484.450846 
L 326.051966 483.498559 
L 328.085302 482.682338 
L 330.118638 482.241543 
L 332.151973 482.285076 
L 334.185309 482.75307 
L 338.251981 484.891606 
L 340.285317 486.774378 
L 344.351989 491.606543 
L 346.385324 494.632031 
L 348.41866 497.287561 
L 358.58534 513.30213 
L 364.685347 521.078186 
L 368.752019 525.349824 
L 370.785355 526.78097 
L 376.885362 533.419708 
L 380.952034 538.328003 
L 382.98537 540.357742 
L 385.018706 542.148016 
L 387.052042 543.541062 
L 389.085378 544.743644 
L 395.185385 549.298245 
L 397.218721 551.246351 
L 399.252057 553.036625 
L 407.385401 561.106509 
L 409.418736 564.28168 
L 411.452072 565.557711 
L 415.518744 570.324542 
L 417.55208 572.539278 
L 421.618752 577.877467 
L 423.652087 581.104355 
L 425.685423 584.8046 
L 427.718759 588.045071 
L 431.785431 595.380332 
L 433.818767 598.207241 
L 435.852103 599.975749 
L 437.885439 600.528092 
L 439.918774 599.562188 
L 441.95211 597.393737 
L 450.085454 585.400476 
L 452.11879 582.5409 
L 454.152126 580.016003 
L 456.185461 578.051598 
L 458.218797 576.364723 
L 460.252133 575.137623 
L 464.318805 573.804443 
L 466.352141 573.875175 
L 468.385477 574.109172 
L 470.418812 574.743112 
L 472.452148 575.619199 
L 474.485484 576.650402 
L 476.51882 577.809452 
L 480.585492 580.522096 
L 482.618828 582.380386 
L 484.652164 583.849632 
L 486.685499 585.471208 
L 488.718835 587.359448 
L 492.785507 590.284288 
L 494.818843 592.08003 
L 498.885515 594.852506 
L 500.918851 595.660578 
L 502.952186 597.244089 
L 504.985522 598.403138 
L 507.018858 599.401674 
L 509.052194 600.606973 
L 511.08553 601.616409 
L 513.118866 602.443531 
L 515.152202 603.458365 
L 521.252209 605.958779 
L 523.285545 606.707019 
L 525.318881 607.286527 
L 527.352217 608.094598 
L 533.452224 609.825041 
L 537.518896 610.654879 
L 543.618904 611.650698 
L 551.752247 612.352654 
L 555.818919 612.534934 
L 563.952262 612.464203 
L 565.985598 612.192141 
L 570.05227 612.077841 
L 578.185614 611.748629 
L 590.385629 611.900994 
L 596.485636 612.129558 
L 596.485636 612.129558 
" style="fill:none;stroke:#ff7f0e;stroke-linecap:square;stroke-width:1.5;"/>
   </g>
   <g id="line2d_17">
    <path clip-path="url(#p17a46ad064)" d="M 110.518364 596.504033 
L 112.5517 592.490874 
L 114.585035 593.516609 
L 116.618371 593.655357 
L 120.685043 592.629622 
L 122.718379 592.085463 
L 124.751715 591.100544 
L 128.818386 588.853142 
L 130.851722 587.217949 
L 134.918394 583.762567 
L 136.95173 581.547831 
L 138.985066 579.613342 
L 143.051738 574.277869 
L 145.085073 571.807371 
L 149.151745 565.293798 
L 151.185081 562.355341 
L 155.251753 554.941164 
L 157.285089 551.804092 
L 159.318424 548.01403 
L 161.35176 544.607579 
L 163.385096 544.678345 
L 165.418432 540.466539 
L 167.451768 538.861296 
L 169.485104 537.484548 
L 171.51844 536.554063 
L 173.551776 536.107835 
L 175.585111 535.81944 
L 177.618447 519.70687 
L 179.651783 524.294138 
L 181.685119 526.993166 
L 183.718455 529.507197 
L 189.818463 536.145935 
L 193.885134 541.190296 
L 195.91847 543.317931 
L 199.985142 548.411258 
L 202.018478 550.408329 
L 206.085149 555.65402 
L 208.118485 557.683724 
L 210.151821 560.31202 
L 212.185157 564.91287 
L 214.218493 565.614861 
L 216.251829 567.943861 
L 218.285165 569.910982 
L 222.351836 574.541782 
L 224.385172 576.555152 
L 232.518516 586.26023 
L 234.551852 588.986491 
L 236.585188 591.320924 
L 238.618523 594.109734 
L 240.651859 596.348952 
L 242.685195 592.926201 
L 244.718531 597.265855 
L 250.818539 606.015929 
L 256.918546 612.25744 
L 263.018554 616.882772 
L 269.118561 620.04161 
L 273.185233 621.842784 
L 279.285241 623.831672 
L 285.385248 625.129504 
L 291.485256 625.845077 
L 295.551928 626.08179 
L 301.651935 626.138905 
L 305.718607 625.994725 
L 307.751943 623.687492 
L 309.785279 624.008554 
L 311.818615 623.926921 
L 315.885286 623.50246 
L 332.151973 621.097295 
L 336.218645 620.681018 
L 342.318653 620.297373 
L 346.385324 620.335473 
L 350.451996 620.577619 
L 354.518668 620.983031 
L 360.618676 621.867267 
L 370.785355 623.867055 
L 372.818691 622.607323 
L 374.852027 623.467112 
L 378.918698 624.528195 
L 382.98537 625.284585 
L 387.052042 625.910376 
L 393.152049 626.59875 
L 401.285393 627.194591 
L 409.418736 627.659834 
L 415.518744 627.782282 
L 435.852103 627.512937 
L 437.885439 625.709046 
L 439.918774 626.117139 
L 443.985446 626.215105 
L 450.085454 626.177005 
L 458.218797 626.060024 
L 462.285469 626.10084 
L 468.385477 626.35932 
L 474.485484 626.857195 
L 484.652164 628.114211 
L 500.918851 630.396961 
L 502.952186 630.380628 
L 507.018858 630.919354 
L 513.118866 631.490712 
L 519.218873 631.915173 
L 527.352217 632.347784 
L 547.685576 632.987157 
L 559.885591 633.210254 
L 588.352293 633.411619 
L 596.485636 633.4524 
L 596.485636 633.4524 
" style="fill:none;stroke:#2ca02c;stroke-linecap:square;stroke-width:1.5;"/>
   </g>
   <g id="line2d_18">
    <path clip-path="url(#p17a46ad064)" d="M 110.518364 627.521086 
L 112.5517 633.161288 
L 120.685043 633.144955 
L 130.851722 632.932759 
L 147.118409 632.29335 
L 157.285089 631.523379 
L 167.451768 630.492176 
L 175.585111 629.471909 
L 177.618447 627.482986 
L 179.651783 627.795899 
L 183.718455 627.605435 
L 189.818463 627.170108 
L 195.91847 626.786463 
L 208.118485 626.155239 
L 212.185157 625.899475 
L 214.218493 625.932142 
L 216.251829 625.747111 
L 222.351836 625.556681 
L 228.451844 625.673663 
L 232.518516 625.921242 
L 238.618523 626.557934 
L 240.651859 626.816414 
L 242.685195 625.069638 
L 244.718531 626.106273 
L 248.785203 627.129292 
L 252.851874 627.882965 
L 258.951882 628.696469 
L 267.085226 629.509974 
L 277.251905 630.152098 
L 283.351913 630.304463 
L 289.45192 630.331662 
L 297.585264 630.179298 
L 305.718607 629.79022 
L 307.751943 628.369974 
L 309.785279 628.609404 
L 313.851951 628.41894 
L 321.985294 627.831248 
L 330.118638 627.325189 
L 338.251981 627.044943 
L 342.318653 627.042226 
L 348.41866 627.287089 
L 352.485332 627.586385 
L 360.618676 628.375407 
L 370.785355 629.501824 
L 372.818691 629.036582 
L 374.852027 629.474625 
L 380.952034 630.187447 
L 391.118714 630.952021 
L 403.318729 631.675743 
L 419.585416 632.3505 
L 446.018782 633.093273 
L 456.185461 633.193955 
L 470.418812 633.139522 
L 490.752171 633.019824 
L 529.385553 633.229304 
L 565.985598 633.373519 
L 572.085606 633.376235 
L 596.485636 633.449684 
L 596.485636 633.449684 
" style="fill:none;stroke:#d62728;stroke-linecap:square;stroke-width:1.5;"/>
   </g>
   <g id="patch_3">
    <path d="M 86.22 659.3832 
L 86.22 88.9056 
" style="fill:none;stroke:#000000;stroke-linecap:square;stroke-linejoin:miter;stroke-width:0.8;"/>
   </g>
   <g id="patch_4">
    <path d="M 620.784 659.3832 
L 620.784 88.9056 
" style="fill:none;stroke:#000000;stroke-linecap:square;stroke-linejoin:miter;stroke-width:0.8;"/>
   </g>
   <g id="patch_5">
    <path d="M 86.22 659.3832 
L 620.784 659.3832 
" style="fill:none;stroke:#000000;stroke-linecap:square;stroke-linejoin:miter;stroke-width:0.8;"/>
   </g>
   <g id="patch_6">
    <path d="M 86.22 88.9056 
L 620.784 88.9056 
" style="fill:none;stroke:#000000;stroke-linecap:square;stroke-linejoin:miter;stroke-width:0.8;"/>
   </g>
  </g>
 </g>
 <defs>
  <clipPath id="p17a46ad064">
   <rect height="570.4776" width="534.564" x="86.22" y="88.9056"/>
  </clipPath>
 </defs>
</svg>
