<?xml version="1.0" encoding="utf-8" standalone="no"?>
<!DOCTYPE svg PUBLIC "-//W3C//DTD SVG 1.1//EN"
  "http://www.w3.org/Graphics/SVG/1.1/DTD/svg11.dtd">
<!-- Created with matplotlib (https://matplotlib.org/) -->
<svg height="740.88pt" version="1.1" viewBox="0 0 689.76 740.88" width="689.76pt" xmlns="http://www.w3.org/2000/svg" xmlns:xlink="http://www.w3.org/1999/xlink">
 <defs>
  <style type="text/css">
*{stroke-linecap:butt;stroke-linejoin:round;}
  </style>
 </defs>
 <g id="figure_1">
  <g id="patch_1">
   <path d="M 0 740.88 
L 689.76 740.88 
L 689.76 0 
L 0 0 
z
" style="fill:#ffffff;"/>
  </g>
  <g id="axes_1">
   <g id="patch_2">
    <path d="M 86.22 659.3832 
L 620.784 659.3832 
L 620.784 88.9056 
L 86.22 88.9056 
z
" style="fill:#ffffff;"/>
   </g>
   <g id="matplotlib.axis_1">
    <g id="xtick_1">
     <g id="line2d_1">
      <defs>
       <path d="M 0 0 
L 0 3.5 
" id="mee1981851b" style="stroke:#000000;stroke-width:0.8;"/>
      </defs>
      <g>
       <use style="stroke:#000000;stroke-width:0.8;" x="121.206737" xlink:href="#mee1981851b" y="659.3832"/>
      </g>
     </g>
     <g id="text_1">
      <!-- 0.6 -->
      <defs>
       <path d="M 31.78125 66.40625 
Q 24.171875 66.40625 20.328125 58.90625 
Q 16.5 51.421875 16.5 36.375 
Q 16.5 21.390625 20.328125 13.890625 
Q 24.171875 6.390625 31.78125 6.390625 
Q 39.453125 6.390625 43.28125 13.890625 
Q 47.125 21.390625 47.125 36.375 
Q 47.125 51.421875 43.28125 58.90625 
Q 39.453125 66.40625 31.78125 66.40625 
z
M 31.78125 74.21875 
Q 44.046875 74.21875 50.515625 64.515625 
Q 56.984375 54.828125 56.984375 36.375 
Q 56.984375 17.96875 50.515625 8.265625 
Q 44.046875 -1.421875 31.78125 -1.421875 
Q 19.53125 -1.421875 13.0625 8.265625 
Q 6.59375 17.96875 6.59375 36.375 
Q 6.59375 54.828125 13.0625 64.515625 
Q 19.53125 74.21875 31.78125 74.21875 
z
" id="DejaVuSans-48"/>
       <path d="M 10.6875 12.40625 
L 21 12.40625 
L 21 0 
L 10.6875 0 
z
" id="DejaVuSans-46"/>
       <path d="M 33.015625 40.375 
Q 26.375 40.375 22.484375 35.828125 
Q 18.609375 31.296875 18.609375 23.390625 
Q 18.609375 15.53125 22.484375 10.953125 
Q 26.375 6.390625 33.015625 6.390625 
Q 39.65625 6.390625 43.53125 10.953125 
Q 47.40625 15.53125 47.40625 23.390625 
Q 47.40625 31.296875 43.53125 35.828125 
Q 39.65625 40.375 33.015625 40.375 
z
M 52.59375 71.296875 
L 52.59375 62.3125 
Q 48.875 64.0625 45.09375 64.984375 
Q 41.3125 65.921875 37.59375 65.921875 
Q 27.828125 65.921875 22.671875 59.328125 
Q 17.53125 52.734375 16.796875 39.40625 
Q 19.671875 43.65625 24.015625 45.921875 
Q 28.375 48.1875 33.59375 48.1875 
Q 44.578125 48.1875 50.953125 41.515625 
Q 57.328125 34.859375 57.328125 23.390625 
Q 57.328125 12.15625 50.6875 5.359375 
Q 44.046875 -1.421875 33.015625 -1.421875 
Q 20.359375 -1.421875 13.671875 8.265625 
Q 6.984375 17.96875 6.984375 36.375 
Q 6.984375 53.65625 15.1875 63.9375 
Q 23.390625 74.21875 37.203125 74.21875 
Q 40.921875 74.21875 44.703125 73.484375 
Q 48.484375 72.75 52.59375 71.296875 
z
" id="DejaVuSans-54"/>
      </defs>
      <g transform="translate(113.255175 673.981637)scale(0.1 -0.1)">
       <use xlink:href="#DejaVuSans-48"/>
       <use x="63.623047" xlink:href="#DejaVuSans-46"/>
       <use x="95.410156" xlink:href="#DejaVuSans-54"/>
      </g>
     </g>
    </g>
    <g id="xtick_2">
     <g id="line2d_2">
      <g>
       <use style="stroke:#000000;stroke-width:0.8;" x="206.035101" xlink:href="#mee1981851b" y="659.3832"/>
      </g>
     </g>
     <g id="text_2">
      <!-- 0.7 -->
      <defs>
       <path d="M 8.203125 72.90625 
L 55.078125 72.90625 
L 55.078125 68.703125 
L 28.609375 0 
L 18.3125 0 
L 43.21875 64.59375 
L 8.203125 64.59375 
z
" id="DejaVuSans-55"/>
      </defs>
      <g transform="translate(198.083538 673.981637)scale(0.1 -0.1)">
       <use xlink:href="#DejaVuSans-48"/>
       <use x="63.623047" xlink:href="#DejaVuSans-46"/>
       <use x="95.410156" xlink:href="#DejaVuSans-55"/>
      </g>
     </g>
    </g>
    <g id="xtick_3">
     <g id="line2d_3">
      <g>
       <use style="stroke:#000000;stroke-width:0.8;" x="290.863464" xlink:href="#mee1981851b" y="659.3832"/>
      </g>
     </g>
     <g id="text_3">
      <!-- 0.8 -->
      <defs>
       <path d="M 31.78125 34.625 
Q 24.75 34.625 20.71875 30.859375 
Q 16.703125 27.09375 16.703125 20.515625 
Q 16.703125 13.921875 20.71875 10.15625 
Q 24.75 6.390625 31.78125 6.390625 
Q 38.8125 6.390625 42.859375 10.171875 
Q 46.921875 13.96875 46.921875 20.515625 
Q 46.921875 27.09375 42.890625 30.859375 
Q 38.875 34.625 31.78125 34.625 
z
M 21.921875 38.8125 
Q 15.578125 40.375 12.03125 44.71875 
Q 8.5 49.078125 8.5 55.328125 
Q 8.5 64.0625 14.71875 69.140625 
Q 20.953125 74.21875 31.78125 74.21875 
Q 42.671875 74.21875 48.875 69.140625 
Q 55.078125 64.0625 55.078125 55.328125 
Q 55.078125 49.078125 51.53125 44.71875 
Q 48 40.375 41.703125 38.8125 
Q 48.828125 37.15625 52.796875 32.3125 
Q 56.78125 27.484375 56.78125 20.515625 
Q 56.78125 9.90625 50.3125 4.234375 
Q 43.84375 -1.421875 31.78125 -1.421875 
Q 19.734375 -1.421875 13.25 4.234375 
Q 6.78125 9.90625 6.78125 20.515625 
Q 6.78125 27.484375 10.78125 32.3125 
Q 14.796875 37.15625 21.921875 38.8125 
z
M 18.3125 54.390625 
Q 18.3125 48.734375 21.84375 45.5625 
Q 25.390625 42.390625 31.78125 42.390625 
Q 38.140625 42.390625 41.71875 45.5625 
Q 45.3125 48.734375 45.3125 54.390625 
Q 45.3125 60.0625 41.71875 63.234375 
Q 38.140625 66.40625 31.78125 66.40625 
Q 25.390625 66.40625 21.84375 63.234375 
Q 18.3125 60.0625 18.3125 54.390625 
z
" id="DejaVuSans-56"/>
      </defs>
      <g transform="translate(282.911902 673.981637)scale(0.1 -0.1)">
       <use xlink:href="#DejaVuSans-48"/>
       <use x="63.623047" xlink:href="#DejaVuSans-46"/>
       <use x="95.410156" xlink:href="#DejaVuSans-56"/>
      </g>
     </g>
    </g>
    <g id="xtick_4">
     <g id="line2d_4">
      <g>
       <use style="stroke:#000000;stroke-width:0.8;" x="375.691827" xlink:href="#mee1981851b" y="659.3832"/>
      </g>
     </g>
     <g id="text_4">
      <!-- 0.9 -->
      <defs>
       <path d="M 10.984375 1.515625 
L 10.984375 10.5 
Q 14.703125 8.734375 18.5 7.8125 
Q 22.3125 6.890625 25.984375 6.890625 
Q 35.75 6.890625 40.890625 13.453125 
Q 46.046875 20.015625 46.78125 33.40625 
Q 43.953125 29.203125 39.59375 26.953125 
Q 35.25 24.703125 29.984375 24.703125 
Q 19.046875 24.703125 12.671875 31.3125 
Q 6.296875 37.9375 6.296875 49.421875 
Q 6.296875 60.640625 12.9375 67.421875 
Q 19.578125 74.21875 30.609375 74.21875 
Q 43.265625 74.21875 49.921875 64.515625 
Q 56.59375 54.828125 56.59375 36.375 
Q 56.59375 19.140625 48.40625 8.859375 
Q 40.234375 -1.421875 26.421875 -1.421875 
Q 22.703125 -1.421875 18.890625 -0.6875 
Q 15.09375 0.046875 10.984375 1.515625 
z
M 30.609375 32.421875 
Q 37.25 32.421875 41.125 36.953125 
Q 45.015625 41.5 45.015625 49.421875 
Q 45.015625 57.28125 41.125 61.84375 
Q 37.25 66.40625 30.609375 66.40625 
Q 23.96875 66.40625 20.09375 61.84375 
Q 16.21875 57.28125 16.21875 49.421875 
Q 16.21875 41.5 20.09375 36.953125 
Q 23.96875 32.421875 30.609375 32.421875 
z
" id="DejaVuSans-57"/>
      </defs>
      <g transform="translate(367.740265 673.981637)scale(0.1 -0.1)">
       <use xlink:href="#DejaVuSans-48"/>
       <use x="63.623047" xlink:href="#DejaVuSans-46"/>
       <use x="95.410156" xlink:href="#DejaVuSans-57"/>
      </g>
     </g>
    </g>
    <g id="xtick_5">
     <g id="line2d_5">
      <g>
       <use style="stroke:#000000;stroke-width:0.8;" x="460.520191" xlink:href="#mee1981851b" y="659.3832"/>
      </g>
     </g>
     <g id="text_5">
      <!-- 1.0 -->
      <defs>
       <path d="M 12.40625 8.296875 
L 28.515625 8.296875 
L 28.515625 63.921875 
L 10.984375 60.40625 
L 10.984375 69.390625 
L 28.421875 72.90625 
L 38.28125 72.90625 
L 38.28125 8.296875 
L 54.390625 8.296875 
L 54.390625 0 
L 12.40625 0 
z
" id="DejaVuSans-49"/>
      </defs>
      <g transform="translate(452.568628 673.981637)scale(0.1 -0.1)">
       <use xlink:href="#DejaVuSans-49"/>
       <use x="63.623047" xlink:href="#DejaVuSans-46"/>
       <use x="95.410156" xlink:href="#DejaVuSans-48"/>
      </g>
     </g>
    </g>
    <g id="xtick_6">
     <g id="line2d_6">
      <g>
       <use style="stroke:#000000;stroke-width:0.8;" x="545.348554" xlink:href="#mee1981851b" y="659.3832"/>
      </g>
     </g>
     <g id="text_6">
      <!-- 1.1 -->
      <g transform="translate(537.396992 673.981637)scale(0.1 -0.1)">
       <use xlink:href="#DejaVuSans-49"/>
       <use x="63.623047" xlink:href="#DejaVuSans-46"/>
       <use x="95.410156" xlink:href="#DejaVuSans-49"/>
      </g>
     </g>
    </g>
    <g id="text_7">
     <!-- 1e10 -->
     <defs>
      <path d="M 56.203125 29.59375 
L 56.203125 25.203125 
L 14.890625 25.203125 
Q 15.484375 15.921875 20.484375 11.0625 
Q 25.484375 6.203125 34.421875 6.203125 
Q 39.59375 6.203125 44.453125 7.46875 
Q 49.3125 8.734375 54.109375 11.28125 
L 54.109375 2.78125 
Q 49.265625 0.734375 44.1875 -0.34375 
Q 39.109375 -1.421875 33.890625 -1.421875 
Q 20.796875 -1.421875 13.15625 6.1875 
Q 5.515625 13.8125 5.515625 26.8125 
Q 5.515625 40.234375 12.765625 48.109375 
Q 20.015625 56 32.328125 56 
Q 43.359375 56 49.78125 48.890625 
Q 56.203125 41.796875 56.203125 29.59375 
z
M 47.21875 32.234375 
Q 47.125 39.59375 43.09375 43.984375 
Q 39.0625 48.390625 32.421875 48.390625 
Q 24.90625 48.390625 20.390625 44.140625 
Q 15.875 39.890625 15.1875 32.171875 
z
" id="DejaVuSans-101"/>
     </defs>
     <g transform="translate(595.543375 686.659762)scale(0.1 -0.1)">
      <use xlink:href="#DejaVuSans-49"/>
      <use x="63.623047" xlink:href="#DejaVuSans-101"/>
      <use x="125.146484" xlink:href="#DejaVuSans-49"/>
      <use x="188.769531" xlink:href="#DejaVuSans-48"/>
     </g>
    </g>
   </g>
   <g id="matplotlib.axis_2">
    <g id="ytick_1">
     <g id="line2d_7">
      <defs>
       <path d="M 0 0 
L -3.5 0 
" id="m3151c3d6ac" style="stroke:#000000;stroke-width:0.8;"/>
      </defs>
      <g>
       <use style="stroke:#000000;stroke-width:0.8;" x="86.22" xlink:href="#m3151c3d6ac" y="641.181286"/>
      </g>
     </g>
     <g id="text_8">
      <!-- 0 -->
      <g transform="translate(72.8575 644.980505)scale(0.1 -0.1)">
       <use xlink:href="#DejaVuSans-48"/>
      </g>
     </g>
    </g>
    <g id="ytick_2">
     <g id="line2d_8">
      <g>
       <use style="stroke:#000000;stroke-width:0.8;" x="86.22" xlink:href="#m3151c3d6ac" y="576.769574"/>
      </g>
     </g>
     <g id="text_9">
      <!-- 10 -->
      <g transform="translate(66.495 580.568793)scale(0.1 -0.1)">
       <use xlink:href="#DejaVuSans-49"/>
       <use x="63.623047" xlink:href="#DejaVuSans-48"/>
      </g>
     </g>
    </g>
    <g id="ytick_3">
     <g id="line2d_9">
      <g>
       <use style="stroke:#000000;stroke-width:0.8;" x="86.22" xlink:href="#m3151c3d6ac" y="512.357863"/>
      </g>
     </g>
     <g id="text_10">
      <!-- 20 -->
      <defs>
       <path d="M 19.1875 8.296875 
L 53.609375 8.296875 
L 53.609375 0 
L 7.328125 0 
L 7.328125 8.296875 
Q 12.9375 14.109375 22.625 23.890625 
Q 32.328125 33.6875 34.8125 36.53125 
Q 39.546875 41.84375 41.421875 45.53125 
Q 43.3125 49.21875 43.3125 52.78125 
Q 43.3125 58.59375 39.234375 62.25 
Q 35.15625 65.921875 28.609375 65.921875 
Q 23.96875 65.921875 18.8125 64.3125 
Q 13.671875 62.703125 7.8125 59.421875 
L 7.8125 69.390625 
Q 13.765625 71.78125 18.9375 73 
Q 24.125 74.21875 28.421875 74.21875 
Q 39.75 74.21875 46.484375 68.546875 
Q 53.21875 62.890625 53.21875 53.421875 
Q 53.21875 48.921875 51.53125 44.890625 
Q 49.859375 40.875 45.40625 35.40625 
Q 44.1875 33.984375 37.640625 27.21875 
Q 31.109375 20.453125 19.1875 8.296875 
z
" id="DejaVuSans-50"/>
      </defs>
      <g transform="translate(66.495 516.157081)scale(0.1 -0.1)">
       <use xlink:href="#DejaVuSans-50"/>
       <use x="63.623047" xlink:href="#DejaVuSans-48"/>
      </g>
     </g>
    </g>
    <g id="ytick_4">
     <g id="line2d_10">
      <g>
       <use style="stroke:#000000;stroke-width:0.8;" x="86.22" xlink:href="#m3151c3d6ac" y="447.946151"/>
      </g>
     </g>
     <g id="text_11">
      <!-- 30 -->
      <defs>
       <path d="M 40.578125 39.3125 
Q 47.65625 37.796875 51.625 33 
Q 55.609375 28.21875 55.609375 21.1875 
Q 55.609375 10.40625 48.1875 4.484375 
Q 40.765625 -1.421875 27.09375 -1.421875 
Q 22.515625 -1.421875 17.65625 -0.515625 
Q 12.796875 0.390625 7.625 2.203125 
L 7.625 11.71875 
Q 11.71875 9.328125 16.59375 8.109375 
Q 21.484375 6.890625 26.8125 6.890625 
Q 36.078125 6.890625 40.9375 10.546875 
Q 45.796875 14.203125 45.796875 21.1875 
Q 45.796875 27.640625 41.28125 31.265625 
Q 36.765625 34.90625 28.71875 34.90625 
L 20.21875 34.90625 
L 20.21875 43.015625 
L 29.109375 43.015625 
Q 36.375 43.015625 40.234375 45.921875 
Q 44.09375 48.828125 44.09375 54.296875 
Q 44.09375 59.90625 40.109375 62.90625 
Q 36.140625 65.921875 28.71875 65.921875 
Q 24.65625 65.921875 20.015625 65.03125 
Q 15.375 64.15625 9.8125 62.3125 
L 9.8125 71.09375 
Q 15.4375 72.65625 20.34375 73.4375 
Q 25.25 74.21875 29.59375 74.21875 
Q 40.828125 74.21875 47.359375 69.109375 
Q 53.90625 64.015625 53.90625 55.328125 
Q 53.90625 49.265625 50.4375 45.09375 
Q 46.96875 40.921875 40.578125 39.3125 
z
" id="DejaVuSans-51"/>
      </defs>
      <g transform="translate(66.495 451.74537)scale(0.1 -0.1)">
       <use xlink:href="#DejaVuSans-51"/>
       <use x="63.623047" xlink:href="#DejaVuSans-48"/>
      </g>
     </g>
    </g>
    <g id="ytick_5">
     <g id="line2d_11">
      <g>
       <use style="stroke:#000000;stroke-width:0.8;" x="86.22" xlink:href="#m3151c3d6ac" y="383.534439"/>
      </g>
     </g>
     <g id="text_12">
      <!-- 40 -->
      <defs>
       <path d="M 37.796875 64.3125 
L 12.890625 25.390625 
L 37.796875 25.390625 
z
M 35.203125 72.90625 
L 47.609375 72.90625 
L 47.609375 25.390625 
L 58.015625 25.390625 
L 58.015625 17.1875 
L 47.609375 17.1875 
L 47.609375 0 
L 37.796875 0 
L 37.796875 17.1875 
L 4.890625 17.1875 
L 4.890625 26.703125 
z
" id="DejaVuSans-52"/>
      </defs>
      <g transform="translate(66.495 387.333658)scale(0.1 -0.1)">
       <use xlink:href="#DejaVuSans-52"/>
       <use x="63.623047" xlink:href="#DejaVuSans-48"/>
      </g>
     </g>
    </g>
    <g id="ytick_6">
     <g id="line2d_12">
      <g>
       <use style="stroke:#000000;stroke-width:0.8;" x="86.22" xlink:href="#m3151c3d6ac" y="319.122728"/>
      </g>
     </g>
     <g id="text_13">
      <!-- 50 -->
      <defs>
       <path d="M 10.796875 72.90625 
L 49.515625 72.90625 
L 49.515625 64.59375 
L 19.828125 64.59375 
L 19.828125 46.734375 
Q 21.96875 47.46875 24.109375 47.828125 
Q 26.265625 48.1875 28.421875 48.1875 
Q 40.625 48.1875 47.75 41.5 
Q 54.890625 34.8125 54.890625 23.390625 
Q 54.890625 11.625 47.5625 5.09375 
Q 40.234375 -1.421875 26.90625 -1.421875 
Q 22.3125 -1.421875 17.546875 -0.640625 
Q 12.796875 0.140625 7.71875 1.703125 
L 7.71875 11.625 
Q 12.109375 9.234375 16.796875 8.0625 
Q 21.484375 6.890625 26.703125 6.890625 
Q 35.15625 6.890625 40.078125 11.328125 
Q 45.015625 15.765625 45.015625 23.390625 
Q 45.015625 31 40.078125 35.4375 
Q 35.15625 39.890625 26.703125 39.890625 
Q 22.75 39.890625 18.8125 39.015625 
Q 14.890625 38.140625 10.796875 36.28125 
z
" id="DejaVuSans-53"/>
      </defs>
      <g transform="translate(66.495 322.921946)scale(0.1 -0.1)">
       <use xlink:href="#DejaVuSans-53"/>
       <use x="63.623047" xlink:href="#DejaVuSans-48"/>
      </g>
     </g>
    </g>
    <g id="ytick_7">
     <g id="line2d_13">
      <g>
       <use style="stroke:#000000;stroke-width:0.8;" x="86.22" xlink:href="#m3151c3d6ac" y="254.711016"/>
      </g>
     </g>
     <g id="text_14">
      <!-- 60 -->
      <g transform="translate(66.495 258.510235)scale(0.1 -0.1)">
       <use xlink:href="#DejaVuSans-54"/>
       <use x="63.623047" xlink:href="#DejaVuSans-48"/>
      </g>
     </g>
    </g>
    <g id="ytick_8">
     <g id="line2d_14">
      <g>
       <use style="stroke:#000000;stroke-width:0.8;" x="86.22" xlink:href="#m3151c3d6ac" y="190.299304"/>
      </g>
     </g>
     <g id="text_15">
      <!-- 70 -->
      <g transform="translate(66.495 194.098523)scale(0.1 -0.1)">
       <use xlink:href="#DejaVuSans-55"/>
       <use x="63.623047" xlink:href="#DejaVuSans-48"/>
      </g>
     </g>
    </g>
    <g id="ytick_9">
     <g id="line2d_15">
      <g>
       <use style="stroke:#000000;stroke-width:0.8;" x="86.22" xlink:href="#m3151c3d6ac" y="125.887592"/>
      </g>
     </g>
     <g id="text_16">
      <!-- 80 -->
      <g transform="translate(66.495 129.686811)scale(0.1 -0.1)">
       <use xlink:href="#DejaVuSans-56"/>
       <use x="63.623047" xlink:href="#DejaVuSans-48"/>
      </g>
     </g>
    </g>
   </g>
   <g id="line2d_16">
    <path clip-path="url(#pc929e0cf3f)" d="M 110.518364 122.808418 
L 112.5517 131.174515 
L 114.585035 146.008796 
L 116.618371 163.867785 
L 118.651707 187.855267 
L 122.718379 244.717582 
L 124.751715 270.448516 
L 126.785051 299.201093 
L 130.851722 348.905644 
L 132.885058 372.63186 
L 136.95173 412.03558 
L 143.051738 463.786325 
L 145.085073 476.95761 
L 149.151745 501.707638 
L 153.218417 520.478643 
L 155.251753 529.310145 
L 157.285089 536.774856 
L 161.35176 552.306448 
L 163.385096 558.331187 
L 165.418432 563.810159 
L 167.451768 568.552517 
L 171.51844 576.728098 
L 173.551776 579.974365 
L 175.585111 584.335776 
L 177.618447 587.052269 
L 179.651783 589.432788 
L 181.685119 592.151127 
L 183.718455 594.566158 
L 187.785127 598.568406 
L 195.91847 604.727565 
L 202.018478 608.878065 
L 206.085149 611.589507 
L 212.185157 614.896332 
L 222.351836 619.061945 
L 232.518516 621.945172 
L 240.651859 623.831711 
L 256.918546 626.850712 
L 273.185233 628.71484 
L 293.518592 630.196003 
L 301.651935 630.390098 
L 317.918622 630.3761 
L 328.085302 630.028988 
L 338.251981 629.353618 
L 362.652011 627.291129 
L 372.818691 626.236727 
L 376.885362 625.577681 
L 387.052042 623.407202 
L 389.085378 622.854199 
L 391.118714 622.077067 
L 397.218721 619.162947 
L 399.252057 618.111093 
L 401.285393 616.796125 
L 405.352065 613.835946 
L 407.385401 611.92255 
L 411.452072 607.16538 
L 413.485408 604.236725 
L 417.55208 596.986167 
L 419.585416 592.194989 
L 421.618752 587.117994 
L 423.652087 580.197865 
L 429.752095 555.942234 
L 431.785431 549.46809 
L 433.818767 546.867794 
L 435.852103 549.124098 
L 437.885439 554.695218 
L 439.918774 561.256827 
L 443.985446 576.815306 
L 446.018782 582.478589 
L 448.052118 587.769066 
L 450.085454 591.968993 
L 452.11879 595.743358 
L 454.152126 599.044369 
L 458.218797 604.142818 
L 460.252133 606.288966 
L 464.318805 609.522034 
L 468.385477 612.012067 
L 472.452148 614.284045 
L 476.51882 616.014163 
L 478.552156 616.477564 
L 480.585492 617.119198 
L 484.652164 617.66391 
L 486.685499 618.087038 
L 490.752171 618.619372 
L 492.785507 619.142045 
L 496.852179 619.65225 
L 498.885515 620.192852 
L 502.952186 620.85412 
L 504.985522 621.438279 
L 507.018858 621.745587 
L 515.152202 623.440799 
L 517.185537 623.803431 
L 519.218873 624.040256 
L 523.285545 624.709778 
L 525.318881 624.941642 
L 539.552232 627.59857 
L 549.718911 629.95366 
L 553.785583 630.566978 
L 555.818919 631.021843 
L 559.885591 631.502793 
L 563.952262 632.044214 
L 570.05227 632.605477 
L 578.185614 633.075746 
L 590.385629 633.301181 
L 596.485636 633.201716 
L 596.485636 633.201716 
" style="fill:none;stroke:#1f77b4;stroke-linecap:square;stroke-width:1.5;"/>
   </g>
   <g id="line2d_17">
    <path clip-path="url(#pc929e0cf3f)" d="M 110.518364 114.8364 
L 112.5517 121.452091 
L 114.585035 140.385775 
L 116.618371 157.274173 
L 118.651707 180.568623 
L 124.751715 267.333259 
L 126.785051 295.463042 
L 128.818386 319.764972 
L 130.851722 345.421934 
L 132.885058 369.182494 
L 136.95173 409.80353 
L 143.051738 462.172793 
L 145.085073 475.618941 
L 149.151745 499.721312 
L 153.218417 518.479983 
L 155.251753 527.686022 
L 157.285089 535.192219 
L 161.35176 551.127191 
L 163.385096 557.138729 
L 165.418432 562.763078 
L 167.451768 567.450163 
L 173.551776 580.025523 
L 177.618447 585.99758 
L 179.651783 588.497994 
L 183.718455 593.889404 
L 187.785127 598.023686 
L 199.985142 607.351019 
L 206.085149 611.416922 
L 210.151821 613.710441 
L 212.185157 614.751732 
L 220.318501 618.185827 
L 222.351836 618.956098 
L 228.451844 620.854128 
L 232.518516 621.851978 
L 236.585188 622.735647 
L 238.618523 623.396282 
L 240.651859 623.702705 
L 244.718531 624.630489 
L 250.818539 625.815871 
L 256.918546 626.855829 
L 279.285241 629.380997 
L 289.45192 630.085946 
L 297.585264 630.373131 
L 311.818615 630.506952 
L 321.985294 630.290504 
L 334.185309 629.66803 
L 356.552004 627.736879 
L 368.752019 626.591185 
L 374.852027 625.692118 
L 376.885362 625.347092 
L 385.018706 623.430896 
L 389.085378 622.296173 
L 393.152049 620.62472 
L 395.185385 619.75652 
L 399.252057 617.527614 
L 401.285393 616.161509 
L 405.352065 613.180282 
L 407.385401 611.247044 
L 411.452072 606.703824 
L 413.485408 603.893843 
L 417.55208 596.856679 
L 419.585416 592.26029 
L 421.618752 587.343202 
L 423.652087 580.753051 
L 429.752095 556.425114 
L 431.785431 550.717882 
L 433.818767 547.291958 
L 435.852103 548.320566 
L 437.885439 553.728728 
L 439.918774 560.262559 
L 443.985446 576.009424 
L 446.018782 581.926391 
L 448.052118 587.442914 
L 452.11879 595.68472 
L 454.152126 599.039204 
L 458.218797 604.211321 
L 460.252133 606.392481 
L 464.318805 609.640911 
L 468.385477 612.291315 
L 472.452148 614.489224 
L 476.51882 616.172783 
L 482.618828 617.569069 
L 484.652164 617.78126 
L 486.685499 618.20817 
L 490.752171 618.726434 
L 494.818843 619.552715 
L 496.852179 619.791172 
L 498.885515 620.249885 
L 500.918851 620.452121 
L 502.952186 620.851106 
L 504.985522 621.384705 
L 507.018858 621.710913 
L 511.08553 622.658411 
L 519.218873 623.92847 
L 523.285545 624.54854 
L 525.318881 624.805579 
L 529.385553 625.570604 
L 535.48556 626.595254 
L 547.685576 629.213532 
L 549.718911 629.719261 
L 553.785583 630.440749 
L 555.818919 630.853898 
L 559.885591 631.36564 
L 563.952262 631.895987 
L 568.018934 632.355618 
L 576.152278 633.044971 
L 580.218949 633.263747 
L 588.352293 633.435785 
L 594.4523 633.416427 
L 596.485636 633.351208 
L 596.485636 633.351208 
" style="fill:none;stroke:#ff7f0e;stroke-linecap:square;stroke-width:1.5;"/>
   </g>
   <g id="patch_3">
    <path d="M 86.22 659.3832 
L 86.22 88.9056 
" style="fill:none;stroke:#000000;stroke-linecap:square;stroke-linejoin:miter;stroke-width:0.8;"/>
   </g>
   <g id="patch_4">
    <path d="M 620.784 659.3832 
L 620.784 88.9056 
" style="fill:none;stroke:#000000;stroke-linecap:square;stroke-linejoin:miter;stroke-width:0.8;"/>
   </g>
   <g id="patch_5">
    <path d="M 86.22 659.3832 
L 620.784 659.3832 
" style="fill:none;stroke:#000000;stroke-linecap:square;stroke-linejoin:miter;stroke-width:0.8;"/>
   </g>
   <g id="patch_6">
    <path d="M 86.22 88.9056 
L 620.784 88.9056 
" style="fill:none;stroke:#000000;stroke-linecap:square;stroke-linejoin:miter;stroke-width:0.8;"/>
   </g>
  </g>
 </g>
 <defs>
  <clipPath id="pc929e0cf3f">
   <rect height="570.4776" width="534.564" x="86.22" y="88.9056"/>
  </clipPath>
 </defs>
</svg>
