<?xml version="1.0" encoding="utf-8" standalone="no"?>
<!DOCTYPE svg PUBLIC "-//W3C//DTD SVG 1.1//EN"
  "http://www.w3.org/Graphics/SVG/1.1/DTD/svg11.dtd">
<!-- Created with matplotlib (https://matplotlib.org/) -->
<svg height="740.88pt" version="1.1" viewBox="0 0 689.76 740.88" width="689.76pt" xmlns="http://www.w3.org/2000/svg" xmlns:xlink="http://www.w3.org/1999/xlink">
 <defs>
  <style type="text/css">
*{stroke-linecap:butt;stroke-linejoin:round;}
  </style>
 </defs>
 <g id="figure_1">
  <g id="patch_1">
   <path d="M 0 740.88 
L 689.76 740.88 
L 689.76 0 
L 0 0 
z
" style="fill:#ffffff;"/>
  </g>
  <g id="axes_1">
   <g id="patch_2">
    <path d="M 86.22 659.3832 
L 620.784 659.3832 
L 620.784 88.9056 
L 86.22 88.9056 
z
" style="fill:#ffffff;"/>
   </g>
   <g id="matplotlib.axis_1">
    <g id="xtick_1">
     <g id="line2d_1">
      <defs>
       <path d="M 0 0 
L 0 3.5 
" id="m0273561a62" style="stroke:#000000;stroke-width:0.8;"/>
      </defs>
      <g>
       <use style="stroke:#000000;stroke-width:0.8;" x="121.206737" xlink:href="#m0273561a62" y="659.3832"/>
      </g>
     </g>
     <g id="text_1">
      <!-- 0.6 -->
      <defs>
       <path d="M 31.78125 66.40625 
Q 24.171875 66.40625 20.328125 58.90625 
Q 16.5 51.421875 16.5 36.375 
Q 16.5 21.390625 20.328125 13.890625 
Q 24.171875 6.390625 31.78125 6.390625 
Q 39.453125 6.390625 43.28125 13.890625 
Q 47.125 21.390625 47.125 36.375 
Q 47.125 51.421875 43.28125 58.90625 
Q 39.453125 66.40625 31.78125 66.40625 
z
M 31.78125 74.21875 
Q 44.046875 74.21875 50.515625 64.515625 
Q 56.984375 54.828125 56.984375 36.375 
Q 56.984375 17.96875 50.515625 8.265625 
Q 44.046875 -1.421875 31.78125 -1.421875 
Q 19.53125 -1.421875 13.0625 8.265625 
Q 6.59375 17.96875 6.59375 36.375 
Q 6.59375 54.828125 13.0625 64.515625 
Q 19.53125 74.21875 31.78125 74.21875 
z
" id="DejaVuSans-48"/>
       <path d="M 10.6875 12.40625 
L 21 12.40625 
L 21 0 
L 10.6875 0 
z
" id="DejaVuSans-46"/>
       <path d="M 33.015625 40.375 
Q 26.375 40.375 22.484375 35.828125 
Q 18.609375 31.296875 18.609375 23.390625 
Q 18.609375 15.53125 22.484375 10.953125 
Q 26.375 6.390625 33.015625 6.390625 
Q 39.65625 6.390625 43.53125 10.953125 
Q 47.40625 15.53125 47.40625 23.390625 
Q 47.40625 31.296875 43.53125 35.828125 
Q 39.65625 40.375 33.015625 40.375 
z
M 52.59375 71.296875 
L 52.59375 62.3125 
Q 48.875 64.0625 45.09375 64.984375 
Q 41.3125 65.921875 37.59375 65.921875 
Q 27.828125 65.921875 22.671875 59.328125 
Q 17.53125 52.734375 16.796875 39.40625 
Q 19.671875 43.65625 24.015625 45.921875 
Q 28.375 48.1875 33.59375 48.1875 
Q 44.578125 48.1875 50.953125 41.515625 
Q 57.328125 34.859375 57.328125 23.390625 
Q 57.328125 12.15625 50.6875 5.359375 
Q 44.046875 -1.421875 33.015625 -1.421875 
Q 20.359375 -1.421875 13.671875 8.265625 
Q 6.984375 17.96875 6.984375 36.375 
Q 6.984375 53.65625 15.1875 63.9375 
Q 23.390625 74.21875 37.203125 74.21875 
Q 40.921875 74.21875 44.703125 73.484375 
Q 48.484375 72.75 52.59375 71.296875 
z
" id="DejaVuSans-54"/>
      </defs>
      <g transform="translate(113.255175 673.981637)scale(0.1 -0.1)">
       <use xlink:href="#DejaVuSans-48"/>
       <use x="63.623047" xlink:href="#DejaVuSans-46"/>
       <use x="95.410156" xlink:href="#DejaVuSans-54"/>
      </g>
     </g>
    </g>
    <g id="xtick_2">
     <g id="line2d_2">
      <g>
       <use style="stroke:#000000;stroke-width:0.8;" x="206.035101" xlink:href="#m0273561a62" y="659.3832"/>
      </g>
     </g>
     <g id="text_2">
      <!-- 0.7 -->
      <defs>
       <path d="M 8.203125 72.90625 
L 55.078125 72.90625 
L 55.078125 68.703125 
L 28.609375 0 
L 18.3125 0 
L 43.21875 64.59375 
L 8.203125 64.59375 
z
" id="DejaVuSans-55"/>
      </defs>
      <g transform="translate(198.083538 673.981637)scale(0.1 -0.1)">
       <use xlink:href="#DejaVuSans-48"/>
       <use x="63.623047" xlink:href="#DejaVuSans-46"/>
       <use x="95.410156" xlink:href="#DejaVuSans-55"/>
      </g>
     </g>
    </g>
    <g id="xtick_3">
     <g id="line2d_3">
      <g>
       <use style="stroke:#000000;stroke-width:0.8;" x="290.863464" xlink:href="#m0273561a62" y="659.3832"/>
      </g>
     </g>
     <g id="text_3">
      <!-- 0.8 -->
      <defs>
       <path d="M 31.78125 34.625 
Q 24.75 34.625 20.71875 30.859375 
Q 16.703125 27.09375 16.703125 20.515625 
Q 16.703125 13.921875 20.71875 10.15625 
Q 24.75 6.390625 31.78125 6.390625 
Q 38.8125 6.390625 42.859375 10.171875 
Q 46.921875 13.96875 46.921875 20.515625 
Q 46.921875 27.09375 42.890625 30.859375 
Q 38.875 34.625 31.78125 34.625 
z
M 21.921875 38.8125 
Q 15.578125 40.375 12.03125 44.71875 
Q 8.5 49.078125 8.5 55.328125 
Q 8.5 64.0625 14.71875 69.140625 
Q 20.953125 74.21875 31.78125 74.21875 
Q 42.671875 74.21875 48.875 69.140625 
Q 55.078125 64.0625 55.078125 55.328125 
Q 55.078125 49.078125 51.53125 44.71875 
Q 48 40.375 41.703125 38.8125 
Q 48.828125 37.15625 52.796875 32.3125 
Q 56.78125 27.484375 56.78125 20.515625 
Q 56.78125 9.90625 50.3125 4.234375 
Q 43.84375 -1.421875 31.78125 -1.421875 
Q 19.734375 -1.421875 13.25 4.234375 
Q 6.78125 9.90625 6.78125 20.515625 
Q 6.78125 27.484375 10.78125 32.3125 
Q 14.796875 37.15625 21.921875 38.8125 
z
M 18.3125 54.390625 
Q 18.3125 48.734375 21.84375 45.5625 
Q 25.390625 42.390625 31.78125 42.390625 
Q 38.140625 42.390625 41.71875 45.5625 
Q 45.3125 48.734375 45.3125 54.390625 
Q 45.3125 60.0625 41.71875 63.234375 
Q 38.140625 66.40625 31.78125 66.40625 
Q 25.390625 66.40625 21.84375 63.234375 
Q 18.3125 60.0625 18.3125 54.390625 
z
" id="DejaVuSans-56"/>
      </defs>
      <g transform="translate(282.911902 673.981637)scale(0.1 -0.1)">
       <use xlink:href="#DejaVuSans-48"/>
       <use x="63.623047" xlink:href="#DejaVuSans-46"/>
       <use x="95.410156" xlink:href="#DejaVuSans-56"/>
      </g>
     </g>
    </g>
    <g id="xtick_4">
     <g id="line2d_4">
      <g>
       <use style="stroke:#000000;stroke-width:0.8;" x="375.691827" xlink:href="#m0273561a62" y="659.3832"/>
      </g>
     </g>
     <g id="text_4">
      <!-- 0.9 -->
      <defs>
       <path d="M 10.984375 1.515625 
L 10.984375 10.5 
Q 14.703125 8.734375 18.5 7.8125 
Q 22.3125 6.890625 25.984375 6.890625 
Q 35.75 6.890625 40.890625 13.453125 
Q 46.046875 20.015625 46.78125 33.40625 
Q 43.953125 29.203125 39.59375 26.953125 
Q 35.25 24.703125 29.984375 24.703125 
Q 19.046875 24.703125 12.671875 31.3125 
Q 6.296875 37.9375 6.296875 49.421875 
Q 6.296875 60.640625 12.9375 67.421875 
Q 19.578125 74.21875 30.609375 74.21875 
Q 43.265625 74.21875 49.921875 64.515625 
Q 56.59375 54.828125 56.59375 36.375 
Q 56.59375 19.140625 48.40625 8.859375 
Q 40.234375 -1.421875 26.421875 -1.421875 
Q 22.703125 -1.421875 18.890625 -0.6875 
Q 15.09375 0.046875 10.984375 1.515625 
z
M 30.609375 32.421875 
Q 37.25 32.421875 41.125 36.953125 
Q 45.015625 41.5 45.015625 49.421875 
Q 45.015625 57.28125 41.125 61.84375 
Q 37.25 66.40625 30.609375 66.40625 
Q 23.96875 66.40625 20.09375 61.84375 
Q 16.21875 57.28125 16.21875 49.421875 
Q 16.21875 41.5 20.09375 36.953125 
Q 23.96875 32.421875 30.609375 32.421875 
z
" id="DejaVuSans-57"/>
      </defs>
      <g transform="translate(367.740265 673.981637)scale(0.1 -0.1)">
       <use xlink:href="#DejaVuSans-48"/>
       <use x="63.623047" xlink:href="#DejaVuSans-46"/>
       <use x="95.410156" xlink:href="#DejaVuSans-57"/>
      </g>
     </g>
    </g>
    <g id="xtick_5">
     <g id="line2d_5">
      <g>
       <use style="stroke:#000000;stroke-width:0.8;" x="460.520191" xlink:href="#m0273561a62" y="659.3832"/>
      </g>
     </g>
     <g id="text_5">
      <!-- 1.0 -->
      <defs>
       <path d="M 12.40625 8.296875 
L 28.515625 8.296875 
L 28.515625 63.921875 
L 10.984375 60.40625 
L 10.984375 69.390625 
L 28.421875 72.90625 
L 38.28125 72.90625 
L 38.28125 8.296875 
L 54.390625 8.296875 
L 54.390625 0 
L 12.40625 0 
z
" id="DejaVuSans-49"/>
      </defs>
      <g transform="translate(452.568628 673.981637)scale(0.1 -0.1)">
       <use xlink:href="#DejaVuSans-49"/>
       <use x="63.623047" xlink:href="#DejaVuSans-46"/>
       <use x="95.410156" xlink:href="#DejaVuSans-48"/>
      </g>
     </g>
    </g>
    <g id="xtick_6">
     <g id="line2d_6">
      <g>
       <use style="stroke:#000000;stroke-width:0.8;" x="545.348554" xlink:href="#m0273561a62" y="659.3832"/>
      </g>
     </g>
     <g id="text_6">
      <!-- 1.1 -->
      <g transform="translate(537.396992 673.981637)scale(0.1 -0.1)">
       <use xlink:href="#DejaVuSans-49"/>
       <use x="63.623047" xlink:href="#DejaVuSans-46"/>
       <use x="95.410156" xlink:href="#DejaVuSans-49"/>
      </g>
     </g>
    </g>
    <g id="text_7">
     <!-- 1e10 -->
     <defs>
      <path d="M 56.203125 29.59375 
L 56.203125 25.203125 
L 14.890625 25.203125 
Q 15.484375 15.921875 20.484375 11.0625 
Q 25.484375 6.203125 34.421875 6.203125 
Q 39.59375 6.203125 44.453125 7.46875 
Q 49.3125 8.734375 54.109375 11.28125 
L 54.109375 2.78125 
Q 49.265625 0.734375 44.1875 -0.34375 
Q 39.109375 -1.421875 33.890625 -1.421875 
Q 20.796875 -1.421875 13.15625 6.1875 
Q 5.515625 13.8125 5.515625 26.8125 
Q 5.515625 40.234375 12.765625 48.109375 
Q 20.015625 56 32.328125 56 
Q 43.359375 56 49.78125 48.890625 
Q 56.203125 41.796875 56.203125 29.59375 
z
M 47.21875 32.234375 
Q 47.125 39.59375 43.09375 43.984375 
Q 39.0625 48.390625 32.421875 48.390625 
Q 24.90625 48.390625 20.390625 44.140625 
Q 15.875 39.890625 15.1875 32.171875 
z
" id="DejaVuSans-101"/>
     </defs>
     <g transform="translate(595.543375 686.659762)scale(0.1 -0.1)">
      <use xlink:href="#DejaVuSans-49"/>
      <use x="63.623047" xlink:href="#DejaVuSans-101"/>
      <use x="125.146484" xlink:href="#DejaVuSans-49"/>
      <use x="188.769531" xlink:href="#DejaVuSans-48"/>
     </g>
    </g>
   </g>
   <g id="matplotlib.axis_2">
    <g id="ytick_1">
     <g id="line2d_7">
      <defs>
       <path d="M 0 0 
L -3.5 0 
" id="m5348e516c2" style="stroke:#000000;stroke-width:0.8;"/>
      </defs>
      <g>
       <use style="stroke:#000000;stroke-width:0.8;" x="86.22" xlink:href="#m5348e516c2" y="578.401132"/>
      </g>
     </g>
     <g id="text_8">
      <!-- 0.99 -->
      <g transform="translate(56.954375 582.200351)scale(0.1 -0.1)">
       <use xlink:href="#DejaVuSans-48"/>
       <use x="63.623047" xlink:href="#DejaVuSans-46"/>
       <use x="95.410156" xlink:href="#DejaVuSans-57"/>
       <use x="159.033203" xlink:href="#DejaVuSans-57"/>
      </g>
     </g>
    </g>
    <g id="ytick_2">
     <g id="line2d_8">
      <g>
       <use style="stroke:#000000;stroke-width:0.8;" x="86.22" xlink:href="#m5348e516c2" y="491.204601"/>
      </g>
     </g>
     <g id="text_9">
      <!-- 1.00 -->
      <g transform="translate(56.954375 495.003819)scale(0.1 -0.1)">
       <use xlink:href="#DejaVuSans-49"/>
       <use x="63.623047" xlink:href="#DejaVuSans-46"/>
       <use x="95.410156" xlink:href="#DejaVuSans-48"/>
       <use x="159.033203" xlink:href="#DejaVuSans-48"/>
      </g>
     </g>
    </g>
    <g id="ytick_3">
     <g id="line2d_9">
      <g>
       <use style="stroke:#000000;stroke-width:0.8;" x="86.22" xlink:href="#m5348e516c2" y="404.008069"/>
      </g>
     </g>
     <g id="text_10">
      <!-- 1.01 -->
      <g transform="translate(56.954375 407.807288)scale(0.1 -0.1)">
       <use xlink:href="#DejaVuSans-49"/>
       <use x="63.623047" xlink:href="#DejaVuSans-46"/>
       <use x="95.410156" xlink:href="#DejaVuSans-48"/>
       <use x="159.033203" xlink:href="#DejaVuSans-49"/>
      </g>
     </g>
    </g>
    <g id="ytick_4">
     <g id="line2d_10">
      <g>
       <use style="stroke:#000000;stroke-width:0.8;" x="86.22" xlink:href="#m5348e516c2" y="316.811538"/>
      </g>
     </g>
     <g id="text_11">
      <!-- 1.02 -->
      <defs>
       <path d="M 19.1875 8.296875 
L 53.609375 8.296875 
L 53.609375 0 
L 7.328125 0 
L 7.328125 8.296875 
Q 12.9375 14.109375 22.625 23.890625 
Q 32.328125 33.6875 34.8125 36.53125 
Q 39.546875 41.84375 41.421875 45.53125 
Q 43.3125 49.21875 43.3125 52.78125 
Q 43.3125 58.59375 39.234375 62.25 
Q 35.15625 65.921875 28.609375 65.921875 
Q 23.96875 65.921875 18.8125 64.3125 
Q 13.671875 62.703125 7.8125 59.421875 
L 7.8125 69.390625 
Q 13.765625 71.78125 18.9375 73 
Q 24.125 74.21875 28.421875 74.21875 
Q 39.75 74.21875 46.484375 68.546875 
Q 53.21875 62.890625 53.21875 53.421875 
Q 53.21875 48.921875 51.53125 44.890625 
Q 49.859375 40.875 45.40625 35.40625 
Q 44.1875 33.984375 37.640625 27.21875 
Q 31.109375 20.453125 19.1875 8.296875 
z
" id="DejaVuSans-50"/>
      </defs>
      <g transform="translate(56.954375 320.610757)scale(0.1 -0.1)">
       <use xlink:href="#DejaVuSans-49"/>
       <use x="63.623047" xlink:href="#DejaVuSans-46"/>
       <use x="95.410156" xlink:href="#DejaVuSans-48"/>
       <use x="159.033203" xlink:href="#DejaVuSans-50"/>
      </g>
     </g>
    </g>
    <g id="ytick_5">
     <g id="line2d_11">
      <g>
       <use style="stroke:#000000;stroke-width:0.8;" x="86.22" xlink:href="#m5348e516c2" y="229.615007"/>
      </g>
     </g>
     <g id="text_12">
      <!-- 1.03 -->
      <defs>
       <path d="M 40.578125 39.3125 
Q 47.65625 37.796875 51.625 33 
Q 55.609375 28.21875 55.609375 21.1875 
Q 55.609375 10.40625 48.1875 4.484375 
Q 40.765625 -1.421875 27.09375 -1.421875 
Q 22.515625 -1.421875 17.65625 -0.515625 
Q 12.796875 0.390625 7.625 2.203125 
L 7.625 11.71875 
Q 11.71875 9.328125 16.59375 8.109375 
Q 21.484375 6.890625 26.8125 6.890625 
Q 36.078125 6.890625 40.9375 10.546875 
Q 45.796875 14.203125 45.796875 21.1875 
Q 45.796875 27.640625 41.28125 31.265625 
Q 36.765625 34.90625 28.71875 34.90625 
L 20.21875 34.90625 
L 20.21875 43.015625 
L 29.109375 43.015625 
Q 36.375 43.015625 40.234375 45.921875 
Q 44.09375 48.828125 44.09375 54.296875 
Q 44.09375 59.90625 40.109375 62.90625 
Q 36.140625 65.921875 28.71875 65.921875 
Q 24.65625 65.921875 20.015625 65.03125 
Q 15.375 64.15625 9.8125 62.3125 
L 9.8125 71.09375 
Q 15.4375 72.65625 20.34375 73.4375 
Q 25.25 74.21875 29.59375 74.21875 
Q 40.828125 74.21875 47.359375 69.109375 
Q 53.90625 64.015625 53.90625 55.328125 
Q 53.90625 49.265625 50.4375 45.09375 
Q 46.96875 40.921875 40.578125 39.3125 
z
" id="DejaVuSans-51"/>
      </defs>
      <g transform="translate(56.954375 233.414226)scale(0.1 -0.1)">
       <use xlink:href="#DejaVuSans-49"/>
       <use x="63.623047" xlink:href="#DejaVuSans-46"/>
       <use x="95.410156" xlink:href="#DejaVuSans-48"/>
       <use x="159.033203" xlink:href="#DejaVuSans-51"/>
      </g>
     </g>
    </g>
    <g id="ytick_6">
     <g id="line2d_12">
      <g>
       <use style="stroke:#000000;stroke-width:0.8;" x="86.22" xlink:href="#m5348e516c2" y="142.418476"/>
      </g>
     </g>
     <g id="text_13">
      <!-- 1.04 -->
      <defs>
       <path d="M 37.796875 64.3125 
L 12.890625 25.390625 
L 37.796875 25.390625 
z
M 35.203125 72.90625 
L 47.609375 72.90625 
L 47.609375 25.390625 
L 58.015625 25.390625 
L 58.015625 17.1875 
L 47.609375 17.1875 
L 47.609375 0 
L 37.796875 0 
L 37.796875 17.1875 
L 4.890625 17.1875 
L 4.890625 26.703125 
z
" id="DejaVuSans-52"/>
      </defs>
      <g transform="translate(56.954375 146.217694)scale(0.1 -0.1)">
       <use xlink:href="#DejaVuSans-49"/>
       <use x="63.623047" xlink:href="#DejaVuSans-46"/>
       <use x="95.410156" xlink:href="#DejaVuSans-48"/>
       <use x="159.033203" xlink:href="#DejaVuSans-52"/>
      </g>
     </g>
    </g>
   </g>
   <g id="line2d_13">
    <path clip-path="url(#pdfe3da3041)" d="M 110.518364 114.8364 
L 112.5517 139.877037 
L 114.585035 156.557925 
L 116.618371 166.395365 
L 118.651707 181.901463 
L 120.685043 223.703787 
L 122.718379 230.02161 
L 124.751715 253.760084 
L 126.785051 273.703835 
L 128.818386 285.045487 
L 130.851722 317.097608 
L 132.885058 323.620683 
L 136.95173 383.097452 
L 138.985066 394.466309 
L 141.018402 428.269161 
L 143.051738 478.37437 
L 147.118409 554.424767 
L 149.151745 587.606406 
L 151.185081 602.12404 
L 153.218417 609.816139 
L 155.251753 613.985313 
L 157.285089 603.474618 
L 159.318424 590.643233 
L 161.35176 596.814668 
L 163.385096 599.960393 
L 165.418432 603.475546 
L 167.451768 593.964374 
L 169.485104 592.383698 
L 171.51844 579.190424 
L 173.551776 586.583926 
L 175.585111 578.539528 
L 177.618447 583.120203 
L 179.651783 588.78581 
L 181.685119 577.474648 
L 183.718455 633.4524 
L 185.751791 481.251195 
L 187.785127 546.204688 
L 189.818463 542.730272 
L 191.851798 533.174926 
L 193.885134 528.73229 
L 195.91847 520.363024 
L 197.951806 513.294808 
L 199.985142 498.333881 
L 202.018478 504.200894 
L 204.051814 512.982479 
L 206.085149 510.519652 
L 208.118485 510.969541 
L 210.151821 502.677569 
L 212.185157 500.928881 
L 214.218493 521.262729 
L 216.251829 511.037916 
L 218.285165 507.239603 
L 220.318501 506.766061 
L 222.351836 493.802224 
L 224.385172 498.073372 
L 226.418508 498.177656 
L 228.451844 504.118403 
L 230.48518 506.992615 
L 232.518516 504.414088 
L 234.551852 502.067776 
L 236.585188 519.832247 
L 238.618523 519.651736 
L 240.651859 528.693554 
L 242.685195 532.32189 
L 244.718531 533.424579 
L 246.751867 530.867097 
L 248.785203 526.639086 
L 250.818539 538.495104 
L 252.851874 546.092056 
L 254.88521 548.246551 
L 256.918546 562.937589 
L 258.951882 557.423822 
L 260.985218 558.906271 
L 263.018554 563.443317 
L 265.05189 561.144177 
L 267.085226 566.273041 
L 269.118561 569.297032 
L 271.151897 565.77288 
L 273.185233 556.591036 
L 275.218569 551.099662 
L 277.251905 538.500755 
L 279.285241 538.591014 
L 281.318577 543.009639 
L 283.351913 548.53228 
L 285.385248 555.121956 
L 287.418584 552.783012 
L 289.45192 544.177797 
L 291.485256 536.571868 
L 293.518592 526.215531 
L 295.551928 500.752379 
L 297.585264 498.907919 
L 299.618599 499.268674 
L 301.651935 501.367269 
L 303.685271 514.364999 
L 305.718607 511.533037 
L 307.751943 505.966071 
L 309.785279 497.731437 
L 311.818615 500.995103 
L 313.851951 503.422284 
L 315.885286 503.404357 
L 317.918622 503.059261 
L 319.951958 492.823061 
L 321.985294 476.81425 
L 324.01863 471.432169 
L 326.051966 476.933036 
L 328.085302 484.463009 
L 330.118638 479.366538 
L 332.151973 477.856435 
L 336.218645 470.759963 
L 338.251981 457.879306 
L 340.285317 452.962059 
L 342.318653 455.853026 
L 344.351989 461.98174 
L 346.385324 460.880798 
L 348.41866 465.275085 
L 350.451996 476.604651 
L 352.485332 480.03552 
L 354.518668 476.962324 
L 356.552004 478.882719 
L 358.58534 459.655838 
L 360.618676 446.272171 
L 364.685347 434.768555 
L 366.718683 426.683469 
L 368.752019 420.7274 
L 370.785355 416.951146 
L 372.818691 408.801001 
L 374.852027 413.387185 
L 376.885362 424.121706 
L 378.918698 429.523691 
L 380.952034 426.900293 
L 382.98537 423.153831 
L 385.018706 421.633521 
L 387.052042 416.924889 
L 389.085378 421.844929 
L 391.118714 428.327571 
L 393.152049 428.469095 
L 395.185385 477.94277 
L 397.218721 371.627303 
L 399.252057 449.189103 
L 401.285393 441.966979 
L 403.318729 457.200309 
L 407.385401 480.473152 
L 409.418736 494.910849 
L 411.452072 484.001652 
L 413.485408 493.822458 
L 415.518744 507.808609 
L 417.55208 509.737491 
L 419.585416 565.498674 
L 421.618752 532.51342 
L 423.652087 548.308922 
L 425.685423 548.325292 
L 427.718759 557.450704 
L 429.752095 544.229742 
L 431.785431 555.53112 
L 433.818767 533.02113 
L 435.852103 378.501738 
L 437.885439 293.480679 
L 439.918774 326.148614 
L 441.95211 356.005006 
L 443.985446 404.233342 
L 446.018782 434.512208 
L 448.052118 432.250946 
L 450.085454 423.063075 
L 452.11879 415.518201 
L 454.152126 409.270401 
L 458.218797 419.631559 
L 460.252133 413.723206 
L 462.285469 395.655449 
L 464.318805 408.327389 
L 468.385477 379.458889 
L 470.418812 374.205649 
L 472.452148 340.224792 
L 474.485484 378.611169 
L 476.51882 366.092529 
L 478.552156 373.471477 
L 480.585492 408.90116 
L 482.618828 452.234046 
L 484.652164 469.503567 
L 486.685499 479.096699 
L 488.718835 365.795309 
L 490.752171 413.843116 
L 492.785507 372.225672 
L 494.818843 391.560807 
L 496.852179 401.681076 
L 498.885515 448.624945 
L 500.918851 436.10838 
L 502.952186 367.557481 
L 504.985522 438.867033 
L 507.018858 379.802512 
L 509.052194 354.849239 
L 511.08553 357.799229 
L 513.118866 357.793414 
L 515.152202 364.957347 
L 517.185537 353.508592 
L 519.218873 347.072476 
L 521.252209 331.636703 
L 523.285545 330.601739 
L 525.318881 333.834798 
L 527.352217 321.139749 
L 529.385553 298.588753 
L 531.418889 281.70825 
L 533.452224 279.77837 
L 535.48556 285.955242 
L 537.518896 245.797145 
L 539.552232 243.3969 
L 541.585568 221.96784 
L 543.618904 224.110236 
L 545.65224 211.7734 
L 547.685576 227.893546 
L 549.718911 218.513717 
L 551.752247 205.023329 
L 553.785583 236.268284 
L 555.818919 216.812625 
L 557.852255 243.536991 
L 559.885591 247.516553 
L 561.918927 248.882658 
L 563.952262 246.779772 
L 565.985598 264.735776 
L 568.018934 236.91802 
L 570.05227 239.069221 
L 572.085606 245.543093 
L 574.118942 238.578165 
L 576.152278 255.431507 
L 578.185614 257.950282 
L 580.218949 255.043595 
L 582.252285 234.007902 
L 584.285621 244.609523 
L 586.318957 266.139715 
L 588.352293 296.448569 
L 590.385629 306.137379 
L 592.418965 307.126984 
L 594.4523 291.806735 
L 596.485636 283.195969 
L 596.485636 283.195969 
" style="fill:none;stroke:#1f77b4;stroke-linecap:square;stroke-width:1.5;"/>
   </g>
   <g id="line2d_14">
    <path clip-path="url(#pdfe3da3041)" d="M 110.518364 625.429833 
L 112.5517 193.013832 
L 114.585035 179.787633 
L 116.618371 181.185216 
L 118.651707 200.464266 
L 120.685043 204.458805 
L 122.718379 259.637012 
L 124.751715 358.469565 
L 126.785051 338.968954 
L 128.818386 313.652068 
L 130.851722 336.41957 
L 134.918394 477.992548 
L 136.95173 467.612241 
L 138.985066 453.946774 
L 141.018402 466.903993 
L 143.051738 549.17473 
L 145.085073 583.082251 
L 147.118409 564.829466 
L 149.151745 555.599427 
L 151.185081 553.278753 
L 153.218417 573.136612 
L 155.251753 575.943686 
L 157.285089 588.2746 
L 159.318424 597.931764 
L 161.35176 580.835917 
L 163.385096 579.3062 
L 165.418432 585.269017 
L 167.451768 597.926025 
L 169.485104 587.553298 
L 171.51844 591.944365 
L 173.551776 573.767143 
L 175.585111 567.945597 
L 177.618447 568.222971 
L 179.651783 555.883014 
L 181.685119 551.097838 
L 183.718455 547.782872 
L 185.751791 539.469534 
L 187.785127 545.650961 
L 189.818463 540.755836 
L 191.851798 532.668977 
L 193.885134 523.3266 
L 195.91847 521.710192 
L 197.951806 509.864028 
L 199.985142 512.66409 
L 202.018478 512.33562 
L 204.051814 501.220154 
L 206.085149 504.499532 
L 208.118485 502.447196 
L 210.151821 504.381717 
L 212.185157 508.661661 
L 214.218493 506.790835 
L 216.251829 494.698537 
L 218.285165 502.493862 
L 220.318501 502.178231 
L 222.351836 499.784781 
L 224.385172 501.990514 
L 226.418508 505.732591 
L 228.451844 503.840092 
L 230.48518 508.042175 
L 232.518516 512.753067 
L 234.551852 519.308193 
L 236.585188 517.441656 
L 238.618523 514.732602 
L 240.651859 514.564535 
L 242.685195 528.071529 
L 244.718531 520.711326 
L 246.751867 531.066146 
L 248.785203 524.513194 
L 250.818539 526.935611 
L 252.851874 538.134724 
L 254.88521 545.097087 
L 256.918546 557.504851 
L 258.951882 549.463813 
L 260.985218 538.309164 
L 263.018554 539.502436 
L 265.05189 538.96653 
L 267.085226 547.729593 
L 269.118561 555.855189 
L 271.151897 566.192304 
L 273.185233 560.011177 
L 275.218569 554.504422 
L 277.251905 542.731133 
L 279.285241 541.061553 
L 281.318577 540.947638 
L 283.351913 544.319739 
L 285.385248 542.549184 
L 287.418584 542.845173 
L 289.45192 529.6369 
L 291.485256 530.209183 
L 293.518592 522.510251 
L 295.551928 528.596633 
L 297.585264 521.642349 
L 299.618599 510.049044 
L 301.651935 500.671817 
L 303.685271 501.792443 
L 305.718607 494.225644 
L 307.751943 501.843349 
L 309.785279 497.902435 
L 311.818615 492.781434 
L 313.851951 496.892904 
L 315.885286 494.796495 
L 317.918622 487.9449 
L 319.951958 488.593131 
L 321.985294 491.261767 
L 324.01863 485.870054 
L 326.051966 481.397318 
L 328.085302 482.008255 
L 330.118638 482.439648 
L 332.151973 481.36501 
L 334.185309 480.826588 
L 336.218645 482.587735 
L 338.251981 482.287193 
L 340.285317 480.809167 
L 342.318653 479.51686 
L 344.351989 472.448301 
L 346.385324 473.408507 
L 348.41866 457.447247 
L 350.451996 456.027306 
L 352.485332 459.923988 
L 354.518668 455.262533 
L 356.552004 460.008948 
L 358.58534 452.530529 
L 360.618676 444.60782 
L 362.652011 447.121998 
L 364.685347 441.580483 
L 366.718683 443.965782 
L 368.752019 440.361944 
L 370.785355 446.525976 
L 372.818691 449.109764 
L 374.852027 443.535376 
L 376.885362 430.935664 
L 378.918698 431.774503 
L 380.952034 425.66327 
L 382.98537 418.255484 
L 385.018706 411.502647 
L 387.052042 424.676127 
L 389.085378 435.877434 
L 391.118714 436.689222 
L 393.152049 442.741532 
L 395.185385 443.942191 
L 397.218721 446.549443 
L 399.252057 450.178228 
L 401.285393 448.512611 
L 403.318729 468.986628 
L 405.352065 466.285226 
L 407.385401 465.675398 
L 409.418736 478.572546 
L 411.452072 472.512741 
L 413.485408 481.989321 
L 415.518744 487.392903 
L 417.55208 511.512351 
L 419.585416 545.410788 
L 421.618752 572.830912 
L 423.652087 557.945868 
L 425.685423 565.639868 
L 427.718759 595.05888 
L 429.752095 579.54186 
L 431.785431 554.671666 
L 433.818767 491.727331 
L 435.852103 394.392934 
L 437.885439 314.087798 
L 439.918774 278.388401 
L 441.95211 252.70258 
L 443.985446 263.275114 
L 446.018782 266.552757 
L 448.052118 288.791712 
L 450.085454 290.716308 
L 452.11879 323.268807 
L 454.152126 346.562638 
L 456.185461 362.300795 
L 458.218797 365.810897 
L 460.252133 375.490479 
L 462.285469 377.861153 
L 464.318805 400.328609 
L 466.352141 393.906655 
L 468.385477 404.608397 
L 470.418812 403.717199 
L 472.452148 425.11635 
L 474.485484 415.197479 
L 476.51882 445.71421 
L 478.552156 420.174645 
L 480.585492 412.535355 
L 482.618828 409.233631 
L 484.652164 412.877557 
L 486.685499 421.358118 
L 488.718835 407.500345 
L 490.752171 395.011548 
L 492.785507 399.594431 
L 494.818843 406.275816 
L 496.852179 392.107017 
L 498.885515 407.819052 
L 500.918851 373.547107 
L 502.952186 411.759758 
L 504.985522 382.58654 
L 507.018858 362.773711 
L 509.052194 363.278181 
L 511.08553 355.524615 
L 513.118866 367.897699 
L 515.152202 344.775466 
L 517.185537 343.219238 
L 519.218873 351.65776 
L 521.252209 362.835859 
L 523.285545 347.273789 
L 525.318881 341.594308 
L 527.352217 321.607603 
L 529.385553 306.354998 
L 531.418889 297.99525 
L 535.48556 268.457114 
L 537.518896 277.322351 
L 539.552232 263.254133 
L 541.585568 264.982496 
L 543.618904 262.30922 
L 545.65224 256.954993 
L 547.685576 245.965882 
L 549.718911 240.371252 
L 551.752247 249.411637 
L 553.785583 226.47385 
L 555.818919 236.594386 
L 557.852255 253.626898 
L 559.885591 256.710812 
L 561.918927 252.54798 
L 563.952262 254.019019 
L 565.985598 246.144284 
L 568.018934 260.33739 
L 570.05227 280.702605 
L 572.085606 277.392019 
L 574.118942 273.206158 
L 576.152278 261.014644 
L 578.185614 254.56673 
L 580.218949 264.524474 
L 582.252285 287.846117 
L 584.285621 292.388259 
L 586.318957 308.929187 
L 588.352293 300.823319 
L 590.385629 326.667118 
L 592.418965 312.106891 
L 594.4523 291.534422 
L 596.485636 292.203122 
L 596.485636 292.203122 
" style="fill:none;stroke:#ff7f0e;stroke-linecap:square;stroke-width:1.5;"/>
   </g>
   <g id="line2d_15">
    <path clip-path="url(#pdfe3da3041)" d="M 110.518364 603.468766 
L 112.5517 193.253667 
L 114.585035 172.174131 
L 116.618371 225.231273 
L 118.651707 247.745546 
L 122.718379 335.261656 
L 124.751715 344.554106 
L 126.785051 364.805831 
L 128.818386 377.027921 
L 132.885058 409.944545 
L 134.918394 450.510214 
L 136.95173 475.110771 
L 138.985066 509.136167 
L 141.018402 519.511026 
L 143.051738 525.989478 
L 145.085073 530.378877 
L 147.118409 537.704198 
L 149.151745 555.390687 
L 151.185081 562.157929 
L 153.218417 573.600603 
L 155.251753 576.720599 
L 157.285089 602.070155 
L 159.318424 596.996241 
L 161.35176 591.318347 
L 163.385096 579.504506 
L 165.418432 581.987338 
L 167.451768 588.340362 
L 169.485104 575.588967 
L 171.51844 574.01448 
L 173.551776 560.73941 
L 175.585111 571.690789 
L 177.618447 560.146239 
L 179.651783 559.440776 
L 181.685119 561.048 
L 183.718455 553.284316 
L 185.751791 551.273557 
L 187.785127 606.958088 
L 189.818463 481.934496 
L 191.851798 525.729843 
L 195.91847 523.073172 
L 197.951806 516.555332 
L 199.985142 506.292529 
L 202.018478 507.730373 
L 204.051814 514.049623 
L 206.085149 514.520853 
L 208.118485 506.294732 
L 210.151821 507.480195 
L 212.185157 503.84306 
L 214.218493 504.993591 
L 216.251829 503.465078 
L 218.285165 500.821562 
L 220.318501 504.439747 
L 222.351836 500.492162 
L 224.385172 502.458413 
L 226.418508 505.309042 
L 228.451844 508.581421 
L 230.48518 506.744994 
L 232.518516 510.65514 
L 234.551852 508.214765 
L 236.585188 511.824031 
L 238.618523 513.324485 
L 240.651859 514.057374 
L 242.685195 519.520504 
L 244.718531 525.53722 
L 246.751867 526.451669 
L 248.785203 524.952255 
L 250.818539 531.528977 
L 252.851874 536.554987 
L 254.88521 547.629324 
L 256.918546 543.803881 
L 258.951882 538.205315 
L 260.985218 539.258816 
L 263.018554 541.511807 
L 265.05189 548.487612 
L 267.085226 550.96333 
L 269.118561 561.905557 
L 271.151897 558.283289 
L 275.218569 540.931406 
L 277.251905 537.805651 
L 279.285241 542.093563 
L 281.318577 548.929407 
L 283.351913 540.076751 
L 285.385248 539.583401 
L 287.418584 535.787981 
L 289.45192 539.852887 
L 291.485256 536.480278 
L 293.518592 515.012574 
L 295.551928 507.916709 
L 297.585264 514.3257 
L 299.618599 509.396646 
L 301.651935 499.851563 
L 303.685271 507.566065 
L 305.718607 506.16996 
L 307.751943 505.611819 
L 309.785279 501.621304 
L 311.818615 498.181355 
L 313.851951 499.108906 
L 315.885286 487.437957 
L 317.918622 487.483345 
L 319.951958 488.220182 
L 321.985294 495.999367 
L 324.01863 501.047236 
L 326.051966 494.557279 
L 328.085302 486.704221 
L 330.118638 483.268154 
L 332.151973 482.387445 
L 334.185309 479.953375 
L 336.218645 480.635877 
L 338.251981 485.074398 
L 340.285317 488.246185 
L 342.318653 485.864358 
L 344.351989 484.739842 
L 346.385324 472.652582 
L 348.41866 461.464556 
L 350.451996 459.838271 
L 352.485332 462.832973 
L 354.518668 462.467738 
L 356.552004 466.594919 
L 358.58534 451.524956 
L 360.618676 451.920668 
L 362.652011 454.252262 
L 364.685347 453.133022 
L 366.718683 454.230532 
L 368.752019 443.56559 
L 370.785355 436.947179 
L 372.818691 446.160813 
L 374.852027 443.609802 
L 376.885362 433.930284 
L 378.918698 431.992524 
L 380.952034 434.505902 
L 382.98537 435.043882 
L 385.018706 431.877718 
L 387.052042 442.845812 
L 389.085378 455.91087 
L 391.118714 453.026168 
L 393.152049 452.258158 
L 395.185385 458.817545 
L 397.218721 449.540789 
L 399.252057 454.295698 
L 401.285393 458.452224 
L 403.318729 473.19608 
L 407.385401 495.066064 
L 409.418736 510.923393 
L 411.452072 515.142162 
L 413.485408 505.913594 
L 415.518744 527.825902 
L 417.55208 542.824589 
L 419.585416 544.626454 
L 421.618752 565.208828 
L 423.652087 575.122083 
L 425.685423 599.780237 
L 427.718759 603.342914 
L 429.752095 597.464273 
L 431.785431 568.187334 
L 433.818767 498.968914 
L 435.852103 410.788742 
L 437.885439 330.96065 
L 439.918774 288.198985 
L 441.95211 260.950617 
L 443.985446 280.475041 
L 446.018782 294.809932 
L 448.052118 302.552868 
L 450.085454 314.8832 
L 452.11879 330.134177 
L 454.152126 347.356434 
L 456.185461 359.133919 
L 458.218797 390.278002 
L 460.252133 393.066987 
L 462.285469 408.876391 
L 464.318805 418.153871 
L 466.352141 428.302714 
L 468.385477 416.755905 
L 470.418812 390.419957 
L 472.452148 439.836828 
L 474.485484 428.313233 
L 476.51882 446.190405 
L 478.552156 422.87068 
L 480.585492 427.97973 
L 482.618828 447.945814 
L 484.652164 423.391904 
L 486.685499 419.724373 
L 488.718835 416.331233 
L 490.752171 404.357732 
L 492.785507 419.033825 
L 494.818843 415.129633 
L 496.852179 418.751212 
L 498.885515 402.703142 
L 500.918851 377.566928 
L 502.952186 429.389164 
L 504.985522 388.815173 
L 507.018858 393.510293 
L 509.052194 370.993793 
L 511.08553 363.955467 
L 513.118866 349.688441 
L 515.152202 341.104261 
L 517.185537 329.778644 
L 519.218873 335.768368 
L 521.252209 335.411243 
L 523.285545 334.554606 
L 525.318881 325.126755 
L 527.352217 311.196742 
L 529.385553 304.461668 
L 531.418889 316.774133 
L 533.452224 286.245665 
L 535.48556 289.480509 
L 537.518896 297.447084 
L 539.552232 243.750704 
L 541.585568 256.559147 
L 543.618904 276.612367 
L 545.65224 247.873153 
L 547.685576 208.75658 
L 549.718911 283.727517 
L 551.752247 271.429588 
L 553.785583 258.167997 
L 555.818919 297.003771 
L 557.852255 304.819773 
L 559.885591 299.305232 
L 561.918927 282.577369 
L 563.952262 259.129742 
L 565.985598 272.869507 
L 568.018934 276.98254 
L 570.05227 281.810807 
L 572.085606 285.917867 
L 574.118942 270.040273 
L 576.152278 283.473095 
L 578.185614 272.225166 
L 580.218949 294.381021 
L 582.252285 284.273648 
L 584.285621 319.449462 
L 586.318957 331.324699 
L 588.352293 332.54081 
L 590.385629 358.835418 
L 592.418965 352.685428 
L 594.4523 336.303625 
L 596.485636 323.471876 
L 596.485636 323.471876 
" style="fill:none;stroke:#2ca02c;stroke-linecap:square;stroke-width:1.5;"/>
   </g>
   <g id="patch_3">
    <path d="M 86.22 659.3832 
L 86.22 88.9056 
" style="fill:none;stroke:#000000;stroke-linecap:square;stroke-linejoin:miter;stroke-width:0.8;"/>
   </g>
   <g id="patch_4">
    <path d="M 620.784 659.3832 
L 620.784 88.9056 
" style="fill:none;stroke:#000000;stroke-linecap:square;stroke-linejoin:miter;stroke-width:0.8;"/>
   </g>
   <g id="patch_5">
    <path d="M 86.22 659.3832 
L 620.784 659.3832 
" style="fill:none;stroke:#000000;stroke-linecap:square;stroke-linejoin:miter;stroke-width:0.8;"/>
   </g>
   <g id="patch_6">
    <path d="M 86.22 88.9056 
L 620.784 88.9056 
" style="fill:none;stroke:#000000;stroke-linecap:square;stroke-linejoin:miter;stroke-width:0.8;"/>
   </g>
  </g>
 </g>
 <defs>
  <clipPath id="pdfe3da3041">
   <rect height="570.4776" width="534.564" x="86.22" y="88.9056"/>
  </clipPath>
 </defs>
</svg>
