<?xml version="1.0" standalone="no"?>
<!DOCTYPE svg PUBLIC "-//W3C//DTD SVG 1.1//EN" "http://www.w3.org/Graphics/SVG/1.1/DTD/svg11.dtd">
<svg width="50mm" height="58mm" viewBox="0 -58 50 58" xmlns="http://www.w3.org/2000/svg" version="1.1">
<title>OpenSCAD Model</title>
<path d="
M 50,-58 L 0,-58 L 0,-0 L 50,-0 z
M 24.8757,-54.0078 L 24.7775,-54.0251 L 24.6815,-54.0521 L 24.5887,-54.0885 L 24.5,-54.134 L 24.4162,-54.188
 L 24.3383,-54.2502 L 24.2669,-54.3198 L 24.2029,-54.3962 L 24.1467,-54.4786 L 24.099,-54.5661 L 24.0603,-54.658
 L 24.0309,-54.7532 L 24.0112,-54.851 L 24.0012,-54.9501 L 24.0012,-55.0498 L 24.0112,-55.149 L 24.0309,-55.2467
 L 24.0603,-55.342 L 24.099,-55.4339 L 24.1467,-55.5214 L 24.2029,-55.6038 L 24.2669,-55.6802 L 24.3383,-55.7498
 L 24.4162,-55.8119 L 24.5,-55.866 L 24.5887,-55.9115 L 24.6815,-55.9479 L 24.7775,-55.9749 L 24.8757,-55.9922
 L 24.9751,-55.9997 L 25.0747,-55.9972 L 25.1736,-55.9848 L 25.2708,-55.9626 L 25.3653,-55.9309 L 25.4562,-55.8899
 L 25.5425,-55.84 L 25.6235,-55.7818 L 25.6982,-55.7159 L 25.766,-55.6428 L 25.8262,-55.5633 L 25.8782,-55.4782
 L 25.9215,-55.3884 L 25.9556,-55.2948 L 25.9802,-55.1981 L 25.995,-55.0996 L 26,-55 L 25.995,-54.9004
 L 25.9802,-54.8018 L 25.9556,-54.7052 L 25.9215,-54.6116 L 25.8782,-54.5217 L 25.8262,-54.4367 L 25.766,-54.3572
 L 25.6982,-54.2841 L 25.6235,-54.2182 L 25.5425,-54.16 L 25.4562,-54.1101 L 25.3653,-54.0691 L 25.2708,-54.0374
 L 25.1736,-54.0152 L 25.0747,-54.0028 L 24.9751,-54.0003 z
M 1,-1 L 1,-6 L 1.09999,-6 L 1.09999,-1 z
M 2.10641,-0.936676 L 2.0667,-0.938675 L 2.02782,-0.942001 L 1.98979,-0.946671 L 1.95262,-0.952667 L 1.91631,-0.960007
 L 1.88083,-0.968674 L 1.84622,-0.978668 L 1.81244,-0.990005 L 1.77953,-1.00266 L 1.74745,-1.01666 L 1.71625,-1.032
 L 1.68588,-1.04866 L 1.65636,-1.06667 L 1.6277,-1.086 L 1.59988,-1.10666 L 1.57292,-1.12866 L 1.5468,-1.15199
 L 1.52155,-1.17667 L 1.49713,-1.20265 L 1.47357,-1.23 L 1.45087,-1.25865 L 1.429,-1.28867 L 1.40799,-1.31999
 L 1.38792,-1.3526 L 1.3687,-1.38644 L 1.35034,-1.42149 L 1.33282,-1.45776 L 1.31616,-1.49527 L 1.30037,-1.534
 L 1.28542,-1.57394 L 1.27133,-1.6151 L 1.25809,-1.65749 L 1.2457,-1.70111 L 1.23418,-1.74594 L 1.2235,-1.79199
 L 1.21367,-1.83926 L 1.2047,-1.88777 L 1.19658,-1.9375 L 1.18933,-1.98843 L 1.18292,-2.0406 L 1.17737,-2.09399
 L 1.17267,-2.14861 L 1.16882,-2.20444 L 1.16583,-2.26149 L 1.1637,-2.31976 L 1.16241,-2.37927 L 1.16199,-2.43999
 L 1.16241,-2.50209 L 1.16365,-2.56287 L 1.16573,-2.62233 L 1.16862,-2.6805 L 1.17236,-2.73734 L 1.17693,-2.79286
 L 1.18233,-2.84709 L 1.18855,-2.89999 L 1.1956,-2.95158 L 1.20349,-3.00186 L 1.2122,-3.05084 L 1.22174,-3.0985
 L 1.23212,-3.14484 L 1.24332,-3.18987 L 1.25536,-3.23358 L 1.26822,-3.27599 L 1.28191,-3.31709 L 1.29643,-3.35687
 L 1.31178,-3.39534 L 1.32796,-3.4325 L 1.34497,-3.46834 L 1.36282,-3.50287 L 1.38148,-3.53609 L 1.40099,-3.56799
 L 1.42148,-3.59868 L 1.44292,-3.62805 L 1.46533,-3.65611 L 1.48871,-3.68288 L 1.51306,-3.70834 L 1.53836,-3.7325
 L 1.56464,-3.75534 L 1.59189,-3.77689 L 1.62009,-3.79712 L 1.64926,-3.81606 L 1.6794,-3.83368 L 1.71049,-3.84999
 L 1.74255,-3.86501 L 1.77559,-3.87871 L 1.80959,-3.89111 L 1.84454,-3.90222 L 1.88048,-3.912 L 1.91737,-3.92049
 L 1.95523,-3.92767 L 1.99405,-3.93355 L 2.03383,-3.93811 L 2.07458,-3.94138 L 2.1163,-3.94334 L 2.159,-3.94398
 L 2.20053,-3.94333 L 2.24115,-3.94136 L 2.28085,-3.93805 L 2.31963,-3.93344 L 2.3575,-3.92751 L 2.39442,-3.92024
 L 2.43045,-3.91167 L 2.46555,-3.90176 L 2.49973,-3.89055 L 2.53299,-3.87802 L 2.56532,-3.86417 L 2.59674,-3.849
 L 2.62724,-3.8325 L 2.65681,-3.81468 L 2.68547,-3.79555 L 2.71321,-3.7751 L 2.74004,-3.75333 L 2.76593,-3.73024
 L 2.79091,-3.70583 L 2.81497,-3.6801 L 2.8381,-3.65306 L 2.86032,-3.62468 L 2.88162,-3.595 L 2.90199,-3.564
 L 2.92157,-3.53177 L 2.94032,-3.49829 L 2.95824,-3.46352 L 2.97533,-3.42749 L 2.99158,-3.3902 L 3.00699,-3.35162
 L 3.02158,-3.31177 L 3.03532,-3.27066 L 3.04825,-3.22827 L 3.06033,-3.18462 L 3.07158,-3.13969 L 3.08199,-3.09349
 L 3.09158,-3.04602 L 3.10033,-2.99728 L 3.10825,-2.94728 L 3.11533,-2.896 L 3.12158,-2.84344 L 3.127,-2.78961
 L 3.13158,-2.73453 L 3.13533,-2.67816 L 3.13824,-2.62053 L 3.14032,-2.56161 L 3.14157,-2.50143 L 3.142,-2.43999
 L 3.14156,-2.37959 L 3.14024,-2.32039 L 3.13806,-2.26241 L 3.13499,-2.2056 L 3.13106,-2.15001 L 3.12624,-2.09561
 L 3.12056,-2.04242 L 3.114,-1.99043 L 3.10655,-1.93965 L 3.09824,-1.89006 L 3.08905,-1.84167 L 3.07899,-1.79449
 L 3.06805,-1.7485 L 3.05624,-1.70374 L 3.04355,-1.66016 L 3.03,-1.61777 L 3.01555,-1.5766 L 3.00024,-1.53662
 L 2.98405,-1.49785 L 2.967,-1.46027 L 2.94905,-1.4239 L 2.93024,-1.38873 L 2.91055,-1.35477 L 2.89,-1.32199
 L 2.86858,-1.2905 L 2.84633,-1.26035 L 2.82326,-1.23152 L 2.79935,-1.20404 L 2.77461,-1.17792 L 2.74905,-1.15312
 L 2.72266,-1.12967 L 2.69543,-1.10754 L 2.66739,-1.08678 L 2.6385,-1.06734 L 2.60878,-1.04924 L 2.57825,-1.03249
 L 2.54688,-1.01707 L 2.51466,-1.00301 L 2.48163,-0.990295 L 2.44777,-0.978897 L 2.41307,-0.968842 L 2.37755,-0.960129
 L 2.3412,-0.952759 L 2.30402,-0.946732 L 2.26601,-0.942032 L 2.22717,-0.93869 L 2.1875,-0.936676 L 2.14699,-0.936005
 z
M 2.17644,-1.2355 L 2.2023,-1.23705 L 2.22755,-1.23962 L 2.25221,-1.24321 L 2.27628,-1.24783 L 2.29974,-1.25349
 L 2.32262,-1.26018 L 2.34488,-1.26788 L 2.36656,-1.27661 L 2.38763,-1.28638 L 2.40811,-1.29718 L 2.42799,-1.30899
 L 2.44728,-1.32184 L 2.46596,-1.33571 L 2.48405,-1.35062 L 2.50154,-1.36655 L 2.51845,-1.3835 L 2.53474,-1.40149
 L 2.55045,-1.4205 L 2.56555,-1.44055 L 2.58005,-1.46162 L 2.59396,-1.48372 L 2.60728,-1.50684 L 2.62,-1.53099
 L 2.63223,-1.55621 L 2.64395,-1.58252 L 2.65515,-1.60994 L 2.66583,-1.63846 L 2.67598,-1.66809 L 2.68562,-1.69881
 L 2.69473,-1.73062 L 2.70332,-1.76355 L 2.7114,-1.79758 L 2.71895,-1.83269 L 2.72598,-1.86891 L 2.7325,-1.90625
 L 2.73848,-1.94467 L 2.74396,-1.98419 L 2.7489,-2.02483 L 2.75333,-2.06654 L 2.75723,-2.10938 L 2.76062,-2.15331
 L 2.76349,-2.19833 L 2.76582,-2.24446 L 2.76765,-2.2917 L 2.76895,-2.34003 L 2.76973,-2.38947 L 2.76999,-2.43999
 L 2.76974,-2.49239 L 2.769,-2.54355 L 2.76776,-2.59351 L 2.76602,-2.64224 L 2.76378,-2.68976 L 2.76105,-2.73605
 L 2.75783,-2.78113 L 2.7541,-2.825 L 2.74988,-2.86763 L 2.74516,-2.90906 L 2.73996,-2.94926 L 2.73424,-2.98824
 L 2.72804,-3.026 L 2.72133,-3.06256 L 2.71413,-3.09789 L 2.70644,-3.13199 L 2.69824,-3.16489 L 2.68956,-3.19655
 L 2.68037,-3.22701 L 2.67068,-3.25624 L 2.66051,-3.28426 L 2.64983,-3.31105 L 2.63866,-3.33664 L 2.627,-3.36099
 L 2.61484,-3.38432 L 2.60205,-3.40668 L 2.58862,-3.42802 L 2.57455,-3.44838 L 2.55984,-3.46774 L 2.54449,-3.48611
 L 2.5285,-3.50349 L 2.51189,-3.51988 L 2.49461,-3.53528 L 2.47672,-3.54967 L 2.45818,-3.56308 L 2.439,-3.57549
 L 2.41917,-3.58691 L 2.39871,-3.59734 L 2.37762,-3.60678 L 2.35588,-3.61522 L 2.33351,-3.62267 L 2.31049,-3.62912
 L 2.28683,-3.63458 L 2.26254,-3.63905 L 2.23761,-3.64252 L 2.21205,-3.645 L 2.18584,-3.6465 L 2.159,-3.64699
 L 2.13141,-3.6465 L 2.10446,-3.64503 L 2.07819,-3.64259 L 2.05255,-3.63916 L 2.02757,-3.63475 L 2.00323,-3.62936
 L 1.97957,-3.623 L 1.95654,-3.61566 L 1.93417,-3.60733 L 1.91246,-3.59804 L 1.8914,-3.58775 L 1.87099,-3.57649
 L 1.85124,-3.56425 L 1.83214,-3.55104 L 1.81367,-3.53683 L 1.79588,-3.52165 L 1.77873,-3.50551 L 1.76224,-3.48837
 L 1.7464,-3.47025 L 1.73122,-3.45116 L 1.71667,-3.43109 L 1.7028,-3.41003 L 1.68958,-3.388 L 1.67699,-3.36499
 L 1.66508,-3.34094 L 1.65367,-3.31564 L 1.64278,-3.28908 L 1.63239,-3.26125 L 1.6225,-3.23215 L 1.61311,-3.2018
 L 1.60425,-3.1702 L 1.59589,-3.13733 L 1.58803,-3.1032 L 1.58067,-3.06781 L 1.57382,-3.03116 L 1.56749,-2.99324
 L 1.56166,-2.95407 L 1.55634,-2.91364 L 1.55153,-2.87195 L 1.54721,-2.82899 L 1.54341,-2.78477 L 1.54012,-2.7393
 L 1.53732,-2.69257 L 1.53505,-2.64458 L 1.53328,-2.59532 L 1.53201,-2.5448 L 1.53125,-2.49303 L 1.53099,-2.43999
 L 1.53125,-2.38849 L 1.53201,-2.33815 L 1.53331,-2.28897 L 1.53511,-2.24097 L 1.53741,-2.19412 L 1.54024,-2.14842
 L 1.54358,-2.10391 L 1.54744,-2.06055 L 1.5518,-2.01836 L 1.55669,-1.97733 L 1.56209,-1.93745 L 1.56799,-1.89874
 L 1.57442,-1.86121 L 1.58136,-1.82481 L 1.58881,-1.7896 L 1.59677,-1.75555 L 1.60526,-1.72266 L 1.61424,-1.69093
 L 1.62375,-1.66037 L 1.63377,-1.63097 L 1.6443,-1.60272 L 1.65535,-1.57565 L 1.66692,-1.54974 L 1.67899,-1.52499
 L 1.69171,-1.50133 L 1.70503,-1.47867 L 1.71895,-1.45703 L 1.73346,-1.43639 L 1.74858,-1.41675 L 1.7643,-1.39812
 L 1.78062,-1.38049 L 1.79755,-1.36388 L 1.81506,-1.34827 L 1.83319,-1.33368 L 1.85191,-1.32008 L 1.87125,-1.3075
 L 1.89117,-1.29591 L 1.9117,-1.28534 L 1.93282,-1.27577 L 1.95454,-1.26721 L 1.97688,-1.25966 L 1.9998,-1.25311
 L 2.02333,-1.24757 L 2.04747,-1.24304 L 2.07219,-1.23952 L 2.09753,-1.237 L 2.12346,-1.23549 L 2.14999,-1.23499
 z
M 4.72267,-1 L 4.72267,-3.87999 L 5.23267,-3.87999 L 5.96866,-1.881 L 5.97198,-1.87096 L 5.97861,-1.85069
 L 5.98189,-1.84047 L 5.98842,-1.81981 L 5.99165,-1.80937 L 5.99811,-1.78831 L 6.0013,-1.77769 L 6.00766,-1.75624
 L 6.01398,-1.73453 L 6.01711,-1.72357 L 6.02333,-1.70146 L 6.0295,-1.67908 L 6.0356,-1.65645 L 6.04166,-1.63354
 L 6.04762,-1.61063 L 6.056,-1.57812 L 6.06363,-1.54805 L 6.0705,-1.52036 L 6.07663,-1.49509 L 6.08029,-1.47957
 L 6.08362,-1.46513 L 6.088,-1.44547 L 6.0905,-1.4337 L 6.09267,-1.42299 L 6.09406,-1.42998 L 6.09557,-1.43724
 L 6.0972,-1.44481 L 6.09894,-1.45265 L 6.1008,-1.4608 L 6.10278,-1.46924 L 6.1071,-1.487 L 6.10945,-1.49631
 L 6.11447,-1.51581 L 6.11716,-1.52599 L 6.12289,-1.54724 L 6.12595,-1.5583 L 6.13239,-1.5813 L 6.13931,-1.60547
 L 6.1467,-1.6308 L 6.15456,-1.6573 L 6.16676,-1.69797 L 6.17441,-1.72322 L 6.18159,-1.74675 L 6.18832,-1.76855
 L 6.1946,-1.78864 L 6.20041,-1.80699 L 6.20576,-1.82362 L 6.21066,-1.83855 L 6.2151,-1.85175 L 6.21909,-1.86322
 L 6.2226,-1.87297 L 6.22566,-1.881 L 6.94867,-3.87999 L 7.44667,-3.87999 L 7.44667,-1 L 7.09767,-1
 L 7.09767,-2.92299 L 7.0977,-2.94954 L 7.09779,-2.976 L 7.09795,-3.00237 L 7.09816,-3.02866 L 7.09845,-3.05487
 L 7.09879,-3.08099 L 7.0992,-3.10704 L 7.09967,-3.133 L 7.10019,-3.15887 L 7.10078,-3.18466 L 7.10144,-3.21037
 L 7.10216,-3.23599 L 7.10295,-3.26154 L 7.10379,-3.28699 L 7.10469,-3.31236 L 7.10567,-3.33766 L 7.10669,-3.36287
 L 7.10779,-3.38799 L 7.10895,-3.41304 L 7.11017,-3.43799 L 7.11145,-3.46286 L 7.11279,-3.48766 L 7.1142,-3.51237
 L 7.11566,-3.53699 L 7.10762,-3.50677 L 7.09964,-3.4771 L 7.09172,-3.44798 L 7.08389,-3.4194 L 7.07611,-3.39139
 L 7.06842,-3.36394 L 7.06078,-3.33702 L 7.05322,-3.31065 L 7.04573,-3.28485 L 7.0383,-3.2596 L 7.03094,-3.23489
 L 7.02367,-3.21074 L 7.01645,-3.18715 L 7.00931,-3.16409 L 7.00223,-3.1416 L 6.99522,-3.11966 L 6.98828,-3.09827
 L 6.98141,-3.07742 L 6.97461,-3.05714 L 6.96788,-3.03741 L 6.96123,-3.01823 L 6.95464,-2.9996 L 6.94812,-2.98152
 L 6.94167,-2.96399 L 6.22366,-1 L 5.95866,-1 L 5.23067,-2.96399 L 5.11966,-3.312 L 5.05367,-3.53699
 L 5.05966,-3.31 L 5.06866,-2.92299 L 5.06866,-1 z
" stroke="black" fill="lightgray" stroke-width="0.5"/>
</svg>
