<?xml version="1.0" encoding="utf-8" standalone="no"?>
<!DOCTYPE svg PUBLIC "-//W3C//DTD SVG 1.1//EN"
  "http://www.w3.org/Graphics/SVG/1.1/DTD/svg11.dtd">
<!-- Created with matplotlib (https://matplotlib.org/) -->
<svg height="345.6pt" version="1.1" viewBox="0 0 460.8 345.6" width="460.8pt" xmlns="http://www.w3.org/2000/svg" xmlns:xlink="http://www.w3.org/1999/xlink">
 <defs>
  <style type="text/css">
*{stroke-linecap:butt;stroke-linejoin:round;}
  </style>
 </defs>
 <g id="figure_1">
  <g id="patch_1">
   <path d="M 0 345.6 
L 460.8 345.6 
L 460.8 0 
L 0 0 
z
" style="fill:#ffffff;"/>
  </g>
  <g id="axes_1">
   <g id="patch_2">
    <path d="M 57.6 307.584 
L 414.72 307.584 
L 414.72 41.472 
L 57.6 41.472 
z
" style="fill:#ffffff;"/>
   </g>
   <g id="matplotlib.axis_1">
    <g id="xtick_1">
     <g id="line2d_1">
      <defs>
       <path d="M 0 0 
L 0 3.5 
" id="mc3443cd2fc" style="stroke:#000000;stroke-width:0.8;"/>
      </defs>
      <g>
       <use style="stroke:#000000;stroke-width:0.8;" x="80.973186" xlink:href="#mc3443cd2fc" y="307.584"/>
      </g>
     </g>
     <g id="text_1">
      <!-- 6 -->
      <defs>
       <path d="M 33.015625 40.375 
Q 26.375 40.375 22.484375 35.828125 
Q 18.609375 31.296875 18.609375 23.390625 
Q 18.609375 15.53125 22.484375 10.953125 
Q 26.375 6.390625 33.015625 6.390625 
Q 39.65625 6.390625 43.53125 10.953125 
Q 47.40625 15.53125 47.40625 23.390625 
Q 47.40625 31.296875 43.53125 35.828125 
Q 39.65625 40.375 33.015625 40.375 
z
M 52.59375 71.296875 
L 52.59375 62.3125 
Q 48.875 64.0625 45.09375 64.984375 
Q 41.3125 65.921875 37.59375 65.921875 
Q 27.828125 65.921875 22.671875 59.328125 
Q 17.53125 52.734375 16.796875 39.40625 
Q 19.671875 43.65625 24.015625 45.921875 
Q 28.375 48.1875 33.59375 48.1875 
Q 44.578125 48.1875 50.953125 41.515625 
Q 57.328125 34.859375 57.328125 23.390625 
Q 57.328125 12.15625 50.6875 5.359375 
Q 44.046875 -1.421875 33.015625 -1.421875 
Q 20.359375 -1.421875 13.671875 8.265625 
Q 6.984375 17.96875 6.984375 36.375 
Q 6.984375 53.65625 15.1875 63.9375 
Q 23.390625 74.21875 37.203125 74.21875 
Q 40.921875 74.21875 44.703125 73.484375 
Q 48.484375 72.75 52.59375 71.296875 
z
" id="DejaVuSans-54"/>
      </defs>
      <g transform="translate(77.791936 322.182437)scale(0.1 -0.1)">
       <use xlink:href="#DejaVuSans-54"/>
      </g>
     </g>
    </g>
    <g id="xtick_2">
     <g id="line2d_2">
      <g>
       <use style="stroke:#000000;stroke-width:0.8;" x="137.643491" xlink:href="#mc3443cd2fc" y="307.584"/>
      </g>
     </g>
     <g id="text_2">
      <!-- 7 -->
      <defs>
       <path d="M 8.203125 72.90625 
L 55.078125 72.90625 
L 55.078125 68.703125 
L 28.609375 0 
L 18.3125 0 
L 43.21875 64.59375 
L 8.203125 64.59375 
z
" id="DejaVuSans-55"/>
      </defs>
      <g transform="translate(134.462241 322.182437)scale(0.1 -0.1)">
       <use xlink:href="#DejaVuSans-55"/>
      </g>
     </g>
    </g>
    <g id="xtick_3">
     <g id="line2d_3">
      <g>
       <use style="stroke:#000000;stroke-width:0.8;" x="194.313796" xlink:href="#mc3443cd2fc" y="307.584"/>
      </g>
     </g>
     <g id="text_3">
      <!-- 8 -->
      <defs>
       <path d="M 31.78125 34.625 
Q 24.75 34.625 20.71875 30.859375 
Q 16.703125 27.09375 16.703125 20.515625 
Q 16.703125 13.921875 20.71875 10.15625 
Q 24.75 6.390625 31.78125 6.390625 
Q 38.8125 6.390625 42.859375 10.171875 
Q 46.921875 13.96875 46.921875 20.515625 
Q 46.921875 27.09375 42.890625 30.859375 
Q 38.875 34.625 31.78125 34.625 
z
M 21.921875 38.8125 
Q 15.578125 40.375 12.03125 44.71875 
Q 8.5 49.078125 8.5 55.328125 
Q 8.5 64.0625 14.71875 69.140625 
Q 20.953125 74.21875 31.78125 74.21875 
Q 42.671875 74.21875 48.875 69.140625 
Q 55.078125 64.0625 55.078125 55.328125 
Q 55.078125 49.078125 51.53125 44.71875 
Q 48 40.375 41.703125 38.8125 
Q 48.828125 37.15625 52.796875 32.3125 
Q 56.78125 27.484375 56.78125 20.515625 
Q 56.78125 9.90625 50.3125 4.234375 
Q 43.84375 -1.421875 31.78125 -1.421875 
Q 19.734375 -1.421875 13.25 4.234375 
Q 6.78125 9.90625 6.78125 20.515625 
Q 6.78125 27.484375 10.78125 32.3125 
Q 14.796875 37.15625 21.921875 38.8125 
z
M 18.3125 54.390625 
Q 18.3125 48.734375 21.84375 45.5625 
Q 25.390625 42.390625 31.78125 42.390625 
Q 38.140625 42.390625 41.71875 45.5625 
Q 45.3125 48.734375 45.3125 54.390625 
Q 45.3125 60.0625 41.71875 63.234375 
Q 38.140625 66.40625 31.78125 66.40625 
Q 25.390625 66.40625 21.84375 63.234375 
Q 18.3125 60.0625 18.3125 54.390625 
z
" id="DejaVuSans-56"/>
      </defs>
      <g transform="translate(191.132546 322.182437)scale(0.1 -0.1)">
       <use xlink:href="#DejaVuSans-56"/>
      </g>
     </g>
    </g>
    <g id="xtick_4">
     <g id="line2d_4">
      <g>
       <use style="stroke:#000000;stroke-width:0.8;" x="250.984102" xlink:href="#mc3443cd2fc" y="307.584"/>
      </g>
     </g>
     <g id="text_4">
      <!-- 9 -->
      <defs>
       <path d="M 10.984375 1.515625 
L 10.984375 10.5 
Q 14.703125 8.734375 18.5 7.8125 
Q 22.3125 6.890625 25.984375 6.890625 
Q 35.75 6.890625 40.890625 13.453125 
Q 46.046875 20.015625 46.78125 33.40625 
Q 43.953125 29.203125 39.59375 26.953125 
Q 35.25 24.703125 29.984375 24.703125 
Q 19.046875 24.703125 12.671875 31.3125 
Q 6.296875 37.9375 6.296875 49.421875 
Q 6.296875 60.640625 12.9375 67.421875 
Q 19.578125 74.21875 30.609375 74.21875 
Q 43.265625 74.21875 49.921875 64.515625 
Q 56.59375 54.828125 56.59375 36.375 
Q 56.59375 19.140625 48.40625 8.859375 
Q 40.234375 -1.421875 26.421875 -1.421875 
Q 22.703125 -1.421875 18.890625 -0.6875 
Q 15.09375 0.046875 10.984375 1.515625 
z
M 30.609375 32.421875 
Q 37.25 32.421875 41.125 36.953125 
Q 45.015625 41.5 45.015625 49.421875 
Q 45.015625 57.28125 41.125 61.84375 
Q 37.25 66.40625 30.609375 66.40625 
Q 23.96875 66.40625 20.09375 61.84375 
Q 16.21875 57.28125 16.21875 49.421875 
Q 16.21875 41.5 20.09375 36.953125 
Q 23.96875 32.421875 30.609375 32.421875 
z
" id="DejaVuSans-57"/>
      </defs>
      <g transform="translate(247.802852 322.182437)scale(0.1 -0.1)">
       <use xlink:href="#DejaVuSans-57"/>
      </g>
     </g>
    </g>
    <g id="xtick_5">
     <g id="line2d_5">
      <g>
       <use style="stroke:#000000;stroke-width:0.8;" x="307.654407" xlink:href="#mc3443cd2fc" y="307.584"/>
      </g>
     </g>
     <g id="text_5">
      <!-- 10 -->
      <defs>
       <path d="M 12.40625 8.296875 
L 28.515625 8.296875 
L 28.515625 63.921875 
L 10.984375 60.40625 
L 10.984375 69.390625 
L 28.421875 72.90625 
L 38.28125 72.90625 
L 38.28125 8.296875 
L 54.390625 8.296875 
L 54.390625 0 
L 12.40625 0 
z
" id="DejaVuSans-49"/>
       <path d="M 31.78125 66.40625 
Q 24.171875 66.40625 20.328125 58.90625 
Q 16.5 51.421875 16.5 36.375 
Q 16.5 21.390625 20.328125 13.890625 
Q 24.171875 6.390625 31.78125 6.390625 
Q 39.453125 6.390625 43.28125 13.890625 
Q 47.125 21.390625 47.125 36.375 
Q 47.125 51.421875 43.28125 58.90625 
Q 39.453125 66.40625 31.78125 66.40625 
z
M 31.78125 74.21875 
Q 44.046875 74.21875 50.515625 64.515625 
Q 56.984375 54.828125 56.984375 36.375 
Q 56.984375 17.96875 50.515625 8.265625 
Q 44.046875 -1.421875 31.78125 -1.421875 
Q 19.53125 -1.421875 13.0625 8.265625 
Q 6.59375 17.96875 6.59375 36.375 
Q 6.59375 54.828125 13.0625 64.515625 
Q 19.53125 74.21875 31.78125 74.21875 
z
" id="DejaVuSans-48"/>
      </defs>
      <g transform="translate(301.291907 322.182437)scale(0.1 -0.1)">
       <use xlink:href="#DejaVuSans-49"/>
       <use x="63.623047" xlink:href="#DejaVuSans-48"/>
      </g>
     </g>
    </g>
    <g id="xtick_6">
     <g id="line2d_6">
      <g>
       <use style="stroke:#000000;stroke-width:0.8;" x="364.324713" xlink:href="#mc3443cd2fc" y="307.584"/>
      </g>
     </g>
     <g id="text_6">
      <!-- 11 -->
      <g transform="translate(357.962213 322.182437)scale(0.1 -0.1)">
       <use xlink:href="#DejaVuSans-49"/>
       <use x="63.623047" xlink:href="#DejaVuSans-49"/>
      </g>
     </g>
    </g>
    <g id="text_7">
     <!-- Frequency (GHz) -->
     <defs>
      <path d="M 9.8125 72.90625 
L 51.703125 72.90625 
L 51.703125 64.59375 
L 19.671875 64.59375 
L 19.671875 43.109375 
L 48.578125 43.109375 
L 48.578125 34.8125 
L 19.671875 34.8125 
L 19.671875 0 
L 9.8125 0 
z
" id="DejaVuSans-70"/>
      <path d="M 41.109375 46.296875 
Q 39.59375 47.171875 37.8125 47.578125 
Q 36.03125 48 33.890625 48 
Q 26.265625 48 22.1875 43.046875 
Q 18.109375 38.09375 18.109375 28.8125 
L 18.109375 0 
L 9.078125 0 
L 9.078125 54.6875 
L 18.109375 54.6875 
L 18.109375 46.1875 
Q 20.953125 51.171875 25.484375 53.578125 
Q 30.03125 56 36.53125 56 
Q 37.453125 56 38.578125 55.875 
Q 39.703125 55.765625 41.0625 55.515625 
z
" id="DejaVuSans-114"/>
      <path d="M 56.203125 29.59375 
L 56.203125 25.203125 
L 14.890625 25.203125 
Q 15.484375 15.921875 20.484375 11.0625 
Q 25.484375 6.203125 34.421875 6.203125 
Q 39.59375 6.203125 44.453125 7.46875 
Q 49.3125 8.734375 54.109375 11.28125 
L 54.109375 2.78125 
Q 49.265625 0.734375 44.1875 -0.34375 
Q 39.109375 -1.421875 33.890625 -1.421875 
Q 20.796875 -1.421875 13.15625 6.1875 
Q 5.515625 13.8125 5.515625 26.8125 
Q 5.515625 40.234375 12.765625 48.109375 
Q 20.015625 56 32.328125 56 
Q 43.359375 56 49.78125 48.890625 
Q 56.203125 41.796875 56.203125 29.59375 
z
M 47.21875 32.234375 
Q 47.125 39.59375 43.09375 43.984375 
Q 39.0625 48.390625 32.421875 48.390625 
Q 24.90625 48.390625 20.390625 44.140625 
Q 15.875 39.890625 15.1875 32.171875 
z
" id="DejaVuSans-101"/>
      <path d="M 14.796875 27.296875 
Q 14.796875 17.390625 18.875 11.75 
Q 22.953125 6.109375 30.078125 6.109375 
Q 37.203125 6.109375 41.296875 11.75 
Q 45.40625 17.390625 45.40625 27.296875 
Q 45.40625 37.203125 41.296875 42.84375 
Q 37.203125 48.484375 30.078125 48.484375 
Q 22.953125 48.484375 18.875 42.84375 
Q 14.796875 37.203125 14.796875 27.296875 
z
M 45.40625 8.203125 
Q 42.578125 3.328125 38.25 0.953125 
Q 33.9375 -1.421875 27.875 -1.421875 
Q 17.96875 -1.421875 11.734375 6.484375 
Q 5.515625 14.40625 5.515625 27.296875 
Q 5.515625 40.1875 11.734375 48.09375 
Q 17.96875 56 27.875 56 
Q 33.9375 56 38.25 53.625 
Q 42.578125 51.265625 45.40625 46.390625 
L 45.40625 54.6875 
L 54.390625 54.6875 
L 54.390625 -20.796875 
L 45.40625 -20.796875 
z
" id="DejaVuSans-113"/>
      <path d="M 8.5 21.578125 
L 8.5 54.6875 
L 17.484375 54.6875 
L 17.484375 21.921875 
Q 17.484375 14.15625 20.5 10.265625 
Q 23.53125 6.390625 29.59375 6.390625 
Q 36.859375 6.390625 41.078125 11.03125 
Q 45.3125 15.671875 45.3125 23.6875 
L 45.3125 54.6875 
L 54.296875 54.6875 
L 54.296875 0 
L 45.3125 0 
L 45.3125 8.40625 
Q 42.046875 3.421875 37.71875 1 
Q 33.40625 -1.421875 27.6875 -1.421875 
Q 18.265625 -1.421875 13.375 4.4375 
Q 8.5 10.296875 8.5 21.578125 
z
M 31.109375 56 
z
" id="DejaVuSans-117"/>
      <path d="M 54.890625 33.015625 
L 54.890625 0 
L 45.90625 0 
L 45.90625 32.71875 
Q 45.90625 40.484375 42.875 44.328125 
Q 39.84375 48.1875 33.796875 48.1875 
Q 26.515625 48.1875 22.3125 43.546875 
Q 18.109375 38.921875 18.109375 30.90625 
L 18.109375 0 
L 9.078125 0 
L 9.078125 54.6875 
L 18.109375 54.6875 
L 18.109375 46.1875 
Q 21.34375 51.125 25.703125 53.5625 
Q 30.078125 56 35.796875 56 
Q 45.21875 56 50.046875 50.171875 
Q 54.890625 44.34375 54.890625 33.015625 
z
" id="DejaVuSans-110"/>
      <path d="M 48.78125 52.59375 
L 48.78125 44.1875 
Q 44.96875 46.296875 41.140625 47.34375 
Q 37.3125 48.390625 33.40625 48.390625 
Q 24.65625 48.390625 19.8125 42.84375 
Q 14.984375 37.3125 14.984375 27.296875 
Q 14.984375 17.28125 19.8125 11.734375 
Q 24.65625 6.203125 33.40625 6.203125 
Q 37.3125 6.203125 41.140625 7.25 
Q 44.96875 8.296875 48.78125 10.40625 
L 48.78125 2.09375 
Q 45.015625 0.34375 40.984375 -0.53125 
Q 36.96875 -1.421875 32.421875 -1.421875 
Q 20.0625 -1.421875 12.78125 6.34375 
Q 5.515625 14.109375 5.515625 27.296875 
Q 5.515625 40.671875 12.859375 48.328125 
Q 20.21875 56 33.015625 56 
Q 37.15625 56 41.109375 55.140625 
Q 45.0625 54.296875 48.78125 52.59375 
z
" id="DejaVuSans-99"/>
      <path d="M 32.171875 -5.078125 
Q 28.375 -14.84375 24.75 -17.8125 
Q 21.140625 -20.796875 15.09375 -20.796875 
L 7.90625 -20.796875 
L 7.90625 -13.28125 
L 13.1875 -13.28125 
Q 16.890625 -13.28125 18.9375 -11.515625 
Q 21 -9.765625 23.484375 -3.21875 
L 25.09375 0.875 
L 2.984375 54.6875 
L 12.5 54.6875 
L 29.59375 11.921875 
L 46.6875 54.6875 
L 56.203125 54.6875 
z
" id="DejaVuSans-121"/>
      <path id="DejaVuSans-32"/>
      <path d="M 31 75.875 
Q 24.46875 64.65625 21.28125 53.65625 
Q 18.109375 42.671875 18.109375 31.390625 
Q 18.109375 20.125 21.3125 9.0625 
Q 24.515625 -2 31 -13.1875 
L 23.1875 -13.1875 
Q 15.875 -1.703125 12.234375 9.375 
Q 8.59375 20.453125 8.59375 31.390625 
Q 8.59375 42.28125 12.203125 53.3125 
Q 15.828125 64.359375 23.1875 75.875 
z
" id="DejaVuSans-40"/>
      <path d="M 59.515625 10.40625 
L 59.515625 29.984375 
L 43.40625 29.984375 
L 43.40625 38.09375 
L 69.28125 38.09375 
L 69.28125 6.78125 
Q 63.578125 2.734375 56.6875 0.65625 
Q 49.8125 -1.421875 42 -1.421875 
Q 24.90625 -1.421875 15.25 8.5625 
Q 5.609375 18.5625 5.609375 36.375 
Q 5.609375 54.25 15.25 64.234375 
Q 24.90625 74.21875 42 74.21875 
Q 49.125 74.21875 55.546875 72.453125 
Q 61.96875 70.703125 67.390625 67.28125 
L 67.390625 56.78125 
Q 61.921875 61.421875 55.765625 63.765625 
Q 49.609375 66.109375 42.828125 66.109375 
Q 29.4375 66.109375 22.71875 58.640625 
Q 16.015625 51.171875 16.015625 36.375 
Q 16.015625 21.625 22.71875 14.15625 
Q 29.4375 6.6875 42.828125 6.6875 
Q 48.046875 6.6875 52.140625 7.59375 
Q 56.25 8.5 59.515625 10.40625 
z
" id="DejaVuSans-71"/>
      <path d="M 9.8125 72.90625 
L 19.671875 72.90625 
L 19.671875 43.015625 
L 55.515625 43.015625 
L 55.515625 72.90625 
L 65.375 72.90625 
L 65.375 0 
L 55.515625 0 
L 55.515625 34.71875 
L 19.671875 34.71875 
L 19.671875 0 
L 9.8125 0 
z
" id="DejaVuSans-72"/>
      <path d="M 5.515625 54.6875 
L 48.1875 54.6875 
L 48.1875 46.484375 
L 14.40625 7.171875 
L 48.1875 7.171875 
L 48.1875 0 
L 4.296875 0 
L 4.296875 8.203125 
L 38.09375 47.515625 
L 5.515625 47.515625 
z
" id="DejaVuSans-122"/>
      <path d="M 8.015625 75.875 
L 15.828125 75.875 
Q 23.140625 64.359375 26.78125 53.3125 
Q 30.421875 42.28125 30.421875 31.390625 
Q 30.421875 20.453125 26.78125 9.375 
Q 23.140625 -1.703125 15.828125 -13.1875 
L 8.015625 -13.1875 
Q 14.5 -2 17.703125 9.0625 
Q 20.90625 20.125 20.90625 31.390625 
Q 20.90625 42.671875 17.703125 53.65625 
Q 14.5 64.65625 8.015625 75.875 
z
" id="DejaVuSans-41"/>
     </defs>
     <g transform="translate(194.581094 335.860562)scale(0.1 -0.1)">
      <use xlink:href="#DejaVuSans-70"/>
      <use x="50.269531" xlink:href="#DejaVuSans-114"/>
      <use x="89.132812" xlink:href="#DejaVuSans-101"/>
      <use x="150.65625" xlink:href="#DejaVuSans-113"/>
      <use x="214.132812" xlink:href="#DejaVuSans-117"/>
      <use x="277.511719" xlink:href="#DejaVuSans-101"/>
      <use x="339.035156" xlink:href="#DejaVuSans-110"/>
      <use x="402.414062" xlink:href="#DejaVuSans-99"/>
      <use x="457.394531" xlink:href="#DejaVuSans-121"/>
      <use x="516.574219" xlink:href="#DejaVuSans-32"/>
      <use x="548.361328" xlink:href="#DejaVuSans-40"/>
      <use x="587.375" xlink:href="#DejaVuSans-71"/>
      <use x="664.865234" xlink:href="#DejaVuSans-72"/>
      <use x="740.060547" xlink:href="#DejaVuSans-122"/>
      <use x="792.550781" xlink:href="#DejaVuSans-41"/>
     </g>
    </g>
    <g id="text_8">
     <!-- 1e9 -->
     <g transform="translate(395.841875 334.860562)scale(0.1 -0.1)">
      <use xlink:href="#DejaVuSans-49"/>
      <use x="63.623047" xlink:href="#DejaVuSans-101"/>
      <use x="125.146484" xlink:href="#DejaVuSans-57"/>
     </g>
    </g>
   </g>
   <g id="matplotlib.axis_2">
    <g id="ytick_1">
     <g id="line2d_7">
      <defs>
       <path d="M 0 0 
L -3.5 0 
" id="m6913af090d" style="stroke:#000000;stroke-width:0.8;"/>
      </defs>
      <g>
       <use style="stroke:#000000;stroke-width:0.8;" x="57.6" xlink:href="#m6913af090d" y="298.414342"/>
      </g>
     </g>
     <g id="text_9">
      <!-- 0.00 -->
      <defs>
       <path d="M 10.6875 12.40625 
L 21 12.40625 
L 21 0 
L 10.6875 0 
z
" id="DejaVuSans-46"/>
      </defs>
      <g transform="translate(28.334375 302.213561)scale(0.1 -0.1)">
       <use xlink:href="#DejaVuSans-48"/>
       <use x="63.623047" xlink:href="#DejaVuSans-46"/>
       <use x="95.410156" xlink:href="#DejaVuSans-48"/>
       <use x="159.033203" xlink:href="#DejaVuSans-48"/>
      </g>
     </g>
    </g>
    <g id="ytick_2">
     <g id="line2d_8">
      <g>
       <use style="stroke:#000000;stroke-width:0.8;" x="57.6" xlink:href="#m6913af090d" y="264.228745"/>
      </g>
     </g>
     <g id="text_10">
      <!-- 0.05 -->
      <defs>
       <path d="M 10.796875 72.90625 
L 49.515625 72.90625 
L 49.515625 64.59375 
L 19.828125 64.59375 
L 19.828125 46.734375 
Q 21.96875 47.46875 24.109375 47.828125 
Q 26.265625 48.1875 28.421875 48.1875 
Q 40.625 48.1875 47.75 41.5 
Q 54.890625 34.8125 54.890625 23.390625 
Q 54.890625 11.625 47.5625 5.09375 
Q 40.234375 -1.421875 26.90625 -1.421875 
Q 22.3125 -1.421875 17.546875 -0.640625 
Q 12.796875 0.140625 7.71875 1.703125 
L 7.71875 11.625 
Q 12.109375 9.234375 16.796875 8.0625 
Q 21.484375 6.890625 26.703125 6.890625 
Q 35.15625 6.890625 40.078125 11.328125 
Q 45.015625 15.765625 45.015625 23.390625 
Q 45.015625 31 40.078125 35.4375 
Q 35.15625 39.890625 26.703125 39.890625 
Q 22.75 39.890625 18.8125 39.015625 
Q 14.890625 38.140625 10.796875 36.28125 
z
" id="DejaVuSans-53"/>
      </defs>
      <g transform="translate(28.334375 268.027964)scale(0.1 -0.1)">
       <use xlink:href="#DejaVuSans-48"/>
       <use x="63.623047" xlink:href="#DejaVuSans-46"/>
       <use x="95.410156" xlink:href="#DejaVuSans-48"/>
       <use x="159.033203" xlink:href="#DejaVuSans-53"/>
      </g>
     </g>
    </g>
    <g id="ytick_3">
     <g id="line2d_9">
      <g>
       <use style="stroke:#000000;stroke-width:0.8;" x="57.6" xlink:href="#m6913af090d" y="230.043149"/>
      </g>
     </g>
     <g id="text_11">
      <!-- 0.10 -->
      <g transform="translate(28.334375 233.842368)scale(0.1 -0.1)">
       <use xlink:href="#DejaVuSans-48"/>
       <use x="63.623047" xlink:href="#DejaVuSans-46"/>
       <use x="95.410156" xlink:href="#DejaVuSans-49"/>
       <use x="159.033203" xlink:href="#DejaVuSans-48"/>
      </g>
     </g>
    </g>
    <g id="ytick_4">
     <g id="line2d_10">
      <g>
       <use style="stroke:#000000;stroke-width:0.8;" x="57.6" xlink:href="#m6913af090d" y="195.857552"/>
      </g>
     </g>
     <g id="text_12">
      <!-- 0.15 -->
      <g transform="translate(28.334375 199.656771)scale(0.1 -0.1)">
       <use xlink:href="#DejaVuSans-48"/>
       <use x="63.623047" xlink:href="#DejaVuSans-46"/>
       <use x="95.410156" xlink:href="#DejaVuSans-49"/>
       <use x="159.033203" xlink:href="#DejaVuSans-53"/>
      </g>
     </g>
    </g>
    <g id="ytick_5">
     <g id="line2d_11">
      <g>
       <use style="stroke:#000000;stroke-width:0.8;" x="57.6" xlink:href="#m6913af090d" y="161.671956"/>
      </g>
     </g>
     <g id="text_13">
      <!-- 0.20 -->
      <defs>
       <path d="M 19.1875 8.296875 
L 53.609375 8.296875 
L 53.609375 0 
L 7.328125 0 
L 7.328125 8.296875 
Q 12.9375 14.109375 22.625 23.890625 
Q 32.328125 33.6875 34.8125 36.53125 
Q 39.546875 41.84375 41.421875 45.53125 
Q 43.3125 49.21875 43.3125 52.78125 
Q 43.3125 58.59375 39.234375 62.25 
Q 35.15625 65.921875 28.609375 65.921875 
Q 23.96875 65.921875 18.8125 64.3125 
Q 13.671875 62.703125 7.8125 59.421875 
L 7.8125 69.390625 
Q 13.765625 71.78125 18.9375 73 
Q 24.125 74.21875 28.421875 74.21875 
Q 39.75 74.21875 46.484375 68.546875 
Q 53.21875 62.890625 53.21875 53.421875 
Q 53.21875 48.921875 51.53125 44.890625 
Q 49.859375 40.875 45.40625 35.40625 
Q 44.1875 33.984375 37.640625 27.21875 
Q 31.109375 20.453125 19.1875 8.296875 
z
" id="DejaVuSans-50"/>
      </defs>
      <g transform="translate(28.334375 165.471175)scale(0.1 -0.1)">
       <use xlink:href="#DejaVuSans-48"/>
       <use x="63.623047" xlink:href="#DejaVuSans-46"/>
       <use x="95.410156" xlink:href="#DejaVuSans-50"/>
       <use x="159.033203" xlink:href="#DejaVuSans-48"/>
      </g>
     </g>
    </g>
    <g id="ytick_6">
     <g id="line2d_12">
      <g>
       <use style="stroke:#000000;stroke-width:0.8;" x="57.6" xlink:href="#m6913af090d" y="127.48636"/>
      </g>
     </g>
     <g id="text_14">
      <!-- 0.25 -->
      <g transform="translate(28.334375 131.285578)scale(0.1 -0.1)">
       <use xlink:href="#DejaVuSans-48"/>
       <use x="63.623047" xlink:href="#DejaVuSans-46"/>
       <use x="95.410156" xlink:href="#DejaVuSans-50"/>
       <use x="159.033203" xlink:href="#DejaVuSans-53"/>
      </g>
     </g>
    </g>
    <g id="ytick_7">
     <g id="line2d_13">
      <g>
       <use style="stroke:#000000;stroke-width:0.8;" x="57.6" xlink:href="#m6913af090d" y="93.300763"/>
      </g>
     </g>
     <g id="text_15">
      <!-- 0.30 -->
      <defs>
       <path d="M 40.578125 39.3125 
Q 47.65625 37.796875 51.625 33 
Q 55.609375 28.21875 55.609375 21.1875 
Q 55.609375 10.40625 48.1875 4.484375 
Q 40.765625 -1.421875 27.09375 -1.421875 
Q 22.515625 -1.421875 17.65625 -0.515625 
Q 12.796875 0.390625 7.625 2.203125 
L 7.625 11.71875 
Q 11.71875 9.328125 16.59375 8.109375 
Q 21.484375 6.890625 26.8125 6.890625 
Q 36.078125 6.890625 40.9375 10.546875 
Q 45.796875 14.203125 45.796875 21.1875 
Q 45.796875 27.640625 41.28125 31.265625 
Q 36.765625 34.90625 28.71875 34.90625 
L 20.21875 34.90625 
L 20.21875 43.015625 
L 29.109375 43.015625 
Q 36.375 43.015625 40.234375 45.921875 
Q 44.09375 48.828125 44.09375 54.296875 
Q 44.09375 59.90625 40.109375 62.90625 
Q 36.140625 65.921875 28.71875 65.921875 
Q 24.65625 65.921875 20.015625 65.03125 
Q 15.375 64.15625 9.8125 62.3125 
L 9.8125 71.09375 
Q 15.4375 72.65625 20.34375 73.4375 
Q 25.25 74.21875 29.59375 74.21875 
Q 40.828125 74.21875 47.359375 69.109375 
Q 53.90625 64.015625 53.90625 55.328125 
Q 53.90625 49.265625 50.4375 45.09375 
Q 46.96875 40.921875 40.578125 39.3125 
z
" id="DejaVuSans-51"/>
      </defs>
      <g transform="translate(28.334375 97.099982)scale(0.1 -0.1)">
       <use xlink:href="#DejaVuSans-48"/>
       <use x="63.623047" xlink:href="#DejaVuSans-46"/>
       <use x="95.410156" xlink:href="#DejaVuSans-51"/>
       <use x="159.033203" xlink:href="#DejaVuSans-48"/>
      </g>
     </g>
    </g>
    <g id="ytick_8">
     <g id="line2d_14">
      <g>
       <use style="stroke:#000000;stroke-width:0.8;" x="57.6" xlink:href="#m6913af090d" y="59.115167"/>
      </g>
     </g>
     <g id="text_16">
      <!-- 0.35 -->
      <g transform="translate(28.334375 62.914386)scale(0.1 -0.1)">
       <use xlink:href="#DejaVuSans-48"/>
       <use x="63.623047" xlink:href="#DejaVuSans-46"/>
       <use x="95.410156" xlink:href="#DejaVuSans-51"/>
       <use x="159.033203" xlink:href="#DejaVuSans-53"/>
      </g>
     </g>
    </g>
    <g id="text_17">
     <!-- Voltage -->
     <defs>
      <path d="M 28.609375 0 
L 0.78125 72.90625 
L 11.078125 72.90625 
L 34.1875 11.53125 
L 57.328125 72.90625 
L 67.578125 72.90625 
L 39.796875 0 
z
" id="DejaVuSans-86"/>
      <path d="M 30.609375 48.390625 
Q 23.390625 48.390625 19.1875 42.75 
Q 14.984375 37.109375 14.984375 27.296875 
Q 14.984375 17.484375 19.15625 11.84375 
Q 23.34375 6.203125 30.609375 6.203125 
Q 37.796875 6.203125 41.984375 11.859375 
Q 46.1875 17.53125 46.1875 27.296875 
Q 46.1875 37.015625 41.984375 42.703125 
Q 37.796875 48.390625 30.609375 48.390625 
z
M 30.609375 56 
Q 42.328125 56 49.015625 48.375 
Q 55.71875 40.765625 55.71875 27.296875 
Q 55.71875 13.875 49.015625 6.21875 
Q 42.328125 -1.421875 30.609375 -1.421875 
Q 18.84375 -1.421875 12.171875 6.21875 
Q 5.515625 13.875 5.515625 27.296875 
Q 5.515625 40.765625 12.171875 48.375 
Q 18.84375 56 30.609375 56 
z
" id="DejaVuSans-111"/>
      <path d="M 9.421875 75.984375 
L 18.40625 75.984375 
L 18.40625 0 
L 9.421875 0 
z
" id="DejaVuSans-108"/>
      <path d="M 18.3125 70.21875 
L 18.3125 54.6875 
L 36.8125 54.6875 
L 36.8125 47.703125 
L 18.3125 47.703125 
L 18.3125 18.015625 
Q 18.3125 11.328125 20.140625 9.421875 
Q 21.96875 7.515625 27.59375 7.515625 
L 36.8125 7.515625 
L 36.8125 0 
L 27.59375 0 
Q 17.1875 0 13.234375 3.875 
Q 9.28125 7.765625 9.28125 18.015625 
L 9.28125 47.703125 
L 2.6875 47.703125 
L 2.6875 54.6875 
L 9.28125 54.6875 
L 9.28125 70.21875 
z
" id="DejaVuSans-116"/>
      <path d="M 34.28125 27.484375 
Q 23.390625 27.484375 19.1875 25 
Q 14.984375 22.515625 14.984375 16.5 
Q 14.984375 11.71875 18.140625 8.90625 
Q 21.296875 6.109375 26.703125 6.109375 
Q 34.1875 6.109375 38.703125 11.40625 
Q 43.21875 16.703125 43.21875 25.484375 
L 43.21875 27.484375 
z
M 52.203125 31.203125 
L 52.203125 0 
L 43.21875 0 
L 43.21875 8.296875 
Q 40.140625 3.328125 35.546875 0.953125 
Q 30.953125 -1.421875 24.3125 -1.421875 
Q 15.921875 -1.421875 10.953125 3.296875 
Q 6 8.015625 6 15.921875 
Q 6 25.140625 12.171875 29.828125 
Q 18.359375 34.515625 30.609375 34.515625 
L 43.21875 34.515625 
L 43.21875 35.40625 
Q 43.21875 41.609375 39.140625 45 
Q 35.0625 48.390625 27.6875 48.390625 
Q 23 48.390625 18.546875 47.265625 
Q 14.109375 46.140625 10.015625 43.890625 
L 10.015625 52.203125 
Q 14.9375 54.109375 19.578125 55.046875 
Q 24.21875 56 28.609375 56 
Q 40.484375 56 46.34375 49.84375 
Q 52.203125 43.703125 52.203125 31.203125 
z
" id="DejaVuSans-97"/>
      <path d="M 45.40625 27.984375 
Q 45.40625 37.75 41.375 43.109375 
Q 37.359375 48.484375 30.078125 48.484375 
Q 22.859375 48.484375 18.828125 43.109375 
Q 14.796875 37.75 14.796875 27.984375 
Q 14.796875 18.265625 18.828125 12.890625 
Q 22.859375 7.515625 30.078125 7.515625 
Q 37.359375 7.515625 41.375 12.890625 
Q 45.40625 18.265625 45.40625 27.984375 
z
M 54.390625 6.78125 
Q 54.390625 -7.171875 48.1875 -13.984375 
Q 42 -20.796875 29.203125 -20.796875 
Q 24.46875 -20.796875 20.265625 -20.09375 
Q 16.0625 -19.390625 12.109375 -17.921875 
L 12.109375 -9.1875 
Q 16.0625 -11.328125 19.921875 -12.34375 
Q 23.78125 -13.375 27.78125 -13.375 
Q 36.625 -13.375 41.015625 -8.765625 
Q 45.40625 -4.15625 45.40625 5.171875 
L 45.40625 9.625 
Q 42.625 4.78125 38.28125 2.390625 
Q 33.9375 0 27.875 0 
Q 17.828125 0 11.671875 7.65625 
Q 5.515625 15.328125 5.515625 27.984375 
Q 5.515625 40.671875 11.671875 48.328125 
Q 17.828125 56 27.875 56 
Q 33.9375 56 38.28125 53.609375 
Q 42.625 51.21875 45.40625 46.390625 
L 45.40625 54.6875 
L 54.390625 54.6875 
z
" id="DejaVuSans-103"/>
     </defs>
     <g transform="translate(22.254687 193.28425)rotate(-90)scale(0.1 -0.1)">
      <use xlink:href="#DejaVuSans-86"/>
      <use x="60.658203" xlink:href="#DejaVuSans-111"/>
      <use x="121.839844" xlink:href="#DejaVuSans-108"/>
      <use x="149.623047" xlink:href="#DejaVuSans-116"/>
      <use x="188.832031" xlink:href="#DejaVuSans-97"/>
      <use x="250.111328" xlink:href="#DejaVuSans-103"/>
      <use x="313.587891" xlink:href="#DejaVuSans-101"/>
     </g>
    </g>
   </g>
   <g id="line2d_15">
    <path clip-path="url(#p7e59b54ff2)" d="M 73.832727 181.645151 
L 75.191114 287.302413 
L 76.549502 286.64328 
L 77.907889 285.79692 
L 79.266276 284.673058 
L 81.983051 281.572856 
L 83.341438 279.417826 
L 86.058212 273.663173 
L 87.416599 269.776151 
L 90.133374 259.977445 
L 92.850148 248.140142 
L 94.208536 241.109662 
L 103.717246 186.643721 
L 106.434021 173.847891 
L 107.792408 167.876902 
L 109.150795 163.112551 
L 110.509182 158.885023 
L 111.867569 155.819009 
L 113.225957 153.196858 
L 114.584344 151.285675 
L 115.942731 150.187999 
L 118.659506 148.480582 
L 122.734667 146.136729 
L 125.451442 145.13466 
L 126.809829 144.637102 
L 128.168216 144.318753 
L 129.526603 144.159837 
L 134.960152 144.427719 
L 140.393701 145.611136 
L 141.752088 146.063544 
L 143.110475 146.690371 
L 145.82725 148.669403 
L 147.185637 150.03175 
L 148.544024 151.626724 
L 149.902412 152.823483 
L 153.977573 157.851172 
L 158.052735 163.611452 
L 160.769509 168.728068 
L 162.127897 172.027782 
L 170.27822 193.641355 
L 171.636607 196.803259 
L 172.994994 199.197055 
L 174.353382 201.341664 
L 175.711769 203.018091 
L 177.070156 204.087461 
L 178.428543 204.834468 
L 179.78693 205.234819 
L 181.145318 205.382778 
L 182.503705 205.196893 
L 183.862092 204.501692 
L 185.220479 203.310539 
L 187.937254 199.427534 
L 189.295641 196.926912 
L 193.370803 188.209582 
L 194.72919 184.913885 
L 196.087577 182.056178 
L 197.445964 178.925799 
L 200.162739 173.270216 
L 201.521126 170.652348 
L 204.2379 166.485709 
L 205.596288 164.694438 
L 206.954675 163.395919 
L 208.313062 162.314532 
L 209.671449 161.603578 
L 211.029836 161.229677 
L 212.388224 161.080651 
L 213.746611 161.236079 
L 215.104998 161.628677 
L 217.821773 162.909034 
L 219.18016 163.89856 
L 220.538547 165.116962 
L 221.896934 166.527371 
L 223.255321 168.235314 
L 225.972096 172.412906 
L 227.330483 174.878543 
L 232.764032 185.81553 
L 235.480806 191.87279 
L 239.555968 199.573896 
L 243.63113 206.220588 
L 246.347904 209.722215 
L 249.064679 212.537977 
L 253.13984 216.27249 
L 255.856615 218.794204 
L 258.573389 221.26652 
L 259.931776 222.236017 
L 264.006938 225.565899 
L 265.365325 226.532172 
L 266.723712 227.321114 
L 268.0821 227.841918 
L 269.440487 227.87957 
L 270.798874 227.222571 
L 272.157261 225.687689 
L 273.515649 223.115486 
L 274.874036 220.064151 
L 276.232423 215.83823 
L 278.949197 205.94417 
L 283.024359 187.263071 
L 284.382746 180.033358 
L 285.741134 173.866324 
L 288.457908 160.241761 
L 289.816295 154.332199 
L 292.53307 141.492034 
L 296.608231 125.033263 
L 299.325006 116.956123 
L 302.04178 111.631709 
L 303.400167 109.527695 
L 304.758555 108.094037 
L 306.116942 107.284799 
L 307.475329 107.2426 
L 308.833716 107.657627 
L 310.192103 108.424146 
L 312.908878 111.728929 
L 314.267265 113.415777 
L 318.342427 120.834581 
L 319.700814 123.653826 
L 323.775976 134.228922 
L 329.209525 150.430761 
L 330.567912 155.062646 
L 331.926299 158.6759 
L 333.284686 162.686024 
L 336.001461 170.043414 
L 337.359848 173.830272 
L 340.076622 180.279327 
L 341.43501 183.553664 
L 344.151784 189.460833 
L 345.510171 192.604571 
L 348.226946 198.345351 
L 349.585333 201.575627 
L 350.94372 204.340387 
L 355.018882 213.237192 
L 356.377269 215.923691 
L 360.452431 222.74772 
L 364.527592 227.910822 
L 367.244367 230.349479 
L 369.961141 232.255333 
L 372.677916 233.669225 
L 374.036303 234.345187 
L 376.753077 234.865718 
L 378.111464 235.096197 
L 379.469852 235.106894 
L 382.186626 234.860918 
L 386.261788 234.935689 
L 387.620175 235.078034 
L 388.978562 235.342983 
L 390.336949 235.850154 
L 391.695337 236.149018 
L 394.412111 237.34123 
L 395.770498 238.026019 
L 397.128886 238.968789 
L 398.487273 239.767614 
L 398.487273 239.767614 
" style="fill:none;stroke:#1f77b4;stroke-linecap:square;stroke-width:1.5;"/>
   </g>
   <g id="line2d_16">
    <path clip-path="url(#p7e59b54ff2)" d="M 73.832727 160.019824 
L 75.191114 170.432275 
L 76.549502 170.760515 
L 80.624663 171.13255 
L 81.983051 171.044142 
L 83.341438 170.780811 
L 84.699825 170.694 
L 86.058212 170.769328 
L 87.416599 170.540178 
L 88.774987 170.534298 
L 90.133374 170.312362 
L 91.491761 169.586452 
L 92.850148 168.509339 
L 94.208536 166.898616 
L 96.92531 160.810363 
L 98.283697 155.906866 
L 101.000472 143.124656 
L 105.075633 116.846626 
L 107.792408 98.133735 
L 109.150795 90.961713 
L 110.509182 82.682922 
L 113.225957 70.226005 
L 114.584344 65.031931 
L 115.942731 62.146998 
L 117.301118 59.984213 
L 118.659506 59.272198 
L 120.017893 58.975208 
L 121.37628 59.890739 
L 122.734667 61.131033 
L 124.093054 61.741574 
L 125.451442 62.09251 
L 126.809829 61.178042 
L 128.168216 59.677075 
L 130.88499 55.528335 
L 132.243378 54.104827 
L 133.601765 53.568 
L 134.960152 53.598449 
L 136.318539 54.075981 
L 137.676927 55.310399 
L 139.035314 56.889886 
L 141.752088 61.026347 
L 143.110475 63.213158 
L 145.82725 68.374107 
L 147.185637 71.825252 
L 148.544024 75.656179 
L 149.902412 78.971112 
L 151.260799 83.048277 
L 153.977573 92.529974 
L 155.33596 98.949923 
L 158.052735 113.415237 
L 160.769509 130.339777 
L 163.486284 151.305171 
L 164.844671 160.425235 
L 167.561445 181.752254 
L 168.919833 190.365148 
L 171.636607 209.313314 
L 175.711769 230.818458 
L 177.070156 235.925471 
L 178.428543 241.552738 
L 179.78693 245.834221 
L 182.503705 255.145793 
L 186.578866 264.849163 
L 190.654028 270.627055 
L 193.370803 272.941526 
L 194.72919 273.850924 
L 197.445964 274.905338 
L 198.804351 275.311282 
L 201.521126 276.644527 
L 202.879513 277.276953 
L 205.596288 278.808372 
L 208.313062 280.009931 
L 212.388224 281.720554 
L 213.746611 282.211172 
L 216.463385 283.420218 
L 217.821773 283.896143 
L 220.538547 285.104655 
L 223.255321 286.174025 
L 225.972096 287.163271 
L 228.68887 288.099631 
L 235.480806 289.920811 
L 240.914355 290.937042 
L 243.63113 291.299728 
L 247.706291 291.495762 
L 250.423066 291.695272 
L 254.498227 292.027772 
L 257.215002 292.020822 
L 261.290164 291.789806 
L 265.365325 291.54303 
L 268.0821 291.665083 
L 270.798874 291.924692 
L 277.59081 293.286769 
L 281.665972 293.226411 
L 285.741134 293.150553 
L 288.457908 293.405605 
L 293.891457 293.509505 
L 300.683393 293.347394 
L 312.908878 294.168915 
L 322.417588 293.933085 
L 329.209525 293.347394 
L 336.001461 292.570468 
L 346.868558 291.063098 
L 349.585333 290.563134 
L 352.302107 290.419985 
L 355.018882 290.59545 
L 368.602754 292.178937 
L 375.39469 292.307399 
L 376.753077 292.225139 
L 378.111464 292.274821 
L 379.469852 292.1947 
L 397.128886 289.723714 
L 398.487273 289.632373 
L 398.487273 289.632373 
" style="fill:none;stroke:#ff7f0e;stroke-linecap:square;stroke-width:1.5;"/>
   </g>
   <g id="line2d_17">
    <path clip-path="url(#p7e59b54ff2)" d="M 73.832727 182.19159 
L 75.191114 287.754572 
L 76.549502 287.326985 
L 77.907889 286.774143 
L 79.266276 286.067465 
L 81.983051 284.209683 
L 83.341438 282.980875 
L 86.058212 279.726303 
L 87.416599 277.524806 
L 90.133374 271.777086 
L 92.850148 264.322216 
L 94.208536 259.61689 
L 96.92531 248.711158 
L 98.283697 242.483222 
L 99.642084 235.523257 
L 102.358859 222.385039 
L 103.717246 215.131012 
L 107.792408 195.534916 
L 110.509182 184.589652 
L 113.225957 176.004254 
L 114.584344 172.267881 
L 121.37628 158.605929 
L 122.734667 155.513192 
L 124.093054 153.044886 
L 129.526603 142.04567 
L 130.88499 139.670041 
L 134.960152 131.415297 
L 136.318539 128.447026 
L 137.676927 125.105104 
L 139.035314 122.125887 
L 140.393701 118.116289 
L 141.752088 115.892092 
L 143.110475 113.220809 
L 144.468863 110.803245 
L 145.82725 108.910751 
L 147.185637 107.313641 
L 148.544024 106.249078 
L 149.902412 105.657786 
L 151.260799 106.012445 
L 152.619186 107.116014 
L 153.977573 109.133491 
L 155.33596 112.308481 
L 158.052735 120.708525 
L 160.769509 131.265998 
L 163.486284 143.86553 
L 166.203058 155.032457 
L 167.561445 161.859433 
L 168.919833 165.79292 
L 170.27822 170.522552 
L 171.636607 174.725237 
L 175.711769 184.089698 
L 178.428543 188.712753 
L 181.145318 192.463832 
L 182.503705 193.814956 
L 183.862092 194.641024 
L 185.220479 195.047774 
L 186.578866 194.895276 
L 187.937254 194.456473 
L 189.295641 193.761005 
L 192.012415 191.055806 
L 193.370803 189.274148 
L 197.445964 181.978467 
L 198.804351 179.323197 
L 200.162739 176.290035 
L 202.879513 169.459055 
L 208.313062 153.010981 
L 209.671449 148.873443 
L 212.388224 141.974369 
L 215.104998 136.664919 
L 216.463385 134.39477 
L 217.821773 132.912243 
L 219.18016 131.745123 
L 220.538547 131.117239 
L 221.896934 131.227539 
L 223.255321 131.696258 
L 224.613709 132.855105 
L 225.972096 134.304773 
L 227.330483 136.327336 
L 230.047258 141.480011 
L 234.122419 150.826306 
L 235.480806 154.361038 
L 238.197581 160.46076 
L 239.555968 163.702789 
L 243.63113 172.356558 
L 244.989517 174.661136 
L 246.347904 176.701062 
L 249.064679 179.912631 
L 251.781453 182.710781 
L 254.498227 185.939179 
L 257.215002 188.762171 
L 258.573389 189.966937 
L 261.290164 192.169774 
L 264.006938 194.745721 
L 266.723712 198.042487 
L 268.0821 199.913872 
L 272.157261 207.493478 
L 273.515649 210.634273 
L 274.874036 213.453788 
L 277.59081 219.850765 
L 280.307585 225.210953 
L 281.665972 227.32592 
L 283.024359 229.058173 
L 284.382746 230.048749 
L 285.741134 230.215147 
L 287.099521 229.573893 
L 288.457908 228.0967 
L 289.816295 226.146517 
L 291.174682 223.364931 
L 293.891457 216.478944 
L 303.400167 187.3066 
L 306.116942 180.488187 
L 307.475329 177.464632 
L 310.192103 172.933427 
L 311.550491 171.365969 
L 314.267265 168.849058 
L 315.625652 168.215554 
L 318.342427 167.911357 
L 319.700814 168.35416 
L 322.417588 170.678787 
L 323.775976 172.162924 
L 326.49275 176.382442 
L 327.851137 178.733498 
L 329.209525 181.404518 
L 330.567912 184.389885 
L 331.926299 186.972227 
L 334.643073 192.762416 
L 337.359848 198.718986 
L 338.718235 201.180622 
L 341.43501 206.655928 
L 344.151784 211.636875 
L 345.510171 214.323378 
L 348.226946 219.242904 
L 349.585333 222.0301 
L 350.94372 224.396916 
L 352.302107 227.02573 
L 356.377269 234.202039 
L 359.094043 238.019336 
L 360.452431 239.758798 
L 364.527592 243.796712 
L 368.602754 246.417243 
L 369.961141 247.126057 
L 374.036303 248.691925 
L 378.111464 249.235148 
L 380.828239 249.211379 
L 382.186626 249.112565 
L 386.261788 249.290699 
L 388.978562 249.649111 
L 395.770498 251.671942 
L 398.487273 252.901823 
L 398.487273 252.901823 
" style="fill:none;stroke:#2ca02c;stroke-linecap:square;stroke-width:1.5;"/>
   </g>
   <g id="line2d_18">
    <path clip-path="url(#p7e59b54ff2)" d="M 73.832727 189.025243 
L 75.191114 198.629789 
L 77.907889 199.159926 
L 80.624663 199.526894 
L 83.341438 199.605408 
L 84.699825 199.851117 
L 87.416599 200.613887 
L 88.774987 201.316828 
L 90.133374 201.789557 
L 91.491761 202.397681 
L 92.850148 202.629504 
L 94.208536 202.996732 
L 95.566923 202.62843 
L 96.92531 201.924692 
L 98.283697 200.405037 
L 99.642084 197.815741 
L 101.000472 194.762547 
L 102.358859 190.294913 
L 105.075633 180.526642 
L 107.792408 169.497514 
L 109.150795 165.309772 
L 110.509182 160.655991 
L 111.867569 157.210206 
L 113.225957 154.245125 
L 114.584344 152.167813 
L 115.942731 151.595208 
L 117.301118 152.331268 
L 120.017893 155.804306 
L 122.734667 161.806029 
L 125.451442 165.243548 
L 126.809829 165.320195 
L 128.168216 164.725154 
L 132.243378 160.517919 
L 133.601765 159.840343 
L 134.960152 159.51959 
L 136.318539 159.358808 
L 137.676927 159.388991 
L 139.035314 159.725244 
L 140.393701 160.195562 
L 141.752088 160.474113 
L 143.110475 161.018427 
L 144.468863 161.363486 
L 145.82725 162.246961 
L 147.185637 163.483249 
L 149.902412 166.526034 
L 151.260799 168.583303 
L 153.977573 174.407421 
L 155.33596 178.924729 
L 158.052735 189.683312 
L 160.769509 202.83808 
L 163.486284 219.014817 
L 164.844671 226.017521 
L 167.561445 242.196125 
L 168.919833 248.42431 
L 170.27822 255.451587 
L 171.636607 261.845363 
L 175.711769 275.78721 
L 178.428543 281.883733 
L 181.145318 286.342286 
L 182.503705 288.190978 
L 185.220479 290.351607 
L 186.578866 290.990451 
L 187.937254 291.270082 
L 189.295641 291.434063 
L 190.654028 291.385985 
L 192.012415 291.192905 
L 194.72919 290.356954 
L 197.445964 289.10998 
L 200.162739 287.766862 
L 204.2379 285.541055 
L 205.596288 284.739026 
L 206.954675 284.155201 
L 208.313062 283.439974 
L 209.671449 282.930933 
L 212.388224 282.327875 
L 215.104998 282.221315 
L 216.463385 282.241615 
L 219.18016 282.747452 
L 227.330483 285.099585 
L 236.839194 288.131687 
L 242.272742 289.720517 
L 244.989517 290.243444 
L 250.423066 290.872674 
L 255.856615 291.770313 
L 258.573389 291.905989 
L 261.290164 291.820785 
L 265.365325 291.617018 
L 268.0821 291.715288 
L 270.798874 291.952724 
L 274.874036 292.827397 
L 277.59081 293.44994 
L 280.307585 293.556251 
L 285.741134 293.738655 
L 288.457908 294.155565 
L 293.891457 294.650723 
L 304.758555 294.925001 
L 312.908878 295.47384 
L 319.700814 295.348581 
L 323.775976 295.067343 
L 331.926299 294.280021 
L 344.151784 292.62442 
L 345.510171 292.353341 
L 346.868558 292.210989 
L 349.585333 291.719301 
L 352.302107 291.54598 
L 355.018882 291.696335 
L 368.602754 293.069632 
L 378.111464 293.239234 
L 379.469852 293.175396 
L 383.545013 292.689051 
L 386.261788 292.334912 
L 395.770498 291.185955 
L 398.487273 290.984041 
L 398.487273 290.984041 
" style="fill:none;stroke:#d62728;stroke-linecap:square;stroke-width:1.5;"/>
   </g>
   <g id="patch_3">
    <path d="M 57.6 307.584 
L 57.6 41.472 
" style="fill:none;stroke:#000000;stroke-linecap:square;stroke-linejoin:miter;stroke-width:0.8;"/>
   </g>
   <g id="patch_4">
    <path d="M 414.72 307.584 
L 414.72 41.472 
" style="fill:none;stroke:#000000;stroke-linecap:square;stroke-linejoin:miter;stroke-width:0.8;"/>
   </g>
   <g id="patch_5">
    <path d="M 57.6 307.584 
L 414.72 307.584 
" style="fill:none;stroke:#000000;stroke-linecap:square;stroke-linejoin:miter;stroke-width:0.8;"/>
   </g>
   <g id="patch_6">
    <path d="M 57.6 41.472 
L 414.72 41.472 
" style="fill:none;stroke:#000000;stroke-linecap:square;stroke-linejoin:miter;stroke-width:0.8;"/>
   </g>
   <g id="text_18">
    <!-- Raw detector voltage -->
    <defs>
     <path d="M 44.390625 34.1875 
Q 47.5625 33.109375 50.5625 29.59375 
Q 53.5625 26.078125 56.59375 19.921875 
L 66.609375 0 
L 56 0 
L 46.6875 18.703125 
Q 43.0625 26.03125 39.671875 28.421875 
Q 36.28125 30.8125 30.421875 30.8125 
L 19.671875 30.8125 
L 19.671875 0 
L 9.8125 0 
L 9.8125 72.90625 
L 32.078125 72.90625 
Q 44.578125 72.90625 50.734375 67.671875 
Q 56.890625 62.453125 56.890625 51.90625 
Q 56.890625 45.015625 53.6875 40.46875 
Q 50.484375 35.9375 44.390625 34.1875 
z
M 19.671875 64.796875 
L 19.671875 38.921875 
L 32.078125 38.921875 
Q 39.203125 38.921875 42.84375 42.21875 
Q 46.484375 45.515625 46.484375 51.90625 
Q 46.484375 58.296875 42.84375 61.546875 
Q 39.203125 64.796875 32.078125 64.796875 
z
" id="DejaVuSans-82"/>
     <path d="M 4.203125 54.6875 
L 13.1875 54.6875 
L 24.421875 12.015625 
L 35.59375 54.6875 
L 46.1875 54.6875 
L 57.421875 12.015625 
L 68.609375 54.6875 
L 77.59375 54.6875 
L 63.28125 0 
L 52.6875 0 
L 40.921875 44.828125 
L 29.109375 0 
L 18.5 0 
z
" id="DejaVuSans-119"/>
     <path d="M 45.40625 46.390625 
L 45.40625 75.984375 
L 54.390625 75.984375 
L 54.390625 0 
L 45.40625 0 
L 45.40625 8.203125 
Q 42.578125 3.328125 38.25 0.953125 
Q 33.9375 -1.421875 27.875 -1.421875 
Q 17.96875 -1.421875 11.734375 6.484375 
Q 5.515625 14.40625 5.515625 27.296875 
Q 5.515625 40.1875 11.734375 48.09375 
Q 17.96875 56 27.875 56 
Q 33.9375 56 38.25 53.625 
Q 42.578125 51.265625 45.40625 46.390625 
z
M 14.796875 27.296875 
Q 14.796875 17.390625 18.875 11.75 
Q 22.953125 6.109375 30.078125 6.109375 
Q 37.203125 6.109375 41.296875 11.75 
Q 45.40625 17.390625 45.40625 27.296875 
Q 45.40625 37.203125 41.296875 42.84375 
Q 37.203125 48.484375 30.078125 48.484375 
Q 22.953125 48.484375 18.875 42.84375 
Q 14.796875 37.203125 14.796875 27.296875 
z
" id="DejaVuSans-100"/>
     <path d="M 2.984375 54.6875 
L 12.5 54.6875 
L 29.59375 8.796875 
L 46.6875 54.6875 
L 56.203125 54.6875 
L 35.6875 0 
L 23.484375 0 
z
" id="DejaVuSans-118"/>
    </defs>
    <g transform="translate(171.975 35.472)scale(0.12 -0.12)">
     <use xlink:href="#DejaVuSans-82"/>
     <use x="67.232422" xlink:href="#DejaVuSans-97"/>
     <use x="128.511719" xlink:href="#DejaVuSans-119"/>
     <use x="210.298828" xlink:href="#DejaVuSans-32"/>
     <use x="242.085938" xlink:href="#DejaVuSans-100"/>
     <use x="305.5625" xlink:href="#DejaVuSans-101"/>
     <use x="367.085938" xlink:href="#DejaVuSans-116"/>
     <use x="406.294922" xlink:href="#DejaVuSans-101"/>
     <use x="467.818359" xlink:href="#DejaVuSans-99"/>
     <use x="522.798828" xlink:href="#DejaVuSans-116"/>
     <use x="562.007812" xlink:href="#DejaVuSans-111"/>
     <use x="623.189453" xlink:href="#DejaVuSans-114"/>
     <use x="664.302734" xlink:href="#DejaVuSans-32"/>
     <use x="696.089844" xlink:href="#DejaVuSans-118"/>
     <use x="755.269531" xlink:href="#DejaVuSans-111"/>
     <use x="816.451172" xlink:href="#DejaVuSans-108"/>
     <use x="844.234375" xlink:href="#DejaVuSans-116"/>
     <use x="883.443359" xlink:href="#DejaVuSans-97"/>
     <use x="944.722656" xlink:href="#DejaVuSans-103"/>
     <use x="1008.199219" xlink:href="#DejaVuSans-101"/>
    </g>
   </g>
   <g id="legend_1">
    <g id="patch_7">
     <path d="M 199.22 108.272 
L 407.72 108.272 
Q 409.72 108.272 409.72 106.272 
L 409.72 48.472 
Q 409.72 46.472 407.72 46.472 
L 199.22 46.472 
Q 197.22 46.472 197.22 48.472 
L 197.22 106.272 
Q 197.22 108.272 199.22 108.272 
z
" style="fill:#ffffff;opacity:0.8;stroke:#cccccc;stroke-linejoin:miter;"/>
    </g>
    <g id="line2d_19">
     <path d="M 201.22 54.572 
L 221.22 54.572 
" style="fill:none;stroke:#1f77b4;stroke-linecap:square;stroke-width:1.5;"/>
    </g>
    <g id="line2d_20"/>
    <g id="text_19">
     <!-- SiC susceptor, 'Near' sensor,  $\propto$S$_{11}$ -->
     <defs>
      <path d="M 53.515625 70.515625 
L 53.515625 60.890625 
Q 47.90625 63.578125 42.921875 64.890625 
Q 37.9375 66.21875 33.296875 66.21875 
Q 25.25 66.21875 20.875 63.09375 
Q 16.5 59.96875 16.5 54.203125 
Q 16.5 49.359375 19.40625 46.890625 
Q 22.3125 44.4375 30.421875 42.921875 
L 36.375 41.703125 
Q 47.40625 39.59375 52.65625 34.296875 
Q 57.90625 29 57.90625 20.125 
Q 57.90625 9.515625 50.796875 4.046875 
Q 43.703125 -1.421875 29.984375 -1.421875 
Q 24.8125 -1.421875 18.96875 -0.25 
Q 13.140625 0.921875 6.890625 3.21875 
L 6.890625 13.375 
Q 12.890625 10.015625 18.65625 8.296875 
Q 24.421875 6.59375 29.984375 6.59375 
Q 38.421875 6.59375 43.015625 9.90625 
Q 47.609375 13.234375 47.609375 19.390625 
Q 47.609375 24.75 44.3125 27.78125 
Q 41.015625 30.8125 33.5 32.328125 
L 27.484375 33.5 
Q 16.453125 35.6875 11.515625 40.375 
Q 6.59375 45.0625 6.59375 53.421875 
Q 6.59375 63.09375 13.40625 68.65625 
Q 20.21875 74.21875 32.171875 74.21875 
Q 37.3125 74.21875 42.625 73.28125 
Q 47.953125 72.359375 53.515625 70.515625 
z
" id="DejaVuSans-83"/>
      <path d="M 9.421875 54.6875 
L 18.40625 54.6875 
L 18.40625 0 
L 9.421875 0 
z
M 9.421875 75.984375 
L 18.40625 75.984375 
L 18.40625 64.59375 
L 9.421875 64.59375 
z
" id="DejaVuSans-105"/>
      <path d="M 64.40625 67.28125 
L 64.40625 56.890625 
Q 59.421875 61.53125 53.78125 63.8125 
Q 48.140625 66.109375 41.796875 66.109375 
Q 29.296875 66.109375 22.65625 58.46875 
Q 16.015625 50.828125 16.015625 36.375 
Q 16.015625 21.96875 22.65625 14.328125 
Q 29.296875 6.6875 41.796875 6.6875 
Q 48.140625 6.6875 53.78125 8.984375 
Q 59.421875 11.28125 64.40625 15.921875 
L 64.40625 5.609375 
Q 59.234375 2.09375 53.4375 0.328125 
Q 47.65625 -1.421875 41.21875 -1.421875 
Q 24.65625 -1.421875 15.125 8.703125 
Q 5.609375 18.84375 5.609375 36.375 
Q 5.609375 53.953125 15.125 64.078125 
Q 24.65625 74.21875 41.21875 74.21875 
Q 47.75 74.21875 53.53125 72.484375 
Q 59.328125 70.75 64.40625 67.28125 
z
" id="DejaVuSans-67"/>
      <path d="M 44.28125 53.078125 
L 44.28125 44.578125 
Q 40.484375 46.53125 36.375 47.5 
Q 32.28125 48.484375 27.875 48.484375 
Q 21.1875 48.484375 17.84375 46.4375 
Q 14.5 44.390625 14.5 40.28125 
Q 14.5 37.15625 16.890625 35.375 
Q 19.28125 33.59375 26.515625 31.984375 
L 29.59375 31.296875 
Q 39.15625 29.25 43.1875 25.515625 
Q 47.21875 21.78125 47.21875 15.09375 
Q 47.21875 7.46875 41.1875 3.015625 
Q 35.15625 -1.421875 24.609375 -1.421875 
Q 20.21875 -1.421875 15.453125 -0.5625 
Q 10.6875 0.296875 5.421875 2 
L 5.421875 11.28125 
Q 10.40625 8.6875 15.234375 7.390625 
Q 20.0625 6.109375 24.8125 6.109375 
Q 31.15625 6.109375 34.5625 8.28125 
Q 37.984375 10.453125 37.984375 14.40625 
Q 37.984375 18.0625 35.515625 20.015625 
Q 33.0625 21.96875 24.703125 23.78125 
L 21.578125 24.515625 
Q 13.234375 26.265625 9.515625 29.90625 
Q 5.8125 33.546875 5.8125 39.890625 
Q 5.8125 47.609375 11.28125 51.796875 
Q 16.75 56 26.8125 56 
Q 31.78125 56 36.171875 55.265625 
Q 40.578125 54.546875 44.28125 53.078125 
z
" id="DejaVuSans-115"/>
      <path d="M 18.109375 8.203125 
L 18.109375 -20.796875 
L 9.078125 -20.796875 
L 9.078125 54.6875 
L 18.109375 54.6875 
L 18.109375 46.390625 
Q 20.953125 51.265625 25.265625 53.625 
Q 29.59375 56 35.59375 56 
Q 45.5625 56 51.78125 48.09375 
Q 58.015625 40.1875 58.015625 27.296875 
Q 58.015625 14.40625 51.78125 6.484375 
Q 45.5625 -1.421875 35.59375 -1.421875 
Q 29.59375 -1.421875 25.265625 0.953125 
Q 20.953125 3.328125 18.109375 8.203125 
z
M 48.6875 27.296875 
Q 48.6875 37.203125 44.609375 42.84375 
Q 40.53125 48.484375 33.40625 48.484375 
Q 26.265625 48.484375 22.1875 42.84375 
Q 18.109375 37.203125 18.109375 27.296875 
Q 18.109375 17.390625 22.1875 11.75 
Q 26.265625 6.109375 33.40625 6.109375 
Q 40.53125 6.109375 44.609375 11.75 
Q 48.6875 17.390625 48.6875 27.296875 
z
" id="DejaVuSans-112"/>
      <path d="M 11.71875 12.40625 
L 22.015625 12.40625 
L 22.015625 4 
L 14.015625 -11.625 
L 7.71875 -11.625 
L 11.71875 4 
z
" id="DejaVuSans-44"/>
      <path d="M 17.921875 72.90625 
L 17.921875 45.796875 
L 9.625 45.796875 
L 9.625 72.90625 
z
" id="DejaVuSans-39"/>
      <path d="M 9.8125 72.90625 
L 23.09375 72.90625 
L 55.421875 11.921875 
L 55.421875 72.90625 
L 64.984375 72.90625 
L 64.984375 0 
L 51.703125 0 
L 19.390625 60.984375 
L 19.390625 0 
L 9.8125 0 
z
" id="DejaVuSans-78"/>
      <path d="M 25.734375 17.71875 
Q 33.796875 17.71875 38.625 29.4375 
Q 32.421875 42.234375 25.734375 42.234375 
Q 20.84375 42.234375 18.359375 38.71875 
Q 15.71875 34.96875 15.71875 29.984375 
Q 15.71875 24.515625 18.359375 21.140625 
Q 21.09375 17.71875 25.734375 17.71875 
z
M 60.6875 17.625 
L 60.6875 11.1875 
L 56.9375 11.1875 
Q 53.375 11.1875 50.734375 12.640625 
Q 48.09375 13.96875 45.5625 17.046875 
Q 44.046875 18.796875 41.65625 22.90625 
Q 38.375 17.046875 35.5 14.453125 
Q 31.9375 11.328125 26.265625 11.328125 
Q 19.671875 11.328125 15.328125 16.265625 
Q 10.75 21.4375 10.75 29.984375 
Q 10.75 38.1875 15.328125 43.75 
Q 19.390625 48.6875 26.375 48.6875 
Q 29.9375 48.6875 32.5625 47.21875 
Q 35.640625 45.609375 37.75 42.828125 
Q 39.703125 40.328125 41.65625 36.96875 
Q 44.921875 42.828125 47.796875 45.40625 
Q 51.375 48.53125 57.03125 48.53125 
L 60.6875 48.53125 
L 60.6875 42.140625 
L 57.5625 42.140625 
Q 50.34375 42.140625 44.671875 30.421875 
Q 50.875 17.625 57.5625 17.625 
z
" id="DejaVuSans-8733"/>
     </defs>
     <g transform="translate(229.22 58.072)scale(0.1 -0.1)">
      <use transform="translate(0 0.015625)" xlink:href="#DejaVuSans-83"/>
      <use transform="translate(63.476562 0.015625)" xlink:href="#DejaVuSans-105"/>
      <use transform="translate(91.259766 0.015625)" xlink:href="#DejaVuSans-67"/>
      <use transform="translate(161.083984 0.015625)" xlink:href="#DejaVuSans-32"/>
      <use transform="translate(192.871094 0.015625)" xlink:href="#DejaVuSans-115"/>
      <use transform="translate(244.970703 0.015625)" xlink:href="#DejaVuSans-117"/>
      <use transform="translate(308.349609 0.015625)" xlink:href="#DejaVuSans-115"/>
      <use transform="translate(360.449219 0.015625)" xlink:href="#DejaVuSans-99"/>
      <use transform="translate(415.429688 0.015625)" xlink:href="#DejaVuSans-101"/>
      <use transform="translate(476.953125 0.015625)" xlink:href="#DejaVuSans-112"/>
      <use transform="translate(540.429688 0.015625)" xlink:href="#DejaVuSans-116"/>
      <use transform="translate(579.638672 0.015625)" xlink:href="#DejaVuSans-111"/>
      <use transform="translate(640.820312 0.015625)" xlink:href="#DejaVuSans-114"/>
      <use transform="translate(681.933594 0.015625)" xlink:href="#DejaVuSans-44"/>
      <use transform="translate(713.720703 0.015625)" xlink:href="#DejaVuSans-32"/>
      <use transform="translate(745.507812 0.015625)" xlink:href="#DejaVuSans-39"/>
      <use transform="translate(772.998047 0.015625)" xlink:href="#DejaVuSans-78"/>
      <use transform="translate(847.802734 0.015625)" xlink:href="#DejaVuSans-101"/>
      <use transform="translate(909.326172 0.015625)" xlink:href="#DejaVuSans-97"/>
      <use transform="translate(970.605469 0.015625)" xlink:href="#DejaVuSans-114"/>
      <use transform="translate(1011.71875 0.015625)" xlink:href="#DejaVuSans-39"/>
      <use transform="translate(1039.208984 0.015625)" xlink:href="#DejaVuSans-32"/>
      <use transform="translate(1070.996094 0.015625)" xlink:href="#DejaVuSans-115"/>
      <use transform="translate(1123.095703 0.015625)" xlink:href="#DejaVuSans-101"/>
      <use transform="translate(1184.619141 0.015625)" xlink:href="#DejaVuSans-110"/>
      <use transform="translate(1247.998047 0.015625)" xlink:href="#DejaVuSans-115"/>
      <use transform="translate(1300.097656 0.015625)" xlink:href="#DejaVuSans-111"/>
      <use transform="translate(1361.279297 0.015625)" xlink:href="#DejaVuSans-114"/>
      <use transform="translate(1402.392578 0.015625)" xlink:href="#DejaVuSans-44"/>
      <use transform="translate(1434.179688 0.015625)" xlink:href="#DejaVuSans-32"/>
      <use transform="translate(1465.966797 0.015625)" xlink:href="#DejaVuSans-32"/>
      <use transform="translate(1517.236328 0.015625)" xlink:href="#DejaVuSans-8733"/>
      <use transform="translate(1608.154297 0.015625)" xlink:href="#DejaVuSans-83"/>
      <use transform="translate(1672.587891 -16.390625)scale(0.7)" xlink:href="#DejaVuSans-49"/>
      <use transform="translate(1717.124023 -16.390625)scale(0.7)" xlink:href="#DejaVuSans-49"/>
     </g>
    </g>
    <g id="line2d_21">
     <path d="M 201.22 69.272 
L 221.22 69.272 
" style="fill:none;stroke:#ff7f0e;stroke-linecap:square;stroke-width:1.5;"/>
    </g>
    <g id="line2d_22"/>
    <g id="text_20">
     <!-- SiC susceptor, 'Far' sensor,  $\propto$S$_{21}$ -->
     <g transform="translate(229.22 72.772)scale(0.1 -0.1)">
      <use transform="translate(0 0.015625)" xlink:href="#DejaVuSans-83"/>
      <use transform="translate(63.476562 0.015625)" xlink:href="#DejaVuSans-105"/>
      <use transform="translate(91.259766 0.015625)" xlink:href="#DejaVuSans-67"/>
      <use transform="translate(161.083984 0.015625)" xlink:href="#DejaVuSans-32"/>
      <use transform="translate(192.871094 0.015625)" xlink:href="#DejaVuSans-115"/>
      <use transform="translate(244.970703 0.015625)" xlink:href="#DejaVuSans-117"/>
      <use transform="translate(308.349609 0.015625)" xlink:href="#DejaVuSans-115"/>
      <use transform="translate(360.449219 0.015625)" xlink:href="#DejaVuSans-99"/>
      <use transform="translate(415.429688 0.015625)" xlink:href="#DejaVuSans-101"/>
      <use transform="translate(476.953125 0.015625)" xlink:href="#DejaVuSans-112"/>
      <use transform="translate(540.429688 0.015625)" xlink:href="#DejaVuSans-116"/>
      <use transform="translate(579.638672 0.015625)" xlink:href="#DejaVuSans-111"/>
      <use transform="translate(640.820312 0.015625)" xlink:href="#DejaVuSans-114"/>
      <use transform="translate(681.933594 0.015625)" xlink:href="#DejaVuSans-44"/>
      <use transform="translate(713.720703 0.015625)" xlink:href="#DejaVuSans-32"/>
      <use transform="translate(745.507812 0.015625)" xlink:href="#DejaVuSans-39"/>
      <use transform="translate(772.998047 0.015625)" xlink:href="#DejaVuSans-70"/>
      <use transform="translate(830.517578 0.015625)" xlink:href="#DejaVuSans-97"/>
      <use transform="translate(891.796875 0.015625)" xlink:href="#DejaVuSans-114"/>
      <use transform="translate(932.910156 0.015625)" xlink:href="#DejaVuSans-39"/>
      <use transform="translate(960.400391 0.015625)" xlink:href="#DejaVuSans-32"/>
      <use transform="translate(992.1875 0.015625)" xlink:href="#DejaVuSans-115"/>
      <use transform="translate(1044.287109 0.015625)" xlink:href="#DejaVuSans-101"/>
      <use transform="translate(1105.810547 0.015625)" xlink:href="#DejaVuSans-110"/>
      <use transform="translate(1169.189453 0.015625)" xlink:href="#DejaVuSans-115"/>
      <use transform="translate(1221.289062 0.015625)" xlink:href="#DejaVuSans-111"/>
      <use transform="translate(1282.470703 0.015625)" xlink:href="#DejaVuSans-114"/>
      <use transform="translate(1323.583984 0.015625)" xlink:href="#DejaVuSans-44"/>
      <use transform="translate(1355.371094 0.015625)" xlink:href="#DejaVuSans-32"/>
      <use transform="translate(1387.158203 0.015625)" xlink:href="#DejaVuSans-32"/>
      <use transform="translate(1438.427734 0.015625)" xlink:href="#DejaVuSans-8733"/>
      <use transform="translate(1529.345703 0.015625)" xlink:href="#DejaVuSans-83"/>
      <use transform="translate(1593.779297 -16.390625)scale(0.7)" xlink:href="#DejaVuSans-50"/>
      <use transform="translate(1638.31543 -16.390625)scale(0.7)" xlink:href="#DejaVuSans-49"/>
     </g>
    </g>
    <g id="line2d_23">
     <path d="M 201.22 83.972 
L 221.22 83.972 
" style="fill:none;stroke:#2ca02c;stroke-linecap:square;stroke-width:1.5;"/>
    </g>
    <g id="line2d_24"/>
    <g id="text_21">
     <!-- Background, 'Near' sensor,  $\propto$S$_{11}$ -->
     <defs>
      <path d="M 19.671875 34.8125 
L 19.671875 8.109375 
L 35.5 8.109375 
Q 43.453125 8.109375 47.28125 11.40625 
Q 51.125 14.703125 51.125 21.484375 
Q 51.125 28.328125 47.28125 31.5625 
Q 43.453125 34.8125 35.5 34.8125 
z
M 19.671875 64.796875 
L 19.671875 42.828125 
L 34.28125 42.828125 
Q 41.5 42.828125 45.03125 45.53125 
Q 48.578125 48.25 48.578125 53.8125 
Q 48.578125 59.328125 45.03125 62.0625 
Q 41.5 64.796875 34.28125 64.796875 
z
M 9.8125 72.90625 
L 35.015625 72.90625 
Q 46.296875 72.90625 52.390625 68.21875 
Q 58.5 63.53125 58.5 54.890625 
Q 58.5 48.1875 55.375 44.234375 
Q 52.25 40.28125 46.1875 39.3125 
Q 53.46875 37.75 57.5 32.78125 
Q 61.53125 27.828125 61.53125 20.40625 
Q 61.53125 10.640625 54.890625 5.3125 
Q 48.25 0 35.984375 0 
L 9.8125 0 
z
" id="DejaVuSans-66"/>
      <path d="M 9.078125 75.984375 
L 18.109375 75.984375 
L 18.109375 31.109375 
L 44.921875 54.6875 
L 56.390625 54.6875 
L 27.390625 29.109375 
L 57.625 0 
L 45.90625 0 
L 18.109375 26.703125 
L 18.109375 0 
L 9.078125 0 
z
" id="DejaVuSans-107"/>
     </defs>
     <g transform="translate(229.22 87.472)scale(0.1 -0.1)">
      <use transform="translate(0 0.015625)" xlink:href="#DejaVuSans-66"/>
      <use transform="translate(68.603516 0.015625)" xlink:href="#DejaVuSans-97"/>
      <use transform="translate(129.882812 0.015625)" xlink:href="#DejaVuSans-99"/>
      <use transform="translate(184.863281 0.015625)" xlink:href="#DejaVuSans-107"/>
      <use transform="translate(242.773438 0.015625)" xlink:href="#DejaVuSans-103"/>
      <use transform="translate(306.25 0.015625)" xlink:href="#DejaVuSans-114"/>
      <use transform="translate(347.363281 0.015625)" xlink:href="#DejaVuSans-111"/>
      <use transform="translate(408.544922 0.015625)" xlink:href="#DejaVuSans-117"/>
      <use transform="translate(471.923828 0.015625)" xlink:href="#DejaVuSans-110"/>
      <use transform="translate(535.302734 0.015625)" xlink:href="#DejaVuSans-100"/>
      <use transform="translate(598.779297 0.015625)" xlink:href="#DejaVuSans-44"/>
      <use transform="translate(630.566406 0.015625)" xlink:href="#DejaVuSans-32"/>
      <use transform="translate(662.353516 0.015625)" xlink:href="#DejaVuSans-39"/>
      <use transform="translate(689.84375 0.015625)" xlink:href="#DejaVuSans-78"/>
      <use transform="translate(764.648438 0.015625)" xlink:href="#DejaVuSans-101"/>
      <use transform="translate(826.171875 0.015625)" xlink:href="#DejaVuSans-97"/>
      <use transform="translate(887.451172 0.015625)" xlink:href="#DejaVuSans-114"/>
      <use transform="translate(928.564453 0.015625)" xlink:href="#DejaVuSans-39"/>
      <use transform="translate(956.054688 0.015625)" xlink:href="#DejaVuSans-32"/>
      <use transform="translate(987.841797 0.015625)" xlink:href="#DejaVuSans-115"/>
      <use transform="translate(1039.941406 0.015625)" xlink:href="#DejaVuSans-101"/>
      <use transform="translate(1101.464844 0.015625)" xlink:href="#DejaVuSans-110"/>
      <use transform="translate(1164.84375 0.015625)" xlink:href="#DejaVuSans-115"/>
      <use transform="translate(1216.943359 0.015625)" xlink:href="#DejaVuSans-111"/>
      <use transform="translate(1278.125 0.015625)" xlink:href="#DejaVuSans-114"/>
      <use transform="translate(1319.238281 0.015625)" xlink:href="#DejaVuSans-44"/>
      <use transform="translate(1351.025391 0.015625)" xlink:href="#DejaVuSans-32"/>
      <use transform="translate(1382.8125 0.015625)" xlink:href="#DejaVuSans-32"/>
      <use transform="translate(1434.082031 0.015625)" xlink:href="#DejaVuSans-8733"/>
      <use transform="translate(1525 0.015625)" xlink:href="#DejaVuSans-83"/>
      <use transform="translate(1589.433594 -16.390625)scale(0.7)" xlink:href="#DejaVuSans-49"/>
      <use transform="translate(1633.969727 -16.390625)scale(0.7)" xlink:href="#DejaVuSans-49"/>
     </g>
    </g>
    <g id="line2d_25">
     <path d="M 201.22 98.672 
L 221.22 98.672 
" style="fill:none;stroke:#d62728;stroke-linecap:square;stroke-width:1.5;"/>
    </g>
    <g id="line2d_26"/>
    <g id="text_22">
     <!-- Background, 'Far' sensor,  $\propto$S$_{21}$ -->
     <g transform="translate(229.22 102.172)scale(0.1 -0.1)">
      <use transform="translate(0 0.015625)" xlink:href="#DejaVuSans-66"/>
      <use transform="translate(68.603516 0.015625)" xlink:href="#DejaVuSans-97"/>
      <use transform="translate(129.882812 0.015625)" xlink:href="#DejaVuSans-99"/>
      <use transform="translate(184.863281 0.015625)" xlink:href="#DejaVuSans-107"/>
      <use transform="translate(242.773438 0.015625)" xlink:href="#DejaVuSans-103"/>
      <use transform="translate(306.25 0.015625)" xlink:href="#DejaVuSans-114"/>
      <use transform="translate(347.363281 0.015625)" xlink:href="#DejaVuSans-111"/>
      <use transform="translate(408.544922 0.015625)" xlink:href="#DejaVuSans-117"/>
      <use transform="translate(471.923828 0.015625)" xlink:href="#DejaVuSans-110"/>
      <use transform="translate(535.302734 0.015625)" xlink:href="#DejaVuSans-100"/>
      <use transform="translate(598.779297 0.015625)" xlink:href="#DejaVuSans-44"/>
      <use transform="translate(630.566406 0.015625)" xlink:href="#DejaVuSans-32"/>
      <use transform="translate(662.353516 0.015625)" xlink:href="#DejaVuSans-39"/>
      <use transform="translate(689.84375 0.015625)" xlink:href="#DejaVuSans-70"/>
      <use transform="translate(747.363281 0.015625)" xlink:href="#DejaVuSans-97"/>
      <use transform="translate(808.642578 0.015625)" xlink:href="#DejaVuSans-114"/>
      <use transform="translate(849.755859 0.015625)" xlink:href="#DejaVuSans-39"/>
      <use transform="translate(877.246094 0.015625)" xlink:href="#DejaVuSans-32"/>
      <use transform="translate(909.033203 0.015625)" xlink:href="#DejaVuSans-115"/>
      <use transform="translate(961.132812 0.015625)" xlink:href="#DejaVuSans-101"/>
      <use transform="translate(1022.65625 0.015625)" xlink:href="#DejaVuSans-110"/>
      <use transform="translate(1086.035156 0.015625)" xlink:href="#DejaVuSans-115"/>
      <use transform="translate(1138.134766 0.015625)" xlink:href="#DejaVuSans-111"/>
      <use transform="translate(1199.316406 0.015625)" xlink:href="#DejaVuSans-114"/>
      <use transform="translate(1240.429688 0.015625)" xlink:href="#DejaVuSans-44"/>
      <use transform="translate(1272.216797 0.015625)" xlink:href="#DejaVuSans-32"/>
      <use transform="translate(1304.003906 0.015625)" xlink:href="#DejaVuSans-32"/>
      <use transform="translate(1355.273438 0.015625)" xlink:href="#DejaVuSans-8733"/>
      <use transform="translate(1446.191406 0.015625)" xlink:href="#DejaVuSans-83"/>
      <use transform="translate(1510.625 -16.390625)scale(0.7)" xlink:href="#DejaVuSans-50"/>
      <use transform="translate(1555.161133 -16.390625)scale(0.7)" xlink:href="#DejaVuSans-49"/>
     </g>
    </g>
   </g>
  </g>
 </g>
 <defs>
  <clipPath id="p7e59b54ff2">
   <rect height="266.112" width="357.12" x="57.6" y="41.472"/>
  </clipPath>
 </defs>
</svg>
