<?xml version="1.0" encoding="utf-8" standalone="no"?>
<!DOCTYPE svg PUBLIC "-//W3C//DTD SVG 1.1//EN"
  "http://www.w3.org/Graphics/SVG/1.1/DTD/svg11.dtd">
<!-- Created with matplotlib (https://matplotlib.org/) -->
<svg height="345.6pt" version="1.1" viewBox="0 0 460.8 345.6" width="460.8pt" xmlns="http://www.w3.org/2000/svg" xmlns:xlink="http://www.w3.org/1999/xlink">
 <defs>
  <style type="text/css">
*{stroke-linecap:butt;stroke-linejoin:round;}
  </style>
 </defs>
 <g id="figure_1">
  <g id="patch_1">
   <path d="M 0 345.6 
L 460.8 345.6 
L 460.8 0 
L 0 0 
z
" style="fill:#ffffff;"/>
  </g>
  <g id="axes_1">
   <g id="patch_2">
    <path d="M 57.6 307.584 
L 414.72 307.584 
L 414.72 41.472 
L 57.6 41.472 
z
" style="fill:#ffffff;"/>
   </g>
   <g id="matplotlib.axis_1">
    <g id="xtick_1">
     <g id="line2d_1">
      <defs>
       <path d="M 0 0 
L 0 3.5 
" id="m15c22f9dcf" style="stroke:#000000;stroke-width:0.8;"/>
      </defs>
      <g>
       <use style="stroke:#000000;stroke-width:0.8;" x="80.973186" xlink:href="#m15c22f9dcf" y="307.584"/>
      </g>
     </g>
     <g id="text_1">
      <!-- 0.6 -->
      <defs>
       <path d="M 31.78125 66.40625 
Q 24.171875 66.40625 20.328125 58.90625 
Q 16.5 51.421875 16.5 36.375 
Q 16.5 21.390625 20.328125 13.890625 
Q 24.171875 6.390625 31.78125 6.390625 
Q 39.453125 6.390625 43.28125 13.890625 
Q 47.125 21.390625 47.125 36.375 
Q 47.125 51.421875 43.28125 58.90625 
Q 39.453125 66.40625 31.78125 66.40625 
z
M 31.78125 74.21875 
Q 44.046875 74.21875 50.515625 64.515625 
Q 56.984375 54.828125 56.984375 36.375 
Q 56.984375 17.96875 50.515625 8.265625 
Q 44.046875 -1.421875 31.78125 -1.421875 
Q 19.53125 -1.421875 13.0625 8.265625 
Q 6.59375 17.96875 6.59375 36.375 
Q 6.59375 54.828125 13.0625 64.515625 
Q 19.53125 74.21875 31.78125 74.21875 
z
" id="DejaVuSans-48"/>
       <path d="M 10.6875 12.40625 
L 21 12.40625 
L 21 0 
L 10.6875 0 
z
" id="DejaVuSans-46"/>
       <path d="M 33.015625 40.375 
Q 26.375 40.375 22.484375 35.828125 
Q 18.609375 31.296875 18.609375 23.390625 
Q 18.609375 15.53125 22.484375 10.953125 
Q 26.375 6.390625 33.015625 6.390625 
Q 39.65625 6.390625 43.53125 10.953125 
Q 47.40625 15.53125 47.40625 23.390625 
Q 47.40625 31.296875 43.53125 35.828125 
Q 39.65625 40.375 33.015625 40.375 
z
M 52.59375 71.296875 
L 52.59375 62.3125 
Q 48.875 64.0625 45.09375 64.984375 
Q 41.3125 65.921875 37.59375 65.921875 
Q 27.828125 65.921875 22.671875 59.328125 
Q 17.53125 52.734375 16.796875 39.40625 
Q 19.671875 43.65625 24.015625 45.921875 
Q 28.375 48.1875 33.59375 48.1875 
Q 44.578125 48.1875 50.953125 41.515625 
Q 57.328125 34.859375 57.328125 23.390625 
Q 57.328125 12.15625 50.6875 5.359375 
Q 44.046875 -1.421875 33.015625 -1.421875 
Q 20.359375 -1.421875 13.671875 8.265625 
Q 6.984375 17.96875 6.984375 36.375 
Q 6.984375 53.65625 15.1875 63.9375 
Q 23.390625 74.21875 37.203125 74.21875 
Q 40.921875 74.21875 44.703125 73.484375 
Q 48.484375 72.75 52.59375 71.296875 
z
" id="DejaVuSans-54"/>
      </defs>
      <g transform="translate(73.021623 322.182437)scale(0.1 -0.1)">
       <use xlink:href="#DejaVuSans-48"/>
       <use x="63.623047" xlink:href="#DejaVuSans-46"/>
       <use x="95.410156" xlink:href="#DejaVuSans-54"/>
      </g>
     </g>
    </g>
    <g id="xtick_2">
     <g id="line2d_2">
      <g>
       <use style="stroke:#000000;stroke-width:0.8;" x="137.643491" xlink:href="#m15c22f9dcf" y="307.584"/>
      </g>
     </g>
     <g id="text_2">
      <!-- 0.7 -->
      <defs>
       <path d="M 8.203125 72.90625 
L 55.078125 72.90625 
L 55.078125 68.703125 
L 28.609375 0 
L 18.3125 0 
L 43.21875 64.59375 
L 8.203125 64.59375 
z
" id="DejaVuSans-55"/>
      </defs>
      <g transform="translate(129.691929 322.182437)scale(0.1 -0.1)">
       <use xlink:href="#DejaVuSans-48"/>
       <use x="63.623047" xlink:href="#DejaVuSans-46"/>
       <use x="95.410156" xlink:href="#DejaVuSans-55"/>
      </g>
     </g>
    </g>
    <g id="xtick_3">
     <g id="line2d_3">
      <g>
       <use style="stroke:#000000;stroke-width:0.8;" x="194.313796" xlink:href="#m15c22f9dcf" y="307.584"/>
      </g>
     </g>
     <g id="text_3">
      <!-- 0.8 -->
      <defs>
       <path d="M 31.78125 34.625 
Q 24.75 34.625 20.71875 30.859375 
Q 16.703125 27.09375 16.703125 20.515625 
Q 16.703125 13.921875 20.71875 10.15625 
Q 24.75 6.390625 31.78125 6.390625 
Q 38.8125 6.390625 42.859375 10.171875 
Q 46.921875 13.96875 46.921875 20.515625 
Q 46.921875 27.09375 42.890625 30.859375 
Q 38.875 34.625 31.78125 34.625 
z
M 21.921875 38.8125 
Q 15.578125 40.375 12.03125 44.71875 
Q 8.5 49.078125 8.5 55.328125 
Q 8.5 64.0625 14.71875 69.140625 
Q 20.953125 74.21875 31.78125 74.21875 
Q 42.671875 74.21875 48.875 69.140625 
Q 55.078125 64.0625 55.078125 55.328125 
Q 55.078125 49.078125 51.53125 44.71875 
Q 48 40.375 41.703125 38.8125 
Q 48.828125 37.15625 52.796875 32.3125 
Q 56.78125 27.484375 56.78125 20.515625 
Q 56.78125 9.90625 50.3125 4.234375 
Q 43.84375 -1.421875 31.78125 -1.421875 
Q 19.734375 -1.421875 13.25 4.234375 
Q 6.78125 9.90625 6.78125 20.515625 
Q 6.78125 27.484375 10.78125 32.3125 
Q 14.796875 37.15625 21.921875 38.8125 
z
M 18.3125 54.390625 
Q 18.3125 48.734375 21.84375 45.5625 
Q 25.390625 42.390625 31.78125 42.390625 
Q 38.140625 42.390625 41.71875 45.5625 
Q 45.3125 48.734375 45.3125 54.390625 
Q 45.3125 60.0625 41.71875 63.234375 
Q 38.140625 66.40625 31.78125 66.40625 
Q 25.390625 66.40625 21.84375 63.234375 
Q 18.3125 60.0625 18.3125 54.390625 
z
" id="DejaVuSans-56"/>
      </defs>
      <g transform="translate(186.362234 322.182437)scale(0.1 -0.1)">
       <use xlink:href="#DejaVuSans-48"/>
       <use x="63.623047" xlink:href="#DejaVuSans-46"/>
       <use x="95.410156" xlink:href="#DejaVuSans-56"/>
      </g>
     </g>
    </g>
    <g id="xtick_4">
     <g id="line2d_4">
      <g>
       <use style="stroke:#000000;stroke-width:0.8;" x="250.984102" xlink:href="#m15c22f9dcf" y="307.584"/>
      </g>
     </g>
     <g id="text_4">
      <!-- 0.9 -->
      <defs>
       <path d="M 10.984375 1.515625 
L 10.984375 10.5 
Q 14.703125 8.734375 18.5 7.8125 
Q 22.3125 6.890625 25.984375 6.890625 
Q 35.75 6.890625 40.890625 13.453125 
Q 46.046875 20.015625 46.78125 33.40625 
Q 43.953125 29.203125 39.59375 26.953125 
Q 35.25 24.703125 29.984375 24.703125 
Q 19.046875 24.703125 12.671875 31.3125 
Q 6.296875 37.9375 6.296875 49.421875 
Q 6.296875 60.640625 12.9375 67.421875 
Q 19.578125 74.21875 30.609375 74.21875 
Q 43.265625 74.21875 49.921875 64.515625 
Q 56.59375 54.828125 56.59375 36.375 
Q 56.59375 19.140625 48.40625 8.859375 
Q 40.234375 -1.421875 26.421875 -1.421875 
Q 22.703125 -1.421875 18.890625 -0.6875 
Q 15.09375 0.046875 10.984375 1.515625 
z
M 30.609375 32.421875 
Q 37.25 32.421875 41.125 36.953125 
Q 45.015625 41.5 45.015625 49.421875 
Q 45.015625 57.28125 41.125 61.84375 
Q 37.25 66.40625 30.609375 66.40625 
Q 23.96875 66.40625 20.09375 61.84375 
Q 16.21875 57.28125 16.21875 49.421875 
Q 16.21875 41.5 20.09375 36.953125 
Q 23.96875 32.421875 30.609375 32.421875 
z
" id="DejaVuSans-57"/>
      </defs>
      <g transform="translate(243.032539 322.182437)scale(0.1 -0.1)">
       <use xlink:href="#DejaVuSans-48"/>
       <use x="63.623047" xlink:href="#DejaVuSans-46"/>
       <use x="95.410156" xlink:href="#DejaVuSans-57"/>
      </g>
     </g>
    </g>
    <g id="xtick_5">
     <g id="line2d_5">
      <g>
       <use style="stroke:#000000;stroke-width:0.8;" x="307.654407" xlink:href="#m15c22f9dcf" y="307.584"/>
      </g>
     </g>
     <g id="text_5">
      <!-- 1.0 -->
      <defs>
       <path d="M 12.40625 8.296875 
L 28.515625 8.296875 
L 28.515625 63.921875 
L 10.984375 60.40625 
L 10.984375 69.390625 
L 28.421875 72.90625 
L 38.28125 72.90625 
L 38.28125 8.296875 
L 54.390625 8.296875 
L 54.390625 0 
L 12.40625 0 
z
" id="DejaVuSans-49"/>
      </defs>
      <g transform="translate(299.702845 322.182437)scale(0.1 -0.1)">
       <use xlink:href="#DejaVuSans-49"/>
       <use x="63.623047" xlink:href="#DejaVuSans-46"/>
       <use x="95.410156" xlink:href="#DejaVuSans-48"/>
      </g>
     </g>
    </g>
    <g id="xtick_6">
     <g id="line2d_6">
      <g>
       <use style="stroke:#000000;stroke-width:0.8;" x="364.324713" xlink:href="#m15c22f9dcf" y="307.584"/>
      </g>
     </g>
     <g id="text_6">
      <!-- 1.1 -->
      <g transform="translate(356.37315 322.182437)scale(0.1 -0.1)">
       <use xlink:href="#DejaVuSans-49"/>
       <use x="63.623047" xlink:href="#DejaVuSans-46"/>
       <use x="95.410156" xlink:href="#DejaVuSans-49"/>
      </g>
     </g>
    </g>
    <g id="text_7">
     <!-- 1e10 -->
     <defs>
      <path d="M 56.203125 29.59375 
L 56.203125 25.203125 
L 14.890625 25.203125 
Q 15.484375 15.921875 20.484375 11.0625 
Q 25.484375 6.203125 34.421875 6.203125 
Q 39.59375 6.203125 44.453125 7.46875 
Q 49.3125 8.734375 54.109375 11.28125 
L 54.109375 2.78125 
Q 49.265625 0.734375 44.1875 -0.34375 
Q 39.109375 -1.421875 33.890625 -1.421875 
Q 20.796875 -1.421875 13.15625 6.1875 
Q 5.515625 13.8125 5.515625 26.8125 
Q 5.515625 40.234375 12.765625 48.109375 
Q 20.015625 56 32.328125 56 
Q 43.359375 56 49.78125 48.890625 
Q 56.203125 41.796875 56.203125 29.59375 
z
M 47.21875 32.234375 
Q 47.125 39.59375 43.09375 43.984375 
Q 39.0625 48.390625 32.421875 48.390625 
Q 24.90625 48.390625 20.390625 44.140625 
Q 15.875 39.890625 15.1875 32.171875 
z
" id="DejaVuSans-101"/>
     </defs>
     <g transform="translate(389.479375 334.860562)scale(0.1 -0.1)">
      <use xlink:href="#DejaVuSans-49"/>
      <use x="63.623047" xlink:href="#DejaVuSans-101"/>
      <use x="125.146484" xlink:href="#DejaVuSans-49"/>
      <use x="188.769531" xlink:href="#DejaVuSans-48"/>
     </g>
    </g>
   </g>
   <g id="matplotlib.axis_2">
    <g id="ytick_1">
     <g id="line2d_7">
      <defs>
       <path d="M 0 0 
L -3.5 0 
" id="md3e3862bc1" style="stroke:#000000;stroke-width:0.8;"/>
      </defs>
      <g>
       <use style="stroke:#000000;stroke-width:0.8;" x="57.6" xlink:href="#md3e3862bc1" y="276.674528"/>
      </g>
     </g>
     <g id="text_8">
      <!-- 0.0 -->
      <g transform="translate(34.696875 280.473747)scale(0.1 -0.1)">
       <use xlink:href="#DejaVuSans-48"/>
       <use x="63.623047" xlink:href="#DejaVuSans-46"/>
       <use x="95.410156" xlink:href="#DejaVuSans-48"/>
      </g>
     </g>
    </g>
    <g id="ytick_2">
     <g id="line2d_8">
      <g>
       <use style="stroke:#000000;stroke-width:0.8;" x="57.6" xlink:href="#md3e3862bc1" y="245.033461"/>
      </g>
     </g>
     <g id="text_9">
      <!-- 0.5 -->
      <defs>
       <path d="M 10.796875 72.90625 
L 49.515625 72.90625 
L 49.515625 64.59375 
L 19.828125 64.59375 
L 19.828125 46.734375 
Q 21.96875 47.46875 24.109375 47.828125 
Q 26.265625 48.1875 28.421875 48.1875 
Q 40.625 48.1875 47.75 41.5 
Q 54.890625 34.8125 54.890625 23.390625 
Q 54.890625 11.625 47.5625 5.09375 
Q 40.234375 -1.421875 26.90625 -1.421875 
Q 22.3125 -1.421875 17.546875 -0.640625 
Q 12.796875 0.140625 7.71875 1.703125 
L 7.71875 11.625 
Q 12.109375 9.234375 16.796875 8.0625 
Q 21.484375 6.890625 26.703125 6.890625 
Q 35.15625 6.890625 40.078125 11.328125 
Q 45.015625 15.765625 45.015625 23.390625 
Q 45.015625 31 40.078125 35.4375 
Q 35.15625 39.890625 26.703125 39.890625 
Q 22.75 39.890625 18.8125 39.015625 
Q 14.890625 38.140625 10.796875 36.28125 
z
" id="DejaVuSans-53"/>
      </defs>
      <g transform="translate(34.696875 248.832679)scale(0.1 -0.1)">
       <use xlink:href="#DejaVuSans-48"/>
       <use x="63.623047" xlink:href="#DejaVuSans-46"/>
       <use x="95.410156" xlink:href="#DejaVuSans-53"/>
      </g>
     </g>
    </g>
    <g id="ytick_3">
     <g id="line2d_9">
      <g>
       <use style="stroke:#000000;stroke-width:0.8;" x="57.6" xlink:href="#md3e3862bc1" y="213.392393"/>
      </g>
     </g>
     <g id="text_10">
      <!-- 1.0 -->
      <g transform="translate(34.696875 217.191612)scale(0.1 -0.1)">
       <use xlink:href="#DejaVuSans-49"/>
       <use x="63.623047" xlink:href="#DejaVuSans-46"/>
       <use x="95.410156" xlink:href="#DejaVuSans-48"/>
      </g>
     </g>
    </g>
    <g id="ytick_4">
     <g id="line2d_10">
      <g>
       <use style="stroke:#000000;stroke-width:0.8;" x="57.6" xlink:href="#md3e3862bc1" y="181.751325"/>
      </g>
     </g>
     <g id="text_11">
      <!-- 1.5 -->
      <g transform="translate(34.696875 185.550544)scale(0.1 -0.1)">
       <use xlink:href="#DejaVuSans-49"/>
       <use x="63.623047" xlink:href="#DejaVuSans-46"/>
       <use x="95.410156" xlink:href="#DejaVuSans-53"/>
      </g>
     </g>
    </g>
    <g id="ytick_5">
     <g id="line2d_11">
      <g>
       <use style="stroke:#000000;stroke-width:0.8;" x="57.6" xlink:href="#md3e3862bc1" y="150.110258"/>
      </g>
     </g>
     <g id="text_12">
      <!-- 2.0 -->
      <defs>
       <path d="M 19.1875 8.296875 
L 53.609375 8.296875 
L 53.609375 0 
L 7.328125 0 
L 7.328125 8.296875 
Q 12.9375 14.109375 22.625 23.890625 
Q 32.328125 33.6875 34.8125 36.53125 
Q 39.546875 41.84375 41.421875 45.53125 
Q 43.3125 49.21875 43.3125 52.78125 
Q 43.3125 58.59375 39.234375 62.25 
Q 35.15625 65.921875 28.609375 65.921875 
Q 23.96875 65.921875 18.8125 64.3125 
Q 13.671875 62.703125 7.8125 59.421875 
L 7.8125 69.390625 
Q 13.765625 71.78125 18.9375 73 
Q 24.125 74.21875 28.421875 74.21875 
Q 39.75 74.21875 46.484375 68.546875 
Q 53.21875 62.890625 53.21875 53.421875 
Q 53.21875 48.921875 51.53125 44.890625 
Q 49.859375 40.875 45.40625 35.40625 
Q 44.1875 33.984375 37.640625 27.21875 
Q 31.109375 20.453125 19.1875 8.296875 
z
" id="DejaVuSans-50"/>
      </defs>
      <g transform="translate(34.696875 153.909477)scale(0.1 -0.1)">
       <use xlink:href="#DejaVuSans-50"/>
       <use x="63.623047" xlink:href="#DejaVuSans-46"/>
       <use x="95.410156" xlink:href="#DejaVuSans-48"/>
      </g>
     </g>
    </g>
    <g id="ytick_6">
     <g id="line2d_12">
      <g>
       <use style="stroke:#000000;stroke-width:0.8;" x="57.6" xlink:href="#md3e3862bc1" y="118.46919"/>
      </g>
     </g>
     <g id="text_13">
      <!-- 2.5 -->
      <g transform="translate(34.696875 122.268409)scale(0.1 -0.1)">
       <use xlink:href="#DejaVuSans-50"/>
       <use x="63.623047" xlink:href="#DejaVuSans-46"/>
       <use x="95.410156" xlink:href="#DejaVuSans-53"/>
      </g>
     </g>
    </g>
    <g id="ytick_7">
     <g id="line2d_13">
      <g>
       <use style="stroke:#000000;stroke-width:0.8;" x="57.6" xlink:href="#md3e3862bc1" y="86.828123"/>
      </g>
     </g>
     <g id="text_14">
      <!-- 3.0 -->
      <defs>
       <path d="M 40.578125 39.3125 
Q 47.65625 37.796875 51.625 33 
Q 55.609375 28.21875 55.609375 21.1875 
Q 55.609375 10.40625 48.1875 4.484375 
Q 40.765625 -1.421875 27.09375 -1.421875 
Q 22.515625 -1.421875 17.65625 -0.515625 
Q 12.796875 0.390625 7.625 2.203125 
L 7.625 11.71875 
Q 11.71875 9.328125 16.59375 8.109375 
Q 21.484375 6.890625 26.8125 6.890625 
Q 36.078125 6.890625 40.9375 10.546875 
Q 45.796875 14.203125 45.796875 21.1875 
Q 45.796875 27.640625 41.28125 31.265625 
Q 36.765625 34.90625 28.71875 34.90625 
L 20.21875 34.90625 
L 20.21875 43.015625 
L 29.109375 43.015625 
Q 36.375 43.015625 40.234375 45.921875 
Q 44.09375 48.828125 44.09375 54.296875 
Q 44.09375 59.90625 40.109375 62.90625 
Q 36.140625 65.921875 28.71875 65.921875 
Q 24.65625 65.921875 20.015625 65.03125 
Q 15.375 64.15625 9.8125 62.3125 
L 9.8125 71.09375 
Q 15.4375 72.65625 20.34375 73.4375 
Q 25.25 74.21875 29.59375 74.21875 
Q 40.828125 74.21875 47.359375 69.109375 
Q 53.90625 64.015625 53.90625 55.328125 
Q 53.90625 49.265625 50.4375 45.09375 
Q 46.96875 40.921875 40.578125 39.3125 
z
" id="DejaVuSans-51"/>
      </defs>
      <g transform="translate(34.696875 90.627341)scale(0.1 -0.1)">
       <use xlink:href="#DejaVuSans-51"/>
       <use x="63.623047" xlink:href="#DejaVuSans-46"/>
       <use x="95.410156" xlink:href="#DejaVuSans-48"/>
      </g>
     </g>
    </g>
    <g id="ytick_8">
     <g id="line2d_14">
      <g>
       <use style="stroke:#000000;stroke-width:0.8;" x="57.6" xlink:href="#md3e3862bc1" y="55.187055"/>
      </g>
     </g>
     <g id="text_15">
      <!-- 3.5 -->
      <g transform="translate(34.696875 58.986274)scale(0.1 -0.1)">
       <use xlink:href="#DejaVuSans-51"/>
       <use x="63.623047" xlink:href="#DejaVuSans-46"/>
       <use x="95.410156" xlink:href="#DejaVuSans-53"/>
      </g>
     </g>
    </g>
   </g>
   <g id="line2d_15">
    <path clip-path="url(#pe18d8f67b1)" d="M 73.832727 276.376997 
L 75.191114 273.990267 
L 76.549502 272.772217 
L 77.907889 271.361841 
L 79.266276 269.527699 
L 81.983051 264.927392 
L 83.341438 262.064893 
L 84.699825 258.930431 
L 88.774987 250.525308 
L 90.133374 248.642119 
L 91.491761 247.276153 
L 92.850148 246.637207 
L 94.208536 246.487575 
L 95.566923 246.939631 
L 96.92531 247.783013 
L 98.283697 248.97038 
L 102.358859 253.364479 
L 105.075633 256.547708 
L 109.150795 261.038046 
L 111.867569 263.630208 
L 114.584344 266.148677 
L 117.301118 268.26662 
L 118.659506 269.414655 
L 121.37628 271.396103 
L 122.734667 272.522269 
L 126.809829 275.423271 
L 136.318539 282.725877 
L 140.393701 286.324841 
L 141.752088 287.135247 
L 145.82725 289.951387 
L 148.544024 291.617886 
L 151.260799 292.615847 
L 152.619186 292.902263 
L 153.977573 292.962277 
L 155.33596 292.805598 
L 156.694348 292.438924 
L 159.411122 291.373087 
L 162.127897 290.246511 
L 163.486284 289.699663 
L 166.203058 288.967077 
L 167.561445 288.249276 
L 168.919833 288.36357 
L 171.636607 287.970142 
L 172.994994 287.856835 
L 174.353382 287.584395 
L 177.070156 286.69512 
L 179.78693 285.270783 
L 185.220479 281.733082 
L 189.295641 278.5889 
L 190.654028 277.605278 
L 193.370803 276.057266 
L 194.72919 275.539051 
L 196.087577 275.197946 
L 197.445964 275.015423 
L 198.804351 274.952224 
L 200.162739 275.109724 
L 201.521126 275.55429 
L 202.879513 276.230623 
L 204.2379 277.17515 
L 208.313062 280.7236 
L 209.671449 282.061617 
L 213.746611 285.409677 
L 216.463385 287.412438 
L 220.538547 289.535331 
L 224.613709 291.005795 
L 228.68887 292.04478 
L 232.764032 292.735623 
L 236.839194 293.296738 
L 239.555968 293.525349 
L 246.347904 293.843148 
L 257.215002 294.745293 
L 262.648551 295.415239 
L 264.006938 295.488 
L 265.365325 295.403509 
L 266.723712 295.134026 
L 268.0821 294.617045 
L 269.440487 293.464852 
L 270.798874 291.878121 
L 272.157261 289.337941 
L 273.515649 285.672445 
L 274.874036 281.5982 
L 276.232423 276.063891 
L 278.949197 262.788208 
L 284.382746 230.37813 
L 285.741134 224.388371 
L 287.099521 219.241685 
L 288.457908 215.608695 
L 289.816295 213.789511 
L 291.174682 212.982765 
L 292.53307 213.504528 
L 293.891457 214.549585 
L 295.249844 216.419845 
L 299.325006 223.902436 
L 302.04178 229.491121 
L 303.400167 232.375048 
L 308.833716 241.99572 
L 311.550491 246.189546 
L 315.625652 251.241808 
L 318.342427 253.846553 
L 321.059201 255.934756 
L 322.417588 256.911994 
L 326.49275 259.06212 
L 330.567912 260.398281 
L 333.284686 260.739733 
L 340.076622 260.85081 
L 345.510171 260.330174 
L 349.585333 259.728589 
L 359.094043 258.414822 
L 361.810818 258.274891 
L 374.036303 258.415315 
L 376.753077 258.483077 
L 382.186626 258.381584 
L 386.261788 258.182094 
L 391.695337 258.000685 
L 395.770498 258.200014 
L 398.487273 258.412283 
L 398.487273 258.412283 
" style="fill:none;stroke:#1f77b4;stroke-linecap:square;stroke-width:1.5;"/>
   </g>
   <g id="line2d_16">
    <path clip-path="url(#pe18d8f67b1)" d="M 73.832727 259.89475 
L 75.191114 258.792012 
L 80.624663 258.503822 
L 83.341438 258.213828 
L 86.058212 257.67001 
L 87.416599 257.215227 
L 90.133374 256.059278 
L 92.850148 254.132371 
L 94.208536 252.733812 
L 99.642084 246.305763 
L 102.358859 243.986283 
L 103.717246 243.023301 
L 105.075633 242.491086 
L 109.150795 241.327102 
L 110.509182 240.855993 
L 111.867569 240.534092 
L 114.584344 238.97008 
L 115.942731 238.120468 
L 120.017893 233.707341 
L 122.734667 230.038064 
L 125.451442 227.65764 
L 126.809829 227.158167 
L 128.168216 226.949739 
L 130.88499 227.511494 
L 136.318539 228.761857 
L 140.393701 230.288477 
L 141.752088 231.051383 
L 143.110475 231.627147 
L 144.468863 232.504231 
L 149.902412 234.664266 
L 151.260799 234.983119 
L 152.619186 235.044314 
L 153.977573 234.89154 
L 155.33596 234.319579 
L 156.694348 233.430996 
L 158.052735 232.286034 
L 160.769509 228.672573 
L 162.127897 225.981088 
L 164.844671 219.340243 
L 166.203058 214.588916 
L 168.919833 203.17772 
L 170.27822 195.212711 
L 172.994994 176.744408 
L 174.353382 164.443621 
L 177.070156 138.379704 
L 178.428543 122.280254 
L 179.78693 107.771295 
L 182.503705 72.126393 
L 183.862092 61.466523 
L 185.220479 53.568 
L 186.578866 53.843065 
L 187.937254 60.247352 
L 189.295641 72.477554 
L 192.012415 107.205822 
L 194.72919 147.037376 
L 197.445964 180.063923 
L 198.804351 192.619687 
L 201.521126 218.794087 
L 202.879513 228.885946 
L 204.2379 239.895535 
L 205.596288 249.230594 
L 206.954675 255.386914 
L 208.313062 262.179064 
L 209.671449 267.206323 
L 212.388224 274.285405 
L 216.463385 281.286275 
L 217.821773 282.362927 
L 219.18016 283.80093 
L 220.538547 284.852511 
L 221.896934 285.624727 
L 224.613709 287.45851 
L 225.972096 288.273152 
L 227.330483 288.813259 
L 228.68887 289.226632 
L 230.047258 289.458525 
L 231.405645 289.567593 
L 235.480806 289.510447 
L 236.839194 289.411172 
L 240.914355 288.00038 
L 243.63113 286.216544 
L 246.347904 285.002567 
L 249.064679 284.144878 
L 250.423066 283.576946 
L 251.781453 282.844288 
L 253.13984 281.788345 
L 255.856615 279.332778 
L 257.215002 278.239342 
L 258.573389 277.352313 
L 259.931776 276.677246 
L 261.290164 276.377205 
L 262.648551 276.209864 
L 264.006938 276.292583 
L 265.365325 275.985711 
L 266.723712 276.263334 
L 268.0821 276.20027 
L 269.440487 276.376882 
L 270.798874 276.399994 
L 272.157261 276.587081 
L 273.515649 276.451799 
L 274.874036 276.14211 
L 277.59081 274.594554 
L 278.949197 273.569136 
L 283.024359 271.211891 
L 284.382746 269.780383 
L 285.741134 268.714986 
L 287.099521 267.301624 
L 289.816295 263.637282 
L 292.53307 259.190578 
L 293.891457 257.485896 
L 295.249844 256.137894 
L 296.608231 254.985264 
L 299.325006 253.745246 
L 302.04178 252.859981 
L 303.400167 251.744779 
L 304.758555 251.555481 
L 306.116942 251.11614 
L 307.475329 250.920535 
L 308.833716 250.376227 
L 310.192103 250.305432 
L 311.550491 248.926163 
L 312.908878 248.591397 
L 314.267265 248.375756 
L 316.98404 248.937955 
L 318.342427 249.230817 
L 319.700814 250.229439 
L 321.059201 251.037807 
L 323.775976 253.385905 
L 325.134363 254.793069 
L 326.49275 256.007898 
L 327.851137 256.403063 
L 329.209525 257.453291 
L 333.284686 258.969333 
L 334.643073 259.046329 
L 336.001461 259.7737 
L 337.359848 260.363853 
L 341.43501 262.752788 
L 348.226946 265.490895 
L 352.302107 266.300094 
L 356.377269 266.204271 
L 359.094043 266.623465 
L 360.452431 266.47658 
L 361.810818 266.640507 
L 364.527592 266.240661 
L 365.885979 266.372096 
L 367.244367 266.374557 
L 368.602754 266.128565 
L 371.319528 265.939756 
L 372.677916 265.406879 
L 376.753077 265.119883 
L 378.111464 264.881512 
L 379.469852 264.828533 
L 380.828239 265.178859 
L 382.186626 264.902499 
L 383.545013 264.831112 
L 384.903401 264.502303 
L 386.261788 264.681504 
L 387.620175 264.688279 
L 388.978562 264.496789 
L 390.336949 264.618351 
L 391.695337 264.859386 
L 393.053724 264.972391 
L 395.770498 264.894936 
L 398.487273 265.16269 
L 398.487273 265.16269 
" style="fill:none;stroke:#ff7f0e;stroke-linecap:square;stroke-width:1.5;"/>
   </g>
   <g id="patch_3">
    <path d="M 57.6 307.584 
L 57.6 41.472 
" style="fill:none;stroke:#000000;stroke-linecap:square;stroke-linejoin:miter;stroke-width:0.8;"/>
   </g>
   <g id="patch_4">
    <path d="M 414.72 307.584 
L 414.72 41.472 
" style="fill:none;stroke:#000000;stroke-linecap:square;stroke-linejoin:miter;stroke-width:0.8;"/>
   </g>
   <g id="patch_5">
    <path d="M 57.6 307.584 
L 414.72 307.584 
" style="fill:none;stroke:#000000;stroke-linecap:square;stroke-linejoin:miter;stroke-width:0.8;"/>
   </g>
   <g id="patch_6">
    <path d="M 57.6 41.472 
L 414.72 41.472 
" style="fill:none;stroke:#000000;stroke-linecap:square;stroke-linejoin:miter;stroke-width:0.8;"/>
   </g>
   <g id="legend_1">
    <g id="patch_7">
     <path d="M 273.82 78.82825 
L 407.72 78.82825 
Q 409.72 78.82825 409.72 76.82825 
L 409.72 48.472 
Q 409.72 46.472 407.72 46.472 
L 273.82 46.472 
Q 271.82 46.472 271.82 48.472 
L 271.82 76.82825 
Q 271.82 78.82825 273.82 78.82825 
z
" style="fill:#ffffff;opacity:0.8;stroke:#cccccc;stroke-linejoin:miter;"/>
    </g>
    <g id="line2d_17">
     <path d="M 275.82 54.570437 
L 295.82 54.570437 
" style="fill:none;stroke:#1f77b4;stroke-linecap:square;stroke-width:1.5;"/>
    </g>
    <g id="line2d_18"/>
    <g id="text_16">
     <!-- 'Near' sensor,  $\propto$S$_{11}$ -->
     <defs>
      <path d="M 17.921875 72.90625 
L 17.921875 45.796875 
L 9.625 45.796875 
L 9.625 72.90625 
z
" id="DejaVuSans-39"/>
      <path d="M 9.8125 72.90625 
L 23.09375 72.90625 
L 55.421875 11.921875 
L 55.421875 72.90625 
L 64.984375 72.90625 
L 64.984375 0 
L 51.703125 0 
L 19.390625 60.984375 
L 19.390625 0 
L 9.8125 0 
z
" id="DejaVuSans-78"/>
      <path d="M 34.28125 27.484375 
Q 23.390625 27.484375 19.1875 25 
Q 14.984375 22.515625 14.984375 16.5 
Q 14.984375 11.71875 18.140625 8.90625 
Q 21.296875 6.109375 26.703125 6.109375 
Q 34.1875 6.109375 38.703125 11.40625 
Q 43.21875 16.703125 43.21875 25.484375 
L 43.21875 27.484375 
z
M 52.203125 31.203125 
L 52.203125 0 
L 43.21875 0 
L 43.21875 8.296875 
Q 40.140625 3.328125 35.546875 0.953125 
Q 30.953125 -1.421875 24.3125 -1.421875 
Q 15.921875 -1.421875 10.953125 3.296875 
Q 6 8.015625 6 15.921875 
Q 6 25.140625 12.171875 29.828125 
Q 18.359375 34.515625 30.609375 34.515625 
L 43.21875 34.515625 
L 43.21875 35.40625 
Q 43.21875 41.609375 39.140625 45 
Q 35.0625 48.390625 27.6875 48.390625 
Q 23 48.390625 18.546875 47.265625 
Q 14.109375 46.140625 10.015625 43.890625 
L 10.015625 52.203125 
Q 14.9375 54.109375 19.578125 55.046875 
Q 24.21875 56 28.609375 56 
Q 40.484375 56 46.34375 49.84375 
Q 52.203125 43.703125 52.203125 31.203125 
z
" id="DejaVuSans-97"/>
      <path d="M 41.109375 46.296875 
Q 39.59375 47.171875 37.8125 47.578125 
Q 36.03125 48 33.890625 48 
Q 26.265625 48 22.1875 43.046875 
Q 18.109375 38.09375 18.109375 28.8125 
L 18.109375 0 
L 9.078125 0 
L 9.078125 54.6875 
L 18.109375 54.6875 
L 18.109375 46.1875 
Q 20.953125 51.171875 25.484375 53.578125 
Q 30.03125 56 36.53125 56 
Q 37.453125 56 38.578125 55.875 
Q 39.703125 55.765625 41.0625 55.515625 
z
" id="DejaVuSans-114"/>
      <path id="DejaVuSans-32"/>
      <path d="M 44.28125 53.078125 
L 44.28125 44.578125 
Q 40.484375 46.53125 36.375 47.5 
Q 32.28125 48.484375 27.875 48.484375 
Q 21.1875 48.484375 17.84375 46.4375 
Q 14.5 44.390625 14.5 40.28125 
Q 14.5 37.15625 16.890625 35.375 
Q 19.28125 33.59375 26.515625 31.984375 
L 29.59375 31.296875 
Q 39.15625 29.25 43.1875 25.515625 
Q 47.21875 21.78125 47.21875 15.09375 
Q 47.21875 7.46875 41.1875 3.015625 
Q 35.15625 -1.421875 24.609375 -1.421875 
Q 20.21875 -1.421875 15.453125 -0.5625 
Q 10.6875 0.296875 5.421875 2 
L 5.421875 11.28125 
Q 10.40625 8.6875 15.234375 7.390625 
Q 20.0625 6.109375 24.8125 6.109375 
Q 31.15625 6.109375 34.5625 8.28125 
Q 37.984375 10.453125 37.984375 14.40625 
Q 37.984375 18.0625 35.515625 20.015625 
Q 33.0625 21.96875 24.703125 23.78125 
L 21.578125 24.515625 
Q 13.234375 26.265625 9.515625 29.90625 
Q 5.8125 33.546875 5.8125 39.890625 
Q 5.8125 47.609375 11.28125 51.796875 
Q 16.75 56 26.8125 56 
Q 31.78125 56 36.171875 55.265625 
Q 40.578125 54.546875 44.28125 53.078125 
z
" id="DejaVuSans-115"/>
      <path d="M 54.890625 33.015625 
L 54.890625 0 
L 45.90625 0 
L 45.90625 32.71875 
Q 45.90625 40.484375 42.875 44.328125 
Q 39.84375 48.1875 33.796875 48.1875 
Q 26.515625 48.1875 22.3125 43.546875 
Q 18.109375 38.921875 18.109375 30.90625 
L 18.109375 0 
L 9.078125 0 
L 9.078125 54.6875 
L 18.109375 54.6875 
L 18.109375 46.1875 
Q 21.34375 51.125 25.703125 53.5625 
Q 30.078125 56 35.796875 56 
Q 45.21875 56 50.046875 50.171875 
Q 54.890625 44.34375 54.890625 33.015625 
z
" id="DejaVuSans-110"/>
      <path d="M 30.609375 48.390625 
Q 23.390625 48.390625 19.1875 42.75 
Q 14.984375 37.109375 14.984375 27.296875 
Q 14.984375 17.484375 19.15625 11.84375 
Q 23.34375 6.203125 30.609375 6.203125 
Q 37.796875 6.203125 41.984375 11.859375 
Q 46.1875 17.53125 46.1875 27.296875 
Q 46.1875 37.015625 41.984375 42.703125 
Q 37.796875 48.390625 30.609375 48.390625 
z
M 30.609375 56 
Q 42.328125 56 49.015625 48.375 
Q 55.71875 40.765625 55.71875 27.296875 
Q 55.71875 13.875 49.015625 6.21875 
Q 42.328125 -1.421875 30.609375 -1.421875 
Q 18.84375 -1.421875 12.171875 6.21875 
Q 5.515625 13.875 5.515625 27.296875 
Q 5.515625 40.765625 12.171875 48.375 
Q 18.84375 56 30.609375 56 
z
" id="DejaVuSans-111"/>
      <path d="M 11.71875 12.40625 
L 22.015625 12.40625 
L 22.015625 4 
L 14.015625 -11.625 
L 7.71875 -11.625 
L 11.71875 4 
z
" id="DejaVuSans-44"/>
      <path d="M 25.734375 17.71875 
Q 33.796875 17.71875 38.625 29.4375 
Q 32.421875 42.234375 25.734375 42.234375 
Q 20.84375 42.234375 18.359375 38.71875 
Q 15.71875 34.96875 15.71875 29.984375 
Q 15.71875 24.515625 18.359375 21.140625 
Q 21.09375 17.71875 25.734375 17.71875 
z
M 60.6875 17.625 
L 60.6875 11.1875 
L 56.9375 11.1875 
Q 53.375 11.1875 50.734375 12.640625 
Q 48.09375 13.96875 45.5625 17.046875 
Q 44.046875 18.796875 41.65625 22.90625 
Q 38.375 17.046875 35.5 14.453125 
Q 31.9375 11.328125 26.265625 11.328125 
Q 19.671875 11.328125 15.328125 16.265625 
Q 10.75 21.4375 10.75 29.984375 
Q 10.75 38.1875 15.328125 43.75 
Q 19.390625 48.6875 26.375 48.6875 
Q 29.9375 48.6875 32.5625 47.21875 
Q 35.640625 45.609375 37.75 42.828125 
Q 39.703125 40.328125 41.65625 36.96875 
Q 44.921875 42.828125 47.796875 45.40625 
Q 51.375 48.53125 57.03125 48.53125 
L 60.6875 48.53125 
L 60.6875 42.140625 
L 57.5625 42.140625 
Q 50.34375 42.140625 44.671875 30.421875 
Q 50.875 17.625 57.5625 17.625 
z
" id="DejaVuSans-8733"/>
      <path d="M 53.515625 70.515625 
L 53.515625 60.890625 
Q 47.90625 63.578125 42.921875 64.890625 
Q 37.9375 66.21875 33.296875 66.21875 
Q 25.25 66.21875 20.875 63.09375 
Q 16.5 59.96875 16.5 54.203125 
Q 16.5 49.359375 19.40625 46.890625 
Q 22.3125 44.4375 30.421875 42.921875 
L 36.375 41.703125 
Q 47.40625 39.59375 52.65625 34.296875 
Q 57.90625 29 57.90625 20.125 
Q 57.90625 9.515625 50.796875 4.046875 
Q 43.703125 -1.421875 29.984375 -1.421875 
Q 24.8125 -1.421875 18.96875 -0.25 
Q 13.140625 0.921875 6.890625 3.21875 
L 6.890625 13.375 
Q 12.890625 10.015625 18.65625 8.296875 
Q 24.421875 6.59375 29.984375 6.59375 
Q 38.421875 6.59375 43.015625 9.90625 
Q 47.609375 13.234375 47.609375 19.390625 
Q 47.609375 24.75 44.3125 27.78125 
Q 41.015625 30.8125 33.5 32.328125 
L 27.484375 33.5 
Q 16.453125 35.6875 11.515625 40.375 
Q 6.59375 45.0625 6.59375 53.421875 
Q 6.59375 63.09375 13.40625 68.65625 
Q 20.21875 74.21875 32.171875 74.21875 
Q 37.3125 74.21875 42.625 73.28125 
Q 47.953125 72.359375 53.515625 70.515625 
z
" id="DejaVuSans-83"/>
     </defs>
     <g transform="translate(303.82 58.070437)scale(0.1 -0.1)">
      <use transform="translate(0 0.78125)" xlink:href="#DejaVuSans-39"/>
      <use transform="translate(27.490234 0.78125)" xlink:href="#DejaVuSans-78"/>
      <use transform="translate(102.294922 0.78125)" xlink:href="#DejaVuSans-101"/>
      <use transform="translate(163.818359 0.78125)" xlink:href="#DejaVuSans-97"/>
      <use transform="translate(225.097656 0.78125)" xlink:href="#DejaVuSans-114"/>
      <use transform="translate(266.210938 0.78125)" xlink:href="#DejaVuSans-39"/>
      <use transform="translate(293.701172 0.78125)" xlink:href="#DejaVuSans-32"/>
      <use transform="translate(325.488281 0.78125)" xlink:href="#DejaVuSans-115"/>
      <use transform="translate(377.587891 0.78125)" xlink:href="#DejaVuSans-101"/>
      <use transform="translate(439.111328 0.78125)" xlink:href="#DejaVuSans-110"/>
      <use transform="translate(502.490234 0.78125)" xlink:href="#DejaVuSans-115"/>
      <use transform="translate(554.589844 0.78125)" xlink:href="#DejaVuSans-111"/>
      <use transform="translate(615.771484 0.78125)" xlink:href="#DejaVuSans-114"/>
      <use transform="translate(656.884766 0.78125)" xlink:href="#DejaVuSans-44"/>
      <use transform="translate(688.671875 0.78125)" xlink:href="#DejaVuSans-32"/>
      <use transform="translate(720.458984 0.78125)" xlink:href="#DejaVuSans-32"/>
      <use transform="translate(771.728516 0.78125)" xlink:href="#DejaVuSans-8733"/>
      <use transform="translate(862.646484 0.78125)" xlink:href="#DejaVuSans-83"/>
      <use transform="translate(927.080078 -15.625)scale(0.7)" xlink:href="#DejaVuSans-49"/>
      <use transform="translate(971.616211 -15.625)scale(0.7)" xlink:href="#DejaVuSans-49"/>
     </g>
    </g>
    <g id="line2d_19">
     <path d="M 275.82 69.248562 
L 295.82 69.248562 
" style="fill:none;stroke:#ff7f0e;stroke-linecap:square;stroke-width:1.5;"/>
    </g>
    <g id="line2d_20"/>
    <g id="text_17">
     <!-- 'Far' sensor,  $\propto$S$_{21}$ -->
     <defs>
      <path d="M 9.8125 72.90625 
L 51.703125 72.90625 
L 51.703125 64.59375 
L 19.671875 64.59375 
L 19.671875 43.109375 
L 48.578125 43.109375 
L 48.578125 34.8125 
L 19.671875 34.8125 
L 19.671875 0 
L 9.8125 0 
z
" id="DejaVuSans-70"/>
     </defs>
     <g transform="translate(303.82 72.748562)scale(0.1 -0.1)">
      <use transform="translate(0 0.78125)" xlink:href="#DejaVuSans-39"/>
      <use transform="translate(27.490234 0.78125)" xlink:href="#DejaVuSans-70"/>
      <use transform="translate(85.009766 0.78125)" xlink:href="#DejaVuSans-97"/>
      <use transform="translate(146.289062 0.78125)" xlink:href="#DejaVuSans-114"/>
      <use transform="translate(187.402344 0.78125)" xlink:href="#DejaVuSans-39"/>
      <use transform="translate(214.892578 0.78125)" xlink:href="#DejaVuSans-32"/>
      <use transform="translate(246.679688 0.78125)" xlink:href="#DejaVuSans-115"/>
      <use transform="translate(298.779297 0.78125)" xlink:href="#DejaVuSans-101"/>
      <use transform="translate(360.302734 0.78125)" xlink:href="#DejaVuSans-110"/>
      <use transform="translate(423.681641 0.78125)" xlink:href="#DejaVuSans-115"/>
      <use transform="translate(475.78125 0.78125)" xlink:href="#DejaVuSans-111"/>
      <use transform="translate(536.962891 0.78125)" xlink:href="#DejaVuSans-114"/>
      <use transform="translate(578.076172 0.78125)" xlink:href="#DejaVuSans-44"/>
      <use transform="translate(609.863281 0.78125)" xlink:href="#DejaVuSans-32"/>
      <use transform="translate(641.650391 0.78125)" xlink:href="#DejaVuSans-32"/>
      <use transform="translate(692.919922 0.78125)" xlink:href="#DejaVuSans-8733"/>
      <use transform="translate(783.837891 0.78125)" xlink:href="#DejaVuSans-83"/>
      <use transform="translate(848.271484 -15.625)scale(0.7)" xlink:href="#DejaVuSans-50"/>
      <use transform="translate(892.807617 -15.625)scale(0.7)" xlink:href="#DejaVuSans-49"/>
     </g>
    </g>
   </g>
  </g>
 </g>
 <defs>
  <clipPath id="pe18d8f67b1">
   <rect height="266.112" width="357.12" x="57.6" y="41.472"/>
  </clipPath>
 </defs>
</svg>
