G04 #@! TF.GenerationSoftware,KiCad,Pcbnew,5.1.5+dfsg1-2~bpo9+1*
G04 #@! TF.CreationDate,2020-08-06T19:53:43-04:00*
G04 #@! TF.ProjectId,sig_gen_driver,7369675f-6765-46e5-9f64-72697665722e,rev?*
G04 #@! TF.SameCoordinates,PX63f1f00PY4dea4a0*
G04 #@! TF.FileFunction,Copper,L1,Top*
G04 #@! TF.FilePolarity,Positive*
%FSLAX46Y46*%
G04 Gerber Fmt 4.6, Leading zero omitted, Abs format (unit mm)*
G04 Created by KiCad (PCBNEW 5.1.5+dfsg1-2~bpo9+1) date 2020-08-06 19:53:43*
%MOMM*%
%LPD*%
G04 APERTURE LIST*
%ADD10R,1.550000X0.600000*%
%ADD11R,3.000000X1.600000*%
%ADD12R,6.200000X5.800000*%
%ADD13R,0.548640X1.198880*%
%ADD14R,3.800000X2.200000*%
%ADD15R,1.500000X2.200000*%
%ADD16C,0.020000*%
%ADD17R,1.500000X1.500000*%
%ADD18C,1.879600*%
%ADD19R,1.249680X2.999740*%
%ADD20R,1.099820X0.998220*%
%ADD21R,1.597660X1.798320*%
%ADD22C,0.400000*%
%ADD23C,0.700000*%
%ADD24C,0.254000*%
G04 APERTURE END LIST*
D10*
X20900000Y-29295000D03*
X20900000Y-30565000D03*
X20900000Y-31835000D03*
X20900000Y-33105000D03*
X15500000Y-33105000D03*
X15500000Y-31835000D03*
X15500000Y-30565000D03*
X15500000Y-29295000D03*
D11*
X19421840Y-24334780D03*
D12*
X26591840Y-22049780D03*
D11*
X19421840Y-19764780D03*
D13*
X15949960Y-40097940D03*
X15000000Y-40097940D03*
X14050040Y-40097940D03*
X14050040Y-37502060D03*
X15000000Y-37502060D03*
X15949960Y-37502060D03*
D14*
X32500000Y-16550000D03*
D15*
X34800000Y-10250000D03*
X32500000Y-10250000D03*
X30200000Y-10250000D03*
G04 #@! TA.AperFunction,SMDPad,CuDef*
D16*
G36*
X20689531Y-35305833D02*
G01*
X20710766Y-35308983D01*
X20731590Y-35314199D01*
X20751802Y-35321431D01*
X20771208Y-35330610D01*
X20789621Y-35341646D01*
X20806864Y-35354434D01*
X20822770Y-35368850D01*
X20837186Y-35384756D01*
X20849974Y-35401999D01*
X20861010Y-35420412D01*
X20870189Y-35439818D01*
X20877421Y-35460030D01*
X20882637Y-35480854D01*
X20885787Y-35502089D01*
X20886840Y-35523530D01*
X20886840Y-36036030D01*
X20885787Y-36057471D01*
X20882637Y-36078706D01*
X20877421Y-36099530D01*
X20870189Y-36119742D01*
X20861010Y-36139148D01*
X20849974Y-36157561D01*
X20837186Y-36174804D01*
X20822770Y-36190710D01*
X20806864Y-36205126D01*
X20789621Y-36217914D01*
X20771208Y-36228950D01*
X20751802Y-36238129D01*
X20731590Y-36245361D01*
X20710766Y-36250577D01*
X20689531Y-36253727D01*
X20668090Y-36254780D01*
X20230590Y-36254780D01*
X20209149Y-36253727D01*
X20187914Y-36250577D01*
X20167090Y-36245361D01*
X20146878Y-36238129D01*
X20127472Y-36228950D01*
X20109059Y-36217914D01*
X20091816Y-36205126D01*
X20075910Y-36190710D01*
X20061494Y-36174804D01*
X20048706Y-36157561D01*
X20037670Y-36139148D01*
X20028491Y-36119742D01*
X20021259Y-36099530D01*
X20016043Y-36078706D01*
X20012893Y-36057471D01*
X20011840Y-36036030D01*
X20011840Y-35523530D01*
X20012893Y-35502089D01*
X20016043Y-35480854D01*
X20021259Y-35460030D01*
X20028491Y-35439818D01*
X20037670Y-35420412D01*
X20048706Y-35401999D01*
X20061494Y-35384756D01*
X20075910Y-35368850D01*
X20091816Y-35354434D01*
X20109059Y-35341646D01*
X20127472Y-35330610D01*
X20146878Y-35321431D01*
X20167090Y-35314199D01*
X20187914Y-35308983D01*
X20209149Y-35305833D01*
X20230590Y-35304780D01*
X20668090Y-35304780D01*
X20689531Y-35305833D01*
G37*
G04 #@! TD.AperFunction*
G04 #@! TA.AperFunction,SMDPad,CuDef*
G36*
X19114531Y-35305833D02*
G01*
X19135766Y-35308983D01*
X19156590Y-35314199D01*
X19176802Y-35321431D01*
X19196208Y-35330610D01*
X19214621Y-35341646D01*
X19231864Y-35354434D01*
X19247770Y-35368850D01*
X19262186Y-35384756D01*
X19274974Y-35401999D01*
X19286010Y-35420412D01*
X19295189Y-35439818D01*
X19302421Y-35460030D01*
X19307637Y-35480854D01*
X19310787Y-35502089D01*
X19311840Y-35523530D01*
X19311840Y-36036030D01*
X19310787Y-36057471D01*
X19307637Y-36078706D01*
X19302421Y-36099530D01*
X19295189Y-36119742D01*
X19286010Y-36139148D01*
X19274974Y-36157561D01*
X19262186Y-36174804D01*
X19247770Y-36190710D01*
X19231864Y-36205126D01*
X19214621Y-36217914D01*
X19196208Y-36228950D01*
X19176802Y-36238129D01*
X19156590Y-36245361D01*
X19135766Y-36250577D01*
X19114531Y-36253727D01*
X19093090Y-36254780D01*
X18655590Y-36254780D01*
X18634149Y-36253727D01*
X18612914Y-36250577D01*
X18592090Y-36245361D01*
X18571878Y-36238129D01*
X18552472Y-36228950D01*
X18534059Y-36217914D01*
X18516816Y-36205126D01*
X18500910Y-36190710D01*
X18486494Y-36174804D01*
X18473706Y-36157561D01*
X18462670Y-36139148D01*
X18453491Y-36119742D01*
X18446259Y-36099530D01*
X18441043Y-36078706D01*
X18437893Y-36057471D01*
X18436840Y-36036030D01*
X18436840Y-35523530D01*
X18437893Y-35502089D01*
X18441043Y-35480854D01*
X18446259Y-35460030D01*
X18453491Y-35439818D01*
X18462670Y-35420412D01*
X18473706Y-35401999D01*
X18486494Y-35384756D01*
X18500910Y-35368850D01*
X18516816Y-35354434D01*
X18534059Y-35341646D01*
X18552472Y-35330610D01*
X18571878Y-35321431D01*
X18592090Y-35314199D01*
X18612914Y-35308983D01*
X18634149Y-35305833D01*
X18655590Y-35304780D01*
X19093090Y-35304780D01*
X19114531Y-35305833D01*
G37*
G04 #@! TD.AperFunction*
G04 #@! TA.AperFunction,SMDPad,CuDef*
G36*
X13877691Y-30251053D02*
G01*
X13898926Y-30254203D01*
X13919750Y-30259419D01*
X13939962Y-30266651D01*
X13959368Y-30275830D01*
X13977781Y-30286866D01*
X13995024Y-30299654D01*
X14010930Y-30314070D01*
X14025346Y-30329976D01*
X14038134Y-30347219D01*
X14049170Y-30365632D01*
X14058349Y-30385038D01*
X14065581Y-30405250D01*
X14070797Y-30426074D01*
X14073947Y-30447309D01*
X14075000Y-30468750D01*
X14075000Y-30906250D01*
X14073947Y-30927691D01*
X14070797Y-30948926D01*
X14065581Y-30969750D01*
X14058349Y-30989962D01*
X14049170Y-31009368D01*
X14038134Y-31027781D01*
X14025346Y-31045024D01*
X14010930Y-31060930D01*
X13995024Y-31075346D01*
X13977781Y-31088134D01*
X13959368Y-31099170D01*
X13939962Y-31108349D01*
X13919750Y-31115581D01*
X13898926Y-31120797D01*
X13877691Y-31123947D01*
X13856250Y-31125000D01*
X13343750Y-31125000D01*
X13322309Y-31123947D01*
X13301074Y-31120797D01*
X13280250Y-31115581D01*
X13260038Y-31108349D01*
X13240632Y-31099170D01*
X13222219Y-31088134D01*
X13204976Y-31075346D01*
X13189070Y-31060930D01*
X13174654Y-31045024D01*
X13161866Y-31027781D01*
X13150830Y-31009368D01*
X13141651Y-30989962D01*
X13134419Y-30969750D01*
X13129203Y-30948926D01*
X13126053Y-30927691D01*
X13125000Y-30906250D01*
X13125000Y-30468750D01*
X13126053Y-30447309D01*
X13129203Y-30426074D01*
X13134419Y-30405250D01*
X13141651Y-30385038D01*
X13150830Y-30365632D01*
X13161866Y-30347219D01*
X13174654Y-30329976D01*
X13189070Y-30314070D01*
X13204976Y-30299654D01*
X13222219Y-30286866D01*
X13240632Y-30275830D01*
X13260038Y-30266651D01*
X13280250Y-30259419D01*
X13301074Y-30254203D01*
X13322309Y-30251053D01*
X13343750Y-30250000D01*
X13856250Y-30250000D01*
X13877691Y-30251053D01*
G37*
G04 #@! TD.AperFunction*
G04 #@! TA.AperFunction,SMDPad,CuDef*
G36*
X13877691Y-28676053D02*
G01*
X13898926Y-28679203D01*
X13919750Y-28684419D01*
X13939962Y-28691651D01*
X13959368Y-28700830D01*
X13977781Y-28711866D01*
X13995024Y-28724654D01*
X14010930Y-28739070D01*
X14025346Y-28754976D01*
X14038134Y-28772219D01*
X14049170Y-28790632D01*
X14058349Y-28810038D01*
X14065581Y-28830250D01*
X14070797Y-28851074D01*
X14073947Y-28872309D01*
X14075000Y-28893750D01*
X14075000Y-29331250D01*
X14073947Y-29352691D01*
X14070797Y-29373926D01*
X14065581Y-29394750D01*
X14058349Y-29414962D01*
X14049170Y-29434368D01*
X14038134Y-29452781D01*
X14025346Y-29470024D01*
X14010930Y-29485930D01*
X13995024Y-29500346D01*
X13977781Y-29513134D01*
X13959368Y-29524170D01*
X13939962Y-29533349D01*
X13919750Y-29540581D01*
X13898926Y-29545797D01*
X13877691Y-29548947D01*
X13856250Y-29550000D01*
X13343750Y-29550000D01*
X13322309Y-29548947D01*
X13301074Y-29545797D01*
X13280250Y-29540581D01*
X13260038Y-29533349D01*
X13240632Y-29524170D01*
X13222219Y-29513134D01*
X13204976Y-29500346D01*
X13189070Y-29485930D01*
X13174654Y-29470024D01*
X13161866Y-29452781D01*
X13150830Y-29434368D01*
X13141651Y-29414962D01*
X13134419Y-29394750D01*
X13129203Y-29373926D01*
X13126053Y-29352691D01*
X13125000Y-29331250D01*
X13125000Y-28893750D01*
X13126053Y-28872309D01*
X13129203Y-28851074D01*
X13134419Y-28830250D01*
X13141651Y-28810038D01*
X13150830Y-28790632D01*
X13161866Y-28772219D01*
X13174654Y-28754976D01*
X13189070Y-28739070D01*
X13204976Y-28724654D01*
X13222219Y-28711866D01*
X13240632Y-28700830D01*
X13260038Y-28691651D01*
X13280250Y-28684419D01*
X13301074Y-28679203D01*
X13322309Y-28676053D01*
X13343750Y-28675000D01*
X13856250Y-28675000D01*
X13877691Y-28676053D01*
G37*
G04 #@! TD.AperFunction*
G04 #@! TA.AperFunction,SMDPad,CuDef*
G36*
X13877691Y-32851053D02*
G01*
X13898926Y-32854203D01*
X13919750Y-32859419D01*
X13939962Y-32866651D01*
X13959368Y-32875830D01*
X13977781Y-32886866D01*
X13995024Y-32899654D01*
X14010930Y-32914070D01*
X14025346Y-32929976D01*
X14038134Y-32947219D01*
X14049170Y-32965632D01*
X14058349Y-32985038D01*
X14065581Y-33005250D01*
X14070797Y-33026074D01*
X14073947Y-33047309D01*
X14075000Y-33068750D01*
X14075000Y-33506250D01*
X14073947Y-33527691D01*
X14070797Y-33548926D01*
X14065581Y-33569750D01*
X14058349Y-33589962D01*
X14049170Y-33609368D01*
X14038134Y-33627781D01*
X14025346Y-33645024D01*
X14010930Y-33660930D01*
X13995024Y-33675346D01*
X13977781Y-33688134D01*
X13959368Y-33699170D01*
X13939962Y-33708349D01*
X13919750Y-33715581D01*
X13898926Y-33720797D01*
X13877691Y-33723947D01*
X13856250Y-33725000D01*
X13343750Y-33725000D01*
X13322309Y-33723947D01*
X13301074Y-33720797D01*
X13280250Y-33715581D01*
X13260038Y-33708349D01*
X13240632Y-33699170D01*
X13222219Y-33688134D01*
X13204976Y-33675346D01*
X13189070Y-33660930D01*
X13174654Y-33645024D01*
X13161866Y-33627781D01*
X13150830Y-33609368D01*
X13141651Y-33589962D01*
X13134419Y-33569750D01*
X13129203Y-33548926D01*
X13126053Y-33527691D01*
X13125000Y-33506250D01*
X13125000Y-33068750D01*
X13126053Y-33047309D01*
X13129203Y-33026074D01*
X13134419Y-33005250D01*
X13141651Y-32985038D01*
X13150830Y-32965632D01*
X13161866Y-32947219D01*
X13174654Y-32929976D01*
X13189070Y-32914070D01*
X13204976Y-32899654D01*
X13222219Y-32886866D01*
X13240632Y-32875830D01*
X13260038Y-32866651D01*
X13280250Y-32859419D01*
X13301074Y-32854203D01*
X13322309Y-32851053D01*
X13343750Y-32850000D01*
X13856250Y-32850000D01*
X13877691Y-32851053D01*
G37*
G04 #@! TD.AperFunction*
G04 #@! TA.AperFunction,SMDPad,CuDef*
G36*
X13877691Y-31276053D02*
G01*
X13898926Y-31279203D01*
X13919750Y-31284419D01*
X13939962Y-31291651D01*
X13959368Y-31300830D01*
X13977781Y-31311866D01*
X13995024Y-31324654D01*
X14010930Y-31339070D01*
X14025346Y-31354976D01*
X14038134Y-31372219D01*
X14049170Y-31390632D01*
X14058349Y-31410038D01*
X14065581Y-31430250D01*
X14070797Y-31451074D01*
X14073947Y-31472309D01*
X14075000Y-31493750D01*
X14075000Y-31931250D01*
X14073947Y-31952691D01*
X14070797Y-31973926D01*
X14065581Y-31994750D01*
X14058349Y-32014962D01*
X14049170Y-32034368D01*
X14038134Y-32052781D01*
X14025346Y-32070024D01*
X14010930Y-32085930D01*
X13995024Y-32100346D01*
X13977781Y-32113134D01*
X13959368Y-32124170D01*
X13939962Y-32133349D01*
X13919750Y-32140581D01*
X13898926Y-32145797D01*
X13877691Y-32148947D01*
X13856250Y-32150000D01*
X13343750Y-32150000D01*
X13322309Y-32148947D01*
X13301074Y-32145797D01*
X13280250Y-32140581D01*
X13260038Y-32133349D01*
X13240632Y-32124170D01*
X13222219Y-32113134D01*
X13204976Y-32100346D01*
X13189070Y-32085930D01*
X13174654Y-32070024D01*
X13161866Y-32052781D01*
X13150830Y-32034368D01*
X13141651Y-32014962D01*
X13134419Y-31994750D01*
X13129203Y-31973926D01*
X13126053Y-31952691D01*
X13125000Y-31931250D01*
X13125000Y-31493750D01*
X13126053Y-31472309D01*
X13129203Y-31451074D01*
X13134419Y-31430250D01*
X13141651Y-31410038D01*
X13150830Y-31390632D01*
X13161866Y-31372219D01*
X13174654Y-31354976D01*
X13189070Y-31339070D01*
X13204976Y-31324654D01*
X13222219Y-31311866D01*
X13240632Y-31300830D01*
X13260038Y-31291651D01*
X13280250Y-31284419D01*
X13301074Y-31279203D01*
X13322309Y-31276053D01*
X13343750Y-31275000D01*
X13856250Y-31275000D01*
X13877691Y-31276053D01*
G37*
G04 #@! TD.AperFunction*
D17*
X11000000Y-29100000D03*
D18*
X31100000Y-27200000D03*
X9000000Y-42700000D03*
X11700000Y-42700000D03*
X14400000Y-42700000D03*
X22400000Y-35800000D03*
X17100000Y-42700000D03*
D17*
X12100000Y-11900000D03*
D18*
X34800000Y-6300000D03*
D19*
X18690000Y-14823760D03*
X21230000Y-14823760D03*
X23770000Y-14823760D03*
X26310000Y-14823760D03*
D20*
X15548360Y-27300000D03*
X13851640Y-27300000D03*
X26048360Y-17500000D03*
X24351640Y-17500000D03*
X15651640Y-35700000D03*
X17348360Y-35700000D03*
X14096720Y-35700000D03*
X12400000Y-35700000D03*
X17051640Y-27300000D03*
X18748360Y-27300000D03*
D21*
X23699540Y-27100000D03*
X20900460Y-27100000D03*
D22*
X15548360Y-27300000D02*
X17051640Y-27300000D01*
X13782500Y-33105000D02*
X13600000Y-33287500D01*
X15500000Y-33105000D02*
X13782500Y-33105000D01*
D23*
X32500000Y-12050000D02*
X32500000Y-10250000D01*
X29726240Y-14823760D02*
X32500000Y-12050000D01*
X26310000Y-14823760D02*
X29726240Y-14823760D01*
D22*
X14096720Y-35700000D02*
X15651640Y-35700000D01*
X15000000Y-36351640D02*
X15651640Y-35700000D01*
X15000000Y-37502060D02*
X15000000Y-36351640D01*
D23*
X26310000Y-17238360D02*
X26048360Y-17500000D01*
X26310000Y-14823760D02*
X26310000Y-17238360D01*
X26591840Y-18043480D02*
X26048360Y-17500000D01*
X26591840Y-22049780D02*
X26591840Y-18043480D01*
X26256150Y-22049780D02*
X26591840Y-22049780D01*
X21230000Y-17023630D02*
X26256150Y-22049780D01*
X21230000Y-14823760D02*
X21230000Y-17023630D01*
X20900000Y-27100460D02*
X20900460Y-27100000D01*
X20900000Y-29295000D02*
X20900000Y-27100460D01*
X20700460Y-27300000D02*
X20900460Y-27100000D01*
X18748360Y-27300000D02*
X20700460Y-27300000D01*
X18748360Y-25008260D02*
X19421840Y-24334780D01*
X18748360Y-27300000D02*
X18748360Y-25008260D01*
D22*
X12400000Y-35852020D02*
X14050040Y-37502060D01*
X12400000Y-35700000D02*
X12400000Y-35852020D01*
X9000000Y-42700000D02*
X9000000Y-41000000D01*
X12497940Y-37502060D02*
X14050040Y-37502060D01*
X9000000Y-41000000D02*
X12497940Y-37502060D01*
D23*
X17348360Y-34500890D02*
X17348360Y-35700000D01*
X17348360Y-32208360D02*
X17348360Y-34500890D01*
X16975000Y-31835000D02*
X17348360Y-32208360D01*
X15500000Y-31835000D02*
X16975000Y-31835000D01*
X18794560Y-35700000D02*
X18874340Y-35779780D01*
X17348360Y-35700000D02*
X18794560Y-35700000D01*
D22*
X17348360Y-36777980D02*
X17348360Y-35700000D01*
X16624280Y-37502060D02*
X17348360Y-36777980D01*
X15949960Y-37502060D02*
X16624280Y-37502060D01*
D23*
X23770000Y-12623890D02*
X23770000Y-14823760D01*
X30200000Y-10250000D02*
X26143890Y-10250000D01*
X14350000Y-11100000D02*
X25400000Y-11100000D01*
X13550000Y-11900000D02*
X14350000Y-11100000D01*
X12100000Y-11900000D02*
X13550000Y-11900000D01*
X26143890Y-10250000D02*
X25400000Y-11100000D01*
X25400000Y-11100000D02*
X23770000Y-12623890D01*
X23770000Y-16918360D02*
X24351640Y-17500000D01*
X23770000Y-14823760D02*
X23770000Y-16918360D01*
D22*
X15317500Y-29112500D02*
X15500000Y-29295000D01*
X13600000Y-29112500D02*
X15317500Y-29112500D01*
X13851640Y-28860860D02*
X13600000Y-29112500D01*
X13851640Y-27300000D02*
X13851640Y-28860860D01*
X13587500Y-29100000D02*
X13600000Y-29112500D01*
X11000000Y-29100000D02*
X13587500Y-29100000D01*
D23*
X18690000Y-19032940D02*
X19421840Y-19764780D01*
X18690000Y-14823760D02*
X18690000Y-19032940D01*
X34800000Y-6300000D02*
X34800000Y-10250000D01*
D22*
X15949960Y-41549960D02*
X17100000Y-42700000D01*
X15949960Y-40097940D02*
X15949960Y-41549960D01*
D23*
X22379780Y-35779780D02*
X22400000Y-35800000D01*
X20449340Y-35779780D02*
X22379780Y-35779780D01*
D22*
X15000000Y-42100000D02*
X14400000Y-42700000D01*
X15000000Y-40097940D02*
X15000000Y-42100000D01*
X14050040Y-40097940D02*
X13202060Y-40097940D01*
X13202060Y-40097940D02*
X13200000Y-40100000D01*
X13200000Y-40100000D02*
X12800000Y-40100000D01*
X11700000Y-41200000D02*
X11700000Y-42700000D01*
X12800000Y-40100000D02*
X11700000Y-41200000D01*
X13600000Y-30687500D02*
X13600000Y-31712500D01*
X13722500Y-30565000D02*
X13600000Y-30687500D01*
X15500000Y-30565000D02*
X13722500Y-30565000D01*
D24*
G36*
X38473250Y-50273655D02*
G01*
X127000Y-50472341D01*
X127000Y-42496438D01*
X6933200Y-42496438D01*
X6933200Y-42903562D01*
X7012626Y-43302863D01*
X7168426Y-43678997D01*
X7394612Y-44017508D01*
X7682492Y-44305388D01*
X8021003Y-44531574D01*
X8397137Y-44687374D01*
X8796438Y-44766800D01*
X9203562Y-44766800D01*
X9602863Y-44687374D01*
X9978997Y-44531574D01*
X10317508Y-44305388D01*
X10350000Y-44272896D01*
X10382492Y-44305388D01*
X10721003Y-44531574D01*
X11097137Y-44687374D01*
X11496438Y-44766800D01*
X11903562Y-44766800D01*
X12302863Y-44687374D01*
X12678997Y-44531574D01*
X13017508Y-44305388D01*
X13050000Y-44272896D01*
X13082492Y-44305388D01*
X13421003Y-44531574D01*
X13797137Y-44687374D01*
X14196438Y-44766800D01*
X14603562Y-44766800D01*
X15002863Y-44687374D01*
X15378997Y-44531574D01*
X15717508Y-44305388D01*
X15750000Y-44272896D01*
X15782492Y-44305388D01*
X16121003Y-44531574D01*
X16497137Y-44687374D01*
X16896438Y-44766800D01*
X17303562Y-44766800D01*
X17702863Y-44687374D01*
X18078997Y-44531574D01*
X18417508Y-44305388D01*
X18705388Y-44017508D01*
X18931574Y-43678997D01*
X19087374Y-43302863D01*
X19166800Y-42903562D01*
X19166800Y-42496438D01*
X19087374Y-42097137D01*
X18931574Y-41721003D01*
X18705388Y-41382492D01*
X18417508Y-41094612D01*
X18078997Y-40868426D01*
X17702863Y-40712626D01*
X17356733Y-40643776D01*
X17356733Y-39498500D01*
X17334973Y-39277569D01*
X17270530Y-39065129D01*
X17165880Y-38869343D01*
X17108972Y-38800000D01*
X17165880Y-38730657D01*
X17175922Y-38711869D01*
X17365088Y-38610758D01*
X17567150Y-38444930D01*
X17608705Y-38394295D01*
X18240596Y-37762404D01*
X18291230Y-37720850D01*
X18457058Y-37518788D01*
X18533788Y-37375237D01*
X18655590Y-37387233D01*
X19093090Y-37387233D01*
X19356697Y-37361270D01*
X19610173Y-37284379D01*
X19661840Y-37256762D01*
X19713507Y-37284379D01*
X19966983Y-37361270D01*
X20230590Y-37387233D01*
X20668090Y-37387233D01*
X20931697Y-37361270D01*
X21013546Y-37336442D01*
X21082492Y-37405388D01*
X21421003Y-37631574D01*
X21797137Y-37787374D01*
X22196438Y-37866800D01*
X22603562Y-37866800D01*
X23002863Y-37787374D01*
X23378997Y-37631574D01*
X23717508Y-37405388D01*
X24005388Y-37117508D01*
X24231574Y-36778997D01*
X24387374Y-36402863D01*
X24466800Y-36003562D01*
X24466800Y-35596438D01*
X24387374Y-35197137D01*
X24231574Y-34821003D01*
X24005388Y-34482492D01*
X23717508Y-34194612D01*
X23378997Y-33968426D01*
X23002863Y-33812626D01*
X22744641Y-33761262D01*
X22785693Y-33625931D01*
X22807453Y-33405000D01*
X22807453Y-32805000D01*
X22785693Y-32584069D01*
X22751091Y-32470000D01*
X22785693Y-32355931D01*
X22807453Y-32135000D01*
X22807453Y-31535000D01*
X22785693Y-31314069D01*
X22751091Y-31200000D01*
X22785693Y-31085931D01*
X22807453Y-30865000D01*
X22807453Y-30265000D01*
X22785693Y-30044069D01*
X22751091Y-29930000D01*
X22785693Y-29815931D01*
X22807453Y-29595000D01*
X22807453Y-28995000D01*
X22785693Y-28774069D01*
X22721250Y-28561629D01*
X22698893Y-28519802D01*
X22745540Y-28432531D01*
X22809983Y-28220091D01*
X22831743Y-27999160D01*
X22831743Y-26200840D01*
X22809983Y-25979909D01*
X22745540Y-25767469D01*
X22640890Y-25571683D01*
X22500055Y-25400075D01*
X22328447Y-25259240D01*
X22132661Y-25154590D01*
X22054293Y-25130817D01*
X22054293Y-23534780D01*
X22032533Y-23313849D01*
X21968090Y-23101409D01*
X21863440Y-22905623D01*
X21722605Y-22734015D01*
X21550997Y-22593180D01*
X21355211Y-22488530D01*
X21142771Y-22424087D01*
X20921840Y-22402327D01*
X17921840Y-22402327D01*
X17700909Y-22424087D01*
X17488469Y-22488530D01*
X17292683Y-22593180D01*
X17121075Y-22734015D01*
X16980240Y-22905623D01*
X16875590Y-23101409D01*
X16811147Y-23313849D01*
X16789387Y-23534780D01*
X16789387Y-25134780D01*
X16811147Y-25355711D01*
X16875590Y-25568151D01*
X16980240Y-25763937D01*
X17121075Y-25935545D01*
X17271361Y-26058881D01*
X17271361Y-26154052D01*
X17256850Y-26171733D01*
X17152200Y-26367519D01*
X17087757Y-26579959D01*
X17065997Y-26800890D01*
X17065997Y-27799110D01*
X17087757Y-28020041D01*
X17152200Y-28232481D01*
X17256850Y-28428267D01*
X17397685Y-28599875D01*
X17569293Y-28740710D01*
X17765079Y-28845360D01*
X17977519Y-28909803D01*
X18198450Y-28931563D01*
X18998795Y-28931563D01*
X18992547Y-28995000D01*
X18992547Y-29595000D01*
X19014307Y-29815931D01*
X19048909Y-29930000D01*
X19014307Y-30044069D01*
X18992547Y-30265000D01*
X18992547Y-30865000D01*
X19014307Y-31085931D01*
X19048909Y-31200000D01*
X19014307Y-31314069D01*
X18992547Y-31535000D01*
X18992547Y-32135000D01*
X19014307Y-32355931D01*
X19048909Y-32470000D01*
X19014307Y-32584069D01*
X18992547Y-32805000D01*
X18992547Y-33405000D01*
X19014307Y-33625931D01*
X19078750Y-33838371D01*
X19183400Y-34034157D01*
X19314706Y-34194154D01*
X19093090Y-34172327D01*
X18825360Y-34172327D01*
X18825360Y-32280913D01*
X18832506Y-32208360D01*
X18814913Y-32029734D01*
X18803989Y-31918817D01*
X18719532Y-31640402D01*
X18648692Y-31507870D01*
X18582383Y-31383813D01*
X18512262Y-31298371D01*
X18397810Y-31158910D01*
X18341445Y-31112653D01*
X18070709Y-30841917D01*
X18024450Y-30785550D01*
X17799547Y-30600978D01*
X17542958Y-30463828D01*
X17407453Y-30422723D01*
X17407453Y-30265000D01*
X17385693Y-30044069D01*
X17351091Y-29930000D01*
X17385693Y-29815931D01*
X17407453Y-29595000D01*
X17407453Y-28995000D01*
X17385693Y-28774069D01*
X17321250Y-28561629D01*
X17216600Y-28365843D01*
X17075765Y-28194235D01*
X16904157Y-28053400D01*
X16708371Y-27948750D01*
X16495931Y-27884307D01*
X16275000Y-27862547D01*
X15768328Y-27862547D01*
X15577637Y-27804701D01*
X15533877Y-27800391D01*
X15534003Y-27799110D01*
X15534003Y-26800890D01*
X15512243Y-26579959D01*
X15447800Y-26367519D01*
X15343150Y-26171733D01*
X15202315Y-26000125D01*
X15030707Y-25859290D01*
X14834921Y-25754640D01*
X14622481Y-25690197D01*
X14401550Y-25668437D01*
X13301730Y-25668437D01*
X13080799Y-25690197D01*
X12868359Y-25754640D01*
X12672573Y-25859290D01*
X12500965Y-26000125D01*
X12360130Y-26171733D01*
X12255480Y-26367519D01*
X12191037Y-26579959D01*
X12169277Y-26800890D01*
X12169277Y-27299475D01*
X11970931Y-27239307D01*
X11750000Y-27217547D01*
X10250000Y-27217547D01*
X10029069Y-27239307D01*
X9816629Y-27303750D01*
X9620843Y-27408400D01*
X9449235Y-27549235D01*
X9308400Y-27720843D01*
X9203750Y-27916629D01*
X9139307Y-28129069D01*
X9117547Y-28350000D01*
X9117547Y-29850000D01*
X9139307Y-30070931D01*
X9203750Y-30283371D01*
X9308400Y-30479157D01*
X9449235Y-30650765D01*
X9620843Y-30791600D01*
X9816629Y-30896250D01*
X10029069Y-30960693D01*
X10250000Y-30982453D01*
X11750000Y-30982453D01*
X11970931Y-30960693D01*
X11997127Y-30952747D01*
X12018510Y-31169857D01*
X12027654Y-31200000D01*
X12018510Y-31230143D01*
X11992547Y-31493750D01*
X11992547Y-31931250D01*
X12018510Y-32194857D01*
X12095401Y-32448333D01*
X12220266Y-32681938D01*
X12388305Y-32886695D01*
X12593062Y-33054734D01*
X12826667Y-33179599D01*
X13080143Y-33256490D01*
X13343750Y-33282453D01*
X13856250Y-33282453D01*
X14119857Y-33256490D01*
X14329760Y-33192817D01*
X14504069Y-33245693D01*
X14725000Y-33267453D01*
X15134057Y-33267453D01*
X15210457Y-33290629D01*
X15427444Y-33312000D01*
X15871360Y-33312000D01*
X15871361Y-34428325D01*
X15871360Y-34428335D01*
X15871360Y-34554053D01*
X15856850Y-34571733D01*
X15752200Y-34767519D01*
X15687757Y-34979959D01*
X15665997Y-35200890D01*
X15665997Y-35771117D01*
X15454709Y-35791927D01*
X15242269Y-35856370D01*
X15046483Y-35961020D01*
X15000000Y-35999168D01*
X14953517Y-35961020D01*
X14757731Y-35856370D01*
X14545291Y-35791927D01*
X14324360Y-35770167D01*
X14194808Y-35770167D01*
X14082363Y-35657723D01*
X14082363Y-35200890D01*
X14060603Y-34979959D01*
X13996160Y-34767519D01*
X13891510Y-34571733D01*
X13750675Y-34400125D01*
X13579067Y-34259290D01*
X13383281Y-34154640D01*
X13170841Y-34090197D01*
X12949910Y-34068437D01*
X11850090Y-34068437D01*
X11629159Y-34090197D01*
X11416719Y-34154640D01*
X11220933Y-34259290D01*
X11049325Y-34400125D01*
X10908490Y-34571733D01*
X10803840Y-34767519D01*
X10739397Y-34979959D01*
X10717637Y-35200890D01*
X10717637Y-36199110D01*
X10739397Y-36420041D01*
X10803840Y-36632481D01*
X10908490Y-36828267D01*
X11049325Y-36999875D01*
X11090046Y-37033294D01*
X8107761Y-40015579D01*
X8057131Y-40057130D01*
X8015580Y-40107760D01*
X8015578Y-40107762D01*
X7891302Y-40259192D01*
X7768081Y-40489723D01*
X7731511Y-40610278D01*
X7692202Y-40739863D01*
X7673000Y-40934816D01*
X7673000Y-40934826D01*
X7666581Y-41000000D01*
X7673000Y-41065174D01*
X7673000Y-41104104D01*
X7394612Y-41382492D01*
X7168426Y-41721003D01*
X7012626Y-42097137D01*
X6933200Y-42496438D01*
X127000Y-42496438D01*
X127000Y-11150000D01*
X10217547Y-11150000D01*
X10217547Y-12650000D01*
X10239307Y-12870931D01*
X10303750Y-13083371D01*
X10408400Y-13279157D01*
X10549235Y-13450765D01*
X10720843Y-13591600D01*
X10916629Y-13696250D01*
X11129069Y-13760693D01*
X11350000Y-13782453D01*
X12850000Y-13782453D01*
X13070931Y-13760693D01*
X13283371Y-13696250D01*
X13479157Y-13591600D01*
X13650765Y-13450765D01*
X13719106Y-13367491D01*
X13839543Y-13355629D01*
X14117958Y-13271172D01*
X14374547Y-13134022D01*
X14599450Y-12949450D01*
X14645709Y-12893083D01*
X14961792Y-12577000D01*
X17220181Y-12577000D01*
X17123560Y-12694733D01*
X17018910Y-12890519D01*
X16954467Y-13102959D01*
X16932707Y-13323890D01*
X16932707Y-16323630D01*
X16954467Y-16544561D01*
X17018910Y-16757001D01*
X17123560Y-16952787D01*
X17213001Y-17061771D01*
X17213001Y-18088573D01*
X17121075Y-18164015D01*
X16980240Y-18335623D01*
X16875590Y-18531409D01*
X16811147Y-18743849D01*
X16789387Y-18964780D01*
X16789387Y-20564780D01*
X16811147Y-20785711D01*
X16875590Y-20998151D01*
X16980240Y-21193937D01*
X17121075Y-21365545D01*
X17292683Y-21506380D01*
X17488469Y-21611030D01*
X17700909Y-21675473D01*
X17921840Y-21697233D01*
X20921840Y-21697233D01*
X21142771Y-21675473D01*
X21355211Y-21611030D01*
X21550997Y-21506380D01*
X21722605Y-21365545D01*
X21863440Y-21193937D01*
X21968090Y-20998151D01*
X22032533Y-20785711D01*
X22054293Y-20564780D01*
X22054293Y-18964780D01*
X22032533Y-18743849D01*
X21968090Y-18531409D01*
X21863440Y-18335623D01*
X21722605Y-18164015D01*
X21550997Y-18023180D01*
X21355211Y-17918530D01*
X21142771Y-17854087D01*
X20921840Y-17832327D01*
X20167000Y-17832327D01*
X20167000Y-17061770D01*
X20256440Y-16952787D01*
X20361090Y-16757001D01*
X20425533Y-16544561D01*
X20447293Y-16323630D01*
X20447293Y-13323890D01*
X20425533Y-13102959D01*
X20361090Y-12890519D01*
X20256440Y-12694733D01*
X20159819Y-12577000D01*
X22286888Y-12577000D01*
X22287858Y-12592015D01*
X22203560Y-12694733D01*
X22098910Y-12890519D01*
X22034467Y-13102959D01*
X22012707Y-13323890D01*
X22012707Y-16323630D01*
X22034467Y-16544561D01*
X22098910Y-16757001D01*
X22203560Y-16952787D01*
X22300931Y-17071434D01*
X22314372Y-17207902D01*
X22398829Y-17486318D01*
X22535978Y-17742907D01*
X22638076Y-17867314D01*
X22669277Y-17905332D01*
X22669277Y-17999110D01*
X22691037Y-18220041D01*
X22755480Y-18432481D01*
X22860130Y-18628267D01*
X23000965Y-18799875D01*
X23172573Y-18940710D01*
X23368359Y-19045360D01*
X23580799Y-19109803D01*
X23801730Y-19131563D01*
X24901550Y-19131563D01*
X25122481Y-19109803D01*
X25334921Y-19045360D01*
X25530707Y-18940710D01*
X25702315Y-18799875D01*
X25843150Y-18628267D01*
X25947800Y-18432481D01*
X26012243Y-18220041D01*
X26034003Y-17999110D01*
X26034003Y-17000890D01*
X26012243Y-16779959D01*
X25947800Y-16567519D01*
X25843150Y-16371733D01*
X25702315Y-16200125D01*
X25530707Y-16059290D01*
X25527293Y-16057465D01*
X25527293Y-15450000D01*
X29467547Y-15450000D01*
X29467547Y-17650000D01*
X29489307Y-17870931D01*
X29553750Y-18083371D01*
X29658400Y-18279157D01*
X29799235Y-18450765D01*
X29970843Y-18591600D01*
X30166629Y-18696250D01*
X30379069Y-18760693D01*
X30600000Y-18782453D01*
X34400000Y-18782453D01*
X34620931Y-18760693D01*
X34833371Y-18696250D01*
X35029157Y-18591600D01*
X35200765Y-18450765D01*
X35341600Y-18279157D01*
X35446250Y-18083371D01*
X35510693Y-17870931D01*
X35532453Y-17650000D01*
X35532453Y-15450000D01*
X35510693Y-15229069D01*
X35446250Y-15016629D01*
X35341600Y-14820843D01*
X35200765Y-14649235D01*
X35029157Y-14508400D01*
X34833371Y-14403750D01*
X34620931Y-14339307D01*
X34400000Y-14317547D01*
X30600000Y-14317547D01*
X30379069Y-14339307D01*
X30166629Y-14403750D01*
X29970843Y-14508400D01*
X29799235Y-14649235D01*
X29658400Y-14820843D01*
X29553750Y-15016629D01*
X29489307Y-15229069D01*
X29467547Y-15450000D01*
X25527293Y-15450000D01*
X25527293Y-13323890D01*
X25505533Y-13102959D01*
X25486704Y-13040888D01*
X26303478Y-12277286D01*
X26304697Y-12276526D01*
X26374958Y-12210584D01*
X26449450Y-12149450D01*
X26525970Y-12056209D01*
X26605599Y-11965576D01*
X26606322Y-11964326D01*
X26814022Y-11727000D01*
X28386650Y-11727000D01*
X28403750Y-11783371D01*
X28508400Y-11979157D01*
X28649235Y-12150765D01*
X28820843Y-12291600D01*
X29016629Y-12396250D01*
X29229069Y-12460693D01*
X29450000Y-12482453D01*
X30950000Y-12482453D01*
X31170931Y-12460693D01*
X31383371Y-12396250D01*
X31579157Y-12291600D01*
X31750765Y-12150765D01*
X31891600Y-11979157D01*
X31996250Y-11783371D01*
X32060693Y-11570931D01*
X32082453Y-11350000D01*
X32082453Y-9150000D01*
X32060693Y-8929069D01*
X31996250Y-8716629D01*
X31891600Y-8520843D01*
X31750765Y-8349235D01*
X31579157Y-8208400D01*
X31383371Y-8103750D01*
X31170931Y-8039307D01*
X30950000Y-8017547D01*
X29450000Y-8017547D01*
X29229069Y-8039307D01*
X29016629Y-8103750D01*
X28820843Y-8208400D01*
X28649235Y-8349235D01*
X28508400Y-8520843D01*
X28403750Y-8716629D01*
X28386650Y-8773000D01*
X26167274Y-8773000D01*
X26045304Y-8769132D01*
X25950257Y-8784925D01*
X25854347Y-8794371D01*
X25807040Y-8808722D01*
X25758295Y-8816821D01*
X25668158Y-8850851D01*
X25575932Y-8878828D01*
X25532343Y-8902127D01*
X25486104Y-8919584D01*
X25404324Y-8970555D01*
X25319343Y-9015978D01*
X25281136Y-9047333D01*
X25239193Y-9073475D01*
X25168937Y-9139412D01*
X25094440Y-9200550D01*
X25017003Y-9294908D01*
X24729868Y-9623000D01*
X14422553Y-9623000D01*
X14350000Y-9615854D01*
X14277447Y-9623000D01*
X14277444Y-9623000D01*
X14060457Y-9644371D01*
X13782042Y-9728828D01*
X13525453Y-9865977D01*
X13490819Y-9894401D01*
X13300550Y-10050550D01*
X13262168Y-10097318D01*
X13070931Y-10039307D01*
X12850000Y-10017547D01*
X11350000Y-10017547D01*
X11129069Y-10039307D01*
X10916629Y-10103750D01*
X10720843Y-10208400D01*
X10549235Y-10349235D01*
X10408400Y-10520843D01*
X10303750Y-10716629D01*
X10239307Y-10929069D01*
X10217547Y-11150000D01*
X127000Y-11150000D01*
X127000Y-6096438D01*
X32733200Y-6096438D01*
X32733200Y-6503562D01*
X32812626Y-6902863D01*
X32968426Y-7278997D01*
X33194612Y-7617508D01*
X33323000Y-7745896D01*
X33323001Y-8288697D01*
X33249235Y-8349235D01*
X33108400Y-8520843D01*
X33003750Y-8716629D01*
X32939307Y-8929069D01*
X32917547Y-9150000D01*
X32917547Y-11350000D01*
X32939307Y-11570931D01*
X33003750Y-11783371D01*
X33108400Y-11979157D01*
X33249235Y-12150765D01*
X33420843Y-12291600D01*
X33616629Y-12396250D01*
X33829069Y-12460693D01*
X34050000Y-12482453D01*
X35550000Y-12482453D01*
X35770931Y-12460693D01*
X35983371Y-12396250D01*
X36179157Y-12291600D01*
X36350765Y-12150765D01*
X36491600Y-11979157D01*
X36596250Y-11783371D01*
X36660693Y-11570931D01*
X36682453Y-11350000D01*
X36682453Y-9150000D01*
X36660693Y-8929069D01*
X36596250Y-8716629D01*
X36491600Y-8520843D01*
X36350765Y-8349235D01*
X36277000Y-8288698D01*
X36277000Y-7745896D01*
X36405388Y-7617508D01*
X36631574Y-7278997D01*
X36787374Y-6902863D01*
X36866800Y-6503562D01*
X36866800Y-6096438D01*
X36787374Y-5697137D01*
X36631574Y-5321003D01*
X36405388Y-4982492D01*
X36117508Y-4694612D01*
X35778997Y-4468426D01*
X35402863Y-4312626D01*
X35003562Y-4233200D01*
X34596438Y-4233200D01*
X34197137Y-4312626D01*
X33821003Y-4468426D01*
X33482492Y-4694612D01*
X33194612Y-4982492D01*
X32968426Y-5321003D01*
X32812626Y-5697137D01*
X32733200Y-6096438D01*
X127000Y-6096438D01*
X127000Y-127000D01*
X38572748Y-127000D01*
X38473250Y-50273655D01*
G37*
X38473250Y-50273655D02*
X127000Y-50472341D01*
X127000Y-42496438D01*
X6933200Y-42496438D01*
X6933200Y-42903562D01*
X7012626Y-43302863D01*
X7168426Y-43678997D01*
X7394612Y-44017508D01*
X7682492Y-44305388D01*
X8021003Y-44531574D01*
X8397137Y-44687374D01*
X8796438Y-44766800D01*
X9203562Y-44766800D01*
X9602863Y-44687374D01*
X9978997Y-44531574D01*
X10317508Y-44305388D01*
X10350000Y-44272896D01*
X10382492Y-44305388D01*
X10721003Y-44531574D01*
X11097137Y-44687374D01*
X11496438Y-44766800D01*
X11903562Y-44766800D01*
X12302863Y-44687374D01*
X12678997Y-44531574D01*
X13017508Y-44305388D01*
X13050000Y-44272896D01*
X13082492Y-44305388D01*
X13421003Y-44531574D01*
X13797137Y-44687374D01*
X14196438Y-44766800D01*
X14603562Y-44766800D01*
X15002863Y-44687374D01*
X15378997Y-44531574D01*
X15717508Y-44305388D01*
X15750000Y-44272896D01*
X15782492Y-44305388D01*
X16121003Y-44531574D01*
X16497137Y-44687374D01*
X16896438Y-44766800D01*
X17303562Y-44766800D01*
X17702863Y-44687374D01*
X18078997Y-44531574D01*
X18417508Y-44305388D01*
X18705388Y-44017508D01*
X18931574Y-43678997D01*
X19087374Y-43302863D01*
X19166800Y-42903562D01*
X19166800Y-42496438D01*
X19087374Y-42097137D01*
X18931574Y-41721003D01*
X18705388Y-41382492D01*
X18417508Y-41094612D01*
X18078997Y-40868426D01*
X17702863Y-40712626D01*
X17356733Y-40643776D01*
X17356733Y-39498500D01*
X17334973Y-39277569D01*
X17270530Y-39065129D01*
X17165880Y-38869343D01*
X17108972Y-38800000D01*
X17165880Y-38730657D01*
X17175922Y-38711869D01*
X17365088Y-38610758D01*
X17567150Y-38444930D01*
X17608705Y-38394295D01*
X18240596Y-37762404D01*
X18291230Y-37720850D01*
X18457058Y-37518788D01*
X18533788Y-37375237D01*
X18655590Y-37387233D01*
X19093090Y-37387233D01*
X19356697Y-37361270D01*
X19610173Y-37284379D01*
X19661840Y-37256762D01*
X19713507Y-37284379D01*
X19966983Y-37361270D01*
X20230590Y-37387233D01*
X20668090Y-37387233D01*
X20931697Y-37361270D01*
X21013546Y-37336442D01*
X21082492Y-37405388D01*
X21421003Y-37631574D01*
X21797137Y-37787374D01*
X22196438Y-37866800D01*
X22603562Y-37866800D01*
X23002863Y-37787374D01*
X23378997Y-37631574D01*
X23717508Y-37405388D01*
X24005388Y-37117508D01*
X24231574Y-36778997D01*
X24387374Y-36402863D01*
X24466800Y-36003562D01*
X24466800Y-35596438D01*
X24387374Y-35197137D01*
X24231574Y-34821003D01*
X24005388Y-34482492D01*
X23717508Y-34194612D01*
X23378997Y-33968426D01*
X23002863Y-33812626D01*
X22744641Y-33761262D01*
X22785693Y-33625931D01*
X22807453Y-33405000D01*
X22807453Y-32805000D01*
X22785693Y-32584069D01*
X22751091Y-32470000D01*
X22785693Y-32355931D01*
X22807453Y-32135000D01*
X22807453Y-31535000D01*
X22785693Y-31314069D01*
X22751091Y-31200000D01*
X22785693Y-31085931D01*
X22807453Y-30865000D01*
X22807453Y-30265000D01*
X22785693Y-30044069D01*
X22751091Y-29930000D01*
X22785693Y-29815931D01*
X22807453Y-29595000D01*
X22807453Y-28995000D01*
X22785693Y-28774069D01*
X22721250Y-28561629D01*
X22698893Y-28519802D01*
X22745540Y-28432531D01*
X22809983Y-28220091D01*
X22831743Y-27999160D01*
X22831743Y-26200840D01*
X22809983Y-25979909D01*
X22745540Y-25767469D01*
X22640890Y-25571683D01*
X22500055Y-25400075D01*
X22328447Y-25259240D01*
X22132661Y-25154590D01*
X22054293Y-25130817D01*
X22054293Y-23534780D01*
X22032533Y-23313849D01*
X21968090Y-23101409D01*
X21863440Y-22905623D01*
X21722605Y-22734015D01*
X21550997Y-22593180D01*
X21355211Y-22488530D01*
X21142771Y-22424087D01*
X20921840Y-22402327D01*
X17921840Y-22402327D01*
X17700909Y-22424087D01*
X17488469Y-22488530D01*
X17292683Y-22593180D01*
X17121075Y-22734015D01*
X16980240Y-22905623D01*
X16875590Y-23101409D01*
X16811147Y-23313849D01*
X16789387Y-23534780D01*
X16789387Y-25134780D01*
X16811147Y-25355711D01*
X16875590Y-25568151D01*
X16980240Y-25763937D01*
X17121075Y-25935545D01*
X17271361Y-26058881D01*
X17271361Y-26154052D01*
X17256850Y-26171733D01*
X17152200Y-26367519D01*
X17087757Y-26579959D01*
X17065997Y-26800890D01*
X17065997Y-27799110D01*
X17087757Y-28020041D01*
X17152200Y-28232481D01*
X17256850Y-28428267D01*
X17397685Y-28599875D01*
X17569293Y-28740710D01*
X17765079Y-28845360D01*
X17977519Y-28909803D01*
X18198450Y-28931563D01*
X18998795Y-28931563D01*
X18992547Y-28995000D01*
X18992547Y-29595000D01*
X19014307Y-29815931D01*
X19048909Y-29930000D01*
X19014307Y-30044069D01*
X18992547Y-30265000D01*
X18992547Y-30865000D01*
X19014307Y-31085931D01*
X19048909Y-31200000D01*
X19014307Y-31314069D01*
X18992547Y-31535000D01*
X18992547Y-32135000D01*
X19014307Y-32355931D01*
X19048909Y-32470000D01*
X19014307Y-32584069D01*
X18992547Y-32805000D01*
X18992547Y-33405000D01*
X19014307Y-33625931D01*
X19078750Y-33838371D01*
X19183400Y-34034157D01*
X19314706Y-34194154D01*
X19093090Y-34172327D01*
X18825360Y-34172327D01*
X18825360Y-32280913D01*
X18832506Y-32208360D01*
X18814913Y-32029734D01*
X18803989Y-31918817D01*
X18719532Y-31640402D01*
X18648692Y-31507870D01*
X18582383Y-31383813D01*
X18512262Y-31298371D01*
X18397810Y-31158910D01*
X18341445Y-31112653D01*
X18070709Y-30841917D01*
X18024450Y-30785550D01*
X17799547Y-30600978D01*
X17542958Y-30463828D01*
X17407453Y-30422723D01*
X17407453Y-30265000D01*
X17385693Y-30044069D01*
X17351091Y-29930000D01*
X17385693Y-29815931D01*
X17407453Y-29595000D01*
X17407453Y-28995000D01*
X17385693Y-28774069D01*
X17321250Y-28561629D01*
X17216600Y-28365843D01*
X17075765Y-28194235D01*
X16904157Y-28053400D01*
X16708371Y-27948750D01*
X16495931Y-27884307D01*
X16275000Y-27862547D01*
X15768328Y-27862547D01*
X15577637Y-27804701D01*
X15533877Y-27800391D01*
X15534003Y-27799110D01*
X15534003Y-26800890D01*
X15512243Y-26579959D01*
X15447800Y-26367519D01*
X15343150Y-26171733D01*
X15202315Y-26000125D01*
X15030707Y-25859290D01*
X14834921Y-25754640D01*
X14622481Y-25690197D01*
X14401550Y-25668437D01*
X13301730Y-25668437D01*
X13080799Y-25690197D01*
X12868359Y-25754640D01*
X12672573Y-25859290D01*
X12500965Y-26000125D01*
X12360130Y-26171733D01*
X12255480Y-26367519D01*
X12191037Y-26579959D01*
X12169277Y-26800890D01*
X12169277Y-27299475D01*
X11970931Y-27239307D01*
X11750000Y-27217547D01*
X10250000Y-27217547D01*
X10029069Y-27239307D01*
X9816629Y-27303750D01*
X9620843Y-27408400D01*
X9449235Y-27549235D01*
X9308400Y-27720843D01*
X9203750Y-27916629D01*
X9139307Y-28129069D01*
X9117547Y-28350000D01*
X9117547Y-29850000D01*
X9139307Y-30070931D01*
X9203750Y-30283371D01*
X9308400Y-30479157D01*
X9449235Y-30650765D01*
X9620843Y-30791600D01*
X9816629Y-30896250D01*
X10029069Y-30960693D01*
X10250000Y-30982453D01*
X11750000Y-30982453D01*
X11970931Y-30960693D01*
X11997127Y-30952747D01*
X12018510Y-31169857D01*
X12027654Y-31200000D01*
X12018510Y-31230143D01*
X11992547Y-31493750D01*
X11992547Y-31931250D01*
X12018510Y-32194857D01*
X12095401Y-32448333D01*
X12220266Y-32681938D01*
X12388305Y-32886695D01*
X12593062Y-33054734D01*
X12826667Y-33179599D01*
X13080143Y-33256490D01*
X13343750Y-33282453D01*
X13856250Y-33282453D01*
X14119857Y-33256490D01*
X14329760Y-33192817D01*
X14504069Y-33245693D01*
X14725000Y-33267453D01*
X15134057Y-33267453D01*
X15210457Y-33290629D01*
X15427444Y-33312000D01*
X15871360Y-33312000D01*
X15871361Y-34428325D01*
X15871360Y-34428335D01*
X15871360Y-34554053D01*
X15856850Y-34571733D01*
X15752200Y-34767519D01*
X15687757Y-34979959D01*
X15665997Y-35200890D01*
X15665997Y-35771117D01*
X15454709Y-35791927D01*
X15242269Y-35856370D01*
X15046483Y-35961020D01*
X15000000Y-35999168D01*
X14953517Y-35961020D01*
X14757731Y-35856370D01*
X14545291Y-35791927D01*
X14324360Y-35770167D01*
X14194808Y-35770167D01*
X14082363Y-35657723D01*
X14082363Y-35200890D01*
X14060603Y-34979959D01*
X13996160Y-34767519D01*
X13891510Y-34571733D01*
X13750675Y-34400125D01*
X13579067Y-34259290D01*
X13383281Y-34154640D01*
X13170841Y-34090197D01*
X12949910Y-34068437D01*
X11850090Y-34068437D01*
X11629159Y-34090197D01*
X11416719Y-34154640D01*
X11220933Y-34259290D01*
X11049325Y-34400125D01*
X10908490Y-34571733D01*
X10803840Y-34767519D01*
X10739397Y-34979959D01*
X10717637Y-35200890D01*
X10717637Y-36199110D01*
X10739397Y-36420041D01*
X10803840Y-36632481D01*
X10908490Y-36828267D01*
X11049325Y-36999875D01*
X11090046Y-37033294D01*
X8107761Y-40015579D01*
X8057131Y-40057130D01*
X8015580Y-40107760D01*
X8015578Y-40107762D01*
X7891302Y-40259192D01*
X7768081Y-40489723D01*
X7731511Y-40610278D01*
X7692202Y-40739863D01*
X7673000Y-40934816D01*
X7673000Y-40934826D01*
X7666581Y-41000000D01*
X7673000Y-41065174D01*
X7673000Y-41104104D01*
X7394612Y-41382492D01*
X7168426Y-41721003D01*
X7012626Y-42097137D01*
X6933200Y-42496438D01*
X127000Y-42496438D01*
X127000Y-11150000D01*
X10217547Y-11150000D01*
X10217547Y-12650000D01*
X10239307Y-12870931D01*
X10303750Y-13083371D01*
X10408400Y-13279157D01*
X10549235Y-13450765D01*
X10720843Y-13591600D01*
X10916629Y-13696250D01*
X11129069Y-13760693D01*
X11350000Y-13782453D01*
X12850000Y-13782453D01*
X13070931Y-13760693D01*
X13283371Y-13696250D01*
X13479157Y-13591600D01*
X13650765Y-13450765D01*
X13719106Y-13367491D01*
X13839543Y-13355629D01*
X14117958Y-13271172D01*
X14374547Y-13134022D01*
X14599450Y-12949450D01*
X14645709Y-12893083D01*
X14961792Y-12577000D01*
X17220181Y-12577000D01*
X17123560Y-12694733D01*
X17018910Y-12890519D01*
X16954467Y-13102959D01*
X16932707Y-13323890D01*
X16932707Y-16323630D01*
X16954467Y-16544561D01*
X17018910Y-16757001D01*
X17123560Y-16952787D01*
X17213001Y-17061771D01*
X17213001Y-18088573D01*
X17121075Y-18164015D01*
X16980240Y-18335623D01*
X16875590Y-18531409D01*
X16811147Y-18743849D01*
X16789387Y-18964780D01*
X16789387Y-20564780D01*
X16811147Y-20785711D01*
X16875590Y-20998151D01*
X16980240Y-21193937D01*
X17121075Y-21365545D01*
X17292683Y-21506380D01*
X17488469Y-21611030D01*
X17700909Y-21675473D01*
X17921840Y-21697233D01*
X20921840Y-21697233D01*
X21142771Y-21675473D01*
X21355211Y-21611030D01*
X21550997Y-21506380D01*
X21722605Y-21365545D01*
X21863440Y-21193937D01*
X21968090Y-20998151D01*
X22032533Y-20785711D01*
X22054293Y-20564780D01*
X22054293Y-18964780D01*
X22032533Y-18743849D01*
X21968090Y-18531409D01*
X21863440Y-18335623D01*
X21722605Y-18164015D01*
X21550997Y-18023180D01*
X21355211Y-17918530D01*
X21142771Y-17854087D01*
X20921840Y-17832327D01*
X20167000Y-17832327D01*
X20167000Y-17061770D01*
X20256440Y-16952787D01*
X20361090Y-16757001D01*
X20425533Y-16544561D01*
X20447293Y-16323630D01*
X20447293Y-13323890D01*
X20425533Y-13102959D01*
X20361090Y-12890519D01*
X20256440Y-12694733D01*
X20159819Y-12577000D01*
X22286888Y-12577000D01*
X22287858Y-12592015D01*
X22203560Y-12694733D01*
X22098910Y-12890519D01*
X22034467Y-13102959D01*
X22012707Y-13323890D01*
X22012707Y-16323630D01*
X22034467Y-16544561D01*
X22098910Y-16757001D01*
X22203560Y-16952787D01*
X22300931Y-17071434D01*
X22314372Y-17207902D01*
X22398829Y-17486318D01*
X22535978Y-17742907D01*
X22638076Y-17867314D01*
X22669277Y-17905332D01*
X22669277Y-17999110D01*
X22691037Y-18220041D01*
X22755480Y-18432481D01*
X22860130Y-18628267D01*
X23000965Y-18799875D01*
X23172573Y-18940710D01*
X23368359Y-19045360D01*
X23580799Y-19109803D01*
X23801730Y-19131563D01*
X24901550Y-19131563D01*
X25122481Y-19109803D01*
X25334921Y-19045360D01*
X25530707Y-18940710D01*
X25702315Y-18799875D01*
X25843150Y-18628267D01*
X25947800Y-18432481D01*
X26012243Y-18220041D01*
X26034003Y-17999110D01*
X26034003Y-17000890D01*
X26012243Y-16779959D01*
X25947800Y-16567519D01*
X25843150Y-16371733D01*
X25702315Y-16200125D01*
X25530707Y-16059290D01*
X25527293Y-16057465D01*
X25527293Y-15450000D01*
X29467547Y-15450000D01*
X29467547Y-17650000D01*
X29489307Y-17870931D01*
X29553750Y-18083371D01*
X29658400Y-18279157D01*
X29799235Y-18450765D01*
X29970843Y-18591600D01*
X30166629Y-18696250D01*
X30379069Y-18760693D01*
X30600000Y-18782453D01*
X34400000Y-18782453D01*
X34620931Y-18760693D01*
X34833371Y-18696250D01*
X35029157Y-18591600D01*
X35200765Y-18450765D01*
X35341600Y-18279157D01*
X35446250Y-18083371D01*
X35510693Y-17870931D01*
X35532453Y-17650000D01*
X35532453Y-15450000D01*
X35510693Y-15229069D01*
X35446250Y-15016629D01*
X35341600Y-14820843D01*
X35200765Y-14649235D01*
X35029157Y-14508400D01*
X34833371Y-14403750D01*
X34620931Y-14339307D01*
X34400000Y-14317547D01*
X30600000Y-14317547D01*
X30379069Y-14339307D01*
X30166629Y-14403750D01*
X29970843Y-14508400D01*
X29799235Y-14649235D01*
X29658400Y-14820843D01*
X29553750Y-15016629D01*
X29489307Y-15229069D01*
X29467547Y-15450000D01*
X25527293Y-15450000D01*
X25527293Y-13323890D01*
X25505533Y-13102959D01*
X25486704Y-13040888D01*
X26303478Y-12277286D01*
X26304697Y-12276526D01*
X26374958Y-12210584D01*
X26449450Y-12149450D01*
X26525970Y-12056209D01*
X26605599Y-11965576D01*
X26606322Y-11964326D01*
X26814022Y-11727000D01*
X28386650Y-11727000D01*
X28403750Y-11783371D01*
X28508400Y-11979157D01*
X28649235Y-12150765D01*
X28820843Y-12291600D01*
X29016629Y-12396250D01*
X29229069Y-12460693D01*
X29450000Y-12482453D01*
X30950000Y-12482453D01*
X31170931Y-12460693D01*
X31383371Y-12396250D01*
X31579157Y-12291600D01*
X31750765Y-12150765D01*
X31891600Y-11979157D01*
X31996250Y-11783371D01*
X32060693Y-11570931D01*
X32082453Y-11350000D01*
X32082453Y-9150000D01*
X32060693Y-8929069D01*
X31996250Y-8716629D01*
X31891600Y-8520843D01*
X31750765Y-8349235D01*
X31579157Y-8208400D01*
X31383371Y-8103750D01*
X31170931Y-8039307D01*
X30950000Y-8017547D01*
X29450000Y-8017547D01*
X29229069Y-8039307D01*
X29016629Y-8103750D01*
X28820843Y-8208400D01*
X28649235Y-8349235D01*
X28508400Y-8520843D01*
X28403750Y-8716629D01*
X28386650Y-8773000D01*
X26167274Y-8773000D01*
X26045304Y-8769132D01*
X25950257Y-8784925D01*
X25854347Y-8794371D01*
X25807040Y-8808722D01*
X25758295Y-8816821D01*
X25668158Y-8850851D01*
X25575932Y-8878828D01*
X25532343Y-8902127D01*
X25486104Y-8919584D01*
X25404324Y-8970555D01*
X25319343Y-9015978D01*
X25281136Y-9047333D01*
X25239193Y-9073475D01*
X25168937Y-9139412D01*
X25094440Y-9200550D01*
X25017003Y-9294908D01*
X24729868Y-9623000D01*
X14422553Y-9623000D01*
X14350000Y-9615854D01*
X14277447Y-9623000D01*
X14277444Y-9623000D01*
X14060457Y-9644371D01*
X13782042Y-9728828D01*
X13525453Y-9865977D01*
X13490819Y-9894401D01*
X13300550Y-10050550D01*
X13262168Y-10097318D01*
X13070931Y-10039307D01*
X12850000Y-10017547D01*
X11350000Y-10017547D01*
X11129069Y-10039307D01*
X10916629Y-10103750D01*
X10720843Y-10208400D01*
X10549235Y-10349235D01*
X10408400Y-10520843D01*
X10303750Y-10716629D01*
X10239307Y-10929069D01*
X10217547Y-11150000D01*
X127000Y-11150000D01*
X127000Y-6096438D01*
X32733200Y-6096438D01*
X32733200Y-6503562D01*
X32812626Y-6902863D01*
X32968426Y-7278997D01*
X33194612Y-7617508D01*
X33323000Y-7745896D01*
X33323001Y-8288697D01*
X33249235Y-8349235D01*
X33108400Y-8520843D01*
X33003750Y-8716629D01*
X32939307Y-8929069D01*
X32917547Y-9150000D01*
X32917547Y-11350000D01*
X32939307Y-11570931D01*
X33003750Y-11783371D01*
X33108400Y-11979157D01*
X33249235Y-12150765D01*
X33420843Y-12291600D01*
X33616629Y-12396250D01*
X33829069Y-12460693D01*
X34050000Y-12482453D01*
X35550000Y-12482453D01*
X35770931Y-12460693D01*
X35983371Y-12396250D01*
X36179157Y-12291600D01*
X36350765Y-12150765D01*
X36491600Y-11979157D01*
X36596250Y-11783371D01*
X36660693Y-11570931D01*
X36682453Y-11350000D01*
X36682453Y-9150000D01*
X36660693Y-8929069D01*
X36596250Y-8716629D01*
X36491600Y-8520843D01*
X36350765Y-8349235D01*
X36277000Y-8288698D01*
X36277000Y-7745896D01*
X36405388Y-7617508D01*
X36631574Y-7278997D01*
X36787374Y-6902863D01*
X36866800Y-6503562D01*
X36866800Y-6096438D01*
X36787374Y-5697137D01*
X36631574Y-5321003D01*
X36405388Y-4982492D01*
X36117508Y-4694612D01*
X35778997Y-4468426D01*
X35402863Y-4312626D01*
X35003562Y-4233200D01*
X34596438Y-4233200D01*
X34197137Y-4312626D01*
X33821003Y-4468426D01*
X33482492Y-4694612D01*
X33194612Y-4982492D01*
X32968426Y-5321003D01*
X32812626Y-5697137D01*
X32733200Y-6096438D01*
X127000Y-6096438D01*
X127000Y-127000D01*
X38572748Y-127000D01*
X38473250Y-50273655D01*
M02*
