G04 #@! TF.GenerationSoftware,KiCad,Pcbnew,5.1.5+dfsg1-2~bpo9+1*
G04 #@! TF.CreationDate,2020-08-10T15:30:31-04:00*
G04 #@! TF.ProjectId,power_sensor,706f7765-725f-4736-956e-736f722e6b69,rev?*
G04 #@! TF.SameCoordinates,PX4cace80PY51bada0*
G04 #@! TF.FileFunction,Legend,Top*
G04 #@! TF.FilePolarity,Positive*
%FSLAX46Y46*%
G04 Gerber Fmt 4.6, Leading zero omitted, Abs format (unit mm)*
G04 Created by KiCad (PCBNEW 5.1.5+dfsg1-2~bpo9+1) date 2020-08-10 15:30:31*
%MOMM*%
%LPD*%
G04 APERTURE LIST*
%ADD10C,0.066040*%
%ADD11C,0.120000*%
%ADD12C,0.127000*%
%ADD13C,0.150000*%
G04 APERTURE END LIST*
D10*
X5899720Y-3998121D02*
X5300280Y-3998121D01*
X5300280Y-3998121D02*
X5300280Y-3601881D01*
X5899720Y-3601881D02*
X5300280Y-3601881D01*
X5899720Y-3998121D02*
X5899720Y-3601881D01*
X1398120Y-6600280D02*
X1398120Y-7199720D01*
X1398120Y-7199720D02*
X1001880Y-7199720D01*
X1001880Y-6600280D02*
X1001880Y-7199720D01*
X1398120Y-6600280D02*
X1001880Y-6600280D01*
X4599720Y-3998120D02*
X4000280Y-3998120D01*
X4000280Y-3998120D02*
X4000280Y-3601880D01*
X4599720Y-3601880D02*
X4000280Y-3601880D01*
X4599720Y-3998120D02*
X4599720Y-3601880D01*
D11*
X5250000Y-6850000D02*
X5250000Y-4950000D01*
X7150000Y-6850000D02*
X5250000Y-6850000D01*
X7150000Y-4950000D02*
X7150000Y-6850000D01*
X5250000Y-4950000D02*
X7150000Y-4950000D01*
X2940000Y-5320000D02*
X4400000Y-5320000D01*
X2940000Y-8480000D02*
X5100000Y-8480000D01*
X2940000Y-8480000D02*
X2940000Y-7550000D01*
X2940000Y-5320000D02*
X2940000Y-6250000D01*
D12*
X4605771Y-3901601D02*
X4315485Y-4104801D01*
X4605771Y-4249943D02*
X3996171Y-4249943D01*
X3996171Y-4017715D01*
X4025200Y-3959658D01*
X4054228Y-3930629D01*
X4112285Y-3901601D01*
X4199371Y-3901601D01*
X4257428Y-3930629D01*
X4286457Y-3959658D01*
X4315485Y-4017715D01*
X4315485Y-4249943D01*
X3996171Y-3350058D02*
X3996171Y-3640343D01*
X4286457Y-3669372D01*
X4257428Y-3640343D01*
X4228400Y-3582286D01*
X4228400Y-3437143D01*
X4257428Y-3379086D01*
X4286457Y-3350058D01*
X4344514Y-3321029D01*
X4489657Y-3321029D01*
X4547714Y-3350058D01*
X4576742Y-3379086D01*
X4605771Y-3437143D01*
X4605771Y-3582286D01*
X4576742Y-3640343D01*
X4547714Y-3669372D01*
X7145771Y-4162858D02*
X7145771Y-4511201D01*
X7145771Y-4337029D02*
X6536171Y-4337029D01*
X6623257Y-4395086D01*
X6681314Y-4453143D01*
X6710342Y-4511201D01*
X6536171Y-3785486D02*
X6536171Y-3727429D01*
X6565200Y-3669372D01*
X6594228Y-3640343D01*
X6652285Y-3611315D01*
X6768400Y-3582286D01*
X6913542Y-3582286D01*
X7029657Y-3611315D01*
X7087714Y-3640343D01*
X7116742Y-3669372D01*
X7145771Y-3727429D01*
X7145771Y-3785486D01*
X7116742Y-3843543D01*
X7087714Y-3872572D01*
X7029657Y-3901601D01*
X6913542Y-3930629D01*
X6768400Y-3930629D01*
X6652285Y-3901601D01*
X6594228Y-3872572D01*
X6565200Y-3843543D01*
X6536171Y-3785486D01*
X7145771Y-3321029D02*
X6536171Y-3321029D01*
X6913542Y-3262972D02*
X7145771Y-3088801D01*
X6739371Y-3088801D02*
X6971600Y-3321029D01*
X1098400Y-8387714D02*
X1069371Y-8416742D01*
X982285Y-8445771D01*
X924228Y-8445771D01*
X837142Y-8416742D01*
X779085Y-8358685D01*
X750057Y-8300628D01*
X721028Y-8184514D01*
X721028Y-8097428D01*
X750057Y-7981314D01*
X779085Y-7923257D01*
X837142Y-7865200D01*
X924228Y-7836171D01*
X982285Y-7836171D01*
X1069371Y-7865200D01*
X1098400Y-7894228D01*
X1649942Y-7836171D02*
X1359657Y-7836171D01*
X1330628Y-8126457D01*
X1359657Y-8097428D01*
X1417714Y-8068400D01*
X1562857Y-8068400D01*
X1620914Y-8097428D01*
X1649942Y-8126457D01*
X1678971Y-8184514D01*
X1678971Y-8329657D01*
X1649942Y-8387714D01*
X1620914Y-8416742D01*
X1562857Y-8445771D01*
X1417714Y-8445771D01*
X1359657Y-8416742D01*
X1330628Y-8387714D01*
X604914Y-5905771D02*
X256571Y-5905771D01*
X430742Y-5905771D02*
X430742Y-5296171D01*
X372685Y-5383257D01*
X314628Y-5441314D01*
X256571Y-5470342D01*
X1330628Y-5499371D02*
X1330628Y-5905771D01*
X1330628Y-5557428D02*
X1359657Y-5528400D01*
X1417714Y-5499371D01*
X1504800Y-5499371D01*
X1562857Y-5528400D01*
X1591885Y-5586457D01*
X1591885Y-5905771D01*
X2085371Y-5586457D02*
X1882171Y-5586457D01*
X1882171Y-5905771D02*
X1882171Y-5296171D01*
X2172457Y-5296171D01*
X3247714Y-3901600D02*
X3276742Y-3930628D01*
X3305771Y-4017714D01*
X3305771Y-4075771D01*
X3276742Y-4162857D01*
X3218685Y-4220914D01*
X3160628Y-4249942D01*
X3044514Y-4278971D01*
X2957428Y-4278971D01*
X2841314Y-4249942D01*
X2783257Y-4220914D01*
X2725200Y-4162857D01*
X2696171Y-4075771D01*
X2696171Y-4017714D01*
X2725200Y-3930628D01*
X2754228Y-3901600D01*
X2899371Y-3379085D02*
X3305771Y-3379085D01*
X2667142Y-3524228D02*
X3102571Y-3669371D01*
X3102571Y-3292000D01*
X5845771Y-4395085D02*
X5845771Y-4743428D01*
X5845771Y-4569257D02*
X5236171Y-4569257D01*
X5323257Y-4627314D01*
X5381314Y-4685371D01*
X5410342Y-4743428D01*
X5439371Y-3669371D02*
X5845771Y-3669371D01*
X5497428Y-3669371D02*
X5468400Y-3640342D01*
X5439371Y-3582285D01*
X5439371Y-3495200D01*
X5468400Y-3437142D01*
X5526457Y-3408114D01*
X5845771Y-3408114D01*
X5526457Y-2914628D02*
X5526457Y-3117828D01*
X5845771Y-3117828D02*
X5236171Y-3117828D01*
X5236171Y-2827542D01*
D13*
X5461904Y-4704380D02*
X5461904Y-3704380D01*
X5842857Y-3704380D01*
X5938095Y-3752000D01*
X5985714Y-3799619D01*
X6033333Y-3894857D01*
X6033333Y-4037714D01*
X5985714Y-4132952D01*
X5938095Y-4180571D01*
X5842857Y-4228190D01*
X5461904Y-4228190D01*
X6366666Y-3704380D02*
X6985714Y-3704380D01*
X6652380Y-4085333D01*
X6795238Y-4085333D01*
X6890476Y-4132952D01*
X6938095Y-4180571D01*
X6985714Y-4275809D01*
X6985714Y-4513904D01*
X6938095Y-4609142D01*
X6890476Y-4656761D01*
X6795238Y-4704380D01*
X6509523Y-4704380D01*
X6414285Y-4656761D01*
X6366666Y-4609142D01*
X2961904Y-9852380D02*
X2961904Y-8852380D01*
X3200000Y-8852380D01*
X3342857Y-8900000D01*
X3438095Y-8995238D01*
X3485714Y-9090476D01*
X3533333Y-9280952D01*
X3533333Y-9423809D01*
X3485714Y-9614285D01*
X3438095Y-9709523D01*
X3342857Y-9804761D01*
X3200000Y-9852380D01*
X2961904Y-9852380D01*
X4390476Y-9185714D02*
X4390476Y-9852380D01*
X4152380Y-8804761D02*
X3914285Y-9519047D01*
X4533333Y-9519047D01*
M02*
