G04 #@! TF.GenerationSoftware,KiCad,Pcbnew,5.1.5+dfsg1-2~bpo9+1*
G04 #@! TF.CreationDate,2020-08-13T16:55:44-04:00*
G04 #@! TF.ProjectId,coplanar_VCO,636f706c-616e-4617-925f-56434f2e6b69,rev?*
G04 #@! TF.SameCoordinates,PXe0cae0PY9b0780*
G04 #@! TF.FileFunction,Copper,L1,Top*
G04 #@! TF.FilePolarity,Positive*
%FSLAX46Y46*%
G04 Gerber Fmt 4.6, Leading zero omitted, Abs format (unit mm)*
G04 Created by KiCad (PCBNEW 5.1.5+dfsg1-2~bpo9+1) date 2020-08-13 16:55:44*
%MOMM*%
%LPD*%
G04 APERTURE LIST*
%ADD10R,1.099820X0.998220*%
%ADD11R,0.998220X1.099820*%
%ADD12C,0.150000*%
%ADD13R,1.500000X1.500000*%
%ADD14R,0.800000X0.900000*%
%ADD15R,1.000000X1.000000*%
%ADD16R,0.650000X1.000000*%
%ADD17R,1.000000X0.650000*%
%ADD18R,2.600000X2.600000*%
%ADD19R,0.300000X0.850000*%
%ADD20R,0.850000X0.300000*%
%ADD21R,0.850000X0.200000*%
%ADD22R,0.850000X0.250000*%
%ADD23C,0.250000*%
%ADD24C,0.350000*%
%ADD25C,0.300000*%
%ADD26C,1.000000*%
%ADD27C,0.254000*%
G04 APERTURE END LIST*
D10*
X19827240Y-18491200D03*
X21523960Y-18491200D03*
X27533600Y-4927600D03*
X25836880Y-4927600D03*
X29448760Y-18491200D03*
X27752040Y-18491200D03*
D11*
X3606800Y-9006840D03*
X3606800Y-10703560D03*
D10*
X7701280Y-16306800D03*
X9398000Y-16306800D03*
G04 #@! TA.AperFunction,SMDPad,CuDef*
D12*
G36*
X22841758Y-10348710D02*
G01*
X22856076Y-10350834D01*
X22870117Y-10354351D01*
X22883746Y-10359228D01*
X22896831Y-10365417D01*
X22909247Y-10372858D01*
X22920873Y-10381481D01*
X22931598Y-10391202D01*
X22941319Y-10401927D01*
X22949942Y-10413553D01*
X22957383Y-10425969D01*
X22963572Y-10439054D01*
X22968449Y-10452683D01*
X22971966Y-10466724D01*
X22974090Y-10481042D01*
X22974800Y-10495500D01*
X22974800Y-10840500D01*
X22974090Y-10854958D01*
X22971966Y-10869276D01*
X22968449Y-10883317D01*
X22963572Y-10896946D01*
X22957383Y-10910031D01*
X22949942Y-10922447D01*
X22941319Y-10934073D01*
X22931598Y-10944798D01*
X22920873Y-10954519D01*
X22909247Y-10963142D01*
X22896831Y-10970583D01*
X22883746Y-10976772D01*
X22870117Y-10981649D01*
X22856076Y-10985166D01*
X22841758Y-10987290D01*
X22827300Y-10988000D01*
X22532300Y-10988000D01*
X22517842Y-10987290D01*
X22503524Y-10985166D01*
X22489483Y-10981649D01*
X22475854Y-10976772D01*
X22462769Y-10970583D01*
X22450353Y-10963142D01*
X22438727Y-10954519D01*
X22428002Y-10944798D01*
X22418281Y-10934073D01*
X22409658Y-10922447D01*
X22402217Y-10910031D01*
X22396028Y-10896946D01*
X22391151Y-10883317D01*
X22387634Y-10869276D01*
X22385510Y-10854958D01*
X22384800Y-10840500D01*
X22384800Y-10495500D01*
X22385510Y-10481042D01*
X22387634Y-10466724D01*
X22391151Y-10452683D01*
X22396028Y-10439054D01*
X22402217Y-10425969D01*
X22409658Y-10413553D01*
X22418281Y-10401927D01*
X22428002Y-10391202D01*
X22438727Y-10381481D01*
X22450353Y-10372858D01*
X22462769Y-10365417D01*
X22475854Y-10359228D01*
X22489483Y-10354351D01*
X22503524Y-10350834D01*
X22517842Y-10348710D01*
X22532300Y-10348000D01*
X22827300Y-10348000D01*
X22841758Y-10348710D01*
G37*
G04 #@! TD.AperFunction*
G04 #@! TA.AperFunction,SMDPad,CuDef*
G36*
X23811758Y-10348710D02*
G01*
X23826076Y-10350834D01*
X23840117Y-10354351D01*
X23853746Y-10359228D01*
X23866831Y-10365417D01*
X23879247Y-10372858D01*
X23890873Y-10381481D01*
X23901598Y-10391202D01*
X23911319Y-10401927D01*
X23919942Y-10413553D01*
X23927383Y-10425969D01*
X23933572Y-10439054D01*
X23938449Y-10452683D01*
X23941966Y-10466724D01*
X23944090Y-10481042D01*
X23944800Y-10495500D01*
X23944800Y-10840500D01*
X23944090Y-10854958D01*
X23941966Y-10869276D01*
X23938449Y-10883317D01*
X23933572Y-10896946D01*
X23927383Y-10910031D01*
X23919942Y-10922447D01*
X23911319Y-10934073D01*
X23901598Y-10944798D01*
X23890873Y-10954519D01*
X23879247Y-10963142D01*
X23866831Y-10970583D01*
X23853746Y-10976772D01*
X23840117Y-10981649D01*
X23826076Y-10985166D01*
X23811758Y-10987290D01*
X23797300Y-10988000D01*
X23502300Y-10988000D01*
X23487842Y-10987290D01*
X23473524Y-10985166D01*
X23459483Y-10981649D01*
X23445854Y-10976772D01*
X23432769Y-10970583D01*
X23420353Y-10963142D01*
X23408727Y-10954519D01*
X23398002Y-10944798D01*
X23388281Y-10934073D01*
X23379658Y-10922447D01*
X23372217Y-10910031D01*
X23366028Y-10896946D01*
X23361151Y-10883317D01*
X23357634Y-10869276D01*
X23355510Y-10854958D01*
X23354800Y-10840500D01*
X23354800Y-10495500D01*
X23355510Y-10481042D01*
X23357634Y-10466724D01*
X23361151Y-10452683D01*
X23366028Y-10439054D01*
X23372217Y-10425969D01*
X23379658Y-10413553D01*
X23388281Y-10401927D01*
X23398002Y-10391202D01*
X23408727Y-10381481D01*
X23420353Y-10372858D01*
X23432769Y-10365417D01*
X23445854Y-10359228D01*
X23459483Y-10354351D01*
X23473524Y-10350834D01*
X23487842Y-10348710D01*
X23502300Y-10348000D01*
X23797300Y-10348000D01*
X23811758Y-10348710D01*
G37*
G04 #@! TD.AperFunction*
G04 #@! TA.AperFunction,SMDPad,CuDef*
G36*
X20324758Y-10348710D02*
G01*
X20339076Y-10350834D01*
X20353117Y-10354351D01*
X20366746Y-10359228D01*
X20379831Y-10365417D01*
X20392247Y-10372858D01*
X20403873Y-10381481D01*
X20414598Y-10391202D01*
X20424319Y-10401927D01*
X20432942Y-10413553D01*
X20440383Y-10425969D01*
X20446572Y-10439054D01*
X20451449Y-10452683D01*
X20454966Y-10466724D01*
X20457090Y-10481042D01*
X20457800Y-10495500D01*
X20457800Y-10840500D01*
X20457090Y-10854958D01*
X20454966Y-10869276D01*
X20451449Y-10883317D01*
X20446572Y-10896946D01*
X20440383Y-10910031D01*
X20432942Y-10922447D01*
X20424319Y-10934073D01*
X20414598Y-10944798D01*
X20403873Y-10954519D01*
X20392247Y-10963142D01*
X20379831Y-10970583D01*
X20366746Y-10976772D01*
X20353117Y-10981649D01*
X20339076Y-10985166D01*
X20324758Y-10987290D01*
X20310300Y-10988000D01*
X20015300Y-10988000D01*
X20000842Y-10987290D01*
X19986524Y-10985166D01*
X19972483Y-10981649D01*
X19958854Y-10976772D01*
X19945769Y-10970583D01*
X19933353Y-10963142D01*
X19921727Y-10954519D01*
X19911002Y-10944798D01*
X19901281Y-10934073D01*
X19892658Y-10922447D01*
X19885217Y-10910031D01*
X19879028Y-10896946D01*
X19874151Y-10883317D01*
X19870634Y-10869276D01*
X19868510Y-10854958D01*
X19867800Y-10840500D01*
X19867800Y-10495500D01*
X19868510Y-10481042D01*
X19870634Y-10466724D01*
X19874151Y-10452683D01*
X19879028Y-10439054D01*
X19885217Y-10425969D01*
X19892658Y-10413553D01*
X19901281Y-10401927D01*
X19911002Y-10391202D01*
X19921727Y-10381481D01*
X19933353Y-10372858D01*
X19945769Y-10365417D01*
X19958854Y-10359228D01*
X19972483Y-10354351D01*
X19986524Y-10350834D01*
X20000842Y-10348710D01*
X20015300Y-10348000D01*
X20310300Y-10348000D01*
X20324758Y-10348710D01*
G37*
G04 #@! TD.AperFunction*
G04 #@! TA.AperFunction,SMDPad,CuDef*
G36*
X21294758Y-10348710D02*
G01*
X21309076Y-10350834D01*
X21323117Y-10354351D01*
X21336746Y-10359228D01*
X21349831Y-10365417D01*
X21362247Y-10372858D01*
X21373873Y-10381481D01*
X21384598Y-10391202D01*
X21394319Y-10401927D01*
X21402942Y-10413553D01*
X21410383Y-10425969D01*
X21416572Y-10439054D01*
X21421449Y-10452683D01*
X21424966Y-10466724D01*
X21427090Y-10481042D01*
X21427800Y-10495500D01*
X21427800Y-10840500D01*
X21427090Y-10854958D01*
X21424966Y-10869276D01*
X21421449Y-10883317D01*
X21416572Y-10896946D01*
X21410383Y-10910031D01*
X21402942Y-10922447D01*
X21394319Y-10934073D01*
X21384598Y-10944798D01*
X21373873Y-10954519D01*
X21362247Y-10963142D01*
X21349831Y-10970583D01*
X21336746Y-10976772D01*
X21323117Y-10981649D01*
X21309076Y-10985166D01*
X21294758Y-10987290D01*
X21280300Y-10988000D01*
X20985300Y-10988000D01*
X20970842Y-10987290D01*
X20956524Y-10985166D01*
X20942483Y-10981649D01*
X20928854Y-10976772D01*
X20915769Y-10970583D01*
X20903353Y-10963142D01*
X20891727Y-10954519D01*
X20881002Y-10944798D01*
X20871281Y-10934073D01*
X20862658Y-10922447D01*
X20855217Y-10910031D01*
X20849028Y-10896946D01*
X20844151Y-10883317D01*
X20840634Y-10869276D01*
X20838510Y-10854958D01*
X20837800Y-10840500D01*
X20837800Y-10495500D01*
X20838510Y-10481042D01*
X20840634Y-10466724D01*
X20844151Y-10452683D01*
X20849028Y-10439054D01*
X20855217Y-10425969D01*
X20862658Y-10413553D01*
X20871281Y-10401927D01*
X20881002Y-10391202D01*
X20891727Y-10381481D01*
X20903353Y-10372858D01*
X20915769Y-10365417D01*
X20928854Y-10359228D01*
X20942483Y-10354351D01*
X20956524Y-10350834D01*
X20970842Y-10348710D01*
X20985300Y-10348000D01*
X21280300Y-10348000D01*
X21294758Y-10348710D01*
G37*
G04 #@! TD.AperFunction*
G04 #@! TA.AperFunction,SMDPad,CuDef*
G36*
X27009358Y-7094710D02*
G01*
X27023676Y-7096834D01*
X27037717Y-7100351D01*
X27051346Y-7105228D01*
X27064431Y-7111417D01*
X27076847Y-7118858D01*
X27088473Y-7127481D01*
X27099198Y-7137202D01*
X27108919Y-7147927D01*
X27117542Y-7159553D01*
X27124983Y-7171969D01*
X27131172Y-7185054D01*
X27136049Y-7198683D01*
X27139566Y-7212724D01*
X27141690Y-7227042D01*
X27142400Y-7241500D01*
X27142400Y-7536500D01*
X27141690Y-7550958D01*
X27139566Y-7565276D01*
X27136049Y-7579317D01*
X27131172Y-7592946D01*
X27124983Y-7606031D01*
X27117542Y-7618447D01*
X27108919Y-7630073D01*
X27099198Y-7640798D01*
X27088473Y-7650519D01*
X27076847Y-7659142D01*
X27064431Y-7666583D01*
X27051346Y-7672772D01*
X27037717Y-7677649D01*
X27023676Y-7681166D01*
X27009358Y-7683290D01*
X26994900Y-7684000D01*
X26649900Y-7684000D01*
X26635442Y-7683290D01*
X26621124Y-7681166D01*
X26607083Y-7677649D01*
X26593454Y-7672772D01*
X26580369Y-7666583D01*
X26567953Y-7659142D01*
X26556327Y-7650519D01*
X26545602Y-7640798D01*
X26535881Y-7630073D01*
X26527258Y-7618447D01*
X26519817Y-7606031D01*
X26513628Y-7592946D01*
X26508751Y-7579317D01*
X26505234Y-7565276D01*
X26503110Y-7550958D01*
X26502400Y-7536500D01*
X26502400Y-7241500D01*
X26503110Y-7227042D01*
X26505234Y-7212724D01*
X26508751Y-7198683D01*
X26513628Y-7185054D01*
X26519817Y-7171969D01*
X26527258Y-7159553D01*
X26535881Y-7147927D01*
X26545602Y-7137202D01*
X26556327Y-7127481D01*
X26567953Y-7118858D01*
X26580369Y-7111417D01*
X26593454Y-7105228D01*
X26607083Y-7100351D01*
X26621124Y-7096834D01*
X26635442Y-7094710D01*
X26649900Y-7094000D01*
X26994900Y-7094000D01*
X27009358Y-7094710D01*
G37*
G04 #@! TD.AperFunction*
G04 #@! TA.AperFunction,SMDPad,CuDef*
G36*
X27009358Y-8064710D02*
G01*
X27023676Y-8066834D01*
X27037717Y-8070351D01*
X27051346Y-8075228D01*
X27064431Y-8081417D01*
X27076847Y-8088858D01*
X27088473Y-8097481D01*
X27099198Y-8107202D01*
X27108919Y-8117927D01*
X27117542Y-8129553D01*
X27124983Y-8141969D01*
X27131172Y-8155054D01*
X27136049Y-8168683D01*
X27139566Y-8182724D01*
X27141690Y-8197042D01*
X27142400Y-8211500D01*
X27142400Y-8506500D01*
X27141690Y-8520958D01*
X27139566Y-8535276D01*
X27136049Y-8549317D01*
X27131172Y-8562946D01*
X27124983Y-8576031D01*
X27117542Y-8588447D01*
X27108919Y-8600073D01*
X27099198Y-8610798D01*
X27088473Y-8620519D01*
X27076847Y-8629142D01*
X27064431Y-8636583D01*
X27051346Y-8642772D01*
X27037717Y-8647649D01*
X27023676Y-8651166D01*
X27009358Y-8653290D01*
X26994900Y-8654000D01*
X26649900Y-8654000D01*
X26635442Y-8653290D01*
X26621124Y-8651166D01*
X26607083Y-8647649D01*
X26593454Y-8642772D01*
X26580369Y-8636583D01*
X26567953Y-8629142D01*
X26556327Y-8620519D01*
X26545602Y-8610798D01*
X26535881Y-8600073D01*
X26527258Y-8588447D01*
X26519817Y-8576031D01*
X26513628Y-8562946D01*
X26508751Y-8549317D01*
X26505234Y-8535276D01*
X26503110Y-8520958D01*
X26502400Y-8506500D01*
X26502400Y-8211500D01*
X26503110Y-8197042D01*
X26505234Y-8182724D01*
X26508751Y-8168683D01*
X26513628Y-8155054D01*
X26519817Y-8141969D01*
X26527258Y-8129553D01*
X26535881Y-8117927D01*
X26545602Y-8107202D01*
X26556327Y-8097481D01*
X26567953Y-8088858D01*
X26580369Y-8081417D01*
X26593454Y-8075228D01*
X26607083Y-8070351D01*
X26621124Y-8066834D01*
X26635442Y-8064710D01*
X26649900Y-8064000D01*
X26994900Y-8064000D01*
X27009358Y-8064710D01*
G37*
G04 #@! TD.AperFunction*
G04 #@! TA.AperFunction,SMDPad,CuDef*
G36*
X24672558Y-6642310D02*
G01*
X24686876Y-6644434D01*
X24700917Y-6647951D01*
X24714546Y-6652828D01*
X24727631Y-6659017D01*
X24740047Y-6666458D01*
X24751673Y-6675081D01*
X24762398Y-6684802D01*
X24772119Y-6695527D01*
X24780742Y-6707153D01*
X24788183Y-6719569D01*
X24794372Y-6732654D01*
X24799249Y-6746283D01*
X24802766Y-6760324D01*
X24804890Y-6774642D01*
X24805600Y-6789100D01*
X24805600Y-7084100D01*
X24804890Y-7098558D01*
X24802766Y-7112876D01*
X24799249Y-7126917D01*
X24794372Y-7140546D01*
X24788183Y-7153631D01*
X24780742Y-7166047D01*
X24772119Y-7177673D01*
X24762398Y-7188398D01*
X24751673Y-7198119D01*
X24740047Y-7206742D01*
X24727631Y-7214183D01*
X24714546Y-7220372D01*
X24700917Y-7225249D01*
X24686876Y-7228766D01*
X24672558Y-7230890D01*
X24658100Y-7231600D01*
X24313100Y-7231600D01*
X24298642Y-7230890D01*
X24284324Y-7228766D01*
X24270283Y-7225249D01*
X24256654Y-7220372D01*
X24243569Y-7214183D01*
X24231153Y-7206742D01*
X24219527Y-7198119D01*
X24208802Y-7188398D01*
X24199081Y-7177673D01*
X24190458Y-7166047D01*
X24183017Y-7153631D01*
X24176828Y-7140546D01*
X24171951Y-7126917D01*
X24168434Y-7112876D01*
X24166310Y-7098558D01*
X24165600Y-7084100D01*
X24165600Y-6789100D01*
X24166310Y-6774642D01*
X24168434Y-6760324D01*
X24171951Y-6746283D01*
X24176828Y-6732654D01*
X24183017Y-6719569D01*
X24190458Y-6707153D01*
X24199081Y-6695527D01*
X24208802Y-6684802D01*
X24219527Y-6675081D01*
X24231153Y-6666458D01*
X24243569Y-6659017D01*
X24256654Y-6652828D01*
X24270283Y-6647951D01*
X24284324Y-6644434D01*
X24298642Y-6642310D01*
X24313100Y-6641600D01*
X24658100Y-6641600D01*
X24672558Y-6642310D01*
G37*
G04 #@! TD.AperFunction*
G04 #@! TA.AperFunction,SMDPad,CuDef*
G36*
X24672558Y-5672310D02*
G01*
X24686876Y-5674434D01*
X24700917Y-5677951D01*
X24714546Y-5682828D01*
X24727631Y-5689017D01*
X24740047Y-5696458D01*
X24751673Y-5705081D01*
X24762398Y-5714802D01*
X24772119Y-5725527D01*
X24780742Y-5737153D01*
X24788183Y-5749569D01*
X24794372Y-5762654D01*
X24799249Y-5776283D01*
X24802766Y-5790324D01*
X24804890Y-5804642D01*
X24805600Y-5819100D01*
X24805600Y-6114100D01*
X24804890Y-6128558D01*
X24802766Y-6142876D01*
X24799249Y-6156917D01*
X24794372Y-6170546D01*
X24788183Y-6183631D01*
X24780742Y-6196047D01*
X24772119Y-6207673D01*
X24762398Y-6218398D01*
X24751673Y-6228119D01*
X24740047Y-6236742D01*
X24727631Y-6244183D01*
X24714546Y-6250372D01*
X24700917Y-6255249D01*
X24686876Y-6258766D01*
X24672558Y-6260890D01*
X24658100Y-6261600D01*
X24313100Y-6261600D01*
X24298642Y-6260890D01*
X24284324Y-6258766D01*
X24270283Y-6255249D01*
X24256654Y-6250372D01*
X24243569Y-6244183D01*
X24231153Y-6236742D01*
X24219527Y-6228119D01*
X24208802Y-6218398D01*
X24199081Y-6207673D01*
X24190458Y-6196047D01*
X24183017Y-6183631D01*
X24176828Y-6170546D01*
X24171951Y-6156917D01*
X24168434Y-6142876D01*
X24166310Y-6128558D01*
X24165600Y-6114100D01*
X24165600Y-5819100D01*
X24166310Y-5804642D01*
X24168434Y-5790324D01*
X24171951Y-5776283D01*
X24176828Y-5762654D01*
X24183017Y-5749569D01*
X24190458Y-5737153D01*
X24199081Y-5725527D01*
X24208802Y-5714802D01*
X24219527Y-5705081D01*
X24231153Y-5696458D01*
X24243569Y-5689017D01*
X24256654Y-5682828D01*
X24270283Y-5677951D01*
X24284324Y-5674434D01*
X24298642Y-5672310D01*
X24313100Y-5671600D01*
X24658100Y-5671600D01*
X24672558Y-5672310D01*
G37*
G04 #@! TD.AperFunction*
G04 #@! TA.AperFunction,SMDPad,CuDef*
G36*
X28129758Y-13955510D02*
G01*
X28144076Y-13957634D01*
X28158117Y-13961151D01*
X28171746Y-13966028D01*
X28184831Y-13972217D01*
X28197247Y-13979658D01*
X28208873Y-13988281D01*
X28219598Y-13998002D01*
X28229319Y-14008727D01*
X28237942Y-14020353D01*
X28245383Y-14032769D01*
X28251572Y-14045854D01*
X28256449Y-14059483D01*
X28259966Y-14073524D01*
X28262090Y-14087842D01*
X28262800Y-14102300D01*
X28262800Y-14447300D01*
X28262090Y-14461758D01*
X28259966Y-14476076D01*
X28256449Y-14490117D01*
X28251572Y-14503746D01*
X28245383Y-14516831D01*
X28237942Y-14529247D01*
X28229319Y-14540873D01*
X28219598Y-14551598D01*
X28208873Y-14561319D01*
X28197247Y-14569942D01*
X28184831Y-14577383D01*
X28171746Y-14583572D01*
X28158117Y-14588449D01*
X28144076Y-14591966D01*
X28129758Y-14594090D01*
X28115300Y-14594800D01*
X27820300Y-14594800D01*
X27805842Y-14594090D01*
X27791524Y-14591966D01*
X27777483Y-14588449D01*
X27763854Y-14583572D01*
X27750769Y-14577383D01*
X27738353Y-14569942D01*
X27726727Y-14561319D01*
X27716002Y-14551598D01*
X27706281Y-14540873D01*
X27697658Y-14529247D01*
X27690217Y-14516831D01*
X27684028Y-14503746D01*
X27679151Y-14490117D01*
X27675634Y-14476076D01*
X27673510Y-14461758D01*
X27672800Y-14447300D01*
X27672800Y-14102300D01*
X27673510Y-14087842D01*
X27675634Y-14073524D01*
X27679151Y-14059483D01*
X27684028Y-14045854D01*
X27690217Y-14032769D01*
X27697658Y-14020353D01*
X27706281Y-14008727D01*
X27716002Y-13998002D01*
X27726727Y-13988281D01*
X27738353Y-13979658D01*
X27750769Y-13972217D01*
X27763854Y-13966028D01*
X27777483Y-13961151D01*
X27791524Y-13957634D01*
X27805842Y-13955510D01*
X27820300Y-13954800D01*
X28115300Y-13954800D01*
X28129758Y-13955510D01*
G37*
G04 #@! TD.AperFunction*
G04 #@! TA.AperFunction,SMDPad,CuDef*
G36*
X27159758Y-13955510D02*
G01*
X27174076Y-13957634D01*
X27188117Y-13961151D01*
X27201746Y-13966028D01*
X27214831Y-13972217D01*
X27227247Y-13979658D01*
X27238873Y-13988281D01*
X27249598Y-13998002D01*
X27259319Y-14008727D01*
X27267942Y-14020353D01*
X27275383Y-14032769D01*
X27281572Y-14045854D01*
X27286449Y-14059483D01*
X27289966Y-14073524D01*
X27292090Y-14087842D01*
X27292800Y-14102300D01*
X27292800Y-14447300D01*
X27292090Y-14461758D01*
X27289966Y-14476076D01*
X27286449Y-14490117D01*
X27281572Y-14503746D01*
X27275383Y-14516831D01*
X27267942Y-14529247D01*
X27259319Y-14540873D01*
X27249598Y-14551598D01*
X27238873Y-14561319D01*
X27227247Y-14569942D01*
X27214831Y-14577383D01*
X27201746Y-14583572D01*
X27188117Y-14588449D01*
X27174076Y-14591966D01*
X27159758Y-14594090D01*
X27145300Y-14594800D01*
X26850300Y-14594800D01*
X26835842Y-14594090D01*
X26821524Y-14591966D01*
X26807483Y-14588449D01*
X26793854Y-14583572D01*
X26780769Y-14577383D01*
X26768353Y-14569942D01*
X26756727Y-14561319D01*
X26746002Y-14551598D01*
X26736281Y-14540873D01*
X26727658Y-14529247D01*
X26720217Y-14516831D01*
X26714028Y-14503746D01*
X26709151Y-14490117D01*
X26705634Y-14476076D01*
X26703510Y-14461758D01*
X26702800Y-14447300D01*
X26702800Y-14102300D01*
X26703510Y-14087842D01*
X26705634Y-14073524D01*
X26709151Y-14059483D01*
X26714028Y-14045854D01*
X26720217Y-14032769D01*
X26727658Y-14020353D01*
X26736281Y-14008727D01*
X26746002Y-13998002D01*
X26756727Y-13988281D01*
X26768353Y-13979658D01*
X26780769Y-13972217D01*
X26793854Y-13966028D01*
X26807483Y-13961151D01*
X26821524Y-13957634D01*
X26835842Y-13955510D01*
X26850300Y-13954800D01*
X27145300Y-13954800D01*
X27159758Y-13955510D01*
G37*
G04 #@! TD.AperFunction*
G04 #@! TA.AperFunction,SMDPad,CuDef*
G36*
X26704558Y-16187910D02*
G01*
X26718876Y-16190034D01*
X26732917Y-16193551D01*
X26746546Y-16198428D01*
X26759631Y-16204617D01*
X26772047Y-16212058D01*
X26783673Y-16220681D01*
X26794398Y-16230402D01*
X26804119Y-16241127D01*
X26812742Y-16252753D01*
X26820183Y-16265169D01*
X26826372Y-16278254D01*
X26831249Y-16291883D01*
X26834766Y-16305924D01*
X26836890Y-16320242D01*
X26837600Y-16334700D01*
X26837600Y-16629700D01*
X26836890Y-16644158D01*
X26834766Y-16658476D01*
X26831249Y-16672517D01*
X26826372Y-16686146D01*
X26820183Y-16699231D01*
X26812742Y-16711647D01*
X26804119Y-16723273D01*
X26794398Y-16733998D01*
X26783673Y-16743719D01*
X26772047Y-16752342D01*
X26759631Y-16759783D01*
X26746546Y-16765972D01*
X26732917Y-16770849D01*
X26718876Y-16774366D01*
X26704558Y-16776490D01*
X26690100Y-16777200D01*
X26345100Y-16777200D01*
X26330642Y-16776490D01*
X26316324Y-16774366D01*
X26302283Y-16770849D01*
X26288654Y-16765972D01*
X26275569Y-16759783D01*
X26263153Y-16752342D01*
X26251527Y-16743719D01*
X26240802Y-16733998D01*
X26231081Y-16723273D01*
X26222458Y-16711647D01*
X26215017Y-16699231D01*
X26208828Y-16686146D01*
X26203951Y-16672517D01*
X26200434Y-16658476D01*
X26198310Y-16644158D01*
X26197600Y-16629700D01*
X26197600Y-16334700D01*
X26198310Y-16320242D01*
X26200434Y-16305924D01*
X26203951Y-16291883D01*
X26208828Y-16278254D01*
X26215017Y-16265169D01*
X26222458Y-16252753D01*
X26231081Y-16241127D01*
X26240802Y-16230402D01*
X26251527Y-16220681D01*
X26263153Y-16212058D01*
X26275569Y-16204617D01*
X26288654Y-16198428D01*
X26302283Y-16193551D01*
X26316324Y-16190034D01*
X26330642Y-16187910D01*
X26345100Y-16187200D01*
X26690100Y-16187200D01*
X26704558Y-16187910D01*
G37*
G04 #@! TD.AperFunction*
G04 #@! TA.AperFunction,SMDPad,CuDef*
G36*
X26704558Y-17157910D02*
G01*
X26718876Y-17160034D01*
X26732917Y-17163551D01*
X26746546Y-17168428D01*
X26759631Y-17174617D01*
X26772047Y-17182058D01*
X26783673Y-17190681D01*
X26794398Y-17200402D01*
X26804119Y-17211127D01*
X26812742Y-17222753D01*
X26820183Y-17235169D01*
X26826372Y-17248254D01*
X26831249Y-17261883D01*
X26834766Y-17275924D01*
X26836890Y-17290242D01*
X26837600Y-17304700D01*
X26837600Y-17599700D01*
X26836890Y-17614158D01*
X26834766Y-17628476D01*
X26831249Y-17642517D01*
X26826372Y-17656146D01*
X26820183Y-17669231D01*
X26812742Y-17681647D01*
X26804119Y-17693273D01*
X26794398Y-17703998D01*
X26783673Y-17713719D01*
X26772047Y-17722342D01*
X26759631Y-17729783D01*
X26746546Y-17735972D01*
X26732917Y-17740849D01*
X26718876Y-17744366D01*
X26704558Y-17746490D01*
X26690100Y-17747200D01*
X26345100Y-17747200D01*
X26330642Y-17746490D01*
X26316324Y-17744366D01*
X26302283Y-17740849D01*
X26288654Y-17735972D01*
X26275569Y-17729783D01*
X26263153Y-17722342D01*
X26251527Y-17713719D01*
X26240802Y-17703998D01*
X26231081Y-17693273D01*
X26222458Y-17681647D01*
X26215017Y-17669231D01*
X26208828Y-17656146D01*
X26203951Y-17642517D01*
X26200434Y-17628476D01*
X26198310Y-17614158D01*
X26197600Y-17599700D01*
X26197600Y-17304700D01*
X26198310Y-17290242D01*
X26200434Y-17275924D01*
X26203951Y-17261883D01*
X26208828Y-17248254D01*
X26215017Y-17235169D01*
X26222458Y-17222753D01*
X26231081Y-17211127D01*
X26240802Y-17200402D01*
X26251527Y-17190681D01*
X26263153Y-17182058D01*
X26275569Y-17174617D01*
X26288654Y-17168428D01*
X26302283Y-17163551D01*
X26316324Y-17160034D01*
X26330642Y-17157910D01*
X26345100Y-17157200D01*
X26690100Y-17157200D01*
X26704558Y-17157910D01*
G37*
G04 #@! TD.AperFunction*
D13*
X24485600Y-4927600D03*
X21844000Y-6248400D03*
X26517600Y-18491200D03*
X26517600Y-15392400D03*
G04 #@! TA.AperFunction,SMDPad,CuDef*
D12*
G36*
X24138261Y-8692914D02*
G01*
X23738261Y-9385734D01*
X22958839Y-8935734D01*
X23358839Y-8242914D01*
X24138261Y-8692914D01*
G37*
G04 #@! TD.AperFunction*
G04 #@! TA.AperFunction,SMDPad,CuDef*
G36*
X26345311Y-8870190D02*
G01*
X25945311Y-9563010D01*
X25165889Y-9113010D01*
X25565889Y-8420190D01*
X26345311Y-8870190D01*
G37*
G04 #@! TD.AperFunction*
G04 #@! TA.AperFunction,SMDPad,CuDef*
G36*
X25395311Y-10515638D02*
G01*
X24995311Y-11208458D01*
X24215889Y-10758458D01*
X24615889Y-10065638D01*
X25395311Y-10515638D01*
G37*
G04 #@! TD.AperFunction*
D14*
X26060400Y-10684000D03*
X27010400Y-12684000D03*
X25110400Y-12684000D03*
G04 #@! TA.AperFunction,SMDPad,CuDef*
D12*
G36*
X26196558Y-7094710D02*
G01*
X26210876Y-7096834D01*
X26224917Y-7100351D01*
X26238546Y-7105228D01*
X26251631Y-7111417D01*
X26264047Y-7118858D01*
X26275673Y-7127481D01*
X26286398Y-7137202D01*
X26296119Y-7147927D01*
X26304742Y-7159553D01*
X26312183Y-7171969D01*
X26318372Y-7185054D01*
X26323249Y-7198683D01*
X26326766Y-7212724D01*
X26328890Y-7227042D01*
X26329600Y-7241500D01*
X26329600Y-7536500D01*
X26328890Y-7550958D01*
X26326766Y-7565276D01*
X26323249Y-7579317D01*
X26318372Y-7592946D01*
X26312183Y-7606031D01*
X26304742Y-7618447D01*
X26296119Y-7630073D01*
X26286398Y-7640798D01*
X26275673Y-7650519D01*
X26264047Y-7659142D01*
X26251631Y-7666583D01*
X26238546Y-7672772D01*
X26224917Y-7677649D01*
X26210876Y-7681166D01*
X26196558Y-7683290D01*
X26182100Y-7684000D01*
X25837100Y-7684000D01*
X25822642Y-7683290D01*
X25808324Y-7681166D01*
X25794283Y-7677649D01*
X25780654Y-7672772D01*
X25767569Y-7666583D01*
X25755153Y-7659142D01*
X25743527Y-7650519D01*
X25732802Y-7640798D01*
X25723081Y-7630073D01*
X25714458Y-7618447D01*
X25707017Y-7606031D01*
X25700828Y-7592946D01*
X25695951Y-7579317D01*
X25692434Y-7565276D01*
X25690310Y-7550958D01*
X25689600Y-7536500D01*
X25689600Y-7241500D01*
X25690310Y-7227042D01*
X25692434Y-7212724D01*
X25695951Y-7198683D01*
X25700828Y-7185054D01*
X25707017Y-7171969D01*
X25714458Y-7159553D01*
X25723081Y-7147927D01*
X25732802Y-7137202D01*
X25743527Y-7127481D01*
X25755153Y-7118858D01*
X25767569Y-7111417D01*
X25780654Y-7105228D01*
X25794283Y-7100351D01*
X25808324Y-7096834D01*
X25822642Y-7094710D01*
X25837100Y-7094000D01*
X26182100Y-7094000D01*
X26196558Y-7094710D01*
G37*
G04 #@! TD.AperFunction*
G04 #@! TA.AperFunction,SMDPad,CuDef*
G36*
X26196558Y-8064710D02*
G01*
X26210876Y-8066834D01*
X26224917Y-8070351D01*
X26238546Y-8075228D01*
X26251631Y-8081417D01*
X26264047Y-8088858D01*
X26275673Y-8097481D01*
X26286398Y-8107202D01*
X26296119Y-8117927D01*
X26304742Y-8129553D01*
X26312183Y-8141969D01*
X26318372Y-8155054D01*
X26323249Y-8168683D01*
X26326766Y-8182724D01*
X26328890Y-8197042D01*
X26329600Y-8211500D01*
X26329600Y-8506500D01*
X26328890Y-8520958D01*
X26326766Y-8535276D01*
X26323249Y-8549317D01*
X26318372Y-8562946D01*
X26312183Y-8576031D01*
X26304742Y-8588447D01*
X26296119Y-8600073D01*
X26286398Y-8610798D01*
X26275673Y-8620519D01*
X26264047Y-8629142D01*
X26251631Y-8636583D01*
X26238546Y-8642772D01*
X26224917Y-8647649D01*
X26210876Y-8651166D01*
X26196558Y-8653290D01*
X26182100Y-8654000D01*
X25837100Y-8654000D01*
X25822642Y-8653290D01*
X25808324Y-8651166D01*
X25794283Y-8647649D01*
X25780654Y-8642772D01*
X25767569Y-8636583D01*
X25755153Y-8629142D01*
X25743527Y-8620519D01*
X25732802Y-8610798D01*
X25723081Y-8600073D01*
X25714458Y-8588447D01*
X25707017Y-8576031D01*
X25700828Y-8562946D01*
X25695951Y-8549317D01*
X25692434Y-8535276D01*
X25690310Y-8520958D01*
X25689600Y-8506500D01*
X25689600Y-8211500D01*
X25690310Y-8197042D01*
X25692434Y-8182724D01*
X25695951Y-8168683D01*
X25700828Y-8155054D01*
X25707017Y-8141969D01*
X25714458Y-8129553D01*
X25723081Y-8117927D01*
X25732802Y-8107202D01*
X25743527Y-8097481D01*
X25755153Y-8088858D01*
X25767569Y-8081417D01*
X25780654Y-8075228D01*
X25794283Y-8070351D01*
X25808324Y-8066834D01*
X25822642Y-8064710D01*
X25837100Y-8064000D01*
X26182100Y-8064000D01*
X26196558Y-8064710D01*
G37*
G04 #@! TD.AperFunction*
G04 #@! TA.AperFunction,SMDPad,CuDef*
G36*
X28129758Y-13142710D02*
G01*
X28144076Y-13144834D01*
X28158117Y-13148351D01*
X28171746Y-13153228D01*
X28184831Y-13159417D01*
X28197247Y-13166858D01*
X28208873Y-13175481D01*
X28219598Y-13185202D01*
X28229319Y-13195927D01*
X28237942Y-13207553D01*
X28245383Y-13219969D01*
X28251572Y-13233054D01*
X28256449Y-13246683D01*
X28259966Y-13260724D01*
X28262090Y-13275042D01*
X28262800Y-13289500D01*
X28262800Y-13634500D01*
X28262090Y-13648958D01*
X28259966Y-13663276D01*
X28256449Y-13677317D01*
X28251572Y-13690946D01*
X28245383Y-13704031D01*
X28237942Y-13716447D01*
X28229319Y-13728073D01*
X28219598Y-13738798D01*
X28208873Y-13748519D01*
X28197247Y-13757142D01*
X28184831Y-13764583D01*
X28171746Y-13770772D01*
X28158117Y-13775649D01*
X28144076Y-13779166D01*
X28129758Y-13781290D01*
X28115300Y-13782000D01*
X27820300Y-13782000D01*
X27805842Y-13781290D01*
X27791524Y-13779166D01*
X27777483Y-13775649D01*
X27763854Y-13770772D01*
X27750769Y-13764583D01*
X27738353Y-13757142D01*
X27726727Y-13748519D01*
X27716002Y-13738798D01*
X27706281Y-13728073D01*
X27697658Y-13716447D01*
X27690217Y-13704031D01*
X27684028Y-13690946D01*
X27679151Y-13677317D01*
X27675634Y-13663276D01*
X27673510Y-13648958D01*
X27672800Y-13634500D01*
X27672800Y-13289500D01*
X27673510Y-13275042D01*
X27675634Y-13260724D01*
X27679151Y-13246683D01*
X27684028Y-13233054D01*
X27690217Y-13219969D01*
X27697658Y-13207553D01*
X27706281Y-13195927D01*
X27716002Y-13185202D01*
X27726727Y-13175481D01*
X27738353Y-13166858D01*
X27750769Y-13159417D01*
X27763854Y-13153228D01*
X27777483Y-13148351D01*
X27791524Y-13144834D01*
X27805842Y-13142710D01*
X27820300Y-13142000D01*
X28115300Y-13142000D01*
X28129758Y-13142710D01*
G37*
G04 #@! TD.AperFunction*
G04 #@! TA.AperFunction,SMDPad,CuDef*
G36*
X27159758Y-13142710D02*
G01*
X27174076Y-13144834D01*
X27188117Y-13148351D01*
X27201746Y-13153228D01*
X27214831Y-13159417D01*
X27227247Y-13166858D01*
X27238873Y-13175481D01*
X27249598Y-13185202D01*
X27259319Y-13195927D01*
X27267942Y-13207553D01*
X27275383Y-13219969D01*
X27281572Y-13233054D01*
X27286449Y-13246683D01*
X27289966Y-13260724D01*
X27292090Y-13275042D01*
X27292800Y-13289500D01*
X27292800Y-13634500D01*
X27292090Y-13648958D01*
X27289966Y-13663276D01*
X27286449Y-13677317D01*
X27281572Y-13690946D01*
X27275383Y-13704031D01*
X27267942Y-13716447D01*
X27259319Y-13728073D01*
X27249598Y-13738798D01*
X27238873Y-13748519D01*
X27227247Y-13757142D01*
X27214831Y-13764583D01*
X27201746Y-13770772D01*
X27188117Y-13775649D01*
X27174076Y-13779166D01*
X27159758Y-13781290D01*
X27145300Y-13782000D01*
X26850300Y-13782000D01*
X26835842Y-13781290D01*
X26821524Y-13779166D01*
X26807483Y-13775649D01*
X26793854Y-13770772D01*
X26780769Y-13764583D01*
X26768353Y-13757142D01*
X26756727Y-13748519D01*
X26746002Y-13738798D01*
X26736281Y-13728073D01*
X26727658Y-13716447D01*
X26720217Y-13704031D01*
X26714028Y-13690946D01*
X26709151Y-13677317D01*
X26705634Y-13663276D01*
X26703510Y-13648958D01*
X26702800Y-13634500D01*
X26702800Y-13289500D01*
X26703510Y-13275042D01*
X26705634Y-13260724D01*
X26709151Y-13246683D01*
X26714028Y-13233054D01*
X26720217Y-13219969D01*
X26727658Y-13207553D01*
X26736281Y-13195927D01*
X26746002Y-13185202D01*
X26756727Y-13175481D01*
X26768353Y-13166858D01*
X26780769Y-13159417D01*
X26793854Y-13153228D01*
X26807483Y-13148351D01*
X26821524Y-13144834D01*
X26835842Y-13142710D01*
X26850300Y-13142000D01*
X27145300Y-13142000D01*
X27159758Y-13142710D01*
G37*
G04 #@! TD.AperFunction*
G04 #@! TA.AperFunction,SMDPad,CuDef*
G36*
X21520958Y-14006310D02*
G01*
X21535276Y-14008434D01*
X21549317Y-14011951D01*
X21562946Y-14016828D01*
X21576031Y-14023017D01*
X21588447Y-14030458D01*
X21600073Y-14039081D01*
X21610798Y-14048802D01*
X21620519Y-14059527D01*
X21629142Y-14071153D01*
X21636583Y-14083569D01*
X21642772Y-14096654D01*
X21647649Y-14110283D01*
X21651166Y-14124324D01*
X21653290Y-14138642D01*
X21654000Y-14153100D01*
X21654000Y-14498100D01*
X21653290Y-14512558D01*
X21651166Y-14526876D01*
X21647649Y-14540917D01*
X21642772Y-14554546D01*
X21636583Y-14567631D01*
X21629142Y-14580047D01*
X21620519Y-14591673D01*
X21610798Y-14602398D01*
X21600073Y-14612119D01*
X21588447Y-14620742D01*
X21576031Y-14628183D01*
X21562946Y-14634372D01*
X21549317Y-14639249D01*
X21535276Y-14642766D01*
X21520958Y-14644890D01*
X21506500Y-14645600D01*
X21211500Y-14645600D01*
X21197042Y-14644890D01*
X21182724Y-14642766D01*
X21168683Y-14639249D01*
X21155054Y-14634372D01*
X21141969Y-14628183D01*
X21129553Y-14620742D01*
X21117927Y-14612119D01*
X21107202Y-14602398D01*
X21097481Y-14591673D01*
X21088858Y-14580047D01*
X21081417Y-14567631D01*
X21075228Y-14554546D01*
X21070351Y-14540917D01*
X21066834Y-14526876D01*
X21064710Y-14512558D01*
X21064000Y-14498100D01*
X21064000Y-14153100D01*
X21064710Y-14138642D01*
X21066834Y-14124324D01*
X21070351Y-14110283D01*
X21075228Y-14096654D01*
X21081417Y-14083569D01*
X21088858Y-14071153D01*
X21097481Y-14059527D01*
X21107202Y-14048802D01*
X21117927Y-14039081D01*
X21129553Y-14030458D01*
X21141969Y-14023017D01*
X21155054Y-14016828D01*
X21168683Y-14011951D01*
X21182724Y-14008434D01*
X21197042Y-14006310D01*
X21211500Y-14005600D01*
X21506500Y-14005600D01*
X21520958Y-14006310D01*
G37*
G04 #@! TD.AperFunction*
G04 #@! TA.AperFunction,SMDPad,CuDef*
G36*
X22490958Y-14006310D02*
G01*
X22505276Y-14008434D01*
X22519317Y-14011951D01*
X22532946Y-14016828D01*
X22546031Y-14023017D01*
X22558447Y-14030458D01*
X22570073Y-14039081D01*
X22580798Y-14048802D01*
X22590519Y-14059527D01*
X22599142Y-14071153D01*
X22606583Y-14083569D01*
X22612772Y-14096654D01*
X22617649Y-14110283D01*
X22621166Y-14124324D01*
X22623290Y-14138642D01*
X22624000Y-14153100D01*
X22624000Y-14498100D01*
X22623290Y-14512558D01*
X22621166Y-14526876D01*
X22617649Y-14540917D01*
X22612772Y-14554546D01*
X22606583Y-14567631D01*
X22599142Y-14580047D01*
X22590519Y-14591673D01*
X22580798Y-14602398D01*
X22570073Y-14612119D01*
X22558447Y-14620742D01*
X22546031Y-14628183D01*
X22532946Y-14634372D01*
X22519317Y-14639249D01*
X22505276Y-14642766D01*
X22490958Y-14644890D01*
X22476500Y-14645600D01*
X22181500Y-14645600D01*
X22167042Y-14644890D01*
X22152724Y-14642766D01*
X22138683Y-14639249D01*
X22125054Y-14634372D01*
X22111969Y-14628183D01*
X22099553Y-14620742D01*
X22087927Y-14612119D01*
X22077202Y-14602398D01*
X22067481Y-14591673D01*
X22058858Y-14580047D01*
X22051417Y-14567631D01*
X22045228Y-14554546D01*
X22040351Y-14540917D01*
X22036834Y-14526876D01*
X22034710Y-14512558D01*
X22034000Y-14498100D01*
X22034000Y-14153100D01*
X22034710Y-14138642D01*
X22036834Y-14124324D01*
X22040351Y-14110283D01*
X22045228Y-14096654D01*
X22051417Y-14083569D01*
X22058858Y-14071153D01*
X22067481Y-14059527D01*
X22077202Y-14048802D01*
X22087927Y-14039081D01*
X22099553Y-14030458D01*
X22111969Y-14023017D01*
X22125054Y-14016828D01*
X22138683Y-14011951D01*
X22152724Y-14008434D01*
X22167042Y-14006310D01*
X22181500Y-14005600D01*
X22476500Y-14005600D01*
X22490958Y-14006310D01*
G37*
G04 #@! TD.AperFunction*
G04 #@! TA.AperFunction,SMDPad,CuDef*
G36*
X23046958Y-16187910D02*
G01*
X23061276Y-16190034D01*
X23075317Y-16193551D01*
X23088946Y-16198428D01*
X23102031Y-16204617D01*
X23114447Y-16212058D01*
X23126073Y-16220681D01*
X23136798Y-16230402D01*
X23146519Y-16241127D01*
X23155142Y-16252753D01*
X23162583Y-16265169D01*
X23168772Y-16278254D01*
X23173649Y-16291883D01*
X23177166Y-16305924D01*
X23179290Y-16320242D01*
X23180000Y-16334700D01*
X23180000Y-16629700D01*
X23179290Y-16644158D01*
X23177166Y-16658476D01*
X23173649Y-16672517D01*
X23168772Y-16686146D01*
X23162583Y-16699231D01*
X23155142Y-16711647D01*
X23146519Y-16723273D01*
X23136798Y-16733998D01*
X23126073Y-16743719D01*
X23114447Y-16752342D01*
X23102031Y-16759783D01*
X23088946Y-16765972D01*
X23075317Y-16770849D01*
X23061276Y-16774366D01*
X23046958Y-16776490D01*
X23032500Y-16777200D01*
X22687500Y-16777200D01*
X22673042Y-16776490D01*
X22658724Y-16774366D01*
X22644683Y-16770849D01*
X22631054Y-16765972D01*
X22617969Y-16759783D01*
X22605553Y-16752342D01*
X22593927Y-16743719D01*
X22583202Y-16733998D01*
X22573481Y-16723273D01*
X22564858Y-16711647D01*
X22557417Y-16699231D01*
X22551228Y-16686146D01*
X22546351Y-16672517D01*
X22542834Y-16658476D01*
X22540710Y-16644158D01*
X22540000Y-16629700D01*
X22540000Y-16334700D01*
X22540710Y-16320242D01*
X22542834Y-16305924D01*
X22546351Y-16291883D01*
X22551228Y-16278254D01*
X22557417Y-16265169D01*
X22564858Y-16252753D01*
X22573481Y-16241127D01*
X22583202Y-16230402D01*
X22593927Y-16220681D01*
X22605553Y-16212058D01*
X22617969Y-16204617D01*
X22631054Y-16198428D01*
X22644683Y-16193551D01*
X22658724Y-16190034D01*
X22673042Y-16187910D01*
X22687500Y-16187200D01*
X23032500Y-16187200D01*
X23046958Y-16187910D01*
G37*
G04 #@! TD.AperFunction*
G04 #@! TA.AperFunction,SMDPad,CuDef*
G36*
X23046958Y-17157910D02*
G01*
X23061276Y-17160034D01*
X23075317Y-17163551D01*
X23088946Y-17168428D01*
X23102031Y-17174617D01*
X23114447Y-17182058D01*
X23126073Y-17190681D01*
X23136798Y-17200402D01*
X23146519Y-17211127D01*
X23155142Y-17222753D01*
X23162583Y-17235169D01*
X23168772Y-17248254D01*
X23173649Y-17261883D01*
X23177166Y-17275924D01*
X23179290Y-17290242D01*
X23180000Y-17304700D01*
X23180000Y-17599700D01*
X23179290Y-17614158D01*
X23177166Y-17628476D01*
X23173649Y-17642517D01*
X23168772Y-17656146D01*
X23162583Y-17669231D01*
X23155142Y-17681647D01*
X23146519Y-17693273D01*
X23136798Y-17703998D01*
X23126073Y-17713719D01*
X23114447Y-17722342D01*
X23102031Y-17729783D01*
X23088946Y-17735972D01*
X23075317Y-17740849D01*
X23061276Y-17744366D01*
X23046958Y-17746490D01*
X23032500Y-17747200D01*
X22687500Y-17747200D01*
X22673042Y-17746490D01*
X22658724Y-17744366D01*
X22644683Y-17740849D01*
X22631054Y-17735972D01*
X22617969Y-17729783D01*
X22605553Y-17722342D01*
X22593927Y-17713719D01*
X22583202Y-17703998D01*
X22573481Y-17693273D01*
X22564858Y-17681647D01*
X22557417Y-17669231D01*
X22551228Y-17656146D01*
X22546351Y-17642517D01*
X22542834Y-17628476D01*
X22540710Y-17614158D01*
X22540000Y-17599700D01*
X22540000Y-17304700D01*
X22540710Y-17290242D01*
X22542834Y-17275924D01*
X22546351Y-17261883D01*
X22551228Y-17248254D01*
X22557417Y-17235169D01*
X22564858Y-17222753D01*
X22573481Y-17211127D01*
X22583202Y-17200402D01*
X22593927Y-17190681D01*
X22605553Y-17182058D01*
X22617969Y-17174617D01*
X22631054Y-17168428D01*
X22644683Y-17163551D01*
X22658724Y-17160034D01*
X22673042Y-17157910D01*
X22687500Y-17157200D01*
X23032500Y-17157200D01*
X23046958Y-17157910D01*
G37*
G04 #@! TD.AperFunction*
D13*
X22860000Y-15443200D03*
G04 #@! TA.AperFunction,SMDPad,CuDef*
D12*
G36*
X21520958Y-13193510D02*
G01*
X21535276Y-13195634D01*
X21549317Y-13199151D01*
X21562946Y-13204028D01*
X21576031Y-13210217D01*
X21588447Y-13217658D01*
X21600073Y-13226281D01*
X21610798Y-13236002D01*
X21620519Y-13246727D01*
X21629142Y-13258353D01*
X21636583Y-13270769D01*
X21642772Y-13283854D01*
X21647649Y-13297483D01*
X21651166Y-13311524D01*
X21653290Y-13325842D01*
X21654000Y-13340300D01*
X21654000Y-13685300D01*
X21653290Y-13699758D01*
X21651166Y-13714076D01*
X21647649Y-13728117D01*
X21642772Y-13741746D01*
X21636583Y-13754831D01*
X21629142Y-13767247D01*
X21620519Y-13778873D01*
X21610798Y-13789598D01*
X21600073Y-13799319D01*
X21588447Y-13807942D01*
X21576031Y-13815383D01*
X21562946Y-13821572D01*
X21549317Y-13826449D01*
X21535276Y-13829966D01*
X21520958Y-13832090D01*
X21506500Y-13832800D01*
X21211500Y-13832800D01*
X21197042Y-13832090D01*
X21182724Y-13829966D01*
X21168683Y-13826449D01*
X21155054Y-13821572D01*
X21141969Y-13815383D01*
X21129553Y-13807942D01*
X21117927Y-13799319D01*
X21107202Y-13789598D01*
X21097481Y-13778873D01*
X21088858Y-13767247D01*
X21081417Y-13754831D01*
X21075228Y-13741746D01*
X21070351Y-13728117D01*
X21066834Y-13714076D01*
X21064710Y-13699758D01*
X21064000Y-13685300D01*
X21064000Y-13340300D01*
X21064710Y-13325842D01*
X21066834Y-13311524D01*
X21070351Y-13297483D01*
X21075228Y-13283854D01*
X21081417Y-13270769D01*
X21088858Y-13258353D01*
X21097481Y-13246727D01*
X21107202Y-13236002D01*
X21117927Y-13226281D01*
X21129553Y-13217658D01*
X21141969Y-13210217D01*
X21155054Y-13204028D01*
X21168683Y-13199151D01*
X21182724Y-13195634D01*
X21197042Y-13193510D01*
X21211500Y-13192800D01*
X21506500Y-13192800D01*
X21520958Y-13193510D01*
G37*
G04 #@! TD.AperFunction*
G04 #@! TA.AperFunction,SMDPad,CuDef*
G36*
X22490958Y-13193510D02*
G01*
X22505276Y-13195634D01*
X22519317Y-13199151D01*
X22532946Y-13204028D01*
X22546031Y-13210217D01*
X22558447Y-13217658D01*
X22570073Y-13226281D01*
X22580798Y-13236002D01*
X22590519Y-13246727D01*
X22599142Y-13258353D01*
X22606583Y-13270769D01*
X22612772Y-13283854D01*
X22617649Y-13297483D01*
X22621166Y-13311524D01*
X22623290Y-13325842D01*
X22624000Y-13340300D01*
X22624000Y-13685300D01*
X22623290Y-13699758D01*
X22621166Y-13714076D01*
X22617649Y-13728117D01*
X22612772Y-13741746D01*
X22606583Y-13754831D01*
X22599142Y-13767247D01*
X22590519Y-13778873D01*
X22580798Y-13789598D01*
X22570073Y-13799319D01*
X22558447Y-13807942D01*
X22546031Y-13815383D01*
X22532946Y-13821572D01*
X22519317Y-13826449D01*
X22505276Y-13829966D01*
X22490958Y-13832090D01*
X22476500Y-13832800D01*
X22181500Y-13832800D01*
X22167042Y-13832090D01*
X22152724Y-13829966D01*
X22138683Y-13826449D01*
X22125054Y-13821572D01*
X22111969Y-13815383D01*
X22099553Y-13807942D01*
X22087927Y-13799319D01*
X22077202Y-13789598D01*
X22067481Y-13778873D01*
X22058858Y-13767247D01*
X22051417Y-13754831D01*
X22045228Y-13741746D01*
X22040351Y-13728117D01*
X22036834Y-13714076D01*
X22034710Y-13699758D01*
X22034000Y-13685300D01*
X22034000Y-13340300D01*
X22034710Y-13325842D01*
X22036834Y-13311524D01*
X22040351Y-13297483D01*
X22045228Y-13283854D01*
X22051417Y-13270769D01*
X22058858Y-13258353D01*
X22067481Y-13246727D01*
X22077202Y-13236002D01*
X22087927Y-13226281D01*
X22099553Y-13217658D01*
X22111969Y-13210217D01*
X22125054Y-13204028D01*
X22138683Y-13199151D01*
X22152724Y-13195634D01*
X22167042Y-13193510D01*
X22181500Y-13192800D01*
X22476500Y-13192800D01*
X22490958Y-13193510D01*
G37*
G04 #@! TD.AperFunction*
D15*
X16916400Y-8940800D03*
D13*
X22860000Y-18491200D03*
D14*
X21894800Y-10684000D03*
X22844800Y-12684000D03*
X20944800Y-12684000D03*
D16*
X13665200Y-9318000D03*
D17*
X12315200Y-10668000D03*
D16*
X13665200Y-12018000D03*
D17*
X15015200Y-10668000D03*
D18*
X8128000Y-10414000D03*
D19*
X6878000Y-8464000D03*
X7378000Y-8464000D03*
X7878000Y-8464000D03*
X8378000Y-8464000D03*
X8878000Y-8464000D03*
X9378000Y-8464000D03*
D20*
X10078000Y-9164000D03*
X10078000Y-9664000D03*
D21*
X10078000Y-10164000D03*
D20*
X10078000Y-10664000D03*
D22*
X10078000Y-11164000D03*
D20*
X10078000Y-11664000D03*
D19*
X9378000Y-12364000D03*
X8878000Y-12364000D03*
X8378000Y-12364000D03*
X7878000Y-12364000D03*
X7378000Y-12364000D03*
X6878000Y-12364000D03*
D20*
X6178000Y-11664000D03*
X6178000Y-11164000D03*
X6178000Y-10664000D03*
X6178000Y-10164000D03*
X6178000Y-9664000D03*
X6178000Y-9164000D03*
G04 #@! TA.AperFunction,SMDPad,CuDef*
D12*
G36*
X11616958Y-9228310D02*
G01*
X11631276Y-9230434D01*
X11645317Y-9233951D01*
X11658946Y-9238828D01*
X11672031Y-9245017D01*
X11684447Y-9252458D01*
X11696073Y-9261081D01*
X11706798Y-9270802D01*
X11716519Y-9281527D01*
X11725142Y-9293153D01*
X11732583Y-9305569D01*
X11738772Y-9318654D01*
X11743649Y-9332283D01*
X11747166Y-9346324D01*
X11749290Y-9360642D01*
X11750000Y-9375100D01*
X11750000Y-9670100D01*
X11749290Y-9684558D01*
X11747166Y-9698876D01*
X11743649Y-9712917D01*
X11738772Y-9726546D01*
X11732583Y-9739631D01*
X11725142Y-9752047D01*
X11716519Y-9763673D01*
X11706798Y-9774398D01*
X11696073Y-9784119D01*
X11684447Y-9792742D01*
X11672031Y-9800183D01*
X11658946Y-9806372D01*
X11645317Y-9811249D01*
X11631276Y-9814766D01*
X11616958Y-9816890D01*
X11602500Y-9817600D01*
X11257500Y-9817600D01*
X11243042Y-9816890D01*
X11228724Y-9814766D01*
X11214683Y-9811249D01*
X11201054Y-9806372D01*
X11187969Y-9800183D01*
X11175553Y-9792742D01*
X11163927Y-9784119D01*
X11153202Y-9774398D01*
X11143481Y-9763673D01*
X11134858Y-9752047D01*
X11127417Y-9739631D01*
X11121228Y-9726546D01*
X11116351Y-9712917D01*
X11112834Y-9698876D01*
X11110710Y-9684558D01*
X11110000Y-9670100D01*
X11110000Y-9375100D01*
X11110710Y-9360642D01*
X11112834Y-9346324D01*
X11116351Y-9332283D01*
X11121228Y-9318654D01*
X11127417Y-9305569D01*
X11134858Y-9293153D01*
X11143481Y-9281527D01*
X11153202Y-9270802D01*
X11163927Y-9261081D01*
X11175553Y-9252458D01*
X11187969Y-9245017D01*
X11201054Y-9238828D01*
X11214683Y-9233951D01*
X11228724Y-9230434D01*
X11243042Y-9228310D01*
X11257500Y-9227600D01*
X11602500Y-9227600D01*
X11616958Y-9228310D01*
G37*
G04 #@! TD.AperFunction*
G04 #@! TA.AperFunction,SMDPad,CuDef*
G36*
X11616958Y-10198310D02*
G01*
X11631276Y-10200434D01*
X11645317Y-10203951D01*
X11658946Y-10208828D01*
X11672031Y-10215017D01*
X11684447Y-10222458D01*
X11696073Y-10231081D01*
X11706798Y-10240802D01*
X11716519Y-10251527D01*
X11725142Y-10263153D01*
X11732583Y-10275569D01*
X11738772Y-10288654D01*
X11743649Y-10302283D01*
X11747166Y-10316324D01*
X11749290Y-10330642D01*
X11750000Y-10345100D01*
X11750000Y-10640100D01*
X11749290Y-10654558D01*
X11747166Y-10668876D01*
X11743649Y-10682917D01*
X11738772Y-10696546D01*
X11732583Y-10709631D01*
X11725142Y-10722047D01*
X11716519Y-10733673D01*
X11706798Y-10744398D01*
X11696073Y-10754119D01*
X11684447Y-10762742D01*
X11672031Y-10770183D01*
X11658946Y-10776372D01*
X11645317Y-10781249D01*
X11631276Y-10784766D01*
X11616958Y-10786890D01*
X11602500Y-10787600D01*
X11257500Y-10787600D01*
X11243042Y-10786890D01*
X11228724Y-10784766D01*
X11214683Y-10781249D01*
X11201054Y-10776372D01*
X11187969Y-10770183D01*
X11175553Y-10762742D01*
X11163927Y-10754119D01*
X11153202Y-10744398D01*
X11143481Y-10733673D01*
X11134858Y-10722047D01*
X11127417Y-10709631D01*
X11121228Y-10696546D01*
X11116351Y-10682917D01*
X11112834Y-10668876D01*
X11110710Y-10654558D01*
X11110000Y-10640100D01*
X11110000Y-10345100D01*
X11110710Y-10330642D01*
X11112834Y-10316324D01*
X11116351Y-10302283D01*
X11121228Y-10288654D01*
X11127417Y-10275569D01*
X11134858Y-10263153D01*
X11143481Y-10251527D01*
X11153202Y-10240802D01*
X11163927Y-10231081D01*
X11175553Y-10222458D01*
X11187969Y-10215017D01*
X11201054Y-10208828D01*
X11214683Y-10203951D01*
X11228724Y-10200434D01*
X11243042Y-10198310D01*
X11257500Y-10197600D01*
X11602500Y-10197600D01*
X11616958Y-10198310D01*
G37*
G04 #@! TD.AperFunction*
G04 #@! TA.AperFunction,SMDPad,CuDef*
G36*
X2866598Y-10396690D02*
G01*
X2880916Y-10398814D01*
X2894957Y-10402331D01*
X2908586Y-10407208D01*
X2921671Y-10413397D01*
X2934087Y-10420838D01*
X2945713Y-10429461D01*
X2956438Y-10439182D01*
X2966159Y-10449907D01*
X2974782Y-10461533D01*
X2982223Y-10473949D01*
X2988412Y-10487034D01*
X2993289Y-10500663D01*
X2996806Y-10514704D01*
X2998930Y-10529022D01*
X2999640Y-10543480D01*
X2999640Y-10888480D01*
X2998930Y-10902938D01*
X2996806Y-10917256D01*
X2993289Y-10931297D01*
X2988412Y-10944926D01*
X2982223Y-10958011D01*
X2974782Y-10970427D01*
X2966159Y-10982053D01*
X2956438Y-10992778D01*
X2945713Y-11002499D01*
X2934087Y-11011122D01*
X2921671Y-11018563D01*
X2908586Y-11024752D01*
X2894957Y-11029629D01*
X2880916Y-11033146D01*
X2866598Y-11035270D01*
X2852140Y-11035980D01*
X2557140Y-11035980D01*
X2542682Y-11035270D01*
X2528364Y-11033146D01*
X2514323Y-11029629D01*
X2500694Y-11024752D01*
X2487609Y-11018563D01*
X2475193Y-11011122D01*
X2463567Y-11002499D01*
X2452842Y-10992778D01*
X2443121Y-10982053D01*
X2434498Y-10970427D01*
X2427057Y-10958011D01*
X2420868Y-10944926D01*
X2415991Y-10931297D01*
X2412474Y-10917256D01*
X2410350Y-10902938D01*
X2409640Y-10888480D01*
X2409640Y-10543480D01*
X2410350Y-10529022D01*
X2412474Y-10514704D01*
X2415991Y-10500663D01*
X2420868Y-10487034D01*
X2427057Y-10473949D01*
X2434498Y-10461533D01*
X2443121Y-10449907D01*
X2452842Y-10439182D01*
X2463567Y-10429461D01*
X2475193Y-10420838D01*
X2487609Y-10413397D01*
X2500694Y-10407208D01*
X2514323Y-10402331D01*
X2528364Y-10398814D01*
X2542682Y-10396690D01*
X2557140Y-10395980D01*
X2852140Y-10395980D01*
X2866598Y-10396690D01*
G37*
G04 #@! TD.AperFunction*
G04 #@! TA.AperFunction,SMDPad,CuDef*
G36*
X1896598Y-10396690D02*
G01*
X1910916Y-10398814D01*
X1924957Y-10402331D01*
X1938586Y-10407208D01*
X1951671Y-10413397D01*
X1964087Y-10420838D01*
X1975713Y-10429461D01*
X1986438Y-10439182D01*
X1996159Y-10449907D01*
X2004782Y-10461533D01*
X2012223Y-10473949D01*
X2018412Y-10487034D01*
X2023289Y-10500663D01*
X2026806Y-10514704D01*
X2028930Y-10529022D01*
X2029640Y-10543480D01*
X2029640Y-10888480D01*
X2028930Y-10902938D01*
X2026806Y-10917256D01*
X2023289Y-10931297D01*
X2018412Y-10944926D01*
X2012223Y-10958011D01*
X2004782Y-10970427D01*
X1996159Y-10982053D01*
X1986438Y-10992778D01*
X1975713Y-11002499D01*
X1964087Y-11011122D01*
X1951671Y-11018563D01*
X1938586Y-11024752D01*
X1924957Y-11029629D01*
X1910916Y-11033146D01*
X1896598Y-11035270D01*
X1882140Y-11035980D01*
X1587140Y-11035980D01*
X1572682Y-11035270D01*
X1558364Y-11033146D01*
X1544323Y-11029629D01*
X1530694Y-11024752D01*
X1517609Y-11018563D01*
X1505193Y-11011122D01*
X1493567Y-11002499D01*
X1482842Y-10992778D01*
X1473121Y-10982053D01*
X1464498Y-10970427D01*
X1457057Y-10958011D01*
X1450868Y-10944926D01*
X1445991Y-10931297D01*
X1442474Y-10917256D01*
X1440350Y-10902938D01*
X1439640Y-10888480D01*
X1439640Y-10543480D01*
X1440350Y-10529022D01*
X1442474Y-10514704D01*
X1445991Y-10500663D01*
X1450868Y-10487034D01*
X1457057Y-10473949D01*
X1464498Y-10461533D01*
X1473121Y-10449907D01*
X1482842Y-10439182D01*
X1493567Y-10429461D01*
X1505193Y-10420838D01*
X1517609Y-10413397D01*
X1530694Y-10407208D01*
X1544323Y-10402331D01*
X1558364Y-10398814D01*
X1572682Y-10396690D01*
X1587140Y-10395980D01*
X1882140Y-10395980D01*
X1896598Y-10396690D01*
G37*
G04 #@! TD.AperFunction*
G04 #@! TA.AperFunction,SMDPad,CuDef*
G36*
X17154158Y-10198310D02*
G01*
X17168476Y-10200434D01*
X17182517Y-10203951D01*
X17196146Y-10208828D01*
X17209231Y-10215017D01*
X17221647Y-10222458D01*
X17233273Y-10231081D01*
X17243998Y-10240802D01*
X17253719Y-10251527D01*
X17262342Y-10263153D01*
X17269783Y-10275569D01*
X17275972Y-10288654D01*
X17280849Y-10302283D01*
X17284366Y-10316324D01*
X17286490Y-10330642D01*
X17287200Y-10345100D01*
X17287200Y-10640100D01*
X17286490Y-10654558D01*
X17284366Y-10668876D01*
X17280849Y-10682917D01*
X17275972Y-10696546D01*
X17269783Y-10709631D01*
X17262342Y-10722047D01*
X17253719Y-10733673D01*
X17243998Y-10744398D01*
X17233273Y-10754119D01*
X17221647Y-10762742D01*
X17209231Y-10770183D01*
X17196146Y-10776372D01*
X17182517Y-10781249D01*
X17168476Y-10784766D01*
X17154158Y-10786890D01*
X17139700Y-10787600D01*
X16794700Y-10787600D01*
X16780242Y-10786890D01*
X16765924Y-10784766D01*
X16751883Y-10781249D01*
X16738254Y-10776372D01*
X16725169Y-10770183D01*
X16712753Y-10762742D01*
X16701127Y-10754119D01*
X16690402Y-10744398D01*
X16680681Y-10733673D01*
X16672058Y-10722047D01*
X16664617Y-10709631D01*
X16658428Y-10696546D01*
X16653551Y-10682917D01*
X16650034Y-10668876D01*
X16647910Y-10654558D01*
X16647200Y-10640100D01*
X16647200Y-10345100D01*
X16647910Y-10330642D01*
X16650034Y-10316324D01*
X16653551Y-10302283D01*
X16658428Y-10288654D01*
X16664617Y-10275569D01*
X16672058Y-10263153D01*
X16680681Y-10251527D01*
X16690402Y-10240802D01*
X16701127Y-10231081D01*
X16712753Y-10222458D01*
X16725169Y-10215017D01*
X16738254Y-10208828D01*
X16751883Y-10203951D01*
X16765924Y-10200434D01*
X16780242Y-10198310D01*
X16794700Y-10197600D01*
X17139700Y-10197600D01*
X17154158Y-10198310D01*
G37*
G04 #@! TD.AperFunction*
G04 #@! TA.AperFunction,SMDPad,CuDef*
G36*
X17154158Y-9228310D02*
G01*
X17168476Y-9230434D01*
X17182517Y-9233951D01*
X17196146Y-9238828D01*
X17209231Y-9245017D01*
X17221647Y-9252458D01*
X17233273Y-9261081D01*
X17243998Y-9270802D01*
X17253719Y-9281527D01*
X17262342Y-9293153D01*
X17269783Y-9305569D01*
X17275972Y-9318654D01*
X17280849Y-9332283D01*
X17284366Y-9346324D01*
X17286490Y-9360642D01*
X17287200Y-9375100D01*
X17287200Y-9670100D01*
X17286490Y-9684558D01*
X17284366Y-9698876D01*
X17280849Y-9712917D01*
X17275972Y-9726546D01*
X17269783Y-9739631D01*
X17262342Y-9752047D01*
X17253719Y-9763673D01*
X17243998Y-9774398D01*
X17233273Y-9784119D01*
X17221647Y-9792742D01*
X17209231Y-9800183D01*
X17196146Y-9806372D01*
X17182517Y-9811249D01*
X17168476Y-9814766D01*
X17154158Y-9816890D01*
X17139700Y-9817600D01*
X16794700Y-9817600D01*
X16780242Y-9816890D01*
X16765924Y-9814766D01*
X16751883Y-9811249D01*
X16738254Y-9806372D01*
X16725169Y-9800183D01*
X16712753Y-9792742D01*
X16701127Y-9784119D01*
X16690402Y-9774398D01*
X16680681Y-9763673D01*
X16672058Y-9752047D01*
X16664617Y-9739631D01*
X16658428Y-9726546D01*
X16653551Y-9712917D01*
X16650034Y-9698876D01*
X16647910Y-9684558D01*
X16647200Y-9670100D01*
X16647200Y-9375100D01*
X16647910Y-9360642D01*
X16650034Y-9346324D01*
X16653551Y-9332283D01*
X16658428Y-9318654D01*
X16664617Y-9305569D01*
X16672058Y-9293153D01*
X16680681Y-9281527D01*
X16690402Y-9270802D01*
X16701127Y-9261081D01*
X16712753Y-9252458D01*
X16725169Y-9245017D01*
X16738254Y-9238828D01*
X16751883Y-9233951D01*
X16765924Y-9230434D01*
X16780242Y-9228310D01*
X16794700Y-9227600D01*
X17139700Y-9227600D01*
X17154158Y-9228310D01*
G37*
G04 #@! TD.AperFunction*
D13*
X10718800Y-16510000D03*
X685800Y-10744200D03*
G04 #@! TA.AperFunction,SMDPad,CuDef*
D12*
G36*
X17710958Y-9180310D02*
G01*
X17725276Y-9182434D01*
X17739317Y-9185951D01*
X17752946Y-9190828D01*
X17766031Y-9197017D01*
X17778447Y-9204458D01*
X17790073Y-9213081D01*
X17800798Y-9222802D01*
X17810519Y-9233527D01*
X17819142Y-9245153D01*
X17826583Y-9257569D01*
X17832772Y-9270654D01*
X17837649Y-9284283D01*
X17841166Y-9298324D01*
X17843290Y-9312642D01*
X17844000Y-9327100D01*
X17844000Y-9672100D01*
X17843290Y-9686558D01*
X17841166Y-9700876D01*
X17837649Y-9714917D01*
X17832772Y-9728546D01*
X17826583Y-9741631D01*
X17819142Y-9754047D01*
X17810519Y-9765673D01*
X17800798Y-9776398D01*
X17790073Y-9786119D01*
X17778447Y-9794742D01*
X17766031Y-9802183D01*
X17752946Y-9808372D01*
X17739317Y-9813249D01*
X17725276Y-9816766D01*
X17710958Y-9818890D01*
X17696500Y-9819600D01*
X17401500Y-9819600D01*
X17387042Y-9818890D01*
X17372724Y-9816766D01*
X17358683Y-9813249D01*
X17345054Y-9808372D01*
X17331969Y-9802183D01*
X17319553Y-9794742D01*
X17307927Y-9786119D01*
X17297202Y-9776398D01*
X17287481Y-9765673D01*
X17278858Y-9754047D01*
X17271417Y-9741631D01*
X17265228Y-9728546D01*
X17260351Y-9714917D01*
X17256834Y-9700876D01*
X17254710Y-9686558D01*
X17254000Y-9672100D01*
X17254000Y-9327100D01*
X17254710Y-9312642D01*
X17256834Y-9298324D01*
X17260351Y-9284283D01*
X17265228Y-9270654D01*
X17271417Y-9257569D01*
X17278858Y-9245153D01*
X17287481Y-9233527D01*
X17297202Y-9222802D01*
X17307927Y-9213081D01*
X17319553Y-9204458D01*
X17331969Y-9197017D01*
X17345054Y-9190828D01*
X17358683Y-9185951D01*
X17372724Y-9182434D01*
X17387042Y-9180310D01*
X17401500Y-9179600D01*
X17696500Y-9179600D01*
X17710958Y-9180310D01*
G37*
G04 #@! TD.AperFunction*
G04 #@! TA.AperFunction,SMDPad,CuDef*
G36*
X18680958Y-9180310D02*
G01*
X18695276Y-9182434D01*
X18709317Y-9185951D01*
X18722946Y-9190828D01*
X18736031Y-9197017D01*
X18748447Y-9204458D01*
X18760073Y-9213081D01*
X18770798Y-9222802D01*
X18780519Y-9233527D01*
X18789142Y-9245153D01*
X18796583Y-9257569D01*
X18802772Y-9270654D01*
X18807649Y-9284283D01*
X18811166Y-9298324D01*
X18813290Y-9312642D01*
X18814000Y-9327100D01*
X18814000Y-9672100D01*
X18813290Y-9686558D01*
X18811166Y-9700876D01*
X18807649Y-9714917D01*
X18802772Y-9728546D01*
X18796583Y-9741631D01*
X18789142Y-9754047D01*
X18780519Y-9765673D01*
X18770798Y-9776398D01*
X18760073Y-9786119D01*
X18748447Y-9794742D01*
X18736031Y-9802183D01*
X18722946Y-9808372D01*
X18709317Y-9813249D01*
X18695276Y-9816766D01*
X18680958Y-9818890D01*
X18666500Y-9819600D01*
X18371500Y-9819600D01*
X18357042Y-9818890D01*
X18342724Y-9816766D01*
X18328683Y-9813249D01*
X18315054Y-9808372D01*
X18301969Y-9802183D01*
X18289553Y-9794742D01*
X18277927Y-9786119D01*
X18267202Y-9776398D01*
X18257481Y-9765673D01*
X18248858Y-9754047D01*
X18241417Y-9741631D01*
X18235228Y-9728546D01*
X18230351Y-9714917D01*
X18226834Y-9700876D01*
X18224710Y-9686558D01*
X18224000Y-9672100D01*
X18224000Y-9327100D01*
X18224710Y-9312642D01*
X18226834Y-9298324D01*
X18230351Y-9284283D01*
X18235228Y-9270654D01*
X18241417Y-9257569D01*
X18248858Y-9245153D01*
X18257481Y-9233527D01*
X18267202Y-9222802D01*
X18277927Y-9213081D01*
X18289553Y-9204458D01*
X18301969Y-9197017D01*
X18315054Y-9190828D01*
X18328683Y-9185951D01*
X18342724Y-9182434D01*
X18357042Y-9180310D01*
X18371500Y-9179600D01*
X18666500Y-9179600D01*
X18680958Y-9180310D01*
G37*
G04 #@! TD.AperFunction*
G04 #@! TA.AperFunction,SMDPad,CuDef*
G36*
X16547358Y-9180310D02*
G01*
X16561676Y-9182434D01*
X16575717Y-9185951D01*
X16589346Y-9190828D01*
X16602431Y-9197017D01*
X16614847Y-9204458D01*
X16626473Y-9213081D01*
X16637198Y-9222802D01*
X16646919Y-9233527D01*
X16655542Y-9245153D01*
X16662983Y-9257569D01*
X16669172Y-9270654D01*
X16674049Y-9284283D01*
X16677566Y-9298324D01*
X16679690Y-9312642D01*
X16680400Y-9327100D01*
X16680400Y-9672100D01*
X16679690Y-9686558D01*
X16677566Y-9700876D01*
X16674049Y-9714917D01*
X16669172Y-9728546D01*
X16662983Y-9741631D01*
X16655542Y-9754047D01*
X16646919Y-9765673D01*
X16637198Y-9776398D01*
X16626473Y-9786119D01*
X16614847Y-9794742D01*
X16602431Y-9802183D01*
X16589346Y-9808372D01*
X16575717Y-9813249D01*
X16561676Y-9816766D01*
X16547358Y-9818890D01*
X16532900Y-9819600D01*
X16237900Y-9819600D01*
X16223442Y-9818890D01*
X16209124Y-9816766D01*
X16195083Y-9813249D01*
X16181454Y-9808372D01*
X16168369Y-9802183D01*
X16155953Y-9794742D01*
X16144327Y-9786119D01*
X16133602Y-9776398D01*
X16123881Y-9765673D01*
X16115258Y-9754047D01*
X16107817Y-9741631D01*
X16101628Y-9728546D01*
X16096751Y-9714917D01*
X16093234Y-9700876D01*
X16091110Y-9686558D01*
X16090400Y-9672100D01*
X16090400Y-9327100D01*
X16091110Y-9312642D01*
X16093234Y-9298324D01*
X16096751Y-9284283D01*
X16101628Y-9270654D01*
X16107817Y-9257569D01*
X16115258Y-9245153D01*
X16123881Y-9233527D01*
X16133602Y-9222802D01*
X16144327Y-9213081D01*
X16155953Y-9204458D01*
X16168369Y-9197017D01*
X16181454Y-9190828D01*
X16195083Y-9185951D01*
X16209124Y-9182434D01*
X16223442Y-9180310D01*
X16237900Y-9179600D01*
X16532900Y-9179600D01*
X16547358Y-9180310D01*
G37*
G04 #@! TD.AperFunction*
G04 #@! TA.AperFunction,SMDPad,CuDef*
G36*
X15577358Y-9180310D02*
G01*
X15591676Y-9182434D01*
X15605717Y-9185951D01*
X15619346Y-9190828D01*
X15632431Y-9197017D01*
X15644847Y-9204458D01*
X15656473Y-9213081D01*
X15667198Y-9222802D01*
X15676919Y-9233527D01*
X15685542Y-9245153D01*
X15692983Y-9257569D01*
X15699172Y-9270654D01*
X15704049Y-9284283D01*
X15707566Y-9298324D01*
X15709690Y-9312642D01*
X15710400Y-9327100D01*
X15710400Y-9672100D01*
X15709690Y-9686558D01*
X15707566Y-9700876D01*
X15704049Y-9714917D01*
X15699172Y-9728546D01*
X15692983Y-9741631D01*
X15685542Y-9754047D01*
X15676919Y-9765673D01*
X15667198Y-9776398D01*
X15656473Y-9786119D01*
X15644847Y-9794742D01*
X15632431Y-9802183D01*
X15619346Y-9808372D01*
X15605717Y-9813249D01*
X15591676Y-9816766D01*
X15577358Y-9818890D01*
X15562900Y-9819600D01*
X15267900Y-9819600D01*
X15253442Y-9818890D01*
X15239124Y-9816766D01*
X15225083Y-9813249D01*
X15211454Y-9808372D01*
X15198369Y-9802183D01*
X15185953Y-9794742D01*
X15174327Y-9786119D01*
X15163602Y-9776398D01*
X15153881Y-9765673D01*
X15145258Y-9754047D01*
X15137817Y-9741631D01*
X15131628Y-9728546D01*
X15126751Y-9714917D01*
X15123234Y-9700876D01*
X15121110Y-9686558D01*
X15120400Y-9672100D01*
X15120400Y-9327100D01*
X15121110Y-9312642D01*
X15123234Y-9298324D01*
X15126751Y-9284283D01*
X15131628Y-9270654D01*
X15137817Y-9257569D01*
X15145258Y-9245153D01*
X15153881Y-9233527D01*
X15163602Y-9222802D01*
X15174327Y-9213081D01*
X15185953Y-9204458D01*
X15198369Y-9197017D01*
X15211454Y-9190828D01*
X15225083Y-9185951D01*
X15239124Y-9182434D01*
X15253442Y-9180310D01*
X15267900Y-9179600D01*
X15562900Y-9179600D01*
X15577358Y-9180310D01*
G37*
G04 #@! TD.AperFunction*
G04 #@! TA.AperFunction,SMDPad,CuDef*
G36*
X5216158Y-9380710D02*
G01*
X5230476Y-9382834D01*
X5244517Y-9386351D01*
X5258146Y-9391228D01*
X5271231Y-9397417D01*
X5283647Y-9404858D01*
X5295273Y-9413481D01*
X5305998Y-9423202D01*
X5315719Y-9433927D01*
X5324342Y-9445553D01*
X5331783Y-9457969D01*
X5337972Y-9471054D01*
X5342849Y-9484683D01*
X5346366Y-9498724D01*
X5348490Y-9513042D01*
X5349200Y-9527500D01*
X5349200Y-9822500D01*
X5348490Y-9836958D01*
X5346366Y-9851276D01*
X5342849Y-9865317D01*
X5337972Y-9878946D01*
X5331783Y-9892031D01*
X5324342Y-9904447D01*
X5315719Y-9916073D01*
X5305998Y-9926798D01*
X5295273Y-9936519D01*
X5283647Y-9945142D01*
X5271231Y-9952583D01*
X5258146Y-9958772D01*
X5244517Y-9963649D01*
X5230476Y-9967166D01*
X5216158Y-9969290D01*
X5201700Y-9970000D01*
X4856700Y-9970000D01*
X4842242Y-9969290D01*
X4827924Y-9967166D01*
X4813883Y-9963649D01*
X4800254Y-9958772D01*
X4787169Y-9952583D01*
X4774753Y-9945142D01*
X4763127Y-9936519D01*
X4752402Y-9926798D01*
X4742681Y-9916073D01*
X4734058Y-9904447D01*
X4726617Y-9892031D01*
X4720428Y-9878946D01*
X4715551Y-9865317D01*
X4712034Y-9851276D01*
X4709910Y-9836958D01*
X4709200Y-9822500D01*
X4709200Y-9527500D01*
X4709910Y-9513042D01*
X4712034Y-9498724D01*
X4715551Y-9484683D01*
X4720428Y-9471054D01*
X4726617Y-9457969D01*
X4734058Y-9445553D01*
X4742681Y-9433927D01*
X4752402Y-9423202D01*
X4763127Y-9413481D01*
X4774753Y-9404858D01*
X4787169Y-9397417D01*
X4800254Y-9391228D01*
X4813883Y-9386351D01*
X4827924Y-9382834D01*
X4842242Y-9380710D01*
X4856700Y-9380000D01*
X5201700Y-9380000D01*
X5216158Y-9380710D01*
G37*
G04 #@! TD.AperFunction*
G04 #@! TA.AperFunction,SMDPad,CuDef*
G36*
X5216158Y-10350710D02*
G01*
X5230476Y-10352834D01*
X5244517Y-10356351D01*
X5258146Y-10361228D01*
X5271231Y-10367417D01*
X5283647Y-10374858D01*
X5295273Y-10383481D01*
X5305998Y-10393202D01*
X5315719Y-10403927D01*
X5324342Y-10415553D01*
X5331783Y-10427969D01*
X5337972Y-10441054D01*
X5342849Y-10454683D01*
X5346366Y-10468724D01*
X5348490Y-10483042D01*
X5349200Y-10497500D01*
X5349200Y-10792500D01*
X5348490Y-10806958D01*
X5346366Y-10821276D01*
X5342849Y-10835317D01*
X5337972Y-10848946D01*
X5331783Y-10862031D01*
X5324342Y-10874447D01*
X5315719Y-10886073D01*
X5305998Y-10896798D01*
X5295273Y-10906519D01*
X5283647Y-10915142D01*
X5271231Y-10922583D01*
X5258146Y-10928772D01*
X5244517Y-10933649D01*
X5230476Y-10937166D01*
X5216158Y-10939290D01*
X5201700Y-10940000D01*
X4856700Y-10940000D01*
X4842242Y-10939290D01*
X4827924Y-10937166D01*
X4813883Y-10933649D01*
X4800254Y-10928772D01*
X4787169Y-10922583D01*
X4774753Y-10915142D01*
X4763127Y-10906519D01*
X4752402Y-10896798D01*
X4742681Y-10886073D01*
X4734058Y-10874447D01*
X4726617Y-10862031D01*
X4720428Y-10848946D01*
X4715551Y-10835317D01*
X4712034Y-10821276D01*
X4709910Y-10806958D01*
X4709200Y-10792500D01*
X4709200Y-10497500D01*
X4709910Y-10483042D01*
X4712034Y-10468724D01*
X4715551Y-10454683D01*
X4720428Y-10441054D01*
X4726617Y-10427969D01*
X4734058Y-10415553D01*
X4742681Y-10403927D01*
X4752402Y-10393202D01*
X4763127Y-10383481D01*
X4774753Y-10374858D01*
X4787169Y-10367417D01*
X4800254Y-10361228D01*
X4813883Y-10356351D01*
X4827924Y-10352834D01*
X4842242Y-10350710D01*
X4856700Y-10350000D01*
X5201700Y-10350000D01*
X5216158Y-10350710D01*
G37*
G04 #@! TD.AperFunction*
G04 #@! TA.AperFunction,SMDPad,CuDef*
G36*
X8592358Y-13904710D02*
G01*
X8606676Y-13906834D01*
X8620717Y-13910351D01*
X8634346Y-13915228D01*
X8647431Y-13921417D01*
X8659847Y-13928858D01*
X8671473Y-13937481D01*
X8682198Y-13947202D01*
X8691919Y-13957927D01*
X8700542Y-13969553D01*
X8707983Y-13981969D01*
X8714172Y-13995054D01*
X8719049Y-14008683D01*
X8722566Y-14022724D01*
X8724690Y-14037042D01*
X8725400Y-14051500D01*
X8725400Y-14396500D01*
X8724690Y-14410958D01*
X8722566Y-14425276D01*
X8719049Y-14439317D01*
X8714172Y-14452946D01*
X8707983Y-14466031D01*
X8700542Y-14478447D01*
X8691919Y-14490073D01*
X8682198Y-14500798D01*
X8671473Y-14510519D01*
X8659847Y-14519142D01*
X8647431Y-14526583D01*
X8634346Y-14532772D01*
X8620717Y-14537649D01*
X8606676Y-14541166D01*
X8592358Y-14543290D01*
X8577900Y-14544000D01*
X8282900Y-14544000D01*
X8268442Y-14543290D01*
X8254124Y-14541166D01*
X8240083Y-14537649D01*
X8226454Y-14532772D01*
X8213369Y-14526583D01*
X8200953Y-14519142D01*
X8189327Y-14510519D01*
X8178602Y-14500798D01*
X8168881Y-14490073D01*
X8160258Y-14478447D01*
X8152817Y-14466031D01*
X8146628Y-14452946D01*
X8141751Y-14439317D01*
X8138234Y-14425276D01*
X8136110Y-14410958D01*
X8135400Y-14396500D01*
X8135400Y-14051500D01*
X8136110Y-14037042D01*
X8138234Y-14022724D01*
X8141751Y-14008683D01*
X8146628Y-13995054D01*
X8152817Y-13981969D01*
X8160258Y-13969553D01*
X8168881Y-13957927D01*
X8178602Y-13947202D01*
X8189327Y-13937481D01*
X8200953Y-13928858D01*
X8213369Y-13921417D01*
X8226454Y-13915228D01*
X8240083Y-13910351D01*
X8254124Y-13906834D01*
X8268442Y-13904710D01*
X8282900Y-13904000D01*
X8577900Y-13904000D01*
X8592358Y-13904710D01*
G37*
G04 #@! TD.AperFunction*
G04 #@! TA.AperFunction,SMDPad,CuDef*
G36*
X9562358Y-13904710D02*
G01*
X9576676Y-13906834D01*
X9590717Y-13910351D01*
X9604346Y-13915228D01*
X9617431Y-13921417D01*
X9629847Y-13928858D01*
X9641473Y-13937481D01*
X9652198Y-13947202D01*
X9661919Y-13957927D01*
X9670542Y-13969553D01*
X9677983Y-13981969D01*
X9684172Y-13995054D01*
X9689049Y-14008683D01*
X9692566Y-14022724D01*
X9694690Y-14037042D01*
X9695400Y-14051500D01*
X9695400Y-14396500D01*
X9694690Y-14410958D01*
X9692566Y-14425276D01*
X9689049Y-14439317D01*
X9684172Y-14452946D01*
X9677983Y-14466031D01*
X9670542Y-14478447D01*
X9661919Y-14490073D01*
X9652198Y-14500798D01*
X9641473Y-14510519D01*
X9629847Y-14519142D01*
X9617431Y-14526583D01*
X9604346Y-14532772D01*
X9590717Y-14537649D01*
X9576676Y-14541166D01*
X9562358Y-14543290D01*
X9547900Y-14544000D01*
X9252900Y-14544000D01*
X9238442Y-14543290D01*
X9224124Y-14541166D01*
X9210083Y-14537649D01*
X9196454Y-14532772D01*
X9183369Y-14526583D01*
X9170953Y-14519142D01*
X9159327Y-14510519D01*
X9148602Y-14500798D01*
X9138881Y-14490073D01*
X9130258Y-14478447D01*
X9122817Y-14466031D01*
X9116628Y-14452946D01*
X9111751Y-14439317D01*
X9108234Y-14425276D01*
X9106110Y-14410958D01*
X9105400Y-14396500D01*
X9105400Y-14051500D01*
X9106110Y-14037042D01*
X9108234Y-14022724D01*
X9111751Y-14008683D01*
X9116628Y-13995054D01*
X9122817Y-13981969D01*
X9130258Y-13969553D01*
X9138881Y-13957927D01*
X9148602Y-13947202D01*
X9159327Y-13937481D01*
X9170953Y-13928858D01*
X9183369Y-13921417D01*
X9196454Y-13915228D01*
X9210083Y-13910351D01*
X9224124Y-13906834D01*
X9238442Y-13904710D01*
X9252900Y-13904000D01*
X9547900Y-13904000D01*
X9562358Y-13904710D01*
G37*
G04 #@! TD.AperFunction*
G04 #@! TA.AperFunction,SMDPad,CuDef*
G36*
X10532638Y-13229070D02*
G01*
X10546956Y-13231194D01*
X10560997Y-13234711D01*
X10574626Y-13239588D01*
X10587711Y-13245777D01*
X10600127Y-13253218D01*
X10611753Y-13261841D01*
X10622478Y-13271562D01*
X10632199Y-13282287D01*
X10640822Y-13293913D01*
X10648263Y-13306329D01*
X10654452Y-13319414D01*
X10659329Y-13333043D01*
X10662846Y-13347084D01*
X10664970Y-13361402D01*
X10665680Y-13375860D01*
X10665680Y-13720860D01*
X10664970Y-13735318D01*
X10662846Y-13749636D01*
X10659329Y-13763677D01*
X10654452Y-13777306D01*
X10648263Y-13790391D01*
X10640822Y-13802807D01*
X10632199Y-13814433D01*
X10622478Y-13825158D01*
X10611753Y-13834879D01*
X10600127Y-13843502D01*
X10587711Y-13850943D01*
X10574626Y-13857132D01*
X10560997Y-13862009D01*
X10546956Y-13865526D01*
X10532638Y-13867650D01*
X10518180Y-13868360D01*
X10223180Y-13868360D01*
X10208722Y-13867650D01*
X10194404Y-13865526D01*
X10180363Y-13862009D01*
X10166734Y-13857132D01*
X10153649Y-13850943D01*
X10141233Y-13843502D01*
X10129607Y-13834879D01*
X10118882Y-13825158D01*
X10109161Y-13814433D01*
X10100538Y-13802807D01*
X10093097Y-13790391D01*
X10086908Y-13777306D01*
X10082031Y-13763677D01*
X10078514Y-13749636D01*
X10076390Y-13735318D01*
X10075680Y-13720860D01*
X10075680Y-13375860D01*
X10076390Y-13361402D01*
X10078514Y-13347084D01*
X10082031Y-13333043D01*
X10086908Y-13319414D01*
X10093097Y-13306329D01*
X10100538Y-13293913D01*
X10109161Y-13282287D01*
X10118882Y-13271562D01*
X10129607Y-13261841D01*
X10141233Y-13253218D01*
X10153649Y-13245777D01*
X10166734Y-13239588D01*
X10180363Y-13234711D01*
X10194404Y-13231194D01*
X10208722Y-13229070D01*
X10223180Y-13228360D01*
X10518180Y-13228360D01*
X10532638Y-13229070D01*
G37*
G04 #@! TD.AperFunction*
G04 #@! TA.AperFunction,SMDPad,CuDef*
G36*
X9562638Y-13229070D02*
G01*
X9576956Y-13231194D01*
X9590997Y-13234711D01*
X9604626Y-13239588D01*
X9617711Y-13245777D01*
X9630127Y-13253218D01*
X9641753Y-13261841D01*
X9652478Y-13271562D01*
X9662199Y-13282287D01*
X9670822Y-13293913D01*
X9678263Y-13306329D01*
X9684452Y-13319414D01*
X9689329Y-13333043D01*
X9692846Y-13347084D01*
X9694970Y-13361402D01*
X9695680Y-13375860D01*
X9695680Y-13720860D01*
X9694970Y-13735318D01*
X9692846Y-13749636D01*
X9689329Y-13763677D01*
X9684452Y-13777306D01*
X9678263Y-13790391D01*
X9670822Y-13802807D01*
X9662199Y-13814433D01*
X9652478Y-13825158D01*
X9641753Y-13834879D01*
X9630127Y-13843502D01*
X9617711Y-13850943D01*
X9604626Y-13857132D01*
X9590997Y-13862009D01*
X9576956Y-13865526D01*
X9562638Y-13867650D01*
X9548180Y-13868360D01*
X9253180Y-13868360D01*
X9238722Y-13867650D01*
X9224404Y-13865526D01*
X9210363Y-13862009D01*
X9196734Y-13857132D01*
X9183649Y-13850943D01*
X9171233Y-13843502D01*
X9159607Y-13834879D01*
X9148882Y-13825158D01*
X9139161Y-13814433D01*
X9130538Y-13802807D01*
X9123097Y-13790391D01*
X9116908Y-13777306D01*
X9112031Y-13763677D01*
X9108514Y-13749636D01*
X9106390Y-13735318D01*
X9105680Y-13720860D01*
X9105680Y-13375860D01*
X9106390Y-13361402D01*
X9108514Y-13347084D01*
X9112031Y-13333043D01*
X9116908Y-13319414D01*
X9123097Y-13306329D01*
X9130538Y-13293913D01*
X9139161Y-13282287D01*
X9148882Y-13271562D01*
X9159607Y-13261841D01*
X9171233Y-13253218D01*
X9183649Y-13245777D01*
X9196734Y-13239588D01*
X9210363Y-13234711D01*
X9224404Y-13231194D01*
X9238722Y-13229070D01*
X9253180Y-13228360D01*
X9548180Y-13228360D01*
X9562638Y-13229070D01*
G37*
G04 #@! TD.AperFunction*
D23*
X9378000Y-13561240D02*
X9380360Y-13563600D01*
D24*
X9400400Y-16304400D02*
X9398000Y-16306800D01*
X9400400Y-14224000D02*
X9400400Y-16304400D01*
X9400680Y-14223720D02*
X9400400Y-14224000D01*
X9400680Y-13548360D02*
X9400680Y-14223720D01*
D25*
X9378000Y-13525680D02*
X9400680Y-13548360D01*
X9378000Y-12364000D02*
X9378000Y-13525680D01*
X3646360Y-10664000D02*
X3606800Y-10703560D01*
X6178000Y-10664000D02*
X3849560Y-10664000D01*
X26517600Y-18491200D02*
X27752040Y-18491200D01*
X26517600Y-17452200D02*
X26517600Y-18491200D01*
X22860000Y-18491200D02*
X21523960Y-18491200D01*
X22860000Y-17452200D02*
X22860000Y-18491200D01*
X22844800Y-12997000D02*
X22329000Y-13512800D01*
X22844800Y-12684000D02*
X22844800Y-12997000D01*
X22329000Y-14912200D02*
X22860000Y-15443200D01*
X22329000Y-13512800D02*
X22329000Y-14912200D01*
X22860000Y-16482200D02*
X22860000Y-15443200D01*
X27010400Y-14899600D02*
X26517600Y-15392400D01*
X27010400Y-12684000D02*
X27010400Y-14899600D01*
X26517600Y-16482200D02*
X26517600Y-15392400D01*
X25755600Y-8613000D02*
X26009600Y-8359000D01*
X25755600Y-8991600D02*
X25755600Y-8613000D01*
X26822400Y-8359000D02*
X26009600Y-8359000D01*
X25908000Y-8359000D02*
X24485600Y-6936600D01*
X26009600Y-8359000D02*
X25908000Y-8359000D01*
X24165600Y-6936600D02*
X24485600Y-6936600D01*
X22335200Y-6248400D02*
X23023400Y-6936600D01*
X23023400Y-6936600D02*
X24165600Y-6936600D01*
X21285200Y-6248400D02*
X22335200Y-6248400D01*
D26*
X15190200Y-10668000D02*
X19454390Y-10668000D01*
X15015200Y-10668000D02*
X15190200Y-10668000D01*
X19454390Y-10668000D02*
X19812000Y-10668000D01*
X22352000Y-10700000D02*
X22352000Y-10718800D01*
X22368000Y-10684000D02*
X22352000Y-10700000D01*
X21894800Y-10684000D02*
X22352000Y-10718800D01*
X22047200Y-10684000D02*
X21310210Y-10684000D01*
X24876625Y-10669924D02*
X23979524Y-10669924D01*
X24876625Y-10669924D02*
X27316324Y-10669924D01*
X28730400Y-10684000D02*
X28746400Y-10668000D01*
X27330400Y-10684000D02*
X28730400Y-10684000D01*
X28746400Y-10668000D02*
X34290000Y-10668000D01*
X12467600Y-10668000D02*
X11176000Y-10668000D01*
D24*
X11258600Y-10664000D02*
X10078000Y-10664000D01*
D23*
X11430000Y-10492600D02*
X11258600Y-10664000D01*
D27*
G36*
X34925000Y-10138144D02*
G01*
X34877606Y-10080394D01*
X34751679Y-9977048D01*
X34608010Y-9900255D01*
X34452120Y-9852966D01*
X34330624Y-9841000D01*
X28787010Y-9841000D01*
X28746399Y-9837000D01*
X28705788Y-9841000D01*
X28705776Y-9841000D01*
X28584280Y-9852966D01*
X28570982Y-9857000D01*
X27485400Y-9857000D01*
X27478444Y-9854890D01*
X27356948Y-9842924D01*
X26114411Y-9842924D01*
X26145339Y-9823692D01*
X26192352Y-9779659D01*
X26229871Y-9727301D01*
X26629871Y-9034481D01*
X26653386Y-8982582D01*
X26994900Y-8982582D01*
X27087779Y-8973434D01*
X27177089Y-8946342D01*
X27259397Y-8902348D01*
X27331541Y-8843141D01*
X27390748Y-8770997D01*
X27434742Y-8688689D01*
X27461834Y-8599379D01*
X27470982Y-8506500D01*
X27470982Y-8211500D01*
X27461834Y-8118621D01*
X27434742Y-8029311D01*
X27390748Y-7947003D01*
X27331541Y-7874859D01*
X27259397Y-7815652D01*
X27177089Y-7771658D01*
X27087779Y-7744566D01*
X26994900Y-7735418D01*
X26649900Y-7735418D01*
X26557021Y-7744566D01*
X26467711Y-7771658D01*
X26416000Y-7799298D01*
X26364289Y-7771658D01*
X26274979Y-7744566D01*
X26182100Y-7735418D01*
X25958998Y-7735418D01*
X25134182Y-6910603D01*
X25134182Y-6789100D01*
X25125034Y-6696221D01*
X25097942Y-6606911D01*
X25053948Y-6524603D01*
X24994741Y-6452459D01*
X24993694Y-6451600D01*
X24994741Y-6450741D01*
X25053948Y-6378597D01*
X25097942Y-6296289D01*
X25125034Y-6206979D01*
X25134182Y-6114100D01*
X25134182Y-6006182D01*
X25235600Y-6006182D01*
X25299703Y-5999868D01*
X25361343Y-5981170D01*
X25418150Y-5950806D01*
X25467943Y-5909943D01*
X25508806Y-5860150D01*
X25539170Y-5803343D01*
X25553746Y-5755292D01*
X26386790Y-5755292D01*
X26450893Y-5748978D01*
X26512533Y-5730280D01*
X26569340Y-5699916D01*
X26619133Y-5659053D01*
X26659996Y-5609260D01*
X26690360Y-5552453D01*
X26709058Y-5490813D01*
X26715372Y-5426710D01*
X26715372Y-4428490D01*
X26709058Y-4364387D01*
X26690360Y-4302747D01*
X26659996Y-4245940D01*
X26619133Y-4196147D01*
X26569340Y-4155284D01*
X26512533Y-4124920D01*
X26450893Y-4106222D01*
X26386790Y-4099908D01*
X25553746Y-4099908D01*
X25539170Y-4051857D01*
X25508806Y-3995050D01*
X25467943Y-3945257D01*
X25418150Y-3904394D01*
X25361343Y-3874030D01*
X25299703Y-3855332D01*
X25235600Y-3849018D01*
X23735600Y-3849018D01*
X23671497Y-3855332D01*
X23609857Y-3874030D01*
X23553050Y-3904394D01*
X23503257Y-3945257D01*
X23462394Y-3995050D01*
X23432030Y-4051857D01*
X23413332Y-4113497D01*
X23407018Y-4177600D01*
X23407018Y-5677600D01*
X23413332Y-5741703D01*
X23432030Y-5803343D01*
X23462394Y-5860150D01*
X23503257Y-5909943D01*
X23553050Y-5950806D01*
X23609857Y-5981170D01*
X23671497Y-5999868D01*
X23735600Y-6006182D01*
X23837018Y-6006182D01*
X23837018Y-6114100D01*
X23846166Y-6206979D01*
X23873258Y-6296289D01*
X23917252Y-6378597D01*
X23976459Y-6450741D01*
X23977506Y-6451600D01*
X23976459Y-6452459D01*
X23970599Y-6459600D01*
X23220980Y-6459600D01*
X22922582Y-6161203D01*
X22922582Y-5498400D01*
X22916268Y-5434297D01*
X22897570Y-5372657D01*
X22867206Y-5315850D01*
X22826343Y-5266057D01*
X22776550Y-5225194D01*
X22719743Y-5194830D01*
X22658103Y-5176132D01*
X22594000Y-5169818D01*
X21094000Y-5169818D01*
X21029897Y-5176132D01*
X20968257Y-5194830D01*
X20911450Y-5225194D01*
X20861657Y-5266057D01*
X20820794Y-5315850D01*
X20790430Y-5372657D01*
X20771732Y-5434297D01*
X20765418Y-5498400D01*
X20765418Y-6998400D01*
X20771732Y-7062503D01*
X20790430Y-7124143D01*
X20820794Y-7180950D01*
X20861657Y-7230743D01*
X20911450Y-7271606D01*
X20968257Y-7301970D01*
X21029897Y-7320668D01*
X21094000Y-7326982D01*
X22594000Y-7326982D01*
X22658103Y-7320668D01*
X22717526Y-7302642D01*
X22757111Y-7335129D01*
X22839977Y-7379422D01*
X22929892Y-7406697D01*
X22999977Y-7413600D01*
X22999985Y-7413600D01*
X23023400Y-7415906D01*
X23046815Y-7413600D01*
X23970599Y-7413600D01*
X23976459Y-7420741D01*
X24048603Y-7479948D01*
X24130911Y-7523942D01*
X24220221Y-7551034D01*
X24313100Y-7560182D01*
X24434603Y-7560182D01*
X25226056Y-8351635D01*
X24881329Y-8948719D01*
X24854745Y-9007391D01*
X24840118Y-9070121D01*
X24838011Y-9134500D01*
X24848503Y-9198053D01*
X24871193Y-9258338D01*
X24905207Y-9313038D01*
X24949240Y-9360051D01*
X25001598Y-9397570D01*
X25772973Y-9842924D01*
X24887300Y-9842924D01*
X24780180Y-9781078D01*
X24721508Y-9754494D01*
X24658778Y-9739867D01*
X24594399Y-9737760D01*
X24530846Y-9748252D01*
X24470561Y-9770942D01*
X24415861Y-9804956D01*
X24375323Y-9842924D01*
X23938900Y-9842924D01*
X23817404Y-9854890D01*
X23661514Y-9902179D01*
X23517845Y-9978972D01*
X23463960Y-10023194D01*
X23409421Y-10028566D01*
X23320111Y-10055658D01*
X23237803Y-10099652D01*
X23165659Y-10158859D01*
X23164800Y-10159906D01*
X23163941Y-10158859D01*
X23091797Y-10099652D01*
X23009489Y-10055658D01*
X22920179Y-10028566D01*
X22866517Y-10023281D01*
X22829679Y-9993049D01*
X22686010Y-9916256D01*
X22530120Y-9868968D01*
X22367999Y-9853000D01*
X22207610Y-9868798D01*
X22087824Y-9857000D01*
X21926216Y-9857000D01*
X21917059Y-9856303D01*
X21885668Y-9857000D01*
X21269586Y-9857000D01*
X21148090Y-9868966D01*
X20992200Y-9916255D01*
X20848531Y-9993048D01*
X20722604Y-10096394D01*
X20718130Y-10101846D01*
X20648659Y-10158859D01*
X20647800Y-10159906D01*
X20646941Y-10158859D01*
X20574797Y-10099652D01*
X20492489Y-10055658D01*
X20403179Y-10028566D01*
X20327353Y-10021098D01*
X20273679Y-9977048D01*
X20130010Y-9900255D01*
X19974120Y-9852966D01*
X19852624Y-9841000D01*
X18140373Y-9841000D01*
X18163434Y-9764979D01*
X18172582Y-9672100D01*
X18172582Y-9327100D01*
X18163434Y-9234221D01*
X18136342Y-9144911D01*
X18092348Y-9062603D01*
X18033141Y-8990459D01*
X17992645Y-8957224D01*
X22630961Y-8957224D01*
X22641453Y-9020777D01*
X22664143Y-9081062D01*
X22698157Y-9135762D01*
X22742190Y-9182775D01*
X22794548Y-9220294D01*
X23573970Y-9670294D01*
X23632642Y-9696878D01*
X23695372Y-9711505D01*
X23759751Y-9713612D01*
X23823304Y-9703120D01*
X23883589Y-9680430D01*
X23938289Y-9646416D01*
X23985302Y-9602383D01*
X24022821Y-9550025D01*
X24422821Y-8857205D01*
X24449405Y-8798533D01*
X24464032Y-8735803D01*
X24466139Y-8671424D01*
X24455647Y-8607871D01*
X24432957Y-8547586D01*
X24398943Y-8492886D01*
X24354910Y-8445873D01*
X24302552Y-8408354D01*
X23523130Y-7958354D01*
X23464458Y-7931770D01*
X23401728Y-7917143D01*
X23337349Y-7915036D01*
X23273796Y-7925528D01*
X23213511Y-7948218D01*
X23158811Y-7982232D01*
X23111798Y-8026265D01*
X23074279Y-8078623D01*
X22674279Y-8771443D01*
X22647695Y-8830115D01*
X22633068Y-8892845D01*
X22630961Y-8957224D01*
X17992645Y-8957224D01*
X17960997Y-8931252D01*
X17878689Y-8887258D01*
X17789379Y-8860166D01*
X17744982Y-8855793D01*
X17744982Y-8440800D01*
X17738668Y-8376697D01*
X17719970Y-8315057D01*
X17689606Y-8258250D01*
X17648743Y-8208457D01*
X17598950Y-8167594D01*
X17542143Y-8137230D01*
X17480503Y-8118532D01*
X17416400Y-8112218D01*
X16416400Y-8112218D01*
X16352297Y-8118532D01*
X16290657Y-8137230D01*
X16233850Y-8167594D01*
X16184057Y-8208457D01*
X16143194Y-8258250D01*
X16112830Y-8315057D01*
X16094132Y-8376697D01*
X16087818Y-8440800D01*
X16087818Y-8877518D01*
X16055711Y-8887258D01*
X15973403Y-8931252D01*
X15901259Y-8990459D01*
X15842052Y-9062603D01*
X15798058Y-9144911D01*
X15770966Y-9234221D01*
X15761818Y-9327100D01*
X15761818Y-9672100D01*
X15770966Y-9764979D01*
X15794027Y-9841000D01*
X14974576Y-9841000D01*
X14853080Y-9852966D01*
X14697190Y-9900255D01*
X14553521Y-9977048D01*
X14507002Y-10015226D01*
X14451097Y-10020732D01*
X14389457Y-10039430D01*
X14332650Y-10069794D01*
X14282857Y-10110657D01*
X14241994Y-10160450D01*
X14211630Y-10217257D01*
X14192932Y-10278897D01*
X14186618Y-10343000D01*
X14186618Y-10643439D01*
X14184199Y-10668000D01*
X14186618Y-10692561D01*
X14186618Y-10993000D01*
X14192932Y-11057103D01*
X14211630Y-11118743D01*
X14241994Y-11175550D01*
X14282857Y-11225343D01*
X14332650Y-11266206D01*
X14389457Y-11296570D01*
X14451097Y-11315268D01*
X14507002Y-11320774D01*
X14553521Y-11358952D01*
X14697190Y-11435745D01*
X14853080Y-11483034D01*
X14974576Y-11495000D01*
X19852624Y-11495000D01*
X19974120Y-11483034D01*
X20130010Y-11435745D01*
X20273679Y-11358952D01*
X20327353Y-11314902D01*
X20403179Y-11307434D01*
X20492489Y-11280342D01*
X20574797Y-11236348D01*
X20645828Y-11178054D01*
X20722604Y-11271606D01*
X20848531Y-11374952D01*
X20992200Y-11451745D01*
X21148090Y-11499034D01*
X21269586Y-11511000D01*
X21863380Y-11511000D01*
X22280057Y-11542715D01*
X22352000Y-11549801D01*
X22401790Y-11544897D01*
X22451794Y-11543787D01*
X22482653Y-11536933D01*
X22514120Y-11533834D01*
X22561999Y-11519310D01*
X22610823Y-11508466D01*
X22639749Y-11495724D01*
X22670010Y-11486545D01*
X22714139Y-11462957D01*
X22759906Y-11442798D01*
X22785789Y-11424660D01*
X22813679Y-11409752D01*
X22852359Y-11378008D01*
X22893313Y-11349308D01*
X22915161Y-11326468D01*
X22939606Y-11306406D01*
X22944922Y-11299928D01*
X23009489Y-11280342D01*
X23091797Y-11236348D01*
X23163941Y-11177141D01*
X23164800Y-11176094D01*
X23165659Y-11177141D01*
X23237803Y-11236348D01*
X23320111Y-11280342D01*
X23409421Y-11307434D01*
X23458632Y-11312281D01*
X23517845Y-11360876D01*
X23661514Y-11437669D01*
X23817404Y-11484958D01*
X23938900Y-11496924D01*
X24839641Y-11496924D01*
X24889692Y-11519602D01*
X24952422Y-11534229D01*
X25016801Y-11536336D01*
X25080354Y-11525844D01*
X25140639Y-11503154D01*
X25150658Y-11496924D01*
X27161324Y-11496924D01*
X27168280Y-11499034D01*
X27289776Y-11511000D01*
X28689786Y-11511000D01*
X28730400Y-11515000D01*
X28771014Y-11511000D01*
X28771024Y-11511000D01*
X28892520Y-11499034D01*
X28905818Y-11495000D01*
X34330624Y-11495000D01*
X34452120Y-11483034D01*
X34608010Y-11435745D01*
X34751679Y-11358952D01*
X34877606Y-11255606D01*
X34925000Y-11197856D01*
X34925000Y-23241000D01*
X127000Y-23241000D01*
X127000Y-17992090D01*
X20645468Y-17992090D01*
X20645468Y-18990310D01*
X20651782Y-19054413D01*
X20670480Y-19116053D01*
X20700844Y-19172860D01*
X20741707Y-19222653D01*
X20791500Y-19263516D01*
X20848307Y-19293880D01*
X20909947Y-19312578D01*
X20974050Y-19318892D01*
X21791854Y-19318892D01*
X21806430Y-19366943D01*
X21836794Y-19423750D01*
X21877657Y-19473543D01*
X21927450Y-19514406D01*
X21984257Y-19544770D01*
X22045897Y-19563468D01*
X22110000Y-19569782D01*
X23610000Y-19569782D01*
X23674103Y-19563468D01*
X23735743Y-19544770D01*
X23792550Y-19514406D01*
X23842343Y-19473543D01*
X23883206Y-19423750D01*
X23913570Y-19366943D01*
X23932268Y-19305303D01*
X23938582Y-19241200D01*
X23938582Y-17741200D01*
X23932268Y-17677097D01*
X23913570Y-17615457D01*
X23883206Y-17558650D01*
X23842343Y-17508857D01*
X23792550Y-17467994D01*
X23735743Y-17437630D01*
X23674103Y-17418932D01*
X23610000Y-17412618D01*
X23508582Y-17412618D01*
X23508582Y-17304700D01*
X23499434Y-17211821D01*
X23472342Y-17122511D01*
X23428348Y-17040203D01*
X23369141Y-16968059D01*
X23368094Y-16967200D01*
X23369141Y-16966341D01*
X23428348Y-16894197D01*
X23472342Y-16811889D01*
X23499434Y-16722579D01*
X23508582Y-16629700D01*
X23508582Y-16521782D01*
X23610000Y-16521782D01*
X23674103Y-16515468D01*
X23735743Y-16496770D01*
X23792550Y-16466406D01*
X23842343Y-16425543D01*
X23883206Y-16375750D01*
X23913570Y-16318943D01*
X23932268Y-16257303D01*
X23938582Y-16193200D01*
X23938582Y-14693200D01*
X23933579Y-14642400D01*
X25439018Y-14642400D01*
X25439018Y-16142400D01*
X25445332Y-16206503D01*
X25464030Y-16268143D01*
X25494394Y-16324950D01*
X25535257Y-16374743D01*
X25585050Y-16415606D01*
X25641857Y-16445970D01*
X25703497Y-16464668D01*
X25767600Y-16470982D01*
X25869018Y-16470982D01*
X25869018Y-16629700D01*
X25878166Y-16722579D01*
X25905258Y-16811889D01*
X25949252Y-16894197D01*
X26008459Y-16966341D01*
X26009506Y-16967200D01*
X26008459Y-16968059D01*
X25949252Y-17040203D01*
X25905258Y-17122511D01*
X25878166Y-17211821D01*
X25869018Y-17304700D01*
X25869018Y-17412618D01*
X25767600Y-17412618D01*
X25703497Y-17418932D01*
X25641857Y-17437630D01*
X25585050Y-17467994D01*
X25535257Y-17508857D01*
X25494394Y-17558650D01*
X25464030Y-17615457D01*
X25445332Y-17677097D01*
X25439018Y-17741200D01*
X25439018Y-19241200D01*
X25445332Y-19305303D01*
X25464030Y-19366943D01*
X25494394Y-19423750D01*
X25535257Y-19473543D01*
X25585050Y-19514406D01*
X25641857Y-19544770D01*
X25703497Y-19563468D01*
X25767600Y-19569782D01*
X27267600Y-19569782D01*
X27331703Y-19563468D01*
X27393343Y-19544770D01*
X27450150Y-19514406D01*
X27499943Y-19473543D01*
X27540806Y-19423750D01*
X27571170Y-19366943D01*
X27585746Y-19318892D01*
X28301950Y-19318892D01*
X28366053Y-19312578D01*
X28427693Y-19293880D01*
X28484500Y-19263516D01*
X28534293Y-19222653D01*
X28575156Y-19172860D01*
X28605520Y-19116053D01*
X28624218Y-19054413D01*
X28630532Y-18990310D01*
X28630532Y-17992090D01*
X28624218Y-17927987D01*
X28605520Y-17866347D01*
X28575156Y-17809540D01*
X28534293Y-17759747D01*
X28484500Y-17718884D01*
X28427693Y-17688520D01*
X28366053Y-17669822D01*
X28301950Y-17663508D01*
X27585746Y-17663508D01*
X27571170Y-17615457D01*
X27540806Y-17558650D01*
X27499943Y-17508857D01*
X27450150Y-17467994D01*
X27393343Y-17437630D01*
X27331703Y-17418932D01*
X27267600Y-17412618D01*
X27166182Y-17412618D01*
X27166182Y-17304700D01*
X27157034Y-17211821D01*
X27129942Y-17122511D01*
X27085948Y-17040203D01*
X27026741Y-16968059D01*
X27025694Y-16967200D01*
X27026741Y-16966341D01*
X27085948Y-16894197D01*
X27129942Y-16811889D01*
X27157034Y-16722579D01*
X27166182Y-16629700D01*
X27166182Y-16470982D01*
X27267600Y-16470982D01*
X27331703Y-16464668D01*
X27393343Y-16445970D01*
X27450150Y-16415606D01*
X27499943Y-16374743D01*
X27540806Y-16324950D01*
X27571170Y-16268143D01*
X27589868Y-16206503D01*
X27596182Y-16142400D01*
X27596182Y-14642400D01*
X27592516Y-14605180D01*
X27612234Y-14540179D01*
X27621382Y-14447300D01*
X27621382Y-14102300D01*
X27612234Y-14009421D01*
X27585142Y-13920111D01*
X27557502Y-13868400D01*
X27585142Y-13816689D01*
X27612234Y-13727379D01*
X27621382Y-13634500D01*
X27621382Y-13383873D01*
X27642743Y-13366343D01*
X27683606Y-13316550D01*
X27713970Y-13259743D01*
X27732668Y-13198103D01*
X27738982Y-13134000D01*
X27738982Y-12234000D01*
X27732668Y-12169897D01*
X27713970Y-12108257D01*
X27683606Y-12051450D01*
X27642743Y-12001657D01*
X27592950Y-11960794D01*
X27536143Y-11930430D01*
X27474503Y-11911732D01*
X27410400Y-11905418D01*
X26610400Y-11905418D01*
X26546297Y-11911732D01*
X26484657Y-11930430D01*
X26427850Y-11960794D01*
X26378057Y-12001657D01*
X26337194Y-12051450D01*
X26306830Y-12108257D01*
X26288132Y-12169897D01*
X26281818Y-12234000D01*
X26281818Y-13134000D01*
X26288132Y-13198103D01*
X26306830Y-13259743D01*
X26337194Y-13316550D01*
X26374218Y-13361665D01*
X26374218Y-13634500D01*
X26383366Y-13727379D01*
X26410458Y-13816689D01*
X26438098Y-13868400D01*
X26410458Y-13920111D01*
X26383366Y-14009421D01*
X26374218Y-14102300D01*
X26374218Y-14313818D01*
X25767600Y-14313818D01*
X25703497Y-14320132D01*
X25641857Y-14338830D01*
X25585050Y-14369194D01*
X25535257Y-14410057D01*
X25494394Y-14459850D01*
X25464030Y-14516657D01*
X25445332Y-14578297D01*
X25439018Y-14642400D01*
X23933579Y-14642400D01*
X23932268Y-14629097D01*
X23913570Y-14567457D01*
X23883206Y-14510650D01*
X23842343Y-14460857D01*
X23792550Y-14419994D01*
X23735743Y-14389630D01*
X23674103Y-14370932D01*
X23610000Y-14364618D01*
X22952582Y-14364618D01*
X22952582Y-14153100D01*
X22943434Y-14060221D01*
X22916342Y-13970911D01*
X22888702Y-13919200D01*
X22916342Y-13867489D01*
X22943434Y-13778179D01*
X22952582Y-13685300D01*
X22952582Y-13563798D01*
X23053798Y-13462582D01*
X23244800Y-13462582D01*
X23308903Y-13456268D01*
X23370543Y-13437570D01*
X23427350Y-13407206D01*
X23477143Y-13366343D01*
X23518006Y-13316550D01*
X23548370Y-13259743D01*
X23567068Y-13198103D01*
X23573382Y-13134000D01*
X23573382Y-12234000D01*
X24381818Y-12234000D01*
X24381818Y-13134000D01*
X24388132Y-13198103D01*
X24406830Y-13259743D01*
X24437194Y-13316550D01*
X24478057Y-13366343D01*
X24527850Y-13407206D01*
X24584657Y-13437570D01*
X24646297Y-13456268D01*
X24710400Y-13462582D01*
X25510400Y-13462582D01*
X25574503Y-13456268D01*
X25636143Y-13437570D01*
X25692950Y-13407206D01*
X25742743Y-13366343D01*
X25783606Y-13316550D01*
X25813970Y-13259743D01*
X25832668Y-13198103D01*
X25838982Y-13134000D01*
X25838982Y-12234000D01*
X25832668Y-12169897D01*
X25813970Y-12108257D01*
X25783606Y-12051450D01*
X25742743Y-12001657D01*
X25692950Y-11960794D01*
X25636143Y-11930430D01*
X25574503Y-11911732D01*
X25510400Y-11905418D01*
X24710400Y-11905418D01*
X24646297Y-11911732D01*
X24584657Y-11930430D01*
X24527850Y-11960794D01*
X24478057Y-12001657D01*
X24437194Y-12051450D01*
X24406830Y-12108257D01*
X24388132Y-12169897D01*
X24381818Y-12234000D01*
X23573382Y-12234000D01*
X23567068Y-12169897D01*
X23548370Y-12108257D01*
X23518006Y-12051450D01*
X23477143Y-12001657D01*
X23427350Y-11960794D01*
X23370543Y-11930430D01*
X23308903Y-11911732D01*
X23244800Y-11905418D01*
X22444800Y-11905418D01*
X22380697Y-11911732D01*
X22319057Y-11930430D01*
X22262250Y-11960794D01*
X22212457Y-12001657D01*
X22171594Y-12051450D01*
X22141230Y-12108257D01*
X22122532Y-12169897D01*
X22116218Y-12234000D01*
X22116218Y-12870648D01*
X22088621Y-12873366D01*
X21999311Y-12900458D01*
X21917003Y-12944452D01*
X21844859Y-13003659D01*
X21785652Y-13075803D01*
X21741658Y-13158111D01*
X21714566Y-13247421D01*
X21705418Y-13340300D01*
X21705418Y-13685300D01*
X21714566Y-13778179D01*
X21741658Y-13867489D01*
X21769298Y-13919200D01*
X21741658Y-13970911D01*
X21714566Y-14060221D01*
X21705418Y-14153100D01*
X21705418Y-14498100D01*
X21714566Y-14590979D01*
X21741658Y-14680289D01*
X21781418Y-14754676D01*
X21781418Y-16193200D01*
X21787732Y-16257303D01*
X21806430Y-16318943D01*
X21836794Y-16375750D01*
X21877657Y-16425543D01*
X21927450Y-16466406D01*
X21984257Y-16496770D01*
X22045897Y-16515468D01*
X22110000Y-16521782D01*
X22211418Y-16521782D01*
X22211418Y-16629700D01*
X22220566Y-16722579D01*
X22247658Y-16811889D01*
X22291652Y-16894197D01*
X22350859Y-16966341D01*
X22351906Y-16967200D01*
X22350859Y-16968059D01*
X22291652Y-17040203D01*
X22247658Y-17122511D01*
X22220566Y-17211821D01*
X22211418Y-17304700D01*
X22211418Y-17412618D01*
X22110000Y-17412618D01*
X22045897Y-17418932D01*
X21984257Y-17437630D01*
X21927450Y-17467994D01*
X21877657Y-17508857D01*
X21836794Y-17558650D01*
X21806430Y-17615457D01*
X21791854Y-17663508D01*
X20974050Y-17663508D01*
X20909947Y-17669822D01*
X20848307Y-17688520D01*
X20791500Y-17718884D01*
X20741707Y-17759747D01*
X20700844Y-17809540D01*
X20670480Y-17866347D01*
X20651782Y-17927987D01*
X20645468Y-17992090D01*
X127000Y-17992090D01*
X127000Y-15807690D01*
X8519508Y-15807690D01*
X8519508Y-16805910D01*
X8525822Y-16870013D01*
X8544520Y-16931653D01*
X8574884Y-16988460D01*
X8615747Y-17038253D01*
X8665540Y-17079116D01*
X8722347Y-17109480D01*
X8783987Y-17128178D01*
X8848090Y-17134492D01*
X9640218Y-17134492D01*
X9640218Y-17260000D01*
X9646532Y-17324103D01*
X9665230Y-17385743D01*
X9695594Y-17442550D01*
X9736457Y-17492343D01*
X9786250Y-17533206D01*
X9843057Y-17563570D01*
X9904697Y-17582268D01*
X9968800Y-17588582D01*
X11468800Y-17588582D01*
X11532903Y-17582268D01*
X11594543Y-17563570D01*
X11651350Y-17533206D01*
X11701143Y-17492343D01*
X11742006Y-17442550D01*
X11772370Y-17385743D01*
X11791068Y-17324103D01*
X11797382Y-17260000D01*
X11797382Y-15760000D01*
X11791068Y-15695897D01*
X11772370Y-15634257D01*
X11742006Y-15577450D01*
X11701143Y-15527657D01*
X11651350Y-15486794D01*
X11594543Y-15456430D01*
X11532903Y-15437732D01*
X11468800Y-15431418D01*
X9968800Y-15431418D01*
X9904697Y-15437732D01*
X9902400Y-15438429D01*
X9902400Y-14711380D01*
X9943748Y-14660997D01*
X9987742Y-14578689D01*
X10014834Y-14489379D01*
X10023982Y-14396500D01*
X10023982Y-14051500D01*
X10014834Y-13958621D01*
X9992999Y-13886642D01*
X10015114Y-13813739D01*
X10024262Y-13720860D01*
X10024262Y-13375860D01*
X10015114Y-13282981D01*
X9988022Y-13193671D01*
X9944028Y-13111363D01*
X9884821Y-13039219D01*
X9855000Y-13014746D01*
X9855000Y-12805061D01*
X9856582Y-12789000D01*
X9856582Y-11939000D01*
X9850268Y-11874897D01*
X9831570Y-11813257D01*
X9801206Y-11756450D01*
X9760343Y-11706657D01*
X9710550Y-11665794D01*
X9653743Y-11635430D01*
X9592103Y-11616732D01*
X9528000Y-11610418D01*
X9228000Y-11610418D01*
X9163897Y-11616732D01*
X9102257Y-11635430D01*
X9045450Y-11665794D01*
X8995657Y-11706657D01*
X8954794Y-11756450D01*
X8924430Y-11813257D01*
X8905732Y-11874897D01*
X8899418Y-11939000D01*
X8899418Y-12789000D01*
X8901000Y-12805065D01*
X8901001Y-13058153D01*
X8857332Y-13111363D01*
X8813338Y-13193671D01*
X8786246Y-13282981D01*
X8777098Y-13375860D01*
X8777098Y-13720860D01*
X8786246Y-13813739D01*
X8808081Y-13885718D01*
X8785966Y-13958621D01*
X8776818Y-14051500D01*
X8776818Y-14396500D01*
X8785966Y-14489379D01*
X8813058Y-14578689D01*
X8857052Y-14660997D01*
X8898400Y-14711380D01*
X8898401Y-15479108D01*
X8848090Y-15479108D01*
X8783987Y-15485422D01*
X8722347Y-15504120D01*
X8665540Y-15534484D01*
X8615747Y-15575347D01*
X8574884Y-15625140D01*
X8544520Y-15681947D01*
X8525822Y-15743587D01*
X8519508Y-15807690D01*
X127000Y-15807690D01*
X127000Y-11822782D01*
X1435800Y-11822782D01*
X1499903Y-11816468D01*
X1561543Y-11797770D01*
X1618350Y-11767406D01*
X1668143Y-11726543D01*
X1709006Y-11676750D01*
X1739370Y-11619943D01*
X1758068Y-11558303D01*
X1764382Y-11494200D01*
X1764382Y-11364562D01*
X1882140Y-11364562D01*
X1975019Y-11355414D01*
X2064329Y-11328322D01*
X2146637Y-11284328D01*
X2218781Y-11225121D01*
X2219640Y-11224074D01*
X2220499Y-11225121D01*
X2292643Y-11284328D01*
X2374951Y-11328322D01*
X2464261Y-11355414D01*
X2557140Y-11364562D01*
X2799676Y-11364562D01*
X2804120Y-11379213D01*
X2834484Y-11436020D01*
X2875347Y-11485813D01*
X2925140Y-11526676D01*
X2981947Y-11557040D01*
X3043587Y-11575738D01*
X3107690Y-11582052D01*
X4105910Y-11582052D01*
X4170013Y-11575738D01*
X4231653Y-11557040D01*
X4288460Y-11526676D01*
X4338253Y-11485813D01*
X4379116Y-11436020D01*
X4409480Y-11379213D01*
X4428178Y-11317573D01*
X4434492Y-11253470D01*
X4434492Y-11141000D01*
X4534509Y-11141000D01*
X4592203Y-11188348D01*
X4674511Y-11232342D01*
X4763821Y-11259434D01*
X4856700Y-11268582D01*
X5201700Y-11268582D01*
X5294579Y-11259434D01*
X5383889Y-11232342D01*
X5466197Y-11188348D01*
X5523891Y-11141000D01*
X5736939Y-11141000D01*
X5753000Y-11142582D01*
X6603000Y-11142582D01*
X6667103Y-11136268D01*
X6728743Y-11117570D01*
X6785550Y-11087206D01*
X6835343Y-11046343D01*
X6876206Y-10996550D01*
X6906570Y-10939743D01*
X6925268Y-10878103D01*
X6931582Y-10814000D01*
X6931582Y-10514000D01*
X9324418Y-10514000D01*
X9324418Y-10814000D01*
X9330732Y-10878103D01*
X9349430Y-10939743D01*
X9379794Y-10996550D01*
X9420657Y-11046343D01*
X9470450Y-11087206D01*
X9527257Y-11117570D01*
X9588897Y-11136268D01*
X9653000Y-11142582D01*
X9926339Y-11142582D01*
X9979591Y-11158736D01*
X10053347Y-11166000D01*
X10514856Y-11166000D01*
X10588394Y-11255606D01*
X10714321Y-11358952D01*
X10857990Y-11435745D01*
X11013880Y-11483034D01*
X11135376Y-11495000D01*
X12508224Y-11495000D01*
X12629720Y-11483034D01*
X12785610Y-11435745D01*
X12929279Y-11358952D01*
X13055206Y-11255606D01*
X13158552Y-11129679D01*
X13235345Y-10986010D01*
X13282634Y-10830120D01*
X13298601Y-10668000D01*
X13282634Y-10505880D01*
X13235345Y-10349990D01*
X13158552Y-10206321D01*
X13055206Y-10080394D01*
X12929279Y-9977048D01*
X12785610Y-9900255D01*
X12629720Y-9852966D01*
X12508224Y-9841000D01*
X11135376Y-9841000D01*
X11013880Y-9852966D01*
X10857990Y-9900255D01*
X10714321Y-9977048D01*
X10588394Y-10080394D01*
X10521421Y-10162000D01*
X10053347Y-10162000D01*
X9979591Y-10169264D01*
X9926339Y-10185418D01*
X9653000Y-10185418D01*
X9588897Y-10191732D01*
X9527257Y-10210430D01*
X9470450Y-10240794D01*
X9420657Y-10281657D01*
X9379794Y-10331450D01*
X9349430Y-10388257D01*
X9330732Y-10449897D01*
X9324418Y-10514000D01*
X6931582Y-10514000D01*
X6925268Y-10449897D01*
X6906570Y-10388257D01*
X6876206Y-10331450D01*
X6835343Y-10281657D01*
X6785550Y-10240794D01*
X6728743Y-10210430D01*
X6667103Y-10191732D01*
X6603000Y-10185418D01*
X5753000Y-10185418D01*
X5736939Y-10187000D01*
X5559794Y-10187000D01*
X5538341Y-10160859D01*
X5466197Y-10101652D01*
X5383889Y-10057658D01*
X5294579Y-10030566D01*
X5201700Y-10021418D01*
X4856700Y-10021418D01*
X4763821Y-10030566D01*
X4674511Y-10057658D01*
X4592203Y-10101652D01*
X4520059Y-10160859D01*
X4498606Y-10187000D01*
X4434492Y-10187000D01*
X4434492Y-10153650D01*
X4428178Y-10089547D01*
X4409480Y-10027907D01*
X4379116Y-9971100D01*
X4338253Y-9921307D01*
X4288460Y-9880444D01*
X4231653Y-9850080D01*
X4170013Y-9831382D01*
X4105910Y-9825068D01*
X3107690Y-9825068D01*
X3043587Y-9831382D01*
X2981947Y-9850080D01*
X2925140Y-9880444D01*
X2875347Y-9921307D01*
X2834484Y-9971100D01*
X2804120Y-10027907D01*
X2792141Y-10067398D01*
X2557140Y-10067398D01*
X2464261Y-10076546D01*
X2374951Y-10103638D01*
X2292643Y-10147632D01*
X2220499Y-10206839D01*
X2219640Y-10207886D01*
X2218781Y-10206839D01*
X2146637Y-10147632D01*
X2064329Y-10103638D01*
X1975019Y-10076546D01*
X1882140Y-10067398D01*
X1764382Y-10067398D01*
X1764382Y-9994200D01*
X1758068Y-9930097D01*
X1739370Y-9868457D01*
X1709006Y-9811650D01*
X1668143Y-9761857D01*
X1618350Y-9720994D01*
X1561543Y-9690630D01*
X1499903Y-9671932D01*
X1435800Y-9665618D01*
X127000Y-9665618D01*
X127000Y-127000D01*
X34925000Y-127000D01*
X34925000Y-10138144D01*
G37*
X34925000Y-10138144D02*
X34877606Y-10080394D01*
X34751679Y-9977048D01*
X34608010Y-9900255D01*
X34452120Y-9852966D01*
X34330624Y-9841000D01*
X28787010Y-9841000D01*
X28746399Y-9837000D01*
X28705788Y-9841000D01*
X28705776Y-9841000D01*
X28584280Y-9852966D01*
X28570982Y-9857000D01*
X27485400Y-9857000D01*
X27478444Y-9854890D01*
X27356948Y-9842924D01*
X26114411Y-9842924D01*
X26145339Y-9823692D01*
X26192352Y-9779659D01*
X26229871Y-9727301D01*
X26629871Y-9034481D01*
X26653386Y-8982582D01*
X26994900Y-8982582D01*
X27087779Y-8973434D01*
X27177089Y-8946342D01*
X27259397Y-8902348D01*
X27331541Y-8843141D01*
X27390748Y-8770997D01*
X27434742Y-8688689D01*
X27461834Y-8599379D01*
X27470982Y-8506500D01*
X27470982Y-8211500D01*
X27461834Y-8118621D01*
X27434742Y-8029311D01*
X27390748Y-7947003D01*
X27331541Y-7874859D01*
X27259397Y-7815652D01*
X27177089Y-7771658D01*
X27087779Y-7744566D01*
X26994900Y-7735418D01*
X26649900Y-7735418D01*
X26557021Y-7744566D01*
X26467711Y-7771658D01*
X26416000Y-7799298D01*
X26364289Y-7771658D01*
X26274979Y-7744566D01*
X26182100Y-7735418D01*
X25958998Y-7735418D01*
X25134182Y-6910603D01*
X25134182Y-6789100D01*
X25125034Y-6696221D01*
X25097942Y-6606911D01*
X25053948Y-6524603D01*
X24994741Y-6452459D01*
X24993694Y-6451600D01*
X24994741Y-6450741D01*
X25053948Y-6378597D01*
X25097942Y-6296289D01*
X25125034Y-6206979D01*
X25134182Y-6114100D01*
X25134182Y-6006182D01*
X25235600Y-6006182D01*
X25299703Y-5999868D01*
X25361343Y-5981170D01*
X25418150Y-5950806D01*
X25467943Y-5909943D01*
X25508806Y-5860150D01*
X25539170Y-5803343D01*
X25553746Y-5755292D01*
X26386790Y-5755292D01*
X26450893Y-5748978D01*
X26512533Y-5730280D01*
X26569340Y-5699916D01*
X26619133Y-5659053D01*
X26659996Y-5609260D01*
X26690360Y-5552453D01*
X26709058Y-5490813D01*
X26715372Y-5426710D01*
X26715372Y-4428490D01*
X26709058Y-4364387D01*
X26690360Y-4302747D01*
X26659996Y-4245940D01*
X26619133Y-4196147D01*
X26569340Y-4155284D01*
X26512533Y-4124920D01*
X26450893Y-4106222D01*
X26386790Y-4099908D01*
X25553746Y-4099908D01*
X25539170Y-4051857D01*
X25508806Y-3995050D01*
X25467943Y-3945257D01*
X25418150Y-3904394D01*
X25361343Y-3874030D01*
X25299703Y-3855332D01*
X25235600Y-3849018D01*
X23735600Y-3849018D01*
X23671497Y-3855332D01*
X23609857Y-3874030D01*
X23553050Y-3904394D01*
X23503257Y-3945257D01*
X23462394Y-3995050D01*
X23432030Y-4051857D01*
X23413332Y-4113497D01*
X23407018Y-4177600D01*
X23407018Y-5677600D01*
X23413332Y-5741703D01*
X23432030Y-5803343D01*
X23462394Y-5860150D01*
X23503257Y-5909943D01*
X23553050Y-5950806D01*
X23609857Y-5981170D01*
X23671497Y-5999868D01*
X23735600Y-6006182D01*
X23837018Y-6006182D01*
X23837018Y-6114100D01*
X23846166Y-6206979D01*
X23873258Y-6296289D01*
X23917252Y-6378597D01*
X23976459Y-6450741D01*
X23977506Y-6451600D01*
X23976459Y-6452459D01*
X23970599Y-6459600D01*
X23220980Y-6459600D01*
X22922582Y-6161203D01*
X22922582Y-5498400D01*
X22916268Y-5434297D01*
X22897570Y-5372657D01*
X22867206Y-5315850D01*
X22826343Y-5266057D01*
X22776550Y-5225194D01*
X22719743Y-5194830D01*
X22658103Y-5176132D01*
X22594000Y-5169818D01*
X21094000Y-5169818D01*
X21029897Y-5176132D01*
X20968257Y-5194830D01*
X20911450Y-5225194D01*
X20861657Y-5266057D01*
X20820794Y-5315850D01*
X20790430Y-5372657D01*
X20771732Y-5434297D01*
X20765418Y-5498400D01*
X20765418Y-6998400D01*
X20771732Y-7062503D01*
X20790430Y-7124143D01*
X20820794Y-7180950D01*
X20861657Y-7230743D01*
X20911450Y-7271606D01*
X20968257Y-7301970D01*
X21029897Y-7320668D01*
X21094000Y-7326982D01*
X22594000Y-7326982D01*
X22658103Y-7320668D01*
X22717526Y-7302642D01*
X22757111Y-7335129D01*
X22839977Y-7379422D01*
X22929892Y-7406697D01*
X22999977Y-7413600D01*
X22999985Y-7413600D01*
X23023400Y-7415906D01*
X23046815Y-7413600D01*
X23970599Y-7413600D01*
X23976459Y-7420741D01*
X24048603Y-7479948D01*
X24130911Y-7523942D01*
X24220221Y-7551034D01*
X24313100Y-7560182D01*
X24434603Y-7560182D01*
X25226056Y-8351635D01*
X24881329Y-8948719D01*
X24854745Y-9007391D01*
X24840118Y-9070121D01*
X24838011Y-9134500D01*
X24848503Y-9198053D01*
X24871193Y-9258338D01*
X24905207Y-9313038D01*
X24949240Y-9360051D01*
X25001598Y-9397570D01*
X25772973Y-9842924D01*
X24887300Y-9842924D01*
X24780180Y-9781078D01*
X24721508Y-9754494D01*
X24658778Y-9739867D01*
X24594399Y-9737760D01*
X24530846Y-9748252D01*
X24470561Y-9770942D01*
X24415861Y-9804956D01*
X24375323Y-9842924D01*
X23938900Y-9842924D01*
X23817404Y-9854890D01*
X23661514Y-9902179D01*
X23517845Y-9978972D01*
X23463960Y-10023194D01*
X23409421Y-10028566D01*
X23320111Y-10055658D01*
X23237803Y-10099652D01*
X23165659Y-10158859D01*
X23164800Y-10159906D01*
X23163941Y-10158859D01*
X23091797Y-10099652D01*
X23009489Y-10055658D01*
X22920179Y-10028566D01*
X22866517Y-10023281D01*
X22829679Y-9993049D01*
X22686010Y-9916256D01*
X22530120Y-9868968D01*
X22367999Y-9853000D01*
X22207610Y-9868798D01*
X22087824Y-9857000D01*
X21926216Y-9857000D01*
X21917059Y-9856303D01*
X21885668Y-9857000D01*
X21269586Y-9857000D01*
X21148090Y-9868966D01*
X20992200Y-9916255D01*
X20848531Y-9993048D01*
X20722604Y-10096394D01*
X20718130Y-10101846D01*
X20648659Y-10158859D01*
X20647800Y-10159906D01*
X20646941Y-10158859D01*
X20574797Y-10099652D01*
X20492489Y-10055658D01*
X20403179Y-10028566D01*
X20327353Y-10021098D01*
X20273679Y-9977048D01*
X20130010Y-9900255D01*
X19974120Y-9852966D01*
X19852624Y-9841000D01*
X18140373Y-9841000D01*
X18163434Y-9764979D01*
X18172582Y-9672100D01*
X18172582Y-9327100D01*
X18163434Y-9234221D01*
X18136342Y-9144911D01*
X18092348Y-9062603D01*
X18033141Y-8990459D01*
X17992645Y-8957224D01*
X22630961Y-8957224D01*
X22641453Y-9020777D01*
X22664143Y-9081062D01*
X22698157Y-9135762D01*
X22742190Y-9182775D01*
X22794548Y-9220294D01*
X23573970Y-9670294D01*
X23632642Y-9696878D01*
X23695372Y-9711505D01*
X23759751Y-9713612D01*
X23823304Y-9703120D01*
X23883589Y-9680430D01*
X23938289Y-9646416D01*
X23985302Y-9602383D01*
X24022821Y-9550025D01*
X24422821Y-8857205D01*
X24449405Y-8798533D01*
X24464032Y-8735803D01*
X24466139Y-8671424D01*
X24455647Y-8607871D01*
X24432957Y-8547586D01*
X24398943Y-8492886D01*
X24354910Y-8445873D01*
X24302552Y-8408354D01*
X23523130Y-7958354D01*
X23464458Y-7931770D01*
X23401728Y-7917143D01*
X23337349Y-7915036D01*
X23273796Y-7925528D01*
X23213511Y-7948218D01*
X23158811Y-7982232D01*
X23111798Y-8026265D01*
X23074279Y-8078623D01*
X22674279Y-8771443D01*
X22647695Y-8830115D01*
X22633068Y-8892845D01*
X22630961Y-8957224D01*
X17992645Y-8957224D01*
X17960997Y-8931252D01*
X17878689Y-8887258D01*
X17789379Y-8860166D01*
X17744982Y-8855793D01*
X17744982Y-8440800D01*
X17738668Y-8376697D01*
X17719970Y-8315057D01*
X17689606Y-8258250D01*
X17648743Y-8208457D01*
X17598950Y-8167594D01*
X17542143Y-8137230D01*
X17480503Y-8118532D01*
X17416400Y-8112218D01*
X16416400Y-8112218D01*
X16352297Y-8118532D01*
X16290657Y-8137230D01*
X16233850Y-8167594D01*
X16184057Y-8208457D01*
X16143194Y-8258250D01*
X16112830Y-8315057D01*
X16094132Y-8376697D01*
X16087818Y-8440800D01*
X16087818Y-8877518D01*
X16055711Y-8887258D01*
X15973403Y-8931252D01*
X15901259Y-8990459D01*
X15842052Y-9062603D01*
X15798058Y-9144911D01*
X15770966Y-9234221D01*
X15761818Y-9327100D01*
X15761818Y-9672100D01*
X15770966Y-9764979D01*
X15794027Y-9841000D01*
X14974576Y-9841000D01*
X14853080Y-9852966D01*
X14697190Y-9900255D01*
X14553521Y-9977048D01*
X14507002Y-10015226D01*
X14451097Y-10020732D01*
X14389457Y-10039430D01*
X14332650Y-10069794D01*
X14282857Y-10110657D01*
X14241994Y-10160450D01*
X14211630Y-10217257D01*
X14192932Y-10278897D01*
X14186618Y-10343000D01*
X14186618Y-10643439D01*
X14184199Y-10668000D01*
X14186618Y-10692561D01*
X14186618Y-10993000D01*
X14192932Y-11057103D01*
X14211630Y-11118743D01*
X14241994Y-11175550D01*
X14282857Y-11225343D01*
X14332650Y-11266206D01*
X14389457Y-11296570D01*
X14451097Y-11315268D01*
X14507002Y-11320774D01*
X14553521Y-11358952D01*
X14697190Y-11435745D01*
X14853080Y-11483034D01*
X14974576Y-11495000D01*
X19852624Y-11495000D01*
X19974120Y-11483034D01*
X20130010Y-11435745D01*
X20273679Y-11358952D01*
X20327353Y-11314902D01*
X20403179Y-11307434D01*
X20492489Y-11280342D01*
X20574797Y-11236348D01*
X20645828Y-11178054D01*
X20722604Y-11271606D01*
X20848531Y-11374952D01*
X20992200Y-11451745D01*
X21148090Y-11499034D01*
X21269586Y-11511000D01*
X21863380Y-11511000D01*
X22280057Y-11542715D01*
X22352000Y-11549801D01*
X22401790Y-11544897D01*
X22451794Y-11543787D01*
X22482653Y-11536933D01*
X22514120Y-11533834D01*
X22561999Y-11519310D01*
X22610823Y-11508466D01*
X22639749Y-11495724D01*
X22670010Y-11486545D01*
X22714139Y-11462957D01*
X22759906Y-11442798D01*
X22785789Y-11424660D01*
X22813679Y-11409752D01*
X22852359Y-11378008D01*
X22893313Y-11349308D01*
X22915161Y-11326468D01*
X22939606Y-11306406D01*
X22944922Y-11299928D01*
X23009489Y-11280342D01*
X23091797Y-11236348D01*
X23163941Y-11177141D01*
X23164800Y-11176094D01*
X23165659Y-11177141D01*
X23237803Y-11236348D01*
X23320111Y-11280342D01*
X23409421Y-11307434D01*
X23458632Y-11312281D01*
X23517845Y-11360876D01*
X23661514Y-11437669D01*
X23817404Y-11484958D01*
X23938900Y-11496924D01*
X24839641Y-11496924D01*
X24889692Y-11519602D01*
X24952422Y-11534229D01*
X25016801Y-11536336D01*
X25080354Y-11525844D01*
X25140639Y-11503154D01*
X25150658Y-11496924D01*
X27161324Y-11496924D01*
X27168280Y-11499034D01*
X27289776Y-11511000D01*
X28689786Y-11511000D01*
X28730400Y-11515000D01*
X28771014Y-11511000D01*
X28771024Y-11511000D01*
X28892520Y-11499034D01*
X28905818Y-11495000D01*
X34330624Y-11495000D01*
X34452120Y-11483034D01*
X34608010Y-11435745D01*
X34751679Y-11358952D01*
X34877606Y-11255606D01*
X34925000Y-11197856D01*
X34925000Y-23241000D01*
X127000Y-23241000D01*
X127000Y-17992090D01*
X20645468Y-17992090D01*
X20645468Y-18990310D01*
X20651782Y-19054413D01*
X20670480Y-19116053D01*
X20700844Y-19172860D01*
X20741707Y-19222653D01*
X20791500Y-19263516D01*
X20848307Y-19293880D01*
X20909947Y-19312578D01*
X20974050Y-19318892D01*
X21791854Y-19318892D01*
X21806430Y-19366943D01*
X21836794Y-19423750D01*
X21877657Y-19473543D01*
X21927450Y-19514406D01*
X21984257Y-19544770D01*
X22045897Y-19563468D01*
X22110000Y-19569782D01*
X23610000Y-19569782D01*
X23674103Y-19563468D01*
X23735743Y-19544770D01*
X23792550Y-19514406D01*
X23842343Y-19473543D01*
X23883206Y-19423750D01*
X23913570Y-19366943D01*
X23932268Y-19305303D01*
X23938582Y-19241200D01*
X23938582Y-17741200D01*
X23932268Y-17677097D01*
X23913570Y-17615457D01*
X23883206Y-17558650D01*
X23842343Y-17508857D01*
X23792550Y-17467994D01*
X23735743Y-17437630D01*
X23674103Y-17418932D01*
X23610000Y-17412618D01*
X23508582Y-17412618D01*
X23508582Y-17304700D01*
X23499434Y-17211821D01*
X23472342Y-17122511D01*
X23428348Y-17040203D01*
X23369141Y-16968059D01*
X23368094Y-16967200D01*
X23369141Y-16966341D01*
X23428348Y-16894197D01*
X23472342Y-16811889D01*
X23499434Y-16722579D01*
X23508582Y-16629700D01*
X23508582Y-16521782D01*
X23610000Y-16521782D01*
X23674103Y-16515468D01*
X23735743Y-16496770D01*
X23792550Y-16466406D01*
X23842343Y-16425543D01*
X23883206Y-16375750D01*
X23913570Y-16318943D01*
X23932268Y-16257303D01*
X23938582Y-16193200D01*
X23938582Y-14693200D01*
X23933579Y-14642400D01*
X25439018Y-14642400D01*
X25439018Y-16142400D01*
X25445332Y-16206503D01*
X25464030Y-16268143D01*
X25494394Y-16324950D01*
X25535257Y-16374743D01*
X25585050Y-16415606D01*
X25641857Y-16445970D01*
X25703497Y-16464668D01*
X25767600Y-16470982D01*
X25869018Y-16470982D01*
X25869018Y-16629700D01*
X25878166Y-16722579D01*
X25905258Y-16811889D01*
X25949252Y-16894197D01*
X26008459Y-16966341D01*
X26009506Y-16967200D01*
X26008459Y-16968059D01*
X25949252Y-17040203D01*
X25905258Y-17122511D01*
X25878166Y-17211821D01*
X25869018Y-17304700D01*
X25869018Y-17412618D01*
X25767600Y-17412618D01*
X25703497Y-17418932D01*
X25641857Y-17437630D01*
X25585050Y-17467994D01*
X25535257Y-17508857D01*
X25494394Y-17558650D01*
X25464030Y-17615457D01*
X25445332Y-17677097D01*
X25439018Y-17741200D01*
X25439018Y-19241200D01*
X25445332Y-19305303D01*
X25464030Y-19366943D01*
X25494394Y-19423750D01*
X25535257Y-19473543D01*
X25585050Y-19514406D01*
X25641857Y-19544770D01*
X25703497Y-19563468D01*
X25767600Y-19569782D01*
X27267600Y-19569782D01*
X27331703Y-19563468D01*
X27393343Y-19544770D01*
X27450150Y-19514406D01*
X27499943Y-19473543D01*
X27540806Y-19423750D01*
X27571170Y-19366943D01*
X27585746Y-19318892D01*
X28301950Y-19318892D01*
X28366053Y-19312578D01*
X28427693Y-19293880D01*
X28484500Y-19263516D01*
X28534293Y-19222653D01*
X28575156Y-19172860D01*
X28605520Y-19116053D01*
X28624218Y-19054413D01*
X28630532Y-18990310D01*
X28630532Y-17992090D01*
X28624218Y-17927987D01*
X28605520Y-17866347D01*
X28575156Y-17809540D01*
X28534293Y-17759747D01*
X28484500Y-17718884D01*
X28427693Y-17688520D01*
X28366053Y-17669822D01*
X28301950Y-17663508D01*
X27585746Y-17663508D01*
X27571170Y-17615457D01*
X27540806Y-17558650D01*
X27499943Y-17508857D01*
X27450150Y-17467994D01*
X27393343Y-17437630D01*
X27331703Y-17418932D01*
X27267600Y-17412618D01*
X27166182Y-17412618D01*
X27166182Y-17304700D01*
X27157034Y-17211821D01*
X27129942Y-17122511D01*
X27085948Y-17040203D01*
X27026741Y-16968059D01*
X27025694Y-16967200D01*
X27026741Y-16966341D01*
X27085948Y-16894197D01*
X27129942Y-16811889D01*
X27157034Y-16722579D01*
X27166182Y-16629700D01*
X27166182Y-16470982D01*
X27267600Y-16470982D01*
X27331703Y-16464668D01*
X27393343Y-16445970D01*
X27450150Y-16415606D01*
X27499943Y-16374743D01*
X27540806Y-16324950D01*
X27571170Y-16268143D01*
X27589868Y-16206503D01*
X27596182Y-16142400D01*
X27596182Y-14642400D01*
X27592516Y-14605180D01*
X27612234Y-14540179D01*
X27621382Y-14447300D01*
X27621382Y-14102300D01*
X27612234Y-14009421D01*
X27585142Y-13920111D01*
X27557502Y-13868400D01*
X27585142Y-13816689D01*
X27612234Y-13727379D01*
X27621382Y-13634500D01*
X27621382Y-13383873D01*
X27642743Y-13366343D01*
X27683606Y-13316550D01*
X27713970Y-13259743D01*
X27732668Y-13198103D01*
X27738982Y-13134000D01*
X27738982Y-12234000D01*
X27732668Y-12169897D01*
X27713970Y-12108257D01*
X27683606Y-12051450D01*
X27642743Y-12001657D01*
X27592950Y-11960794D01*
X27536143Y-11930430D01*
X27474503Y-11911732D01*
X27410400Y-11905418D01*
X26610400Y-11905418D01*
X26546297Y-11911732D01*
X26484657Y-11930430D01*
X26427850Y-11960794D01*
X26378057Y-12001657D01*
X26337194Y-12051450D01*
X26306830Y-12108257D01*
X26288132Y-12169897D01*
X26281818Y-12234000D01*
X26281818Y-13134000D01*
X26288132Y-13198103D01*
X26306830Y-13259743D01*
X26337194Y-13316550D01*
X26374218Y-13361665D01*
X26374218Y-13634500D01*
X26383366Y-13727379D01*
X26410458Y-13816689D01*
X26438098Y-13868400D01*
X26410458Y-13920111D01*
X26383366Y-14009421D01*
X26374218Y-14102300D01*
X26374218Y-14313818D01*
X25767600Y-14313818D01*
X25703497Y-14320132D01*
X25641857Y-14338830D01*
X25585050Y-14369194D01*
X25535257Y-14410057D01*
X25494394Y-14459850D01*
X25464030Y-14516657D01*
X25445332Y-14578297D01*
X25439018Y-14642400D01*
X23933579Y-14642400D01*
X23932268Y-14629097D01*
X23913570Y-14567457D01*
X23883206Y-14510650D01*
X23842343Y-14460857D01*
X23792550Y-14419994D01*
X23735743Y-14389630D01*
X23674103Y-14370932D01*
X23610000Y-14364618D01*
X22952582Y-14364618D01*
X22952582Y-14153100D01*
X22943434Y-14060221D01*
X22916342Y-13970911D01*
X22888702Y-13919200D01*
X22916342Y-13867489D01*
X22943434Y-13778179D01*
X22952582Y-13685300D01*
X22952582Y-13563798D01*
X23053798Y-13462582D01*
X23244800Y-13462582D01*
X23308903Y-13456268D01*
X23370543Y-13437570D01*
X23427350Y-13407206D01*
X23477143Y-13366343D01*
X23518006Y-13316550D01*
X23548370Y-13259743D01*
X23567068Y-13198103D01*
X23573382Y-13134000D01*
X23573382Y-12234000D01*
X24381818Y-12234000D01*
X24381818Y-13134000D01*
X24388132Y-13198103D01*
X24406830Y-13259743D01*
X24437194Y-13316550D01*
X24478057Y-13366343D01*
X24527850Y-13407206D01*
X24584657Y-13437570D01*
X24646297Y-13456268D01*
X24710400Y-13462582D01*
X25510400Y-13462582D01*
X25574503Y-13456268D01*
X25636143Y-13437570D01*
X25692950Y-13407206D01*
X25742743Y-13366343D01*
X25783606Y-13316550D01*
X25813970Y-13259743D01*
X25832668Y-13198103D01*
X25838982Y-13134000D01*
X25838982Y-12234000D01*
X25832668Y-12169897D01*
X25813970Y-12108257D01*
X25783606Y-12051450D01*
X25742743Y-12001657D01*
X25692950Y-11960794D01*
X25636143Y-11930430D01*
X25574503Y-11911732D01*
X25510400Y-11905418D01*
X24710400Y-11905418D01*
X24646297Y-11911732D01*
X24584657Y-11930430D01*
X24527850Y-11960794D01*
X24478057Y-12001657D01*
X24437194Y-12051450D01*
X24406830Y-12108257D01*
X24388132Y-12169897D01*
X24381818Y-12234000D01*
X23573382Y-12234000D01*
X23567068Y-12169897D01*
X23548370Y-12108257D01*
X23518006Y-12051450D01*
X23477143Y-12001657D01*
X23427350Y-11960794D01*
X23370543Y-11930430D01*
X23308903Y-11911732D01*
X23244800Y-11905418D01*
X22444800Y-11905418D01*
X22380697Y-11911732D01*
X22319057Y-11930430D01*
X22262250Y-11960794D01*
X22212457Y-12001657D01*
X22171594Y-12051450D01*
X22141230Y-12108257D01*
X22122532Y-12169897D01*
X22116218Y-12234000D01*
X22116218Y-12870648D01*
X22088621Y-12873366D01*
X21999311Y-12900458D01*
X21917003Y-12944452D01*
X21844859Y-13003659D01*
X21785652Y-13075803D01*
X21741658Y-13158111D01*
X21714566Y-13247421D01*
X21705418Y-13340300D01*
X21705418Y-13685300D01*
X21714566Y-13778179D01*
X21741658Y-13867489D01*
X21769298Y-13919200D01*
X21741658Y-13970911D01*
X21714566Y-14060221D01*
X21705418Y-14153100D01*
X21705418Y-14498100D01*
X21714566Y-14590979D01*
X21741658Y-14680289D01*
X21781418Y-14754676D01*
X21781418Y-16193200D01*
X21787732Y-16257303D01*
X21806430Y-16318943D01*
X21836794Y-16375750D01*
X21877657Y-16425543D01*
X21927450Y-16466406D01*
X21984257Y-16496770D01*
X22045897Y-16515468D01*
X22110000Y-16521782D01*
X22211418Y-16521782D01*
X22211418Y-16629700D01*
X22220566Y-16722579D01*
X22247658Y-16811889D01*
X22291652Y-16894197D01*
X22350859Y-16966341D01*
X22351906Y-16967200D01*
X22350859Y-16968059D01*
X22291652Y-17040203D01*
X22247658Y-17122511D01*
X22220566Y-17211821D01*
X22211418Y-17304700D01*
X22211418Y-17412618D01*
X22110000Y-17412618D01*
X22045897Y-17418932D01*
X21984257Y-17437630D01*
X21927450Y-17467994D01*
X21877657Y-17508857D01*
X21836794Y-17558650D01*
X21806430Y-17615457D01*
X21791854Y-17663508D01*
X20974050Y-17663508D01*
X20909947Y-17669822D01*
X20848307Y-17688520D01*
X20791500Y-17718884D01*
X20741707Y-17759747D01*
X20700844Y-17809540D01*
X20670480Y-17866347D01*
X20651782Y-17927987D01*
X20645468Y-17992090D01*
X127000Y-17992090D01*
X127000Y-15807690D01*
X8519508Y-15807690D01*
X8519508Y-16805910D01*
X8525822Y-16870013D01*
X8544520Y-16931653D01*
X8574884Y-16988460D01*
X8615747Y-17038253D01*
X8665540Y-17079116D01*
X8722347Y-17109480D01*
X8783987Y-17128178D01*
X8848090Y-17134492D01*
X9640218Y-17134492D01*
X9640218Y-17260000D01*
X9646532Y-17324103D01*
X9665230Y-17385743D01*
X9695594Y-17442550D01*
X9736457Y-17492343D01*
X9786250Y-17533206D01*
X9843057Y-17563570D01*
X9904697Y-17582268D01*
X9968800Y-17588582D01*
X11468800Y-17588582D01*
X11532903Y-17582268D01*
X11594543Y-17563570D01*
X11651350Y-17533206D01*
X11701143Y-17492343D01*
X11742006Y-17442550D01*
X11772370Y-17385743D01*
X11791068Y-17324103D01*
X11797382Y-17260000D01*
X11797382Y-15760000D01*
X11791068Y-15695897D01*
X11772370Y-15634257D01*
X11742006Y-15577450D01*
X11701143Y-15527657D01*
X11651350Y-15486794D01*
X11594543Y-15456430D01*
X11532903Y-15437732D01*
X11468800Y-15431418D01*
X9968800Y-15431418D01*
X9904697Y-15437732D01*
X9902400Y-15438429D01*
X9902400Y-14711380D01*
X9943748Y-14660997D01*
X9987742Y-14578689D01*
X10014834Y-14489379D01*
X10023982Y-14396500D01*
X10023982Y-14051500D01*
X10014834Y-13958621D01*
X9992999Y-13886642D01*
X10015114Y-13813739D01*
X10024262Y-13720860D01*
X10024262Y-13375860D01*
X10015114Y-13282981D01*
X9988022Y-13193671D01*
X9944028Y-13111363D01*
X9884821Y-13039219D01*
X9855000Y-13014746D01*
X9855000Y-12805061D01*
X9856582Y-12789000D01*
X9856582Y-11939000D01*
X9850268Y-11874897D01*
X9831570Y-11813257D01*
X9801206Y-11756450D01*
X9760343Y-11706657D01*
X9710550Y-11665794D01*
X9653743Y-11635430D01*
X9592103Y-11616732D01*
X9528000Y-11610418D01*
X9228000Y-11610418D01*
X9163897Y-11616732D01*
X9102257Y-11635430D01*
X9045450Y-11665794D01*
X8995657Y-11706657D01*
X8954794Y-11756450D01*
X8924430Y-11813257D01*
X8905732Y-11874897D01*
X8899418Y-11939000D01*
X8899418Y-12789000D01*
X8901000Y-12805065D01*
X8901001Y-13058153D01*
X8857332Y-13111363D01*
X8813338Y-13193671D01*
X8786246Y-13282981D01*
X8777098Y-13375860D01*
X8777098Y-13720860D01*
X8786246Y-13813739D01*
X8808081Y-13885718D01*
X8785966Y-13958621D01*
X8776818Y-14051500D01*
X8776818Y-14396500D01*
X8785966Y-14489379D01*
X8813058Y-14578689D01*
X8857052Y-14660997D01*
X8898400Y-14711380D01*
X8898401Y-15479108D01*
X8848090Y-15479108D01*
X8783987Y-15485422D01*
X8722347Y-15504120D01*
X8665540Y-15534484D01*
X8615747Y-15575347D01*
X8574884Y-15625140D01*
X8544520Y-15681947D01*
X8525822Y-15743587D01*
X8519508Y-15807690D01*
X127000Y-15807690D01*
X127000Y-11822782D01*
X1435800Y-11822782D01*
X1499903Y-11816468D01*
X1561543Y-11797770D01*
X1618350Y-11767406D01*
X1668143Y-11726543D01*
X1709006Y-11676750D01*
X1739370Y-11619943D01*
X1758068Y-11558303D01*
X1764382Y-11494200D01*
X1764382Y-11364562D01*
X1882140Y-11364562D01*
X1975019Y-11355414D01*
X2064329Y-11328322D01*
X2146637Y-11284328D01*
X2218781Y-11225121D01*
X2219640Y-11224074D01*
X2220499Y-11225121D01*
X2292643Y-11284328D01*
X2374951Y-11328322D01*
X2464261Y-11355414D01*
X2557140Y-11364562D01*
X2799676Y-11364562D01*
X2804120Y-11379213D01*
X2834484Y-11436020D01*
X2875347Y-11485813D01*
X2925140Y-11526676D01*
X2981947Y-11557040D01*
X3043587Y-11575738D01*
X3107690Y-11582052D01*
X4105910Y-11582052D01*
X4170013Y-11575738D01*
X4231653Y-11557040D01*
X4288460Y-11526676D01*
X4338253Y-11485813D01*
X4379116Y-11436020D01*
X4409480Y-11379213D01*
X4428178Y-11317573D01*
X4434492Y-11253470D01*
X4434492Y-11141000D01*
X4534509Y-11141000D01*
X4592203Y-11188348D01*
X4674511Y-11232342D01*
X4763821Y-11259434D01*
X4856700Y-11268582D01*
X5201700Y-11268582D01*
X5294579Y-11259434D01*
X5383889Y-11232342D01*
X5466197Y-11188348D01*
X5523891Y-11141000D01*
X5736939Y-11141000D01*
X5753000Y-11142582D01*
X6603000Y-11142582D01*
X6667103Y-11136268D01*
X6728743Y-11117570D01*
X6785550Y-11087206D01*
X6835343Y-11046343D01*
X6876206Y-10996550D01*
X6906570Y-10939743D01*
X6925268Y-10878103D01*
X6931582Y-10814000D01*
X6931582Y-10514000D01*
X9324418Y-10514000D01*
X9324418Y-10814000D01*
X9330732Y-10878103D01*
X9349430Y-10939743D01*
X9379794Y-10996550D01*
X9420657Y-11046343D01*
X9470450Y-11087206D01*
X9527257Y-11117570D01*
X9588897Y-11136268D01*
X9653000Y-11142582D01*
X9926339Y-11142582D01*
X9979591Y-11158736D01*
X10053347Y-11166000D01*
X10514856Y-11166000D01*
X10588394Y-11255606D01*
X10714321Y-11358952D01*
X10857990Y-11435745D01*
X11013880Y-11483034D01*
X11135376Y-11495000D01*
X12508224Y-11495000D01*
X12629720Y-11483034D01*
X12785610Y-11435745D01*
X12929279Y-11358952D01*
X13055206Y-11255606D01*
X13158552Y-11129679D01*
X13235345Y-10986010D01*
X13282634Y-10830120D01*
X13298601Y-10668000D01*
X13282634Y-10505880D01*
X13235345Y-10349990D01*
X13158552Y-10206321D01*
X13055206Y-10080394D01*
X12929279Y-9977048D01*
X12785610Y-9900255D01*
X12629720Y-9852966D01*
X12508224Y-9841000D01*
X11135376Y-9841000D01*
X11013880Y-9852966D01*
X10857990Y-9900255D01*
X10714321Y-9977048D01*
X10588394Y-10080394D01*
X10521421Y-10162000D01*
X10053347Y-10162000D01*
X9979591Y-10169264D01*
X9926339Y-10185418D01*
X9653000Y-10185418D01*
X9588897Y-10191732D01*
X9527257Y-10210430D01*
X9470450Y-10240794D01*
X9420657Y-10281657D01*
X9379794Y-10331450D01*
X9349430Y-10388257D01*
X9330732Y-10449897D01*
X9324418Y-10514000D01*
X6931582Y-10514000D01*
X6925268Y-10449897D01*
X6906570Y-10388257D01*
X6876206Y-10331450D01*
X6835343Y-10281657D01*
X6785550Y-10240794D01*
X6728743Y-10210430D01*
X6667103Y-10191732D01*
X6603000Y-10185418D01*
X5753000Y-10185418D01*
X5736939Y-10187000D01*
X5559794Y-10187000D01*
X5538341Y-10160859D01*
X5466197Y-10101652D01*
X5383889Y-10057658D01*
X5294579Y-10030566D01*
X5201700Y-10021418D01*
X4856700Y-10021418D01*
X4763821Y-10030566D01*
X4674511Y-10057658D01*
X4592203Y-10101652D01*
X4520059Y-10160859D01*
X4498606Y-10187000D01*
X4434492Y-10187000D01*
X4434492Y-10153650D01*
X4428178Y-10089547D01*
X4409480Y-10027907D01*
X4379116Y-9971100D01*
X4338253Y-9921307D01*
X4288460Y-9880444D01*
X4231653Y-9850080D01*
X4170013Y-9831382D01*
X4105910Y-9825068D01*
X3107690Y-9825068D01*
X3043587Y-9831382D01*
X2981947Y-9850080D01*
X2925140Y-9880444D01*
X2875347Y-9921307D01*
X2834484Y-9971100D01*
X2804120Y-10027907D01*
X2792141Y-10067398D01*
X2557140Y-10067398D01*
X2464261Y-10076546D01*
X2374951Y-10103638D01*
X2292643Y-10147632D01*
X2220499Y-10206839D01*
X2219640Y-10207886D01*
X2218781Y-10206839D01*
X2146637Y-10147632D01*
X2064329Y-10103638D01*
X1975019Y-10076546D01*
X1882140Y-10067398D01*
X1764382Y-10067398D01*
X1764382Y-9994200D01*
X1758068Y-9930097D01*
X1739370Y-9868457D01*
X1709006Y-9811650D01*
X1668143Y-9761857D01*
X1618350Y-9720994D01*
X1561543Y-9690630D01*
X1499903Y-9671932D01*
X1435800Y-9665618D01*
X127000Y-9665618D01*
X127000Y-127000D01*
X34925000Y-127000D01*
X34925000Y-10138144D01*
M02*
