<?xml version="1.0" standalone="no"?>
<!DOCTYPE svg PUBLIC "-//W3C//DTD SVG 1.1//EN" "http://www.w3.org/Graphics/SVG/1.1/DTD/svg11.dtd">
<svg width="42mm" height="134mm" viewBox="1 -135 42 134" xmlns="http://www.w3.org/2000/svg" version="1.1">
<title>OpenSCAD Model</title>
<path d="
M 25.1951,-132.419 L 25.3827,-132.476 L 25.5556,-132.569 L 25.7071,-132.693 L 25.8315,-132.844 L 25.9239,-133.017
 L 25.9808,-133.205 L 26,-133.4 L 25.9808,-133.595 L 25.9239,-133.783 L 25.8315,-133.956 L 25.7071,-134.107
 L 25.5556,-134.231 L 25.3827,-134.324 L 25.1951,-134.381 L 25,-134.4 L 24.8049,-134.381 L 24.6173,-134.324
 L 24.4444,-134.231 L 24.2929,-134.107 L 24.1685,-133.956 L 24.0761,-133.783 L 24.0192,-133.595 L 24,-133.4
 L 24.0192,-133.205 L 24.0761,-133.017 L 24.1685,-132.844 L 24.2929,-132.693 L 24.4444,-132.569 L 24.6173,-132.476
 L 24.8049,-132.419 L 25,-132.4 z
M 41.4658,-100.799 L 41.6466,-100.872 L 41.8076,-100.981 L 41.9415,-101.122 L 42.0418,-101.289 L 42.104,-101.473
 L 42.125,-101.667 L 42.104,-101.86 L 42.0418,-102.045 L 41.9415,-102.211 L 41.8076,-102.353 L 41.6466,-102.462
 L 41.4658,-102.534 L 41.2737,-102.565 L 41.0794,-102.555 L 40.8919,-102.503 L 40.7199,-102.412 L 40.5716,-102.286
 L 40.4538,-102.131 L 40.4242,-102.067 L 31,-102.067 L 31,-101.967 L 30,-101.967 L 30,-102.067
 L 20,-102.067 L 20,-101.967 L 19,-101.967 L 19,-102.067 L 9.57852,-102.067 L 9.49147,-102.211
 L 9.35764,-102.353 L 9.19656,-102.462 L 9.01576,-102.534 L 8.82372,-102.565 L 8.62939,-102.555 L 8.44186,-102.503
 L 8.26993,-102.412 L 8.1216,-102.286 L 8.00381,-102.131 L 7.9221,-101.954 L 7.88026,-101.764 L 7.88026,-101.569
 L 7.9221,-101.379 L 8.00381,-101.203 L 8.1216,-101.048 L 8.26993,-100.922 L 8.44186,-100.831 L 8.62939,-100.779
 L 8.82372,-100.768 L 9.01576,-100.799 L 9.19656,-100.872 L 9.35764,-100.981 L 9.49147,-101.122 L 9.57852,-101.267
 L 19,-101.267 L 19,-101.667 L 20,-101.667 L 20,-101.267 L 30,-101.267 L 30,-101.667
 L 31,-101.667 L 31,-101.267 L 40.4242,-101.267 L 40.4538,-101.203 L 40.5716,-101.048 L 40.7199,-100.922
 L 40.8919,-100.831 L 41.0794,-100.779 L 41.2737,-100.768 z
M 41.4658,-95.7995 L 41.6466,-95.8715 L 41.8076,-95.9807 L 41.9415,-96.122 L 42.0418,-96.2888 L 42.104,-96.4732
 L 42.125,-96.6667 L 42.104,-96.8601 L 42.0418,-97.0446 L 41.9415,-97.2113 L 41.8076,-97.3526 L 41.6466,-97.4618
 L 41.4658,-97.5339 L 41.2737,-97.5653 L 41.0794,-97.5548 L 40.8919,-97.5027 L 40.7199,-97.4116 L 40.5716,-97.2856
 L 40.4538,-97.1307 L 40.4242,-97.0667 L 31,-97.0667 L 31,-96.9667 L 30,-96.9667 L 30,-97.0667
 L 20,-97.0667 L 20,-96.9667 L 19,-96.9667 L 19,-97.0667 L 9.57852,-97.0667 L 9.49147,-97.2113
 L 9.35764,-97.3526 L 9.19656,-97.4618 L 9.01576,-97.5339 L 8.82372,-97.5653 L 8.62939,-97.5548 L 8.44186,-97.5027
 L 8.26993,-97.4116 L 8.1216,-97.2856 L 8.00381,-97.1307 L 7.9221,-96.954 L 7.88026,-96.764 L 7.88026,-96.5694
 L 7.9221,-96.3793 L 8.00381,-96.2027 L 8.1216,-96.0477 L 8.26993,-95.9217 L 8.44186,-95.8306 L 8.62939,-95.7785
 L 8.82372,-95.768 L 9.01576,-95.7995 L 9.19656,-95.8715 L 9.35764,-95.9807 L 9.49147,-96.122 L 9.57852,-96.2667
 L 19,-96.2667 L 19,-96.6667 L 20,-96.6667 L 20,-96.2667 L 30,-96.2667 L 30,-96.6667
 L 31,-96.6667 L 31,-96.2667 L 40.4242,-96.2667 L 40.4538,-96.2027 L 40.5716,-96.0477 L 40.7199,-95.9217
 L 40.8919,-95.8306 L 41.0794,-95.7785 L 41.2737,-95.768 z
M 41.4658,-90.7995 L 41.6466,-90.8715 L 41.8076,-90.9807 L 41.9415,-91.122 L 42.0418,-91.2888 L 42.104,-91.4732
 L 42.125,-91.6667 L 42.104,-91.8601 L 42.0418,-92.0446 L 41.9415,-92.2113 L 41.8076,-92.3526 L 41.6466,-92.4618
 L 41.4658,-92.5339 L 41.2737,-92.5653 L 41.0794,-92.5548 L 40.8919,-92.5027 L 40.7199,-92.4116 L 40.5716,-92.2856
 L 40.4538,-92.1307 L 40.4242,-92.0667 L 31,-92.0667 L 31,-91.9667 L 30,-91.9667 L 30,-92.0667
 L 20,-92.0667 L 20,-91.9667 L 19,-91.9667 L 19,-92.0667 L 9.57852,-92.0667 L 9.49147,-92.2113
 L 9.35764,-92.3526 L 9.19656,-92.4618 L 9.01576,-92.5339 L 8.82372,-92.5653 L 8.62939,-92.5548 L 8.44186,-92.5027
 L 8.26993,-92.4116 L 8.1216,-92.2856 L 8.00381,-92.1307 L 7.9221,-91.954 L 7.88026,-91.764 L 7.88026,-91.5694
 L 7.9221,-91.3793 L 8.00381,-91.2027 L 8.1216,-91.0477 L 8.26993,-90.9217 L 8.44186,-90.8306 L 8.62939,-90.7785
 L 8.82372,-90.768 L 9.01576,-90.7995 L 9.19656,-90.8715 L 9.35764,-90.9807 L 9.49147,-91.122 L 9.57852,-91.2667
 L 19,-91.2667 L 19,-91.6667 L 20,-91.6667 L 20,-91.2667 L 30,-91.2667 L 30,-91.6667
 L 31,-91.6667 L 31,-91.2667 L 40.4242,-91.2667 L 40.4538,-91.2027 L 40.5716,-91.0477 L 40.7199,-90.9217
 L 40.8919,-90.8306 L 41.0794,-90.7785 L 41.2737,-90.768 z
M 41.4658,-85.7995 L 41.6466,-85.8715 L 41.8076,-85.9807 L 41.9415,-86.122 L 42.0418,-86.2888 L 42.104,-86.4732
 L 42.125,-86.6667 L 42.104,-86.8601 L 42.0418,-87.0446 L 41.9415,-87.2113 L 41.8076,-87.3526 L 41.6466,-87.4618
 L 41.4658,-87.5339 L 41.2737,-87.5653 L 41.0794,-87.5548 L 40.8919,-87.5027 L 40.7199,-87.4116 L 40.5716,-87.2856
 L 40.4538,-87.1307 L 40.4242,-87.0667 L 31,-87.0667 L 31,-86.9667 L 30,-86.9667 L 30,-87.0667
 L 20,-87.0667 L 20,-86.9667 L 19,-86.9667 L 19,-87.0667 L 9.57852,-87.0667 L 9.49147,-87.2113
 L 9.35764,-87.3526 L 9.19656,-87.4618 L 9.01576,-87.5339 L 8.82372,-87.5653 L 8.62939,-87.5548 L 8.44186,-87.5027
 L 8.26993,-87.4116 L 8.1216,-87.2856 L 8.00381,-87.1307 L 7.9221,-86.954 L 7.88026,-86.764 L 7.88026,-86.5694
 L 7.9221,-86.3793 L 8.00381,-86.2027 L 8.1216,-86.0477 L 8.26993,-85.9217 L 8.44186,-85.8306 L 8.62939,-85.7785
 L 8.82372,-85.768 L 9.01576,-85.7995 L 9.19656,-85.8715 L 9.35764,-85.9807 L 9.49147,-86.122 L 9.57852,-86.2667
 L 19,-86.2667 L 19,-86.6667 L 20,-86.6667 L 20,-86.2667 L 30,-86.2667 L 30,-86.6667
 L 31,-86.6667 L 31,-86.2667 L 40.4242,-86.2667 L 40.4538,-86.2027 L 40.5716,-86.0477 L 40.7199,-85.9217
 L 40.8919,-85.8306 L 41.0794,-85.7785 L 41.2737,-85.768 z
M 41.4658,-80.7995 L 41.6466,-80.8715 L 41.8076,-80.9807 L 41.9415,-81.122 L 42.0418,-81.2888 L 42.104,-81.4732
 L 42.125,-81.6667 L 42.104,-81.8601 L 42.0418,-82.0446 L 41.9415,-82.2113 L 41.8076,-82.3526 L 41.6466,-82.4618
 L 41.4658,-82.5339 L 41.2737,-82.5653 L 41.0794,-82.5548 L 40.8919,-82.5027 L 40.7199,-82.4116 L 40.5716,-82.2856
 L 40.4538,-82.1307 L 40.4242,-82.0667 L 31,-82.0667 L 31,-81.9667 L 30,-81.9667 L 30,-82.0667
 L 20,-82.0667 L 20,-81.9667 L 19,-81.9667 L 19,-82.0667 L 9.57852,-82.0667 L 9.49147,-82.2113
 L 9.35764,-82.3526 L 9.19656,-82.4618 L 9.01576,-82.5339 L 8.82372,-82.5653 L 8.62939,-82.5548 L 8.44186,-82.5027
 L 8.26993,-82.4116 L 8.1216,-82.2856 L 8.00381,-82.1307 L 7.9221,-81.954 L 7.88026,-81.764 L 7.88026,-81.5694
 L 7.9221,-81.3793 L 8.00381,-81.2027 L 8.1216,-81.0477 L 8.26993,-80.9217 L 8.44186,-80.8306 L 8.62939,-80.7785
 L 8.82372,-80.768 L 9.01576,-80.7995 L 9.19656,-80.8715 L 9.35764,-80.9807 L 9.49147,-81.122 L 9.57852,-81.2667
 L 19,-81.2667 L 19,-81.6667 L 20,-81.6667 L 20,-81.2667 L 30,-81.2667 L 30,-81.6667
 L 31,-81.6667 L 31,-81.2667 L 40.4242,-81.2667 L 40.4538,-81.2027 L 40.5716,-81.0477 L 40.7199,-80.9217
 L 40.8919,-80.8306 L 41.0794,-80.7785 L 41.2737,-80.768 z
M 41.4658,-75.7995 L 41.6466,-75.8715 L 41.8076,-75.9807 L 41.9415,-76.122 L 42.0418,-76.2888 L 42.104,-76.4732
 L 42.125,-76.6667 L 42.104,-76.8601 L 42.0418,-77.0446 L 41.9415,-77.2113 L 41.8076,-77.3526 L 41.6466,-77.4618
 L 41.4658,-77.5339 L 41.2737,-77.5653 L 41.0794,-77.5548 L 40.8919,-77.5027 L 40.7199,-77.4116 L 40.5716,-77.2856
 L 40.4538,-77.1307 L 40.4242,-77.0667 L 31,-77.0667 L 31,-76.9667 L 30,-76.9667 L 30,-77.0667
 L 20,-77.0667 L 20,-76.9667 L 19,-76.9667 L 19,-77.0667 L 9.57852,-77.0667 L 9.49147,-77.2113
 L 9.35764,-77.3526 L 9.19656,-77.4618 L 9.01576,-77.5339 L 8.82372,-77.5653 L 8.62939,-77.5548 L 8.44186,-77.5027
 L 8.26993,-77.4116 L 8.1216,-77.2856 L 8.00381,-77.1307 L 7.9221,-76.954 L 7.88026,-76.764 L 7.88026,-76.5694
 L 7.9221,-76.3793 L 8.00381,-76.2027 L 8.1216,-76.0477 L 8.26993,-75.9217 L 8.44186,-75.8306 L 8.62939,-75.7785
 L 8.82372,-75.768 L 9.01576,-75.7995 L 9.19656,-75.8715 L 9.35764,-75.9807 L 9.49147,-76.122 L 9.57852,-76.2667
 L 19,-76.2667 L 19,-76.6667 L 20,-76.6667 L 20,-76.2667 L 30,-76.2667 L 30,-76.6667
 L 31,-76.6667 L 31,-76.2667 L 40.4242,-76.2667 L 40.4538,-76.2027 L 40.5716,-76.0477 L 40.7199,-75.9217
 L 40.8919,-75.8306 L 41.0794,-75.7785 L 41.2737,-75.768 z
M 41.4658,-70.7995 L 41.6466,-70.8715 L 41.8076,-70.9807 L 41.9415,-71.122 L 42.0418,-71.2888 L 42.104,-71.4732
 L 42.125,-71.6667 L 42.104,-71.8601 L 42.0418,-72.0446 L 41.9415,-72.2113 L 41.8076,-72.3526 L 41.6466,-72.4618
 L 41.4658,-72.5339 L 41.2737,-72.5653 L 41.0794,-72.5548 L 40.8919,-72.5027 L 40.7199,-72.4116 L 40.5716,-72.2856
 L 40.4538,-72.1307 L 40.4242,-72.0667 L 31,-72.0667 L 31,-71.9667 L 30,-71.9667 L 30,-72.0667
 L 20,-72.0667 L 20,-71.9667 L 19,-71.9667 L 19,-72.0667 L 9.57852,-72.0667 L 9.49147,-72.2113
 L 9.35764,-72.3526 L 9.19656,-72.4618 L 9.01576,-72.5339 L 8.82372,-72.5653 L 8.62939,-72.5548 L 8.44186,-72.5027
 L 8.26993,-72.4116 L 8.1216,-72.2856 L 8.00381,-72.1307 L 7.9221,-71.954 L 7.88026,-71.764 L 7.88026,-71.5694
 L 7.9221,-71.3793 L 8.00381,-71.2027 L 8.1216,-71.0477 L 8.26993,-70.9217 L 8.44186,-70.8306 L 8.62939,-70.7785
 L 8.82372,-70.768 L 9.01576,-70.7995 L 9.19656,-70.8715 L 9.35764,-70.9807 L 9.49147,-71.122 L 9.57852,-71.2667
 L 19,-71.2667 L 19,-71.6667 L 20,-71.6667 L 20,-71.2667 L 30,-71.2667 L 30,-71.6667
 L 31,-71.6667 L 31,-71.2667 L 40.4242,-71.2667 L 40.4538,-71.2027 L 40.5716,-71.0477 L 40.7199,-70.9217
 L 40.8919,-70.8306 L 41.0794,-70.7785 L 41.2737,-70.768 z
M 41.4658,-65.7995 L 41.6466,-65.8715 L 41.8076,-65.9807 L 41.9415,-66.122 L 42.0418,-66.2888 L 42.104,-66.4732
 L 42.125,-66.6667 L 42.104,-66.8601 L 42.0418,-67.0446 L 41.9415,-67.2113 L 41.8076,-67.3526 L 41.6466,-67.4618
 L 41.4658,-67.5339 L 41.2737,-67.5653 L 41.0794,-67.5548 L 40.8919,-67.5027 L 40.7199,-67.4116 L 40.5716,-67.2856
 L 40.4538,-67.1307 L 40.4242,-67.0667 L 31,-67.0667 L 31,-66.9667 L 30,-66.9667 L 30,-67.0667
 L 20,-67.0667 L 20,-66.9667 L 19,-66.9667 L 19,-67.0667 L 9.57852,-67.0667 L 9.49147,-67.2113
 L 9.35764,-67.3526 L 9.19656,-67.4618 L 9.01576,-67.5339 L 8.82372,-67.5653 L 8.62939,-67.5548 L 8.44186,-67.5027
 L 8.26993,-67.4116 L 8.1216,-67.2856 L 8.00381,-67.1307 L 7.9221,-66.954 L 7.88026,-66.764 L 7.88026,-66.5694
 L 7.9221,-66.3793 L 8.00381,-66.2027 L 8.1216,-66.0477 L 8.26993,-65.9217 L 8.44186,-65.8306 L 8.62939,-65.7785
 L 8.82372,-65.768 L 9.01576,-65.7995 L 9.19656,-65.8715 L 9.35764,-65.9807 L 9.49147,-66.122 L 9.57852,-66.2667
 L 19,-66.2667 L 19,-66.6667 L 20,-66.6667 L 20,-66.2667 L 30,-66.2667 L 30,-66.6667
 L 31,-66.6667 L 31,-66.2667 L 40.4242,-66.2667 L 40.4538,-66.2027 L 40.5716,-66.0477 L 40.7199,-65.9217
 L 40.8919,-65.8306 L 41.0794,-65.7785 L 41.2737,-65.768 z
M 41.4658,-60.7995 L 41.6466,-60.8715 L 41.8076,-60.9807 L 41.9415,-61.122 L 42.0418,-61.2888 L 42.104,-61.4732
 L 42.125,-61.6667 L 42.104,-61.8601 L 42.0418,-62.0446 L 41.9415,-62.2113 L 41.8076,-62.3526 L 41.6466,-62.4618
 L 41.4658,-62.5339 L 41.2737,-62.5653 L 41.0794,-62.5548 L 40.8919,-62.5027 L 40.7199,-62.4116 L 40.5716,-62.2856
 L 40.4538,-62.1307 L 40.4242,-62.0667 L 31,-62.0667 L 31,-61.9667 L 30,-61.9667 L 30,-62.0667
 L 20,-62.0667 L 20,-61.9667 L 19,-61.9667 L 19,-62.0667 L 9.57852,-62.0667 L 9.49147,-62.2113
 L 9.35764,-62.3526 L 9.19656,-62.4618 L 9.01576,-62.5339 L 8.82372,-62.5653 L 8.62939,-62.5548 L 8.44186,-62.5027
 L 8.26993,-62.4116 L 8.1216,-62.2856 L 8.00381,-62.1307 L 7.9221,-61.954 L 7.88026,-61.764 L 7.88026,-61.5694
 L 7.9221,-61.3793 L 8.00381,-61.2027 L 8.1216,-61.0477 L 8.26993,-60.9217 L 8.44186,-60.8306 L 8.62939,-60.7785
 L 8.82372,-60.768 L 9.01576,-60.7995 L 9.19656,-60.8715 L 9.35764,-60.9807 L 9.49147,-61.122 L 9.57852,-61.2667
 L 19,-61.2667 L 19,-61.6667 L 20,-61.6667 L 20,-61.2667 L 30,-61.2667 L 30,-61.6667
 L 31,-61.6667 L 31,-61.2667 L 40.4242,-61.2667 L 40.4538,-61.2027 L 40.5716,-61.0477 L 40.7199,-60.9217
 L 40.8919,-60.8306 L 41.0794,-60.7785 L 41.2737,-60.768 z
M 41.4658,-55.7995 L 41.6466,-55.8715 L 41.8076,-55.9807 L 41.9415,-56.122 L 42.0418,-56.2888 L 42.104,-56.4732
 L 42.125,-56.6667 L 42.104,-56.8601 L 42.0418,-57.0446 L 41.9415,-57.2113 L 41.8076,-57.3526 L 41.6466,-57.4618
 L 41.4658,-57.5339 L 41.2737,-57.5653 L 41.0794,-57.5548 L 40.8919,-57.5027 L 40.7199,-57.4116 L 40.5716,-57.2856
 L 40.4538,-57.1307 L 40.4242,-57.0667 L 31,-57.0667 L 31,-56.9667 L 30,-56.9667 L 30,-57.0667
 L 20,-57.0667 L 20,-56.9667 L 19,-56.9667 L 19,-57.0667 L 9.57852,-57.0667 L 9.49147,-57.2113
 L 9.35764,-57.3526 L 9.19656,-57.4618 L 9.01576,-57.5339 L 8.82372,-57.5653 L 8.62939,-57.5548 L 8.44186,-57.5027
 L 8.26993,-57.4116 L 8.1216,-57.2856 L 8.00381,-57.1307 L 7.9221,-56.954 L 7.88026,-56.764 L 7.88026,-56.5694
 L 7.9221,-56.3793 L 8.00381,-56.2027 L 8.1216,-56.0477 L 8.26993,-55.9217 L 8.44186,-55.8306 L 8.62939,-55.7785
 L 8.82372,-55.768 L 9.01576,-55.7995 L 9.19656,-55.8715 L 9.35764,-55.9807 L 9.49147,-56.122 L 9.57852,-56.2667
 L 19,-56.2667 L 19,-56.6667 L 20,-56.6667 L 20,-56.2667 L 30,-56.2667 L 30,-56.6667
 L 31,-56.6667 L 31,-56.2667 L 40.4242,-56.2667 L 40.4538,-56.2027 L 40.5716,-56.0477 L 40.7199,-55.9217
 L 40.8919,-55.8306 L 41.0794,-55.7785 L 41.2737,-55.768 z
M 41.4658,-50.7995 L 41.6466,-50.8715 L 41.8076,-50.9807 L 41.9415,-51.122 L 42.0418,-51.2888 L 42.104,-51.4732
 L 42.125,-51.6667 L 42.104,-51.8601 L 42.0418,-52.0446 L 41.9415,-52.2113 L 41.8076,-52.3526 L 41.6466,-52.4618
 L 41.4658,-52.5339 L 41.2737,-52.5653 L 41.0794,-52.5548 L 40.8919,-52.5027 L 40.7199,-52.4116 L 40.5716,-52.2856
 L 40.4538,-52.1307 L 40.4242,-52.0667 L 31,-52.0667 L 31,-51.9667 L 30,-51.9667 L 30,-52.0667
 L 20,-52.0667 L 20,-51.9667 L 19,-51.9667 L 19,-52.0667 L 9.57852,-52.0667 L 9.49147,-52.2113
 L 9.35764,-52.3526 L 9.19656,-52.4618 L 9.01576,-52.5339 L 8.82372,-52.5653 L 8.62939,-52.5548 L 8.44186,-52.5027
 L 8.26993,-52.4116 L 8.1216,-52.2856 L 8.00381,-52.1307 L 7.9221,-51.954 L 7.88026,-51.764 L 7.88026,-51.5694
 L 7.9221,-51.3793 L 8.00381,-51.2027 L 8.1216,-51.0477 L 8.26993,-50.9217 L 8.44186,-50.8306 L 8.62939,-50.7785
 L 8.82372,-50.768 L 9.01576,-50.7995 L 9.19656,-50.8715 L 9.35764,-50.9807 L 9.49147,-51.122 L 9.57852,-51.2667
 L 19,-51.2667 L 19,-51.6667 L 20,-51.6667 L 20,-51.2667 L 30,-51.2667 L 30,-51.6667
 L 31,-51.6667 L 31,-51.2667 L 40.4242,-51.2667 L 40.4538,-51.2027 L 40.5716,-51.0477 L 40.7199,-50.9217
 L 40.8919,-50.8306 L 41.0794,-50.7785 L 41.2737,-50.768 z
M 41.4658,-45.7995 L 41.6466,-45.8715 L 41.8076,-45.9807 L 41.9415,-46.122 L 42.0418,-46.2888 L 42.104,-46.4732
 L 42.125,-46.6667 L 42.104,-46.8601 L 42.0418,-47.0446 L 41.9415,-47.2113 L 41.8076,-47.3526 L 41.6466,-47.4618
 L 41.4658,-47.5339 L 41.2737,-47.5653 L 41.0794,-47.5548 L 40.8919,-47.5027 L 40.7199,-47.4116 L 40.5716,-47.2856
 L 40.4538,-47.1307 L 40.4242,-47.0667 L 31,-47.0667 L 31,-46.9667 L 30,-46.9667 L 30,-47.0667
 L 20,-47.0667 L 20,-46.9667 L 19,-46.9667 L 19,-47.0667 L 9.57852,-47.0667 L 9.49147,-47.2113
 L 9.35764,-47.3526 L 9.19656,-47.4618 L 9.01576,-47.5339 L 8.82372,-47.5653 L 8.62939,-47.5548 L 8.44186,-47.5027
 L 8.26993,-47.4116 L 8.1216,-47.2856 L 8.00381,-47.1307 L 7.9221,-46.954 L 7.88026,-46.764 L 7.88026,-46.5694
 L 7.9221,-46.3793 L 8.00381,-46.2027 L 8.1216,-46.0477 L 8.26993,-45.9217 L 8.44186,-45.8306 L 8.62939,-45.7785
 L 8.82372,-45.768 L 9.01576,-45.7995 L 9.19656,-45.8715 L 9.35764,-45.9807 L 9.49147,-46.122 L 9.57852,-46.2667
 L 19,-46.2667 L 19,-46.6667 L 20,-46.6667 L 20,-46.2667 L 30,-46.2667 L 30,-46.6667
 L 31,-46.6667 L 31,-46.2667 L 40.4242,-46.2667 L 40.4538,-46.2027 L 40.5716,-46.0477 L 40.7199,-45.9217
 L 40.8919,-45.8306 L 41.0794,-45.7785 L 41.2737,-45.768 z
M 41.4658,-40.7995 L 41.6466,-40.8715 L 41.8076,-40.9807 L 41.9415,-41.122 L 42.0418,-41.2888 L 42.104,-41.4732
 L 42.125,-41.6667 L 42.104,-41.8601 L 42.0418,-42.0446 L 41.9415,-42.2113 L 41.8076,-42.3526 L 41.6466,-42.4618
 L 41.4658,-42.5339 L 41.2737,-42.5653 L 41.0794,-42.5548 L 40.8919,-42.5027 L 40.7199,-42.4116 L 40.5716,-42.2856
 L 40.4538,-42.1307 L 40.4242,-42.0667 L 31,-42.0667 L 31,-41.9667 L 30,-41.9667 L 30,-42.0667
 L 20,-42.0667 L 20,-41.9667 L 19,-41.9667 L 19,-42.0667 L 9.57852,-42.0667 L 9.49147,-42.2113
 L 9.35764,-42.3526 L 9.19656,-42.4618 L 9.01576,-42.5339 L 8.82372,-42.5653 L 8.62939,-42.5548 L 8.44186,-42.5027
 L 8.26993,-42.4116 L 8.1216,-42.2856 L 8.00381,-42.1307 L 7.9221,-41.954 L 7.88026,-41.764 L 7.88026,-41.5694
 L 7.9221,-41.3793 L 8.00381,-41.2027 L 8.1216,-41.0477 L 8.26993,-40.9217 L 8.44186,-40.8306 L 8.62939,-40.7785
 L 8.82372,-40.768 L 9.01576,-40.7995 L 9.19656,-40.8715 L 9.35764,-40.9807 L 9.49147,-41.122 L 9.57852,-41.2667
 L 19,-41.2667 L 19,-41.6667 L 20,-41.6667 L 20,-41.2667 L 30,-41.2667 L 30,-41.6667
 L 31,-41.6667 L 31,-41.2667 L 40.4242,-41.2667 L 40.4538,-41.2027 L 40.5716,-41.0477 L 40.7199,-40.9217
 L 40.8919,-40.8306 L 41.0794,-40.7785 L 41.2737,-40.768 z
M 41.4658,-35.7995 L 41.6466,-35.8715 L 41.8076,-35.9807 L 41.9415,-36.122 L 42.0418,-36.2888 L 42.104,-36.4732
 L 42.125,-36.6667 L 42.104,-36.8601 L 42.0418,-37.0446 L 41.9415,-37.2113 L 41.8076,-37.3526 L 41.6466,-37.4618
 L 41.4658,-37.5339 L 41.2737,-37.5653 L 41.0794,-37.5548 L 40.8919,-37.5027 L 40.7199,-37.4116 L 40.5716,-37.2856
 L 40.4538,-37.1307 L 40.4242,-37.0667 L 31,-37.0667 L 31,-36.9667 L 30,-36.9667 L 30,-37.0667
 L 20,-37.0667 L 20,-36.9667 L 19,-36.9667 L 19,-37.0667 L 9.57852,-37.0667 L 9.49147,-37.2113
 L 9.35764,-37.3526 L 9.19656,-37.4618 L 9.01576,-37.5339 L 8.82372,-37.5653 L 8.62939,-37.5548 L 8.44186,-37.5027
 L 8.26993,-37.4116 L 8.1216,-37.2856 L 8.00381,-37.1307 L 7.9221,-36.954 L 7.88026,-36.764 L 7.88026,-36.5694
 L 7.9221,-36.3793 L 8.00381,-36.2027 L 8.1216,-36.0477 L 8.26993,-35.9217 L 8.44186,-35.8306 L 8.62939,-35.7785
 L 8.82372,-35.768 L 9.01576,-35.7995 L 9.19656,-35.8715 L 9.35764,-35.9807 L 9.49147,-36.122 L 9.57852,-36.2667
 L 19,-36.2667 L 19,-36.6667 L 20,-36.6667 L 20,-36.2667 L 30,-36.2667 L 30,-36.6667
 L 31,-36.6667 L 31,-36.2667 L 40.4242,-36.2667 L 40.4538,-36.2027 L 40.5716,-36.0477 L 40.7199,-35.9217
 L 40.8919,-35.8306 L 41.0794,-35.7785 L 41.2737,-35.768 z
M 41.4658,-30.7995 L 41.6466,-30.8715 L 41.8076,-30.9807 L 41.9415,-31.122 L 42.0418,-31.2888 L 42.104,-31.4732
 L 42.125,-31.6667 L 42.104,-31.8601 L 42.0418,-32.0446 L 41.9415,-32.2113 L 41.8076,-32.3526 L 41.6466,-32.4618
 L 41.4658,-32.5339 L 41.2737,-32.5653 L 41.0794,-32.5548 L 40.8919,-32.5027 L 40.7199,-32.4116 L 40.5716,-32.2856
 L 40.4538,-32.1307 L 40.4242,-32.0667 L 31,-32.0667 L 31,-31.9667 L 30,-31.9667 L 30,-32.0667
 L 20,-32.0667 L 20,-31.9667 L 19,-31.9667 L 19,-32.0667 L 9.57852,-32.0667 L 9.49147,-32.2113
 L 9.35764,-32.3526 L 9.19656,-32.4618 L 9.01576,-32.5339 L 8.82372,-32.5653 L 8.62939,-32.5548 L 8.44186,-32.5027
 L 8.26993,-32.4116 L 8.1216,-32.2856 L 8.00381,-32.1307 L 7.9221,-31.954 L 7.88026,-31.764 L 7.88026,-31.5694
 L 7.9221,-31.3793 L 8.00381,-31.2027 L 8.1216,-31.0477 L 8.26993,-30.9217 L 8.44186,-30.8306 L 8.62939,-30.7785
 L 8.82372,-30.768 L 9.01576,-30.7995 L 9.19656,-30.8715 L 9.35764,-30.9807 L 9.49147,-31.122 L 9.57852,-31.2667
 L 19,-31.2667 L 19,-31.6667 L 20,-31.6667 L 20,-31.2667 L 30,-31.2667 L 30,-31.6667
 L 31,-31.6667 L 31,-31.2667 L 40.4242,-31.2667 L 40.4538,-31.2027 L 40.5716,-31.0477 L 40.7199,-30.9217
 L 40.8919,-30.8306 L 41.0794,-30.7785 L 41.2737,-30.768 z
M 41.4658,-25.7995 L 41.6466,-25.8715 L 41.8076,-25.9807 L 41.9415,-26.122 L 42.0418,-26.2888 L 42.104,-26.4732
 L 42.125,-26.6667 L 42.104,-26.8601 L 42.0418,-27.0446 L 41.9415,-27.2113 L 41.8076,-27.3526 L 41.6466,-27.4618
 L 41.4658,-27.5339 L 41.2737,-27.5653 L 41.0794,-27.5548 L 40.8919,-27.5027 L 40.7199,-27.4116 L 40.5716,-27.2856
 L 40.4538,-27.1307 L 40.4242,-27.0667 L 31,-27.0667 L 31,-26.9667 L 30,-26.9667 L 30,-27.0667
 L 20,-27.0667 L 20,-26.9667 L 19,-26.9667 L 19,-27.0667 L 9.57852,-27.0667 L 9.49147,-27.2113
 L 9.35764,-27.3526 L 9.19656,-27.4618 L 9.01576,-27.5339 L 8.82372,-27.5653 L 8.62939,-27.5548 L 8.44186,-27.5027
 L 8.26993,-27.4116 L 8.1216,-27.2856 L 8.00381,-27.1307 L 7.9221,-26.954 L 7.88026,-26.764 L 7.88026,-26.5694
 L 7.9221,-26.3793 L 8.00381,-26.2027 L 8.1216,-26.0477 L 8.26993,-25.9217 L 8.44186,-25.8306 L 8.62939,-25.7785
 L 8.82372,-25.768 L 9.01576,-25.7995 L 9.19656,-25.8715 L 9.35764,-25.9807 L 9.49147,-26.122 L 9.57852,-26.2667
 L 19,-26.2667 L 19,-26.6667 L 20,-26.6667 L 20,-26.2667 L 30,-26.2667 L 30,-26.6667
 L 31,-26.6667 L 31,-26.2667 L 40.4242,-26.2667 L 40.4538,-26.2027 L 40.5716,-26.0477 L 40.7199,-25.9217
 L 40.8919,-25.8306 L 41.0794,-25.7785 L 41.2737,-25.768 z
M 4.89905,-1.849 L 6.18805,-1.849 L 6.51105,-1 L 6.90805,-1 L 5.77005,-3.87999 L 5.32906,-3.87999
 L 4.17206,-1 L 4.57405,-1 z
M 5.01605,-2.15199 L 5.37706,-3.09599 L 5.39322,-3.13965 L 5.40869,-3.18196 L 5.42349,-3.22293 L 5.43761,-3.26254
 L 5.45105,-3.30081 L 5.46381,-3.33774 L 5.47588,-3.37332 L 5.48727,-3.40755 L 5.49799,-3.44043 L 5.50803,-3.47197
 L 5.51738,-3.50215 L 5.52606,-3.53099 L 5.54405,-3.588 L 5.59805,-3.41899 L 5.60739,-3.38959 L 5.61674,-3.36069
 L 5.62611,-3.33231 L 5.6355,-3.30444 L 5.6449,-3.27708 L 5.65431,-3.25024 L 5.66373,-3.22392 L 5.67317,-3.1981
 L 5.68262,-3.17281 L 5.69208,-3.14803 L 5.70157,-3.12375 L 5.71106,-3.09999 L 6.07405,-2.15199 z
M 3.10599,-1.31099 L 2.40999,-1.31099 L 2.40999,-3.87999 L 2.073,-3.87999 L 1.396,-3.39299 L 1.396,-3.04799
 L 2.04199,-3.53099 L 2.04199,-1.31099 L 1.31299,-1.31099 L 1.31299,-1 L 3.10599,-1 z
" stroke="black" fill="black" stroke-width="0"/>
</svg>
