<?xml version="1.0" standalone="no"?>
<!DOCTYPE svg PUBLIC "-//W3C//DTD SVG 1.1//EN" "http://www.w3.org/Graphics/SVG/1.1/DTD/svg11.dtd">
<svg width="42mm" height="135mm" viewBox="1 -135 42 135" xmlns="http://www.w3.org/2000/svg" version="1.1">
<title>OpenSCAD Model</title>
<path d="
M 25.1951,-132.419 L 25.3827,-132.476 L 25.5556,-132.569 L 25.7071,-132.693 L 25.8315,-132.844 L 25.9239,-133.017
 L 25.9808,-133.205 L 26,-133.4 L 25.9808,-133.595 L 25.9239,-133.783 L 25.8315,-133.956 L 25.7071,-134.107
 L 25.5556,-134.231 L 25.3827,-134.324 L 25.1951,-134.381 L 25,-134.4 L 24.8049,-134.381 L 24.6173,-134.324
 L 24.4444,-134.231 L 24.2929,-134.107 L 24.1685,-133.956 L 24.0761,-133.783 L 24.0192,-133.595 L 24,-133.4
 L 24.0192,-133.205 L 24.0761,-133.017 L 24.1685,-132.844 L 24.2929,-132.693 L 24.4444,-132.569 L 24.6173,-132.476
 L 24.8049,-132.419 L 25,-132.4 z
M 35,-103.667 L 15,-103.667 L 15,-100.333 L 35,-100.333 z
M 9.01576,-100.799 L 9.19656,-100.872 L 9.35764,-100.981 L 9.49147,-101.122 L 9.59181,-101.289 L 9.65395,-101.473
 L 9.67499,-101.667 L 9.65395,-101.86 L 9.59181,-102.045 L 9.49147,-102.211 L 9.35764,-102.353 L 9.19656,-102.462
 L 9.01576,-102.534 L 8.82372,-102.565 L 8.62939,-102.555 L 8.44186,-102.503 L 8.26993,-102.412 L 8.1216,-102.286
 L 8.00381,-102.131 L 7.9221,-101.954 L 7.88026,-101.764 L 7.88026,-101.569 L 7.9221,-101.379 L 8.00381,-101.203
 L 8.1216,-101.048 L 8.26993,-100.922 L 8.44186,-100.831 L 8.62939,-100.779 L 8.82372,-100.768 z
M 41.4658,-100.799 L 41.6466,-100.872 L 41.8076,-100.981 L 41.9415,-101.122 L 42.0418,-101.289 L 42.104,-101.473
 L 42.125,-101.667 L 42.104,-101.86 L 42.0418,-102.045 L 41.9415,-102.211 L 41.8076,-102.353 L 41.6466,-102.462
 L 41.4658,-102.534 L 41.2737,-102.565 L 41.0794,-102.555 L 40.8919,-102.503 L 40.7199,-102.412 L 40.5716,-102.286
 L 40.4538,-102.131 L 40.3721,-101.954 L 40.3303,-101.764 L 40.3303,-101.569 L 40.3721,-101.379 L 40.4538,-101.203
 L 40.5716,-101.048 L 40.7199,-100.922 L 40.8919,-100.831 L 41.0794,-100.779 L 41.2737,-100.768 z
M 35,-98.6667 L 15,-98.6667 L 15,-95.3333 L 35,-95.3333 z
M 9.01576,-95.7995 L 9.19656,-95.8715 L 9.35764,-95.9807 L 9.49147,-96.122 L 9.59181,-96.2888 L 9.65395,-96.4732
 L 9.67499,-96.6667 L 9.65395,-96.8601 L 9.59181,-97.0446 L 9.49147,-97.2113 L 9.35764,-97.3526 L 9.19656,-97.4618
 L 9.01576,-97.5339 L 8.82372,-97.5653 L 8.62939,-97.5548 L 8.44186,-97.5027 L 8.26993,-97.4116 L 8.1216,-97.2856
 L 8.00381,-97.1307 L 7.9221,-96.954 L 7.88026,-96.764 L 7.88026,-96.5694 L 7.9221,-96.3793 L 8.00381,-96.2027
 L 8.1216,-96.0477 L 8.26993,-95.9217 L 8.44186,-95.8306 L 8.62939,-95.7785 L 8.82372,-95.768 z
M 41.4658,-95.7995 L 41.6466,-95.8715 L 41.8076,-95.9807 L 41.9415,-96.122 L 42.0418,-96.2888 L 42.104,-96.4732
 L 42.125,-96.6667 L 42.104,-96.8601 L 42.0418,-97.0446 L 41.9415,-97.2113 L 41.8076,-97.3526 L 41.6466,-97.4618
 L 41.4658,-97.5339 L 41.2737,-97.5653 L 41.0794,-97.5548 L 40.8919,-97.5027 L 40.7199,-97.4116 L 40.5716,-97.2856
 L 40.4538,-97.1307 L 40.3721,-96.954 L 40.3303,-96.764 L 40.3303,-96.5694 L 40.3721,-96.3793 L 40.4538,-96.2027
 L 40.5716,-96.0477 L 40.7199,-95.9217 L 40.8919,-95.8306 L 41.0794,-95.7785 L 41.2737,-95.768 z
M 35,-93.6667 L 15,-93.6667 L 15,-90.3333 L 35,-90.3333 z
M 9.01576,-90.7995 L 9.19656,-90.8715 L 9.35764,-90.9807 L 9.49147,-91.122 L 9.59181,-91.2888 L 9.65395,-91.4732
 L 9.67499,-91.6667 L 9.65395,-91.8601 L 9.59181,-92.0446 L 9.49147,-92.2113 L 9.35764,-92.3526 L 9.19656,-92.4618
 L 9.01576,-92.5339 L 8.82372,-92.5653 L 8.62939,-92.5548 L 8.44186,-92.5027 L 8.26993,-92.4116 L 8.1216,-92.2856
 L 8.00381,-92.1307 L 7.9221,-91.954 L 7.88026,-91.764 L 7.88026,-91.5694 L 7.9221,-91.3793 L 8.00381,-91.2027
 L 8.1216,-91.0477 L 8.26993,-90.9217 L 8.44186,-90.8306 L 8.62939,-90.7785 L 8.82372,-90.768 z
M 41.4658,-90.7995 L 41.6466,-90.8715 L 41.8076,-90.9807 L 41.9415,-91.122 L 42.0418,-91.2888 L 42.104,-91.4732
 L 42.125,-91.6667 L 42.104,-91.8601 L 42.0418,-92.0446 L 41.9415,-92.2113 L 41.8076,-92.3526 L 41.6466,-92.4618
 L 41.4658,-92.5339 L 41.2737,-92.5653 L 41.0794,-92.5548 L 40.8919,-92.5027 L 40.7199,-92.4116 L 40.5716,-92.2856
 L 40.4538,-92.1307 L 40.3721,-91.954 L 40.3303,-91.764 L 40.3303,-91.5694 L 40.3721,-91.3793 L 40.4538,-91.2027
 L 40.5716,-91.0477 L 40.7199,-90.9217 L 40.8919,-90.8306 L 41.0794,-90.7785 L 41.2737,-90.768 z
M 35,-88.6667 L 15,-88.6667 L 15,-85.3333 L 35,-85.3333 z
M 9.01576,-85.7995 L 9.19656,-85.8715 L 9.35764,-85.9807 L 9.49147,-86.122 L 9.59181,-86.2888 L 9.65395,-86.4732
 L 9.67499,-86.6667 L 9.65395,-86.8601 L 9.59181,-87.0446 L 9.49147,-87.2113 L 9.35764,-87.3526 L 9.19656,-87.4618
 L 9.01576,-87.5339 L 8.82372,-87.5653 L 8.62939,-87.5548 L 8.44186,-87.5027 L 8.26993,-87.4116 L 8.1216,-87.2856
 L 8.00381,-87.1307 L 7.9221,-86.954 L 7.88026,-86.764 L 7.88026,-86.5694 L 7.9221,-86.3793 L 8.00381,-86.2027
 L 8.1216,-86.0477 L 8.26993,-85.9217 L 8.44186,-85.8306 L 8.62939,-85.7785 L 8.82372,-85.768 z
M 41.4658,-85.7995 L 41.6466,-85.8715 L 41.8076,-85.9807 L 41.9415,-86.122 L 42.0418,-86.2888 L 42.104,-86.4732
 L 42.125,-86.6667 L 42.104,-86.8601 L 42.0418,-87.0446 L 41.9415,-87.2113 L 41.8076,-87.3526 L 41.6466,-87.4618
 L 41.4658,-87.5339 L 41.2737,-87.5653 L 41.0794,-87.5548 L 40.8919,-87.5027 L 40.7199,-87.4116 L 40.5716,-87.2856
 L 40.4538,-87.1307 L 40.3721,-86.954 L 40.3303,-86.764 L 40.3303,-86.5694 L 40.3721,-86.3793 L 40.4538,-86.2027
 L 40.5716,-86.0477 L 40.7199,-85.9217 L 40.8919,-85.8306 L 41.0794,-85.7785 L 41.2737,-85.768 z
M 35,-83.6667 L 15,-83.6667 L 15,-80.3333 L 35,-80.3333 z
M 9.01576,-80.7995 L 9.19656,-80.8715 L 9.35764,-80.9807 L 9.49147,-81.122 L 9.59181,-81.2888 L 9.65395,-81.4732
 L 9.67499,-81.6667 L 9.65395,-81.8601 L 9.59181,-82.0446 L 9.49147,-82.2113 L 9.35764,-82.3526 L 9.19656,-82.4618
 L 9.01576,-82.5339 L 8.82372,-82.5653 L 8.62939,-82.5548 L 8.44186,-82.5027 L 8.26993,-82.4116 L 8.1216,-82.2856
 L 8.00381,-82.1307 L 7.9221,-81.954 L 7.88026,-81.764 L 7.88026,-81.5694 L 7.9221,-81.3793 L 8.00381,-81.2027
 L 8.1216,-81.0477 L 8.26993,-80.9217 L 8.44186,-80.8306 L 8.62939,-80.7785 L 8.82372,-80.768 z
M 41.4658,-80.7995 L 41.6466,-80.8715 L 41.8076,-80.9807 L 41.9415,-81.122 L 42.0418,-81.2888 L 42.104,-81.4732
 L 42.125,-81.6667 L 42.104,-81.8601 L 42.0418,-82.0446 L 41.9415,-82.2113 L 41.8076,-82.3526 L 41.6466,-82.4618
 L 41.4658,-82.5339 L 41.2737,-82.5653 L 41.0794,-82.5548 L 40.8919,-82.5027 L 40.7199,-82.4116 L 40.5716,-82.2856
 L 40.4538,-82.1307 L 40.3721,-81.954 L 40.3303,-81.764 L 40.3303,-81.5694 L 40.3721,-81.3793 L 40.4538,-81.2027
 L 40.5716,-81.0477 L 40.7199,-80.9217 L 40.8919,-80.8306 L 41.0794,-80.7785 L 41.2737,-80.768 z
M 35,-78.6667 L 15,-78.6667 L 15,-75.3333 L 35,-75.3333 z
M 9.01576,-75.7995 L 9.19656,-75.8715 L 9.35764,-75.9807 L 9.49147,-76.122 L 9.59181,-76.2888 L 9.65395,-76.4732
 L 9.67499,-76.6667 L 9.65395,-76.8601 L 9.59181,-77.0446 L 9.49147,-77.2113 L 9.35764,-77.3526 L 9.19656,-77.4618
 L 9.01576,-77.5339 L 8.82372,-77.5653 L 8.62939,-77.5548 L 8.44186,-77.5027 L 8.26993,-77.4116 L 8.1216,-77.2856
 L 8.00381,-77.1307 L 7.9221,-76.954 L 7.88026,-76.764 L 7.88026,-76.5694 L 7.9221,-76.3793 L 8.00381,-76.2027
 L 8.1216,-76.0477 L 8.26993,-75.9217 L 8.44186,-75.8306 L 8.62939,-75.7785 L 8.82372,-75.768 z
M 41.4658,-75.7995 L 41.6466,-75.8715 L 41.8076,-75.9807 L 41.9415,-76.122 L 42.0418,-76.2888 L 42.104,-76.4732
 L 42.125,-76.6667 L 42.104,-76.8601 L 42.0418,-77.0446 L 41.9415,-77.2113 L 41.8076,-77.3526 L 41.6466,-77.4618
 L 41.4658,-77.5339 L 41.2737,-77.5653 L 41.0794,-77.5548 L 40.8919,-77.5027 L 40.7199,-77.4116 L 40.5716,-77.2856
 L 40.4538,-77.1307 L 40.3721,-76.954 L 40.3303,-76.764 L 40.3303,-76.5694 L 40.3721,-76.3793 L 40.4538,-76.2027
 L 40.5716,-76.0477 L 40.7199,-75.9217 L 40.8919,-75.8306 L 41.0794,-75.7785 L 41.2737,-75.768 z
M 35,-73.6667 L 15,-73.6667 L 15,-70.3333 L 35,-70.3333 z
M 9.01576,-70.7995 L 9.19656,-70.8715 L 9.35764,-70.9807 L 9.49147,-71.122 L 9.59181,-71.2888 L 9.65395,-71.4732
 L 9.67499,-71.6667 L 9.65395,-71.8601 L 9.59181,-72.0446 L 9.49147,-72.2113 L 9.35764,-72.3526 L 9.19656,-72.4618
 L 9.01576,-72.5339 L 8.82372,-72.5653 L 8.62939,-72.5548 L 8.44186,-72.5027 L 8.26993,-72.4116 L 8.1216,-72.2856
 L 8.00381,-72.1307 L 7.9221,-71.954 L 7.88026,-71.764 L 7.88026,-71.5694 L 7.9221,-71.3793 L 8.00381,-71.2027
 L 8.1216,-71.0477 L 8.26993,-70.9217 L 8.44186,-70.8306 L 8.62939,-70.7785 L 8.82372,-70.768 z
M 41.4658,-70.7995 L 41.6466,-70.8715 L 41.8076,-70.9807 L 41.9415,-71.122 L 42.0418,-71.2888 L 42.104,-71.4732
 L 42.125,-71.6667 L 42.104,-71.8601 L 42.0418,-72.0446 L 41.9415,-72.2113 L 41.8076,-72.3526 L 41.6466,-72.4618
 L 41.4658,-72.5339 L 41.2737,-72.5653 L 41.0794,-72.5548 L 40.8919,-72.5027 L 40.7199,-72.4116 L 40.5716,-72.2856
 L 40.4538,-72.1307 L 40.3721,-71.954 L 40.3303,-71.764 L 40.3303,-71.5694 L 40.3721,-71.3793 L 40.4538,-71.2027
 L 40.5716,-71.0477 L 40.7199,-70.9217 L 40.8919,-70.8306 L 41.0794,-70.7785 L 41.2737,-70.768 z
M 35,-68.6667 L 15,-68.6667 L 15,-65.3333 L 35,-65.3333 z
M 9.01576,-65.7995 L 9.19656,-65.8715 L 9.35764,-65.9807 L 9.49147,-66.122 L 9.59181,-66.2888 L 9.65395,-66.4732
 L 9.67499,-66.6667 L 9.65395,-66.8601 L 9.59181,-67.0446 L 9.49147,-67.2113 L 9.35764,-67.3526 L 9.19656,-67.4618
 L 9.01576,-67.5339 L 8.82372,-67.5653 L 8.62939,-67.5548 L 8.44186,-67.5027 L 8.26993,-67.4116 L 8.1216,-67.2856
 L 8.00381,-67.1307 L 7.9221,-66.954 L 7.88026,-66.764 L 7.88026,-66.5694 L 7.9221,-66.3793 L 8.00381,-66.2027
 L 8.1216,-66.0477 L 8.26993,-65.9217 L 8.44186,-65.8306 L 8.62939,-65.7785 L 8.82372,-65.768 z
M 41.4658,-65.7995 L 41.6466,-65.8715 L 41.8076,-65.9807 L 41.9415,-66.122 L 42.0418,-66.2888 L 42.104,-66.4732
 L 42.125,-66.6667 L 42.104,-66.8601 L 42.0418,-67.0446 L 41.9415,-67.2113 L 41.8076,-67.3526 L 41.6466,-67.4618
 L 41.4658,-67.5339 L 41.2737,-67.5653 L 41.0794,-67.5548 L 40.8919,-67.5027 L 40.7199,-67.4116 L 40.5716,-67.2856
 L 40.4538,-67.1307 L 40.3721,-66.954 L 40.3303,-66.764 L 40.3303,-66.5694 L 40.3721,-66.3793 L 40.4538,-66.2027
 L 40.5716,-66.0477 L 40.7199,-65.9217 L 40.8919,-65.8306 L 41.0794,-65.7785 L 41.2737,-65.768 z
M 35,-63.6667 L 15,-63.6667 L 15,-60.3333 L 35,-60.3333 z
M 9.01576,-60.7995 L 9.19656,-60.8715 L 9.35764,-60.9807 L 9.49147,-61.122 L 9.59181,-61.2888 L 9.65395,-61.4732
 L 9.67499,-61.6667 L 9.65395,-61.8601 L 9.59181,-62.0446 L 9.49147,-62.2113 L 9.35764,-62.3526 L 9.19656,-62.4618
 L 9.01576,-62.5339 L 8.82372,-62.5653 L 8.62939,-62.5548 L 8.44186,-62.5027 L 8.26993,-62.4116 L 8.1216,-62.2856
 L 8.00381,-62.1307 L 7.9221,-61.954 L 7.88026,-61.764 L 7.88026,-61.5694 L 7.9221,-61.3793 L 8.00381,-61.2027
 L 8.1216,-61.0477 L 8.26993,-60.9217 L 8.44186,-60.8306 L 8.62939,-60.7785 L 8.82372,-60.768 z
M 41.4658,-60.7995 L 41.6466,-60.8715 L 41.8076,-60.9807 L 41.9415,-61.122 L 42.0418,-61.2888 L 42.104,-61.4732
 L 42.125,-61.6667 L 42.104,-61.8601 L 42.0418,-62.0446 L 41.9415,-62.2113 L 41.8076,-62.3526 L 41.6466,-62.4618
 L 41.4658,-62.5339 L 41.2737,-62.5653 L 41.0794,-62.5548 L 40.8919,-62.5027 L 40.7199,-62.4116 L 40.5716,-62.2856
 L 40.4538,-62.1307 L 40.3721,-61.954 L 40.3303,-61.764 L 40.3303,-61.5694 L 40.3721,-61.3793 L 40.4538,-61.2027
 L 40.5716,-61.0477 L 40.7199,-60.9217 L 40.8919,-60.8306 L 41.0794,-60.7785 L 41.2737,-60.768 z
M 35,-58.6667 L 15,-58.6667 L 15,-55.3333 L 35,-55.3333 z
M 41.4658,-55.7995 L 41.6466,-55.8715 L 41.8076,-55.9807 L 41.9415,-56.122 L 42.0418,-56.2888 L 42.104,-56.4732
 L 42.125,-56.6667 L 42.104,-56.8601 L 42.0418,-57.0446 L 41.9415,-57.2113 L 41.8076,-57.3526 L 41.6466,-57.4618
 L 41.4658,-57.5339 L 41.2737,-57.5653 L 41.0794,-57.5548 L 40.8919,-57.5027 L 40.7199,-57.4116 L 40.5716,-57.2856
 L 40.4538,-57.1307 L 40.3721,-56.954 L 40.3303,-56.764 L 40.3303,-56.5694 L 40.3721,-56.3793 L 40.4538,-56.2027
 L 40.5716,-56.0477 L 40.7199,-55.9217 L 40.8919,-55.8306 L 41.0794,-55.7785 L 41.2737,-55.768 z
M 9.01576,-55.7995 L 9.19656,-55.8715 L 9.35764,-55.9807 L 9.49147,-56.122 L 9.59181,-56.2888 L 9.65395,-56.4732
 L 9.67499,-56.6667 L 9.65395,-56.8601 L 9.59181,-57.0446 L 9.49147,-57.2113 L 9.35764,-57.3526 L 9.19656,-57.4618
 L 9.01576,-57.5339 L 8.82372,-57.5653 L 8.62939,-57.5548 L 8.44186,-57.5027 L 8.26993,-57.4116 L 8.1216,-57.2856
 L 8.00381,-57.1307 L 7.9221,-56.954 L 7.88026,-56.764 L 7.88026,-56.5694 L 7.9221,-56.3793 L 8.00381,-56.2027
 L 8.1216,-56.0477 L 8.26993,-55.9217 L 8.44186,-55.8306 L 8.62939,-55.7785 L 8.82372,-55.768 z
M 35,-53.6667 L 15,-53.6667 L 15,-50.3333 L 35,-50.3333 z
M 9.01576,-50.7995 L 9.19656,-50.8715 L 9.35764,-50.9807 L 9.49147,-51.122 L 9.59181,-51.2888 L 9.65395,-51.4732
 L 9.67499,-51.6667 L 9.65395,-51.8601 L 9.59181,-52.0446 L 9.49147,-52.2113 L 9.35764,-52.3526 L 9.19656,-52.4618
 L 9.01576,-52.5339 L 8.82372,-52.5653 L 8.62939,-52.5548 L 8.44186,-52.5027 L 8.26993,-52.4116 L 8.1216,-52.2856
 L 8.00381,-52.1307 L 7.9221,-51.954 L 7.88026,-51.764 L 7.88026,-51.5694 L 7.9221,-51.3793 L 8.00381,-51.2027
 L 8.1216,-51.0477 L 8.26993,-50.9217 L 8.44186,-50.8306 L 8.62939,-50.7785 L 8.82372,-50.768 z
M 41.4658,-50.7995 L 41.6466,-50.8715 L 41.8076,-50.9807 L 41.9415,-51.122 L 42.0418,-51.2888 L 42.104,-51.4732
 L 42.125,-51.6667 L 42.104,-51.8601 L 42.0418,-52.0446 L 41.9415,-52.2113 L 41.8076,-52.3526 L 41.6466,-52.4618
 L 41.4658,-52.5339 L 41.2737,-52.5653 L 41.0794,-52.5548 L 40.8919,-52.5027 L 40.7199,-52.4116 L 40.5716,-52.2856
 L 40.4538,-52.1307 L 40.3721,-51.954 L 40.3303,-51.764 L 40.3303,-51.5694 L 40.3721,-51.3793 L 40.4538,-51.2027
 L 40.5716,-51.0477 L 40.7199,-50.9217 L 40.8919,-50.8306 L 41.0794,-50.7785 L 41.2737,-50.768 z
M 35,-48.6667 L 15,-48.6667 L 15,-45.3333 L 35,-45.3333 z
M 9.01576,-45.7995 L 9.19656,-45.8715 L 9.35764,-45.9807 L 9.49147,-46.122 L 9.59181,-46.2888 L 9.65395,-46.4732
 L 9.67499,-46.6667 L 9.65395,-46.8601 L 9.59181,-47.0446 L 9.49147,-47.2113 L 9.35764,-47.3526 L 9.19656,-47.4618
 L 9.01576,-47.5339 L 8.82372,-47.5653 L 8.62939,-47.5548 L 8.44186,-47.5027 L 8.26993,-47.4116 L 8.1216,-47.2856
 L 8.00381,-47.1307 L 7.9221,-46.954 L 7.88026,-46.764 L 7.88026,-46.5694 L 7.9221,-46.3793 L 8.00381,-46.2027
 L 8.1216,-46.0477 L 8.26993,-45.9217 L 8.44186,-45.8306 L 8.62939,-45.7785 L 8.82372,-45.768 z
M 41.4658,-45.7995 L 41.6466,-45.8715 L 41.8076,-45.9807 L 41.9415,-46.122 L 42.0418,-46.2888 L 42.104,-46.4732
 L 42.125,-46.6667 L 42.104,-46.8601 L 42.0418,-47.0446 L 41.9415,-47.2113 L 41.8076,-47.3526 L 41.6466,-47.4618
 L 41.4658,-47.5339 L 41.2737,-47.5653 L 41.0794,-47.5548 L 40.8919,-47.5027 L 40.7199,-47.4116 L 40.5716,-47.2856
 L 40.4538,-47.1307 L 40.3721,-46.954 L 40.3303,-46.764 L 40.3303,-46.5694 L 40.3721,-46.3793 L 40.4538,-46.2027
 L 40.5716,-46.0477 L 40.7199,-45.9217 L 40.8919,-45.8306 L 41.0794,-45.7785 L 41.2737,-45.768 z
M 35,-43.6667 L 15,-43.6667 L 15,-40.3333 L 35,-40.3333 z
M 9.01576,-40.7995 L 9.19656,-40.8715 L 9.35764,-40.9807 L 9.49147,-41.122 L 9.59181,-41.2888 L 9.65395,-41.4732
 L 9.67499,-41.6667 L 9.65395,-41.8601 L 9.59181,-42.0446 L 9.49147,-42.2113 L 9.35764,-42.3526 L 9.19656,-42.4618
 L 9.01576,-42.5339 L 8.82372,-42.5653 L 8.62939,-42.5548 L 8.44186,-42.5027 L 8.26993,-42.4116 L 8.1216,-42.2856
 L 8.00381,-42.1307 L 7.9221,-41.954 L 7.88026,-41.764 L 7.88026,-41.5694 L 7.9221,-41.3793 L 8.00381,-41.2027
 L 8.1216,-41.0477 L 8.26993,-40.9217 L 8.44186,-40.8306 L 8.62939,-40.7785 L 8.82372,-40.768 z
M 41.4658,-40.7995 L 41.6466,-40.8715 L 41.8076,-40.9807 L 41.9415,-41.122 L 42.0418,-41.2888 L 42.104,-41.4732
 L 42.125,-41.6667 L 42.104,-41.8601 L 42.0418,-42.0446 L 41.9415,-42.2113 L 41.8076,-42.3526 L 41.6466,-42.4618
 L 41.4658,-42.5339 L 41.2737,-42.5653 L 41.0794,-42.5548 L 40.8919,-42.5027 L 40.7199,-42.4116 L 40.5716,-42.2856
 L 40.4538,-42.1307 L 40.3721,-41.954 L 40.3303,-41.764 L 40.3303,-41.5694 L 40.3721,-41.3793 L 40.4538,-41.2027
 L 40.5716,-41.0477 L 40.7199,-40.9217 L 40.8919,-40.8306 L 41.0794,-40.7785 L 41.2737,-40.768 z
M 35,-38.6667 L 15,-38.6667 L 15,-35.3333 L 35,-35.3333 z
M 41.4658,-35.7995 L 41.6466,-35.8715 L 41.8076,-35.9807 L 41.9415,-36.122 L 42.0418,-36.2888 L 42.104,-36.4732
 L 42.125,-36.6667 L 42.104,-36.8601 L 42.0418,-37.0446 L 41.9415,-37.2113 L 41.8076,-37.3526 L 41.6466,-37.4618
 L 41.4658,-37.5339 L 41.2737,-37.5653 L 41.0794,-37.5548 L 40.8919,-37.5027 L 40.7199,-37.4116 L 40.5716,-37.2856
 L 40.4538,-37.1307 L 40.3721,-36.954 L 40.3303,-36.764 L 40.3303,-36.5694 L 40.3721,-36.3793 L 40.4538,-36.2027
 L 40.5716,-36.0477 L 40.7199,-35.9217 L 40.8919,-35.8306 L 41.0794,-35.7785 L 41.2737,-35.768 z
M 9.01576,-35.7995 L 9.19656,-35.8715 L 9.35764,-35.9807 L 9.49147,-36.122 L 9.59181,-36.2888 L 9.65395,-36.4732
 L 9.67499,-36.6667 L 9.65395,-36.8601 L 9.59181,-37.0446 L 9.49147,-37.2113 L 9.35764,-37.3526 L 9.19656,-37.4618
 L 9.01576,-37.5339 L 8.82372,-37.5653 L 8.62939,-37.5548 L 8.44186,-37.5027 L 8.26993,-37.4116 L 8.1216,-37.2856
 L 8.00381,-37.1307 L 7.9221,-36.954 L 7.88026,-36.764 L 7.88026,-36.5694 L 7.9221,-36.3793 L 8.00381,-36.2027
 L 8.1216,-36.0477 L 8.26993,-35.9217 L 8.44186,-35.8306 L 8.62939,-35.7785 L 8.82372,-35.768 z
M 35,-33.6667 L 15,-33.6667 L 15,-30.3333 L 35,-30.3333 z
M 9.01576,-30.7995 L 9.19656,-30.8715 L 9.35764,-30.9807 L 9.49147,-31.122 L 9.59181,-31.2888 L 9.65395,-31.4732
 L 9.67499,-31.6667 L 9.65395,-31.8601 L 9.59181,-32.0446 L 9.49147,-32.2113 L 9.35764,-32.3526 L 9.19656,-32.4618
 L 9.01576,-32.5339 L 8.82372,-32.5653 L 8.62939,-32.5548 L 8.44186,-32.5027 L 8.26993,-32.4116 L 8.1216,-32.2856
 L 8.00381,-32.1307 L 7.9221,-31.954 L 7.88026,-31.764 L 7.88026,-31.5694 L 7.9221,-31.3793 L 8.00381,-31.2027
 L 8.1216,-31.0477 L 8.26993,-30.9217 L 8.44186,-30.8306 L 8.62939,-30.7785 L 8.82372,-30.768 z
M 41.4658,-30.7995 L 41.6466,-30.8715 L 41.8076,-30.9807 L 41.9415,-31.122 L 42.0418,-31.2888 L 42.104,-31.4732
 L 42.125,-31.6667 L 42.104,-31.8601 L 42.0418,-32.0446 L 41.9415,-32.2113 L 41.8076,-32.3526 L 41.6466,-32.4618
 L 41.4658,-32.5339 L 41.2737,-32.5653 L 41.0794,-32.5548 L 40.8919,-32.5027 L 40.7199,-32.4116 L 40.5716,-32.2856
 L 40.4538,-32.1307 L 40.3721,-31.954 L 40.3303,-31.764 L 40.3303,-31.5694 L 40.3721,-31.3793 L 40.4538,-31.2027
 L 40.5716,-31.0477 L 40.7199,-30.9217 L 40.8919,-30.8306 L 41.0794,-30.7785 L 41.2737,-30.768 z
M 35,-28.6667 L 15,-28.6667 L 15,-25.3333 L 35,-25.3333 z
M 9.01576,-25.7995 L 9.19656,-25.8715 L 9.35764,-25.9807 L 9.49147,-26.122 L 9.59181,-26.2888 L 9.65395,-26.4732
 L 9.67499,-26.6667 L 9.65395,-26.8601 L 9.59181,-27.0446 L 9.49147,-27.2113 L 9.35764,-27.3526 L 9.19656,-27.4618
 L 9.01576,-27.5339 L 8.82372,-27.5653 L 8.62939,-27.5548 L 8.44186,-27.5027 L 8.26993,-27.4116 L 8.1216,-27.2856
 L 8.00381,-27.1307 L 7.9221,-26.954 L 7.88026,-26.764 L 7.88026,-26.5694 L 7.9221,-26.3793 L 8.00381,-26.2027
 L 8.1216,-26.0477 L 8.26993,-25.9217 L 8.44186,-25.8306 L 8.62939,-25.7785 L 8.82372,-25.768 z
M 41.4658,-25.7995 L 41.6466,-25.8715 L 41.8076,-25.9807 L 41.9415,-26.122 L 42.0418,-26.2888 L 42.104,-26.4732
 L 42.125,-26.6667 L 42.104,-26.8601 L 42.0418,-27.0446 L 41.9415,-27.2113 L 41.8076,-27.3526 L 41.6466,-27.4618
 L 41.4658,-27.5339 L 41.2737,-27.5653 L 41.0794,-27.5548 L 40.8919,-27.5027 L 40.7199,-27.4116 L 40.5716,-27.2856
 L 40.4538,-27.1307 L 40.3721,-26.954 L 40.3303,-26.764 L 40.3303,-26.5694 L 40.3721,-26.3793 L 40.4538,-26.2027
 L 40.5716,-26.0477 L 40.7199,-25.9217 L 40.8919,-25.8306 L 41.0794,-25.7785 L 41.2737,-25.768 z
M 2.231,-0.937515 L 2.30405,-0.942062 L 2.37411,-0.949631 L 2.44121,-0.960236 L 2.50534,-0.973862 L 2.5665,-0.990509
 L 2.62468,-1.01018 L 2.67989,-1.03288 L 2.73212,-1.05862 L 2.78139,-1.08739 L 2.82767,-1.11917 L 2.87099,-1.15399
 L 2.91109,-1.19174 L 2.94769,-1.23199 L 2.9808,-1.27475 L 3.01044,-1.31999 L 3.03658,-1.36774 L 3.05925,-1.418
 L 3.07841,-1.47075 L 3.0941,-1.52599 L 3.10631,-1.58374 L 3.11502,-1.644 L 3.12025,-1.70674 L 3.12199,-1.77199
 L 3.12076,-1.81718 L 3.11705,-1.86107 L 3.11087,-1.90369 L 3.10222,-1.94499 L 3.09109,-1.98502 L 3.0775,-2.02374
 L 3.06142,-2.06117 L 3.04288,-2.09732 L 3.02187,-2.13219 L 2.99838,-2.16574 L 2.97243,-2.19801 L 2.94398,-2.22899
 L 2.91335,-2.2583 L 2.88072,-2.28557 L 2.84612,-2.31081 L 2.80956,-2.334 L 2.77101,-2.35513 L 2.7305,-2.37424
 L 2.688,-2.39131 L 2.64355,-2.40633 L 2.59712,-2.41931 L 2.54872,-2.43024 L 2.49834,-2.43913 L 2.446,-2.446
 L 2.446,-2.45399 L 2.49353,-2.46529 L 2.53915,-2.47818 L 2.58287,-2.49268 L 2.62466,-2.50877 L 2.66454,-2.52646
 L 2.7025,-2.54575 L 2.73854,-2.56662 L 2.77266,-2.5891 L 2.80487,-2.61317 L 2.83516,-2.63885 L 2.86354,-2.66612
 L 2.89,-2.69499 L 2.91443,-2.7254 L 2.93674,-2.75729 L 2.95692,-2.79068 L 2.97499,-2.82555 L 2.99094,-2.86191
 L 3.00475,-2.89975 L 3.01643,-2.93907 L 3.02599,-2.97987 L 3.03343,-3.02219 L 3.03874,-3.06596 L 3.04193,-3.11124
 L 3.043,-3.15799 L 3.04134,-3.21869 L 3.03638,-3.2771 L 3.02812,-3.33324 L 3.01654,-3.3871 L 3.00168,-3.43869
 L 2.98349,-3.48799 L 2.96201,-3.53502 L 2.93721,-3.57977 L 2.90912,-3.62224 L 2.87772,-3.66243 L 2.843,-3.70035
 L 2.80499,-3.73599 L 2.76416,-3.76921 L 2.72066,-3.79955 L 2.6745,-3.827 L 2.62566,-3.85155 L 2.57416,-3.87321
 L 2.51999,-3.892 L 2.46317,-3.90788 L 2.40366,-3.92088 L 2.34149,-3.931 L 2.27666,-3.93822 L 2.20915,-3.94255
 L 2.13899,-3.94398 L 2.07448,-3.94263 L 2.01196,-3.93852 L 1.95143,-3.93169 L 1.89288,-3.9221 L 1.83632,-3.90979
 L 1.78174,-3.89474 L 1.72916,-3.87695 L 1.67854,-3.85643 L 1.62993,-3.83318 L 1.5833,-3.80719 L 1.53865,-3.77846
 L 1.49599,-3.74699 L 1.45578,-3.71309 L 1.41849,-3.67702 L 1.38412,-3.63881 L 1.35266,-3.59843 L 1.32411,-3.55592
 L 1.29849,-3.51125 L 1.27579,-3.46442 L 1.256,-3.41544 L 1.23912,-3.3643 L 1.22516,-3.31102 L 1.21411,-3.25558
 L 1.20599,-3.198 L 1.57399,-3.17 L 1.57886,-3.20679 L 1.58543,-3.24219 L 1.59375,-3.27618 L 1.60378,-3.30878
 L 1.61552,-3.33995 L 1.629,-3.36974 L 1.64418,-3.39812 L 1.6611,-3.42511 L 1.67975,-3.45068 L 1.7001,-3.47485
 L 1.72218,-3.49762 L 1.74599,-3.519 L 1.77145,-3.5388 L 1.79819,-3.55688 L 1.82619,-3.57324 L 1.85544,-3.58788
 L 1.88596,-3.6008 L 1.91774,-3.612 L 1.95079,-3.62146 L 1.98511,-3.62921 L 2.02068,-3.63524 L 2.05753,-3.63954
 L 2.09563,-3.64214 L 2.13499,-3.64299 L 2.17809,-3.64201 L 2.21938,-3.63907 L 2.25887,-3.63419 L 2.29655,-3.62732
 L 2.33243,-3.61852 L 2.36649,-3.60774 L 2.39876,-3.59502 L 2.42921,-3.58032 L 2.45787,-3.56367 L 2.48471,-3.54507
 L 2.50975,-3.52451 L 2.53299,-3.502 L 2.5544,-3.47795 L 2.57394,-3.4525 L 2.59161,-3.42561 L 2.60744,-3.39732
 L 2.6214,-3.36761 L 2.6335,-3.33649 L 2.64372,-3.30396 L 2.6521,-3.26999 L 2.65862,-3.23462 L 2.66327,-3.19783
 L 2.66606,-3.15962 L 2.66699,-3.12 L 2.66585,-3.08006 L 2.66241,-3.04161 L 2.65668,-3.00462 L 2.64867,-2.9691
 L 2.63835,-2.93506 L 2.62575,-2.9025 L 2.61084,-2.8714 L 2.59366,-2.84177 L 2.57417,-2.81361 L 2.55241,-2.78694
 L 2.52835,-2.76173 L 2.502,-2.73799 L 2.47372,-2.71596 L 2.44357,-2.69583 L 2.41156,-2.67761 L 2.37766,-2.66133
 L 2.34189,-2.64696 L 2.30424,-2.63449 L 2.26472,-2.62395 L 2.22333,-2.61533 L 2.18005,-2.60861 L 2.1349,-2.60382
 L 2.08789,-2.60095 L 2.03899,-2.59999 L 1.84099,-2.59999 L 1.84099,-2.28299 L 2.047,-2.28299 L 2.10207,-2.28207
 L 2.15494,-2.27933 L 2.20561,-2.27475 L 2.2541,-2.26833 L 2.3004,-2.26007 L 2.3445,-2.25 L 2.3864,-2.23808
 L 2.4261,-2.22432 L 2.46362,-2.20874 L 2.49893,-2.19133 L 2.53206,-2.17207 L 2.56299,-2.15099 L 2.59158,-2.12828
 L 2.61769,-2.10413 L 2.64131,-2.07855 L 2.66243,-2.05154 L 2.68108,-2.02312 L 2.69724,-1.99324 L 2.71092,-1.96194
 L 2.72211,-1.92921 L 2.7308,-1.89505 L 2.73701,-1.85947 L 2.74075,-1.82245 L 2.74199,-1.784 L 2.74091,-1.73976
 L 2.73763,-1.69739 L 2.73218,-1.65686 L 2.72455,-1.61821 L 2.71474,-1.58142 L 2.70274,-1.54649 L 2.68857,-1.51343
 L 2.67221,-1.48221 L 2.65369,-1.45287 L 2.63297,-1.42538 L 2.61006,-1.39975 L 2.58499,-1.37599 L 2.55817,-1.35411
 L 2.52971,-1.33414 L 2.49962,-1.31606 L 2.46788,-1.29988 L 2.43451,-1.28561 L 2.39949,-1.27324 L 2.36284,-1.26277
 L 2.32455,-1.25421 L 2.28462,-1.24756 L 2.24304,-1.2428 L 2.19984,-1.23994 L 2.155,-1.239 L 2.06728,-1.24252
 L 1.98613,-1.2531 L 1.91156,-1.27074 L 1.84355,-1.29544 L 1.7821,-1.32719 L 1.72725,-1.366 L 1.67894,-1.41185
 L 1.63721,-1.46477 L 1.60205,-1.52475 L 1.57347,-1.59177 L 1.55144,-1.66585 L 1.536,-1.74699 L 1.15799,-1.71199
 L 1.1676,-1.64929 L 1.1801,-1.58922 L 1.1955,-1.53174 L 1.21378,-1.47688 L 1.23494,-1.42464 L 1.25899,-1.375
 L 1.28593,-1.32796 L 1.31577,-1.28355 L 1.3485,-1.24174 L 1.38411,-1.20255 L 1.42261,-1.16597 L 1.46399,-1.13199
 L 1.50821,-1.10069 L 1.55486,-1.0721 L 1.60393,-1.04625 L 1.65544,-1.0231 L 1.70938,-1.00269 L 1.76575,-0.985001
 L 1.82454,-0.970032 L 1.88577,-0.957779 L 1.94943,-0.948257 L 2.01552,-0.941452 L 2.08405,-0.937363 L 2.155,-0.936005
 z
M 4.89905,-1.849 L 6.18805,-1.849 L 6.51105,-1 L 6.90805,-1 L 5.77005,-3.87999 L 5.32906,-3.87999
 L 4.17206,-1 L 4.57405,-1 z
M 5.01605,-2.15199 L 5.37706,-3.09599 L 5.39322,-3.13965 L 5.40869,-3.18196 L 5.42349,-3.22293 L 5.43761,-3.26254
 L 5.45105,-3.30081 L 5.46381,-3.33774 L 5.47588,-3.37332 L 5.48727,-3.40755 L 5.49799,-3.44043 L 5.50803,-3.47197
 L 5.51738,-3.50215 L 5.52606,-3.53099 L 5.54405,-3.588 L 5.59805,-3.41899 L 5.60739,-3.38959 L 5.61674,-3.36069
 L 5.62611,-3.33231 L 5.6355,-3.30444 L 5.6449,-3.27708 L 5.65431,-3.25024 L 5.66373,-3.22392 L 5.67317,-3.1981
 L 5.68262,-3.17281 L 5.69208,-3.14803 L 5.70157,-3.12375 L 5.71106,-3.09999 L 6.07405,-2.15199 z
" stroke="black" fill="black" stroke-width="0"/>
</svg>
