<?xml version="1.0" encoding="UTF-8" standalone="no"?>
<svg
   xmlns:dc="http://purl.org/dc/elements/1.1/"
   xmlns:cc="http://creativecommons.org/ns#"
   xmlns:rdf="http://www.w3.org/1999/02/22-rdf-syntax-ns#"
   xmlns:svg="http://www.w3.org/2000/svg"
   xmlns="http://www.w3.org/2000/svg"
   xmlns:sodipodi="http://sodipodi.sourceforge.net/DTD/sodipodi-0.dtd"
   xmlns:inkscape="http://www.inkscape.org/namespaces/inkscape"
   width="40.917011mm"
   height="133.40001mm"
   viewBox="0 0 40.917011 133.40001"
   version="1.1"
   id="svg5294"
   sodipodi:docname="layer_2.svg"
   inkscape:version="0.92.1 r15371">
  <metadata
     id="metadata5300">
    <rdf:RDF>
      <cc:Work
         rdf:about="">
        <dc:format>image/svg+xml</dc:format>
        <dc:type
           rdf:resource="http://purl.org/dc/dcmitype/StillImage" />
        <dc:title>OpenSCAD Model</dc:title>
      </cc:Work>
    </rdf:RDF>
  </metadata>
  <defs
     id="defs5298" />
  <sodipodi:namedview
     pagecolor="#ffffff"
     bordercolor="#666666"
     borderopacity="1"
     objecttolerance="10"
     gridtolerance="10"
     guidetolerance="10"
     inkscape:pageopacity="0"
     inkscape:pageshadow="2"
     inkscape:window-width="318"
     inkscape:window-height="1078"
     id="namedview5296"
     showgrid="false"
     fit-margin-top="0"
     fit-margin-left="0"
     fit-margin-right="0"
     fit-margin-bottom="0"
     inkscape:zoom="0.46598259"
     inkscape:cx="74.804449"
     inkscape:cy="343.87295"
     inkscape:window-x="4880"
     inkscape:window-y="0"
     inkscape:window-maximized="0"
     inkscape:current-layer="svg5294" />
  <title
     id="title5290">OpenSCAD Model</title>
  <path
     d="m 23.98711,1.9810005 0.1876,-0.057 0.1729,-0.093 0.1515,-0.124 0.1244,-0.151 0.0924,-0.173 0.0569,-0.188 0.0192,-0.195 -0.0192,-0.195 -0.0569,-0.188 -0.0924,-0.173 -0.1244,-0.151 -0.1515,-0.124 -0.1729,-0.093 -0.1876,-0.057 L 23.79201,5.023654e-7 23.59691,0.0190005 l -0.1876,0.057 -0.172899,0.093 -0.1515,0.124 -0.1244,0.151 -0.0924,0.173 -0.0569,0.188 -0.0192,0.195 0.0192,0.195 0.0569,0.188 0.0924,0.173 0.1244,0.151 0.1515,0.124 0.172899,0.093 0.1876,0.057 0.1951,0.019 z M 7.8077705,33.601001 l 0.1808,-0.073 0.16108,-0.109 0.13383,-0.141 0.10034,-0.167 0.06214,-0.184 0.02104,-0.194 -0.02104,-0.193 -0.06214,-0.185 -0.10034,-0.166 -0.13383,-0.142 -0.16108,-0.109 -0.1808,-0.072 -0.19204,-0.031 -0.19433,0.01 -0.18753,0.052 -0.17193,0.091 -0.14833,0.126 -0.11779,0.155 -0.08171,0.177 -0.04184,0.19 v 0.195 l 0.04184,0.19 0.08171,0.176 0.11779,0.155 0.14833,0.126 0.17193,0.091 0.18753,0.052 0.19433,0.011 z m 32.4500395,0 0.1808,-0.073 0.161,-0.109 0.1339,-0.141 0.1003,-0.167 0.0622,-0.184 0.021,-0.194 -0.021,-0.193 -0.0622,-0.185 -0.1003,-0.166 -0.1339,-0.142 -0.161,-0.109 -0.1808,-0.072 -0.1921,-0.031 -0.1943,0.01 -0.1875,0.052 -0.172,0.091 -0.1483,0.126 -0.1178,0.155 -0.0817,0.177 -0.0418,0.19 v 0.195 l 0.0418,0.19 0.0817,0.176 0.1178,0.155 0.1483,0.126 0.172,0.091 0.1875,0.052 0.1943,0.011 z m 0,4.9995 0.1808,-0.072 0.161,-0.1092 0.1339,-0.1413 0.1003,-0.1668 0.0622,-0.1844 0.021,-0.1935 -0.021,-0.1934 -0.0622,-0.1845 -0.1003,-0.1667 -0.1339,-0.1413 -0.161,-0.1092 -0.1808,-0.0721 -0.1921,-0.0314 -0.1943,0.0105 -0.1875,0.0521 -0.172,0.0911 -0.1483,0.126 -0.1178,0.1549 -0.0817,0.1767 -0.0418,0.19 v 0.1946 l 0.0418,0.1901 0.0817,0.1766 0.1178,0.155 0.1483,0.126 0.172,0.0911 0.1875,0.0521 0.1943,0.0105 z m -32.4500395,0 0.1808,-0.072 0.16108,-0.1092 0.13383,-0.1413 0.10034,-0.1668 0.06214,-0.1844 0.02104,-0.1935 -0.02104,-0.1934 -0.06214,-0.1845 -0.10034,-0.1667 -0.13383,-0.1413 -0.16108,-0.1092 -0.1808,-0.0721 -0.19204,-0.0314 -0.19433,0.0105 -0.18753,0.0521 -0.17193,0.0911 -0.14833,0.126 -0.11779,0.1549 -0.08171,0.1767 -0.04184,0.19 v 0.1946 l 0.04184,0.1901 0.08171,0.1766 0.11779,0.155 0.14833,0.126 0.17193,0.0911 0.18753,0.0521 0.19433,0.0105 z m 0,5 0.1808,-0.072 0.16108,-0.1092 0.13383,-0.1413 0.10034,-0.1668 0.06214,-0.1844 0.02104,-0.1935 -0.02104,-0.1934 -0.06214,-0.1845 -0.10034,-0.1667 -0.13383,-0.1413 -0.16108,-0.1092 -0.1808,-0.0721 -0.19204,-0.0314 -0.19433,0.0105 -0.18753,0.0521 -0.17193,0.0911 -0.14833,0.126 -0.11779,0.1549 -0.08171,0.1767 -0.04184,0.19 v 0.1946 l 0.04184,0.1901 0.08171,0.1766 0.11779,0.155 0.14833,0.126 0.17193,0.0911 0.18753,0.0521 0.19433,0.0105 z m 32.4500395,0 0.1808,-0.072 0.161,-0.1092 0.1339,-0.1413 0.1003,-0.1668 0.0622,-0.1844 0.021,-0.1935 -0.021,-0.1934 -0.0622,-0.1845 -0.1003,-0.1667 -0.1339,-0.1413 -0.161,-0.1092 -0.1808,-0.0721 -0.1921,-0.0314 -0.1943,0.0105 -0.1875,0.0521 -0.172,0.0911 -0.1483,0.126 -0.1178,0.1549 -0.0817,0.1767 -0.0418,0.19 v 0.1946 l 0.0418,0.1901 0.0817,0.1766 0.1178,0.155 0.1483,0.126 0.172,0.0911 0.1875,0.0521 0.1943,0.0105 z m -32.4500395,5 0.1808,-0.072 0.16108,-0.1092 0.13383,-0.1413 0.10034,-0.1668 0.06214,-0.1844 0.02104,-0.1935 -0.02104,-0.1934 -0.06214,-0.1845 -0.10034,-0.1667 -0.13383,-0.1413 -0.16108,-0.1092 -0.1808,-0.0721 -0.19204,-0.0314 -0.19433,0.0105 -0.18753,0.0521 -0.17193,0.0911 -0.14833,0.126 -0.11779,0.1549 -0.08171,0.1767 -0.04184,0.19 v 0.1946 l 0.04184,0.1901 0.08171,0.1766 0.11779,0.155 0.14833,0.126 0.17193,0.0911 0.18753,0.0521 0.19433,0.0105 z m 32.4500395,0 0.1808,-0.072 0.161,-0.1092 0.1339,-0.1413 0.1003,-0.1668 0.0622,-0.1844 0.021,-0.1935 -0.021,-0.1934 -0.0622,-0.1845 -0.1003,-0.1667 -0.1339,-0.1413 -0.161,-0.1092 -0.1808,-0.0721 -0.1921,-0.0314 -0.1943,0.0105 -0.1875,0.0521 -0.172,0.0911 -0.1483,0.126 -0.1178,0.1549 -0.0817,0.1767 -0.0418,0.19 v 0.1946 l 0.0418,0.1901 0.0817,0.1766 0.1178,0.155 0.1483,0.126 0.172,0.0911 0.1875,0.0521 0.1943,0.0105 z m -32.4500395,5 0.1808,-0.072 0.16108,-0.1092 0.13383,-0.1413 0.10034,-0.1668 0.06214,-0.1844 0.02104,-0.1935 -0.02104,-0.1934 -0.06214,-0.1845 -0.10034,-0.1667 -0.13383,-0.1413 -0.16108,-0.1092 -0.1808,-0.0721 -0.19204,-0.0314 -0.19433,0.0105 -0.18753,0.0521 -0.17193,0.0911 -0.14833,0.126 -0.11779,0.1549 -0.08171,0.1767 -0.04184,0.19 v 0.1946 l 0.04184,0.1901 0.08171,0.1766 0.11779,0.155 0.14833,0.126 0.17193,0.0911 0.18753,0.0521 0.19433,0.0105 z m 32.4500395,0 0.1808,-0.072 0.161,-0.1092 0.1339,-0.1413 0.1003,-0.1668 0.0622,-0.1844 0.021,-0.1935 -0.021,-0.1934 -0.0622,-0.1845 -0.1003,-0.1667 -0.1339,-0.1413 -0.161,-0.1092 -0.1808,-0.0721 -0.1921,-0.0314 -0.1943,0.0105 -0.1875,0.0521 -0.172,0.0911 -0.1483,0.126 -0.1178,0.1549 -0.0817,0.1767 -0.0418,0.19 v 0.1946 l 0.0418,0.1901 0.0817,0.1766 0.1178,0.155 0.1483,0.126 0.172,0.0911 0.1875,0.0521 0.1943,0.0105 z m -32.4500395,5 0.1808,-0.072 0.16108,-0.1092 0.13383,-0.1413 0.10034,-0.1668 0.06214,-0.1844 0.02104,-0.1935 -0.02104,-0.1934 -0.06214,-0.1845 -0.10034,-0.1667 -0.13383,-0.1413 -0.16108,-0.1092 -0.1808,-0.0721 -0.19204,-0.0314 -0.19433,0.0105 -0.18753,0.0521 -0.17193,0.0911 -0.14833,0.126 -0.11779,0.1549 -0.08171,0.1767 -0.04184,0.19 v 0.1946 l 0.04184,0.1901 0.08171,0.1766 0.11779,0.155 0.14833,0.126 0.17193,0.0911 0.18753,0.0521 0.19433,0.0105 z m 32.4500395,0 0.1808,-0.072 0.161,-0.1092 0.1339,-0.1413 0.1003,-0.1668 0.0622,-0.1844 0.021,-0.1935 -0.021,-0.1934 -0.0622,-0.1845 -0.1003,-0.1667 -0.1339,-0.1413 -0.161,-0.1092 -0.1808,-0.0721 -0.1921,-0.0314 -0.1943,0.0105 -0.1875,0.0521 -0.172,0.0911 -0.1483,0.126 -0.1178,0.1549 -0.0817,0.1767 -0.0418,0.19 v 0.1946 l 0.0418,0.1901 0.0817,0.1766 0.1178,0.155 0.1483,0.126 0.172,0.0911 0.1875,0.0521 0.1943,0.0105 z m -32.4500395,5 0.1808,-0.072 0.16108,-0.1092 0.13383,-0.1413 0.10034,-0.1668 0.06214,-0.1844 0.02104,-0.1935 -0.02104,-0.1934 -0.06214,-0.1845 -0.10034,-0.1667 -0.13383,-0.1413 -0.16108,-0.1092 -0.1808,-0.0721 -0.19204,-0.0314 -0.19433,0.0105 -0.18753,0.0521 -0.17193,0.0911 -0.14833,0.126 -0.11779,0.1549 -0.08171,0.1767 -0.04184,0.19 v 0.1946 l 0.04184,0.1901 0.08171,0.1766 0.11779,0.155 0.14833,0.126 0.17193,0.0911 0.18753,0.0521 0.19433,0.0105 z m 32.4500395,0 0.1808,-0.072 0.161,-0.1092 0.1339,-0.1413 0.1003,-0.1668 0.0622,-0.1844 0.021,-0.1935 -0.021,-0.1934 -0.0622,-0.1845 -0.1003,-0.1667 -0.1339,-0.1413 -0.161,-0.1092 -0.1808,-0.0721 -0.1921,-0.0314 -0.1943,0.0105 -0.1875,0.0521 -0.172,0.0911 -0.1483,0.126 -0.1178,0.1549 -0.0817,0.1767 -0.0418,0.19 v 0.1946 l 0.0418,0.1901 0.0817,0.1766 0.1178,0.155 0.1483,0.126 0.172,0.0911 0.1875,0.0521 0.1943,0.0105 z m -32.4500395,5 0.1808,-0.072 0.16108,-0.1092 0.13383,-0.1413 0.10034,-0.1668 0.06214,-0.1844 0.02104,-0.1935 -0.02104,-0.1934 -0.06214,-0.1845 -0.10034,-0.1667 -0.13383,-0.1413 -0.16108,-0.1092 -0.1808,-0.0721 -0.19204,-0.0314 -0.19433,0.0105 -0.18753,0.0521 -0.17193,0.0911 -0.14833,0.126 -0.11779,0.1549 -0.08171,0.1767 -0.04184,0.19 v 0.1946 l 0.04184,0.1901 0.08171,0.1766 0.11779,0.155 0.14833,0.126 0.17193,0.0911 0.18753,0.0521 0.19433,0.0105 z m 32.4500395,0 0.1808,-0.072 0.161,-0.1092 0.1339,-0.1413 0.1003,-0.1668 0.0622,-0.1844 0.021,-0.1935 -0.021,-0.1934 -0.0622,-0.1845 -0.1003,-0.1667 -0.1339,-0.1413 -0.161,-0.1092 -0.1808,-0.0721 -0.1921,-0.0314 -0.1943,0.0105 -0.1875,0.0521 -0.172,0.0911 -0.1483,0.126 -0.1178,0.1549 -0.0817,0.1767 -0.0418,0.19 v 0.1946 l 0.0418,0.1901 0.0817,0.1766 0.1178,0.155 0.1483,0.126 0.172,0.0911 0.1875,0.0521 0.1943,0.0105 z m 0,5 0.1808,-0.072 0.161,-0.1092 0.1339,-0.1413 0.1003,-0.1668 0.0622,-0.1844 0.021,-0.1935 -0.021,-0.1934 -0.0622,-0.1845 -0.1003,-0.1667 -0.1339,-0.1413 -0.161,-0.1092 -0.1808,-0.0721 -0.1921,-0.0314 -0.1943,0.0105 -0.1875,0.0521 -0.172,0.0911 -0.1483,0.126 -0.1178,0.1549 -0.0817,0.1767 -0.0418,0.19 v 0.1946 l 0.0418,0.1901 0.0817,0.1766 0.1178,0.155 0.1483,0.126 0.172,0.0911 0.1875,0.0521 0.1943,0.0105 z m -32.4500395,0 0.1808,-0.072 0.16108,-0.1092 0.13383,-0.1413 0.10034,-0.1668 0.06214,-0.1844 0.02104,-0.1935 -0.02104,-0.1934 -0.06214,-0.1845 -0.10034,-0.1667 -0.13383,-0.1413 -0.16108,-0.1092 -0.1808,-0.0721 -0.19204,-0.0314 -0.19433,0.0105 -0.18753,0.0521 -0.17193,0.0911 -0.14833,0.126 -0.11779,0.1549 -0.08171,0.1767 -0.04184,0.19 v 0.1946 l 0.04184,0.1901 0.08171,0.1766 0.11779,0.155 0.14833,0.126 0.17193,0.0911 0.18753,0.0521 0.19433,0.0105 z m 32.4500395,5 0.1808,-0.072 0.161,-0.1092 0.1339,-0.1413 0.1003,-0.1668 0.0622,-0.1844 0.021,-0.1935 -0.021,-0.1934 -0.0622,-0.1845 -0.1003,-0.1667 -0.1339,-0.1413 -0.161,-0.1092 -0.1808,-0.0721 -0.1921,-0.0314 -0.1943,0.0105 -0.1875,0.0521 -0.172,0.0911 -0.1483,0.126 -0.1178,0.1549 -0.0817,0.1767 -0.0418,0.19 v 0.1946 l 0.0418,0.1901 0.0817,0.1766 0.1178,0.155 0.1483,0.126 0.172,0.0911 0.1875,0.0521 0.1943,0.0105 z m -32.4500395,0 0.1808,-0.072 0.16108,-0.1092 0.13383,-0.1413 0.10034,-0.1668 0.06214,-0.1844 0.02104,-0.1935 -0.02104,-0.1934 -0.06214,-0.1845 -0.10034,-0.1667 -0.13383,-0.1413 -0.16108,-0.1092 -0.1808,-0.0721 -0.19204,-0.0314 -0.19433,0.0105 -0.18753,0.0521 -0.17193,0.0911 -0.14833,0.126 -0.11779,0.1549 -0.08171,0.1767 -0.04184,0.19 v 0.1946 l 0.04184,0.1901 0.08171,0.1766 0.11779,0.155 0.14833,0.126 0.17193,0.0911 0.18753,0.0521 0.19433,0.0105 z m 0,5 0.1808,-0.072 0.16108,-0.1092 0.13383,-0.1413 0.10034,-0.1668 0.06214,-0.1844 0.02104,-0.1935 -0.02104,-0.1934 -0.06214,-0.1845 -0.10034,-0.1667 -0.13383,-0.1413 -0.16108,-0.1092 -0.1808,-0.0721 -0.19204,-0.0314 -0.19433,0.0105 -0.18753,0.0521 -0.17193,0.0911 -0.14833,0.126 -0.11779,0.1549 -0.08171,0.1767 -0.04184,0.19 v 0.1946 l 0.04184,0.1901 0.08171,0.1766 0.11779,0.155 0.14833,0.126 0.17193,0.0911 0.18753,0.0521 0.19433,0.0105 z m 32.4500395,0 0.1808,-0.072 0.161,-0.1092 0.1339,-0.1413 0.1003,-0.1668 0.0622,-0.1844 0.021,-0.1935 -0.021,-0.1934 -0.0622,-0.1845 -0.1003,-0.1667 -0.1339,-0.1413 -0.161,-0.1092 -0.1808,-0.0721 -0.1921,-0.0314 -0.1943,0.0105 -0.1875,0.0521 -0.172,0.0911 -0.1483,0.126 -0.1178,0.1549 -0.0817,0.1767 -0.0418,0.19 v 0.1946 l 0.0418,0.1901 0.0817,0.1766 0.1178,0.155 0.1483,0.126 0.172,0.0911 0.1875,0.0521 0.1943,0.0105 z m -32.4500395,5 0.1808,-0.072 0.16108,-0.1092 0.13383,-0.1413 0.10034,-0.1668 0.06214,-0.1844 0.02104,-0.1935 -0.02104,-0.1934 -0.06214,-0.1845 -0.10034,-0.1667 -0.13383,-0.1413 -0.16108,-0.1092 -0.1808,-0.0721 -0.19204,-0.0314 -0.19433,0.0105 -0.18753,0.0521 -0.17193,0.0911 -0.14833,0.126 -0.11779,0.1549 -0.08171,0.1767 -0.04184,0.19 v 0.1946 l 0.04184,0.1901 0.08171,0.1766 0.11779,0.155 0.14833,0.126 0.17193,0.0911 0.18753,0.0521 0.19433,0.0105 z m 32.4500395,0 0.1808,-0.072 0.161,-0.1092 0.1339,-0.1413 0.1003,-0.1668 0.0622,-0.1844 0.021,-0.1935 -0.021,-0.1934 -0.0622,-0.1845 -0.1003,-0.1667 -0.1339,-0.1413 -0.161,-0.1092 -0.1808,-0.0721 -0.1921,-0.0314 -0.1943,0.0105 -0.1875,0.0521 -0.172,0.0911 -0.1483,0.126 -0.1178,0.1549 -0.0817,0.1767 -0.0418,0.19 v 0.1946 l 0.0418,0.1901 0.0817,0.1766 0.1178,0.155 0.1483,0.126 0.172,0.0911 0.1875,0.0521 0.1943,0.0105 z m -32.4500395,5 0.1808,-0.072 0.16108,-0.1092 0.13383,-0.1413 0.10034,-0.1668 0.06214,-0.1844 0.02104,-0.1935 -0.02104,-0.1934 -0.06214,-0.1845 -0.10034,-0.1667 -0.13383,-0.1413 -0.16108,-0.1092 -0.1808,-0.0721 -0.19204,-0.0314 -0.19433,0.0105 -0.18753,0.0521 -0.17193,0.0911 -0.14833,0.126 -0.11779,0.1549 -0.08171,0.1767 -0.04184,0.19 v 0.1946 l 0.04184,0.1901 0.08171,0.1766 0.11779,0.155 0.14833,0.126 0.17193,0.0911 0.18753,0.0521 0.19433,0.0105 z m 32.4500395,0 0.1808,-0.072 0.161,-0.1092 0.1339,-0.1413 0.1003,-0.1668 0.0622,-0.1844 0.021,-0.1935 -0.021,-0.1934 -0.0622,-0.1845 -0.1003,-0.1667 -0.1339,-0.1413 -0.161,-0.1092 -0.1808,-0.0721 -0.1921,-0.0314 -0.1943,0.0105 -0.1875,0.0521 -0.172,0.0911 -0.1483,0.126 -0.1178,0.1549 -0.0817,0.1767 -0.0418,0.19 v 0.1946 l 0.0418,0.1901 0.0817,0.1766 0.1178,0.155 0.1483,0.126 0.172,0.0911 0.1875,0.0521 0.1943,0.0105 z m 0,5 0.1808,-0.072 0.161,-0.1092 0.1339,-0.1413 0.1003,-0.1668 0.0622,-0.1844 0.021,-0.1935 -0.021,-0.1934 -0.0622,-0.1845 -0.1003,-0.1667 -0.1339,-0.1413 -0.161,-0.1092 -0.1808,-0.0721 -0.1921,-0.0314 -0.1943,0.0105 -0.1875,0.0521 -0.172,0.0911 -0.1483,0.126 -0.1178,0.1549 -0.0817,0.1767 -0.0418,0.19 v 0.1946 l 0.0418,0.1901 0.0817,0.1766 0.1178,0.155 0.1483,0.126 0.172,0.0911 0.1875,0.0521 0.1943,0.0105 z m -32.4500395,0 0.1808,-0.072 0.16108,-0.1092 0.13383,-0.1413 0.10034,-0.1668 0.06214,-0.1844 0.02104,-0.1935 -0.02104,-0.1934 -0.06214,-0.1845 -0.10034,-0.1667 -0.13383,-0.1413 -0.16108,-0.1092 -0.1808,-0.0721 -0.19204,-0.0314 -0.19433,0.0105 -0.18753,0.0521 -0.17193,0.0911 -0.14833,0.126 -0.11779,0.1549 -0.08171,0.1767 -0.04184,0.19 v 0.1946 l 0.04184,0.1901 0.08171,0.1766 0.11779,0.155 0.14833,0.126 0.17193,0.0911 0.18753,0.0521 0.19433,0.0105 z m 0,4.999999 0.1808,-0.072 0.16108,-0.1092 0.13383,-0.1413 0.10034,-0.1668 0.06214,-0.1844 0.02104,-0.1935 -0.02104,-0.1934 -0.06214,-0.1845 -0.10034,-0.1667 -0.13383,-0.1413 -0.16108,-0.1092 -0.1808,-0.0721 -0.19204,-0.0314 -0.19433,0.0105 -0.18753,0.0521 -0.17193,0.0911 -0.14833,0.126 -0.11779,0.1549 -0.08171,0.1767 -0.04184,0.19 v 0.1946 l 0.04184,0.1901 0.08171,0.1766 0.11779,0.155 0.14833,0.126 0.17193,0.0911 0.18753,0.0521 0.19433,0.0105 z m 32.4500395,0 0.1808,-0.072 0.161,-0.1092 0.1339,-0.1413 0.1003,-0.1668 0.0622,-0.1844 0.021,-0.1935 -0.021,-0.1934 -0.0622,-0.1845 -0.1003,-0.1667 -0.1339,-0.1413 -0.161,-0.1092 -0.1808,-0.0721 -0.1921,-0.0314 -0.1943,0.0105 -0.1875,0.0521 -0.172,0.0911 -0.1483,0.126 -0.1178,0.1549 -0.0817,0.1767 -0.0418,0.19 v 0.1946 l 0.0418,0.1901 0.0817,0.1766 0.1178,0.155 0.1483,0.126 0.172,0.0911 0.1875,0.0521 0.1943,0.0105 z m -32.4500395,5 0.1808,-0.072 0.16108,-0.1092 0.13383,-0.1413 0.10034,-0.1668 0.06214,-0.1844 0.02104,-0.1935 -0.02104,-0.1934 -0.06214,-0.1845 -0.10034,-0.1667 -0.13383,-0.1413 -0.16108,-0.1092 -0.1808,-0.0721 -0.19204,-0.0314 -0.19433,0.0105 -0.18753,0.0521 -0.17193,0.0911 -0.14833,0.126 -0.11779,0.1549 -0.08171,0.1767 -0.04184,0.19 v 0.1946 l 0.04184,0.1901 0.08171,0.1766 0.11779,0.155 0.14833,0.126 0.17193,0.0911 0.18753,0.0521 0.19433,0.0105 z m 32.4500395,0 0.1808,-0.072 0.161,-0.1092 0.1339,-0.1413 0.1003,-0.1668 0.0622,-0.1844 0.021,-0.1935 -0.021,-0.1934 -0.0622,-0.1845 -0.1003,-0.1667 -0.1339,-0.1413 -0.161,-0.1092 -0.1808,-0.0721 -0.1921,-0.0314 -0.1943,0.0105 -0.1875,0.0521 -0.172,0.0911 -0.1483,0.126 -0.1178,0.1549 -0.0817,0.1767 -0.0418,0.19 v 0.1946 l 0.0418,0.1901 0.0817,0.1766 0.1178,0.155 0.1483,0.126 0.172,0.0911 0.1875,0.0521 0.1943,0.0105 z M 1.8880005,133.08901 h -1.486 l 0.01069,-0.0241 0.01175,-0.0242 0.01282,-0.0244 0.01385,-0.0246 0.01493,-0.0247 0.01596,-0.0249 0.01703,-0.0251 0.01808,-0.0252 0.01915,-0.0254 0.02018,-0.0256 0.02126,-0.0257 0.02231,-0.0259 0.0235,-0.0263 0.02482,-0.0268 0.02617,-0.0273 0.0275,-0.0278 0.02884,-0.0283 0.03016,-0.0288 0.0315,-0.0293 0.03284,-0.0298 0.03416,-0.0304 0.03551,-0.0309 0.03683,-0.0314 0.1066,-0.0891 0.06465,-0.0547 0.06085,-0.0521 0.05706,-0.0496 0.05328,-0.047 0.04947,-0.0445 0.04568,-0.0419 0.0419,-0.0393 0.0381,-0.0368 0.03432,-0.0342 0.03052,-0.0317 0.02673,-0.0291 0.02449,-0.0278 0.02346,-0.0278 0.02243,-0.0278 0.0214,-0.0278 0.02038,-0.0278 0.01934,-0.0278 0.01833,-0.0278 0.01729,-0.0278 0.01626,-0.0278 0.01523,-0.0278 0.01421,-0.0278 0.01318,-0.0278 0.01215,-0.0278 0.01107,-0.0279 0.01003,-0.0279 0.00897,-0.0279 0.00792,-0.028 0.00687,-0.028 0.0058,-0.028 0.00474,-0.028 0.00371,-0.0281 0.00262,-0.0281 0.00159,-0.0281 5.3e-4,-0.0281 -0.00161,-0.0625 -0.00484,-0.06 -0.00804,-0.0576 -0.01129,-0.0552 -0.0145,-0.0527 -0.01771,-0.0503 -0.02095,-0.0479 -0.02417,-0.0454 -0.02739,-0.043 -0.03061,-0.0406 -0.03383,-0.0382 -0.03707,-0.0357 -0.03988,-0.0331 -0.04267,-0.0302 -0.04544,-0.0273 -0.04821,-0.0244 -0.05101,-0.0216 -0.05378,-0.0187 -0.05656,-0.0158 -0.05933,-0.0129 -0.06211,-0.0101 -0.06489,-0.007 -0.06767,-0.004 -0.07043,-0.001 -0.06435,0.001 -0.06238,0.004 -0.06041,0.007 -0.05842,0.01 -0.05646,0.0127 -0.05449,0.0155 -0.0525,0.0183 -0.05056,0.0211 -0.04857,0.024 -0.0466,0.0268 -0.04461,0.0296 -0.04265,0.0324 -0.04022,0.0348 -0.03728,0.0368 -0.03438,0.0387 -0.03146,0.0406 -0.02854,0.0426 -0.02563,0.0445 -0.02271,0.0465 -0.01979,0.0484 -0.01687,0.0504 -0.01396,0.0523 -0.01104,0.0542 -0.00813,0.0562 0.37401,0.035 0.00519,-0.0375 0.00691,-0.036 0.00864,-0.0346 0.01036,-0.0332 0.01208,-0.0318 0.01381,-0.0304 0.01553,-0.029 0.01725,-0.0275 0.01898,-0.0261 0.02069,-0.0247 0.02241,-0.0233 0.02414,-0.0219 0.02558,-0.0203 0.0267,-0.0185 0.02785,-0.0168 0.02899,-0.015 0.03012,-0.0132 0.03127,-0.0115 0.03239,-0.01 0.03355,-0.008 0.03467,-0.006 0.03583,-0.004 0.03696,-0.003 0.0381,-8.8e-4 0.03991,9.2e-4 0.03844,0.003 0.03696,0.005 0.03546,0.006 0.03398,0.008 0.03249,0.0102 0.031,0.012 0.02953,0.0139 0.02803,0.0157 0.02655,0.0175 0.02507,0.0194 0.02357,0.0212 0.02189,0.0229 0.01997,0.0244 0.01808,0.0259 0.01618,0.0274 0.01426,0.0289 0.01238,0.0304 0.01046,0.0319 0.00856,0.0334 0.00666,0.0349 0.00476,0.0364 0.00285,0.0379 9.5e-4,0.0394 -5.5e-4,0.0292 -0.00166,0.0288 -0.00278,0.0282 -0.00389,0.0277 -0.00501,0.0273 -0.0061,0.0267 -0.00723,0.0263 -0.00834,0.0258 -0.00944,0.0252 -0.01056,0.0247 -0.01166,0.0243 -0.01278,0.0238 -0.01368,0.0232 -0.01434,0.0231 -0.01504,0.0229 -0.01572,0.0228 -0.01639,0.0226 -0.01707,0.0224 -0.01776,0.0223 -0.01844,0.0221 -0.01912,0.0219 -0.0198,0.0218 -0.02048,0.0216 -0.02116,0.0214 -0.02172,0.0212 -0.02217,0.0212 -0.02261,0.0212 -0.02306,0.0212 -0.0235,0.0212 -0.02394,0.0212 -0.02438,0.0213 -0.02484,0.0213 -0.02527,0.0213 -0.02573,0.0213 -0.02617,0.0213 -0.05346,0.0428 -0.0269,0.0218 -0.02694,0.0221 -0.02697,0.0224 -0.02703,0.0227 -0.02705,0.023 -0.02711,0.0233 -0.02715,0.0236 -0.02719,0.0239 -0.02722,0.0242 -0.02727,0.0245 -0.02731,0.0248 -0.02707,0.0251 -0.02689,0.0256 -0.02667,0.0261 -0.02649,0.0266 -0.02629,0.0271 -0.02609,0.0276 -0.02591,0.0281 -0.02571,0.0286 -0.02552,0.0291 -0.02531,0.0296 -0.02513,0.0301 -0.02492,0.0306 -0.02437,0.0311 -0.02373,0.0319 -0.0231,0.0326 -0.02247,0.0334 -0.02185,0.0342 -0.02124,0.035 -0.0206,0.0358 -0.01998,0.0366 -0.01936,0.0374 -0.01872,0.0382 -0.0181,0.039 L 5e-7,133.142 v 0.258 h 1.888 z m 1.97267,-1.612 -0.009,-0.38701 -0.00599,-0.22699 0.06599,0.22499 0.11101,0.34801 0.72799,1.96399 h 0.265 l 0.71801,-1.96399 0.01297,-0.0356 0.01324,-0.0378 0.01353,-0.04 0.01381,-0.0422 0.01409,-0.0444 0.01436,-0.0466 0.01463,-0.0489 0.01492,-0.0511 0.0152,-0.0533 0.01547,-0.0555 0.01575,-0.0577 0.01602,-0.0599 -0.00287,0.0493 -0.00262,0.0497 -0.00238,0.05 -0.00212,0.0503 -0.00188,0.0507 -0.00163,0.051 -0.00138,0.0513 -0.00111,0.0517 -8.8e-4,0.052 -6.3e-4,0.0523 -3.7e-4,0.0527 -1.2e-4,0.053 V 133.4 h 0.349 v -2.87999 h -0.498 l -0.72301,1.99899 -0.00306,0.008 -0.00351,0.01 -0.00399,0.0115 -0.00444,0.0132 -0.0049,0.0149 -0.00535,0.0166 -0.00581,0.0183 -0.00628,0.0201 -0.00673,0.0218 -0.00718,0.0235 -0.00765,0.0252 -0.0081,0.027 -0.00809,0.0271 -0.00763,0.0259 -0.00715,0.0247 -0.00669,0.0236 -0.00621,0.0224 -0.00573,0.0213 -0.00525,0.0201 -0.00481,0.0189 -0.00432,0.0178 -0.00384,0.0166 -0.00337,0.0154 -0.0029,0.0143 -0.00217,-0.0107 -0.0025,-0.0118 -0.00284,-0.0128 -0.00316,-0.0139 -0.00351,-0.015 -0.00383,-0.016 -0.00416,-0.0171 -0.00451,-0.0182 -0.00483,-0.0193 -0.00516,-0.0203 -0.00551,-0.0214 -0.00583,-0.0225 -0.00602,-0.023 -0.00609,-0.0228 -0.00614,-0.0225 -0.00619,-0.0222 -0.00624,-0.022 -0.00632,-0.0217 -0.00636,-0.0214 -0.00641,-0.0212 -0.00647,-0.0209 -0.00653,-0.0207 -0.00659,-0.0204 -0.00664,-0.0201 -0.73599,-1.99899 h -0.51 V 133.4 h 0.34599 z"
     id="path5292"
     inkscape:connector-curvature="0"
     style="fill:#000000;stroke:#000000;stroke-width:0" />
</svg>
