solid OpenSCAD_Model
  facet normal 0.743145 0.66913 0
    outer loop
      vertex 3.23607 24.8511 45
      vertex 2.67652 25.4726 0
      vertex 2.67652 25.4726 45
    endloop
  endfacet
  facet normal 0.743145 0.66913 0
    outer loop
      vertex 2.67652 25.4726 0
      vertex 3.23607 24.8511 45
      vertex 3.23607 24.8511 0
    endloop
  endfacet
  facet normal 0.866026 0.499999 0
    outer loop
      vertex 3.65418 24.1269 45
      vertex 3.23607 24.8511 0
      vertex 3.23607 24.8511 45
    endloop
  endfacet
  facet normal 0.866026 0.499999 0
    outer loop
      vertex 3.23607 24.8511 0
      vertex 3.65418 24.1269 45
      vertex 3.65418 24.1269 0
    endloop
  endfacet
  facet normal -0.406739 0.913545 0
    outer loop
      vertex -1.23607 26.3042 0
      vertex -2 25.9641 45
      vertex -1.23607 26.3042 45
    endloop
  endfacet
  facet normal -0.406739 0.913545 0
    outer loop
      vertex -2 25.9641 45
      vertex -1.23607 26.3042 0
      vertex -2 25.9641 0
    endloop
  endfacet
  facet normal -0.994522 0.104529 0
    outer loop
      vertex -4 22.5 0
      vertex -3.91259 23.3316 45
      vertex -3.91259 23.3316 0
    endloop
  endfacet
  facet normal -0.994522 0.104529 0
    outer loop
      vertex -3.91259 23.3316 45
      vertex -4 22.5 0
      vertex -4 22.5 45
    endloop
  endfacet
  facet normal 0.913812 0.406138 0
    outer loop
      vertex 13.6542 1.62695 45
      vertex 3.65418 24.1269 0
      vertex 3.65418 24.1269 45
    endloop
  endfacet
  facet normal 0.913812 0.406138 0
    outer loop
      vertex 3.65418 24.1269 0
      vertex 13.6542 1.62695 45
      vertex 13.6542 1.62695 0
    endloop
  endfacet
  facet normal 0.994522 -0.104529 0
    outer loop
      vertex 13.9126 -0.831646 45
      vertex 14 0 0
      vertex 14 0 45
    endloop
  endfacet
  facet normal 0.994522 -0.104529 0
    outer loop
      vertex 14 0 0
      vertex 13.9126 -0.831646 45
      vertex 13.9126 -0.831646 0
    endloop
  endfacet
  facet normal 0.951057 0.309017 0
    outer loop
      vertex 13.9126 0.831646 45
      vertex 13.6542 1.62695 0
      vertex 13.6542 1.62695 45
    endloop
  endfacet
  facet normal 0.951057 0.309017 0
    outer loop
      vertex 13.6542 1.62695 0
      vertex 13.9126 0.831646 45
      vertex 13.9126 0.831646 0
    endloop
  endfacet
  facet normal 0 0 1
    outer loop
      vertex 13 0 45
      vertex 14 0 45
      vertex 13.9126 0.831646 45
    endloop
  endfacet
  facet normal 0 0 1
    outer loop
      vertex 12.9344 0.623734 45
      vertex 13.9126 0.831646 45
      vertex 13.6542 1.62695 45
    endloop
  endfacet
  facet normal 0 0 1
    outer loop
      vertex 14 0 45
      vertex 13 0 45
      vertex 13.9126 -0.831646 45
    endloop
  endfacet
  facet normal -0 0 1
    outer loop
      vertex 12.9344 -0.623734 45
      vertex 13.9126 -0.831646 45
      vertex 13 0 45
    endloop
  endfacet
  facet normal 0 0 1
    outer loop
      vertex 13.9126 0.831646 45
      vertex 12.9344 0.623734 45
      vertex 13 0 45
    endloop
  endfacet
  facet normal 0 0 1
    outer loop
      vertex 13.6542 1.62695 45
      vertex 12.7406 1.22021 45
      vertex 12.9344 0.623734 45
    endloop
  endfacet
  facet normal 0 0 1
    outer loop
      vertex 3.65418 24.1269 45
      vertex 12.7406 1.22021 45
      vertex 13.6542 1.62695 45
    endloop
  endfacet
  facet normal 0 0 1
    outer loop
      vertex 2.74064 23.7202 45
      vertex 3.65418 24.1269 45
      vertex 3.23607 24.8511 45
    endloop
  endfacet
  facet normal 0 0 1
    outer loop
      vertex 3.65418 24.1269 45
      vertex 2.74064 23.7202 45
      vertex 12.7406 1.22021 45
    endloop
  endfacet
  facet normal 0 0 1
    outer loop
      vertex 2.42705 24.2634 45
      vertex 3.23607 24.8511 45
      vertex 2.67652 25.4726 45
    endloop
  endfacet
  facet normal 0 0 1
    outer loop
      vertex 3.23607 24.8511 45
      vertex 2.42705 24.2634 45
      vertex 2.74064 23.7202 45
    endloop
  endfacet
  facet normal 0 0 1
    outer loop
      vertex 2.67652 25.4726 45
      vertex 2.00739 24.7294 45
      vertex 2.42705 24.2634 45
    endloop
  endfacet
  facet normal 0 0 1
    outer loop
      vertex 2 25.9641 45
      vertex 2.00739 24.7294 45
      vertex 2.67652 25.4726 45
    endloop
  endfacet
  facet normal 0 0 1
    outer loop
      vertex 2 25.9641 45
      vertex 1.5 25.0981 45
      vertex 2.00739 24.7294 45
    endloop
  endfacet
  facet normal 0 0 1
    outer loop
      vertex 1.23607 26.3042 45
      vertex 1.5 25.0981 45
      vertex 2 25.9641 45
    endloop
  endfacet
  facet normal 0 0 1
    outer loop
      vertex 1.23607 26.3042 45
      vertex 0.927051 25.3532 45
      vertex 1.5 25.0981 45
    endloop
  endfacet
  facet normal 0 0 1
    outer loop
      vertex 0.418114 26.4781 45
      vertex 0.927051 25.3532 45
      vertex 1.23607 26.3042 45
    endloop
  endfacet
  facet normal 0 0 1
    outer loop
      vertex 0.418114 26.4781 45
      vertex 0.313585 25.4836 45
      vertex 0.927051 25.3532 45
    endloop
  endfacet
  facet normal 0 0 1
    outer loop
      vertex 0.418114 26.4781 45
      vertex -0.313585 25.4836 45
      vertex 0.313585 25.4836 45
    endloop
  endfacet
  facet normal -0 0 1
    outer loop
      vertex -0.418114 26.4781 45
      vertex -0.313585 25.4836 45
      vertex 0.418114 26.4781 45
    endloop
  endfacet
  facet normal 0 0 1
    outer loop
      vertex -0.418114 26.4781 45
      vertex -0.927051 25.3532 45
      vertex -0.313585 25.4836 45
    endloop
  endfacet
  facet normal -0 0 1
    outer loop
      vertex -1.23607 26.3042 45
      vertex -0.927051 25.3532 45
      vertex -0.418114 26.4781 45
    endloop
  endfacet
  facet normal 0 0 1
    outer loop
      vertex -1.23607 26.3042 45
      vertex -1.5 25.0981 45
      vertex -0.927051 25.3532 45
    endloop
  endfacet
  facet normal -0 0 1
    outer loop
      vertex -2 25.9641 45
      vertex -1.5 25.0981 45
      vertex -1.23607 26.3042 45
    endloop
  endfacet
  facet normal 0 0 1
    outer loop
      vertex -2 25.9641 45
      vertex -2.00739 24.7294 45
      vertex -1.5 25.0981 45
    endloop
  endfacet
  facet normal -0 0 1
    outer loop
      vertex -2.67652 25.4726 45
      vertex -2.00739 24.7294 45
      vertex -2 25.9641 45
    endloop
  endfacet
  facet normal 0 0 1
    outer loop
      vertex -2.00739 24.7294 45
      vertex -2.67652 25.4726 45
      vertex -2.42705 24.2634 45
    endloop
  endfacet
  facet normal -0 0 1
    outer loop
      vertex -3.23607 24.8511 45
      vertex -2.42705 24.2634 45
      vertex -2.67652 25.4726 45
    endloop
  endfacet
  facet normal 0 0 1
    outer loop
      vertex -2.42705 24.2634 45
      vertex -3.23607 24.8511 45
      vertex -2.74064 23.7202 45
    endloop
  endfacet
  facet normal -0 0 1
    outer loop
      vertex -3.91259 23.3316 45
      vertex -2.93444 23.1237 45
      vertex -3.65418 24.1269 45
    endloop
  endfacet
  facet normal 0 0 1
    outer loop
      vertex -2.74064 23.7202 45
      vertex -3.65418 24.1269 45
      vertex -2.93444 23.1237 45
    endloop
  endfacet
  facet normal -0 0 1
    outer loop
      vertex -3.65418 24.1269 45
      vertex -2.74064 23.7202 45
      vertex -3.23607 24.8511 45
    endloop
  endfacet
  facet normal 0 0 1
    outer loop
      vertex 13.9126 -0.831646 45
      vertex 12.9344 -0.623734 45
      vertex 13.6542 -1.62695 45
    endloop
  endfacet
  facet normal -0 0 1
    outer loop
      vertex 12.7406 -1.22021 45
      vertex 13.6542 -1.62695 45
      vertex 12.9344 -0.623734 45
    endloop
  endfacet
  facet normal 0 0 1
    outer loop
      vertex 12.7406 -1.22021 45
      vertex 3.65418 -24.1269 45
      vertex 13.6542 -1.62695 45
    endloop
  endfacet
  facet normal -0 0 1
    outer loop
      vertex 2.74064 -23.7202 45
      vertex 3.65418 -24.1269 45
      vertex 12.7406 -1.22021 45
    endloop
  endfacet
  facet normal 0 0 1
    outer loop
      vertex 3.65418 -24.1269 45
      vertex 2.74064 -23.7202 45
      vertex 3.23607 -24.8511 45
    endloop
  endfacet
  facet normal -0 0 1
    outer loop
      vertex 2.42705 -24.2634 45
      vertex 3.23607 -24.8511 45
      vertex 2.74064 -23.7202 45
    endloop
  endfacet
  facet normal 0 0 1
    outer loop
      vertex 3.23607 -24.8511 45
      vertex 2.42705 -24.2634 45
      vertex 2.67652 -25.4726 45
    endloop
  endfacet
  facet normal -0 0 1
    outer loop
      vertex 2.00739 -24.7294 45
      vertex 2.67652 -25.4726 45
      vertex 2.42705 -24.2634 45
    endloop
  endfacet
  facet normal 0 0 1
    outer loop
      vertex 2.00739 -24.7294 45
      vertex 2 -25.9641 45
      vertex 2.67652 -25.4726 45
    endloop
  endfacet
  facet normal -0 0 1
    outer loop
      vertex 1.5 -25.0981 45
      vertex 2 -25.9641 45
      vertex 2.00739 -24.7294 45
    endloop
  endfacet
  facet normal 0 0 1
    outer loop
      vertex 1.5 -25.0981 45
      vertex 1.23607 -26.3042 45
      vertex 2 -25.9641 45
    endloop
  endfacet
  facet normal -0 0 1
    outer loop
      vertex 0.927051 -25.3532 45
      vertex 1.23607 -26.3042 45
      vertex 1.5 -25.0981 45
    endloop
  endfacet
  facet normal 0 0 1
    outer loop
      vertex 0.927051 -25.3532 45
      vertex 0.418114 -26.4781 45
      vertex 1.23607 -26.3042 45
    endloop
  endfacet
  facet normal -0 0 1
    outer loop
      vertex 0.313585 -25.4836 45
      vertex 0.418114 -26.4781 45
      vertex 0.927051 -25.3532 45
    endloop
  endfacet
  facet normal -0 0 1
    outer loop
      vertex -0.313585 -25.4836 45
      vertex 0.418114 -26.4781 45
      vertex 0.313585 -25.4836 45
    endloop
  endfacet
  facet normal 0 0 1
    outer loop
      vertex -0.313585 -25.4836 45
      vertex -0.418114 -26.4781 45
      vertex 0.418114 -26.4781 45
    endloop
  endfacet
  facet normal 0 0 1
    outer loop
      vertex -0.927051 -25.3532 45
      vertex -0.418114 -26.4781 45
      vertex -0.313585 -25.4836 45
    endloop
  endfacet
  facet normal 0 0 1
    outer loop
      vertex -0.927051 -25.3532 45
      vertex -1.23607 -26.3042 45
      vertex -0.418114 -26.4781 45
    endloop
  endfacet
  facet normal 0 0 1
    outer loop
      vertex -1.5 -25.0981 45
      vertex -1.23607 -26.3042 45
      vertex -0.927051 -25.3532 45
    endloop
  endfacet
  facet normal 0 0 1
    outer loop
      vertex -1.5 -25.0981 45
      vertex -2 -25.9641 45
      vertex -1.23607 -26.3042 45
    endloop
  endfacet
  facet normal 0 0 1
    outer loop
      vertex -2.00739 -24.7294 45
      vertex -2 -25.9641 45
      vertex -1.5 -25.0981 45
    endloop
  endfacet
  facet normal 0 0 1
    outer loop
      vertex -2.67652 -25.4726 45
      vertex -2.00739 -24.7294 45
      vertex -2.42705 -24.2634 45
    endloop
  endfacet
  facet normal 0 0 1
    outer loop
      vertex -2.00739 -24.7294 45
      vertex -2.67652 -25.4726 45
      vertex -2 -25.9641 45
    endloop
  endfacet
  facet normal 0 0 1
    outer loop
      vertex -3.23607 -24.8511 45
      vertex -2.42705 -24.2634 45
      vertex -2.74064 -23.7202 45
    endloop
  endfacet
  facet normal 0 0 1
    outer loop
      vertex -3.65418 -24.1269 45
      vertex -2.74064 -23.7202 45
      vertex -2.93444 -23.1237 45
    endloop
  endfacet
  facet normal 0 0 1
    outer loop
      vertex -2.42705 -24.2634 45
      vertex -3.23607 -24.8511 45
      vertex -2.67652 -25.4726 45
    endloop
  endfacet
  facet normal 0 0 1
    outer loop
      vertex -3.91259 -23.3316 45
      vertex -2.93444 -23.1237 45
      vertex -3 -22.5 45
    endloop
  endfacet
  facet normal 0 0 1
    outer loop
      vertex -3 22.5 45
      vertex -4 22.5 45
      vertex -3 -22.5 45
    endloop
  endfacet
  facet normal 0 0 1
    outer loop
      vertex -2.93444 23.1237 45
      vertex -3.91259 23.3316 45
      vertex -3 22.5 45
    endloop
  endfacet
  facet normal 0 0 1
    outer loop
      vertex -4 -22.5 45
      vertex -3 -22.5 45
      vertex -4 22.5 45
    endloop
  endfacet
  facet normal 0 0 1
    outer loop
      vertex -3 22.5 45
      vertex -3.91259 23.3316 45
      vertex -4 22.5 45
    endloop
  endfacet
  facet normal 0 -0 1
    outer loop
      vertex -3.91259 -23.3316 45
      vertex -3 -22.5 45
      vertex -4 -22.5 45
    endloop
  endfacet
  facet normal 0 0 1
    outer loop
      vertex -2.74064 -23.7202 45
      vertex -3.65418 -24.1269 45
      vertex -3.23607 -24.8511 45
    endloop
  endfacet
  facet normal 0 0 1
    outer loop
      vertex -2.93444 -23.1237 45
      vertex -3.91259 -23.3316 45
      vertex -3.65418 -24.1269 45
    endloop
  endfacet
  facet normal 0.913812 -0.406138 0
    outer loop
      vertex 3.65418 -24.1269 45
      vertex 13.6542 -1.62695 0
      vertex 13.6542 -1.62695 45
    endloop
  endfacet
  facet normal 0.913812 -0.406138 0
    outer loop
      vertex 13.6542 -1.62695 0
      vertex 3.65418 -24.1269 45
      vertex 3.65418 -24.1269 0
    endloop
  endfacet
  facet normal 0.866026 -0.499999 0
    outer loop
      vertex 3.23607 -24.8511 45
      vertex 3.65418 -24.1269 0
      vertex 3.65418 -24.1269 45
    endloop
  endfacet
  facet normal 0.866026 -0.499999 0
    outer loop
      vertex 3.65418 -24.1269 0
      vertex 3.23607 -24.8511 45
      vertex 3.23607 -24.8511 0
    endloop
  endfacet
  facet normal 0.743145 -0.66913 0
    outer loop
      vertex 2.67652 -25.4726 45
      vertex 3.23607 -24.8511 0
      vertex 3.23607 -24.8511 45
    endloop
  endfacet
  facet normal 0.743145 -0.66913 0
    outer loop
      vertex 3.23607 -24.8511 0
      vertex 2.67652 -25.4726 45
      vertex 2.67652 -25.4726 0
    endloop
  endfacet
  facet normal 0.406738 0.913545 -0
    outer loop
      vertex 2 25.9641 0
      vertex 1.23607 26.3042 45
      vertex 2 25.9641 45
    endloop
  endfacet
  facet normal 0.406738 0.913545 0
    outer loop
      vertex 1.23607 26.3042 45
      vertex 2 25.9641 0
      vertex 1.23607 26.3042 0
    endloop
  endfacet
  facet normal 0.207913 0.978147 -0
    outer loop
      vertex 1.23607 26.3042 0
      vertex 0.418114 26.4781 45
      vertex 1.23607 26.3042 45
    endloop
  endfacet
  facet normal 0.207913 0.978147 0
    outer loop
      vertex 0.418114 26.4781 45
      vertex 1.23607 26.3042 0
      vertex 0.418114 26.4781 0
    endloop
  endfacet
  facet normal -0.743145 0.66913 0
    outer loop
      vertex -3.23607 24.8511 0
      vertex -2.67652 25.4726 45
      vertex -2.67652 25.4726 0
    endloop
  endfacet
  facet normal -0.743145 0.66913 0
    outer loop
      vertex -2.67652 25.4726 45
      vertex -3.23607 24.8511 0
      vertex -3.23607 24.8511 45
    endloop
  endfacet
  facet normal -0.951056 0.309017 0
    outer loop
      vertex -3.91259 23.3316 0
      vertex -3.65418 24.1269 45
      vertex -3.65418 24.1269 0
    endloop
  endfacet
  facet normal -0.951056 0.309017 0
    outer loop
      vertex -3.65418 24.1269 45
      vertex -3.91259 23.3316 0
      vertex -3.91259 23.3316 45
    endloop
  endfacet
  facet normal -0.866026 0.499999 0
    outer loop
      vertex -3.65418 24.1269 0
      vertex -3.23607 24.8511 45
      vertex -3.23607 24.8511 0
    endloop
  endfacet
  facet normal -0.866026 0.499999 0
    outer loop
      vertex -3.23607 24.8511 45
      vertex -3.65418 24.1269 0
      vertex -3.65418 24.1269 45
    endloop
  endfacet
  facet normal -1 0 0
    outer loop
      vertex -4 -22.5 0
      vertex -4 22.5 45
      vertex -4 22.5 0
    endloop
  endfacet
  facet normal -1 -0 0
    outer loop
      vertex -4 22.5 45
      vertex -4 -22.5 0
      vertex -4 -22.5 45
    endloop
  endfacet
  facet normal -0.994522 -0.104529 0
    outer loop
      vertex -3.91259 -23.3316 0
      vertex -4 -22.5 45
      vertex -4 -22.5 0
    endloop
  endfacet
  facet normal -0.994522 -0.104529 0
    outer loop
      vertex -4 -22.5 45
      vertex -3.91259 -23.3316 0
      vertex -3.91259 -23.3316 45
    endloop
  endfacet
  facet normal 0 0 -1
    outer loop
      vertex 13 0 0
      vertex 14 0 0
      vertex 13.9126 -0.831646 0
    endloop
  endfacet
  facet normal 0 0 -1
    outer loop
      vertex 12.9344 -0.623734 0
      vertex 13.9126 -0.831646 0
      vertex 13.6542 -1.62695 0
    endloop
  endfacet
  facet normal 0 0 -1
    outer loop
      vertex 14 0 0
      vertex 13 0 0
      vertex 13.9126 0.831646 0
    endloop
  endfacet
  facet normal 0 0 -1
    outer loop
      vertex 12.9344 0.623734 0
      vertex 13.9126 0.831646 0
      vertex 13 0 0
    endloop
  endfacet
  facet normal 0 0 -1
    outer loop
      vertex 13.9126 -0.831646 0
      vertex 12.9344 -0.623734 0
      vertex 13 0 0
    endloop
  endfacet
  facet normal 0 0 -1
    outer loop
      vertex 13.6542 -1.62695 0
      vertex 12.7406 -1.22021 0
      vertex 12.9344 -0.623734 0
    endloop
  endfacet
  facet normal 0 0 -1
    outer loop
      vertex 3.65418 -24.1269 0
      vertex 12.7406 -1.22021 0
      vertex 13.6542 -1.62695 0
    endloop
  endfacet
  facet normal 0 0 -1
    outer loop
      vertex 2.74064 -23.7202 0
      vertex 3.65418 -24.1269 0
      vertex 3.23607 -24.8511 0
    endloop
  endfacet
  facet normal 0 0 -1
    outer loop
      vertex 3.65418 -24.1269 0
      vertex 2.74064 -23.7202 0
      vertex 12.7406 -1.22021 0
    endloop
  endfacet
  facet normal 0 0 -1
    outer loop
      vertex 2.42705 -24.2634 0
      vertex 3.23607 -24.8511 0
      vertex 2.67652 -25.4726 0
    endloop
  endfacet
  facet normal 0 0 -1
    outer loop
      vertex 3.23607 -24.8511 0
      vertex 2.42705 -24.2634 0
      vertex 2.74064 -23.7202 0
    endloop
  endfacet
  facet normal 0 0 -1
    outer loop
      vertex 2.67652 -25.4726 0
      vertex 2.00739 -24.7294 0
      vertex 2.42705 -24.2634 0
    endloop
  endfacet
  facet normal 0 0 -1
    outer loop
      vertex 2 -25.9641 0
      vertex 2.00739 -24.7294 0
      vertex 2.67652 -25.4726 0
    endloop
  endfacet
  facet normal 0 0 -1
    outer loop
      vertex 2 -25.9641 0
      vertex 1.5 -25.0981 0
      vertex 2.00739 -24.7294 0
    endloop
  endfacet
  facet normal 0 0 -1
    outer loop
      vertex 1.23607 -26.3042 0
      vertex 1.5 -25.0981 0
      vertex 2 -25.9641 0
    endloop
  endfacet
  facet normal 0 0 -1
    outer loop
      vertex 1.23607 -26.3042 0
      vertex 0.927051 -25.3532 0
      vertex 1.5 -25.0981 0
    endloop
  endfacet
  facet normal 0 0 -1
    outer loop
      vertex 0.418114 -26.4781 0
      vertex 0.927051 -25.3532 0
      vertex 1.23607 -26.3042 0
    endloop
  endfacet
  facet normal 0 0 -1
    outer loop
      vertex 0.418114 -26.4781 0
      vertex 0.313585 -25.4836 0
      vertex 0.927051 -25.3532 0
    endloop
  endfacet
  facet normal 0 0 -1
    outer loop
      vertex 0.418114 -26.4781 0
      vertex -0.313585 -25.4836 0
      vertex 0.313585 -25.4836 0
    endloop
  endfacet
  facet normal 0 0 -1
    outer loop
      vertex -0.418114 -26.4781 0
      vertex -0.313585 -25.4836 0
      vertex 0.418114 -26.4781 0
    endloop
  endfacet
  facet normal 0 0 -1
    outer loop
      vertex -0.418114 -26.4781 0
      vertex -0.927051 -25.3532 0
      vertex -0.313585 -25.4836 0
    endloop
  endfacet
  facet normal 0 0 -1
    outer loop
      vertex -1.23607 -26.3042 0
      vertex -0.927051 -25.3532 0
      vertex -0.418114 -26.4781 0
    endloop
  endfacet
  facet normal 0 0 -1
    outer loop
      vertex -1.23607 -26.3042 0
      vertex -1.5 -25.0981 0
      vertex -0.927051 -25.3532 0
    endloop
  endfacet
  facet normal 0 0 -1
    outer loop
      vertex -2 -25.9641 0
      vertex -1.5 -25.0981 0
      vertex -1.23607 -26.3042 0
    endloop
  endfacet
  facet normal 0 0 -1
    outer loop
      vertex -2 -25.9641 0
      vertex -2.00739 -24.7294 0
      vertex -1.5 -25.0981 0
    endloop
  endfacet
  facet normal 0 0 -1
    outer loop
      vertex -2.67652 -25.4726 0
      vertex -2.00739 -24.7294 0
      vertex -2 -25.9641 0
    endloop
  endfacet
  facet normal -0 0 -1
    outer loop
      vertex -2.00739 -24.7294 0
      vertex -2.67652 -25.4726 0
      vertex -2.42705 -24.2634 0
    endloop
  endfacet
  facet normal 0 0 -1
    outer loop
      vertex -3.23607 -24.8511 0
      vertex -2.42705 -24.2634 0
      vertex -2.67652 -25.4726 0
    endloop
  endfacet
  facet normal -0 0 -1
    outer loop
      vertex -2.42705 -24.2634 0
      vertex -3.23607 -24.8511 0
      vertex -2.74064 -23.7202 0
    endloop
  endfacet
  facet normal 0 0 -1
    outer loop
      vertex -3.91259 -23.3316 0
      vertex -2.93444 -23.1237 0
      vertex -3.65418 -24.1269 0
    endloop
  endfacet
  facet normal -0 0 -1
    outer loop
      vertex -2.74064 -23.7202 0
      vertex -3.65418 -24.1269 0
      vertex -2.93444 -23.1237 0
    endloop
  endfacet
  facet normal 0 0 -1
    outer loop
      vertex -3.65418 -24.1269 0
      vertex -2.74064 -23.7202 0
      vertex -3.23607 -24.8511 0
    endloop
  endfacet
  facet normal -0 0 -1
    outer loop
      vertex 13.9126 0.831646 0
      vertex 12.9344 0.623734 0
      vertex 13.6542 1.62695 0
    endloop
  endfacet
  facet normal 0 0 -1
    outer loop
      vertex 12.7406 1.22021 0
      vertex 13.6542 1.62695 0
      vertex 12.9344 0.623734 0
    endloop
  endfacet
  facet normal 0 0 -1
    outer loop
      vertex 12.7406 1.22021 0
      vertex 3.65418 24.1269 0
      vertex 13.6542 1.62695 0
    endloop
  endfacet
  facet normal 0 0 -1
    outer loop
      vertex 2.74064 23.7202 0
      vertex 3.65418 24.1269 0
      vertex 12.7406 1.22021 0
    endloop
  endfacet
  facet normal -0 0 -1
    outer loop
      vertex 3.65418 24.1269 0
      vertex 2.74064 23.7202 0
      vertex 3.23607 24.8511 0
    endloop
  endfacet
  facet normal 0 0 -1
    outer loop
      vertex 2.42705 24.2634 0
      vertex 3.23607 24.8511 0
      vertex 2.74064 23.7202 0
    endloop
  endfacet
  facet normal -0 0 -1
    outer loop
      vertex 3.23607 24.8511 0
      vertex 2.42705 24.2634 0
      vertex 2.67652 25.4726 0
    endloop
  endfacet
  facet normal 0 0 -1
    outer loop
      vertex 2.00739 24.7294 0
      vertex 2.67652 25.4726 0
      vertex 2.42705 24.2634 0
    endloop
  endfacet
  facet normal 0 0 -1
    outer loop
      vertex 2.00739 24.7294 0
      vertex 2 25.9641 0
      vertex 2.67652 25.4726 0
    endloop
  endfacet
  facet normal 0 0 -1
    outer loop
      vertex 1.5 25.0981 0
      vertex 2 25.9641 0
      vertex 2.00739 24.7294 0
    endloop
  endfacet
  facet normal 0 0 -1
    outer loop
      vertex 1.5 25.0981 0
      vertex 1.23607 26.3042 0
      vertex 2 25.9641 0
    endloop
  endfacet
  facet normal 0 0 -1
    outer loop
      vertex 0.927051 25.3532 0
      vertex 1.23607 26.3042 0
      vertex 1.5 25.0981 0
    endloop
  endfacet
  facet normal 0 0 -1
    outer loop
      vertex 0.927051 25.3532 0
      vertex 0.418114 26.4781 0
      vertex 1.23607 26.3042 0
    endloop
  endfacet
  facet normal 0 0 -1
    outer loop
      vertex 0.313585 25.4836 0
      vertex 0.418114 26.4781 0
      vertex 0.927051 25.3532 0
    endloop
  endfacet
  facet normal 0 0 -1
    outer loop
      vertex -0.313585 25.4836 0
      vertex 0.418114 26.4781 0
      vertex 0.313585 25.4836 0
    endloop
  endfacet
  facet normal 0 0 -1
    outer loop
      vertex -0.313585 25.4836 0
      vertex -0.418114 26.4781 0
      vertex 0.418114 26.4781 0
    endloop
  endfacet
  facet normal 0 0 -1
    outer loop
      vertex -0.927051 25.3532 0
      vertex -0.418114 26.4781 0
      vertex -0.313585 25.4836 0
    endloop
  endfacet
  facet normal 0 0 -1
    outer loop
      vertex -0.927051 25.3532 0
      vertex -1.23607 26.3042 0
      vertex -0.418114 26.4781 0
    endloop
  endfacet
  facet normal 0 0 -1
    outer loop
      vertex -1.5 25.0981 0
      vertex -1.23607 26.3042 0
      vertex -0.927051 25.3532 0
    endloop
  endfacet
  facet normal 0 0 -1
    outer loop
      vertex -1.5 25.0981 0
      vertex -2 25.9641 0
      vertex -1.23607 26.3042 0
    endloop
  endfacet
  facet normal 0 0 -1
    outer loop
      vertex -2.00739 24.7294 0
      vertex -2 25.9641 0
      vertex -1.5 25.0981 0
    endloop
  endfacet
  facet normal 0 0 -1
    outer loop
      vertex -2.67652 25.4726 0
      vertex -2.00739 24.7294 0
      vertex -2.42705 24.2634 0
    endloop
  endfacet
  facet normal 0 0 -1
    outer loop
      vertex -2.00739 24.7294 0
      vertex -2.67652 25.4726 0
      vertex -2 25.9641 0
    endloop
  endfacet
  facet normal 0 0 -1
    outer loop
      vertex -3.23607 24.8511 0
      vertex -2.42705 24.2634 0
      vertex -2.74064 23.7202 0
    endloop
  endfacet
  facet normal 0 0 -1
    outer loop
      vertex -3.65418 24.1269 0
      vertex -2.74064 23.7202 0
      vertex -2.93444 23.1237 0
    endloop
  endfacet
  facet normal 0 0 -1
    outer loop
      vertex -2.42705 24.2634 0
      vertex -3.23607 24.8511 0
      vertex -2.67652 25.4726 0
    endloop
  endfacet
  facet normal 0 0 -1
    outer loop
      vertex -3.91259 23.3316 0
      vertex -2.93444 23.1237 0
      vertex -3 22.5 0
    endloop
  endfacet
  facet normal 0 0 -1
    outer loop
      vertex -3 -22.5 0
      vertex -4 -22.5 0
      vertex -3 22.5 0
    endloop
  endfacet
  facet normal -0 0 -1
    outer loop
      vertex -2.93444 -23.1237 0
      vertex -3.91259 -23.3316 0
      vertex -3 -22.5 0
    endloop
  endfacet
  facet normal 0 0 -1
    outer loop
      vertex -4 22.5 0
      vertex -3 22.5 0
      vertex -4 -22.5 0
    endloop
  endfacet
  facet normal -0 0 -1
    outer loop
      vertex -3 -22.5 0
      vertex -3.91259 -23.3316 0
      vertex -4 -22.5 0
    endloop
  endfacet
  facet normal 0 -0 -1
    outer loop
      vertex -3.91259 23.3316 0
      vertex -3 22.5 0
      vertex -4 22.5 0
    endloop
  endfacet
  facet normal 0 0 -1
    outer loop
      vertex -2.74064 23.7202 0
      vertex -3.65418 24.1269 0
      vertex -3.23607 24.8511 0
    endloop
  endfacet
  facet normal 0 0 -1
    outer loop
      vertex -2.93444 23.1237 0
      vertex -3.91259 23.3316 0
      vertex -3.65418 24.1269 0
    endloop
  endfacet
  facet normal -0.207913 -0.978147 0
    outer loop
      vertex -1.23607 -26.3042 0
      vertex -0.418114 -26.4781 45
      vertex -1.23607 -26.3042 45
    endloop
  endfacet
  facet normal -0.207913 -0.978147 -0
    outer loop
      vertex -0.418114 -26.4781 45
      vertex -1.23607 -26.3042 0
      vertex -0.418114 -26.4781 0
    endloop
  endfacet
  facet normal -0.866026 -0.499999 0
    outer loop
      vertex -3.23607 -24.8511 0
      vertex -3.65418 -24.1269 45
      vertex -3.65418 -24.1269 0
    endloop
  endfacet
  facet normal -0.866026 -0.499999 0
    outer loop
      vertex -3.65418 -24.1269 45
      vertex -3.23607 -24.8511 0
      vertex -3.23607 -24.8511 45
    endloop
  endfacet
  facet normal -0.743145 -0.66913 0
    outer loop
      vertex -2.67652 -25.4726 0
      vertex -3.23607 -24.8511 45
      vertex -3.23607 -24.8511 0
    endloop
  endfacet
  facet normal -0.743145 -0.66913 0
    outer loop
      vertex -3.23607 -24.8511 45
      vertex -2.67652 -25.4726 0
      vertex -2.67652 -25.4726 45
    endloop
  endfacet
  facet normal 0.994522 0.104529 0
    outer loop
      vertex 14 0 45
      vertex 13.9126 0.831646 0
      vertex 13.9126 0.831646 45
    endloop
  endfacet
  facet normal 0.994522 0.104529 0
    outer loop
      vertex 13.9126 0.831646 0
      vertex 14 0 45
      vertex 14 0 0
    endloop
  endfacet
  facet normal 0.587783 0.809018 -0
    outer loop
      vertex 2.67652 25.4726 0
      vertex 2 25.9641 45
      vertex 2.67652 25.4726 45
    endloop
  endfacet
  facet normal 0.587783 0.809018 0
    outer loop
      vertex 2 25.9641 45
      vertex 2.67652 25.4726 0
      vertex 2 25.9641 0
    endloop
  endfacet
  facet normal 0 1 -0
    outer loop
      vertex 0.418114 26.4781 0
      vertex -0.418114 26.4781 45
      vertex 0.418114 26.4781 45
    endloop
  endfacet
  facet normal 0 1 0
    outer loop
      vertex -0.418114 26.4781 45
      vertex 0.418114 26.4781 0
      vertex -0.418114 26.4781 0
    endloop
  endfacet
  facet normal -0.207913 0.978147 0
    outer loop
      vertex -0.418114 26.4781 0
      vertex -1.23607 26.3042 45
      vertex -0.418114 26.4781 45
    endloop
  endfacet
  facet normal -0.207913 0.978147 0
    outer loop
      vertex -1.23607 26.3042 45
      vertex -0.418114 26.4781 0
      vertex -1.23607 26.3042 0
    endloop
  endfacet
  facet normal -0.587783 0.809019 0
    outer loop
      vertex -2 25.9641 0
      vertex -2.67652 25.4726 45
      vertex -2 25.9641 45
    endloop
  endfacet
  facet normal -0.587783 0.809019 0
    outer loop
      vertex -2.67652 25.4726 45
      vertex -2 25.9641 0
      vertex -2.67652 25.4726 0
    endloop
  endfacet
  facet normal 0.951057 -0.309017 0
    outer loop
      vertex 13.6542 -1.62695 45
      vertex 13.9126 -0.831646 0
      vertex 13.9126 -0.831646 45
    endloop
  endfacet
  facet normal 0.951057 -0.309017 0
    outer loop
      vertex 13.9126 -0.831646 0
      vertex 13.6542 -1.62695 45
      vertex 13.6542 -1.62695 0
    endloop
  endfacet
  facet normal 0.406738 -0.913545 0
    outer loop
      vertex 1.23607 -26.3042 0
      vertex 2 -25.9641 45
      vertex 1.23607 -26.3042 45
    endloop
  endfacet
  facet normal 0.406738 -0.913545 0
    outer loop
      vertex 2 -25.9641 45
      vertex 1.23607 -26.3042 0
      vertex 2 -25.9641 0
    endloop
  endfacet
  facet normal -0.587783 -0.809018 0
    outer loop
      vertex -2.67652 -25.4726 0
      vertex -2 -25.9641 45
      vertex -2.67652 -25.4726 45
    endloop
  endfacet
  facet normal -0.587783 -0.809018 -0
    outer loop
      vertex -2 -25.9641 45
      vertex -2.67652 -25.4726 0
      vertex -2 -25.9641 0
    endloop
  endfacet
  facet normal -0.951056 -0.309017 0
    outer loop
      vertex -3.65418 -24.1269 0
      vertex -3.91259 -23.3316 45
      vertex -3.91259 -23.3316 0
    endloop
  endfacet
  facet normal -0.951056 -0.309017 0
    outer loop
      vertex -3.91259 -23.3316 45
      vertex -3.65418 -24.1269 0
      vertex -3.65418 -24.1269 45
    endloop
  endfacet
  facet normal -0.406738 -0.913545 0
    outer loop
      vertex -2 -25.9641 0
      vertex -1.23607 -26.3042 45
      vertex -2 -25.9641 45
    endloop
  endfacet
  facet normal -0.406738 -0.913545 -0
    outer loop
      vertex -1.23607 -26.3042 45
      vertex -2 -25.9641 0
      vertex -1.23607 -26.3042 0
    endloop
  endfacet
  facet normal 0 -1 0
    outer loop
      vertex -0.418114 -26.4781 0
      vertex 0.418114 -26.4781 45
      vertex -0.418114 -26.4781 45
    endloop
  endfacet
  facet normal 0 -1 -0
    outer loop
      vertex 0.418114 -26.4781 45
      vertex -0.418114 -26.4781 0
      vertex 0.418114 -26.4781 0
    endloop
  endfacet
  facet normal 0.207913 -0.978147 0
    outer loop
      vertex 0.418114 -26.4781 0
      vertex 1.23607 -26.3042 45
      vertex 0.418114 -26.4781 45
    endloop
  endfacet
  facet normal 0.207913 -0.978147 0
    outer loop
      vertex 1.23607 -26.3042 45
      vertex 0.418114 -26.4781 0
      vertex 1.23607 -26.3042 0
    endloop
  endfacet
  facet normal 0.587783 -0.809018 0
    outer loop
      vertex 2 -25.9641 0
      vertex 2.67652 -25.4726 45
      vertex 2 -25.9641 45
    endloop
  endfacet
  facet normal 0.587783 -0.809018 0
    outer loop
      vertex 2.67652 -25.4726 45
      vertex 2 -25.9641 0
      vertex 2.67652 -25.4726 0
    endloop
  endfacet
  facet normal -0.587785 -0.809017 0
    outer loop
      vertex 1.5 25.0981 0
      vertex 2.00739 24.7294 45
      vertex 1.5 25.0981 45
    endloop
  endfacet
  facet normal -0.587785 -0.809017 -0
    outer loop
      vertex 2.00739 24.7294 45
      vertex 1.5 25.0981 0
      vertex 2.00739 24.7294 0
    endloop
  endfacet
  facet normal -0.743145 -0.66913 0
    outer loop
      vertex 2.42705 24.2634 0
      vertex 2.00739 24.7294 45
      vertex 2.00739 24.7294 0
    endloop
  endfacet
  facet normal -0.743145 -0.66913 0
    outer loop
      vertex 2.00739 24.7294 45
      vertex 2.42705 24.2634 0
      vertex 2.42705 24.2634 45
    endloop
  endfacet
  facet normal 0.994522 -0.104529 0
    outer loop
      vertex -3 22.5 45
      vertex -2.93444 23.1237 0
      vertex -2.93444 23.1237 45
    endloop
  endfacet
  facet normal 0.994522 -0.104529 0
    outer loop
      vertex -2.93444 23.1237 0
      vertex -3 22.5 45
      vertex -3 22.5 0
    endloop
  endfacet
  facet normal 0.406735 0.913546 -0
    outer loop
      vertex -0.927051 -25.3532 0
      vertex -1.5 -25.0981 45
      vertex -0.927051 -25.3532 45
    endloop
  endfacet
  facet normal 0.406735 0.913546 0
    outer loop
      vertex -1.5 -25.0981 45
      vertex -0.927051 -25.3532 0
      vertex -1.5 -25.0981 0
    endloop
  endfacet
  facet normal 1 -0 0
    outer loop
      vertex -3 -22.5 45
      vertex -3 22.5 0
      vertex -3 22.5 45
    endloop
  endfacet
  facet normal 1 0 0
    outer loop
      vertex -3 22.5 0
      vertex -3 -22.5 45
      vertex -3 -22.5 0
    endloop
  endfacet
  facet normal 0.406736 -0.913546 0
    outer loop
      vertex -1.5 25.0981 0
      vertex -0.927051 25.3532 45
      vertex -1.5 25.0981 45
    endloop
  endfacet
  facet normal 0.406736 -0.913546 0
    outer loop
      vertex -0.927051 25.3532 45
      vertex -1.5 25.0981 0
      vertex -0.927051 25.3532 0
    endloop
  endfacet
  facet normal 0 -1 0
    outer loop
      vertex -0.313585 25.4836 0
      vertex 0.313585 25.4836 45
      vertex -0.313585 25.4836 45
    endloop
  endfacet
  facet normal 0 -1 -0
    outer loop
      vertex 0.313585 25.4836 45
      vertex -0.313585 25.4836 0
      vertex 0.313585 25.4836 0
    endloop
  endfacet
  facet normal -0.866026 0.5 0
    outer loop
      vertex 2.42705 -24.2634 0
      vertex 2.74064 -23.7202 45
      vertex 2.74064 -23.7202 0
    endloop
  endfacet
  facet normal -0.866026 0.5 0
    outer loop
      vertex 2.74064 -23.7202 45
      vertex 2.42705 -24.2634 0
      vertex 2.42705 -24.2634 45
    endloop
  endfacet
  facet normal -0.951056 0.309017 0
    outer loop
      vertex 12.7406 -1.22021 0
      vertex 12.9344 -0.623734 45
      vertex 12.9344 -0.623734 0
    endloop
  endfacet
  facet normal -0.951056 0.309017 0
    outer loop
      vertex 12.9344 -0.623734 45
      vertex 12.7406 -1.22021 0
      vertex 12.7406 -1.22021 45
    endloop
  endfacet
  facet normal 0.743145 -0.66913 0
    outer loop
      vertex -2.42705 24.2634 45
      vertex -2.00739 24.7294 0
      vertex -2.00739 24.7294 45
    endloop
  endfacet
  facet normal 0.743145 -0.66913 0
    outer loop
      vertex -2.00739 24.7294 0
      vertex -2.42705 24.2634 45
      vertex -2.42705 24.2634 0
    endloop
  endfacet
  facet normal 0.587784 -0.809018 0
    outer loop
      vertex -2.00739 24.7294 0
      vertex -1.5 25.0981 45
      vertex -2.00739 24.7294 45
    endloop
  endfacet
  facet normal 0.587784 -0.809018 0
    outer loop
      vertex -1.5 25.0981 45
      vertex -2.00739 24.7294 0
      vertex -1.5 25.0981 0
    endloop
  endfacet
  facet normal 0.207914 -0.978147 0
    outer loop
      vertex -0.927051 25.3532 0
      vertex -0.313585 25.4836 45
      vertex -0.927051 25.3532 45
    endloop
  endfacet
  facet normal 0.207914 -0.978147 0
    outer loop
      vertex -0.313585 25.4836 45
      vertex -0.927051 25.3532 0
      vertex -0.313585 25.4836 0
    endloop
  endfacet
  facet normal -0.406735 -0.913546 0
    outer loop
      vertex 0.927051 25.3532 0
      vertex 1.5 25.0981 45
      vertex 0.927051 25.3532 45
    endloop
  endfacet
  facet normal -0.406735 -0.913546 -0
    outer loop
      vertex 1.5 25.0981 45
      vertex 0.927051 25.3532 0
      vertex 1.5 25.0981 0
    endloop
  endfacet
  facet normal -0.866026 -0.5 0
    outer loop
      vertex 2.74064 23.7202 0
      vertex 2.42705 24.2634 45
      vertex 2.42705 24.2634 0
    endloop
  endfacet
  facet normal -0.866026 -0.5 0
    outer loop
      vertex 2.42705 24.2634 45
      vertex 2.74064 23.7202 0
      vertex 2.74064 23.7202 45
    endloop
  endfacet
  facet normal -0.913812 -0.406138 0
    outer loop
      vertex 12.7406 1.22021 0
      vertex 2.74064 23.7202 45
      vertex 2.74064 23.7202 0
    endloop
  endfacet
  facet normal -0.913812 -0.406138 0
    outer loop
      vertex 2.74064 23.7202 45
      vertex 12.7406 1.22021 0
      vertex 12.7406 1.22021 45
    endloop
  endfacet
  facet normal -0.406735 0.913546 0
    outer loop
      vertex 1.5 -25.0981 0
      vertex 0.927051 -25.3532 45
      vertex 1.5 -25.0981 45
    endloop
  endfacet
  facet normal -0.406735 0.913546 0
    outer loop
      vertex 0.927051 -25.3532 45
      vertex 1.5 -25.0981 0
      vertex 0.927051 -25.3532 0
    endloop
  endfacet
  facet normal -0.743145 0.66913 0
    outer loop
      vertex 2.00739 -24.7294 0
      vertex 2.42705 -24.2634 45
      vertex 2.42705 -24.2634 0
    endloop
  endfacet
  facet normal -0.743145 0.66913 0
    outer loop
      vertex 2.42705 -24.2634 45
      vertex 2.00739 -24.7294 0
      vertex 2.00739 -24.7294 45
    endloop
  endfacet
  facet normal -0.994522 0.104529 0
    outer loop
      vertex 12.9344 -0.623734 0
      vertex 13 0 45
      vertex 13 0 0
    endloop
  endfacet
  facet normal -0.994522 0.104529 0
    outer loop
      vertex 13 0 45
      vertex 12.9344 -0.623734 0
      vertex 12.9344 -0.623734 45
    endloop
  endfacet
  facet normal 0.743145 0.66913 0
    outer loop
      vertex -2.00739 -24.7294 45
      vertex -2.42705 -24.2634 0
      vertex -2.42705 -24.2634 45
    endloop
  endfacet
  facet normal 0.743145 0.66913 0
    outer loop
      vertex -2.42705 -24.2634 0
      vertex -2.00739 -24.7294 45
      vertex -2.00739 -24.7294 0
    endloop
  endfacet
  facet normal 0.994522 0.104529 0
    outer loop
      vertex -2.93444 -23.1237 45
      vertex -3 -22.5 0
      vertex -3 -22.5 45
    endloop
  endfacet
  facet normal 0.994522 0.104529 0
    outer loop
      vertex -3 -22.5 0
      vertex -2.93444 -23.1237 45
      vertex -2.93444 -23.1237 0
    endloop
  endfacet
  facet normal 0.587785 0.809017 -0
    outer loop
      vertex -1.5 -25.0981 0
      vertex -2.00739 -24.7294 45
      vertex -1.5 -25.0981 45
    endloop
  endfacet
  facet normal 0.587785 0.809017 0
    outer loop
      vertex -2.00739 -24.7294 45
      vertex -1.5 -25.0981 0
      vertex -2.00739 -24.7294 0
    endloop
  endfacet
  facet normal 0.866026 -0.5 0
    outer loop
      vertex -2.74064 23.7202 45
      vertex -2.42705 24.2634 0
      vertex -2.42705 24.2634 45
    endloop
  endfacet
  facet normal 0.866026 -0.5 0
    outer loop
      vertex -2.42705 24.2634 0
      vertex -2.74064 23.7202 45
      vertex -2.74064 23.7202 0
    endloop
  endfacet
  facet normal 0.951057 -0.309017 0
    outer loop
      vertex -2.93444 23.1237 45
      vertex -2.74064 23.7202 0
      vertex -2.74064 23.7202 45
    endloop
  endfacet
  facet normal 0.951057 -0.309017 0
    outer loop
      vertex -2.74064 23.7202 0
      vertex -2.93444 23.1237 45
      vertex -2.93444 23.1237 0
    endloop
  endfacet
  facet normal -0.207914 -0.978147 0
    outer loop
      vertex 0.313585 25.4836 0
      vertex 0.927051 25.3532 45
      vertex 0.313585 25.4836 45
    endloop
  endfacet
  facet normal -0.207914 -0.978147 -0
    outer loop
      vertex 0.927051 25.3532 45
      vertex 0.313585 25.4836 0
      vertex 0.927051 25.3532 0
    endloop
  endfacet
  facet normal -0.951056 -0.309017 0
    outer loop
      vertex 12.9344 0.623734 0
      vertex 12.7406 1.22021 45
      vertex 12.7406 1.22021 0
    endloop
  endfacet
  facet normal -0.951056 -0.309017 0
    outer loop
      vertex 12.7406 1.22021 45
      vertex 12.9344 0.623734 0
      vertex 12.9344 0.623734 45
    endloop
  endfacet
  facet normal -0.994522 -0.104529 0
    outer loop
      vertex 13 0 0
      vertex 12.9344 0.623734 45
      vertex 12.9344 0.623734 0
    endloop
  endfacet
  facet normal -0.994522 -0.104529 0
    outer loop
      vertex 12.9344 0.623734 45
      vertex 13 0 0
      vertex 13 0 45
    endloop
  endfacet
  facet normal 0 1 -0
    outer loop
      vertex 0.313585 -25.4836 0
      vertex -0.313585 -25.4836 45
      vertex 0.313585 -25.4836 45
    endloop
  endfacet
  facet normal 0 1 0
    outer loop
      vertex -0.313585 -25.4836 45
      vertex 0.313585 -25.4836 0
      vertex -0.313585 -25.4836 0
    endloop
  endfacet
  facet normal -0.587785 0.809017 0
    outer loop
      vertex 2.00739 -24.7294 0
      vertex 1.5 -25.0981 45
      vertex 2.00739 -24.7294 45
    endloop
  endfacet
  facet normal -0.587785 0.809017 0
    outer loop
      vertex 1.5 -25.0981 45
      vertex 2.00739 -24.7294 0
      vertex 1.5 -25.0981 0
    endloop
  endfacet
  facet normal -0.207914 0.978147 0
    outer loop
      vertex 0.927051 -25.3532 0
      vertex 0.313585 -25.4836 45
      vertex 0.927051 -25.3532 45
    endloop
  endfacet
  facet normal -0.207914 0.978147 0
    outer loop
      vertex 0.313585 -25.4836 45
      vertex 0.927051 -25.3532 0
      vertex 0.313585 -25.4836 0
    endloop
  endfacet
  facet normal -0.913812 0.406138 0
    outer loop
      vertex 2.74064 -23.7202 0
      vertex 12.7406 -1.22021 45
      vertex 12.7406 -1.22021 0
    endloop
  endfacet
  facet normal -0.913812 0.406138 0
    outer loop
      vertex 12.7406 -1.22021 45
      vertex 2.74064 -23.7202 0
      vertex 2.74064 -23.7202 45
    endloop
  endfacet
  facet normal 0.951057 0.309017 0
    outer loop
      vertex -2.74064 -23.7202 45
      vertex -2.93444 -23.1237 0
      vertex -2.93444 -23.1237 45
    endloop
  endfacet
  facet normal 0.951057 0.309017 0
    outer loop
      vertex -2.93444 -23.1237 0
      vertex -2.74064 -23.7202 45
      vertex -2.74064 -23.7202 0
    endloop
  endfacet
  facet normal 0.207914 0.978147 -0
    outer loop
      vertex -0.313585 -25.4836 0
      vertex -0.927051 -25.3532 45
      vertex -0.313585 -25.4836 45
    endloop
  endfacet
  facet normal 0.207914 0.978147 0
    outer loop
      vertex -0.927051 -25.3532 45
      vertex -0.313585 -25.4836 0
      vertex -0.927051 -25.3532 0
    endloop
  endfacet
  facet normal 0.866026 0.5 0
    outer loop
      vertex -2.42705 -24.2634 45
      vertex -2.74064 -23.7202 0
      vertex -2.74064 -23.7202 45
    endloop
  endfacet
  facet normal 0.866026 0.5 0
    outer loop
      vertex -2.74064 -23.7202 0
      vertex -2.42705 -24.2634 45
      vertex -2.42705 -24.2634 0
    endloop
  endfacet
  facet normal 0.743144 0.669131 0
    outer loop
      vertex 29.8541 26.0267 45
      vertex 29.0148 26.9589 0
      vertex 29.0148 26.9589 45
    endloop
  endfacet
  facet normal 0.743144 0.669131 0
    outer loop
      vertex 29.0148 26.9589 0
      vertex 29.8541 26.0267 45
      vertex 29.8541 26.0267 0
    endloop
  endfacet
  facet normal 0.866025 0.500001 0
    outer loop
      vertex 30.4813 24.9404 45
      vertex 29.8541 26.0267 0
      vertex 29.8541 26.0267 45
    endloop
  endfacet
  facet normal 0.866025 0.500001 0
    outer loop
      vertex 29.8541 26.0267 0
      vertex 30.4813 24.9404 45
      vertex 30.4813 24.9404 0
    endloop
  endfacet
  facet normal -0.951057 0.309016 0
    outer loop
      vertex 19.1311 23.7475 0
      vertex 19.5187 24.9404 45
      vertex 19.5187 24.9404 0
    endloop
  endfacet
  facet normal -0.951057 0.309016 0
    outer loop
      vertex 19.5187 24.9404 45
      vertex 19.1311 23.7475 0
      vertex 19.1311 23.7475 45
    endloop
  endfacet
  facet normal 0.994522 -0.104529 0
    outer loop
      vertex 40.8689 -1.24747 45
      vertex 41 0 0
      vertex 41 0 45
    endloop
  endfacet
  facet normal 0.994522 -0.104529 0
    outer loop
      vertex 41 0 0
      vertex 40.8689 -1.24747 45
      vertex 40.8689 -1.24747 0
    endloop
  endfacet
  facet normal -0.207911 0.978148 0
    outer loop
      vertex 24.3728 28.4671 0
      vertex 23.1459 28.2063 45
      vertex 24.3728 28.4671 45
    endloop
  endfacet
  facet normal -0.207911 0.978148 0
    outer loop
      vertex 23.1459 28.2063 45
      vertex 24.3728 28.4671 0
      vertex 23.1459 28.2063 0
    endloop
  endfacet
  facet normal 0 0 1
    outer loop
      vertex 40 0 45
      vertex 41 0 45
      vertex 40.8689 1.24747 45
    endloop
  endfacet
  facet normal 0 0 1
    outer loop
      vertex 39.8907 1.03956 45
      vertex 40.8689 1.24747 45
      vertex 40.4813 2.44042 45
    endloop
  endfacet
  facet normal 0 0 1
    outer loop
      vertex 41 0 45
      vertex 40 0 45
      vertex 40.8689 -1.24747 45
    endloop
  endfacet
  facet normal -0 0 1
    outer loop
      vertex 39.8907 -1.03956 45
      vertex 40.8689 -1.24747 45
      vertex 40 0 45
    endloop
  endfacet
  facet normal 0 0 1
    outer loop
      vertex 40.8689 1.24747 45
      vertex 39.8907 1.03956 45
      vertex 40 0 45
    endloop
  endfacet
  facet normal 0 0 1
    outer loop
      vertex 40.4813 2.44042 45
      vertex 39.5677 2.03368 45
      vertex 39.8907 1.03956 45
    endloop
  endfacet
  facet normal 0 0 1
    outer loop
      vertex 30.4813 24.9404 45
      vertex 39.5677 2.03368 45
      vertex 40.4813 2.44042 45
    endloop
  endfacet
  facet normal 0 0 1
    outer loop
      vertex 29.5677 24.5337 45
      vertex 30.4813 24.9404 45
      vertex 29.8541 26.0267 45
    endloop
  endfacet
  facet normal 0 0 1
    outer loop
      vertex 30.4813 24.9404 45
      vertex 29.5677 24.5337 45
      vertex 39.5677 2.03368 45
    endloop
  endfacet
  facet normal 0 0 1
    outer loop
      vertex 29.8541 26.0267 45
      vertex 29.0451 25.4389 45
      vertex 29.5677 24.5337 45
    endloop
  endfacet
  facet normal 0 0 1
    outer loop
      vertex 29.0148 26.9589 45
      vertex 29.0451 25.4389 45
      vertex 29.8541 26.0267 45
    endloop
  endfacet
  facet normal 0 0 1
    outer loop
      vertex 29.0148 26.9589 45
      vertex 28.3457 26.2157 45
      vertex 29.0451 25.4389 45
    endloop
  endfacet
  facet normal 0 0 1
    outer loop
      vertex 28 27.6962 45
      vertex 28.3457 26.2157 45
      vertex 29.0148 26.9589 45
    endloop
  endfacet
  facet normal 0 0 1
    outer loop
      vertex 28 27.6962 45
      vertex 27.5 26.8301 45
      vertex 28.3457 26.2157 45
    endloop
  endfacet
  facet normal 0 0 1
    outer loop
      vertex 26.8541 28.2063 45
      vertex 27.5 26.8301 45
      vertex 28 27.6962 45
    endloop
  endfacet
  facet normal 0 0 1
    outer loop
      vertex 26.8541 28.2063 45
      vertex 26.5451 27.2553 45
      vertex 27.5 26.8301 45
    endloop
  endfacet
  facet normal 0 0 1
    outer loop
      vertex 25.6272 28.4671 45
      vertex 26.5451 27.2553 45
      vertex 26.8541 28.2063 45
    endloop
  endfacet
  facet normal 0 0 1
    outer loop
      vertex 25.6272 28.4671 45
      vertex 25.5226 27.4726 45
      vertex 26.5451 27.2553 45
    endloop
  endfacet
  facet normal 0 0 1
    outer loop
      vertex 25.6272 28.4671 45
      vertex 24.4774 27.4726 45
      vertex 25.5226 27.4726 45
    endloop
  endfacet
  facet normal -0 0 1
    outer loop
      vertex 24.3728 28.4671 45
      vertex 24.4774 27.4726 45
      vertex 25.6272 28.4671 45
    endloop
  endfacet
  facet normal 0 0 1
    outer loop
      vertex 24.3728 28.4671 45
      vertex 23.4549 27.2553 45
      vertex 24.4774 27.4726 45
    endloop
  endfacet
  facet normal -0 0 1
    outer loop
      vertex 23.1459 28.2063 45
      vertex 23.4549 27.2553 45
      vertex 24.3728 28.4671 45
    endloop
  endfacet
  facet normal 0 0 1
    outer loop
      vertex 23.1459 28.2063 45
      vertex 22.5 26.8301 45
      vertex 23.4549 27.2553 45
    endloop
  endfacet
  facet normal -0 0 1
    outer loop
      vertex 22 27.6962 45
      vertex 22.5 26.8301 45
      vertex 23.1459 28.2063 45
    endloop
  endfacet
  facet normal 0 0 1
    outer loop
      vertex 22 27.6962 45
      vertex 21.6543 26.2157 45
      vertex 22.5 26.8301 45
    endloop
  endfacet
  facet normal -0 0 1
    outer loop
      vertex 20.9852 26.9589 45
      vertex 21.6543 26.2157 45
      vertex 22 27.6962 45
    endloop
  endfacet
  facet normal 0 0 1
    outer loop
      vertex 20.9852 26.9589 45
      vertex 20.9549 25.4389 45
      vertex 21.6543 26.2157 45
    endloop
  endfacet
  facet normal -0 0 1
    outer loop
      vertex 20.1459 26.0267 45
      vertex 20.9549 25.4389 45
      vertex 20.9852 26.9589 45
    endloop
  endfacet
  facet normal 0 0 1
    outer loop
      vertex 20.9549 25.4389 45
      vertex 20.1459 26.0267 45
      vertex 20.4323 24.5337 45
    endloop
  endfacet
  facet normal -0 0 1
    outer loop
      vertex 19.5187 24.9404 45
      vertex 20.4323 24.5337 45
      vertex 20.1459 26.0267 45
    endloop
  endfacet
  facet normal 0 0 1
    outer loop
      vertex 20.4323 24.5337 45
      vertex 19.5187 24.9404 45
      vertex 20.1093 23.5396 45
    endloop
  endfacet
  facet normal 0 0 1
    outer loop
      vertex 20.1093 23.5396 45
      vertex 19.1311 23.7475 45
      vertex 20 22.5 45
    endloop
  endfacet
  facet normal -0 0 1
    outer loop
      vertex 19.1311 23.7475 45
      vertex 20.1093 23.5396 45
      vertex 19.5187 24.9404 45
    endloop
  endfacet
  facet normal 0 0 1
    outer loop
      vertex 40.8689 -1.24747 45
      vertex 39.8907 -1.03956 45
      vertex 40.4813 -2.44042 45
    endloop
  endfacet
  facet normal -0 0 1
    outer loop
      vertex 39.5677 -2.03368 45
      vertex 40.4813 -2.44042 45
      vertex 39.8907 -1.03956 45
    endloop
  endfacet
  facet normal 0 0 1
    outer loop
      vertex 39.5677 -2.03368 45
      vertex 30.4813 -24.9404 45
      vertex 40.4813 -2.44042 45
    endloop
  endfacet
  facet normal -0 0 1
    outer loop
      vertex 29.5677 -24.5337 45
      vertex 30.4813 -24.9404 45
      vertex 39.5677 -2.03368 45
    endloop
  endfacet
  facet normal 0 0 1
    outer loop
      vertex 30.4813 -24.9404 45
      vertex 29.5677 -24.5337 45
      vertex 29.8541 -26.0267 45
    endloop
  endfacet
  facet normal -0 0 1
    outer loop
      vertex 29.0451 -25.4389 45
      vertex 29.8541 -26.0267 45
      vertex 29.5677 -24.5337 45
    endloop
  endfacet
  facet normal 0 0 1
    outer loop
      vertex 29.0451 -25.4389 45
      vertex 29.0148 -26.9589 45
      vertex 29.8541 -26.0267 45
    endloop
  endfacet
  facet normal -0 0 1
    outer loop
      vertex 28.3457 -26.2157 45
      vertex 29.0148 -26.9589 45
      vertex 29.0451 -25.4389 45
    endloop
  endfacet
  facet normal 0 0 1
    outer loop
      vertex 28.3457 -26.2157 45
      vertex 28 -27.6962 45
      vertex 29.0148 -26.9589 45
    endloop
  endfacet
  facet normal -0 0 1
    outer loop
      vertex 27.5 -26.8301 45
      vertex 28 -27.6962 45
      vertex 28.3457 -26.2157 45
    endloop
  endfacet
  facet normal 0 0 1
    outer loop
      vertex 27.5 -26.8301 45
      vertex 26.8541 -28.2063 45
      vertex 28 -27.6962 45
    endloop
  endfacet
  facet normal -0 0 1
    outer loop
      vertex 26.5451 -27.2553 45
      vertex 26.8541 -28.2063 45
      vertex 27.5 -26.8301 45
    endloop
  endfacet
  facet normal 0 0 1
    outer loop
      vertex 26.5451 -27.2553 45
      vertex 25.6272 -28.4671 45
      vertex 26.8541 -28.2063 45
    endloop
  endfacet
  facet normal -0 0 1
    outer loop
      vertex 25.5226 -27.4726 45
      vertex 25.6272 -28.4671 45
      vertex 26.5451 -27.2553 45
    endloop
  endfacet
  facet normal -0 0 1
    outer loop
      vertex 24.4774 -27.4726 45
      vertex 25.6272 -28.4671 45
      vertex 25.5226 -27.4726 45
    endloop
  endfacet
  facet normal 0 0 1
    outer loop
      vertex 24.4774 -27.4726 45
      vertex 24.3728 -28.4671 45
      vertex 25.6272 -28.4671 45
    endloop
  endfacet
  facet normal 0 0 1
    outer loop
      vertex 23.4549 -27.2553 45
      vertex 24.3728 -28.4671 45
      vertex 24.4774 -27.4726 45
    endloop
  endfacet
  facet normal 0 0 1
    outer loop
      vertex 23.4549 -27.2553 45
      vertex 23.1459 -28.2063 45
      vertex 24.3728 -28.4671 45
    endloop
  endfacet
  facet normal 0 0 1
    outer loop
      vertex 22.5 -26.8301 45
      vertex 23.1459 -28.2063 45
      vertex 23.4549 -27.2553 45
    endloop
  endfacet
  facet normal 0 0 1
    outer loop
      vertex 22.5 -26.8301 45
      vertex 22 -27.6962 45
      vertex 23.1459 -28.2063 45
    endloop
  endfacet
  facet normal 0 0 1
    outer loop
      vertex 21.6543 -26.2157 45
      vertex 22 -27.6962 45
      vertex 22.5 -26.8301 45
    endloop
  endfacet
  facet normal 0 0 1
    outer loop
      vertex 21.6543 -26.2157 45
      vertex 20.9852 -26.9589 45
      vertex 22 -27.6962 45
    endloop
  endfacet
  facet normal 0 0 1
    outer loop
      vertex 20.9549 -25.4389 45
      vertex 20.9852 -26.9589 45
      vertex 21.6543 -26.2157 45
    endloop
  endfacet
  facet normal 0 0 1
    outer loop
      vertex 20.1459 -26.0267 45
      vertex 20.9549 -25.4389 45
      vertex 20.4323 -24.5337 45
    endloop
  endfacet
  facet normal 0 0 1
    outer loop
      vertex 20.9549 -25.4389 45
      vertex 20.1459 -26.0267 45
      vertex 20.9852 -26.9589 45
    endloop
  endfacet
  facet normal 0 0 1
    outer loop
      vertex 19.5187 -24.9404 45
      vertex 20.4323 -24.5337 45
      vertex 20.1093 -23.5396 45
    endloop
  endfacet
  facet normal 0 0 1
    outer loop
      vertex 19.1311 -23.7475 45
      vertex 20.1093 -23.5396 45
      vertex 20 -22.5 45
    endloop
  endfacet
  facet normal 0 0 1
    outer loop
      vertex 20.4323 -24.5337 45
      vertex 19.5187 -24.9404 45
      vertex 20.1459 -26.0267 45
    endloop
  endfacet
  facet normal 0 0 1
    outer loop
      vertex 20 22.5 45
      vertex 19 22.5 45
      vertex 20 -22.5 45
    endloop
  endfacet
  facet normal 0 0 1
    outer loop
      vertex 20 22.5 45
      vertex 19.1311 23.7475 45
      vertex 19 22.5 45
    endloop
  endfacet
  facet normal 0 0 1
    outer loop
      vertex 19 -22.5 45
      vertex 20 -22.5 45
      vertex 19 22.5 45
    endloop
  endfacet
  facet normal 0 -0 1
    outer loop
      vertex 19.1311 -23.7475 45
      vertex 20 -22.5 45
      vertex 19 -22.5 45
    endloop
  endfacet
  facet normal 0 0 1
    outer loop
      vertex 20.1093 -23.5396 45
      vertex 19.1311 -23.7475 45
      vertex 19.5187 -24.9404 45
    endloop
  endfacet
  facet normal -0.994522 -0.104529 0
    outer loop
      vertex 19.1311 -23.7475 0
      vertex 19 -22.5 45
      vertex 19 -22.5 0
    endloop
  endfacet
  facet normal -0.994522 -0.104529 0
    outer loop
      vertex 19 -22.5 45
      vertex 19.1311 -23.7475 0
      vertex 19.1311 -23.7475 45
    endloop
  endfacet
  facet normal 0.406737 0.913545 -0
    outer loop
      vertex 28 27.6962 0
      vertex 26.8541 28.2063 45
      vertex 28 27.6962 45
    endloop
  endfacet
  facet normal 0.406737 0.913545 0
    outer loop
      vertex 26.8541 28.2063 45
      vertex 28 27.6962 0
      vertex 26.8541 28.2063 0
    endloop
  endfacet
  facet normal 0.587786 0.809016 -0
    outer loop
      vertex 29.0148 26.9589 0
      vertex 28 27.6962 45
      vertex 29.0148 26.9589 45
    endloop
  endfacet
  facet normal 0.587786 0.809016 0
    outer loop
      vertex 28 27.6962 45
      vertex 29.0148 26.9589 0
      vertex 28 27.6962 0
    endloop
  endfacet
  facet normal 0.913812 0.406138 0
    outer loop
      vertex 40.4813 2.44042 45
      vertex 30.4813 24.9404 0
      vertex 30.4813 24.9404 45
    endloop
  endfacet
  facet normal 0.913812 0.406138 0
    outer loop
      vertex 30.4813 24.9404 0
      vertex 40.4813 2.44042 45
      vertex 40.4813 2.44042 0
    endloop
  endfacet
  facet normal 0.951057 0.309016 0
    outer loop
      vertex 40.8689 1.24747 45
      vertex 40.4813 2.44042 0
      vertex 40.4813 2.44042 45
    endloop
  endfacet
  facet normal 0.951057 0.309016 0
    outer loop
      vertex 40.4813 2.44042 0
      vertex 40.8689 1.24747 45
      vertex 40.8689 1.24747 0
    endloop
  endfacet
  facet normal 0.207911 0.978148 -0
    outer loop
      vertex 26.8541 28.2063 0
      vertex 25.6272 28.4671 45
      vertex 26.8541 28.2063 45
    endloop
  endfacet
  facet normal 0.207911 0.978148 0
    outer loop
      vertex 25.6272 28.4671 45
      vertex 26.8541 28.2063 0
      vertex 25.6272 28.4671 0
    endloop
  endfacet
  facet normal -0.743144 0.669131 0
    outer loop
      vertex 20.1459 26.0267 0
      vertex 20.9852 26.9589 45
      vertex 20.9852 26.9589 0
    endloop
  endfacet
  facet normal -0.743144 0.669131 0
    outer loop
      vertex 20.9852 26.9589 45
      vertex 20.1459 26.0267 0
      vertex 20.1459 26.0267 45
    endloop
  endfacet
  facet normal -0.866025 0.500001 0
    outer loop
      vertex 19.5187 24.9404 0
      vertex 20.1459 26.0267 45
      vertex 20.1459 26.0267 0
    endloop
  endfacet
  facet normal -0.866025 0.500001 0
    outer loop
      vertex 20.1459 26.0267 45
      vertex 19.5187 24.9404 0
      vertex 19.5187 24.9404 45
    endloop
  endfacet
  facet normal -0.406737 0.913545 0
    outer loop
      vertex 23.1459 28.2063 0
      vertex 22 27.6962 45
      vertex 23.1459 28.2063 45
    endloop
  endfacet
  facet normal -0.406737 0.913545 0
    outer loop
      vertex 22 27.6962 45
      vertex 23.1459 28.2063 0
      vertex 22 27.6962 0
    endloop
  endfacet
  facet normal -1 0 0
    outer loop
      vertex 19 -22.5 0
      vertex 19 22.5 45
      vertex 19 22.5 0
    endloop
  endfacet
  facet normal -1 -0 0
    outer loop
      vertex 19 22.5 45
      vertex 19 -22.5 0
      vertex 19 -22.5 45
    endloop
  endfacet
  facet normal -0.994522 0.104529 0
    outer loop
      vertex 19 22.5 0
      vertex 19.1311 23.7475 45
      vertex 19.1311 23.7475 0
    endloop
  endfacet
  facet normal -0.994522 0.104529 0
    outer loop
      vertex 19.1311 23.7475 45
      vertex 19 22.5 0
      vertex 19 22.5 45
    endloop
  endfacet
  facet normal 0 0 -1
    outer loop
      vertex 40 0 0
      vertex 41 0 0
      vertex 40.8689 -1.24747 0
    endloop
  endfacet
  facet normal 0 0 -1
    outer loop
      vertex 39.8907 -1.03956 0
      vertex 40.8689 -1.24747 0
      vertex 40.4813 -2.44042 0
    endloop
  endfacet
  facet normal 0 0 -1
    outer loop
      vertex 41 0 0
      vertex 40 0 0
      vertex 40.8689 1.24747 0
    endloop
  endfacet
  facet normal 0 0 -1
    outer loop
      vertex 39.8907 1.03956 0
      vertex 40.8689 1.24747 0
      vertex 40 0 0
    endloop
  endfacet
  facet normal 0 0 -1
    outer loop
      vertex 40.8689 -1.24747 0
      vertex 39.8907 -1.03956 0
      vertex 40 0 0
    endloop
  endfacet
  facet normal 0 0 -1
    outer loop
      vertex 40.4813 -2.44042 0
      vertex 39.5677 -2.03368 0
      vertex 39.8907 -1.03956 0
    endloop
  endfacet
  facet normal 0 0 -1
    outer loop
      vertex 30.4813 -24.9404 0
      vertex 39.5677 -2.03368 0
      vertex 40.4813 -2.44042 0
    endloop
  endfacet
  facet normal 0 0 -1
    outer loop
      vertex 29.5677 -24.5337 0
      vertex 30.4813 -24.9404 0
      vertex 29.8541 -26.0267 0
    endloop
  endfacet
  facet normal 0 0 -1
    outer loop
      vertex 30.4813 -24.9404 0
      vertex 29.5677 -24.5337 0
      vertex 39.5677 -2.03368 0
    endloop
  endfacet
  facet normal 0 0 -1
    outer loop
      vertex 29.8541 -26.0267 0
      vertex 29.0451 -25.4389 0
      vertex 29.5677 -24.5337 0
    endloop
  endfacet
  facet normal 0 0 -1
    outer loop
      vertex 29.0148 -26.9589 0
      vertex 29.0451 -25.4389 0
      vertex 29.8541 -26.0267 0
    endloop
  endfacet
  facet normal 0 0 -1
    outer loop
      vertex 29.0148 -26.9589 0
      vertex 28.3457 -26.2157 0
      vertex 29.0451 -25.4389 0
    endloop
  endfacet
  facet normal 0 0 -1
    outer loop
      vertex 28 -27.6962 0
      vertex 28.3457 -26.2157 0
      vertex 29.0148 -26.9589 0
    endloop
  endfacet
  facet normal 0 0 -1
    outer loop
      vertex 28 -27.6962 0
      vertex 27.5 -26.8301 0
      vertex 28.3457 -26.2157 0
    endloop
  endfacet
  facet normal 0 0 -1
    outer loop
      vertex 26.8541 -28.2063 0
      vertex 27.5 -26.8301 0
      vertex 28 -27.6962 0
    endloop
  endfacet
  facet normal 0 0 -1
    outer loop
      vertex 26.8541 -28.2063 0
      vertex 26.5451 -27.2553 0
      vertex 27.5 -26.8301 0
    endloop
  endfacet
  facet normal 0 0 -1
    outer loop
      vertex 25.6272 -28.4671 0
      vertex 26.5451 -27.2553 0
      vertex 26.8541 -28.2063 0
    endloop
  endfacet
  facet normal 0 0 -1
    outer loop
      vertex 25.6272 -28.4671 0
      vertex 25.5226 -27.4726 0
      vertex 26.5451 -27.2553 0
    endloop
  endfacet
  facet normal 0 0 -1
    outer loop
      vertex 25.6272 -28.4671 0
      vertex 24.4774 -27.4726 0
      vertex 25.5226 -27.4726 0
    endloop
  endfacet
  facet normal 0 0 -1
    outer loop
      vertex 24.3728 -28.4671 0
      vertex 24.4774 -27.4726 0
      vertex 25.6272 -28.4671 0
    endloop
  endfacet
  facet normal 0 0 -1
    outer loop
      vertex 24.3728 -28.4671 0
      vertex 23.4549 -27.2553 0
      vertex 24.4774 -27.4726 0
    endloop
  endfacet
  facet normal 0 0 -1
    outer loop
      vertex 23.1459 -28.2063 0
      vertex 23.4549 -27.2553 0
      vertex 24.3728 -28.4671 0
    endloop
  endfacet
  facet normal 0 0 -1
    outer loop
      vertex 23.1459 -28.2063 0
      vertex 22.5 -26.8301 0
      vertex 23.4549 -27.2553 0
    endloop
  endfacet
  facet normal 0 0 -1
    outer loop
      vertex 22 -27.6962 0
      vertex 22.5 -26.8301 0
      vertex 23.1459 -28.2063 0
    endloop
  endfacet
  facet normal 0 0 -1
    outer loop
      vertex 22 -27.6962 0
      vertex 21.6543 -26.2157 0
      vertex 22.5 -26.8301 0
    endloop
  endfacet
  facet normal 0 0 -1
    outer loop
      vertex 20.9852 -26.9589 0
      vertex 21.6543 -26.2157 0
      vertex 22 -27.6962 0
    endloop
  endfacet
  facet normal 0 0 -1
    outer loop
      vertex 20.9852 -26.9589 0
      vertex 20.9549 -25.4389 0
      vertex 21.6543 -26.2157 0
    endloop
  endfacet
  facet normal 0 0 -1
    outer loop
      vertex 20.1459 -26.0267 0
      vertex 20.9549 -25.4389 0
      vertex 20.9852 -26.9589 0
    endloop
  endfacet
  facet normal -0 0 -1
    outer loop
      vertex 20.9549 -25.4389 0
      vertex 20.1459 -26.0267 0
      vertex 20.4323 -24.5337 0
    endloop
  endfacet
  facet normal 0 0 -1
    outer loop
      vertex 19.5187 -24.9404 0
      vertex 20.4323 -24.5337 0
      vertex 20.1459 -26.0267 0
    endloop
  endfacet
  facet normal -0 0 -1
    outer loop
      vertex 20.4323 -24.5337 0
      vertex 19.5187 -24.9404 0
      vertex 20.1093 -23.5396 0
    endloop
  endfacet
  facet normal -0 0 -1
    outer loop
      vertex 20.1093 -23.5396 0
      vertex 19.1311 -23.7475 0
      vertex 20 -22.5 0
    endloop
  endfacet
  facet normal 0 0 -1
    outer loop
      vertex 19.1311 -23.7475 0
      vertex 20.1093 -23.5396 0
      vertex 19.5187 -24.9404 0
    endloop
  endfacet
  facet normal -0 0 -1
    outer loop
      vertex 40.8689 1.24747 0
      vertex 39.8907 1.03956 0
      vertex 40.4813 2.44042 0
    endloop
  endfacet
  facet normal 0 0 -1
    outer loop
      vertex 39.5677 2.03368 0
      vertex 40.4813 2.44042 0
      vertex 39.8907 1.03956 0
    endloop
  endfacet
  facet normal 0 0 -1
    outer loop
      vertex 39.5677 2.03368 0
      vertex 30.4813 24.9404 0
      vertex 40.4813 2.44042 0
    endloop
  endfacet
  facet normal 0 0 -1
    outer loop
      vertex 29.5677 24.5337 0
      vertex 30.4813 24.9404 0
      vertex 39.5677 2.03368 0
    endloop
  endfacet
  facet normal -0 0 -1
    outer loop
      vertex 30.4813 24.9404 0
      vertex 29.5677 24.5337 0
      vertex 29.8541 26.0267 0
    endloop
  endfacet
  facet normal 0 0 -1
    outer loop
      vertex 29.0451 25.4389 0
      vertex 29.8541 26.0267 0
      vertex 29.5677 24.5337 0
    endloop
  endfacet
  facet normal 0 0 -1
    outer loop
      vertex 29.0451 25.4389 0
      vertex 29.0148 26.9589 0
      vertex 29.8541 26.0267 0
    endloop
  endfacet
  facet normal 0 0 -1
    outer loop
      vertex 28.3457 26.2157 0
      vertex 29.0148 26.9589 0
      vertex 29.0451 25.4389 0
    endloop
  endfacet
  facet normal 0 0 -1
    outer loop
      vertex 28.3457 26.2157 0
      vertex 28 27.6962 0
      vertex 29.0148 26.9589 0
    endloop
  endfacet
  facet normal 0 0 -1
    outer loop
      vertex 27.5 26.8301 0
      vertex 28 27.6962 0
      vertex 28.3457 26.2157 0
    endloop
  endfacet
  facet normal 0 0 -1
    outer loop
      vertex 27.5 26.8301 0
      vertex 26.8541 28.2063 0
      vertex 28 27.6962 0
    endloop
  endfacet
  facet normal 0 0 -1
    outer loop
      vertex 26.5451 27.2553 0
      vertex 26.8541 28.2063 0
      vertex 27.5 26.8301 0
    endloop
  endfacet
  facet normal 0 0 -1
    outer loop
      vertex 26.5451 27.2553 0
      vertex 25.6272 28.4671 0
      vertex 26.8541 28.2063 0
    endloop
  endfacet
  facet normal 0 0 -1
    outer loop
      vertex 25.5226 27.4726 0
      vertex 25.6272 28.4671 0
      vertex 26.5451 27.2553 0
    endloop
  endfacet
  facet normal 0 0 -1
    outer loop
      vertex 24.4774 27.4726 0
      vertex 25.6272 28.4671 0
      vertex 25.5226 27.4726 0
    endloop
  endfacet
  facet normal 0 0 -1
    outer loop
      vertex 24.4774 27.4726 0
      vertex 24.3728 28.4671 0
      vertex 25.6272 28.4671 0
    endloop
  endfacet
  facet normal 0 0 -1
    outer loop
      vertex 23.4549 27.2553 0
      vertex 24.3728 28.4671 0
      vertex 24.4774 27.4726 0
    endloop
  endfacet
  facet normal 0 0 -1
    outer loop
      vertex 23.4549 27.2553 0
      vertex 23.1459 28.2063 0
      vertex 24.3728 28.4671 0
    endloop
  endfacet
  facet normal 0 0 -1
    outer loop
      vertex 22.5 26.8301 0
      vertex 23.1459 28.2063 0
      vertex 23.4549 27.2553 0
    endloop
  endfacet
  facet normal 0 0 -1
    outer loop
      vertex 22.5 26.8301 0
      vertex 22 27.6962 0
      vertex 23.1459 28.2063 0
    endloop
  endfacet
  facet normal 0 0 -1
    outer loop
      vertex 21.6543 26.2157 0
      vertex 22 27.6962 0
      vertex 22.5 26.8301 0
    endloop
  endfacet
  facet normal 0 0 -1
    outer loop
      vertex 21.6543 26.2157 0
      vertex 20.9852 26.9589 0
      vertex 22 27.6962 0
    endloop
  endfacet
  facet normal 0 0 -1
    outer loop
      vertex 20.9549 25.4389 0
      vertex 20.9852 26.9589 0
      vertex 21.6543 26.2157 0
    endloop
  endfacet
  facet normal 0 0 -1
    outer loop
      vertex 20.1459 26.0267 0
      vertex 20.9549 25.4389 0
      vertex 20.4323 24.5337 0
    endloop
  endfacet
  facet normal 0 0 -1
    outer loop
      vertex 20.9549 25.4389 0
      vertex 20.1459 26.0267 0
      vertex 20.9852 26.9589 0
    endloop
  endfacet
  facet normal 0 0 -1
    outer loop
      vertex 19.5187 24.9404 0
      vertex 20.4323 24.5337 0
      vertex 20.1093 23.5396 0
    endloop
  endfacet
  facet normal 0 0 -1
    outer loop
      vertex 19.1311 23.7475 0
      vertex 20.1093 23.5396 0
      vertex 20 22.5 0
    endloop
  endfacet
  facet normal 0 0 -1
    outer loop
      vertex 20.4323 24.5337 0
      vertex 19.5187 24.9404 0
      vertex 20.1459 26.0267 0
    endloop
  endfacet
  facet normal 0 0 -1
    outer loop
      vertex 20 -22.5 0
      vertex 19 -22.5 0
      vertex 20 22.5 0
    endloop
  endfacet
  facet normal -0 0 -1
    outer loop
      vertex 20 -22.5 0
      vertex 19.1311 -23.7475 0
      vertex 19 -22.5 0
    endloop
  endfacet
  facet normal 0 0 -1
    outer loop
      vertex 19 22.5 0
      vertex 20 22.5 0
      vertex 19 -22.5 0
    endloop
  endfacet
  facet normal 0 -0 -1
    outer loop
      vertex 19.1311 23.7475 0
      vertex 20 22.5 0
      vertex 19 22.5 0
    endloop
  endfacet
  facet normal 0 0 -1
    outer loop
      vertex 20.1093 23.5396 0
      vertex 19.1311 23.7475 0
      vertex 19.5187 24.9404 0
    endloop
  endfacet
  facet normal 0.994522 0.104529 0
    outer loop
      vertex 41 0 45
      vertex 40.8689 1.24747 0
      vertex 40.8689 1.24747 45
    endloop
  endfacet
  facet normal 0.994522 0.104529 0
    outer loop
      vertex 40.8689 1.24747 0
      vertex 41 0 45
      vertex 41 0 0
    endloop
  endfacet
  facet normal 0 1 -0
    outer loop
      vertex 25.6272 28.4671 0
      vertex 24.3728 28.4671 45
      vertex 25.6272 28.4671 45
    endloop
  endfacet
  facet normal 0 1 0
    outer loop
      vertex 24.3728 28.4671 45
      vertex 25.6272 28.4671 0
      vertex 24.3728 28.4671 0
    endloop
  endfacet
  facet normal -0.587786 0.809016 0
    outer loop
      vertex 22 27.6962 0
      vertex 20.9852 26.9589 45
      vertex 22 27.6962 45
    endloop
  endfacet
  facet normal -0.587786 0.809016 0
    outer loop
      vertex 20.9852 26.9589 45
      vertex 22 27.6962 0
      vertex 20.9852 26.9589 0
    endloop
  endfacet
  facet normal 0.913812 -0.406138 0
    outer loop
      vertex 30.4813 -24.9404 45
      vertex 40.4813 -2.44042 0
      vertex 40.4813 -2.44042 45
    endloop
  endfacet
  facet normal 0.913812 -0.406138 0
    outer loop
      vertex 40.4813 -2.44042 0
      vertex 30.4813 -24.9404 45
      vertex 30.4813 -24.9404 0
    endloop
  endfacet
  facet normal -0.866025 -0.500001 0
    outer loop
      vertex 20.1459 -26.0267 0
      vertex 19.5187 -24.9404 45
      vertex 19.5187 -24.9404 0
    endloop
  endfacet
  facet normal -0.866025 -0.500001 0
    outer loop
      vertex 19.5187 -24.9404 45
      vertex 20.1459 -26.0267 0
      vertex 20.1459 -26.0267 45
    endloop
  endfacet
  facet normal 0.866025 -0.500001 0
    outer loop
      vertex 29.8541 -26.0267 45
      vertex 30.4813 -24.9404 0
      vertex 30.4813 -24.9404 45
    endloop
  endfacet
  facet normal 0.866025 -0.500001 0
    outer loop
      vertex 30.4813 -24.9404 0
      vertex 29.8541 -26.0267 45
      vertex 29.8541 -26.0267 0
    endloop
  endfacet
  facet normal 0.951057 -0.309016 0
    outer loop
      vertex 40.4813 -2.44042 45
      vertex 40.8689 -1.24747 0
      vertex 40.8689 -1.24747 45
    endloop
  endfacet
  facet normal 0.951057 -0.309016 0
    outer loop
      vertex 40.8689 -1.24747 0
      vertex 40.4813 -2.44042 45
      vertex 40.4813 -2.44042 0
    endloop
  endfacet
  facet normal 0.743144 -0.669131 0
    outer loop
      vertex 29.0148 -26.9589 45
      vertex 29.8541 -26.0267 0
      vertex 29.8541 -26.0267 45
    endloop
  endfacet
  facet normal 0.743144 -0.669131 0
    outer loop
      vertex 29.8541 -26.0267 0
      vertex 29.0148 -26.9589 45
      vertex 29.0148 -26.9589 0
    endloop
  endfacet
  facet normal 0.207911 -0.978148 0
    outer loop
      vertex 25.6272 -28.4671 0
      vertex 26.8541 -28.2063 45
      vertex 25.6272 -28.4671 45
    endloop
  endfacet
  facet normal 0.207911 -0.978148 0
    outer loop
      vertex 26.8541 -28.2063 45
      vertex 25.6272 -28.4671 0
      vertex 26.8541 -28.2063 0
    endloop
  endfacet
  facet normal 0.587786 -0.809016 0
    outer loop
      vertex 28 -27.6962 0
      vertex 29.0148 -26.9589 45
      vertex 28 -27.6962 45
    endloop
  endfacet
  facet normal 0.587786 -0.809016 0
    outer loop
      vertex 29.0148 -26.9589 45
      vertex 28 -27.6962 0
      vertex 29.0148 -26.9589 0
    endloop
  endfacet
  facet normal -0.406737 -0.913545 0
    outer loop
      vertex 22 -27.6962 0
      vertex 23.1459 -28.2063 45
      vertex 22 -27.6962 45
    endloop
  endfacet
  facet normal -0.406737 -0.913545 -0
    outer loop
      vertex 23.1459 -28.2063 45
      vertex 22 -27.6962 0
      vertex 23.1459 -28.2063 0
    endloop
  endfacet
  facet normal -0.743144 -0.669131 0
    outer loop
      vertex 20.9852 -26.9589 0
      vertex 20.1459 -26.0267 45
      vertex 20.1459 -26.0267 0
    endloop
  endfacet
  facet normal -0.743144 -0.669131 0
    outer loop
      vertex 20.1459 -26.0267 45
      vertex 20.9852 -26.9589 0
      vertex 20.9852 -26.9589 45
    endloop
  endfacet
  facet normal -0.951057 -0.309016 0
    outer loop
      vertex 19.5187 -24.9404 0
      vertex 19.1311 -23.7475 45
      vertex 19.1311 -23.7475 0
    endloop
  endfacet
  facet normal -0.951057 -0.309016 0
    outer loop
      vertex 19.1311 -23.7475 45
      vertex 19.5187 -24.9404 0
      vertex 19.5187 -24.9404 45
    endloop
  endfacet
  facet normal 0 -1 0
    outer loop
      vertex 24.3728 -28.4671 0
      vertex 25.6272 -28.4671 45
      vertex 24.3728 -28.4671 45
    endloop
  endfacet
  facet normal 0 -1 -0
    outer loop
      vertex 25.6272 -28.4671 45
      vertex 24.3728 -28.4671 0
      vertex 25.6272 -28.4671 0
    endloop
  endfacet
  facet normal -0.207911 -0.978148 0
    outer loop
      vertex 23.1459 -28.2063 0
      vertex 24.3728 -28.4671 45
      vertex 23.1459 -28.2063 45
    endloop
  endfacet
  facet normal -0.207911 -0.978148 -0
    outer loop
      vertex 24.3728 -28.4671 45
      vertex 23.1459 -28.2063 0
      vertex 24.3728 -28.4671 0
    endloop
  endfacet
  facet normal 0.406737 -0.913545 0
    outer loop
      vertex 26.8541 -28.2063 0
      vertex 28 -27.6962 45
      vertex 26.8541 -28.2063 45
    endloop
  endfacet
  facet normal 0.406737 -0.913545 0
    outer loop
      vertex 28 -27.6962 45
      vertex 26.8541 -28.2063 0
      vertex 28 -27.6962 0
    endloop
  endfacet
  facet normal -0.587786 -0.809016 0
    outer loop
      vertex 20.9852 -26.9589 0
      vertex 22 -27.6962 45
      vertex 20.9852 -26.9589 45
    endloop
  endfacet
  facet normal -0.587786 -0.809016 -0
    outer loop
      vertex 22 -27.6962 45
      vertex 20.9852 -26.9589 0
      vertex 22 -27.6962 0
    endloop
  endfacet
  facet normal -0.743145 -0.669131 0
    outer loop
      vertex 29.0451 25.4389 0
      vertex 28.3457 26.2157 45
      vertex 28.3457 26.2157 0
    endloop
  endfacet
  facet normal -0.743145 -0.669131 0
    outer loop
      vertex 28.3457 26.2157 45
      vertex 29.0451 25.4389 0
      vertex 29.0451 25.4389 45
    endloop
  endfacet
  facet normal -0.866026 -0.499999 0
    outer loop
      vertex 29.5677 24.5337 0
      vertex 29.0451 25.4389 45
      vertex 29.0451 25.4389 0
    endloop
  endfacet
  facet normal -0.866026 -0.499999 0
    outer loop
      vertex 29.0451 25.4389 45
      vertex 29.5677 24.5337 0
      vertex 29.5677 24.5337 45
    endloop
  endfacet
  facet normal 0.406737 -0.913545 0
    outer loop
      vertex 22.5 26.8301 0
      vertex 23.4549 27.2553 45
      vertex 22.5 26.8301 45
    endloop
  endfacet
  facet normal 0.406737 -0.913545 0
    outer loop
      vertex 23.4549 27.2553 45
      vertex 22.5 26.8301 0
      vertex 23.4549 27.2553 0
    endloop
  endfacet
  facet normal 0.994522 -0.104529 0
    outer loop
      vertex 20 22.5 45
      vertex 20.1093 23.5396 0
      vertex 20.1093 23.5396 45
    endloop
  endfacet
  facet normal 0.994522 -0.104529 0
    outer loop
      vertex 20.1093 23.5396 0
      vertex 20 22.5 45
      vertex 20 22.5 0
    endloop
  endfacet
  facet normal -0.913812 -0.406138 0
    outer loop
      vertex 39.5677 2.03368 0
      vertex 29.5677 24.5337 45
      vertex 29.5677 24.5337 0
    endloop
  endfacet
  facet normal -0.913812 -0.406138 0
    outer loop
      vertex 29.5677 24.5337 45
      vertex 39.5677 2.03368 0
      vertex 39.5677 2.03368 45
    endloop
  endfacet
  facet normal -0.994522 0.104527 0
    outer loop
      vertex 39.8907 -1.03956 0
      vertex 40 0 45
      vertex 40 0 0
    endloop
  endfacet
  facet normal -0.994522 0.104527 0
    outer loop
      vertex 40 0 45
      vertex 39.8907 -1.03956 0
      vertex 39.8907 -1.03956 45
    endloop
  endfacet
  facet normal -0.951056 -0.309019 0
    outer loop
      vertex 39.8907 1.03956 0
      vertex 39.5677 2.03368 45
      vertex 39.5677 2.03368 0
    endloop
  endfacet
  facet normal -0.951056 -0.309019 0
    outer loop
      vertex 39.5677 2.03368 45
      vertex 39.8907 1.03956 0
      vertex 39.8907 1.03956 45
    endloop
  endfacet
  facet normal -0.587785 0.809017 0
    outer loop
      vertex 28.3457 -26.2157 0
      vertex 27.5 -26.8301 45
      vertex 28.3457 -26.2157 45
    endloop
  endfacet
  facet normal -0.587785 0.809017 0
    outer loop
      vertex 27.5 -26.8301 45
      vertex 28.3457 -26.2157 0
      vertex 27.5 -26.8301 0
    endloop
  endfacet
  facet normal -0.587785 -0.809017 0
    outer loop
      vertex 27.5 26.8301 0
      vertex 28.3457 26.2157 45
      vertex 27.5 26.8301 45
    endloop
  endfacet
  facet normal -0.587785 -0.809017 -0
    outer loop
      vertex 28.3457 26.2157 45
      vertex 27.5 26.8301 0
      vertex 28.3457 26.2157 0
    endloop
  endfacet
  facet normal -0.406737 -0.913545 0
    outer loop
      vertex 26.5451 27.2553 0
      vertex 27.5 26.8301 45
      vertex 26.5451 27.2553 45
    endloop
  endfacet
  facet normal -0.406737 -0.913545 -0
    outer loop
      vertex 27.5 26.8301 45
      vertex 26.5451 27.2553 0
      vertex 27.5 26.8301 0
    endloop
  endfacet
  facet normal -0.20791 -0.978148 0
    outer loop
      vertex 25.5226 27.4726 0
      vertex 26.5451 27.2553 45
      vertex 25.5226 27.4726 45
    endloop
  endfacet
  facet normal -0.20791 -0.978148 -0
    outer loop
      vertex 26.5451 27.2553 45
      vertex 25.5226 27.4726 0
      vertex 26.5451 27.2553 0
    endloop
  endfacet
  facet normal 0.743145 -0.669131 0
    outer loop
      vertex 20.9549 25.4389 45
      vertex 21.6543 26.2157 0
      vertex 21.6543 26.2157 45
    endloop
  endfacet
  facet normal 0.743145 -0.669131 0
    outer loop
      vertex 21.6543 26.2157 0
      vertex 20.9549 25.4389 45
      vertex 20.9549 25.4389 0
    endloop
  endfacet
  facet normal 0.951056 -0.309017 0
    outer loop
      vertex 20.1093 23.5396 45
      vertex 20.4323 24.5337 0
      vertex 20.4323 24.5337 45
    endloop
  endfacet
  facet normal 0.951056 -0.309017 0
    outer loop
      vertex 20.4323 24.5337 0
      vertex 20.1093 23.5396 45
      vertex 20.1093 23.5396 0
    endloop
  endfacet
  facet normal 1 -0 0
    outer loop
      vertex 20 -22.5 45
      vertex 20 22.5 0
      vertex 20 22.5 45
    endloop
  endfacet
  facet normal 1 0 0
    outer loop
      vertex 20 22.5 0
      vertex 20 -22.5 45
      vertex 20 -22.5 0
    endloop
  endfacet
  facet normal 0.994522 0.104529 0
    outer loop
      vertex 20.1093 -23.5396 45
      vertex 20 -22.5 0
      vertex 20 -22.5 45
    endloop
  endfacet
  facet normal 0.994522 0.104529 0
    outer loop
      vertex 20 -22.5 0
      vertex 20.1093 -23.5396 45
      vertex 20.1093 -23.5396 0
    endloop
  endfacet
  facet normal -0.951056 0.309019 0
    outer loop
      vertex 39.5677 -2.03368 0
      vertex 39.8907 -1.03956 45
      vertex 39.8907 -1.03956 0
    endloop
  endfacet
  facet normal -0.951056 0.309019 0
    outer loop
      vertex 39.8907 -1.03956 45
      vertex 39.5677 -2.03368 0
      vertex 39.5677 -2.03368 45
    endloop
  endfacet
  facet normal 0.866026 0.499999 0
    outer loop
      vertex 20.9549 -25.4389 45
      vertex 20.4323 -24.5337 0
      vertex 20.4323 -24.5337 45
    endloop
  endfacet
  facet normal 0.866026 0.499999 0
    outer loop
      vertex 20.4323 -24.5337 0
      vertex 20.9549 -25.4389 45
      vertex 20.9549 -25.4389 0
    endloop
  endfacet
  facet normal -0.994522 -0.104527 0
    outer loop
      vertex 40 0 0
      vertex 39.8907 1.03956 45
      vertex 39.8907 1.03956 0
    endloop
  endfacet
  facet normal -0.994522 -0.104527 0
    outer loop
      vertex 39.8907 1.03956 45
      vertex 40 0 0
      vertex 40 0 45
    endloop
  endfacet
  facet normal 0 -1 0
    outer loop
      vertex 24.4774 27.4726 0
      vertex 25.5226 27.4726 45
      vertex 24.4774 27.4726 45
    endloop
  endfacet
  facet normal 0 -1 -0
    outer loop
      vertex 25.5226 27.4726 45
      vertex 24.4774 27.4726 0
      vertex 25.5226 27.4726 0
    endloop
  endfacet
  facet normal 0.20791 -0.978148 0
    outer loop
      vertex 23.4549 27.2553 0
      vertex 24.4774 27.4726 45
      vertex 23.4549 27.2553 45
    endloop
  endfacet
  facet normal 0.20791 -0.978148 0
    outer loop
      vertex 24.4774 27.4726 45
      vertex 23.4549 27.2553 0
      vertex 24.4774 27.4726 0
    endloop
  endfacet
  facet normal 0.587785 -0.809017 0
    outer loop
      vertex 21.6543 26.2157 0
      vertex 22.5 26.8301 45
      vertex 21.6543 26.2157 45
    endloop
  endfacet
  facet normal 0.587785 -0.809017 0
    outer loop
      vertex 22.5 26.8301 45
      vertex 21.6543 26.2157 0
      vertex 22.5 26.8301 0
    endloop
  endfacet
  facet normal 0.866026 -0.499999 0
    outer loop
      vertex 20.4323 24.5337 45
      vertex 20.9549 25.4389 0
      vertex 20.9549 25.4389 45
    endloop
  endfacet
  facet normal 0.866026 -0.499999 0
    outer loop
      vertex 20.9549 25.4389 0
      vertex 20.4323 24.5337 45
      vertex 20.4323 24.5337 0
    endloop
  endfacet
  facet normal -0.913812 0.406138 0
    outer loop
      vertex 29.5677 -24.5337 0
      vertex 39.5677 -2.03368 45
      vertex 39.5677 -2.03368 0
    endloop
  endfacet
  facet normal -0.913812 0.406138 0
    outer loop
      vertex 39.5677 -2.03368 45
      vertex 29.5677 -24.5337 0
      vertex 29.5677 -24.5337 45
    endloop
  endfacet
  facet normal 0.406737 0.913545 -0
    outer loop
      vertex 23.4549 -27.2553 0
      vertex 22.5 -26.8301 45
      vertex 23.4549 -27.2553 45
    endloop
  endfacet
  facet normal 0.406737 0.913545 0
    outer loop
      vertex 22.5 -26.8301 45
      vertex 23.4549 -27.2553 0
      vertex 22.5 -26.8301 0
    endloop
  endfacet
  facet normal 0.743145 0.669131 0
    outer loop
      vertex 21.6543 -26.2157 45
      vertex 20.9549 -25.4389 0
      vertex 20.9549 -25.4389 45
    endloop
  endfacet
  facet normal 0.743145 0.669131 0
    outer loop
      vertex 20.9549 -25.4389 0
      vertex 21.6543 -26.2157 45
      vertex 21.6543 -26.2157 0
    endloop
  endfacet
  facet normal 0.951056 0.309017 0
    outer loop
      vertex 20.4323 -24.5337 45
      vertex 20.1093 -23.5396 0
      vertex 20.1093 -23.5396 45
    endloop
  endfacet
  facet normal 0.951056 0.309017 0
    outer loop
      vertex 20.1093 -23.5396 0
      vertex 20.4323 -24.5337 45
      vertex 20.4323 -24.5337 0
    endloop
  endfacet
  facet normal -0.866026 0.499999 0
    outer loop
      vertex 29.0451 -25.4389 0
      vertex 29.5677 -24.5337 45
      vertex 29.5677 -24.5337 0
    endloop
  endfacet
  facet normal -0.866026 0.499999 0
    outer loop
      vertex 29.5677 -24.5337 45
      vertex 29.0451 -25.4389 0
      vertex 29.0451 -25.4389 45
    endloop
  endfacet
  facet normal -0.743145 0.669131 0
    outer loop
      vertex 28.3457 -26.2157 0
      vertex 29.0451 -25.4389 45
      vertex 29.0451 -25.4389 0
    endloop
  endfacet
  facet normal -0.743145 0.669131 0
    outer loop
      vertex 29.0451 -25.4389 45
      vertex 28.3457 -26.2157 0
      vertex 28.3457 -26.2157 45
    endloop
  endfacet
  facet normal -0.20791 0.978148 0
    outer loop
      vertex 26.5451 -27.2553 0
      vertex 25.5226 -27.4726 45
      vertex 26.5451 -27.2553 45
    endloop
  endfacet
  facet normal -0.20791 0.978148 0
    outer loop
      vertex 25.5226 -27.4726 45
      vertex 26.5451 -27.2553 0
      vertex 25.5226 -27.4726 0
    endloop
  endfacet
  facet normal -0.406737 0.913545 0
    outer loop
      vertex 27.5 -26.8301 0
      vertex 26.5451 -27.2553 45
      vertex 27.5 -26.8301 45
    endloop
  endfacet
  facet normal -0.406737 0.913545 0
    outer loop
      vertex 26.5451 -27.2553 45
      vertex 27.5 -26.8301 0
      vertex 26.5451 -27.2553 0
    endloop
  endfacet
  facet normal 0.20791 0.978148 -0
    outer loop
      vertex 24.4774 -27.4726 0
      vertex 23.4549 -27.2553 45
      vertex 24.4774 -27.4726 45
    endloop
  endfacet
  facet normal 0.20791 0.978148 0
    outer loop
      vertex 23.4549 -27.2553 45
      vertex 24.4774 -27.4726 0
      vertex 23.4549 -27.2553 0
    endloop
  endfacet
  facet normal 0 1 -0
    outer loop
      vertex 25.5226 -27.4726 0
      vertex 24.4774 -27.4726 45
      vertex 25.5226 -27.4726 45
    endloop
  endfacet
  facet normal 0 1 0
    outer loop
      vertex 24.4774 -27.4726 45
      vertex 25.5226 -27.4726 0
      vertex 24.4774 -27.4726 0
    endloop
  endfacet
  facet normal 0.587785 0.809017 -0
    outer loop
      vertex 22.5 -26.8301 0
      vertex 21.6543 -26.2157 45
      vertex 22.5 -26.8301 45
    endloop
  endfacet
  facet normal 0.587785 0.809017 0
    outer loop
      vertex 21.6543 -26.2157 45
      vertex 22.5 -26.8301 0
      vertex 21.6543 -26.2157 0
    endloop
  endfacet
endsolid OpenSCAD_Model
