<?xml version="1.0" encoding="utf-8" standalone="no"?>
<!DOCTYPE svg PUBLIC "-//W3C//DTD SVG 1.1//EN"
  "http://www.w3.org/Graphics/SVG/1.1/DTD/svg11.dtd">
<!-- Created with matplotlib (https://matplotlib.org/) -->
<svg height="345.6pt" version="1.1" viewBox="0 0 460.8 345.6" width="460.8pt" xmlns="http://www.w3.org/2000/svg" xmlns:xlink="http://www.w3.org/1999/xlink">
 <defs>
  <style type="text/css">
*{stroke-linecap:butt;stroke-linejoin:round;}
  </style>
 </defs>
 <g id="figure_1">
  <g id="patch_1">
   <path d="M 0 345.6 
L 460.8 345.6 
L 460.8 0 
L 0 0 
z
" style="fill:#ffffff;"/>
  </g>
  <g id="axes_1">
   <g id="patch_2">
    <path d="M 57.6 307.584 
L 414.72 307.584 
L 414.72 41.472 
L 57.6 41.472 
z
" style="fill:#ffffff;"/>
   </g>
   <g id="matplotlib.axis_1">
    <g id="xtick_1">
     <g id="line2d_1">
      <defs>
       <path d="M 0 0 
L 0 3.5 
" id="m2d69f65515" style="stroke:#000000;stroke-width:0.8;"/>
      </defs>
      <g>
       <use style="stroke:#000000;stroke-width:0.8;" x="80.973186" xlink:href="#m2d69f65515" y="307.584"/>
      </g>
     </g>
     <g id="text_1">
      <!-- 0.6 -->
      <defs>
       <path d="M 31.78125 66.40625 
Q 24.171875 66.40625 20.328125 58.90625 
Q 16.5 51.421875 16.5 36.375 
Q 16.5 21.390625 20.328125 13.890625 
Q 24.171875 6.390625 31.78125 6.390625 
Q 39.453125 6.390625 43.28125 13.890625 
Q 47.125 21.390625 47.125 36.375 
Q 47.125 51.421875 43.28125 58.90625 
Q 39.453125 66.40625 31.78125 66.40625 
z
M 31.78125 74.21875 
Q 44.046875 74.21875 50.515625 64.515625 
Q 56.984375 54.828125 56.984375 36.375 
Q 56.984375 17.96875 50.515625 8.265625 
Q 44.046875 -1.421875 31.78125 -1.421875 
Q 19.53125 -1.421875 13.0625 8.265625 
Q 6.59375 17.96875 6.59375 36.375 
Q 6.59375 54.828125 13.0625 64.515625 
Q 19.53125 74.21875 31.78125 74.21875 
z
" id="DejaVuSans-48"/>
       <path d="M 10.6875 12.40625 
L 21 12.40625 
L 21 0 
L 10.6875 0 
z
" id="DejaVuSans-46"/>
       <path d="M 33.015625 40.375 
Q 26.375 40.375 22.484375 35.828125 
Q 18.609375 31.296875 18.609375 23.390625 
Q 18.609375 15.53125 22.484375 10.953125 
Q 26.375 6.390625 33.015625 6.390625 
Q 39.65625 6.390625 43.53125 10.953125 
Q 47.40625 15.53125 47.40625 23.390625 
Q 47.40625 31.296875 43.53125 35.828125 
Q 39.65625 40.375 33.015625 40.375 
z
M 52.59375 71.296875 
L 52.59375 62.3125 
Q 48.875 64.0625 45.09375 64.984375 
Q 41.3125 65.921875 37.59375 65.921875 
Q 27.828125 65.921875 22.671875 59.328125 
Q 17.53125 52.734375 16.796875 39.40625 
Q 19.671875 43.65625 24.015625 45.921875 
Q 28.375 48.1875 33.59375 48.1875 
Q 44.578125 48.1875 50.953125 41.515625 
Q 57.328125 34.859375 57.328125 23.390625 
Q 57.328125 12.15625 50.6875 5.359375 
Q 44.046875 -1.421875 33.015625 -1.421875 
Q 20.359375 -1.421875 13.671875 8.265625 
Q 6.984375 17.96875 6.984375 36.375 
Q 6.984375 53.65625 15.1875 63.9375 
Q 23.390625 74.21875 37.203125 74.21875 
Q 40.921875 74.21875 44.703125 73.484375 
Q 48.484375 72.75 52.59375 71.296875 
z
" id="DejaVuSans-54"/>
      </defs>
      <g transform="translate(73.021623 322.182437)scale(0.1 -0.1)">
       <use xlink:href="#DejaVuSans-48"/>
       <use x="63.623047" xlink:href="#DejaVuSans-46"/>
       <use x="95.410156" xlink:href="#DejaVuSans-54"/>
      </g>
     </g>
    </g>
    <g id="xtick_2">
     <g id="line2d_2">
      <g>
       <use style="stroke:#000000;stroke-width:0.8;" x="137.643491" xlink:href="#m2d69f65515" y="307.584"/>
      </g>
     </g>
     <g id="text_2">
      <!-- 0.7 -->
      <defs>
       <path d="M 8.203125 72.90625 
L 55.078125 72.90625 
L 55.078125 68.703125 
L 28.609375 0 
L 18.3125 0 
L 43.21875 64.59375 
L 8.203125 64.59375 
z
" id="DejaVuSans-55"/>
      </defs>
      <g transform="translate(129.691929 322.182437)scale(0.1 -0.1)">
       <use xlink:href="#DejaVuSans-48"/>
       <use x="63.623047" xlink:href="#DejaVuSans-46"/>
       <use x="95.410156" xlink:href="#DejaVuSans-55"/>
      </g>
     </g>
    </g>
    <g id="xtick_3">
     <g id="line2d_3">
      <g>
       <use style="stroke:#000000;stroke-width:0.8;" x="194.313796" xlink:href="#m2d69f65515" y="307.584"/>
      </g>
     </g>
     <g id="text_3">
      <!-- 0.8 -->
      <defs>
       <path d="M 31.78125 34.625 
Q 24.75 34.625 20.71875 30.859375 
Q 16.703125 27.09375 16.703125 20.515625 
Q 16.703125 13.921875 20.71875 10.15625 
Q 24.75 6.390625 31.78125 6.390625 
Q 38.8125 6.390625 42.859375 10.171875 
Q 46.921875 13.96875 46.921875 20.515625 
Q 46.921875 27.09375 42.890625 30.859375 
Q 38.875 34.625 31.78125 34.625 
z
M 21.921875 38.8125 
Q 15.578125 40.375 12.03125 44.71875 
Q 8.5 49.078125 8.5 55.328125 
Q 8.5 64.0625 14.71875 69.140625 
Q 20.953125 74.21875 31.78125 74.21875 
Q 42.671875 74.21875 48.875 69.140625 
Q 55.078125 64.0625 55.078125 55.328125 
Q 55.078125 49.078125 51.53125 44.71875 
Q 48 40.375 41.703125 38.8125 
Q 48.828125 37.15625 52.796875 32.3125 
Q 56.78125 27.484375 56.78125 20.515625 
Q 56.78125 9.90625 50.3125 4.234375 
Q 43.84375 -1.421875 31.78125 -1.421875 
Q 19.734375 -1.421875 13.25 4.234375 
Q 6.78125 9.90625 6.78125 20.515625 
Q 6.78125 27.484375 10.78125 32.3125 
Q 14.796875 37.15625 21.921875 38.8125 
z
M 18.3125 54.390625 
Q 18.3125 48.734375 21.84375 45.5625 
Q 25.390625 42.390625 31.78125 42.390625 
Q 38.140625 42.390625 41.71875 45.5625 
Q 45.3125 48.734375 45.3125 54.390625 
Q 45.3125 60.0625 41.71875 63.234375 
Q 38.140625 66.40625 31.78125 66.40625 
Q 25.390625 66.40625 21.84375 63.234375 
Q 18.3125 60.0625 18.3125 54.390625 
z
" id="DejaVuSans-56"/>
      </defs>
      <g transform="translate(186.362234 322.182437)scale(0.1 -0.1)">
       <use xlink:href="#DejaVuSans-48"/>
       <use x="63.623047" xlink:href="#DejaVuSans-46"/>
       <use x="95.410156" xlink:href="#DejaVuSans-56"/>
      </g>
     </g>
    </g>
    <g id="xtick_4">
     <g id="line2d_4">
      <g>
       <use style="stroke:#000000;stroke-width:0.8;" x="250.984102" xlink:href="#m2d69f65515" y="307.584"/>
      </g>
     </g>
     <g id="text_4">
      <!-- 0.9 -->
      <defs>
       <path d="M 10.984375 1.515625 
L 10.984375 10.5 
Q 14.703125 8.734375 18.5 7.8125 
Q 22.3125 6.890625 25.984375 6.890625 
Q 35.75 6.890625 40.890625 13.453125 
Q 46.046875 20.015625 46.78125 33.40625 
Q 43.953125 29.203125 39.59375 26.953125 
Q 35.25 24.703125 29.984375 24.703125 
Q 19.046875 24.703125 12.671875 31.3125 
Q 6.296875 37.9375 6.296875 49.421875 
Q 6.296875 60.640625 12.9375 67.421875 
Q 19.578125 74.21875 30.609375 74.21875 
Q 43.265625 74.21875 49.921875 64.515625 
Q 56.59375 54.828125 56.59375 36.375 
Q 56.59375 19.140625 48.40625 8.859375 
Q 40.234375 -1.421875 26.421875 -1.421875 
Q 22.703125 -1.421875 18.890625 -0.6875 
Q 15.09375 0.046875 10.984375 1.515625 
z
M 30.609375 32.421875 
Q 37.25 32.421875 41.125 36.953125 
Q 45.015625 41.5 45.015625 49.421875 
Q 45.015625 57.28125 41.125 61.84375 
Q 37.25 66.40625 30.609375 66.40625 
Q 23.96875 66.40625 20.09375 61.84375 
Q 16.21875 57.28125 16.21875 49.421875 
Q 16.21875 41.5 20.09375 36.953125 
Q 23.96875 32.421875 30.609375 32.421875 
z
" id="DejaVuSans-57"/>
      </defs>
      <g transform="translate(243.032539 322.182437)scale(0.1 -0.1)">
       <use xlink:href="#DejaVuSans-48"/>
       <use x="63.623047" xlink:href="#DejaVuSans-46"/>
       <use x="95.410156" xlink:href="#DejaVuSans-57"/>
      </g>
     </g>
    </g>
    <g id="xtick_5">
     <g id="line2d_5">
      <g>
       <use style="stroke:#000000;stroke-width:0.8;" x="307.654407" xlink:href="#m2d69f65515" y="307.584"/>
      </g>
     </g>
     <g id="text_5">
      <!-- 1.0 -->
      <defs>
       <path d="M 12.40625 8.296875 
L 28.515625 8.296875 
L 28.515625 63.921875 
L 10.984375 60.40625 
L 10.984375 69.390625 
L 28.421875 72.90625 
L 38.28125 72.90625 
L 38.28125 8.296875 
L 54.390625 8.296875 
L 54.390625 0 
L 12.40625 0 
z
" id="DejaVuSans-49"/>
      </defs>
      <g transform="translate(299.702845 322.182437)scale(0.1 -0.1)">
       <use xlink:href="#DejaVuSans-49"/>
       <use x="63.623047" xlink:href="#DejaVuSans-46"/>
       <use x="95.410156" xlink:href="#DejaVuSans-48"/>
      </g>
     </g>
    </g>
    <g id="xtick_6">
     <g id="line2d_6">
      <g>
       <use style="stroke:#000000;stroke-width:0.8;" x="364.324713" xlink:href="#m2d69f65515" y="307.584"/>
      </g>
     </g>
     <g id="text_6">
      <!-- 1.1 -->
      <g transform="translate(356.37315 322.182437)scale(0.1 -0.1)">
       <use xlink:href="#DejaVuSans-49"/>
       <use x="63.623047" xlink:href="#DejaVuSans-46"/>
       <use x="95.410156" xlink:href="#DejaVuSans-49"/>
      </g>
     </g>
    </g>
    <g id="text_7">
     <!-- 1e10 -->
     <defs>
      <path d="M 56.203125 29.59375 
L 56.203125 25.203125 
L 14.890625 25.203125 
Q 15.484375 15.921875 20.484375 11.0625 
Q 25.484375 6.203125 34.421875 6.203125 
Q 39.59375 6.203125 44.453125 7.46875 
Q 49.3125 8.734375 54.109375 11.28125 
L 54.109375 2.78125 
Q 49.265625 0.734375 44.1875 -0.34375 
Q 39.109375 -1.421875 33.890625 -1.421875 
Q 20.796875 -1.421875 13.15625 6.1875 
Q 5.515625 13.8125 5.515625 26.8125 
Q 5.515625 40.234375 12.765625 48.109375 
Q 20.015625 56 32.328125 56 
Q 43.359375 56 49.78125 48.890625 
Q 56.203125 41.796875 56.203125 29.59375 
z
M 47.21875 32.234375 
Q 47.125 39.59375 43.09375 43.984375 
Q 39.0625 48.390625 32.421875 48.390625 
Q 24.90625 48.390625 20.390625 44.140625 
Q 15.875 39.890625 15.1875 32.171875 
z
" id="DejaVuSans-101"/>
     </defs>
     <g transform="translate(389.479375 334.860562)scale(0.1 -0.1)">
      <use xlink:href="#DejaVuSans-49"/>
      <use x="63.623047" xlink:href="#DejaVuSans-101"/>
      <use x="125.146484" xlink:href="#DejaVuSans-49"/>
      <use x="188.769531" xlink:href="#DejaVuSans-48"/>
     </g>
    </g>
   </g>
   <g id="matplotlib.axis_2">
    <g id="ytick_1">
     <g id="line2d_7">
      <defs>
       <path d="M 0 0 
L -3.5 0 
" id="m7e28e57278" style="stroke:#000000;stroke-width:0.8;"/>
      </defs>
      <g>
       <use style="stroke:#000000;stroke-width:0.8;" x="57.6" xlink:href="#m7e28e57278" y="300.447728"/>
      </g>
     </g>
     <g id="text_8">
      <!-- −0.10 -->
      <defs>
       <path d="M 10.59375 35.5 
L 73.1875 35.5 
L 73.1875 27.203125 
L 10.59375 27.203125 
z
" id="DejaVuSans-8722"/>
      </defs>
      <g transform="translate(19.954687 304.246947)scale(0.1 -0.1)">
       <use xlink:href="#DejaVuSans-8722"/>
       <use x="83.789062" xlink:href="#DejaVuSans-48"/>
       <use x="147.412109" xlink:href="#DejaVuSans-46"/>
       <use x="179.199219" xlink:href="#DejaVuSans-49"/>
       <use x="242.822266" xlink:href="#DejaVuSans-48"/>
      </g>
     </g>
    </g>
    <g id="ytick_2">
     <g id="line2d_8">
      <g>
       <use style="stroke:#000000;stroke-width:0.8;" x="57.6" xlink:href="#m7e28e57278" y="269.329115"/>
      </g>
     </g>
     <g id="text_9">
      <!-- −0.08 -->
      <g transform="translate(19.954687 273.128333)scale(0.1 -0.1)">
       <use xlink:href="#DejaVuSans-8722"/>
       <use x="83.789062" xlink:href="#DejaVuSans-48"/>
       <use x="147.412109" xlink:href="#DejaVuSans-46"/>
       <use x="179.199219" xlink:href="#DejaVuSans-48"/>
       <use x="242.822266" xlink:href="#DejaVuSans-56"/>
      </g>
     </g>
    </g>
    <g id="ytick_3">
     <g id="line2d_9">
      <g>
       <use style="stroke:#000000;stroke-width:0.8;" x="57.6" xlink:href="#m7e28e57278" y="238.210502"/>
      </g>
     </g>
     <g id="text_10">
      <!-- −0.06 -->
      <g transform="translate(19.954687 242.00972)scale(0.1 -0.1)">
       <use xlink:href="#DejaVuSans-8722"/>
       <use x="83.789062" xlink:href="#DejaVuSans-48"/>
       <use x="147.412109" xlink:href="#DejaVuSans-46"/>
       <use x="179.199219" xlink:href="#DejaVuSans-48"/>
       <use x="242.822266" xlink:href="#DejaVuSans-54"/>
      </g>
     </g>
    </g>
    <g id="ytick_4">
     <g id="line2d_10">
      <g>
       <use style="stroke:#000000;stroke-width:0.8;" x="57.6" xlink:href="#m7e28e57278" y="207.091888"/>
      </g>
     </g>
     <g id="text_11">
      <!-- −0.04 -->
      <defs>
       <path d="M 37.796875 64.3125 
L 12.890625 25.390625 
L 37.796875 25.390625 
z
M 35.203125 72.90625 
L 47.609375 72.90625 
L 47.609375 25.390625 
L 58.015625 25.390625 
L 58.015625 17.1875 
L 47.609375 17.1875 
L 47.609375 0 
L 37.796875 0 
L 37.796875 17.1875 
L 4.890625 17.1875 
L 4.890625 26.703125 
z
" id="DejaVuSans-52"/>
      </defs>
      <g transform="translate(19.954687 210.891107)scale(0.1 -0.1)">
       <use xlink:href="#DejaVuSans-8722"/>
       <use x="83.789062" xlink:href="#DejaVuSans-48"/>
       <use x="147.412109" xlink:href="#DejaVuSans-46"/>
       <use x="179.199219" xlink:href="#DejaVuSans-48"/>
       <use x="242.822266" xlink:href="#DejaVuSans-52"/>
      </g>
     </g>
    </g>
    <g id="ytick_5">
     <g id="line2d_11">
      <g>
       <use style="stroke:#000000;stroke-width:0.8;" x="57.6" xlink:href="#m7e28e57278" y="175.973275"/>
      </g>
     </g>
     <g id="text_12">
      <!-- −0.02 -->
      <defs>
       <path d="M 19.1875 8.296875 
L 53.609375 8.296875 
L 53.609375 0 
L 7.328125 0 
L 7.328125 8.296875 
Q 12.9375 14.109375 22.625 23.890625 
Q 32.328125 33.6875 34.8125 36.53125 
Q 39.546875 41.84375 41.421875 45.53125 
Q 43.3125 49.21875 43.3125 52.78125 
Q 43.3125 58.59375 39.234375 62.25 
Q 35.15625 65.921875 28.609375 65.921875 
Q 23.96875 65.921875 18.8125 64.3125 
Q 13.671875 62.703125 7.8125 59.421875 
L 7.8125 69.390625 
Q 13.765625 71.78125 18.9375 73 
Q 24.125 74.21875 28.421875 74.21875 
Q 39.75 74.21875 46.484375 68.546875 
Q 53.21875 62.890625 53.21875 53.421875 
Q 53.21875 48.921875 51.53125 44.890625 
Q 49.859375 40.875 45.40625 35.40625 
Q 44.1875 33.984375 37.640625 27.21875 
Q 31.109375 20.453125 19.1875 8.296875 
z
" id="DejaVuSans-50"/>
      </defs>
      <g transform="translate(19.954687 179.772494)scale(0.1 -0.1)">
       <use xlink:href="#DejaVuSans-8722"/>
       <use x="83.789062" xlink:href="#DejaVuSans-48"/>
       <use x="147.412109" xlink:href="#DejaVuSans-46"/>
       <use x="179.199219" xlink:href="#DejaVuSans-48"/>
       <use x="242.822266" xlink:href="#DejaVuSans-50"/>
      </g>
     </g>
    </g>
    <g id="ytick_6">
     <g id="line2d_12">
      <g>
       <use style="stroke:#000000;stroke-width:0.8;" x="57.6" xlink:href="#m7e28e57278" y="144.854662"/>
      </g>
     </g>
     <g id="text_13">
      <!-- 0.00 -->
      <g transform="translate(28.334375 148.653881)scale(0.1 -0.1)">
       <use xlink:href="#DejaVuSans-48"/>
       <use x="63.623047" xlink:href="#DejaVuSans-46"/>
       <use x="95.410156" xlink:href="#DejaVuSans-48"/>
       <use x="159.033203" xlink:href="#DejaVuSans-48"/>
      </g>
     </g>
    </g>
    <g id="ytick_7">
     <g id="line2d_13">
      <g>
       <use style="stroke:#000000;stroke-width:0.8;" x="57.6" xlink:href="#m7e28e57278" y="113.736049"/>
      </g>
     </g>
     <g id="text_14">
      <!-- 0.02 -->
      <g transform="translate(28.334375 117.535268)scale(0.1 -0.1)">
       <use xlink:href="#DejaVuSans-48"/>
       <use x="63.623047" xlink:href="#DejaVuSans-46"/>
       <use x="95.410156" xlink:href="#DejaVuSans-48"/>
       <use x="159.033203" xlink:href="#DejaVuSans-50"/>
      </g>
     </g>
    </g>
    <g id="ytick_8">
     <g id="line2d_14">
      <g>
       <use style="stroke:#000000;stroke-width:0.8;" x="57.6" xlink:href="#m7e28e57278" y="82.617436"/>
      </g>
     </g>
     <g id="text_15">
      <!-- 0.04 -->
      <g transform="translate(28.334375 86.416655)scale(0.1 -0.1)">
       <use xlink:href="#DejaVuSans-48"/>
       <use x="63.623047" xlink:href="#DejaVuSans-46"/>
       <use x="95.410156" xlink:href="#DejaVuSans-48"/>
       <use x="159.033203" xlink:href="#DejaVuSans-52"/>
      </g>
     </g>
    </g>
    <g id="ytick_9">
     <g id="line2d_15">
      <g>
       <use style="stroke:#000000;stroke-width:0.8;" x="57.6" xlink:href="#m7e28e57278" y="51.498823"/>
      </g>
     </g>
     <g id="text_16">
      <!-- 0.06 -->
      <g transform="translate(28.334375 55.298042)scale(0.1 -0.1)">
       <use xlink:href="#DejaVuSans-48"/>
       <use x="63.623047" xlink:href="#DejaVuSans-46"/>
       <use x="95.410156" xlink:href="#DejaVuSans-48"/>
       <use x="159.033203" xlink:href="#DejaVuSans-54"/>
      </g>
     </g>
    </g>
   </g>
   <g id="line2d_16">
    <path clip-path="url(#pbb8674001b)" d="M 73.832727 110.22859 
L 75.191114 124.137931 
L 76.549502 125.904498 
L 77.907889 125.832339 
L 79.266276 124.755659 
L 81.983051 120.252796 
L 83.341438 118.652929 
L 86.058212 118.860293 
L 87.416599 117.869114 
L 88.774987 114.561045 
L 90.133374 111.952756 
L 91.491761 111.4858 
L 92.850148 108.025198 
L 94.208536 104.080193 
L 96.92531 94.528018 
L 99.642084 82.542392 
L 102.358859 75.324051 
L 103.717246 72.866937 
L 105.075633 72.245011 
L 106.434021 72.646186 
L 107.792408 73.435996 
L 109.150795 72.850148 
L 110.509182 70.645911 
L 114.584344 65.364427 
L 115.942731 64.391612 
L 117.301118 53.568 
L 118.659506 65.445582 
L 120.017893 60.423886 
L 124.093054 55.262047 
L 125.451442 54.759065 
L 129.526603 54.96149 
L 130.88499 56.364162 
L 132.243378 58.709585 
L 133.601765 61.306802 
L 136.318539 68.159017 
L 139.035314 77.43134 
L 141.752088 86.826553 
L 143.110475 90.239134 
L 144.468863 94.56559 
L 145.82725 98.436866 
L 147.185637 103.296849 
L 148.544024 107.533166 
L 155.33596 121.351621 
L 158.052735 128.188641 
L 159.411122 130.681002 
L 160.769509 124.865676 
L 162.127897 140.99809 
L 163.486284 137.813752 
L 164.844671 137.724758 
L 166.203058 138.284308 
L 168.919833 140.642798 
L 170.27822 142.052398 
L 172.994994 144.212223 
L 175.711769 146.443169 
L 177.070156 147.325061 
L 178.428543 148.02886 
L 179.78693 148.921578 
L 182.503705 151.294327 
L 183.862092 152.90372 
L 185.220479 154.839069 
L 186.578866 157.488645 
L 187.937254 159.878109 
L 189.295641 162.689571 
L 192.012415 167.614147 
L 194.72919 173.542055 
L 197.445964 178.651446 
L 200.162739 182.247011 
L 201.521126 183.168419 
L 202.879513 183.46662 
L 204.2379 177.850755 
L 205.596288 186.032204 
L 206.954675 183.09709 
L 208.313062 181.425973 
L 209.671449 178.982199 
L 211.029836 176.300084 
L 213.746611 169.082218 
L 215.104998 164.25013 
L 216.463385 158.827776 
L 219.18016 149.694282 
L 220.538547 144.296137 
L 221.896934 140.50158 
L 224.613709 130.383295 
L 225.972096 126.221943 
L 228.68887 116.496723 
L 231.405645 110.373831 
L 234.122419 107.212733 
L 235.480806 106.472864 
L 236.839194 107.317177 
L 238.197581 108.34074 
L 239.555968 109.843868 
L 240.914355 112.468684 
L 242.272742 114.84731 
L 243.63113 116.730041 
L 244.989517 120.205453 
L 246.347904 124.708077 
L 247.706291 121.87564 
L 249.064679 133.56028 
L 250.423066 136.936555 
L 251.781453 139.722257 
L 253.13984 141.894886 
L 254.498227 142.807624 
L 255.856615 143.302215 
L 258.573389 145.451897 
L 264.006938 148.329396 
L 265.365325 148.650523 
L 266.723712 149.701731 
L 268.0821 148.045089 
L 269.440487 144.606715 
L 270.798874 140.078533 
L 272.157261 132.121581 
L 273.515649 123.463509 
L 274.874036 115.531786 
L 276.232423 109.213957 
L 277.59081 110.368055 
L 278.949197 121.310209 
L 280.307585 148.24664 
L 281.665972 185.993774 
L 283.024359 231.073454 
L 284.382746 267.25296 
L 285.741134 285.716124 
L 287.099521 293.468473 
L 288.457908 295.488 
L 289.816295 292.049535 
L 291.174682 281.881848 
L 292.53307 280.911107 
L 293.891457 274.147429 
L 296.608231 256.909259 
L 297.966618 247.574489 
L 299.325006 239.633969 
L 300.683393 230.91094 
L 302.04178 219.425996 
L 303.400167 211.267839 
L 304.758555 204.102652 
L 307.475329 193.514601 
L 308.833716 191.608971 
L 310.192103 188.382627 
L 311.550491 184.462301 
L 312.908878 182.163733 
L 314.267265 180.621087 
L 315.625652 178.551036 
L 316.98404 175.450771 
L 318.342427 172.835598 
L 321.059201 171.367169 
L 322.417588 170.629013 
L 323.775976 171.593027 
L 326.49275 175.929297 
L 329.209525 178.265367 
L 331.926299 179.001078 
L 333.284686 179.03276 
L 334.643073 173.538436 
L 336.001461 182.161276 
L 337.359848 181.473553 
L 338.718235 180.549673 
L 340.076622 180.790552 
L 344.151784 182.801529 
L 345.510171 185.206593 
L 346.868558 186.973353 
L 348.226946 187.891079 
L 349.585333 189.615765 
L 350.94372 192.217363 
L 352.302107 195.066724 
L 353.660494 197.008409 
L 355.018882 199.286797 
L 356.377269 201.902182 
L 357.735656 203.21966 
L 360.452431 204.27722 
L 363.169205 205.11692 
L 365.885979 205.189925 
L 367.244367 205.499871 
L 368.602754 205.055643 
L 369.961141 205.24571 
L 371.319528 204.606071 
L 372.677916 204.286475 
L 374.036303 204.53031 
L 375.39469 203.629603 
L 376.753077 202.589733 
L 378.111464 196.729592 
L 379.469852 202.190529 
L 380.828239 200.303813 
L 383.545013 194.961435 
L 384.903401 193.547556 
L 387.620175 189.613284 
L 388.978562 188.625766 
L 390.336949 188.316149 
L 394.412111 184.791359 
L 395.770498 183.999781 
L 397.128886 183.672115 
L 398.487273 182.523521 
L 398.487273 182.523521 
" style="fill:none;stroke:#1f77b4;stroke-linecap:square;stroke-width:1.5;"/>
   </g>
   <g id="line2d_17">
    <path clip-path="url(#pbb8674001b)" d="M 73.832727 151.990313 
L 75.191114 169.857093 
L 76.549502 168.542937 
L 77.907889 168.594739 
L 79.266276 167.916407 
L 80.624663 164.529451 
L 81.983051 162.531719 
L 83.341438 160.236161 
L 84.699825 157.389791 
L 86.058212 158.622707 
L 87.416599 159.198483 
L 88.774987 158.952909 
L 90.133374 159.294031 
L 91.491761 162.000489 
L 92.850148 164.06319 
L 94.208536 168.15424 
L 96.92531 172.517182 
L 99.642084 176.547831 
L 101.000472 176.615383 
L 102.358859 175.560867 
L 103.717246 173.102062 
L 105.075633 171.029196 
L 107.792408 162.761938 
L 109.150795 158.863816 
L 110.509182 155.675699 
L 111.867569 153.615303 
L 113.225957 151.034534 
L 114.584344 150.270889 
L 115.942731 148.047659 
L 117.301118 158.669438 
L 118.659506 143.406474 
L 121.37628 145.815193 
L 122.734667 146.684362 
L 124.093054 149.000832 
L 125.451442 149.936118 
L 128.168216 153.307028 
L 130.88499 155.678849 
L 132.243378 157.492135 
L 133.601765 158.455712 
L 136.318539 162.498232 
L 137.676927 163.778904 
L 139.035314 165.498167 
L 140.393701 165.598161 
L 141.752088 165.497707 
L 143.110475 165.940999 
L 144.468863 165.131787 
L 147.185637 161.840873 
L 151.260799 157.459642 
L 152.619186 156.280594 
L 153.977573 155.312654 
L 155.33596 155.252544 
L 158.052735 154.603521 
L 159.411122 153.852966 
L 160.769509 162.293701 
L 162.127897 148.978856 
L 163.486284 151.837314 
L 164.844671 151.848897 
L 166.203058 151.974365 
L 168.919833 151.249286 
L 170.27822 149.857606 
L 171.636607 148.913862 
L 172.994994 147.552639 
L 174.353382 147.001488 
L 178.428543 146.746092 
L 179.78693 146.374341 
L 181.145318 145.203349 
L 185.220479 138.427842 
L 186.578866 136.116379 
L 189.295641 133.349015 
L 190.654028 132.536782 
L 196.087577 131.06639 
L 197.445964 131.065763 
L 198.804351 131.292234 
L 200.162739 131.340258 
L 201.521126 132.206278 
L 202.879513 133.757352 
L 204.2379 139.458306 
L 205.596288 131.240148 
L 206.954675 132.707134 
L 208.313062 133.392792 
L 209.671449 134.503892 
L 211.029836 136.446015 
L 212.388224 138.713132 
L 213.746611 141.694684 
L 215.104998 144.384622 
L 216.463385 147.417704 
L 219.18016 152.195883 
L 220.538547 153.995956 
L 221.896934 155.611166 
L 223.255321 157.494621 
L 224.613709 159.683878 
L 227.330483 163.487278 
L 228.68887 164.798404 
L 230.047258 165.820412 
L 231.405645 166.619109 
L 232.764032 166.536633 
L 234.122419 165.749585 
L 235.480806 163.558973 
L 239.555968 152.964391 
L 242.272742 148.381669 
L 243.63113 145.048028 
L 244.989517 143.20093 
L 246.347904 140.237283 
L 247.706291 142.797638 
L 249.064679 131.912105 
L 250.423066 131.003941 
L 251.781453 128.97602 
L 253.13984 129.619905 
L 254.498227 130.592475 
L 255.856615 131.752041 
L 257.215002 132.64209 
L 258.573389 132.403382 
L 259.931776 130.864748 
L 261.290164 131.083259 
L 264.006938 127.71459 
L 266.723712 123.416893 
L 268.0821 122.706879 
L 269.440487 121.125657 
L 270.798874 120.86197 
L 272.157261 119.895463 
L 273.515649 121.014708 
L 274.874036 121.24539 
L 276.232423 121.811331 
L 277.59081 120.938824 
L 278.949197 115.172791 
L 280.307585 105.680215 
L 283.024359 78.619235 
L 284.382746 67.286873 
L 285.741134 61.786707 
L 287.099521 60.326002 
L 288.457908 60.510053 
L 289.816295 64.968268 
L 291.174682 76.672054 
L 292.53307 74.155788 
L 293.891457 78.310977 
L 295.249844 81.753053 
L 296.608231 86.454328 
L 297.966618 89.499011 
L 299.325006 93.637104 
L 300.683393 100.329425 
L 302.04178 106.277602 
L 303.400167 111.65927 
L 304.758555 116.1821 
L 306.116942 119.729422 
L 307.475329 120.950368 
L 308.833716 120.790597 
L 310.192103 122.191997 
L 311.550491 121.132142 
L 312.908878 121.126273 
L 314.267265 123.651488 
L 315.625652 124.170939 
L 316.98404 124.86159 
L 318.342427 127.145696 
L 319.700814 129.701519 
L 321.059201 131.345972 
L 322.417588 131.545303 
L 323.775976 131.303341 
L 325.134363 130.460539 
L 326.49275 131.003861 
L 327.851137 130.017513 
L 329.209525 128.067728 
L 331.926299 129.938379 
L 333.284686 130.180105 
L 334.643073 138.607116 
L 336.001461 133.10013 
L 337.359848 134.74729 
L 338.718235 135.378215 
L 340.076622 135.275336 
L 341.43501 137.138093 
L 342.793397 138.661394 
L 344.151784 138.289359 
L 345.510171 136.966774 
L 346.868558 137.483236 
L 348.226946 138.566713 
L 349.585333 138.088563 
L 350.94372 136.55548 
L 352.302107 137.96809 
L 353.660494 138.464584 
L 355.018882 137.424526 
L 357.735656 138.644896 
L 359.094043 138.70309 
L 360.452431 137.384129 
L 361.810818 137.818144 
L 363.169205 138.390346 
L 364.527592 139.201921 
L 365.885979 137.763932 
L 367.244367 139.291986 
L 368.602754 139.031144 
L 369.961141 139.341635 
L 371.319528 140.571533 
L 372.677916 140.306502 
L 374.036303 139.647628 
L 375.39469 142.124358 
L 376.753077 142.785554 
L 378.111464 147.327096 
L 379.469852 140.7658 
L 380.828239 143.262882 
L 382.186626 144.144286 
L 383.545013 142.435112 
L 386.261788 147.18139 
L 387.620175 147.885238 
L 388.978562 145.74995 
L 390.336949 145.967325 
L 391.695337 147.29887 
L 393.053724 148.395963 
L 394.412111 147.673192 
L 395.770498 145.666033 
L 397.128886 145.030043 
L 398.487273 146.121368 
L 398.487273 146.121368 
" style="fill:none;stroke:#ff7f0e;stroke-linecap:square;stroke-width:1.5;"/>
   </g>
   <g id="patch_3">
    <path d="M 57.6 307.584 
L 57.6 41.472 
" style="fill:none;stroke:#000000;stroke-linecap:square;stroke-linejoin:miter;stroke-width:0.8;"/>
   </g>
   <g id="patch_4">
    <path d="M 414.72 307.584 
L 414.72 41.472 
" style="fill:none;stroke:#000000;stroke-linecap:square;stroke-linejoin:miter;stroke-width:0.8;"/>
   </g>
   <g id="patch_5">
    <path d="M 57.6 307.584 
L 414.72 307.584 
" style="fill:none;stroke:#000000;stroke-linecap:square;stroke-linejoin:miter;stroke-width:0.8;"/>
   </g>
   <g id="patch_6">
    <path d="M 57.6 41.472 
L 414.72 41.472 
" style="fill:none;stroke:#000000;stroke-linecap:square;stroke-linejoin:miter;stroke-width:0.8;"/>
   </g>
  </g>
 </g>
 <defs>
  <clipPath id="pbb8674001b">
   <rect height="266.112" width="357.12" x="57.6" y="41.472"/>
  </clipPath>
 </defs>
</svg>
