G04 #@! TF.GenerationSoftware,KiCad,Pcbnew,5.1.5+dfsg1-2~bpo9+1*
G04 #@! TF.CreationDate,2020-08-13T15:15:27-04:00*
G04 #@! TF.ProjectId,freq_prescaler,66726571-5f70-4726-9573-63616c65722e,rev?*
G04 #@! TF.SameCoordinates,PX490d2c0PY18fc7c0*
G04 #@! TF.FileFunction,Copper,L1,Top*
G04 #@! TF.FilePolarity,Positive*
%FSLAX46Y46*%
G04 Gerber Fmt 4.6, Leading zero omitted, Abs format (unit mm)*
G04 Created by KiCad (PCBNEW 5.1.5+dfsg1-2~bpo9+1) date 2020-08-13 15:15:27*
%MOMM*%
%LPD*%
G04 APERTURE LIST*
%ADD10R,0.797560X1.198880*%
%ADD11R,1.198880X0.797560*%
%ADD12C,0.150000*%
%ADD13R,1.099820X0.998220*%
%ADD14R,0.998220X1.099820*%
%ADD15R,1.500000X1.500000*%
%ADD16R,0.800000X0.900000*%
%ADD17R,1.000000X1.000000*%
%ADD18R,4.000000X2.000000*%
%ADD19R,2.500000X1.000000*%
%ADD20R,2.300000X0.700000*%
%ADD21R,0.800000X0.700000*%
%ADD22R,1.700000X1.700000*%
%ADD23R,0.600000X1.550000*%
%ADD24R,1.550000X0.600000*%
%ADD25R,2.350000X2.350000*%
%ADD26C,0.400000*%
%ADD27C,1.000000*%
G04 APERTURE END LIST*
D10*
X19500840Y-57906400D03*
X21299160Y-57906400D03*
X19450841Y-48706400D03*
X21249161Y-48706400D03*
X19450840Y-39606400D03*
X21249160Y-39606400D03*
X19450840Y-30506400D03*
X21249160Y-30506400D03*
X24849160Y-16506400D03*
X23050840Y-16506400D03*
D11*
X17850000Y-11957240D03*
X17850000Y-13755560D03*
G04 #@! TA.AperFunction,SMDPad,CuDef*
D12*
G36*
X6790958Y-1760710D02*
G01*
X6805276Y-1762834D01*
X6819317Y-1766351D01*
X6832946Y-1771228D01*
X6846031Y-1777417D01*
X6858447Y-1784858D01*
X6870073Y-1793481D01*
X6880798Y-1803202D01*
X6890519Y-1813927D01*
X6899142Y-1825553D01*
X6906583Y-1837969D01*
X6912772Y-1851054D01*
X6917649Y-1864683D01*
X6921166Y-1878724D01*
X6923290Y-1893042D01*
X6924000Y-1907500D01*
X6924000Y-2202500D01*
X6923290Y-2216958D01*
X6921166Y-2231276D01*
X6917649Y-2245317D01*
X6912772Y-2258946D01*
X6906583Y-2272031D01*
X6899142Y-2284447D01*
X6890519Y-2296073D01*
X6880798Y-2306798D01*
X6870073Y-2316519D01*
X6858447Y-2325142D01*
X6846031Y-2332583D01*
X6832946Y-2338772D01*
X6819317Y-2343649D01*
X6805276Y-2347166D01*
X6790958Y-2349290D01*
X6776500Y-2350000D01*
X6431500Y-2350000D01*
X6417042Y-2349290D01*
X6402724Y-2347166D01*
X6388683Y-2343649D01*
X6375054Y-2338772D01*
X6361969Y-2332583D01*
X6349553Y-2325142D01*
X6337927Y-2316519D01*
X6327202Y-2306798D01*
X6317481Y-2296073D01*
X6308858Y-2284447D01*
X6301417Y-2272031D01*
X6295228Y-2258946D01*
X6290351Y-2245317D01*
X6286834Y-2231276D01*
X6284710Y-2216958D01*
X6284000Y-2202500D01*
X6284000Y-1907500D01*
X6284710Y-1893042D01*
X6286834Y-1878724D01*
X6290351Y-1864683D01*
X6295228Y-1851054D01*
X6301417Y-1837969D01*
X6308858Y-1825553D01*
X6317481Y-1813927D01*
X6327202Y-1803202D01*
X6337927Y-1793481D01*
X6349553Y-1784858D01*
X6361969Y-1777417D01*
X6375054Y-1771228D01*
X6388683Y-1766351D01*
X6402724Y-1762834D01*
X6417042Y-1760710D01*
X6431500Y-1760000D01*
X6776500Y-1760000D01*
X6790958Y-1760710D01*
G37*
G04 #@! TD.AperFunction*
G04 #@! TA.AperFunction,SMDPad,CuDef*
G36*
X6790958Y-2730710D02*
G01*
X6805276Y-2732834D01*
X6819317Y-2736351D01*
X6832946Y-2741228D01*
X6846031Y-2747417D01*
X6858447Y-2754858D01*
X6870073Y-2763481D01*
X6880798Y-2773202D01*
X6890519Y-2783927D01*
X6899142Y-2795553D01*
X6906583Y-2807969D01*
X6912772Y-2821054D01*
X6917649Y-2834683D01*
X6921166Y-2848724D01*
X6923290Y-2863042D01*
X6924000Y-2877500D01*
X6924000Y-3172500D01*
X6923290Y-3186958D01*
X6921166Y-3201276D01*
X6917649Y-3215317D01*
X6912772Y-3228946D01*
X6906583Y-3242031D01*
X6899142Y-3254447D01*
X6890519Y-3266073D01*
X6880798Y-3276798D01*
X6870073Y-3286519D01*
X6858447Y-3295142D01*
X6846031Y-3302583D01*
X6832946Y-3308772D01*
X6819317Y-3313649D01*
X6805276Y-3317166D01*
X6790958Y-3319290D01*
X6776500Y-3320000D01*
X6431500Y-3320000D01*
X6417042Y-3319290D01*
X6402724Y-3317166D01*
X6388683Y-3313649D01*
X6375054Y-3308772D01*
X6361969Y-3302583D01*
X6349553Y-3295142D01*
X6337927Y-3286519D01*
X6327202Y-3276798D01*
X6317481Y-3266073D01*
X6308858Y-3254447D01*
X6301417Y-3242031D01*
X6295228Y-3228946D01*
X6290351Y-3215317D01*
X6286834Y-3201276D01*
X6284710Y-3186958D01*
X6284000Y-3172500D01*
X6284000Y-2877500D01*
X6284710Y-2863042D01*
X6286834Y-2848724D01*
X6290351Y-2834683D01*
X6295228Y-2821054D01*
X6301417Y-2807969D01*
X6308858Y-2795553D01*
X6317481Y-2783927D01*
X6327202Y-2773202D01*
X6337927Y-2763481D01*
X6349553Y-2754858D01*
X6361969Y-2747417D01*
X6375054Y-2741228D01*
X6388683Y-2736351D01*
X6402724Y-2732834D01*
X6417042Y-2730710D01*
X6431500Y-2730000D01*
X6776500Y-2730000D01*
X6790958Y-2730710D01*
G37*
G04 #@! TD.AperFunction*
D13*
X8468360Y-1270000D03*
X6771640Y-1270000D03*
X11551640Y-6506400D03*
X13248360Y-6506400D03*
D14*
X24150000Y-63408039D03*
X24150000Y-65104759D03*
X24100000Y-27008040D03*
X24100000Y-28704760D03*
X25750000Y-18204760D03*
X25750000Y-16508040D03*
X24050000Y-36159680D03*
X24050000Y-37856400D03*
X24100000Y-45258040D03*
X24100000Y-46954760D03*
X24150000Y-54303120D03*
X24150000Y-55999840D03*
D13*
X16251640Y-23206400D03*
X17948360Y-23206400D03*
G04 #@! TA.AperFunction,SMDPad,CuDef*
D12*
G36*
X7758958Y-3693910D02*
G01*
X7773276Y-3696034D01*
X7787317Y-3699551D01*
X7800946Y-3704428D01*
X7814031Y-3710617D01*
X7826447Y-3718058D01*
X7838073Y-3726681D01*
X7848798Y-3736402D01*
X7858519Y-3747127D01*
X7867142Y-3758753D01*
X7874583Y-3771169D01*
X7880772Y-3784254D01*
X7885649Y-3797883D01*
X7889166Y-3811924D01*
X7891290Y-3826242D01*
X7892000Y-3840700D01*
X7892000Y-4185700D01*
X7891290Y-4200158D01*
X7889166Y-4214476D01*
X7885649Y-4228517D01*
X7880772Y-4242146D01*
X7874583Y-4255231D01*
X7867142Y-4267647D01*
X7858519Y-4279273D01*
X7848798Y-4289998D01*
X7838073Y-4299719D01*
X7826447Y-4308342D01*
X7814031Y-4315783D01*
X7800946Y-4321972D01*
X7787317Y-4326849D01*
X7773276Y-4330366D01*
X7758958Y-4332490D01*
X7744500Y-4333200D01*
X7449500Y-4333200D01*
X7435042Y-4332490D01*
X7420724Y-4330366D01*
X7406683Y-4326849D01*
X7393054Y-4321972D01*
X7379969Y-4315783D01*
X7367553Y-4308342D01*
X7355927Y-4299719D01*
X7345202Y-4289998D01*
X7335481Y-4279273D01*
X7326858Y-4267647D01*
X7319417Y-4255231D01*
X7313228Y-4242146D01*
X7308351Y-4228517D01*
X7304834Y-4214476D01*
X7302710Y-4200158D01*
X7302000Y-4185700D01*
X7302000Y-3840700D01*
X7302710Y-3826242D01*
X7304834Y-3811924D01*
X7308351Y-3797883D01*
X7313228Y-3784254D01*
X7319417Y-3771169D01*
X7326858Y-3758753D01*
X7335481Y-3747127D01*
X7345202Y-3736402D01*
X7355927Y-3726681D01*
X7367553Y-3718058D01*
X7379969Y-3710617D01*
X7393054Y-3704428D01*
X7406683Y-3699551D01*
X7420724Y-3696034D01*
X7435042Y-3693910D01*
X7449500Y-3693200D01*
X7744500Y-3693200D01*
X7758958Y-3693910D01*
G37*
G04 #@! TD.AperFunction*
G04 #@! TA.AperFunction,SMDPad,CuDef*
G36*
X6788958Y-3693910D02*
G01*
X6803276Y-3696034D01*
X6817317Y-3699551D01*
X6830946Y-3704428D01*
X6844031Y-3710617D01*
X6856447Y-3718058D01*
X6868073Y-3726681D01*
X6878798Y-3736402D01*
X6888519Y-3747127D01*
X6897142Y-3758753D01*
X6904583Y-3771169D01*
X6910772Y-3784254D01*
X6915649Y-3797883D01*
X6919166Y-3811924D01*
X6921290Y-3826242D01*
X6922000Y-3840700D01*
X6922000Y-4185700D01*
X6921290Y-4200158D01*
X6919166Y-4214476D01*
X6915649Y-4228517D01*
X6910772Y-4242146D01*
X6904583Y-4255231D01*
X6897142Y-4267647D01*
X6888519Y-4279273D01*
X6878798Y-4289998D01*
X6868073Y-4299719D01*
X6856447Y-4308342D01*
X6844031Y-4315783D01*
X6830946Y-4321972D01*
X6817317Y-4326849D01*
X6803276Y-4330366D01*
X6788958Y-4332490D01*
X6774500Y-4333200D01*
X6479500Y-4333200D01*
X6465042Y-4332490D01*
X6450724Y-4330366D01*
X6436683Y-4326849D01*
X6423054Y-4321972D01*
X6409969Y-4315783D01*
X6397553Y-4308342D01*
X6385927Y-4299719D01*
X6375202Y-4289998D01*
X6365481Y-4279273D01*
X6356858Y-4267647D01*
X6349417Y-4255231D01*
X6343228Y-4242146D01*
X6338351Y-4228517D01*
X6334834Y-4214476D01*
X6332710Y-4200158D01*
X6332000Y-4185700D01*
X6332000Y-3840700D01*
X6332710Y-3826242D01*
X6334834Y-3811924D01*
X6338351Y-3797883D01*
X6343228Y-3784254D01*
X6349417Y-3771169D01*
X6356858Y-3758753D01*
X6365481Y-3747127D01*
X6375202Y-3736402D01*
X6385927Y-3726681D01*
X6397553Y-3718058D01*
X6409969Y-3710617D01*
X6423054Y-3704428D01*
X6436683Y-3699551D01*
X6450724Y-3696034D01*
X6465042Y-3693910D01*
X6479500Y-3693200D01*
X6774500Y-3693200D01*
X6788958Y-3693910D01*
G37*
G04 #@! TD.AperFunction*
G04 #@! TA.AperFunction,SMDPad,CuDef*
G36*
X7758958Y-4760710D02*
G01*
X7773276Y-4762834D01*
X7787317Y-4766351D01*
X7800946Y-4771228D01*
X7814031Y-4777417D01*
X7826447Y-4784858D01*
X7838073Y-4793481D01*
X7848798Y-4803202D01*
X7858519Y-4813927D01*
X7867142Y-4825553D01*
X7874583Y-4837969D01*
X7880772Y-4851054D01*
X7885649Y-4864683D01*
X7889166Y-4878724D01*
X7891290Y-4893042D01*
X7892000Y-4907500D01*
X7892000Y-5252500D01*
X7891290Y-5266958D01*
X7889166Y-5281276D01*
X7885649Y-5295317D01*
X7880772Y-5308946D01*
X7874583Y-5322031D01*
X7867142Y-5334447D01*
X7858519Y-5346073D01*
X7848798Y-5356798D01*
X7838073Y-5366519D01*
X7826447Y-5375142D01*
X7814031Y-5382583D01*
X7800946Y-5388772D01*
X7787317Y-5393649D01*
X7773276Y-5397166D01*
X7758958Y-5399290D01*
X7744500Y-5400000D01*
X7449500Y-5400000D01*
X7435042Y-5399290D01*
X7420724Y-5397166D01*
X7406683Y-5393649D01*
X7393054Y-5388772D01*
X7379969Y-5382583D01*
X7367553Y-5375142D01*
X7355927Y-5366519D01*
X7345202Y-5356798D01*
X7335481Y-5346073D01*
X7326858Y-5334447D01*
X7319417Y-5322031D01*
X7313228Y-5308946D01*
X7308351Y-5295317D01*
X7304834Y-5281276D01*
X7302710Y-5266958D01*
X7302000Y-5252500D01*
X7302000Y-4907500D01*
X7302710Y-4893042D01*
X7304834Y-4878724D01*
X7308351Y-4864683D01*
X7313228Y-4851054D01*
X7319417Y-4837969D01*
X7326858Y-4825553D01*
X7335481Y-4813927D01*
X7345202Y-4803202D01*
X7355927Y-4793481D01*
X7367553Y-4784858D01*
X7379969Y-4777417D01*
X7393054Y-4771228D01*
X7406683Y-4766351D01*
X7420724Y-4762834D01*
X7435042Y-4760710D01*
X7449500Y-4760000D01*
X7744500Y-4760000D01*
X7758958Y-4760710D01*
G37*
G04 #@! TD.AperFunction*
G04 #@! TA.AperFunction,SMDPad,CuDef*
G36*
X6788958Y-4760710D02*
G01*
X6803276Y-4762834D01*
X6817317Y-4766351D01*
X6830946Y-4771228D01*
X6844031Y-4777417D01*
X6856447Y-4784858D01*
X6868073Y-4793481D01*
X6878798Y-4803202D01*
X6888519Y-4813927D01*
X6897142Y-4825553D01*
X6904583Y-4837969D01*
X6910772Y-4851054D01*
X6915649Y-4864683D01*
X6919166Y-4878724D01*
X6921290Y-4893042D01*
X6922000Y-4907500D01*
X6922000Y-5252500D01*
X6921290Y-5266958D01*
X6919166Y-5281276D01*
X6915649Y-5295317D01*
X6910772Y-5308946D01*
X6904583Y-5322031D01*
X6897142Y-5334447D01*
X6888519Y-5346073D01*
X6878798Y-5356798D01*
X6868073Y-5366519D01*
X6856447Y-5375142D01*
X6844031Y-5382583D01*
X6830946Y-5388772D01*
X6817317Y-5393649D01*
X6803276Y-5397166D01*
X6788958Y-5399290D01*
X6774500Y-5400000D01*
X6479500Y-5400000D01*
X6465042Y-5399290D01*
X6450724Y-5397166D01*
X6436683Y-5393649D01*
X6423054Y-5388772D01*
X6409969Y-5382583D01*
X6397553Y-5375142D01*
X6385927Y-5366519D01*
X6375202Y-5356798D01*
X6365481Y-5346073D01*
X6356858Y-5334447D01*
X6349417Y-5322031D01*
X6343228Y-5308946D01*
X6338351Y-5295317D01*
X6334834Y-5281276D01*
X6332710Y-5266958D01*
X6332000Y-5252500D01*
X6332000Y-4907500D01*
X6332710Y-4893042D01*
X6334834Y-4878724D01*
X6338351Y-4864683D01*
X6343228Y-4851054D01*
X6349417Y-4837969D01*
X6356858Y-4825553D01*
X6365481Y-4813927D01*
X6375202Y-4803202D01*
X6385927Y-4793481D01*
X6397553Y-4784858D01*
X6409969Y-4777417D01*
X6423054Y-4771228D01*
X6436683Y-4766351D01*
X6450724Y-4762834D01*
X6465042Y-4760710D01*
X6479500Y-4760000D01*
X6774500Y-4760000D01*
X6788958Y-4760710D01*
G37*
G04 #@! TD.AperFunction*
G04 #@! TA.AperFunction,SMDPad,CuDef*
G36*
X8035958Y-7834110D02*
G01*
X8050276Y-7836234D01*
X8064317Y-7839751D01*
X8077946Y-7844628D01*
X8091031Y-7850817D01*
X8103447Y-7858258D01*
X8115073Y-7866881D01*
X8125798Y-7876602D01*
X8135519Y-7887327D01*
X8144142Y-7898953D01*
X8151583Y-7911369D01*
X8157772Y-7924454D01*
X8162649Y-7938083D01*
X8166166Y-7952124D01*
X8168290Y-7966442D01*
X8169000Y-7980900D01*
X8169000Y-8325900D01*
X8168290Y-8340358D01*
X8166166Y-8354676D01*
X8162649Y-8368717D01*
X8157772Y-8382346D01*
X8151583Y-8395431D01*
X8144142Y-8407847D01*
X8135519Y-8419473D01*
X8125798Y-8430198D01*
X8115073Y-8439919D01*
X8103447Y-8448542D01*
X8091031Y-8455983D01*
X8077946Y-8462172D01*
X8064317Y-8467049D01*
X8050276Y-8470566D01*
X8035958Y-8472690D01*
X8021500Y-8473400D01*
X7726500Y-8473400D01*
X7712042Y-8472690D01*
X7697724Y-8470566D01*
X7683683Y-8467049D01*
X7670054Y-8462172D01*
X7656969Y-8455983D01*
X7644553Y-8448542D01*
X7632927Y-8439919D01*
X7622202Y-8430198D01*
X7612481Y-8419473D01*
X7603858Y-8407847D01*
X7596417Y-8395431D01*
X7590228Y-8382346D01*
X7585351Y-8368717D01*
X7581834Y-8354676D01*
X7579710Y-8340358D01*
X7579000Y-8325900D01*
X7579000Y-7980900D01*
X7579710Y-7966442D01*
X7581834Y-7952124D01*
X7585351Y-7938083D01*
X7590228Y-7924454D01*
X7596417Y-7911369D01*
X7603858Y-7898953D01*
X7612481Y-7887327D01*
X7622202Y-7876602D01*
X7632927Y-7866881D01*
X7644553Y-7858258D01*
X7656969Y-7850817D01*
X7670054Y-7844628D01*
X7683683Y-7839751D01*
X7697724Y-7836234D01*
X7712042Y-7834110D01*
X7726500Y-7833400D01*
X8021500Y-7833400D01*
X8035958Y-7834110D01*
G37*
G04 #@! TD.AperFunction*
G04 #@! TA.AperFunction,SMDPad,CuDef*
G36*
X9005958Y-7834110D02*
G01*
X9020276Y-7836234D01*
X9034317Y-7839751D01*
X9047946Y-7844628D01*
X9061031Y-7850817D01*
X9073447Y-7858258D01*
X9085073Y-7866881D01*
X9095798Y-7876602D01*
X9105519Y-7887327D01*
X9114142Y-7898953D01*
X9121583Y-7911369D01*
X9127772Y-7924454D01*
X9132649Y-7938083D01*
X9136166Y-7952124D01*
X9138290Y-7966442D01*
X9139000Y-7980900D01*
X9139000Y-8325900D01*
X9138290Y-8340358D01*
X9136166Y-8354676D01*
X9132649Y-8368717D01*
X9127772Y-8382346D01*
X9121583Y-8395431D01*
X9114142Y-8407847D01*
X9105519Y-8419473D01*
X9095798Y-8430198D01*
X9085073Y-8439919D01*
X9073447Y-8448542D01*
X9061031Y-8455983D01*
X9047946Y-8462172D01*
X9034317Y-8467049D01*
X9020276Y-8470566D01*
X9005958Y-8472690D01*
X8991500Y-8473400D01*
X8696500Y-8473400D01*
X8682042Y-8472690D01*
X8667724Y-8470566D01*
X8653683Y-8467049D01*
X8640054Y-8462172D01*
X8626969Y-8455983D01*
X8614553Y-8448542D01*
X8602927Y-8439919D01*
X8592202Y-8430198D01*
X8582481Y-8419473D01*
X8573858Y-8407847D01*
X8566417Y-8395431D01*
X8560228Y-8382346D01*
X8555351Y-8368717D01*
X8551834Y-8354676D01*
X8549710Y-8340358D01*
X8549000Y-8325900D01*
X8549000Y-7980900D01*
X8549710Y-7966442D01*
X8551834Y-7952124D01*
X8555351Y-7938083D01*
X8560228Y-7924454D01*
X8566417Y-7911369D01*
X8573858Y-7898953D01*
X8582481Y-7887327D01*
X8592202Y-7876602D01*
X8602927Y-7866881D01*
X8614553Y-7858258D01*
X8626969Y-7850817D01*
X8640054Y-7844628D01*
X8653683Y-7839751D01*
X8667724Y-7836234D01*
X8682042Y-7834110D01*
X8696500Y-7833400D01*
X8991500Y-7833400D01*
X9005958Y-7834110D01*
G37*
G04 #@! TD.AperFunction*
G04 #@! TA.AperFunction,SMDPad,CuDef*
G36*
X5569758Y-7834110D02*
G01*
X5584076Y-7836234D01*
X5598117Y-7839751D01*
X5611746Y-7844628D01*
X5624831Y-7850817D01*
X5637247Y-7858258D01*
X5648873Y-7866881D01*
X5659598Y-7876602D01*
X5669319Y-7887327D01*
X5677942Y-7898953D01*
X5685383Y-7911369D01*
X5691572Y-7924454D01*
X5696449Y-7938083D01*
X5699966Y-7952124D01*
X5702090Y-7966442D01*
X5702800Y-7980900D01*
X5702800Y-8325900D01*
X5702090Y-8340358D01*
X5699966Y-8354676D01*
X5696449Y-8368717D01*
X5691572Y-8382346D01*
X5685383Y-8395431D01*
X5677942Y-8407847D01*
X5669319Y-8419473D01*
X5659598Y-8430198D01*
X5648873Y-8439919D01*
X5637247Y-8448542D01*
X5624831Y-8455983D01*
X5611746Y-8462172D01*
X5598117Y-8467049D01*
X5584076Y-8470566D01*
X5569758Y-8472690D01*
X5555300Y-8473400D01*
X5260300Y-8473400D01*
X5245842Y-8472690D01*
X5231524Y-8470566D01*
X5217483Y-8467049D01*
X5203854Y-8462172D01*
X5190769Y-8455983D01*
X5178353Y-8448542D01*
X5166727Y-8439919D01*
X5156002Y-8430198D01*
X5146281Y-8419473D01*
X5137658Y-8407847D01*
X5130217Y-8395431D01*
X5124028Y-8382346D01*
X5119151Y-8368717D01*
X5115634Y-8354676D01*
X5113510Y-8340358D01*
X5112800Y-8325900D01*
X5112800Y-7980900D01*
X5113510Y-7966442D01*
X5115634Y-7952124D01*
X5119151Y-7938083D01*
X5124028Y-7924454D01*
X5130217Y-7911369D01*
X5137658Y-7898953D01*
X5146281Y-7887327D01*
X5156002Y-7876602D01*
X5166727Y-7866881D01*
X5178353Y-7858258D01*
X5190769Y-7850817D01*
X5203854Y-7844628D01*
X5217483Y-7839751D01*
X5231524Y-7836234D01*
X5245842Y-7834110D01*
X5260300Y-7833400D01*
X5555300Y-7833400D01*
X5569758Y-7834110D01*
G37*
G04 #@! TD.AperFunction*
G04 #@! TA.AperFunction,SMDPad,CuDef*
G36*
X6539758Y-7834110D02*
G01*
X6554076Y-7836234D01*
X6568117Y-7839751D01*
X6581746Y-7844628D01*
X6594831Y-7850817D01*
X6607247Y-7858258D01*
X6618873Y-7866881D01*
X6629598Y-7876602D01*
X6639319Y-7887327D01*
X6647942Y-7898953D01*
X6655383Y-7911369D01*
X6661572Y-7924454D01*
X6666449Y-7938083D01*
X6669966Y-7952124D01*
X6672090Y-7966442D01*
X6672800Y-7980900D01*
X6672800Y-8325900D01*
X6672090Y-8340358D01*
X6669966Y-8354676D01*
X6666449Y-8368717D01*
X6661572Y-8382346D01*
X6655383Y-8395431D01*
X6647942Y-8407847D01*
X6639319Y-8419473D01*
X6629598Y-8430198D01*
X6618873Y-8439919D01*
X6607247Y-8448542D01*
X6594831Y-8455983D01*
X6581746Y-8462172D01*
X6568117Y-8467049D01*
X6554076Y-8470566D01*
X6539758Y-8472690D01*
X6525300Y-8473400D01*
X6230300Y-8473400D01*
X6215842Y-8472690D01*
X6201524Y-8470566D01*
X6187483Y-8467049D01*
X6173854Y-8462172D01*
X6160769Y-8455983D01*
X6148353Y-8448542D01*
X6136727Y-8439919D01*
X6126002Y-8430198D01*
X6116281Y-8419473D01*
X6107658Y-8407847D01*
X6100217Y-8395431D01*
X6094028Y-8382346D01*
X6089151Y-8368717D01*
X6085634Y-8354676D01*
X6083510Y-8340358D01*
X6082800Y-8325900D01*
X6082800Y-7980900D01*
X6083510Y-7966442D01*
X6085634Y-7952124D01*
X6089151Y-7938083D01*
X6094028Y-7924454D01*
X6100217Y-7911369D01*
X6107658Y-7898953D01*
X6116281Y-7887327D01*
X6126002Y-7876602D01*
X6136727Y-7866881D01*
X6148353Y-7858258D01*
X6160769Y-7850817D01*
X6173854Y-7844628D01*
X6187483Y-7839751D01*
X6201524Y-7836234D01*
X6215842Y-7834110D01*
X6230300Y-7833400D01*
X6525300Y-7833400D01*
X6539758Y-7834110D01*
G37*
G04 #@! TD.AperFunction*
D15*
X5486400Y-1168400D03*
D16*
X7112000Y-8137400D03*
X6162000Y-6137400D03*
X8062000Y-6137400D03*
D15*
X14500000Y-6506400D03*
X28300000Y-28806400D03*
X26900000Y-16306400D03*
G04 #@! TA.AperFunction,SMDPad,CuDef*
D12*
G36*
X9226958Y-10387110D02*
G01*
X9241276Y-10389234D01*
X9255317Y-10392751D01*
X9268946Y-10397628D01*
X9282031Y-10403817D01*
X9294447Y-10411258D01*
X9306073Y-10419881D01*
X9316798Y-10429602D01*
X9326519Y-10440327D01*
X9335142Y-10451953D01*
X9342583Y-10464369D01*
X9348772Y-10477454D01*
X9353649Y-10491083D01*
X9357166Y-10505124D01*
X9359290Y-10519442D01*
X9360000Y-10533900D01*
X9360000Y-10878900D01*
X9359290Y-10893358D01*
X9357166Y-10907676D01*
X9353649Y-10921717D01*
X9348772Y-10935346D01*
X9342583Y-10948431D01*
X9335142Y-10960847D01*
X9326519Y-10972473D01*
X9316798Y-10983198D01*
X9306073Y-10992919D01*
X9294447Y-11001542D01*
X9282031Y-11008983D01*
X9268946Y-11015172D01*
X9255317Y-11020049D01*
X9241276Y-11023566D01*
X9226958Y-11025690D01*
X9212500Y-11026400D01*
X8917500Y-11026400D01*
X8903042Y-11025690D01*
X8888724Y-11023566D01*
X8874683Y-11020049D01*
X8861054Y-11015172D01*
X8847969Y-11008983D01*
X8835553Y-11001542D01*
X8823927Y-10992919D01*
X8813202Y-10983198D01*
X8803481Y-10972473D01*
X8794858Y-10960847D01*
X8787417Y-10948431D01*
X8781228Y-10935346D01*
X8776351Y-10921717D01*
X8772834Y-10907676D01*
X8770710Y-10893358D01*
X8770000Y-10878900D01*
X8770000Y-10533900D01*
X8770710Y-10519442D01*
X8772834Y-10505124D01*
X8776351Y-10491083D01*
X8781228Y-10477454D01*
X8787417Y-10464369D01*
X8794858Y-10451953D01*
X8803481Y-10440327D01*
X8813202Y-10429602D01*
X8823927Y-10419881D01*
X8835553Y-10411258D01*
X8847969Y-10403817D01*
X8861054Y-10397628D01*
X8874683Y-10392751D01*
X8888724Y-10389234D01*
X8903042Y-10387110D01*
X8917500Y-10386400D01*
X9212500Y-10386400D01*
X9226958Y-10387110D01*
G37*
G04 #@! TD.AperFunction*
G04 #@! TA.AperFunction,SMDPad,CuDef*
G36*
X10196958Y-10387110D02*
G01*
X10211276Y-10389234D01*
X10225317Y-10392751D01*
X10238946Y-10397628D01*
X10252031Y-10403817D01*
X10264447Y-10411258D01*
X10276073Y-10419881D01*
X10286798Y-10429602D01*
X10296519Y-10440327D01*
X10305142Y-10451953D01*
X10312583Y-10464369D01*
X10318772Y-10477454D01*
X10323649Y-10491083D01*
X10327166Y-10505124D01*
X10329290Y-10519442D01*
X10330000Y-10533900D01*
X10330000Y-10878900D01*
X10329290Y-10893358D01*
X10327166Y-10907676D01*
X10323649Y-10921717D01*
X10318772Y-10935346D01*
X10312583Y-10948431D01*
X10305142Y-10960847D01*
X10296519Y-10972473D01*
X10286798Y-10983198D01*
X10276073Y-10992919D01*
X10264447Y-11001542D01*
X10252031Y-11008983D01*
X10238946Y-11015172D01*
X10225317Y-11020049D01*
X10211276Y-11023566D01*
X10196958Y-11025690D01*
X10182500Y-11026400D01*
X9887500Y-11026400D01*
X9873042Y-11025690D01*
X9858724Y-11023566D01*
X9844683Y-11020049D01*
X9831054Y-11015172D01*
X9817969Y-11008983D01*
X9805553Y-11001542D01*
X9793927Y-10992919D01*
X9783202Y-10983198D01*
X9773481Y-10972473D01*
X9764858Y-10960847D01*
X9757417Y-10948431D01*
X9751228Y-10935346D01*
X9746351Y-10921717D01*
X9742834Y-10907676D01*
X9740710Y-10893358D01*
X9740000Y-10878900D01*
X9740000Y-10533900D01*
X9740710Y-10519442D01*
X9742834Y-10505124D01*
X9746351Y-10491083D01*
X9751228Y-10477454D01*
X9757417Y-10464369D01*
X9764858Y-10451953D01*
X9773481Y-10440327D01*
X9783202Y-10429602D01*
X9793927Y-10419881D01*
X9805553Y-10411258D01*
X9817969Y-10403817D01*
X9831054Y-10397628D01*
X9844683Y-10392751D01*
X9858724Y-10389234D01*
X9873042Y-10387110D01*
X9887500Y-10386400D01*
X10182500Y-10386400D01*
X10196958Y-10387110D01*
G37*
G04 #@! TD.AperFunction*
D17*
X-1018500Y-8131000D03*
G04 #@! TA.AperFunction,SMDPad,CuDef*
D12*
G36*
X23386958Y-65342110D02*
G01*
X23401276Y-65344234D01*
X23415317Y-65347751D01*
X23428946Y-65352628D01*
X23442031Y-65358817D01*
X23454447Y-65366258D01*
X23466073Y-65374881D01*
X23476798Y-65384602D01*
X23486519Y-65395327D01*
X23495142Y-65406953D01*
X23502583Y-65419369D01*
X23508772Y-65432454D01*
X23513649Y-65446083D01*
X23517166Y-65460124D01*
X23519290Y-65474442D01*
X23520000Y-65488900D01*
X23520000Y-65783900D01*
X23519290Y-65798358D01*
X23517166Y-65812676D01*
X23513649Y-65826717D01*
X23508772Y-65840346D01*
X23502583Y-65853431D01*
X23495142Y-65865847D01*
X23486519Y-65877473D01*
X23476798Y-65888198D01*
X23466073Y-65897919D01*
X23454447Y-65906542D01*
X23442031Y-65913983D01*
X23428946Y-65920172D01*
X23415317Y-65925049D01*
X23401276Y-65928566D01*
X23386958Y-65930690D01*
X23372500Y-65931400D01*
X23027500Y-65931400D01*
X23013042Y-65930690D01*
X22998724Y-65928566D01*
X22984683Y-65925049D01*
X22971054Y-65920172D01*
X22957969Y-65913983D01*
X22945553Y-65906542D01*
X22933927Y-65897919D01*
X22923202Y-65888198D01*
X22913481Y-65877473D01*
X22904858Y-65865847D01*
X22897417Y-65853431D01*
X22891228Y-65840346D01*
X22886351Y-65826717D01*
X22882834Y-65812676D01*
X22880710Y-65798358D01*
X22880000Y-65783900D01*
X22880000Y-65488900D01*
X22880710Y-65474442D01*
X22882834Y-65460124D01*
X22886351Y-65446083D01*
X22891228Y-65432454D01*
X22897417Y-65419369D01*
X22904858Y-65406953D01*
X22913481Y-65395327D01*
X22923202Y-65384602D01*
X22933927Y-65374881D01*
X22945553Y-65366258D01*
X22957969Y-65358817D01*
X22971054Y-65352628D01*
X22984683Y-65347751D01*
X22998724Y-65344234D01*
X23013042Y-65342110D01*
X23027500Y-65341400D01*
X23372500Y-65341400D01*
X23386958Y-65342110D01*
G37*
G04 #@! TD.AperFunction*
G04 #@! TA.AperFunction,SMDPad,CuDef*
G36*
X23386958Y-66312110D02*
G01*
X23401276Y-66314234D01*
X23415317Y-66317751D01*
X23428946Y-66322628D01*
X23442031Y-66328817D01*
X23454447Y-66336258D01*
X23466073Y-66344881D01*
X23476798Y-66354602D01*
X23486519Y-66365327D01*
X23495142Y-66376953D01*
X23502583Y-66389369D01*
X23508772Y-66402454D01*
X23513649Y-66416083D01*
X23517166Y-66430124D01*
X23519290Y-66444442D01*
X23520000Y-66458900D01*
X23520000Y-66753900D01*
X23519290Y-66768358D01*
X23517166Y-66782676D01*
X23513649Y-66796717D01*
X23508772Y-66810346D01*
X23502583Y-66823431D01*
X23495142Y-66835847D01*
X23486519Y-66847473D01*
X23476798Y-66858198D01*
X23466073Y-66867919D01*
X23454447Y-66876542D01*
X23442031Y-66883983D01*
X23428946Y-66890172D01*
X23415317Y-66895049D01*
X23401276Y-66898566D01*
X23386958Y-66900690D01*
X23372500Y-66901400D01*
X23027500Y-66901400D01*
X23013042Y-66900690D01*
X22998724Y-66898566D01*
X22984683Y-66895049D01*
X22971054Y-66890172D01*
X22957969Y-66883983D01*
X22945553Y-66876542D01*
X22933927Y-66867919D01*
X22923202Y-66858198D01*
X22913481Y-66847473D01*
X22904858Y-66835847D01*
X22897417Y-66823431D01*
X22891228Y-66810346D01*
X22886351Y-66796717D01*
X22882834Y-66782676D01*
X22880710Y-66768358D01*
X22880000Y-66753900D01*
X22880000Y-66458900D01*
X22880710Y-66444442D01*
X22882834Y-66430124D01*
X22886351Y-66416083D01*
X22891228Y-66402454D01*
X22897417Y-66389369D01*
X22904858Y-66376953D01*
X22913481Y-66365327D01*
X22923202Y-66354602D01*
X22933927Y-66344881D01*
X22945553Y-66336258D01*
X22957969Y-66328817D01*
X22971054Y-66322628D01*
X22984683Y-66317751D01*
X22998724Y-66314234D01*
X23013042Y-66312110D01*
X23027500Y-66311400D01*
X23372500Y-66311400D01*
X23386958Y-66312110D01*
G37*
G04 #@! TD.AperFunction*
G04 #@! TA.AperFunction,SMDPad,CuDef*
G36*
X23386958Y-56262110D02*
G01*
X23401276Y-56264234D01*
X23415317Y-56267751D01*
X23428946Y-56272628D01*
X23442031Y-56278817D01*
X23454447Y-56286258D01*
X23466073Y-56294881D01*
X23476798Y-56304602D01*
X23486519Y-56315327D01*
X23495142Y-56326953D01*
X23502583Y-56339369D01*
X23508772Y-56352454D01*
X23513649Y-56366083D01*
X23517166Y-56380124D01*
X23519290Y-56394442D01*
X23520000Y-56408900D01*
X23520000Y-56703900D01*
X23519290Y-56718358D01*
X23517166Y-56732676D01*
X23513649Y-56746717D01*
X23508772Y-56760346D01*
X23502583Y-56773431D01*
X23495142Y-56785847D01*
X23486519Y-56797473D01*
X23476798Y-56808198D01*
X23466073Y-56817919D01*
X23454447Y-56826542D01*
X23442031Y-56833983D01*
X23428946Y-56840172D01*
X23415317Y-56845049D01*
X23401276Y-56848566D01*
X23386958Y-56850690D01*
X23372500Y-56851400D01*
X23027500Y-56851400D01*
X23013042Y-56850690D01*
X22998724Y-56848566D01*
X22984683Y-56845049D01*
X22971054Y-56840172D01*
X22957969Y-56833983D01*
X22945553Y-56826542D01*
X22933927Y-56817919D01*
X22923202Y-56808198D01*
X22913481Y-56797473D01*
X22904858Y-56785847D01*
X22897417Y-56773431D01*
X22891228Y-56760346D01*
X22886351Y-56746717D01*
X22882834Y-56732676D01*
X22880710Y-56718358D01*
X22880000Y-56703900D01*
X22880000Y-56408900D01*
X22880710Y-56394442D01*
X22882834Y-56380124D01*
X22886351Y-56366083D01*
X22891228Y-56352454D01*
X22897417Y-56339369D01*
X22904858Y-56326953D01*
X22913481Y-56315327D01*
X22923202Y-56304602D01*
X22933927Y-56294881D01*
X22945553Y-56286258D01*
X22957969Y-56278817D01*
X22971054Y-56272628D01*
X22984683Y-56267751D01*
X22998724Y-56264234D01*
X23013042Y-56262110D01*
X23027500Y-56261400D01*
X23372500Y-56261400D01*
X23386958Y-56262110D01*
G37*
G04 #@! TD.AperFunction*
G04 #@! TA.AperFunction,SMDPad,CuDef*
G36*
X23386958Y-57232110D02*
G01*
X23401276Y-57234234D01*
X23415317Y-57237751D01*
X23428946Y-57242628D01*
X23442031Y-57248817D01*
X23454447Y-57256258D01*
X23466073Y-57264881D01*
X23476798Y-57274602D01*
X23486519Y-57285327D01*
X23495142Y-57296953D01*
X23502583Y-57309369D01*
X23508772Y-57322454D01*
X23513649Y-57336083D01*
X23517166Y-57350124D01*
X23519290Y-57364442D01*
X23520000Y-57378900D01*
X23520000Y-57673900D01*
X23519290Y-57688358D01*
X23517166Y-57702676D01*
X23513649Y-57716717D01*
X23508772Y-57730346D01*
X23502583Y-57743431D01*
X23495142Y-57755847D01*
X23486519Y-57767473D01*
X23476798Y-57778198D01*
X23466073Y-57787919D01*
X23454447Y-57796542D01*
X23442031Y-57803983D01*
X23428946Y-57810172D01*
X23415317Y-57815049D01*
X23401276Y-57818566D01*
X23386958Y-57820690D01*
X23372500Y-57821400D01*
X23027500Y-57821400D01*
X23013042Y-57820690D01*
X22998724Y-57818566D01*
X22984683Y-57815049D01*
X22971054Y-57810172D01*
X22957969Y-57803983D01*
X22945553Y-57796542D01*
X22933927Y-57787919D01*
X22923202Y-57778198D01*
X22913481Y-57767473D01*
X22904858Y-57755847D01*
X22897417Y-57743431D01*
X22891228Y-57730346D01*
X22886351Y-57716717D01*
X22882834Y-57702676D01*
X22880710Y-57688358D01*
X22880000Y-57673900D01*
X22880000Y-57378900D01*
X22880710Y-57364442D01*
X22882834Y-57350124D01*
X22886351Y-57336083D01*
X22891228Y-57322454D01*
X22897417Y-57309369D01*
X22904858Y-57296953D01*
X22913481Y-57285327D01*
X22923202Y-57274602D01*
X22933927Y-57264881D01*
X22945553Y-57256258D01*
X22957969Y-57248817D01*
X22971054Y-57242628D01*
X22984683Y-57237751D01*
X22998724Y-57234234D01*
X23013042Y-57232110D01*
X23027500Y-57231400D01*
X23372500Y-57231400D01*
X23386958Y-57232110D01*
G37*
G04 #@! TD.AperFunction*
G04 #@! TA.AperFunction,SMDPad,CuDef*
G36*
X23386958Y-47077110D02*
G01*
X23401276Y-47079234D01*
X23415317Y-47082751D01*
X23428946Y-47087628D01*
X23442031Y-47093817D01*
X23454447Y-47101258D01*
X23466073Y-47109881D01*
X23476798Y-47119602D01*
X23486519Y-47130327D01*
X23495142Y-47141953D01*
X23502583Y-47154369D01*
X23508772Y-47167454D01*
X23513649Y-47181083D01*
X23517166Y-47195124D01*
X23519290Y-47209442D01*
X23520000Y-47223900D01*
X23520000Y-47518900D01*
X23519290Y-47533358D01*
X23517166Y-47547676D01*
X23513649Y-47561717D01*
X23508772Y-47575346D01*
X23502583Y-47588431D01*
X23495142Y-47600847D01*
X23486519Y-47612473D01*
X23476798Y-47623198D01*
X23466073Y-47632919D01*
X23454447Y-47641542D01*
X23442031Y-47648983D01*
X23428946Y-47655172D01*
X23415317Y-47660049D01*
X23401276Y-47663566D01*
X23386958Y-47665690D01*
X23372500Y-47666400D01*
X23027500Y-47666400D01*
X23013042Y-47665690D01*
X22998724Y-47663566D01*
X22984683Y-47660049D01*
X22971054Y-47655172D01*
X22957969Y-47648983D01*
X22945553Y-47641542D01*
X22933927Y-47632919D01*
X22923202Y-47623198D01*
X22913481Y-47612473D01*
X22904858Y-47600847D01*
X22897417Y-47588431D01*
X22891228Y-47575346D01*
X22886351Y-47561717D01*
X22882834Y-47547676D01*
X22880710Y-47533358D01*
X22880000Y-47518900D01*
X22880000Y-47223900D01*
X22880710Y-47209442D01*
X22882834Y-47195124D01*
X22886351Y-47181083D01*
X22891228Y-47167454D01*
X22897417Y-47154369D01*
X22904858Y-47141953D01*
X22913481Y-47130327D01*
X22923202Y-47119602D01*
X22933927Y-47109881D01*
X22945553Y-47101258D01*
X22957969Y-47093817D01*
X22971054Y-47087628D01*
X22984683Y-47082751D01*
X22998724Y-47079234D01*
X23013042Y-47077110D01*
X23027500Y-47076400D01*
X23372500Y-47076400D01*
X23386958Y-47077110D01*
G37*
G04 #@! TD.AperFunction*
G04 #@! TA.AperFunction,SMDPad,CuDef*
G36*
X23386958Y-48047110D02*
G01*
X23401276Y-48049234D01*
X23415317Y-48052751D01*
X23428946Y-48057628D01*
X23442031Y-48063817D01*
X23454447Y-48071258D01*
X23466073Y-48079881D01*
X23476798Y-48089602D01*
X23486519Y-48100327D01*
X23495142Y-48111953D01*
X23502583Y-48124369D01*
X23508772Y-48137454D01*
X23513649Y-48151083D01*
X23517166Y-48165124D01*
X23519290Y-48179442D01*
X23520000Y-48193900D01*
X23520000Y-48488900D01*
X23519290Y-48503358D01*
X23517166Y-48517676D01*
X23513649Y-48531717D01*
X23508772Y-48545346D01*
X23502583Y-48558431D01*
X23495142Y-48570847D01*
X23486519Y-48582473D01*
X23476798Y-48593198D01*
X23466073Y-48602919D01*
X23454447Y-48611542D01*
X23442031Y-48618983D01*
X23428946Y-48625172D01*
X23415317Y-48630049D01*
X23401276Y-48633566D01*
X23386958Y-48635690D01*
X23372500Y-48636400D01*
X23027500Y-48636400D01*
X23013042Y-48635690D01*
X22998724Y-48633566D01*
X22984683Y-48630049D01*
X22971054Y-48625172D01*
X22957969Y-48618983D01*
X22945553Y-48611542D01*
X22933927Y-48602919D01*
X22923202Y-48593198D01*
X22913481Y-48582473D01*
X22904858Y-48570847D01*
X22897417Y-48558431D01*
X22891228Y-48545346D01*
X22886351Y-48531717D01*
X22882834Y-48517676D01*
X22880710Y-48503358D01*
X22880000Y-48488900D01*
X22880000Y-48193900D01*
X22880710Y-48179442D01*
X22882834Y-48165124D01*
X22886351Y-48151083D01*
X22891228Y-48137454D01*
X22897417Y-48124369D01*
X22904858Y-48111953D01*
X22913481Y-48100327D01*
X22923202Y-48089602D01*
X22933927Y-48079881D01*
X22945553Y-48071258D01*
X22957969Y-48063817D01*
X22971054Y-48057628D01*
X22984683Y-48052751D01*
X22998724Y-48049234D01*
X23013042Y-48047110D01*
X23027500Y-48046400D01*
X23372500Y-48046400D01*
X23386958Y-48047110D01*
G37*
G04 #@! TD.AperFunction*
G04 #@! TA.AperFunction,SMDPad,CuDef*
G36*
X23386958Y-37862110D02*
G01*
X23401276Y-37864234D01*
X23415317Y-37867751D01*
X23428946Y-37872628D01*
X23442031Y-37878817D01*
X23454447Y-37886258D01*
X23466073Y-37894881D01*
X23476798Y-37904602D01*
X23486519Y-37915327D01*
X23495142Y-37926953D01*
X23502583Y-37939369D01*
X23508772Y-37952454D01*
X23513649Y-37966083D01*
X23517166Y-37980124D01*
X23519290Y-37994442D01*
X23520000Y-38008900D01*
X23520000Y-38303900D01*
X23519290Y-38318358D01*
X23517166Y-38332676D01*
X23513649Y-38346717D01*
X23508772Y-38360346D01*
X23502583Y-38373431D01*
X23495142Y-38385847D01*
X23486519Y-38397473D01*
X23476798Y-38408198D01*
X23466073Y-38417919D01*
X23454447Y-38426542D01*
X23442031Y-38433983D01*
X23428946Y-38440172D01*
X23415317Y-38445049D01*
X23401276Y-38448566D01*
X23386958Y-38450690D01*
X23372500Y-38451400D01*
X23027500Y-38451400D01*
X23013042Y-38450690D01*
X22998724Y-38448566D01*
X22984683Y-38445049D01*
X22971054Y-38440172D01*
X22957969Y-38433983D01*
X22945553Y-38426542D01*
X22933927Y-38417919D01*
X22923202Y-38408198D01*
X22913481Y-38397473D01*
X22904858Y-38385847D01*
X22897417Y-38373431D01*
X22891228Y-38360346D01*
X22886351Y-38346717D01*
X22882834Y-38332676D01*
X22880710Y-38318358D01*
X22880000Y-38303900D01*
X22880000Y-38008900D01*
X22880710Y-37994442D01*
X22882834Y-37980124D01*
X22886351Y-37966083D01*
X22891228Y-37952454D01*
X22897417Y-37939369D01*
X22904858Y-37926953D01*
X22913481Y-37915327D01*
X22923202Y-37904602D01*
X22933927Y-37894881D01*
X22945553Y-37886258D01*
X22957969Y-37878817D01*
X22971054Y-37872628D01*
X22984683Y-37867751D01*
X22998724Y-37864234D01*
X23013042Y-37862110D01*
X23027500Y-37861400D01*
X23372500Y-37861400D01*
X23386958Y-37862110D01*
G37*
G04 #@! TD.AperFunction*
G04 #@! TA.AperFunction,SMDPad,CuDef*
G36*
X23386958Y-38832110D02*
G01*
X23401276Y-38834234D01*
X23415317Y-38837751D01*
X23428946Y-38842628D01*
X23442031Y-38848817D01*
X23454447Y-38856258D01*
X23466073Y-38864881D01*
X23476798Y-38874602D01*
X23486519Y-38885327D01*
X23495142Y-38896953D01*
X23502583Y-38909369D01*
X23508772Y-38922454D01*
X23513649Y-38936083D01*
X23517166Y-38950124D01*
X23519290Y-38964442D01*
X23520000Y-38978900D01*
X23520000Y-39273900D01*
X23519290Y-39288358D01*
X23517166Y-39302676D01*
X23513649Y-39316717D01*
X23508772Y-39330346D01*
X23502583Y-39343431D01*
X23495142Y-39355847D01*
X23486519Y-39367473D01*
X23476798Y-39378198D01*
X23466073Y-39387919D01*
X23454447Y-39396542D01*
X23442031Y-39403983D01*
X23428946Y-39410172D01*
X23415317Y-39415049D01*
X23401276Y-39418566D01*
X23386958Y-39420690D01*
X23372500Y-39421400D01*
X23027500Y-39421400D01*
X23013042Y-39420690D01*
X22998724Y-39418566D01*
X22984683Y-39415049D01*
X22971054Y-39410172D01*
X22957969Y-39403983D01*
X22945553Y-39396542D01*
X22933927Y-39387919D01*
X22923202Y-39378198D01*
X22913481Y-39367473D01*
X22904858Y-39355847D01*
X22897417Y-39343431D01*
X22891228Y-39330346D01*
X22886351Y-39316717D01*
X22882834Y-39302676D01*
X22880710Y-39288358D01*
X22880000Y-39273900D01*
X22880000Y-38978900D01*
X22880710Y-38964442D01*
X22882834Y-38950124D01*
X22886351Y-38936083D01*
X22891228Y-38922454D01*
X22897417Y-38909369D01*
X22904858Y-38896953D01*
X22913481Y-38885327D01*
X22923202Y-38874602D01*
X22933927Y-38864881D01*
X22945553Y-38856258D01*
X22957969Y-38848817D01*
X22971054Y-38842628D01*
X22984683Y-38837751D01*
X22998724Y-38834234D01*
X23013042Y-38832110D01*
X23027500Y-38831400D01*
X23372500Y-38831400D01*
X23386958Y-38832110D01*
G37*
G04 #@! TD.AperFunction*
G04 #@! TA.AperFunction,SMDPad,CuDef*
G36*
X23386958Y-28792110D02*
G01*
X23401276Y-28794234D01*
X23415317Y-28797751D01*
X23428946Y-28802628D01*
X23442031Y-28808817D01*
X23454447Y-28816258D01*
X23466073Y-28824881D01*
X23476798Y-28834602D01*
X23486519Y-28845327D01*
X23495142Y-28856953D01*
X23502583Y-28869369D01*
X23508772Y-28882454D01*
X23513649Y-28896083D01*
X23517166Y-28910124D01*
X23519290Y-28924442D01*
X23520000Y-28938900D01*
X23520000Y-29233900D01*
X23519290Y-29248358D01*
X23517166Y-29262676D01*
X23513649Y-29276717D01*
X23508772Y-29290346D01*
X23502583Y-29303431D01*
X23495142Y-29315847D01*
X23486519Y-29327473D01*
X23476798Y-29338198D01*
X23466073Y-29347919D01*
X23454447Y-29356542D01*
X23442031Y-29363983D01*
X23428946Y-29370172D01*
X23415317Y-29375049D01*
X23401276Y-29378566D01*
X23386958Y-29380690D01*
X23372500Y-29381400D01*
X23027500Y-29381400D01*
X23013042Y-29380690D01*
X22998724Y-29378566D01*
X22984683Y-29375049D01*
X22971054Y-29370172D01*
X22957969Y-29363983D01*
X22945553Y-29356542D01*
X22933927Y-29347919D01*
X22923202Y-29338198D01*
X22913481Y-29327473D01*
X22904858Y-29315847D01*
X22897417Y-29303431D01*
X22891228Y-29290346D01*
X22886351Y-29276717D01*
X22882834Y-29262676D01*
X22880710Y-29248358D01*
X22880000Y-29233900D01*
X22880000Y-28938900D01*
X22880710Y-28924442D01*
X22882834Y-28910124D01*
X22886351Y-28896083D01*
X22891228Y-28882454D01*
X22897417Y-28869369D01*
X22904858Y-28856953D01*
X22913481Y-28845327D01*
X22923202Y-28834602D01*
X22933927Y-28824881D01*
X22945553Y-28816258D01*
X22957969Y-28808817D01*
X22971054Y-28802628D01*
X22984683Y-28797751D01*
X22998724Y-28794234D01*
X23013042Y-28792110D01*
X23027500Y-28791400D01*
X23372500Y-28791400D01*
X23386958Y-28792110D01*
G37*
G04 #@! TD.AperFunction*
G04 #@! TA.AperFunction,SMDPad,CuDef*
G36*
X23386958Y-29762110D02*
G01*
X23401276Y-29764234D01*
X23415317Y-29767751D01*
X23428946Y-29772628D01*
X23442031Y-29778817D01*
X23454447Y-29786258D01*
X23466073Y-29794881D01*
X23476798Y-29804602D01*
X23486519Y-29815327D01*
X23495142Y-29826953D01*
X23502583Y-29839369D01*
X23508772Y-29852454D01*
X23513649Y-29866083D01*
X23517166Y-29880124D01*
X23519290Y-29894442D01*
X23520000Y-29908900D01*
X23520000Y-30203900D01*
X23519290Y-30218358D01*
X23517166Y-30232676D01*
X23513649Y-30246717D01*
X23508772Y-30260346D01*
X23502583Y-30273431D01*
X23495142Y-30285847D01*
X23486519Y-30297473D01*
X23476798Y-30308198D01*
X23466073Y-30317919D01*
X23454447Y-30326542D01*
X23442031Y-30333983D01*
X23428946Y-30340172D01*
X23415317Y-30345049D01*
X23401276Y-30348566D01*
X23386958Y-30350690D01*
X23372500Y-30351400D01*
X23027500Y-30351400D01*
X23013042Y-30350690D01*
X22998724Y-30348566D01*
X22984683Y-30345049D01*
X22971054Y-30340172D01*
X22957969Y-30333983D01*
X22945553Y-30326542D01*
X22933927Y-30317919D01*
X22923202Y-30308198D01*
X22913481Y-30297473D01*
X22904858Y-30285847D01*
X22897417Y-30273431D01*
X22891228Y-30260346D01*
X22886351Y-30246717D01*
X22882834Y-30232676D01*
X22880710Y-30218358D01*
X22880000Y-30203900D01*
X22880000Y-29908900D01*
X22880710Y-29894442D01*
X22882834Y-29880124D01*
X22886351Y-29866083D01*
X22891228Y-29852454D01*
X22897417Y-29839369D01*
X22904858Y-29826953D01*
X22913481Y-29815327D01*
X22923202Y-29804602D01*
X22933927Y-29794881D01*
X22945553Y-29786258D01*
X22957969Y-29778817D01*
X22971054Y-29772628D01*
X22984683Y-29767751D01*
X22998724Y-29764234D01*
X23013042Y-29762110D01*
X23027500Y-29761400D01*
X23372500Y-29761400D01*
X23386958Y-29762110D01*
G37*
G04 #@! TD.AperFunction*
G04 #@! TA.AperFunction,SMDPad,CuDef*
G36*
X23236957Y-18047110D02*
G01*
X23251275Y-18049234D01*
X23265316Y-18052751D01*
X23278945Y-18057628D01*
X23292030Y-18063817D01*
X23304446Y-18071258D01*
X23316072Y-18079881D01*
X23326797Y-18089602D01*
X23336518Y-18100327D01*
X23345141Y-18111953D01*
X23352582Y-18124369D01*
X23358771Y-18137454D01*
X23363648Y-18151083D01*
X23367165Y-18165124D01*
X23369289Y-18179442D01*
X23369999Y-18193900D01*
X23369999Y-18488900D01*
X23369289Y-18503358D01*
X23367165Y-18517676D01*
X23363648Y-18531717D01*
X23358771Y-18545346D01*
X23352582Y-18558431D01*
X23345141Y-18570847D01*
X23336518Y-18582473D01*
X23326797Y-18593198D01*
X23316072Y-18602919D01*
X23304446Y-18611542D01*
X23292030Y-18618983D01*
X23278945Y-18625172D01*
X23265316Y-18630049D01*
X23251275Y-18633566D01*
X23236957Y-18635690D01*
X23222499Y-18636400D01*
X22877499Y-18636400D01*
X22863041Y-18635690D01*
X22848723Y-18633566D01*
X22834682Y-18630049D01*
X22821053Y-18625172D01*
X22807968Y-18618983D01*
X22795552Y-18611542D01*
X22783926Y-18602919D01*
X22773201Y-18593198D01*
X22763480Y-18582473D01*
X22754857Y-18570847D01*
X22747416Y-18558431D01*
X22741227Y-18545346D01*
X22736350Y-18531717D01*
X22732833Y-18517676D01*
X22730709Y-18503358D01*
X22729999Y-18488900D01*
X22729999Y-18193900D01*
X22730709Y-18179442D01*
X22732833Y-18165124D01*
X22736350Y-18151083D01*
X22741227Y-18137454D01*
X22747416Y-18124369D01*
X22754857Y-18111953D01*
X22763480Y-18100327D01*
X22773201Y-18089602D01*
X22783926Y-18079881D01*
X22795552Y-18071258D01*
X22807968Y-18063817D01*
X22821053Y-18057628D01*
X22834682Y-18052751D01*
X22848723Y-18049234D01*
X22863041Y-18047110D01*
X22877499Y-18046400D01*
X23222499Y-18046400D01*
X23236957Y-18047110D01*
G37*
G04 #@! TD.AperFunction*
G04 #@! TA.AperFunction,SMDPad,CuDef*
G36*
X23236957Y-17077110D02*
G01*
X23251275Y-17079234D01*
X23265316Y-17082751D01*
X23278945Y-17087628D01*
X23292030Y-17093817D01*
X23304446Y-17101258D01*
X23316072Y-17109881D01*
X23326797Y-17119602D01*
X23336518Y-17130327D01*
X23345141Y-17141953D01*
X23352582Y-17154369D01*
X23358771Y-17167454D01*
X23363648Y-17181083D01*
X23367165Y-17195124D01*
X23369289Y-17209442D01*
X23369999Y-17223900D01*
X23369999Y-17518900D01*
X23369289Y-17533358D01*
X23367165Y-17547676D01*
X23363648Y-17561717D01*
X23358771Y-17575346D01*
X23352582Y-17588431D01*
X23345141Y-17600847D01*
X23336518Y-17612473D01*
X23326797Y-17623198D01*
X23316072Y-17632919D01*
X23304446Y-17641542D01*
X23292030Y-17648983D01*
X23278945Y-17655172D01*
X23265316Y-17660049D01*
X23251275Y-17663566D01*
X23236957Y-17665690D01*
X23222499Y-17666400D01*
X22877499Y-17666400D01*
X22863041Y-17665690D01*
X22848723Y-17663566D01*
X22834682Y-17660049D01*
X22821053Y-17655172D01*
X22807968Y-17648983D01*
X22795552Y-17641542D01*
X22783926Y-17632919D01*
X22773201Y-17623198D01*
X22763480Y-17612473D01*
X22754857Y-17600847D01*
X22747416Y-17588431D01*
X22741227Y-17575346D01*
X22736350Y-17561717D01*
X22732833Y-17547676D01*
X22730709Y-17533358D01*
X22729999Y-17518900D01*
X22729999Y-17223900D01*
X22730709Y-17209442D01*
X22732833Y-17195124D01*
X22736350Y-17181083D01*
X22741227Y-17167454D01*
X22747416Y-17154369D01*
X22754857Y-17141953D01*
X22763480Y-17130327D01*
X22773201Y-17119602D01*
X22783926Y-17109881D01*
X22795552Y-17101258D01*
X22807968Y-17093817D01*
X22821053Y-17087628D01*
X22834682Y-17082751D01*
X22848723Y-17079234D01*
X22863041Y-17077110D01*
X22877499Y-17076400D01*
X23222499Y-17076400D01*
X23236957Y-17077110D01*
G37*
G04 #@! TD.AperFunction*
G04 #@! TA.AperFunction,SMDPad,CuDef*
G36*
X21576958Y-16187110D02*
G01*
X21591276Y-16189234D01*
X21605317Y-16192751D01*
X21618946Y-16197628D01*
X21632031Y-16203817D01*
X21644447Y-16211258D01*
X21656073Y-16219881D01*
X21666798Y-16229602D01*
X21676519Y-16240327D01*
X21685142Y-16251953D01*
X21692583Y-16264369D01*
X21698772Y-16277454D01*
X21703649Y-16291083D01*
X21707166Y-16305124D01*
X21709290Y-16319442D01*
X21710000Y-16333900D01*
X21710000Y-16678900D01*
X21709290Y-16693358D01*
X21707166Y-16707676D01*
X21703649Y-16721717D01*
X21698772Y-16735346D01*
X21692583Y-16748431D01*
X21685142Y-16760847D01*
X21676519Y-16772473D01*
X21666798Y-16783198D01*
X21656073Y-16792919D01*
X21644447Y-16801542D01*
X21632031Y-16808983D01*
X21618946Y-16815172D01*
X21605317Y-16820049D01*
X21591276Y-16823566D01*
X21576958Y-16825690D01*
X21562500Y-16826400D01*
X21267500Y-16826400D01*
X21253042Y-16825690D01*
X21238724Y-16823566D01*
X21224683Y-16820049D01*
X21211054Y-16815172D01*
X21197969Y-16808983D01*
X21185553Y-16801542D01*
X21173927Y-16792919D01*
X21163202Y-16783198D01*
X21153481Y-16772473D01*
X21144858Y-16760847D01*
X21137417Y-16748431D01*
X21131228Y-16735346D01*
X21126351Y-16721717D01*
X21122834Y-16707676D01*
X21120710Y-16693358D01*
X21120000Y-16678900D01*
X21120000Y-16333900D01*
X21120710Y-16319442D01*
X21122834Y-16305124D01*
X21126351Y-16291083D01*
X21131228Y-16277454D01*
X21137417Y-16264369D01*
X21144858Y-16251953D01*
X21153481Y-16240327D01*
X21163202Y-16229602D01*
X21173927Y-16219881D01*
X21185553Y-16211258D01*
X21197969Y-16203817D01*
X21211054Y-16197628D01*
X21224683Y-16192751D01*
X21238724Y-16189234D01*
X21253042Y-16187110D01*
X21267500Y-16186400D01*
X21562500Y-16186400D01*
X21576958Y-16187110D01*
G37*
G04 #@! TD.AperFunction*
G04 #@! TA.AperFunction,SMDPad,CuDef*
G36*
X22546958Y-16187110D02*
G01*
X22561276Y-16189234D01*
X22575317Y-16192751D01*
X22588946Y-16197628D01*
X22602031Y-16203817D01*
X22614447Y-16211258D01*
X22626073Y-16219881D01*
X22636798Y-16229602D01*
X22646519Y-16240327D01*
X22655142Y-16251953D01*
X22662583Y-16264369D01*
X22668772Y-16277454D01*
X22673649Y-16291083D01*
X22677166Y-16305124D01*
X22679290Y-16319442D01*
X22680000Y-16333900D01*
X22680000Y-16678900D01*
X22679290Y-16693358D01*
X22677166Y-16707676D01*
X22673649Y-16721717D01*
X22668772Y-16735346D01*
X22662583Y-16748431D01*
X22655142Y-16760847D01*
X22646519Y-16772473D01*
X22636798Y-16783198D01*
X22626073Y-16792919D01*
X22614447Y-16801542D01*
X22602031Y-16808983D01*
X22588946Y-16815172D01*
X22575317Y-16820049D01*
X22561276Y-16823566D01*
X22546958Y-16825690D01*
X22532500Y-16826400D01*
X22237500Y-16826400D01*
X22223042Y-16825690D01*
X22208724Y-16823566D01*
X22194683Y-16820049D01*
X22181054Y-16815172D01*
X22167969Y-16808983D01*
X22155553Y-16801542D01*
X22143927Y-16792919D01*
X22133202Y-16783198D01*
X22123481Y-16772473D01*
X22114858Y-16760847D01*
X22107417Y-16748431D01*
X22101228Y-16735346D01*
X22096351Y-16721717D01*
X22092834Y-16707676D01*
X22090710Y-16693358D01*
X22090000Y-16678900D01*
X22090000Y-16333900D01*
X22090710Y-16319442D01*
X22092834Y-16305124D01*
X22096351Y-16291083D01*
X22101228Y-16277454D01*
X22107417Y-16264369D01*
X22114858Y-16251953D01*
X22123481Y-16240327D01*
X22133202Y-16229602D01*
X22143927Y-16219881D01*
X22155553Y-16211258D01*
X22167969Y-16203817D01*
X22181054Y-16197628D01*
X22194683Y-16192751D01*
X22208724Y-16189234D01*
X22223042Y-16187110D01*
X22237500Y-16186400D01*
X22532500Y-16186400D01*
X22546958Y-16187110D01*
G37*
G04 #@! TD.AperFunction*
G04 #@! TA.AperFunction,SMDPad,CuDef*
G36*
X23236958Y-15332111D02*
G01*
X23251276Y-15334235D01*
X23265317Y-15337752D01*
X23278946Y-15342629D01*
X23292031Y-15348818D01*
X23304447Y-15356259D01*
X23316073Y-15364882D01*
X23326798Y-15374603D01*
X23336519Y-15385328D01*
X23345142Y-15396954D01*
X23352583Y-15409370D01*
X23358772Y-15422455D01*
X23363649Y-15436084D01*
X23367166Y-15450125D01*
X23369290Y-15464443D01*
X23370000Y-15478901D01*
X23370000Y-15773901D01*
X23369290Y-15788359D01*
X23367166Y-15802677D01*
X23363649Y-15816718D01*
X23358772Y-15830347D01*
X23352583Y-15843432D01*
X23345142Y-15855848D01*
X23336519Y-15867474D01*
X23326798Y-15878199D01*
X23316073Y-15887920D01*
X23304447Y-15896543D01*
X23292031Y-15903984D01*
X23278946Y-15910173D01*
X23265317Y-15915050D01*
X23251276Y-15918567D01*
X23236958Y-15920691D01*
X23222500Y-15921401D01*
X22877500Y-15921401D01*
X22863042Y-15920691D01*
X22848724Y-15918567D01*
X22834683Y-15915050D01*
X22821054Y-15910173D01*
X22807969Y-15903984D01*
X22795553Y-15896543D01*
X22783927Y-15887920D01*
X22773202Y-15878199D01*
X22763481Y-15867474D01*
X22754858Y-15855848D01*
X22747417Y-15843432D01*
X22741228Y-15830347D01*
X22736351Y-15816718D01*
X22732834Y-15802677D01*
X22730710Y-15788359D01*
X22730000Y-15773901D01*
X22730000Y-15478901D01*
X22730710Y-15464443D01*
X22732834Y-15450125D01*
X22736351Y-15436084D01*
X22741228Y-15422455D01*
X22747417Y-15409370D01*
X22754858Y-15396954D01*
X22763481Y-15385328D01*
X22773202Y-15374603D01*
X22783927Y-15364882D01*
X22795553Y-15356259D01*
X22807969Y-15348818D01*
X22821054Y-15342629D01*
X22834683Y-15337752D01*
X22848724Y-15334235D01*
X22863042Y-15332111D01*
X22877500Y-15331401D01*
X23222500Y-15331401D01*
X23236958Y-15332111D01*
G37*
G04 #@! TD.AperFunction*
G04 #@! TA.AperFunction,SMDPad,CuDef*
G36*
X23236958Y-14362111D02*
G01*
X23251276Y-14364235D01*
X23265317Y-14367752D01*
X23278946Y-14372629D01*
X23292031Y-14378818D01*
X23304447Y-14386259D01*
X23316073Y-14394882D01*
X23326798Y-14404603D01*
X23336519Y-14415328D01*
X23345142Y-14426954D01*
X23352583Y-14439370D01*
X23358772Y-14452455D01*
X23363649Y-14466084D01*
X23367166Y-14480125D01*
X23369290Y-14494443D01*
X23370000Y-14508901D01*
X23370000Y-14803901D01*
X23369290Y-14818359D01*
X23367166Y-14832677D01*
X23363649Y-14846718D01*
X23358772Y-14860347D01*
X23352583Y-14873432D01*
X23345142Y-14885848D01*
X23336519Y-14897474D01*
X23326798Y-14908199D01*
X23316073Y-14917920D01*
X23304447Y-14926543D01*
X23292031Y-14933984D01*
X23278946Y-14940173D01*
X23265317Y-14945050D01*
X23251276Y-14948567D01*
X23236958Y-14950691D01*
X23222500Y-14951401D01*
X22877500Y-14951401D01*
X22863042Y-14950691D01*
X22848724Y-14948567D01*
X22834683Y-14945050D01*
X22821054Y-14940173D01*
X22807969Y-14933984D01*
X22795553Y-14926543D01*
X22783927Y-14917920D01*
X22773202Y-14908199D01*
X22763481Y-14897474D01*
X22754858Y-14885848D01*
X22747417Y-14873432D01*
X22741228Y-14860347D01*
X22736351Y-14846718D01*
X22732834Y-14832677D01*
X22730710Y-14818359D01*
X22730000Y-14803901D01*
X22730000Y-14508901D01*
X22730710Y-14494443D01*
X22732834Y-14480125D01*
X22736351Y-14466084D01*
X22741228Y-14452455D01*
X22747417Y-14439370D01*
X22754858Y-14426954D01*
X22763481Y-14415328D01*
X22773202Y-14404603D01*
X22783927Y-14394882D01*
X22795553Y-14386259D01*
X22807969Y-14378818D01*
X22821054Y-14372629D01*
X22834683Y-14367752D01*
X22848724Y-14364235D01*
X22863042Y-14362111D01*
X22877500Y-14361401D01*
X23222500Y-14361401D01*
X23236958Y-14362111D01*
G37*
G04 #@! TD.AperFunction*
G04 #@! TA.AperFunction,SMDPad,CuDef*
G36*
X19836958Y-21697110D02*
G01*
X19851276Y-21699234D01*
X19865317Y-21702751D01*
X19878946Y-21707628D01*
X19892031Y-21713817D01*
X19904447Y-21721258D01*
X19916073Y-21729881D01*
X19926798Y-21739602D01*
X19936519Y-21750327D01*
X19945142Y-21761953D01*
X19952583Y-21774369D01*
X19958772Y-21787454D01*
X19963649Y-21801083D01*
X19967166Y-21815124D01*
X19969290Y-21829442D01*
X19970000Y-21843900D01*
X19970000Y-22138900D01*
X19969290Y-22153358D01*
X19967166Y-22167676D01*
X19963649Y-22181717D01*
X19958772Y-22195346D01*
X19952583Y-22208431D01*
X19945142Y-22220847D01*
X19936519Y-22232473D01*
X19926798Y-22243198D01*
X19916073Y-22252919D01*
X19904447Y-22261542D01*
X19892031Y-22268983D01*
X19878946Y-22275172D01*
X19865317Y-22280049D01*
X19851276Y-22283566D01*
X19836958Y-22285690D01*
X19822500Y-22286400D01*
X19477500Y-22286400D01*
X19463042Y-22285690D01*
X19448724Y-22283566D01*
X19434683Y-22280049D01*
X19421054Y-22275172D01*
X19407969Y-22268983D01*
X19395553Y-22261542D01*
X19383927Y-22252919D01*
X19373202Y-22243198D01*
X19363481Y-22232473D01*
X19354858Y-22220847D01*
X19347417Y-22208431D01*
X19341228Y-22195346D01*
X19336351Y-22181717D01*
X19332834Y-22167676D01*
X19330710Y-22153358D01*
X19330000Y-22138900D01*
X19330000Y-21843900D01*
X19330710Y-21829442D01*
X19332834Y-21815124D01*
X19336351Y-21801083D01*
X19341228Y-21787454D01*
X19347417Y-21774369D01*
X19354858Y-21761953D01*
X19363481Y-21750327D01*
X19373202Y-21739602D01*
X19383927Y-21729881D01*
X19395553Y-21721258D01*
X19407969Y-21713817D01*
X19421054Y-21707628D01*
X19434683Y-21702751D01*
X19448724Y-21699234D01*
X19463042Y-21697110D01*
X19477500Y-21696400D01*
X19822500Y-21696400D01*
X19836958Y-21697110D01*
G37*
G04 #@! TD.AperFunction*
G04 #@! TA.AperFunction,SMDPad,CuDef*
G36*
X19836958Y-20727110D02*
G01*
X19851276Y-20729234D01*
X19865317Y-20732751D01*
X19878946Y-20737628D01*
X19892031Y-20743817D01*
X19904447Y-20751258D01*
X19916073Y-20759881D01*
X19926798Y-20769602D01*
X19936519Y-20780327D01*
X19945142Y-20791953D01*
X19952583Y-20804369D01*
X19958772Y-20817454D01*
X19963649Y-20831083D01*
X19967166Y-20845124D01*
X19969290Y-20859442D01*
X19970000Y-20873900D01*
X19970000Y-21168900D01*
X19969290Y-21183358D01*
X19967166Y-21197676D01*
X19963649Y-21211717D01*
X19958772Y-21225346D01*
X19952583Y-21238431D01*
X19945142Y-21250847D01*
X19936519Y-21262473D01*
X19926798Y-21273198D01*
X19916073Y-21282919D01*
X19904447Y-21291542D01*
X19892031Y-21298983D01*
X19878946Y-21305172D01*
X19865317Y-21310049D01*
X19851276Y-21313566D01*
X19836958Y-21315690D01*
X19822500Y-21316400D01*
X19477500Y-21316400D01*
X19463042Y-21315690D01*
X19448724Y-21313566D01*
X19434683Y-21310049D01*
X19421054Y-21305172D01*
X19407969Y-21298983D01*
X19395553Y-21291542D01*
X19383927Y-21282919D01*
X19373202Y-21273198D01*
X19363481Y-21262473D01*
X19354858Y-21250847D01*
X19347417Y-21238431D01*
X19341228Y-21225346D01*
X19336351Y-21211717D01*
X19332834Y-21197676D01*
X19330710Y-21183358D01*
X19330000Y-21168900D01*
X19330000Y-20873900D01*
X19330710Y-20859442D01*
X19332834Y-20845124D01*
X19336351Y-20831083D01*
X19341228Y-20817454D01*
X19347417Y-20804369D01*
X19354858Y-20791953D01*
X19363481Y-20780327D01*
X19373202Y-20769602D01*
X19383927Y-20759881D01*
X19395553Y-20751258D01*
X19407969Y-20743817D01*
X19421054Y-20737628D01*
X19434683Y-20732751D01*
X19448724Y-20729234D01*
X19463042Y-20727110D01*
X19477500Y-20726400D01*
X19822500Y-20726400D01*
X19836958Y-20727110D01*
G37*
G04 #@! TD.AperFunction*
G04 #@! TA.AperFunction,SMDPad,CuDef*
G36*
X20426958Y-21687110D02*
G01*
X20441276Y-21689234D01*
X20455317Y-21692751D01*
X20468946Y-21697628D01*
X20482031Y-21703817D01*
X20494447Y-21711258D01*
X20506073Y-21719881D01*
X20516798Y-21729602D01*
X20526519Y-21740327D01*
X20535142Y-21751953D01*
X20542583Y-21764369D01*
X20548772Y-21777454D01*
X20553649Y-21791083D01*
X20557166Y-21805124D01*
X20559290Y-21819442D01*
X20560000Y-21833900D01*
X20560000Y-22178900D01*
X20559290Y-22193358D01*
X20557166Y-22207676D01*
X20553649Y-22221717D01*
X20548772Y-22235346D01*
X20542583Y-22248431D01*
X20535142Y-22260847D01*
X20526519Y-22272473D01*
X20516798Y-22283198D01*
X20506073Y-22292919D01*
X20494447Y-22301542D01*
X20482031Y-22308983D01*
X20468946Y-22315172D01*
X20455317Y-22320049D01*
X20441276Y-22323566D01*
X20426958Y-22325690D01*
X20412500Y-22326400D01*
X20117500Y-22326400D01*
X20103042Y-22325690D01*
X20088724Y-22323566D01*
X20074683Y-22320049D01*
X20061054Y-22315172D01*
X20047969Y-22308983D01*
X20035553Y-22301542D01*
X20023927Y-22292919D01*
X20013202Y-22283198D01*
X20003481Y-22272473D01*
X19994858Y-22260847D01*
X19987417Y-22248431D01*
X19981228Y-22235346D01*
X19976351Y-22221717D01*
X19972834Y-22207676D01*
X19970710Y-22193358D01*
X19970000Y-22178900D01*
X19970000Y-21833900D01*
X19970710Y-21819442D01*
X19972834Y-21805124D01*
X19976351Y-21791083D01*
X19981228Y-21777454D01*
X19987417Y-21764369D01*
X19994858Y-21751953D01*
X20003481Y-21740327D01*
X20013202Y-21729602D01*
X20023927Y-21719881D01*
X20035553Y-21711258D01*
X20047969Y-21703817D01*
X20061054Y-21697628D01*
X20074683Y-21692751D01*
X20088724Y-21689234D01*
X20103042Y-21687110D01*
X20117500Y-21686400D01*
X20412500Y-21686400D01*
X20426958Y-21687110D01*
G37*
G04 #@! TD.AperFunction*
G04 #@! TA.AperFunction,SMDPad,CuDef*
G36*
X21396958Y-21687110D02*
G01*
X21411276Y-21689234D01*
X21425317Y-21692751D01*
X21438946Y-21697628D01*
X21452031Y-21703817D01*
X21464447Y-21711258D01*
X21476073Y-21719881D01*
X21486798Y-21729602D01*
X21496519Y-21740327D01*
X21505142Y-21751953D01*
X21512583Y-21764369D01*
X21518772Y-21777454D01*
X21523649Y-21791083D01*
X21527166Y-21805124D01*
X21529290Y-21819442D01*
X21530000Y-21833900D01*
X21530000Y-22178900D01*
X21529290Y-22193358D01*
X21527166Y-22207676D01*
X21523649Y-22221717D01*
X21518772Y-22235346D01*
X21512583Y-22248431D01*
X21505142Y-22260847D01*
X21496519Y-22272473D01*
X21486798Y-22283198D01*
X21476073Y-22292919D01*
X21464447Y-22301542D01*
X21452031Y-22308983D01*
X21438946Y-22315172D01*
X21425317Y-22320049D01*
X21411276Y-22323566D01*
X21396958Y-22325690D01*
X21382500Y-22326400D01*
X21087500Y-22326400D01*
X21073042Y-22325690D01*
X21058724Y-22323566D01*
X21044683Y-22320049D01*
X21031054Y-22315172D01*
X21017969Y-22308983D01*
X21005553Y-22301542D01*
X20993927Y-22292919D01*
X20983202Y-22283198D01*
X20973481Y-22272473D01*
X20964858Y-22260847D01*
X20957417Y-22248431D01*
X20951228Y-22235346D01*
X20946351Y-22221717D01*
X20942834Y-22207676D01*
X20940710Y-22193358D01*
X20940000Y-22178900D01*
X20940000Y-21833900D01*
X20940710Y-21819442D01*
X20942834Y-21805124D01*
X20946351Y-21791083D01*
X20951228Y-21777454D01*
X20957417Y-21764369D01*
X20964858Y-21751953D01*
X20973481Y-21740327D01*
X20983202Y-21729602D01*
X20993927Y-21719881D01*
X21005553Y-21711258D01*
X21017969Y-21703817D01*
X21031054Y-21697628D01*
X21044683Y-21692751D01*
X21058724Y-21689234D01*
X21073042Y-21687110D01*
X21087500Y-21686400D01*
X21382500Y-21686400D01*
X21396958Y-21687110D01*
G37*
G04 #@! TD.AperFunction*
G04 #@! TA.AperFunction,SMDPad,CuDef*
G36*
X23225000Y-11906400D02*
G01*
X22475000Y-11406400D01*
X22475000Y-10406400D01*
X23225000Y-9906400D01*
X23225000Y-11906400D01*
G37*
G04 #@! TD.AperFunction*
D18*
X25200000Y-10906400D03*
D19*
X21240000Y-12406400D03*
X21240000Y-10906400D03*
X21240000Y-9406400D03*
G04 #@! TA.AperFunction,SMDPad,CuDef*
D12*
G36*
X21436958Y-18077109D02*
G01*
X21451276Y-18079233D01*
X21465317Y-18082750D01*
X21478946Y-18087627D01*
X21492031Y-18093816D01*
X21504447Y-18101257D01*
X21516073Y-18109880D01*
X21526798Y-18119601D01*
X21536519Y-18130326D01*
X21545142Y-18141952D01*
X21552583Y-18154368D01*
X21558772Y-18167453D01*
X21563649Y-18181082D01*
X21567166Y-18195123D01*
X21569290Y-18209441D01*
X21570000Y-18223899D01*
X21570000Y-18518899D01*
X21569290Y-18533357D01*
X21567166Y-18547675D01*
X21563649Y-18561716D01*
X21558772Y-18575345D01*
X21552583Y-18588430D01*
X21545142Y-18600846D01*
X21536519Y-18612472D01*
X21526798Y-18623197D01*
X21516073Y-18632918D01*
X21504447Y-18641541D01*
X21492031Y-18648982D01*
X21478946Y-18655171D01*
X21465317Y-18660048D01*
X21451276Y-18663565D01*
X21436958Y-18665689D01*
X21422500Y-18666399D01*
X21077500Y-18666399D01*
X21063042Y-18665689D01*
X21048724Y-18663565D01*
X21034683Y-18660048D01*
X21021054Y-18655171D01*
X21007969Y-18648982D01*
X20995553Y-18641541D01*
X20983927Y-18632918D01*
X20973202Y-18623197D01*
X20963481Y-18612472D01*
X20954858Y-18600846D01*
X20947417Y-18588430D01*
X20941228Y-18575345D01*
X20936351Y-18561716D01*
X20932834Y-18547675D01*
X20930710Y-18533357D01*
X20930000Y-18518899D01*
X20930000Y-18223899D01*
X20930710Y-18209441D01*
X20932834Y-18195123D01*
X20936351Y-18181082D01*
X20941228Y-18167453D01*
X20947417Y-18154368D01*
X20954858Y-18141952D01*
X20963481Y-18130326D01*
X20973202Y-18119601D01*
X20983927Y-18109880D01*
X20995553Y-18101257D01*
X21007969Y-18093816D01*
X21021054Y-18087627D01*
X21034683Y-18082750D01*
X21048724Y-18079233D01*
X21063042Y-18077109D01*
X21077500Y-18076399D01*
X21422500Y-18076399D01*
X21436958Y-18077109D01*
G37*
G04 #@! TD.AperFunction*
G04 #@! TA.AperFunction,SMDPad,CuDef*
G36*
X21436958Y-19047109D02*
G01*
X21451276Y-19049233D01*
X21465317Y-19052750D01*
X21478946Y-19057627D01*
X21492031Y-19063816D01*
X21504447Y-19071257D01*
X21516073Y-19079880D01*
X21526798Y-19089601D01*
X21536519Y-19100326D01*
X21545142Y-19111952D01*
X21552583Y-19124368D01*
X21558772Y-19137453D01*
X21563649Y-19151082D01*
X21567166Y-19165123D01*
X21569290Y-19179441D01*
X21570000Y-19193899D01*
X21570000Y-19488899D01*
X21569290Y-19503357D01*
X21567166Y-19517675D01*
X21563649Y-19531716D01*
X21558772Y-19545345D01*
X21552583Y-19558430D01*
X21545142Y-19570846D01*
X21536519Y-19582472D01*
X21526798Y-19593197D01*
X21516073Y-19602918D01*
X21504447Y-19611541D01*
X21492031Y-19618982D01*
X21478946Y-19625171D01*
X21465317Y-19630048D01*
X21451276Y-19633565D01*
X21436958Y-19635689D01*
X21422500Y-19636399D01*
X21077500Y-19636399D01*
X21063042Y-19635689D01*
X21048724Y-19633565D01*
X21034683Y-19630048D01*
X21021054Y-19625171D01*
X21007969Y-19618982D01*
X20995553Y-19611541D01*
X20983927Y-19602918D01*
X20973202Y-19593197D01*
X20963481Y-19582472D01*
X20954858Y-19570846D01*
X20947417Y-19558430D01*
X20941228Y-19545345D01*
X20936351Y-19531716D01*
X20932834Y-19517675D01*
X20930710Y-19503357D01*
X20930000Y-19488899D01*
X20930000Y-19193899D01*
X20930710Y-19179441D01*
X20932834Y-19165123D01*
X20936351Y-19151082D01*
X20941228Y-19137453D01*
X20947417Y-19124368D01*
X20954858Y-19111952D01*
X20963481Y-19100326D01*
X20973202Y-19089601D01*
X20983927Y-19079880D01*
X20995553Y-19071257D01*
X21007969Y-19063816D01*
X21021054Y-19057627D01*
X21034683Y-19052750D01*
X21048724Y-19049233D01*
X21063042Y-19047109D01*
X21077500Y-19046399D01*
X21422500Y-19046399D01*
X21436958Y-19047109D01*
G37*
G04 #@! TD.AperFunction*
G04 #@! TA.AperFunction,SMDPad,CuDef*
G36*
X17726958Y-9087110D02*
G01*
X17741276Y-9089234D01*
X17755317Y-9092751D01*
X17768946Y-9097628D01*
X17782031Y-9103817D01*
X17794447Y-9111258D01*
X17806073Y-9119881D01*
X17816798Y-9129602D01*
X17826519Y-9140327D01*
X17835142Y-9151953D01*
X17842583Y-9164369D01*
X17848772Y-9177454D01*
X17853649Y-9191083D01*
X17857166Y-9205124D01*
X17859290Y-9219442D01*
X17860000Y-9233900D01*
X17860000Y-9578900D01*
X17859290Y-9593358D01*
X17857166Y-9607676D01*
X17853649Y-9621717D01*
X17848772Y-9635346D01*
X17842583Y-9648431D01*
X17835142Y-9660847D01*
X17826519Y-9672473D01*
X17816798Y-9683198D01*
X17806073Y-9692919D01*
X17794447Y-9701542D01*
X17782031Y-9708983D01*
X17768946Y-9715172D01*
X17755317Y-9720049D01*
X17741276Y-9723566D01*
X17726958Y-9725690D01*
X17712500Y-9726400D01*
X17417500Y-9726400D01*
X17403042Y-9725690D01*
X17388724Y-9723566D01*
X17374683Y-9720049D01*
X17361054Y-9715172D01*
X17347969Y-9708983D01*
X17335553Y-9701542D01*
X17323927Y-9692919D01*
X17313202Y-9683198D01*
X17303481Y-9672473D01*
X17294858Y-9660847D01*
X17287417Y-9648431D01*
X17281228Y-9635346D01*
X17276351Y-9621717D01*
X17272834Y-9607676D01*
X17270710Y-9593358D01*
X17270000Y-9578900D01*
X17270000Y-9233900D01*
X17270710Y-9219442D01*
X17272834Y-9205124D01*
X17276351Y-9191083D01*
X17281228Y-9177454D01*
X17287417Y-9164369D01*
X17294858Y-9151953D01*
X17303481Y-9140327D01*
X17313202Y-9129602D01*
X17323927Y-9119881D01*
X17335553Y-9111258D01*
X17347969Y-9103817D01*
X17361054Y-9097628D01*
X17374683Y-9092751D01*
X17388724Y-9089234D01*
X17403042Y-9087110D01*
X17417500Y-9086400D01*
X17712500Y-9086400D01*
X17726958Y-9087110D01*
G37*
G04 #@! TD.AperFunction*
G04 #@! TA.AperFunction,SMDPad,CuDef*
G36*
X18696958Y-9087110D02*
G01*
X18711276Y-9089234D01*
X18725317Y-9092751D01*
X18738946Y-9097628D01*
X18752031Y-9103817D01*
X18764447Y-9111258D01*
X18776073Y-9119881D01*
X18786798Y-9129602D01*
X18796519Y-9140327D01*
X18805142Y-9151953D01*
X18812583Y-9164369D01*
X18818772Y-9177454D01*
X18823649Y-9191083D01*
X18827166Y-9205124D01*
X18829290Y-9219442D01*
X18830000Y-9233900D01*
X18830000Y-9578900D01*
X18829290Y-9593358D01*
X18827166Y-9607676D01*
X18823649Y-9621717D01*
X18818772Y-9635346D01*
X18812583Y-9648431D01*
X18805142Y-9660847D01*
X18796519Y-9672473D01*
X18786798Y-9683198D01*
X18776073Y-9692919D01*
X18764447Y-9701542D01*
X18752031Y-9708983D01*
X18738946Y-9715172D01*
X18725317Y-9720049D01*
X18711276Y-9723566D01*
X18696958Y-9725690D01*
X18682500Y-9726400D01*
X18387500Y-9726400D01*
X18373042Y-9725690D01*
X18358724Y-9723566D01*
X18344683Y-9720049D01*
X18331054Y-9715172D01*
X18317969Y-9708983D01*
X18305553Y-9701542D01*
X18293927Y-9692919D01*
X18283202Y-9683198D01*
X18273481Y-9672473D01*
X18264858Y-9660847D01*
X18257417Y-9648431D01*
X18251228Y-9635346D01*
X18246351Y-9621717D01*
X18242834Y-9607676D01*
X18240710Y-9593358D01*
X18240000Y-9578900D01*
X18240000Y-9233900D01*
X18240710Y-9219442D01*
X18242834Y-9205124D01*
X18246351Y-9191083D01*
X18251228Y-9177454D01*
X18257417Y-9164369D01*
X18264858Y-9151953D01*
X18273481Y-9140327D01*
X18283202Y-9129602D01*
X18293927Y-9119881D01*
X18305553Y-9111258D01*
X18317969Y-9103817D01*
X18331054Y-9097628D01*
X18344683Y-9092751D01*
X18358724Y-9089234D01*
X18373042Y-9087110D01*
X18387500Y-9086400D01*
X18682500Y-9086400D01*
X18696958Y-9087110D01*
G37*
G04 #@! TD.AperFunction*
G04 #@! TA.AperFunction,SMDPad,CuDef*
G36*
X1404158Y-7808710D02*
G01*
X1418476Y-7810834D01*
X1432517Y-7814351D01*
X1446146Y-7819228D01*
X1459231Y-7825417D01*
X1471647Y-7832858D01*
X1483273Y-7841481D01*
X1493998Y-7851202D01*
X1503719Y-7861927D01*
X1512342Y-7873553D01*
X1519783Y-7885969D01*
X1525972Y-7899054D01*
X1530849Y-7912683D01*
X1534366Y-7926724D01*
X1536490Y-7941042D01*
X1537200Y-7955500D01*
X1537200Y-8300500D01*
X1536490Y-8314958D01*
X1534366Y-8329276D01*
X1530849Y-8343317D01*
X1525972Y-8356946D01*
X1519783Y-8370031D01*
X1512342Y-8382447D01*
X1503719Y-8394073D01*
X1493998Y-8404798D01*
X1483273Y-8414519D01*
X1471647Y-8423142D01*
X1459231Y-8430583D01*
X1446146Y-8436772D01*
X1432517Y-8441649D01*
X1418476Y-8445166D01*
X1404158Y-8447290D01*
X1389700Y-8448000D01*
X1094700Y-8448000D01*
X1080242Y-8447290D01*
X1065924Y-8445166D01*
X1051883Y-8441649D01*
X1038254Y-8436772D01*
X1025169Y-8430583D01*
X1012753Y-8423142D01*
X1001127Y-8414519D01*
X990402Y-8404798D01*
X980681Y-8394073D01*
X972058Y-8382447D01*
X964617Y-8370031D01*
X958428Y-8356946D01*
X953551Y-8343317D01*
X950034Y-8329276D01*
X947910Y-8314958D01*
X947200Y-8300500D01*
X947200Y-7955500D01*
X947910Y-7941042D01*
X950034Y-7926724D01*
X953551Y-7912683D01*
X958428Y-7899054D01*
X964617Y-7885969D01*
X972058Y-7873553D01*
X980681Y-7861927D01*
X990402Y-7851202D01*
X1001127Y-7841481D01*
X1012753Y-7832858D01*
X1025169Y-7825417D01*
X1038254Y-7819228D01*
X1051883Y-7814351D01*
X1065924Y-7810834D01*
X1080242Y-7808710D01*
X1094700Y-7808000D01*
X1389700Y-7808000D01*
X1404158Y-7808710D01*
G37*
G04 #@! TD.AperFunction*
G04 #@! TA.AperFunction,SMDPad,CuDef*
G36*
X2374158Y-7808710D02*
G01*
X2388476Y-7810834D01*
X2402517Y-7814351D01*
X2416146Y-7819228D01*
X2429231Y-7825417D01*
X2441647Y-7832858D01*
X2453273Y-7841481D01*
X2463998Y-7851202D01*
X2473719Y-7861927D01*
X2482342Y-7873553D01*
X2489783Y-7885969D01*
X2495972Y-7899054D01*
X2500849Y-7912683D01*
X2504366Y-7926724D01*
X2506490Y-7941042D01*
X2507200Y-7955500D01*
X2507200Y-8300500D01*
X2506490Y-8314958D01*
X2504366Y-8329276D01*
X2500849Y-8343317D01*
X2495972Y-8356946D01*
X2489783Y-8370031D01*
X2482342Y-8382447D01*
X2473719Y-8394073D01*
X2463998Y-8404798D01*
X2453273Y-8414519D01*
X2441647Y-8423142D01*
X2429231Y-8430583D01*
X2416146Y-8436772D01*
X2402517Y-8441649D01*
X2388476Y-8445166D01*
X2374158Y-8447290D01*
X2359700Y-8448000D01*
X2064700Y-8448000D01*
X2050242Y-8447290D01*
X2035924Y-8445166D01*
X2021883Y-8441649D01*
X2008254Y-8436772D01*
X1995169Y-8430583D01*
X1982753Y-8423142D01*
X1971127Y-8414519D01*
X1960402Y-8404798D01*
X1950681Y-8394073D01*
X1942058Y-8382447D01*
X1934617Y-8370031D01*
X1928428Y-8356946D01*
X1923551Y-8343317D01*
X1920034Y-8329276D01*
X1917910Y-8314958D01*
X1917200Y-8300500D01*
X1917200Y-7955500D01*
X1917910Y-7941042D01*
X1920034Y-7926724D01*
X1923551Y-7912683D01*
X1928428Y-7899054D01*
X1934617Y-7885969D01*
X1942058Y-7873553D01*
X1950681Y-7861927D01*
X1960402Y-7851202D01*
X1971127Y-7841481D01*
X1982753Y-7832858D01*
X1995169Y-7825417D01*
X2008254Y-7819228D01*
X2021883Y-7814351D01*
X2035924Y-7810834D01*
X2050242Y-7808710D01*
X2064700Y-7808000D01*
X2359700Y-7808000D01*
X2374158Y-7808710D01*
G37*
G04 #@! TD.AperFunction*
G04 #@! TA.AperFunction,SMDPad,CuDef*
G36*
X16686958Y-7247110D02*
G01*
X16701276Y-7249234D01*
X16715317Y-7252751D01*
X16728946Y-7257628D01*
X16742031Y-7263817D01*
X16754447Y-7271258D01*
X16766073Y-7279881D01*
X16776798Y-7289602D01*
X16786519Y-7300327D01*
X16795142Y-7311953D01*
X16802583Y-7324369D01*
X16808772Y-7337454D01*
X16813649Y-7351083D01*
X16817166Y-7365124D01*
X16819290Y-7379442D01*
X16820000Y-7393900D01*
X16820000Y-7688900D01*
X16819290Y-7703358D01*
X16817166Y-7717676D01*
X16813649Y-7731717D01*
X16808772Y-7745346D01*
X16802583Y-7758431D01*
X16795142Y-7770847D01*
X16786519Y-7782473D01*
X16776798Y-7793198D01*
X16766073Y-7802919D01*
X16754447Y-7811542D01*
X16742031Y-7818983D01*
X16728946Y-7825172D01*
X16715317Y-7830049D01*
X16701276Y-7833566D01*
X16686958Y-7835690D01*
X16672500Y-7836400D01*
X16327500Y-7836400D01*
X16313042Y-7835690D01*
X16298724Y-7833566D01*
X16284683Y-7830049D01*
X16271054Y-7825172D01*
X16257969Y-7818983D01*
X16245553Y-7811542D01*
X16233927Y-7802919D01*
X16223202Y-7793198D01*
X16213481Y-7782473D01*
X16204858Y-7770847D01*
X16197417Y-7758431D01*
X16191228Y-7745346D01*
X16186351Y-7731717D01*
X16182834Y-7717676D01*
X16180710Y-7703358D01*
X16180000Y-7688900D01*
X16180000Y-7393900D01*
X16180710Y-7379442D01*
X16182834Y-7365124D01*
X16186351Y-7351083D01*
X16191228Y-7337454D01*
X16197417Y-7324369D01*
X16204858Y-7311953D01*
X16213481Y-7300327D01*
X16223202Y-7289602D01*
X16233927Y-7279881D01*
X16245553Y-7271258D01*
X16257969Y-7263817D01*
X16271054Y-7257628D01*
X16284683Y-7252751D01*
X16298724Y-7249234D01*
X16313042Y-7247110D01*
X16327500Y-7246400D01*
X16672500Y-7246400D01*
X16686958Y-7247110D01*
G37*
G04 #@! TD.AperFunction*
G04 #@! TA.AperFunction,SMDPad,CuDef*
G36*
X16686958Y-6277110D02*
G01*
X16701276Y-6279234D01*
X16715317Y-6282751D01*
X16728946Y-6287628D01*
X16742031Y-6293817D01*
X16754447Y-6301258D01*
X16766073Y-6309881D01*
X16776798Y-6319602D01*
X16786519Y-6330327D01*
X16795142Y-6341953D01*
X16802583Y-6354369D01*
X16808772Y-6367454D01*
X16813649Y-6381083D01*
X16817166Y-6395124D01*
X16819290Y-6409442D01*
X16820000Y-6423900D01*
X16820000Y-6718900D01*
X16819290Y-6733358D01*
X16817166Y-6747676D01*
X16813649Y-6761717D01*
X16808772Y-6775346D01*
X16802583Y-6788431D01*
X16795142Y-6800847D01*
X16786519Y-6812473D01*
X16776798Y-6823198D01*
X16766073Y-6832919D01*
X16754447Y-6841542D01*
X16742031Y-6848983D01*
X16728946Y-6855172D01*
X16715317Y-6860049D01*
X16701276Y-6863566D01*
X16686958Y-6865690D01*
X16672500Y-6866400D01*
X16327500Y-6866400D01*
X16313042Y-6865690D01*
X16298724Y-6863566D01*
X16284683Y-6860049D01*
X16271054Y-6855172D01*
X16257969Y-6848983D01*
X16245553Y-6841542D01*
X16233927Y-6832919D01*
X16223202Y-6823198D01*
X16213481Y-6812473D01*
X16204858Y-6800847D01*
X16197417Y-6788431D01*
X16191228Y-6775346D01*
X16186351Y-6761717D01*
X16182834Y-6747676D01*
X16180710Y-6733358D01*
X16180000Y-6718900D01*
X16180000Y-6423900D01*
X16180710Y-6409442D01*
X16182834Y-6395124D01*
X16186351Y-6381083D01*
X16191228Y-6367454D01*
X16197417Y-6354369D01*
X16204858Y-6341953D01*
X16213481Y-6330327D01*
X16223202Y-6319602D01*
X16233927Y-6309881D01*
X16245553Y-6301258D01*
X16257969Y-6293817D01*
X16271054Y-6287628D01*
X16284683Y-6282751D01*
X16298724Y-6279234D01*
X16313042Y-6277110D01*
X16327500Y-6276400D01*
X16672500Y-6276400D01*
X16686958Y-6277110D01*
G37*
G04 #@! TD.AperFunction*
D20*
X3798000Y-9347200D03*
D21*
X4548000Y-8147200D03*
X3048000Y-8147200D03*
D22*
X16250000Y-28606400D03*
D23*
X22555000Y-65156400D03*
X21285000Y-65156400D03*
X20015000Y-65156400D03*
X18745000Y-65156400D03*
X18745000Y-59756400D03*
X20015000Y-59756400D03*
X21285000Y-59756400D03*
X22555000Y-59756400D03*
X22555000Y-56006400D03*
X21285000Y-56006400D03*
X20015000Y-56006400D03*
X18745000Y-56006400D03*
X18745000Y-50606400D03*
X20015000Y-50606400D03*
X21285000Y-50606400D03*
X22555000Y-50606400D03*
X22602960Y-46927400D03*
X21332960Y-46927400D03*
X20062960Y-46927400D03*
X18792960Y-46927400D03*
X18792960Y-41527400D03*
X20062960Y-41527400D03*
X21332960Y-41527400D03*
X22602960Y-41527400D03*
X22505000Y-37706400D03*
X21235000Y-37706400D03*
X19965000Y-37706400D03*
X18695000Y-37706400D03*
X18695000Y-32306400D03*
X19965000Y-32306400D03*
X21235000Y-32306400D03*
X22505000Y-32306400D03*
X22554999Y-28606401D03*
X21284999Y-28606401D03*
X20014999Y-28606401D03*
X18744999Y-28606401D03*
X18744999Y-23206401D03*
X20014999Y-23206401D03*
X21284999Y-23206401D03*
X22554999Y-23206401D03*
D24*
X16500000Y-11961400D03*
X16500000Y-10691400D03*
X16500000Y-9421400D03*
X16500000Y-8151400D03*
X11100000Y-8151400D03*
X11100000Y-9421400D03*
X11100000Y-10691400D03*
X11100000Y-11961400D03*
D25*
X13800000Y-10056400D03*
D22*
X21300000Y-68206400D03*
D26*
X2231400Y-8147200D02*
X2212200Y-8128000D01*
X3048000Y-8147200D02*
X2231400Y-8147200D01*
X18745000Y-38900560D02*
X19450840Y-39606400D01*
X18745000Y-37806400D02*
X18745000Y-38900560D01*
X18745000Y-57150559D02*
X18745000Y-56006400D01*
X19500840Y-57906399D02*
X18745000Y-57150559D01*
X18792960Y-48048519D02*
X19450841Y-48706400D01*
X18792960Y-46927400D02*
X18792960Y-48048519D01*
X20014999Y-23206401D02*
X18744999Y-23206401D01*
X20014999Y-22356399D02*
X19650000Y-21991400D01*
X20014999Y-23206401D02*
X20014999Y-22356399D01*
X20014999Y-22256401D02*
X20265000Y-22006400D01*
X20014999Y-23206401D02*
X20014999Y-22256401D01*
X22561560Y-55999840D02*
X22555001Y-56006400D01*
X24150000Y-55999840D02*
X22561560Y-55999840D01*
X22625599Y-46904761D02*
X22602960Y-46927400D01*
X24200000Y-46904761D02*
X22625599Y-46904761D01*
X24098359Y-65156400D02*
X24150000Y-65104759D01*
X22555001Y-65156400D02*
X24098359Y-65156400D01*
X24200000Y-46904761D02*
X24200000Y-46853961D01*
X24150000Y-65053959D02*
X24150000Y-65104759D01*
X15996640Y-8151400D02*
X14450000Y-6604760D01*
X16500000Y-8151400D02*
X15996640Y-8151400D01*
X16500001Y-7541400D02*
X16500000Y-8151400D01*
X23900000Y-37706400D02*
X24050000Y-37856400D01*
X22505000Y-37706400D02*
X23900000Y-37706400D01*
X24001641Y-28606401D02*
X24100000Y-28704760D01*
X22554999Y-28606401D02*
X24001641Y-28606401D01*
X24999110Y-28704760D02*
X25000750Y-28706400D01*
X24100000Y-28704760D02*
X24999110Y-28704760D01*
X25000750Y-28706400D02*
X28250000Y-28706400D01*
X24050000Y-37856400D02*
X28300000Y-37856400D01*
X24100000Y-46954760D02*
X28298360Y-46954760D01*
X25049110Y-55999840D02*
X25092550Y-55956400D01*
X24150000Y-55999840D02*
X25049110Y-55999840D01*
X25092550Y-55956400D02*
X28350000Y-55956400D01*
X25049110Y-65104759D02*
X25050751Y-65106400D01*
X24150000Y-65104759D02*
X25049110Y-65104759D01*
X25050751Y-65106400D02*
X28400000Y-65106400D01*
X28400000Y-56006400D02*
X28350000Y-55956400D01*
X28400000Y-65106400D02*
X28400000Y-56006400D01*
X28400000Y-47056400D02*
X28298360Y-46954760D01*
X28400000Y-56006400D02*
X28400000Y-47056400D01*
X28400000Y-37956400D02*
X28300000Y-37856400D01*
X28400000Y-47056400D02*
X28400000Y-37956400D01*
X28400000Y-28856400D02*
X28250000Y-28706400D01*
X28400000Y-37956400D02*
X28400000Y-28856400D01*
X25748360Y-16506400D02*
X25750000Y-16508040D01*
X24849160Y-16506400D02*
X25748360Y-16506400D01*
X23035000Y-65636400D02*
X22555000Y-65156400D01*
X23200000Y-65636400D02*
X23035000Y-65636400D01*
X23105000Y-56556400D02*
X22555000Y-56006400D01*
X23200000Y-56556400D02*
X23105000Y-56556400D01*
X23046960Y-47371400D02*
X22602960Y-46927400D01*
X23200000Y-47371400D02*
X23046960Y-47371400D01*
X22955000Y-38156400D02*
X22505000Y-37706400D01*
X23200000Y-38156400D02*
X22955000Y-38156400D01*
X23034998Y-29086400D02*
X22554999Y-28606401D01*
X23200000Y-29086400D02*
X23034998Y-29086400D01*
X21284999Y-23206401D02*
X21284999Y-22731402D01*
X21235000Y-23156402D02*
X21284999Y-23206401D01*
X21235000Y-22006400D02*
X21235000Y-23156402D01*
X21250000Y-21991400D02*
X21235000Y-22006400D01*
X21250000Y-21341399D02*
X21250000Y-21991400D01*
D27*
X21250000Y-21341399D02*
X21250000Y-19644000D01*
D26*
X21285000Y-68241399D02*
X21300001Y-68256400D01*
X21285001Y-65156400D02*
X21285000Y-68241399D01*
X17845840Y-11961400D02*
X17850000Y-11957240D01*
X16500000Y-11961400D02*
X17845840Y-11961400D01*
X21285000Y-28606402D02*
X21284999Y-28606401D01*
X21285000Y-32406400D02*
X21285000Y-28606402D01*
X21332960Y-37854360D02*
X21285000Y-37806400D01*
X21332960Y-40927400D02*
X21332960Y-37854360D01*
X21385000Y-46979440D02*
X21332960Y-46927400D01*
X21249161Y-50570561D02*
X21285000Y-50606400D01*
X21249160Y-48706400D02*
X21249161Y-50570561D01*
X21249161Y-47011199D02*
X21332960Y-46927400D01*
X21249161Y-48706400D02*
X21249161Y-47011199D01*
X21285000Y-59756399D02*
X21285001Y-56006400D01*
X21285000Y-57920559D02*
X21299160Y-57906400D01*
X21285000Y-59756399D02*
X21285000Y-57920559D01*
X19965000Y-32306400D02*
X18695000Y-32306400D01*
X20062960Y-41527400D02*
X18792960Y-41527400D01*
X18745000Y-50606400D02*
X20015000Y-50606400D01*
X20015000Y-59756400D02*
X18745000Y-59756400D01*
D27*
X-1018500Y-8131000D02*
X881500Y-8131000D01*
D26*
X11095000Y-8156400D02*
X11100000Y-8151400D01*
X16515000Y-9406400D02*
X16500000Y-9421400D01*
X17565000Y-9406400D02*
X16515000Y-9406400D01*
D27*
X21240000Y-9406400D02*
X18850000Y-9406400D01*
X21240000Y-13906400D02*
X21250000Y-13916400D01*
X21240000Y-12406400D02*
X21240000Y-13906400D01*
X21250000Y-13916400D02*
X21250000Y-15956400D01*
X21250000Y-15956400D02*
X21250000Y-16341400D01*
X21250000Y-16341400D02*
X21250000Y-18056400D01*
D26*
X10050000Y-10691400D02*
X10035000Y-10706400D01*
X11100000Y-10691400D02*
X10050000Y-10691400D01*
X6162000Y-5494200D02*
X6627000Y-5029200D01*
X6162000Y-6137400D02*
X6162000Y-5494200D01*
X6627000Y-5029200D02*
X6627000Y-4013200D01*
X6604000Y-3990200D02*
X6627000Y-4013200D01*
X6604000Y-3025000D02*
X6604000Y-3990200D01*
X5401600Y-8147200D02*
X5407800Y-8153400D01*
X4548000Y-8147200D02*
X5401600Y-8147200D01*
D27*
X11271390Y-8151400D02*
X9042400Y-8151400D01*
D26*
G36*
X35699395Y-71067137D02*
G01*
X-1256488Y-71246115D01*
X-1329539Y-31531400D01*
X17993065Y-31531400D01*
X17993065Y-33081400D01*
X18000788Y-33159814D01*
X18023660Y-33235214D01*
X18060803Y-33304703D01*
X18110789Y-33365611D01*
X18171697Y-33415597D01*
X18241186Y-33452740D01*
X18316586Y-33475612D01*
X18395000Y-33483335D01*
X18995000Y-33483335D01*
X19073414Y-33475612D01*
X19148814Y-33452740D01*
X19218303Y-33415597D01*
X19279211Y-33365611D01*
X19329197Y-33304703D01*
X19330000Y-33303201D01*
X19330803Y-33304703D01*
X19380789Y-33365611D01*
X19441697Y-33415597D01*
X19511186Y-33452740D01*
X19586586Y-33475612D01*
X19665000Y-33483335D01*
X20265000Y-33483335D01*
X20343414Y-33475612D01*
X20418814Y-33452740D01*
X20488303Y-33415597D01*
X20549211Y-33365611D01*
X20599197Y-33304703D01*
X20600000Y-33303201D01*
X20600803Y-33304703D01*
X20650789Y-33365611D01*
X20711697Y-33415597D01*
X20781186Y-33452740D01*
X20856586Y-33475612D01*
X20935000Y-33483335D01*
X21535000Y-33483335D01*
X21613414Y-33475612D01*
X21688814Y-33452740D01*
X21758303Y-33415597D01*
X21819211Y-33365611D01*
X21869197Y-33304703D01*
X21870000Y-33303201D01*
X21870803Y-33304703D01*
X21920789Y-33365611D01*
X21981697Y-33415597D01*
X22051186Y-33452740D01*
X22126586Y-33475612D01*
X22205000Y-33483335D01*
X22805000Y-33483335D01*
X22883414Y-33475612D01*
X22958814Y-33452740D01*
X23028303Y-33415597D01*
X23089211Y-33365611D01*
X23139197Y-33304703D01*
X23176340Y-33235214D01*
X23199212Y-33159814D01*
X23206935Y-33081400D01*
X23206935Y-31531400D01*
X23199212Y-31452986D01*
X23176340Y-31377586D01*
X23139197Y-31308097D01*
X23089211Y-31247189D01*
X23028303Y-31197203D01*
X22958814Y-31160060D01*
X22883414Y-31137188D01*
X22805000Y-31129465D01*
X22205000Y-31129465D01*
X22126586Y-31137188D01*
X22051186Y-31160060D01*
X22044165Y-31163813D01*
X22049875Y-31105840D01*
X22049875Y-29906960D01*
X22042152Y-29828546D01*
X22019280Y-29753146D01*
X21982137Y-29683657D01*
X21932151Y-29622749D01*
X21915561Y-29609134D01*
X21919196Y-29604704D01*
X21919999Y-29603202D01*
X21920802Y-29604704D01*
X21970788Y-29665612D01*
X22031696Y-29715598D01*
X22101185Y-29752741D01*
X22176585Y-29775613D01*
X22254999Y-29783336D01*
X22854999Y-29783336D01*
X22933413Y-29775613D01*
X22937257Y-29774447D01*
X23027500Y-29783335D01*
X23372500Y-29783335D01*
X23479689Y-29772778D01*
X23582760Y-29741512D01*
X23677750Y-29690739D01*
X23719342Y-29656605D01*
X24599110Y-29656605D01*
X24677524Y-29648882D01*
X24752924Y-29626010D01*
X24822413Y-29588867D01*
X24883321Y-29538881D01*
X24933307Y-29477973D01*
X24970450Y-29408484D01*
X24993322Y-29333084D01*
X24995713Y-29308807D01*
X25000749Y-29309303D01*
X25030223Y-29306400D01*
X27148065Y-29306400D01*
X27148065Y-29556400D01*
X27155788Y-29634814D01*
X27178660Y-29710214D01*
X27215803Y-29779703D01*
X27265789Y-29840611D01*
X27326697Y-29890597D01*
X27396186Y-29927740D01*
X27471586Y-29950612D01*
X27550000Y-29958335D01*
X27800001Y-29958335D01*
X27800000Y-37256400D01*
X24946112Y-37256400D01*
X24943322Y-37228076D01*
X24920450Y-37152676D01*
X24883307Y-37083187D01*
X24833321Y-37022279D01*
X24772413Y-36972293D01*
X24702924Y-36935150D01*
X24627524Y-36912278D01*
X24549110Y-36904555D01*
X23550890Y-36904555D01*
X23472476Y-36912278D01*
X23397076Y-36935150D01*
X23327587Y-36972293D01*
X23266679Y-37022279D01*
X23216693Y-37083187D01*
X23206935Y-37101443D01*
X23206935Y-36931400D01*
X23199212Y-36852986D01*
X23176340Y-36777586D01*
X23139197Y-36708097D01*
X23089211Y-36647189D01*
X23028303Y-36597203D01*
X22958814Y-36560060D01*
X22883414Y-36537188D01*
X22805000Y-36529465D01*
X22205000Y-36529465D01*
X22126586Y-36537188D01*
X22051186Y-36560060D01*
X21981697Y-36597203D01*
X21920789Y-36647189D01*
X21870803Y-36708097D01*
X21870000Y-36709599D01*
X21869197Y-36708097D01*
X21819211Y-36647189D01*
X21758303Y-36597203D01*
X21688814Y-36560060D01*
X21613414Y-36537188D01*
X21535000Y-36529465D01*
X20935000Y-36529465D01*
X20856586Y-36537188D01*
X20781186Y-36560060D01*
X20711697Y-36597203D01*
X20650789Y-36647189D01*
X20600803Y-36708097D01*
X20600000Y-36709599D01*
X20599197Y-36708097D01*
X20549211Y-36647189D01*
X20488303Y-36597203D01*
X20418814Y-36560060D01*
X20343414Y-36537188D01*
X20265000Y-36529465D01*
X19665000Y-36529465D01*
X19586586Y-36537188D01*
X19511186Y-36560060D01*
X19441697Y-36597203D01*
X19380789Y-36647189D01*
X19330803Y-36708097D01*
X19293660Y-36777586D01*
X19270788Y-36852986D01*
X19263065Y-36931400D01*
X19263065Y-38481400D01*
X19270788Y-38559814D01*
X19293660Y-38635214D01*
X19330803Y-38704703D01*
X19380789Y-38765611D01*
X19441697Y-38815597D01*
X19511186Y-38852740D01*
X19586586Y-38875612D01*
X19665000Y-38883335D01*
X20265000Y-38883335D01*
X20343414Y-38875612D01*
X20418814Y-38852740D01*
X20488303Y-38815597D01*
X20507556Y-38799796D01*
X20479040Y-38853146D01*
X20456168Y-38928546D01*
X20448445Y-39006960D01*
X20448445Y-40205840D01*
X20456168Y-40284254D01*
X20479040Y-40359654D01*
X20485394Y-40371541D01*
X20441374Y-40358188D01*
X20362960Y-40350465D01*
X19762960Y-40350465D01*
X19684546Y-40358188D01*
X19609146Y-40381060D01*
X19539657Y-40418203D01*
X19478749Y-40468189D01*
X19428763Y-40529097D01*
X19427960Y-40530599D01*
X19427157Y-40529097D01*
X19377171Y-40468189D01*
X19316263Y-40418203D01*
X19246774Y-40381060D01*
X19171374Y-40358188D01*
X19092960Y-40350465D01*
X18492960Y-40350465D01*
X18414546Y-40358188D01*
X18339146Y-40381060D01*
X18269657Y-40418203D01*
X18208749Y-40468189D01*
X18158763Y-40529097D01*
X18121620Y-40598586D01*
X18098748Y-40673986D01*
X18091025Y-40752400D01*
X18091025Y-42302400D01*
X18098748Y-42380814D01*
X18121620Y-42456214D01*
X18158763Y-42525703D01*
X18208749Y-42586611D01*
X18269657Y-42636597D01*
X18339146Y-42673740D01*
X18414546Y-42696612D01*
X18492960Y-42704335D01*
X19092960Y-42704335D01*
X19171374Y-42696612D01*
X19246774Y-42673740D01*
X19316263Y-42636597D01*
X19377171Y-42586611D01*
X19427157Y-42525703D01*
X19427960Y-42524201D01*
X19428763Y-42525703D01*
X19478749Y-42586611D01*
X19539657Y-42636597D01*
X19609146Y-42673740D01*
X19684546Y-42696612D01*
X19762960Y-42704335D01*
X20362960Y-42704335D01*
X20441374Y-42696612D01*
X20516774Y-42673740D01*
X20586263Y-42636597D01*
X20647171Y-42586611D01*
X20697157Y-42525703D01*
X20697960Y-42524201D01*
X20698763Y-42525703D01*
X20748749Y-42586611D01*
X20809657Y-42636597D01*
X20879146Y-42673740D01*
X20954546Y-42696612D01*
X21032960Y-42704335D01*
X21632960Y-42704335D01*
X21711374Y-42696612D01*
X21786774Y-42673740D01*
X21856263Y-42636597D01*
X21917171Y-42586611D01*
X21967157Y-42525703D01*
X21967960Y-42524201D01*
X21968763Y-42525703D01*
X22018749Y-42586611D01*
X22079657Y-42636597D01*
X22149146Y-42673740D01*
X22224546Y-42696612D01*
X22302960Y-42704335D01*
X22902960Y-42704335D01*
X22981374Y-42696612D01*
X23056774Y-42673740D01*
X23126263Y-42636597D01*
X23187171Y-42586611D01*
X23237157Y-42525703D01*
X23274300Y-42456214D01*
X23297172Y-42380814D01*
X23304895Y-42302400D01*
X23304895Y-40752400D01*
X23297172Y-40673986D01*
X23274300Y-40598586D01*
X23237157Y-40529097D01*
X23187171Y-40468189D01*
X23126263Y-40418203D01*
X23056774Y-40381060D01*
X22981374Y-40358188D01*
X22902960Y-40350465D01*
X22302960Y-40350465D01*
X22224546Y-40358188D01*
X22149146Y-40381060D01*
X22079657Y-40418203D01*
X22018749Y-40468189D01*
X21968763Y-40529097D01*
X21967960Y-40530599D01*
X21967157Y-40529097D01*
X21933632Y-40488247D01*
X21982137Y-40429143D01*
X22019280Y-40359654D01*
X22042152Y-40284254D01*
X22049875Y-40205840D01*
X22049875Y-39006960D01*
X22042152Y-38928546D01*
X22019280Y-38853146D01*
X22006214Y-38828702D01*
X22051186Y-38852740D01*
X22126586Y-38875612D01*
X22205000Y-38883335D01*
X22805000Y-38883335D01*
X22883414Y-38875612D01*
X22958814Y-38852740D01*
X22968561Y-38847530D01*
X23027500Y-38853335D01*
X23372500Y-38853335D01*
X23479689Y-38842778D01*
X23582760Y-38811512D01*
X23588872Y-38808245D01*
X24549110Y-38808245D01*
X24627524Y-38800522D01*
X24702924Y-38777650D01*
X24772413Y-38740507D01*
X24833321Y-38690521D01*
X24883307Y-38629613D01*
X24920450Y-38560124D01*
X24943322Y-38484724D01*
X24946112Y-38456400D01*
X27800001Y-38456400D01*
X27800000Y-46354760D01*
X24996112Y-46354760D01*
X24993322Y-46326436D01*
X24970450Y-46251036D01*
X24933307Y-46181547D01*
X24883321Y-46120639D01*
X24822413Y-46070653D01*
X24752924Y-46033510D01*
X24677524Y-46010638D01*
X24599110Y-46002915D01*
X23600890Y-46002915D01*
X23522476Y-46010638D01*
X23447076Y-46033510D01*
X23377587Y-46070653D01*
X23316679Y-46120639D01*
X23303365Y-46136862D01*
X23297172Y-46073986D01*
X23274300Y-45998586D01*
X23237157Y-45929097D01*
X23187171Y-45868189D01*
X23126263Y-45818203D01*
X23056774Y-45781060D01*
X22981374Y-45758188D01*
X22902960Y-45750465D01*
X22302960Y-45750465D01*
X22224546Y-45758188D01*
X22149146Y-45781060D01*
X22079657Y-45818203D01*
X22018749Y-45868189D01*
X21968763Y-45929097D01*
X21967960Y-45930599D01*
X21967157Y-45929097D01*
X21917171Y-45868189D01*
X21856263Y-45818203D01*
X21786774Y-45781060D01*
X21711374Y-45758188D01*
X21632960Y-45750465D01*
X21032960Y-45750465D01*
X20954546Y-45758188D01*
X20879146Y-45781060D01*
X20809657Y-45818203D01*
X20748749Y-45868189D01*
X20698763Y-45929097D01*
X20697960Y-45930599D01*
X20697157Y-45929097D01*
X20647171Y-45868189D01*
X20586263Y-45818203D01*
X20516774Y-45781060D01*
X20441374Y-45758188D01*
X20362960Y-45750465D01*
X19762960Y-45750465D01*
X19684546Y-45758188D01*
X19609146Y-45781060D01*
X19539657Y-45818203D01*
X19478749Y-45868189D01*
X19428763Y-45929097D01*
X19391620Y-45998586D01*
X19368748Y-46073986D01*
X19361025Y-46152400D01*
X19361025Y-47702400D01*
X19368748Y-47780814D01*
X19391620Y-47856214D01*
X19428763Y-47925703D01*
X19478749Y-47986611D01*
X19539657Y-48036597D01*
X19609146Y-48073740D01*
X19684546Y-48096612D01*
X19762960Y-48104335D01*
X20362960Y-48104335D01*
X20441374Y-48096612D01*
X20449714Y-48094082D01*
X20448446Y-48106960D01*
X20448446Y-49305840D01*
X20456169Y-49384254D01*
X20479041Y-49459654D01*
X20483435Y-49467875D01*
X20468814Y-49460060D01*
X20393414Y-49437188D01*
X20315000Y-49429465D01*
X19715000Y-49429465D01*
X19636586Y-49437188D01*
X19561186Y-49460060D01*
X19491697Y-49497203D01*
X19430789Y-49547189D01*
X19380803Y-49608097D01*
X19380000Y-49609599D01*
X19379197Y-49608097D01*
X19329211Y-49547189D01*
X19268303Y-49497203D01*
X19198814Y-49460060D01*
X19123414Y-49437188D01*
X19045000Y-49429465D01*
X18445000Y-49429465D01*
X18366586Y-49437188D01*
X18291186Y-49460060D01*
X18221697Y-49497203D01*
X18160789Y-49547189D01*
X18110803Y-49608097D01*
X18073660Y-49677586D01*
X18050788Y-49752986D01*
X18043065Y-49831400D01*
X18043065Y-51381400D01*
X18050788Y-51459814D01*
X18073660Y-51535214D01*
X18110803Y-51604703D01*
X18160789Y-51665611D01*
X18221697Y-51715597D01*
X18291186Y-51752740D01*
X18366586Y-51775612D01*
X18445000Y-51783335D01*
X19045000Y-51783335D01*
X19123414Y-51775612D01*
X19198814Y-51752740D01*
X19268303Y-51715597D01*
X19329211Y-51665611D01*
X19379197Y-51604703D01*
X19380000Y-51603201D01*
X19380803Y-51604703D01*
X19430789Y-51665611D01*
X19491697Y-51715597D01*
X19561186Y-51752740D01*
X19636586Y-51775612D01*
X19715000Y-51783335D01*
X20315000Y-51783335D01*
X20393414Y-51775612D01*
X20468814Y-51752740D01*
X20538303Y-51715597D01*
X20599211Y-51665611D01*
X20649197Y-51604703D01*
X20650000Y-51603201D01*
X20650803Y-51604703D01*
X20700789Y-51665611D01*
X20761697Y-51715597D01*
X20831186Y-51752740D01*
X20906586Y-51775612D01*
X20985000Y-51783335D01*
X21585000Y-51783335D01*
X21663414Y-51775612D01*
X21738814Y-51752740D01*
X21808303Y-51715597D01*
X21869211Y-51665611D01*
X21919197Y-51604703D01*
X21920000Y-51603201D01*
X21920803Y-51604703D01*
X21970789Y-51665611D01*
X22031697Y-51715597D01*
X22101186Y-51752740D01*
X22176586Y-51775612D01*
X22255000Y-51783335D01*
X22855000Y-51783335D01*
X22933414Y-51775612D01*
X23008814Y-51752740D01*
X23078303Y-51715597D01*
X23139211Y-51665611D01*
X23189197Y-51604703D01*
X23226340Y-51535214D01*
X23249212Y-51459814D01*
X23256935Y-51381400D01*
X23256935Y-49831400D01*
X23249212Y-49752986D01*
X23226340Y-49677586D01*
X23189197Y-49608097D01*
X23139211Y-49547189D01*
X23078303Y-49497203D01*
X23008814Y-49460060D01*
X22933414Y-49437188D01*
X22855000Y-49429465D01*
X22255000Y-49429465D01*
X22176586Y-49437188D01*
X22101186Y-49460060D01*
X22031697Y-49497203D01*
X21970789Y-49547189D01*
X21920803Y-49608097D01*
X21920000Y-49609599D01*
X21919197Y-49608097D01*
X21915561Y-49603667D01*
X21932152Y-49590051D01*
X21982138Y-49529143D01*
X22019281Y-49459654D01*
X22042153Y-49384254D01*
X22049876Y-49305840D01*
X22049876Y-48106960D01*
X22042153Y-48028546D01*
X22032973Y-47998285D01*
X22079657Y-48036597D01*
X22149146Y-48073740D01*
X22224546Y-48096612D01*
X22302960Y-48104335D01*
X22902960Y-48104335D01*
X22981374Y-48096612D01*
X23056774Y-48073740D01*
X23066886Y-48068335D01*
X23372500Y-48068335D01*
X23479689Y-48057778D01*
X23582760Y-48026512D01*
X23677750Y-47975739D01*
X23761009Y-47907409D01*
X23761669Y-47906605D01*
X24599110Y-47906605D01*
X24677524Y-47898882D01*
X24752924Y-47876010D01*
X24822413Y-47838867D01*
X24883321Y-47788881D01*
X24933307Y-47727973D01*
X24970450Y-47658484D01*
X24993322Y-47583084D01*
X24996112Y-47554760D01*
X27800001Y-47554760D01*
X27800000Y-55356400D01*
X25122015Y-55356400D01*
X25092549Y-55353498D01*
X25063083Y-55356400D01*
X25063076Y-55356400D01*
X25039443Y-55358728D01*
X25020450Y-55296116D01*
X24983307Y-55226627D01*
X24933321Y-55165719D01*
X24872413Y-55115733D01*
X24802924Y-55078590D01*
X24727524Y-55055718D01*
X24649110Y-55047995D01*
X23650890Y-55047995D01*
X23572476Y-55055718D01*
X23497076Y-55078590D01*
X23427587Y-55115733D01*
X23366679Y-55165719D01*
X23316693Y-55226627D01*
X23279550Y-55296116D01*
X23256935Y-55370669D01*
X23256935Y-55231400D01*
X23249212Y-55152986D01*
X23226340Y-55077586D01*
X23189197Y-55008097D01*
X23139211Y-54947189D01*
X23078303Y-54897203D01*
X23008814Y-54860060D01*
X22933414Y-54837188D01*
X22855000Y-54829465D01*
X22255000Y-54829465D01*
X22176586Y-54837188D01*
X22101186Y-54860060D01*
X22031697Y-54897203D01*
X21970789Y-54947189D01*
X21920803Y-55008097D01*
X21920000Y-55009599D01*
X21919197Y-55008097D01*
X21869211Y-54947189D01*
X21808303Y-54897203D01*
X21738814Y-54860060D01*
X21663414Y-54837188D01*
X21585000Y-54829465D01*
X20985000Y-54829465D01*
X20906586Y-54837188D01*
X20831186Y-54860060D01*
X20761697Y-54897203D01*
X20700789Y-54947189D01*
X20650803Y-55008097D01*
X20650000Y-55009599D01*
X20649197Y-55008097D01*
X20599211Y-54947189D01*
X20538303Y-54897203D01*
X20468814Y-54860060D01*
X20393414Y-54837188D01*
X20315000Y-54829465D01*
X19715000Y-54829465D01*
X19636586Y-54837188D01*
X19561186Y-54860060D01*
X19491697Y-54897203D01*
X19430789Y-54947189D01*
X19380803Y-55008097D01*
X19343660Y-55077586D01*
X19320788Y-55152986D01*
X19313065Y-55231400D01*
X19313065Y-56781400D01*
X19320788Y-56859814D01*
X19343660Y-56935214D01*
X19380803Y-57004703D01*
X19430789Y-57065611D01*
X19491697Y-57115597D01*
X19561186Y-57152740D01*
X19636586Y-57175612D01*
X19715000Y-57183335D01*
X20315000Y-57183335D01*
X20393414Y-57175612D01*
X20468814Y-57152740D01*
X20538303Y-57115597D01*
X20557556Y-57099796D01*
X20529040Y-57153146D01*
X20506168Y-57228546D01*
X20498445Y-57306960D01*
X20498445Y-58505840D01*
X20506168Y-58584254D01*
X20522740Y-58638884D01*
X20468814Y-58610060D01*
X20393414Y-58587188D01*
X20315000Y-58579465D01*
X19715000Y-58579465D01*
X19636586Y-58587188D01*
X19561186Y-58610060D01*
X19491697Y-58647203D01*
X19430789Y-58697189D01*
X19380803Y-58758097D01*
X19380000Y-58759599D01*
X19379197Y-58758097D01*
X19329211Y-58697189D01*
X19268303Y-58647203D01*
X19198814Y-58610060D01*
X19123414Y-58587188D01*
X19045000Y-58579465D01*
X18445000Y-58579465D01*
X18366586Y-58587188D01*
X18291186Y-58610060D01*
X18221697Y-58647203D01*
X18160789Y-58697189D01*
X18110803Y-58758097D01*
X18073660Y-58827586D01*
X18050788Y-58902986D01*
X18043065Y-58981400D01*
X18043065Y-60531400D01*
X18050788Y-60609814D01*
X18073660Y-60685214D01*
X18110803Y-60754703D01*
X18160789Y-60815611D01*
X18221697Y-60865597D01*
X18291186Y-60902740D01*
X18366586Y-60925612D01*
X18445000Y-60933335D01*
X19045000Y-60933335D01*
X19123414Y-60925612D01*
X19198814Y-60902740D01*
X19268303Y-60865597D01*
X19329211Y-60815611D01*
X19379197Y-60754703D01*
X19380000Y-60753201D01*
X19380803Y-60754703D01*
X19430789Y-60815611D01*
X19491697Y-60865597D01*
X19561186Y-60902740D01*
X19636586Y-60925612D01*
X19715000Y-60933335D01*
X20315000Y-60933335D01*
X20393414Y-60925612D01*
X20468814Y-60902740D01*
X20538303Y-60865597D01*
X20599211Y-60815611D01*
X20649197Y-60754703D01*
X20650000Y-60753201D01*
X20650803Y-60754703D01*
X20700789Y-60815611D01*
X20761697Y-60865597D01*
X20831186Y-60902740D01*
X20906586Y-60925612D01*
X20985000Y-60933335D01*
X21585000Y-60933335D01*
X21663414Y-60925612D01*
X21738814Y-60902740D01*
X21808303Y-60865597D01*
X21869211Y-60815611D01*
X21919197Y-60754703D01*
X21920000Y-60753201D01*
X21920803Y-60754703D01*
X21970789Y-60815611D01*
X22031697Y-60865597D01*
X22101186Y-60902740D01*
X22176586Y-60925612D01*
X22255000Y-60933335D01*
X22855000Y-60933335D01*
X22933414Y-60925612D01*
X23008814Y-60902740D01*
X23078303Y-60865597D01*
X23139211Y-60815611D01*
X23189197Y-60754703D01*
X23226340Y-60685214D01*
X23249212Y-60609814D01*
X23256935Y-60531400D01*
X23256935Y-58981400D01*
X23249212Y-58902986D01*
X23226340Y-58827586D01*
X23189197Y-58758097D01*
X23139211Y-58697189D01*
X23078303Y-58647203D01*
X23008814Y-58610060D01*
X22933414Y-58587188D01*
X22855000Y-58579465D01*
X22255000Y-58579465D01*
X22176586Y-58587188D01*
X22101186Y-58610060D01*
X22081061Y-58620817D01*
X22092152Y-58584254D01*
X22099875Y-58505840D01*
X22099875Y-57306960D01*
X22092152Y-57228546D01*
X22069280Y-57153146D01*
X22056214Y-57128702D01*
X22101186Y-57152740D01*
X22176586Y-57175612D01*
X22255000Y-57183335D01*
X22764524Y-57183335D01*
X22817240Y-57211512D01*
X22920311Y-57242778D01*
X23027500Y-57253335D01*
X23372500Y-57253335D01*
X23479689Y-57242778D01*
X23582760Y-57211512D01*
X23677750Y-57160739D01*
X23761009Y-57092409D01*
X23829339Y-57009150D01*
X23860055Y-56951685D01*
X24649110Y-56951685D01*
X24727524Y-56943962D01*
X24802924Y-56921090D01*
X24872413Y-56883947D01*
X24933321Y-56833961D01*
X24983307Y-56773053D01*
X25020450Y-56703564D01*
X25043322Y-56628164D01*
X25045857Y-56602423D01*
X25049110Y-56602743D01*
X25078584Y-56599840D01*
X25166731Y-56591158D01*
X25279831Y-56556850D01*
X25280673Y-56556400D01*
X27800001Y-56556400D01*
X27800000Y-64506400D01*
X25095245Y-64506400D01*
X25078584Y-64504759D01*
X25049110Y-64501856D01*
X25045857Y-64502176D01*
X25043322Y-64476435D01*
X25020450Y-64401035D01*
X24983307Y-64331546D01*
X24933321Y-64270638D01*
X24872413Y-64220652D01*
X24802924Y-64183509D01*
X24727524Y-64160637D01*
X24649110Y-64152914D01*
X23650890Y-64152914D01*
X23572476Y-64160637D01*
X23497076Y-64183509D01*
X23427587Y-64220652D01*
X23366679Y-64270638D01*
X23316693Y-64331546D01*
X23279550Y-64401035D01*
X23256935Y-64475588D01*
X23256935Y-64381400D01*
X23249212Y-64302986D01*
X23226340Y-64227586D01*
X23189197Y-64158097D01*
X23139211Y-64097189D01*
X23078303Y-64047203D01*
X23008814Y-64010060D01*
X22933414Y-63987188D01*
X22855000Y-63979465D01*
X22255000Y-63979465D01*
X22176586Y-63987188D01*
X22101186Y-64010060D01*
X22031697Y-64047203D01*
X21970789Y-64097189D01*
X21920803Y-64158097D01*
X21920000Y-64159599D01*
X21919197Y-64158097D01*
X21869211Y-64097189D01*
X21808303Y-64047203D01*
X21738814Y-64010060D01*
X21663414Y-63987188D01*
X21585000Y-63979465D01*
X20985000Y-63979465D01*
X20906586Y-63987188D01*
X20831186Y-64010060D01*
X20761697Y-64047203D01*
X20700789Y-64097189D01*
X20650803Y-64158097D01*
X20650000Y-64159599D01*
X20649197Y-64158097D01*
X20599211Y-64097189D01*
X20538303Y-64047203D01*
X20468814Y-64010060D01*
X20393414Y-63987188D01*
X20315000Y-63979465D01*
X19715000Y-63979465D01*
X19636586Y-63987188D01*
X19561186Y-64010060D01*
X19491697Y-64047203D01*
X19430789Y-64097189D01*
X19380803Y-64158097D01*
X19343660Y-64227586D01*
X19320788Y-64302986D01*
X19313065Y-64381400D01*
X19313065Y-65931400D01*
X19320788Y-66009814D01*
X19343660Y-66085214D01*
X19380803Y-66154703D01*
X19430789Y-66215611D01*
X19491697Y-66265597D01*
X19561186Y-66302740D01*
X19636586Y-66325612D01*
X19715000Y-66333335D01*
X20315000Y-66333335D01*
X20393414Y-66325612D01*
X20468814Y-66302740D01*
X20538303Y-66265597D01*
X20599211Y-66215611D01*
X20649197Y-66154703D01*
X20650000Y-66153201D01*
X20650803Y-66154703D01*
X20685001Y-66196374D01*
X20685001Y-66954465D01*
X20450000Y-66954465D01*
X20371586Y-66962188D01*
X20296186Y-66985060D01*
X20226697Y-67022203D01*
X20165789Y-67072189D01*
X20115803Y-67133097D01*
X20078660Y-67202586D01*
X20055788Y-67277986D01*
X20048065Y-67356400D01*
X20048065Y-69056400D01*
X20055788Y-69134814D01*
X20078660Y-69210214D01*
X20115803Y-69279703D01*
X20165789Y-69340611D01*
X20226697Y-69390597D01*
X20296186Y-69427740D01*
X20371586Y-69450612D01*
X20450000Y-69458335D01*
X22150000Y-69458335D01*
X22228414Y-69450612D01*
X22303814Y-69427740D01*
X22373303Y-69390597D01*
X22434211Y-69340611D01*
X22484197Y-69279703D01*
X22521340Y-69210214D01*
X22544212Y-69134814D01*
X22551935Y-69056400D01*
X22551935Y-67356400D01*
X22544212Y-67277986D01*
X22521340Y-67202586D01*
X22484197Y-67133097D01*
X22434211Y-67072189D01*
X22373303Y-67022203D01*
X22303814Y-66985060D01*
X22228414Y-66962188D01*
X22150000Y-66954465D01*
X21885000Y-66954465D01*
X21885000Y-66196372D01*
X21919197Y-66154703D01*
X21920000Y-66153201D01*
X21920803Y-66154703D01*
X21970789Y-66215611D01*
X22031697Y-66265597D01*
X22101186Y-66302740D01*
X22176586Y-66325612D01*
X22255000Y-66333335D01*
X22855000Y-66333335D01*
X22933414Y-66325612D01*
X22937255Y-66324447D01*
X23027500Y-66333335D01*
X23372500Y-66333335D01*
X23479689Y-66322778D01*
X23582760Y-66291512D01*
X23677750Y-66240739D01*
X23761009Y-66172409D01*
X23829339Y-66089150D01*
X23846735Y-66056604D01*
X24649110Y-66056604D01*
X24727524Y-66048881D01*
X24802924Y-66026009D01*
X24872413Y-65988866D01*
X24933321Y-65938880D01*
X24983307Y-65877972D01*
X25020450Y-65808483D01*
X25043322Y-65733083D01*
X25045713Y-65708807D01*
X25050751Y-65709303D01*
X25080225Y-65706400D01*
X28370526Y-65706400D01*
X28400000Y-65709303D01*
X28429474Y-65706400D01*
X28517621Y-65697718D01*
X28630721Y-65663410D01*
X28734955Y-65607696D01*
X28826317Y-65532717D01*
X28901296Y-65441355D01*
X28957010Y-65337121D01*
X28991318Y-65224021D01*
X29002903Y-65106400D01*
X29000000Y-65076926D01*
X29000000Y-56035873D01*
X29002903Y-56006400D01*
X29000000Y-55976926D01*
X29000000Y-47085873D01*
X29002903Y-47056400D01*
X29000000Y-47026926D01*
X29000000Y-37985873D01*
X29002903Y-37956399D01*
X29000000Y-37926925D01*
X29000000Y-29958335D01*
X29050000Y-29958335D01*
X29128414Y-29950612D01*
X29203814Y-29927740D01*
X29273303Y-29890597D01*
X29334211Y-29840611D01*
X29384197Y-29779703D01*
X29421340Y-29710214D01*
X29444212Y-29634814D01*
X29451935Y-29556400D01*
X29451935Y-28056400D01*
X29444212Y-27977986D01*
X29421340Y-27902586D01*
X29384197Y-27833097D01*
X29334211Y-27772189D01*
X29273303Y-27722203D01*
X29203814Y-27685060D01*
X29128414Y-27662188D01*
X29050000Y-27654465D01*
X27550000Y-27654465D01*
X27471586Y-27662188D01*
X27396186Y-27685060D01*
X27326697Y-27722203D01*
X27265789Y-27772189D01*
X27215803Y-27833097D01*
X27178660Y-27902586D01*
X27155788Y-27977986D01*
X27148065Y-28056400D01*
X27148065Y-28106400D01*
X25045235Y-28106400D01*
X25028584Y-28104760D01*
X24999110Y-28101857D01*
X24995857Y-28102177D01*
X24993322Y-28076436D01*
X24970450Y-28001036D01*
X24933307Y-27931547D01*
X24883321Y-27870639D01*
X24822413Y-27820653D01*
X24752924Y-27783510D01*
X24677524Y-27760638D01*
X24599110Y-27752915D01*
X23600890Y-27752915D01*
X23522476Y-27760638D01*
X23447076Y-27783510D01*
X23377587Y-27820653D01*
X23316679Y-27870639D01*
X23266693Y-27931547D01*
X23256934Y-27949805D01*
X23256934Y-27831401D01*
X23249211Y-27752987D01*
X23226339Y-27677587D01*
X23189196Y-27608098D01*
X23139210Y-27547190D01*
X23078302Y-27497204D01*
X23008813Y-27460061D01*
X22933413Y-27437189D01*
X22854999Y-27429466D01*
X22254999Y-27429466D01*
X22176585Y-27437189D01*
X22101185Y-27460061D01*
X22031696Y-27497204D01*
X21970788Y-27547190D01*
X21920802Y-27608098D01*
X21919999Y-27609600D01*
X21919196Y-27608098D01*
X21869210Y-27547190D01*
X21808302Y-27497204D01*
X21738813Y-27460061D01*
X21663413Y-27437189D01*
X21584999Y-27429466D01*
X20984999Y-27429466D01*
X20906585Y-27437189D01*
X20831185Y-27460061D01*
X20761696Y-27497204D01*
X20700788Y-27547190D01*
X20650802Y-27608098D01*
X20649999Y-27609600D01*
X20649196Y-27608098D01*
X20599210Y-27547190D01*
X20538302Y-27497204D01*
X20468813Y-27460061D01*
X20393413Y-27437189D01*
X20314999Y-27429466D01*
X19714999Y-27429466D01*
X19636585Y-27437189D01*
X19561185Y-27460061D01*
X19491696Y-27497204D01*
X19430788Y-27547190D01*
X19380802Y-27608098D01*
X19343659Y-27677587D01*
X19320787Y-27752987D01*
X19313064Y-27831401D01*
X19313064Y-29381401D01*
X19320787Y-29459815D01*
X19343659Y-29535215D01*
X19380802Y-29604704D01*
X19430788Y-29665612D01*
X19491696Y-29715598D01*
X19561185Y-29752741D01*
X19636585Y-29775613D01*
X19714999Y-29783336D01*
X20314999Y-29783336D01*
X20393413Y-29775613D01*
X20468813Y-29752741D01*
X20483434Y-29744926D01*
X20479040Y-29753146D01*
X20456168Y-29828546D01*
X20448445Y-29906960D01*
X20448445Y-31105840D01*
X20455728Y-31179791D01*
X20418814Y-31160060D01*
X20343414Y-31137188D01*
X20265000Y-31129465D01*
X19665000Y-31129465D01*
X19586586Y-31137188D01*
X19511186Y-31160060D01*
X19441697Y-31197203D01*
X19380789Y-31247189D01*
X19330803Y-31308097D01*
X19330000Y-31309599D01*
X19329197Y-31308097D01*
X19279211Y-31247189D01*
X19218303Y-31197203D01*
X19148814Y-31160060D01*
X19073414Y-31137188D01*
X18995000Y-31129465D01*
X18395000Y-31129465D01*
X18316586Y-31137188D01*
X18241186Y-31160060D01*
X18171697Y-31197203D01*
X18110789Y-31247189D01*
X18060803Y-31308097D01*
X18023660Y-31377586D01*
X18000788Y-31452986D01*
X17993065Y-31531400D01*
X-1329539Y-31531400D01*
X-1345771Y-22707290D01*
X16996515Y-22707290D01*
X16996515Y-23705510D01*
X17004238Y-23783924D01*
X17027110Y-23859324D01*
X17064253Y-23928813D01*
X17114239Y-23989721D01*
X17175147Y-24039707D01*
X17244636Y-24076850D01*
X17320036Y-24099722D01*
X17398450Y-24107445D01*
X18065235Y-24107445D01*
X18073659Y-24135215D01*
X18110802Y-24204704D01*
X18160788Y-24265612D01*
X18221696Y-24315598D01*
X18291185Y-24352741D01*
X18366585Y-24375613D01*
X18444999Y-24383336D01*
X19044999Y-24383336D01*
X19123413Y-24375613D01*
X19198813Y-24352741D01*
X19268302Y-24315598D01*
X19329210Y-24265612D01*
X19379196Y-24204704D01*
X19379999Y-24203202D01*
X19380802Y-24204704D01*
X19430788Y-24265612D01*
X19491696Y-24315598D01*
X19561185Y-24352741D01*
X19636585Y-24375613D01*
X19714999Y-24383336D01*
X20314999Y-24383336D01*
X20393413Y-24375613D01*
X20468813Y-24352741D01*
X20538302Y-24315598D01*
X20599210Y-24265612D01*
X20649196Y-24204704D01*
X20649999Y-24203202D01*
X20650802Y-24204704D01*
X20700788Y-24265612D01*
X20761696Y-24315598D01*
X20831185Y-24352741D01*
X20906585Y-24375613D01*
X20984999Y-24383336D01*
X21584999Y-24383336D01*
X21663413Y-24375613D01*
X21738813Y-24352741D01*
X21808302Y-24315598D01*
X21869210Y-24265612D01*
X21919196Y-24204704D01*
X21919999Y-24203202D01*
X21920802Y-24204704D01*
X21970788Y-24265612D01*
X22031696Y-24315598D01*
X22101185Y-24352741D01*
X22176585Y-24375613D01*
X22254999Y-24383336D01*
X22854999Y-24383336D01*
X22933413Y-24375613D01*
X23008813Y-24352741D01*
X23078302Y-24315598D01*
X23139210Y-24265612D01*
X23189196Y-24204704D01*
X23226339Y-24135215D01*
X23249211Y-24059815D01*
X23256934Y-23981401D01*
X23256934Y-22431401D01*
X23249211Y-22352987D01*
X23226339Y-22277587D01*
X23189196Y-22208098D01*
X23139210Y-22147190D01*
X23078302Y-22097204D01*
X23008813Y-22060061D01*
X22933413Y-22037189D01*
X22854999Y-22029466D01*
X22254999Y-22029466D01*
X22176585Y-22037189D01*
X22101185Y-22060061D01*
X22031696Y-22097204D01*
X21970788Y-22147190D01*
X21930185Y-22196664D01*
X21931935Y-22178900D01*
X21931935Y-21929136D01*
X22001943Y-21843831D01*
X22085514Y-21687480D01*
X22136977Y-21517830D01*
X22150000Y-21385606D01*
X22150000Y-19599793D01*
X22136977Y-19467569D01*
X22085514Y-19297919D01*
X22001943Y-19141568D01*
X21961986Y-19092880D01*
X21961378Y-19086710D01*
X21930112Y-18983639D01*
X21879339Y-18888649D01*
X21852872Y-18856399D01*
X21879339Y-18824149D01*
X21930112Y-18729159D01*
X21961378Y-18626088D01*
X21963373Y-18605829D01*
X22001943Y-18558832D01*
X22085514Y-18402481D01*
X22136977Y-18232831D01*
X22150000Y-18100607D01*
X22150000Y-17219717D01*
X22237500Y-17228335D01*
X22271220Y-17228335D01*
X22280720Y-17259654D01*
X22317863Y-17329143D01*
X22328064Y-17341573D01*
X22328064Y-17518900D01*
X22338621Y-17626089D01*
X22369887Y-17729160D01*
X22420660Y-17824150D01*
X22488990Y-17907409D01*
X22572249Y-17975739D01*
X22667239Y-18026512D01*
X22770310Y-18057778D01*
X22877499Y-18068335D01*
X23222499Y-18068335D01*
X23329688Y-18057778D01*
X23432759Y-18026512D01*
X23527749Y-17975739D01*
X23611008Y-17907409D01*
X23679338Y-17824150D01*
X23730111Y-17729160D01*
X23761377Y-17626089D01*
X23771934Y-17518900D01*
X23771934Y-17343622D01*
X23783817Y-17329143D01*
X23820960Y-17259654D01*
X23843832Y-17184254D01*
X23851555Y-17105840D01*
X23851555Y-15906960D01*
X24048445Y-15906960D01*
X24048445Y-17105840D01*
X24056168Y-17184254D01*
X24079040Y-17259654D01*
X24116183Y-17329143D01*
X24166169Y-17390051D01*
X24227077Y-17440037D01*
X24296566Y-17477180D01*
X24371966Y-17500052D01*
X24450380Y-17507775D01*
X25247940Y-17507775D01*
X25326354Y-17500052D01*
X25401754Y-17477180D01*
X25434110Y-17459885D01*
X26249110Y-17459885D01*
X26264848Y-17458335D01*
X27650000Y-17458335D01*
X27728414Y-17450612D01*
X27803814Y-17427740D01*
X27873303Y-17390597D01*
X27934211Y-17340611D01*
X27984197Y-17279703D01*
X28021340Y-17210214D01*
X28044212Y-17134814D01*
X28051935Y-17056400D01*
X28051935Y-15556400D01*
X28044212Y-15477986D01*
X28021340Y-15402586D01*
X27984197Y-15333097D01*
X27934211Y-15272189D01*
X27873303Y-15222203D01*
X27803814Y-15185060D01*
X27728414Y-15162188D01*
X27650000Y-15154465D01*
X26150000Y-15154465D01*
X26071586Y-15162188D01*
X25996186Y-15185060D01*
X25926697Y-15222203D01*
X25865789Y-15272189D01*
X25815803Y-15333097D01*
X25778660Y-15402586D01*
X25755788Y-15477986D01*
X25748085Y-15556195D01*
X25440247Y-15556195D01*
X25401754Y-15535620D01*
X25326354Y-15512748D01*
X25247940Y-15505025D01*
X24450380Y-15505025D01*
X24371966Y-15512748D01*
X24296566Y-15535620D01*
X24227077Y-15572763D01*
X24166169Y-15622749D01*
X24116183Y-15683657D01*
X24079040Y-15753146D01*
X24056168Y-15828546D01*
X24048445Y-15906960D01*
X23851555Y-15906960D01*
X23843832Y-15828546D01*
X23820960Y-15753146D01*
X23783817Y-15683657D01*
X23771935Y-15669179D01*
X23771935Y-15478901D01*
X23761378Y-15371712D01*
X23730112Y-15268641D01*
X23679339Y-15173651D01*
X23611009Y-15090392D01*
X23527750Y-15022062D01*
X23432760Y-14971289D01*
X23329689Y-14940023D01*
X23222500Y-14929466D01*
X22877500Y-14929466D01*
X22770311Y-14940023D01*
X22667240Y-14971289D01*
X22572250Y-15022062D01*
X22488991Y-15090392D01*
X22420661Y-15173651D01*
X22369888Y-15268641D01*
X22338622Y-15371712D01*
X22328065Y-15478901D01*
X22328065Y-15671226D01*
X22317863Y-15683657D01*
X22280720Y-15753146D01*
X22271220Y-15784465D01*
X22237500Y-15784465D01*
X22150000Y-15793083D01*
X22150000Y-13960603D01*
X22154354Y-13916399D01*
X22150000Y-13872193D01*
X22140000Y-13770662D01*
X22140000Y-13308335D01*
X22490000Y-13308335D01*
X22568414Y-13300612D01*
X22643814Y-13277740D01*
X22713303Y-13240597D01*
X22774211Y-13190611D01*
X22824197Y-13129703D01*
X22861340Y-13060214D01*
X22884212Y-12984814D01*
X22891935Y-12906400D01*
X22891935Y-11906400D01*
X22884212Y-11827986D01*
X22861340Y-11752586D01*
X22824197Y-11683097D01*
X22774211Y-11622189D01*
X22713303Y-11572203D01*
X22643814Y-11535060D01*
X22568414Y-11512188D01*
X22490000Y-11504465D01*
X21264560Y-11504465D01*
X21240000Y-11502046D01*
X21215440Y-11504465D01*
X19990000Y-11504465D01*
X19911586Y-11512188D01*
X19836186Y-11535060D01*
X19766697Y-11572203D01*
X19705789Y-11622189D01*
X19655803Y-11683097D01*
X19618660Y-11752586D01*
X19595788Y-11827986D01*
X19588065Y-11906400D01*
X19588065Y-12906400D01*
X19595788Y-12984814D01*
X19618660Y-13060214D01*
X19655803Y-13129703D01*
X19705789Y-13190611D01*
X19766697Y-13240597D01*
X19836186Y-13277740D01*
X19911586Y-13300612D01*
X19990000Y-13308335D01*
X20340001Y-13308335D01*
X20340001Y-13862184D01*
X20335646Y-13906400D01*
X20350000Y-14052138D01*
X20350001Y-15912184D01*
X20350000Y-15912194D01*
X20350000Y-16297194D01*
X20350001Y-18100607D01*
X20363024Y-18232831D01*
X20414487Y-18402481D01*
X20498058Y-18558832D01*
X20536627Y-18605828D01*
X20538622Y-18626088D01*
X20569888Y-18729159D01*
X20620661Y-18824149D01*
X20647128Y-18856399D01*
X20620661Y-18888649D01*
X20569888Y-18983639D01*
X20538622Y-19086710D01*
X20538014Y-19092881D01*
X20498058Y-19141568D01*
X20414487Y-19297919D01*
X20363024Y-19467569D01*
X20350001Y-19599793D01*
X20350000Y-21284465D01*
X20117500Y-21284465D01*
X20010311Y-21295022D01*
X19953517Y-21312250D01*
X19929689Y-21305022D01*
X19822500Y-21294465D01*
X19477500Y-21294465D01*
X19370311Y-21305022D01*
X19267240Y-21336288D01*
X19172250Y-21387061D01*
X19088991Y-21455391D01*
X19020661Y-21538650D01*
X18969888Y-21633640D01*
X18938622Y-21736711D01*
X18928065Y-21843900D01*
X18928065Y-22029466D01*
X18444999Y-22029466D01*
X18366585Y-22037189D01*
X18291185Y-22060061D01*
X18221696Y-22097204D01*
X18160788Y-22147190D01*
X18110802Y-22208098D01*
X18073659Y-22277587D01*
X18065236Y-22305355D01*
X17398450Y-22305355D01*
X17320036Y-22313078D01*
X17244636Y-22335950D01*
X17175147Y-22373093D01*
X17114239Y-22423079D01*
X17064253Y-22483987D01*
X17027110Y-22553476D01*
X17004238Y-22628876D01*
X16996515Y-22707290D01*
X-1345771Y-22707290D01*
X-1370925Y-9032935D01*
X-518500Y-9032935D01*
X-498853Y-9031000D01*
X925707Y-9031000D01*
X1057931Y-9017977D01*
X1227581Y-8966514D01*
X1383932Y-8882943D01*
X1428851Y-8846079D01*
X1496889Y-8839378D01*
X1599960Y-8808112D01*
X1694950Y-8757339D01*
X1727200Y-8730872D01*
X1759450Y-8757339D01*
X1854440Y-8808112D01*
X1957511Y-8839378D01*
X2064700Y-8849935D01*
X2359700Y-8849935D01*
X2443870Y-8841645D01*
X2494186Y-8868540D01*
X2569586Y-8891412D01*
X2648000Y-8899135D01*
X3448000Y-8899135D01*
X3526414Y-8891412D01*
X3601814Y-8868540D01*
X3671303Y-8831397D01*
X3732211Y-8781411D01*
X3782197Y-8720503D01*
X3798000Y-8690938D01*
X3813803Y-8720503D01*
X3863789Y-8781411D01*
X3924697Y-8831397D01*
X3994186Y-8868540D01*
X4069586Y-8891412D01*
X4148000Y-8899135D01*
X4948000Y-8899135D01*
X5026414Y-8891412D01*
X5101814Y-8868540D01*
X5124876Y-8856213D01*
X5153111Y-8864778D01*
X5260300Y-8875335D01*
X5555300Y-8875335D01*
X5662489Y-8864778D01*
X5765560Y-8833512D01*
X5860550Y-8782739D01*
X5892800Y-8756272D01*
X5925050Y-8782739D01*
X6020040Y-8833512D01*
X6123111Y-8864778D01*
X6230300Y-8875335D01*
X6432327Y-8875335D01*
X6488697Y-8921597D01*
X6558186Y-8958740D01*
X6633586Y-8981612D01*
X6712000Y-8989335D01*
X7512000Y-8989335D01*
X7590414Y-8981612D01*
X7665814Y-8958740D01*
X7735303Y-8921597D01*
X7791673Y-8875335D01*
X8021500Y-8875335D01*
X8128689Y-8864778D01*
X8231760Y-8833512D01*
X8326750Y-8782739D01*
X8359000Y-8756272D01*
X8391250Y-8782739D01*
X8400154Y-8787498D01*
X8402925Y-8790875D01*
X8539968Y-8903343D01*
X8696319Y-8986914D01*
X8865969Y-9038377D01*
X8998193Y-9051400D01*
X9929959Y-9051400D01*
X9923065Y-9121400D01*
X9923065Y-9721400D01*
X9930788Y-9799814D01*
X9953660Y-9875214D01*
X9990803Y-9944703D01*
X10023435Y-9984465D01*
X9887500Y-9984465D01*
X9780311Y-9995022D01*
X9677240Y-10026288D01*
X9582250Y-10077061D01*
X9498991Y-10145391D01*
X9430661Y-10228650D01*
X9379888Y-10323640D01*
X9348622Y-10426711D01*
X9338065Y-10533900D01*
X9338065Y-10878900D01*
X9348622Y-10986089D01*
X9379888Y-11089160D01*
X9430661Y-11184150D01*
X9498991Y-11267409D01*
X9582250Y-11335739D01*
X9677240Y-11386512D01*
X9780311Y-11417778D01*
X9887500Y-11428335D01*
X10182500Y-11428335D01*
X10289689Y-11417778D01*
X10370267Y-11393335D01*
X11875000Y-11393335D01*
X11953414Y-11385612D01*
X12028814Y-11362740D01*
X12098303Y-11325597D01*
X12159211Y-11275611D01*
X12209197Y-11214703D01*
X12246340Y-11145214D01*
X12269212Y-11069814D01*
X12276935Y-10991400D01*
X12276935Y-10391400D01*
X12269212Y-10312986D01*
X12246340Y-10237586D01*
X12209197Y-10168097D01*
X12159211Y-10107189D01*
X12098303Y-10057203D01*
X12096801Y-10056400D01*
X12098303Y-10055597D01*
X12159211Y-10005611D01*
X12209197Y-9944703D01*
X12246340Y-9875214D01*
X12269212Y-9799814D01*
X12276935Y-9721400D01*
X12276935Y-9121400D01*
X12269212Y-9042986D01*
X12246340Y-8967586D01*
X12209197Y-8898097D01*
X12159211Y-8837189D01*
X12098303Y-8787203D01*
X12096801Y-8786400D01*
X12098303Y-8785597D01*
X12159211Y-8735611D01*
X12209197Y-8674703D01*
X12246340Y-8605214D01*
X12269212Y-8529814D01*
X12276935Y-8451400D01*
X12276935Y-7851400D01*
X12269212Y-7772986D01*
X12246340Y-7697586D01*
X12209197Y-7628097D01*
X12159211Y-7567189D01*
X12098303Y-7517203D01*
X12028814Y-7480060D01*
X11953414Y-7457188D01*
X11875000Y-7449465D01*
X11834757Y-7449465D01*
X11773822Y-7399457D01*
X11617471Y-7315886D01*
X11447821Y-7264423D01*
X11315597Y-7251400D01*
X8998193Y-7251400D01*
X8865969Y-7264423D01*
X8696319Y-7315886D01*
X8539968Y-7399457D01*
X8402925Y-7511925D01*
X8394306Y-7522428D01*
X8391250Y-7524061D01*
X8359000Y-7550528D01*
X8326750Y-7524061D01*
X8231760Y-7473288D01*
X8128689Y-7442022D01*
X8021500Y-7431465D01*
X7819417Y-7431465D01*
X7796211Y-7403189D01*
X7735303Y-7353203D01*
X7665814Y-7316060D01*
X7590414Y-7293188D01*
X7512000Y-7285465D01*
X6712000Y-7285465D01*
X6633586Y-7293188D01*
X6558186Y-7316060D01*
X6488697Y-7353203D01*
X6427789Y-7403189D01*
X6404583Y-7431465D01*
X6230300Y-7431465D01*
X6123111Y-7442022D01*
X6020040Y-7473288D01*
X5925050Y-7524061D01*
X5892800Y-7550528D01*
X5860550Y-7524061D01*
X5765560Y-7473288D01*
X5662489Y-7442022D01*
X5555300Y-7431465D01*
X5260300Y-7431465D01*
X5153111Y-7442022D01*
X5139675Y-7446098D01*
X5101814Y-7425860D01*
X5026414Y-7402988D01*
X4948000Y-7395265D01*
X4148000Y-7395265D01*
X4069586Y-7402988D01*
X3994186Y-7425860D01*
X3924697Y-7463003D01*
X3863789Y-7512989D01*
X3813803Y-7573897D01*
X3798000Y-7603462D01*
X3782197Y-7573897D01*
X3732211Y-7512989D01*
X3671303Y-7463003D01*
X3601814Y-7425860D01*
X3526414Y-7402988D01*
X3448000Y-7395265D01*
X2648000Y-7395265D01*
X2569586Y-7402988D01*
X2495764Y-7425381D01*
X2466889Y-7416622D01*
X2359700Y-7406065D01*
X2064700Y-7406065D01*
X1957511Y-7416622D01*
X1854440Y-7447888D01*
X1759450Y-7498661D01*
X1727200Y-7525128D01*
X1694950Y-7498661D01*
X1599960Y-7447888D01*
X1496889Y-7416622D01*
X1420543Y-7409103D01*
X1383932Y-7379057D01*
X1227581Y-7295486D01*
X1057931Y-7244023D01*
X925707Y-7231000D01*
X-498853Y-7231000D01*
X-518500Y-7229065D01*
X-1374243Y-7229065D01*
X-1386771Y-418400D01*
X4334465Y-418400D01*
X4334465Y-1918400D01*
X4342188Y-1996814D01*
X4365060Y-2072214D01*
X4402203Y-2141703D01*
X4452189Y-2202611D01*
X4513097Y-2252597D01*
X4582586Y-2289740D01*
X4657986Y-2312612D01*
X4736400Y-2320335D01*
X5895851Y-2320335D01*
X5923888Y-2412760D01*
X5974661Y-2507750D01*
X6001128Y-2540000D01*
X5974661Y-2572250D01*
X5923888Y-2667240D01*
X5892622Y-2770311D01*
X5882065Y-2877500D01*
X5882065Y-3172500D01*
X5892622Y-3279689D01*
X5923888Y-3382760D01*
X5974661Y-3477750D01*
X6004001Y-3513500D01*
X6004001Y-3570361D01*
X5971888Y-3630440D01*
X5940622Y-3733511D01*
X5930065Y-3840700D01*
X5930065Y-4185700D01*
X5940622Y-4292889D01*
X5971888Y-4395960D01*
X6022661Y-4490950D01*
X6027001Y-4496238D01*
X6027000Y-4596962D01*
X6022661Y-4602250D01*
X5971888Y-4697240D01*
X5940622Y-4800311D01*
X5933331Y-4874341D01*
X5758581Y-5049092D01*
X5735684Y-5067883D01*
X5660705Y-5159245D01*
X5604990Y-5263479D01*
X5585335Y-5328274D01*
X5538697Y-5353203D01*
X5477789Y-5403189D01*
X5427803Y-5464097D01*
X5390660Y-5533586D01*
X5367788Y-5608986D01*
X5360065Y-5687400D01*
X5360065Y-6587400D01*
X5367788Y-6665814D01*
X5390660Y-6741214D01*
X5427803Y-6810703D01*
X5477789Y-6871611D01*
X5538697Y-6921597D01*
X5608186Y-6958740D01*
X5683586Y-6981612D01*
X5762000Y-6989335D01*
X6562000Y-6989335D01*
X6640414Y-6981612D01*
X6715814Y-6958740D01*
X6785303Y-6921597D01*
X6846211Y-6871611D01*
X6896197Y-6810703D01*
X6933340Y-6741214D01*
X6956212Y-6665814D01*
X6963935Y-6587400D01*
X6963935Y-6007290D01*
X12296515Y-6007290D01*
X12296515Y-7005510D01*
X12304238Y-7083924D01*
X12327110Y-7159324D01*
X12364253Y-7228813D01*
X12414239Y-7289721D01*
X12475147Y-7339707D01*
X12544636Y-7376850D01*
X12620036Y-7399722D01*
X12698450Y-7407445D01*
X13377820Y-7407445D01*
X13378660Y-7410214D01*
X13415803Y-7479703D01*
X13465789Y-7540611D01*
X13526697Y-7590597D01*
X13596186Y-7627740D01*
X13671586Y-7650612D01*
X13750000Y-7658335D01*
X14655048Y-7658335D01*
X15323065Y-8326353D01*
X15323065Y-8451400D01*
X15330788Y-8529814D01*
X15353660Y-8605214D01*
X15390803Y-8674703D01*
X15440789Y-8735611D01*
X15501697Y-8785597D01*
X15503199Y-8786400D01*
X15501697Y-8787203D01*
X15440789Y-8837189D01*
X15390803Y-8898097D01*
X15353660Y-8967586D01*
X15330788Y-9042986D01*
X15323065Y-9121400D01*
X15323065Y-9721400D01*
X15330788Y-9799814D01*
X15353660Y-9875214D01*
X15390803Y-9944703D01*
X15440789Y-10005611D01*
X15501697Y-10055597D01*
X15503199Y-10056400D01*
X15501697Y-10057203D01*
X15440789Y-10107189D01*
X15390803Y-10168097D01*
X15353660Y-10237586D01*
X15330788Y-10312986D01*
X15323065Y-10391400D01*
X15323065Y-10991400D01*
X15330788Y-11069814D01*
X15353660Y-11145214D01*
X15390803Y-11214703D01*
X15440789Y-11275611D01*
X15501697Y-11325597D01*
X15503199Y-11326400D01*
X15501697Y-11327203D01*
X15440789Y-11377189D01*
X15390803Y-11438097D01*
X15353660Y-11507586D01*
X15330788Y-11582986D01*
X15323065Y-11661400D01*
X15323065Y-12261400D01*
X15330788Y-12339814D01*
X15353660Y-12415214D01*
X15390803Y-12484703D01*
X15440789Y-12545611D01*
X15501697Y-12595597D01*
X15571186Y-12632740D01*
X15646586Y-12655612D01*
X15725000Y-12663335D01*
X16994501Y-12663335D01*
X17027257Y-12690217D01*
X17096746Y-12727360D01*
X17172146Y-12750232D01*
X17250560Y-12757955D01*
X18449440Y-12757955D01*
X18527854Y-12750232D01*
X18603254Y-12727360D01*
X18672743Y-12690217D01*
X18733651Y-12640231D01*
X18783637Y-12579323D01*
X18820780Y-12509834D01*
X18843652Y-12434434D01*
X18851375Y-12356020D01*
X18851375Y-11558460D01*
X18843652Y-11480046D01*
X18820780Y-11404646D01*
X18783637Y-11335157D01*
X18733651Y-11274249D01*
X18672743Y-11224263D01*
X18603254Y-11187120D01*
X18527854Y-11164248D01*
X18449440Y-11156525D01*
X17640294Y-11156525D01*
X17646340Y-11145214D01*
X17669212Y-11069814D01*
X17676935Y-10991400D01*
X17676935Y-10391400D01*
X17669212Y-10312986D01*
X17646340Y-10237586D01*
X17609197Y-10168097D01*
X17576565Y-10128335D01*
X17712500Y-10128335D01*
X17819689Y-10117778D01*
X17922760Y-10086512D01*
X18017750Y-10035739D01*
X18050000Y-10009272D01*
X18082250Y-10035739D01*
X18177240Y-10086512D01*
X18280311Y-10117778D01*
X18300571Y-10119773D01*
X18347568Y-10158343D01*
X18503919Y-10241914D01*
X18673569Y-10293377D01*
X18805793Y-10306400D01*
X19970353Y-10306400D01*
X19990000Y-10308335D01*
X22490000Y-10308335D01*
X22568414Y-10300612D01*
X22643814Y-10277740D01*
X22713303Y-10240597D01*
X22774211Y-10190611D01*
X22824197Y-10129703D01*
X22861340Y-10060214D01*
X22884212Y-9984814D01*
X22891935Y-9906400D01*
X22891935Y-8906400D01*
X22884212Y-8827986D01*
X22861340Y-8752586D01*
X22824197Y-8683097D01*
X22774211Y-8622189D01*
X22713303Y-8572203D01*
X22643814Y-8535060D01*
X22568414Y-8512188D01*
X22490000Y-8504465D01*
X19990000Y-8504465D01*
X19970353Y-8506400D01*
X18805793Y-8506400D01*
X18673569Y-8519423D01*
X18503919Y-8570886D01*
X18347568Y-8654457D01*
X18300571Y-8693027D01*
X18280311Y-8695022D01*
X18177240Y-8726288D01*
X18082250Y-8777061D01*
X18050000Y-8803528D01*
X18017750Y-8777061D01*
X17922760Y-8726288D01*
X17819689Y-8695022D01*
X17712500Y-8684465D01*
X17601186Y-8684465D01*
X17609197Y-8674703D01*
X17646340Y-8605214D01*
X17669212Y-8529814D01*
X17676935Y-8451400D01*
X17676935Y-7851400D01*
X17669212Y-7772986D01*
X17646340Y-7697586D01*
X17609197Y-7628097D01*
X17559211Y-7567189D01*
X17498303Y-7517203D01*
X17428814Y-7480060D01*
X17353414Y-7457188D01*
X17275000Y-7449465D01*
X17221935Y-7449465D01*
X17221935Y-7393900D01*
X17211378Y-7286711D01*
X17180112Y-7183640D01*
X17129339Y-7088650D01*
X17061009Y-7005391D01*
X16977750Y-6937061D01*
X16882760Y-6886288D01*
X16779689Y-6855022D01*
X16672500Y-6844465D01*
X16327500Y-6844465D01*
X16220311Y-6855022D01*
X16117240Y-6886288D01*
X16022250Y-6937061D01*
X15938991Y-7005391D01*
X15870661Y-7088650D01*
X15839924Y-7146156D01*
X15651935Y-6958167D01*
X15651935Y-5756400D01*
X15644212Y-5677986D01*
X15621340Y-5602586D01*
X15584197Y-5533097D01*
X15534211Y-5472189D01*
X15473303Y-5422203D01*
X15403814Y-5385060D01*
X15328414Y-5362188D01*
X15250000Y-5354465D01*
X13750000Y-5354465D01*
X13671586Y-5362188D01*
X13596186Y-5385060D01*
X13526697Y-5422203D01*
X13465789Y-5472189D01*
X13415803Y-5533097D01*
X13378660Y-5602586D01*
X13377820Y-5605355D01*
X12698450Y-5605355D01*
X12620036Y-5613078D01*
X12544636Y-5635950D01*
X12475147Y-5673093D01*
X12414239Y-5723079D01*
X12364253Y-5783987D01*
X12327110Y-5853476D01*
X12304238Y-5928876D01*
X12296515Y-6007290D01*
X6963935Y-6007290D01*
X6963935Y-5766429D01*
X6984760Y-5760112D01*
X7079750Y-5709339D01*
X7163009Y-5641009D01*
X7231339Y-5557750D01*
X7282112Y-5462760D01*
X7313378Y-5359689D01*
X7323935Y-5252500D01*
X7323935Y-4907500D01*
X7313378Y-4800311D01*
X7282112Y-4697240D01*
X7231339Y-4602250D01*
X7227000Y-4596963D01*
X7227000Y-4496237D01*
X7231339Y-4490950D01*
X7282112Y-4395960D01*
X7313378Y-4292889D01*
X7323935Y-4185700D01*
X7323935Y-3840700D01*
X7313378Y-3733511D01*
X7282112Y-3630440D01*
X7231339Y-3535450D01*
X7208662Y-3507818D01*
X7233339Y-3477750D01*
X7284112Y-3382760D01*
X7315378Y-3279689D01*
X7325935Y-3172500D01*
X7325935Y-2877500D01*
X7315378Y-2770311D01*
X7284112Y-2667240D01*
X7233339Y-2572250D01*
X7206872Y-2540000D01*
X7233339Y-2507750D01*
X7284112Y-2412760D01*
X7315378Y-2309689D01*
X7325935Y-2202500D01*
X7325935Y-2170613D01*
X7399964Y-2163322D01*
X7475364Y-2140450D01*
X7544853Y-2103307D01*
X7605761Y-2053321D01*
X7655747Y-1992413D01*
X7692890Y-1922924D01*
X7715762Y-1847524D01*
X7723485Y-1769110D01*
X7723485Y-770890D01*
X7715762Y-692476D01*
X7692890Y-617076D01*
X7655747Y-547587D01*
X7605761Y-486679D01*
X7544853Y-436693D01*
X7475364Y-399550D01*
X7399964Y-376678D01*
X7321550Y-368955D01*
X6633465Y-368955D01*
X6630612Y-339986D01*
X6607740Y-264586D01*
X6570597Y-195097D01*
X6520611Y-134189D01*
X6459703Y-84203D01*
X6390214Y-47060D01*
X6314814Y-24188D01*
X6236400Y-16465D01*
X4736400Y-16465D01*
X4657986Y-24188D01*
X4582586Y-47060D01*
X4513097Y-84203D01*
X4452189Y-134189D01*
X4402203Y-195097D01*
X4365060Y-264586D01*
X4342188Y-339986D01*
X4334465Y-418400D01*
X-1386771Y-418400D01*
X-1391514Y2160052D01*
X35564369Y2339030D01*
X35699395Y-71067137D01*
G37*
X35699395Y-71067137D02*
X-1256488Y-71246115D01*
X-1329539Y-31531400D01*
X17993065Y-31531400D01*
X17993065Y-33081400D01*
X18000788Y-33159814D01*
X18023660Y-33235214D01*
X18060803Y-33304703D01*
X18110789Y-33365611D01*
X18171697Y-33415597D01*
X18241186Y-33452740D01*
X18316586Y-33475612D01*
X18395000Y-33483335D01*
X18995000Y-33483335D01*
X19073414Y-33475612D01*
X19148814Y-33452740D01*
X19218303Y-33415597D01*
X19279211Y-33365611D01*
X19329197Y-33304703D01*
X19330000Y-33303201D01*
X19330803Y-33304703D01*
X19380789Y-33365611D01*
X19441697Y-33415597D01*
X19511186Y-33452740D01*
X19586586Y-33475612D01*
X19665000Y-33483335D01*
X20265000Y-33483335D01*
X20343414Y-33475612D01*
X20418814Y-33452740D01*
X20488303Y-33415597D01*
X20549211Y-33365611D01*
X20599197Y-33304703D01*
X20600000Y-33303201D01*
X20600803Y-33304703D01*
X20650789Y-33365611D01*
X20711697Y-33415597D01*
X20781186Y-33452740D01*
X20856586Y-33475612D01*
X20935000Y-33483335D01*
X21535000Y-33483335D01*
X21613414Y-33475612D01*
X21688814Y-33452740D01*
X21758303Y-33415597D01*
X21819211Y-33365611D01*
X21869197Y-33304703D01*
X21870000Y-33303201D01*
X21870803Y-33304703D01*
X21920789Y-33365611D01*
X21981697Y-33415597D01*
X22051186Y-33452740D01*
X22126586Y-33475612D01*
X22205000Y-33483335D01*
X22805000Y-33483335D01*
X22883414Y-33475612D01*
X22958814Y-33452740D01*
X23028303Y-33415597D01*
X23089211Y-33365611D01*
X23139197Y-33304703D01*
X23176340Y-33235214D01*
X23199212Y-33159814D01*
X23206935Y-33081400D01*
X23206935Y-31531400D01*
X23199212Y-31452986D01*
X23176340Y-31377586D01*
X23139197Y-31308097D01*
X23089211Y-31247189D01*
X23028303Y-31197203D01*
X22958814Y-31160060D01*
X22883414Y-31137188D01*
X22805000Y-31129465D01*
X22205000Y-31129465D01*
X22126586Y-31137188D01*
X22051186Y-31160060D01*
X22044165Y-31163813D01*
X22049875Y-31105840D01*
X22049875Y-29906960D01*
X22042152Y-29828546D01*
X22019280Y-29753146D01*
X21982137Y-29683657D01*
X21932151Y-29622749D01*
X21915561Y-29609134D01*
X21919196Y-29604704D01*
X21919999Y-29603202D01*
X21920802Y-29604704D01*
X21970788Y-29665612D01*
X22031696Y-29715598D01*
X22101185Y-29752741D01*
X22176585Y-29775613D01*
X22254999Y-29783336D01*
X22854999Y-29783336D01*
X22933413Y-29775613D01*
X22937257Y-29774447D01*
X23027500Y-29783335D01*
X23372500Y-29783335D01*
X23479689Y-29772778D01*
X23582760Y-29741512D01*
X23677750Y-29690739D01*
X23719342Y-29656605D01*
X24599110Y-29656605D01*
X24677524Y-29648882D01*
X24752924Y-29626010D01*
X24822413Y-29588867D01*
X24883321Y-29538881D01*
X24933307Y-29477973D01*
X24970450Y-29408484D01*
X24993322Y-29333084D01*
X24995713Y-29308807D01*
X25000749Y-29309303D01*
X25030223Y-29306400D01*
X27148065Y-29306400D01*
X27148065Y-29556400D01*
X27155788Y-29634814D01*
X27178660Y-29710214D01*
X27215803Y-29779703D01*
X27265789Y-29840611D01*
X27326697Y-29890597D01*
X27396186Y-29927740D01*
X27471586Y-29950612D01*
X27550000Y-29958335D01*
X27800001Y-29958335D01*
X27800000Y-37256400D01*
X24946112Y-37256400D01*
X24943322Y-37228076D01*
X24920450Y-37152676D01*
X24883307Y-37083187D01*
X24833321Y-37022279D01*
X24772413Y-36972293D01*
X24702924Y-36935150D01*
X24627524Y-36912278D01*
X24549110Y-36904555D01*
X23550890Y-36904555D01*
X23472476Y-36912278D01*
X23397076Y-36935150D01*
X23327587Y-36972293D01*
X23266679Y-37022279D01*
X23216693Y-37083187D01*
X23206935Y-37101443D01*
X23206935Y-36931400D01*
X23199212Y-36852986D01*
X23176340Y-36777586D01*
X23139197Y-36708097D01*
X23089211Y-36647189D01*
X23028303Y-36597203D01*
X22958814Y-36560060D01*
X22883414Y-36537188D01*
X22805000Y-36529465D01*
X22205000Y-36529465D01*
X22126586Y-36537188D01*
X22051186Y-36560060D01*
X21981697Y-36597203D01*
X21920789Y-36647189D01*
X21870803Y-36708097D01*
X21870000Y-36709599D01*
X21869197Y-36708097D01*
X21819211Y-36647189D01*
X21758303Y-36597203D01*
X21688814Y-36560060D01*
X21613414Y-36537188D01*
X21535000Y-36529465D01*
X20935000Y-36529465D01*
X20856586Y-36537188D01*
X20781186Y-36560060D01*
X20711697Y-36597203D01*
X20650789Y-36647189D01*
X20600803Y-36708097D01*
X20600000Y-36709599D01*
X20599197Y-36708097D01*
X20549211Y-36647189D01*
X20488303Y-36597203D01*
X20418814Y-36560060D01*
X20343414Y-36537188D01*
X20265000Y-36529465D01*
X19665000Y-36529465D01*
X19586586Y-36537188D01*
X19511186Y-36560060D01*
X19441697Y-36597203D01*
X19380789Y-36647189D01*
X19330803Y-36708097D01*
X19293660Y-36777586D01*
X19270788Y-36852986D01*
X19263065Y-36931400D01*
X19263065Y-38481400D01*
X19270788Y-38559814D01*
X19293660Y-38635214D01*
X19330803Y-38704703D01*
X19380789Y-38765611D01*
X19441697Y-38815597D01*
X19511186Y-38852740D01*
X19586586Y-38875612D01*
X19665000Y-38883335D01*
X20265000Y-38883335D01*
X20343414Y-38875612D01*
X20418814Y-38852740D01*
X20488303Y-38815597D01*
X20507556Y-38799796D01*
X20479040Y-38853146D01*
X20456168Y-38928546D01*
X20448445Y-39006960D01*
X20448445Y-40205840D01*
X20456168Y-40284254D01*
X20479040Y-40359654D01*
X20485394Y-40371541D01*
X20441374Y-40358188D01*
X20362960Y-40350465D01*
X19762960Y-40350465D01*
X19684546Y-40358188D01*
X19609146Y-40381060D01*
X19539657Y-40418203D01*
X19478749Y-40468189D01*
X19428763Y-40529097D01*
X19427960Y-40530599D01*
X19427157Y-40529097D01*
X19377171Y-40468189D01*
X19316263Y-40418203D01*
X19246774Y-40381060D01*
X19171374Y-40358188D01*
X19092960Y-40350465D01*
X18492960Y-40350465D01*
X18414546Y-40358188D01*
X18339146Y-40381060D01*
X18269657Y-40418203D01*
X18208749Y-40468189D01*
X18158763Y-40529097D01*
X18121620Y-40598586D01*
X18098748Y-40673986D01*
X18091025Y-40752400D01*
X18091025Y-42302400D01*
X18098748Y-42380814D01*
X18121620Y-42456214D01*
X18158763Y-42525703D01*
X18208749Y-42586611D01*
X18269657Y-42636597D01*
X18339146Y-42673740D01*
X18414546Y-42696612D01*
X18492960Y-42704335D01*
X19092960Y-42704335D01*
X19171374Y-42696612D01*
X19246774Y-42673740D01*
X19316263Y-42636597D01*
X19377171Y-42586611D01*
X19427157Y-42525703D01*
X19427960Y-42524201D01*
X19428763Y-42525703D01*
X19478749Y-42586611D01*
X19539657Y-42636597D01*
X19609146Y-42673740D01*
X19684546Y-42696612D01*
X19762960Y-42704335D01*
X20362960Y-42704335D01*
X20441374Y-42696612D01*
X20516774Y-42673740D01*
X20586263Y-42636597D01*
X20647171Y-42586611D01*
X20697157Y-42525703D01*
X20697960Y-42524201D01*
X20698763Y-42525703D01*
X20748749Y-42586611D01*
X20809657Y-42636597D01*
X20879146Y-42673740D01*
X20954546Y-42696612D01*
X21032960Y-42704335D01*
X21632960Y-42704335D01*
X21711374Y-42696612D01*
X21786774Y-42673740D01*
X21856263Y-42636597D01*
X21917171Y-42586611D01*
X21967157Y-42525703D01*
X21967960Y-42524201D01*
X21968763Y-42525703D01*
X22018749Y-42586611D01*
X22079657Y-42636597D01*
X22149146Y-42673740D01*
X22224546Y-42696612D01*
X22302960Y-42704335D01*
X22902960Y-42704335D01*
X22981374Y-42696612D01*
X23056774Y-42673740D01*
X23126263Y-42636597D01*
X23187171Y-42586611D01*
X23237157Y-42525703D01*
X23274300Y-42456214D01*
X23297172Y-42380814D01*
X23304895Y-42302400D01*
X23304895Y-40752400D01*
X23297172Y-40673986D01*
X23274300Y-40598586D01*
X23237157Y-40529097D01*
X23187171Y-40468189D01*
X23126263Y-40418203D01*
X23056774Y-40381060D01*
X22981374Y-40358188D01*
X22902960Y-40350465D01*
X22302960Y-40350465D01*
X22224546Y-40358188D01*
X22149146Y-40381060D01*
X22079657Y-40418203D01*
X22018749Y-40468189D01*
X21968763Y-40529097D01*
X21967960Y-40530599D01*
X21967157Y-40529097D01*
X21933632Y-40488247D01*
X21982137Y-40429143D01*
X22019280Y-40359654D01*
X22042152Y-40284254D01*
X22049875Y-40205840D01*
X22049875Y-39006960D01*
X22042152Y-38928546D01*
X22019280Y-38853146D01*
X22006214Y-38828702D01*
X22051186Y-38852740D01*
X22126586Y-38875612D01*
X22205000Y-38883335D01*
X22805000Y-38883335D01*
X22883414Y-38875612D01*
X22958814Y-38852740D01*
X22968561Y-38847530D01*
X23027500Y-38853335D01*
X23372500Y-38853335D01*
X23479689Y-38842778D01*
X23582760Y-38811512D01*
X23588872Y-38808245D01*
X24549110Y-38808245D01*
X24627524Y-38800522D01*
X24702924Y-38777650D01*
X24772413Y-38740507D01*
X24833321Y-38690521D01*
X24883307Y-38629613D01*
X24920450Y-38560124D01*
X24943322Y-38484724D01*
X24946112Y-38456400D01*
X27800001Y-38456400D01*
X27800000Y-46354760D01*
X24996112Y-46354760D01*
X24993322Y-46326436D01*
X24970450Y-46251036D01*
X24933307Y-46181547D01*
X24883321Y-46120639D01*
X24822413Y-46070653D01*
X24752924Y-46033510D01*
X24677524Y-46010638D01*
X24599110Y-46002915D01*
X23600890Y-46002915D01*
X23522476Y-46010638D01*
X23447076Y-46033510D01*
X23377587Y-46070653D01*
X23316679Y-46120639D01*
X23303365Y-46136862D01*
X23297172Y-46073986D01*
X23274300Y-45998586D01*
X23237157Y-45929097D01*
X23187171Y-45868189D01*
X23126263Y-45818203D01*
X23056774Y-45781060D01*
X22981374Y-45758188D01*
X22902960Y-45750465D01*
X22302960Y-45750465D01*
X22224546Y-45758188D01*
X22149146Y-45781060D01*
X22079657Y-45818203D01*
X22018749Y-45868189D01*
X21968763Y-45929097D01*
X21967960Y-45930599D01*
X21967157Y-45929097D01*
X21917171Y-45868189D01*
X21856263Y-45818203D01*
X21786774Y-45781060D01*
X21711374Y-45758188D01*
X21632960Y-45750465D01*
X21032960Y-45750465D01*
X20954546Y-45758188D01*
X20879146Y-45781060D01*
X20809657Y-45818203D01*
X20748749Y-45868189D01*
X20698763Y-45929097D01*
X20697960Y-45930599D01*
X20697157Y-45929097D01*
X20647171Y-45868189D01*
X20586263Y-45818203D01*
X20516774Y-45781060D01*
X20441374Y-45758188D01*
X20362960Y-45750465D01*
X19762960Y-45750465D01*
X19684546Y-45758188D01*
X19609146Y-45781060D01*
X19539657Y-45818203D01*
X19478749Y-45868189D01*
X19428763Y-45929097D01*
X19391620Y-45998586D01*
X19368748Y-46073986D01*
X19361025Y-46152400D01*
X19361025Y-47702400D01*
X19368748Y-47780814D01*
X19391620Y-47856214D01*
X19428763Y-47925703D01*
X19478749Y-47986611D01*
X19539657Y-48036597D01*
X19609146Y-48073740D01*
X19684546Y-48096612D01*
X19762960Y-48104335D01*
X20362960Y-48104335D01*
X20441374Y-48096612D01*
X20449714Y-48094082D01*
X20448446Y-48106960D01*
X20448446Y-49305840D01*
X20456169Y-49384254D01*
X20479041Y-49459654D01*
X20483435Y-49467875D01*
X20468814Y-49460060D01*
X20393414Y-49437188D01*
X20315000Y-49429465D01*
X19715000Y-49429465D01*
X19636586Y-49437188D01*
X19561186Y-49460060D01*
X19491697Y-49497203D01*
X19430789Y-49547189D01*
X19380803Y-49608097D01*
X19380000Y-49609599D01*
X19379197Y-49608097D01*
X19329211Y-49547189D01*
X19268303Y-49497203D01*
X19198814Y-49460060D01*
X19123414Y-49437188D01*
X19045000Y-49429465D01*
X18445000Y-49429465D01*
X18366586Y-49437188D01*
X18291186Y-49460060D01*
X18221697Y-49497203D01*
X18160789Y-49547189D01*
X18110803Y-49608097D01*
X18073660Y-49677586D01*
X18050788Y-49752986D01*
X18043065Y-49831400D01*
X18043065Y-51381400D01*
X18050788Y-51459814D01*
X18073660Y-51535214D01*
X18110803Y-51604703D01*
X18160789Y-51665611D01*
X18221697Y-51715597D01*
X18291186Y-51752740D01*
X18366586Y-51775612D01*
X18445000Y-51783335D01*
X19045000Y-51783335D01*
X19123414Y-51775612D01*
X19198814Y-51752740D01*
X19268303Y-51715597D01*
X19329211Y-51665611D01*
X19379197Y-51604703D01*
X19380000Y-51603201D01*
X19380803Y-51604703D01*
X19430789Y-51665611D01*
X19491697Y-51715597D01*
X19561186Y-51752740D01*
X19636586Y-51775612D01*
X19715000Y-51783335D01*
X20315000Y-51783335D01*
X20393414Y-51775612D01*
X20468814Y-51752740D01*
X20538303Y-51715597D01*
X20599211Y-51665611D01*
X20649197Y-51604703D01*
X20650000Y-51603201D01*
X20650803Y-51604703D01*
X20700789Y-51665611D01*
X20761697Y-51715597D01*
X20831186Y-51752740D01*
X20906586Y-51775612D01*
X20985000Y-51783335D01*
X21585000Y-51783335D01*
X21663414Y-51775612D01*
X21738814Y-51752740D01*
X21808303Y-51715597D01*
X21869211Y-51665611D01*
X21919197Y-51604703D01*
X21920000Y-51603201D01*
X21920803Y-51604703D01*
X21970789Y-51665611D01*
X22031697Y-51715597D01*
X22101186Y-51752740D01*
X22176586Y-51775612D01*
X22255000Y-51783335D01*
X22855000Y-51783335D01*
X22933414Y-51775612D01*
X23008814Y-51752740D01*
X23078303Y-51715597D01*
X23139211Y-51665611D01*
X23189197Y-51604703D01*
X23226340Y-51535214D01*
X23249212Y-51459814D01*
X23256935Y-51381400D01*
X23256935Y-49831400D01*
X23249212Y-49752986D01*
X23226340Y-49677586D01*
X23189197Y-49608097D01*
X23139211Y-49547189D01*
X23078303Y-49497203D01*
X23008814Y-49460060D01*
X22933414Y-49437188D01*
X22855000Y-49429465D01*
X22255000Y-49429465D01*
X22176586Y-49437188D01*
X22101186Y-49460060D01*
X22031697Y-49497203D01*
X21970789Y-49547189D01*
X21920803Y-49608097D01*
X21920000Y-49609599D01*
X21919197Y-49608097D01*
X21915561Y-49603667D01*
X21932152Y-49590051D01*
X21982138Y-49529143D01*
X22019281Y-49459654D01*
X22042153Y-49384254D01*
X22049876Y-49305840D01*
X22049876Y-48106960D01*
X22042153Y-48028546D01*
X22032973Y-47998285D01*
X22079657Y-48036597D01*
X22149146Y-48073740D01*
X22224546Y-48096612D01*
X22302960Y-48104335D01*
X22902960Y-48104335D01*
X22981374Y-48096612D01*
X23056774Y-48073740D01*
X23066886Y-48068335D01*
X23372500Y-48068335D01*
X23479689Y-48057778D01*
X23582760Y-48026512D01*
X23677750Y-47975739D01*
X23761009Y-47907409D01*
X23761669Y-47906605D01*
X24599110Y-47906605D01*
X24677524Y-47898882D01*
X24752924Y-47876010D01*
X24822413Y-47838867D01*
X24883321Y-47788881D01*
X24933307Y-47727973D01*
X24970450Y-47658484D01*
X24993322Y-47583084D01*
X24996112Y-47554760D01*
X27800001Y-47554760D01*
X27800000Y-55356400D01*
X25122015Y-55356400D01*
X25092549Y-55353498D01*
X25063083Y-55356400D01*
X25063076Y-55356400D01*
X25039443Y-55358728D01*
X25020450Y-55296116D01*
X24983307Y-55226627D01*
X24933321Y-55165719D01*
X24872413Y-55115733D01*
X24802924Y-55078590D01*
X24727524Y-55055718D01*
X24649110Y-55047995D01*
X23650890Y-55047995D01*
X23572476Y-55055718D01*
X23497076Y-55078590D01*
X23427587Y-55115733D01*
X23366679Y-55165719D01*
X23316693Y-55226627D01*
X23279550Y-55296116D01*
X23256935Y-55370669D01*
X23256935Y-55231400D01*
X23249212Y-55152986D01*
X23226340Y-55077586D01*
X23189197Y-55008097D01*
X23139211Y-54947189D01*
X23078303Y-54897203D01*
X23008814Y-54860060D01*
X22933414Y-54837188D01*
X22855000Y-54829465D01*
X22255000Y-54829465D01*
X22176586Y-54837188D01*
X22101186Y-54860060D01*
X22031697Y-54897203D01*
X21970789Y-54947189D01*
X21920803Y-55008097D01*
X21920000Y-55009599D01*
X21919197Y-55008097D01*
X21869211Y-54947189D01*
X21808303Y-54897203D01*
X21738814Y-54860060D01*
X21663414Y-54837188D01*
X21585000Y-54829465D01*
X20985000Y-54829465D01*
X20906586Y-54837188D01*
X20831186Y-54860060D01*
X20761697Y-54897203D01*
X20700789Y-54947189D01*
X20650803Y-55008097D01*
X20650000Y-55009599D01*
X20649197Y-55008097D01*
X20599211Y-54947189D01*
X20538303Y-54897203D01*
X20468814Y-54860060D01*
X20393414Y-54837188D01*
X20315000Y-54829465D01*
X19715000Y-54829465D01*
X19636586Y-54837188D01*
X19561186Y-54860060D01*
X19491697Y-54897203D01*
X19430789Y-54947189D01*
X19380803Y-55008097D01*
X19343660Y-55077586D01*
X19320788Y-55152986D01*
X19313065Y-55231400D01*
X19313065Y-56781400D01*
X19320788Y-56859814D01*
X19343660Y-56935214D01*
X19380803Y-57004703D01*
X19430789Y-57065611D01*
X19491697Y-57115597D01*
X19561186Y-57152740D01*
X19636586Y-57175612D01*
X19715000Y-57183335D01*
X20315000Y-57183335D01*
X20393414Y-57175612D01*
X20468814Y-57152740D01*
X20538303Y-57115597D01*
X20557556Y-57099796D01*
X20529040Y-57153146D01*
X20506168Y-57228546D01*
X20498445Y-57306960D01*
X20498445Y-58505840D01*
X20506168Y-58584254D01*
X20522740Y-58638884D01*
X20468814Y-58610060D01*
X20393414Y-58587188D01*
X20315000Y-58579465D01*
X19715000Y-58579465D01*
X19636586Y-58587188D01*
X19561186Y-58610060D01*
X19491697Y-58647203D01*
X19430789Y-58697189D01*
X19380803Y-58758097D01*
X19380000Y-58759599D01*
X19379197Y-58758097D01*
X19329211Y-58697189D01*
X19268303Y-58647203D01*
X19198814Y-58610060D01*
X19123414Y-58587188D01*
X19045000Y-58579465D01*
X18445000Y-58579465D01*
X18366586Y-58587188D01*
X18291186Y-58610060D01*
X18221697Y-58647203D01*
X18160789Y-58697189D01*
X18110803Y-58758097D01*
X18073660Y-58827586D01*
X18050788Y-58902986D01*
X18043065Y-58981400D01*
X18043065Y-60531400D01*
X18050788Y-60609814D01*
X18073660Y-60685214D01*
X18110803Y-60754703D01*
X18160789Y-60815611D01*
X18221697Y-60865597D01*
X18291186Y-60902740D01*
X18366586Y-60925612D01*
X18445000Y-60933335D01*
X19045000Y-60933335D01*
X19123414Y-60925612D01*
X19198814Y-60902740D01*
X19268303Y-60865597D01*
X19329211Y-60815611D01*
X19379197Y-60754703D01*
X19380000Y-60753201D01*
X19380803Y-60754703D01*
X19430789Y-60815611D01*
X19491697Y-60865597D01*
X19561186Y-60902740D01*
X19636586Y-60925612D01*
X19715000Y-60933335D01*
X20315000Y-60933335D01*
X20393414Y-60925612D01*
X20468814Y-60902740D01*
X20538303Y-60865597D01*
X20599211Y-60815611D01*
X20649197Y-60754703D01*
X20650000Y-60753201D01*
X20650803Y-60754703D01*
X20700789Y-60815611D01*
X20761697Y-60865597D01*
X20831186Y-60902740D01*
X20906586Y-60925612D01*
X20985000Y-60933335D01*
X21585000Y-60933335D01*
X21663414Y-60925612D01*
X21738814Y-60902740D01*
X21808303Y-60865597D01*
X21869211Y-60815611D01*
X21919197Y-60754703D01*
X21920000Y-60753201D01*
X21920803Y-60754703D01*
X21970789Y-60815611D01*
X22031697Y-60865597D01*
X22101186Y-60902740D01*
X22176586Y-60925612D01*
X22255000Y-60933335D01*
X22855000Y-60933335D01*
X22933414Y-60925612D01*
X23008814Y-60902740D01*
X23078303Y-60865597D01*
X23139211Y-60815611D01*
X23189197Y-60754703D01*
X23226340Y-60685214D01*
X23249212Y-60609814D01*
X23256935Y-60531400D01*
X23256935Y-58981400D01*
X23249212Y-58902986D01*
X23226340Y-58827586D01*
X23189197Y-58758097D01*
X23139211Y-58697189D01*
X23078303Y-58647203D01*
X23008814Y-58610060D01*
X22933414Y-58587188D01*
X22855000Y-58579465D01*
X22255000Y-58579465D01*
X22176586Y-58587188D01*
X22101186Y-58610060D01*
X22081061Y-58620817D01*
X22092152Y-58584254D01*
X22099875Y-58505840D01*
X22099875Y-57306960D01*
X22092152Y-57228546D01*
X22069280Y-57153146D01*
X22056214Y-57128702D01*
X22101186Y-57152740D01*
X22176586Y-57175612D01*
X22255000Y-57183335D01*
X22764524Y-57183335D01*
X22817240Y-57211512D01*
X22920311Y-57242778D01*
X23027500Y-57253335D01*
X23372500Y-57253335D01*
X23479689Y-57242778D01*
X23582760Y-57211512D01*
X23677750Y-57160739D01*
X23761009Y-57092409D01*
X23829339Y-57009150D01*
X23860055Y-56951685D01*
X24649110Y-56951685D01*
X24727524Y-56943962D01*
X24802924Y-56921090D01*
X24872413Y-56883947D01*
X24933321Y-56833961D01*
X24983307Y-56773053D01*
X25020450Y-56703564D01*
X25043322Y-56628164D01*
X25045857Y-56602423D01*
X25049110Y-56602743D01*
X25078584Y-56599840D01*
X25166731Y-56591158D01*
X25279831Y-56556850D01*
X25280673Y-56556400D01*
X27800001Y-56556400D01*
X27800000Y-64506400D01*
X25095245Y-64506400D01*
X25078584Y-64504759D01*
X25049110Y-64501856D01*
X25045857Y-64502176D01*
X25043322Y-64476435D01*
X25020450Y-64401035D01*
X24983307Y-64331546D01*
X24933321Y-64270638D01*
X24872413Y-64220652D01*
X24802924Y-64183509D01*
X24727524Y-64160637D01*
X24649110Y-64152914D01*
X23650890Y-64152914D01*
X23572476Y-64160637D01*
X23497076Y-64183509D01*
X23427587Y-64220652D01*
X23366679Y-64270638D01*
X23316693Y-64331546D01*
X23279550Y-64401035D01*
X23256935Y-64475588D01*
X23256935Y-64381400D01*
X23249212Y-64302986D01*
X23226340Y-64227586D01*
X23189197Y-64158097D01*
X23139211Y-64097189D01*
X23078303Y-64047203D01*
X23008814Y-64010060D01*
X22933414Y-63987188D01*
X22855000Y-63979465D01*
X22255000Y-63979465D01*
X22176586Y-63987188D01*
X22101186Y-64010060D01*
X22031697Y-64047203D01*
X21970789Y-64097189D01*
X21920803Y-64158097D01*
X21920000Y-64159599D01*
X21919197Y-64158097D01*
X21869211Y-64097189D01*
X21808303Y-64047203D01*
X21738814Y-64010060D01*
X21663414Y-63987188D01*
X21585000Y-63979465D01*
X20985000Y-63979465D01*
X20906586Y-63987188D01*
X20831186Y-64010060D01*
X20761697Y-64047203D01*
X20700789Y-64097189D01*
X20650803Y-64158097D01*
X20650000Y-64159599D01*
X20649197Y-64158097D01*
X20599211Y-64097189D01*
X20538303Y-64047203D01*
X20468814Y-64010060D01*
X20393414Y-63987188D01*
X20315000Y-63979465D01*
X19715000Y-63979465D01*
X19636586Y-63987188D01*
X19561186Y-64010060D01*
X19491697Y-64047203D01*
X19430789Y-64097189D01*
X19380803Y-64158097D01*
X19343660Y-64227586D01*
X19320788Y-64302986D01*
X19313065Y-64381400D01*
X19313065Y-65931400D01*
X19320788Y-66009814D01*
X19343660Y-66085214D01*
X19380803Y-66154703D01*
X19430789Y-66215611D01*
X19491697Y-66265597D01*
X19561186Y-66302740D01*
X19636586Y-66325612D01*
X19715000Y-66333335D01*
X20315000Y-66333335D01*
X20393414Y-66325612D01*
X20468814Y-66302740D01*
X20538303Y-66265597D01*
X20599211Y-66215611D01*
X20649197Y-66154703D01*
X20650000Y-66153201D01*
X20650803Y-66154703D01*
X20685001Y-66196374D01*
X20685001Y-66954465D01*
X20450000Y-66954465D01*
X20371586Y-66962188D01*
X20296186Y-66985060D01*
X20226697Y-67022203D01*
X20165789Y-67072189D01*
X20115803Y-67133097D01*
X20078660Y-67202586D01*
X20055788Y-67277986D01*
X20048065Y-67356400D01*
X20048065Y-69056400D01*
X20055788Y-69134814D01*
X20078660Y-69210214D01*
X20115803Y-69279703D01*
X20165789Y-69340611D01*
X20226697Y-69390597D01*
X20296186Y-69427740D01*
X20371586Y-69450612D01*
X20450000Y-69458335D01*
X22150000Y-69458335D01*
X22228414Y-69450612D01*
X22303814Y-69427740D01*
X22373303Y-69390597D01*
X22434211Y-69340611D01*
X22484197Y-69279703D01*
X22521340Y-69210214D01*
X22544212Y-69134814D01*
X22551935Y-69056400D01*
X22551935Y-67356400D01*
X22544212Y-67277986D01*
X22521340Y-67202586D01*
X22484197Y-67133097D01*
X22434211Y-67072189D01*
X22373303Y-67022203D01*
X22303814Y-66985060D01*
X22228414Y-66962188D01*
X22150000Y-66954465D01*
X21885000Y-66954465D01*
X21885000Y-66196372D01*
X21919197Y-66154703D01*
X21920000Y-66153201D01*
X21920803Y-66154703D01*
X21970789Y-66215611D01*
X22031697Y-66265597D01*
X22101186Y-66302740D01*
X22176586Y-66325612D01*
X22255000Y-66333335D01*
X22855000Y-66333335D01*
X22933414Y-66325612D01*
X22937255Y-66324447D01*
X23027500Y-66333335D01*
X23372500Y-66333335D01*
X23479689Y-66322778D01*
X23582760Y-66291512D01*
X23677750Y-66240739D01*
X23761009Y-66172409D01*
X23829339Y-66089150D01*
X23846735Y-66056604D01*
X24649110Y-66056604D01*
X24727524Y-66048881D01*
X24802924Y-66026009D01*
X24872413Y-65988866D01*
X24933321Y-65938880D01*
X24983307Y-65877972D01*
X25020450Y-65808483D01*
X25043322Y-65733083D01*
X25045713Y-65708807D01*
X25050751Y-65709303D01*
X25080225Y-65706400D01*
X28370526Y-65706400D01*
X28400000Y-65709303D01*
X28429474Y-65706400D01*
X28517621Y-65697718D01*
X28630721Y-65663410D01*
X28734955Y-65607696D01*
X28826317Y-65532717D01*
X28901296Y-65441355D01*
X28957010Y-65337121D01*
X28991318Y-65224021D01*
X29002903Y-65106400D01*
X29000000Y-65076926D01*
X29000000Y-56035873D01*
X29002903Y-56006400D01*
X29000000Y-55976926D01*
X29000000Y-47085873D01*
X29002903Y-47056400D01*
X29000000Y-47026926D01*
X29000000Y-37985873D01*
X29002903Y-37956399D01*
X29000000Y-37926925D01*
X29000000Y-29958335D01*
X29050000Y-29958335D01*
X29128414Y-29950612D01*
X29203814Y-29927740D01*
X29273303Y-29890597D01*
X29334211Y-29840611D01*
X29384197Y-29779703D01*
X29421340Y-29710214D01*
X29444212Y-29634814D01*
X29451935Y-29556400D01*
X29451935Y-28056400D01*
X29444212Y-27977986D01*
X29421340Y-27902586D01*
X29384197Y-27833097D01*
X29334211Y-27772189D01*
X29273303Y-27722203D01*
X29203814Y-27685060D01*
X29128414Y-27662188D01*
X29050000Y-27654465D01*
X27550000Y-27654465D01*
X27471586Y-27662188D01*
X27396186Y-27685060D01*
X27326697Y-27722203D01*
X27265789Y-27772189D01*
X27215803Y-27833097D01*
X27178660Y-27902586D01*
X27155788Y-27977986D01*
X27148065Y-28056400D01*
X27148065Y-28106400D01*
X25045235Y-28106400D01*
X25028584Y-28104760D01*
X24999110Y-28101857D01*
X24995857Y-28102177D01*
X24993322Y-28076436D01*
X24970450Y-28001036D01*
X24933307Y-27931547D01*
X24883321Y-27870639D01*
X24822413Y-27820653D01*
X24752924Y-27783510D01*
X24677524Y-27760638D01*
X24599110Y-27752915D01*
X23600890Y-27752915D01*
X23522476Y-27760638D01*
X23447076Y-27783510D01*
X23377587Y-27820653D01*
X23316679Y-27870639D01*
X23266693Y-27931547D01*
X23256934Y-27949805D01*
X23256934Y-27831401D01*
X23249211Y-27752987D01*
X23226339Y-27677587D01*
X23189196Y-27608098D01*
X23139210Y-27547190D01*
X23078302Y-27497204D01*
X23008813Y-27460061D01*
X22933413Y-27437189D01*
X22854999Y-27429466D01*
X22254999Y-27429466D01*
X22176585Y-27437189D01*
X22101185Y-27460061D01*
X22031696Y-27497204D01*
X21970788Y-27547190D01*
X21920802Y-27608098D01*
X21919999Y-27609600D01*
X21919196Y-27608098D01*
X21869210Y-27547190D01*
X21808302Y-27497204D01*
X21738813Y-27460061D01*
X21663413Y-27437189D01*
X21584999Y-27429466D01*
X20984999Y-27429466D01*
X20906585Y-27437189D01*
X20831185Y-27460061D01*
X20761696Y-27497204D01*
X20700788Y-27547190D01*
X20650802Y-27608098D01*
X20649999Y-27609600D01*
X20649196Y-27608098D01*
X20599210Y-27547190D01*
X20538302Y-27497204D01*
X20468813Y-27460061D01*
X20393413Y-27437189D01*
X20314999Y-27429466D01*
X19714999Y-27429466D01*
X19636585Y-27437189D01*
X19561185Y-27460061D01*
X19491696Y-27497204D01*
X19430788Y-27547190D01*
X19380802Y-27608098D01*
X19343659Y-27677587D01*
X19320787Y-27752987D01*
X19313064Y-27831401D01*
X19313064Y-29381401D01*
X19320787Y-29459815D01*
X19343659Y-29535215D01*
X19380802Y-29604704D01*
X19430788Y-29665612D01*
X19491696Y-29715598D01*
X19561185Y-29752741D01*
X19636585Y-29775613D01*
X19714999Y-29783336D01*
X20314999Y-29783336D01*
X20393413Y-29775613D01*
X20468813Y-29752741D01*
X20483434Y-29744926D01*
X20479040Y-29753146D01*
X20456168Y-29828546D01*
X20448445Y-29906960D01*
X20448445Y-31105840D01*
X20455728Y-31179791D01*
X20418814Y-31160060D01*
X20343414Y-31137188D01*
X20265000Y-31129465D01*
X19665000Y-31129465D01*
X19586586Y-31137188D01*
X19511186Y-31160060D01*
X19441697Y-31197203D01*
X19380789Y-31247189D01*
X19330803Y-31308097D01*
X19330000Y-31309599D01*
X19329197Y-31308097D01*
X19279211Y-31247189D01*
X19218303Y-31197203D01*
X19148814Y-31160060D01*
X19073414Y-31137188D01*
X18995000Y-31129465D01*
X18395000Y-31129465D01*
X18316586Y-31137188D01*
X18241186Y-31160060D01*
X18171697Y-31197203D01*
X18110789Y-31247189D01*
X18060803Y-31308097D01*
X18023660Y-31377586D01*
X18000788Y-31452986D01*
X17993065Y-31531400D01*
X-1329539Y-31531400D01*
X-1345771Y-22707290D01*
X16996515Y-22707290D01*
X16996515Y-23705510D01*
X17004238Y-23783924D01*
X17027110Y-23859324D01*
X17064253Y-23928813D01*
X17114239Y-23989721D01*
X17175147Y-24039707D01*
X17244636Y-24076850D01*
X17320036Y-24099722D01*
X17398450Y-24107445D01*
X18065235Y-24107445D01*
X18073659Y-24135215D01*
X18110802Y-24204704D01*
X18160788Y-24265612D01*
X18221696Y-24315598D01*
X18291185Y-24352741D01*
X18366585Y-24375613D01*
X18444999Y-24383336D01*
X19044999Y-24383336D01*
X19123413Y-24375613D01*
X19198813Y-24352741D01*
X19268302Y-24315598D01*
X19329210Y-24265612D01*
X19379196Y-24204704D01*
X19379999Y-24203202D01*
X19380802Y-24204704D01*
X19430788Y-24265612D01*
X19491696Y-24315598D01*
X19561185Y-24352741D01*
X19636585Y-24375613D01*
X19714999Y-24383336D01*
X20314999Y-24383336D01*
X20393413Y-24375613D01*
X20468813Y-24352741D01*
X20538302Y-24315598D01*
X20599210Y-24265612D01*
X20649196Y-24204704D01*
X20649999Y-24203202D01*
X20650802Y-24204704D01*
X20700788Y-24265612D01*
X20761696Y-24315598D01*
X20831185Y-24352741D01*
X20906585Y-24375613D01*
X20984999Y-24383336D01*
X21584999Y-24383336D01*
X21663413Y-24375613D01*
X21738813Y-24352741D01*
X21808302Y-24315598D01*
X21869210Y-24265612D01*
X21919196Y-24204704D01*
X21919999Y-24203202D01*
X21920802Y-24204704D01*
X21970788Y-24265612D01*
X22031696Y-24315598D01*
X22101185Y-24352741D01*
X22176585Y-24375613D01*
X22254999Y-24383336D01*
X22854999Y-24383336D01*
X22933413Y-24375613D01*
X23008813Y-24352741D01*
X23078302Y-24315598D01*
X23139210Y-24265612D01*
X23189196Y-24204704D01*
X23226339Y-24135215D01*
X23249211Y-24059815D01*
X23256934Y-23981401D01*
X23256934Y-22431401D01*
X23249211Y-22352987D01*
X23226339Y-22277587D01*
X23189196Y-22208098D01*
X23139210Y-22147190D01*
X23078302Y-22097204D01*
X23008813Y-22060061D01*
X22933413Y-22037189D01*
X22854999Y-22029466D01*
X22254999Y-22029466D01*
X22176585Y-22037189D01*
X22101185Y-22060061D01*
X22031696Y-22097204D01*
X21970788Y-22147190D01*
X21930185Y-22196664D01*
X21931935Y-22178900D01*
X21931935Y-21929136D01*
X22001943Y-21843831D01*
X22085514Y-21687480D01*
X22136977Y-21517830D01*
X22150000Y-21385606D01*
X22150000Y-19599793D01*
X22136977Y-19467569D01*
X22085514Y-19297919D01*
X22001943Y-19141568D01*
X21961986Y-19092880D01*
X21961378Y-19086710D01*
X21930112Y-18983639D01*
X21879339Y-18888649D01*
X21852872Y-18856399D01*
X21879339Y-18824149D01*
X21930112Y-18729159D01*
X21961378Y-18626088D01*
X21963373Y-18605829D01*
X22001943Y-18558832D01*
X22085514Y-18402481D01*
X22136977Y-18232831D01*
X22150000Y-18100607D01*
X22150000Y-17219717D01*
X22237500Y-17228335D01*
X22271220Y-17228335D01*
X22280720Y-17259654D01*
X22317863Y-17329143D01*
X22328064Y-17341573D01*
X22328064Y-17518900D01*
X22338621Y-17626089D01*
X22369887Y-17729160D01*
X22420660Y-17824150D01*
X22488990Y-17907409D01*
X22572249Y-17975739D01*
X22667239Y-18026512D01*
X22770310Y-18057778D01*
X22877499Y-18068335D01*
X23222499Y-18068335D01*
X23329688Y-18057778D01*
X23432759Y-18026512D01*
X23527749Y-17975739D01*
X23611008Y-17907409D01*
X23679338Y-17824150D01*
X23730111Y-17729160D01*
X23761377Y-17626089D01*
X23771934Y-17518900D01*
X23771934Y-17343622D01*
X23783817Y-17329143D01*
X23820960Y-17259654D01*
X23843832Y-17184254D01*
X23851555Y-17105840D01*
X23851555Y-15906960D01*
X24048445Y-15906960D01*
X24048445Y-17105840D01*
X24056168Y-17184254D01*
X24079040Y-17259654D01*
X24116183Y-17329143D01*
X24166169Y-17390051D01*
X24227077Y-17440037D01*
X24296566Y-17477180D01*
X24371966Y-17500052D01*
X24450380Y-17507775D01*
X25247940Y-17507775D01*
X25326354Y-17500052D01*
X25401754Y-17477180D01*
X25434110Y-17459885D01*
X26249110Y-17459885D01*
X26264848Y-17458335D01*
X27650000Y-17458335D01*
X27728414Y-17450612D01*
X27803814Y-17427740D01*
X27873303Y-17390597D01*
X27934211Y-17340611D01*
X27984197Y-17279703D01*
X28021340Y-17210214D01*
X28044212Y-17134814D01*
X28051935Y-17056400D01*
X28051935Y-15556400D01*
X28044212Y-15477986D01*
X28021340Y-15402586D01*
X27984197Y-15333097D01*
X27934211Y-15272189D01*
X27873303Y-15222203D01*
X27803814Y-15185060D01*
X27728414Y-15162188D01*
X27650000Y-15154465D01*
X26150000Y-15154465D01*
X26071586Y-15162188D01*
X25996186Y-15185060D01*
X25926697Y-15222203D01*
X25865789Y-15272189D01*
X25815803Y-15333097D01*
X25778660Y-15402586D01*
X25755788Y-15477986D01*
X25748085Y-15556195D01*
X25440247Y-15556195D01*
X25401754Y-15535620D01*
X25326354Y-15512748D01*
X25247940Y-15505025D01*
X24450380Y-15505025D01*
X24371966Y-15512748D01*
X24296566Y-15535620D01*
X24227077Y-15572763D01*
X24166169Y-15622749D01*
X24116183Y-15683657D01*
X24079040Y-15753146D01*
X24056168Y-15828546D01*
X24048445Y-15906960D01*
X23851555Y-15906960D01*
X23843832Y-15828546D01*
X23820960Y-15753146D01*
X23783817Y-15683657D01*
X23771935Y-15669179D01*
X23771935Y-15478901D01*
X23761378Y-15371712D01*
X23730112Y-15268641D01*
X23679339Y-15173651D01*
X23611009Y-15090392D01*
X23527750Y-15022062D01*
X23432760Y-14971289D01*
X23329689Y-14940023D01*
X23222500Y-14929466D01*
X22877500Y-14929466D01*
X22770311Y-14940023D01*
X22667240Y-14971289D01*
X22572250Y-15022062D01*
X22488991Y-15090392D01*
X22420661Y-15173651D01*
X22369888Y-15268641D01*
X22338622Y-15371712D01*
X22328065Y-15478901D01*
X22328065Y-15671226D01*
X22317863Y-15683657D01*
X22280720Y-15753146D01*
X22271220Y-15784465D01*
X22237500Y-15784465D01*
X22150000Y-15793083D01*
X22150000Y-13960603D01*
X22154354Y-13916399D01*
X22150000Y-13872193D01*
X22140000Y-13770662D01*
X22140000Y-13308335D01*
X22490000Y-13308335D01*
X22568414Y-13300612D01*
X22643814Y-13277740D01*
X22713303Y-13240597D01*
X22774211Y-13190611D01*
X22824197Y-13129703D01*
X22861340Y-13060214D01*
X22884212Y-12984814D01*
X22891935Y-12906400D01*
X22891935Y-11906400D01*
X22884212Y-11827986D01*
X22861340Y-11752586D01*
X22824197Y-11683097D01*
X22774211Y-11622189D01*
X22713303Y-11572203D01*
X22643814Y-11535060D01*
X22568414Y-11512188D01*
X22490000Y-11504465D01*
X21264560Y-11504465D01*
X21240000Y-11502046D01*
X21215440Y-11504465D01*
X19990000Y-11504465D01*
X19911586Y-11512188D01*
X19836186Y-11535060D01*
X19766697Y-11572203D01*
X19705789Y-11622189D01*
X19655803Y-11683097D01*
X19618660Y-11752586D01*
X19595788Y-11827986D01*
X19588065Y-11906400D01*
X19588065Y-12906400D01*
X19595788Y-12984814D01*
X19618660Y-13060214D01*
X19655803Y-13129703D01*
X19705789Y-13190611D01*
X19766697Y-13240597D01*
X19836186Y-13277740D01*
X19911586Y-13300612D01*
X19990000Y-13308335D01*
X20340001Y-13308335D01*
X20340001Y-13862184D01*
X20335646Y-13906400D01*
X20350000Y-14052138D01*
X20350001Y-15912184D01*
X20350000Y-15912194D01*
X20350000Y-16297194D01*
X20350001Y-18100607D01*
X20363024Y-18232831D01*
X20414487Y-18402481D01*
X20498058Y-18558832D01*
X20536627Y-18605828D01*
X20538622Y-18626088D01*
X20569888Y-18729159D01*
X20620661Y-18824149D01*
X20647128Y-18856399D01*
X20620661Y-18888649D01*
X20569888Y-18983639D01*
X20538622Y-19086710D01*
X20538014Y-19092881D01*
X20498058Y-19141568D01*
X20414487Y-19297919D01*
X20363024Y-19467569D01*
X20350001Y-19599793D01*
X20350000Y-21284465D01*
X20117500Y-21284465D01*
X20010311Y-21295022D01*
X19953517Y-21312250D01*
X19929689Y-21305022D01*
X19822500Y-21294465D01*
X19477500Y-21294465D01*
X19370311Y-21305022D01*
X19267240Y-21336288D01*
X19172250Y-21387061D01*
X19088991Y-21455391D01*
X19020661Y-21538650D01*
X18969888Y-21633640D01*
X18938622Y-21736711D01*
X18928065Y-21843900D01*
X18928065Y-22029466D01*
X18444999Y-22029466D01*
X18366585Y-22037189D01*
X18291185Y-22060061D01*
X18221696Y-22097204D01*
X18160788Y-22147190D01*
X18110802Y-22208098D01*
X18073659Y-22277587D01*
X18065236Y-22305355D01*
X17398450Y-22305355D01*
X17320036Y-22313078D01*
X17244636Y-22335950D01*
X17175147Y-22373093D01*
X17114239Y-22423079D01*
X17064253Y-22483987D01*
X17027110Y-22553476D01*
X17004238Y-22628876D01*
X16996515Y-22707290D01*
X-1345771Y-22707290D01*
X-1370925Y-9032935D01*
X-518500Y-9032935D01*
X-498853Y-9031000D01*
X925707Y-9031000D01*
X1057931Y-9017977D01*
X1227581Y-8966514D01*
X1383932Y-8882943D01*
X1428851Y-8846079D01*
X1496889Y-8839378D01*
X1599960Y-8808112D01*
X1694950Y-8757339D01*
X1727200Y-8730872D01*
X1759450Y-8757339D01*
X1854440Y-8808112D01*
X1957511Y-8839378D01*
X2064700Y-8849935D01*
X2359700Y-8849935D01*
X2443870Y-8841645D01*
X2494186Y-8868540D01*
X2569586Y-8891412D01*
X2648000Y-8899135D01*
X3448000Y-8899135D01*
X3526414Y-8891412D01*
X3601814Y-8868540D01*
X3671303Y-8831397D01*
X3732211Y-8781411D01*
X3782197Y-8720503D01*
X3798000Y-8690938D01*
X3813803Y-8720503D01*
X3863789Y-8781411D01*
X3924697Y-8831397D01*
X3994186Y-8868540D01*
X4069586Y-8891412D01*
X4148000Y-8899135D01*
X4948000Y-8899135D01*
X5026414Y-8891412D01*
X5101814Y-8868540D01*
X5124876Y-8856213D01*
X5153111Y-8864778D01*
X5260300Y-8875335D01*
X5555300Y-8875335D01*
X5662489Y-8864778D01*
X5765560Y-8833512D01*
X5860550Y-8782739D01*
X5892800Y-8756272D01*
X5925050Y-8782739D01*
X6020040Y-8833512D01*
X6123111Y-8864778D01*
X6230300Y-8875335D01*
X6432327Y-8875335D01*
X6488697Y-8921597D01*
X6558186Y-8958740D01*
X6633586Y-8981612D01*
X6712000Y-8989335D01*
X7512000Y-8989335D01*
X7590414Y-8981612D01*
X7665814Y-8958740D01*
X7735303Y-8921597D01*
X7791673Y-8875335D01*
X8021500Y-8875335D01*
X8128689Y-8864778D01*
X8231760Y-8833512D01*
X8326750Y-8782739D01*
X8359000Y-8756272D01*
X8391250Y-8782739D01*
X8400154Y-8787498D01*
X8402925Y-8790875D01*
X8539968Y-8903343D01*
X8696319Y-8986914D01*
X8865969Y-9038377D01*
X8998193Y-9051400D01*
X9929959Y-9051400D01*
X9923065Y-9121400D01*
X9923065Y-9721400D01*
X9930788Y-9799814D01*
X9953660Y-9875214D01*
X9990803Y-9944703D01*
X10023435Y-9984465D01*
X9887500Y-9984465D01*
X9780311Y-9995022D01*
X9677240Y-10026288D01*
X9582250Y-10077061D01*
X9498991Y-10145391D01*
X9430661Y-10228650D01*
X9379888Y-10323640D01*
X9348622Y-10426711D01*
X9338065Y-10533900D01*
X9338065Y-10878900D01*
X9348622Y-10986089D01*
X9379888Y-11089160D01*
X9430661Y-11184150D01*
X9498991Y-11267409D01*
X9582250Y-11335739D01*
X9677240Y-11386512D01*
X9780311Y-11417778D01*
X9887500Y-11428335D01*
X10182500Y-11428335D01*
X10289689Y-11417778D01*
X10370267Y-11393335D01*
X11875000Y-11393335D01*
X11953414Y-11385612D01*
X12028814Y-11362740D01*
X12098303Y-11325597D01*
X12159211Y-11275611D01*
X12209197Y-11214703D01*
X12246340Y-11145214D01*
X12269212Y-11069814D01*
X12276935Y-10991400D01*
X12276935Y-10391400D01*
X12269212Y-10312986D01*
X12246340Y-10237586D01*
X12209197Y-10168097D01*
X12159211Y-10107189D01*
X12098303Y-10057203D01*
X12096801Y-10056400D01*
X12098303Y-10055597D01*
X12159211Y-10005611D01*
X12209197Y-9944703D01*
X12246340Y-9875214D01*
X12269212Y-9799814D01*
X12276935Y-9721400D01*
X12276935Y-9121400D01*
X12269212Y-9042986D01*
X12246340Y-8967586D01*
X12209197Y-8898097D01*
X12159211Y-8837189D01*
X12098303Y-8787203D01*
X12096801Y-8786400D01*
X12098303Y-8785597D01*
X12159211Y-8735611D01*
X12209197Y-8674703D01*
X12246340Y-8605214D01*
X12269212Y-8529814D01*
X12276935Y-8451400D01*
X12276935Y-7851400D01*
X12269212Y-7772986D01*
X12246340Y-7697586D01*
X12209197Y-7628097D01*
X12159211Y-7567189D01*
X12098303Y-7517203D01*
X12028814Y-7480060D01*
X11953414Y-7457188D01*
X11875000Y-7449465D01*
X11834757Y-7449465D01*
X11773822Y-7399457D01*
X11617471Y-7315886D01*
X11447821Y-7264423D01*
X11315597Y-7251400D01*
X8998193Y-7251400D01*
X8865969Y-7264423D01*
X8696319Y-7315886D01*
X8539968Y-7399457D01*
X8402925Y-7511925D01*
X8394306Y-7522428D01*
X8391250Y-7524061D01*
X8359000Y-7550528D01*
X8326750Y-7524061D01*
X8231760Y-7473288D01*
X8128689Y-7442022D01*
X8021500Y-7431465D01*
X7819417Y-7431465D01*
X7796211Y-7403189D01*
X7735303Y-7353203D01*
X7665814Y-7316060D01*
X7590414Y-7293188D01*
X7512000Y-7285465D01*
X6712000Y-7285465D01*
X6633586Y-7293188D01*
X6558186Y-7316060D01*
X6488697Y-7353203D01*
X6427789Y-7403189D01*
X6404583Y-7431465D01*
X6230300Y-7431465D01*
X6123111Y-7442022D01*
X6020040Y-7473288D01*
X5925050Y-7524061D01*
X5892800Y-7550528D01*
X5860550Y-7524061D01*
X5765560Y-7473288D01*
X5662489Y-7442022D01*
X5555300Y-7431465D01*
X5260300Y-7431465D01*
X5153111Y-7442022D01*
X5139675Y-7446098D01*
X5101814Y-7425860D01*
X5026414Y-7402988D01*
X4948000Y-7395265D01*
X4148000Y-7395265D01*
X4069586Y-7402988D01*
X3994186Y-7425860D01*
X3924697Y-7463003D01*
X3863789Y-7512989D01*
X3813803Y-7573897D01*
X3798000Y-7603462D01*
X3782197Y-7573897D01*
X3732211Y-7512989D01*
X3671303Y-7463003D01*
X3601814Y-7425860D01*
X3526414Y-7402988D01*
X3448000Y-7395265D01*
X2648000Y-7395265D01*
X2569586Y-7402988D01*
X2495764Y-7425381D01*
X2466889Y-7416622D01*
X2359700Y-7406065D01*
X2064700Y-7406065D01*
X1957511Y-7416622D01*
X1854440Y-7447888D01*
X1759450Y-7498661D01*
X1727200Y-7525128D01*
X1694950Y-7498661D01*
X1599960Y-7447888D01*
X1496889Y-7416622D01*
X1420543Y-7409103D01*
X1383932Y-7379057D01*
X1227581Y-7295486D01*
X1057931Y-7244023D01*
X925707Y-7231000D01*
X-498853Y-7231000D01*
X-518500Y-7229065D01*
X-1374243Y-7229065D01*
X-1386771Y-418400D01*
X4334465Y-418400D01*
X4334465Y-1918400D01*
X4342188Y-1996814D01*
X4365060Y-2072214D01*
X4402203Y-2141703D01*
X4452189Y-2202611D01*
X4513097Y-2252597D01*
X4582586Y-2289740D01*
X4657986Y-2312612D01*
X4736400Y-2320335D01*
X5895851Y-2320335D01*
X5923888Y-2412760D01*
X5974661Y-2507750D01*
X6001128Y-2540000D01*
X5974661Y-2572250D01*
X5923888Y-2667240D01*
X5892622Y-2770311D01*
X5882065Y-2877500D01*
X5882065Y-3172500D01*
X5892622Y-3279689D01*
X5923888Y-3382760D01*
X5974661Y-3477750D01*
X6004001Y-3513500D01*
X6004001Y-3570361D01*
X5971888Y-3630440D01*
X5940622Y-3733511D01*
X5930065Y-3840700D01*
X5930065Y-4185700D01*
X5940622Y-4292889D01*
X5971888Y-4395960D01*
X6022661Y-4490950D01*
X6027001Y-4496238D01*
X6027000Y-4596962D01*
X6022661Y-4602250D01*
X5971888Y-4697240D01*
X5940622Y-4800311D01*
X5933331Y-4874341D01*
X5758581Y-5049092D01*
X5735684Y-5067883D01*
X5660705Y-5159245D01*
X5604990Y-5263479D01*
X5585335Y-5328274D01*
X5538697Y-5353203D01*
X5477789Y-5403189D01*
X5427803Y-5464097D01*
X5390660Y-5533586D01*
X5367788Y-5608986D01*
X5360065Y-5687400D01*
X5360065Y-6587400D01*
X5367788Y-6665814D01*
X5390660Y-6741214D01*
X5427803Y-6810703D01*
X5477789Y-6871611D01*
X5538697Y-6921597D01*
X5608186Y-6958740D01*
X5683586Y-6981612D01*
X5762000Y-6989335D01*
X6562000Y-6989335D01*
X6640414Y-6981612D01*
X6715814Y-6958740D01*
X6785303Y-6921597D01*
X6846211Y-6871611D01*
X6896197Y-6810703D01*
X6933340Y-6741214D01*
X6956212Y-6665814D01*
X6963935Y-6587400D01*
X6963935Y-6007290D01*
X12296515Y-6007290D01*
X12296515Y-7005510D01*
X12304238Y-7083924D01*
X12327110Y-7159324D01*
X12364253Y-7228813D01*
X12414239Y-7289721D01*
X12475147Y-7339707D01*
X12544636Y-7376850D01*
X12620036Y-7399722D01*
X12698450Y-7407445D01*
X13377820Y-7407445D01*
X13378660Y-7410214D01*
X13415803Y-7479703D01*
X13465789Y-7540611D01*
X13526697Y-7590597D01*
X13596186Y-7627740D01*
X13671586Y-7650612D01*
X13750000Y-7658335D01*
X14655048Y-7658335D01*
X15323065Y-8326353D01*
X15323065Y-8451400D01*
X15330788Y-8529814D01*
X15353660Y-8605214D01*
X15390803Y-8674703D01*
X15440789Y-8735611D01*
X15501697Y-8785597D01*
X15503199Y-8786400D01*
X15501697Y-8787203D01*
X15440789Y-8837189D01*
X15390803Y-8898097D01*
X15353660Y-8967586D01*
X15330788Y-9042986D01*
X15323065Y-9121400D01*
X15323065Y-9721400D01*
X15330788Y-9799814D01*
X15353660Y-9875214D01*
X15390803Y-9944703D01*
X15440789Y-10005611D01*
X15501697Y-10055597D01*
X15503199Y-10056400D01*
X15501697Y-10057203D01*
X15440789Y-10107189D01*
X15390803Y-10168097D01*
X15353660Y-10237586D01*
X15330788Y-10312986D01*
X15323065Y-10391400D01*
X15323065Y-10991400D01*
X15330788Y-11069814D01*
X15353660Y-11145214D01*
X15390803Y-11214703D01*
X15440789Y-11275611D01*
X15501697Y-11325597D01*
X15503199Y-11326400D01*
X15501697Y-11327203D01*
X15440789Y-11377189D01*
X15390803Y-11438097D01*
X15353660Y-11507586D01*
X15330788Y-11582986D01*
X15323065Y-11661400D01*
X15323065Y-12261400D01*
X15330788Y-12339814D01*
X15353660Y-12415214D01*
X15390803Y-12484703D01*
X15440789Y-12545611D01*
X15501697Y-12595597D01*
X15571186Y-12632740D01*
X15646586Y-12655612D01*
X15725000Y-12663335D01*
X16994501Y-12663335D01*
X17027257Y-12690217D01*
X17096746Y-12727360D01*
X17172146Y-12750232D01*
X17250560Y-12757955D01*
X18449440Y-12757955D01*
X18527854Y-12750232D01*
X18603254Y-12727360D01*
X18672743Y-12690217D01*
X18733651Y-12640231D01*
X18783637Y-12579323D01*
X18820780Y-12509834D01*
X18843652Y-12434434D01*
X18851375Y-12356020D01*
X18851375Y-11558460D01*
X18843652Y-11480046D01*
X18820780Y-11404646D01*
X18783637Y-11335157D01*
X18733651Y-11274249D01*
X18672743Y-11224263D01*
X18603254Y-11187120D01*
X18527854Y-11164248D01*
X18449440Y-11156525D01*
X17640294Y-11156525D01*
X17646340Y-11145214D01*
X17669212Y-11069814D01*
X17676935Y-10991400D01*
X17676935Y-10391400D01*
X17669212Y-10312986D01*
X17646340Y-10237586D01*
X17609197Y-10168097D01*
X17576565Y-10128335D01*
X17712500Y-10128335D01*
X17819689Y-10117778D01*
X17922760Y-10086512D01*
X18017750Y-10035739D01*
X18050000Y-10009272D01*
X18082250Y-10035739D01*
X18177240Y-10086512D01*
X18280311Y-10117778D01*
X18300571Y-10119773D01*
X18347568Y-10158343D01*
X18503919Y-10241914D01*
X18673569Y-10293377D01*
X18805793Y-10306400D01*
X19970353Y-10306400D01*
X19990000Y-10308335D01*
X22490000Y-10308335D01*
X22568414Y-10300612D01*
X22643814Y-10277740D01*
X22713303Y-10240597D01*
X22774211Y-10190611D01*
X22824197Y-10129703D01*
X22861340Y-10060214D01*
X22884212Y-9984814D01*
X22891935Y-9906400D01*
X22891935Y-8906400D01*
X22884212Y-8827986D01*
X22861340Y-8752586D01*
X22824197Y-8683097D01*
X22774211Y-8622189D01*
X22713303Y-8572203D01*
X22643814Y-8535060D01*
X22568414Y-8512188D01*
X22490000Y-8504465D01*
X19990000Y-8504465D01*
X19970353Y-8506400D01*
X18805793Y-8506400D01*
X18673569Y-8519423D01*
X18503919Y-8570886D01*
X18347568Y-8654457D01*
X18300571Y-8693027D01*
X18280311Y-8695022D01*
X18177240Y-8726288D01*
X18082250Y-8777061D01*
X18050000Y-8803528D01*
X18017750Y-8777061D01*
X17922760Y-8726288D01*
X17819689Y-8695022D01*
X17712500Y-8684465D01*
X17601186Y-8684465D01*
X17609197Y-8674703D01*
X17646340Y-8605214D01*
X17669212Y-8529814D01*
X17676935Y-8451400D01*
X17676935Y-7851400D01*
X17669212Y-7772986D01*
X17646340Y-7697586D01*
X17609197Y-7628097D01*
X17559211Y-7567189D01*
X17498303Y-7517203D01*
X17428814Y-7480060D01*
X17353414Y-7457188D01*
X17275000Y-7449465D01*
X17221935Y-7449465D01*
X17221935Y-7393900D01*
X17211378Y-7286711D01*
X17180112Y-7183640D01*
X17129339Y-7088650D01*
X17061009Y-7005391D01*
X16977750Y-6937061D01*
X16882760Y-6886288D01*
X16779689Y-6855022D01*
X16672500Y-6844465D01*
X16327500Y-6844465D01*
X16220311Y-6855022D01*
X16117240Y-6886288D01*
X16022250Y-6937061D01*
X15938991Y-7005391D01*
X15870661Y-7088650D01*
X15839924Y-7146156D01*
X15651935Y-6958167D01*
X15651935Y-5756400D01*
X15644212Y-5677986D01*
X15621340Y-5602586D01*
X15584197Y-5533097D01*
X15534211Y-5472189D01*
X15473303Y-5422203D01*
X15403814Y-5385060D01*
X15328414Y-5362188D01*
X15250000Y-5354465D01*
X13750000Y-5354465D01*
X13671586Y-5362188D01*
X13596186Y-5385060D01*
X13526697Y-5422203D01*
X13465789Y-5472189D01*
X13415803Y-5533097D01*
X13378660Y-5602586D01*
X13377820Y-5605355D01*
X12698450Y-5605355D01*
X12620036Y-5613078D01*
X12544636Y-5635950D01*
X12475147Y-5673093D01*
X12414239Y-5723079D01*
X12364253Y-5783987D01*
X12327110Y-5853476D01*
X12304238Y-5928876D01*
X12296515Y-6007290D01*
X6963935Y-6007290D01*
X6963935Y-5766429D01*
X6984760Y-5760112D01*
X7079750Y-5709339D01*
X7163009Y-5641009D01*
X7231339Y-5557750D01*
X7282112Y-5462760D01*
X7313378Y-5359689D01*
X7323935Y-5252500D01*
X7323935Y-4907500D01*
X7313378Y-4800311D01*
X7282112Y-4697240D01*
X7231339Y-4602250D01*
X7227000Y-4596963D01*
X7227000Y-4496237D01*
X7231339Y-4490950D01*
X7282112Y-4395960D01*
X7313378Y-4292889D01*
X7323935Y-4185700D01*
X7323935Y-3840700D01*
X7313378Y-3733511D01*
X7282112Y-3630440D01*
X7231339Y-3535450D01*
X7208662Y-3507818D01*
X7233339Y-3477750D01*
X7284112Y-3382760D01*
X7315378Y-3279689D01*
X7325935Y-3172500D01*
X7325935Y-2877500D01*
X7315378Y-2770311D01*
X7284112Y-2667240D01*
X7233339Y-2572250D01*
X7206872Y-2540000D01*
X7233339Y-2507750D01*
X7284112Y-2412760D01*
X7315378Y-2309689D01*
X7325935Y-2202500D01*
X7325935Y-2170613D01*
X7399964Y-2163322D01*
X7475364Y-2140450D01*
X7544853Y-2103307D01*
X7605761Y-2053321D01*
X7655747Y-1992413D01*
X7692890Y-1922924D01*
X7715762Y-1847524D01*
X7723485Y-1769110D01*
X7723485Y-770890D01*
X7715762Y-692476D01*
X7692890Y-617076D01*
X7655747Y-547587D01*
X7605761Y-486679D01*
X7544853Y-436693D01*
X7475364Y-399550D01*
X7399964Y-376678D01*
X7321550Y-368955D01*
X6633465Y-368955D01*
X6630612Y-339986D01*
X6607740Y-264586D01*
X6570597Y-195097D01*
X6520611Y-134189D01*
X6459703Y-84203D01*
X6390214Y-47060D01*
X6314814Y-24188D01*
X6236400Y-16465D01*
X4736400Y-16465D01*
X4657986Y-24188D01*
X4582586Y-47060D01*
X4513097Y-84203D01*
X4452189Y-134189D01*
X4402203Y-195097D01*
X4365060Y-264586D01*
X4342188Y-339986D01*
X4334465Y-418400D01*
X-1386771Y-418400D01*
X-1391514Y2160052D01*
X35564369Y2339030D01*
X35699395Y-71067137D01*
M02*
