G04 #@! TF.GenerationSoftware,KiCad,Pcbnew,5.1.5+dfsg1-2~bpo9+1*
G04 #@! TF.CreationDate,2020-08-09T18:57:34-04:00*
G04 #@! TF.ProjectId,freq_prescaler,66726571-5f70-4726-9573-63616c65722e,rev?*
G04 #@! TF.SameCoordinates,PX416c0c0PY33b06c0*
G04 #@! TF.FileFunction,Copper,L1,Top*
G04 #@! TF.FilePolarity,Positive*
%FSLAX46Y46*%
G04 Gerber Fmt 4.6, Leading zero omitted, Abs format (unit mm)*
G04 Created by KiCad (PCBNEW 5.1.5+dfsg1-2~bpo9+1) date 2020-08-09 18:57:34*
%MOMM*%
%LPD*%
G04 APERTURE LIST*
%ADD10R,0.797560X1.198880*%
%ADD11R,1.198880X0.797560*%
%ADD12R,0.848360X0.899160*%
%ADD13R,0.998220X1.099820*%
%ADD14R,0.899160X0.848360*%
%ADD15R,1.099820X0.998220*%
%ADD16R,0.700000X2.300000*%
%ADD17R,0.700000X0.800000*%
%ADD18R,1.700000X1.700000*%
%ADD19R,0.600000X1.550000*%
%ADD20C,0.150000*%
%ADD21R,4.000000X2.000000*%
%ADD22R,2.500000X1.000000*%
%ADD23R,2.350000X2.350000*%
%ADD24R,1.500000X1.500000*%
%ADD25C,1.500000*%
%ADD26C,0.600000*%
%ADD27C,0.400000*%
%ADD28C,0.250000*%
%ADD29C,0.254000*%
G04 APERTURE END LIST*
D10*
X26500840Y-41400000D03*
X28299160Y-41400000D03*
X26450841Y-32200000D03*
X28249161Y-32200000D03*
X26450840Y-23100000D03*
X28249160Y-23100000D03*
X26450840Y-14000000D03*
X28249160Y-14000000D03*
X6300840Y-10050000D03*
X8099160Y-10050000D03*
D11*
X12850000Y-23899161D03*
X12850000Y-22100841D03*
D12*
X27120879Y-4650000D03*
X28279119Y-4650000D03*
X10579120Y-10050000D03*
X9420880Y-10050000D03*
D13*
X7550000Y-28798360D03*
X7550000Y-27101640D03*
X31150000Y-46901639D03*
X31150000Y-48598359D03*
D14*
X10600000Y-9179120D03*
X10600000Y-8020880D03*
D13*
X31150000Y-10401640D03*
X31150000Y-12098360D03*
X4800000Y-11798360D03*
X4800000Y-10101640D03*
X31150000Y-19601640D03*
X31150000Y-21298360D03*
D14*
X10300000Y-23329120D03*
X10300000Y-22170880D03*
D13*
X31200000Y-28701641D03*
X31200000Y-30398361D03*
D12*
X11620880Y-32950001D03*
X12779120Y-32950001D03*
D13*
X31150000Y-37796720D03*
X31150000Y-39493440D03*
D15*
X24003280Y-4650000D03*
X25700000Y-4650000D03*
D14*
X9000000Y-39029120D03*
X9000000Y-37870880D03*
D16*
X10200000Y-35550001D03*
D17*
X9000000Y-34800001D03*
X9000000Y-36300001D03*
D18*
X34949999Y-28050000D03*
X22600000Y-13900000D03*
X4000000Y-23500000D03*
D19*
X29555000Y-48650000D03*
X28285000Y-48650000D03*
X27015000Y-48650000D03*
X25745000Y-48650000D03*
X25745000Y-43250000D03*
X27015000Y-43250000D03*
X28285000Y-43250000D03*
X29555000Y-43250000D03*
X29555000Y-39500000D03*
X28285000Y-39500000D03*
X27015000Y-39500000D03*
X25745000Y-39500000D03*
X25745000Y-34100000D03*
X27015000Y-34100000D03*
X28285000Y-34100000D03*
X29555000Y-34100000D03*
X29602960Y-30421000D03*
X28332960Y-30421000D03*
X27062960Y-30421000D03*
X25792960Y-30421000D03*
X25792960Y-25021000D03*
X27062960Y-25021000D03*
X28332960Y-25021000D03*
X29602960Y-25021000D03*
X29555000Y-21300000D03*
X28285000Y-21300000D03*
X27015000Y-21300000D03*
X25745000Y-21300000D03*
X25745000Y-15900000D03*
X27015000Y-15900000D03*
X28285000Y-15900000D03*
X29555000Y-15900000D03*
X29554999Y-12100001D03*
X28284999Y-12100001D03*
X27014999Y-12100001D03*
X25744999Y-12100001D03*
X25744999Y-6700001D03*
X27014999Y-6700001D03*
X28284999Y-6700001D03*
X29554999Y-6700001D03*
G04 #@! TA.AperFunction,SMDPad,CuDef*
D20*
G36*
X8375001Y-12950000D02*
G01*
X9125001Y-13450000D01*
X9125001Y-14450000D01*
X8375001Y-14950000D01*
X8375001Y-12950000D01*
G37*
G04 #@! TD.AperFunction*
D21*
X6400001Y-13950000D03*
D22*
X10360001Y-12450000D03*
X10360001Y-13950000D03*
X10360001Y-15450000D03*
D23*
X10900000Y-28350000D03*
D19*
X12805000Y-31050000D03*
X11535000Y-31050000D03*
X10265000Y-31050000D03*
X8995000Y-31050000D03*
X8995000Y-25650000D03*
X10265000Y-25650000D03*
X11535000Y-25650000D03*
X12805000Y-25650000D03*
D18*
X28300001Y-51750000D03*
D24*
X9000000Y-43100000D03*
D25*
X9000000Y-43100000D02*
X9000000Y-40850000D01*
X9000000Y-40850000D02*
X9000000Y-39700000D01*
D26*
X9000000Y-36300000D02*
X9000000Y-37870880D01*
D27*
X9000000Y-31055000D02*
X8995000Y-31050000D01*
D26*
X9000000Y-33120880D02*
X9000000Y-31055000D01*
X9000000Y-33179120D02*
X9000000Y-34800000D01*
D27*
X25745000Y-22394160D02*
X26450840Y-23100000D01*
X25745000Y-21300000D02*
X25745000Y-22394160D01*
X25745000Y-40644159D02*
X25745000Y-39500000D01*
X26500840Y-41399999D02*
X25745000Y-40644159D01*
D25*
X6400000Y-13950000D02*
X5950000Y-13950000D01*
X5950000Y-13950000D02*
X4800000Y-12800000D01*
D27*
X25792960Y-31542119D02*
X26450841Y-32200000D01*
X25792960Y-30421000D02*
X25792960Y-31542119D01*
X6650890Y-28798360D02*
X6649250Y-28800000D01*
X7550000Y-28798360D02*
X6650890Y-28798360D01*
X6649250Y-28800000D02*
X2800000Y-28800000D01*
X2800000Y-28800000D02*
X1400000Y-27400000D01*
X1400000Y-27400000D02*
X1400000Y-5900000D01*
X1400000Y-5900000D02*
X4900000Y-2400000D01*
X25664999Y-4685001D02*
X25700000Y-4650000D01*
D28*
X25744999Y-6700001D02*
X27014999Y-6700001D01*
D27*
X25744999Y-4694999D02*
X25700000Y-4650000D01*
X25744999Y-6700001D02*
X25744999Y-4694999D01*
X25700000Y-4650000D02*
X27120879Y-4650000D01*
X29561560Y-39493440D02*
X29555001Y-39500000D01*
X31150000Y-39493440D02*
X29561560Y-39493440D01*
X31148359Y-12100001D02*
X31150000Y-12098360D01*
X29554999Y-12100001D02*
X31148359Y-12100001D01*
X31148360Y-21300000D02*
X31150000Y-21298360D01*
X29555000Y-21300000D02*
X31148360Y-21300000D01*
X29625599Y-30398361D02*
X29602960Y-30421000D01*
X31200000Y-30398361D02*
X29625599Y-30398361D01*
X31098359Y-48650000D02*
X31150000Y-48598359D01*
X29555001Y-48650000D02*
X31098359Y-48650000D01*
X33750001Y-13799251D02*
X32049110Y-12098360D01*
X33750001Y-19597469D02*
X33750001Y-13799251D01*
X32049110Y-21298360D02*
X33750001Y-19597469D01*
X32049110Y-12098360D02*
X31150000Y-12098360D01*
X32099111Y-29448450D02*
X32099111Y-21348361D01*
X32099111Y-21348361D02*
X32049110Y-21298360D01*
X31200000Y-30347561D02*
X32099111Y-29448450D01*
X32049110Y-21298360D02*
X31150000Y-21298360D01*
X31200000Y-30398361D02*
X31200000Y-30347561D01*
X31200000Y-30398361D02*
X31200000Y-31348271D01*
X32100000Y-39442550D02*
X32049110Y-39493440D01*
X32049110Y-39493440D02*
X31150000Y-39493440D01*
X31150000Y-48547559D02*
X31150000Y-48598359D01*
X32049110Y-47648449D02*
X31150000Y-48547559D01*
X32049111Y-41342461D02*
X32049110Y-47648449D01*
X31150000Y-40443350D02*
X32049111Y-41342461D01*
X31150000Y-39493440D02*
X31150000Y-40443350D01*
X33700000Y-28050000D02*
X34949999Y-28050000D01*
X32049111Y-32197382D02*
X32049111Y-34149111D01*
X31200000Y-31348271D02*
X32049111Y-32197382D01*
X32049111Y-34149111D02*
X33600000Y-35700000D01*
X33600000Y-37942550D02*
X32049110Y-39493440D01*
X33600000Y-35700000D02*
X33600000Y-37942550D01*
X11535000Y-32864120D02*
X11620880Y-32949998D01*
X11535000Y-31050000D02*
X11535000Y-32864120D01*
X10279120Y-23350000D02*
X10300000Y-23329120D01*
X10265000Y-23364120D02*
X10300000Y-23329120D01*
D26*
X10264999Y-25650000D02*
X10265000Y-23364120D01*
D27*
X10300000Y-15510000D02*
X10360000Y-15450000D01*
D25*
X10360001Y-21560001D02*
X10360001Y-16039999D01*
X10360001Y-16039999D02*
X10400000Y-16000000D01*
D27*
X10400000Y-16000000D02*
X10360001Y-16239999D01*
X10360001Y-15450000D02*
X10400000Y-16000000D01*
X4851640Y-10050000D02*
X4800000Y-10101640D01*
X6300840Y-10050000D02*
X4851640Y-10050000D01*
X7550000Y-27095000D02*
X8995000Y-25649999D01*
X7550000Y-27101640D02*
X7550000Y-27095000D01*
X7550000Y-26151730D02*
X7550000Y-27101640D01*
X3848271Y-23348270D02*
X7500000Y-27000000D01*
X3900890Y-10101640D02*
X4800000Y-10101640D01*
X4000000Y-23500000D02*
X4000000Y-21000000D01*
X4000000Y-21000000D02*
X2800000Y-19800000D01*
X2800000Y-19800000D02*
X2800000Y-11202530D01*
X2800000Y-11202530D02*
X3900890Y-10101640D01*
X10579120Y-12230880D02*
X10360000Y-12450000D01*
D26*
X10579120Y-10050000D02*
X10579120Y-12230880D01*
D27*
X10600000Y-10029120D02*
X10579120Y-10050000D01*
X28279120Y-5430881D02*
X28279119Y-4650000D01*
X28284999Y-6700001D02*
X28284999Y-6225002D01*
X28300000Y-4629119D02*
X28279119Y-4650000D01*
X28300000Y-3829120D02*
X28300000Y-4629119D01*
X28284999Y-4655880D02*
X28279119Y-4650000D01*
X28284999Y-6700001D02*
X28284999Y-4655880D01*
X10600000Y-8020880D02*
X10600000Y-7196700D01*
D25*
X10600000Y-7196700D02*
X10600000Y-900000D01*
D27*
X28300000Y-3829120D02*
X28300000Y-3300000D01*
D25*
X28300000Y-3300000D02*
X28300000Y-1200000D01*
D27*
X8099160Y-10050000D02*
X9420879Y-10050000D01*
X28285000Y-51734999D02*
X28300001Y-51750000D01*
X28285001Y-48650000D02*
X28285000Y-51734999D01*
X12805000Y-23944160D02*
X12850000Y-23899160D01*
X12805000Y-25650000D02*
X12805000Y-23944160D01*
X28285000Y-12100002D02*
X28284999Y-12100001D01*
X28285000Y-15900000D02*
X28285000Y-12100002D01*
X28332960Y-21347960D02*
X28285000Y-21300000D01*
X28332960Y-24421000D02*
X28332960Y-21347960D01*
X28385000Y-30473040D02*
X28332960Y-30421000D01*
X28249161Y-34064161D02*
X28285000Y-34100000D01*
X28249160Y-32200000D02*
X28249161Y-34064161D01*
X28249161Y-30504799D02*
X28332960Y-30421000D01*
X28249161Y-32200000D02*
X28249161Y-30504799D01*
X28285000Y-43249999D02*
X28285001Y-39500000D01*
X28285000Y-41414159D02*
X28299160Y-41400000D01*
X28285000Y-43249999D02*
X28285000Y-41414159D01*
D28*
X25745000Y-15900000D02*
X27015000Y-15900000D01*
D27*
X25745000Y-34100000D02*
X27015000Y-34100000D01*
X27015000Y-43250000D02*
X25745000Y-43250000D01*
D29*
G36*
X24017637Y-4842120D02*
G01*
X24017637Y-5149110D01*
X24039397Y-5370041D01*
X24103840Y-5582481D01*
X24208490Y-5778267D01*
X24314300Y-5907196D01*
X24312546Y-5925001D01*
X24312546Y-7475001D01*
X24334306Y-7695932D01*
X24398749Y-7908372D01*
X24503399Y-8104158D01*
X24644234Y-8275766D01*
X24815842Y-8416601D01*
X25011628Y-8521251D01*
X25224068Y-8585694D01*
X25444999Y-8607454D01*
X26044999Y-8607454D01*
X26265930Y-8585694D01*
X26379999Y-8551092D01*
X26494068Y-8585694D01*
X26714999Y-8607454D01*
X27314999Y-8607454D01*
X27535930Y-8585694D01*
X27649999Y-8551092D01*
X27764068Y-8585694D01*
X27984999Y-8607454D01*
X28584999Y-8607454D01*
X28805930Y-8585694D01*
X28919999Y-8551092D01*
X29034068Y-8585694D01*
X29254999Y-8607454D01*
X29854999Y-8607454D01*
X30075930Y-8585694D01*
X30288370Y-8521251D01*
X30484156Y-8416601D01*
X30655764Y-8275766D01*
X30796599Y-8104158D01*
X30901249Y-7908372D01*
X30965692Y-7695932D01*
X30987452Y-7475001D01*
X30987452Y-5925001D01*
X30965692Y-5704070D01*
X30901249Y-5491630D01*
X30796599Y-5295844D01*
X30655764Y-5124236D01*
X30484156Y-4983401D01*
X30298173Y-4883991D01*
X38497040Y-4938650D01*
X38123966Y-54122157D01*
X19627960Y-53998850D01*
X19922831Y-15125000D01*
X24312547Y-15125000D01*
X24312547Y-16675000D01*
X24334307Y-16895931D01*
X24398750Y-17108371D01*
X24503400Y-17304157D01*
X24644235Y-17475765D01*
X24815843Y-17616600D01*
X25011629Y-17721250D01*
X25224069Y-17785693D01*
X25445000Y-17807453D01*
X26045000Y-17807453D01*
X26265931Y-17785693D01*
X26380000Y-17751091D01*
X26494069Y-17785693D01*
X26715000Y-17807453D01*
X27315000Y-17807453D01*
X27535931Y-17785693D01*
X27650000Y-17751091D01*
X27764069Y-17785693D01*
X27985000Y-17807453D01*
X28585000Y-17807453D01*
X28805931Y-17785693D01*
X28920000Y-17751091D01*
X29034069Y-17785693D01*
X29255000Y-17807453D01*
X29855000Y-17807453D01*
X30075931Y-17785693D01*
X30288371Y-17721250D01*
X30484157Y-17616600D01*
X30655765Y-17475765D01*
X30796600Y-17304157D01*
X30901250Y-17108371D01*
X30965693Y-16895931D01*
X30987453Y-16675000D01*
X30987453Y-15125000D01*
X30965693Y-14904069D01*
X30901250Y-14691629D01*
X30796600Y-14495843D01*
X30655765Y-14324235D01*
X30484157Y-14183400D01*
X30288371Y-14078750D01*
X30075931Y-14014307D01*
X29930675Y-14000000D01*
X30075930Y-13985694D01*
X30288370Y-13921251D01*
X30484156Y-13816601D01*
X30541055Y-13769905D01*
X30650890Y-13780723D01*
X31649110Y-13780723D01*
X31836369Y-13762279D01*
X32423002Y-14348913D01*
X32423001Y-19047808D01*
X31836369Y-19634441D01*
X31649110Y-19615997D01*
X30650890Y-19615997D01*
X30537486Y-19627166D01*
X30484157Y-19583400D01*
X30288371Y-19478750D01*
X30075931Y-19414307D01*
X29855000Y-19392547D01*
X29255000Y-19392547D01*
X29034069Y-19414307D01*
X28920000Y-19448909D01*
X28805931Y-19414307D01*
X28585000Y-19392547D01*
X27985000Y-19392547D01*
X27764069Y-19414307D01*
X27650000Y-19448909D01*
X27535931Y-19414307D01*
X27315000Y-19392547D01*
X26715000Y-19392547D01*
X26494069Y-19414307D01*
X26281629Y-19478750D01*
X26085843Y-19583400D01*
X25914235Y-19724235D01*
X25773400Y-19895843D01*
X25668750Y-20091629D01*
X25604307Y-20304069D01*
X25582547Y-20525000D01*
X25582547Y-22075000D01*
X25604307Y-22295931D01*
X25668750Y-22508371D01*
X25773400Y-22704157D01*
X25914235Y-22875765D01*
X26085843Y-23016600D01*
X26281629Y-23121250D01*
X26434999Y-23167774D01*
X26427960Y-23169909D01*
X26313891Y-23135307D01*
X26092960Y-23113547D01*
X25492960Y-23113547D01*
X25272029Y-23135307D01*
X25059589Y-23199750D01*
X24863803Y-23304400D01*
X24692195Y-23445235D01*
X24551360Y-23616843D01*
X24446710Y-23812629D01*
X24382267Y-24025069D01*
X24360507Y-24246000D01*
X24360507Y-25796000D01*
X24382267Y-26016931D01*
X24446710Y-26229371D01*
X24551360Y-26425157D01*
X24692195Y-26596765D01*
X24863803Y-26737600D01*
X25059589Y-26842250D01*
X25272029Y-26906693D01*
X25492960Y-26928453D01*
X26092960Y-26928453D01*
X26313891Y-26906693D01*
X26427960Y-26872091D01*
X26542029Y-26906693D01*
X26762960Y-26928453D01*
X27362960Y-26928453D01*
X27583891Y-26906693D01*
X27697960Y-26872091D01*
X27812029Y-26906693D01*
X28032960Y-26928453D01*
X28632960Y-26928453D01*
X28853891Y-26906693D01*
X28967960Y-26872091D01*
X29082029Y-26906693D01*
X29302960Y-26928453D01*
X29902960Y-26928453D01*
X30123891Y-26906693D01*
X30336331Y-26842250D01*
X30532117Y-26737600D01*
X30703725Y-26596765D01*
X30772111Y-26513436D01*
X30772111Y-28715998D01*
X30700890Y-28715998D01*
X30562819Y-28729597D01*
X30532117Y-28704400D01*
X30336331Y-28599750D01*
X30123891Y-28535307D01*
X29902960Y-28513547D01*
X29302960Y-28513547D01*
X29082029Y-28535307D01*
X28967960Y-28569909D01*
X28853891Y-28535307D01*
X28632960Y-28513547D01*
X28032960Y-28513547D01*
X27812029Y-28535307D01*
X27697960Y-28569909D01*
X27583891Y-28535307D01*
X27362960Y-28513547D01*
X26762960Y-28513547D01*
X26542029Y-28535307D01*
X26329589Y-28599750D01*
X26133803Y-28704400D01*
X25962195Y-28845235D01*
X25821360Y-29016843D01*
X25716710Y-29212629D01*
X25652267Y-29425069D01*
X25630507Y-29646000D01*
X25630507Y-31196000D01*
X25652267Y-31416931D01*
X25716710Y-31629371D01*
X25821360Y-31825157D01*
X25962195Y-31996765D01*
X26133803Y-32137600D01*
X26292245Y-32222289D01*
X26265931Y-32214307D01*
X26045000Y-32192547D01*
X25445000Y-32192547D01*
X25224069Y-32214307D01*
X25011629Y-32278750D01*
X24815843Y-32383400D01*
X24644235Y-32524235D01*
X24503400Y-32695843D01*
X24398750Y-32891629D01*
X24334307Y-33104069D01*
X24312547Y-33325000D01*
X24312547Y-34875000D01*
X24334307Y-35095931D01*
X24398750Y-35308371D01*
X24503400Y-35504157D01*
X24644235Y-35675765D01*
X24815843Y-35816600D01*
X25011629Y-35921250D01*
X25224069Y-35985693D01*
X25445000Y-36007453D01*
X26045000Y-36007453D01*
X26265931Y-35985693D01*
X26380000Y-35951091D01*
X26494069Y-35985693D01*
X26715000Y-36007453D01*
X27315000Y-36007453D01*
X27535931Y-35985693D01*
X27650000Y-35951091D01*
X27764069Y-35985693D01*
X27985000Y-36007453D01*
X28585000Y-36007453D01*
X28805931Y-35985693D01*
X28920000Y-35951091D01*
X29034069Y-35985693D01*
X29255000Y-36007453D01*
X29855000Y-36007453D01*
X30075931Y-35985693D01*
X30288371Y-35921250D01*
X30484157Y-35816600D01*
X30655765Y-35675765D01*
X30796600Y-35504157D01*
X30901250Y-35308371D01*
X30965693Y-35095931D01*
X30981101Y-34939497D01*
X31036525Y-35007031D01*
X31106242Y-35091981D01*
X31156872Y-35133532D01*
X32273000Y-36249661D01*
X32273001Y-37392889D01*
X31836369Y-37829521D01*
X31649110Y-37811077D01*
X30650890Y-37811077D01*
X30532134Y-37822774D01*
X30484157Y-37783400D01*
X30288371Y-37678750D01*
X30075931Y-37614307D01*
X29855000Y-37592547D01*
X29255000Y-37592547D01*
X29034069Y-37614307D01*
X28920000Y-37648909D01*
X28805931Y-37614307D01*
X28585000Y-37592547D01*
X27985000Y-37592547D01*
X27764069Y-37614307D01*
X27650000Y-37648909D01*
X27535931Y-37614307D01*
X27315000Y-37592547D01*
X26715000Y-37592547D01*
X26494069Y-37614307D01*
X26281629Y-37678750D01*
X26085843Y-37783400D01*
X25914235Y-37924235D01*
X25773400Y-38095843D01*
X25668750Y-38291629D01*
X25604307Y-38504069D01*
X25582547Y-38725000D01*
X25582547Y-40275000D01*
X25604307Y-40495931D01*
X25668750Y-40708371D01*
X25773400Y-40904157D01*
X25914235Y-41075765D01*
X26085843Y-41216600D01*
X26281629Y-41321250D01*
X26458819Y-41375000D01*
X26380000Y-41398909D01*
X26265931Y-41364307D01*
X26045000Y-41342547D01*
X25445000Y-41342547D01*
X25224069Y-41364307D01*
X25011629Y-41428750D01*
X24815843Y-41533400D01*
X24644235Y-41674235D01*
X24503400Y-41845843D01*
X24398750Y-42041629D01*
X24334307Y-42254069D01*
X24312547Y-42475000D01*
X24312547Y-44025000D01*
X24334307Y-44245931D01*
X24398750Y-44458371D01*
X24503400Y-44654157D01*
X24644235Y-44825765D01*
X24815843Y-44966600D01*
X25011629Y-45071250D01*
X25224069Y-45135693D01*
X25445000Y-45157453D01*
X26045000Y-45157453D01*
X26265931Y-45135693D01*
X26380000Y-45101091D01*
X26494069Y-45135693D01*
X26715000Y-45157453D01*
X27315000Y-45157453D01*
X27535931Y-45135693D01*
X27650000Y-45101091D01*
X27764069Y-45135693D01*
X27985000Y-45157453D01*
X28585000Y-45157453D01*
X28805931Y-45135693D01*
X28920000Y-45101091D01*
X29034069Y-45135693D01*
X29255000Y-45157453D01*
X29855000Y-45157453D01*
X30075931Y-45135693D01*
X30288371Y-45071250D01*
X30484157Y-44966600D01*
X30655765Y-44825765D01*
X30722111Y-44744922D01*
X30722110Y-46915996D01*
X30650890Y-46915996D01*
X30482606Y-46932571D01*
X30288371Y-46828750D01*
X30075931Y-46764307D01*
X29855000Y-46742547D01*
X29255000Y-46742547D01*
X29034069Y-46764307D01*
X28920000Y-46798909D01*
X28805931Y-46764307D01*
X28585000Y-46742547D01*
X27985000Y-46742547D01*
X27764069Y-46764307D01*
X27650000Y-46798909D01*
X27535931Y-46764307D01*
X27315000Y-46742547D01*
X26715000Y-46742547D01*
X26494069Y-46764307D01*
X26281629Y-46828750D01*
X26085843Y-46933400D01*
X25914235Y-47074235D01*
X25773400Y-47245843D01*
X25668750Y-47441629D01*
X25604307Y-47654069D01*
X25582547Y-47875000D01*
X25582547Y-49425000D01*
X25604307Y-49645931D01*
X25668750Y-49858371D01*
X25773400Y-50054157D01*
X25914235Y-50225765D01*
X26085843Y-50366600D01*
X26281629Y-50471250D01*
X26392177Y-50504784D01*
X26339308Y-50679069D01*
X26317548Y-50900000D01*
X26317548Y-52600000D01*
X26339308Y-52820931D01*
X26403751Y-53033371D01*
X26508401Y-53229157D01*
X26649236Y-53400765D01*
X26820844Y-53541600D01*
X27016630Y-53646250D01*
X27229070Y-53710693D01*
X27450001Y-53732453D01*
X29150001Y-53732453D01*
X29370932Y-53710693D01*
X29583372Y-53646250D01*
X29779158Y-53541600D01*
X29950766Y-53400765D01*
X30091601Y-53229157D01*
X30196251Y-53033371D01*
X30260694Y-52820931D01*
X30282454Y-52600000D01*
X30282454Y-50900000D01*
X30260694Y-50679069D01*
X30205297Y-50496450D01*
X30288371Y-50471250D01*
X30484157Y-50366600D01*
X30595453Y-50275262D01*
X30650890Y-50280722D01*
X31649110Y-50280722D01*
X31870041Y-50258962D01*
X32082481Y-50194519D01*
X32278267Y-50089869D01*
X32449875Y-49949034D01*
X32590710Y-49777426D01*
X32695360Y-49581640D01*
X32759803Y-49369200D01*
X32781563Y-49148269D01*
X32781563Y-48792657D01*
X32941359Y-48632862D01*
X32991979Y-48591319D01*
X33033521Y-48540700D01*
X33033533Y-48540688D01*
X33157808Y-48389258D01*
X33281029Y-48158726D01*
X33356908Y-47908587D01*
X33382529Y-47648449D01*
X33376109Y-47583265D01*
X33376111Y-41407635D01*
X33382530Y-41342461D01*
X33376111Y-41277287D01*
X33376111Y-41277278D01*
X33356910Y-41082325D01*
X33302779Y-40903881D01*
X33281030Y-40832183D01*
X33157809Y-40601652D01*
X33033533Y-40450222D01*
X33033527Y-40450216D01*
X33007047Y-40417950D01*
X33033535Y-40385675D01*
X33084422Y-40334788D01*
X34492240Y-38926971D01*
X34542870Y-38885420D01*
X34646463Y-38759192D01*
X34708698Y-38683359D01*
X34831919Y-38452828D01*
X34907799Y-38202687D01*
X34927000Y-38007734D01*
X34927000Y-38007724D01*
X34933419Y-37942550D01*
X34927000Y-37877376D01*
X34927000Y-35765173D01*
X34933419Y-35699999D01*
X34927000Y-35634825D01*
X34927000Y-35634816D01*
X34907799Y-35439863D01*
X34831919Y-35189722D01*
X34708698Y-34959192D01*
X34708697Y-34959190D01*
X34584422Y-34807761D01*
X34584421Y-34807760D01*
X34542870Y-34757130D01*
X34492241Y-34715580D01*
X33376111Y-33599451D01*
X33376111Y-32262555D01*
X33382530Y-32197381D01*
X33376111Y-32132207D01*
X33376111Y-32132198D01*
X33356910Y-31937245D01*
X33281030Y-31687104D01*
X33157809Y-31456574D01*
X33157808Y-31456572D01*
X33063149Y-31341231D01*
X32991981Y-31254512D01*
X32941347Y-31212958D01*
X32817674Y-31089285D01*
X32831563Y-30948271D01*
X32831563Y-30592659D01*
X32991352Y-30432870D01*
X33041981Y-30391320D01*
X33089698Y-30333177D01*
X33207809Y-30189259D01*
X33331030Y-29958728D01*
X33364482Y-29848451D01*
X33387347Y-29773077D01*
X33470842Y-29841600D01*
X33666628Y-29946250D01*
X33879068Y-30010693D01*
X34099999Y-30032453D01*
X35799999Y-30032453D01*
X36020930Y-30010693D01*
X36233370Y-29946250D01*
X36429156Y-29841600D01*
X36600764Y-29700765D01*
X36741599Y-29529157D01*
X36846249Y-29333371D01*
X36910692Y-29120931D01*
X36932452Y-28900000D01*
X36932452Y-27200000D01*
X36910692Y-26979069D01*
X36846249Y-26766629D01*
X36741599Y-26570843D01*
X36600764Y-26399235D01*
X36429156Y-26258400D01*
X36233370Y-26153750D01*
X36020930Y-26089307D01*
X35799999Y-26067547D01*
X34099999Y-26067547D01*
X33879068Y-26089307D01*
X33666628Y-26153750D01*
X33470842Y-26258400D01*
X33426111Y-26295110D01*
X33426111Y-21798019D01*
X34642242Y-20581889D01*
X34692871Y-20540339D01*
X34734423Y-20489708D01*
X34858699Y-20338278D01*
X34981920Y-20107747D01*
X35002422Y-20040161D01*
X35057800Y-19857606D01*
X35077001Y-19662653D01*
X35077001Y-19662644D01*
X35083420Y-19597470D01*
X35077001Y-19532296D01*
X35077001Y-13864424D01*
X35083420Y-13799250D01*
X35077001Y-13734076D01*
X35077001Y-13734067D01*
X35057800Y-13539114D01*
X34981920Y-13288973D01*
X34939013Y-13208699D01*
X34858699Y-13058442D01*
X34734423Y-12907012D01*
X34734422Y-12907011D01*
X34692871Y-12856381D01*
X34642241Y-12814830D01*
X33033535Y-11206125D01*
X32991980Y-11155490D01*
X32789918Y-10989662D01*
X32559388Y-10866441D01*
X32543340Y-10861573D01*
X32449875Y-10747685D01*
X32278267Y-10606850D01*
X32082481Y-10502200D01*
X31870041Y-10437757D01*
X31649110Y-10415997D01*
X30650890Y-10415997D01*
X30537485Y-10427167D01*
X30484156Y-10383401D01*
X30288370Y-10278751D01*
X30075930Y-10214308D01*
X29854999Y-10192548D01*
X29254999Y-10192548D01*
X29034068Y-10214308D01*
X28919999Y-10248910D01*
X28805930Y-10214308D01*
X28584999Y-10192548D01*
X27984999Y-10192548D01*
X27764068Y-10214308D01*
X27649999Y-10248910D01*
X27535930Y-10214308D01*
X27314999Y-10192548D01*
X26714999Y-10192548D01*
X26494068Y-10214308D01*
X26281628Y-10278751D01*
X26085842Y-10383401D01*
X25914234Y-10524236D01*
X25773399Y-10695844D01*
X25668749Y-10891630D01*
X25604306Y-11104070D01*
X25582546Y-11325001D01*
X25582546Y-12875001D01*
X25604306Y-13095932D01*
X25668749Y-13308372D01*
X25773399Y-13504158D01*
X25914234Y-13675766D01*
X26085842Y-13816601D01*
X26281628Y-13921251D01*
X26494068Y-13985694D01*
X26639324Y-14000001D01*
X26494069Y-14014307D01*
X26380000Y-14048909D01*
X26265931Y-14014307D01*
X26045000Y-13992547D01*
X25445000Y-13992547D01*
X25224069Y-14014307D01*
X25011629Y-14078750D01*
X24815843Y-14183400D01*
X24644235Y-14324235D01*
X24503400Y-14495843D01*
X24398750Y-14691629D01*
X24334307Y-14904069D01*
X24312547Y-15125000D01*
X19922831Y-15125000D01*
X20001034Y-4815343D01*
X24017637Y-4842120D01*
G37*
X24017637Y-4842120D02*
X24017637Y-5149110D01*
X24039397Y-5370041D01*
X24103840Y-5582481D01*
X24208490Y-5778267D01*
X24314300Y-5907196D01*
X24312546Y-5925001D01*
X24312546Y-7475001D01*
X24334306Y-7695932D01*
X24398749Y-7908372D01*
X24503399Y-8104158D01*
X24644234Y-8275766D01*
X24815842Y-8416601D01*
X25011628Y-8521251D01*
X25224068Y-8585694D01*
X25444999Y-8607454D01*
X26044999Y-8607454D01*
X26265930Y-8585694D01*
X26379999Y-8551092D01*
X26494068Y-8585694D01*
X26714999Y-8607454D01*
X27314999Y-8607454D01*
X27535930Y-8585694D01*
X27649999Y-8551092D01*
X27764068Y-8585694D01*
X27984999Y-8607454D01*
X28584999Y-8607454D01*
X28805930Y-8585694D01*
X28919999Y-8551092D01*
X29034068Y-8585694D01*
X29254999Y-8607454D01*
X29854999Y-8607454D01*
X30075930Y-8585694D01*
X30288370Y-8521251D01*
X30484156Y-8416601D01*
X30655764Y-8275766D01*
X30796599Y-8104158D01*
X30901249Y-7908372D01*
X30965692Y-7695932D01*
X30987452Y-7475001D01*
X30987452Y-5925001D01*
X30965692Y-5704070D01*
X30901249Y-5491630D01*
X30796599Y-5295844D01*
X30655764Y-5124236D01*
X30484156Y-4983401D01*
X30298173Y-4883991D01*
X38497040Y-4938650D01*
X38123966Y-54122157D01*
X19627960Y-53998850D01*
X19922831Y-15125000D01*
X24312547Y-15125000D01*
X24312547Y-16675000D01*
X24334307Y-16895931D01*
X24398750Y-17108371D01*
X24503400Y-17304157D01*
X24644235Y-17475765D01*
X24815843Y-17616600D01*
X25011629Y-17721250D01*
X25224069Y-17785693D01*
X25445000Y-17807453D01*
X26045000Y-17807453D01*
X26265931Y-17785693D01*
X26380000Y-17751091D01*
X26494069Y-17785693D01*
X26715000Y-17807453D01*
X27315000Y-17807453D01*
X27535931Y-17785693D01*
X27650000Y-17751091D01*
X27764069Y-17785693D01*
X27985000Y-17807453D01*
X28585000Y-17807453D01*
X28805931Y-17785693D01*
X28920000Y-17751091D01*
X29034069Y-17785693D01*
X29255000Y-17807453D01*
X29855000Y-17807453D01*
X30075931Y-17785693D01*
X30288371Y-17721250D01*
X30484157Y-17616600D01*
X30655765Y-17475765D01*
X30796600Y-17304157D01*
X30901250Y-17108371D01*
X30965693Y-16895931D01*
X30987453Y-16675000D01*
X30987453Y-15125000D01*
X30965693Y-14904069D01*
X30901250Y-14691629D01*
X30796600Y-14495843D01*
X30655765Y-14324235D01*
X30484157Y-14183400D01*
X30288371Y-14078750D01*
X30075931Y-14014307D01*
X29930675Y-14000000D01*
X30075930Y-13985694D01*
X30288370Y-13921251D01*
X30484156Y-13816601D01*
X30541055Y-13769905D01*
X30650890Y-13780723D01*
X31649110Y-13780723D01*
X31836369Y-13762279D01*
X32423002Y-14348913D01*
X32423001Y-19047808D01*
X31836369Y-19634441D01*
X31649110Y-19615997D01*
X30650890Y-19615997D01*
X30537486Y-19627166D01*
X30484157Y-19583400D01*
X30288371Y-19478750D01*
X30075931Y-19414307D01*
X29855000Y-19392547D01*
X29255000Y-19392547D01*
X29034069Y-19414307D01*
X28920000Y-19448909D01*
X28805931Y-19414307D01*
X28585000Y-19392547D01*
X27985000Y-19392547D01*
X27764069Y-19414307D01*
X27650000Y-19448909D01*
X27535931Y-19414307D01*
X27315000Y-19392547D01*
X26715000Y-19392547D01*
X26494069Y-19414307D01*
X26281629Y-19478750D01*
X26085843Y-19583400D01*
X25914235Y-19724235D01*
X25773400Y-19895843D01*
X25668750Y-20091629D01*
X25604307Y-20304069D01*
X25582547Y-20525000D01*
X25582547Y-22075000D01*
X25604307Y-22295931D01*
X25668750Y-22508371D01*
X25773400Y-22704157D01*
X25914235Y-22875765D01*
X26085843Y-23016600D01*
X26281629Y-23121250D01*
X26434999Y-23167774D01*
X26427960Y-23169909D01*
X26313891Y-23135307D01*
X26092960Y-23113547D01*
X25492960Y-23113547D01*
X25272029Y-23135307D01*
X25059589Y-23199750D01*
X24863803Y-23304400D01*
X24692195Y-23445235D01*
X24551360Y-23616843D01*
X24446710Y-23812629D01*
X24382267Y-24025069D01*
X24360507Y-24246000D01*
X24360507Y-25796000D01*
X24382267Y-26016931D01*
X24446710Y-26229371D01*
X24551360Y-26425157D01*
X24692195Y-26596765D01*
X24863803Y-26737600D01*
X25059589Y-26842250D01*
X25272029Y-26906693D01*
X25492960Y-26928453D01*
X26092960Y-26928453D01*
X26313891Y-26906693D01*
X26427960Y-26872091D01*
X26542029Y-26906693D01*
X26762960Y-26928453D01*
X27362960Y-26928453D01*
X27583891Y-26906693D01*
X27697960Y-26872091D01*
X27812029Y-26906693D01*
X28032960Y-26928453D01*
X28632960Y-26928453D01*
X28853891Y-26906693D01*
X28967960Y-26872091D01*
X29082029Y-26906693D01*
X29302960Y-26928453D01*
X29902960Y-26928453D01*
X30123891Y-26906693D01*
X30336331Y-26842250D01*
X30532117Y-26737600D01*
X30703725Y-26596765D01*
X30772111Y-26513436D01*
X30772111Y-28715998D01*
X30700890Y-28715998D01*
X30562819Y-28729597D01*
X30532117Y-28704400D01*
X30336331Y-28599750D01*
X30123891Y-28535307D01*
X29902960Y-28513547D01*
X29302960Y-28513547D01*
X29082029Y-28535307D01*
X28967960Y-28569909D01*
X28853891Y-28535307D01*
X28632960Y-28513547D01*
X28032960Y-28513547D01*
X27812029Y-28535307D01*
X27697960Y-28569909D01*
X27583891Y-28535307D01*
X27362960Y-28513547D01*
X26762960Y-28513547D01*
X26542029Y-28535307D01*
X26329589Y-28599750D01*
X26133803Y-28704400D01*
X25962195Y-28845235D01*
X25821360Y-29016843D01*
X25716710Y-29212629D01*
X25652267Y-29425069D01*
X25630507Y-29646000D01*
X25630507Y-31196000D01*
X25652267Y-31416931D01*
X25716710Y-31629371D01*
X25821360Y-31825157D01*
X25962195Y-31996765D01*
X26133803Y-32137600D01*
X26292245Y-32222289D01*
X26265931Y-32214307D01*
X26045000Y-32192547D01*
X25445000Y-32192547D01*
X25224069Y-32214307D01*
X25011629Y-32278750D01*
X24815843Y-32383400D01*
X24644235Y-32524235D01*
X24503400Y-32695843D01*
X24398750Y-32891629D01*
X24334307Y-33104069D01*
X24312547Y-33325000D01*
X24312547Y-34875000D01*
X24334307Y-35095931D01*
X24398750Y-35308371D01*
X24503400Y-35504157D01*
X24644235Y-35675765D01*
X24815843Y-35816600D01*
X25011629Y-35921250D01*
X25224069Y-35985693D01*
X25445000Y-36007453D01*
X26045000Y-36007453D01*
X26265931Y-35985693D01*
X26380000Y-35951091D01*
X26494069Y-35985693D01*
X26715000Y-36007453D01*
X27315000Y-36007453D01*
X27535931Y-35985693D01*
X27650000Y-35951091D01*
X27764069Y-35985693D01*
X27985000Y-36007453D01*
X28585000Y-36007453D01*
X28805931Y-35985693D01*
X28920000Y-35951091D01*
X29034069Y-35985693D01*
X29255000Y-36007453D01*
X29855000Y-36007453D01*
X30075931Y-35985693D01*
X30288371Y-35921250D01*
X30484157Y-35816600D01*
X30655765Y-35675765D01*
X30796600Y-35504157D01*
X30901250Y-35308371D01*
X30965693Y-35095931D01*
X30981101Y-34939497D01*
X31036525Y-35007031D01*
X31106242Y-35091981D01*
X31156872Y-35133532D01*
X32273000Y-36249661D01*
X32273001Y-37392889D01*
X31836369Y-37829521D01*
X31649110Y-37811077D01*
X30650890Y-37811077D01*
X30532134Y-37822774D01*
X30484157Y-37783400D01*
X30288371Y-37678750D01*
X30075931Y-37614307D01*
X29855000Y-37592547D01*
X29255000Y-37592547D01*
X29034069Y-37614307D01*
X28920000Y-37648909D01*
X28805931Y-37614307D01*
X28585000Y-37592547D01*
X27985000Y-37592547D01*
X27764069Y-37614307D01*
X27650000Y-37648909D01*
X27535931Y-37614307D01*
X27315000Y-37592547D01*
X26715000Y-37592547D01*
X26494069Y-37614307D01*
X26281629Y-37678750D01*
X26085843Y-37783400D01*
X25914235Y-37924235D01*
X25773400Y-38095843D01*
X25668750Y-38291629D01*
X25604307Y-38504069D01*
X25582547Y-38725000D01*
X25582547Y-40275000D01*
X25604307Y-40495931D01*
X25668750Y-40708371D01*
X25773400Y-40904157D01*
X25914235Y-41075765D01*
X26085843Y-41216600D01*
X26281629Y-41321250D01*
X26458819Y-41375000D01*
X26380000Y-41398909D01*
X26265931Y-41364307D01*
X26045000Y-41342547D01*
X25445000Y-41342547D01*
X25224069Y-41364307D01*
X25011629Y-41428750D01*
X24815843Y-41533400D01*
X24644235Y-41674235D01*
X24503400Y-41845843D01*
X24398750Y-42041629D01*
X24334307Y-42254069D01*
X24312547Y-42475000D01*
X24312547Y-44025000D01*
X24334307Y-44245931D01*
X24398750Y-44458371D01*
X24503400Y-44654157D01*
X24644235Y-44825765D01*
X24815843Y-44966600D01*
X25011629Y-45071250D01*
X25224069Y-45135693D01*
X25445000Y-45157453D01*
X26045000Y-45157453D01*
X26265931Y-45135693D01*
X26380000Y-45101091D01*
X26494069Y-45135693D01*
X26715000Y-45157453D01*
X27315000Y-45157453D01*
X27535931Y-45135693D01*
X27650000Y-45101091D01*
X27764069Y-45135693D01*
X27985000Y-45157453D01*
X28585000Y-45157453D01*
X28805931Y-45135693D01*
X28920000Y-45101091D01*
X29034069Y-45135693D01*
X29255000Y-45157453D01*
X29855000Y-45157453D01*
X30075931Y-45135693D01*
X30288371Y-45071250D01*
X30484157Y-44966600D01*
X30655765Y-44825765D01*
X30722111Y-44744922D01*
X30722110Y-46915996D01*
X30650890Y-46915996D01*
X30482606Y-46932571D01*
X30288371Y-46828750D01*
X30075931Y-46764307D01*
X29855000Y-46742547D01*
X29255000Y-46742547D01*
X29034069Y-46764307D01*
X28920000Y-46798909D01*
X28805931Y-46764307D01*
X28585000Y-46742547D01*
X27985000Y-46742547D01*
X27764069Y-46764307D01*
X27650000Y-46798909D01*
X27535931Y-46764307D01*
X27315000Y-46742547D01*
X26715000Y-46742547D01*
X26494069Y-46764307D01*
X26281629Y-46828750D01*
X26085843Y-46933400D01*
X25914235Y-47074235D01*
X25773400Y-47245843D01*
X25668750Y-47441629D01*
X25604307Y-47654069D01*
X25582547Y-47875000D01*
X25582547Y-49425000D01*
X25604307Y-49645931D01*
X25668750Y-49858371D01*
X25773400Y-50054157D01*
X25914235Y-50225765D01*
X26085843Y-50366600D01*
X26281629Y-50471250D01*
X26392177Y-50504784D01*
X26339308Y-50679069D01*
X26317548Y-50900000D01*
X26317548Y-52600000D01*
X26339308Y-52820931D01*
X26403751Y-53033371D01*
X26508401Y-53229157D01*
X26649236Y-53400765D01*
X26820844Y-53541600D01*
X27016630Y-53646250D01*
X27229070Y-53710693D01*
X27450001Y-53732453D01*
X29150001Y-53732453D01*
X29370932Y-53710693D01*
X29583372Y-53646250D01*
X29779158Y-53541600D01*
X29950766Y-53400765D01*
X30091601Y-53229157D01*
X30196251Y-53033371D01*
X30260694Y-52820931D01*
X30282454Y-52600000D01*
X30282454Y-50900000D01*
X30260694Y-50679069D01*
X30205297Y-50496450D01*
X30288371Y-50471250D01*
X30484157Y-50366600D01*
X30595453Y-50275262D01*
X30650890Y-50280722D01*
X31649110Y-50280722D01*
X31870041Y-50258962D01*
X32082481Y-50194519D01*
X32278267Y-50089869D01*
X32449875Y-49949034D01*
X32590710Y-49777426D01*
X32695360Y-49581640D01*
X32759803Y-49369200D01*
X32781563Y-49148269D01*
X32781563Y-48792657D01*
X32941359Y-48632862D01*
X32991979Y-48591319D01*
X33033521Y-48540700D01*
X33033533Y-48540688D01*
X33157808Y-48389258D01*
X33281029Y-48158726D01*
X33356908Y-47908587D01*
X33382529Y-47648449D01*
X33376109Y-47583265D01*
X33376111Y-41407635D01*
X33382530Y-41342461D01*
X33376111Y-41277287D01*
X33376111Y-41277278D01*
X33356910Y-41082325D01*
X33302779Y-40903881D01*
X33281030Y-40832183D01*
X33157809Y-40601652D01*
X33033533Y-40450222D01*
X33033527Y-40450216D01*
X33007047Y-40417950D01*
X33033535Y-40385675D01*
X33084422Y-40334788D01*
X34492240Y-38926971D01*
X34542870Y-38885420D01*
X34646463Y-38759192D01*
X34708698Y-38683359D01*
X34831919Y-38452828D01*
X34907799Y-38202687D01*
X34927000Y-38007734D01*
X34927000Y-38007724D01*
X34933419Y-37942550D01*
X34927000Y-37877376D01*
X34927000Y-35765173D01*
X34933419Y-35699999D01*
X34927000Y-35634825D01*
X34927000Y-35634816D01*
X34907799Y-35439863D01*
X34831919Y-35189722D01*
X34708698Y-34959192D01*
X34708697Y-34959190D01*
X34584422Y-34807761D01*
X34584421Y-34807760D01*
X34542870Y-34757130D01*
X34492241Y-34715580D01*
X33376111Y-33599451D01*
X33376111Y-32262555D01*
X33382530Y-32197381D01*
X33376111Y-32132207D01*
X33376111Y-32132198D01*
X33356910Y-31937245D01*
X33281030Y-31687104D01*
X33157809Y-31456574D01*
X33157808Y-31456572D01*
X33063149Y-31341231D01*
X32991981Y-31254512D01*
X32941347Y-31212958D01*
X32817674Y-31089285D01*
X32831563Y-30948271D01*
X32831563Y-30592659D01*
X32991352Y-30432870D01*
X33041981Y-30391320D01*
X33089698Y-30333177D01*
X33207809Y-30189259D01*
X33331030Y-29958728D01*
X33364482Y-29848451D01*
X33387347Y-29773077D01*
X33470842Y-29841600D01*
X33666628Y-29946250D01*
X33879068Y-30010693D01*
X34099999Y-30032453D01*
X35799999Y-30032453D01*
X36020930Y-30010693D01*
X36233370Y-29946250D01*
X36429156Y-29841600D01*
X36600764Y-29700765D01*
X36741599Y-29529157D01*
X36846249Y-29333371D01*
X36910692Y-29120931D01*
X36932452Y-28900000D01*
X36932452Y-27200000D01*
X36910692Y-26979069D01*
X36846249Y-26766629D01*
X36741599Y-26570843D01*
X36600764Y-26399235D01*
X36429156Y-26258400D01*
X36233370Y-26153750D01*
X36020930Y-26089307D01*
X35799999Y-26067547D01*
X34099999Y-26067547D01*
X33879068Y-26089307D01*
X33666628Y-26153750D01*
X33470842Y-26258400D01*
X33426111Y-26295110D01*
X33426111Y-21798019D01*
X34642242Y-20581889D01*
X34692871Y-20540339D01*
X34734423Y-20489708D01*
X34858699Y-20338278D01*
X34981920Y-20107747D01*
X35002422Y-20040161D01*
X35057800Y-19857606D01*
X35077001Y-19662653D01*
X35077001Y-19662644D01*
X35083420Y-19597470D01*
X35077001Y-19532296D01*
X35077001Y-13864424D01*
X35083420Y-13799250D01*
X35077001Y-13734076D01*
X35077001Y-13734067D01*
X35057800Y-13539114D01*
X34981920Y-13288973D01*
X34939013Y-13208699D01*
X34858699Y-13058442D01*
X34734423Y-12907012D01*
X34734422Y-12907011D01*
X34692871Y-12856381D01*
X34642241Y-12814830D01*
X33033535Y-11206125D01*
X32991980Y-11155490D01*
X32789918Y-10989662D01*
X32559388Y-10866441D01*
X32543340Y-10861573D01*
X32449875Y-10747685D01*
X32278267Y-10606850D01*
X32082481Y-10502200D01*
X31870041Y-10437757D01*
X31649110Y-10415997D01*
X30650890Y-10415997D01*
X30537485Y-10427167D01*
X30484156Y-10383401D01*
X30288370Y-10278751D01*
X30075930Y-10214308D01*
X29854999Y-10192548D01*
X29254999Y-10192548D01*
X29034068Y-10214308D01*
X28919999Y-10248910D01*
X28805930Y-10214308D01*
X28584999Y-10192548D01*
X27984999Y-10192548D01*
X27764068Y-10214308D01*
X27649999Y-10248910D01*
X27535930Y-10214308D01*
X27314999Y-10192548D01*
X26714999Y-10192548D01*
X26494068Y-10214308D01*
X26281628Y-10278751D01*
X26085842Y-10383401D01*
X25914234Y-10524236D01*
X25773399Y-10695844D01*
X25668749Y-10891630D01*
X25604306Y-11104070D01*
X25582546Y-11325001D01*
X25582546Y-12875001D01*
X25604306Y-13095932D01*
X25668749Y-13308372D01*
X25773399Y-13504158D01*
X25914234Y-13675766D01*
X26085842Y-13816601D01*
X26281628Y-13921251D01*
X26494068Y-13985694D01*
X26639324Y-14000001D01*
X26494069Y-14014307D01*
X26380000Y-14048909D01*
X26265931Y-14014307D01*
X26045000Y-13992547D01*
X25445000Y-13992547D01*
X25224069Y-14014307D01*
X25011629Y-14078750D01*
X24815843Y-14183400D01*
X24644235Y-14324235D01*
X24503400Y-14495843D01*
X24398750Y-14691629D01*
X24334307Y-14904069D01*
X24312547Y-15125000D01*
X19922831Y-15125000D01*
X20001034Y-4815343D01*
X24017637Y-4842120D01*
G36*
X38470608Y-6623963D02*
G01*
X32023702Y-6672074D01*
X31855361Y-227000D01*
X38350364Y-227000D01*
X38470608Y-6623963D01*
G37*
X38470608Y-6623963D02*
X32023702Y-6672074D01*
X31855361Y-227000D01*
X38350364Y-227000D01*
X38470608Y-6623963D01*
G36*
X24373000Y-3330695D02*
G01*
X24349325Y-3350125D01*
X24208490Y-3521733D01*
X24103840Y-3717519D01*
X24039397Y-3929959D01*
X24017637Y-4150890D01*
X24017637Y-5149110D01*
X24039397Y-5370041D01*
X24100964Y-5573000D01*
X20027000Y-5573000D01*
X20027000Y-327000D01*
X24373000Y-327000D01*
X24373000Y-3330695D01*
G37*
X24373000Y-3330695D02*
X24349325Y-3350125D01*
X24208490Y-3521733D01*
X24103840Y-3717519D01*
X24039397Y-3929959D01*
X24017637Y-4150890D01*
X24017637Y-5149110D01*
X24039397Y-5370041D01*
X24100964Y-5573000D01*
X20027000Y-5573000D01*
X20027000Y-327000D01*
X24373000Y-327000D01*
X24373000Y-3330695D01*
G36*
X19673339Y-53808350D02*
G01*
X19479390Y-53873000D01*
X2300000Y-53873000D01*
X2294924Y-53873101D01*
X-72511Y-53967798D01*
X35929Y-24634886D01*
X68245Y-24962999D01*
X247050Y-25552441D01*
X537414Y-26095674D01*
X928179Y-26571821D01*
X1404326Y-26962586D01*
X1947559Y-27252950D01*
X2537001Y-27431755D01*
X3150000Y-27492130D01*
X3287043Y-27492130D01*
X3959267Y-28164354D01*
X3969135Y-28264549D01*
X4147940Y-28853991D01*
X4438304Y-29397224D01*
X4829069Y-29873371D01*
X5305216Y-30264136D01*
X5552870Y-30396510D01*
X5552870Y-31825000D01*
X5573000Y-32029384D01*
X5573000Y-33771327D01*
X5568245Y-33787002D01*
X5507870Y-34400001D01*
X5507870Y-35200001D01*
X5542342Y-35550001D01*
X5507870Y-35900001D01*
X5507870Y-36700001D01*
X5508201Y-36703367D01*
X5468665Y-36833701D01*
X5408290Y-37446700D01*
X5408290Y-38195123D01*
X5400788Y-38209158D01*
X5179097Y-38939975D01*
X5123000Y-39509537D01*
X5123000Y-42196382D01*
X5107870Y-42350000D01*
X5107870Y-43850000D01*
X5168245Y-44462999D01*
X5347050Y-45052441D01*
X5637414Y-45595674D01*
X6028179Y-46071821D01*
X6504326Y-46462586D01*
X7047559Y-46752950D01*
X7637001Y-46931755D01*
X8250000Y-46992130D01*
X8963154Y-46992130D01*
X9000000Y-46995759D01*
X9036846Y-46992130D01*
X9750000Y-46992130D01*
X10362999Y-46931755D01*
X10952441Y-46752950D01*
X11495674Y-46462586D01*
X11971821Y-46071821D01*
X12362586Y-45595674D01*
X12652950Y-45052441D01*
X12831755Y-44462999D01*
X12892130Y-43850000D01*
X12892130Y-42350000D01*
X12877000Y-42196382D01*
X12877000Y-39509538D01*
X12820903Y-38939976D01*
X12599212Y-38209158D01*
X12591710Y-38195123D01*
X12591710Y-37446700D01*
X12531335Y-36833701D01*
X12491799Y-36703367D01*
X12492130Y-36700001D01*
X12492130Y-36497679D01*
X12658059Y-36481336D01*
X13247501Y-36302531D01*
X13790734Y-36012167D01*
X14266881Y-35621402D01*
X14657646Y-35145255D01*
X14948010Y-34602022D01*
X15126815Y-34012580D01*
X15187190Y-33399581D01*
X15187190Y-32500421D01*
X15126815Y-31887422D01*
X14977130Y-31393976D01*
X14977130Y-30275000D01*
X14916755Y-29662001D01*
X14744548Y-29094311D01*
X14850674Y-29037586D01*
X15326821Y-28646821D01*
X15717586Y-28170674D01*
X16007950Y-27627441D01*
X16186755Y-27037999D01*
X16247130Y-26425000D01*
X16247130Y-25697310D01*
X16352390Y-25500382D01*
X16531195Y-24910940D01*
X16591570Y-24297941D01*
X16591570Y-23500381D01*
X16531195Y-22887382D01*
X16352390Y-22297940D01*
X16062026Y-21754707D01*
X15671261Y-21278560D01*
X15195114Y-20887795D01*
X14651881Y-20597431D01*
X14237001Y-20471579D01*
X14237001Y-17668707D01*
X14512951Y-17152441D01*
X14691756Y-16562999D01*
X14752131Y-15950000D01*
X14752131Y-14950000D01*
X14691756Y-14337001D01*
X14574361Y-13950000D01*
X14691756Y-13562999D01*
X14752131Y-12950000D01*
X14752131Y-11950000D01*
X14691756Y-11337001D01*
X14512951Y-10747559D01*
X14222587Y-10204326D01*
X14145430Y-10110310D01*
X14145430Y-10073190D01*
X14191710Y-9603300D01*
X14191710Y-8754940D01*
X14187272Y-8709880D01*
X14199212Y-8687542D01*
X14420903Y-7956725D01*
X14477000Y-7387163D01*
X14477000Y-709537D01*
X14420903Y-139975D01*
X14416967Y-127000D01*
X19872528Y-127000D01*
X19673339Y-53808350D01*
G37*
X19673339Y-53808350D02*
X19479390Y-53873000D01*
X2300000Y-53873000D01*
X2294924Y-53873101D01*
X-72511Y-53967798D01*
X35929Y-24634886D01*
X68245Y-24962999D01*
X247050Y-25552441D01*
X537414Y-26095674D01*
X928179Y-26571821D01*
X1404326Y-26962586D01*
X1947559Y-27252950D01*
X2537001Y-27431755D01*
X3150000Y-27492130D01*
X3287043Y-27492130D01*
X3959267Y-28164354D01*
X3969135Y-28264549D01*
X4147940Y-28853991D01*
X4438304Y-29397224D01*
X4829069Y-29873371D01*
X5305216Y-30264136D01*
X5552870Y-30396510D01*
X5552870Y-31825000D01*
X5573000Y-32029384D01*
X5573000Y-33771327D01*
X5568245Y-33787002D01*
X5507870Y-34400001D01*
X5507870Y-35200001D01*
X5542342Y-35550001D01*
X5507870Y-35900001D01*
X5507870Y-36700001D01*
X5508201Y-36703367D01*
X5468665Y-36833701D01*
X5408290Y-37446700D01*
X5408290Y-38195123D01*
X5400788Y-38209158D01*
X5179097Y-38939975D01*
X5123000Y-39509537D01*
X5123000Y-42196382D01*
X5107870Y-42350000D01*
X5107870Y-43850000D01*
X5168245Y-44462999D01*
X5347050Y-45052441D01*
X5637414Y-45595674D01*
X6028179Y-46071821D01*
X6504326Y-46462586D01*
X7047559Y-46752950D01*
X7637001Y-46931755D01*
X8250000Y-46992130D01*
X8963154Y-46992130D01*
X9000000Y-46995759D01*
X9036846Y-46992130D01*
X9750000Y-46992130D01*
X10362999Y-46931755D01*
X10952441Y-46752950D01*
X11495674Y-46462586D01*
X11971821Y-46071821D01*
X12362586Y-45595674D01*
X12652950Y-45052441D01*
X12831755Y-44462999D01*
X12892130Y-43850000D01*
X12892130Y-42350000D01*
X12877000Y-42196382D01*
X12877000Y-39509538D01*
X12820903Y-38939976D01*
X12599212Y-38209158D01*
X12591710Y-38195123D01*
X12591710Y-37446700D01*
X12531335Y-36833701D01*
X12491799Y-36703367D01*
X12492130Y-36700001D01*
X12492130Y-36497679D01*
X12658059Y-36481336D01*
X13247501Y-36302531D01*
X13790734Y-36012167D01*
X14266881Y-35621402D01*
X14657646Y-35145255D01*
X14948010Y-34602022D01*
X15126815Y-34012580D01*
X15187190Y-33399581D01*
X15187190Y-32500421D01*
X15126815Y-31887422D01*
X14977130Y-31393976D01*
X14977130Y-30275000D01*
X14916755Y-29662001D01*
X14744548Y-29094311D01*
X14850674Y-29037586D01*
X15326821Y-28646821D01*
X15717586Y-28170674D01*
X16007950Y-27627441D01*
X16186755Y-27037999D01*
X16247130Y-26425000D01*
X16247130Y-25697310D01*
X16352390Y-25500382D01*
X16531195Y-24910940D01*
X16591570Y-24297941D01*
X16591570Y-23500381D01*
X16531195Y-22887382D01*
X16352390Y-22297940D01*
X16062026Y-21754707D01*
X15671261Y-21278560D01*
X15195114Y-20887795D01*
X14651881Y-20597431D01*
X14237001Y-20471579D01*
X14237001Y-17668707D01*
X14512951Y-17152441D01*
X14691756Y-16562999D01*
X14752131Y-15950000D01*
X14752131Y-14950000D01*
X14691756Y-14337001D01*
X14574361Y-13950000D01*
X14691756Y-13562999D01*
X14752131Y-12950000D01*
X14752131Y-11950000D01*
X14691756Y-11337001D01*
X14512951Y-10747559D01*
X14222587Y-10204326D01*
X14145430Y-10110310D01*
X14145430Y-10073190D01*
X14191710Y-9603300D01*
X14191710Y-8754940D01*
X14187272Y-8709880D01*
X14199212Y-8687542D01*
X14420903Y-7956725D01*
X14477000Y-7387163D01*
X14477000Y-709537D01*
X14420903Y-139975D01*
X14416967Y-127000D01*
X19872528Y-127000D01*
X19673339Y-53808350D01*
G36*
X6207051Y-17152441D02*
G01*
X6483002Y-17668709D01*
X6483002Y-18781166D01*
X6363927Y-18636073D01*
X6236971Y-18531883D01*
X6127000Y-18421912D01*
X6127000Y-16888548D01*
X6207051Y-17152441D01*
G37*
X6207051Y-17152441D02*
X6483002Y-17668709D01*
X6483002Y-18781166D01*
X6363927Y-18636073D01*
X6236971Y-18531883D01*
X6127000Y-18421912D01*
X6127000Y-16888548D01*
X6207051Y-17152441D01*
G36*
X6145641Y-13950000D02*
G01*
X6127000Y-14011452D01*
X6127000Y-13888548D01*
X6145641Y-13950000D01*
G37*
X6145641Y-13950000D02*
X6127000Y-14011452D01*
X6127000Y-13888548D01*
X6145641Y-13950000D01*
G36*
X6779098Y-139975D02*
G01*
X6723001Y-709537D01*
X6723000Y-6310733D01*
X6699620Y-6308430D01*
X5902060Y-6308430D01*
X5289061Y-6368805D01*
X5154578Y-6409600D01*
X4300890Y-6409600D01*
X3687891Y-6469975D01*
X3098449Y-6648780D01*
X2555216Y-6939144D01*
X2173175Y-7252678D01*
X2043565Y-7321956D01*
X1536963Y-7737713D01*
X1432769Y-7864673D01*
X563025Y-8734417D01*
X436074Y-8838603D01*
X92779Y-9256910D01*
X126531Y-127000D01*
X6783034Y-127000D01*
X6779098Y-139975D01*
G37*
X6779098Y-139975D02*
X6723001Y-709537D01*
X6723000Y-6310733D01*
X6699620Y-6308430D01*
X5902060Y-6308430D01*
X5289061Y-6368805D01*
X5154578Y-6409600D01*
X4300890Y-6409600D01*
X3687891Y-6469975D01*
X3098449Y-6648780D01*
X2555216Y-6939144D01*
X2173175Y-7252678D01*
X2043565Y-7321956D01*
X1536963Y-7737713D01*
X1432769Y-7864673D01*
X563025Y-8734417D01*
X436074Y-8838603D01*
X92779Y-9256910D01*
X126531Y-127000D01*
X6783034Y-127000D01*
X6779098Y-139975D01*
G36*
X15873000Y-36670936D02*
G01*
X9927000Y-36575032D01*
X9927000Y-34527000D01*
X15873000Y-34527000D01*
X15873000Y-36670936D01*
G37*
X15873000Y-36670936D02*
X9927000Y-36575032D01*
X9927000Y-34527000D01*
X15873000Y-34527000D01*
X15873000Y-36670936D01*
G36*
X12210798Y-26865304D02*
G01*
X12302350Y-26914239D01*
X12401690Y-26944374D01*
X12505000Y-26954549D01*
X13105000Y-26954549D01*
X13208310Y-26944374D01*
X13214062Y-26942629D01*
X13565152Y-33262252D01*
X12574609Y-33186056D01*
X12574609Y-32500421D01*
X12564434Y-32397111D01*
X12534299Y-32297771D01*
X12527000Y-32284115D01*
X12527000Y-29900000D01*
X12524560Y-29875224D01*
X12517333Y-29851399D01*
X12505597Y-29829443D01*
X12489803Y-29810197D01*
X12470557Y-29794403D01*
X12448601Y-29782667D01*
X12424776Y-29775440D01*
X12400000Y-29773000D01*
X11995583Y-29773000D01*
X11938310Y-29755626D01*
X11835000Y-29745451D01*
X11235000Y-29745451D01*
X11131690Y-29755626D01*
X11074417Y-29773000D01*
X10725583Y-29773000D01*
X10668310Y-29755626D01*
X10565000Y-29745451D01*
X9965000Y-29745451D01*
X9861690Y-29755626D01*
X9804417Y-29773000D01*
X9455583Y-29773000D01*
X9398310Y-29755626D01*
X9295000Y-29745451D01*
X8695000Y-29745451D01*
X8591690Y-29755626D01*
X8534417Y-29773000D01*
X7127000Y-29773000D01*
X7127000Y-28181099D01*
X8049110Y-28181099D01*
X8152420Y-28170924D01*
X8251760Y-28140789D01*
X8343312Y-28091854D01*
X8423558Y-28025998D01*
X8489414Y-27945752D01*
X8538349Y-27854200D01*
X8568484Y-27754860D01*
X8578659Y-27651550D01*
X8578659Y-27094473D01*
X8718583Y-26954549D01*
X9295000Y-26954549D01*
X9398310Y-26944374D01*
X9497650Y-26914239D01*
X9589202Y-26865304D01*
X9630000Y-26831822D01*
X9670798Y-26865304D01*
X9762350Y-26914239D01*
X9861690Y-26944374D01*
X9965000Y-26954549D01*
X10565000Y-26954549D01*
X10668310Y-26944374D01*
X10767650Y-26914239D01*
X10859202Y-26865304D01*
X10900000Y-26831822D01*
X10940798Y-26865304D01*
X11032350Y-26914239D01*
X11131690Y-26944374D01*
X11235000Y-26954549D01*
X11835000Y-26954549D01*
X11938310Y-26944374D01*
X12037650Y-26914239D01*
X12129202Y-26865304D01*
X12170000Y-26831822D01*
X12210798Y-26865304D01*
G37*
X12210798Y-26865304D02*
X12302350Y-26914239D01*
X12401690Y-26944374D01*
X12505000Y-26954549D01*
X13105000Y-26954549D01*
X13208310Y-26944374D01*
X13214062Y-26942629D01*
X13565152Y-33262252D01*
X12574609Y-33186056D01*
X12574609Y-32500421D01*
X12564434Y-32397111D01*
X12534299Y-32297771D01*
X12527000Y-32284115D01*
X12527000Y-29900000D01*
X12524560Y-29875224D01*
X12517333Y-29851399D01*
X12505597Y-29829443D01*
X12489803Y-29810197D01*
X12470557Y-29794403D01*
X12448601Y-29782667D01*
X12424776Y-29775440D01*
X12400000Y-29773000D01*
X11995583Y-29773000D01*
X11938310Y-29755626D01*
X11835000Y-29745451D01*
X11235000Y-29745451D01*
X11131690Y-29755626D01*
X11074417Y-29773000D01*
X10725583Y-29773000D01*
X10668310Y-29755626D01*
X10565000Y-29745451D01*
X9965000Y-29745451D01*
X9861690Y-29755626D01*
X9804417Y-29773000D01*
X9455583Y-29773000D01*
X9398310Y-29755626D01*
X9295000Y-29745451D01*
X8695000Y-29745451D01*
X8591690Y-29755626D01*
X8534417Y-29773000D01*
X7127000Y-29773000D01*
X7127000Y-28181099D01*
X8049110Y-28181099D01*
X8152420Y-28170924D01*
X8251760Y-28140789D01*
X8343312Y-28091854D01*
X8423558Y-28025998D01*
X8489414Y-27945752D01*
X8538349Y-27854200D01*
X8568484Y-27754860D01*
X8578659Y-27651550D01*
X8578659Y-27094473D01*
X8718583Y-26954549D01*
X9295000Y-26954549D01*
X9398310Y-26944374D01*
X9497650Y-26914239D01*
X9589202Y-26865304D01*
X9630000Y-26831822D01*
X9670798Y-26865304D01*
X9762350Y-26914239D01*
X9861690Y-26944374D01*
X9965000Y-26954549D01*
X10565000Y-26954549D01*
X10668310Y-26944374D01*
X10767650Y-26914239D01*
X10859202Y-26865304D01*
X10900000Y-26831822D01*
X10940798Y-26865304D01*
X11032350Y-26914239D01*
X11131690Y-26944374D01*
X11235000Y-26954549D01*
X11835000Y-26954549D01*
X11938310Y-26944374D01*
X12037650Y-26914239D01*
X12129202Y-26865304D01*
X12170000Y-26831822D01*
X12210798Y-26865304D01*
G36*
X7974390Y-11714783D02*
G01*
X8071441Y-19673000D01*
X4228485Y-19673000D01*
X4325374Y-11340525D01*
X7974390Y-11714783D01*
G37*
X7974390Y-11714783D02*
X8071441Y-19673000D01*
X4228485Y-19673000D01*
X4325374Y-11340525D01*
X7974390Y-11714783D01*
G36*
X15773000Y-16769080D02*
G01*
X11868014Y-14292747D01*
X11845783Y-14281539D01*
X11821793Y-14274884D01*
X11795119Y-14273094D01*
X9327000Y-14368022D01*
X9327000Y-13627000D01*
X11900000Y-13627000D01*
X11924776Y-13624560D01*
X11948601Y-13617333D01*
X11970557Y-13605597D01*
X11983630Y-13595577D01*
X15773000Y-10279878D01*
X15773000Y-16769080D01*
G37*
X15773000Y-16769080D02*
X11868014Y-14292747D01*
X11845783Y-14281539D01*
X11821793Y-14274884D01*
X11795119Y-14273094D01*
X9327000Y-14368022D01*
X9327000Y-13627000D01*
X11900000Y-13627000D01*
X11924776Y-13624560D01*
X11948601Y-13617333D01*
X11970557Y-13605597D01*
X11983630Y-13595577D01*
X15773000Y-10279878D01*
X15773000Y-16769080D01*
M02*
