G04 #@! TF.GenerationSoftware,KiCad,Pcbnew,5.1.5+dfsg1-2~bpo9+1*
G04 #@! TF.CreationDate,2020-08-15T12:31:50-04:00*
G04 #@! TF.ProjectId,freq_prescaler,66726571-5f70-4726-9573-63616c65722e,rev?*
G04 #@! TF.SameCoordinates,PX4b3b470PY16905e0*
G04 #@! TF.FileFunction,Copper,L1,Top*
G04 #@! TF.FilePolarity,Positive*
%FSLAX46Y46*%
G04 Gerber Fmt 4.6, Leading zero omitted, Abs format (unit mm)*
G04 Created by KiCad (PCBNEW 5.1.5+dfsg1-2~bpo9+1) date 2020-08-15 12:31:50*
%MOMM*%
%LPD*%
G04 APERTURE LIST*
%ADD10R,0.797560X1.198880*%
%ADD11R,1.198880X0.797560*%
%ADD12R,1.099820X0.998220*%
%ADD13R,0.998220X1.099820*%
%ADD14R,2.500000X2.500000*%
%ADD15C,0.150000*%
%ADD16R,0.800000X0.900000*%
%ADD17R,1.500000X1.500000*%
%ADD18R,1.000000X1.000000*%
%ADD19R,4.000000X2.000000*%
%ADD20R,2.500000X1.000000*%
%ADD21R,0.600000X1.550000*%
%ADD22R,1.550000X0.600000*%
%ADD23R,2.350000X2.350000*%
%ADD24C,0.400000*%
%ADD25C,1.000000*%
G04 APERTURE END LIST*
D10*
X17214840Y-60446400D03*
X19013160Y-60446400D03*
X17164841Y-51246400D03*
X18963161Y-51246400D03*
X17164840Y-42146400D03*
X18963160Y-42146400D03*
X17164840Y-33046400D03*
X18963160Y-33046400D03*
X22563160Y-19046400D03*
X20764840Y-19046400D03*
D11*
X15564000Y-14497240D03*
X15564000Y-16295560D03*
D12*
X6182360Y-3810000D03*
X4485640Y-3810000D03*
X9265640Y-9046400D03*
X10962360Y-9046400D03*
D13*
X21864000Y-65948039D03*
X21864000Y-67644759D03*
X21814000Y-29548040D03*
X21814000Y-31244760D03*
X23431500Y-21041360D03*
X23431500Y-19344640D03*
X21764000Y-38699680D03*
X21764000Y-40396400D03*
X21814000Y-47798040D03*
X21814000Y-49494760D03*
X21864000Y-56843120D03*
X21864000Y-58539840D03*
D12*
X13965640Y-25746400D03*
X15662360Y-25746400D03*
D14*
X24614000Y-18846400D03*
X19014000Y-70746400D03*
X3048000Y-3302000D03*
X13964000Y-31146400D03*
X12319000Y-8064500D03*
G04 #@! TA.AperFunction,SMDPad,CuDef*
D15*
G36*
X4504958Y-4300710D02*
G01*
X4519276Y-4302834D01*
X4533317Y-4306351D01*
X4546946Y-4311228D01*
X4560031Y-4317417D01*
X4572447Y-4324858D01*
X4584073Y-4333481D01*
X4594798Y-4343202D01*
X4604519Y-4353927D01*
X4613142Y-4365553D01*
X4620583Y-4377969D01*
X4626772Y-4391054D01*
X4631649Y-4404683D01*
X4635166Y-4418724D01*
X4637290Y-4433042D01*
X4638000Y-4447500D01*
X4638000Y-4742500D01*
X4637290Y-4756958D01*
X4635166Y-4771276D01*
X4631649Y-4785317D01*
X4626772Y-4798946D01*
X4620583Y-4812031D01*
X4613142Y-4824447D01*
X4604519Y-4836073D01*
X4594798Y-4846798D01*
X4584073Y-4856519D01*
X4572447Y-4865142D01*
X4560031Y-4872583D01*
X4546946Y-4878772D01*
X4533317Y-4883649D01*
X4519276Y-4887166D01*
X4504958Y-4889290D01*
X4490500Y-4890000D01*
X4145500Y-4890000D01*
X4131042Y-4889290D01*
X4116724Y-4887166D01*
X4102683Y-4883649D01*
X4089054Y-4878772D01*
X4075969Y-4872583D01*
X4063553Y-4865142D01*
X4051927Y-4856519D01*
X4041202Y-4846798D01*
X4031481Y-4836073D01*
X4022858Y-4824447D01*
X4015417Y-4812031D01*
X4009228Y-4798946D01*
X4004351Y-4785317D01*
X4000834Y-4771276D01*
X3998710Y-4756958D01*
X3998000Y-4742500D01*
X3998000Y-4447500D01*
X3998710Y-4433042D01*
X4000834Y-4418724D01*
X4004351Y-4404683D01*
X4009228Y-4391054D01*
X4015417Y-4377969D01*
X4022858Y-4365553D01*
X4031481Y-4353927D01*
X4041202Y-4343202D01*
X4051927Y-4333481D01*
X4063553Y-4324858D01*
X4075969Y-4317417D01*
X4089054Y-4311228D01*
X4102683Y-4306351D01*
X4116724Y-4302834D01*
X4131042Y-4300710D01*
X4145500Y-4300000D01*
X4490500Y-4300000D01*
X4504958Y-4300710D01*
G37*
G04 #@! TD.AperFunction*
G04 #@! TA.AperFunction,SMDPad,CuDef*
G36*
X4504958Y-5270710D02*
G01*
X4519276Y-5272834D01*
X4533317Y-5276351D01*
X4546946Y-5281228D01*
X4560031Y-5287417D01*
X4572447Y-5294858D01*
X4584073Y-5303481D01*
X4594798Y-5313202D01*
X4604519Y-5323927D01*
X4613142Y-5335553D01*
X4620583Y-5347969D01*
X4626772Y-5361054D01*
X4631649Y-5374683D01*
X4635166Y-5388724D01*
X4637290Y-5403042D01*
X4638000Y-5417500D01*
X4638000Y-5712500D01*
X4637290Y-5726958D01*
X4635166Y-5741276D01*
X4631649Y-5755317D01*
X4626772Y-5768946D01*
X4620583Y-5782031D01*
X4613142Y-5794447D01*
X4604519Y-5806073D01*
X4594798Y-5816798D01*
X4584073Y-5826519D01*
X4572447Y-5835142D01*
X4560031Y-5842583D01*
X4546946Y-5848772D01*
X4533317Y-5853649D01*
X4519276Y-5857166D01*
X4504958Y-5859290D01*
X4490500Y-5860000D01*
X4145500Y-5860000D01*
X4131042Y-5859290D01*
X4116724Y-5857166D01*
X4102683Y-5853649D01*
X4089054Y-5848772D01*
X4075969Y-5842583D01*
X4063553Y-5835142D01*
X4051927Y-5826519D01*
X4041202Y-5816798D01*
X4031481Y-5806073D01*
X4022858Y-5794447D01*
X4015417Y-5782031D01*
X4009228Y-5768946D01*
X4004351Y-5755317D01*
X4000834Y-5741276D01*
X3998710Y-5726958D01*
X3998000Y-5712500D01*
X3998000Y-5417500D01*
X3998710Y-5403042D01*
X4000834Y-5388724D01*
X4004351Y-5374683D01*
X4009228Y-5361054D01*
X4015417Y-5347969D01*
X4022858Y-5335553D01*
X4031481Y-5323927D01*
X4041202Y-5313202D01*
X4051927Y-5303481D01*
X4063553Y-5294858D01*
X4075969Y-5287417D01*
X4089054Y-5281228D01*
X4102683Y-5276351D01*
X4116724Y-5272834D01*
X4131042Y-5270710D01*
X4145500Y-5270000D01*
X4490500Y-5270000D01*
X4504958Y-5270710D01*
G37*
G04 #@! TD.AperFunction*
G04 #@! TA.AperFunction,SMDPad,CuDef*
G36*
X5472958Y-6233910D02*
G01*
X5487276Y-6236034D01*
X5501317Y-6239551D01*
X5514946Y-6244428D01*
X5528031Y-6250617D01*
X5540447Y-6258058D01*
X5552073Y-6266681D01*
X5562798Y-6276402D01*
X5572519Y-6287127D01*
X5581142Y-6298753D01*
X5588583Y-6311169D01*
X5594772Y-6324254D01*
X5599649Y-6337883D01*
X5603166Y-6351924D01*
X5605290Y-6366242D01*
X5606000Y-6380700D01*
X5606000Y-6725700D01*
X5605290Y-6740158D01*
X5603166Y-6754476D01*
X5599649Y-6768517D01*
X5594772Y-6782146D01*
X5588583Y-6795231D01*
X5581142Y-6807647D01*
X5572519Y-6819273D01*
X5562798Y-6829998D01*
X5552073Y-6839719D01*
X5540447Y-6848342D01*
X5528031Y-6855783D01*
X5514946Y-6861972D01*
X5501317Y-6866849D01*
X5487276Y-6870366D01*
X5472958Y-6872490D01*
X5458500Y-6873200D01*
X5163500Y-6873200D01*
X5149042Y-6872490D01*
X5134724Y-6870366D01*
X5120683Y-6866849D01*
X5107054Y-6861972D01*
X5093969Y-6855783D01*
X5081553Y-6848342D01*
X5069927Y-6839719D01*
X5059202Y-6829998D01*
X5049481Y-6819273D01*
X5040858Y-6807647D01*
X5033417Y-6795231D01*
X5027228Y-6782146D01*
X5022351Y-6768517D01*
X5018834Y-6754476D01*
X5016710Y-6740158D01*
X5016000Y-6725700D01*
X5016000Y-6380700D01*
X5016710Y-6366242D01*
X5018834Y-6351924D01*
X5022351Y-6337883D01*
X5027228Y-6324254D01*
X5033417Y-6311169D01*
X5040858Y-6298753D01*
X5049481Y-6287127D01*
X5059202Y-6276402D01*
X5069927Y-6266681D01*
X5081553Y-6258058D01*
X5093969Y-6250617D01*
X5107054Y-6244428D01*
X5120683Y-6239551D01*
X5134724Y-6236034D01*
X5149042Y-6233910D01*
X5163500Y-6233200D01*
X5458500Y-6233200D01*
X5472958Y-6233910D01*
G37*
G04 #@! TD.AperFunction*
G04 #@! TA.AperFunction,SMDPad,CuDef*
G36*
X4502958Y-6233910D02*
G01*
X4517276Y-6236034D01*
X4531317Y-6239551D01*
X4544946Y-6244428D01*
X4558031Y-6250617D01*
X4570447Y-6258058D01*
X4582073Y-6266681D01*
X4592798Y-6276402D01*
X4602519Y-6287127D01*
X4611142Y-6298753D01*
X4618583Y-6311169D01*
X4624772Y-6324254D01*
X4629649Y-6337883D01*
X4633166Y-6351924D01*
X4635290Y-6366242D01*
X4636000Y-6380700D01*
X4636000Y-6725700D01*
X4635290Y-6740158D01*
X4633166Y-6754476D01*
X4629649Y-6768517D01*
X4624772Y-6782146D01*
X4618583Y-6795231D01*
X4611142Y-6807647D01*
X4602519Y-6819273D01*
X4592798Y-6829998D01*
X4582073Y-6839719D01*
X4570447Y-6848342D01*
X4558031Y-6855783D01*
X4544946Y-6861972D01*
X4531317Y-6866849D01*
X4517276Y-6870366D01*
X4502958Y-6872490D01*
X4488500Y-6873200D01*
X4193500Y-6873200D01*
X4179042Y-6872490D01*
X4164724Y-6870366D01*
X4150683Y-6866849D01*
X4137054Y-6861972D01*
X4123969Y-6855783D01*
X4111553Y-6848342D01*
X4099927Y-6839719D01*
X4089202Y-6829998D01*
X4079481Y-6819273D01*
X4070858Y-6807647D01*
X4063417Y-6795231D01*
X4057228Y-6782146D01*
X4052351Y-6768517D01*
X4048834Y-6754476D01*
X4046710Y-6740158D01*
X4046000Y-6725700D01*
X4046000Y-6380700D01*
X4046710Y-6366242D01*
X4048834Y-6351924D01*
X4052351Y-6337883D01*
X4057228Y-6324254D01*
X4063417Y-6311169D01*
X4070858Y-6298753D01*
X4079481Y-6287127D01*
X4089202Y-6276402D01*
X4099927Y-6266681D01*
X4111553Y-6258058D01*
X4123969Y-6250617D01*
X4137054Y-6244428D01*
X4150683Y-6239551D01*
X4164724Y-6236034D01*
X4179042Y-6233910D01*
X4193500Y-6233200D01*
X4488500Y-6233200D01*
X4502958Y-6233910D01*
G37*
G04 #@! TD.AperFunction*
G04 #@! TA.AperFunction,SMDPad,CuDef*
G36*
X5472958Y-7300710D02*
G01*
X5487276Y-7302834D01*
X5501317Y-7306351D01*
X5514946Y-7311228D01*
X5528031Y-7317417D01*
X5540447Y-7324858D01*
X5552073Y-7333481D01*
X5562798Y-7343202D01*
X5572519Y-7353927D01*
X5581142Y-7365553D01*
X5588583Y-7377969D01*
X5594772Y-7391054D01*
X5599649Y-7404683D01*
X5603166Y-7418724D01*
X5605290Y-7433042D01*
X5606000Y-7447500D01*
X5606000Y-7792500D01*
X5605290Y-7806958D01*
X5603166Y-7821276D01*
X5599649Y-7835317D01*
X5594772Y-7848946D01*
X5588583Y-7862031D01*
X5581142Y-7874447D01*
X5572519Y-7886073D01*
X5562798Y-7896798D01*
X5552073Y-7906519D01*
X5540447Y-7915142D01*
X5528031Y-7922583D01*
X5514946Y-7928772D01*
X5501317Y-7933649D01*
X5487276Y-7937166D01*
X5472958Y-7939290D01*
X5458500Y-7940000D01*
X5163500Y-7940000D01*
X5149042Y-7939290D01*
X5134724Y-7937166D01*
X5120683Y-7933649D01*
X5107054Y-7928772D01*
X5093969Y-7922583D01*
X5081553Y-7915142D01*
X5069927Y-7906519D01*
X5059202Y-7896798D01*
X5049481Y-7886073D01*
X5040858Y-7874447D01*
X5033417Y-7862031D01*
X5027228Y-7848946D01*
X5022351Y-7835317D01*
X5018834Y-7821276D01*
X5016710Y-7806958D01*
X5016000Y-7792500D01*
X5016000Y-7447500D01*
X5016710Y-7433042D01*
X5018834Y-7418724D01*
X5022351Y-7404683D01*
X5027228Y-7391054D01*
X5033417Y-7377969D01*
X5040858Y-7365553D01*
X5049481Y-7353927D01*
X5059202Y-7343202D01*
X5069927Y-7333481D01*
X5081553Y-7324858D01*
X5093969Y-7317417D01*
X5107054Y-7311228D01*
X5120683Y-7306351D01*
X5134724Y-7302834D01*
X5149042Y-7300710D01*
X5163500Y-7300000D01*
X5458500Y-7300000D01*
X5472958Y-7300710D01*
G37*
G04 #@! TD.AperFunction*
G04 #@! TA.AperFunction,SMDPad,CuDef*
G36*
X4502958Y-7300710D02*
G01*
X4517276Y-7302834D01*
X4531317Y-7306351D01*
X4544946Y-7311228D01*
X4558031Y-7317417D01*
X4570447Y-7324858D01*
X4582073Y-7333481D01*
X4592798Y-7343202D01*
X4602519Y-7353927D01*
X4611142Y-7365553D01*
X4618583Y-7377969D01*
X4624772Y-7391054D01*
X4629649Y-7404683D01*
X4633166Y-7418724D01*
X4635290Y-7433042D01*
X4636000Y-7447500D01*
X4636000Y-7792500D01*
X4635290Y-7806958D01*
X4633166Y-7821276D01*
X4629649Y-7835317D01*
X4624772Y-7848946D01*
X4618583Y-7862031D01*
X4611142Y-7874447D01*
X4602519Y-7886073D01*
X4592798Y-7896798D01*
X4582073Y-7906519D01*
X4570447Y-7915142D01*
X4558031Y-7922583D01*
X4544946Y-7928772D01*
X4531317Y-7933649D01*
X4517276Y-7937166D01*
X4502958Y-7939290D01*
X4488500Y-7940000D01*
X4193500Y-7940000D01*
X4179042Y-7939290D01*
X4164724Y-7937166D01*
X4150683Y-7933649D01*
X4137054Y-7928772D01*
X4123969Y-7922583D01*
X4111553Y-7915142D01*
X4099927Y-7906519D01*
X4089202Y-7896798D01*
X4079481Y-7886073D01*
X4070858Y-7874447D01*
X4063417Y-7862031D01*
X4057228Y-7848946D01*
X4052351Y-7835317D01*
X4048834Y-7821276D01*
X4046710Y-7806958D01*
X4046000Y-7792500D01*
X4046000Y-7447500D01*
X4046710Y-7433042D01*
X4048834Y-7418724D01*
X4052351Y-7404683D01*
X4057228Y-7391054D01*
X4063417Y-7377969D01*
X4070858Y-7365553D01*
X4079481Y-7353927D01*
X4089202Y-7343202D01*
X4099927Y-7333481D01*
X4111553Y-7324858D01*
X4123969Y-7317417D01*
X4137054Y-7311228D01*
X4150683Y-7306351D01*
X4164724Y-7302834D01*
X4179042Y-7300710D01*
X4193500Y-7300000D01*
X4488500Y-7300000D01*
X4502958Y-7300710D01*
G37*
G04 #@! TD.AperFunction*
G04 #@! TA.AperFunction,SMDPad,CuDef*
G36*
X3283758Y-10374110D02*
G01*
X3298076Y-10376234D01*
X3312117Y-10379751D01*
X3325746Y-10384628D01*
X3338831Y-10390817D01*
X3351247Y-10398258D01*
X3362873Y-10406881D01*
X3373598Y-10416602D01*
X3383319Y-10427327D01*
X3391942Y-10438953D01*
X3399383Y-10451369D01*
X3405572Y-10464454D01*
X3410449Y-10478083D01*
X3413966Y-10492124D01*
X3416090Y-10506442D01*
X3416800Y-10520900D01*
X3416800Y-10865900D01*
X3416090Y-10880358D01*
X3413966Y-10894676D01*
X3410449Y-10908717D01*
X3405572Y-10922346D01*
X3399383Y-10935431D01*
X3391942Y-10947847D01*
X3383319Y-10959473D01*
X3373598Y-10970198D01*
X3362873Y-10979919D01*
X3351247Y-10988542D01*
X3338831Y-10995983D01*
X3325746Y-11002172D01*
X3312117Y-11007049D01*
X3298076Y-11010566D01*
X3283758Y-11012690D01*
X3269300Y-11013400D01*
X2974300Y-11013400D01*
X2959842Y-11012690D01*
X2945524Y-11010566D01*
X2931483Y-11007049D01*
X2917854Y-11002172D01*
X2904769Y-10995983D01*
X2892353Y-10988542D01*
X2880727Y-10979919D01*
X2870002Y-10970198D01*
X2860281Y-10959473D01*
X2851658Y-10947847D01*
X2844217Y-10935431D01*
X2838028Y-10922346D01*
X2833151Y-10908717D01*
X2829634Y-10894676D01*
X2827510Y-10880358D01*
X2826800Y-10865900D01*
X2826800Y-10520900D01*
X2827510Y-10506442D01*
X2829634Y-10492124D01*
X2833151Y-10478083D01*
X2838028Y-10464454D01*
X2844217Y-10451369D01*
X2851658Y-10438953D01*
X2860281Y-10427327D01*
X2870002Y-10416602D01*
X2880727Y-10406881D01*
X2892353Y-10398258D01*
X2904769Y-10390817D01*
X2917854Y-10384628D01*
X2931483Y-10379751D01*
X2945524Y-10376234D01*
X2959842Y-10374110D01*
X2974300Y-10373400D01*
X3269300Y-10373400D01*
X3283758Y-10374110D01*
G37*
G04 #@! TD.AperFunction*
G04 #@! TA.AperFunction,SMDPad,CuDef*
G36*
X4253758Y-10374110D02*
G01*
X4268076Y-10376234D01*
X4282117Y-10379751D01*
X4295746Y-10384628D01*
X4308831Y-10390817D01*
X4321247Y-10398258D01*
X4332873Y-10406881D01*
X4343598Y-10416602D01*
X4353319Y-10427327D01*
X4361942Y-10438953D01*
X4369383Y-10451369D01*
X4375572Y-10464454D01*
X4380449Y-10478083D01*
X4383966Y-10492124D01*
X4386090Y-10506442D01*
X4386800Y-10520900D01*
X4386800Y-10865900D01*
X4386090Y-10880358D01*
X4383966Y-10894676D01*
X4380449Y-10908717D01*
X4375572Y-10922346D01*
X4369383Y-10935431D01*
X4361942Y-10947847D01*
X4353319Y-10959473D01*
X4343598Y-10970198D01*
X4332873Y-10979919D01*
X4321247Y-10988542D01*
X4308831Y-10995983D01*
X4295746Y-11002172D01*
X4282117Y-11007049D01*
X4268076Y-11010566D01*
X4253758Y-11012690D01*
X4239300Y-11013400D01*
X3944300Y-11013400D01*
X3929842Y-11012690D01*
X3915524Y-11010566D01*
X3901483Y-11007049D01*
X3887854Y-11002172D01*
X3874769Y-10995983D01*
X3862353Y-10988542D01*
X3850727Y-10979919D01*
X3840002Y-10970198D01*
X3830281Y-10959473D01*
X3821658Y-10947847D01*
X3814217Y-10935431D01*
X3808028Y-10922346D01*
X3803151Y-10908717D01*
X3799634Y-10894676D01*
X3797510Y-10880358D01*
X3796800Y-10865900D01*
X3796800Y-10520900D01*
X3797510Y-10506442D01*
X3799634Y-10492124D01*
X3803151Y-10478083D01*
X3808028Y-10464454D01*
X3814217Y-10451369D01*
X3821658Y-10438953D01*
X3830281Y-10427327D01*
X3840002Y-10416602D01*
X3850727Y-10406881D01*
X3862353Y-10398258D01*
X3874769Y-10390817D01*
X3887854Y-10384628D01*
X3901483Y-10379751D01*
X3915524Y-10376234D01*
X3929842Y-10374110D01*
X3944300Y-10373400D01*
X4239300Y-10373400D01*
X4253758Y-10374110D01*
G37*
G04 #@! TD.AperFunction*
D16*
X4826000Y-10677400D03*
X3876000Y-8677400D03*
X5776000Y-8677400D03*
D17*
X26014000Y-31346400D03*
G04 #@! TA.AperFunction,SMDPad,CuDef*
D15*
G36*
X6940958Y-12927110D02*
G01*
X6955276Y-12929234D01*
X6969317Y-12932751D01*
X6982946Y-12937628D01*
X6996031Y-12943817D01*
X7008447Y-12951258D01*
X7020073Y-12959881D01*
X7030798Y-12969602D01*
X7040519Y-12980327D01*
X7049142Y-12991953D01*
X7056583Y-13004369D01*
X7062772Y-13017454D01*
X7067649Y-13031083D01*
X7071166Y-13045124D01*
X7073290Y-13059442D01*
X7074000Y-13073900D01*
X7074000Y-13418900D01*
X7073290Y-13433358D01*
X7071166Y-13447676D01*
X7067649Y-13461717D01*
X7062772Y-13475346D01*
X7056583Y-13488431D01*
X7049142Y-13500847D01*
X7040519Y-13512473D01*
X7030798Y-13523198D01*
X7020073Y-13532919D01*
X7008447Y-13541542D01*
X6996031Y-13548983D01*
X6982946Y-13555172D01*
X6969317Y-13560049D01*
X6955276Y-13563566D01*
X6940958Y-13565690D01*
X6926500Y-13566400D01*
X6631500Y-13566400D01*
X6617042Y-13565690D01*
X6602724Y-13563566D01*
X6588683Y-13560049D01*
X6575054Y-13555172D01*
X6561969Y-13548983D01*
X6549553Y-13541542D01*
X6537927Y-13532919D01*
X6527202Y-13523198D01*
X6517481Y-13512473D01*
X6508858Y-13500847D01*
X6501417Y-13488431D01*
X6495228Y-13475346D01*
X6490351Y-13461717D01*
X6486834Y-13447676D01*
X6484710Y-13433358D01*
X6484000Y-13418900D01*
X6484000Y-13073900D01*
X6484710Y-13059442D01*
X6486834Y-13045124D01*
X6490351Y-13031083D01*
X6495228Y-13017454D01*
X6501417Y-13004369D01*
X6508858Y-12991953D01*
X6517481Y-12980327D01*
X6527202Y-12969602D01*
X6537927Y-12959881D01*
X6549553Y-12951258D01*
X6561969Y-12943817D01*
X6575054Y-12937628D01*
X6588683Y-12932751D01*
X6602724Y-12929234D01*
X6617042Y-12927110D01*
X6631500Y-12926400D01*
X6926500Y-12926400D01*
X6940958Y-12927110D01*
G37*
G04 #@! TD.AperFunction*
G04 #@! TA.AperFunction,SMDPad,CuDef*
G36*
X7910958Y-12927110D02*
G01*
X7925276Y-12929234D01*
X7939317Y-12932751D01*
X7952946Y-12937628D01*
X7966031Y-12943817D01*
X7978447Y-12951258D01*
X7990073Y-12959881D01*
X8000798Y-12969602D01*
X8010519Y-12980327D01*
X8019142Y-12991953D01*
X8026583Y-13004369D01*
X8032772Y-13017454D01*
X8037649Y-13031083D01*
X8041166Y-13045124D01*
X8043290Y-13059442D01*
X8044000Y-13073900D01*
X8044000Y-13418900D01*
X8043290Y-13433358D01*
X8041166Y-13447676D01*
X8037649Y-13461717D01*
X8032772Y-13475346D01*
X8026583Y-13488431D01*
X8019142Y-13500847D01*
X8010519Y-13512473D01*
X8000798Y-13523198D01*
X7990073Y-13532919D01*
X7978447Y-13541542D01*
X7966031Y-13548983D01*
X7952946Y-13555172D01*
X7939317Y-13560049D01*
X7925276Y-13563566D01*
X7910958Y-13565690D01*
X7896500Y-13566400D01*
X7601500Y-13566400D01*
X7587042Y-13565690D01*
X7572724Y-13563566D01*
X7558683Y-13560049D01*
X7545054Y-13555172D01*
X7531969Y-13548983D01*
X7519553Y-13541542D01*
X7507927Y-13532919D01*
X7497202Y-13523198D01*
X7487481Y-13512473D01*
X7478858Y-13500847D01*
X7471417Y-13488431D01*
X7465228Y-13475346D01*
X7460351Y-13461717D01*
X7456834Y-13447676D01*
X7454710Y-13433358D01*
X7454000Y-13418900D01*
X7454000Y-13073900D01*
X7454710Y-13059442D01*
X7456834Y-13045124D01*
X7460351Y-13031083D01*
X7465228Y-13017454D01*
X7471417Y-13004369D01*
X7478858Y-12991953D01*
X7487481Y-12980327D01*
X7497202Y-12969602D01*
X7507927Y-12959881D01*
X7519553Y-12951258D01*
X7531969Y-12943817D01*
X7545054Y-12937628D01*
X7558683Y-12932751D01*
X7572724Y-12929234D01*
X7587042Y-12927110D01*
X7601500Y-12926400D01*
X7896500Y-12926400D01*
X7910958Y-12927110D01*
G37*
G04 #@! TD.AperFunction*
D18*
X759500Y-10671000D03*
G04 #@! TA.AperFunction,SMDPad,CuDef*
D15*
G36*
X21100958Y-67882110D02*
G01*
X21115276Y-67884234D01*
X21129317Y-67887751D01*
X21142946Y-67892628D01*
X21156031Y-67898817D01*
X21168447Y-67906258D01*
X21180073Y-67914881D01*
X21190798Y-67924602D01*
X21200519Y-67935327D01*
X21209142Y-67946953D01*
X21216583Y-67959369D01*
X21222772Y-67972454D01*
X21227649Y-67986083D01*
X21231166Y-68000124D01*
X21233290Y-68014442D01*
X21234000Y-68028900D01*
X21234000Y-68323900D01*
X21233290Y-68338358D01*
X21231166Y-68352676D01*
X21227649Y-68366717D01*
X21222772Y-68380346D01*
X21216583Y-68393431D01*
X21209142Y-68405847D01*
X21200519Y-68417473D01*
X21190798Y-68428198D01*
X21180073Y-68437919D01*
X21168447Y-68446542D01*
X21156031Y-68453983D01*
X21142946Y-68460172D01*
X21129317Y-68465049D01*
X21115276Y-68468566D01*
X21100958Y-68470690D01*
X21086500Y-68471400D01*
X20741500Y-68471400D01*
X20727042Y-68470690D01*
X20712724Y-68468566D01*
X20698683Y-68465049D01*
X20685054Y-68460172D01*
X20671969Y-68453983D01*
X20659553Y-68446542D01*
X20647927Y-68437919D01*
X20637202Y-68428198D01*
X20627481Y-68417473D01*
X20618858Y-68405847D01*
X20611417Y-68393431D01*
X20605228Y-68380346D01*
X20600351Y-68366717D01*
X20596834Y-68352676D01*
X20594710Y-68338358D01*
X20594000Y-68323900D01*
X20594000Y-68028900D01*
X20594710Y-68014442D01*
X20596834Y-68000124D01*
X20600351Y-67986083D01*
X20605228Y-67972454D01*
X20611417Y-67959369D01*
X20618858Y-67946953D01*
X20627481Y-67935327D01*
X20637202Y-67924602D01*
X20647927Y-67914881D01*
X20659553Y-67906258D01*
X20671969Y-67898817D01*
X20685054Y-67892628D01*
X20698683Y-67887751D01*
X20712724Y-67884234D01*
X20727042Y-67882110D01*
X20741500Y-67881400D01*
X21086500Y-67881400D01*
X21100958Y-67882110D01*
G37*
G04 #@! TD.AperFunction*
G04 #@! TA.AperFunction,SMDPad,CuDef*
G36*
X21100958Y-68852110D02*
G01*
X21115276Y-68854234D01*
X21129317Y-68857751D01*
X21142946Y-68862628D01*
X21156031Y-68868817D01*
X21168447Y-68876258D01*
X21180073Y-68884881D01*
X21190798Y-68894602D01*
X21200519Y-68905327D01*
X21209142Y-68916953D01*
X21216583Y-68929369D01*
X21222772Y-68942454D01*
X21227649Y-68956083D01*
X21231166Y-68970124D01*
X21233290Y-68984442D01*
X21234000Y-68998900D01*
X21234000Y-69293900D01*
X21233290Y-69308358D01*
X21231166Y-69322676D01*
X21227649Y-69336717D01*
X21222772Y-69350346D01*
X21216583Y-69363431D01*
X21209142Y-69375847D01*
X21200519Y-69387473D01*
X21190798Y-69398198D01*
X21180073Y-69407919D01*
X21168447Y-69416542D01*
X21156031Y-69423983D01*
X21142946Y-69430172D01*
X21129317Y-69435049D01*
X21115276Y-69438566D01*
X21100958Y-69440690D01*
X21086500Y-69441400D01*
X20741500Y-69441400D01*
X20727042Y-69440690D01*
X20712724Y-69438566D01*
X20698683Y-69435049D01*
X20685054Y-69430172D01*
X20671969Y-69423983D01*
X20659553Y-69416542D01*
X20647927Y-69407919D01*
X20637202Y-69398198D01*
X20627481Y-69387473D01*
X20618858Y-69375847D01*
X20611417Y-69363431D01*
X20605228Y-69350346D01*
X20600351Y-69336717D01*
X20596834Y-69322676D01*
X20594710Y-69308358D01*
X20594000Y-69293900D01*
X20594000Y-68998900D01*
X20594710Y-68984442D01*
X20596834Y-68970124D01*
X20600351Y-68956083D01*
X20605228Y-68942454D01*
X20611417Y-68929369D01*
X20618858Y-68916953D01*
X20627481Y-68905327D01*
X20637202Y-68894602D01*
X20647927Y-68884881D01*
X20659553Y-68876258D01*
X20671969Y-68868817D01*
X20685054Y-68862628D01*
X20698683Y-68857751D01*
X20712724Y-68854234D01*
X20727042Y-68852110D01*
X20741500Y-68851400D01*
X21086500Y-68851400D01*
X21100958Y-68852110D01*
G37*
G04 #@! TD.AperFunction*
G04 #@! TA.AperFunction,SMDPad,CuDef*
G36*
X21100958Y-58802110D02*
G01*
X21115276Y-58804234D01*
X21129317Y-58807751D01*
X21142946Y-58812628D01*
X21156031Y-58818817D01*
X21168447Y-58826258D01*
X21180073Y-58834881D01*
X21190798Y-58844602D01*
X21200519Y-58855327D01*
X21209142Y-58866953D01*
X21216583Y-58879369D01*
X21222772Y-58892454D01*
X21227649Y-58906083D01*
X21231166Y-58920124D01*
X21233290Y-58934442D01*
X21234000Y-58948900D01*
X21234000Y-59243900D01*
X21233290Y-59258358D01*
X21231166Y-59272676D01*
X21227649Y-59286717D01*
X21222772Y-59300346D01*
X21216583Y-59313431D01*
X21209142Y-59325847D01*
X21200519Y-59337473D01*
X21190798Y-59348198D01*
X21180073Y-59357919D01*
X21168447Y-59366542D01*
X21156031Y-59373983D01*
X21142946Y-59380172D01*
X21129317Y-59385049D01*
X21115276Y-59388566D01*
X21100958Y-59390690D01*
X21086500Y-59391400D01*
X20741500Y-59391400D01*
X20727042Y-59390690D01*
X20712724Y-59388566D01*
X20698683Y-59385049D01*
X20685054Y-59380172D01*
X20671969Y-59373983D01*
X20659553Y-59366542D01*
X20647927Y-59357919D01*
X20637202Y-59348198D01*
X20627481Y-59337473D01*
X20618858Y-59325847D01*
X20611417Y-59313431D01*
X20605228Y-59300346D01*
X20600351Y-59286717D01*
X20596834Y-59272676D01*
X20594710Y-59258358D01*
X20594000Y-59243900D01*
X20594000Y-58948900D01*
X20594710Y-58934442D01*
X20596834Y-58920124D01*
X20600351Y-58906083D01*
X20605228Y-58892454D01*
X20611417Y-58879369D01*
X20618858Y-58866953D01*
X20627481Y-58855327D01*
X20637202Y-58844602D01*
X20647927Y-58834881D01*
X20659553Y-58826258D01*
X20671969Y-58818817D01*
X20685054Y-58812628D01*
X20698683Y-58807751D01*
X20712724Y-58804234D01*
X20727042Y-58802110D01*
X20741500Y-58801400D01*
X21086500Y-58801400D01*
X21100958Y-58802110D01*
G37*
G04 #@! TD.AperFunction*
G04 #@! TA.AperFunction,SMDPad,CuDef*
G36*
X21100958Y-59772110D02*
G01*
X21115276Y-59774234D01*
X21129317Y-59777751D01*
X21142946Y-59782628D01*
X21156031Y-59788817D01*
X21168447Y-59796258D01*
X21180073Y-59804881D01*
X21190798Y-59814602D01*
X21200519Y-59825327D01*
X21209142Y-59836953D01*
X21216583Y-59849369D01*
X21222772Y-59862454D01*
X21227649Y-59876083D01*
X21231166Y-59890124D01*
X21233290Y-59904442D01*
X21234000Y-59918900D01*
X21234000Y-60213900D01*
X21233290Y-60228358D01*
X21231166Y-60242676D01*
X21227649Y-60256717D01*
X21222772Y-60270346D01*
X21216583Y-60283431D01*
X21209142Y-60295847D01*
X21200519Y-60307473D01*
X21190798Y-60318198D01*
X21180073Y-60327919D01*
X21168447Y-60336542D01*
X21156031Y-60343983D01*
X21142946Y-60350172D01*
X21129317Y-60355049D01*
X21115276Y-60358566D01*
X21100958Y-60360690D01*
X21086500Y-60361400D01*
X20741500Y-60361400D01*
X20727042Y-60360690D01*
X20712724Y-60358566D01*
X20698683Y-60355049D01*
X20685054Y-60350172D01*
X20671969Y-60343983D01*
X20659553Y-60336542D01*
X20647927Y-60327919D01*
X20637202Y-60318198D01*
X20627481Y-60307473D01*
X20618858Y-60295847D01*
X20611417Y-60283431D01*
X20605228Y-60270346D01*
X20600351Y-60256717D01*
X20596834Y-60242676D01*
X20594710Y-60228358D01*
X20594000Y-60213900D01*
X20594000Y-59918900D01*
X20594710Y-59904442D01*
X20596834Y-59890124D01*
X20600351Y-59876083D01*
X20605228Y-59862454D01*
X20611417Y-59849369D01*
X20618858Y-59836953D01*
X20627481Y-59825327D01*
X20637202Y-59814602D01*
X20647927Y-59804881D01*
X20659553Y-59796258D01*
X20671969Y-59788817D01*
X20685054Y-59782628D01*
X20698683Y-59777751D01*
X20712724Y-59774234D01*
X20727042Y-59772110D01*
X20741500Y-59771400D01*
X21086500Y-59771400D01*
X21100958Y-59772110D01*
G37*
G04 #@! TD.AperFunction*
G04 #@! TA.AperFunction,SMDPad,CuDef*
G36*
X21100958Y-49617110D02*
G01*
X21115276Y-49619234D01*
X21129317Y-49622751D01*
X21142946Y-49627628D01*
X21156031Y-49633817D01*
X21168447Y-49641258D01*
X21180073Y-49649881D01*
X21190798Y-49659602D01*
X21200519Y-49670327D01*
X21209142Y-49681953D01*
X21216583Y-49694369D01*
X21222772Y-49707454D01*
X21227649Y-49721083D01*
X21231166Y-49735124D01*
X21233290Y-49749442D01*
X21234000Y-49763900D01*
X21234000Y-50058900D01*
X21233290Y-50073358D01*
X21231166Y-50087676D01*
X21227649Y-50101717D01*
X21222772Y-50115346D01*
X21216583Y-50128431D01*
X21209142Y-50140847D01*
X21200519Y-50152473D01*
X21190798Y-50163198D01*
X21180073Y-50172919D01*
X21168447Y-50181542D01*
X21156031Y-50188983D01*
X21142946Y-50195172D01*
X21129317Y-50200049D01*
X21115276Y-50203566D01*
X21100958Y-50205690D01*
X21086500Y-50206400D01*
X20741500Y-50206400D01*
X20727042Y-50205690D01*
X20712724Y-50203566D01*
X20698683Y-50200049D01*
X20685054Y-50195172D01*
X20671969Y-50188983D01*
X20659553Y-50181542D01*
X20647927Y-50172919D01*
X20637202Y-50163198D01*
X20627481Y-50152473D01*
X20618858Y-50140847D01*
X20611417Y-50128431D01*
X20605228Y-50115346D01*
X20600351Y-50101717D01*
X20596834Y-50087676D01*
X20594710Y-50073358D01*
X20594000Y-50058900D01*
X20594000Y-49763900D01*
X20594710Y-49749442D01*
X20596834Y-49735124D01*
X20600351Y-49721083D01*
X20605228Y-49707454D01*
X20611417Y-49694369D01*
X20618858Y-49681953D01*
X20627481Y-49670327D01*
X20637202Y-49659602D01*
X20647927Y-49649881D01*
X20659553Y-49641258D01*
X20671969Y-49633817D01*
X20685054Y-49627628D01*
X20698683Y-49622751D01*
X20712724Y-49619234D01*
X20727042Y-49617110D01*
X20741500Y-49616400D01*
X21086500Y-49616400D01*
X21100958Y-49617110D01*
G37*
G04 #@! TD.AperFunction*
G04 #@! TA.AperFunction,SMDPad,CuDef*
G36*
X21100958Y-50587110D02*
G01*
X21115276Y-50589234D01*
X21129317Y-50592751D01*
X21142946Y-50597628D01*
X21156031Y-50603817D01*
X21168447Y-50611258D01*
X21180073Y-50619881D01*
X21190798Y-50629602D01*
X21200519Y-50640327D01*
X21209142Y-50651953D01*
X21216583Y-50664369D01*
X21222772Y-50677454D01*
X21227649Y-50691083D01*
X21231166Y-50705124D01*
X21233290Y-50719442D01*
X21234000Y-50733900D01*
X21234000Y-51028900D01*
X21233290Y-51043358D01*
X21231166Y-51057676D01*
X21227649Y-51071717D01*
X21222772Y-51085346D01*
X21216583Y-51098431D01*
X21209142Y-51110847D01*
X21200519Y-51122473D01*
X21190798Y-51133198D01*
X21180073Y-51142919D01*
X21168447Y-51151542D01*
X21156031Y-51158983D01*
X21142946Y-51165172D01*
X21129317Y-51170049D01*
X21115276Y-51173566D01*
X21100958Y-51175690D01*
X21086500Y-51176400D01*
X20741500Y-51176400D01*
X20727042Y-51175690D01*
X20712724Y-51173566D01*
X20698683Y-51170049D01*
X20685054Y-51165172D01*
X20671969Y-51158983D01*
X20659553Y-51151542D01*
X20647927Y-51142919D01*
X20637202Y-51133198D01*
X20627481Y-51122473D01*
X20618858Y-51110847D01*
X20611417Y-51098431D01*
X20605228Y-51085346D01*
X20600351Y-51071717D01*
X20596834Y-51057676D01*
X20594710Y-51043358D01*
X20594000Y-51028900D01*
X20594000Y-50733900D01*
X20594710Y-50719442D01*
X20596834Y-50705124D01*
X20600351Y-50691083D01*
X20605228Y-50677454D01*
X20611417Y-50664369D01*
X20618858Y-50651953D01*
X20627481Y-50640327D01*
X20637202Y-50629602D01*
X20647927Y-50619881D01*
X20659553Y-50611258D01*
X20671969Y-50603817D01*
X20685054Y-50597628D01*
X20698683Y-50592751D01*
X20712724Y-50589234D01*
X20727042Y-50587110D01*
X20741500Y-50586400D01*
X21086500Y-50586400D01*
X21100958Y-50587110D01*
G37*
G04 #@! TD.AperFunction*
G04 #@! TA.AperFunction,SMDPad,CuDef*
G36*
X21100958Y-40402110D02*
G01*
X21115276Y-40404234D01*
X21129317Y-40407751D01*
X21142946Y-40412628D01*
X21156031Y-40418817D01*
X21168447Y-40426258D01*
X21180073Y-40434881D01*
X21190798Y-40444602D01*
X21200519Y-40455327D01*
X21209142Y-40466953D01*
X21216583Y-40479369D01*
X21222772Y-40492454D01*
X21227649Y-40506083D01*
X21231166Y-40520124D01*
X21233290Y-40534442D01*
X21234000Y-40548900D01*
X21234000Y-40843900D01*
X21233290Y-40858358D01*
X21231166Y-40872676D01*
X21227649Y-40886717D01*
X21222772Y-40900346D01*
X21216583Y-40913431D01*
X21209142Y-40925847D01*
X21200519Y-40937473D01*
X21190798Y-40948198D01*
X21180073Y-40957919D01*
X21168447Y-40966542D01*
X21156031Y-40973983D01*
X21142946Y-40980172D01*
X21129317Y-40985049D01*
X21115276Y-40988566D01*
X21100958Y-40990690D01*
X21086500Y-40991400D01*
X20741500Y-40991400D01*
X20727042Y-40990690D01*
X20712724Y-40988566D01*
X20698683Y-40985049D01*
X20685054Y-40980172D01*
X20671969Y-40973983D01*
X20659553Y-40966542D01*
X20647927Y-40957919D01*
X20637202Y-40948198D01*
X20627481Y-40937473D01*
X20618858Y-40925847D01*
X20611417Y-40913431D01*
X20605228Y-40900346D01*
X20600351Y-40886717D01*
X20596834Y-40872676D01*
X20594710Y-40858358D01*
X20594000Y-40843900D01*
X20594000Y-40548900D01*
X20594710Y-40534442D01*
X20596834Y-40520124D01*
X20600351Y-40506083D01*
X20605228Y-40492454D01*
X20611417Y-40479369D01*
X20618858Y-40466953D01*
X20627481Y-40455327D01*
X20637202Y-40444602D01*
X20647927Y-40434881D01*
X20659553Y-40426258D01*
X20671969Y-40418817D01*
X20685054Y-40412628D01*
X20698683Y-40407751D01*
X20712724Y-40404234D01*
X20727042Y-40402110D01*
X20741500Y-40401400D01*
X21086500Y-40401400D01*
X21100958Y-40402110D01*
G37*
G04 #@! TD.AperFunction*
G04 #@! TA.AperFunction,SMDPad,CuDef*
G36*
X21100958Y-41372110D02*
G01*
X21115276Y-41374234D01*
X21129317Y-41377751D01*
X21142946Y-41382628D01*
X21156031Y-41388817D01*
X21168447Y-41396258D01*
X21180073Y-41404881D01*
X21190798Y-41414602D01*
X21200519Y-41425327D01*
X21209142Y-41436953D01*
X21216583Y-41449369D01*
X21222772Y-41462454D01*
X21227649Y-41476083D01*
X21231166Y-41490124D01*
X21233290Y-41504442D01*
X21234000Y-41518900D01*
X21234000Y-41813900D01*
X21233290Y-41828358D01*
X21231166Y-41842676D01*
X21227649Y-41856717D01*
X21222772Y-41870346D01*
X21216583Y-41883431D01*
X21209142Y-41895847D01*
X21200519Y-41907473D01*
X21190798Y-41918198D01*
X21180073Y-41927919D01*
X21168447Y-41936542D01*
X21156031Y-41943983D01*
X21142946Y-41950172D01*
X21129317Y-41955049D01*
X21115276Y-41958566D01*
X21100958Y-41960690D01*
X21086500Y-41961400D01*
X20741500Y-41961400D01*
X20727042Y-41960690D01*
X20712724Y-41958566D01*
X20698683Y-41955049D01*
X20685054Y-41950172D01*
X20671969Y-41943983D01*
X20659553Y-41936542D01*
X20647927Y-41927919D01*
X20637202Y-41918198D01*
X20627481Y-41907473D01*
X20618858Y-41895847D01*
X20611417Y-41883431D01*
X20605228Y-41870346D01*
X20600351Y-41856717D01*
X20596834Y-41842676D01*
X20594710Y-41828358D01*
X20594000Y-41813900D01*
X20594000Y-41518900D01*
X20594710Y-41504442D01*
X20596834Y-41490124D01*
X20600351Y-41476083D01*
X20605228Y-41462454D01*
X20611417Y-41449369D01*
X20618858Y-41436953D01*
X20627481Y-41425327D01*
X20637202Y-41414602D01*
X20647927Y-41404881D01*
X20659553Y-41396258D01*
X20671969Y-41388817D01*
X20685054Y-41382628D01*
X20698683Y-41377751D01*
X20712724Y-41374234D01*
X20727042Y-41372110D01*
X20741500Y-41371400D01*
X21086500Y-41371400D01*
X21100958Y-41372110D01*
G37*
G04 #@! TD.AperFunction*
G04 #@! TA.AperFunction,SMDPad,CuDef*
G36*
X21100958Y-31332110D02*
G01*
X21115276Y-31334234D01*
X21129317Y-31337751D01*
X21142946Y-31342628D01*
X21156031Y-31348817D01*
X21168447Y-31356258D01*
X21180073Y-31364881D01*
X21190798Y-31374602D01*
X21200519Y-31385327D01*
X21209142Y-31396953D01*
X21216583Y-31409369D01*
X21222772Y-31422454D01*
X21227649Y-31436083D01*
X21231166Y-31450124D01*
X21233290Y-31464442D01*
X21234000Y-31478900D01*
X21234000Y-31773900D01*
X21233290Y-31788358D01*
X21231166Y-31802676D01*
X21227649Y-31816717D01*
X21222772Y-31830346D01*
X21216583Y-31843431D01*
X21209142Y-31855847D01*
X21200519Y-31867473D01*
X21190798Y-31878198D01*
X21180073Y-31887919D01*
X21168447Y-31896542D01*
X21156031Y-31903983D01*
X21142946Y-31910172D01*
X21129317Y-31915049D01*
X21115276Y-31918566D01*
X21100958Y-31920690D01*
X21086500Y-31921400D01*
X20741500Y-31921400D01*
X20727042Y-31920690D01*
X20712724Y-31918566D01*
X20698683Y-31915049D01*
X20685054Y-31910172D01*
X20671969Y-31903983D01*
X20659553Y-31896542D01*
X20647927Y-31887919D01*
X20637202Y-31878198D01*
X20627481Y-31867473D01*
X20618858Y-31855847D01*
X20611417Y-31843431D01*
X20605228Y-31830346D01*
X20600351Y-31816717D01*
X20596834Y-31802676D01*
X20594710Y-31788358D01*
X20594000Y-31773900D01*
X20594000Y-31478900D01*
X20594710Y-31464442D01*
X20596834Y-31450124D01*
X20600351Y-31436083D01*
X20605228Y-31422454D01*
X20611417Y-31409369D01*
X20618858Y-31396953D01*
X20627481Y-31385327D01*
X20637202Y-31374602D01*
X20647927Y-31364881D01*
X20659553Y-31356258D01*
X20671969Y-31348817D01*
X20685054Y-31342628D01*
X20698683Y-31337751D01*
X20712724Y-31334234D01*
X20727042Y-31332110D01*
X20741500Y-31331400D01*
X21086500Y-31331400D01*
X21100958Y-31332110D01*
G37*
G04 #@! TD.AperFunction*
G04 #@! TA.AperFunction,SMDPad,CuDef*
G36*
X21100958Y-32302110D02*
G01*
X21115276Y-32304234D01*
X21129317Y-32307751D01*
X21142946Y-32312628D01*
X21156031Y-32318817D01*
X21168447Y-32326258D01*
X21180073Y-32334881D01*
X21190798Y-32344602D01*
X21200519Y-32355327D01*
X21209142Y-32366953D01*
X21216583Y-32379369D01*
X21222772Y-32392454D01*
X21227649Y-32406083D01*
X21231166Y-32420124D01*
X21233290Y-32434442D01*
X21234000Y-32448900D01*
X21234000Y-32743900D01*
X21233290Y-32758358D01*
X21231166Y-32772676D01*
X21227649Y-32786717D01*
X21222772Y-32800346D01*
X21216583Y-32813431D01*
X21209142Y-32825847D01*
X21200519Y-32837473D01*
X21190798Y-32848198D01*
X21180073Y-32857919D01*
X21168447Y-32866542D01*
X21156031Y-32873983D01*
X21142946Y-32880172D01*
X21129317Y-32885049D01*
X21115276Y-32888566D01*
X21100958Y-32890690D01*
X21086500Y-32891400D01*
X20741500Y-32891400D01*
X20727042Y-32890690D01*
X20712724Y-32888566D01*
X20698683Y-32885049D01*
X20685054Y-32880172D01*
X20671969Y-32873983D01*
X20659553Y-32866542D01*
X20647927Y-32857919D01*
X20637202Y-32848198D01*
X20627481Y-32837473D01*
X20618858Y-32825847D01*
X20611417Y-32813431D01*
X20605228Y-32800346D01*
X20600351Y-32786717D01*
X20596834Y-32772676D01*
X20594710Y-32758358D01*
X20594000Y-32743900D01*
X20594000Y-32448900D01*
X20594710Y-32434442D01*
X20596834Y-32420124D01*
X20600351Y-32406083D01*
X20605228Y-32392454D01*
X20611417Y-32379369D01*
X20618858Y-32366953D01*
X20627481Y-32355327D01*
X20637202Y-32344602D01*
X20647927Y-32334881D01*
X20659553Y-32326258D01*
X20671969Y-32318817D01*
X20685054Y-32312628D01*
X20698683Y-32307751D01*
X20712724Y-32304234D01*
X20727042Y-32302110D01*
X20741500Y-32301400D01*
X21086500Y-32301400D01*
X21100958Y-32302110D01*
G37*
G04 #@! TD.AperFunction*
G04 #@! TA.AperFunction,SMDPad,CuDef*
G36*
X20950957Y-20587110D02*
G01*
X20965275Y-20589234D01*
X20979316Y-20592751D01*
X20992945Y-20597628D01*
X21006030Y-20603817D01*
X21018446Y-20611258D01*
X21030072Y-20619881D01*
X21040797Y-20629602D01*
X21050518Y-20640327D01*
X21059141Y-20651953D01*
X21066582Y-20664369D01*
X21072771Y-20677454D01*
X21077648Y-20691083D01*
X21081165Y-20705124D01*
X21083289Y-20719442D01*
X21083999Y-20733900D01*
X21083999Y-21028900D01*
X21083289Y-21043358D01*
X21081165Y-21057676D01*
X21077648Y-21071717D01*
X21072771Y-21085346D01*
X21066582Y-21098431D01*
X21059141Y-21110847D01*
X21050518Y-21122473D01*
X21040797Y-21133198D01*
X21030072Y-21142919D01*
X21018446Y-21151542D01*
X21006030Y-21158983D01*
X20992945Y-21165172D01*
X20979316Y-21170049D01*
X20965275Y-21173566D01*
X20950957Y-21175690D01*
X20936499Y-21176400D01*
X20591499Y-21176400D01*
X20577041Y-21175690D01*
X20562723Y-21173566D01*
X20548682Y-21170049D01*
X20535053Y-21165172D01*
X20521968Y-21158983D01*
X20509552Y-21151542D01*
X20497926Y-21142919D01*
X20487201Y-21133198D01*
X20477480Y-21122473D01*
X20468857Y-21110847D01*
X20461416Y-21098431D01*
X20455227Y-21085346D01*
X20450350Y-21071717D01*
X20446833Y-21057676D01*
X20444709Y-21043358D01*
X20443999Y-21028900D01*
X20443999Y-20733900D01*
X20444709Y-20719442D01*
X20446833Y-20705124D01*
X20450350Y-20691083D01*
X20455227Y-20677454D01*
X20461416Y-20664369D01*
X20468857Y-20651953D01*
X20477480Y-20640327D01*
X20487201Y-20629602D01*
X20497926Y-20619881D01*
X20509552Y-20611258D01*
X20521968Y-20603817D01*
X20535053Y-20597628D01*
X20548682Y-20592751D01*
X20562723Y-20589234D01*
X20577041Y-20587110D01*
X20591499Y-20586400D01*
X20936499Y-20586400D01*
X20950957Y-20587110D01*
G37*
G04 #@! TD.AperFunction*
G04 #@! TA.AperFunction,SMDPad,CuDef*
G36*
X20950957Y-19617110D02*
G01*
X20965275Y-19619234D01*
X20979316Y-19622751D01*
X20992945Y-19627628D01*
X21006030Y-19633817D01*
X21018446Y-19641258D01*
X21030072Y-19649881D01*
X21040797Y-19659602D01*
X21050518Y-19670327D01*
X21059141Y-19681953D01*
X21066582Y-19694369D01*
X21072771Y-19707454D01*
X21077648Y-19721083D01*
X21081165Y-19735124D01*
X21083289Y-19749442D01*
X21083999Y-19763900D01*
X21083999Y-20058900D01*
X21083289Y-20073358D01*
X21081165Y-20087676D01*
X21077648Y-20101717D01*
X21072771Y-20115346D01*
X21066582Y-20128431D01*
X21059141Y-20140847D01*
X21050518Y-20152473D01*
X21040797Y-20163198D01*
X21030072Y-20172919D01*
X21018446Y-20181542D01*
X21006030Y-20188983D01*
X20992945Y-20195172D01*
X20979316Y-20200049D01*
X20965275Y-20203566D01*
X20950957Y-20205690D01*
X20936499Y-20206400D01*
X20591499Y-20206400D01*
X20577041Y-20205690D01*
X20562723Y-20203566D01*
X20548682Y-20200049D01*
X20535053Y-20195172D01*
X20521968Y-20188983D01*
X20509552Y-20181542D01*
X20497926Y-20172919D01*
X20487201Y-20163198D01*
X20477480Y-20152473D01*
X20468857Y-20140847D01*
X20461416Y-20128431D01*
X20455227Y-20115346D01*
X20450350Y-20101717D01*
X20446833Y-20087676D01*
X20444709Y-20073358D01*
X20443999Y-20058900D01*
X20443999Y-19763900D01*
X20444709Y-19749442D01*
X20446833Y-19735124D01*
X20450350Y-19721083D01*
X20455227Y-19707454D01*
X20461416Y-19694369D01*
X20468857Y-19681953D01*
X20477480Y-19670327D01*
X20487201Y-19659602D01*
X20497926Y-19649881D01*
X20509552Y-19641258D01*
X20521968Y-19633817D01*
X20535053Y-19627628D01*
X20548682Y-19622751D01*
X20562723Y-19619234D01*
X20577041Y-19617110D01*
X20591499Y-19616400D01*
X20936499Y-19616400D01*
X20950957Y-19617110D01*
G37*
G04 #@! TD.AperFunction*
G04 #@! TA.AperFunction,SMDPad,CuDef*
G36*
X19290958Y-18727110D02*
G01*
X19305276Y-18729234D01*
X19319317Y-18732751D01*
X19332946Y-18737628D01*
X19346031Y-18743817D01*
X19358447Y-18751258D01*
X19370073Y-18759881D01*
X19380798Y-18769602D01*
X19390519Y-18780327D01*
X19399142Y-18791953D01*
X19406583Y-18804369D01*
X19412772Y-18817454D01*
X19417649Y-18831083D01*
X19421166Y-18845124D01*
X19423290Y-18859442D01*
X19424000Y-18873900D01*
X19424000Y-19218900D01*
X19423290Y-19233358D01*
X19421166Y-19247676D01*
X19417649Y-19261717D01*
X19412772Y-19275346D01*
X19406583Y-19288431D01*
X19399142Y-19300847D01*
X19390519Y-19312473D01*
X19380798Y-19323198D01*
X19370073Y-19332919D01*
X19358447Y-19341542D01*
X19346031Y-19348983D01*
X19332946Y-19355172D01*
X19319317Y-19360049D01*
X19305276Y-19363566D01*
X19290958Y-19365690D01*
X19276500Y-19366400D01*
X18981500Y-19366400D01*
X18967042Y-19365690D01*
X18952724Y-19363566D01*
X18938683Y-19360049D01*
X18925054Y-19355172D01*
X18911969Y-19348983D01*
X18899553Y-19341542D01*
X18887927Y-19332919D01*
X18877202Y-19323198D01*
X18867481Y-19312473D01*
X18858858Y-19300847D01*
X18851417Y-19288431D01*
X18845228Y-19275346D01*
X18840351Y-19261717D01*
X18836834Y-19247676D01*
X18834710Y-19233358D01*
X18834000Y-19218900D01*
X18834000Y-18873900D01*
X18834710Y-18859442D01*
X18836834Y-18845124D01*
X18840351Y-18831083D01*
X18845228Y-18817454D01*
X18851417Y-18804369D01*
X18858858Y-18791953D01*
X18867481Y-18780327D01*
X18877202Y-18769602D01*
X18887927Y-18759881D01*
X18899553Y-18751258D01*
X18911969Y-18743817D01*
X18925054Y-18737628D01*
X18938683Y-18732751D01*
X18952724Y-18729234D01*
X18967042Y-18727110D01*
X18981500Y-18726400D01*
X19276500Y-18726400D01*
X19290958Y-18727110D01*
G37*
G04 #@! TD.AperFunction*
G04 #@! TA.AperFunction,SMDPad,CuDef*
G36*
X20260958Y-18727110D02*
G01*
X20275276Y-18729234D01*
X20289317Y-18732751D01*
X20302946Y-18737628D01*
X20316031Y-18743817D01*
X20328447Y-18751258D01*
X20340073Y-18759881D01*
X20350798Y-18769602D01*
X20360519Y-18780327D01*
X20369142Y-18791953D01*
X20376583Y-18804369D01*
X20382772Y-18817454D01*
X20387649Y-18831083D01*
X20391166Y-18845124D01*
X20393290Y-18859442D01*
X20394000Y-18873900D01*
X20394000Y-19218900D01*
X20393290Y-19233358D01*
X20391166Y-19247676D01*
X20387649Y-19261717D01*
X20382772Y-19275346D01*
X20376583Y-19288431D01*
X20369142Y-19300847D01*
X20360519Y-19312473D01*
X20350798Y-19323198D01*
X20340073Y-19332919D01*
X20328447Y-19341542D01*
X20316031Y-19348983D01*
X20302946Y-19355172D01*
X20289317Y-19360049D01*
X20275276Y-19363566D01*
X20260958Y-19365690D01*
X20246500Y-19366400D01*
X19951500Y-19366400D01*
X19937042Y-19365690D01*
X19922724Y-19363566D01*
X19908683Y-19360049D01*
X19895054Y-19355172D01*
X19881969Y-19348983D01*
X19869553Y-19341542D01*
X19857927Y-19332919D01*
X19847202Y-19323198D01*
X19837481Y-19312473D01*
X19828858Y-19300847D01*
X19821417Y-19288431D01*
X19815228Y-19275346D01*
X19810351Y-19261717D01*
X19806834Y-19247676D01*
X19804710Y-19233358D01*
X19804000Y-19218900D01*
X19804000Y-18873900D01*
X19804710Y-18859442D01*
X19806834Y-18845124D01*
X19810351Y-18831083D01*
X19815228Y-18817454D01*
X19821417Y-18804369D01*
X19828858Y-18791953D01*
X19837481Y-18780327D01*
X19847202Y-18769602D01*
X19857927Y-18759881D01*
X19869553Y-18751258D01*
X19881969Y-18743817D01*
X19895054Y-18737628D01*
X19908683Y-18732751D01*
X19922724Y-18729234D01*
X19937042Y-18727110D01*
X19951500Y-18726400D01*
X20246500Y-18726400D01*
X20260958Y-18727110D01*
G37*
G04 #@! TD.AperFunction*
G04 #@! TA.AperFunction,SMDPad,CuDef*
G36*
X20950958Y-17872111D02*
G01*
X20965276Y-17874235D01*
X20979317Y-17877752D01*
X20992946Y-17882629D01*
X21006031Y-17888818D01*
X21018447Y-17896259D01*
X21030073Y-17904882D01*
X21040798Y-17914603D01*
X21050519Y-17925328D01*
X21059142Y-17936954D01*
X21066583Y-17949370D01*
X21072772Y-17962455D01*
X21077649Y-17976084D01*
X21081166Y-17990125D01*
X21083290Y-18004443D01*
X21084000Y-18018901D01*
X21084000Y-18313901D01*
X21083290Y-18328359D01*
X21081166Y-18342677D01*
X21077649Y-18356718D01*
X21072772Y-18370347D01*
X21066583Y-18383432D01*
X21059142Y-18395848D01*
X21050519Y-18407474D01*
X21040798Y-18418199D01*
X21030073Y-18427920D01*
X21018447Y-18436543D01*
X21006031Y-18443984D01*
X20992946Y-18450173D01*
X20979317Y-18455050D01*
X20965276Y-18458567D01*
X20950958Y-18460691D01*
X20936500Y-18461401D01*
X20591500Y-18461401D01*
X20577042Y-18460691D01*
X20562724Y-18458567D01*
X20548683Y-18455050D01*
X20535054Y-18450173D01*
X20521969Y-18443984D01*
X20509553Y-18436543D01*
X20497927Y-18427920D01*
X20487202Y-18418199D01*
X20477481Y-18407474D01*
X20468858Y-18395848D01*
X20461417Y-18383432D01*
X20455228Y-18370347D01*
X20450351Y-18356718D01*
X20446834Y-18342677D01*
X20444710Y-18328359D01*
X20444000Y-18313901D01*
X20444000Y-18018901D01*
X20444710Y-18004443D01*
X20446834Y-17990125D01*
X20450351Y-17976084D01*
X20455228Y-17962455D01*
X20461417Y-17949370D01*
X20468858Y-17936954D01*
X20477481Y-17925328D01*
X20487202Y-17914603D01*
X20497927Y-17904882D01*
X20509553Y-17896259D01*
X20521969Y-17888818D01*
X20535054Y-17882629D01*
X20548683Y-17877752D01*
X20562724Y-17874235D01*
X20577042Y-17872111D01*
X20591500Y-17871401D01*
X20936500Y-17871401D01*
X20950958Y-17872111D01*
G37*
G04 #@! TD.AperFunction*
G04 #@! TA.AperFunction,SMDPad,CuDef*
G36*
X20950958Y-16902111D02*
G01*
X20965276Y-16904235D01*
X20979317Y-16907752D01*
X20992946Y-16912629D01*
X21006031Y-16918818D01*
X21018447Y-16926259D01*
X21030073Y-16934882D01*
X21040798Y-16944603D01*
X21050519Y-16955328D01*
X21059142Y-16966954D01*
X21066583Y-16979370D01*
X21072772Y-16992455D01*
X21077649Y-17006084D01*
X21081166Y-17020125D01*
X21083290Y-17034443D01*
X21084000Y-17048901D01*
X21084000Y-17343901D01*
X21083290Y-17358359D01*
X21081166Y-17372677D01*
X21077649Y-17386718D01*
X21072772Y-17400347D01*
X21066583Y-17413432D01*
X21059142Y-17425848D01*
X21050519Y-17437474D01*
X21040798Y-17448199D01*
X21030073Y-17457920D01*
X21018447Y-17466543D01*
X21006031Y-17473984D01*
X20992946Y-17480173D01*
X20979317Y-17485050D01*
X20965276Y-17488567D01*
X20950958Y-17490691D01*
X20936500Y-17491401D01*
X20591500Y-17491401D01*
X20577042Y-17490691D01*
X20562724Y-17488567D01*
X20548683Y-17485050D01*
X20535054Y-17480173D01*
X20521969Y-17473984D01*
X20509553Y-17466543D01*
X20497927Y-17457920D01*
X20487202Y-17448199D01*
X20477481Y-17437474D01*
X20468858Y-17425848D01*
X20461417Y-17413432D01*
X20455228Y-17400347D01*
X20450351Y-17386718D01*
X20446834Y-17372677D01*
X20444710Y-17358359D01*
X20444000Y-17343901D01*
X20444000Y-17048901D01*
X20444710Y-17034443D01*
X20446834Y-17020125D01*
X20450351Y-17006084D01*
X20455228Y-16992455D01*
X20461417Y-16979370D01*
X20468858Y-16966954D01*
X20477481Y-16955328D01*
X20487202Y-16944603D01*
X20497927Y-16934882D01*
X20509553Y-16926259D01*
X20521969Y-16918818D01*
X20535054Y-16912629D01*
X20548683Y-16907752D01*
X20562724Y-16904235D01*
X20577042Y-16902111D01*
X20591500Y-16901401D01*
X20936500Y-16901401D01*
X20950958Y-16902111D01*
G37*
G04 #@! TD.AperFunction*
G04 #@! TA.AperFunction,SMDPad,CuDef*
G36*
X17550958Y-24237110D02*
G01*
X17565276Y-24239234D01*
X17579317Y-24242751D01*
X17592946Y-24247628D01*
X17606031Y-24253817D01*
X17618447Y-24261258D01*
X17630073Y-24269881D01*
X17640798Y-24279602D01*
X17650519Y-24290327D01*
X17659142Y-24301953D01*
X17666583Y-24314369D01*
X17672772Y-24327454D01*
X17677649Y-24341083D01*
X17681166Y-24355124D01*
X17683290Y-24369442D01*
X17684000Y-24383900D01*
X17684000Y-24678900D01*
X17683290Y-24693358D01*
X17681166Y-24707676D01*
X17677649Y-24721717D01*
X17672772Y-24735346D01*
X17666583Y-24748431D01*
X17659142Y-24760847D01*
X17650519Y-24772473D01*
X17640798Y-24783198D01*
X17630073Y-24792919D01*
X17618447Y-24801542D01*
X17606031Y-24808983D01*
X17592946Y-24815172D01*
X17579317Y-24820049D01*
X17565276Y-24823566D01*
X17550958Y-24825690D01*
X17536500Y-24826400D01*
X17191500Y-24826400D01*
X17177042Y-24825690D01*
X17162724Y-24823566D01*
X17148683Y-24820049D01*
X17135054Y-24815172D01*
X17121969Y-24808983D01*
X17109553Y-24801542D01*
X17097927Y-24792919D01*
X17087202Y-24783198D01*
X17077481Y-24772473D01*
X17068858Y-24760847D01*
X17061417Y-24748431D01*
X17055228Y-24735346D01*
X17050351Y-24721717D01*
X17046834Y-24707676D01*
X17044710Y-24693358D01*
X17044000Y-24678900D01*
X17044000Y-24383900D01*
X17044710Y-24369442D01*
X17046834Y-24355124D01*
X17050351Y-24341083D01*
X17055228Y-24327454D01*
X17061417Y-24314369D01*
X17068858Y-24301953D01*
X17077481Y-24290327D01*
X17087202Y-24279602D01*
X17097927Y-24269881D01*
X17109553Y-24261258D01*
X17121969Y-24253817D01*
X17135054Y-24247628D01*
X17148683Y-24242751D01*
X17162724Y-24239234D01*
X17177042Y-24237110D01*
X17191500Y-24236400D01*
X17536500Y-24236400D01*
X17550958Y-24237110D01*
G37*
G04 #@! TD.AperFunction*
G04 #@! TA.AperFunction,SMDPad,CuDef*
G36*
X17550958Y-23267110D02*
G01*
X17565276Y-23269234D01*
X17579317Y-23272751D01*
X17592946Y-23277628D01*
X17606031Y-23283817D01*
X17618447Y-23291258D01*
X17630073Y-23299881D01*
X17640798Y-23309602D01*
X17650519Y-23320327D01*
X17659142Y-23331953D01*
X17666583Y-23344369D01*
X17672772Y-23357454D01*
X17677649Y-23371083D01*
X17681166Y-23385124D01*
X17683290Y-23399442D01*
X17684000Y-23413900D01*
X17684000Y-23708900D01*
X17683290Y-23723358D01*
X17681166Y-23737676D01*
X17677649Y-23751717D01*
X17672772Y-23765346D01*
X17666583Y-23778431D01*
X17659142Y-23790847D01*
X17650519Y-23802473D01*
X17640798Y-23813198D01*
X17630073Y-23822919D01*
X17618447Y-23831542D01*
X17606031Y-23838983D01*
X17592946Y-23845172D01*
X17579317Y-23850049D01*
X17565276Y-23853566D01*
X17550958Y-23855690D01*
X17536500Y-23856400D01*
X17191500Y-23856400D01*
X17177042Y-23855690D01*
X17162724Y-23853566D01*
X17148683Y-23850049D01*
X17135054Y-23845172D01*
X17121969Y-23838983D01*
X17109553Y-23831542D01*
X17097927Y-23822919D01*
X17087202Y-23813198D01*
X17077481Y-23802473D01*
X17068858Y-23790847D01*
X17061417Y-23778431D01*
X17055228Y-23765346D01*
X17050351Y-23751717D01*
X17046834Y-23737676D01*
X17044710Y-23723358D01*
X17044000Y-23708900D01*
X17044000Y-23413900D01*
X17044710Y-23399442D01*
X17046834Y-23385124D01*
X17050351Y-23371083D01*
X17055228Y-23357454D01*
X17061417Y-23344369D01*
X17068858Y-23331953D01*
X17077481Y-23320327D01*
X17087202Y-23309602D01*
X17097927Y-23299881D01*
X17109553Y-23291258D01*
X17121969Y-23283817D01*
X17135054Y-23277628D01*
X17148683Y-23272751D01*
X17162724Y-23269234D01*
X17177042Y-23267110D01*
X17191500Y-23266400D01*
X17536500Y-23266400D01*
X17550958Y-23267110D01*
G37*
G04 #@! TD.AperFunction*
G04 #@! TA.AperFunction,SMDPad,CuDef*
G36*
X18140958Y-24227110D02*
G01*
X18155276Y-24229234D01*
X18169317Y-24232751D01*
X18182946Y-24237628D01*
X18196031Y-24243817D01*
X18208447Y-24251258D01*
X18220073Y-24259881D01*
X18230798Y-24269602D01*
X18240519Y-24280327D01*
X18249142Y-24291953D01*
X18256583Y-24304369D01*
X18262772Y-24317454D01*
X18267649Y-24331083D01*
X18271166Y-24345124D01*
X18273290Y-24359442D01*
X18274000Y-24373900D01*
X18274000Y-24718900D01*
X18273290Y-24733358D01*
X18271166Y-24747676D01*
X18267649Y-24761717D01*
X18262772Y-24775346D01*
X18256583Y-24788431D01*
X18249142Y-24800847D01*
X18240519Y-24812473D01*
X18230798Y-24823198D01*
X18220073Y-24832919D01*
X18208447Y-24841542D01*
X18196031Y-24848983D01*
X18182946Y-24855172D01*
X18169317Y-24860049D01*
X18155276Y-24863566D01*
X18140958Y-24865690D01*
X18126500Y-24866400D01*
X17831500Y-24866400D01*
X17817042Y-24865690D01*
X17802724Y-24863566D01*
X17788683Y-24860049D01*
X17775054Y-24855172D01*
X17761969Y-24848983D01*
X17749553Y-24841542D01*
X17737927Y-24832919D01*
X17727202Y-24823198D01*
X17717481Y-24812473D01*
X17708858Y-24800847D01*
X17701417Y-24788431D01*
X17695228Y-24775346D01*
X17690351Y-24761717D01*
X17686834Y-24747676D01*
X17684710Y-24733358D01*
X17684000Y-24718900D01*
X17684000Y-24373900D01*
X17684710Y-24359442D01*
X17686834Y-24345124D01*
X17690351Y-24331083D01*
X17695228Y-24317454D01*
X17701417Y-24304369D01*
X17708858Y-24291953D01*
X17717481Y-24280327D01*
X17727202Y-24269602D01*
X17737927Y-24259881D01*
X17749553Y-24251258D01*
X17761969Y-24243817D01*
X17775054Y-24237628D01*
X17788683Y-24232751D01*
X17802724Y-24229234D01*
X17817042Y-24227110D01*
X17831500Y-24226400D01*
X18126500Y-24226400D01*
X18140958Y-24227110D01*
G37*
G04 #@! TD.AperFunction*
G04 #@! TA.AperFunction,SMDPad,CuDef*
G36*
X19110958Y-24227110D02*
G01*
X19125276Y-24229234D01*
X19139317Y-24232751D01*
X19152946Y-24237628D01*
X19166031Y-24243817D01*
X19178447Y-24251258D01*
X19190073Y-24259881D01*
X19200798Y-24269602D01*
X19210519Y-24280327D01*
X19219142Y-24291953D01*
X19226583Y-24304369D01*
X19232772Y-24317454D01*
X19237649Y-24331083D01*
X19241166Y-24345124D01*
X19243290Y-24359442D01*
X19244000Y-24373900D01*
X19244000Y-24718900D01*
X19243290Y-24733358D01*
X19241166Y-24747676D01*
X19237649Y-24761717D01*
X19232772Y-24775346D01*
X19226583Y-24788431D01*
X19219142Y-24800847D01*
X19210519Y-24812473D01*
X19200798Y-24823198D01*
X19190073Y-24832919D01*
X19178447Y-24841542D01*
X19166031Y-24848983D01*
X19152946Y-24855172D01*
X19139317Y-24860049D01*
X19125276Y-24863566D01*
X19110958Y-24865690D01*
X19096500Y-24866400D01*
X18801500Y-24866400D01*
X18787042Y-24865690D01*
X18772724Y-24863566D01*
X18758683Y-24860049D01*
X18745054Y-24855172D01*
X18731969Y-24848983D01*
X18719553Y-24841542D01*
X18707927Y-24832919D01*
X18697202Y-24823198D01*
X18687481Y-24812473D01*
X18678858Y-24800847D01*
X18671417Y-24788431D01*
X18665228Y-24775346D01*
X18660351Y-24761717D01*
X18656834Y-24747676D01*
X18654710Y-24733358D01*
X18654000Y-24718900D01*
X18654000Y-24373900D01*
X18654710Y-24359442D01*
X18656834Y-24345124D01*
X18660351Y-24331083D01*
X18665228Y-24317454D01*
X18671417Y-24304369D01*
X18678858Y-24291953D01*
X18687481Y-24280327D01*
X18697202Y-24269602D01*
X18707927Y-24259881D01*
X18719553Y-24251258D01*
X18731969Y-24243817D01*
X18745054Y-24237628D01*
X18758683Y-24232751D01*
X18772724Y-24229234D01*
X18787042Y-24227110D01*
X18801500Y-24226400D01*
X19096500Y-24226400D01*
X19110958Y-24227110D01*
G37*
G04 #@! TD.AperFunction*
G04 #@! TA.AperFunction,SMDPad,CuDef*
G36*
X20939000Y-14446400D02*
G01*
X20189000Y-13946400D01*
X20189000Y-12946400D01*
X20939000Y-12446400D01*
X20939000Y-14446400D01*
G37*
G04 #@! TD.AperFunction*
D19*
X22914000Y-13446400D03*
D20*
X18954000Y-14946400D03*
X18954000Y-13446400D03*
X18954000Y-11946400D03*
G04 #@! TA.AperFunction,SMDPad,CuDef*
D15*
G36*
X19150958Y-20617109D02*
G01*
X19165276Y-20619233D01*
X19179317Y-20622750D01*
X19192946Y-20627627D01*
X19206031Y-20633816D01*
X19218447Y-20641257D01*
X19230073Y-20649880D01*
X19240798Y-20659601D01*
X19250519Y-20670326D01*
X19259142Y-20681952D01*
X19266583Y-20694368D01*
X19272772Y-20707453D01*
X19277649Y-20721082D01*
X19281166Y-20735123D01*
X19283290Y-20749441D01*
X19284000Y-20763899D01*
X19284000Y-21058899D01*
X19283290Y-21073357D01*
X19281166Y-21087675D01*
X19277649Y-21101716D01*
X19272772Y-21115345D01*
X19266583Y-21128430D01*
X19259142Y-21140846D01*
X19250519Y-21152472D01*
X19240798Y-21163197D01*
X19230073Y-21172918D01*
X19218447Y-21181541D01*
X19206031Y-21188982D01*
X19192946Y-21195171D01*
X19179317Y-21200048D01*
X19165276Y-21203565D01*
X19150958Y-21205689D01*
X19136500Y-21206399D01*
X18791500Y-21206399D01*
X18777042Y-21205689D01*
X18762724Y-21203565D01*
X18748683Y-21200048D01*
X18735054Y-21195171D01*
X18721969Y-21188982D01*
X18709553Y-21181541D01*
X18697927Y-21172918D01*
X18687202Y-21163197D01*
X18677481Y-21152472D01*
X18668858Y-21140846D01*
X18661417Y-21128430D01*
X18655228Y-21115345D01*
X18650351Y-21101716D01*
X18646834Y-21087675D01*
X18644710Y-21073357D01*
X18644000Y-21058899D01*
X18644000Y-20763899D01*
X18644710Y-20749441D01*
X18646834Y-20735123D01*
X18650351Y-20721082D01*
X18655228Y-20707453D01*
X18661417Y-20694368D01*
X18668858Y-20681952D01*
X18677481Y-20670326D01*
X18687202Y-20659601D01*
X18697927Y-20649880D01*
X18709553Y-20641257D01*
X18721969Y-20633816D01*
X18735054Y-20627627D01*
X18748683Y-20622750D01*
X18762724Y-20619233D01*
X18777042Y-20617109D01*
X18791500Y-20616399D01*
X19136500Y-20616399D01*
X19150958Y-20617109D01*
G37*
G04 #@! TD.AperFunction*
G04 #@! TA.AperFunction,SMDPad,CuDef*
G36*
X19150958Y-21587109D02*
G01*
X19165276Y-21589233D01*
X19179317Y-21592750D01*
X19192946Y-21597627D01*
X19206031Y-21603816D01*
X19218447Y-21611257D01*
X19230073Y-21619880D01*
X19240798Y-21629601D01*
X19250519Y-21640326D01*
X19259142Y-21651952D01*
X19266583Y-21664368D01*
X19272772Y-21677453D01*
X19277649Y-21691082D01*
X19281166Y-21705123D01*
X19283290Y-21719441D01*
X19284000Y-21733899D01*
X19284000Y-22028899D01*
X19283290Y-22043357D01*
X19281166Y-22057675D01*
X19277649Y-22071716D01*
X19272772Y-22085345D01*
X19266583Y-22098430D01*
X19259142Y-22110846D01*
X19250519Y-22122472D01*
X19240798Y-22133197D01*
X19230073Y-22142918D01*
X19218447Y-22151541D01*
X19206031Y-22158982D01*
X19192946Y-22165171D01*
X19179317Y-22170048D01*
X19165276Y-22173565D01*
X19150958Y-22175689D01*
X19136500Y-22176399D01*
X18791500Y-22176399D01*
X18777042Y-22175689D01*
X18762724Y-22173565D01*
X18748683Y-22170048D01*
X18735054Y-22165171D01*
X18721969Y-22158982D01*
X18709553Y-22151541D01*
X18697927Y-22142918D01*
X18687202Y-22133197D01*
X18677481Y-22122472D01*
X18668858Y-22110846D01*
X18661417Y-22098430D01*
X18655228Y-22085345D01*
X18650351Y-22071716D01*
X18646834Y-22057675D01*
X18644710Y-22043357D01*
X18644000Y-22028899D01*
X18644000Y-21733899D01*
X18644710Y-21719441D01*
X18646834Y-21705123D01*
X18650351Y-21691082D01*
X18655228Y-21677453D01*
X18661417Y-21664368D01*
X18668858Y-21651952D01*
X18677481Y-21640326D01*
X18687202Y-21629601D01*
X18697927Y-21619880D01*
X18709553Y-21611257D01*
X18721969Y-21603816D01*
X18735054Y-21597627D01*
X18748683Y-21592750D01*
X18762724Y-21589233D01*
X18777042Y-21587109D01*
X18791500Y-21586399D01*
X19136500Y-21586399D01*
X19150958Y-21587109D01*
G37*
G04 #@! TD.AperFunction*
G04 #@! TA.AperFunction,SMDPad,CuDef*
G36*
X15440958Y-11627110D02*
G01*
X15455276Y-11629234D01*
X15469317Y-11632751D01*
X15482946Y-11637628D01*
X15496031Y-11643817D01*
X15508447Y-11651258D01*
X15520073Y-11659881D01*
X15530798Y-11669602D01*
X15540519Y-11680327D01*
X15549142Y-11691953D01*
X15556583Y-11704369D01*
X15562772Y-11717454D01*
X15567649Y-11731083D01*
X15571166Y-11745124D01*
X15573290Y-11759442D01*
X15574000Y-11773900D01*
X15574000Y-12118900D01*
X15573290Y-12133358D01*
X15571166Y-12147676D01*
X15567649Y-12161717D01*
X15562772Y-12175346D01*
X15556583Y-12188431D01*
X15549142Y-12200847D01*
X15540519Y-12212473D01*
X15530798Y-12223198D01*
X15520073Y-12232919D01*
X15508447Y-12241542D01*
X15496031Y-12248983D01*
X15482946Y-12255172D01*
X15469317Y-12260049D01*
X15455276Y-12263566D01*
X15440958Y-12265690D01*
X15426500Y-12266400D01*
X15131500Y-12266400D01*
X15117042Y-12265690D01*
X15102724Y-12263566D01*
X15088683Y-12260049D01*
X15075054Y-12255172D01*
X15061969Y-12248983D01*
X15049553Y-12241542D01*
X15037927Y-12232919D01*
X15027202Y-12223198D01*
X15017481Y-12212473D01*
X15008858Y-12200847D01*
X15001417Y-12188431D01*
X14995228Y-12175346D01*
X14990351Y-12161717D01*
X14986834Y-12147676D01*
X14984710Y-12133358D01*
X14984000Y-12118900D01*
X14984000Y-11773900D01*
X14984710Y-11759442D01*
X14986834Y-11745124D01*
X14990351Y-11731083D01*
X14995228Y-11717454D01*
X15001417Y-11704369D01*
X15008858Y-11691953D01*
X15017481Y-11680327D01*
X15027202Y-11669602D01*
X15037927Y-11659881D01*
X15049553Y-11651258D01*
X15061969Y-11643817D01*
X15075054Y-11637628D01*
X15088683Y-11632751D01*
X15102724Y-11629234D01*
X15117042Y-11627110D01*
X15131500Y-11626400D01*
X15426500Y-11626400D01*
X15440958Y-11627110D01*
G37*
G04 #@! TD.AperFunction*
G04 #@! TA.AperFunction,SMDPad,CuDef*
G36*
X16410958Y-11627110D02*
G01*
X16425276Y-11629234D01*
X16439317Y-11632751D01*
X16452946Y-11637628D01*
X16466031Y-11643817D01*
X16478447Y-11651258D01*
X16490073Y-11659881D01*
X16500798Y-11669602D01*
X16510519Y-11680327D01*
X16519142Y-11691953D01*
X16526583Y-11704369D01*
X16532772Y-11717454D01*
X16537649Y-11731083D01*
X16541166Y-11745124D01*
X16543290Y-11759442D01*
X16544000Y-11773900D01*
X16544000Y-12118900D01*
X16543290Y-12133358D01*
X16541166Y-12147676D01*
X16537649Y-12161717D01*
X16532772Y-12175346D01*
X16526583Y-12188431D01*
X16519142Y-12200847D01*
X16510519Y-12212473D01*
X16500798Y-12223198D01*
X16490073Y-12232919D01*
X16478447Y-12241542D01*
X16466031Y-12248983D01*
X16452946Y-12255172D01*
X16439317Y-12260049D01*
X16425276Y-12263566D01*
X16410958Y-12265690D01*
X16396500Y-12266400D01*
X16101500Y-12266400D01*
X16087042Y-12265690D01*
X16072724Y-12263566D01*
X16058683Y-12260049D01*
X16045054Y-12255172D01*
X16031969Y-12248983D01*
X16019553Y-12241542D01*
X16007927Y-12232919D01*
X15997202Y-12223198D01*
X15987481Y-12212473D01*
X15978858Y-12200847D01*
X15971417Y-12188431D01*
X15965228Y-12175346D01*
X15960351Y-12161717D01*
X15956834Y-12147676D01*
X15954710Y-12133358D01*
X15954000Y-12118900D01*
X15954000Y-11773900D01*
X15954710Y-11759442D01*
X15956834Y-11745124D01*
X15960351Y-11731083D01*
X15965228Y-11717454D01*
X15971417Y-11704369D01*
X15978858Y-11691953D01*
X15987481Y-11680327D01*
X15997202Y-11669602D01*
X16007927Y-11659881D01*
X16019553Y-11651258D01*
X16031969Y-11643817D01*
X16045054Y-11637628D01*
X16058683Y-11632751D01*
X16072724Y-11629234D01*
X16087042Y-11627110D01*
X16101500Y-11626400D01*
X16396500Y-11626400D01*
X16410958Y-11627110D01*
G37*
G04 #@! TD.AperFunction*
G04 #@! TA.AperFunction,SMDPad,CuDef*
G36*
X14400958Y-9787110D02*
G01*
X14415276Y-9789234D01*
X14429317Y-9792751D01*
X14442946Y-9797628D01*
X14456031Y-9803817D01*
X14468447Y-9811258D01*
X14480073Y-9819881D01*
X14490798Y-9829602D01*
X14500519Y-9840327D01*
X14509142Y-9851953D01*
X14516583Y-9864369D01*
X14522772Y-9877454D01*
X14527649Y-9891083D01*
X14531166Y-9905124D01*
X14533290Y-9919442D01*
X14534000Y-9933900D01*
X14534000Y-10228900D01*
X14533290Y-10243358D01*
X14531166Y-10257676D01*
X14527649Y-10271717D01*
X14522772Y-10285346D01*
X14516583Y-10298431D01*
X14509142Y-10310847D01*
X14500519Y-10322473D01*
X14490798Y-10333198D01*
X14480073Y-10342919D01*
X14468447Y-10351542D01*
X14456031Y-10358983D01*
X14442946Y-10365172D01*
X14429317Y-10370049D01*
X14415276Y-10373566D01*
X14400958Y-10375690D01*
X14386500Y-10376400D01*
X14041500Y-10376400D01*
X14027042Y-10375690D01*
X14012724Y-10373566D01*
X13998683Y-10370049D01*
X13985054Y-10365172D01*
X13971969Y-10358983D01*
X13959553Y-10351542D01*
X13947927Y-10342919D01*
X13937202Y-10333198D01*
X13927481Y-10322473D01*
X13918858Y-10310847D01*
X13911417Y-10298431D01*
X13905228Y-10285346D01*
X13900351Y-10271717D01*
X13896834Y-10257676D01*
X13894710Y-10243358D01*
X13894000Y-10228900D01*
X13894000Y-9933900D01*
X13894710Y-9919442D01*
X13896834Y-9905124D01*
X13900351Y-9891083D01*
X13905228Y-9877454D01*
X13911417Y-9864369D01*
X13918858Y-9851953D01*
X13927481Y-9840327D01*
X13937202Y-9829602D01*
X13947927Y-9819881D01*
X13959553Y-9811258D01*
X13971969Y-9803817D01*
X13985054Y-9797628D01*
X13998683Y-9792751D01*
X14012724Y-9789234D01*
X14027042Y-9787110D01*
X14041500Y-9786400D01*
X14386500Y-9786400D01*
X14400958Y-9787110D01*
G37*
G04 #@! TD.AperFunction*
G04 #@! TA.AperFunction,SMDPad,CuDef*
G36*
X14400958Y-8817110D02*
G01*
X14415276Y-8819234D01*
X14429317Y-8822751D01*
X14442946Y-8827628D01*
X14456031Y-8833817D01*
X14468447Y-8841258D01*
X14480073Y-8849881D01*
X14490798Y-8859602D01*
X14500519Y-8870327D01*
X14509142Y-8881953D01*
X14516583Y-8894369D01*
X14522772Y-8907454D01*
X14527649Y-8921083D01*
X14531166Y-8935124D01*
X14533290Y-8949442D01*
X14534000Y-8963900D01*
X14534000Y-9258900D01*
X14533290Y-9273358D01*
X14531166Y-9287676D01*
X14527649Y-9301717D01*
X14522772Y-9315346D01*
X14516583Y-9328431D01*
X14509142Y-9340847D01*
X14500519Y-9352473D01*
X14490798Y-9363198D01*
X14480073Y-9372919D01*
X14468447Y-9381542D01*
X14456031Y-9388983D01*
X14442946Y-9395172D01*
X14429317Y-9400049D01*
X14415276Y-9403566D01*
X14400958Y-9405690D01*
X14386500Y-9406400D01*
X14041500Y-9406400D01*
X14027042Y-9405690D01*
X14012724Y-9403566D01*
X13998683Y-9400049D01*
X13985054Y-9395172D01*
X13971969Y-9388983D01*
X13959553Y-9381542D01*
X13947927Y-9372919D01*
X13937202Y-9363198D01*
X13927481Y-9352473D01*
X13918858Y-9340847D01*
X13911417Y-9328431D01*
X13905228Y-9315346D01*
X13900351Y-9301717D01*
X13896834Y-9287676D01*
X13894710Y-9273358D01*
X13894000Y-9258900D01*
X13894000Y-8963900D01*
X13894710Y-8949442D01*
X13896834Y-8935124D01*
X13900351Y-8921083D01*
X13905228Y-8907454D01*
X13911417Y-8894369D01*
X13918858Y-8881953D01*
X13927481Y-8870327D01*
X13937202Y-8859602D01*
X13947927Y-8849881D01*
X13959553Y-8841258D01*
X13971969Y-8833817D01*
X13985054Y-8827628D01*
X13998683Y-8822751D01*
X14012724Y-8819234D01*
X14027042Y-8817110D01*
X14041500Y-8816400D01*
X14386500Y-8816400D01*
X14400958Y-8817110D01*
G37*
G04 #@! TD.AperFunction*
D21*
X20269000Y-67696400D03*
X18999000Y-67696400D03*
X17729000Y-67696400D03*
X16459000Y-67696400D03*
X16459000Y-62296400D03*
X17729000Y-62296400D03*
X18999000Y-62296400D03*
X20269000Y-62296400D03*
X20269000Y-58546400D03*
X18999000Y-58546400D03*
X17729000Y-58546400D03*
X16459000Y-58546400D03*
X16459000Y-53146400D03*
X17729000Y-53146400D03*
X18999000Y-53146400D03*
X20269000Y-53146400D03*
X20316960Y-49467400D03*
X19046960Y-49467400D03*
X17776960Y-49467400D03*
X16506960Y-49467400D03*
X16506960Y-44067400D03*
X17776960Y-44067400D03*
X19046960Y-44067400D03*
X20316960Y-44067400D03*
X20219000Y-40246400D03*
X18949000Y-40246400D03*
X17679000Y-40246400D03*
X16409000Y-40246400D03*
X16409000Y-34846400D03*
X17679000Y-34846400D03*
X18949000Y-34846400D03*
X20219000Y-34846400D03*
X20268999Y-31146401D03*
X18998999Y-31146401D03*
X17728999Y-31146401D03*
X16458999Y-31146401D03*
X16458999Y-25746401D03*
X17728999Y-25746401D03*
X18998999Y-25746401D03*
X20268999Y-25746401D03*
D22*
X14214000Y-14501400D03*
X14214000Y-13231400D03*
X14214000Y-11961400D03*
X14214000Y-10691400D03*
X8814000Y-10691400D03*
X8814000Y-11961400D03*
X8814000Y-13231400D03*
X8814000Y-14501400D03*
D23*
X11514000Y-12596400D03*
D24*
X16459000Y-41440560D02*
X17164840Y-42146400D01*
X16459000Y-40346400D02*
X16459000Y-41440560D01*
X16459000Y-59690559D02*
X16459000Y-58546400D01*
X17214840Y-60446399D02*
X16459000Y-59690559D01*
X16506960Y-50588519D02*
X17164841Y-51246400D01*
X16506960Y-49467400D02*
X16506960Y-50588519D01*
X17728999Y-25746401D02*
X16458999Y-25746401D01*
X17728999Y-24896399D02*
X17364000Y-24531400D01*
X17728999Y-25746401D02*
X17728999Y-24896399D01*
X17728999Y-24796401D02*
X17979000Y-24546400D01*
X17728999Y-25746401D02*
X17728999Y-24796401D01*
X20275560Y-58539840D02*
X20269001Y-58546400D01*
X21864000Y-58539840D02*
X20275560Y-58539840D01*
X20339599Y-49444761D02*
X20316960Y-49467400D01*
X21914000Y-49444761D02*
X20339599Y-49444761D01*
X21812359Y-67696400D02*
X21864000Y-67644759D01*
X20269001Y-67696400D02*
X21812359Y-67696400D01*
X21914000Y-49444761D02*
X21914000Y-49393961D01*
X21864000Y-67593959D02*
X21864000Y-67644759D01*
X13710640Y-10691400D02*
X12164000Y-9144760D01*
X14214000Y-10691400D02*
X13710640Y-10691400D01*
X14214001Y-10081400D02*
X14214000Y-10691400D01*
X21614000Y-40246400D02*
X21764000Y-40396400D01*
X20219000Y-40246400D02*
X21614000Y-40246400D01*
X21715641Y-31146401D02*
X21814000Y-31244760D01*
X20268999Y-31146401D02*
X21715641Y-31146401D01*
X22713110Y-31244760D02*
X22714750Y-31246400D01*
X21814000Y-31244760D02*
X22713110Y-31244760D01*
X22714750Y-31246400D02*
X25964000Y-31246400D01*
X21764000Y-40396400D02*
X26014000Y-40396400D01*
X21814000Y-49494760D02*
X26012360Y-49494760D01*
X22763110Y-58539840D02*
X22806550Y-58496400D01*
X21864000Y-58539840D02*
X22763110Y-58539840D01*
X22806550Y-58496400D02*
X26064000Y-58496400D01*
X22763110Y-67644759D02*
X22764751Y-67646400D01*
X21864000Y-67644759D02*
X22763110Y-67644759D01*
X22764751Y-67646400D02*
X26114000Y-67646400D01*
X26114000Y-58546400D02*
X26064000Y-58496400D01*
X26114000Y-67646400D02*
X26114000Y-58546400D01*
X26114000Y-49596400D02*
X26012360Y-49494760D01*
X26114000Y-58546400D02*
X26114000Y-49596400D01*
X26114000Y-40496400D02*
X26014000Y-40396400D01*
X26114000Y-49596400D02*
X26114000Y-40496400D01*
X26114000Y-31396400D02*
X25964000Y-31246400D01*
X26114000Y-40496400D02*
X26114000Y-31396400D01*
X23462360Y-19046400D02*
X23464000Y-19048040D01*
X22563160Y-19046400D02*
X23462360Y-19046400D01*
X20749000Y-68176400D02*
X20269000Y-67696400D01*
X20914000Y-68176400D02*
X20749000Y-68176400D01*
X20819000Y-59096400D02*
X20269000Y-58546400D01*
X20914000Y-59096400D02*
X20819000Y-59096400D01*
X20760960Y-49911400D02*
X20316960Y-49467400D01*
X20914000Y-49911400D02*
X20760960Y-49911400D01*
X20669000Y-40696400D02*
X20219000Y-40246400D01*
X20914000Y-40696400D02*
X20669000Y-40696400D01*
X20748998Y-31626400D02*
X20268999Y-31146401D01*
X20914000Y-31626400D02*
X20748998Y-31626400D01*
D25*
X24414000Y-19046400D02*
X24614000Y-18846400D01*
X22563160Y-19046400D02*
X24414000Y-19046400D01*
D24*
X18998999Y-25746401D02*
X18998999Y-25271402D01*
X18949000Y-25696402D02*
X18998999Y-25746401D01*
X18949000Y-24546400D02*
X18949000Y-25696402D01*
X18964000Y-24531400D02*
X18949000Y-24546400D01*
X18964000Y-23881399D02*
X18964000Y-24531400D01*
D25*
X18964000Y-23881399D02*
X18964000Y-22184000D01*
D24*
X18999000Y-70781399D02*
X19014001Y-70796400D01*
X18999001Y-67696400D02*
X18999000Y-70781399D01*
X15559840Y-14501400D02*
X15564000Y-14497240D01*
X14214000Y-14501400D02*
X15559840Y-14501400D01*
X18999000Y-31146402D02*
X18998999Y-31146401D01*
X18999000Y-34946400D02*
X18999000Y-31146402D01*
X19046960Y-40394360D02*
X18999000Y-40346400D01*
X19046960Y-43467400D02*
X19046960Y-40394360D01*
X19099000Y-49519440D02*
X19046960Y-49467400D01*
X18963161Y-53110561D02*
X18999000Y-53146400D01*
X18963160Y-51246400D02*
X18963161Y-53110561D01*
X18963161Y-49551199D02*
X19046960Y-49467400D01*
X18963161Y-51246400D02*
X18963161Y-49551199D01*
X18999000Y-62296399D02*
X18999001Y-58546400D01*
X18999000Y-60460559D02*
X19013160Y-60446400D01*
X18999000Y-62296399D02*
X18999000Y-60460559D01*
X17679000Y-34846400D02*
X16409000Y-34846400D01*
X17776960Y-44067400D02*
X16506960Y-44067400D01*
X16459000Y-53146400D02*
X17729000Y-53146400D01*
X17729000Y-62296400D02*
X16459000Y-62296400D01*
D25*
X759500Y-10671000D02*
X2659500Y-10671000D01*
D24*
X14229000Y-11946400D02*
X14214000Y-11961400D01*
X15279000Y-11946400D02*
X14229000Y-11946400D01*
D25*
X18954000Y-11946400D02*
X16564000Y-11946400D01*
X18954000Y-16446400D02*
X18964000Y-16456400D01*
X18954000Y-14946400D02*
X18954000Y-16446400D01*
X18964000Y-16456400D02*
X18964000Y-18496400D01*
X18964000Y-18496400D02*
X18964000Y-18881400D01*
X18964000Y-18881400D02*
X18964000Y-20596400D01*
D24*
X7764000Y-13231400D02*
X7749000Y-13246400D01*
X8814000Y-13231400D02*
X7764000Y-13231400D01*
X3876000Y-8034200D02*
X4341000Y-7569200D01*
X3876000Y-8677400D02*
X3876000Y-8034200D01*
X4341000Y-7569200D02*
X4341000Y-6553200D01*
X4318000Y-6530200D02*
X4341000Y-6553200D01*
X4318000Y-5565000D02*
X4318000Y-6530200D01*
X3115600Y-10687200D02*
X3121800Y-10693400D01*
X8809000Y-10696400D02*
X8814000Y-10691400D01*
D25*
X8985390Y-10691400D02*
X6756400Y-10691400D01*
X6742400Y-10677400D02*
X5343400Y-10677400D01*
X6756400Y-10691400D02*
X6742400Y-10677400D01*
D24*
G36*
X33278367Y-199943D02*
G01*
X33413393Y-73606112D01*
X331014Y-73596642D01*
X258311Y-34071400D01*
X15707065Y-34071400D01*
X15707065Y-35621400D01*
X15714788Y-35699814D01*
X15737660Y-35775214D01*
X15774803Y-35844703D01*
X15824789Y-35905611D01*
X15885697Y-35955597D01*
X15955186Y-35992740D01*
X16030586Y-36015612D01*
X16109000Y-36023335D01*
X16709000Y-36023335D01*
X16787414Y-36015612D01*
X16862814Y-35992740D01*
X16932303Y-35955597D01*
X16993211Y-35905611D01*
X17043197Y-35844703D01*
X17044000Y-35843201D01*
X17044803Y-35844703D01*
X17094789Y-35905611D01*
X17155697Y-35955597D01*
X17225186Y-35992740D01*
X17300586Y-36015612D01*
X17379000Y-36023335D01*
X17979000Y-36023335D01*
X18057414Y-36015612D01*
X18132814Y-35992740D01*
X18202303Y-35955597D01*
X18263211Y-35905611D01*
X18313197Y-35844703D01*
X18314000Y-35843201D01*
X18314803Y-35844703D01*
X18364789Y-35905611D01*
X18425697Y-35955597D01*
X18495186Y-35992740D01*
X18570586Y-36015612D01*
X18649000Y-36023335D01*
X19249000Y-36023335D01*
X19327414Y-36015612D01*
X19402814Y-35992740D01*
X19472303Y-35955597D01*
X19533211Y-35905611D01*
X19583197Y-35844703D01*
X19584000Y-35843201D01*
X19584803Y-35844703D01*
X19634789Y-35905611D01*
X19695697Y-35955597D01*
X19765186Y-35992740D01*
X19840586Y-36015612D01*
X19919000Y-36023335D01*
X20519000Y-36023335D01*
X20597414Y-36015612D01*
X20672814Y-35992740D01*
X20742303Y-35955597D01*
X20803211Y-35905611D01*
X20853197Y-35844703D01*
X20890340Y-35775214D01*
X20913212Y-35699814D01*
X20920935Y-35621400D01*
X20920935Y-34071400D01*
X20913212Y-33992986D01*
X20890340Y-33917586D01*
X20853197Y-33848097D01*
X20803211Y-33787189D01*
X20742303Y-33737203D01*
X20672814Y-33700060D01*
X20597414Y-33677188D01*
X20519000Y-33669465D01*
X19919000Y-33669465D01*
X19840586Y-33677188D01*
X19765186Y-33700060D01*
X19758165Y-33703813D01*
X19763875Y-33645840D01*
X19763875Y-32446960D01*
X19756152Y-32368546D01*
X19733280Y-32293146D01*
X19696137Y-32223657D01*
X19646151Y-32162749D01*
X19629561Y-32149134D01*
X19633196Y-32144704D01*
X19633999Y-32143202D01*
X19634802Y-32144704D01*
X19684788Y-32205612D01*
X19745696Y-32255598D01*
X19815185Y-32292741D01*
X19890585Y-32315613D01*
X19968999Y-32323336D01*
X20568999Y-32323336D01*
X20647413Y-32315613D01*
X20651257Y-32314447D01*
X20741500Y-32323335D01*
X21086500Y-32323335D01*
X21193689Y-32312778D01*
X21296760Y-32281512D01*
X21391750Y-32230739D01*
X21433342Y-32196605D01*
X22313110Y-32196605D01*
X22391524Y-32188882D01*
X22466924Y-32166010D01*
X22536413Y-32128867D01*
X22597321Y-32078881D01*
X22647307Y-32017973D01*
X22684450Y-31948484D01*
X22707322Y-31873084D01*
X22709713Y-31848807D01*
X22714749Y-31849303D01*
X22744223Y-31846400D01*
X24862065Y-31846400D01*
X24862065Y-32096400D01*
X24869788Y-32174814D01*
X24892660Y-32250214D01*
X24929803Y-32319703D01*
X24979789Y-32380611D01*
X25040697Y-32430597D01*
X25110186Y-32467740D01*
X25185586Y-32490612D01*
X25264000Y-32498335D01*
X25514001Y-32498335D01*
X25514000Y-39796400D01*
X22660112Y-39796400D01*
X22657322Y-39768076D01*
X22634450Y-39692676D01*
X22597307Y-39623187D01*
X22547321Y-39562279D01*
X22486413Y-39512293D01*
X22416924Y-39475150D01*
X22341524Y-39452278D01*
X22263110Y-39444555D01*
X21264890Y-39444555D01*
X21186476Y-39452278D01*
X21111076Y-39475150D01*
X21041587Y-39512293D01*
X20980679Y-39562279D01*
X20930693Y-39623187D01*
X20920935Y-39641443D01*
X20920935Y-39471400D01*
X20913212Y-39392986D01*
X20890340Y-39317586D01*
X20853197Y-39248097D01*
X20803211Y-39187189D01*
X20742303Y-39137203D01*
X20672814Y-39100060D01*
X20597414Y-39077188D01*
X20519000Y-39069465D01*
X19919000Y-39069465D01*
X19840586Y-39077188D01*
X19765186Y-39100060D01*
X19695697Y-39137203D01*
X19634789Y-39187189D01*
X19584803Y-39248097D01*
X19584000Y-39249599D01*
X19583197Y-39248097D01*
X19533211Y-39187189D01*
X19472303Y-39137203D01*
X19402814Y-39100060D01*
X19327414Y-39077188D01*
X19249000Y-39069465D01*
X18649000Y-39069465D01*
X18570586Y-39077188D01*
X18495186Y-39100060D01*
X18425697Y-39137203D01*
X18364789Y-39187189D01*
X18314803Y-39248097D01*
X18314000Y-39249599D01*
X18313197Y-39248097D01*
X18263211Y-39187189D01*
X18202303Y-39137203D01*
X18132814Y-39100060D01*
X18057414Y-39077188D01*
X17979000Y-39069465D01*
X17379000Y-39069465D01*
X17300586Y-39077188D01*
X17225186Y-39100060D01*
X17155697Y-39137203D01*
X17094789Y-39187189D01*
X17044803Y-39248097D01*
X17007660Y-39317586D01*
X16984788Y-39392986D01*
X16977065Y-39471400D01*
X16977065Y-41021400D01*
X16984788Y-41099814D01*
X17007660Y-41175214D01*
X17044803Y-41244703D01*
X17094789Y-41305611D01*
X17155697Y-41355597D01*
X17225186Y-41392740D01*
X17300586Y-41415612D01*
X17379000Y-41423335D01*
X17979000Y-41423335D01*
X18057414Y-41415612D01*
X18132814Y-41392740D01*
X18202303Y-41355597D01*
X18221556Y-41339796D01*
X18193040Y-41393146D01*
X18170168Y-41468546D01*
X18162445Y-41546960D01*
X18162445Y-42745840D01*
X18170168Y-42824254D01*
X18193040Y-42899654D01*
X18199394Y-42911541D01*
X18155374Y-42898188D01*
X18076960Y-42890465D01*
X17476960Y-42890465D01*
X17398546Y-42898188D01*
X17323146Y-42921060D01*
X17253657Y-42958203D01*
X17192749Y-43008189D01*
X17142763Y-43069097D01*
X17141960Y-43070599D01*
X17141157Y-43069097D01*
X17091171Y-43008189D01*
X17030263Y-42958203D01*
X16960774Y-42921060D01*
X16885374Y-42898188D01*
X16806960Y-42890465D01*
X16206960Y-42890465D01*
X16128546Y-42898188D01*
X16053146Y-42921060D01*
X15983657Y-42958203D01*
X15922749Y-43008189D01*
X15872763Y-43069097D01*
X15835620Y-43138586D01*
X15812748Y-43213986D01*
X15805025Y-43292400D01*
X15805025Y-44842400D01*
X15812748Y-44920814D01*
X15835620Y-44996214D01*
X15872763Y-45065703D01*
X15922749Y-45126611D01*
X15983657Y-45176597D01*
X16053146Y-45213740D01*
X16128546Y-45236612D01*
X16206960Y-45244335D01*
X16806960Y-45244335D01*
X16885374Y-45236612D01*
X16960774Y-45213740D01*
X17030263Y-45176597D01*
X17091171Y-45126611D01*
X17141157Y-45065703D01*
X17141960Y-45064201D01*
X17142763Y-45065703D01*
X17192749Y-45126611D01*
X17253657Y-45176597D01*
X17323146Y-45213740D01*
X17398546Y-45236612D01*
X17476960Y-45244335D01*
X18076960Y-45244335D01*
X18155374Y-45236612D01*
X18230774Y-45213740D01*
X18300263Y-45176597D01*
X18361171Y-45126611D01*
X18411157Y-45065703D01*
X18411960Y-45064201D01*
X18412763Y-45065703D01*
X18462749Y-45126611D01*
X18523657Y-45176597D01*
X18593146Y-45213740D01*
X18668546Y-45236612D01*
X18746960Y-45244335D01*
X19346960Y-45244335D01*
X19425374Y-45236612D01*
X19500774Y-45213740D01*
X19570263Y-45176597D01*
X19631171Y-45126611D01*
X19681157Y-45065703D01*
X19681960Y-45064201D01*
X19682763Y-45065703D01*
X19732749Y-45126611D01*
X19793657Y-45176597D01*
X19863146Y-45213740D01*
X19938546Y-45236612D01*
X20016960Y-45244335D01*
X20616960Y-45244335D01*
X20695374Y-45236612D01*
X20770774Y-45213740D01*
X20840263Y-45176597D01*
X20901171Y-45126611D01*
X20951157Y-45065703D01*
X20988300Y-44996214D01*
X21011172Y-44920814D01*
X21018895Y-44842400D01*
X21018895Y-43292400D01*
X21011172Y-43213986D01*
X20988300Y-43138586D01*
X20951157Y-43069097D01*
X20901171Y-43008189D01*
X20840263Y-42958203D01*
X20770774Y-42921060D01*
X20695374Y-42898188D01*
X20616960Y-42890465D01*
X20016960Y-42890465D01*
X19938546Y-42898188D01*
X19863146Y-42921060D01*
X19793657Y-42958203D01*
X19732749Y-43008189D01*
X19682763Y-43069097D01*
X19681960Y-43070599D01*
X19681157Y-43069097D01*
X19647632Y-43028247D01*
X19696137Y-42969143D01*
X19733280Y-42899654D01*
X19756152Y-42824254D01*
X19763875Y-42745840D01*
X19763875Y-41546960D01*
X19756152Y-41468546D01*
X19733280Y-41393146D01*
X19720214Y-41368702D01*
X19765186Y-41392740D01*
X19840586Y-41415612D01*
X19919000Y-41423335D01*
X20519000Y-41423335D01*
X20597414Y-41415612D01*
X20672814Y-41392740D01*
X20682561Y-41387530D01*
X20741500Y-41393335D01*
X21086500Y-41393335D01*
X21193689Y-41382778D01*
X21296760Y-41351512D01*
X21302872Y-41348245D01*
X22263110Y-41348245D01*
X22341524Y-41340522D01*
X22416924Y-41317650D01*
X22486413Y-41280507D01*
X22547321Y-41230521D01*
X22597307Y-41169613D01*
X22634450Y-41100124D01*
X22657322Y-41024724D01*
X22660112Y-40996400D01*
X25514001Y-40996400D01*
X25514000Y-48894760D01*
X22710112Y-48894760D01*
X22707322Y-48866436D01*
X22684450Y-48791036D01*
X22647307Y-48721547D01*
X22597321Y-48660639D01*
X22536413Y-48610653D01*
X22466924Y-48573510D01*
X22391524Y-48550638D01*
X22313110Y-48542915D01*
X21314890Y-48542915D01*
X21236476Y-48550638D01*
X21161076Y-48573510D01*
X21091587Y-48610653D01*
X21030679Y-48660639D01*
X21017365Y-48676862D01*
X21011172Y-48613986D01*
X20988300Y-48538586D01*
X20951157Y-48469097D01*
X20901171Y-48408189D01*
X20840263Y-48358203D01*
X20770774Y-48321060D01*
X20695374Y-48298188D01*
X20616960Y-48290465D01*
X20016960Y-48290465D01*
X19938546Y-48298188D01*
X19863146Y-48321060D01*
X19793657Y-48358203D01*
X19732749Y-48408189D01*
X19682763Y-48469097D01*
X19681960Y-48470599D01*
X19681157Y-48469097D01*
X19631171Y-48408189D01*
X19570263Y-48358203D01*
X19500774Y-48321060D01*
X19425374Y-48298188D01*
X19346960Y-48290465D01*
X18746960Y-48290465D01*
X18668546Y-48298188D01*
X18593146Y-48321060D01*
X18523657Y-48358203D01*
X18462749Y-48408189D01*
X18412763Y-48469097D01*
X18411960Y-48470599D01*
X18411157Y-48469097D01*
X18361171Y-48408189D01*
X18300263Y-48358203D01*
X18230774Y-48321060D01*
X18155374Y-48298188D01*
X18076960Y-48290465D01*
X17476960Y-48290465D01*
X17398546Y-48298188D01*
X17323146Y-48321060D01*
X17253657Y-48358203D01*
X17192749Y-48408189D01*
X17142763Y-48469097D01*
X17105620Y-48538586D01*
X17082748Y-48613986D01*
X17075025Y-48692400D01*
X17075025Y-50242400D01*
X17082748Y-50320814D01*
X17105620Y-50396214D01*
X17142763Y-50465703D01*
X17192749Y-50526611D01*
X17253657Y-50576597D01*
X17323146Y-50613740D01*
X17398546Y-50636612D01*
X17476960Y-50644335D01*
X18076960Y-50644335D01*
X18155374Y-50636612D01*
X18163714Y-50634082D01*
X18162446Y-50646960D01*
X18162446Y-51845840D01*
X18170169Y-51924254D01*
X18193041Y-51999654D01*
X18197435Y-52007875D01*
X18182814Y-52000060D01*
X18107414Y-51977188D01*
X18029000Y-51969465D01*
X17429000Y-51969465D01*
X17350586Y-51977188D01*
X17275186Y-52000060D01*
X17205697Y-52037203D01*
X17144789Y-52087189D01*
X17094803Y-52148097D01*
X17094000Y-52149599D01*
X17093197Y-52148097D01*
X17043211Y-52087189D01*
X16982303Y-52037203D01*
X16912814Y-52000060D01*
X16837414Y-51977188D01*
X16759000Y-51969465D01*
X16159000Y-51969465D01*
X16080586Y-51977188D01*
X16005186Y-52000060D01*
X15935697Y-52037203D01*
X15874789Y-52087189D01*
X15824803Y-52148097D01*
X15787660Y-52217586D01*
X15764788Y-52292986D01*
X15757065Y-52371400D01*
X15757065Y-53921400D01*
X15764788Y-53999814D01*
X15787660Y-54075214D01*
X15824803Y-54144703D01*
X15874789Y-54205611D01*
X15935697Y-54255597D01*
X16005186Y-54292740D01*
X16080586Y-54315612D01*
X16159000Y-54323335D01*
X16759000Y-54323335D01*
X16837414Y-54315612D01*
X16912814Y-54292740D01*
X16982303Y-54255597D01*
X17043211Y-54205611D01*
X17093197Y-54144703D01*
X17094000Y-54143201D01*
X17094803Y-54144703D01*
X17144789Y-54205611D01*
X17205697Y-54255597D01*
X17275186Y-54292740D01*
X17350586Y-54315612D01*
X17429000Y-54323335D01*
X18029000Y-54323335D01*
X18107414Y-54315612D01*
X18182814Y-54292740D01*
X18252303Y-54255597D01*
X18313211Y-54205611D01*
X18363197Y-54144703D01*
X18364000Y-54143201D01*
X18364803Y-54144703D01*
X18414789Y-54205611D01*
X18475697Y-54255597D01*
X18545186Y-54292740D01*
X18620586Y-54315612D01*
X18699000Y-54323335D01*
X19299000Y-54323335D01*
X19377414Y-54315612D01*
X19452814Y-54292740D01*
X19522303Y-54255597D01*
X19583211Y-54205611D01*
X19633197Y-54144703D01*
X19634000Y-54143201D01*
X19634803Y-54144703D01*
X19684789Y-54205611D01*
X19745697Y-54255597D01*
X19815186Y-54292740D01*
X19890586Y-54315612D01*
X19969000Y-54323335D01*
X20569000Y-54323335D01*
X20647414Y-54315612D01*
X20722814Y-54292740D01*
X20792303Y-54255597D01*
X20853211Y-54205611D01*
X20903197Y-54144703D01*
X20940340Y-54075214D01*
X20963212Y-53999814D01*
X20970935Y-53921400D01*
X20970935Y-52371400D01*
X20963212Y-52292986D01*
X20940340Y-52217586D01*
X20903197Y-52148097D01*
X20853211Y-52087189D01*
X20792303Y-52037203D01*
X20722814Y-52000060D01*
X20647414Y-51977188D01*
X20569000Y-51969465D01*
X19969000Y-51969465D01*
X19890586Y-51977188D01*
X19815186Y-52000060D01*
X19745697Y-52037203D01*
X19684789Y-52087189D01*
X19634803Y-52148097D01*
X19634000Y-52149599D01*
X19633197Y-52148097D01*
X19629561Y-52143667D01*
X19646152Y-52130051D01*
X19696138Y-52069143D01*
X19733281Y-51999654D01*
X19756153Y-51924254D01*
X19763876Y-51845840D01*
X19763876Y-50646960D01*
X19756153Y-50568546D01*
X19746973Y-50538285D01*
X19793657Y-50576597D01*
X19863146Y-50613740D01*
X19938546Y-50636612D01*
X20016960Y-50644335D01*
X20616960Y-50644335D01*
X20695374Y-50636612D01*
X20770774Y-50613740D01*
X20780886Y-50608335D01*
X21086500Y-50608335D01*
X21193689Y-50597778D01*
X21296760Y-50566512D01*
X21391750Y-50515739D01*
X21475009Y-50447409D01*
X21475669Y-50446605D01*
X22313110Y-50446605D01*
X22391524Y-50438882D01*
X22466924Y-50416010D01*
X22536413Y-50378867D01*
X22597321Y-50328881D01*
X22647307Y-50267973D01*
X22684450Y-50198484D01*
X22707322Y-50123084D01*
X22710112Y-50094760D01*
X25514001Y-50094760D01*
X25514000Y-57896400D01*
X22836015Y-57896400D01*
X22806549Y-57893498D01*
X22777083Y-57896400D01*
X22777076Y-57896400D01*
X22753443Y-57898728D01*
X22734450Y-57836116D01*
X22697307Y-57766627D01*
X22647321Y-57705719D01*
X22586413Y-57655733D01*
X22516924Y-57618590D01*
X22441524Y-57595718D01*
X22363110Y-57587995D01*
X21364890Y-57587995D01*
X21286476Y-57595718D01*
X21211076Y-57618590D01*
X21141587Y-57655733D01*
X21080679Y-57705719D01*
X21030693Y-57766627D01*
X20993550Y-57836116D01*
X20970935Y-57910669D01*
X20970935Y-57771400D01*
X20963212Y-57692986D01*
X20940340Y-57617586D01*
X20903197Y-57548097D01*
X20853211Y-57487189D01*
X20792303Y-57437203D01*
X20722814Y-57400060D01*
X20647414Y-57377188D01*
X20569000Y-57369465D01*
X19969000Y-57369465D01*
X19890586Y-57377188D01*
X19815186Y-57400060D01*
X19745697Y-57437203D01*
X19684789Y-57487189D01*
X19634803Y-57548097D01*
X19634000Y-57549599D01*
X19633197Y-57548097D01*
X19583211Y-57487189D01*
X19522303Y-57437203D01*
X19452814Y-57400060D01*
X19377414Y-57377188D01*
X19299000Y-57369465D01*
X18699000Y-57369465D01*
X18620586Y-57377188D01*
X18545186Y-57400060D01*
X18475697Y-57437203D01*
X18414789Y-57487189D01*
X18364803Y-57548097D01*
X18364000Y-57549599D01*
X18363197Y-57548097D01*
X18313211Y-57487189D01*
X18252303Y-57437203D01*
X18182814Y-57400060D01*
X18107414Y-57377188D01*
X18029000Y-57369465D01*
X17429000Y-57369465D01*
X17350586Y-57377188D01*
X17275186Y-57400060D01*
X17205697Y-57437203D01*
X17144789Y-57487189D01*
X17094803Y-57548097D01*
X17057660Y-57617586D01*
X17034788Y-57692986D01*
X17027065Y-57771400D01*
X17027065Y-59321400D01*
X17034788Y-59399814D01*
X17057660Y-59475214D01*
X17094803Y-59544703D01*
X17144789Y-59605611D01*
X17205697Y-59655597D01*
X17275186Y-59692740D01*
X17350586Y-59715612D01*
X17429000Y-59723335D01*
X18029000Y-59723335D01*
X18107414Y-59715612D01*
X18182814Y-59692740D01*
X18252303Y-59655597D01*
X18271556Y-59639796D01*
X18243040Y-59693146D01*
X18220168Y-59768546D01*
X18212445Y-59846960D01*
X18212445Y-61045840D01*
X18220168Y-61124254D01*
X18236740Y-61178884D01*
X18182814Y-61150060D01*
X18107414Y-61127188D01*
X18029000Y-61119465D01*
X17429000Y-61119465D01*
X17350586Y-61127188D01*
X17275186Y-61150060D01*
X17205697Y-61187203D01*
X17144789Y-61237189D01*
X17094803Y-61298097D01*
X17094000Y-61299599D01*
X17093197Y-61298097D01*
X17043211Y-61237189D01*
X16982303Y-61187203D01*
X16912814Y-61150060D01*
X16837414Y-61127188D01*
X16759000Y-61119465D01*
X16159000Y-61119465D01*
X16080586Y-61127188D01*
X16005186Y-61150060D01*
X15935697Y-61187203D01*
X15874789Y-61237189D01*
X15824803Y-61298097D01*
X15787660Y-61367586D01*
X15764788Y-61442986D01*
X15757065Y-61521400D01*
X15757065Y-63071400D01*
X15764788Y-63149814D01*
X15787660Y-63225214D01*
X15824803Y-63294703D01*
X15874789Y-63355611D01*
X15935697Y-63405597D01*
X16005186Y-63442740D01*
X16080586Y-63465612D01*
X16159000Y-63473335D01*
X16759000Y-63473335D01*
X16837414Y-63465612D01*
X16912814Y-63442740D01*
X16982303Y-63405597D01*
X17043211Y-63355611D01*
X17093197Y-63294703D01*
X17094000Y-63293201D01*
X17094803Y-63294703D01*
X17144789Y-63355611D01*
X17205697Y-63405597D01*
X17275186Y-63442740D01*
X17350586Y-63465612D01*
X17429000Y-63473335D01*
X18029000Y-63473335D01*
X18107414Y-63465612D01*
X18182814Y-63442740D01*
X18252303Y-63405597D01*
X18313211Y-63355611D01*
X18363197Y-63294703D01*
X18364000Y-63293201D01*
X18364803Y-63294703D01*
X18414789Y-63355611D01*
X18475697Y-63405597D01*
X18545186Y-63442740D01*
X18620586Y-63465612D01*
X18699000Y-63473335D01*
X19299000Y-63473335D01*
X19377414Y-63465612D01*
X19452814Y-63442740D01*
X19522303Y-63405597D01*
X19583211Y-63355611D01*
X19633197Y-63294703D01*
X19634000Y-63293201D01*
X19634803Y-63294703D01*
X19684789Y-63355611D01*
X19745697Y-63405597D01*
X19815186Y-63442740D01*
X19890586Y-63465612D01*
X19969000Y-63473335D01*
X20569000Y-63473335D01*
X20647414Y-63465612D01*
X20722814Y-63442740D01*
X20792303Y-63405597D01*
X20853211Y-63355611D01*
X20903197Y-63294703D01*
X20940340Y-63225214D01*
X20963212Y-63149814D01*
X20970935Y-63071400D01*
X20970935Y-61521400D01*
X20963212Y-61442986D01*
X20940340Y-61367586D01*
X20903197Y-61298097D01*
X20853211Y-61237189D01*
X20792303Y-61187203D01*
X20722814Y-61150060D01*
X20647414Y-61127188D01*
X20569000Y-61119465D01*
X19969000Y-61119465D01*
X19890586Y-61127188D01*
X19815186Y-61150060D01*
X19795061Y-61160817D01*
X19806152Y-61124254D01*
X19813875Y-61045840D01*
X19813875Y-59846960D01*
X19806152Y-59768546D01*
X19783280Y-59693146D01*
X19770214Y-59668702D01*
X19815186Y-59692740D01*
X19890586Y-59715612D01*
X19969000Y-59723335D01*
X20478524Y-59723335D01*
X20531240Y-59751512D01*
X20634311Y-59782778D01*
X20741500Y-59793335D01*
X21086500Y-59793335D01*
X21193689Y-59782778D01*
X21296760Y-59751512D01*
X21391750Y-59700739D01*
X21475009Y-59632409D01*
X21543339Y-59549150D01*
X21574055Y-59491685D01*
X22363110Y-59491685D01*
X22441524Y-59483962D01*
X22516924Y-59461090D01*
X22586413Y-59423947D01*
X22647321Y-59373961D01*
X22697307Y-59313053D01*
X22734450Y-59243564D01*
X22757322Y-59168164D01*
X22759857Y-59142423D01*
X22763110Y-59142743D01*
X22792584Y-59139840D01*
X22880731Y-59131158D01*
X22993831Y-59096850D01*
X22994673Y-59096400D01*
X25514001Y-59096400D01*
X25514000Y-67046400D01*
X22809245Y-67046400D01*
X22792584Y-67044759D01*
X22763110Y-67041856D01*
X22759857Y-67042176D01*
X22757322Y-67016435D01*
X22734450Y-66941035D01*
X22697307Y-66871546D01*
X22647321Y-66810638D01*
X22586413Y-66760652D01*
X22516924Y-66723509D01*
X22441524Y-66700637D01*
X22363110Y-66692914D01*
X21364890Y-66692914D01*
X21286476Y-66700637D01*
X21211076Y-66723509D01*
X21141587Y-66760652D01*
X21080679Y-66810638D01*
X21030693Y-66871546D01*
X20993550Y-66941035D01*
X20970935Y-67015588D01*
X20970935Y-66921400D01*
X20963212Y-66842986D01*
X20940340Y-66767586D01*
X20903197Y-66698097D01*
X20853211Y-66637189D01*
X20792303Y-66587203D01*
X20722814Y-66550060D01*
X20647414Y-66527188D01*
X20569000Y-66519465D01*
X19969000Y-66519465D01*
X19890586Y-66527188D01*
X19815186Y-66550060D01*
X19745697Y-66587203D01*
X19684789Y-66637189D01*
X19634803Y-66698097D01*
X19634000Y-66699599D01*
X19633197Y-66698097D01*
X19583211Y-66637189D01*
X19522303Y-66587203D01*
X19452814Y-66550060D01*
X19377414Y-66527188D01*
X19299000Y-66519465D01*
X18699000Y-66519465D01*
X18620586Y-66527188D01*
X18545186Y-66550060D01*
X18475697Y-66587203D01*
X18414789Y-66637189D01*
X18364803Y-66698097D01*
X18364000Y-66699599D01*
X18363197Y-66698097D01*
X18313211Y-66637189D01*
X18252303Y-66587203D01*
X18182814Y-66550060D01*
X18107414Y-66527188D01*
X18029000Y-66519465D01*
X17429000Y-66519465D01*
X17350586Y-66527188D01*
X17275186Y-66550060D01*
X17205697Y-66587203D01*
X17144789Y-66637189D01*
X17094803Y-66698097D01*
X17057660Y-66767586D01*
X17034788Y-66842986D01*
X17027065Y-66921400D01*
X17027065Y-68471400D01*
X17034788Y-68549814D01*
X17057660Y-68625214D01*
X17094803Y-68694703D01*
X17144789Y-68755611D01*
X17205697Y-68805597D01*
X17275186Y-68842740D01*
X17350586Y-68865612D01*
X17429000Y-68873335D01*
X18029000Y-68873335D01*
X18107414Y-68865612D01*
X18182814Y-68842740D01*
X18252303Y-68805597D01*
X18313211Y-68755611D01*
X18363197Y-68694703D01*
X18364000Y-68693201D01*
X18364803Y-68694703D01*
X18399001Y-68736374D01*
X18399001Y-69094465D01*
X17764000Y-69094465D01*
X17685586Y-69102188D01*
X17610186Y-69125060D01*
X17540697Y-69162203D01*
X17479789Y-69212189D01*
X17429803Y-69273097D01*
X17392660Y-69342586D01*
X17369788Y-69417986D01*
X17362065Y-69496400D01*
X17362065Y-71996400D01*
X17369788Y-72074814D01*
X17392660Y-72150214D01*
X17429803Y-72219703D01*
X17479789Y-72280611D01*
X17540697Y-72330597D01*
X17610186Y-72367740D01*
X17685586Y-72390612D01*
X17764000Y-72398335D01*
X20264000Y-72398335D01*
X20342414Y-72390612D01*
X20417814Y-72367740D01*
X20487303Y-72330597D01*
X20548211Y-72280611D01*
X20598197Y-72219703D01*
X20635340Y-72150214D01*
X20658212Y-72074814D01*
X20665935Y-71996400D01*
X20665935Y-69496400D01*
X20658212Y-69417986D01*
X20635340Y-69342586D01*
X20598197Y-69273097D01*
X20548211Y-69212189D01*
X20487303Y-69162203D01*
X20417814Y-69125060D01*
X20342414Y-69102188D01*
X20264000Y-69094465D01*
X19599000Y-69094465D01*
X19599000Y-68736372D01*
X19633197Y-68694703D01*
X19634000Y-68693201D01*
X19634803Y-68694703D01*
X19684789Y-68755611D01*
X19745697Y-68805597D01*
X19815186Y-68842740D01*
X19890586Y-68865612D01*
X19969000Y-68873335D01*
X20569000Y-68873335D01*
X20647414Y-68865612D01*
X20651255Y-68864447D01*
X20741500Y-68873335D01*
X21086500Y-68873335D01*
X21193689Y-68862778D01*
X21296760Y-68831512D01*
X21391750Y-68780739D01*
X21475009Y-68712409D01*
X21543339Y-68629150D01*
X21560735Y-68596604D01*
X22363110Y-68596604D01*
X22441524Y-68588881D01*
X22516924Y-68566009D01*
X22586413Y-68528866D01*
X22647321Y-68478880D01*
X22697307Y-68417972D01*
X22734450Y-68348483D01*
X22757322Y-68273083D01*
X22759713Y-68248807D01*
X22764751Y-68249303D01*
X22794225Y-68246400D01*
X26084526Y-68246400D01*
X26114000Y-68249303D01*
X26143474Y-68246400D01*
X26231621Y-68237718D01*
X26344721Y-68203410D01*
X26448955Y-68147696D01*
X26540317Y-68072717D01*
X26615296Y-67981355D01*
X26671010Y-67877121D01*
X26705318Y-67764021D01*
X26716903Y-67646400D01*
X26714000Y-67616926D01*
X26714000Y-58575873D01*
X26716903Y-58546400D01*
X26714000Y-58516926D01*
X26714000Y-49625873D01*
X26716903Y-49596400D01*
X26714000Y-49566926D01*
X26714000Y-40525873D01*
X26716903Y-40496399D01*
X26714000Y-40466925D01*
X26714000Y-32498335D01*
X26764000Y-32498335D01*
X26842414Y-32490612D01*
X26917814Y-32467740D01*
X26987303Y-32430597D01*
X27048211Y-32380611D01*
X27098197Y-32319703D01*
X27135340Y-32250214D01*
X27158212Y-32174814D01*
X27165935Y-32096400D01*
X27165935Y-30596400D01*
X27158212Y-30517986D01*
X27135340Y-30442586D01*
X27098197Y-30373097D01*
X27048211Y-30312189D01*
X26987303Y-30262203D01*
X26917814Y-30225060D01*
X26842414Y-30202188D01*
X26764000Y-30194465D01*
X25264000Y-30194465D01*
X25185586Y-30202188D01*
X25110186Y-30225060D01*
X25040697Y-30262203D01*
X24979789Y-30312189D01*
X24929803Y-30373097D01*
X24892660Y-30442586D01*
X24869788Y-30517986D01*
X24862065Y-30596400D01*
X24862065Y-30646400D01*
X22759235Y-30646400D01*
X22742584Y-30644760D01*
X22713110Y-30641857D01*
X22709857Y-30642177D01*
X22707322Y-30616436D01*
X22684450Y-30541036D01*
X22647307Y-30471547D01*
X22597321Y-30410639D01*
X22536413Y-30360653D01*
X22466924Y-30323510D01*
X22391524Y-30300638D01*
X22313110Y-30292915D01*
X21314890Y-30292915D01*
X21236476Y-30300638D01*
X21161076Y-30323510D01*
X21091587Y-30360653D01*
X21030679Y-30410639D01*
X20980693Y-30471547D01*
X20970934Y-30489805D01*
X20970934Y-30371401D01*
X20963211Y-30292987D01*
X20940339Y-30217587D01*
X20903196Y-30148098D01*
X20853210Y-30087190D01*
X20792302Y-30037204D01*
X20722813Y-30000061D01*
X20647413Y-29977189D01*
X20568999Y-29969466D01*
X19968999Y-29969466D01*
X19890585Y-29977189D01*
X19815185Y-30000061D01*
X19745696Y-30037204D01*
X19684788Y-30087190D01*
X19634802Y-30148098D01*
X19633999Y-30149600D01*
X19633196Y-30148098D01*
X19583210Y-30087190D01*
X19522302Y-30037204D01*
X19452813Y-30000061D01*
X19377413Y-29977189D01*
X19298999Y-29969466D01*
X18698999Y-29969466D01*
X18620585Y-29977189D01*
X18545185Y-30000061D01*
X18475696Y-30037204D01*
X18414788Y-30087190D01*
X18364802Y-30148098D01*
X18363999Y-30149600D01*
X18363196Y-30148098D01*
X18313210Y-30087190D01*
X18252302Y-30037204D01*
X18182813Y-30000061D01*
X18107413Y-29977189D01*
X18028999Y-29969466D01*
X17428999Y-29969466D01*
X17350585Y-29977189D01*
X17275185Y-30000061D01*
X17205696Y-30037204D01*
X17144788Y-30087190D01*
X17094802Y-30148098D01*
X17057659Y-30217587D01*
X17034787Y-30292987D01*
X17027064Y-30371401D01*
X17027064Y-31921401D01*
X17034787Y-31999815D01*
X17057659Y-32075215D01*
X17094802Y-32144704D01*
X17144788Y-32205612D01*
X17205696Y-32255598D01*
X17275185Y-32292741D01*
X17350585Y-32315613D01*
X17428999Y-32323336D01*
X18028999Y-32323336D01*
X18107413Y-32315613D01*
X18182813Y-32292741D01*
X18197434Y-32284926D01*
X18193040Y-32293146D01*
X18170168Y-32368546D01*
X18162445Y-32446960D01*
X18162445Y-33645840D01*
X18169728Y-33719791D01*
X18132814Y-33700060D01*
X18057414Y-33677188D01*
X17979000Y-33669465D01*
X17379000Y-33669465D01*
X17300586Y-33677188D01*
X17225186Y-33700060D01*
X17155697Y-33737203D01*
X17094789Y-33787189D01*
X17044803Y-33848097D01*
X17044000Y-33849599D01*
X17043197Y-33848097D01*
X16993211Y-33787189D01*
X16932303Y-33737203D01*
X16862814Y-33700060D01*
X16787414Y-33677188D01*
X16709000Y-33669465D01*
X16109000Y-33669465D01*
X16030586Y-33677188D01*
X15955186Y-33700060D01*
X15885697Y-33737203D01*
X15824789Y-33787189D01*
X15774803Y-33848097D01*
X15737660Y-33917586D01*
X15714788Y-33992986D01*
X15707065Y-34071400D01*
X258311Y-34071400D01*
X242079Y-25247290D01*
X14710515Y-25247290D01*
X14710515Y-26245510D01*
X14718238Y-26323924D01*
X14741110Y-26399324D01*
X14778253Y-26468813D01*
X14828239Y-26529721D01*
X14889147Y-26579707D01*
X14958636Y-26616850D01*
X15034036Y-26639722D01*
X15112450Y-26647445D01*
X15779235Y-26647445D01*
X15787659Y-26675215D01*
X15824802Y-26744704D01*
X15874788Y-26805612D01*
X15935696Y-26855598D01*
X16005185Y-26892741D01*
X16080585Y-26915613D01*
X16158999Y-26923336D01*
X16758999Y-26923336D01*
X16837413Y-26915613D01*
X16912813Y-26892741D01*
X16982302Y-26855598D01*
X17043210Y-26805612D01*
X17093196Y-26744704D01*
X17093999Y-26743202D01*
X17094802Y-26744704D01*
X17144788Y-26805612D01*
X17205696Y-26855598D01*
X17275185Y-26892741D01*
X17350585Y-26915613D01*
X17428999Y-26923336D01*
X18028999Y-26923336D01*
X18107413Y-26915613D01*
X18182813Y-26892741D01*
X18252302Y-26855598D01*
X18313210Y-26805612D01*
X18363196Y-26744704D01*
X18363999Y-26743202D01*
X18364802Y-26744704D01*
X18414788Y-26805612D01*
X18475696Y-26855598D01*
X18545185Y-26892741D01*
X18620585Y-26915613D01*
X18698999Y-26923336D01*
X19298999Y-26923336D01*
X19377413Y-26915613D01*
X19452813Y-26892741D01*
X19522302Y-26855598D01*
X19583210Y-26805612D01*
X19633196Y-26744704D01*
X19633999Y-26743202D01*
X19634802Y-26744704D01*
X19684788Y-26805612D01*
X19745696Y-26855598D01*
X19815185Y-26892741D01*
X19890585Y-26915613D01*
X19968999Y-26923336D01*
X20568999Y-26923336D01*
X20647413Y-26915613D01*
X20722813Y-26892741D01*
X20792302Y-26855598D01*
X20853210Y-26805612D01*
X20903196Y-26744704D01*
X20940339Y-26675215D01*
X20963211Y-26599815D01*
X20970934Y-26521401D01*
X20970934Y-24971401D01*
X20963211Y-24892987D01*
X20940339Y-24817587D01*
X20903196Y-24748098D01*
X20853210Y-24687190D01*
X20792302Y-24637204D01*
X20722813Y-24600061D01*
X20647413Y-24577189D01*
X20568999Y-24569466D01*
X19968999Y-24569466D01*
X19890585Y-24577189D01*
X19815185Y-24600061D01*
X19745696Y-24637204D01*
X19684788Y-24687190D01*
X19644185Y-24736664D01*
X19645935Y-24718900D01*
X19645935Y-24469136D01*
X19715943Y-24383831D01*
X19799514Y-24227480D01*
X19850977Y-24057830D01*
X19864000Y-23925606D01*
X19864000Y-22139793D01*
X19850977Y-22007569D01*
X19799514Y-21837919D01*
X19715943Y-21681568D01*
X19675986Y-21632880D01*
X19675378Y-21626710D01*
X19644112Y-21523639D01*
X19593339Y-21428649D01*
X19566872Y-21396399D01*
X19593339Y-21364149D01*
X19644112Y-21269159D01*
X19675378Y-21166088D01*
X19677373Y-21145829D01*
X19715943Y-21098832D01*
X19799514Y-20942481D01*
X19850977Y-20772831D01*
X19864000Y-20640607D01*
X19864000Y-19759717D01*
X19951500Y-19768335D01*
X19985220Y-19768335D01*
X19994720Y-19799654D01*
X20031863Y-19869143D01*
X20042064Y-19881573D01*
X20042064Y-20058900D01*
X20052621Y-20166089D01*
X20083887Y-20269160D01*
X20134660Y-20364150D01*
X20202990Y-20447409D01*
X20286249Y-20515739D01*
X20381239Y-20566512D01*
X20484310Y-20597778D01*
X20591499Y-20608335D01*
X20936499Y-20608335D01*
X21043688Y-20597778D01*
X21146759Y-20566512D01*
X21241749Y-20515739D01*
X21325008Y-20447409D01*
X21393338Y-20364150D01*
X21444111Y-20269160D01*
X21475377Y-20166089D01*
X21485934Y-20058900D01*
X21485934Y-19883622D01*
X21497817Y-19869143D01*
X21534960Y-19799654D01*
X21557832Y-19724254D01*
X21565555Y-19645840D01*
X21565555Y-19046400D01*
X21658806Y-19046400D01*
X21676183Y-19222831D01*
X21727646Y-19392481D01*
X21762445Y-19457586D01*
X21762445Y-19645840D01*
X21770168Y-19724254D01*
X21793040Y-19799654D01*
X21830183Y-19869143D01*
X21880169Y-19930051D01*
X21941077Y-19980037D01*
X22010566Y-20017180D01*
X22085966Y-20040052D01*
X22164380Y-20047775D01*
X22560871Y-20047775D01*
X22561050Y-20048364D01*
X22598193Y-20117853D01*
X22648179Y-20178761D01*
X22709087Y-20228747D01*
X22778576Y-20265890D01*
X22853976Y-20288762D01*
X22932390Y-20296485D01*
X23017393Y-20296485D01*
X23029803Y-20319703D01*
X23079789Y-20380611D01*
X23140697Y-20430597D01*
X23210186Y-20467740D01*
X23285586Y-20490612D01*
X23364000Y-20498335D01*
X25864000Y-20498335D01*
X25942414Y-20490612D01*
X26017814Y-20467740D01*
X26087303Y-20430597D01*
X26148211Y-20380611D01*
X26198197Y-20319703D01*
X26235340Y-20250214D01*
X26258212Y-20174814D01*
X26265935Y-20096400D01*
X26265935Y-17596400D01*
X26258212Y-17517986D01*
X26235340Y-17442586D01*
X26198197Y-17373097D01*
X26148211Y-17312189D01*
X26087303Y-17262203D01*
X26017814Y-17225060D01*
X25942414Y-17202188D01*
X25864000Y-17194465D01*
X23364000Y-17194465D01*
X23285586Y-17202188D01*
X23210186Y-17225060D01*
X23140697Y-17262203D01*
X23079789Y-17312189D01*
X23029803Y-17373097D01*
X22992660Y-17442586D01*
X22969788Y-17517986D01*
X22962065Y-17596400D01*
X22962065Y-18045037D01*
X22961940Y-18045025D01*
X22164380Y-18045025D01*
X22085966Y-18052748D01*
X22010566Y-18075620D01*
X21941077Y-18112763D01*
X21880169Y-18162749D01*
X21830183Y-18223657D01*
X21793040Y-18293146D01*
X21770168Y-18368546D01*
X21762445Y-18446960D01*
X21762445Y-18635214D01*
X21727646Y-18700319D01*
X21676183Y-18869969D01*
X21658806Y-19046400D01*
X21565555Y-19046400D01*
X21565555Y-18446960D01*
X21557832Y-18368546D01*
X21534960Y-18293146D01*
X21497817Y-18223657D01*
X21485935Y-18209179D01*
X21485935Y-18018901D01*
X21475378Y-17911712D01*
X21444112Y-17808641D01*
X21393339Y-17713651D01*
X21325009Y-17630392D01*
X21241750Y-17562062D01*
X21146760Y-17511289D01*
X21043689Y-17480023D01*
X20936500Y-17469466D01*
X20591500Y-17469466D01*
X20484311Y-17480023D01*
X20381240Y-17511289D01*
X20286250Y-17562062D01*
X20202991Y-17630392D01*
X20134661Y-17713651D01*
X20083888Y-17808641D01*
X20052622Y-17911712D01*
X20042065Y-18018901D01*
X20042065Y-18211226D01*
X20031863Y-18223657D01*
X19994720Y-18293146D01*
X19985220Y-18324465D01*
X19951500Y-18324465D01*
X19864000Y-18333083D01*
X19864000Y-16500603D01*
X19868354Y-16456399D01*
X19864000Y-16412193D01*
X19854000Y-16310662D01*
X19854000Y-15848335D01*
X20204000Y-15848335D01*
X20282414Y-15840612D01*
X20357814Y-15817740D01*
X20427303Y-15780597D01*
X20488211Y-15730611D01*
X20538197Y-15669703D01*
X20575340Y-15600214D01*
X20598212Y-15524814D01*
X20605935Y-15446400D01*
X20605935Y-14446400D01*
X20598212Y-14367986D01*
X20575340Y-14292586D01*
X20538197Y-14223097D01*
X20488211Y-14162189D01*
X20427303Y-14112203D01*
X20357814Y-14075060D01*
X20282414Y-14052188D01*
X20204000Y-14044465D01*
X18978560Y-14044465D01*
X18954000Y-14042046D01*
X18929440Y-14044465D01*
X17704000Y-14044465D01*
X17625586Y-14052188D01*
X17550186Y-14075060D01*
X17480697Y-14112203D01*
X17419789Y-14162189D01*
X17369803Y-14223097D01*
X17332660Y-14292586D01*
X17309788Y-14367986D01*
X17302065Y-14446400D01*
X17302065Y-15446400D01*
X17309788Y-15524814D01*
X17332660Y-15600214D01*
X17369803Y-15669703D01*
X17419789Y-15730611D01*
X17480697Y-15780597D01*
X17550186Y-15817740D01*
X17625586Y-15840612D01*
X17704000Y-15848335D01*
X18054001Y-15848335D01*
X18054001Y-16402184D01*
X18049646Y-16446400D01*
X18064000Y-16592138D01*
X18064001Y-18452184D01*
X18064000Y-18452194D01*
X18064000Y-18837194D01*
X18064001Y-20640607D01*
X18077024Y-20772831D01*
X18128487Y-20942481D01*
X18212058Y-21098832D01*
X18250627Y-21145828D01*
X18252622Y-21166088D01*
X18283888Y-21269159D01*
X18334661Y-21364149D01*
X18361128Y-21396399D01*
X18334661Y-21428649D01*
X18283888Y-21523639D01*
X18252622Y-21626710D01*
X18252014Y-21632881D01*
X18212058Y-21681568D01*
X18128487Y-21837919D01*
X18077024Y-22007569D01*
X18064001Y-22139793D01*
X18064000Y-23824465D01*
X17831500Y-23824465D01*
X17724311Y-23835022D01*
X17667517Y-23852250D01*
X17643689Y-23845022D01*
X17536500Y-23834465D01*
X17191500Y-23834465D01*
X17084311Y-23845022D01*
X16981240Y-23876288D01*
X16886250Y-23927061D01*
X16802991Y-23995391D01*
X16734661Y-24078650D01*
X16683888Y-24173640D01*
X16652622Y-24276711D01*
X16642065Y-24383900D01*
X16642065Y-24569466D01*
X16158999Y-24569466D01*
X16080585Y-24577189D01*
X16005185Y-24600061D01*
X15935696Y-24637204D01*
X15874788Y-24687190D01*
X15824802Y-24748098D01*
X15787659Y-24817587D01*
X15779236Y-24845355D01*
X15112450Y-24845355D01*
X15034036Y-24853078D01*
X14958636Y-24875950D01*
X14889147Y-24913093D01*
X14828239Y-24963079D01*
X14778253Y-25023987D01*
X14741110Y-25093476D01*
X14718238Y-25168876D01*
X14710515Y-25247290D01*
X242079Y-25247290D01*
X216918Y-11568741D01*
X259500Y-11572935D01*
X1259500Y-11572935D01*
X1279147Y-11571000D01*
X2703707Y-11571000D01*
X2835931Y-11557977D01*
X3005581Y-11506514D01*
X3161932Y-11422943D01*
X3171202Y-11415335D01*
X3269300Y-11415335D01*
X3376489Y-11404778D01*
X3479560Y-11373512D01*
X3574550Y-11322739D01*
X3606800Y-11296272D01*
X3639050Y-11322739D01*
X3734040Y-11373512D01*
X3837111Y-11404778D01*
X3944300Y-11415335D01*
X4146327Y-11415335D01*
X4202697Y-11461597D01*
X4272186Y-11498740D01*
X4347586Y-11521612D01*
X4426000Y-11529335D01*
X5051452Y-11529335D01*
X5166969Y-11564377D01*
X5299193Y-11577400D01*
X6576748Y-11577400D01*
X6579969Y-11578377D01*
X6712193Y-11591400D01*
X6712194Y-11591400D01*
X6756400Y-11595754D01*
X6800606Y-11591400D01*
X7643959Y-11591400D01*
X7637065Y-11661400D01*
X7637065Y-12261400D01*
X7644788Y-12339814D01*
X7667660Y-12415214D01*
X7704803Y-12484703D01*
X7737435Y-12524465D01*
X7601500Y-12524465D01*
X7494311Y-12535022D01*
X7391240Y-12566288D01*
X7296250Y-12617061D01*
X7212991Y-12685391D01*
X7144661Y-12768650D01*
X7093888Y-12863640D01*
X7062622Y-12966711D01*
X7052065Y-13073900D01*
X7052065Y-13418900D01*
X7062622Y-13526089D01*
X7093888Y-13629160D01*
X7144661Y-13724150D01*
X7212991Y-13807409D01*
X7296250Y-13875739D01*
X7391240Y-13926512D01*
X7494311Y-13957778D01*
X7601500Y-13968335D01*
X7896500Y-13968335D01*
X8003689Y-13957778D01*
X8084267Y-13933335D01*
X9589000Y-13933335D01*
X9667414Y-13925612D01*
X9742814Y-13902740D01*
X9812303Y-13865597D01*
X9873211Y-13815611D01*
X9923197Y-13754703D01*
X9960340Y-13685214D01*
X9983212Y-13609814D01*
X9990935Y-13531400D01*
X9990935Y-12931400D01*
X9983212Y-12852986D01*
X9960340Y-12777586D01*
X9923197Y-12708097D01*
X9873211Y-12647189D01*
X9812303Y-12597203D01*
X9810801Y-12596400D01*
X9812303Y-12595597D01*
X9873211Y-12545611D01*
X9923197Y-12484703D01*
X9960340Y-12415214D01*
X9983212Y-12339814D01*
X9990935Y-12261400D01*
X9990935Y-11661400D01*
X9983212Y-11582986D01*
X9960340Y-11507586D01*
X9923197Y-11438097D01*
X9873211Y-11377189D01*
X9812303Y-11327203D01*
X9810801Y-11326400D01*
X9812303Y-11325597D01*
X9873211Y-11275611D01*
X9923197Y-11214703D01*
X9960340Y-11145214D01*
X9983212Y-11069814D01*
X9990935Y-10991400D01*
X9990935Y-10391400D01*
X9983212Y-10312986D01*
X9960340Y-10237586D01*
X9923197Y-10168097D01*
X9873211Y-10107189D01*
X9812303Y-10057203D01*
X9742814Y-10020060D01*
X9667414Y-9997188D01*
X9589000Y-9989465D01*
X9548757Y-9989465D01*
X9487822Y-9939457D01*
X9331471Y-9855886D01*
X9161821Y-9804423D01*
X9029597Y-9791400D01*
X6922052Y-9791400D01*
X6918831Y-9790423D01*
X6786607Y-9777400D01*
X6786606Y-9777400D01*
X6742400Y-9773046D01*
X6698194Y-9777400D01*
X5299193Y-9777400D01*
X5166969Y-9790423D01*
X5051452Y-9825465D01*
X4426000Y-9825465D01*
X4347586Y-9833188D01*
X4272186Y-9856060D01*
X4202697Y-9893203D01*
X4141789Y-9943189D01*
X4118583Y-9971465D01*
X3944300Y-9971465D01*
X3837111Y-9982022D01*
X3734040Y-10013288D01*
X3639050Y-10064061D01*
X3606800Y-10090528D01*
X3574550Y-10064061D01*
X3479560Y-10013288D01*
X3376489Y-9982022D01*
X3269300Y-9971465D01*
X3225791Y-9971465D01*
X3161932Y-9919057D01*
X3005581Y-9835486D01*
X2835931Y-9784023D01*
X2703707Y-9771000D01*
X1279147Y-9771000D01*
X1259500Y-9769065D01*
X259500Y-9769065D01*
X213616Y-9773584D01*
X199413Y-2052000D01*
X1396065Y-2052000D01*
X1396065Y-4552000D01*
X1403788Y-4630414D01*
X1426660Y-4705814D01*
X1463803Y-4775303D01*
X1513789Y-4836211D01*
X1574697Y-4886197D01*
X1644186Y-4923340D01*
X1719586Y-4946212D01*
X1798000Y-4953935D01*
X3638516Y-4953935D01*
X3688661Y-5047750D01*
X3715128Y-5080000D01*
X3688661Y-5112250D01*
X3637888Y-5207240D01*
X3606622Y-5310311D01*
X3596065Y-5417500D01*
X3596065Y-5712500D01*
X3606622Y-5819689D01*
X3637888Y-5922760D01*
X3688661Y-6017750D01*
X3718001Y-6053500D01*
X3718001Y-6110361D01*
X3685888Y-6170440D01*
X3654622Y-6273511D01*
X3644065Y-6380700D01*
X3644065Y-6725700D01*
X3654622Y-6832889D01*
X3685888Y-6935960D01*
X3736661Y-7030950D01*
X3741001Y-7036238D01*
X3741000Y-7136962D01*
X3736661Y-7142250D01*
X3685888Y-7237240D01*
X3654622Y-7340311D01*
X3647331Y-7414341D01*
X3472581Y-7589092D01*
X3449684Y-7607883D01*
X3374705Y-7699245D01*
X3318990Y-7803479D01*
X3299335Y-7868274D01*
X3252697Y-7893203D01*
X3191789Y-7943189D01*
X3141803Y-8004097D01*
X3104660Y-8073586D01*
X3081788Y-8148986D01*
X3074065Y-8227400D01*
X3074065Y-9127400D01*
X3081788Y-9205814D01*
X3104660Y-9281214D01*
X3141803Y-9350703D01*
X3191789Y-9411611D01*
X3252697Y-9461597D01*
X3322186Y-9498740D01*
X3397586Y-9521612D01*
X3476000Y-9529335D01*
X4276000Y-9529335D01*
X4354414Y-9521612D01*
X4429814Y-9498740D01*
X4499303Y-9461597D01*
X4560211Y-9411611D01*
X4610197Y-9350703D01*
X4647340Y-9281214D01*
X4670212Y-9205814D01*
X4677935Y-9127400D01*
X4677935Y-8306429D01*
X4698760Y-8300112D01*
X4793750Y-8249339D01*
X4820482Y-8227400D01*
X4974065Y-8227400D01*
X4974065Y-9127400D01*
X4981788Y-9205814D01*
X5004660Y-9281214D01*
X5041803Y-9350703D01*
X5091789Y-9411611D01*
X5152697Y-9461597D01*
X5222186Y-9498740D01*
X5297586Y-9521612D01*
X5376000Y-9529335D01*
X6176000Y-9529335D01*
X6254414Y-9521612D01*
X6329814Y-9498740D01*
X6399303Y-9461597D01*
X6460211Y-9411611D01*
X6510197Y-9350703D01*
X6547340Y-9281214D01*
X6570212Y-9205814D01*
X6577935Y-9127400D01*
X6577935Y-8547290D01*
X10010515Y-8547290D01*
X10010515Y-9545510D01*
X10018238Y-9623924D01*
X10041110Y-9699324D01*
X10078253Y-9768813D01*
X10128239Y-9829721D01*
X10189147Y-9879707D01*
X10258636Y-9916850D01*
X10334036Y-9939722D01*
X10412450Y-9947445D01*
X11512270Y-9947445D01*
X11590684Y-9939722D01*
X11666084Y-9916850D01*
X11735573Y-9879707D01*
X11796481Y-9829721D01*
X11846467Y-9768813D01*
X11874464Y-9716435D01*
X11887148Y-9716435D01*
X13037065Y-10866353D01*
X13037065Y-10991400D01*
X13044788Y-11069814D01*
X13067660Y-11145214D01*
X13104803Y-11214703D01*
X13154789Y-11275611D01*
X13215697Y-11325597D01*
X13217199Y-11326400D01*
X13215697Y-11327203D01*
X13154789Y-11377189D01*
X13104803Y-11438097D01*
X13067660Y-11507586D01*
X13044788Y-11582986D01*
X13037065Y-11661400D01*
X13037065Y-12261400D01*
X13044788Y-12339814D01*
X13067660Y-12415214D01*
X13104803Y-12484703D01*
X13154789Y-12545611D01*
X13215697Y-12595597D01*
X13217199Y-12596400D01*
X13215697Y-12597203D01*
X13154789Y-12647189D01*
X13104803Y-12708097D01*
X13067660Y-12777586D01*
X13044788Y-12852986D01*
X13037065Y-12931400D01*
X13037065Y-13531400D01*
X13044788Y-13609814D01*
X13067660Y-13685214D01*
X13104803Y-13754703D01*
X13154789Y-13815611D01*
X13215697Y-13865597D01*
X13217199Y-13866400D01*
X13215697Y-13867203D01*
X13154789Y-13917189D01*
X13104803Y-13978097D01*
X13067660Y-14047586D01*
X13044788Y-14122986D01*
X13037065Y-14201400D01*
X13037065Y-14801400D01*
X13044788Y-14879814D01*
X13067660Y-14955214D01*
X13104803Y-15024703D01*
X13154789Y-15085611D01*
X13215697Y-15135597D01*
X13285186Y-15172740D01*
X13360586Y-15195612D01*
X13439000Y-15203335D01*
X14708501Y-15203335D01*
X14741257Y-15230217D01*
X14810746Y-15267360D01*
X14886146Y-15290232D01*
X14964560Y-15297955D01*
X16163440Y-15297955D01*
X16241854Y-15290232D01*
X16317254Y-15267360D01*
X16386743Y-15230217D01*
X16447651Y-15180231D01*
X16497637Y-15119323D01*
X16534780Y-15049834D01*
X16557652Y-14974434D01*
X16565375Y-14896020D01*
X16565375Y-14098460D01*
X16557652Y-14020046D01*
X16534780Y-13944646D01*
X16497637Y-13875157D01*
X16447651Y-13814249D01*
X16386743Y-13764263D01*
X16317254Y-13727120D01*
X16241854Y-13704248D01*
X16163440Y-13696525D01*
X15354294Y-13696525D01*
X15360340Y-13685214D01*
X15383212Y-13609814D01*
X15390935Y-13531400D01*
X15390935Y-12931400D01*
X15383212Y-12852986D01*
X15360340Y-12777586D01*
X15323197Y-12708097D01*
X15290565Y-12668335D01*
X15426500Y-12668335D01*
X15533689Y-12657778D01*
X15636760Y-12626512D01*
X15731750Y-12575739D01*
X15764000Y-12549272D01*
X15796250Y-12575739D01*
X15891240Y-12626512D01*
X15994311Y-12657778D01*
X16014571Y-12659773D01*
X16061568Y-12698343D01*
X16217919Y-12781914D01*
X16387569Y-12833377D01*
X16519793Y-12846400D01*
X17684353Y-12846400D01*
X17704000Y-12848335D01*
X20204000Y-12848335D01*
X20282414Y-12840612D01*
X20357814Y-12817740D01*
X20427303Y-12780597D01*
X20488211Y-12730611D01*
X20538197Y-12669703D01*
X20575340Y-12600214D01*
X20598212Y-12524814D01*
X20605935Y-12446400D01*
X20605935Y-11446400D01*
X20598212Y-11367986D01*
X20575340Y-11292586D01*
X20538197Y-11223097D01*
X20488211Y-11162189D01*
X20427303Y-11112203D01*
X20357814Y-11075060D01*
X20282414Y-11052188D01*
X20204000Y-11044465D01*
X17704000Y-11044465D01*
X17684353Y-11046400D01*
X16519793Y-11046400D01*
X16387569Y-11059423D01*
X16217919Y-11110886D01*
X16061568Y-11194457D01*
X16014571Y-11233027D01*
X15994311Y-11235022D01*
X15891240Y-11266288D01*
X15796250Y-11317061D01*
X15764000Y-11343528D01*
X15731750Y-11317061D01*
X15636760Y-11266288D01*
X15533689Y-11235022D01*
X15426500Y-11224465D01*
X15315186Y-11224465D01*
X15323197Y-11214703D01*
X15360340Y-11145214D01*
X15383212Y-11069814D01*
X15390935Y-10991400D01*
X15390935Y-10391400D01*
X15383212Y-10312986D01*
X15360340Y-10237586D01*
X15323197Y-10168097D01*
X15273211Y-10107189D01*
X15212303Y-10057203D01*
X15142814Y-10020060D01*
X15067414Y-9997188D01*
X14989000Y-9989465D01*
X14935935Y-9989465D01*
X14935935Y-9933900D01*
X14925378Y-9826711D01*
X14894112Y-9723640D01*
X14843339Y-9628650D01*
X14775009Y-9545391D01*
X14691750Y-9477061D01*
X14596760Y-9426288D01*
X14493689Y-9395022D01*
X14386500Y-9384465D01*
X14041500Y-9384465D01*
X13963285Y-9392168D01*
X13970935Y-9314500D01*
X13970935Y-6814500D01*
X13963212Y-6736086D01*
X13940340Y-6660686D01*
X13903197Y-6591197D01*
X13853211Y-6530289D01*
X13792303Y-6480303D01*
X13722814Y-6443160D01*
X13647414Y-6420288D01*
X13569000Y-6412565D01*
X11069000Y-6412565D01*
X10990586Y-6420288D01*
X10915186Y-6443160D01*
X10845697Y-6480303D01*
X10784789Y-6530289D01*
X10734803Y-6591197D01*
X10697660Y-6660686D01*
X10674788Y-6736086D01*
X10667065Y-6814500D01*
X10667065Y-8145355D01*
X10412450Y-8145355D01*
X10334036Y-8153078D01*
X10258636Y-8175950D01*
X10189147Y-8213093D01*
X10128239Y-8263079D01*
X10078253Y-8323987D01*
X10041110Y-8393476D01*
X10018238Y-8468876D01*
X10010515Y-8547290D01*
X6577935Y-8547290D01*
X6577935Y-8227400D01*
X6570212Y-8148986D01*
X6547340Y-8073586D01*
X6510197Y-8004097D01*
X6460211Y-7943189D01*
X6399303Y-7893203D01*
X6329814Y-7856060D01*
X6254414Y-7833188D01*
X6176000Y-7825465D01*
X5376000Y-7825465D01*
X5297586Y-7833188D01*
X5222186Y-7856060D01*
X5152697Y-7893203D01*
X5091789Y-7943189D01*
X5041803Y-8004097D01*
X5004660Y-8073586D01*
X4981788Y-8148986D01*
X4974065Y-8227400D01*
X4820482Y-8227400D01*
X4877009Y-8181009D01*
X4945339Y-8097750D01*
X4996112Y-8002760D01*
X5027378Y-7899689D01*
X5037935Y-7792500D01*
X5037935Y-7447500D01*
X5027378Y-7340311D01*
X4996112Y-7237240D01*
X4945339Y-7142250D01*
X4941000Y-7136963D01*
X4941000Y-7036237D01*
X4945339Y-7030950D01*
X4996112Y-6935960D01*
X5027378Y-6832889D01*
X5037935Y-6725700D01*
X5037935Y-6380700D01*
X5027378Y-6273511D01*
X4996112Y-6170440D01*
X4945339Y-6075450D01*
X4922662Y-6047818D01*
X4947339Y-6017750D01*
X4998112Y-5922760D01*
X5029378Y-5819689D01*
X5039935Y-5712500D01*
X5039935Y-5417500D01*
X5029378Y-5310311D01*
X4998112Y-5207240D01*
X4947339Y-5112250D01*
X4920872Y-5080000D01*
X4947339Y-5047750D01*
X4998112Y-4952760D01*
X5029378Y-4849689D01*
X5039935Y-4742500D01*
X5039935Y-4710613D01*
X5113964Y-4703322D01*
X5189364Y-4680450D01*
X5258853Y-4643307D01*
X5319761Y-4593321D01*
X5369747Y-4532413D01*
X5406890Y-4462924D01*
X5429762Y-4387524D01*
X5437485Y-4309110D01*
X5437485Y-3310890D01*
X5429762Y-3232476D01*
X5406890Y-3157076D01*
X5369747Y-3087587D01*
X5319761Y-3026679D01*
X5258853Y-2976693D01*
X5189364Y-2939550D01*
X5113964Y-2916678D01*
X5035550Y-2908955D01*
X4699935Y-2908955D01*
X4699935Y-2052000D01*
X4692212Y-1973586D01*
X4669340Y-1898186D01*
X4632197Y-1828697D01*
X4582211Y-1767789D01*
X4521303Y-1717803D01*
X4451814Y-1680660D01*
X4376414Y-1657788D01*
X4298000Y-1650065D01*
X1798000Y-1650065D01*
X1719586Y-1657788D01*
X1644186Y-1680660D01*
X1574697Y-1717803D01*
X1513789Y-1767789D01*
X1463803Y-1828697D01*
X1426660Y-1898186D01*
X1403788Y-1973586D01*
X1396065Y-2052000D01*
X199413Y-2052000D01*
X195988Y-190473D01*
X33278367Y-199943D01*
G37*
X33278367Y-199943D02*
X33413393Y-73606112D01*
X331014Y-73596642D01*
X258311Y-34071400D01*
X15707065Y-34071400D01*
X15707065Y-35621400D01*
X15714788Y-35699814D01*
X15737660Y-35775214D01*
X15774803Y-35844703D01*
X15824789Y-35905611D01*
X15885697Y-35955597D01*
X15955186Y-35992740D01*
X16030586Y-36015612D01*
X16109000Y-36023335D01*
X16709000Y-36023335D01*
X16787414Y-36015612D01*
X16862814Y-35992740D01*
X16932303Y-35955597D01*
X16993211Y-35905611D01*
X17043197Y-35844703D01*
X17044000Y-35843201D01*
X17044803Y-35844703D01*
X17094789Y-35905611D01*
X17155697Y-35955597D01*
X17225186Y-35992740D01*
X17300586Y-36015612D01*
X17379000Y-36023335D01*
X17979000Y-36023335D01*
X18057414Y-36015612D01*
X18132814Y-35992740D01*
X18202303Y-35955597D01*
X18263211Y-35905611D01*
X18313197Y-35844703D01*
X18314000Y-35843201D01*
X18314803Y-35844703D01*
X18364789Y-35905611D01*
X18425697Y-35955597D01*
X18495186Y-35992740D01*
X18570586Y-36015612D01*
X18649000Y-36023335D01*
X19249000Y-36023335D01*
X19327414Y-36015612D01*
X19402814Y-35992740D01*
X19472303Y-35955597D01*
X19533211Y-35905611D01*
X19583197Y-35844703D01*
X19584000Y-35843201D01*
X19584803Y-35844703D01*
X19634789Y-35905611D01*
X19695697Y-35955597D01*
X19765186Y-35992740D01*
X19840586Y-36015612D01*
X19919000Y-36023335D01*
X20519000Y-36023335D01*
X20597414Y-36015612D01*
X20672814Y-35992740D01*
X20742303Y-35955597D01*
X20803211Y-35905611D01*
X20853197Y-35844703D01*
X20890340Y-35775214D01*
X20913212Y-35699814D01*
X20920935Y-35621400D01*
X20920935Y-34071400D01*
X20913212Y-33992986D01*
X20890340Y-33917586D01*
X20853197Y-33848097D01*
X20803211Y-33787189D01*
X20742303Y-33737203D01*
X20672814Y-33700060D01*
X20597414Y-33677188D01*
X20519000Y-33669465D01*
X19919000Y-33669465D01*
X19840586Y-33677188D01*
X19765186Y-33700060D01*
X19758165Y-33703813D01*
X19763875Y-33645840D01*
X19763875Y-32446960D01*
X19756152Y-32368546D01*
X19733280Y-32293146D01*
X19696137Y-32223657D01*
X19646151Y-32162749D01*
X19629561Y-32149134D01*
X19633196Y-32144704D01*
X19633999Y-32143202D01*
X19634802Y-32144704D01*
X19684788Y-32205612D01*
X19745696Y-32255598D01*
X19815185Y-32292741D01*
X19890585Y-32315613D01*
X19968999Y-32323336D01*
X20568999Y-32323336D01*
X20647413Y-32315613D01*
X20651257Y-32314447D01*
X20741500Y-32323335D01*
X21086500Y-32323335D01*
X21193689Y-32312778D01*
X21296760Y-32281512D01*
X21391750Y-32230739D01*
X21433342Y-32196605D01*
X22313110Y-32196605D01*
X22391524Y-32188882D01*
X22466924Y-32166010D01*
X22536413Y-32128867D01*
X22597321Y-32078881D01*
X22647307Y-32017973D01*
X22684450Y-31948484D01*
X22707322Y-31873084D01*
X22709713Y-31848807D01*
X22714749Y-31849303D01*
X22744223Y-31846400D01*
X24862065Y-31846400D01*
X24862065Y-32096400D01*
X24869788Y-32174814D01*
X24892660Y-32250214D01*
X24929803Y-32319703D01*
X24979789Y-32380611D01*
X25040697Y-32430597D01*
X25110186Y-32467740D01*
X25185586Y-32490612D01*
X25264000Y-32498335D01*
X25514001Y-32498335D01*
X25514000Y-39796400D01*
X22660112Y-39796400D01*
X22657322Y-39768076D01*
X22634450Y-39692676D01*
X22597307Y-39623187D01*
X22547321Y-39562279D01*
X22486413Y-39512293D01*
X22416924Y-39475150D01*
X22341524Y-39452278D01*
X22263110Y-39444555D01*
X21264890Y-39444555D01*
X21186476Y-39452278D01*
X21111076Y-39475150D01*
X21041587Y-39512293D01*
X20980679Y-39562279D01*
X20930693Y-39623187D01*
X20920935Y-39641443D01*
X20920935Y-39471400D01*
X20913212Y-39392986D01*
X20890340Y-39317586D01*
X20853197Y-39248097D01*
X20803211Y-39187189D01*
X20742303Y-39137203D01*
X20672814Y-39100060D01*
X20597414Y-39077188D01*
X20519000Y-39069465D01*
X19919000Y-39069465D01*
X19840586Y-39077188D01*
X19765186Y-39100060D01*
X19695697Y-39137203D01*
X19634789Y-39187189D01*
X19584803Y-39248097D01*
X19584000Y-39249599D01*
X19583197Y-39248097D01*
X19533211Y-39187189D01*
X19472303Y-39137203D01*
X19402814Y-39100060D01*
X19327414Y-39077188D01*
X19249000Y-39069465D01*
X18649000Y-39069465D01*
X18570586Y-39077188D01*
X18495186Y-39100060D01*
X18425697Y-39137203D01*
X18364789Y-39187189D01*
X18314803Y-39248097D01*
X18314000Y-39249599D01*
X18313197Y-39248097D01*
X18263211Y-39187189D01*
X18202303Y-39137203D01*
X18132814Y-39100060D01*
X18057414Y-39077188D01*
X17979000Y-39069465D01*
X17379000Y-39069465D01*
X17300586Y-39077188D01*
X17225186Y-39100060D01*
X17155697Y-39137203D01*
X17094789Y-39187189D01*
X17044803Y-39248097D01*
X17007660Y-39317586D01*
X16984788Y-39392986D01*
X16977065Y-39471400D01*
X16977065Y-41021400D01*
X16984788Y-41099814D01*
X17007660Y-41175214D01*
X17044803Y-41244703D01*
X17094789Y-41305611D01*
X17155697Y-41355597D01*
X17225186Y-41392740D01*
X17300586Y-41415612D01*
X17379000Y-41423335D01*
X17979000Y-41423335D01*
X18057414Y-41415612D01*
X18132814Y-41392740D01*
X18202303Y-41355597D01*
X18221556Y-41339796D01*
X18193040Y-41393146D01*
X18170168Y-41468546D01*
X18162445Y-41546960D01*
X18162445Y-42745840D01*
X18170168Y-42824254D01*
X18193040Y-42899654D01*
X18199394Y-42911541D01*
X18155374Y-42898188D01*
X18076960Y-42890465D01*
X17476960Y-42890465D01*
X17398546Y-42898188D01*
X17323146Y-42921060D01*
X17253657Y-42958203D01*
X17192749Y-43008189D01*
X17142763Y-43069097D01*
X17141960Y-43070599D01*
X17141157Y-43069097D01*
X17091171Y-43008189D01*
X17030263Y-42958203D01*
X16960774Y-42921060D01*
X16885374Y-42898188D01*
X16806960Y-42890465D01*
X16206960Y-42890465D01*
X16128546Y-42898188D01*
X16053146Y-42921060D01*
X15983657Y-42958203D01*
X15922749Y-43008189D01*
X15872763Y-43069097D01*
X15835620Y-43138586D01*
X15812748Y-43213986D01*
X15805025Y-43292400D01*
X15805025Y-44842400D01*
X15812748Y-44920814D01*
X15835620Y-44996214D01*
X15872763Y-45065703D01*
X15922749Y-45126611D01*
X15983657Y-45176597D01*
X16053146Y-45213740D01*
X16128546Y-45236612D01*
X16206960Y-45244335D01*
X16806960Y-45244335D01*
X16885374Y-45236612D01*
X16960774Y-45213740D01*
X17030263Y-45176597D01*
X17091171Y-45126611D01*
X17141157Y-45065703D01*
X17141960Y-45064201D01*
X17142763Y-45065703D01*
X17192749Y-45126611D01*
X17253657Y-45176597D01*
X17323146Y-45213740D01*
X17398546Y-45236612D01*
X17476960Y-45244335D01*
X18076960Y-45244335D01*
X18155374Y-45236612D01*
X18230774Y-45213740D01*
X18300263Y-45176597D01*
X18361171Y-45126611D01*
X18411157Y-45065703D01*
X18411960Y-45064201D01*
X18412763Y-45065703D01*
X18462749Y-45126611D01*
X18523657Y-45176597D01*
X18593146Y-45213740D01*
X18668546Y-45236612D01*
X18746960Y-45244335D01*
X19346960Y-45244335D01*
X19425374Y-45236612D01*
X19500774Y-45213740D01*
X19570263Y-45176597D01*
X19631171Y-45126611D01*
X19681157Y-45065703D01*
X19681960Y-45064201D01*
X19682763Y-45065703D01*
X19732749Y-45126611D01*
X19793657Y-45176597D01*
X19863146Y-45213740D01*
X19938546Y-45236612D01*
X20016960Y-45244335D01*
X20616960Y-45244335D01*
X20695374Y-45236612D01*
X20770774Y-45213740D01*
X20840263Y-45176597D01*
X20901171Y-45126611D01*
X20951157Y-45065703D01*
X20988300Y-44996214D01*
X21011172Y-44920814D01*
X21018895Y-44842400D01*
X21018895Y-43292400D01*
X21011172Y-43213986D01*
X20988300Y-43138586D01*
X20951157Y-43069097D01*
X20901171Y-43008189D01*
X20840263Y-42958203D01*
X20770774Y-42921060D01*
X20695374Y-42898188D01*
X20616960Y-42890465D01*
X20016960Y-42890465D01*
X19938546Y-42898188D01*
X19863146Y-42921060D01*
X19793657Y-42958203D01*
X19732749Y-43008189D01*
X19682763Y-43069097D01*
X19681960Y-43070599D01*
X19681157Y-43069097D01*
X19647632Y-43028247D01*
X19696137Y-42969143D01*
X19733280Y-42899654D01*
X19756152Y-42824254D01*
X19763875Y-42745840D01*
X19763875Y-41546960D01*
X19756152Y-41468546D01*
X19733280Y-41393146D01*
X19720214Y-41368702D01*
X19765186Y-41392740D01*
X19840586Y-41415612D01*
X19919000Y-41423335D01*
X20519000Y-41423335D01*
X20597414Y-41415612D01*
X20672814Y-41392740D01*
X20682561Y-41387530D01*
X20741500Y-41393335D01*
X21086500Y-41393335D01*
X21193689Y-41382778D01*
X21296760Y-41351512D01*
X21302872Y-41348245D01*
X22263110Y-41348245D01*
X22341524Y-41340522D01*
X22416924Y-41317650D01*
X22486413Y-41280507D01*
X22547321Y-41230521D01*
X22597307Y-41169613D01*
X22634450Y-41100124D01*
X22657322Y-41024724D01*
X22660112Y-40996400D01*
X25514001Y-40996400D01*
X25514000Y-48894760D01*
X22710112Y-48894760D01*
X22707322Y-48866436D01*
X22684450Y-48791036D01*
X22647307Y-48721547D01*
X22597321Y-48660639D01*
X22536413Y-48610653D01*
X22466924Y-48573510D01*
X22391524Y-48550638D01*
X22313110Y-48542915D01*
X21314890Y-48542915D01*
X21236476Y-48550638D01*
X21161076Y-48573510D01*
X21091587Y-48610653D01*
X21030679Y-48660639D01*
X21017365Y-48676862D01*
X21011172Y-48613986D01*
X20988300Y-48538586D01*
X20951157Y-48469097D01*
X20901171Y-48408189D01*
X20840263Y-48358203D01*
X20770774Y-48321060D01*
X20695374Y-48298188D01*
X20616960Y-48290465D01*
X20016960Y-48290465D01*
X19938546Y-48298188D01*
X19863146Y-48321060D01*
X19793657Y-48358203D01*
X19732749Y-48408189D01*
X19682763Y-48469097D01*
X19681960Y-48470599D01*
X19681157Y-48469097D01*
X19631171Y-48408189D01*
X19570263Y-48358203D01*
X19500774Y-48321060D01*
X19425374Y-48298188D01*
X19346960Y-48290465D01*
X18746960Y-48290465D01*
X18668546Y-48298188D01*
X18593146Y-48321060D01*
X18523657Y-48358203D01*
X18462749Y-48408189D01*
X18412763Y-48469097D01*
X18411960Y-48470599D01*
X18411157Y-48469097D01*
X18361171Y-48408189D01*
X18300263Y-48358203D01*
X18230774Y-48321060D01*
X18155374Y-48298188D01*
X18076960Y-48290465D01*
X17476960Y-48290465D01*
X17398546Y-48298188D01*
X17323146Y-48321060D01*
X17253657Y-48358203D01*
X17192749Y-48408189D01*
X17142763Y-48469097D01*
X17105620Y-48538586D01*
X17082748Y-48613986D01*
X17075025Y-48692400D01*
X17075025Y-50242400D01*
X17082748Y-50320814D01*
X17105620Y-50396214D01*
X17142763Y-50465703D01*
X17192749Y-50526611D01*
X17253657Y-50576597D01*
X17323146Y-50613740D01*
X17398546Y-50636612D01*
X17476960Y-50644335D01*
X18076960Y-50644335D01*
X18155374Y-50636612D01*
X18163714Y-50634082D01*
X18162446Y-50646960D01*
X18162446Y-51845840D01*
X18170169Y-51924254D01*
X18193041Y-51999654D01*
X18197435Y-52007875D01*
X18182814Y-52000060D01*
X18107414Y-51977188D01*
X18029000Y-51969465D01*
X17429000Y-51969465D01*
X17350586Y-51977188D01*
X17275186Y-52000060D01*
X17205697Y-52037203D01*
X17144789Y-52087189D01*
X17094803Y-52148097D01*
X17094000Y-52149599D01*
X17093197Y-52148097D01*
X17043211Y-52087189D01*
X16982303Y-52037203D01*
X16912814Y-52000060D01*
X16837414Y-51977188D01*
X16759000Y-51969465D01*
X16159000Y-51969465D01*
X16080586Y-51977188D01*
X16005186Y-52000060D01*
X15935697Y-52037203D01*
X15874789Y-52087189D01*
X15824803Y-52148097D01*
X15787660Y-52217586D01*
X15764788Y-52292986D01*
X15757065Y-52371400D01*
X15757065Y-53921400D01*
X15764788Y-53999814D01*
X15787660Y-54075214D01*
X15824803Y-54144703D01*
X15874789Y-54205611D01*
X15935697Y-54255597D01*
X16005186Y-54292740D01*
X16080586Y-54315612D01*
X16159000Y-54323335D01*
X16759000Y-54323335D01*
X16837414Y-54315612D01*
X16912814Y-54292740D01*
X16982303Y-54255597D01*
X17043211Y-54205611D01*
X17093197Y-54144703D01*
X17094000Y-54143201D01*
X17094803Y-54144703D01*
X17144789Y-54205611D01*
X17205697Y-54255597D01*
X17275186Y-54292740D01*
X17350586Y-54315612D01*
X17429000Y-54323335D01*
X18029000Y-54323335D01*
X18107414Y-54315612D01*
X18182814Y-54292740D01*
X18252303Y-54255597D01*
X18313211Y-54205611D01*
X18363197Y-54144703D01*
X18364000Y-54143201D01*
X18364803Y-54144703D01*
X18414789Y-54205611D01*
X18475697Y-54255597D01*
X18545186Y-54292740D01*
X18620586Y-54315612D01*
X18699000Y-54323335D01*
X19299000Y-54323335D01*
X19377414Y-54315612D01*
X19452814Y-54292740D01*
X19522303Y-54255597D01*
X19583211Y-54205611D01*
X19633197Y-54144703D01*
X19634000Y-54143201D01*
X19634803Y-54144703D01*
X19684789Y-54205611D01*
X19745697Y-54255597D01*
X19815186Y-54292740D01*
X19890586Y-54315612D01*
X19969000Y-54323335D01*
X20569000Y-54323335D01*
X20647414Y-54315612D01*
X20722814Y-54292740D01*
X20792303Y-54255597D01*
X20853211Y-54205611D01*
X20903197Y-54144703D01*
X20940340Y-54075214D01*
X20963212Y-53999814D01*
X20970935Y-53921400D01*
X20970935Y-52371400D01*
X20963212Y-52292986D01*
X20940340Y-52217586D01*
X20903197Y-52148097D01*
X20853211Y-52087189D01*
X20792303Y-52037203D01*
X20722814Y-52000060D01*
X20647414Y-51977188D01*
X20569000Y-51969465D01*
X19969000Y-51969465D01*
X19890586Y-51977188D01*
X19815186Y-52000060D01*
X19745697Y-52037203D01*
X19684789Y-52087189D01*
X19634803Y-52148097D01*
X19634000Y-52149599D01*
X19633197Y-52148097D01*
X19629561Y-52143667D01*
X19646152Y-52130051D01*
X19696138Y-52069143D01*
X19733281Y-51999654D01*
X19756153Y-51924254D01*
X19763876Y-51845840D01*
X19763876Y-50646960D01*
X19756153Y-50568546D01*
X19746973Y-50538285D01*
X19793657Y-50576597D01*
X19863146Y-50613740D01*
X19938546Y-50636612D01*
X20016960Y-50644335D01*
X20616960Y-50644335D01*
X20695374Y-50636612D01*
X20770774Y-50613740D01*
X20780886Y-50608335D01*
X21086500Y-50608335D01*
X21193689Y-50597778D01*
X21296760Y-50566512D01*
X21391750Y-50515739D01*
X21475009Y-50447409D01*
X21475669Y-50446605D01*
X22313110Y-50446605D01*
X22391524Y-50438882D01*
X22466924Y-50416010D01*
X22536413Y-50378867D01*
X22597321Y-50328881D01*
X22647307Y-50267973D01*
X22684450Y-50198484D01*
X22707322Y-50123084D01*
X22710112Y-50094760D01*
X25514001Y-50094760D01*
X25514000Y-57896400D01*
X22836015Y-57896400D01*
X22806549Y-57893498D01*
X22777083Y-57896400D01*
X22777076Y-57896400D01*
X22753443Y-57898728D01*
X22734450Y-57836116D01*
X22697307Y-57766627D01*
X22647321Y-57705719D01*
X22586413Y-57655733D01*
X22516924Y-57618590D01*
X22441524Y-57595718D01*
X22363110Y-57587995D01*
X21364890Y-57587995D01*
X21286476Y-57595718D01*
X21211076Y-57618590D01*
X21141587Y-57655733D01*
X21080679Y-57705719D01*
X21030693Y-57766627D01*
X20993550Y-57836116D01*
X20970935Y-57910669D01*
X20970935Y-57771400D01*
X20963212Y-57692986D01*
X20940340Y-57617586D01*
X20903197Y-57548097D01*
X20853211Y-57487189D01*
X20792303Y-57437203D01*
X20722814Y-57400060D01*
X20647414Y-57377188D01*
X20569000Y-57369465D01*
X19969000Y-57369465D01*
X19890586Y-57377188D01*
X19815186Y-57400060D01*
X19745697Y-57437203D01*
X19684789Y-57487189D01*
X19634803Y-57548097D01*
X19634000Y-57549599D01*
X19633197Y-57548097D01*
X19583211Y-57487189D01*
X19522303Y-57437203D01*
X19452814Y-57400060D01*
X19377414Y-57377188D01*
X19299000Y-57369465D01*
X18699000Y-57369465D01*
X18620586Y-57377188D01*
X18545186Y-57400060D01*
X18475697Y-57437203D01*
X18414789Y-57487189D01*
X18364803Y-57548097D01*
X18364000Y-57549599D01*
X18363197Y-57548097D01*
X18313211Y-57487189D01*
X18252303Y-57437203D01*
X18182814Y-57400060D01*
X18107414Y-57377188D01*
X18029000Y-57369465D01*
X17429000Y-57369465D01*
X17350586Y-57377188D01*
X17275186Y-57400060D01*
X17205697Y-57437203D01*
X17144789Y-57487189D01*
X17094803Y-57548097D01*
X17057660Y-57617586D01*
X17034788Y-57692986D01*
X17027065Y-57771400D01*
X17027065Y-59321400D01*
X17034788Y-59399814D01*
X17057660Y-59475214D01*
X17094803Y-59544703D01*
X17144789Y-59605611D01*
X17205697Y-59655597D01*
X17275186Y-59692740D01*
X17350586Y-59715612D01*
X17429000Y-59723335D01*
X18029000Y-59723335D01*
X18107414Y-59715612D01*
X18182814Y-59692740D01*
X18252303Y-59655597D01*
X18271556Y-59639796D01*
X18243040Y-59693146D01*
X18220168Y-59768546D01*
X18212445Y-59846960D01*
X18212445Y-61045840D01*
X18220168Y-61124254D01*
X18236740Y-61178884D01*
X18182814Y-61150060D01*
X18107414Y-61127188D01*
X18029000Y-61119465D01*
X17429000Y-61119465D01*
X17350586Y-61127188D01*
X17275186Y-61150060D01*
X17205697Y-61187203D01*
X17144789Y-61237189D01*
X17094803Y-61298097D01*
X17094000Y-61299599D01*
X17093197Y-61298097D01*
X17043211Y-61237189D01*
X16982303Y-61187203D01*
X16912814Y-61150060D01*
X16837414Y-61127188D01*
X16759000Y-61119465D01*
X16159000Y-61119465D01*
X16080586Y-61127188D01*
X16005186Y-61150060D01*
X15935697Y-61187203D01*
X15874789Y-61237189D01*
X15824803Y-61298097D01*
X15787660Y-61367586D01*
X15764788Y-61442986D01*
X15757065Y-61521400D01*
X15757065Y-63071400D01*
X15764788Y-63149814D01*
X15787660Y-63225214D01*
X15824803Y-63294703D01*
X15874789Y-63355611D01*
X15935697Y-63405597D01*
X16005186Y-63442740D01*
X16080586Y-63465612D01*
X16159000Y-63473335D01*
X16759000Y-63473335D01*
X16837414Y-63465612D01*
X16912814Y-63442740D01*
X16982303Y-63405597D01*
X17043211Y-63355611D01*
X17093197Y-63294703D01*
X17094000Y-63293201D01*
X17094803Y-63294703D01*
X17144789Y-63355611D01*
X17205697Y-63405597D01*
X17275186Y-63442740D01*
X17350586Y-63465612D01*
X17429000Y-63473335D01*
X18029000Y-63473335D01*
X18107414Y-63465612D01*
X18182814Y-63442740D01*
X18252303Y-63405597D01*
X18313211Y-63355611D01*
X18363197Y-63294703D01*
X18364000Y-63293201D01*
X18364803Y-63294703D01*
X18414789Y-63355611D01*
X18475697Y-63405597D01*
X18545186Y-63442740D01*
X18620586Y-63465612D01*
X18699000Y-63473335D01*
X19299000Y-63473335D01*
X19377414Y-63465612D01*
X19452814Y-63442740D01*
X19522303Y-63405597D01*
X19583211Y-63355611D01*
X19633197Y-63294703D01*
X19634000Y-63293201D01*
X19634803Y-63294703D01*
X19684789Y-63355611D01*
X19745697Y-63405597D01*
X19815186Y-63442740D01*
X19890586Y-63465612D01*
X19969000Y-63473335D01*
X20569000Y-63473335D01*
X20647414Y-63465612D01*
X20722814Y-63442740D01*
X20792303Y-63405597D01*
X20853211Y-63355611D01*
X20903197Y-63294703D01*
X20940340Y-63225214D01*
X20963212Y-63149814D01*
X20970935Y-63071400D01*
X20970935Y-61521400D01*
X20963212Y-61442986D01*
X20940340Y-61367586D01*
X20903197Y-61298097D01*
X20853211Y-61237189D01*
X20792303Y-61187203D01*
X20722814Y-61150060D01*
X20647414Y-61127188D01*
X20569000Y-61119465D01*
X19969000Y-61119465D01*
X19890586Y-61127188D01*
X19815186Y-61150060D01*
X19795061Y-61160817D01*
X19806152Y-61124254D01*
X19813875Y-61045840D01*
X19813875Y-59846960D01*
X19806152Y-59768546D01*
X19783280Y-59693146D01*
X19770214Y-59668702D01*
X19815186Y-59692740D01*
X19890586Y-59715612D01*
X19969000Y-59723335D01*
X20478524Y-59723335D01*
X20531240Y-59751512D01*
X20634311Y-59782778D01*
X20741500Y-59793335D01*
X21086500Y-59793335D01*
X21193689Y-59782778D01*
X21296760Y-59751512D01*
X21391750Y-59700739D01*
X21475009Y-59632409D01*
X21543339Y-59549150D01*
X21574055Y-59491685D01*
X22363110Y-59491685D01*
X22441524Y-59483962D01*
X22516924Y-59461090D01*
X22586413Y-59423947D01*
X22647321Y-59373961D01*
X22697307Y-59313053D01*
X22734450Y-59243564D01*
X22757322Y-59168164D01*
X22759857Y-59142423D01*
X22763110Y-59142743D01*
X22792584Y-59139840D01*
X22880731Y-59131158D01*
X22993831Y-59096850D01*
X22994673Y-59096400D01*
X25514001Y-59096400D01*
X25514000Y-67046400D01*
X22809245Y-67046400D01*
X22792584Y-67044759D01*
X22763110Y-67041856D01*
X22759857Y-67042176D01*
X22757322Y-67016435D01*
X22734450Y-66941035D01*
X22697307Y-66871546D01*
X22647321Y-66810638D01*
X22586413Y-66760652D01*
X22516924Y-66723509D01*
X22441524Y-66700637D01*
X22363110Y-66692914D01*
X21364890Y-66692914D01*
X21286476Y-66700637D01*
X21211076Y-66723509D01*
X21141587Y-66760652D01*
X21080679Y-66810638D01*
X21030693Y-66871546D01*
X20993550Y-66941035D01*
X20970935Y-67015588D01*
X20970935Y-66921400D01*
X20963212Y-66842986D01*
X20940340Y-66767586D01*
X20903197Y-66698097D01*
X20853211Y-66637189D01*
X20792303Y-66587203D01*
X20722814Y-66550060D01*
X20647414Y-66527188D01*
X20569000Y-66519465D01*
X19969000Y-66519465D01*
X19890586Y-66527188D01*
X19815186Y-66550060D01*
X19745697Y-66587203D01*
X19684789Y-66637189D01*
X19634803Y-66698097D01*
X19634000Y-66699599D01*
X19633197Y-66698097D01*
X19583211Y-66637189D01*
X19522303Y-66587203D01*
X19452814Y-66550060D01*
X19377414Y-66527188D01*
X19299000Y-66519465D01*
X18699000Y-66519465D01*
X18620586Y-66527188D01*
X18545186Y-66550060D01*
X18475697Y-66587203D01*
X18414789Y-66637189D01*
X18364803Y-66698097D01*
X18364000Y-66699599D01*
X18363197Y-66698097D01*
X18313211Y-66637189D01*
X18252303Y-66587203D01*
X18182814Y-66550060D01*
X18107414Y-66527188D01*
X18029000Y-66519465D01*
X17429000Y-66519465D01*
X17350586Y-66527188D01*
X17275186Y-66550060D01*
X17205697Y-66587203D01*
X17144789Y-66637189D01*
X17094803Y-66698097D01*
X17057660Y-66767586D01*
X17034788Y-66842986D01*
X17027065Y-66921400D01*
X17027065Y-68471400D01*
X17034788Y-68549814D01*
X17057660Y-68625214D01*
X17094803Y-68694703D01*
X17144789Y-68755611D01*
X17205697Y-68805597D01*
X17275186Y-68842740D01*
X17350586Y-68865612D01*
X17429000Y-68873335D01*
X18029000Y-68873335D01*
X18107414Y-68865612D01*
X18182814Y-68842740D01*
X18252303Y-68805597D01*
X18313211Y-68755611D01*
X18363197Y-68694703D01*
X18364000Y-68693201D01*
X18364803Y-68694703D01*
X18399001Y-68736374D01*
X18399001Y-69094465D01*
X17764000Y-69094465D01*
X17685586Y-69102188D01*
X17610186Y-69125060D01*
X17540697Y-69162203D01*
X17479789Y-69212189D01*
X17429803Y-69273097D01*
X17392660Y-69342586D01*
X17369788Y-69417986D01*
X17362065Y-69496400D01*
X17362065Y-71996400D01*
X17369788Y-72074814D01*
X17392660Y-72150214D01*
X17429803Y-72219703D01*
X17479789Y-72280611D01*
X17540697Y-72330597D01*
X17610186Y-72367740D01*
X17685586Y-72390612D01*
X17764000Y-72398335D01*
X20264000Y-72398335D01*
X20342414Y-72390612D01*
X20417814Y-72367740D01*
X20487303Y-72330597D01*
X20548211Y-72280611D01*
X20598197Y-72219703D01*
X20635340Y-72150214D01*
X20658212Y-72074814D01*
X20665935Y-71996400D01*
X20665935Y-69496400D01*
X20658212Y-69417986D01*
X20635340Y-69342586D01*
X20598197Y-69273097D01*
X20548211Y-69212189D01*
X20487303Y-69162203D01*
X20417814Y-69125060D01*
X20342414Y-69102188D01*
X20264000Y-69094465D01*
X19599000Y-69094465D01*
X19599000Y-68736372D01*
X19633197Y-68694703D01*
X19634000Y-68693201D01*
X19634803Y-68694703D01*
X19684789Y-68755611D01*
X19745697Y-68805597D01*
X19815186Y-68842740D01*
X19890586Y-68865612D01*
X19969000Y-68873335D01*
X20569000Y-68873335D01*
X20647414Y-68865612D01*
X20651255Y-68864447D01*
X20741500Y-68873335D01*
X21086500Y-68873335D01*
X21193689Y-68862778D01*
X21296760Y-68831512D01*
X21391750Y-68780739D01*
X21475009Y-68712409D01*
X21543339Y-68629150D01*
X21560735Y-68596604D01*
X22363110Y-68596604D01*
X22441524Y-68588881D01*
X22516924Y-68566009D01*
X22586413Y-68528866D01*
X22647321Y-68478880D01*
X22697307Y-68417972D01*
X22734450Y-68348483D01*
X22757322Y-68273083D01*
X22759713Y-68248807D01*
X22764751Y-68249303D01*
X22794225Y-68246400D01*
X26084526Y-68246400D01*
X26114000Y-68249303D01*
X26143474Y-68246400D01*
X26231621Y-68237718D01*
X26344721Y-68203410D01*
X26448955Y-68147696D01*
X26540317Y-68072717D01*
X26615296Y-67981355D01*
X26671010Y-67877121D01*
X26705318Y-67764021D01*
X26716903Y-67646400D01*
X26714000Y-67616926D01*
X26714000Y-58575873D01*
X26716903Y-58546400D01*
X26714000Y-58516926D01*
X26714000Y-49625873D01*
X26716903Y-49596400D01*
X26714000Y-49566926D01*
X26714000Y-40525873D01*
X26716903Y-40496399D01*
X26714000Y-40466925D01*
X26714000Y-32498335D01*
X26764000Y-32498335D01*
X26842414Y-32490612D01*
X26917814Y-32467740D01*
X26987303Y-32430597D01*
X27048211Y-32380611D01*
X27098197Y-32319703D01*
X27135340Y-32250214D01*
X27158212Y-32174814D01*
X27165935Y-32096400D01*
X27165935Y-30596400D01*
X27158212Y-30517986D01*
X27135340Y-30442586D01*
X27098197Y-30373097D01*
X27048211Y-30312189D01*
X26987303Y-30262203D01*
X26917814Y-30225060D01*
X26842414Y-30202188D01*
X26764000Y-30194465D01*
X25264000Y-30194465D01*
X25185586Y-30202188D01*
X25110186Y-30225060D01*
X25040697Y-30262203D01*
X24979789Y-30312189D01*
X24929803Y-30373097D01*
X24892660Y-30442586D01*
X24869788Y-30517986D01*
X24862065Y-30596400D01*
X24862065Y-30646400D01*
X22759235Y-30646400D01*
X22742584Y-30644760D01*
X22713110Y-30641857D01*
X22709857Y-30642177D01*
X22707322Y-30616436D01*
X22684450Y-30541036D01*
X22647307Y-30471547D01*
X22597321Y-30410639D01*
X22536413Y-30360653D01*
X22466924Y-30323510D01*
X22391524Y-30300638D01*
X22313110Y-30292915D01*
X21314890Y-30292915D01*
X21236476Y-30300638D01*
X21161076Y-30323510D01*
X21091587Y-30360653D01*
X21030679Y-30410639D01*
X20980693Y-30471547D01*
X20970934Y-30489805D01*
X20970934Y-30371401D01*
X20963211Y-30292987D01*
X20940339Y-30217587D01*
X20903196Y-30148098D01*
X20853210Y-30087190D01*
X20792302Y-30037204D01*
X20722813Y-30000061D01*
X20647413Y-29977189D01*
X20568999Y-29969466D01*
X19968999Y-29969466D01*
X19890585Y-29977189D01*
X19815185Y-30000061D01*
X19745696Y-30037204D01*
X19684788Y-30087190D01*
X19634802Y-30148098D01*
X19633999Y-30149600D01*
X19633196Y-30148098D01*
X19583210Y-30087190D01*
X19522302Y-30037204D01*
X19452813Y-30000061D01*
X19377413Y-29977189D01*
X19298999Y-29969466D01*
X18698999Y-29969466D01*
X18620585Y-29977189D01*
X18545185Y-30000061D01*
X18475696Y-30037204D01*
X18414788Y-30087190D01*
X18364802Y-30148098D01*
X18363999Y-30149600D01*
X18363196Y-30148098D01*
X18313210Y-30087190D01*
X18252302Y-30037204D01*
X18182813Y-30000061D01*
X18107413Y-29977189D01*
X18028999Y-29969466D01*
X17428999Y-29969466D01*
X17350585Y-29977189D01*
X17275185Y-30000061D01*
X17205696Y-30037204D01*
X17144788Y-30087190D01*
X17094802Y-30148098D01*
X17057659Y-30217587D01*
X17034787Y-30292987D01*
X17027064Y-30371401D01*
X17027064Y-31921401D01*
X17034787Y-31999815D01*
X17057659Y-32075215D01*
X17094802Y-32144704D01*
X17144788Y-32205612D01*
X17205696Y-32255598D01*
X17275185Y-32292741D01*
X17350585Y-32315613D01*
X17428999Y-32323336D01*
X18028999Y-32323336D01*
X18107413Y-32315613D01*
X18182813Y-32292741D01*
X18197434Y-32284926D01*
X18193040Y-32293146D01*
X18170168Y-32368546D01*
X18162445Y-32446960D01*
X18162445Y-33645840D01*
X18169728Y-33719791D01*
X18132814Y-33700060D01*
X18057414Y-33677188D01*
X17979000Y-33669465D01*
X17379000Y-33669465D01*
X17300586Y-33677188D01*
X17225186Y-33700060D01*
X17155697Y-33737203D01*
X17094789Y-33787189D01*
X17044803Y-33848097D01*
X17044000Y-33849599D01*
X17043197Y-33848097D01*
X16993211Y-33787189D01*
X16932303Y-33737203D01*
X16862814Y-33700060D01*
X16787414Y-33677188D01*
X16709000Y-33669465D01*
X16109000Y-33669465D01*
X16030586Y-33677188D01*
X15955186Y-33700060D01*
X15885697Y-33737203D01*
X15824789Y-33787189D01*
X15774803Y-33848097D01*
X15737660Y-33917586D01*
X15714788Y-33992986D01*
X15707065Y-34071400D01*
X258311Y-34071400D01*
X242079Y-25247290D01*
X14710515Y-25247290D01*
X14710515Y-26245510D01*
X14718238Y-26323924D01*
X14741110Y-26399324D01*
X14778253Y-26468813D01*
X14828239Y-26529721D01*
X14889147Y-26579707D01*
X14958636Y-26616850D01*
X15034036Y-26639722D01*
X15112450Y-26647445D01*
X15779235Y-26647445D01*
X15787659Y-26675215D01*
X15824802Y-26744704D01*
X15874788Y-26805612D01*
X15935696Y-26855598D01*
X16005185Y-26892741D01*
X16080585Y-26915613D01*
X16158999Y-26923336D01*
X16758999Y-26923336D01*
X16837413Y-26915613D01*
X16912813Y-26892741D01*
X16982302Y-26855598D01*
X17043210Y-26805612D01*
X17093196Y-26744704D01*
X17093999Y-26743202D01*
X17094802Y-26744704D01*
X17144788Y-26805612D01*
X17205696Y-26855598D01*
X17275185Y-26892741D01*
X17350585Y-26915613D01*
X17428999Y-26923336D01*
X18028999Y-26923336D01*
X18107413Y-26915613D01*
X18182813Y-26892741D01*
X18252302Y-26855598D01*
X18313210Y-26805612D01*
X18363196Y-26744704D01*
X18363999Y-26743202D01*
X18364802Y-26744704D01*
X18414788Y-26805612D01*
X18475696Y-26855598D01*
X18545185Y-26892741D01*
X18620585Y-26915613D01*
X18698999Y-26923336D01*
X19298999Y-26923336D01*
X19377413Y-26915613D01*
X19452813Y-26892741D01*
X19522302Y-26855598D01*
X19583210Y-26805612D01*
X19633196Y-26744704D01*
X19633999Y-26743202D01*
X19634802Y-26744704D01*
X19684788Y-26805612D01*
X19745696Y-26855598D01*
X19815185Y-26892741D01*
X19890585Y-26915613D01*
X19968999Y-26923336D01*
X20568999Y-26923336D01*
X20647413Y-26915613D01*
X20722813Y-26892741D01*
X20792302Y-26855598D01*
X20853210Y-26805612D01*
X20903196Y-26744704D01*
X20940339Y-26675215D01*
X20963211Y-26599815D01*
X20970934Y-26521401D01*
X20970934Y-24971401D01*
X20963211Y-24892987D01*
X20940339Y-24817587D01*
X20903196Y-24748098D01*
X20853210Y-24687190D01*
X20792302Y-24637204D01*
X20722813Y-24600061D01*
X20647413Y-24577189D01*
X20568999Y-24569466D01*
X19968999Y-24569466D01*
X19890585Y-24577189D01*
X19815185Y-24600061D01*
X19745696Y-24637204D01*
X19684788Y-24687190D01*
X19644185Y-24736664D01*
X19645935Y-24718900D01*
X19645935Y-24469136D01*
X19715943Y-24383831D01*
X19799514Y-24227480D01*
X19850977Y-24057830D01*
X19864000Y-23925606D01*
X19864000Y-22139793D01*
X19850977Y-22007569D01*
X19799514Y-21837919D01*
X19715943Y-21681568D01*
X19675986Y-21632880D01*
X19675378Y-21626710D01*
X19644112Y-21523639D01*
X19593339Y-21428649D01*
X19566872Y-21396399D01*
X19593339Y-21364149D01*
X19644112Y-21269159D01*
X19675378Y-21166088D01*
X19677373Y-21145829D01*
X19715943Y-21098832D01*
X19799514Y-20942481D01*
X19850977Y-20772831D01*
X19864000Y-20640607D01*
X19864000Y-19759717D01*
X19951500Y-19768335D01*
X19985220Y-19768335D01*
X19994720Y-19799654D01*
X20031863Y-19869143D01*
X20042064Y-19881573D01*
X20042064Y-20058900D01*
X20052621Y-20166089D01*
X20083887Y-20269160D01*
X20134660Y-20364150D01*
X20202990Y-20447409D01*
X20286249Y-20515739D01*
X20381239Y-20566512D01*
X20484310Y-20597778D01*
X20591499Y-20608335D01*
X20936499Y-20608335D01*
X21043688Y-20597778D01*
X21146759Y-20566512D01*
X21241749Y-20515739D01*
X21325008Y-20447409D01*
X21393338Y-20364150D01*
X21444111Y-20269160D01*
X21475377Y-20166089D01*
X21485934Y-20058900D01*
X21485934Y-19883622D01*
X21497817Y-19869143D01*
X21534960Y-19799654D01*
X21557832Y-19724254D01*
X21565555Y-19645840D01*
X21565555Y-19046400D01*
X21658806Y-19046400D01*
X21676183Y-19222831D01*
X21727646Y-19392481D01*
X21762445Y-19457586D01*
X21762445Y-19645840D01*
X21770168Y-19724254D01*
X21793040Y-19799654D01*
X21830183Y-19869143D01*
X21880169Y-19930051D01*
X21941077Y-19980037D01*
X22010566Y-20017180D01*
X22085966Y-20040052D01*
X22164380Y-20047775D01*
X22560871Y-20047775D01*
X22561050Y-20048364D01*
X22598193Y-20117853D01*
X22648179Y-20178761D01*
X22709087Y-20228747D01*
X22778576Y-20265890D01*
X22853976Y-20288762D01*
X22932390Y-20296485D01*
X23017393Y-20296485D01*
X23029803Y-20319703D01*
X23079789Y-20380611D01*
X23140697Y-20430597D01*
X23210186Y-20467740D01*
X23285586Y-20490612D01*
X23364000Y-20498335D01*
X25864000Y-20498335D01*
X25942414Y-20490612D01*
X26017814Y-20467740D01*
X26087303Y-20430597D01*
X26148211Y-20380611D01*
X26198197Y-20319703D01*
X26235340Y-20250214D01*
X26258212Y-20174814D01*
X26265935Y-20096400D01*
X26265935Y-17596400D01*
X26258212Y-17517986D01*
X26235340Y-17442586D01*
X26198197Y-17373097D01*
X26148211Y-17312189D01*
X26087303Y-17262203D01*
X26017814Y-17225060D01*
X25942414Y-17202188D01*
X25864000Y-17194465D01*
X23364000Y-17194465D01*
X23285586Y-17202188D01*
X23210186Y-17225060D01*
X23140697Y-17262203D01*
X23079789Y-17312189D01*
X23029803Y-17373097D01*
X22992660Y-17442586D01*
X22969788Y-17517986D01*
X22962065Y-17596400D01*
X22962065Y-18045037D01*
X22961940Y-18045025D01*
X22164380Y-18045025D01*
X22085966Y-18052748D01*
X22010566Y-18075620D01*
X21941077Y-18112763D01*
X21880169Y-18162749D01*
X21830183Y-18223657D01*
X21793040Y-18293146D01*
X21770168Y-18368546D01*
X21762445Y-18446960D01*
X21762445Y-18635214D01*
X21727646Y-18700319D01*
X21676183Y-18869969D01*
X21658806Y-19046400D01*
X21565555Y-19046400D01*
X21565555Y-18446960D01*
X21557832Y-18368546D01*
X21534960Y-18293146D01*
X21497817Y-18223657D01*
X21485935Y-18209179D01*
X21485935Y-18018901D01*
X21475378Y-17911712D01*
X21444112Y-17808641D01*
X21393339Y-17713651D01*
X21325009Y-17630392D01*
X21241750Y-17562062D01*
X21146760Y-17511289D01*
X21043689Y-17480023D01*
X20936500Y-17469466D01*
X20591500Y-17469466D01*
X20484311Y-17480023D01*
X20381240Y-17511289D01*
X20286250Y-17562062D01*
X20202991Y-17630392D01*
X20134661Y-17713651D01*
X20083888Y-17808641D01*
X20052622Y-17911712D01*
X20042065Y-18018901D01*
X20042065Y-18211226D01*
X20031863Y-18223657D01*
X19994720Y-18293146D01*
X19985220Y-18324465D01*
X19951500Y-18324465D01*
X19864000Y-18333083D01*
X19864000Y-16500603D01*
X19868354Y-16456399D01*
X19864000Y-16412193D01*
X19854000Y-16310662D01*
X19854000Y-15848335D01*
X20204000Y-15848335D01*
X20282414Y-15840612D01*
X20357814Y-15817740D01*
X20427303Y-15780597D01*
X20488211Y-15730611D01*
X20538197Y-15669703D01*
X20575340Y-15600214D01*
X20598212Y-15524814D01*
X20605935Y-15446400D01*
X20605935Y-14446400D01*
X20598212Y-14367986D01*
X20575340Y-14292586D01*
X20538197Y-14223097D01*
X20488211Y-14162189D01*
X20427303Y-14112203D01*
X20357814Y-14075060D01*
X20282414Y-14052188D01*
X20204000Y-14044465D01*
X18978560Y-14044465D01*
X18954000Y-14042046D01*
X18929440Y-14044465D01*
X17704000Y-14044465D01*
X17625586Y-14052188D01*
X17550186Y-14075060D01*
X17480697Y-14112203D01*
X17419789Y-14162189D01*
X17369803Y-14223097D01*
X17332660Y-14292586D01*
X17309788Y-14367986D01*
X17302065Y-14446400D01*
X17302065Y-15446400D01*
X17309788Y-15524814D01*
X17332660Y-15600214D01*
X17369803Y-15669703D01*
X17419789Y-15730611D01*
X17480697Y-15780597D01*
X17550186Y-15817740D01*
X17625586Y-15840612D01*
X17704000Y-15848335D01*
X18054001Y-15848335D01*
X18054001Y-16402184D01*
X18049646Y-16446400D01*
X18064000Y-16592138D01*
X18064001Y-18452184D01*
X18064000Y-18452194D01*
X18064000Y-18837194D01*
X18064001Y-20640607D01*
X18077024Y-20772831D01*
X18128487Y-20942481D01*
X18212058Y-21098832D01*
X18250627Y-21145828D01*
X18252622Y-21166088D01*
X18283888Y-21269159D01*
X18334661Y-21364149D01*
X18361128Y-21396399D01*
X18334661Y-21428649D01*
X18283888Y-21523639D01*
X18252622Y-21626710D01*
X18252014Y-21632881D01*
X18212058Y-21681568D01*
X18128487Y-21837919D01*
X18077024Y-22007569D01*
X18064001Y-22139793D01*
X18064000Y-23824465D01*
X17831500Y-23824465D01*
X17724311Y-23835022D01*
X17667517Y-23852250D01*
X17643689Y-23845022D01*
X17536500Y-23834465D01*
X17191500Y-23834465D01*
X17084311Y-23845022D01*
X16981240Y-23876288D01*
X16886250Y-23927061D01*
X16802991Y-23995391D01*
X16734661Y-24078650D01*
X16683888Y-24173640D01*
X16652622Y-24276711D01*
X16642065Y-24383900D01*
X16642065Y-24569466D01*
X16158999Y-24569466D01*
X16080585Y-24577189D01*
X16005185Y-24600061D01*
X15935696Y-24637204D01*
X15874788Y-24687190D01*
X15824802Y-24748098D01*
X15787659Y-24817587D01*
X15779236Y-24845355D01*
X15112450Y-24845355D01*
X15034036Y-24853078D01*
X14958636Y-24875950D01*
X14889147Y-24913093D01*
X14828239Y-24963079D01*
X14778253Y-25023987D01*
X14741110Y-25093476D01*
X14718238Y-25168876D01*
X14710515Y-25247290D01*
X242079Y-25247290D01*
X216918Y-11568741D01*
X259500Y-11572935D01*
X1259500Y-11572935D01*
X1279147Y-11571000D01*
X2703707Y-11571000D01*
X2835931Y-11557977D01*
X3005581Y-11506514D01*
X3161932Y-11422943D01*
X3171202Y-11415335D01*
X3269300Y-11415335D01*
X3376489Y-11404778D01*
X3479560Y-11373512D01*
X3574550Y-11322739D01*
X3606800Y-11296272D01*
X3639050Y-11322739D01*
X3734040Y-11373512D01*
X3837111Y-11404778D01*
X3944300Y-11415335D01*
X4146327Y-11415335D01*
X4202697Y-11461597D01*
X4272186Y-11498740D01*
X4347586Y-11521612D01*
X4426000Y-11529335D01*
X5051452Y-11529335D01*
X5166969Y-11564377D01*
X5299193Y-11577400D01*
X6576748Y-11577400D01*
X6579969Y-11578377D01*
X6712193Y-11591400D01*
X6712194Y-11591400D01*
X6756400Y-11595754D01*
X6800606Y-11591400D01*
X7643959Y-11591400D01*
X7637065Y-11661400D01*
X7637065Y-12261400D01*
X7644788Y-12339814D01*
X7667660Y-12415214D01*
X7704803Y-12484703D01*
X7737435Y-12524465D01*
X7601500Y-12524465D01*
X7494311Y-12535022D01*
X7391240Y-12566288D01*
X7296250Y-12617061D01*
X7212991Y-12685391D01*
X7144661Y-12768650D01*
X7093888Y-12863640D01*
X7062622Y-12966711D01*
X7052065Y-13073900D01*
X7052065Y-13418900D01*
X7062622Y-13526089D01*
X7093888Y-13629160D01*
X7144661Y-13724150D01*
X7212991Y-13807409D01*
X7296250Y-13875739D01*
X7391240Y-13926512D01*
X7494311Y-13957778D01*
X7601500Y-13968335D01*
X7896500Y-13968335D01*
X8003689Y-13957778D01*
X8084267Y-13933335D01*
X9589000Y-13933335D01*
X9667414Y-13925612D01*
X9742814Y-13902740D01*
X9812303Y-13865597D01*
X9873211Y-13815611D01*
X9923197Y-13754703D01*
X9960340Y-13685214D01*
X9983212Y-13609814D01*
X9990935Y-13531400D01*
X9990935Y-12931400D01*
X9983212Y-12852986D01*
X9960340Y-12777586D01*
X9923197Y-12708097D01*
X9873211Y-12647189D01*
X9812303Y-12597203D01*
X9810801Y-12596400D01*
X9812303Y-12595597D01*
X9873211Y-12545611D01*
X9923197Y-12484703D01*
X9960340Y-12415214D01*
X9983212Y-12339814D01*
X9990935Y-12261400D01*
X9990935Y-11661400D01*
X9983212Y-11582986D01*
X9960340Y-11507586D01*
X9923197Y-11438097D01*
X9873211Y-11377189D01*
X9812303Y-11327203D01*
X9810801Y-11326400D01*
X9812303Y-11325597D01*
X9873211Y-11275611D01*
X9923197Y-11214703D01*
X9960340Y-11145214D01*
X9983212Y-11069814D01*
X9990935Y-10991400D01*
X9990935Y-10391400D01*
X9983212Y-10312986D01*
X9960340Y-10237586D01*
X9923197Y-10168097D01*
X9873211Y-10107189D01*
X9812303Y-10057203D01*
X9742814Y-10020060D01*
X9667414Y-9997188D01*
X9589000Y-9989465D01*
X9548757Y-9989465D01*
X9487822Y-9939457D01*
X9331471Y-9855886D01*
X9161821Y-9804423D01*
X9029597Y-9791400D01*
X6922052Y-9791400D01*
X6918831Y-9790423D01*
X6786607Y-9777400D01*
X6786606Y-9777400D01*
X6742400Y-9773046D01*
X6698194Y-9777400D01*
X5299193Y-9777400D01*
X5166969Y-9790423D01*
X5051452Y-9825465D01*
X4426000Y-9825465D01*
X4347586Y-9833188D01*
X4272186Y-9856060D01*
X4202697Y-9893203D01*
X4141789Y-9943189D01*
X4118583Y-9971465D01*
X3944300Y-9971465D01*
X3837111Y-9982022D01*
X3734040Y-10013288D01*
X3639050Y-10064061D01*
X3606800Y-10090528D01*
X3574550Y-10064061D01*
X3479560Y-10013288D01*
X3376489Y-9982022D01*
X3269300Y-9971465D01*
X3225791Y-9971465D01*
X3161932Y-9919057D01*
X3005581Y-9835486D01*
X2835931Y-9784023D01*
X2703707Y-9771000D01*
X1279147Y-9771000D01*
X1259500Y-9769065D01*
X259500Y-9769065D01*
X213616Y-9773584D01*
X199413Y-2052000D01*
X1396065Y-2052000D01*
X1396065Y-4552000D01*
X1403788Y-4630414D01*
X1426660Y-4705814D01*
X1463803Y-4775303D01*
X1513789Y-4836211D01*
X1574697Y-4886197D01*
X1644186Y-4923340D01*
X1719586Y-4946212D01*
X1798000Y-4953935D01*
X3638516Y-4953935D01*
X3688661Y-5047750D01*
X3715128Y-5080000D01*
X3688661Y-5112250D01*
X3637888Y-5207240D01*
X3606622Y-5310311D01*
X3596065Y-5417500D01*
X3596065Y-5712500D01*
X3606622Y-5819689D01*
X3637888Y-5922760D01*
X3688661Y-6017750D01*
X3718001Y-6053500D01*
X3718001Y-6110361D01*
X3685888Y-6170440D01*
X3654622Y-6273511D01*
X3644065Y-6380700D01*
X3644065Y-6725700D01*
X3654622Y-6832889D01*
X3685888Y-6935960D01*
X3736661Y-7030950D01*
X3741001Y-7036238D01*
X3741000Y-7136962D01*
X3736661Y-7142250D01*
X3685888Y-7237240D01*
X3654622Y-7340311D01*
X3647331Y-7414341D01*
X3472581Y-7589092D01*
X3449684Y-7607883D01*
X3374705Y-7699245D01*
X3318990Y-7803479D01*
X3299335Y-7868274D01*
X3252697Y-7893203D01*
X3191789Y-7943189D01*
X3141803Y-8004097D01*
X3104660Y-8073586D01*
X3081788Y-8148986D01*
X3074065Y-8227400D01*
X3074065Y-9127400D01*
X3081788Y-9205814D01*
X3104660Y-9281214D01*
X3141803Y-9350703D01*
X3191789Y-9411611D01*
X3252697Y-9461597D01*
X3322186Y-9498740D01*
X3397586Y-9521612D01*
X3476000Y-9529335D01*
X4276000Y-9529335D01*
X4354414Y-9521612D01*
X4429814Y-9498740D01*
X4499303Y-9461597D01*
X4560211Y-9411611D01*
X4610197Y-9350703D01*
X4647340Y-9281214D01*
X4670212Y-9205814D01*
X4677935Y-9127400D01*
X4677935Y-8306429D01*
X4698760Y-8300112D01*
X4793750Y-8249339D01*
X4820482Y-8227400D01*
X4974065Y-8227400D01*
X4974065Y-9127400D01*
X4981788Y-9205814D01*
X5004660Y-9281214D01*
X5041803Y-9350703D01*
X5091789Y-9411611D01*
X5152697Y-9461597D01*
X5222186Y-9498740D01*
X5297586Y-9521612D01*
X5376000Y-9529335D01*
X6176000Y-9529335D01*
X6254414Y-9521612D01*
X6329814Y-9498740D01*
X6399303Y-9461597D01*
X6460211Y-9411611D01*
X6510197Y-9350703D01*
X6547340Y-9281214D01*
X6570212Y-9205814D01*
X6577935Y-9127400D01*
X6577935Y-8547290D01*
X10010515Y-8547290D01*
X10010515Y-9545510D01*
X10018238Y-9623924D01*
X10041110Y-9699324D01*
X10078253Y-9768813D01*
X10128239Y-9829721D01*
X10189147Y-9879707D01*
X10258636Y-9916850D01*
X10334036Y-9939722D01*
X10412450Y-9947445D01*
X11512270Y-9947445D01*
X11590684Y-9939722D01*
X11666084Y-9916850D01*
X11735573Y-9879707D01*
X11796481Y-9829721D01*
X11846467Y-9768813D01*
X11874464Y-9716435D01*
X11887148Y-9716435D01*
X13037065Y-10866353D01*
X13037065Y-10991400D01*
X13044788Y-11069814D01*
X13067660Y-11145214D01*
X13104803Y-11214703D01*
X13154789Y-11275611D01*
X13215697Y-11325597D01*
X13217199Y-11326400D01*
X13215697Y-11327203D01*
X13154789Y-11377189D01*
X13104803Y-11438097D01*
X13067660Y-11507586D01*
X13044788Y-11582986D01*
X13037065Y-11661400D01*
X13037065Y-12261400D01*
X13044788Y-12339814D01*
X13067660Y-12415214D01*
X13104803Y-12484703D01*
X13154789Y-12545611D01*
X13215697Y-12595597D01*
X13217199Y-12596400D01*
X13215697Y-12597203D01*
X13154789Y-12647189D01*
X13104803Y-12708097D01*
X13067660Y-12777586D01*
X13044788Y-12852986D01*
X13037065Y-12931400D01*
X13037065Y-13531400D01*
X13044788Y-13609814D01*
X13067660Y-13685214D01*
X13104803Y-13754703D01*
X13154789Y-13815611D01*
X13215697Y-13865597D01*
X13217199Y-13866400D01*
X13215697Y-13867203D01*
X13154789Y-13917189D01*
X13104803Y-13978097D01*
X13067660Y-14047586D01*
X13044788Y-14122986D01*
X13037065Y-14201400D01*
X13037065Y-14801400D01*
X13044788Y-14879814D01*
X13067660Y-14955214D01*
X13104803Y-15024703D01*
X13154789Y-15085611D01*
X13215697Y-15135597D01*
X13285186Y-15172740D01*
X13360586Y-15195612D01*
X13439000Y-15203335D01*
X14708501Y-15203335D01*
X14741257Y-15230217D01*
X14810746Y-15267360D01*
X14886146Y-15290232D01*
X14964560Y-15297955D01*
X16163440Y-15297955D01*
X16241854Y-15290232D01*
X16317254Y-15267360D01*
X16386743Y-15230217D01*
X16447651Y-15180231D01*
X16497637Y-15119323D01*
X16534780Y-15049834D01*
X16557652Y-14974434D01*
X16565375Y-14896020D01*
X16565375Y-14098460D01*
X16557652Y-14020046D01*
X16534780Y-13944646D01*
X16497637Y-13875157D01*
X16447651Y-13814249D01*
X16386743Y-13764263D01*
X16317254Y-13727120D01*
X16241854Y-13704248D01*
X16163440Y-13696525D01*
X15354294Y-13696525D01*
X15360340Y-13685214D01*
X15383212Y-13609814D01*
X15390935Y-13531400D01*
X15390935Y-12931400D01*
X15383212Y-12852986D01*
X15360340Y-12777586D01*
X15323197Y-12708097D01*
X15290565Y-12668335D01*
X15426500Y-12668335D01*
X15533689Y-12657778D01*
X15636760Y-12626512D01*
X15731750Y-12575739D01*
X15764000Y-12549272D01*
X15796250Y-12575739D01*
X15891240Y-12626512D01*
X15994311Y-12657778D01*
X16014571Y-12659773D01*
X16061568Y-12698343D01*
X16217919Y-12781914D01*
X16387569Y-12833377D01*
X16519793Y-12846400D01*
X17684353Y-12846400D01*
X17704000Y-12848335D01*
X20204000Y-12848335D01*
X20282414Y-12840612D01*
X20357814Y-12817740D01*
X20427303Y-12780597D01*
X20488211Y-12730611D01*
X20538197Y-12669703D01*
X20575340Y-12600214D01*
X20598212Y-12524814D01*
X20605935Y-12446400D01*
X20605935Y-11446400D01*
X20598212Y-11367986D01*
X20575340Y-11292586D01*
X20538197Y-11223097D01*
X20488211Y-11162189D01*
X20427303Y-11112203D01*
X20357814Y-11075060D01*
X20282414Y-11052188D01*
X20204000Y-11044465D01*
X17704000Y-11044465D01*
X17684353Y-11046400D01*
X16519793Y-11046400D01*
X16387569Y-11059423D01*
X16217919Y-11110886D01*
X16061568Y-11194457D01*
X16014571Y-11233027D01*
X15994311Y-11235022D01*
X15891240Y-11266288D01*
X15796250Y-11317061D01*
X15764000Y-11343528D01*
X15731750Y-11317061D01*
X15636760Y-11266288D01*
X15533689Y-11235022D01*
X15426500Y-11224465D01*
X15315186Y-11224465D01*
X15323197Y-11214703D01*
X15360340Y-11145214D01*
X15383212Y-11069814D01*
X15390935Y-10991400D01*
X15390935Y-10391400D01*
X15383212Y-10312986D01*
X15360340Y-10237586D01*
X15323197Y-10168097D01*
X15273211Y-10107189D01*
X15212303Y-10057203D01*
X15142814Y-10020060D01*
X15067414Y-9997188D01*
X14989000Y-9989465D01*
X14935935Y-9989465D01*
X14935935Y-9933900D01*
X14925378Y-9826711D01*
X14894112Y-9723640D01*
X14843339Y-9628650D01*
X14775009Y-9545391D01*
X14691750Y-9477061D01*
X14596760Y-9426288D01*
X14493689Y-9395022D01*
X14386500Y-9384465D01*
X14041500Y-9384465D01*
X13963285Y-9392168D01*
X13970935Y-9314500D01*
X13970935Y-6814500D01*
X13963212Y-6736086D01*
X13940340Y-6660686D01*
X13903197Y-6591197D01*
X13853211Y-6530289D01*
X13792303Y-6480303D01*
X13722814Y-6443160D01*
X13647414Y-6420288D01*
X13569000Y-6412565D01*
X11069000Y-6412565D01*
X10990586Y-6420288D01*
X10915186Y-6443160D01*
X10845697Y-6480303D01*
X10784789Y-6530289D01*
X10734803Y-6591197D01*
X10697660Y-6660686D01*
X10674788Y-6736086D01*
X10667065Y-6814500D01*
X10667065Y-8145355D01*
X10412450Y-8145355D01*
X10334036Y-8153078D01*
X10258636Y-8175950D01*
X10189147Y-8213093D01*
X10128239Y-8263079D01*
X10078253Y-8323987D01*
X10041110Y-8393476D01*
X10018238Y-8468876D01*
X10010515Y-8547290D01*
X6577935Y-8547290D01*
X6577935Y-8227400D01*
X6570212Y-8148986D01*
X6547340Y-8073586D01*
X6510197Y-8004097D01*
X6460211Y-7943189D01*
X6399303Y-7893203D01*
X6329814Y-7856060D01*
X6254414Y-7833188D01*
X6176000Y-7825465D01*
X5376000Y-7825465D01*
X5297586Y-7833188D01*
X5222186Y-7856060D01*
X5152697Y-7893203D01*
X5091789Y-7943189D01*
X5041803Y-8004097D01*
X5004660Y-8073586D01*
X4981788Y-8148986D01*
X4974065Y-8227400D01*
X4820482Y-8227400D01*
X4877009Y-8181009D01*
X4945339Y-8097750D01*
X4996112Y-8002760D01*
X5027378Y-7899689D01*
X5037935Y-7792500D01*
X5037935Y-7447500D01*
X5027378Y-7340311D01*
X4996112Y-7237240D01*
X4945339Y-7142250D01*
X4941000Y-7136963D01*
X4941000Y-7036237D01*
X4945339Y-7030950D01*
X4996112Y-6935960D01*
X5027378Y-6832889D01*
X5037935Y-6725700D01*
X5037935Y-6380700D01*
X5027378Y-6273511D01*
X4996112Y-6170440D01*
X4945339Y-6075450D01*
X4922662Y-6047818D01*
X4947339Y-6017750D01*
X4998112Y-5922760D01*
X5029378Y-5819689D01*
X5039935Y-5712500D01*
X5039935Y-5417500D01*
X5029378Y-5310311D01*
X4998112Y-5207240D01*
X4947339Y-5112250D01*
X4920872Y-5080000D01*
X4947339Y-5047750D01*
X4998112Y-4952760D01*
X5029378Y-4849689D01*
X5039935Y-4742500D01*
X5039935Y-4710613D01*
X5113964Y-4703322D01*
X5189364Y-4680450D01*
X5258853Y-4643307D01*
X5319761Y-4593321D01*
X5369747Y-4532413D01*
X5406890Y-4462924D01*
X5429762Y-4387524D01*
X5437485Y-4309110D01*
X5437485Y-3310890D01*
X5429762Y-3232476D01*
X5406890Y-3157076D01*
X5369747Y-3087587D01*
X5319761Y-3026679D01*
X5258853Y-2976693D01*
X5189364Y-2939550D01*
X5113964Y-2916678D01*
X5035550Y-2908955D01*
X4699935Y-2908955D01*
X4699935Y-2052000D01*
X4692212Y-1973586D01*
X4669340Y-1898186D01*
X4632197Y-1828697D01*
X4582211Y-1767789D01*
X4521303Y-1717803D01*
X4451814Y-1680660D01*
X4376414Y-1657788D01*
X4298000Y-1650065D01*
X1798000Y-1650065D01*
X1719586Y-1657788D01*
X1644186Y-1680660D01*
X1574697Y-1717803D01*
X1513789Y-1767789D01*
X1463803Y-1828697D01*
X1426660Y-1898186D01*
X1403788Y-1973586D01*
X1396065Y-2052000D01*
X199413Y-2052000D01*
X195988Y-190473D01*
X33278367Y-199943D01*
M02*
