<?xml version="1.0" standalone="no"?>
 <!DOCTYPE svg PUBLIC "-//W3C//DTD SVG 1.1//EN" 
 "http://www.w3.org/Graphics/SVG/1.1/DTD/svg11.dtd"> 
<svg xmlns="http://www.w3.org/2000/svg" version="1.1" 
    width="3.58394cm" height="7.38124cm" viewBox="0 0 14110 29060 ">
<title>SVG Picture created as freq_prescaler-F_Paste.svg date 2020/08/15 13:08:14 </title>
  <desc>Picture generated by PCBNEW </desc>
<g style="fill:#000000; fill-opacity:1;stroke:#000000; stroke-opacity:1;
stroke-linecap:round; stroke-linejoin:round; "
 transform="translate(0 0) scale(1 1)">
</g>
<g style="fill:#000000; fill-opacity:0.0; 
stroke:#000000; stroke-width:-0.000393701; stroke-opacity:1; 
stroke-linecap:round; stroke-linejoin:round;">
<g >
</g>
<g style="fill:#000000; fill-opacity:0.0; 
stroke:#000000; stroke-width:0; stroke-opacity:1; 
stroke-linecap:round; stroke-linejoin:round;">
</g>
<g style="fill:#000000; fill-opacity:1.0; 
stroke:#000000; stroke-width:0; stroke-opacity:1; 
stroke-linecap:round; stroke-linejoin:round;">
<path style="fill:#000000; fill-opacity:1.0; 
stroke:#000000; stroke-width:0; stroke-opacity:1; 
stroke-linecap:round; stroke-linejoin:round;fill-rule:evenodd;"
d="M 7817.99,23565.6
7817.99,24037.6
7503.99,24037.6
7503.99,23565.6
Z" /> 
<path style="fill:#000000; fill-opacity:1.0; 
stroke:#000000; stroke-width:0; stroke-opacity:1; 
stroke-linecap:round; stroke-linejoin:round;fill-rule:evenodd;"
d="M 8525.99,23565.6
8525.99,24037.6
8211.99,24037.6
8211.99,23565.6
Z" /> 
</g>
<g >
</g>
<g style="fill:#000000; fill-opacity:1.0; 
stroke:#000000; stroke-width:0; stroke-opacity:1; 
stroke-linecap:round; stroke-linejoin:round;">
<path style="fill:#000000; fill-opacity:1.0; 
stroke:#000000; stroke-width:0; stroke-opacity:1; 
stroke-linecap:round; stroke-linejoin:round;fill-rule:evenodd;"
d="M 7798.3,19943.5
7798.3,20415.5
7484.3,20415.5
7484.3,19943.5
Z" /> 
<path style="fill:#000000; fill-opacity:1.0; 
stroke:#000000; stroke-width:0; stroke-opacity:1; 
stroke-linecap:round; stroke-linejoin:round;fill-rule:evenodd;"
d="M 8506.3,19943.5
8506.3,20415.5
8192.3,20415.5
8192.3,19943.5
Z" /> 
</g>
<g >
</g>
<g style="fill:#000000; fill-opacity:1.0; 
stroke:#000000; stroke-width:0; stroke-opacity:1; 
stroke-linecap:round; stroke-linejoin:round;">
<path style="fill:#000000; fill-opacity:1.0; 
stroke:#000000; stroke-width:0; stroke-opacity:1; 
stroke-linecap:round; stroke-linejoin:round;fill-rule:evenodd;"
d="M 7798.3,16360.8
7798.3,16832.8
7484.3,16832.8
7484.3,16360.8
Z" /> 
<path style="fill:#000000; fill-opacity:1.0; 
stroke:#000000; stroke-width:0; stroke-opacity:1; 
stroke-linecap:round; stroke-linejoin:round;fill-rule:evenodd;"
d="M 8506.3,16360.8
8506.3,16832.8
8192.3,16832.8
8192.3,16360.8
Z" /> 
</g>
<g >
</g>
<g style="fill:#000000; fill-opacity:1.0; 
stroke:#000000; stroke-width:0; stroke-opacity:1; 
stroke-linecap:round; stroke-linejoin:round;">
<path style="fill:#000000; fill-opacity:1.0; 
stroke:#000000; stroke-width:0; stroke-opacity:1; 
stroke-linecap:round; stroke-linejoin:round;fill-rule:evenodd;"
d="M 7798.3,12778.2
7798.3,13250.2
7484.3,13250.2
7484.3,12778.2
Z" /> 
<path style="fill:#000000; fill-opacity:1.0; 
stroke:#000000; stroke-width:0; stroke-opacity:1; 
stroke-linecap:round; stroke-linejoin:round;fill-rule:evenodd;"
d="M 8506.3,12778.2
8506.3,13250.2
8192.3,13250.2
8192.3,12778.2
Z" /> 
</g>
<g >
</g>
<g style="fill:#000000; fill-opacity:1.0; 
stroke:#000000; stroke-width:0; stroke-opacity:1; 
stroke-linecap:round; stroke-linejoin:round;">
<path style="fill:#000000; fill-opacity:1.0; 
stroke:#000000; stroke-width:0; stroke-opacity:1; 
stroke-linecap:round; stroke-linejoin:round;fill-rule:evenodd;"
d="M 9609.63,7738.36
9609.63,7266.36
9923.63,7266.36
9923.63,7738.36
Z" /> 
<path style="fill:#000000; fill-opacity:1.0; 
stroke:#000000; stroke-width:0; stroke-opacity:1; 
stroke-linecap:round; stroke-linejoin:round;fill-rule:evenodd;"
d="M 8901.63,7738.36
8901.63,7266.36
9215.63,7266.36
9215.63,7738.36
Z" /> 
</g>
<g >
</g>
<g style="fill:#000000; fill-opacity:1.0; 
stroke:#000000; stroke-width:0; stroke-opacity:1; 
stroke-linecap:round; stroke-linejoin:round;">
<path style="fill:#000000; fill-opacity:1.0; 
stroke:#000000; stroke-width:0; stroke-opacity:1; 
stroke-linecap:round; stroke-linejoin:round;fill-rule:evenodd;"
d="M 7247.05,5868.35
6775.05,5868.35
6775.05,5554.35
7247.05,5554.35
Z" /> 
<path style="fill:#000000; fill-opacity:1.0; 
stroke:#000000; stroke-width:0; stroke-opacity:1; 
stroke-linecap:round; stroke-linejoin:round;fill-rule:evenodd;"
d="M 7247.05,6576.35
6775.05,6576.35
6775.05,6262.35
7247.05,6262.35
Z" /> 
</g>
<g >
</g>
<g style="fill:#000000; fill-opacity:1.0; 
stroke:#000000; stroke-width:0; stroke-opacity:1; 
stroke-linecap:round; stroke-linejoin:round;">
<path style="fill:#000000; fill-opacity:1.0; 
stroke:#000000; stroke-width:0; stroke-opacity:1; 
stroke-linecap:round; stroke-linejoin:round;fill-rule:evenodd;"
d="M 3100.99,1700.27
3100.99,1307.27
3533.99,1307.27
3533.99,1700.27
Z" /> 
<path style="fill:#000000; fill-opacity:1.0; 
stroke:#000000; stroke-width:0; stroke-opacity:1; 
stroke-linecap:round; stroke-linejoin:round;fill-rule:evenodd;"
d="M 2432.99,1700.27
2432.99,1307.27
2865.99,1307.27
2865.99,1700.27
Z" /> 
</g>
<g >
</g>
<g style="fill:#000000; fill-opacity:1.0; 
stroke:#000000; stroke-width:0; stroke-opacity:1; 
stroke-linecap:round; stroke-linejoin:round;">
<path style="fill:#000000; fill-opacity:1.0; 
stroke:#000000; stroke-width:0; stroke-opacity:1; 
stroke-linecap:round; stroke-linejoin:round;fill-rule:evenodd;"
d="M 4747.88,3368.85
4747.88,3761.85
4314.88,3761.85
4314.88,3368.85
Z" /> 
<path style="fill:#000000; fill-opacity:1.0; 
stroke:#000000; stroke-width:0; stroke-opacity:1; 
stroke-linecap:round; stroke-linejoin:round;fill-rule:evenodd;"
d="M 5415.88,3368.85
5415.88,3761.85
4982.88,3761.85
4982.88,3368.85
Z" /> 
</g>
<g >
</g>
<g style="fill:#000000; fill-opacity:1.0; 
stroke:#000000; stroke-width:0; stroke-opacity:1; 
stroke-linecap:round; stroke-linejoin:round;">
<path style="fill:#000000; fill-opacity:1.0; 
stroke:#000000; stroke-width:0; stroke-opacity:1; 
stroke-linecap:round; stroke-linejoin:round;fill-rule:evenodd;"
d="M 9687.87,26184.1
9294.87,26184.1
9294.87,25751.1
9687.87,25751.1
Z" /> 
<path style="fill:#000000; fill-opacity:1.0; 
stroke:#000000; stroke-width:0; stroke-opacity:1; 
stroke-linecap:round; stroke-linejoin:round;fill-rule:evenodd;"
d="M 9687.87,26852.1
9294.87,26852.1
9294.87,26419.1
9687.87,26419.1
Z" /> 
</g>
<g >
</g>
<g style="fill:#000000; fill-opacity:1.0; 
stroke:#000000; stroke-width:0; stroke-opacity:1; 
stroke-linecap:round; stroke-linejoin:round;">
<path style="fill:#000000; fill-opacity:1.0; 
stroke:#000000; stroke-width:0; stroke-opacity:1; 
stroke-linecap:round; stroke-linejoin:round;fill-rule:evenodd;"
d="M 9668.18,11853.4
9275.18,11853.4
9275.18,11420.4
9668.18,11420.4
Z" /> 
<path style="fill:#000000; fill-opacity:1.0; 
stroke:#000000; stroke-width:0; stroke-opacity:1; 
stroke-linecap:round; stroke-linejoin:round;fill-rule:evenodd;"
d="M 9668.18,12521.4
9275.18,12521.4
9275.18,12088.4
9668.18,12088.4
Z" /> 
</g>
<g >
</g>
<g style="fill:#000000; fill-opacity:1.0; 
stroke:#000000; stroke-width:0; stroke-opacity:1; 
stroke-linecap:round; stroke-linejoin:round;">
<path style="fill:#000000; fill-opacity:1.0; 
stroke:#000000; stroke-width:0; stroke-opacity:1; 
stroke-linecap:round; stroke-linejoin:round;fill-rule:evenodd;"
d="M 9911.99,8071.27
10305,8071.27
10305,8504.27
9911.99,8504.27
Z" /> 
<path style="fill:#000000; fill-opacity:1.0; 
stroke:#000000; stroke-width:0; stroke-opacity:1; 
stroke-linecap:round; stroke-linejoin:round;fill-rule:evenodd;"
d="M 9911.99,7403.27
10305,7403.27
10305,7836.27
9911.99,7836.27
Z" /> 
</g>
<g >
</g>
<g style="fill:#000000; fill-opacity:1.0; 
stroke:#000000; stroke-width:0; stroke-opacity:1; 
stroke-linecap:round; stroke-linejoin:round;">
<path style="fill:#000000; fill-opacity:1.0; 
stroke:#000000; stroke-width:0; stroke-opacity:1; 
stroke-linecap:round; stroke-linejoin:round;fill-rule:evenodd;"
d="M 9648.5,15456.4
9255.5,15456.4
9255.5,15023.4
9648.5,15023.4
Z" /> 
<path style="fill:#000000; fill-opacity:1.0; 
stroke:#000000; stroke-width:0; stroke-opacity:1; 
stroke-linecap:round; stroke-linejoin:round;fill-rule:evenodd;"
d="M 9648.5,16124.4
9255.5,16124.4
9255.5,15691.4
9648.5,15691.4
Z" /> 
</g>
<g >
</g>
<g style="fill:#000000; fill-opacity:1.0; 
stroke:#000000; stroke-width:0; stroke-opacity:1; 
stroke-linecap:round; stroke-linejoin:round;">
<path style="fill:#000000; fill-opacity:1.0; 
stroke:#000000; stroke-width:0; stroke-opacity:1; 
stroke-linecap:round; stroke-linejoin:round;fill-rule:evenodd;"
d="M 9668.18,19038.4
9275.18,19038.4
9275.18,18605.4
9668.18,18605.4
Z" /> 
<path style="fill:#000000; fill-opacity:1.0; 
stroke:#000000; stroke-width:0; stroke-opacity:1; 
stroke-linecap:round; stroke-linejoin:round;fill-rule:evenodd;"
d="M 9668.18,19706.4
9275.18,19706.4
9275.18,19273.4
9668.18,19273.4
Z" /> 
</g>
<g >
</g>
<g style="fill:#000000; fill-opacity:1.0; 
stroke:#000000; stroke-width:0; stroke-opacity:1; 
stroke-linecap:round; stroke-linejoin:round;">
<path style="fill:#000000; fill-opacity:1.0; 
stroke:#000000; stroke-width:0; stroke-opacity:1; 
stroke-linecap:round; stroke-linejoin:round;fill-rule:evenodd;"
d="M 9687.87,22599.5
9294.87,22599.5
9294.87,22166.5
9687.87,22166.5
Z" /> 
<path style="fill:#000000; fill-opacity:1.0; 
stroke:#000000; stroke-width:0; stroke-opacity:1; 
stroke-linecap:round; stroke-linejoin:round;fill-rule:evenodd;"
d="M 9687.87,23267.5
9294.87,23267.5
9294.87,22834.5
9687.87,22834.5
Z" /> 
</g>
<g >
</g>
<g style="fill:#000000; fill-opacity:1.0; 
stroke:#000000; stroke-width:0; stroke-opacity:1; 
stroke-linecap:round; stroke-linejoin:round;">
<path style="fill:#000000; fill-opacity:1.0; 
stroke:#000000; stroke-width:0; stroke-opacity:1; 
stroke-linecap:round; stroke-linejoin:round;fill-rule:evenodd;"
d="M 6598.28,9943.65
6598.28,10336.7
6165.28,10336.7
6165.28,9943.65
Z" /> 
<path style="fill:#000000; fill-opacity:1.0; 
stroke:#000000; stroke-width:0; stroke-opacity:1; 
stroke-linecap:round; stroke-linejoin:round;fill-rule:evenodd;"
d="M 7266.28,9943.65
7266.28,10336.7
6833.28,10336.7
6833.28,9943.65
Z" /> 
</g>
<g >
</g>
<g >
</g>
<g >
</g>
<g >
</g>
<g >
</g>
<g >
</g>
<g style="fill:#000000; fill-opacity:1.0; 
stroke:#000000; stroke-width:0; stroke-opacity:1; 
stroke-linecap:round; stroke-linejoin:round;">
<path style="fill:#000000; fill-opacity:1.0; 
stroke:#000000; stroke-width:0; stroke-opacity:1; 
stroke-linecap:round; stroke-linejoin:round;fill-rule:evenodd;"
d="M 2657.1,1696.97
2662.74,1697.8
2668.26,1699.19
2673.63,1701.11
2678.78,1703.54
2683.67,1706.47
2688.25,1709.87
2692.47,1713.7
2696.3,1717.92
2699.69,1722.49
2702.62,1727.38
2705.06,1732.53
2706.98,1737.9
2708.36,1743.43
2709.2,1749.07
2709.48,1754.76
2709.48,1870.9
2709.2,1876.59
2708.36,1882.23
2706.98,1887.76
2705.06,1893.12
2702.62,1898.27
2699.69,1903.16
2696.3,1907.74
2692.47,1911.96
2688.25,1915.79
2683.67,1919.18
2678.78,1922.11
2673.63,1924.55
2668.26,1926.47
2662.74,1927.85
2657.1,1928.69
2651.41,1928.97
2515.58,1928.97
2509.89,1928.69
2504.25,1927.85
2498.72,1926.47
2493.36,1924.55
2488.2,1922.11
2483.32,1919.18
2478.74,1915.79
2474.52,1911.96
2470.69,1907.74
2467.29,1903.16
2464.37,1898.27
2461.93,1893.12
2460.01,1887.76
2458.62,1882.23
2457.79,1876.59
2457.51,1870.9
2457.51,1754.76
2457.79,1749.07
2458.62,1743.43
2460.01,1737.9
2461.93,1732.53
2464.37,1727.38
2467.29,1722.49
2470.69,1717.92
2474.52,1713.7
2478.74,1709.87
2483.32,1706.47
2488.2,1703.54
2493.36,1701.11
2498.72,1699.19
2504.25,1697.8
2509.89,1696.97
2515.58,1696.69
2651.41,1696.69
Z" /> 
<path style="fill:#000000; fill-opacity:1.0; 
stroke:#000000; stroke-width:0; stroke-opacity:1; 
stroke-linecap:round; stroke-linejoin:round;fill-rule:evenodd;"
d="M 2657.1,2078.86
2662.74,2079.69
2668.26,2081.08
2673.63,2083
2678.78,2085.43
2683.67,2088.36
2688.25,2091.76
2692.47,2095.59
2696.3,2099.81
2699.69,2104.38
2702.62,2109.27
2705.06,2114.42
2706.98,2119.79
2708.36,2125.32
2709.2,2130.96
2709.48,2136.65
2709.48,2252.79
2709.2,2258.48
2708.36,2264.12
2706.98,2269.65
2705.06,2275.01
2702.62,2280.16
2699.69,2285.05
2696.3,2289.63
2692.47,2293.85
2688.25,2297.68
2683.67,2301.07
2678.78,2304
2673.63,2306.44
2668.26,2308.36
2662.74,2309.74
2657.1,2310.58
2651.41,2310.86
2515.58,2310.86
2509.89,2310.58
2504.25,2309.74
2498.72,2308.36
2493.36,2306.44
2488.2,2304
2483.32,2301.07
2478.74,2297.68
2474.52,2293.85
2470.69,2289.63
2467.29,2285.05
2464.37,2280.16
2461.93,2275.01
2460.01,2269.65
2458.62,2264.12
2457.79,2258.48
2457.51,2252.79
2457.51,2136.65
2457.79,2130.96
2458.62,2125.32
2460.01,2119.79
2461.93,2114.42
2464.37,2109.27
2467.29,2104.38
2470.69,2099.81
2474.52,2095.59
2478.74,2091.76
2483.32,2088.36
2488.2,2085.43
2493.36,2083
2498.72,2081.08
2504.25,2079.69
2509.89,2078.86
2515.58,2078.58
2651.41,2078.58
Z" /> 
</g>
<g >
</g>
<g style="fill:#000000; fill-opacity:1.0; 
stroke:#000000; stroke-width:0; stroke-opacity:1; 
stroke-linecap:round; stroke-linejoin:round;">
<path style="fill:#000000; fill-opacity:1.0; 
stroke:#000000; stroke-width:0; stroke-opacity:1; 
stroke-linecap:round; stroke-linejoin:round;fill-rule:evenodd;"
d="M 3038.2,2458.07
3043.84,2458.9
3049.37,2460.29
3054.73,2462.21
3059.88,2464.65
3064.77,2467.58
3069.35,2470.97
3073.57,2474.8
3077.4,2479.02
3080.79,2483.6
3083.72,2488.49
3086.16,2493.64
3088.08,2499
3089.46,2504.53
3090.3,2510.17
3090.58,2515.86
3090.58,2651.69
3090.3,2657.38
3089.46,2663.02
3088.08,2668.54
3086.16,2673.91
3083.72,2679.06
3080.79,2683.95
3077.4,2688.53
3073.57,2692.75
3069.35,2696.58
3064.77,2699.97
3059.88,2702.9
3054.73,2705.34
3049.37,2707.26
3043.84,2708.64
3038.2,2709.48
3032.51,2709.76
2916.37,2709.76
2910.67,2709.48
2905.04,2708.64
2899.51,2707.26
2894.14,2705.34
2888.99,2702.9
2884.1,2699.97
2879.53,2696.58
2875.3,2692.75
2871.48,2688.53
2868.08,2683.95
2865.15,2679.06
2862.72,2673.91
2860.8,2668.54
2859.41,2663.02
2858.58,2657.38
2858.3,2651.69
2858.3,2515.86
2858.58,2510.17
2859.41,2504.53
2860.8,2499
2862.72,2493.64
2865.15,2488.49
2868.08,2483.6
2871.48,2479.02
2875.3,2474.8
2879.53,2470.97
2884.1,2467.58
2888.99,2464.65
2894.14,2462.21
2899.51,2460.29
2905.04,2458.9
2910.67,2458.07
2916.37,2457.79
3032.51,2457.79
Z" /> 
<path style="fill:#000000; fill-opacity:1.0; 
stroke:#000000; stroke-width:0; stroke-opacity:1; 
stroke-linecap:round; stroke-linejoin:round;fill-rule:evenodd;"
d="M 2656.31,2458.07
2661.95,2458.9
2667.48,2460.29
2672.84,2462.21
2677.99,2464.65
2682.88,2467.58
2687.46,2470.97
2691.68,2474.8
2695.51,2479.02
2698.9,2483.6
2701.83,2488.49
2704.27,2493.64
2706.19,2499
2707.57,2504.53
2708.41,2510.17
2708.69,2515.86
2708.69,2651.69
2708.41,2657.38
2707.57,2663.02
2706.19,2668.54
2704.27,2673.91
2701.83,2679.06
2698.9,2683.95
2695.51,2688.53
2691.68,2692.75
2687.46,2696.58
2682.88,2699.97
2677.99,2702.9
2672.84,2705.34
2667.48,2707.26
2661.95,2708.64
2656.31,2709.48
2650.62,2709.76
2534.48,2709.76
2528.78,2709.48
2523.15,2708.64
2517.62,2707.26
2512.25,2705.34
2507.1,2702.9
2502.21,2699.97
2497.64,2696.58
2493.41,2692.75
2489.59,2688.53
2486.19,2683.95
2483.26,2679.06
2480.83,2673.91
2478.91,2668.54
2477.52,2663.02
2476.69,2657.38
2476.41,2651.69
2476.41,2515.86
2476.69,2510.17
2477.52,2504.53
2478.91,2499
2480.83,2493.64
2483.26,2488.49
2486.19,2483.6
2489.59,2479.02
2493.41,2474.8
2497.64,2470.97
2502.21,2467.58
2507.1,2464.65
2512.25,2462.21
2517.62,2460.29
2523.15,2458.9
2528.78,2458.07
2534.48,2457.79
2650.62,2457.79
Z" /> 
</g>
<g >
</g>
<g style="fill:#000000; fill-opacity:1.0; 
stroke:#000000; stroke-width:0; stroke-opacity:1; 
stroke-linecap:round; stroke-linejoin:round;">
<path style="fill:#000000; fill-opacity:1.0; 
stroke:#000000; stroke-width:0; stroke-opacity:1; 
stroke-linecap:round; stroke-linejoin:round;fill-rule:evenodd;"
d="M 3038.2,2878.07
3043.84,2878.9
3049.37,2880.29
3054.73,2882.21
3059.88,2884.65
3064.77,2887.58
3069.35,2890.97
3073.57,2894.8
3077.4,2899.02
3080.79,2903.6
3083.72,2908.49
3086.16,2913.64
3088.08,2919
3089.46,2924.53
3090.3,2930.17
3090.58,2935.86
3090.58,3071.69
3090.3,3077.38
3089.46,3083.02
3088.08,3088.54
3086.16,3093.91
3083.72,3099.06
3080.79,3103.95
3077.4,3108.53
3073.57,3112.75
3069.35,3116.58
3064.77,3119.97
3059.88,3122.9
3054.73,3125.34
3049.37,3127.26
3043.84,3128.64
3038.2,3129.48
3032.51,3129.76
2916.37,3129.76
2910.67,3129.48
2905.04,3128.64
2899.51,3127.26
2894.14,3125.34
2888.99,3122.9
2884.1,3119.97
2879.53,3116.58
2875.3,3112.75
2871.48,3108.53
2868.08,3103.95
2865.15,3099.06
2862.72,3093.91
2860.8,3088.54
2859.41,3083.02
2858.58,3077.38
2858.3,3071.69
2858.3,2935.86
2858.58,2930.17
2859.41,2924.53
2860.8,2919
2862.72,2913.64
2865.15,2908.49
2868.08,2903.6
2871.48,2899.02
2875.3,2894.8
2879.53,2890.97
2884.1,2887.58
2888.99,2884.65
2894.14,2882.21
2899.51,2880.29
2905.04,2878.9
2910.67,2878.07
2916.37,2877.79
3032.51,2877.79
Z" /> 
<path style="fill:#000000; fill-opacity:1.0; 
stroke:#000000; stroke-width:0; stroke-opacity:1; 
stroke-linecap:round; stroke-linejoin:round;fill-rule:evenodd;"
d="M 2656.31,2878.07
2661.95,2878.9
2667.48,2880.29
2672.84,2882.21
2677.99,2884.65
2682.88,2887.58
2687.46,2890.97
2691.68,2894.8
2695.51,2899.02
2698.9,2903.6
2701.83,2908.49
2704.27,2913.64
2706.19,2919
2707.57,2924.53
2708.41,2930.17
2708.69,2935.86
2708.69,3071.69
2708.41,3077.38
2707.57,3083.02
2706.19,3088.54
2704.27,3093.91
2701.83,3099.06
2698.9,3103.95
2695.51,3108.53
2691.68,3112.75
2687.46,3116.58
2682.88,3119.97
2677.99,3122.9
2672.84,3125.34
2667.48,3127.26
2661.95,3128.64
2656.31,3129.48
2650.62,3129.76
2534.48,3129.76
2528.78,3129.48
2523.15,3128.64
2517.62,3127.26
2512.25,3125.34
2507.1,3122.9
2502.21,3119.97
2497.64,3116.58
2493.41,3112.75
2489.59,3108.53
2486.19,3103.95
2483.26,3099.06
2480.83,3093.91
2478.91,3088.54
2477.52,3083.02
2476.69,3077.38
2476.41,3071.69
2476.41,2935.86
2476.69,2930.17
2477.52,2924.53
2478.91,2919
2480.83,2913.64
2483.26,2908.49
2486.19,2903.6
2489.59,2899.02
2493.41,2894.8
2497.64,2890.97
2502.21,2887.58
2507.1,2884.65
2512.25,2882.21
2517.62,2880.29
2523.15,2878.9
2528.78,2878.07
2534.48,2877.79
2650.62,2877.79
Z" /> 
</g>
<g >
</g>
<g style="fill:#000000; fill-opacity:1.0; 
stroke:#000000; stroke-width:0; stroke-opacity:1; 
stroke-linecap:round; stroke-linejoin:round;">
<path style="fill:#000000; fill-opacity:1.0; 
stroke:#000000; stroke-width:0; stroke-opacity:1; 
stroke-linecap:round; stroke-linejoin:round;fill-rule:evenodd;"
d="M 2176.31,4088.07
2181.95,4088.9
2187.48,4090.29
2192.84,4092.21
2197.99,4094.65
2202.88,4097.58
2207.46,4100.97
2211.68,4104.8
2215.51,4109.02
2218.9,4113.6
2221.83,4118.49
2224.27,4123.64
2226.19,4129
2227.57,4134.53
2228.41,4140.17
2228.69,4145.86
2228.69,4281.69
2228.41,4287.38
2227.57,4293.02
2226.19,4298.54
2224.27,4303.91
2221.83,4309.06
2218.9,4313.95
2215.51,4318.53
2211.68,4322.75
2207.46,4326.58
2202.88,4329.97
2197.99,4332.9
2192.84,4335.34
2187.48,4337.26
2181.95,4338.64
2176.31,4339.48
2170.62,4339.76
2054.48,4339.76
2048.78,4339.48
2043.15,4338.64
2037.62,4337.26
2032.25,4335.34
2027.1,4332.9
2022.21,4329.97
2017.64,4326.58
2013.41,4322.75
2009.59,4318.53
2006.19,4313.95
2003.26,4309.06
2000.83,4303.91
1998.91,4298.54
1997.52,4293.02
1996.69,4287.38
1996.41,4281.69
1996.41,4145.86
1996.69,4140.17
1997.52,4134.53
1998.91,4129
2000.83,4123.64
2003.26,4118.49
2006.19,4113.6
2009.59,4109.02
2013.41,4104.8
2017.64,4100.97
2022.21,4097.58
2027.1,4094.65
2032.25,4092.21
2037.62,4090.29
2043.15,4088.9
2048.78,4088.07
2054.48,4087.79
2170.62,4087.79
Z" /> 
<path style="fill:#000000; fill-opacity:1.0; 
stroke:#000000; stroke-width:0; stroke-opacity:1; 
stroke-linecap:round; stroke-linejoin:round;fill-rule:evenodd;"
d="M 2558.2,4088.07
2563.84,4088.9
2569.37,4090.29
2574.73,4092.21
2579.88,4094.65
2584.77,4097.58
2589.35,4100.97
2593.57,4104.8
2597.4,4109.02
2600.79,4113.6
2603.72,4118.49
2606.16,4123.64
2608.08,4129
2609.46,4134.53
2610.3,4140.17
2610.58,4145.86
2610.58,4281.69
2610.3,4287.38
2609.46,4293.02
2608.08,4298.54
2606.16,4303.91
2603.72,4309.06
2600.79,4313.95
2597.4,4318.53
2593.57,4322.75
2589.35,4326.58
2584.77,4329.97
2579.88,4332.9
2574.73,4335.34
2569.37,4337.26
2563.84,4338.64
2558.2,4339.48
2552.51,4339.76
2436.37,4339.76
2430.67,4339.48
2425.04,4338.64
2419.51,4337.26
2414.14,4335.34
2408.99,4332.9
2404.1,4329.97
2399.53,4326.58
2395.3,4322.75
2391.48,4318.53
2388.08,4313.95
2385.15,4309.06
2382.72,4303.91
2380.8,4298.54
2379.41,4293.02
2378.58,4287.38
2378.3,4281.69
2378.3,4145.86
2378.58,4140.17
2379.41,4134.53
2380.8,4129
2382.72,4123.64
2385.15,4118.49
2388.08,4113.6
2391.48,4109.02
2395.3,4104.8
2399.53,4100.97
2404.1,4097.58
2408.99,4094.65
2414.14,4092.21
2419.51,4090.29
2425.04,4088.9
2430.67,4088.07
2436.37,4087.79
2552.51,4087.79
Z" /> 
</g>
<g >
</g>
<g style="fill:#000000; fill-opacity:1.0; 
stroke:#000000; stroke-width:0; stroke-opacity:1; 
stroke-linecap:round; stroke-linejoin:round;">
<path style="fill:#000000; fill-opacity:1.0; 
stroke:#000000; stroke-width:0; stroke-opacity:1; 
stroke-linecap:round; stroke-linejoin:round;fill-rule:evenodd;"
d="M 2626.01,4030.31
2940.97,4030.31
2940.97,4384.64
2626.01,4384.64
Z" /> 
<path style="fill:#000000; fill-opacity:1.0; 
stroke:#000000; stroke-width:0; stroke-opacity:1; 
stroke-linecap:round; stroke-linejoin:round;fill-rule:evenodd;"
d="M 2252,3242.91
2566.96,3242.91
2566.96,3597.24
2252,3597.24
Z" /> 
<path style="fill:#000000; fill-opacity:1.0; 
stroke:#000000; stroke-width:0; stroke-opacity:1; 
stroke-linecap:round; stroke-linejoin:round;fill-rule:evenodd;"
d="M 3000.03,3242.91
3314.99,3242.91
3314.99,3597.24
3000.03,3597.24
Z" /> 
</g>
<g >
</g>
<g >
</g>
<g style="fill:#000000; fill-opacity:1.0; 
stroke:#000000; stroke-width:0; stroke-opacity:1; 
stroke-linecap:round; stroke-linejoin:round;">
<path style="fill:#000000; fill-opacity:1.0; 
stroke:#000000; stroke-width:0; stroke-opacity:1; 
stroke-linecap:round; stroke-linejoin:round;fill-rule:evenodd;"
d="M 3616.15,5093.19
3621.79,5094.02
3627.32,5095.41
3632.68,5097.33
3637.84,5099.76
3642.72,5102.69
3647.3,5106.09
3651.52,5109.92
3655.35,5114.14
3658.75,5118.72
3661.67,5123.6
3664.11,5128.76
3666.03,5134.12
3667.42,5139.65
3668.25,5145.29
3668.53,5150.98
3668.53,5286.8
3668.25,5292.5
3667.42,5298.13
3666.03,5303.66
3664.11,5309.03
3661.67,5314.18
3658.75,5319.07
3655.35,5323.64
3651.52,5327.87
3647.3,5331.69
3642.72,5335.09
3637.84,5338.02
3632.68,5340.46
3627.32,5342.38
3621.79,5343.76
3616.15,5344.6
3610.46,5344.88
3494.32,5344.88
3488.63,5344.6
3482.99,5343.76
3477.46,5342.38
3472.1,5340.46
3466.94,5338.02
3462.06,5335.09
3457.48,5331.69
3453.26,5327.87
3449.43,5323.64
3446.04,5319.07
3443.11,5314.18
3440.67,5309.03
3438.75,5303.66
3437.36,5298.13
3436.53,5292.5
3436.25,5286.8
3436.25,5150.98
3436.53,5145.29
3437.36,5139.65
3438.75,5134.12
3440.67,5128.76
3443.11,5123.6
3446.04,5118.72
3449.43,5114.14
3453.26,5109.92
3457.48,5106.09
3462.06,5102.69
3466.94,5099.76
3472.1,5097.33
3477.46,5095.41
3482.99,5094.02
3488.63,5093.19
3494.32,5092.91
3610.46,5092.91
Z" /> 
<path style="fill:#000000; fill-opacity:1.0; 
stroke:#000000; stroke-width:0; stroke-opacity:1; 
stroke-linecap:round; stroke-linejoin:round;fill-rule:evenodd;"
d="M 3998.04,5093.19
4003.68,5094.02
4009.21,5095.41
4014.57,5097.33
4019.73,5099.76
4024.61,5102.69
4029.19,5106.09
4033.41,5109.92
4037.24,5114.14
4040.64,5118.72
4043.56,5123.6
4046,5128.76
4047.92,5134.12
4049.31,5139.65
4050.14,5145.29
4050.42,5150.98
4050.42,5286.8
4050.14,5292.5
4049.31,5298.13
4047.92,5303.66
4046,5309.03
4043.56,5314.18
4040.64,5319.07
4037.24,5323.64
4033.41,5327.87
4029.19,5331.69
4024.61,5335.09
4019.73,5338.02
4014.57,5340.46
4009.21,5342.38
4003.68,5343.76
3998.04,5344.6
3992.35,5344.88
3876.21,5344.88
3870.52,5344.6
3864.88,5343.76
3859.35,5342.38
3853.99,5340.46
3848.83,5338.02
3843.95,5335.09
3839.37,5331.69
3835.15,5327.87
3831.32,5323.64
3827.92,5319.07
3825,5314.18
3822.56,5309.03
3820.64,5303.66
3819.25,5298.13
3818.42,5292.5
3818.14,5286.8
3818.14,5150.98
3818.42,5145.29
3819.25,5139.65
3820.64,5134.12
3822.56,5128.76
3825,5123.6
3827.92,5118.72
3831.32,5114.14
3835.15,5109.92
3839.37,5106.09
3843.95,5102.69
3848.83,5099.76
3853.99,5097.33
3859.35,5095.41
3864.88,5094.02
3870.52,5093.19
3876.21,5092.91
3992.35,5092.91
Z" /> 
</g>
<g >
</g>
<g >
</g>
<g style="fill:#000000; fill-opacity:1.0; 
stroke:#000000; stroke-width:0; stroke-opacity:1; 
stroke-linecap:round; stroke-linejoin:round;">
<path style="fill:#000000; fill-opacity:1.0; 
stroke:#000000; stroke-width:0; stroke-opacity:1; 
stroke-linecap:round; stroke-linejoin:round;fill-rule:evenodd;"
d="M 9190.96,26729
9196.59,26729.8
9202.12,26731.2
9207.49,26733.2
9212.64,26735.6
9217.53,26738.5
9222.1,26741.9
9226.33,26745.7
9230.15,26750
9233.55,26754.5
9236.48,26759.4
9238.91,26764.6
9240.83,26769.9
9242.22,26775.5
9243.06,26781.1
9243.34,26786.8
9243.34,26902.9
9243.06,26908.6
9242.22,26914.3
9240.83,26919.8
9238.91,26925.2
9236.48,26930.3
9233.55,26935.2
9230.15,26939.8
9226.33,26944
9222.1,26947.8
9217.53,26951.2
9212.64,26954.2
9207.49,26956.6
9202.12,26958.5
9196.59,26959.9
9190.96,26960.7
9185.26,26961
9049.44,26961
9043.75,26960.7
9038.11,26959.9
9032.58,26958.5
9027.21,26956.6
9022.06,26954.2
9017.17,26951.2
9012.6,26947.8
9008.38,26944
9004.55,26939.8
9001.15,26935.2
8998.22,26930.3
8995.79,26925.2
8993.87,26919.8
8992.48,26914.3
8991.65,26908.6
8991.37,26902.9
8991.37,26786.8
8991.65,26781.1
8992.48,26775.5
8993.87,26769.9
8995.79,26764.6
8998.22,26759.4
9001.15,26754.5
9004.55,26750
9008.38,26745.7
9012.6,26741.9
9017.17,26738.5
9022.06,26735.6
9027.21,26733.2
9032.58,26731.2
9038.11,26729.8
9043.75,26729
9049.44,26728.7
9185.26,26728.7
Z" /> 
<path style="fill:#000000; fill-opacity:1.0; 
stroke:#000000; stroke-width:0; stroke-opacity:1; 
stroke-linecap:round; stroke-linejoin:round;fill-rule:evenodd;"
d="M 9190.96,27110.9
9196.59,27111.7
9202.12,27113.1
9207.49,27115
9212.64,27117.5
9217.53,27120.4
9222.1,27123.8
9226.33,27127.6
9230.15,27131.9
9233.55,27136.4
9236.48,27141.3
9238.91,27146.5
9240.83,27151.8
9242.22,27157.4
9243.06,27163
9243.34,27168.7
9243.34,27284.8
9243.06,27290.5
9242.22,27296.2
9240.83,27301.7
9238.91,27307.1
9236.48,27312.2
9233.55,27317.1
9230.15,27321.7
9226.33,27325.9
9222.1,27329.7
9217.53,27333.1
9212.64,27336
9207.49,27338.5
9202.12,27340.4
9196.59,27341.8
9190.96,27342.6
9185.26,27342.9
9049.44,27342.9
9043.75,27342.6
9038.11,27341.8
9032.58,27340.4
9027.21,27338.5
9022.06,27336
9017.17,27333.1
9012.6,27329.7
9008.38,27325.9
9004.55,27321.7
9001.15,27317.1
8998.22,27312.2
8995.79,27307.1
8993.87,27301.7
8992.48,27296.2
8991.65,27290.5
8991.37,27284.8
8991.37,27168.7
8991.65,27163
8992.48,27157.4
8993.87,27151.8
8995.79,27146.5
8998.22,27141.3
9001.15,27136.4
9004.55,27131.9
9008.38,27127.6
9012.6,27123.8
9017.17,27120.4
9022.06,27117.5
9027.21,27115
9032.58,27113.1
9038.11,27111.7
9043.75,27110.9
9049.44,27110.6
9185.26,27110.6
Z" /> 
</g>
<g >
</g>
<g style="fill:#000000; fill-opacity:1.0; 
stroke:#000000; stroke-width:0; stroke-opacity:1; 
stroke-linecap:round; stroke-linejoin:round;">
<path style="fill:#000000; fill-opacity:1.0; 
stroke:#000000; stroke-width:0; stroke-opacity:1; 
stroke-linecap:round; stroke-linejoin:round;fill-rule:evenodd;"
d="M 9190.96,23154.2
9196.59,23155
9202.12,23156.4
9207.49,23158.4
9212.64,23160.8
9217.53,23163.7
9222.1,23167.1
9226.33,23170.9
9230.15,23175.2
9233.55,23179.7
9236.48,23184.6
9238.91,23189.8
9240.83,23195.1
9242.22,23200.7
9243.06,23206.3
9243.34,23212
9243.34,23328.1
9243.06,23333.8
9242.22,23339.5
9240.83,23345
9238.91,23350.4
9236.48,23355.5
9233.55,23360.4
9230.15,23365
9226.33,23369.2
9222.1,23373
9217.53,23376.4
9212.64,23379.4
9207.49,23381.8
9202.12,23383.7
9196.59,23385.1
9190.96,23385.9
9185.26,23386.2
9049.44,23386.2
9043.75,23385.9
9038.11,23385.1
9032.58,23383.7
9027.21,23381.8
9022.06,23379.4
9017.17,23376.4
9012.6,23373
9008.38,23369.2
9004.55,23365
9001.15,23360.4
8998.22,23355.5
8995.79,23350.4
8993.87,23345
8992.48,23339.5
8991.65,23333.8
8991.37,23328.1
8991.37,23212
8991.65,23206.3
8992.48,23200.7
8993.87,23195.1
8995.79,23189.8
8998.22,23184.6
9001.15,23179.7
9004.55,23175.2
9008.38,23170.9
9012.6,23167.1
9017.17,23163.7
9022.06,23160.8
9027.21,23158.4
9032.58,23156.4
9038.11,23155
9043.75,23154.2
9049.44,23153.9
9185.26,23153.9
Z" /> 
<path style="fill:#000000; fill-opacity:1.0; 
stroke:#000000; stroke-width:0; stroke-opacity:1; 
stroke-linecap:round; stroke-linejoin:round;fill-rule:evenodd;"
d="M 9190.96,23536.1
9196.59,23536.9
9202.12,23538.3
9207.49,23540.2
9212.64,23542.7
9217.53,23545.6
9222.1,23549
9226.33,23552.8
9230.15,23557.1
9233.55,23561.6
9236.48,23566.5
9238.91,23571.7
9240.83,23577
9242.22,23582.6
9243.06,23588.2
9243.34,23593.9
9243.34,23710
9243.06,23715.7
9242.22,23721.4
9240.83,23726.9
9238.91,23732.3
9236.48,23737.4
9233.55,23742.3
9230.15,23746.9
9226.33,23751.1
9222.1,23754.9
9217.53,23758.3
9212.64,23761.2
9207.49,23763.7
9202.12,23765.6
9196.59,23767
9190.96,23767.8
9185.26,23768.1
9049.44,23768.1
9043.75,23767.8
9038.11,23767
9032.58,23765.6
9027.21,23763.7
9022.06,23761.2
9017.17,23758.3
9012.6,23754.9
9008.38,23751.1
9004.55,23746.9
9001.15,23742.3
8998.22,23737.4
8995.79,23732.3
8993.87,23726.9
8992.48,23721.4
8991.65,23715.7
8991.37,23710
8991.37,23593.9
8991.65,23588.2
8992.48,23582.6
8993.87,23577
8995.79,23571.7
8998.22,23566.5
9001.15,23561.6
9004.55,23557.1
9008.38,23552.8
9012.6,23549
9017.17,23545.6
9022.06,23542.7
9027.21,23540.2
9032.58,23538.3
9038.11,23536.9
9043.75,23536.1
9049.44,23535.8
9185.26,23535.8
Z" /> 
</g>
<g >
</g>
<g style="fill:#000000; fill-opacity:1.0; 
stroke:#000000; stroke-width:0; stroke-opacity:1; 
stroke-linecap:round; stroke-linejoin:round;">
<path style="fill:#000000; fill-opacity:1.0; 
stroke:#000000; stroke-width:0; stroke-opacity:1; 
stroke-linecap:round; stroke-linejoin:round;fill-rule:evenodd;"
d="M 9190.96,19538.1
9196.59,19538.9
9202.12,19540.3
9207.49,19542.2
9212.64,19544.6
9217.53,19547.6
9222.1,19551
9226.33,19554.8
9230.15,19559
9233.55,19563.6
9236.48,19568.5
9238.91,19573.6
9240.83,19579
9242.22,19584.5
9243.06,19590.2
9243.34,19595.9
9243.34,19712
9243.06,19717.7
9242.22,19723.3
9240.83,19728.9
9238.91,19734.2
9236.48,19739.4
9233.55,19744.3
9230.15,19748.8
9226.33,19753.1
9222.1,19756.9
9217.53,19760.3
9212.64,19763.2
9207.49,19765.7
9202.12,19767.6
9196.59,19769
9190.96,19769.8
9185.26,19770.1
9049.44,19770.1
9043.75,19769.8
9038.11,19769
9032.58,19767.6
9027.21,19765.7
9022.06,19763.2
9017.17,19760.3
9012.6,19756.9
9008.38,19753.1
9004.55,19748.8
9001.15,19744.3
8998.22,19739.4
8995.79,19734.2
8993.87,19728.9
8992.48,19723.3
8991.65,19717.7
8991.37,19712
8991.37,19595.9
8991.65,19590.2
8992.48,19584.5
8993.87,19579
8995.79,19573.6
8998.22,19568.5
9001.15,19563.6
9004.55,19559
9008.38,19554.8
9012.6,19551
9017.17,19547.6
9022.06,19544.6
9027.21,19542.2
9032.58,19540.3
9038.11,19538.9
9043.75,19538.1
9049.44,19537.8
9185.26,19537.8
Z" /> 
<path style="fill:#000000; fill-opacity:1.0; 
stroke:#000000; stroke-width:0; stroke-opacity:1; 
stroke-linecap:round; stroke-linejoin:round;fill-rule:evenodd;"
d="M 9190.96,19920
9196.59,19920.8
9202.12,19922.2
9207.49,19924.1
9212.64,19926.5
9217.53,19929.5
9222.1,19932.9
9226.33,19936.7
9230.15,19940.9
9233.55,19945.5
9236.48,19950.4
9238.91,19955.5
9240.83,19960.9
9242.22,19966.4
9243.06,19972.1
9243.34,19977.7
9243.34,20093.9
9243.06,20099.6
9242.22,20105.2
9240.83,20110.7
9238.91,20116.1
9236.48,20121.3
9233.55,20126.2
9230.15,20130.7
9226.33,20135
9222.1,20138.8
9217.53,20142.2
9212.64,20145.1
9207.49,20147.5
9202.12,20149.5
9196.59,20150.8
9190.96,20151.7
9185.26,20152
9049.44,20152
9043.75,20151.7
9038.11,20150.8
9032.58,20149.5
9027.21,20147.5
9022.06,20145.1
9017.17,20142.2
9012.6,20138.8
9008.38,20135
9004.55,20130.7
9001.15,20126.2
8998.22,20121.3
8995.79,20116.1
8993.87,20110.7
8992.48,20105.2
8991.65,20099.6
8991.37,20093.9
8991.37,19977.7
8991.65,19972.1
8992.48,19966.4
8993.87,19960.9
8995.79,19955.5
8998.22,19950.4
9001.15,19945.5
9004.55,19940.9
9008.38,19936.7
9012.6,19932.9
9017.17,19929.5
9022.06,19926.5
9027.21,19924.1
9032.58,19922.2
9038.11,19920.8
9043.75,19920
9049.44,19919.7
9185.26,19919.7
Z" /> 
</g>
<g >
</g>
<g style="fill:#000000; fill-opacity:1.0; 
stroke:#000000; stroke-width:0; stroke-opacity:1; 
stroke-linecap:round; stroke-linejoin:round;">
<path style="fill:#000000; fill-opacity:1.0; 
stroke:#000000; stroke-width:0; stroke-opacity:1; 
stroke-linecap:round; stroke-linejoin:round;fill-rule:evenodd;"
d="M 9190.96,15910.1
9196.59,15911
9202.12,15912.3
9207.49,15914.3
9212.64,15916.7
9217.53,15919.6
9222.1,15923
9226.33,15926.8
9230.15,15931.1
9233.55,15935.6
9236.48,15940.5
9238.91,15945.7
9240.83,15951
9242.22,15956.6
9243.06,15962.2
9243.34,15967.9
9243.34,16084
9243.06,16089.7
9242.22,16095.4
9240.83,16100.9
9238.91,16106.3
9236.48,16111.4
9233.55,16116.3
9230.15,16120.9
9226.33,16125.1
9222.1,16128.9
9217.53,16132.3
9212.64,16135.3
9207.49,16137.7
9202.12,16139.6
9196.59,16141
9190.96,16141.8
9185.26,16142.1
9049.44,16142.1
9043.75,16141.8
9038.11,16141
9032.58,16139.6
9027.21,16137.7
9022.06,16135.3
9017.17,16132.3
9012.6,16128.9
9008.38,16125.1
9004.55,16120.9
9001.15,16116.3
8998.22,16111.4
8995.79,16106.3
8993.87,16100.9
8992.48,16095.4
8991.65,16089.7
8991.37,16084
8991.37,15967.9
8991.65,15962.2
8992.48,15956.6
8993.87,15951
8995.79,15945.7
8998.22,15940.5
9001.15,15935.6
9004.55,15931.1
9008.38,15926.8
9012.6,15923
9017.17,15919.6
9022.06,15916.7
9027.21,15914.3
9032.58,15912.3
9038.11,15911
9043.75,15910.1
9049.44,15909.8
9185.26,15909.8
Z" /> 
<path style="fill:#000000; fill-opacity:1.0; 
stroke:#000000; stroke-width:0; stroke-opacity:1; 
stroke-linecap:round; stroke-linejoin:round;fill-rule:evenodd;"
d="M 9190.96,16292
9196.59,16292.8
9202.12,16294.2
9207.49,16296.1
9212.64,16298.6
9217.53,16301.5
9222.1,16304.9
9226.33,16308.7
9230.15,16313
9233.55,16317.5
9236.48,16322.4
9238.91,16327.6
9240.83,16332.9
9242.22,16338.5
9243.06,16344.1
9243.34,16349.8
9243.34,16465.9
9243.06,16471.6
9242.22,16477.3
9240.83,16482.8
9238.91,16488.2
9236.48,16493.3
9233.55,16498.2
9230.15,16502.8
9226.33,16507
9222.1,16510.8
9217.53,16514.2
9212.64,16517.2
9207.49,16519.6
9202.12,16521.5
9196.59,16522.9
9190.96,16523.7
9185.26,16524
9049.44,16524
9043.75,16523.7
9038.11,16522.9
9032.58,16521.5
9027.21,16519.6
9022.06,16517.2
9017.17,16514.2
9012.6,16510.8
9008.38,16507
9004.55,16502.8
9001.15,16498.2
8998.22,16493.3
8995.79,16488.2
8993.87,16482.8
8992.48,16477.3
8991.65,16471.6
8991.37,16465.9
8991.37,16349.8
8991.65,16344.1
8992.48,16338.5
8993.87,16332.9
8995.79,16327.6
8998.22,16322.4
9001.15,16317.5
9004.55,16313
9008.38,16308.7
9012.6,16304.9
9017.17,16301.5
9022.06,16298.6
9027.21,16296.1
9032.58,16294.2
9038.11,16292.8
9043.75,16292
9049.44,16291.7
9185.26,16291.7
Z" /> 
</g>
<g >
</g>
<g style="fill:#000000; fill-opacity:1.0; 
stroke:#000000; stroke-width:0; stroke-opacity:1; 
stroke-linecap:round; stroke-linejoin:round;">
<path style="fill:#000000; fill-opacity:1.0; 
stroke:#000000; stroke-width:0; stroke-opacity:1; 
stroke-linecap:round; stroke-linejoin:round;fill-rule:evenodd;"
d="M 9190.96,12339.2
9196.59,12340.1
9202.12,12341.5
9207.49,12343.4
9212.64,12345.8
9217.53,12348.8
9222.1,12352.2
9226.33,12356
9230.15,12360.2
9233.55,12364.8
9236.48,12369.7
9238.91,12374.8
9240.83,12380.2
9242.22,12385.7
9243.06,12391.3
9243.34,12397
9243.34,12513.2
9243.06,12518.9
9242.22,12524.5
9240.83,12530
9238.91,12535.4
9236.48,12540.6
9233.55,12545.4
9230.15,12550
9226.33,12554.2
9222.1,12558.1
9217.53,12561.5
9212.64,12564.4
9207.49,12566.8
9202.12,12568.8
9196.59,12570.1
9190.96,12571
9185.26,12571.3
9049.44,12571.3
9043.75,12571
9038.11,12570.1
9032.58,12568.8
9027.21,12566.8
9022.06,12564.4
9017.17,12561.5
9012.6,12558.1
9008.38,12554.2
9004.55,12550
9001.15,12545.4
8998.22,12540.6
8995.79,12535.4
8993.87,12530
8992.48,12524.5
8991.65,12518.9
8991.37,12513.2
8991.37,12397
8991.65,12391.3
8992.48,12385.7
8993.87,12380.2
8995.79,12374.8
8998.22,12369.7
9001.15,12364.8
9004.55,12360.2
9008.38,12356
9012.6,12352.2
9017.17,12348.8
9022.06,12345.8
9027.21,12343.4
9032.58,12341.5
9038.11,12340.1
9043.75,12339.2
9049.44,12339
9185.26,12339
Z" /> 
<path style="fill:#000000; fill-opacity:1.0; 
stroke:#000000; stroke-width:0; stroke-opacity:1; 
stroke-linecap:round; stroke-linejoin:round;fill-rule:evenodd;"
d="M 9190.96,12721.1
9196.59,12722
9202.12,12723.4
9207.49,12725.3
9212.64,12727.7
9217.53,12730.6
9222.1,12734
9226.33,12737.9
9230.15,12742.1
9233.55,12746.7
9236.48,12751.6
9238.91,12756.7
9240.83,12762.1
9242.22,12767.6
9243.06,12773.2
9243.34,12778.9
9243.34,12895.1
9243.06,12900.8
9242.22,12906.4
9240.83,12911.9
9238.91,12917.3
9236.48,12922.4
9233.55,12927.3
9230.15,12931.9
9226.33,12936.1
9222.1,12940
9217.53,12943.4
9212.64,12946.3
9207.49,12948.7
9202.12,12950.6
9196.59,12952
9190.96,12952.9
9185.26,12953.1
9049.44,12953.1
9043.75,12952.9
9038.11,12952
9032.58,12950.6
9027.21,12948.7
9022.06,12946.3
9017.17,12943.4
9012.6,12940
9008.38,12936.1
9004.55,12931.9
9001.15,12927.3
8998.22,12922.4
8995.79,12917.3
8993.87,12911.9
8992.48,12906.4
8991.65,12900.8
8991.37,12895.1
8991.37,12778.9
8991.65,12773.2
8992.48,12767.6
8993.87,12762.1
8995.79,12756.7
8998.22,12751.6
9001.15,12746.7
9004.55,12742.1
9008.38,12737.9
9012.6,12734
9017.17,12730.6
9022.06,12727.7
9027.21,12725.3
9032.58,12723.4
9038.11,12722
9043.75,12721.1
9049.44,12720.9
9185.26,12720.9
Z" /> 
</g>
<g >
</g>
<g style="fill:#000000; fill-opacity:1.0; 
stroke:#000000; stroke-width:0; stroke-opacity:1; 
stroke-linecap:round; stroke-linejoin:round;">
<path style="fill:#000000; fill-opacity:1.0; 
stroke:#000000; stroke-width:0; stroke-opacity:1; 
stroke-linecap:round; stroke-linejoin:round;fill-rule:evenodd;"
d="M 9131.9,8108.93
9137.54,8109.77
9143.07,8111.16
9148.43,8113.08
9153.58,8115.51
9158.47,8118.44
9163.05,8121.84
9167.27,8125.66
9171.1,8129.89
9174.49,8134.46
9177.42,8139.35
9179.86,8144.5
9181.78,8149.87
9183.16,8155.4
9184,8161.03
9184.28,8166.73
9184.28,8282.87
9184,8288.56
9183.16,8294.2
9181.78,8299.72
9179.86,8305.09
9177.42,8310.24
9174.49,8315.13
9171.1,8319.71
9167.27,8323.93
9163.05,8327.76
9158.47,8331.15
9153.58,8334.08
9148.43,8336.52
9143.07,8338.44
9137.54,8339.82
9131.9,8340.66
9126.21,8340.94
8990.38,8340.94
8984.69,8340.66
8979.05,8339.82
8973.52,8338.44
8968.16,8336.52
8963.01,8334.08
8958.12,8331.15
8953.54,8327.76
8949.32,8323.93
8945.49,8319.71
8942.1,8315.13
8939.17,8310.24
8936.73,8305.09
8934.81,8299.72
8933.43,8294.2
8932.59,8288.56
8932.31,8282.87
8932.31,8166.73
8932.59,8161.03
8933.43,8155.4
8934.81,8149.87
8936.73,8144.5
8939.17,8139.35
8942.1,8134.46
8945.49,8129.89
8949.32,8125.66
8953.54,8121.84
8958.12,8118.44
8963.01,8115.51
8968.16,8113.08
8973.52,8111.16
8979.05,8109.77
8984.69,8108.93
8990.38,8108.66
9126.21,8108.66
Z" /> 
<path style="fill:#000000; fill-opacity:1.0; 
stroke:#000000; stroke-width:0; stroke-opacity:1; 
stroke-linecap:round; stroke-linejoin:round;fill-rule:evenodd;"
d="M 9131.9,7727.04
9137.54,7727.88
9143.07,7729.27
9148.43,7731.19
9153.58,7733.62
9158.47,7736.55
9163.05,7739.95
9167.27,7743.77
9171.1,7748
9174.49,7752.57
9177.42,7757.46
9179.86,7762.61
9181.78,7767.98
9183.16,7773.51
9184,7779.14
9184.28,7784.84
9184.28,7900.98
9184,7906.67
9183.16,7912.31
9181.78,7917.84
9179.86,7923.2
9177.42,7928.35
9174.49,7933.24
9171.1,7937.82
9167.27,7942.04
9163.05,7945.87
9158.47,7949.26
9153.58,7952.19
9148.43,7954.63
9143.07,7956.55
9137.54,7957.93
9131.9,7958.77
9126.21,7959.05
8990.38,7959.05
8984.69,7958.77
8979.05,7957.93
8973.52,7956.55
8968.16,7954.63
8963.01,7952.19
8958.12,7949.26
8953.54,7945.87
8949.32,7942.04
8945.49,7937.82
8942.1,7933.24
8939.17,7928.35
8936.73,7923.2
8934.81,7917.84
8933.43,7912.31
8932.59,7906.67
8932.31,7900.98
8932.31,7784.84
8932.59,7779.14
8933.43,7773.51
8934.81,7767.98
8936.73,7762.61
8939.17,7757.46
8942.1,7752.57
8945.49,7748
8949.32,7743.77
8953.54,7739.95
8958.12,7736.55
8963.01,7733.62
8968.16,7731.19
8973.52,7729.27
8979.05,7727.88
8984.69,7727.04
8990.38,7726.77
9126.21,7726.77
Z" /> 
</g>
<g >
</g>
<g style="fill:#000000; fill-opacity:1.0; 
stroke:#000000; stroke-width:0; stroke-opacity:1; 
stroke-linecap:round; stroke-linejoin:round;">
<path style="fill:#000000; fill-opacity:1.0; 
stroke:#000000; stroke-width:0; stroke-opacity:1; 
stroke-linecap:round; stroke-linejoin:round;fill-rule:evenodd;"
d="M 8478.36,7376.65
8483.99,7377.49
8489.52,7378.87
8494.89,7380.79
8500.04,7383.23
8504.93,7386.16
8509.51,7389.55
8513.73,7393.38
8517.56,7397.6
8520.95,7402.18
8523.88,7407.07
8526.32,7412.22
8528.24,7417.59
8529.62,7423.11
8530.46,7428.75
8530.74,7434.44
8530.74,7570.27
8530.46,7575.96
8529.62,7581.6
8528.24,7587.13
8526.32,7592.49
8523.88,7597.64
8520.95,7602.53
8517.56,7607.11
8513.73,7611.33
8509.51,7615.16
8504.93,7618.55
8500.04,7621.48
8494.89,7623.92
8489.52,7625.84
8483.99,7627.22
8478.36,7628.06
8472.67,7628.34
8356.52,7628.34
8350.83,7628.06
8345.19,7627.22
8339.67,7625.84
8334.3,7623.92
8329.15,7621.48
8324.26,7618.55
8319.68,7615.16
8315.46,7611.33
8311.63,7607.11
8308.24,7602.53
8305.31,7597.64
8302.87,7592.49
8300.95,7587.13
8299.57,7581.6
8298.73,7575.96
8298.45,7570.27
8298.45,7434.44
8298.73,7428.75
8299.57,7423.11
8300.95,7417.59
8302.87,7412.22
8305.31,7407.07
8308.24,7402.18
8311.63,7397.6
8315.46,7393.38
8319.68,7389.55
8324.26,7386.16
8329.15,7383.23
8334.3,7380.79
8339.67,7378.87
8345.19,7377.49
8350.83,7376.65
8356.52,7376.37
8472.67,7376.37
Z" /> 
<path style="fill:#000000; fill-opacity:1.0; 
stroke:#000000; stroke-width:0; stroke-opacity:1; 
stroke-linecap:round; stroke-linejoin:round;fill-rule:evenodd;"
d="M 8860.25,7376.65
8865.88,7377.49
8871.41,7378.87
8876.78,7380.79
8881.93,7383.23
8886.82,7386.16
8891.4,7389.55
8895.62,7393.38
8899.44,7397.6
8902.84,7402.18
8905.77,7407.07
8908.21,7412.22
8910.13,7417.59
8911.51,7423.11
8912.35,7428.75
8912.63,7434.44
8912.63,7570.27
8912.35,7575.96
8911.51,7581.6
8910.13,7587.13
8908.21,7592.49
8905.77,7597.64
8902.84,7602.53
8899.44,7607.11
8895.62,7611.33
8891.4,7615.16
8886.82,7618.55
8881.93,7621.48
8876.78,7623.92
8871.41,7625.84
8865.88,7627.22
8860.25,7628.06
8854.56,7628.34
8738.41,7628.34
8732.72,7628.06
8727.08,7627.22
8721.56,7625.84
8716.19,7623.92
8711.04,7621.48
8706.15,7618.55
8701.57,7615.16
8697.35,7611.33
8693.52,7607.11
8690.13,7602.53
8687.2,7597.64
8684.76,7592.49
8682.84,7587.13
8681.46,7581.6
8680.62,7575.96
8680.34,7570.27
8680.34,7434.44
8680.62,7428.75
8681.46,7423.11
8682.84,7417.59
8684.76,7412.22
8687.2,7407.07
8690.13,7402.18
8693.52,7397.6
8697.35,7393.38
8701.57,7389.55
8706.15,7386.16
8711.04,7383.23
8716.19,7380.79
8721.56,7378.87
8727.08,7377.49
8732.72,7376.65
8738.41,7376.37
8854.56,7376.37
Z" /> 
</g>
<g >
</g>
<g style="fill:#000000; fill-opacity:1.0; 
stroke:#000000; stroke-width:0; stroke-opacity:1; 
stroke-linecap:round; stroke-linejoin:round;">
<path style="fill:#000000; fill-opacity:1.0; 
stroke:#000000; stroke-width:0; stroke-opacity:1; 
stroke-linecap:round; stroke-linejoin:round;fill-rule:evenodd;"
d="M 9131.9,7040.04
9137.54,7040.87
9143.07,7042.26
9148.43,7044.18
9153.58,7046.61
9158.47,7049.54
9163.05,7052.94
9167.27,7056.77
9171.1,7060.99
9174.49,7065.57
9177.42,7070.45
9179.86,7075.61
9181.78,7080.97
9183.16,7086.5
9184,7092.14
9184.28,7097.83
9184.28,7213.97
9184,7219.66
9183.16,7225.3
9181.78,7230.83
9179.86,7236.19
9177.42,7241.34
9174.49,7246.23
9171.1,7250.81
9167.27,7255.03
9163.05,7258.86
9158.47,7262.25
9153.58,7265.18
9148.43,7267.62
9143.07,7269.54
9137.54,7270.93
9131.9,7271.76
9126.21,7272.04
8990.38,7272.04
8984.69,7271.76
8979.05,7270.93
8973.53,7269.54
8968.16,7267.62
8963.01,7265.18
8958.12,7262.25
8953.54,7258.86
8949.32,7255.03
8945.49,7250.81
8942.1,7246.23
8939.17,7241.34
8936.73,7236.19
8934.81,7230.83
8933.43,7225.3
8932.59,7219.66
8932.31,7213.97
8932.31,7097.83
8932.59,7092.14
8933.43,7086.5
8934.81,7080.97
8936.73,7075.61
8939.17,7070.45
8942.1,7065.57
8945.49,7060.99
8949.32,7056.77
8953.54,7052.94
8958.12,7049.54
8963.01,7046.61
8968.16,7044.18
8973.53,7042.26
8979.05,7040.87
8984.69,7040.04
8990.38,7039.76
9126.21,7039.76
Z" /> 
<path style="fill:#000000; fill-opacity:1.0; 
stroke:#000000; stroke-width:0; stroke-opacity:1; 
stroke-linecap:round; stroke-linejoin:round;fill-rule:evenodd;"
d="M 9131.9,6658.15
9137.54,6658.98
9143.07,6660.37
9148.43,6662.29
9153.58,6664.73
9158.47,6667.65
9163.05,6671.05
9167.27,6674.88
9171.1,6679.1
9174.49,6683.68
9177.42,6688.56
9179.86,6693.72
9181.78,6699.08
9183.16,6704.61
9184,6710.25
9184.28,6715.94
9184.28,6832.08
9184,6837.77
9183.16,6843.41
9181.78,6848.94
9179.86,6854.3
9177.42,6859.46
9174.49,6864.34
9171.1,6868.92
9167.27,6873.14
9163.05,6876.97
9158.47,6880.36
9153.58,6883.29
9148.43,6885.73
9143.07,6887.65
9137.54,6889.04
9131.9,6889.87
9126.21,6890.15
8990.38,6890.15
8984.69,6889.87
8979.05,6889.04
8973.53,6887.65
8968.16,6885.73
8963.01,6883.29
8958.12,6880.36
8953.54,6876.97
8949.32,6873.14
8945.49,6868.92
8942.1,6864.34
8939.17,6859.46
8936.73,6854.3
8934.81,6848.94
8933.43,6843.41
8932.59,6837.77
8932.31,6832.08
8932.31,6715.94
8932.59,6710.25
8933.43,6704.61
8934.81,6699.08
8936.73,6693.72
8939.17,6688.56
8942.1,6683.68
8945.49,6679.1
8949.32,6674.88
8953.54,6671.05
8958.12,6667.65
8963.01,6664.73
8968.16,6662.29
8973.53,6660.37
8979.05,6658.98
8984.69,6658.15
8990.38,6657.87
9126.21,6657.87
Z" /> 
</g>
<g >
</g>
<g style="fill:#000000; fill-opacity:1.0; 
stroke:#000000; stroke-width:0; stroke-opacity:1; 
stroke-linecap:round; stroke-linejoin:round;">
<path style="fill:#000000; fill-opacity:1.0; 
stroke:#000000; stroke-width:0; stroke-opacity:1; 
stroke-linecap:round; stroke-linejoin:round;fill-rule:evenodd;"
d="M 7793.32,9545.94
7798.96,9546.78
7804.48,9548.16
7809.85,9550.08
7815,9552.52
7819.89,9555.45
7824.47,9558.84
7828.69,9562.67
7832.52,9566.89
7835.91,9571.47
7838.84,9576.36
7841.28,9581.51
7843.2,9586.88
7844.58,9592.4
7845.42,9598.04
7845.7,9603.73
7845.7,9719.88
7845.42,9725.57
7844.58,9731.2
7843.2,9736.73
7841.28,9742.1
7838.84,9747.25
7835.91,9752.14
7832.52,9756.72
7828.69,9760.94
7824.47,9764.76
7819.89,9768.16
7815,9771.09
7809.85,9773.53
7804.48,9775.45
7798.96,9776.83
7793.32,9777.67
7787.63,9777.95
7651.8,9777.95
7646.11,9777.67
7640.47,9776.83
7634.94,9775.45
7629.58,9773.53
7624.43,9771.09
7619.54,9768.16
7614.96,9764.76
7610.74,9760.94
7606.91,9756.72
7603.52,9752.14
7600.59,9747.25
7598.15,9742.1
7596.23,9736.73
7594.84,9731.2
7594.01,9725.57
7593.73,9719.88
7593.73,9603.73
7594.01,9598.04
7594.84,9592.4
7596.23,9586.88
7598.15,9581.51
7600.59,9576.36
7603.52,9571.47
7606.91,9566.89
7610.74,9562.67
7614.96,9558.84
7619.54,9555.45
7624.43,9552.52
7629.58,9550.08
7634.94,9548.16
7640.47,9546.78
7646.11,9545.94
7651.8,9545.66
7787.63,9545.66
Z" /> 
<path style="fill:#000000; fill-opacity:1.0; 
stroke:#000000; stroke-width:0; stroke-opacity:1; 
stroke-linecap:round; stroke-linejoin:round;fill-rule:evenodd;"
d="M 7793.32,9164.05
7798.96,9164.89
7804.48,9166.27
7809.85,9168.19
7815,9170.63
7819.89,9173.56
7824.47,9176.95
7828.69,9180.78
7832.52,9185
7835.91,9189.58
7838.84,9194.47
7841.28,9199.62
7843.2,9204.99
7844.58,9210.51
7845.42,9216.15
7845.7,9221.84
7845.7,9337.99
7845.42,9343.68
7844.58,9349.31
7843.2,9354.84
7841.28,9360.21
7838.84,9365.36
7835.91,9370.25
7832.52,9374.83
7828.69,9379.05
7824.47,9382.88
7819.89,9386.27
7815,9389.2
7809.85,9391.64
7804.48,9393.56
7798.96,9394.94
7793.32,9395.78
7787.63,9396.06
7651.8,9396.06
7646.11,9395.78
7640.47,9394.94
7634.94,9393.56
7629.58,9391.64
7624.43,9389.2
7619.54,9386.27
7614.96,9382.88
7610.74,9379.05
7606.91,9374.83
7603.52,9370.25
7600.59,9365.36
7598.15,9360.21
7596.23,9354.84
7594.84,9349.31
7594.01,9343.68
7593.73,9337.99
7593.73,9221.84
7594.01,9216.15
7594.84,9210.51
7596.23,9204.99
7598.15,9199.62
7600.59,9194.47
7603.52,9189.58
7606.91,9185
7610.74,9180.78
7614.96,9176.95
7619.54,9173.56
7624.43,9170.63
7629.58,9168.19
7634.94,9166.27
7640.47,9164.89
7646.11,9164.05
7651.8,9163.77
7787.63,9163.77
Z" /> 
</g>
<g >
</g>
<g style="fill:#000000; fill-opacity:1.0; 
stroke:#000000; stroke-width:0; stroke-opacity:1; 
stroke-linecap:round; stroke-linejoin:round;">
<path style="fill:#000000; fill-opacity:1.0; 
stroke:#000000; stroke-width:0; stroke-opacity:1; 
stroke-linecap:round; stroke-linejoin:round;fill-rule:evenodd;"
d="M 8025.6,9542.01
8031.24,9542.84
8036.77,9544.23
8042.13,9546.15
8047.28,9548.58
8052.17,9551.51
8056.75,9554.91
8060.97,9558.73
8064.8,9562.96
8068.19,9567.53
8071.12,9572.42
8073.56,9577.57
8075.48,9582.94
8076.86,9588.47
8077.7,9594.1
8077.98,9599.8
8077.98,9735.62
8077.7,9741.32
8076.86,9746.95
8075.48,9752.48
8073.56,9757.85
8071.12,9763
8068.19,9767.89
8064.8,9772.46
8060.97,9776.69
8056.75,9780.51
8052.17,9783.91
8047.28,9786.84
8042.13,9789.27
8036.77,9791.19
8031.24,9792.58
8025.6,9793.41
8019.91,9793.69
7903.77,9793.69
7898.08,9793.41
7892.44,9792.58
7886.91,9791.19
7881.55,9789.27
7876.39,9786.84
7871.51,9783.91
7866.93,9780.51
7862.71,9776.69
7858.88,9772.46
7855.48,9767.89
7852.55,9763
7850.12,9757.85
7848.2,9752.48
7846.81,9746.95
7845.98,9741.32
7845.7,9735.62
7845.7,9599.8
7845.98,9594.1
7846.81,9588.47
7848.2,9582.94
7850.12,9577.57
7852.55,9572.42
7855.48,9567.53
7858.88,9562.96
7862.71,9558.73
7866.93,9554.91
7871.51,9551.51
7876.39,9548.58
7881.55,9546.15
7886.91,9544.23
7892.44,9542.84
7898.08,9542.01
7903.77,9541.73
8019.91,9541.73
Z" /> 
<path style="fill:#000000; fill-opacity:1.0; 
stroke:#000000; stroke-width:0; stroke-opacity:1; 
stroke-linecap:round; stroke-linejoin:round;fill-rule:evenodd;"
d="M 8407.49,9542.01
8413.13,9542.84
8418.66,9544.23
8424.02,9546.15
8429.17,9548.58
8434.06,9551.51
8438.64,9554.91
8442.86,9558.73
8446.69,9562.96
8450.08,9567.53
8453.01,9572.42
8455.45,9577.57
8457.37,9582.94
8458.75,9588.47
8459.59,9594.1
8459.87,9599.8
8459.87,9735.62
8459.59,9741.32
8458.75,9746.95
8457.37,9752.48
8455.45,9757.85
8453.01,9763
8450.08,9767.89
8446.69,9772.46
8442.86,9776.69
8438.64,9780.51
8434.06,9783.91
8429.17,9786.84
8424.02,9789.27
8418.66,9791.19
8413.13,9792.58
8407.49,9793.41
8401.8,9793.69
8285.66,9793.69
8279.97,9793.41
8274.33,9792.58
8268.8,9791.19
8263.44,9789.27
8258.28,9786.84
8253.4,9783.91
8248.82,9780.51
8244.6,9776.69
8240.77,9772.46
8237.37,9767.89
8234.44,9763
8232.01,9757.85
8230.09,9752.48
8228.7,9746.95
8227.87,9741.32
8227.59,9735.62
8227.59,9599.8
8227.87,9594.1
8228.7,9588.47
8230.09,9582.94
8232.01,9577.57
8234.44,9572.42
8237.37,9567.53
8240.77,9562.96
8244.6,9558.73
8248.82,9554.91
8253.4,9551.51
8258.28,9548.58
8263.44,9546.15
8268.8,9544.23
8274.33,9542.84
8279.97,9542.01
8285.66,9541.73
8401.8,9541.73
Z" /> 
</g>
<g >
</g>
<g style="fill:#000000; fill-opacity:1.0; 
stroke:#000000; stroke-width:0; stroke-opacity:1; 
stroke-linecap:round; stroke-linejoin:round;">
<path style="fill:#000000; fill-opacity:1.0; 
stroke:#000000; stroke-width:0; stroke-opacity:1; 
stroke-linecap:round; stroke-linejoin:round;fill-rule:evenodd;"
d="M 9127.19,5691.33
8831.92,5494.48
8831.92,5100.78
9127.19,4903.93
Z" /> 
<path style="fill:#000000; fill-opacity:1.0; 
stroke:#000000; stroke-width:0; stroke-opacity:1; 
stroke-linecap:round; stroke-linejoin:round;fill-rule:evenodd;"
d="M 9117.35,4903.93
10692.2,4903.93
10692.2,5691.33
9117.35,5691.33
Z" /> 
<path style="fill:#000000; fill-opacity:1.0; 
stroke:#000000; stroke-width:0; stroke-opacity:1; 
stroke-linecap:round; stroke-linejoin:round;fill-rule:evenodd;"
d="M 7853.57,5691.33
8837.82,5691.33
8837.82,6085.03
7853.57,6085.03
Z" /> 
<path style="fill:#000000; fill-opacity:1.0; 
stroke:#000000; stroke-width:0; stroke-opacity:1; 
stroke-linecap:round; stroke-linejoin:round;fill-rule:evenodd;"
d="M 7853.57,5100.78
8837.82,5100.78
8837.82,5494.48
7853.57,5494.48
Z" /> 
<path style="fill:#000000; fill-opacity:1.0; 
stroke:#000000; stroke-width:0; stroke-opacity:1; 
stroke-linecap:round; stroke-linejoin:round;fill-rule:evenodd;"
d="M 7853.57,4510.23
8837.82,4510.23
8837.82,4903.93
7853.57,4903.93
Z" /> 
</g>
<g >
</g>
<g style="fill:#000000; fill-opacity:1.0; 
stroke:#000000; stroke-width:0; stroke-opacity:1; 
stroke-linecap:round; stroke-linejoin:round;">
<path style="fill:#000000; fill-opacity:1.0; 
stroke:#000000; stroke-width:0; stroke-opacity:1; 
stroke-linecap:round; stroke-linejoin:round;fill-rule:evenodd;"
d="M 8423.24,8120.75
8428.88,8121.58
8434.4,8122.97
8439.77,8124.89
8444.92,8127.32
8449.81,8130.25
8454.39,8133.65
8458.61,8137.47
8462.44,8141.7
8465.83,8146.27
8468.76,8151.16
8471.2,8156.31
8473.12,8161.68
8474.5,8167.21
8475.34,8172.84
8475.62,8178.54
8475.62,8294.68
8475.34,8300.37
8474.5,8306.01
8473.12,8311.54
8471.2,8316.9
8468.76,8322.05
8465.83,8326.94
8462.44,8331.52
8458.61,8335.74
8454.39,8339.57
8449.81,8342.96
8444.92,8345.89
8439.77,8348.33
8434.4,8350.25
8428.88,8351.63
8423.24,8352.47
8417.55,8352.75
8281.72,8352.75
8276.03,8352.47
8270.39,8351.63
8264.86,8350.25
8259.5,8348.33
8254.35,8345.89
8249.46,8342.96
8244.88,8339.57
8240.66,8335.74
8236.83,8331.52
8233.44,8326.94
8230.51,8322.05
8228.07,8316.9
8226.15,8311.54
8224.77,8306.01
8223.93,8300.37
8223.65,8294.68
8223.65,8178.54
8223.93,8172.84
8224.77,8167.21
8226.15,8161.68
8228.07,8156.31
8230.51,8151.16
8233.44,8146.27
8236.83,8141.7
8240.66,8137.47
8244.88,8133.65
8249.46,8130.25
8254.35,8127.32
8259.5,8124.89
8264.86,8122.97
8270.39,8121.58
8276.03,8120.75
8281.72,8120.47
8417.55,8120.47
Z" /> 
<path style="fill:#000000; fill-opacity:1.0; 
stroke:#000000; stroke-width:0; stroke-opacity:1; 
stroke-linecap:round; stroke-linejoin:round;fill-rule:evenodd;"
d="M 8423.24,8502.64
8428.88,8503.47
8434.4,8504.86
8439.77,8506.78
8444.92,8509.21
8449.81,8512.14
8454.39,8515.54
8458.61,8519.36
8462.44,8523.59
8465.83,8528.16
8468.76,8533.05
8471.2,8538.2
8473.12,8543.57
8474.5,8549.1
8475.34,8554.73
8475.62,8560.43
8475.62,8676.57
8475.34,8682.26
8474.5,8687.9
8473.12,8693.43
8471.2,8698.79
8468.76,8703.94
8465.83,8708.83
8462.44,8713.41
8458.61,8717.63
8454.39,8721.46
8449.81,8724.85
8444.92,8727.78
8439.77,8730.22
8434.4,8732.14
8428.88,8733.52
8423.24,8734.36
8417.55,8734.64
8281.72,8734.64
8276.03,8734.36
8270.39,8733.52
8264.86,8732.14
8259.5,8730.22
8254.35,8727.78
8249.46,8724.85
8244.88,8721.46
8240.66,8717.63
8236.83,8713.41
8233.44,8708.83
8230.51,8703.94
8228.07,8698.79
8226.15,8693.43
8224.77,8687.9
8223.93,8682.26
8223.65,8676.57
8223.65,8560.43
8223.93,8554.73
8224.77,8549.1
8226.15,8543.57
8228.07,8538.2
8230.51,8533.05
8233.44,8528.16
8236.83,8523.59
8240.66,8519.36
8244.88,8515.54
8249.46,8512.14
8254.35,8509.21
8259.5,8506.78
8264.86,8504.86
8270.39,8503.47
8276.03,8502.64
8281.72,8502.36
8417.55,8502.36
Z" /> 
</g>
<g >
</g>
<g style="fill:#000000; fill-opacity:1.0; 
stroke:#000000; stroke-width:0; stroke-opacity:1; 
stroke-linecap:round; stroke-linejoin:round;">
<path style="fill:#000000; fill-opacity:1.0; 
stroke:#000000; stroke-width:0; stroke-opacity:1; 
stroke-linecap:round; stroke-linejoin:round;fill-rule:evenodd;"
d="M 6962.61,4581.38
6968.25,4582.21
6973.77,4583.6
6979.14,4585.52
6984.29,4587.95
6989.18,4590.88
6993.76,4594.28
6997.98,4598.1
7001.81,4602.33
7005.2,4606.9
7008.13,4611.79
7010.57,4616.94
7012.49,4622.31
7013.87,4627.84
7014.71,4633.47
7014.99,4639.17
7014.99,4774.99
7014.71,4780.69
7013.87,4786.32
7012.49,4791.85
7010.57,4797.22
7008.13,4802.37
7005.2,4807.26
7001.81,4811.83
6997.98,4816.06
6993.76,4819.88
6989.18,4823.28
6984.29,4826.21
6979.14,4828.64
6973.77,4830.56
6968.25,4831.95
6962.61,4832.79
6956.92,4833.06
6840.78,4833.06
6835.08,4832.79
6829.45,4831.95
6823.92,4830.56
6818.55,4828.64
6813.4,4826.21
6808.51,4823.28
6803.94,4819.88
6799.71,4816.06
6795.89,4811.83
6792.49,4807.26
6789.56,4802.37
6787.13,4797.22
6785.21,4791.85
6783.82,4786.32
6782.98,4780.69
6782.71,4774.99
6782.71,4639.17
6782.98,4633.47
6783.82,4627.84
6785.21,4622.31
6787.13,4616.94
6789.56,4611.79
6792.49,4606.9
6795.89,4602.33
6799.71,4598.1
6803.94,4594.28
6808.51,4590.88
6813.4,4587.95
6818.55,4585.52
6823.92,4583.6
6829.45,4582.21
6835.08,4581.38
6840.78,4581.1
6956.92,4581.1
Z" /> 
<path style="fill:#000000; fill-opacity:1.0; 
stroke:#000000; stroke-width:0; stroke-opacity:1; 
stroke-linecap:round; stroke-linejoin:round;fill-rule:evenodd;"
d="M 7344.5,4581.38
7350.14,4582.21
7355.66,4583.6
7361.03,4585.52
7366.18,4587.95
7371.07,4590.88
7375.65,4594.28
7379.87,4598.1
7383.7,4602.33
7387.09,4606.9
7390.02,4611.79
7392.46,4616.94
7394.38,4622.31
7395.76,4627.84
7396.6,4633.47
7396.88,4639.17
7396.88,4774.99
7396.6,4780.69
7395.76,4786.32
7394.38,4791.85
7392.46,4797.22
7390.02,4802.37
7387.09,4807.26
7383.7,4811.83
7379.87,4816.06
7375.65,4819.88
7371.07,4823.28
7366.18,4826.21
7361.03,4828.64
7355.66,4830.56
7350.14,4831.95
7344.5,4832.79
7338.81,4833.06
7222.67,4833.06
7216.97,4832.79
7211.34,4831.95
7205.81,4830.56
7200.44,4828.64
7195.29,4826.21
7190.4,4823.28
7185.83,4819.88
7181.6,4816.06
7177.78,4811.83
7174.38,4807.26
7171.45,4802.37
7169.02,4797.22
7167.1,4791.85
7165.71,4786.32
7164.87,4780.69
7164.59,4774.99
7164.59,4639.17
7164.87,4633.47
7165.71,4627.84
7167.1,4622.31
7169.02,4616.94
7171.45,4611.79
7174.38,4606.9
7177.78,4602.33
7181.6,4598.1
7185.83,4594.28
7190.4,4590.88
7195.29,4587.95
7200.44,4585.52
7205.81,4583.6
7211.34,4582.21
7216.97,4581.38
7222.67,4581.1
7338.81,4581.1
Z" /> 
</g>
<g >
</g>
<g style="fill:#000000; fill-opacity:1.0; 
stroke:#000000; stroke-width:0; stroke-opacity:1; 
stroke-linecap:round; stroke-linejoin:round;">
<path style="fill:#000000; fill-opacity:1.0; 
stroke:#000000; stroke-width:0; stroke-opacity:1; 
stroke-linecap:round; stroke-linejoin:round;fill-rule:evenodd;"
d="M 6553.16,3856.97
6558.8,3857.8
6564.33,3859.19
6569.69,3861.11
6574.84,3863.54
6579.73,3866.47
6584.31,3869.87
6588.53,3873.7
6592.36,3877.92
6595.75,3882.49
6598.68,3887.38
6601.12,3892.53
6603.04,3897.9
6604.42,3903.43
6605.26,3909.07
6605.54,3914.76
6605.54,4030.9
6605.26,4036.59
6604.42,4042.23
6603.04,4047.76
6601.12,4053.12
6598.68,4058.27
6595.75,4063.16
6592.36,4067.74
6588.53,4071.96
6584.31,4075.79
6579.73,4079.18
6574.84,4082.11
6569.69,4084.55
6564.33,4086.47
6558.8,4087.85
6553.16,4088.69
6547.47,4088.97
6411.64,4088.97
6405.95,4088.69
6400.31,4087.85
6394.79,4086.47
6389.42,4084.55
6384.27,4082.11
6379.38,4079.18
6374.8,4075.79
6370.58,4071.96
6366.75,4067.74
6363.36,4063.16
6360.43,4058.27
6357.99,4053.12
6356.07,4047.76
6354.69,4042.23
6353.85,4036.59
6353.57,4030.9
6353.57,3914.76
6353.85,3909.07
6354.69,3903.43
6356.07,3897.9
6357.99,3892.53
6360.43,3887.38
6363.36,3882.49
6366.75,3877.92
6370.58,3873.7
6374.8,3869.87
6379.38,3866.47
6384.27,3863.54
6389.42,3861.11
6394.79,3859.19
6400.31,3857.8
6405.95,3856.97
6411.64,3856.69
6547.47,3856.69
Z" /> 
<path style="fill:#000000; fill-opacity:1.0; 
stroke:#000000; stroke-width:0; stroke-opacity:1; 
stroke-linecap:round; stroke-linejoin:round;fill-rule:evenodd;"
d="M 6553.16,3475.08
6558.8,3475.91
6564.33,3477.3
6569.69,3479.22
6574.84,3481.65
6579.73,3484.58
6584.31,3487.98
6588.53,3491.81
6592.36,3496.03
6595.75,3500.61
6598.68,3505.49
6601.12,3510.64
6603.04,3516.01
6604.42,3521.54
6605.26,3527.18
6605.54,3532.87
6605.54,3649.01
6605.26,3654.7
6604.42,3660.34
6603.04,3665.87
6601.12,3671.23
6598.68,3676.38
6595.75,3681.27
6592.36,3685.85
6588.53,3690.07
6584.31,3693.9
6579.73,3697.29
6574.84,3700.22
6569.69,3702.66
6564.33,3704.58
6558.8,3705.96
6553.16,3706.8
6547.47,3707.08
6411.64,3707.08
6405.95,3706.8
6400.31,3705.96
6394.79,3704.58
6389.42,3702.66
6384.27,3700.22
6379.38,3697.29
6374.8,3693.9
6370.58,3690.07
6366.75,3685.85
6363.36,3681.27
6360.43,3676.38
6357.99,3671.23
6356.07,3665.87
6354.69,3660.34
6353.85,3654.7
6353.57,3649.01
6353.57,3532.87
6353.85,3527.18
6354.69,3521.54
6356.07,3516.01
6357.99,3510.64
6360.43,3505.49
6363.36,3500.61
6366.75,3496.03
6370.58,3491.81
6374.8,3487.98
6379.38,3484.58
6384.27,3481.65
6389.42,3479.22
6394.79,3477.3
6400.31,3475.91
6405.95,3475.08
6411.64,3474.8
6547.47,3474.8
Z" /> 
</g>
<g >
</g>
<g style="fill:#000000; fill-opacity:1.0; 
stroke:#000000; stroke-width:0; stroke-opacity:1; 
stroke-linecap:round; stroke-linejoin:round;">
<path style="fill:#000000; fill-opacity:1.0; 
stroke:#000000; stroke-width:0; stroke-opacity:1; 
stroke-linecap:round; stroke-linejoin:round;fill-rule:evenodd;"
d="M 8745.3,26350.8
8981.52,26350.8
8981.52,26961
8745.3,26961
Z" /> 
<path style="fill:#000000; fill-opacity:1.0; 
stroke:#000000; stroke-width:0; stroke-opacity:1; 
stroke-linecap:round; stroke-linejoin:round;fill-rule:evenodd;"
d="M 8245.3,26350.8
8481.52,26350.8
8481.52,26961
8245.3,26961
Z" /> 
<path style="fill:#000000; fill-opacity:1.0; 
stroke:#000000; stroke-width:0; stroke-opacity:1; 
stroke-linecap:round; stroke-linejoin:round;fill-rule:evenodd;"
d="M 7745.3,26350.8
7981.52,26350.8
7981.52,26961
7745.3,26961
Z" /> 
<path style="fill:#000000; fill-opacity:1.0; 
stroke:#000000; stroke-width:0; stroke-opacity:1; 
stroke-linecap:round; stroke-linejoin:round;fill-rule:evenodd;"
d="M 7245.3,26350.8
7481.52,26350.8
7481.52,26961
7245.3,26961
Z" /> 
<path style="fill:#000000; fill-opacity:1.0; 
stroke:#000000; stroke-width:0; stroke-opacity:1; 
stroke-linecap:round; stroke-linejoin:round;fill-rule:evenodd;"
d="M 7245.3,24224.8
7481.52,24224.8
7481.52,24835
7245.3,24835
Z" /> 
<path style="fill:#000000; fill-opacity:1.0; 
stroke:#000000; stroke-width:0; stroke-opacity:1; 
stroke-linecap:round; stroke-linejoin:round;fill-rule:evenodd;"
d="M 7745.3,24224.8
7981.52,24224.8
7981.52,24835
7745.3,24835
Z" /> 
<path style="fill:#000000; fill-opacity:1.0; 
stroke:#000000; stroke-width:0; stroke-opacity:1; 
stroke-linecap:round; stroke-linejoin:round;fill-rule:evenodd;"
d="M 8245.3,24224.8
8481.52,24224.8
8481.52,24835
8245.3,24835
Z" /> 
<path style="fill:#000000; fill-opacity:1.0; 
stroke:#000000; stroke-width:0; stroke-opacity:1; 
stroke-linecap:round; stroke-linejoin:round;fill-rule:evenodd;"
d="M 8745.3,24224.8
8981.52,24224.8
8981.52,24835
8745.3,24835
Z" /> 
</g>
<g >
</g>
<g style="fill:#000000; fill-opacity:1.0; 
stroke:#000000; stroke-width:0; stroke-opacity:1; 
stroke-linecap:round; stroke-linejoin:round;">
<path style="fill:#000000; fill-opacity:1.0; 
stroke:#000000; stroke-width:0; stroke-opacity:1; 
stroke-linecap:round; stroke-linejoin:round;fill-rule:evenodd;"
d="M 8745.3,22748.4
8981.52,22748.4
8981.52,23358.7
8745.3,23358.7
Z" /> 
<path style="fill:#000000; fill-opacity:1.0; 
stroke:#000000; stroke-width:0; stroke-opacity:1; 
stroke-linecap:round; stroke-linejoin:round;fill-rule:evenodd;"
d="M 8245.3,22748.4
8481.52,22748.4
8481.52,23358.7
8245.3,23358.7
Z" /> 
<path style="fill:#000000; fill-opacity:1.0; 
stroke:#000000; stroke-width:0; stroke-opacity:1; 
stroke-linecap:round; stroke-linejoin:round;fill-rule:evenodd;"
d="M 7745.3,22748.4
7981.52,22748.4
7981.52,23358.7
7745.3,23358.7
Z" /> 
<path style="fill:#000000; fill-opacity:1.0; 
stroke:#000000; stroke-width:0; stroke-opacity:1; 
stroke-linecap:round; stroke-linejoin:round;fill-rule:evenodd;"
d="M 7245.3,22748.4
7481.52,22748.4
7481.52,23358.7
7245.3,23358.7
Z" /> 
<path style="fill:#000000; fill-opacity:1.0; 
stroke:#000000; stroke-width:0; stroke-opacity:1; 
stroke-linecap:round; stroke-linejoin:round;fill-rule:evenodd;"
d="M 7245.3,20622.4
7481.52,20622.4
7481.52,21232.7
7245.3,21232.7
Z" /> 
<path style="fill:#000000; fill-opacity:1.0; 
stroke:#000000; stroke-width:0; stroke-opacity:1; 
stroke-linecap:round; stroke-linejoin:round;fill-rule:evenodd;"
d="M 7745.3,20622.4
7981.52,20622.4
7981.52,21232.7
7745.3,21232.7
Z" /> 
<path style="fill:#000000; fill-opacity:1.0; 
stroke:#000000; stroke-width:0; stroke-opacity:1; 
stroke-linecap:round; stroke-linejoin:round;fill-rule:evenodd;"
d="M 8245.3,20622.4
8481.52,20622.4
8481.52,21232.7
8245.3,21232.7
Z" /> 
<path style="fill:#000000; fill-opacity:1.0; 
stroke:#000000; stroke-width:0; stroke-opacity:1; 
stroke-linecap:round; stroke-linejoin:round;fill-rule:evenodd;"
d="M 8745.3,20622.4
8981.52,20622.4
8981.52,21232.7
8745.3,21232.7
Z" /> 
</g>
<g >
</g>
<g style="fill:#000000; fill-opacity:1.0; 
stroke:#000000; stroke-width:0; stroke-opacity:1; 
stroke-linecap:round; stroke-linejoin:round;">
<path style="fill:#000000; fill-opacity:1.0; 
stroke:#000000; stroke-width:0; stroke-opacity:1; 
stroke-linecap:round; stroke-linejoin:round;fill-rule:evenodd;"
d="M 8764.19,19174
9000.41,19174
9000.41,19784.2
8764.19,19784.2
Z" /> 
<path style="fill:#000000; fill-opacity:1.0; 
stroke:#000000; stroke-width:0; stroke-opacity:1; 
stroke-linecap:round; stroke-linejoin:round;fill-rule:evenodd;"
d="M 8264.19,19174
8500.41,19174
8500.41,19784.2
8264.19,19784.2
Z" /> 
<path style="fill:#000000; fill-opacity:1.0; 
stroke:#000000; stroke-width:0; stroke-opacity:1; 
stroke-linecap:round; stroke-linejoin:round;fill-rule:evenodd;"
d="M 7764.19,19174
8000.41,19174
8000.41,19784.2
7764.19,19784.2
Z" /> 
<path style="fill:#000000; fill-opacity:1.0; 
stroke:#000000; stroke-width:0; stroke-opacity:1; 
stroke-linecap:round; stroke-linejoin:round;fill-rule:evenodd;"
d="M 7264.19,19174
7500.41,19174
7500.41,19784.2
7264.19,19784.2
Z" /> 
<path style="fill:#000000; fill-opacity:1.0; 
stroke:#000000; stroke-width:0; stroke-opacity:1; 
stroke-linecap:round; stroke-linejoin:round;fill-rule:evenodd;"
d="M 7264.19,17048
7500.41,17048
7500.41,17658.3
7264.19,17658.3
Z" /> 
<path style="fill:#000000; fill-opacity:1.0; 
stroke:#000000; stroke-width:0; stroke-opacity:1; 
stroke-linecap:round; stroke-linejoin:round;fill-rule:evenodd;"
d="M 7764.19,17048
8000.41,17048
8000.41,17658.3
7764.19,17658.3
Z" /> 
<path style="fill:#000000; fill-opacity:1.0; 
stroke:#000000; stroke-width:0; stroke-opacity:1; 
stroke-linecap:round; stroke-linejoin:round;fill-rule:evenodd;"
d="M 8264.19,17048
8500.41,17048
8500.41,17658.3
8264.19,17658.3
Z" /> 
<path style="fill:#000000; fill-opacity:1.0; 
stroke:#000000; stroke-width:0; stroke-opacity:1; 
stroke-linecap:round; stroke-linejoin:round;fill-rule:evenodd;"
d="M 8764.19,17048
9000.41,17048
9000.41,17658.3
8764.19,17658.3
Z" /> 
</g>
<g >
</g>
<g style="fill:#000000; fill-opacity:1.0; 
stroke:#000000; stroke-width:0; stroke-opacity:1; 
stroke-linecap:round; stroke-linejoin:round;">
<path style="fill:#000000; fill-opacity:1.0; 
stroke:#000000; stroke-width:0; stroke-opacity:1; 
stroke-linecap:round; stroke-linejoin:round;fill-rule:evenodd;"
d="M 8725.62,15543.7
8961.84,15543.7
8961.84,16153.9
8725.62,16153.9
Z" /> 
<path style="fill:#000000; fill-opacity:1.0; 
stroke:#000000; stroke-width:0; stroke-opacity:1; 
stroke-linecap:round; stroke-linejoin:round;fill-rule:evenodd;"
d="M 8225.62,15543.7
8461.84,15543.7
8461.84,16153.9
8225.62,16153.9
Z" /> 
<path style="fill:#000000; fill-opacity:1.0; 
stroke:#000000; stroke-width:0; stroke-opacity:1; 
stroke-linecap:round; stroke-linejoin:round;fill-rule:evenodd;"
d="M 7725.62,15543.7
7961.84,15543.7
7961.84,16153.9
7725.62,16153.9
Z" /> 
<path style="fill:#000000; fill-opacity:1.0; 
stroke:#000000; stroke-width:0; stroke-opacity:1; 
stroke-linecap:round; stroke-linejoin:round;fill-rule:evenodd;"
d="M 7225.62,15543.7
7461.84,15543.7
7461.84,16153.9
7225.62,16153.9
Z" /> 
<path style="fill:#000000; fill-opacity:1.0; 
stroke:#000000; stroke-width:0; stroke-opacity:1; 
stroke-linecap:round; stroke-linejoin:round;fill-rule:evenodd;"
d="M 7225.62,13417.7
7461.84,13417.7
7461.84,14027.9
7225.62,14027.9
Z" /> 
<path style="fill:#000000; fill-opacity:1.0; 
stroke:#000000; stroke-width:0; stroke-opacity:1; 
stroke-linecap:round; stroke-linejoin:round;fill-rule:evenodd;"
d="M 7725.62,13417.7
7961.84,13417.7
7961.84,14027.9
7725.62,14027.9
Z" /> 
<path style="fill:#000000; fill-opacity:1.0; 
stroke:#000000; stroke-width:0; stroke-opacity:1; 
stroke-linecap:round; stroke-linejoin:round;fill-rule:evenodd;"
d="M 8225.62,13417.7
8461.84,13417.7
8461.84,14027.9
8225.62,14027.9
Z" /> 
<path style="fill:#000000; fill-opacity:1.0; 
stroke:#000000; stroke-width:0; stroke-opacity:1; 
stroke-linecap:round; stroke-linejoin:round;fill-rule:evenodd;"
d="M 8725.62,13417.7
8961.84,13417.7
8961.84,14027.9
8725.62,14027.9
Z" /> 
</g>
<g >
</g>
<g style="fill:#000000; fill-opacity:1.0; 
stroke:#000000; stroke-width:0; stroke-opacity:1; 
stroke-linecap:round; stroke-linejoin:round;">
<path style="fill:#000000; fill-opacity:1.0; 
stroke:#000000; stroke-width:0; stroke-opacity:1; 
stroke-linecap:round; stroke-linejoin:round;fill-rule:evenodd;"
d="M 8745.3,11961
8981.52,11961
8981.52,12571.3
8745.3,12571.3
Z" /> 
<path style="fill:#000000; fill-opacity:1.0; 
stroke:#000000; stroke-width:0; stroke-opacity:1; 
stroke-linecap:round; stroke-linejoin:round;fill-rule:evenodd;"
d="M 8245.3,11961
8481.52,11961
8481.52,12571.3
8245.3,12571.3
Z" /> 
<path style="fill:#000000; fill-opacity:1.0; 
stroke:#000000; stroke-width:0; stroke-opacity:1; 
stroke-linecap:round; stroke-linejoin:round;fill-rule:evenodd;"
d="M 7745.3,11961
7981.52,11961
7981.52,12571.3
7745.3,12571.3
Z" /> 
<path style="fill:#000000; fill-opacity:1.0; 
stroke:#000000; stroke-width:0; stroke-opacity:1; 
stroke-linecap:round; stroke-linejoin:round;fill-rule:evenodd;"
d="M 7245.3,11961
7481.52,11961
7481.52,12571.3
7245.3,12571.3
Z" /> 
<path style="fill:#000000; fill-opacity:1.0; 
stroke:#000000; stroke-width:0; stroke-opacity:1; 
stroke-linecap:round; stroke-linejoin:round;fill-rule:evenodd;"
d="M 7245.3,9835.03
7481.52,9835.03
7481.52,10445.3
7245.3,10445.3
Z" /> 
<path style="fill:#000000; fill-opacity:1.0; 
stroke:#000000; stroke-width:0; stroke-opacity:1; 
stroke-linecap:round; stroke-linejoin:round;fill-rule:evenodd;"
d="M 7745.3,9835.03
7981.52,9835.03
7981.52,10445.3
7745.3,10445.3
Z" /> 
<path style="fill:#000000; fill-opacity:1.0; 
stroke:#000000; stroke-width:0; stroke-opacity:1; 
stroke-linecap:round; stroke-linejoin:round;fill-rule:evenodd;"
d="M 8245.3,9835.03
8481.52,9835.03
8481.52,10445.3
8245.3,10445.3
Z" /> 
<path style="fill:#000000; fill-opacity:1.0; 
stroke:#000000; stroke-width:0; stroke-opacity:1; 
stroke-linecap:round; stroke-linejoin:round;fill-rule:evenodd;"
d="M 8745.3,9835.03
8981.52,9835.03
8981.52,10445.3
8745.3,10445.3
Z" /> 
</g>
<g >
</g>
<g style="fill:#000000; fill-opacity:1.0; 
stroke:#000000; stroke-width:0; stroke-opacity:1; 
stroke-linecap:round; stroke-linejoin:round;">
<path style="fill:#000000; fill-opacity:1.0; 
stroke:#000000; stroke-width:0; stroke-opacity:1; 
stroke-linecap:round; stroke-linejoin:round;fill-rule:evenodd;"
d="M 6784.67,5594.88
6784.67,5831.1
6174.44,5831.1
6174.44,5594.88
Z" /> 
<path style="fill:#000000; fill-opacity:1.0; 
stroke:#000000; stroke-width:0; stroke-opacity:1; 
stroke-linecap:round; stroke-linejoin:round;fill-rule:evenodd;"
d="M 6784.67,5094.88
6784.67,5331.1
6174.44,5331.1
6174.44,5094.88
Z" /> 
<path style="fill:#000000; fill-opacity:1.0; 
stroke:#000000; stroke-width:0; stroke-opacity:1; 
stroke-linecap:round; stroke-linejoin:round;fill-rule:evenodd;"
d="M 6784.67,4594.88
6784.67,4831.1
6174.44,4831.1
6174.44,4594.88
Z" /> 
<path style="fill:#000000; fill-opacity:1.0; 
stroke:#000000; stroke-width:0; stroke-opacity:1; 
stroke-linecap:round; stroke-linejoin:round;fill-rule:evenodd;"
d="M 6784.67,4094.88
6784.67,4331.1
6174.44,4331.1
6174.44,4094.88
Z" /> 
<path style="fill:#000000; fill-opacity:1.0; 
stroke:#000000; stroke-width:0; stroke-opacity:1; 
stroke-linecap:round; stroke-linejoin:round;fill-rule:evenodd;"
d="M 4658.69,4094.88
4658.69,4331.1
4048.45,4331.1
4048.45,4094.88
Z" /> 
<path style="fill:#000000; fill-opacity:1.0; 
stroke:#000000; stroke-width:0; stroke-opacity:1; 
stroke-linecap:round; stroke-linejoin:round;fill-rule:evenodd;"
d="M 4658.69,4594.88
4658.69,4831.1
4048.45,4831.1
4048.45,4594.88
Z" /> 
<path style="fill:#000000; fill-opacity:1.0; 
stroke:#000000; stroke-width:0; stroke-opacity:1; 
stroke-linecap:round; stroke-linejoin:round;fill-rule:evenodd;"
d="M 4658.69,5094.88
4658.69,5331.1
4048.45,5331.1
4048.45,5094.88
Z" /> 
<path style="fill:#000000; fill-opacity:1.0; 
stroke:#000000; stroke-width:0; stroke-opacity:1; 
stroke-linecap:round; stroke-linejoin:round;fill-rule:evenodd;"
d="M 4658.69,5594.88
4658.69,5831.1
4048.45,5831.1
4048.45,5594.88
Z" /> 
<path style="fill:#000000; fill-opacity:1.0; 
stroke:#000000; stroke-width:0; stroke-opacity:1; 
stroke-linecap:round; stroke-linejoin:round;fill-rule:evenodd;"
d="M 5372.27,4544.68
5372.27,4918.69
4998.26,4918.69
4998.26,4544.68
Z" /> 
<path style="fill:#000000; fill-opacity:1.0; 
stroke:#000000; stroke-width:0; stroke-opacity:1; 
stroke-linecap:round; stroke-linejoin:round;fill-rule:evenodd;"
d="M 5834.87,4544.68
5834.87,4918.69
5460.85,4918.69
5460.85,4544.68
Z" /> 
<path style="fill:#000000; fill-opacity:1.0; 
stroke:#000000; stroke-width:0; stroke-opacity:1; 
stroke-linecap:round; stroke-linejoin:round;fill-rule:evenodd;"
d="M 5834.87,5007.28
5834.87,5381.29
5460.85,5381.29
5460.85,5007.28
Z" /> 
<path style="fill:#000000; fill-opacity:1.0; 
stroke:#000000; stroke-width:0; stroke-opacity:1; 
stroke-linecap:round; stroke-linejoin:round;fill-rule:evenodd;"
d="M 5372.27,5007.28
5372.27,5381.29
4998.26,5381.29
4998.26,5007.28
Z" /> 
</g>
<g >
</g>
<g >
</g>
<g >
</g>
</g> 
</svg>
