G04 #@! TF.GenerationSoftware,KiCad,Pcbnew,5.1.5+dfsg1-2~bpo9+1*
G04 #@! TF.CreationDate,2020-08-08T11:08:39-04:00*
G04 #@! TF.ProjectId,amplifier,616d706c-6966-4696-9572-2e6b69636164,rev?*
G04 #@! TF.SameCoordinates,PX8308ec0PY56f9a00*
G04 #@! TF.FileFunction,Copper,L1,Top*
G04 #@! TF.FilePolarity,Positive*
%FSLAX46Y46*%
G04 Gerber Fmt 4.6, Leading zero omitted, Abs format (unit mm)*
G04 Created by KiCad (PCBNEW 5.1.5+dfsg1-2~bpo9+1) date 2020-08-08 11:08:39*
%MOMM*%
%LPD*%
G04 APERTURE LIST*
%ADD10R,0.899160X0.848360*%
%ADD11C,2.050000*%
%ADD12R,1.500000X1.500000*%
%ADD13R,1.099820X0.998220*%
%ADD14R,0.400000X0.650000*%
%ADD15R,2.000000X2.000000*%
%ADD16C,0.020000*%
%ADD17C,0.400000*%
%ADD18C,1.500000*%
%ADD19C,0.254000*%
G04 APERTURE END LIST*
D10*
X9750000Y-16850000D03*
X9750000Y-15691760D03*
D11*
X4125000Y-15300000D03*
D12*
X6650000Y-17950000D03*
X6650000Y-12850000D03*
X1550000Y-12850000D03*
X1550000Y-17950000D03*
D13*
X14851640Y-9400000D03*
X16548360Y-9400000D03*
X11548360Y-17850000D03*
X9851640Y-17850000D03*
D14*
X12300000Y-13400000D03*
X13600000Y-13400000D03*
X13600000Y-15300000D03*
X12300000Y-15300000D03*
D15*
X9850000Y-22000000D03*
X13350000Y-9150000D03*
D12*
X22400000Y-13400000D03*
G04 #@! TA.AperFunction,SMDPad,CuDef*
D16*
G36*
X13785858Y-12490710D02*
G01*
X13800176Y-12492834D01*
X13814217Y-12496351D01*
X13827846Y-12501228D01*
X13840931Y-12507417D01*
X13853347Y-12514858D01*
X13864973Y-12523481D01*
X13875698Y-12533202D01*
X13885419Y-12543927D01*
X13894042Y-12555553D01*
X13901483Y-12567969D01*
X13907672Y-12581054D01*
X13912549Y-12594683D01*
X13916066Y-12608724D01*
X13918190Y-12623042D01*
X13918900Y-12637500D01*
X13918900Y-12932500D01*
X13918190Y-12946958D01*
X13916066Y-12961276D01*
X13912549Y-12975317D01*
X13907672Y-12988946D01*
X13901483Y-13002031D01*
X13894042Y-13014447D01*
X13885419Y-13026073D01*
X13875698Y-13036798D01*
X13864973Y-13046519D01*
X13853347Y-13055142D01*
X13840931Y-13062583D01*
X13827846Y-13068772D01*
X13814217Y-13073649D01*
X13800176Y-13077166D01*
X13785858Y-13079290D01*
X13771400Y-13080000D01*
X13426400Y-13080000D01*
X13411942Y-13079290D01*
X13397624Y-13077166D01*
X13383583Y-13073649D01*
X13369954Y-13068772D01*
X13356869Y-13062583D01*
X13344453Y-13055142D01*
X13332827Y-13046519D01*
X13322102Y-13036798D01*
X13312381Y-13026073D01*
X13303758Y-13014447D01*
X13296317Y-13002031D01*
X13290128Y-12988946D01*
X13285251Y-12975317D01*
X13281734Y-12961276D01*
X13279610Y-12946958D01*
X13278900Y-12932500D01*
X13278900Y-12637500D01*
X13279610Y-12623042D01*
X13281734Y-12608724D01*
X13285251Y-12594683D01*
X13290128Y-12581054D01*
X13296317Y-12567969D01*
X13303758Y-12555553D01*
X13312381Y-12543927D01*
X13322102Y-12533202D01*
X13332827Y-12523481D01*
X13344453Y-12514858D01*
X13356869Y-12507417D01*
X13369954Y-12501228D01*
X13383583Y-12496351D01*
X13397624Y-12492834D01*
X13411942Y-12490710D01*
X13426400Y-12490000D01*
X13771400Y-12490000D01*
X13785858Y-12490710D01*
G37*
G04 #@! TD.AperFunction*
G04 #@! TA.AperFunction,SMDPad,CuDef*
G36*
X13785858Y-11520710D02*
G01*
X13800176Y-11522834D01*
X13814217Y-11526351D01*
X13827846Y-11531228D01*
X13840931Y-11537417D01*
X13853347Y-11544858D01*
X13864973Y-11553481D01*
X13875698Y-11563202D01*
X13885419Y-11573927D01*
X13894042Y-11585553D01*
X13901483Y-11597969D01*
X13907672Y-11611054D01*
X13912549Y-11624683D01*
X13916066Y-11638724D01*
X13918190Y-11653042D01*
X13918900Y-11667500D01*
X13918900Y-11962500D01*
X13918190Y-11976958D01*
X13916066Y-11991276D01*
X13912549Y-12005317D01*
X13907672Y-12018946D01*
X13901483Y-12032031D01*
X13894042Y-12044447D01*
X13885419Y-12056073D01*
X13875698Y-12066798D01*
X13864973Y-12076519D01*
X13853347Y-12085142D01*
X13840931Y-12092583D01*
X13827846Y-12098772D01*
X13814217Y-12103649D01*
X13800176Y-12107166D01*
X13785858Y-12109290D01*
X13771400Y-12110000D01*
X13426400Y-12110000D01*
X13411942Y-12109290D01*
X13397624Y-12107166D01*
X13383583Y-12103649D01*
X13369954Y-12098772D01*
X13356869Y-12092583D01*
X13344453Y-12085142D01*
X13332827Y-12076519D01*
X13322102Y-12066798D01*
X13312381Y-12056073D01*
X13303758Y-12044447D01*
X13296317Y-12032031D01*
X13290128Y-12018946D01*
X13285251Y-12005317D01*
X13281734Y-11991276D01*
X13279610Y-11976958D01*
X13278900Y-11962500D01*
X13278900Y-11667500D01*
X13279610Y-11653042D01*
X13281734Y-11638724D01*
X13285251Y-11624683D01*
X13290128Y-11611054D01*
X13296317Y-11597969D01*
X13303758Y-11585553D01*
X13312381Y-11573927D01*
X13322102Y-11563202D01*
X13332827Y-11553481D01*
X13344453Y-11544858D01*
X13356869Y-11537417D01*
X13369954Y-11531228D01*
X13383583Y-11526351D01*
X13397624Y-11522834D01*
X13411942Y-11520710D01*
X13426400Y-11520000D01*
X13771400Y-11520000D01*
X13785858Y-11520710D01*
G37*
G04 #@! TD.AperFunction*
G04 #@! TA.AperFunction,SMDPad,CuDef*
G36*
X13786958Y-10890710D02*
G01*
X13801276Y-10892834D01*
X13815317Y-10896351D01*
X13828946Y-10901228D01*
X13842031Y-10907417D01*
X13854447Y-10914858D01*
X13866073Y-10923481D01*
X13876798Y-10933202D01*
X13886519Y-10943927D01*
X13895142Y-10955553D01*
X13902583Y-10967969D01*
X13908772Y-10981054D01*
X13913649Y-10994683D01*
X13917166Y-11008724D01*
X13919290Y-11023042D01*
X13920000Y-11037500D01*
X13920000Y-11332500D01*
X13919290Y-11346958D01*
X13917166Y-11361276D01*
X13913649Y-11375317D01*
X13908772Y-11388946D01*
X13902583Y-11402031D01*
X13895142Y-11414447D01*
X13886519Y-11426073D01*
X13876798Y-11436798D01*
X13866073Y-11446519D01*
X13854447Y-11455142D01*
X13842031Y-11462583D01*
X13828946Y-11468772D01*
X13815317Y-11473649D01*
X13801276Y-11477166D01*
X13786958Y-11479290D01*
X13772500Y-11480000D01*
X13427500Y-11480000D01*
X13413042Y-11479290D01*
X13398724Y-11477166D01*
X13384683Y-11473649D01*
X13371054Y-11468772D01*
X13357969Y-11462583D01*
X13345553Y-11455142D01*
X13333927Y-11446519D01*
X13323202Y-11436798D01*
X13313481Y-11426073D01*
X13304858Y-11414447D01*
X13297417Y-11402031D01*
X13291228Y-11388946D01*
X13286351Y-11375317D01*
X13282834Y-11361276D01*
X13280710Y-11346958D01*
X13280000Y-11332500D01*
X13280000Y-11037500D01*
X13280710Y-11023042D01*
X13282834Y-11008724D01*
X13286351Y-10994683D01*
X13291228Y-10981054D01*
X13297417Y-10967969D01*
X13304858Y-10955553D01*
X13313481Y-10943927D01*
X13323202Y-10933202D01*
X13333927Y-10923481D01*
X13345553Y-10914858D01*
X13357969Y-10907417D01*
X13371054Y-10901228D01*
X13384683Y-10896351D01*
X13398724Y-10892834D01*
X13413042Y-10890710D01*
X13427500Y-10890000D01*
X13772500Y-10890000D01*
X13786958Y-10890710D01*
G37*
G04 #@! TD.AperFunction*
G04 #@! TA.AperFunction,SMDPad,CuDef*
G36*
X13786958Y-9920710D02*
G01*
X13801276Y-9922834D01*
X13815317Y-9926351D01*
X13828946Y-9931228D01*
X13842031Y-9937417D01*
X13854447Y-9944858D01*
X13866073Y-9953481D01*
X13876798Y-9963202D01*
X13886519Y-9973927D01*
X13895142Y-9985553D01*
X13902583Y-9997969D01*
X13908772Y-10011054D01*
X13913649Y-10024683D01*
X13917166Y-10038724D01*
X13919290Y-10053042D01*
X13920000Y-10067500D01*
X13920000Y-10362500D01*
X13919290Y-10376958D01*
X13917166Y-10391276D01*
X13913649Y-10405317D01*
X13908772Y-10418946D01*
X13902583Y-10432031D01*
X13895142Y-10444447D01*
X13886519Y-10456073D01*
X13876798Y-10466798D01*
X13866073Y-10476519D01*
X13854447Y-10485142D01*
X13842031Y-10492583D01*
X13828946Y-10498772D01*
X13815317Y-10503649D01*
X13801276Y-10507166D01*
X13786958Y-10509290D01*
X13772500Y-10510000D01*
X13427500Y-10510000D01*
X13413042Y-10509290D01*
X13398724Y-10507166D01*
X13384683Y-10503649D01*
X13371054Y-10498772D01*
X13357969Y-10492583D01*
X13345553Y-10485142D01*
X13333927Y-10476519D01*
X13323202Y-10466798D01*
X13313481Y-10456073D01*
X13304858Y-10444447D01*
X13297417Y-10432031D01*
X13291228Y-10418946D01*
X13286351Y-10405317D01*
X13282834Y-10391276D01*
X13280710Y-10376958D01*
X13280000Y-10362500D01*
X13280000Y-10067500D01*
X13280710Y-10053042D01*
X13282834Y-10038724D01*
X13286351Y-10024683D01*
X13291228Y-10011054D01*
X13297417Y-9997969D01*
X13304858Y-9985553D01*
X13313481Y-9973927D01*
X13323202Y-9963202D01*
X13333927Y-9953481D01*
X13345553Y-9944858D01*
X13357969Y-9937417D01*
X13371054Y-9931228D01*
X13384683Y-9926351D01*
X13398724Y-9922834D01*
X13413042Y-9920710D01*
X13427500Y-9920000D01*
X13772500Y-9920000D01*
X13786958Y-9920710D01*
G37*
G04 #@! TD.AperFunction*
G04 #@! TA.AperFunction,SMDPad,CuDef*
G36*
X18346958Y-13080710D02*
G01*
X18361276Y-13082834D01*
X18375317Y-13086351D01*
X18388946Y-13091228D01*
X18402031Y-13097417D01*
X18414447Y-13104858D01*
X18426073Y-13113481D01*
X18436798Y-13123202D01*
X18446519Y-13133927D01*
X18455142Y-13145553D01*
X18462583Y-13157969D01*
X18468772Y-13171054D01*
X18473649Y-13184683D01*
X18477166Y-13198724D01*
X18479290Y-13213042D01*
X18480000Y-13227500D01*
X18480000Y-13572500D01*
X18479290Y-13586958D01*
X18477166Y-13601276D01*
X18473649Y-13615317D01*
X18468772Y-13628946D01*
X18462583Y-13642031D01*
X18455142Y-13654447D01*
X18446519Y-13666073D01*
X18436798Y-13676798D01*
X18426073Y-13686519D01*
X18414447Y-13695142D01*
X18402031Y-13702583D01*
X18388946Y-13708772D01*
X18375317Y-13713649D01*
X18361276Y-13717166D01*
X18346958Y-13719290D01*
X18332500Y-13720000D01*
X18037500Y-13720000D01*
X18023042Y-13719290D01*
X18008724Y-13717166D01*
X17994683Y-13713649D01*
X17981054Y-13708772D01*
X17967969Y-13702583D01*
X17955553Y-13695142D01*
X17943927Y-13686519D01*
X17933202Y-13676798D01*
X17923481Y-13666073D01*
X17914858Y-13654447D01*
X17907417Y-13642031D01*
X17901228Y-13628946D01*
X17896351Y-13615317D01*
X17892834Y-13601276D01*
X17890710Y-13586958D01*
X17890000Y-13572500D01*
X17890000Y-13227500D01*
X17890710Y-13213042D01*
X17892834Y-13198724D01*
X17896351Y-13184683D01*
X17901228Y-13171054D01*
X17907417Y-13157969D01*
X17914858Y-13145553D01*
X17923481Y-13133927D01*
X17933202Y-13123202D01*
X17943927Y-13113481D01*
X17955553Y-13104858D01*
X17967969Y-13097417D01*
X17981054Y-13091228D01*
X17994683Y-13086351D01*
X18008724Y-13082834D01*
X18023042Y-13080710D01*
X18037500Y-13080000D01*
X18332500Y-13080000D01*
X18346958Y-13080710D01*
G37*
G04 #@! TD.AperFunction*
G04 #@! TA.AperFunction,SMDPad,CuDef*
G36*
X17376958Y-13080710D02*
G01*
X17391276Y-13082834D01*
X17405317Y-13086351D01*
X17418946Y-13091228D01*
X17432031Y-13097417D01*
X17444447Y-13104858D01*
X17456073Y-13113481D01*
X17466798Y-13123202D01*
X17476519Y-13133927D01*
X17485142Y-13145553D01*
X17492583Y-13157969D01*
X17498772Y-13171054D01*
X17503649Y-13184683D01*
X17507166Y-13198724D01*
X17509290Y-13213042D01*
X17510000Y-13227500D01*
X17510000Y-13572500D01*
X17509290Y-13586958D01*
X17507166Y-13601276D01*
X17503649Y-13615317D01*
X17498772Y-13628946D01*
X17492583Y-13642031D01*
X17485142Y-13654447D01*
X17476519Y-13666073D01*
X17466798Y-13676798D01*
X17456073Y-13686519D01*
X17444447Y-13695142D01*
X17432031Y-13702583D01*
X17418946Y-13708772D01*
X17405317Y-13713649D01*
X17391276Y-13717166D01*
X17376958Y-13719290D01*
X17362500Y-13720000D01*
X17067500Y-13720000D01*
X17053042Y-13719290D01*
X17038724Y-13717166D01*
X17024683Y-13713649D01*
X17011054Y-13708772D01*
X16997969Y-13702583D01*
X16985553Y-13695142D01*
X16973927Y-13686519D01*
X16963202Y-13676798D01*
X16953481Y-13666073D01*
X16944858Y-13654447D01*
X16937417Y-13642031D01*
X16931228Y-13628946D01*
X16926351Y-13615317D01*
X16922834Y-13601276D01*
X16920710Y-13586958D01*
X16920000Y-13572500D01*
X16920000Y-13227500D01*
X16920710Y-13213042D01*
X16922834Y-13198724D01*
X16926351Y-13184683D01*
X16931228Y-13171054D01*
X16937417Y-13157969D01*
X16944858Y-13145553D01*
X16953481Y-13133927D01*
X16963202Y-13123202D01*
X16973927Y-13113481D01*
X16985553Y-13104858D01*
X16997969Y-13097417D01*
X17011054Y-13091228D01*
X17024683Y-13086351D01*
X17038724Y-13082834D01*
X17053042Y-13080710D01*
X17067500Y-13080000D01*
X17362500Y-13080000D01*
X17376958Y-13080710D01*
G37*
G04 #@! TD.AperFunction*
D17*
X6650000Y-11700000D02*
X6500000Y-11550000D01*
X6650000Y-12850000D02*
X6650000Y-11700000D01*
X6500000Y-11550000D02*
X6500000Y-8300000D01*
X6500000Y-8300000D02*
X11200000Y-3600000D01*
X1550000Y-19100000D02*
X7950000Y-25500000D01*
X1550000Y-17950000D02*
X1550000Y-19100000D01*
X7950000Y-25500000D02*
X8400000Y-25500000D01*
X12498270Y-17850000D02*
X16848270Y-22200000D01*
X11548360Y-17850000D02*
X12498270Y-17850000D01*
D18*
X13600000Y-17125000D02*
X18100000Y-21625000D01*
X13600000Y-15300000D02*
X13600000Y-17125000D01*
X22400000Y-13400000D02*
X20150000Y-13400000D01*
X20150000Y-13400000D02*
X18950000Y-13400000D01*
X14150000Y-13400000D02*
X15850000Y-13400000D01*
X15300000Y-13400000D02*
X16550000Y-13400000D01*
X4150000Y-15300000D02*
X11800000Y-15300000D01*
D17*
X13600000Y-11813900D02*
X13598900Y-11815000D01*
X13600000Y-11185000D02*
X13600000Y-11813900D01*
X9851640Y-16951640D02*
X9750000Y-16850000D01*
X9851640Y-17850000D02*
X9851640Y-16951640D01*
X9850000Y-17851640D02*
X9851640Y-17850000D01*
X9850000Y-22000000D02*
X9850000Y-17851640D01*
D19*
G36*
X23038375Y-10010290D02*
G01*
X21650000Y-10010290D01*
X21520952Y-10023000D01*
X18784107Y-10023000D01*
X18287992Y-10071863D01*
X18016123Y-10154334D01*
X18041260Y-9899110D01*
X18041260Y-8900890D01*
X17990539Y-8385908D01*
X17840324Y-7890717D01*
X17596389Y-7434346D01*
X17268107Y-7034333D01*
X16868094Y-6706051D01*
X16411723Y-6462116D01*
X16347103Y-6442514D01*
X16216557Y-6283443D01*
X15816544Y-5955161D01*
X15360173Y-5711226D01*
X14864982Y-5561011D01*
X14350000Y-5510290D01*
X12350000Y-5510290D01*
X11835018Y-5561011D01*
X11339827Y-5711226D01*
X10883456Y-5955161D01*
X10483443Y-6283443D01*
X10155161Y-6683456D01*
X9911226Y-7139827D01*
X9761011Y-7635018D01*
X9710290Y-8150000D01*
X9710290Y-10150000D01*
X9761011Y-10664982D01*
X9911226Y-11160173D01*
X10155161Y-11616544D01*
X10406663Y-11923000D01*
X5515335Y-11923000D01*
X5190249Y-11788345D01*
X4484691Y-11648000D01*
X3765309Y-11648000D01*
X3059751Y-11788345D01*
X2395130Y-12063640D01*
X1796986Y-12463307D01*
X1288307Y-12971986D01*
X888640Y-13570130D01*
X613345Y-14234751D01*
X473000Y-14940309D01*
X473000Y-15659691D01*
X613345Y-16365249D01*
X888640Y-17029870D01*
X1288307Y-17628014D01*
X1796986Y-18136693D01*
X2395130Y-18536360D01*
X3059751Y-18811655D01*
X3765309Y-18952000D01*
X4484691Y-18952000D01*
X5190249Y-18811655D01*
X5515335Y-18677000D01*
X6694314Y-18677000D01*
X6712741Y-18864092D01*
X6845453Y-19301584D01*
X6655161Y-19533456D01*
X6411226Y-19989827D01*
X6261011Y-20485018D01*
X6210290Y-21000000D01*
X6210290Y-23000000D01*
X6261011Y-23514982D01*
X6411226Y-24010173D01*
X6655161Y-24466544D01*
X6983443Y-24866557D01*
X7383456Y-25194839D01*
X7839827Y-25438774D01*
X8335018Y-25588989D01*
X8850000Y-25639710D01*
X10850000Y-25639710D01*
X11364982Y-25588989D01*
X11860173Y-25438774D01*
X12316544Y-25194839D01*
X12716557Y-24866557D01*
X13044839Y-24466544D01*
X13288774Y-24010173D01*
X13438989Y-23514982D01*
X13489710Y-23000000D01*
X13489710Y-21000000D01*
X13438989Y-20485018D01*
X13288774Y-19989827D01*
X13044839Y-19533456D01*
X12856942Y-19304502D01*
X12990539Y-18864092D01*
X13030771Y-18455604D01*
X13098575Y-18435036D01*
X13685238Y-18121458D01*
X14199453Y-17699453D01*
X14621458Y-17185238D01*
X14628017Y-17172967D01*
X14694839Y-17091544D01*
X14862966Y-16777000D01*
X16715893Y-16777000D01*
X17212008Y-16728137D01*
X17750000Y-16564938D01*
X18287992Y-16728137D01*
X18784107Y-16777000D01*
X21520952Y-16777000D01*
X21650000Y-16789710D01*
X23015158Y-16789710D01*
X22973434Y-28973000D01*
X27437Y-28973000D01*
X126566Y-126456D01*
X23072563Y-27551D01*
X23038375Y-10010290D01*
G37*
X23038375Y-10010290D02*
X21650000Y-10010290D01*
X21520952Y-10023000D01*
X18784107Y-10023000D01*
X18287992Y-10071863D01*
X18016123Y-10154334D01*
X18041260Y-9899110D01*
X18041260Y-8900890D01*
X17990539Y-8385908D01*
X17840324Y-7890717D01*
X17596389Y-7434346D01*
X17268107Y-7034333D01*
X16868094Y-6706051D01*
X16411723Y-6462116D01*
X16347103Y-6442514D01*
X16216557Y-6283443D01*
X15816544Y-5955161D01*
X15360173Y-5711226D01*
X14864982Y-5561011D01*
X14350000Y-5510290D01*
X12350000Y-5510290D01*
X11835018Y-5561011D01*
X11339827Y-5711226D01*
X10883456Y-5955161D01*
X10483443Y-6283443D01*
X10155161Y-6683456D01*
X9911226Y-7139827D01*
X9761011Y-7635018D01*
X9710290Y-8150000D01*
X9710290Y-10150000D01*
X9761011Y-10664982D01*
X9911226Y-11160173D01*
X10155161Y-11616544D01*
X10406663Y-11923000D01*
X5515335Y-11923000D01*
X5190249Y-11788345D01*
X4484691Y-11648000D01*
X3765309Y-11648000D01*
X3059751Y-11788345D01*
X2395130Y-12063640D01*
X1796986Y-12463307D01*
X1288307Y-12971986D01*
X888640Y-13570130D01*
X613345Y-14234751D01*
X473000Y-14940309D01*
X473000Y-15659691D01*
X613345Y-16365249D01*
X888640Y-17029870D01*
X1288307Y-17628014D01*
X1796986Y-18136693D01*
X2395130Y-18536360D01*
X3059751Y-18811655D01*
X3765309Y-18952000D01*
X4484691Y-18952000D01*
X5190249Y-18811655D01*
X5515335Y-18677000D01*
X6694314Y-18677000D01*
X6712741Y-18864092D01*
X6845453Y-19301584D01*
X6655161Y-19533456D01*
X6411226Y-19989827D01*
X6261011Y-20485018D01*
X6210290Y-21000000D01*
X6210290Y-23000000D01*
X6261011Y-23514982D01*
X6411226Y-24010173D01*
X6655161Y-24466544D01*
X6983443Y-24866557D01*
X7383456Y-25194839D01*
X7839827Y-25438774D01*
X8335018Y-25588989D01*
X8850000Y-25639710D01*
X10850000Y-25639710D01*
X11364982Y-25588989D01*
X11860173Y-25438774D01*
X12316544Y-25194839D01*
X12716557Y-24866557D01*
X13044839Y-24466544D01*
X13288774Y-24010173D01*
X13438989Y-23514982D01*
X13489710Y-23000000D01*
X13489710Y-21000000D01*
X13438989Y-20485018D01*
X13288774Y-19989827D01*
X13044839Y-19533456D01*
X12856942Y-19304502D01*
X12990539Y-18864092D01*
X13030771Y-18455604D01*
X13098575Y-18435036D01*
X13685238Y-18121458D01*
X14199453Y-17699453D01*
X14621458Y-17185238D01*
X14628017Y-17172967D01*
X14694839Y-17091544D01*
X14862966Y-16777000D01*
X16715893Y-16777000D01*
X17212008Y-16728137D01*
X17750000Y-16564938D01*
X18287992Y-16728137D01*
X18784107Y-16777000D01*
X21520952Y-16777000D01*
X21650000Y-16789710D01*
X23015158Y-16789710D01*
X22973434Y-28973000D01*
X27437Y-28973000D01*
X126566Y-126456D01*
X23072563Y-27551D01*
X23038375Y-10010290D01*
G36*
X7273000Y-25273000D02*
G01*
X927000Y-25273000D01*
X927000Y-17927000D01*
X7273000Y-17927000D01*
X7273000Y-25273000D01*
G37*
X7273000Y-25273000D02*
X927000Y-25273000D01*
X927000Y-17927000D01*
X7273000Y-17927000D01*
X7273000Y-25273000D01*
G36*
X11329179Y-5910762D02*
G01*
X11623211Y-11007315D01*
X11627074Y-11031910D01*
X11635661Y-11055278D01*
X11650426Y-11078829D01*
X12575729Y-12247633D01*
X12664814Y-13673000D01*
X11450143Y-13673000D01*
X5397883Y-8011208D01*
X8733627Y-5533227D01*
X11329179Y-5910762D01*
G37*
X11329179Y-5910762D02*
X11623211Y-11007315D01*
X11627074Y-11031910D01*
X11635661Y-11055278D01*
X11650426Y-11078829D01*
X12575729Y-12247633D01*
X12664814Y-13673000D01*
X11450143Y-13673000D01*
X5397883Y-8011208D01*
X8733627Y-5533227D01*
X11329179Y-5910762D01*
G36*
X21473000Y-9673000D02*
G01*
X16127000Y-9673000D01*
X16127000Y-5424753D01*
X21473000Y-5329288D01*
X21473000Y-9673000D01*
G37*
X21473000Y-9673000D02*
X16127000Y-9673000D01*
X16127000Y-5424753D01*
X21473000Y-5329288D01*
X21473000Y-9673000D01*
G36*
X7174682Y-12773000D02*
G01*
X828705Y-12773000D01*
X925318Y-5527000D01*
X7271295Y-5527000D01*
X7174682Y-12773000D01*
G37*
X7174682Y-12773000D02*
X828705Y-12773000D01*
X925318Y-5527000D01*
X7271295Y-5527000D01*
X7174682Y-12773000D01*
G36*
X16105934Y-17346807D02*
G01*
X13027000Y-18705160D01*
X13027000Y-14727000D01*
X14234644Y-14727000D01*
X16105934Y-17346807D01*
G37*
X16105934Y-17346807D02*
X13027000Y-18705160D01*
X13027000Y-14727000D01*
X14234644Y-14727000D01*
X16105934Y-17346807D01*
M02*
