G04 #@! TF.GenerationSoftware,KiCad,Pcbnew,5.1.5+dfsg1-2~bpo9+1*
G04 #@! TF.CreationDate,2020-08-11T16:31:59-04:00*
G04 #@! TF.ProjectId,coplanar_amplifier,636f706c-616e-4617-925f-616d706c6966,rev?*
G04 #@! TF.SameCoordinates,PX3c45b00PY47b7600*
G04 #@! TF.FileFunction,Copper,L1,Top*
G04 #@! TF.FilePolarity,Positive*
%FSLAX46Y46*%
G04 Gerber Fmt 4.6, Leading zero omitted, Abs format (unit mm)*
G04 Created by KiCad (PCBNEW 5.1.5+dfsg1-2~bpo9+1) date 2020-08-11 16:31:59*
%MOMM*%
%LPD*%
G04 APERTURE LIST*
%ADD10C,0.020000*%
%ADD11R,1.000000X1.000000*%
%ADD12R,0.650000X1.000000*%
%ADD13R,1.000000X0.650000*%
%ADD14C,1.000000*%
%ADD15C,0.250000*%
%ADD16C,0.254000*%
G04 APERTURE END LIST*
G04 #@! TA.AperFunction,SMDPad,CuDef*
D10*
G36*
X11976958Y-1880710D02*
G01*
X11991276Y-1882834D01*
X12005317Y-1886351D01*
X12018946Y-1891228D01*
X12032031Y-1897417D01*
X12044447Y-1904858D01*
X12056073Y-1913481D01*
X12066798Y-1923202D01*
X12076519Y-1933927D01*
X12085142Y-1945553D01*
X12092583Y-1957969D01*
X12098772Y-1971054D01*
X12103649Y-1984683D01*
X12107166Y-1998724D01*
X12109290Y-2013042D01*
X12110000Y-2027500D01*
X12110000Y-2372500D01*
X12109290Y-2386958D01*
X12107166Y-2401276D01*
X12103649Y-2415317D01*
X12098772Y-2428946D01*
X12092583Y-2442031D01*
X12085142Y-2454447D01*
X12076519Y-2466073D01*
X12066798Y-2476798D01*
X12056073Y-2486519D01*
X12044447Y-2495142D01*
X12032031Y-2502583D01*
X12018946Y-2508772D01*
X12005317Y-2513649D01*
X11991276Y-2517166D01*
X11976958Y-2519290D01*
X11962500Y-2520000D01*
X11667500Y-2520000D01*
X11653042Y-2519290D01*
X11638724Y-2517166D01*
X11624683Y-2513649D01*
X11611054Y-2508772D01*
X11597969Y-2502583D01*
X11585553Y-2495142D01*
X11573927Y-2486519D01*
X11563202Y-2476798D01*
X11553481Y-2466073D01*
X11544858Y-2454447D01*
X11537417Y-2442031D01*
X11531228Y-2428946D01*
X11526351Y-2415317D01*
X11522834Y-2401276D01*
X11520710Y-2386958D01*
X11520000Y-2372500D01*
X11520000Y-2027500D01*
X11520710Y-2013042D01*
X11522834Y-1998724D01*
X11526351Y-1984683D01*
X11531228Y-1971054D01*
X11537417Y-1957969D01*
X11544858Y-1945553D01*
X11553481Y-1933927D01*
X11563202Y-1923202D01*
X11573927Y-1913481D01*
X11585553Y-1904858D01*
X11597969Y-1897417D01*
X11611054Y-1891228D01*
X11624683Y-1886351D01*
X11638724Y-1882834D01*
X11653042Y-1880710D01*
X11667500Y-1880000D01*
X11962500Y-1880000D01*
X11976958Y-1880710D01*
G37*
G04 #@! TD.AperFunction*
G04 #@! TA.AperFunction,SMDPad,CuDef*
G36*
X12946958Y-1880710D02*
G01*
X12961276Y-1882834D01*
X12975317Y-1886351D01*
X12988946Y-1891228D01*
X13002031Y-1897417D01*
X13014447Y-1904858D01*
X13026073Y-1913481D01*
X13036798Y-1923202D01*
X13046519Y-1933927D01*
X13055142Y-1945553D01*
X13062583Y-1957969D01*
X13068772Y-1971054D01*
X13073649Y-1984683D01*
X13077166Y-1998724D01*
X13079290Y-2013042D01*
X13080000Y-2027500D01*
X13080000Y-2372500D01*
X13079290Y-2386958D01*
X13077166Y-2401276D01*
X13073649Y-2415317D01*
X13068772Y-2428946D01*
X13062583Y-2442031D01*
X13055142Y-2454447D01*
X13046519Y-2466073D01*
X13036798Y-2476798D01*
X13026073Y-2486519D01*
X13014447Y-2495142D01*
X13002031Y-2502583D01*
X12988946Y-2508772D01*
X12975317Y-2513649D01*
X12961276Y-2517166D01*
X12946958Y-2519290D01*
X12932500Y-2520000D01*
X12637500Y-2520000D01*
X12623042Y-2519290D01*
X12608724Y-2517166D01*
X12594683Y-2513649D01*
X12581054Y-2508772D01*
X12567969Y-2502583D01*
X12555553Y-2495142D01*
X12543927Y-2486519D01*
X12533202Y-2476798D01*
X12523481Y-2466073D01*
X12514858Y-2454447D01*
X12507417Y-2442031D01*
X12501228Y-2428946D01*
X12496351Y-2415317D01*
X12492834Y-2401276D01*
X12490710Y-2386958D01*
X12490000Y-2372500D01*
X12490000Y-2027500D01*
X12490710Y-2013042D01*
X12492834Y-1998724D01*
X12496351Y-1984683D01*
X12501228Y-1971054D01*
X12507417Y-1957969D01*
X12514858Y-1945553D01*
X12523481Y-1933927D01*
X12533202Y-1923202D01*
X12543927Y-1913481D01*
X12555553Y-1904858D01*
X12567969Y-1897417D01*
X12581054Y-1891228D01*
X12594683Y-1886351D01*
X12608724Y-1882834D01*
X12623042Y-1880710D01*
X12637500Y-1880000D01*
X12932500Y-1880000D01*
X12946958Y-1880710D01*
G37*
G04 #@! TD.AperFunction*
G04 #@! TA.AperFunction,SMDPad,CuDef*
G36*
X5186958Y-4690710D02*
G01*
X5201276Y-4692834D01*
X5215317Y-4696351D01*
X5228946Y-4701228D01*
X5242031Y-4707417D01*
X5254447Y-4714858D01*
X5266073Y-4723481D01*
X5276798Y-4733202D01*
X5286519Y-4743927D01*
X5295142Y-4755553D01*
X5302583Y-4767969D01*
X5308772Y-4781054D01*
X5313649Y-4794683D01*
X5317166Y-4808724D01*
X5319290Y-4823042D01*
X5320000Y-4837500D01*
X5320000Y-5132500D01*
X5319290Y-5146958D01*
X5317166Y-5161276D01*
X5313649Y-5175317D01*
X5308772Y-5188946D01*
X5302583Y-5202031D01*
X5295142Y-5214447D01*
X5286519Y-5226073D01*
X5276798Y-5236798D01*
X5266073Y-5246519D01*
X5254447Y-5255142D01*
X5242031Y-5262583D01*
X5228946Y-5268772D01*
X5215317Y-5273649D01*
X5201276Y-5277166D01*
X5186958Y-5279290D01*
X5172500Y-5280000D01*
X4827500Y-5280000D01*
X4813042Y-5279290D01*
X4798724Y-5277166D01*
X4784683Y-5273649D01*
X4771054Y-5268772D01*
X4757969Y-5262583D01*
X4745553Y-5255142D01*
X4733927Y-5246519D01*
X4723202Y-5236798D01*
X4713481Y-5226073D01*
X4704858Y-5214447D01*
X4697417Y-5202031D01*
X4691228Y-5188946D01*
X4686351Y-5175317D01*
X4682834Y-5161276D01*
X4680710Y-5146958D01*
X4680000Y-5132500D01*
X4680000Y-4837500D01*
X4680710Y-4823042D01*
X4682834Y-4808724D01*
X4686351Y-4794683D01*
X4691228Y-4781054D01*
X4697417Y-4767969D01*
X4704858Y-4755553D01*
X4713481Y-4743927D01*
X4723202Y-4733202D01*
X4733927Y-4723481D01*
X4745553Y-4714858D01*
X4757969Y-4707417D01*
X4771054Y-4701228D01*
X4784683Y-4696351D01*
X4798724Y-4692834D01*
X4813042Y-4690710D01*
X4827500Y-4690000D01*
X5172500Y-4690000D01*
X5186958Y-4690710D01*
G37*
G04 #@! TD.AperFunction*
G04 #@! TA.AperFunction,SMDPad,CuDef*
G36*
X5186958Y-3720710D02*
G01*
X5201276Y-3722834D01*
X5215317Y-3726351D01*
X5228946Y-3731228D01*
X5242031Y-3737417D01*
X5254447Y-3744858D01*
X5266073Y-3753481D01*
X5276798Y-3763202D01*
X5286519Y-3773927D01*
X5295142Y-3785553D01*
X5302583Y-3797969D01*
X5308772Y-3811054D01*
X5313649Y-3824683D01*
X5317166Y-3838724D01*
X5319290Y-3853042D01*
X5320000Y-3867500D01*
X5320000Y-4162500D01*
X5319290Y-4176958D01*
X5317166Y-4191276D01*
X5313649Y-4205317D01*
X5308772Y-4218946D01*
X5302583Y-4232031D01*
X5295142Y-4244447D01*
X5286519Y-4256073D01*
X5276798Y-4266798D01*
X5266073Y-4276519D01*
X5254447Y-4285142D01*
X5242031Y-4292583D01*
X5228946Y-4298772D01*
X5215317Y-4303649D01*
X5201276Y-4307166D01*
X5186958Y-4309290D01*
X5172500Y-4310000D01*
X4827500Y-4310000D01*
X4813042Y-4309290D01*
X4798724Y-4307166D01*
X4784683Y-4303649D01*
X4771054Y-4298772D01*
X4757969Y-4292583D01*
X4745553Y-4285142D01*
X4733927Y-4276519D01*
X4723202Y-4266798D01*
X4713481Y-4256073D01*
X4704858Y-4244447D01*
X4697417Y-4232031D01*
X4691228Y-4218946D01*
X4686351Y-4205317D01*
X4682834Y-4191276D01*
X4680710Y-4176958D01*
X4680000Y-4162500D01*
X4680000Y-3867500D01*
X4680710Y-3853042D01*
X4682834Y-3838724D01*
X4686351Y-3824683D01*
X4691228Y-3811054D01*
X4697417Y-3797969D01*
X4704858Y-3785553D01*
X4713481Y-3773927D01*
X4723202Y-3763202D01*
X4733927Y-3753481D01*
X4745553Y-3744858D01*
X4757969Y-3737417D01*
X4771054Y-3731228D01*
X4784683Y-3726351D01*
X4798724Y-3722834D01*
X4813042Y-3720710D01*
X4827500Y-3720000D01*
X5172500Y-3720000D01*
X5186958Y-3720710D01*
G37*
G04 #@! TD.AperFunction*
D11*
X11200000Y-2300000D03*
G04 #@! TA.AperFunction,SMDPad,CuDef*
D10*
G36*
X10746958Y-1880710D02*
G01*
X10761276Y-1882834D01*
X10775317Y-1886351D01*
X10788946Y-1891228D01*
X10802031Y-1897417D01*
X10814447Y-1904858D01*
X10826073Y-1913481D01*
X10836798Y-1923202D01*
X10846519Y-1933927D01*
X10855142Y-1945553D01*
X10862583Y-1957969D01*
X10868772Y-1971054D01*
X10873649Y-1984683D01*
X10877166Y-1998724D01*
X10879290Y-2013042D01*
X10880000Y-2027500D01*
X10880000Y-2372500D01*
X10879290Y-2386958D01*
X10877166Y-2401276D01*
X10873649Y-2415317D01*
X10868772Y-2428946D01*
X10862583Y-2442031D01*
X10855142Y-2454447D01*
X10846519Y-2466073D01*
X10836798Y-2476798D01*
X10826073Y-2486519D01*
X10814447Y-2495142D01*
X10802031Y-2502583D01*
X10788946Y-2508772D01*
X10775317Y-2513649D01*
X10761276Y-2517166D01*
X10746958Y-2519290D01*
X10732500Y-2520000D01*
X10437500Y-2520000D01*
X10423042Y-2519290D01*
X10408724Y-2517166D01*
X10394683Y-2513649D01*
X10381054Y-2508772D01*
X10367969Y-2502583D01*
X10355553Y-2495142D01*
X10343927Y-2486519D01*
X10333202Y-2476798D01*
X10323481Y-2466073D01*
X10314858Y-2454447D01*
X10307417Y-2442031D01*
X10301228Y-2428946D01*
X10296351Y-2415317D01*
X10292834Y-2401276D01*
X10290710Y-2386958D01*
X10290000Y-2372500D01*
X10290000Y-2027500D01*
X10290710Y-2013042D01*
X10292834Y-1998724D01*
X10296351Y-1984683D01*
X10301228Y-1971054D01*
X10307417Y-1957969D01*
X10314858Y-1945553D01*
X10323481Y-1933927D01*
X10333202Y-1923202D01*
X10343927Y-1913481D01*
X10355553Y-1904858D01*
X10367969Y-1897417D01*
X10381054Y-1891228D01*
X10394683Y-1886351D01*
X10408724Y-1882834D01*
X10423042Y-1880710D01*
X10437500Y-1880000D01*
X10732500Y-1880000D01*
X10746958Y-1880710D01*
G37*
G04 #@! TD.AperFunction*
G04 #@! TA.AperFunction,SMDPad,CuDef*
G36*
X9776958Y-1880710D02*
G01*
X9791276Y-1882834D01*
X9805317Y-1886351D01*
X9818946Y-1891228D01*
X9832031Y-1897417D01*
X9844447Y-1904858D01*
X9856073Y-1913481D01*
X9866798Y-1923202D01*
X9876519Y-1933927D01*
X9885142Y-1945553D01*
X9892583Y-1957969D01*
X9898772Y-1971054D01*
X9903649Y-1984683D01*
X9907166Y-1998724D01*
X9909290Y-2013042D01*
X9910000Y-2027500D01*
X9910000Y-2372500D01*
X9909290Y-2386958D01*
X9907166Y-2401276D01*
X9903649Y-2415317D01*
X9898772Y-2428946D01*
X9892583Y-2442031D01*
X9885142Y-2454447D01*
X9876519Y-2466073D01*
X9866798Y-2476798D01*
X9856073Y-2486519D01*
X9844447Y-2495142D01*
X9832031Y-2502583D01*
X9818946Y-2508772D01*
X9805317Y-2513649D01*
X9791276Y-2517166D01*
X9776958Y-2519290D01*
X9762500Y-2520000D01*
X9467500Y-2520000D01*
X9453042Y-2519290D01*
X9438724Y-2517166D01*
X9424683Y-2513649D01*
X9411054Y-2508772D01*
X9397969Y-2502583D01*
X9385553Y-2495142D01*
X9373927Y-2486519D01*
X9363202Y-2476798D01*
X9353481Y-2466073D01*
X9344858Y-2454447D01*
X9337417Y-2442031D01*
X9331228Y-2428946D01*
X9326351Y-2415317D01*
X9322834Y-2401276D01*
X9320710Y-2386958D01*
X9320000Y-2372500D01*
X9320000Y-2027500D01*
X9320710Y-2013042D01*
X9322834Y-1998724D01*
X9326351Y-1984683D01*
X9331228Y-1971054D01*
X9337417Y-1957969D01*
X9344858Y-1945553D01*
X9353481Y-1933927D01*
X9363202Y-1923202D01*
X9373927Y-1913481D01*
X9385553Y-1904858D01*
X9397969Y-1897417D01*
X9411054Y-1891228D01*
X9424683Y-1886351D01*
X9438724Y-1882834D01*
X9453042Y-1880710D01*
X9467500Y-1880000D01*
X9762500Y-1880000D01*
X9776958Y-1880710D01*
G37*
G04 #@! TD.AperFunction*
G04 #@! TA.AperFunction,SMDPad,CuDef*
G36*
X4346958Y-3480710D02*
G01*
X4361276Y-3482834D01*
X4375317Y-3486351D01*
X4388946Y-3491228D01*
X4402031Y-3497417D01*
X4414447Y-3504858D01*
X4426073Y-3513481D01*
X4436798Y-3523202D01*
X4446519Y-3533927D01*
X4455142Y-3545553D01*
X4462583Y-3557969D01*
X4468772Y-3571054D01*
X4473649Y-3584683D01*
X4477166Y-3598724D01*
X4479290Y-3613042D01*
X4480000Y-3627500D01*
X4480000Y-3972500D01*
X4479290Y-3986958D01*
X4477166Y-4001276D01*
X4473649Y-4015317D01*
X4468772Y-4028946D01*
X4462583Y-4042031D01*
X4455142Y-4054447D01*
X4446519Y-4066073D01*
X4436798Y-4076798D01*
X4426073Y-4086519D01*
X4414447Y-4095142D01*
X4402031Y-4102583D01*
X4388946Y-4108772D01*
X4375317Y-4113649D01*
X4361276Y-4117166D01*
X4346958Y-4119290D01*
X4332500Y-4120000D01*
X4037500Y-4120000D01*
X4023042Y-4119290D01*
X4008724Y-4117166D01*
X3994683Y-4113649D01*
X3981054Y-4108772D01*
X3967969Y-4102583D01*
X3955553Y-4095142D01*
X3943927Y-4086519D01*
X3933202Y-4076798D01*
X3923481Y-4066073D01*
X3914858Y-4054447D01*
X3907417Y-4042031D01*
X3901228Y-4028946D01*
X3896351Y-4015317D01*
X3892834Y-4001276D01*
X3890710Y-3986958D01*
X3890000Y-3972500D01*
X3890000Y-3627500D01*
X3890710Y-3613042D01*
X3892834Y-3598724D01*
X3896351Y-3584683D01*
X3901228Y-3571054D01*
X3907417Y-3557969D01*
X3914858Y-3545553D01*
X3923481Y-3533927D01*
X3933202Y-3523202D01*
X3943927Y-3513481D01*
X3955553Y-3504858D01*
X3967969Y-3497417D01*
X3981054Y-3491228D01*
X3994683Y-3486351D01*
X4008724Y-3482834D01*
X4023042Y-3480710D01*
X4037500Y-3480000D01*
X4332500Y-3480000D01*
X4346958Y-3480710D01*
G37*
G04 #@! TD.AperFunction*
G04 #@! TA.AperFunction,SMDPad,CuDef*
G36*
X3376958Y-3480710D02*
G01*
X3391276Y-3482834D01*
X3405317Y-3486351D01*
X3418946Y-3491228D01*
X3432031Y-3497417D01*
X3444447Y-3504858D01*
X3456073Y-3513481D01*
X3466798Y-3523202D01*
X3476519Y-3533927D01*
X3485142Y-3545553D01*
X3492583Y-3557969D01*
X3498772Y-3571054D01*
X3503649Y-3584683D01*
X3507166Y-3598724D01*
X3509290Y-3613042D01*
X3510000Y-3627500D01*
X3510000Y-3972500D01*
X3509290Y-3986958D01*
X3507166Y-4001276D01*
X3503649Y-4015317D01*
X3498772Y-4028946D01*
X3492583Y-4042031D01*
X3485142Y-4054447D01*
X3476519Y-4066073D01*
X3466798Y-4076798D01*
X3456073Y-4086519D01*
X3444447Y-4095142D01*
X3432031Y-4102583D01*
X3418946Y-4108772D01*
X3405317Y-4113649D01*
X3391276Y-4117166D01*
X3376958Y-4119290D01*
X3362500Y-4120000D01*
X3067500Y-4120000D01*
X3053042Y-4119290D01*
X3038724Y-4117166D01*
X3024683Y-4113649D01*
X3011054Y-4108772D01*
X2997969Y-4102583D01*
X2985553Y-4095142D01*
X2973927Y-4086519D01*
X2963202Y-4076798D01*
X2953481Y-4066073D01*
X2944858Y-4054447D01*
X2937417Y-4042031D01*
X2931228Y-4028946D01*
X2926351Y-4015317D01*
X2922834Y-4001276D01*
X2920710Y-3986958D01*
X2920000Y-3972500D01*
X2920000Y-3627500D01*
X2920710Y-3613042D01*
X2922834Y-3598724D01*
X2926351Y-3584683D01*
X2931228Y-3571054D01*
X2937417Y-3557969D01*
X2944858Y-3545553D01*
X2953481Y-3533927D01*
X2963202Y-3523202D01*
X2973927Y-3513481D01*
X2985553Y-3504858D01*
X2997969Y-3497417D01*
X3011054Y-3491228D01*
X3024683Y-3486351D01*
X3038724Y-3482834D01*
X3053042Y-3480710D01*
X3067500Y-3480000D01*
X3362500Y-3480000D01*
X3376958Y-3480710D01*
G37*
G04 #@! TD.AperFunction*
D11*
X500000Y-3800000D03*
X14600000Y-3800000D03*
D12*
X7100000Y-2450000D03*
D13*
X5750000Y-3800000D03*
D12*
X7100000Y-5150000D03*
D13*
X8450000Y-3800000D03*
G04 #@! TA.AperFunction,SMDPad,CuDef*
D10*
G36*
X11386958Y-3290710D02*
G01*
X11401276Y-3292834D01*
X11415317Y-3296351D01*
X11428946Y-3301228D01*
X11442031Y-3307417D01*
X11454447Y-3314858D01*
X11466073Y-3323481D01*
X11476798Y-3333202D01*
X11486519Y-3343927D01*
X11495142Y-3355553D01*
X11502583Y-3367969D01*
X11508772Y-3381054D01*
X11513649Y-3394683D01*
X11517166Y-3408724D01*
X11519290Y-3423042D01*
X11520000Y-3437500D01*
X11520000Y-3732500D01*
X11519290Y-3746958D01*
X11517166Y-3761276D01*
X11513649Y-3775317D01*
X11508772Y-3788946D01*
X11502583Y-3802031D01*
X11495142Y-3814447D01*
X11486519Y-3826073D01*
X11476798Y-3836798D01*
X11466073Y-3846519D01*
X11454447Y-3855142D01*
X11442031Y-3862583D01*
X11428946Y-3868772D01*
X11415317Y-3873649D01*
X11401276Y-3877166D01*
X11386958Y-3879290D01*
X11372500Y-3880000D01*
X11027500Y-3880000D01*
X11013042Y-3879290D01*
X10998724Y-3877166D01*
X10984683Y-3873649D01*
X10971054Y-3868772D01*
X10957969Y-3862583D01*
X10945553Y-3855142D01*
X10933927Y-3846519D01*
X10923202Y-3836798D01*
X10913481Y-3826073D01*
X10904858Y-3814447D01*
X10897417Y-3802031D01*
X10891228Y-3788946D01*
X10886351Y-3775317D01*
X10882834Y-3761276D01*
X10880710Y-3746958D01*
X10880000Y-3732500D01*
X10880000Y-3437500D01*
X10880710Y-3423042D01*
X10882834Y-3408724D01*
X10886351Y-3394683D01*
X10891228Y-3381054D01*
X10897417Y-3367969D01*
X10904858Y-3355553D01*
X10913481Y-3343927D01*
X10923202Y-3333202D01*
X10933927Y-3323481D01*
X10945553Y-3314858D01*
X10957969Y-3307417D01*
X10971054Y-3301228D01*
X10984683Y-3296351D01*
X10998724Y-3292834D01*
X11013042Y-3290710D01*
X11027500Y-3290000D01*
X11372500Y-3290000D01*
X11386958Y-3290710D01*
G37*
G04 #@! TD.AperFunction*
G04 #@! TA.AperFunction,SMDPad,CuDef*
G36*
X11386958Y-2320710D02*
G01*
X11401276Y-2322834D01*
X11415317Y-2326351D01*
X11428946Y-2331228D01*
X11442031Y-2337417D01*
X11454447Y-2344858D01*
X11466073Y-2353481D01*
X11476798Y-2363202D01*
X11486519Y-2373927D01*
X11495142Y-2385553D01*
X11502583Y-2397969D01*
X11508772Y-2411054D01*
X11513649Y-2424683D01*
X11517166Y-2438724D01*
X11519290Y-2453042D01*
X11520000Y-2467500D01*
X11520000Y-2762500D01*
X11519290Y-2776958D01*
X11517166Y-2791276D01*
X11513649Y-2805317D01*
X11508772Y-2818946D01*
X11502583Y-2832031D01*
X11495142Y-2844447D01*
X11486519Y-2856073D01*
X11476798Y-2866798D01*
X11466073Y-2876519D01*
X11454447Y-2885142D01*
X11442031Y-2892583D01*
X11428946Y-2898772D01*
X11415317Y-2903649D01*
X11401276Y-2907166D01*
X11386958Y-2909290D01*
X11372500Y-2910000D01*
X11027500Y-2910000D01*
X11013042Y-2909290D01*
X10998724Y-2907166D01*
X10984683Y-2903649D01*
X10971054Y-2898772D01*
X10957969Y-2892583D01*
X10945553Y-2885142D01*
X10933927Y-2876519D01*
X10923202Y-2866798D01*
X10913481Y-2856073D01*
X10904858Y-2844447D01*
X10897417Y-2832031D01*
X10891228Y-2818946D01*
X10886351Y-2805317D01*
X10882834Y-2791276D01*
X10880710Y-2776958D01*
X10880000Y-2762500D01*
X10880000Y-2467500D01*
X10880710Y-2453042D01*
X10882834Y-2438724D01*
X10886351Y-2424683D01*
X10891228Y-2411054D01*
X10897417Y-2397969D01*
X10904858Y-2385553D01*
X10913481Y-2373927D01*
X10923202Y-2363202D01*
X10933927Y-2353481D01*
X10945553Y-2344858D01*
X10957969Y-2337417D01*
X10971054Y-2331228D01*
X10984683Y-2326351D01*
X10998724Y-2322834D01*
X11013042Y-2320710D01*
X11027500Y-2320000D01*
X11372500Y-2320000D01*
X11386958Y-2320710D01*
G37*
G04 #@! TD.AperFunction*
G04 #@! TA.AperFunction,SMDPad,CuDef*
G36*
X10546958Y-3480710D02*
G01*
X10561276Y-3482834D01*
X10575317Y-3486351D01*
X10588946Y-3491228D01*
X10602031Y-3497417D01*
X10614447Y-3504858D01*
X10626073Y-3513481D01*
X10636798Y-3523202D01*
X10646519Y-3533927D01*
X10655142Y-3545553D01*
X10662583Y-3557969D01*
X10668772Y-3571054D01*
X10673649Y-3584683D01*
X10677166Y-3598724D01*
X10679290Y-3613042D01*
X10680000Y-3627500D01*
X10680000Y-3972500D01*
X10679290Y-3986958D01*
X10677166Y-4001276D01*
X10673649Y-4015317D01*
X10668772Y-4028946D01*
X10662583Y-4042031D01*
X10655142Y-4054447D01*
X10646519Y-4066073D01*
X10636798Y-4076798D01*
X10626073Y-4086519D01*
X10614447Y-4095142D01*
X10602031Y-4102583D01*
X10588946Y-4108772D01*
X10575317Y-4113649D01*
X10561276Y-4117166D01*
X10546958Y-4119290D01*
X10532500Y-4120000D01*
X10237500Y-4120000D01*
X10223042Y-4119290D01*
X10208724Y-4117166D01*
X10194683Y-4113649D01*
X10181054Y-4108772D01*
X10167969Y-4102583D01*
X10155553Y-4095142D01*
X10143927Y-4086519D01*
X10133202Y-4076798D01*
X10123481Y-4066073D01*
X10114858Y-4054447D01*
X10107417Y-4042031D01*
X10101228Y-4028946D01*
X10096351Y-4015317D01*
X10092834Y-4001276D01*
X10090710Y-3986958D01*
X10090000Y-3972500D01*
X10090000Y-3627500D01*
X10090710Y-3613042D01*
X10092834Y-3598724D01*
X10096351Y-3584683D01*
X10101228Y-3571054D01*
X10107417Y-3557969D01*
X10114858Y-3545553D01*
X10123481Y-3533927D01*
X10133202Y-3523202D01*
X10143927Y-3513481D01*
X10155553Y-3504858D01*
X10167969Y-3497417D01*
X10181054Y-3491228D01*
X10194683Y-3486351D01*
X10208724Y-3482834D01*
X10223042Y-3480710D01*
X10237500Y-3480000D01*
X10532500Y-3480000D01*
X10546958Y-3480710D01*
G37*
G04 #@! TD.AperFunction*
G04 #@! TA.AperFunction,SMDPad,CuDef*
G36*
X9576958Y-3480710D02*
G01*
X9591276Y-3482834D01*
X9605317Y-3486351D01*
X9618946Y-3491228D01*
X9632031Y-3497417D01*
X9644447Y-3504858D01*
X9656073Y-3513481D01*
X9666798Y-3523202D01*
X9676519Y-3533927D01*
X9685142Y-3545553D01*
X9692583Y-3557969D01*
X9698772Y-3571054D01*
X9703649Y-3584683D01*
X9707166Y-3598724D01*
X9709290Y-3613042D01*
X9710000Y-3627500D01*
X9710000Y-3972500D01*
X9709290Y-3986958D01*
X9707166Y-4001276D01*
X9703649Y-4015317D01*
X9698772Y-4028946D01*
X9692583Y-4042031D01*
X9685142Y-4054447D01*
X9676519Y-4066073D01*
X9666798Y-4076798D01*
X9656073Y-4086519D01*
X9644447Y-4095142D01*
X9632031Y-4102583D01*
X9618946Y-4108772D01*
X9605317Y-4113649D01*
X9591276Y-4117166D01*
X9576958Y-4119290D01*
X9562500Y-4120000D01*
X9267500Y-4120000D01*
X9253042Y-4119290D01*
X9238724Y-4117166D01*
X9224683Y-4113649D01*
X9211054Y-4108772D01*
X9197969Y-4102583D01*
X9185553Y-4095142D01*
X9173927Y-4086519D01*
X9163202Y-4076798D01*
X9153481Y-4066073D01*
X9144858Y-4054447D01*
X9137417Y-4042031D01*
X9131228Y-4028946D01*
X9126351Y-4015317D01*
X9122834Y-4001276D01*
X9120710Y-3986958D01*
X9120000Y-3972500D01*
X9120000Y-3627500D01*
X9120710Y-3613042D01*
X9122834Y-3598724D01*
X9126351Y-3584683D01*
X9131228Y-3571054D01*
X9137417Y-3557969D01*
X9144858Y-3545553D01*
X9153481Y-3533927D01*
X9163202Y-3523202D01*
X9173927Y-3513481D01*
X9185553Y-3504858D01*
X9197969Y-3497417D01*
X9211054Y-3491228D01*
X9224683Y-3486351D01*
X9238724Y-3482834D01*
X9253042Y-3480710D01*
X9267500Y-3480000D01*
X9562500Y-3480000D01*
X9576958Y-3480710D01*
G37*
G04 #@! TD.AperFunction*
D14*
X500000Y-3800000D02*
X2900000Y-3800000D01*
X14700000Y-3800000D02*
X11920010Y-3800000D01*
X11920010Y-3800000D02*
X10490000Y-3800000D01*
X8450000Y-3800000D02*
X9289990Y-3800000D01*
D15*
X4300000Y-3815000D02*
X4285000Y-3800000D01*
D14*
X4310010Y-3789990D02*
X4310010Y-3800000D01*
X5215000Y-3800000D02*
X5750000Y-3800000D01*
X4300000Y-3800000D02*
X5865000Y-3800000D01*
D16*
G36*
X15173000Y-2980431D02*
G01*
X15164103Y-2977732D01*
X15100000Y-2971418D01*
X14100000Y-2971418D01*
X14083939Y-2973000D01*
X11978311Y-2973000D01*
X12003570Y-2925743D01*
X12022268Y-2864103D01*
X12024397Y-2842486D01*
X12055379Y-2839434D01*
X12144689Y-2812342D01*
X12226997Y-2768348D01*
X12299141Y-2709141D01*
X12358348Y-2636997D01*
X12402342Y-2554689D01*
X12429434Y-2465379D01*
X12438582Y-2372500D01*
X12438582Y-2027500D01*
X12429434Y-1934621D01*
X12402342Y-1845311D01*
X12358348Y-1763003D01*
X12299141Y-1690859D01*
X12226997Y-1631652D01*
X12144689Y-1587658D01*
X12055379Y-1560566D01*
X11962500Y-1551418D01*
X11912555Y-1551418D01*
X11882550Y-1526794D01*
X11825743Y-1496430D01*
X11764103Y-1477732D01*
X11700000Y-1471418D01*
X10700000Y-1471418D01*
X10635897Y-1477732D01*
X10574257Y-1496430D01*
X10517450Y-1526794D01*
X10487445Y-1551418D01*
X10437500Y-1551418D01*
X10344621Y-1560566D01*
X10255311Y-1587658D01*
X10173003Y-1631652D01*
X10100859Y-1690859D01*
X10041652Y-1763003D01*
X9997658Y-1845311D01*
X9970566Y-1934621D01*
X9961418Y-2027500D01*
X9961418Y-2372500D01*
X9970566Y-2465379D01*
X9997658Y-2554689D01*
X10041652Y-2636997D01*
X10100859Y-2709141D01*
X10173003Y-2768348D01*
X10255311Y-2812342D01*
X10344621Y-2839434D01*
X10375603Y-2842486D01*
X10377732Y-2864103D01*
X10396430Y-2925743D01*
X10423074Y-2975590D01*
X10327880Y-2984966D01*
X10171990Y-3032255D01*
X10028321Y-3109048D01*
X9902394Y-3212394D01*
X9889995Y-3227502D01*
X9877596Y-3212394D01*
X9751669Y-3109048D01*
X9608000Y-3032255D01*
X9452110Y-2984966D01*
X9330614Y-2973000D01*
X8409376Y-2973000D01*
X8287880Y-2984966D01*
X8131990Y-3032255D01*
X7988321Y-3109048D01*
X7941802Y-3147226D01*
X7885897Y-3152732D01*
X7824257Y-3171430D01*
X7767450Y-3201794D01*
X7717657Y-3242657D01*
X7676794Y-3292450D01*
X7646430Y-3349257D01*
X7627732Y-3410897D01*
X7621418Y-3475000D01*
X7621418Y-3775439D01*
X7618999Y-3800000D01*
X7621418Y-3824561D01*
X7621418Y-4125000D01*
X7627732Y-4189103D01*
X7646430Y-4250743D01*
X7676794Y-4307550D01*
X7717657Y-4357343D01*
X7767450Y-4398206D01*
X7824257Y-4428570D01*
X7885897Y-4447268D01*
X7941802Y-4452774D01*
X7988321Y-4490952D01*
X8131990Y-4567745D01*
X8287880Y-4615034D01*
X8409376Y-4627000D01*
X9330614Y-4627000D01*
X9452110Y-4615034D01*
X9608000Y-4567745D01*
X9751669Y-4490952D01*
X9877596Y-4387606D01*
X9889995Y-4372498D01*
X9902394Y-4387606D01*
X10028321Y-4490952D01*
X10171990Y-4567745D01*
X10327880Y-4615034D01*
X10449376Y-4627000D01*
X14083939Y-4627000D01*
X14100000Y-4628582D01*
X15100000Y-4628582D01*
X15164103Y-4622268D01*
X15173000Y-4619569D01*
X15173000Y-7873000D01*
X127000Y-7873000D01*
X127000Y-4628582D01*
X1000000Y-4628582D01*
X1016061Y-4627000D01*
X2940624Y-4627000D01*
X3062120Y-4615034D01*
X3218010Y-4567745D01*
X3361679Y-4490952D01*
X3420236Y-4442895D01*
X3455379Y-4439434D01*
X3544689Y-4412342D01*
X3626997Y-4368348D01*
X3668582Y-4334221D01*
X3712394Y-4387606D01*
X3838321Y-4490952D01*
X3981990Y-4567745D01*
X4137880Y-4615034D01*
X4259376Y-4627000D01*
X4269386Y-4627000D01*
X4310010Y-4631001D01*
X4350634Y-4627000D01*
X4726597Y-4627000D01*
X4734621Y-4629434D01*
X4827500Y-4638582D01*
X5172500Y-4638582D01*
X5265379Y-4629434D01*
X5273403Y-4627000D01*
X5905624Y-4627000D01*
X6027120Y-4615034D01*
X6183010Y-4567745D01*
X6326679Y-4490952D01*
X6452606Y-4387606D01*
X6467333Y-4369661D01*
X6482343Y-4357343D01*
X6523206Y-4307550D01*
X6532357Y-4290429D01*
X6555952Y-4261679D01*
X6632745Y-4118010D01*
X6680034Y-3962120D01*
X6696001Y-3800000D01*
X6680034Y-3637880D01*
X6632745Y-3481990D01*
X6555952Y-3338321D01*
X6532357Y-3309571D01*
X6523206Y-3292450D01*
X6482343Y-3242657D01*
X6467333Y-3230339D01*
X6452606Y-3212394D01*
X6326679Y-3109048D01*
X6183010Y-3032255D01*
X6027120Y-2984966D01*
X5905624Y-2973000D01*
X4452269Y-2973000D01*
X4310010Y-2958989D01*
X4147890Y-2974956D01*
X3992000Y-3022245D01*
X3848331Y-3099038D01*
X3722404Y-3202384D01*
X3717892Y-3207882D01*
X3712394Y-3212394D01*
X3668582Y-3265779D01*
X3626997Y-3231652D01*
X3544689Y-3187658D01*
X3455379Y-3160566D01*
X3420236Y-3157105D01*
X3361679Y-3109048D01*
X3218010Y-3032255D01*
X3062120Y-2984966D01*
X2940624Y-2973000D01*
X1016061Y-2973000D01*
X1000000Y-2971418D01*
X127000Y-2971418D01*
X127000Y-127000D01*
X15173000Y-127000D01*
X15173000Y-2980431D01*
G37*
X15173000Y-2980431D02*
X15164103Y-2977732D01*
X15100000Y-2971418D01*
X14100000Y-2971418D01*
X14083939Y-2973000D01*
X11978311Y-2973000D01*
X12003570Y-2925743D01*
X12022268Y-2864103D01*
X12024397Y-2842486D01*
X12055379Y-2839434D01*
X12144689Y-2812342D01*
X12226997Y-2768348D01*
X12299141Y-2709141D01*
X12358348Y-2636997D01*
X12402342Y-2554689D01*
X12429434Y-2465379D01*
X12438582Y-2372500D01*
X12438582Y-2027500D01*
X12429434Y-1934621D01*
X12402342Y-1845311D01*
X12358348Y-1763003D01*
X12299141Y-1690859D01*
X12226997Y-1631652D01*
X12144689Y-1587658D01*
X12055379Y-1560566D01*
X11962500Y-1551418D01*
X11912555Y-1551418D01*
X11882550Y-1526794D01*
X11825743Y-1496430D01*
X11764103Y-1477732D01*
X11700000Y-1471418D01*
X10700000Y-1471418D01*
X10635897Y-1477732D01*
X10574257Y-1496430D01*
X10517450Y-1526794D01*
X10487445Y-1551418D01*
X10437500Y-1551418D01*
X10344621Y-1560566D01*
X10255311Y-1587658D01*
X10173003Y-1631652D01*
X10100859Y-1690859D01*
X10041652Y-1763003D01*
X9997658Y-1845311D01*
X9970566Y-1934621D01*
X9961418Y-2027500D01*
X9961418Y-2372500D01*
X9970566Y-2465379D01*
X9997658Y-2554689D01*
X10041652Y-2636997D01*
X10100859Y-2709141D01*
X10173003Y-2768348D01*
X10255311Y-2812342D01*
X10344621Y-2839434D01*
X10375603Y-2842486D01*
X10377732Y-2864103D01*
X10396430Y-2925743D01*
X10423074Y-2975590D01*
X10327880Y-2984966D01*
X10171990Y-3032255D01*
X10028321Y-3109048D01*
X9902394Y-3212394D01*
X9889995Y-3227502D01*
X9877596Y-3212394D01*
X9751669Y-3109048D01*
X9608000Y-3032255D01*
X9452110Y-2984966D01*
X9330614Y-2973000D01*
X8409376Y-2973000D01*
X8287880Y-2984966D01*
X8131990Y-3032255D01*
X7988321Y-3109048D01*
X7941802Y-3147226D01*
X7885897Y-3152732D01*
X7824257Y-3171430D01*
X7767450Y-3201794D01*
X7717657Y-3242657D01*
X7676794Y-3292450D01*
X7646430Y-3349257D01*
X7627732Y-3410897D01*
X7621418Y-3475000D01*
X7621418Y-3775439D01*
X7618999Y-3800000D01*
X7621418Y-3824561D01*
X7621418Y-4125000D01*
X7627732Y-4189103D01*
X7646430Y-4250743D01*
X7676794Y-4307550D01*
X7717657Y-4357343D01*
X7767450Y-4398206D01*
X7824257Y-4428570D01*
X7885897Y-4447268D01*
X7941802Y-4452774D01*
X7988321Y-4490952D01*
X8131990Y-4567745D01*
X8287880Y-4615034D01*
X8409376Y-4627000D01*
X9330614Y-4627000D01*
X9452110Y-4615034D01*
X9608000Y-4567745D01*
X9751669Y-4490952D01*
X9877596Y-4387606D01*
X9889995Y-4372498D01*
X9902394Y-4387606D01*
X10028321Y-4490952D01*
X10171990Y-4567745D01*
X10327880Y-4615034D01*
X10449376Y-4627000D01*
X14083939Y-4627000D01*
X14100000Y-4628582D01*
X15100000Y-4628582D01*
X15164103Y-4622268D01*
X15173000Y-4619569D01*
X15173000Y-7873000D01*
X127000Y-7873000D01*
X127000Y-4628582D01*
X1000000Y-4628582D01*
X1016061Y-4627000D01*
X2940624Y-4627000D01*
X3062120Y-4615034D01*
X3218010Y-4567745D01*
X3361679Y-4490952D01*
X3420236Y-4442895D01*
X3455379Y-4439434D01*
X3544689Y-4412342D01*
X3626997Y-4368348D01*
X3668582Y-4334221D01*
X3712394Y-4387606D01*
X3838321Y-4490952D01*
X3981990Y-4567745D01*
X4137880Y-4615034D01*
X4259376Y-4627000D01*
X4269386Y-4627000D01*
X4310010Y-4631001D01*
X4350634Y-4627000D01*
X4726597Y-4627000D01*
X4734621Y-4629434D01*
X4827500Y-4638582D01*
X5172500Y-4638582D01*
X5265379Y-4629434D01*
X5273403Y-4627000D01*
X5905624Y-4627000D01*
X6027120Y-4615034D01*
X6183010Y-4567745D01*
X6326679Y-4490952D01*
X6452606Y-4387606D01*
X6467333Y-4369661D01*
X6482343Y-4357343D01*
X6523206Y-4307550D01*
X6532357Y-4290429D01*
X6555952Y-4261679D01*
X6632745Y-4118010D01*
X6680034Y-3962120D01*
X6696001Y-3800000D01*
X6680034Y-3637880D01*
X6632745Y-3481990D01*
X6555952Y-3338321D01*
X6532357Y-3309571D01*
X6523206Y-3292450D01*
X6482343Y-3242657D01*
X6467333Y-3230339D01*
X6452606Y-3212394D01*
X6326679Y-3109048D01*
X6183010Y-3032255D01*
X6027120Y-2984966D01*
X5905624Y-2973000D01*
X4452269Y-2973000D01*
X4310010Y-2958989D01*
X4147890Y-2974956D01*
X3992000Y-3022245D01*
X3848331Y-3099038D01*
X3722404Y-3202384D01*
X3717892Y-3207882D01*
X3712394Y-3212394D01*
X3668582Y-3265779D01*
X3626997Y-3231652D01*
X3544689Y-3187658D01*
X3455379Y-3160566D01*
X3420236Y-3157105D01*
X3361679Y-3109048D01*
X3218010Y-3032255D01*
X3062120Y-2984966D01*
X2940624Y-2973000D01*
X1016061Y-2973000D01*
X1000000Y-2971418D01*
X127000Y-2971418D01*
X127000Y-127000D01*
X15173000Y-127000D01*
X15173000Y-2980431D01*
M02*
