<?xml version="1.0" standalone="no"?>
 <!DOCTYPE svg PUBLIC "-//W3C//DTD SVG 1.1//EN" 
 "http://www.w3.org/Graphics/SVG/1.1/DTD/svg11.dtd"> 
<svg xmlns="http://www.w3.org/2000/svg" version="1.1" 
    width="29.7002cm" height="21.0007cm" viewBox="0 0 116930 82680 ">
<title>SVG Picture created as lil_driver_2-F_Paste.svg date 2020/07/24 23:04:38 </title>
  <desc>Picture generated by PCBNEW </desc>
<g style="fill:#000000; fill-opacity:1;stroke:#000000; stroke-opacity:1;
stroke-linecap:round; stroke-linejoin:round; "
 transform="translate(0 0) scale(1 1)">
</g>
<g style="fill:#000000; fill-opacity:0.0; 
stroke:#000000; stroke-width:-0.000393701; stroke-opacity:1; 
stroke-linecap:round; stroke-linejoin:round;">
<g >
</g>
<g style="fill:#000000; fill-opacity:0.0; 
stroke:#000000; stroke-width:0; stroke-opacity:1; 
stroke-linecap:round; stroke-linejoin:round;">
</g>
<g style="fill:#000000; fill-opacity:1.0; 
stroke:#000000; stroke-width:0; stroke-opacity:1; 
stroke-linecap:round; stroke-linejoin:round;">
<path style="fill:#000000; fill-opacity:1.0; 
stroke:#000000; stroke-width:0; stroke-opacity:1; 
stroke-linecap:round; stroke-linejoin:round;fill-rule:evenodd;"
d="M 48897.8,40354.7
48897.8,39488.7
50314.8,39488.7
50314.8,40354.7
Z" /> 
<path style="fill:#000000; fill-opacity:1.0; 
stroke:#000000; stroke-width:0; stroke-opacity:1; 
stroke-linecap:round; stroke-linejoin:round;fill-rule:evenodd;"
d="M 50276.3,42801.7
50276.3,41921.7
50756.3,41921.7
50756.3,42801.7
Z" /> 
<path style="fill:#000000; fill-opacity:1.0; 
stroke:#000000; stroke-width:0; stroke-opacity:1; 
stroke-linecap:round; stroke-linejoin:round;fill-rule:evenodd;"
d="M 49366.3,42801.7
49366.3,41921.7
49846.3,41921.7
49846.3,42801.7
Z" /> 
<path style="fill:#000000; fill-opacity:1.0; 
stroke:#000000; stroke-width:0; stroke-opacity:1; 
stroke-linecap:round; stroke-linejoin:round;fill-rule:evenodd;"
d="M 48456.3,42801.7
48456.3,41921.7
48936.3,41921.7
48936.3,42801.7
Z" /> 
</g>
<g >
</g>
<g style="fill:#000000; fill-opacity:1.0; 
stroke:#000000; stroke-width:0; stroke-opacity:1; 
stroke-linecap:round; stroke-linejoin:round;">
<path style="fill:#000000; fill-opacity:1.0; 
stroke:#000000; stroke-width:0; stroke-opacity:1; 
stroke-linecap:round; stroke-linejoin:round;fill-rule:evenodd;"
d="M 47243.9,44645.9
47243.9,45117.9
46929.9,45117.9
46929.9,44645.9
Z" /> 
<path style="fill:#000000; fill-opacity:1.0; 
stroke:#000000; stroke-width:0; stroke-opacity:1; 
stroke-linecap:round; stroke-linejoin:round;fill-rule:evenodd;"
d="M 47951.9,44645.9
47951.9,45117.9
47637.9,45117.9
47637.9,44645.9
Z" /> 
</g>
<g >
</g>
<g >
</g>
<g >
</g>
<g >
</g>
<g >
</g>
<g >
</g>
<g >
</g>
<g >
</g>
<g style="fill:#000000; fill-opacity:1.0; 
stroke:#000000; stroke-width:0; stroke-opacity:1; 
stroke-linecap:round; stroke-linejoin:round;">
<path style="fill:#000000; fill-opacity:1.0; 
stroke:#000000; stroke-width:0; stroke-opacity:1; 
stroke-linecap:round; stroke-linejoin:round;fill-rule:evenodd;"
d="M 48779.2,43149.9
48779.2,43857.9
48150.2,43857.9
48150.2,43149.9
Z" /> 
<path style="fill:#000000; fill-opacity:1.0; 
stroke:#000000; stroke-width:0; stroke-opacity:1; 
stroke-linecap:round; stroke-linejoin:round;fill-rule:evenodd;"
d="M 49881.2,43149.9
49881.2,43857.9
49252.2,43857.9
49252.2,43149.9
Z" /> 
</g>
<g >
</g>
<g style="fill:#000000; fill-opacity:1.0; 
stroke:#000000; stroke-width:0; stroke-opacity:1; 
stroke-linecap:round; stroke-linejoin:round;">
<path style="fill:#000000; fill-opacity:1.0; 
stroke:#000000; stroke-width:0; stroke-opacity:1; 
stroke-linecap:round; stroke-linejoin:round;fill-rule:evenodd;"
d="M 47361.6,48621.7
47361.6,48228.7
47794.6,48228.7
47794.6,48621.7
Z" /> 
<path style="fill:#000000; fill-opacity:1.0; 
stroke:#000000; stroke-width:0; stroke-opacity:1; 
stroke-linecap:round; stroke-linejoin:round;fill-rule:evenodd;"
d="M 46693.6,48621.7
46693.6,48228.7
47126.6,48228.7
47126.6,48621.7
Z" /> 
</g>
<g >
</g>
<g style="fill:#000000; fill-opacity:1.0; 
stroke:#000000; stroke-width:0; stroke-opacity:1; 
stroke-linecap:round; stroke-linejoin:round;">
<path style="fill:#000000; fill-opacity:1.0; 
stroke:#000000; stroke-width:0; stroke-opacity:1; 
stroke-linecap:round; stroke-linejoin:round;fill-rule:evenodd;"
d="M 54213.2,39567.3
54213.2,39960.3
53780.2,39960.3
53780.2,39567.3
Z" /> 
<path style="fill:#000000; fill-opacity:1.0; 
stroke:#000000; stroke-width:0; stroke-opacity:1; 
stroke-linecap:round; stroke-linejoin:round;fill-rule:evenodd;"
d="M 54881.2,39567.3
54881.2,39960.3
54448.2,39960.3
54448.2,39567.3
Z" /> 
</g>
<g >
</g>
<g style="fill:#000000; fill-opacity:1.0; 
stroke:#000000; stroke-width:0; stroke-opacity:1; 
stroke-linecap:round; stroke-linejoin:round;">
<path style="fill:#000000; fill-opacity:1.0; 
stroke:#000000; stroke-width:0; stroke-opacity:1; 
stroke-linecap:round; stroke-linejoin:round;fill-rule:evenodd;"
d="M 53464,35629.6
53464,35236.6
53897,35236.6
53897,35629.6
Z" /> 
<path style="fill:#000000; fill-opacity:1.0; 
stroke:#000000; stroke-width:0; stroke-opacity:1; 
stroke-linecap:round; stroke-linejoin:round;fill-rule:evenodd;"
d="M 52796,35629.6
52796,35236.6
53229,35236.6
53229,35629.6
Z" /> 
</g>
<g >
</g>
<g style="fill:#000000; fill-opacity:1.0; 
stroke:#000000; stroke-width:0; stroke-opacity:1; 
stroke-linecap:round; stroke-linejoin:round;">
<path style="fill:#000000; fill-opacity:1.0; 
stroke:#000000; stroke-width:0; stroke-opacity:1; 
stroke-linecap:round; stroke-linejoin:round;fill-rule:evenodd;"
d="M 54016.4,35827.1
54016.4,36220.1
53583.4,36220.1
53583.4,35827.1
Z" /> 
<path style="fill:#000000; fill-opacity:1.0; 
stroke:#000000; stroke-width:0; stroke-opacity:1; 
stroke-linecap:round; stroke-linejoin:round;fill-rule:evenodd;"
d="M 54684.4,35827.1
54684.4,36220.1
54251.4,36220.1
54251.4,35827.1
Z" /> 
</g>
<g >
</g>
<g style="fill:#000000; fill-opacity:1.0; 
stroke:#000000; stroke-width:0; stroke-opacity:1; 
stroke-linecap:round; stroke-linejoin:round;">
<path style="fill:#000000; fill-opacity:1.0; 
stroke:#000000; stroke-width:0; stroke-opacity:1; 
stroke-linecap:round; stroke-linejoin:round;fill-rule:evenodd;"
d="M 51220.8,43149.9
51928.8,43149.9
51928.8,43778.9
51220.8,43778.9
Z" /> 
<path style="fill:#000000; fill-opacity:1.0; 
stroke:#000000; stroke-width:0; stroke-opacity:1; 
stroke-linecap:round; stroke-linejoin:round;fill-rule:evenodd;"
d="M 51220.8,42047.9
51928.8,42047.9
51928.8,42676.9
51220.8,42676.9
Z" /> 
</g>
<g >
</g>
<g style="fill:#000000; fill-opacity:1.0; 
stroke:#000000; stroke-width:0; stroke-opacity:1; 
stroke-linecap:round; stroke-linejoin:round;">
<path style="fill:#000000; fill-opacity:1.0; 
stroke:#000000; stroke-width:0; stroke-opacity:1; 
stroke-linecap:round; stroke-linejoin:round;fill-rule:evenodd;"
d="M 54114.2,45472.1
54114.2,45079.1
54547.2,45079.1
54547.2,45472.1
Z" /> 
<path style="fill:#000000; fill-opacity:1.0; 
stroke:#000000; stroke-width:0; stroke-opacity:1; 
stroke-linecap:round; stroke-linejoin:round;fill-rule:evenodd;"
d="M 53446.2,45472.1
53446.2,45079.1
53879.2,45079.1
53879.2,45472.1
Z" /> 
</g>
<g >
</g>
<g style="fill:#000000; fill-opacity:1.0; 
stroke:#000000; stroke-width:0; stroke-opacity:1; 
stroke-linecap:round; stroke-linejoin:round;">
<path style="fill:#000000; fill-opacity:1.0; 
stroke:#000000; stroke-width:0; stroke-opacity:1; 
stroke-linecap:round; stroke-linejoin:round;fill-rule:evenodd;"
d="M 50517.8,36230.7
50526.2,36232
50534.4,36234
50542.3,36236.9
50549.9,36240.5
50557.2,36244.8
50564,36249.9
50570.2,36255.5
50575.9,36261.8
50581,36268.6
50585.3,36275.8
50588.9,36283.5
50591.8,36291.4
50593.8,36299.6
50595.1,36308
50595.5,36316.4
50595.5,36518.2
50595.1,36526.7
50593.8,36535
50591.8,36543.2
50588.9,36551.2
50585.3,36558.8
50581,36566.1
50575.9,36572.8
50570.2,36579.1
50564,36584.8
50557.2,36589.8
50549.9,36594.2
50542.3,36597.8
50534.4,36600.6
50526.2,36602.7
50517.8,36603.9
50509.4,36604.3
50337.1,36604.3
50328.7,36603.9
50320.3,36602.7
50312.1,36600.6
50304.1,36597.8
50296.5,36594.2
50289.3,36589.8
50282.5,36584.8
50276.2,36579.1
50270.5,36572.8
50265.5,36566.1
50261.2,36558.8
50257.5,36551.2
50254.7,36543.2
50252.6,36535
50251.4,36526.7
50251,36518.2
50251,36316.4
50251.4,36308
50252.6,36299.6
50254.7,36291.4
50257.5,36283.5
50261.2,36275.8
50265.5,36268.6
50270.5,36261.8
50276.2,36255.5
50282.5,36249.9
50289.3,36244.8
50296.5,36240.5
50304.1,36236.9
50312.1,36234
50320.3,36232
50328.7,36230.7
50337.1,36230.3
50509.4,36230.3
Z" /> 
<path style="fill:#000000; fill-opacity:1.0; 
stroke:#000000; stroke-width:0; stroke-opacity:1; 
stroke-linecap:round; stroke-linejoin:round;fill-rule:evenodd;"
d="M 49897.7,36230.7
49906.1,36232
49914.3,36234
49922.2,36236.9
49929.9,36240.5
49937.1,36244.8
49943.9,36249.9
49950.2,36255.5
49955.8,36261.8
49960.9,36268.6
49965.2,36275.8
49968.8,36283.5
49971.7,36291.4
49973.7,36299.6
49975,36308
49975.4,36316.4
49975.4,36518.2
49975,36526.7
49973.7,36535
49971.7,36543.2
49968.8,36551.2
49965.2,36558.8
49960.9,36566.1
49955.8,36572.8
49950.2,36579.1
49943.9,36584.8
49937.1,36589.8
49929.9,36594.2
49922.2,36597.8
49914.3,36600.6
49906.1,36602.7
49897.7,36603.9
49889.3,36604.3
49717,36604.3
49708.6,36603.9
49700.2,36602.7
49692,36600.6
49684.1,36597.8
49676.4,36594.2
49669.2,36589.8
49662.4,36584.8
49656.1,36579.1
49650.5,36572.8
49645.4,36566.1
49641.1,36558.8
49637.5,36551.2
49634.6,36543.2
49632.6,36535
49631.3,36526.7
49630.9,36518.2
49630.9,36316.4
49631.3,36308
49632.6,36299.6
49634.6,36291.4
49637.5,36283.5
49641.1,36275.8
49645.4,36268.6
49650.5,36261.8
49656.1,36255.5
49662.4,36249.9
49669.2,36244.8
49676.4,36240.5
49684.1,36236.9
49692,36234
49700.2,36232
49708.6,36230.7
49717,36230.3
49889.3,36230.3
Z" /> 
</g>
<g >
</g>
<g style="fill:#000000; fill-opacity:1.0; 
stroke:#000000; stroke-width:0; stroke-opacity:1; 
stroke-linecap:round; stroke-linejoin:round;">
<path style="fill:#000000; fill-opacity:1.0; 
stroke:#000000; stroke-width:0; stroke-opacity:1; 
stroke-linecap:round; stroke-linejoin:round;fill-rule:evenodd;"
d="M 55570.7,38609.1
55579.1,38610.4
55587.3,38612.4
55595.2,38615.3
55602.9,38618.9
55610.1,38623.2
55616.9,38628.2
55623.2,38633.9
55628.9,38640.2
55633.9,38647
55638.2,38654.2
55641.8,38661.9
55644.7,38669.8
55646.7,38678
55648,38686.4
55648.4,38694.8
55648.4,38896.6
55648,38905
55646.7,38913.4
55644.7,38921.6
55641.8,38929.6
55638.2,38937.2
55633.9,38944.4
55628.9,38951.2
55623.2,38957.5
55616.9,38963.2
55610.1,38968.2
55602.9,38972.5
55595.2,38976.2
55587.3,38979
55579.1,38981.1
55570.7,38982.3
55562.3,38982.7
55390,38982.7
55381.6,38982.3
55373.2,38981.1
55365,38979
55357.1,38976.2
55349.4,38972.5
55342.2,38968.2
55335.4,38963.2
55329.1,38957.5
55323.5,38951.2
55318.4,38944.4
55314.1,38937.2
55310.5,38929.6
55307.6,38921.6
55305.6,38913.4
55304.3,38905
55303.9,38896.6
55303.9,38694.8
55304.3,38686.4
55305.6,38678
55307.6,38669.8
55310.5,38661.9
55314.1,38654.2
55318.4,38647
55323.5,38640.2
55329.1,38633.9
55335.4,38628.2
55342.2,38623.2
55349.4,38618.9
55357.1,38615.3
55365,38612.4
55373.2,38610.4
55381.6,38609.1
55390,38608.7
55562.3,38608.7
Z" /> 
<path style="fill:#000000; fill-opacity:1.0; 
stroke:#000000; stroke-width:0; stroke-opacity:1; 
stroke-linecap:round; stroke-linejoin:round;fill-rule:evenodd;"
d="M 54950.6,38609.1
54959,38610.4
54967.2,38612.4
54975.2,38615.3
54982.8,38618.9
54990,38623.2
54996.8,38628.2
55003.1,38633.9
55008.8,38640.2
55013.8,38647
55018.2,38654.2
55021.8,38661.9
55024.6,38669.8
55026.7,38678
55027.9,38686.4
55028.3,38694.8
55028.3,38896.6
55027.9,38905
55026.7,38913.4
55024.6,38921.6
55021.8,38929.6
55018.2,38937.2
55013.8,38944.4
55008.8,38951.2
55003.1,38957.5
54996.8,38963.2
54990,38968.2
54982.8,38972.5
54975.2,38976.2
54967.2,38979
54959,38981.1
54950.6,38982.3
54942.2,38982.7
54770,38982.7
54761.5,38982.3
54753.2,38981.1
54745,38979
54737,38976.2
54729.4,38972.5
54722.1,38968.2
54715.3,38963.2
54709.1,38957.5
54703.4,38951.2
54698.3,38944.4
54694,38937.2
54690.4,38929.6
54687.5,38921.6
54685.5,38913.4
54684.2,38905
54683.8,38896.6
54683.8,38694.8
54684.2,38686.4
54685.5,38678
54687.5,38669.8
54690.4,38661.9
54694,38654.2
54698.3,38647
54703.4,38640.2
54709.1,38633.9
54715.3,38628.2
54722.1,38623.2
54729.4,38618.9
54737,38615.3
54745,38612.4
54753.2,38610.4
54761.5,38609.1
54770,38608.7
54942.2,38608.7
Z" /> 
</g>
<g >
</g>
<g style="fill:#000000; fill-opacity:1.0; 
stroke:#000000; stroke-width:0; stroke-opacity:1; 
stroke-linecap:round; stroke-linejoin:round;">
<path style="fill:#000000; fill-opacity:1.0; 
stroke:#000000; stroke-width:0; stroke-opacity:1; 
stroke-linecap:round; stroke-linejoin:round;fill-rule:evenodd;"
d="M 51949.9,35246.5
51958.2,35247.7
51966.4,35249.8
51974.4,35252.6
51982,35256.2
51989.3,35260.6
51996.1,35265.6
52002.3,35271.3
52008,35277.5
52013,35284.3
52017.4,35291.6
52021,35299.2
52023.9,35307.2
52025.9,35315.4
52027.1,35323.7
52027.6,35332.2
52027.6,35534
52027.1,35542.4
52025.9,35550.8
52023.9,35559
52021,35566.9
52017.4,35574.6
52013,35581.8
52008,35588.6
52002.3,35594.9
51996.1,35600.5
51989.3,35605.6
51982,35609.9
51974.4,35613.5
51966.4,35616.4
51958.2,35618.4
51949.9,35619.7
51941.4,35620.1
51769.2,35620.1
51760.8,35619.7
51752.4,35618.4
51744.2,35616.4
51736.2,35613.5
51728.6,35609.9
51721.3,35605.6
51714.6,35600.5
51708.3,35594.9
51702.6,35588.6
51697.6,35581.8
51693.2,35574.6
51689.6,35566.9
51686.8,35559
51684.7,35550.8
51683.5,35542.4
51683.1,35534
51683.1,35332.2
51683.5,35323.7
51684.7,35315.4
51686.8,35307.2
51689.6,35299.2
51693.2,35291.6
51697.6,35284.3
51702.6,35277.5
51708.3,35271.3
51714.6,35265.6
51721.3,35260.6
51728.6,35256.2
51736.2,35252.6
51744.2,35249.8
51752.4,35247.7
51760.8,35246.5
51769.2,35246.1
51941.4,35246.1
Z" /> 
<path style="fill:#000000; fill-opacity:1.0; 
stroke:#000000; stroke-width:0; stroke-opacity:1; 
stroke-linecap:round; stroke-linejoin:round;fill-rule:evenodd;"
d="M 52570,35246.5
52578.3,35247.7
52586.5,35249.8
52594.5,35252.6
52602.1,35256.2
52609.4,35260.6
52616.2,35265.6
52622.4,35271.3
52628.1,35277.5
52633.1,35284.3
52637.5,35291.6
52641.1,35299.2
52643.9,35307.2
52646,35315.4
52647.2,35323.7
52647.6,35332.2
52647.6,35534
52647.2,35542.4
52646,35550.8
52643.9,35559
52641.1,35566.9
52637.5,35574.6
52633.1,35581.8
52628.1,35588.6
52622.4,35594.9
52616.2,35600.5
52609.4,35605.6
52602.1,35609.9
52594.5,35613.5
52586.5,35616.4
52578.3,35618.4
52570,35619.7
52561.5,35620.1
52389.3,35620.1
52380.8,35619.7
52372.5,35618.4
52364.3,35616.4
52356.3,35613.5
52348.7,35609.9
52341.4,35605.6
52334.6,35600.5
52328.4,35594.9
52322.7,35588.6
52317.7,35581.8
52313.3,35574.6
52309.7,35566.9
52306.9,35559
52304.8,35550.8
52303.6,35542.4
52303.1,35534
52303.1,35332.2
52303.6,35323.7
52304.8,35315.4
52306.9,35307.2
52309.7,35299.2
52313.3,35291.6
52317.7,35284.3
52322.7,35277.5
52328.4,35271.3
52334.6,35265.6
52341.4,35260.6
52348.7,35256.2
52356.3,35252.6
52364.3,35249.8
52372.5,35247.7
52380.8,35246.5
52389.3,35246.1
52561.5,35246.1
Z" /> 
</g>
<g >
</g>
<g style="fill:#000000; fill-opacity:1.0; 
stroke:#000000; stroke-width:0; stroke-opacity:1; 
stroke-linecap:round; stroke-linejoin:round;">
<path style="fill:#000000; fill-opacity:1.0; 
stroke:#000000; stroke-width:0; stroke-opacity:1; 
stroke-linecap:round; stroke-linejoin:round;fill-rule:evenodd;"
d="M 54301.2,36769.7
54301.2,36533.5
54911.4,36533.5
54911.4,36769.7
Z" /> 
<path style="fill:#000000; fill-opacity:1.0; 
stroke:#000000; stroke-width:0; stroke-opacity:1; 
stroke-linecap:round; stroke-linejoin:round;fill-rule:evenodd;"
d="M 54301.2,37269.7
54301.2,37033.5
54911.4,37033.5
54911.4,37269.7
Z" /> 
<path style="fill:#000000; fill-opacity:1.0; 
stroke:#000000; stroke-width:0; stroke-opacity:1; 
stroke-linecap:round; stroke-linejoin:round;fill-rule:evenodd;"
d="M 54301.2,37769.7
54301.2,37533.5
54911.4,37533.5
54911.4,37769.7
Z" /> 
<path style="fill:#000000; fill-opacity:1.0; 
stroke:#000000; stroke-width:0; stroke-opacity:1; 
stroke-linecap:round; stroke-linejoin:round;fill-rule:evenodd;"
d="M 54301.2,38269.7
54301.2,38033.5
54911.4,38033.5
54911.4,38269.7
Z" /> 
<path style="fill:#000000; fill-opacity:1.0; 
stroke:#000000; stroke-width:0; stroke-opacity:1; 
stroke-linecap:round; stroke-linejoin:round;fill-rule:evenodd;"
d="M 52175.2,38269.7
52175.2,38033.5
52785.4,38033.5
52785.4,38269.7
Z" /> 
<path style="fill:#000000; fill-opacity:1.0; 
stroke:#000000; stroke-width:0; stroke-opacity:1; 
stroke-linecap:round; stroke-linejoin:round;fill-rule:evenodd;"
d="M 52175.2,37769.7
52175.2,37533.5
52785.4,37533.5
52785.4,37769.7
Z" /> 
<path style="fill:#000000; fill-opacity:1.0; 
stroke:#000000; stroke-width:0; stroke-opacity:1; 
stroke-linecap:round; stroke-linejoin:round;fill-rule:evenodd;"
d="M 52175.2,37269.7
52175.2,37033.5
52785.4,37033.5
52785.4,37269.7
Z" /> 
<path style="fill:#000000; fill-opacity:1.0; 
stroke:#000000; stroke-width:0; stroke-opacity:1; 
stroke-linecap:round; stroke-linejoin:round;fill-rule:evenodd;"
d="M 52175.2,36769.7
52175.2,36533.5
52785.4,36533.5
52785.4,36769.7
Z" /> 
</g>
<g >
</g>
<g style="fill:#000000; fill-opacity:1.0; 
stroke:#000000; stroke-width:0; stroke-opacity:1; 
stroke-linecap:round; stroke-linejoin:round;">
<path style="fill:#000000; fill-opacity:1.0; 
stroke:#000000; stroke-width:0; stroke-opacity:1; 
stroke-linecap:round; stroke-linejoin:round;fill-rule:evenodd;"
d="M 52714.6,42746.1
52478.3,42746.1
52478.3,42135.8
52714.6,42135.8
Z" /> 
<path style="fill:#000000; fill-opacity:1.0; 
stroke:#000000; stroke-width:0; stroke-opacity:1; 
stroke-linecap:round; stroke-linejoin:round;fill-rule:evenodd;"
d="M 53214.6,42746.1
52978.3,42746.1
52978.3,42135.8
53214.6,42135.8
Z" /> 
<path style="fill:#000000; fill-opacity:1.0; 
stroke:#000000; stroke-width:0; stroke-opacity:1; 
stroke-linecap:round; stroke-linejoin:round;fill-rule:evenodd;"
d="M 53714.6,42746.1
53478.3,42746.1
53478.3,42135.8
53714.6,42135.8
Z" /> 
<path style="fill:#000000; fill-opacity:1.0; 
stroke:#000000; stroke-width:0; stroke-opacity:1; 
stroke-linecap:round; stroke-linejoin:round;fill-rule:evenodd;"
d="M 54214.6,42746.1
53978.3,42746.1
53978.3,42135.8
54214.6,42135.8
Z" /> 
<path style="fill:#000000; fill-opacity:1.0; 
stroke:#000000; stroke-width:0; stroke-opacity:1; 
stroke-linecap:round; stroke-linejoin:round;fill-rule:evenodd;"
d="M 54214.6,44872
53978.3,44872
53978.3,44261.8
54214.6,44261.8
Z" /> 
<path style="fill:#000000; fill-opacity:1.0; 
stroke:#000000; stroke-width:0; stroke-opacity:1; 
stroke-linecap:round; stroke-linejoin:round;fill-rule:evenodd;"
d="M 53714.6,44872
53478.3,44872
53478.3,44261.8
53714.6,44261.8
Z" /> 
<path style="fill:#000000; fill-opacity:1.0; 
stroke:#000000; stroke-width:0; stroke-opacity:1; 
stroke-linecap:round; stroke-linejoin:round;fill-rule:evenodd;"
d="M 53214.6,44872
52978.3,44872
52978.3,44261.8
53214.6,44261.8
Z" /> 
<path style="fill:#000000; fill-opacity:1.0; 
stroke:#000000; stroke-width:0; stroke-opacity:1; 
stroke-linecap:round; stroke-linejoin:round;fill-rule:evenodd;"
d="M 52714.6,44872
52478.3,44872
52478.3,44261.8
52714.6,44261.8
Z" /> 
</g>
<g >
</g>
<g style="fill:#000000; fill-opacity:1.0; 
stroke:#000000; stroke-width:0; stroke-opacity:1; 
stroke-linecap:round; stroke-linejoin:round;">
<path style="fill:#000000; fill-opacity:1.0; 
stroke:#000000; stroke-width:0; stroke-opacity:1; 
stroke-linecap:round; stroke-linejoin:round;fill-rule:evenodd;"
d="M 47216.5,46112.2
47216.5,46368.1
46799.2,46368.1
46799.2,46112.2
Z" /> 
<path style="fill:#000000; fill-opacity:1.0; 
stroke:#000000; stroke-width:0; stroke-opacity:1; 
stroke-linecap:round; stroke-linejoin:round;fill-rule:evenodd;"
d="M 47216.5,45364.2
47216.5,45620.1
46799.2,45620.1
46799.2,45364.2
Z" /> 
<path style="fill:#000000; fill-opacity:1.0; 
stroke:#000000; stroke-width:0; stroke-opacity:1; 
stroke-linecap:round; stroke-linejoin:round;fill-rule:evenodd;"
d="M 48082.7,45364.2
48082.7,45620.1
47665.4,45620.1
47665.4,45364.2
Z" /> 
<path style="fill:#000000; fill-opacity:1.0; 
stroke:#000000; stroke-width:0; stroke-opacity:1; 
stroke-linecap:round; stroke-linejoin:round;fill-rule:evenodd;"
d="M 48082.7,45738.2
48082.7,45994.1
47665.4,45994.1
47665.4,45738.2
Z" /> 
<path style="fill:#000000; fill-opacity:1.0; 
stroke:#000000; stroke-width:0; stroke-opacity:1; 
stroke-linecap:round; stroke-linejoin:round;fill-rule:evenodd;"
d="M 48082.7,46112.2
48082.7,46368.1
47665.4,46368.1
47665.4,46112.2
Z" /> 
</g>
<g >
</g>
<g style="fill:#000000; fill-opacity:1.0; 
stroke:#000000; stroke-width:0; stroke-opacity:1; 
stroke-linecap:round; stroke-linejoin:round;">
<path style="fill:#000000; fill-opacity:1.0; 
stroke:#000000; stroke-width:0; stroke-opacity:1; 
stroke-linecap:round; stroke-linejoin:round;fill-rule:evenodd;"
d="M 49507.9,47391.7
49507.9,46978.3
49744.1,46978.3
49744.1,47391.7
Z" /> 
<path style="fill:#000000; fill-opacity:1.0; 
stroke:#000000; stroke-width:0; stroke-opacity:1; 
stroke-linecap:round; stroke-linejoin:round;fill-rule:evenodd;"
d="M 49881.9,47391.7
49881.9,46978.3
50118.1,46978.3
50118.1,47391.7
Z" /> 
<path style="fill:#000000; fill-opacity:1.0; 
stroke:#000000; stroke-width:0; stroke-opacity:1; 
stroke-linecap:round; stroke-linejoin:round;fill-rule:evenodd;"
d="M 50255.9,47391.7
50255.9,46978.3
50492.1,46978.3
50492.1,47391.7
Z" /> 
<path style="fill:#000000; fill-opacity:1.0; 
stroke:#000000; stroke-width:0; stroke-opacity:1; 
stroke-linecap:round; stroke-linejoin:round;fill-rule:evenodd;"
d="M 50255.9,46328.7
50255.9,45915.4
50492.1,45915.4
50492.1,46328.7
Z" /> 
<path style="fill:#000000; fill-opacity:1.0; 
stroke:#000000; stroke-width:0; stroke-opacity:1; 
stroke-linecap:round; stroke-linejoin:round;fill-rule:evenodd;"
d="M 49507.9,46328.7
49507.9,45915.4
49744.1,45915.4
49744.1,46328.7
Z" /> 
</g>
<g >
</g>
<g >
</g>
<g >
</g>
<g >
</g>
<g style="fill:#000000; fill-opacity:1.0; 
stroke:#000000; stroke-width:0; stroke-opacity:1; 
stroke-linecap:round; stroke-linejoin:round;">
<path style="fill:#000000; fill-opacity:1.0; 
stroke:#000000; stroke-width:0; stroke-opacity:1; 
stroke-linecap:round; stroke-linejoin:round;fill-rule:evenodd;"
d="M 55621.1,37539.8
55629.5,37541
55637.7,37543.1
55645.7,37545.9
55653.3,37549.5
55660.5,37553.9
55667.3,37558.9
55673.6,37564.6
55679.3,37570.9
55684.3,37577.6
55688.6,37584.9
55692.3,37592.5
55695.1,37600.5
55697.2,37608.7
55698.4,37617.1
55698.8,37625.5
55698.8,37797.7
55698.4,37806.2
55697.2,37814.5
55695.1,37822.7
55692.3,37830.7
55688.6,37838.3
55684.3,37845.6
55679.3,37852.4
55673.6,37858.6
55667.3,37864.3
55660.5,37869.3
55653.3,37873.7
55645.7,37877.3
55637.7,37880.2
55629.5,37882.2
55621.1,37883.4
55612.7,37883.9
55410.9,37883.9
55402.5,37883.4
55394.1,37882.2
55385.9,37880.2
55378,37877.3
55370.3,37873.7
55363.1,37869.3
55356.3,37864.3
55350,37858.6
55344.4,37852.4
55339.3,37845.6
55335,37838.3
55331.4,37830.7
55328.5,37822.7
55326.5,37814.5
55325.2,37806.2
55324.8,37797.7
55324.8,37625.5
55325.2,37617.1
55326.5,37608.7
55328.5,37600.5
55331.4,37592.5
55335,37584.9
55339.3,37577.6
55344.4,37570.9
55350,37564.6
55356.3,37558.9
55363.1,37553.9
55370.3,37549.5
55378,37545.9
55385.9,37543.1
55394.1,37541
55402.5,37539.8
55410.9,37539.4
55612.7,37539.4
Z" /> 
<path style="fill:#000000; fill-opacity:1.0; 
stroke:#000000; stroke-width:0; stroke-opacity:1; 
stroke-linecap:round; stroke-linejoin:round;fill-rule:evenodd;"
d="M 55621.1,36919.7
55629.5,36920.9
55637.7,36923
55645.7,36925.8
55653.3,36929.5
55660.5,36933.8
55667.3,36938.8
55673.6,36944.5
55679.3,36950.8
55684.3,36957.6
55688.6,36964.8
55692.3,36972.5
55695.1,36980.4
55697.2,36988.6
55698.4,36997
55698.8,37005.4
55698.8,37177.7
55698.4,37186.1
55697.2,37194.5
55695.1,37202.7
55692.3,37210.6
55688.6,37218.3
55684.3,37225.5
55679.3,37232.3
55673.6,37238.6
55667.3,37244.2
55660.5,37249.3
55653.3,37253.6
55645.7,37257.2
55637.7,37260.1
55629.5,37262.1
55621.1,37263.4
55612.7,37263.8
55410.9,37263.8
55402.5,37263.4
55394.1,37262.1
55385.9,37260.1
55378,37257.2
55370.3,37253.6
55363.1,37249.3
55356.3,37244.2
55350,37238.6
55344.4,37232.3
55339.3,37225.5
55335,37218.3
55331.4,37210.6
55328.5,37202.7
55326.5,37194.5
55325.2,37186.1
55324.8,37177.7
55324.8,37005.4
55325.2,36997
55326.5,36988.6
55328.5,36980.4
55331.4,36972.5
55335,36964.8
55339.3,36957.6
55344.4,36950.8
55350,36944.5
55356.3,36938.8
55363.1,36933.8
55370.3,36929.5
55378,36925.8
55385.9,36923
55394.1,36920.9
55402.5,36919.7
55410.9,36919.3
55612.7,36919.3
Z" /> 
</g>
<g >
</g>
<g style="fill:#000000; fill-opacity:1.0; 
stroke:#000000; stroke-width:0; stroke-opacity:1; 
stroke-linecap:round; stroke-linejoin:round;">
<path style="fill:#000000; fill-opacity:1.0; 
stroke:#000000; stroke-width:0; stroke-opacity:1; 
stroke-linecap:round; stroke-linejoin:round;fill-rule:evenodd;"
d="M 51881,36865.6
51889.3,36866.8
51897.5,36868.9
51905.5,36871.7
51913.1,36875.3
51920.4,36879.7
51927.2,36884.7
51933.4,36890.4
51939.1,36896.6
51944.1,36903.4
51948.5,36910.7
51952.1,36918.3
51955,36926.3
51957,36934.5
51958.2,36942.8
51958.7,36951.3
51958.7,37123.5
51958.2,37132
51957,37140.3
51955,37148.5
51952.1,37156.5
51948.5,37164.1
51944.1,37171.4
51939.1,37178.2
51933.4,37184.4
51927.2,37190.1
51920.4,37195.1
51913.1,37199.5
51905.5,37203.1
51897.5,37205.9
51889.3,37208
51881,37209.2
51872.5,37209.6
51670.8,37209.6
51662.3,37209.2
51654,37208
51645.8,37205.9
51637.8,37203.1
51630.2,37199.5
51622.9,37195.1
51616.1,37190.1
51609.9,37184.4
51604.2,37178.2
51599.2,37171.4
51594.8,37164.1
51591.2,37156.5
51588.4,37148.5
51586.3,37140.3
51585.1,37132
51584.6,37123.5
51584.6,36951.3
51585.1,36942.8
51586.3,36934.5
51588.4,36926.3
51591.2,36918.3
51594.8,36910.7
51599.2,36903.4
51604.2,36896.6
51609.9,36890.4
51616.1,36884.7
51622.9,36879.7
51630.2,36875.3
51637.8,36871.7
51645.8,36868.9
51654,36866.8
51662.3,36865.6
51670.8,36865.2
51872.5,36865.2
Z" /> 
<path style="fill:#000000; fill-opacity:1.0; 
stroke:#000000; stroke-width:0; stroke-opacity:1; 
stroke-linecap:round; stroke-linejoin:round;fill-rule:evenodd;"
d="M 51881,36245.5
51889.3,36246.7
51897.5,36248.8
51905.5,36251.6
51913.1,36255.2
51920.4,36259.6
51927.2,36264.6
51933.4,36270.3
51939.1,36276.6
51944.1,36283.4
51948.5,36290.6
51952.1,36298.2
51955,36306.2
51957,36314.4
51958.2,36322.8
51958.7,36331.2
51958.7,36503.4
51958.2,36511.9
51957,36520.2
51955,36528.4
51952.1,36536.4
51948.5,36544
51944.1,36551.3
51939.1,36558.1
51933.4,36564.3
51927.2,36570
51920.4,36575.1
51913.1,36579.4
51905.5,36583
51897.5,36585.9
51889.3,36587.9
51881,36589.2
51872.5,36589.6
51670.8,36589.6
51662.3,36589.2
51654,36587.9
51645.8,36585.9
51637.8,36583
51630.2,36579.4
51622.9,36575.1
51616.1,36570
51609.9,36564.3
51604.2,36558.1
51599.2,36551.3
51594.8,36544
51591.2,36536.4
51588.4,36528.4
51586.3,36520.2
51585.1,36511.9
51584.6,36503.4
51584.6,36331.2
51585.1,36322.8
51586.3,36314.4
51588.4,36306.2
51591.2,36298.2
51594.8,36290.6
51599.2,36283.4
51604.2,36276.6
51609.9,36270.3
51616.1,36264.6
51622.9,36259.6
51630.2,36255.2
51637.8,36251.6
51645.8,36248.8
51654,36246.7
51662.3,36245.5
51670.8,36245.1
51872.5,36245.1
Z" /> 
</g>
<g >
</g>
<g style="fill:#000000; fill-opacity:1.0; 
stroke:#000000; stroke-width:0; stroke-opacity:1; 
stroke-linecap:round; stroke-linejoin:round;">
<path style="fill:#000000; fill-opacity:1.0; 
stroke:#000000; stroke-width:0; stroke-opacity:1; 
stroke-linecap:round; stroke-linejoin:round;fill-rule:evenodd;"
d="M 53327.8,38789.8
53336.2,38791
53344.4,38793.1
53352.3,38795.9
53360,38799.5
53367.2,38803.9
53374,38808.9
53380.3,38814.6
53386,38820.9
53391,38827.6
53395.3,38834.9
53399,38842.5
53401.8,38850.5
53403.9,38858.7
53405.1,38867.1
53405.5,38875.5
53405.5,39077.3
53405.1,39085.7
53403.9,39094.1
53401.8,39102.3
53399,39110.2
53395.3,39117.9
53391,39125.1
53386,39131.9
53380.3,39138.2
53374,39143.8
53367.2,39148.9
53360,39153.2
53352.3,39156.8
53344.4,39159.7
53336.2,39161.7
53327.8,39163
53319.4,39163.4
53147.1,39163.4
53138.7,39163
53130.3,39161.7
53122.1,39159.7
53114.2,39156.8
53106.5,39153.2
53099.3,39148.9
53092.5,39143.8
53086.2,39138.2
53080.6,39131.9
53075.5,39125.1
53071.2,39117.9
53067.6,39110.2
53064.7,39102.3
53062.7,39094.1
53061.4,39085.7
53061,39077.3
53061,38875.5
53061.4,38867.1
53062.7,38858.7
53064.7,38850.5
53067.6,38842.5
53071.2,38834.9
53075.5,38827.6
53080.6,38820.9
53086.2,38814.6
53092.5,38808.9
53099.3,38803.9
53106.5,38799.5
53114.2,38795.9
53122.1,38793.1
53130.3,38791
53138.7,38789.8
53147.1,38789.4
53319.4,38789.4
Z" /> 
<path style="fill:#000000; fill-opacity:1.0; 
stroke:#000000; stroke-width:0; stroke-opacity:1; 
stroke-linecap:round; stroke-linejoin:round;fill-rule:evenodd;"
d="M 53947.9,38789.8
53956.3,38791
53964.5,38793.1
53972.4,38795.9
53980.1,38799.5
53987.3,38803.9
53994.1,38808.9
54000.4,38814.6
54006,38820.9
54011.1,38827.6
54015.4,38834.9
54019,38842.5
54021.9,38850.5
54023.9,38858.7
54025.2,38867.1
54025.6,38875.5
54025.6,39077.3
54025.2,39085.7
54023.9,39094.1
54021.9,39102.3
54019,39110.2
54015.4,39117.9
54011.1,39125.1
54006,39131.9
54000.4,39138.2
53994.1,39143.8
53987.3,39148.9
53980.1,39153.2
53972.4,39156.8
53964.5,39159.7
53956.3,39161.7
53947.9,39163
53939.5,39163.4
53767.2,39163.4
53758.8,39163
53750.4,39161.7
53742.2,39159.7
53734.3,39156.8
53726.6,39153.2
53719.4,39148.9
53712.6,39143.8
53706.3,39138.2
53700.7,39131.9
53695.6,39125.1
53691.3,39117.9
53687.7,39110.2
53684.8,39102.3
53682.8,39094.1
53681.5,39085.7
53681.1,39077.3
53681.1,38875.5
53681.5,38867.1
53682.8,38858.7
53684.8,38850.5
53687.7,38842.5
53691.3,38834.9
53695.6,38827.6
53700.7,38820.9
53706.3,38814.6
53712.6,38808.9
53719.4,38803.9
53726.6,38799.5
53734.3,38795.9
53742.2,38793.1
53750.4,38791
53758.8,38789.8
53767.2,38789.4
53939.5,38789.4
Z" /> 
</g>
<g >
</g>
<g style="fill:#000000; fill-opacity:1.0; 
stroke:#000000; stroke-width:0; stroke-opacity:1; 
stroke-linecap:round; stroke-linejoin:round;">
<path style="fill:#000000; fill-opacity:1.0; 
stroke:#000000; stroke-width:0; stroke-opacity:1; 
stroke-linecap:round; stroke-linejoin:round;fill-rule:evenodd;"
d="M 51881,38046.7
51889.3,38047.9
51897.5,38050
51905.5,38052.8
51913.1,38056.4
51920.4,38060.8
51927.2,38065.8
51933.4,38071.5
51939.1,38077.7
51944.1,38084.5
51948.5,38091.8
51952.1,38099.4
51955,38107.4
51957,38115.6
51958.2,38123.9
51958.7,38132.4
51958.7,38304.6
51958.2,38313.1
51957,38321.4
51955,38329.6
51952.1,38337.6
51948.5,38345.2
51944.1,38352.5
51939.1,38359.3
51933.4,38365.5
51927.2,38371.2
51920.4,38376.2
51913.1,38380.6
51905.5,38384.2
51897.5,38387
51889.3,38389.1
51881,38390.3
51872.5,38390.7
51670.8,38390.7
51662.3,38390.3
51654,38389.1
51645.8,38387
51637.8,38384.2
51630.2,38380.6
51622.9,38376.2
51616.1,38371.2
51609.9,38365.5
51604.2,38359.3
51599.2,38352.5
51594.8,38345.2
51591.2,38337.6
51588.4,38329.6
51586.3,38321.4
51585.1,38313.1
51584.6,38304.6
51584.6,38132.4
51585.1,38123.9
51586.3,38115.6
51588.4,38107.4
51591.2,38099.4
51594.8,38091.8
51599.2,38084.5
51604.2,38077.7
51609.9,38071.5
51616.1,38065.8
51622.9,38060.8
51630.2,38056.4
51637.8,38052.8
51645.8,38050
51654,38047.9
51662.3,38046.7
51670.8,38046.3
51872.5,38046.3
Z" /> 
<path style="fill:#000000; fill-opacity:1.0; 
stroke:#000000; stroke-width:0; stroke-opacity:1; 
stroke-linecap:round; stroke-linejoin:round;fill-rule:evenodd;"
d="M 51881,37426.6
51889.3,37427.8
51897.5,37429.9
51905.5,37432.7
51913.1,37436.4
51920.4,37440.7
51927.2,37445.7
51933.4,37451.4
51939.1,37457.7
51944.1,37464.5
51948.5,37471.7
51952.1,37479.3
51955,37487.3
51957,37495.5
51958.2,37503.9
51958.7,37512.3
51958.7,37684.5
51958.2,37693
51957,37701.3
51955,37709.5
51952.1,37717.5
51948.5,37725.1
51944.1,37732.4
51939.1,37739.2
51933.4,37745.4
51927.2,37751.1
51920.4,37756.2
51913.1,37760.5
51905.5,37764.1
51897.5,37767
51889.3,37769
51881,37770.3
51872.5,37770.7
51670.8,37770.7
51662.3,37770.3
51654,37769
51645.8,37767
51637.8,37764.1
51630.2,37760.5
51622.9,37756.2
51616.1,37751.1
51609.9,37745.4
51604.2,37739.2
51599.2,37732.4
51594.8,37725.1
51591.2,37717.5
51588.4,37709.5
51586.3,37701.3
51585.1,37693
51584.6,37684.5
51584.6,37512.3
51585.1,37503.9
51586.3,37495.5
51588.4,37487.3
51591.2,37479.3
51594.8,37471.7
51599.2,37464.5
51604.2,37457.7
51609.9,37451.4
51616.1,37445.7
51622.9,37440.7
51630.2,37436.4
51637.8,37432.7
51645.8,37429.9
51654,37427.8
51662.3,37426.6
51670.8,37426.2
51872.5,37426.2
Z" /> 
</g>
<g >
</g>
<g style="fill:#000000; fill-opacity:1.0; 
stroke:#000000; stroke-width:0; stroke-opacity:1; 
stroke-linecap:round; stroke-linejoin:round;">
<path style="fill:#000000; fill-opacity:1.0; 
stroke:#000000; stroke-width:0; stroke-opacity:1; 
stroke-linecap:round; stroke-linejoin:round;fill-rule:evenodd;"
d="M 48731.4,45187.4
48739.7,45188.7
48747.9,45190.7
48755.9,45193.6
48763.5,45197.2
48770.8,45201.5
48777.6,45206.6
48783.8,45212.2
48789.5,45218.5
48794.5,45225.3
48798.9,45232.5
48802.5,45240.2
48805.3,45248.1
48807.4,45256.3
48808.6,45264.7
48809.1,45273.1
48809.1,45445.4
48808.6,45453.8
48807.4,45462.2
48805.3,45470.4
48802.5,45478.3
48798.9,45486
48794.5,45493.2
48789.5,45500
48783.8,45506.3
48777.6,45511.9
48770.8,45517
48763.5,45521.3
48755.9,45524.9
48747.9,45527.8
48739.7,45529.8
48731.4,45531.1
48722.9,45531.5
48521.2,45531.5
48512.7,45531.1
48504.4,45529.8
48496.2,45527.8
48488.2,45524.9
48480.6,45521.3
48473.3,45517
48466.5,45511.9
48460.3,45506.3
48454.6,45500
48449.6,45493.2
48445.2,45486
48441.6,45478.3
48438.7,45470.4
48436.7,45462.2
48435.5,45453.8
48435,45445.4
48435,45273.1
48435.5,45264.7
48436.7,45256.3
48438.7,45248.1
48441.6,45240.2
48445.2,45232.5
48449.6,45225.3
48454.6,45218.5
48460.3,45212.2
48466.5,45206.6
48473.3,45201.5
48480.6,45197.2
48488.2,45193.6
48496.2,45190.7
48504.4,45188.7
48512.7,45187.4
48521.2,45187
48722.9,45187
Z" /> 
<path style="fill:#000000; fill-opacity:1.0; 
stroke:#000000; stroke-width:0; stroke-opacity:1; 
stroke-linecap:round; stroke-linejoin:round;fill-rule:evenodd;"
d="M 48731.4,45807.5
48739.7,45808.7
48747.9,45810.8
48755.9,45813.6
48763.5,45817.3
48770.8,45821.6
48777.6,45826.6
48783.8,45832.3
48789.5,45838.6
48794.5,45845.4
48798.9,45852.6
48802.5,45860.3
48805.3,45868.2
48807.4,45876.4
48808.6,45884.8
48809.1,45893.2
48809.1,46065.5
48808.6,46073.9
48807.4,46082.3
48805.3,46090.5
48802.5,46098.4
48798.9,46106.1
48794.5,46113.3
48789.5,46120.1
48783.8,46126.4
48777.6,46132
48770.8,46137.1
48763.5,46141.4
48755.9,46145
48747.9,46147.9
48739.7,46149.9
48731.4,46151.2
48722.9,46151.6
48521.2,46151.6
48512.7,46151.2
48504.4,46149.9
48496.2,46147.9
48488.2,46145
48480.6,46141.4
48473.3,46137.1
48466.5,46132
48460.3,46126.4
48454.6,46120.1
48449.6,46113.3
48445.2,46106.1
48441.6,46098.4
48438.7,46090.5
48436.7,46082.3
48435.5,46073.9
48435,46065.5
48435,45893.2
48435.5,45884.8
48436.7,45876.4
48438.7,45868.2
48441.6,45860.3
48445.2,45852.6
48449.6,45845.4
48454.6,45838.6
48460.3,45832.3
48466.5,45826.6
48473.3,45821.6
48480.6,45817.3
48488.2,45813.6
48496.2,45810.8
48504.4,45808.7
48512.7,45807.5
48521.2,45807.1
48722.9,45807.1
Z" /> 
</g>
<g >
</g>
<g style="fill:#000000; fill-opacity:1.0; 
stroke:#000000; stroke-width:0; stroke-opacity:1; 
stroke-linecap:round; stroke-linejoin:round;">
<path style="fill:#000000; fill-opacity:1.0; 
stroke:#000000; stroke-width:0; stroke-opacity:1; 
stroke-linecap:round; stroke-linejoin:round;fill-rule:evenodd;"
d="M 53160.5,45089
53168.9,45090.2
53177.1,45092.3
53185,45095.1
53192.7,45098.8
53199.9,45103.1
53206.7,45108.1
53213,45113.8
53218.6,45120.1
53223.7,45126.9
53228,45134.1
53231.6,45141.7
53234.5,45149.7
53236.5,45157.9
53237.8,45166.3
53238.2,45174.7
53238.2,45376.5
53237.8,45384.9
53236.5,45393.3
53234.5,45401.5
53231.6,45409.4
53228,45417.1
53223.7,45424.3
53218.6,45431.1
53213,45437.4
53206.7,45443
53199.9,45448.1
53192.7,45452.4
53185,45456
53177.1,45458.9
53168.9,45460.9
53160.5,45462.2
53152.1,45462.6
52979.8,45462.6
52971.4,45462.2
52963,45460.9
52954.8,45458.9
52946.9,45456
52939.2,45452.4
52932,45448.1
52925.2,45443
52918.9,45437.4
52913.2,45431.1
52908.2,45424.3
52903.9,45417.1
52900.3,45409.4
52897.4,45401.5
52895.4,45393.3
52894.1,45384.9
52893.7,45376.5
52893.7,45174.7
52894.1,45166.3
52895.4,45157.9
52897.4,45149.7
52900.3,45141.7
52903.9,45134.1
52908.2,45126.9
52913.2,45120.1
52918.9,45113.8
52925.2,45108.1
52932,45103.1
52939.2,45098.8
52946.9,45095.1
52954.8,45092.3
52963,45090.2
52971.4,45089
52979.8,45088.6
53152.1,45088.6
Z" /> 
<path style="fill:#000000; fill-opacity:1.0; 
stroke:#000000; stroke-width:0; stroke-opacity:1; 
stroke-linecap:round; stroke-linejoin:round;fill-rule:evenodd;"
d="M 52540.4,45089
52548.8,45090.2
52557,45092.3
52564.9,45095.1
52572.6,45098.8
52579.8,45103.1
52586.6,45108.1
52592.9,45113.8
52598.6,45120.1
52603.6,45126.9
52607.9,45134.1
52611.6,45141.7
52614.4,45149.7
52616.5,45157.9
52617.7,45166.3
52618.1,45174.7
52618.1,45376.5
52617.7,45384.9
52616.5,45393.3
52614.4,45401.5
52611.6,45409.4
52607.9,45417.1
52603.6,45424.3
52598.6,45431.1
52592.9,45437.4
52586.6,45443
52579.8,45448.1
52572.6,45452.4
52564.9,45456
52557,45458.9
52548.8,45460.9
52540.4,45462.2
52532,45462.6
52359.7,45462.6
52351.3,45462.2
52342.9,45460.9
52334.7,45458.9
52326.8,45456
52319.1,45452.4
52311.9,45448.1
52305.1,45443
52298.8,45437.4
52293.2,45431.1
52288.1,45424.3
52283.8,45417.1
52280.2,45409.4
52277.3,45401.5
52275.3,45393.3
52274,45384.9
52273.6,45376.5
52273.6,45174.7
52274,45166.3
52275.3,45157.9
52277.3,45149.7
52280.2,45141.7
52283.8,45134.1
52288.1,45126.9
52293.2,45120.1
52298.8,45113.8
52305.1,45108.1
52311.9,45103.1
52319.1,45098.8
52326.8,45095.1
52334.7,45092.3
52342.9,45090.2
52351.3,45089
52359.7,45088.6
52532,45088.6
Z" /> 
</g>
<g >
</g>
<g style="fill:#000000; fill-opacity:1.0; 
stroke:#000000; stroke-width:0; stroke-opacity:1; 
stroke-linecap:round; stroke-linejoin:round;">
<path style="fill:#000000; fill-opacity:1.0; 
stroke:#000000; stroke-width:0; stroke-opacity:1; 
stroke-linecap:round; stroke-linejoin:round;fill-rule:evenodd;"
d="M 53751.1,45679.5
53759.4,45680.8
53767.6,45682.8
53775.6,45685.7
53783.2,45689.3
53790.5,45693.6
53797.3,45698.7
53803.5,45704.4
53809.2,45710.6
53814.2,45717.4
53818.6,45724.7
53822.2,45732.3
53825,45740.3
53827.1,45748.5
53828.3,45756.8
53828.7,45765.3
53828.7,45967
53828.3,45975.5
53827.1,45983.8
53825,45992
53822.2,46000
53818.6,46007.6
53814.2,46014.9
53809.2,46021.7
53803.5,46027.9
53797.3,46033.6
53790.5,46038.6
53783.2,46043
53775.6,46046.6
53767.6,46049.4
53759.4,46051.5
53751.1,46052.7
53742.6,46053.1
53570.4,46053.1
53561.9,46052.7
53553.6,46051.5
53545.4,46049.4
53537.4,46046.6
53529.8,46043
53522.5,46038.6
53515.7,46033.6
53509.5,46027.9
53503.8,46021.7
53498.8,46014.9
53494.4,46007.6
53490.8,46000
53488,45992
53485.9,45983.8
53484.7,45975.5
53484.3,45967
53484.3,45765.3
53484.7,45756.8
53485.9,45748.5
53488,45740.3
53490.8,45732.3
53494.4,45724.7
53498.8,45717.4
53503.8,45710.6
53509.5,45704.4
53515.7,45698.7
53522.5,45693.6
53529.8,45689.3
53537.4,45685.7
53545.4,45682.8
53553.6,45680.8
53561.9,45679.5
53570.4,45679.1
53742.6,45679.1
Z" /> 
<path style="fill:#000000; fill-opacity:1.0; 
stroke:#000000; stroke-width:0; stroke-opacity:1; 
stroke-linecap:round; stroke-linejoin:round;fill-rule:evenodd;"
d="M 53131,45679.5
53139.3,45680.8
53147.5,45682.8
53155.5,45685.7
53163.1,45689.3
53170.4,45693.6
53177.2,45698.7
53183.4,45704.4
53189.1,45710.6
53194.1,45717.4
53198.5,45724.7
53202.1,45732.3
53205,45740.3
53207,45748.5
53208.2,45756.8
53208.7,45765.3
53208.7,45967
53208.2,45975.5
53207,45983.8
53205,45992
53202.1,46000
53198.5,46007.6
53194.1,46014.9
53189.1,46021.7
53183.4,46027.9
53177.2,46033.6
53170.4,46038.6
53163.1,46043
53155.5,46046.6
53147.5,46049.4
53139.3,46051.5
53131,46052.7
53122.5,46053.1
52950.3,46053.1
52941.9,46052.7
52933.5,46051.5
52925.3,46049.4
52917.3,46046.6
52909.7,46043
52902.4,46038.6
52895.7,46033.6
52889.4,46027.9
52883.7,46021.7
52878.7,46014.9
52874.3,46007.6
52870.7,46000
52867.9,45992
52865.8,45983.8
52864.6,45975.5
52864.2,45967
52864.2,45765.3
52864.6,45756.8
52865.8,45748.5
52867.9,45740.3
52870.7,45732.3
52874.3,45724.7
52878.7,45717.4
52883.7,45710.6
52889.4,45704.4
52895.7,45698.7
52902.4,45693.6
52909.7,45689.3
52917.3,45685.7
52925.3,45682.8
52933.5,45680.8
52941.9,45679.5
52950.3,45679.1
53122.5,45679.1
Z" /> 
</g>
<g >
</g>
<g style="fill:#000000; fill-opacity:1.0; 
stroke:#000000; stroke-width:0; stroke-opacity:1; 
stroke-linecap:round; stroke-linejoin:round;">
<path style="fill:#000000; fill-opacity:1.0; 
stroke:#000000; stroke-width:0; stroke-opacity:1; 
stroke-linecap:round; stroke-linejoin:round;fill-rule:evenodd;"
d="M 55976.2,43294.2
55984.6,43295.4
55992.8,43297.4
56000.7,43300.3
56008.4,43303.9
56015.6,43308.3
56022.4,43313.3
56028.7,43319
56034.4,43325.2
56039.4,43332
56043.7,43339.3
56047.4,43346.9
56050.2,43354.9
56052.3,43363.1
56053.5,43371.4
56053.9,43379.9
56053.9,43581.6
56053.5,43590.1
56052.3,43598.4
56050.2,43606.6
56047.4,43614.6
56043.7,43622.2
56039.4,43629.5
56034.4,43636.3
56028.7,43642.5
56022.4,43648.2
56015.6,43653.2
56008.4,43657.6
56000.7,43661.2
55992.8,43664
55984.6,43666.1
55976.2,43667.3
55967.8,43667.8
55795.5,43667.8
55787.1,43667.3
55778.7,43666.1
55770.5,43664
55762.6,43661.2
55754.9,43657.6
55747.7,43653.2
55740.9,43648.2
55734.6,43642.5
55729,43636.3
55723.9,43629.5
55719.6,43622.2
55716,43614.6
55713.1,43606.6
55711.1,43598.4
55709.8,43590.1
55709.4,43581.6
55709.4,43379.9
55709.8,43371.4
55711.1,43363.1
55713.1,43354.9
55716,43346.9
55719.6,43339.3
55723.9,43332
55729,43325.2
55734.6,43319
55740.9,43313.3
55747.7,43308.3
55754.9,43303.9
55762.6,43300.3
55770.5,43297.4
55778.7,43295.4
55787.1,43294.2
55795.5,43293.7
55967.8,43293.7
Z" /> 
<path style="fill:#000000; fill-opacity:1.0; 
stroke:#000000; stroke-width:0; stroke-opacity:1; 
stroke-linecap:round; stroke-linejoin:round;fill-rule:evenodd;"
d="M 55356.2,43294.2
55364.5,43295.4
55372.7,43297.4
55380.7,43300.3
55388.3,43303.9
55395.6,43308.3
55402.3,43313.3
55408.6,43319
55414.3,43325.2
55419.3,43332
55423.7,43339.3
55427.3,43346.9
55430.1,43354.9
55432.2,43363.1
55433.4,43371.4
55433.8,43379.9
55433.8,43581.6
55433.4,43590.1
55432.2,43598.4
55430.1,43606.6
55427.3,43614.6
55423.7,43622.2
55419.3,43629.5
55414.3,43636.3
55408.6,43642.5
55402.3,43648.2
55395.6,43653.2
55388.3,43657.6
55380.7,43661.2
55372.7,43664
55364.5,43666.1
55356.2,43667.3
55347.7,43667.8
55175.5,43667.8
55167,43667.3
55158.7,43666.1
55150.5,43664
55142.5,43661.2
55134.9,43657.6
55127.6,43653.2
55120.8,43648.2
55114.6,43642.5
55108.9,43636.3
55103.9,43629.5
55099.5,43622.2
55095.9,43614.6
55093.1,43606.6
55091,43598.4
55089.8,43590.1
55089.3,43581.6
55089.3,43379.9
55089.8,43371.4
55091,43363.1
55093.1,43354.9
55095.9,43346.9
55099.5,43339.3
55103.9,43332
55108.9,43325.2
55114.6,43319
55120.8,43313.3
55127.6,43308.3
55134.9,43303.9
55142.5,43300.3
55150.5,43297.4
55158.7,43295.4
55167,43294.2
55175.5,43293.7
55347.7,43293.7
Z" /> 
</g>
<g >
</g>
<g style="fill:#000000; fill-opacity:1.0; 
stroke:#000000; stroke-width:0; stroke-opacity:1; 
stroke-linecap:round; stroke-linejoin:round;">
<path style="fill:#000000; fill-opacity:1.0; 
stroke:#000000; stroke-width:0; stroke-opacity:1; 
stroke-linecap:round; stroke-linejoin:round;fill-rule:evenodd;"
d="M 48996.1,44724.4
48996.1,45039.4
48641.7,45039.4
48641.7,44724.4
Z" /> 
<path style="fill:#000000; fill-opacity:1.0; 
stroke:#000000; stroke-width:0; stroke-opacity:1; 
stroke-linecap:round; stroke-linejoin:round;fill-rule:evenodd;"
d="M 49783.5,44350.4
49783.5,44665.4
49429.1,44665.4
49429.1,44350.4
Z" /> 
<path style="fill:#000000; fill-opacity:1.0; 
stroke:#000000; stroke-width:0; stroke-opacity:1; 
stroke-linecap:round; stroke-linejoin:round;fill-rule:evenodd;"
d="M 49783.5,45098.4
49783.5,45413.4
49429.1,45413.4
49429.1,45098.4
Z" /> 
</g>
<g >
</g>
<g >
</g>
<g >
</g>
</g> 
</svg>
