G04 #@! TF.GenerationSoftware,KiCad,Pcbnew,5.1.5+dfsg1-2~bpo9+1*
G04 #@! TF.CreationDate,2021-01-21T19:04:52-05:00*
G04 #@! TF.ProjectId,delay_line,64656c61-795f-46c6-996e-652e6b696361,rev?*
G04 #@! TF.SameCoordinates,PX4c02020PY5867d60*
G04 #@! TF.FileFunction,Copper,L1,Top*
G04 #@! TF.FilePolarity,Positive*
%FSLAX46Y46*%
G04 Gerber Fmt 4.6, Leading zero omitted, Abs format (unit mm)*
G04 Created by KiCad (PCBNEW 5.1.5+dfsg1-2~bpo9+1) date 2021-01-21 19:04:52*
%MOMM*%
%LPD*%
G04 APERTURE LIST*
%ADD10R,0.797560X1.198880*%
%ADD11R,0.998220X1.099820*%
%ADD12C,0.150000*%
%ADD13R,1.500000X0.600000*%
%ADD14R,1.800000X2.500000*%
%ADD15R,1.550000X0.600000*%
%ADD16R,1.060000X0.650000*%
%ADD17R,2.999740X0.998220*%
%ADD18R,2.470000X2.800000*%
%ADD19R,1.050000X0.600000*%
%ADD20R,0.600000X1.050000*%
%ADD21C,0.500000*%
%ADD22C,2.000000*%
%ADD23C,1.000000*%
%ADD24C,0.750000*%
%ADD25C,0.254000*%
G04 APERTURE END LIST*
D10*
X30600840Y-7300000D03*
X32399160Y-7300000D03*
D11*
X32400000Y-8851640D03*
X32400000Y-10548360D03*
G04 #@! TA.AperFunction,SMDPad,CuDef*
D12*
G36*
X28352691Y-19326053D02*
G01*
X28373926Y-19329203D01*
X28394750Y-19334419D01*
X28414962Y-19341651D01*
X28434368Y-19350830D01*
X28452781Y-19361866D01*
X28470024Y-19374654D01*
X28485930Y-19389070D01*
X28500346Y-19404976D01*
X28513134Y-19422219D01*
X28524170Y-19440632D01*
X28533349Y-19460038D01*
X28540581Y-19480250D01*
X28545797Y-19501074D01*
X28548947Y-19522309D01*
X28550000Y-19543750D01*
X28550000Y-20056250D01*
X28548947Y-20077691D01*
X28545797Y-20098926D01*
X28540581Y-20119750D01*
X28533349Y-20139962D01*
X28524170Y-20159368D01*
X28513134Y-20177781D01*
X28500346Y-20195024D01*
X28485930Y-20210930D01*
X28470024Y-20225346D01*
X28452781Y-20238134D01*
X28434368Y-20249170D01*
X28414962Y-20258349D01*
X28394750Y-20265581D01*
X28373926Y-20270797D01*
X28352691Y-20273947D01*
X28331250Y-20275000D01*
X27893750Y-20275000D01*
X27872309Y-20273947D01*
X27851074Y-20270797D01*
X27830250Y-20265581D01*
X27810038Y-20258349D01*
X27790632Y-20249170D01*
X27772219Y-20238134D01*
X27754976Y-20225346D01*
X27739070Y-20210930D01*
X27724654Y-20195024D01*
X27711866Y-20177781D01*
X27700830Y-20159368D01*
X27691651Y-20139962D01*
X27684419Y-20119750D01*
X27679203Y-20098926D01*
X27676053Y-20077691D01*
X27675000Y-20056250D01*
X27675000Y-19543750D01*
X27676053Y-19522309D01*
X27679203Y-19501074D01*
X27684419Y-19480250D01*
X27691651Y-19460038D01*
X27700830Y-19440632D01*
X27711866Y-19422219D01*
X27724654Y-19404976D01*
X27739070Y-19389070D01*
X27754976Y-19374654D01*
X27772219Y-19361866D01*
X27790632Y-19350830D01*
X27810038Y-19341651D01*
X27830250Y-19334419D01*
X27851074Y-19329203D01*
X27872309Y-19326053D01*
X27893750Y-19325000D01*
X28331250Y-19325000D01*
X28352691Y-19326053D01*
G37*
G04 #@! TD.AperFunction*
G04 #@! TA.AperFunction,SMDPad,CuDef*
G36*
X29927691Y-19326053D02*
G01*
X29948926Y-19329203D01*
X29969750Y-19334419D01*
X29989962Y-19341651D01*
X30009368Y-19350830D01*
X30027781Y-19361866D01*
X30045024Y-19374654D01*
X30060930Y-19389070D01*
X30075346Y-19404976D01*
X30088134Y-19422219D01*
X30099170Y-19440632D01*
X30108349Y-19460038D01*
X30115581Y-19480250D01*
X30120797Y-19501074D01*
X30123947Y-19522309D01*
X30125000Y-19543750D01*
X30125000Y-20056250D01*
X30123947Y-20077691D01*
X30120797Y-20098926D01*
X30115581Y-20119750D01*
X30108349Y-20139962D01*
X30099170Y-20159368D01*
X30088134Y-20177781D01*
X30075346Y-20195024D01*
X30060930Y-20210930D01*
X30045024Y-20225346D01*
X30027781Y-20238134D01*
X30009368Y-20249170D01*
X29989962Y-20258349D01*
X29969750Y-20265581D01*
X29948926Y-20270797D01*
X29927691Y-20273947D01*
X29906250Y-20275000D01*
X29468750Y-20275000D01*
X29447309Y-20273947D01*
X29426074Y-20270797D01*
X29405250Y-20265581D01*
X29385038Y-20258349D01*
X29365632Y-20249170D01*
X29347219Y-20238134D01*
X29329976Y-20225346D01*
X29314070Y-20210930D01*
X29299654Y-20195024D01*
X29286866Y-20177781D01*
X29275830Y-20159368D01*
X29266651Y-20139962D01*
X29259419Y-20119750D01*
X29254203Y-20098926D01*
X29251053Y-20077691D01*
X29250000Y-20056250D01*
X29250000Y-19543750D01*
X29251053Y-19522309D01*
X29254203Y-19501074D01*
X29259419Y-19480250D01*
X29266651Y-19460038D01*
X29275830Y-19440632D01*
X29286866Y-19422219D01*
X29299654Y-19404976D01*
X29314070Y-19389070D01*
X29329976Y-19374654D01*
X29347219Y-19361866D01*
X29365632Y-19350830D01*
X29385038Y-19341651D01*
X29405250Y-19334419D01*
X29426074Y-19329203D01*
X29447309Y-19326053D01*
X29468750Y-19325000D01*
X29906250Y-19325000D01*
X29927691Y-19326053D01*
G37*
G04 #@! TD.AperFunction*
D13*
X14150000Y-20455000D03*
X14150000Y-21725000D03*
X14150000Y-22995000D03*
X14150000Y-24265000D03*
X14150000Y-25535000D03*
X14150000Y-26805000D03*
X14150000Y-28075000D03*
X14150000Y-29345000D03*
X23450000Y-29345000D03*
X23450000Y-28075000D03*
X23450000Y-26805000D03*
X23450000Y-25535000D03*
X23450000Y-24265000D03*
X23450000Y-22995000D03*
X23450000Y-21725000D03*
X23450000Y-20455000D03*
D14*
X33400000Y-24500000D03*
X33400000Y-28500000D03*
G04 #@! TA.AperFunction,SMDPad,CuDef*
D12*
G36*
X21977691Y-11351053D02*
G01*
X21998926Y-11354203D01*
X22019750Y-11359419D01*
X22039962Y-11366651D01*
X22059368Y-11375830D01*
X22077781Y-11386866D01*
X22095024Y-11399654D01*
X22110930Y-11414070D01*
X22125346Y-11429976D01*
X22138134Y-11447219D01*
X22149170Y-11465632D01*
X22158349Y-11485038D01*
X22165581Y-11505250D01*
X22170797Y-11526074D01*
X22173947Y-11547309D01*
X22175000Y-11568750D01*
X22175000Y-12006250D01*
X22173947Y-12027691D01*
X22170797Y-12048926D01*
X22165581Y-12069750D01*
X22158349Y-12089962D01*
X22149170Y-12109368D01*
X22138134Y-12127781D01*
X22125346Y-12145024D01*
X22110930Y-12160930D01*
X22095024Y-12175346D01*
X22077781Y-12188134D01*
X22059368Y-12199170D01*
X22039962Y-12208349D01*
X22019750Y-12215581D01*
X21998926Y-12220797D01*
X21977691Y-12223947D01*
X21956250Y-12225000D01*
X21443750Y-12225000D01*
X21422309Y-12223947D01*
X21401074Y-12220797D01*
X21380250Y-12215581D01*
X21360038Y-12208349D01*
X21340632Y-12199170D01*
X21322219Y-12188134D01*
X21304976Y-12175346D01*
X21289070Y-12160930D01*
X21274654Y-12145024D01*
X21261866Y-12127781D01*
X21250830Y-12109368D01*
X21241651Y-12089962D01*
X21234419Y-12069750D01*
X21229203Y-12048926D01*
X21226053Y-12027691D01*
X21225000Y-12006250D01*
X21225000Y-11568750D01*
X21226053Y-11547309D01*
X21229203Y-11526074D01*
X21234419Y-11505250D01*
X21241651Y-11485038D01*
X21250830Y-11465632D01*
X21261866Y-11447219D01*
X21274654Y-11429976D01*
X21289070Y-11414070D01*
X21304976Y-11399654D01*
X21322219Y-11386866D01*
X21340632Y-11375830D01*
X21360038Y-11366651D01*
X21380250Y-11359419D01*
X21401074Y-11354203D01*
X21422309Y-11351053D01*
X21443750Y-11350000D01*
X21956250Y-11350000D01*
X21977691Y-11351053D01*
G37*
G04 #@! TD.AperFunction*
G04 #@! TA.AperFunction,SMDPad,CuDef*
G36*
X21977691Y-9776053D02*
G01*
X21998926Y-9779203D01*
X22019750Y-9784419D01*
X22039962Y-9791651D01*
X22059368Y-9800830D01*
X22077781Y-9811866D01*
X22095024Y-9824654D01*
X22110930Y-9839070D01*
X22125346Y-9854976D01*
X22138134Y-9872219D01*
X22149170Y-9890632D01*
X22158349Y-9910038D01*
X22165581Y-9930250D01*
X22170797Y-9951074D01*
X22173947Y-9972309D01*
X22175000Y-9993750D01*
X22175000Y-10431250D01*
X22173947Y-10452691D01*
X22170797Y-10473926D01*
X22165581Y-10494750D01*
X22158349Y-10514962D01*
X22149170Y-10534368D01*
X22138134Y-10552781D01*
X22125346Y-10570024D01*
X22110930Y-10585930D01*
X22095024Y-10600346D01*
X22077781Y-10613134D01*
X22059368Y-10624170D01*
X22039962Y-10633349D01*
X22019750Y-10640581D01*
X21998926Y-10645797D01*
X21977691Y-10648947D01*
X21956250Y-10650000D01*
X21443750Y-10650000D01*
X21422309Y-10648947D01*
X21401074Y-10645797D01*
X21380250Y-10640581D01*
X21360038Y-10633349D01*
X21340632Y-10624170D01*
X21322219Y-10613134D01*
X21304976Y-10600346D01*
X21289070Y-10585930D01*
X21274654Y-10570024D01*
X21261866Y-10552781D01*
X21250830Y-10534368D01*
X21241651Y-10514962D01*
X21234419Y-10494750D01*
X21229203Y-10473926D01*
X21226053Y-10452691D01*
X21225000Y-10431250D01*
X21225000Y-9993750D01*
X21226053Y-9972309D01*
X21229203Y-9951074D01*
X21234419Y-9930250D01*
X21241651Y-9910038D01*
X21250830Y-9890632D01*
X21261866Y-9872219D01*
X21274654Y-9854976D01*
X21289070Y-9839070D01*
X21304976Y-9824654D01*
X21322219Y-9811866D01*
X21340632Y-9800830D01*
X21360038Y-9791651D01*
X21380250Y-9784419D01*
X21401074Y-9779203D01*
X21422309Y-9776053D01*
X21443750Y-9775000D01*
X21956250Y-9775000D01*
X21977691Y-9776053D01*
G37*
G04 #@! TD.AperFunction*
D15*
X14400000Y-11295000D03*
X14400000Y-12565000D03*
X14400000Y-13835000D03*
X14400000Y-15105000D03*
X19800000Y-15105000D03*
X19800000Y-13835000D03*
X19800000Y-12565000D03*
X19800000Y-11295000D03*
G04 #@! TA.AperFunction,SMDPad,CuDef*
D12*
G36*
X23777691Y-18551053D02*
G01*
X23798926Y-18554203D01*
X23819750Y-18559419D01*
X23839962Y-18566651D01*
X23859368Y-18575830D01*
X23877781Y-18586866D01*
X23895024Y-18599654D01*
X23910930Y-18614070D01*
X23925346Y-18629976D01*
X23938134Y-18647219D01*
X23949170Y-18665632D01*
X23958349Y-18685038D01*
X23965581Y-18705250D01*
X23970797Y-18726074D01*
X23973947Y-18747309D01*
X23975000Y-18768750D01*
X23975000Y-19206250D01*
X23973947Y-19227691D01*
X23970797Y-19248926D01*
X23965581Y-19269750D01*
X23958349Y-19289962D01*
X23949170Y-19309368D01*
X23938134Y-19327781D01*
X23925346Y-19345024D01*
X23910930Y-19360930D01*
X23895024Y-19375346D01*
X23877781Y-19388134D01*
X23859368Y-19399170D01*
X23839962Y-19408349D01*
X23819750Y-19415581D01*
X23798926Y-19420797D01*
X23777691Y-19423947D01*
X23756250Y-19425000D01*
X23243750Y-19425000D01*
X23222309Y-19423947D01*
X23201074Y-19420797D01*
X23180250Y-19415581D01*
X23160038Y-19408349D01*
X23140632Y-19399170D01*
X23122219Y-19388134D01*
X23104976Y-19375346D01*
X23089070Y-19360930D01*
X23074654Y-19345024D01*
X23061866Y-19327781D01*
X23050830Y-19309368D01*
X23041651Y-19289962D01*
X23034419Y-19269750D01*
X23029203Y-19248926D01*
X23026053Y-19227691D01*
X23025000Y-19206250D01*
X23025000Y-18768750D01*
X23026053Y-18747309D01*
X23029203Y-18726074D01*
X23034419Y-18705250D01*
X23041651Y-18685038D01*
X23050830Y-18665632D01*
X23061866Y-18647219D01*
X23074654Y-18629976D01*
X23089070Y-18614070D01*
X23104976Y-18599654D01*
X23122219Y-18586866D01*
X23140632Y-18575830D01*
X23160038Y-18566651D01*
X23180250Y-18559419D01*
X23201074Y-18554203D01*
X23222309Y-18551053D01*
X23243750Y-18550000D01*
X23756250Y-18550000D01*
X23777691Y-18551053D01*
G37*
G04 #@! TD.AperFunction*
G04 #@! TA.AperFunction,SMDPad,CuDef*
G36*
X23777691Y-16976053D02*
G01*
X23798926Y-16979203D01*
X23819750Y-16984419D01*
X23839962Y-16991651D01*
X23859368Y-17000830D01*
X23877781Y-17011866D01*
X23895024Y-17024654D01*
X23910930Y-17039070D01*
X23925346Y-17054976D01*
X23938134Y-17072219D01*
X23949170Y-17090632D01*
X23958349Y-17110038D01*
X23965581Y-17130250D01*
X23970797Y-17151074D01*
X23973947Y-17172309D01*
X23975000Y-17193750D01*
X23975000Y-17631250D01*
X23973947Y-17652691D01*
X23970797Y-17673926D01*
X23965581Y-17694750D01*
X23958349Y-17714962D01*
X23949170Y-17734368D01*
X23938134Y-17752781D01*
X23925346Y-17770024D01*
X23910930Y-17785930D01*
X23895024Y-17800346D01*
X23877781Y-17813134D01*
X23859368Y-17824170D01*
X23839962Y-17833349D01*
X23819750Y-17840581D01*
X23798926Y-17845797D01*
X23777691Y-17848947D01*
X23756250Y-17850000D01*
X23243750Y-17850000D01*
X23222309Y-17848947D01*
X23201074Y-17845797D01*
X23180250Y-17840581D01*
X23160038Y-17833349D01*
X23140632Y-17824170D01*
X23122219Y-17813134D01*
X23104976Y-17800346D01*
X23089070Y-17785930D01*
X23074654Y-17770024D01*
X23061866Y-17752781D01*
X23050830Y-17734368D01*
X23041651Y-17714962D01*
X23034419Y-17694750D01*
X23029203Y-17673926D01*
X23026053Y-17652691D01*
X23025000Y-17631250D01*
X23025000Y-17193750D01*
X23026053Y-17172309D01*
X23029203Y-17151074D01*
X23034419Y-17130250D01*
X23041651Y-17110038D01*
X23050830Y-17090632D01*
X23061866Y-17072219D01*
X23074654Y-17054976D01*
X23089070Y-17039070D01*
X23104976Y-17024654D01*
X23122219Y-17011866D01*
X23140632Y-17000830D01*
X23160038Y-16991651D01*
X23180250Y-16984419D01*
X23201074Y-16979203D01*
X23222309Y-16976053D01*
X23243750Y-16975000D01*
X23756250Y-16975000D01*
X23777691Y-16976053D01*
G37*
G04 #@! TD.AperFunction*
D16*
X14200000Y-4350000D03*
X14200000Y-5300000D03*
X14200000Y-6250000D03*
X16400000Y-6250000D03*
X16400000Y-4350000D03*
D17*
X7100000Y-15060000D03*
X7100000Y-17600000D03*
X7100000Y-20140000D03*
D16*
X23700000Y-4750000D03*
X23700000Y-5700000D03*
X23700000Y-6650000D03*
X25900000Y-6650000D03*
X25900000Y-4750000D03*
D17*
X7100000Y-23960000D03*
X7100000Y-26500000D03*
X7100000Y-29040000D03*
D18*
X10425000Y-8800000D03*
X15800000Y-8800000D03*
D19*
X23350000Y-13550000D03*
X23350000Y-11650000D03*
X26050000Y-11650000D03*
X26050000Y-12600000D03*
X26050000Y-13550000D03*
D20*
X29050000Y-24450000D03*
X27150000Y-24450000D03*
X27150000Y-21750000D03*
X28100000Y-21750000D03*
X29050000Y-21750000D03*
D21*
X18100000Y-11720000D02*
X18525000Y-11295000D01*
X23450000Y-22995000D02*
X22200000Y-22995000D01*
X23000000Y-20455000D02*
X20045000Y-17500000D01*
X16805000Y-17600000D02*
X14700000Y-17600000D01*
X27300000Y-12574999D02*
X27300000Y-5120000D01*
X24575000Y-2600000D02*
X25900000Y-3925000D01*
X23450000Y-20455000D02*
X23000000Y-20455000D01*
X27025001Y-12574999D02*
X27000000Y-12600000D01*
X18100000Y-15800000D02*
X18100000Y-11720000D01*
X14700000Y-17600000D02*
X14200000Y-17500000D01*
X20975000Y-11295000D02*
X20500000Y-11295000D01*
X22280000Y-12600000D02*
X20975000Y-11295000D01*
X19800000Y-11295000D02*
X18525000Y-11295000D01*
X27300000Y-5120000D02*
X26930000Y-4750000D01*
X22200000Y-22995000D02*
X16805000Y-17600000D01*
X16900000Y-17000000D02*
X18100000Y-15800000D01*
X16400000Y-3525000D02*
X17325000Y-2600000D01*
X16400000Y-4350000D02*
X16400000Y-3525000D01*
X20045000Y-17500000D02*
X14200000Y-17500000D01*
X23500000Y-20405000D02*
X23450000Y-20455000D01*
X17325000Y-2600000D02*
X24575000Y-2600000D01*
X26930000Y-4750000D02*
X25900000Y-4750000D01*
X26050000Y-12600000D02*
X22280000Y-12600000D01*
X14200000Y-17500000D02*
X7100000Y-17600000D01*
X16000000Y-17600000D02*
X14700000Y-17600000D01*
X16600000Y-17000000D02*
X16900000Y-17000000D01*
X23500000Y-18987500D02*
X23500000Y-20405000D01*
X16600000Y-17000000D02*
X16000000Y-17600000D01*
X27000000Y-12600000D02*
X26050000Y-12600000D01*
X25900000Y-3925000D02*
X25900000Y-4750000D01*
X14400000Y-15105000D02*
X7145000Y-15105000D01*
X7145000Y-15105000D02*
X7100000Y-15060000D01*
X28100000Y-21750000D02*
X28100000Y-19812500D01*
D22*
X27625000Y-19225000D02*
X26500000Y-18100000D01*
D21*
X28100000Y-19812500D02*
X28112500Y-19800000D01*
D23*
X28112500Y-19800000D02*
X28112500Y-19325000D01*
X32300000Y-24500000D02*
X37500000Y-24500000D01*
D21*
X33400000Y-24500000D02*
X32300000Y-24500000D01*
X29100000Y-24500000D02*
X29050000Y-24450000D01*
D23*
X37500000Y-24500000D02*
X41300000Y-24500000D01*
D21*
X32300000Y-24500000D02*
X29100000Y-24500000D01*
D23*
X37500000Y-24500000D02*
X38000000Y-24500000D01*
X40700000Y-24500000D02*
X42200000Y-24500000D01*
D21*
X2960130Y-18000000D02*
X5100130Y-20140000D01*
X15639870Y-16200000D02*
X4760130Y-16200000D01*
X16700000Y-15139870D02*
X15639870Y-16200000D01*
X14400000Y-11295000D02*
X15675000Y-11295000D01*
X14150000Y-20455000D02*
X7415000Y-20455000D01*
X7415000Y-20455000D02*
X7100000Y-20140000D01*
X4760130Y-16200000D02*
X2960130Y-18000000D01*
X15675000Y-11295000D02*
X16700000Y-12320000D01*
X16700000Y-12320000D02*
X16700000Y-15139870D01*
X5100130Y-20140000D02*
X7100000Y-20140000D01*
X12900000Y-21725000D02*
X14150000Y-21725000D01*
X11334870Y-21725000D02*
X12900000Y-21725000D01*
X7100000Y-23960000D02*
X9099870Y-23960000D01*
X9099870Y-23960000D02*
X11334870Y-21725000D01*
X9099870Y-26500000D02*
X11334870Y-24265000D01*
X12900000Y-24265000D02*
X14150000Y-24265000D01*
X7100000Y-26500000D02*
X9099870Y-26500000D01*
X11334870Y-24265000D02*
X12900000Y-24265000D01*
X12665000Y-25535000D02*
X14150000Y-25535000D01*
X12200000Y-26000000D02*
X12665000Y-25535000D01*
X10195000Y-29040000D02*
X12200000Y-27035000D01*
X12200000Y-27035000D02*
X12200000Y-26000000D01*
X7100000Y-29040000D02*
X10195000Y-29040000D01*
X27125000Y-21725000D02*
X27150000Y-21750000D01*
X23450000Y-21725000D02*
X27125000Y-21725000D01*
X20100000Y-3900000D02*
X18700000Y-5300000D01*
X18700000Y-5300000D02*
X15230000Y-5300000D01*
X13765000Y-12565000D02*
X14400000Y-12565000D01*
X13125000Y-11925000D02*
X13765000Y-12565000D01*
X23700000Y-3925000D02*
X23675000Y-3900000D01*
X23675000Y-3900000D02*
X20100000Y-3900000D01*
X23700000Y-4750000D02*
X23700000Y-3925000D01*
X15230000Y-5300000D02*
X14200000Y-5300000D01*
X13484998Y-5300000D02*
X13125000Y-5659998D01*
X14200000Y-5300000D02*
X13484998Y-5300000D01*
X13125000Y-5659998D02*
X13125000Y-11925000D01*
X14200000Y-4350000D02*
X14200000Y-5300000D01*
X16400000Y-6250000D02*
X20450000Y-6250000D01*
X20450000Y-6250000D02*
X21000000Y-5700000D01*
X23024961Y-5700000D02*
X23700000Y-5700000D01*
X21000000Y-5700000D02*
X23024961Y-5700000D01*
X25900000Y-11500000D02*
X26050000Y-11650000D01*
X25900000Y-8750000D02*
X25900000Y-11500000D01*
X25900000Y-8750000D02*
X25900000Y-6650000D01*
D23*
X30800000Y-13600000D02*
X30800000Y-15100000D01*
X39800000Y-6800000D02*
X33000000Y-6800000D01*
X32400000Y-12000000D02*
X30800000Y-13600000D01*
X33000000Y-6800000D02*
X32400000Y-7400000D01*
D24*
X32399160Y-8850800D02*
X32400000Y-8851640D01*
X32399160Y-7300000D02*
X32399160Y-8850800D01*
D23*
X39000000Y-6800000D02*
X42000000Y-6800000D01*
D24*
X32400000Y-10548360D02*
X32400000Y-12000000D01*
D21*
X23350000Y-13550000D02*
X23350000Y-14350000D01*
D23*
X24100000Y-15100000D02*
X23350000Y-14350000D01*
X30800000Y-15100000D02*
X24100000Y-15100000D01*
D25*
G36*
X42622616Y-201925D02*
G01*
X42605539Y-5845776D01*
X42433371Y-5753750D01*
X42220931Y-5689307D01*
X42055365Y-5673000D01*
X33055354Y-5673000D01*
X32999999Y-5667548D01*
X32944645Y-5673000D01*
X32944635Y-5673000D01*
X32779069Y-5689307D01*
X32566629Y-5753750D01*
X32370843Y-5858400D01*
X32199235Y-5999235D01*
X32163940Y-6042242D01*
X32135655Y-6070527D01*
X32000380Y-6070527D01*
X31877467Y-6082633D01*
X31759277Y-6118485D01*
X31650352Y-6176707D01*
X31554879Y-6255059D01*
X31476527Y-6350532D01*
X31418305Y-6459457D01*
X31382453Y-6577647D01*
X31370347Y-6700560D01*
X31370347Y-6935579D01*
X31353750Y-6966630D01*
X31289308Y-7179070D01*
X31267548Y-7400000D01*
X31289308Y-7620930D01*
X31353750Y-7833370D01*
X31370347Y-7864421D01*
X31370347Y-7899440D01*
X31375734Y-7954139D01*
X31318815Y-8060627D01*
X31282963Y-8178817D01*
X31270857Y-8301730D01*
X31270857Y-9401550D01*
X31282963Y-9524463D01*
X31318815Y-9642653D01*
X31349468Y-9700000D01*
X31318815Y-9757347D01*
X31282963Y-9875537D01*
X31270857Y-9998450D01*
X31270857Y-11098270D01*
X31282963Y-11221183D01*
X31318815Y-11339373D01*
X31370365Y-11435816D01*
X30042241Y-12763941D01*
X29999235Y-12799235D01*
X29858400Y-12970843D01*
X29753750Y-13166630D01*
X29689307Y-13379070D01*
X29673000Y-13544636D01*
X29673000Y-13544646D01*
X29667548Y-13600000D01*
X29673000Y-13655354D01*
X29673000Y-13973000D01*
X27192901Y-13973000D01*
X27192927Y-13972913D01*
X27205033Y-13850000D01*
X27205033Y-13454266D01*
X27223392Y-13448697D01*
X27300000Y-13456242D01*
X27471921Y-13439309D01*
X27637236Y-13389161D01*
X27789591Y-13307726D01*
X27923133Y-13198132D01*
X28032727Y-13064591D01*
X28114162Y-12912236D01*
X28164310Y-12746921D01*
X28177000Y-12618078D01*
X28177000Y-5163079D01*
X28181243Y-5119999D01*
X28164310Y-4948077D01*
X28114162Y-4782763D01*
X28096650Y-4750000D01*
X28032727Y-4630408D01*
X27923133Y-4496867D01*
X27889668Y-4469403D01*
X27580597Y-4160332D01*
X27553133Y-4126867D01*
X27419592Y-4017273D01*
X27267237Y-3935838D01*
X27101922Y-3885690D01*
X26973079Y-3873000D01*
X26930000Y-3868757D01*
X26886921Y-3873000D01*
X26776121Y-3873000D01*
X26764310Y-3753077D01*
X26714162Y-3587763D01*
X26686408Y-3535838D01*
X26632727Y-3435408D01*
X26565161Y-3353078D01*
X26550594Y-3335328D01*
X26550592Y-3335326D01*
X26523133Y-3301867D01*
X26489675Y-3274409D01*
X25225597Y-2010331D01*
X25198133Y-1976867D01*
X25064592Y-1867273D01*
X24912237Y-1785838D01*
X24746922Y-1735690D01*
X24618079Y-1723000D01*
X24575000Y-1718757D01*
X24531921Y-1723000D01*
X17368079Y-1723000D01*
X17325000Y-1718757D01*
X17153077Y-1735690D01*
X16987763Y-1785838D01*
X16835408Y-1867273D01*
X16701867Y-1976867D01*
X16674403Y-2010332D01*
X15810327Y-2874408D01*
X15776868Y-2901867D01*
X15749409Y-2935326D01*
X15749406Y-2935329D01*
X15667274Y-3035408D01*
X15585838Y-3187764D01*
X15535690Y-3353078D01*
X15521169Y-3500507D01*
X15519972Y-3501147D01*
X15424499Y-3579499D01*
X15346147Y-3674972D01*
X15300000Y-3761306D01*
X15253853Y-3674972D01*
X15175501Y-3579499D01*
X15080028Y-3501147D01*
X14971103Y-3442925D01*
X14852913Y-3407073D01*
X14730000Y-3394967D01*
X13670000Y-3394967D01*
X13547087Y-3407073D01*
X13428897Y-3442925D01*
X13319972Y-3501147D01*
X13224499Y-3579499D01*
X13146147Y-3674972D01*
X13087925Y-3783897D01*
X13052073Y-3902087D01*
X13039967Y-4025000D01*
X13039967Y-4543455D01*
X12995406Y-4567273D01*
X12861865Y-4676867D01*
X12834404Y-4710329D01*
X12535332Y-5009401D01*
X12501867Y-5036865D01*
X12392273Y-5170407D01*
X12323004Y-5300001D01*
X12310838Y-5322762D01*
X12260690Y-5488076D01*
X12243757Y-5659998D01*
X12248000Y-5703078D01*
X12248001Y-11881910D01*
X12243757Y-11925000D01*
X12260690Y-12096922D01*
X12310838Y-12262236D01*
X12392274Y-12414592D01*
X12474406Y-12514671D01*
X12474409Y-12514674D01*
X12501868Y-12548133D01*
X12535327Y-12575592D01*
X13032948Y-13073213D01*
X13042925Y-13106103D01*
X13093114Y-13200000D01*
X13042925Y-13293897D01*
X13007073Y-13412087D01*
X12994967Y-13535000D01*
X12994967Y-14135000D01*
X13007073Y-14257913D01*
X13042925Y-14376103D01*
X13101147Y-14485028D01*
X13179499Y-14580501D01*
X13274972Y-14658853D01*
X13383897Y-14717075D01*
X13502087Y-14752927D01*
X13625000Y-14765033D01*
X15175000Y-14765033D01*
X15297913Y-14752927D01*
X15416103Y-14717075D01*
X15525028Y-14658853D01*
X15620501Y-14580501D01*
X15698853Y-14485028D01*
X15757075Y-14376103D01*
X15792927Y-14257913D01*
X15805033Y-14135000D01*
X15805033Y-13535000D01*
X15792927Y-13412087D01*
X15757075Y-13293897D01*
X15706886Y-13200000D01*
X15757075Y-13106103D01*
X15792927Y-12987913D01*
X15805033Y-12865000D01*
X15805033Y-12665299D01*
X15823000Y-12683266D01*
X15823001Y-14776604D01*
X15276605Y-15323000D01*
X4803199Y-15323000D01*
X4760129Y-15318758D01*
X4717060Y-15323000D01*
X4717051Y-15323000D01*
X4588208Y-15335690D01*
X4422893Y-15385838D01*
X4270538Y-15467273D01*
X4136997Y-15576867D01*
X4109536Y-15610329D01*
X2370453Y-17349412D01*
X2336998Y-17376868D01*
X2309542Y-17410323D01*
X2309536Y-17410329D01*
X2235946Y-17500000D01*
X2227404Y-17510408D01*
X2145968Y-17662764D01*
X2095820Y-17828078D01*
X2078887Y-18000000D01*
X2095820Y-18171922D01*
X2145968Y-18337236D01*
X2227404Y-18489592D01*
X2309536Y-18589671D01*
X2309542Y-18589677D01*
X2336998Y-18623132D01*
X2370453Y-18650588D01*
X4449538Y-20729674D01*
X4476997Y-20763133D01*
X4610538Y-20872727D01*
X4681841Y-20910839D01*
X4762893Y-20954162D01*
X4928207Y-21004310D01*
X5100129Y-21021243D01*
X5102438Y-21021016D01*
X5154629Y-21084611D01*
X5250102Y-21162963D01*
X5359027Y-21221185D01*
X5477217Y-21257037D01*
X5600130Y-21269143D01*
X7077727Y-21269143D01*
X7077763Y-21269162D01*
X7243078Y-21319310D01*
X7371921Y-21332000D01*
X7371930Y-21332000D01*
X7414999Y-21336242D01*
X7458069Y-21332000D01*
X10487605Y-21332000D01*
X8906021Y-22913584D01*
X8840973Y-22878815D01*
X8722783Y-22842963D01*
X8599870Y-22830857D01*
X5600130Y-22830857D01*
X5477217Y-22842963D01*
X5359027Y-22878815D01*
X5250102Y-22937037D01*
X5154629Y-23015389D01*
X5076277Y-23110862D01*
X5018055Y-23219787D01*
X4982203Y-23337977D01*
X4970097Y-23460890D01*
X4970097Y-24459110D01*
X4982203Y-24582023D01*
X5018055Y-24700213D01*
X5076277Y-24809138D01*
X5154629Y-24904611D01*
X5250102Y-24982963D01*
X5359027Y-25041185D01*
X5477217Y-25077037D01*
X5600130Y-25089143D01*
X8599870Y-25089143D01*
X8722783Y-25077037D01*
X8840973Y-25041185D01*
X8949898Y-24982963D01*
X9045371Y-24904611D01*
X9097562Y-24841016D01*
X9099870Y-24841243D01*
X9142949Y-24837000D01*
X9271792Y-24824310D01*
X9437107Y-24774162D01*
X9589462Y-24692727D01*
X9723003Y-24583133D01*
X9750467Y-24549668D01*
X11698135Y-22602000D01*
X12779127Y-22602000D01*
X12769967Y-22695000D01*
X12769967Y-23295000D01*
X12779127Y-23388000D01*
X11377939Y-23388000D01*
X11334869Y-23383758D01*
X11291800Y-23388000D01*
X11291791Y-23388000D01*
X11162948Y-23400690D01*
X10997633Y-23450838D01*
X10845278Y-23532273D01*
X10711737Y-23641867D01*
X10684273Y-23675332D01*
X8906021Y-25453584D01*
X8840973Y-25418815D01*
X8722783Y-25382963D01*
X8599870Y-25370857D01*
X5600130Y-25370857D01*
X5477217Y-25382963D01*
X5359027Y-25418815D01*
X5250102Y-25477037D01*
X5154629Y-25555389D01*
X5076277Y-25650862D01*
X5018055Y-25759787D01*
X4982203Y-25877977D01*
X4970097Y-26000890D01*
X4970097Y-26999110D01*
X4982203Y-27122023D01*
X5018055Y-27240213D01*
X5076277Y-27349138D01*
X5154629Y-27444611D01*
X5250102Y-27522963D01*
X5359027Y-27581185D01*
X5477217Y-27617037D01*
X5600130Y-27629143D01*
X8599870Y-27629143D01*
X8722783Y-27617037D01*
X8840973Y-27581185D01*
X8949898Y-27522963D01*
X9045371Y-27444611D01*
X9097562Y-27381016D01*
X9099870Y-27381243D01*
X9142949Y-27377000D01*
X9191309Y-27372237D01*
X9271792Y-27364310D01*
X9331812Y-27346103D01*
X9437107Y-27314162D01*
X9589462Y-27232727D01*
X9723003Y-27123133D01*
X9750467Y-27089668D01*
X11698135Y-25142000D01*
X11817736Y-25142000D01*
X11610328Y-25349407D01*
X11576868Y-25376867D01*
X11549409Y-25410326D01*
X11549406Y-25410329D01*
X11467274Y-25510408D01*
X11385838Y-25662764D01*
X11335690Y-25828078D01*
X11318757Y-26000000D01*
X11323001Y-26043089D01*
X11323000Y-26671735D01*
X9831735Y-28163000D01*
X9100857Y-28163000D01*
X9045371Y-28095389D01*
X8949898Y-28017037D01*
X8840973Y-27958815D01*
X8722783Y-27922963D01*
X8599870Y-27910857D01*
X5600130Y-27910857D01*
X5477217Y-27922963D01*
X5359027Y-27958815D01*
X5250102Y-28017037D01*
X5154629Y-28095389D01*
X5076277Y-28190862D01*
X5018055Y-28299787D01*
X4982203Y-28417977D01*
X4970097Y-28540890D01*
X4970097Y-29539110D01*
X4982203Y-29662023D01*
X5018055Y-29780213D01*
X5076277Y-29889138D01*
X5154629Y-29984611D01*
X5250102Y-30062963D01*
X5359027Y-30121185D01*
X5477217Y-30157037D01*
X5600130Y-30169143D01*
X8599870Y-30169143D01*
X8722783Y-30157037D01*
X8840973Y-30121185D01*
X8949898Y-30062963D01*
X9045371Y-29984611D01*
X9100857Y-29917000D01*
X10151921Y-29917000D01*
X10195000Y-29921243D01*
X10238079Y-29917000D01*
X10366922Y-29904310D01*
X10532237Y-29854162D01*
X10684592Y-29772727D01*
X10818133Y-29663133D01*
X10845597Y-29629668D01*
X12777582Y-27697683D01*
X12769967Y-27775000D01*
X12769967Y-28375000D01*
X12782073Y-28497913D01*
X12817925Y-28616103D01*
X12876147Y-28725028D01*
X12954499Y-28820501D01*
X13049972Y-28898853D01*
X13158897Y-28957075D01*
X13277087Y-28992927D01*
X13400000Y-29005033D01*
X14900000Y-29005033D01*
X15022913Y-28992927D01*
X15141103Y-28957075D01*
X15250028Y-28898853D01*
X15345501Y-28820501D01*
X15423853Y-28725028D01*
X15482075Y-28616103D01*
X15517927Y-28497913D01*
X15530033Y-28375000D01*
X15530033Y-27775000D01*
X15517927Y-27652087D01*
X15482075Y-27533897D01*
X15431886Y-27440000D01*
X15482075Y-27346103D01*
X15517927Y-27227913D01*
X15530033Y-27105000D01*
X15530033Y-26505000D01*
X15517927Y-26382087D01*
X15482075Y-26263897D01*
X15431886Y-26170000D01*
X15482075Y-26076103D01*
X15517927Y-25957913D01*
X15530033Y-25835000D01*
X15530033Y-25235000D01*
X15517927Y-25112087D01*
X15482075Y-24993897D01*
X15431886Y-24900000D01*
X15482075Y-24806103D01*
X15517927Y-24687913D01*
X15530033Y-24565000D01*
X15530033Y-23965000D01*
X15517927Y-23842087D01*
X15482075Y-23723897D01*
X15431886Y-23630000D01*
X15482075Y-23536103D01*
X15517927Y-23417913D01*
X15530033Y-23295000D01*
X15530033Y-22695000D01*
X15517927Y-22572087D01*
X15482075Y-22453897D01*
X15431886Y-22360000D01*
X15482075Y-22266103D01*
X15517927Y-22147913D01*
X15530033Y-22025000D01*
X15530033Y-21425000D01*
X15517927Y-21302087D01*
X15482075Y-21183897D01*
X15431886Y-21090000D01*
X15482075Y-20996103D01*
X15517927Y-20877913D01*
X15530033Y-20755000D01*
X15530033Y-20155000D01*
X15517927Y-20032087D01*
X15482075Y-19913897D01*
X15423853Y-19804972D01*
X15345501Y-19709499D01*
X15250028Y-19631147D01*
X15141103Y-19572925D01*
X15022913Y-19537073D01*
X14900000Y-19524967D01*
X13400000Y-19524967D01*
X13277087Y-19537073D01*
X13158897Y-19572925D01*
X13149402Y-19578000D01*
X9223709Y-19578000D01*
X9217797Y-19517977D01*
X9181945Y-19399787D01*
X9123723Y-19290862D01*
X9045371Y-19195389D01*
X8949898Y-19117037D01*
X8840973Y-19058815D01*
X8722783Y-19022963D01*
X8599870Y-19010857D01*
X5600130Y-19010857D01*
X5477217Y-19022963D01*
X5359027Y-19058815D01*
X5293980Y-19093584D01*
X4200395Y-18000000D01*
X4970097Y-17230298D01*
X4970097Y-18099110D01*
X4982203Y-18222023D01*
X5018055Y-18340213D01*
X5076277Y-18449138D01*
X5154629Y-18544611D01*
X5250102Y-18622963D01*
X5359027Y-18681185D01*
X5477217Y-18717037D01*
X5600130Y-18729143D01*
X8599870Y-18729143D01*
X8722783Y-18717037D01*
X8840973Y-18681185D01*
X8949898Y-18622963D01*
X9045371Y-18544611D01*
X9123723Y-18449138D01*
X9124022Y-18448579D01*
X14119281Y-18378224D01*
X14486210Y-18451609D01*
X14528078Y-18464310D01*
X14614117Y-18472784D01*
X14699078Y-18481242D01*
X14742614Y-18477000D01*
X15956921Y-18477000D01*
X16000000Y-18481243D01*
X16043079Y-18477000D01*
X16441735Y-18477000D01*
X21549403Y-23584668D01*
X21576867Y-23618133D01*
X21710408Y-23727727D01*
X21862763Y-23809162D01*
X22028078Y-23859310D01*
X22079874Y-23864412D01*
X22069967Y-23965000D01*
X22069967Y-24565000D01*
X22082073Y-24687913D01*
X22117925Y-24806103D01*
X22168114Y-24900000D01*
X22117925Y-24993897D01*
X22082073Y-25112087D01*
X22069967Y-25235000D01*
X22069967Y-25835000D01*
X22082073Y-25957913D01*
X22117925Y-26076103D01*
X22168114Y-26170000D01*
X22117925Y-26263897D01*
X22082073Y-26382087D01*
X22069967Y-26505000D01*
X22069967Y-27105000D01*
X22082073Y-27227913D01*
X22117925Y-27346103D01*
X22168114Y-27440000D01*
X22117925Y-27533897D01*
X22082073Y-27652087D01*
X22069967Y-27775000D01*
X22069967Y-28375000D01*
X22082073Y-28497913D01*
X22117925Y-28616103D01*
X22168114Y-28710000D01*
X22117925Y-28803897D01*
X22082073Y-28922087D01*
X22069967Y-29045000D01*
X22069967Y-29645000D01*
X22082073Y-29767913D01*
X22117925Y-29886103D01*
X22176147Y-29995028D01*
X22254499Y-30090501D01*
X22349972Y-30168853D01*
X22458897Y-30227075D01*
X22577087Y-30262927D01*
X22700000Y-30275033D01*
X24200000Y-30275033D01*
X24322913Y-30262927D01*
X24441103Y-30227075D01*
X24550028Y-30168853D01*
X24645501Y-30090501D01*
X24723853Y-29995028D01*
X24782075Y-29886103D01*
X24817927Y-29767913D01*
X24830033Y-29645000D01*
X24830033Y-29045000D01*
X24817927Y-28922087D01*
X24782075Y-28803897D01*
X24731886Y-28710000D01*
X24782075Y-28616103D01*
X24817927Y-28497913D01*
X24830033Y-28375000D01*
X24830033Y-27775000D01*
X24817927Y-27652087D01*
X24782075Y-27533897D01*
X24731886Y-27440000D01*
X24782075Y-27346103D01*
X24817927Y-27227913D01*
X24830033Y-27105000D01*
X24830033Y-26505000D01*
X24817927Y-26382087D01*
X24782075Y-26263897D01*
X24731886Y-26170000D01*
X24782075Y-26076103D01*
X24817927Y-25957913D01*
X24830033Y-25835000D01*
X24830033Y-25235000D01*
X24817927Y-25112087D01*
X24782075Y-24993897D01*
X24731886Y-24900000D01*
X24782075Y-24806103D01*
X24817927Y-24687913D01*
X24830033Y-24565000D01*
X24830033Y-23965000D01*
X24817927Y-23842087D01*
X24782075Y-23723897D01*
X24731886Y-23630000D01*
X24782075Y-23536103D01*
X24817927Y-23417913D01*
X24830033Y-23295000D01*
X24830033Y-22695000D01*
X24820873Y-22602000D01*
X26313838Y-22602000D01*
X26326147Y-22625028D01*
X26404499Y-22720501D01*
X26499972Y-22798853D01*
X26608897Y-22857075D01*
X26727087Y-22892927D01*
X26850000Y-22905033D01*
X27450000Y-22905033D01*
X27572913Y-22892927D01*
X27625000Y-22877127D01*
X27677087Y-22892927D01*
X27800000Y-22905033D01*
X28400000Y-22905033D01*
X28522913Y-22892927D01*
X28575000Y-22877127D01*
X28627087Y-22892927D01*
X28750000Y-22905033D01*
X29350000Y-22905033D01*
X29472913Y-22892927D01*
X29591103Y-22857075D01*
X29700028Y-22798853D01*
X29795501Y-22720501D01*
X29873853Y-22625028D01*
X29932075Y-22516103D01*
X29967927Y-22397913D01*
X29980033Y-22275000D01*
X29980033Y-21225000D01*
X29967927Y-21102087D01*
X29932075Y-20983897D01*
X29873853Y-20874972D01*
X29795501Y-20779499D01*
X29700028Y-20701147D01*
X29591103Y-20642925D01*
X29472913Y-20607073D01*
X29350000Y-20594967D01*
X28981872Y-20594967D01*
X29036987Y-20527809D01*
X29115423Y-20381065D01*
X29163724Y-20221839D01*
X29164434Y-20214635D01*
X29223193Y-20020931D01*
X29239500Y-19855365D01*
X29239500Y-19431827D01*
X29259871Y-19224999D01*
X29228457Y-18906052D01*
X29135424Y-18599360D01*
X28984346Y-18316714D01*
X28831978Y-18131052D01*
X27593947Y-16893022D01*
X27408285Y-16740654D01*
X27125638Y-16589576D01*
X26818947Y-16496543D01*
X26500000Y-16465129D01*
X26181053Y-16496543D01*
X25874362Y-16589576D01*
X25591715Y-16740654D01*
X25343971Y-16943971D01*
X25140654Y-17191715D01*
X24989576Y-17474362D01*
X24896543Y-17781053D01*
X24865129Y-18100000D01*
X24896543Y-18418947D01*
X24989576Y-18725638D01*
X25140654Y-19008285D01*
X25293022Y-19193947D01*
X26531052Y-20431978D01*
X26716714Y-20584346D01*
X26754231Y-20604399D01*
X26727087Y-20607073D01*
X26608897Y-20642925D01*
X26499972Y-20701147D01*
X26404499Y-20779499D01*
X26348282Y-20848000D01*
X24820873Y-20848000D01*
X24830033Y-20755000D01*
X24830033Y-20155000D01*
X24817927Y-20032087D01*
X24782075Y-19913897D01*
X24723853Y-19804972D01*
X24645501Y-19709499D01*
X24550028Y-19631147D01*
X24500950Y-19604914D01*
X24540423Y-19531065D01*
X24588724Y-19371839D01*
X24605033Y-19206250D01*
X24605033Y-18768750D01*
X24588724Y-18603161D01*
X24540423Y-18443935D01*
X24461987Y-18297191D01*
X24356430Y-18168570D01*
X24227809Y-18063013D01*
X24081065Y-17984577D01*
X23921839Y-17936276D01*
X23756250Y-17919967D01*
X23243750Y-17919967D01*
X23078161Y-17936276D01*
X22918935Y-17984577D01*
X22772191Y-18063013D01*
X22643570Y-18168570D01*
X22538013Y-18297191D01*
X22459577Y-18443935D01*
X22411276Y-18603161D01*
X22409227Y-18623962D01*
X20695597Y-16910332D01*
X20668133Y-16876867D01*
X20534592Y-16767273D01*
X20382237Y-16685838D01*
X20216922Y-16635690D01*
X20215105Y-16635511D01*
X20045000Y-16618757D01*
X20001921Y-16623000D01*
X18517265Y-16623000D01*
X18689669Y-16450596D01*
X18723133Y-16423133D01*
X18832727Y-16289592D01*
X18914162Y-16137237D01*
X18947481Y-16027398D01*
X19025000Y-16035033D01*
X20575000Y-16035033D01*
X20697913Y-16022927D01*
X20816103Y-15987075D01*
X20925028Y-15928853D01*
X21020501Y-15850501D01*
X21098853Y-15755028D01*
X21157075Y-15646103D01*
X21192927Y-15527913D01*
X21205033Y-15405000D01*
X21205033Y-14805000D01*
X21192927Y-14682087D01*
X21157075Y-14563897D01*
X21106886Y-14470000D01*
X21157075Y-14376103D01*
X21192927Y-14257913D01*
X21205033Y-14135000D01*
X21205033Y-13535000D01*
X21192927Y-13412087D01*
X21157075Y-13293897D01*
X21106886Y-13200000D01*
X21157075Y-13106103D01*
X21192927Y-12987913D01*
X21205033Y-12865000D01*
X21205033Y-12816541D01*
X21278161Y-12838724D01*
X21278492Y-12838757D01*
X21629403Y-13189668D01*
X21656867Y-13223133D01*
X21790408Y-13332727D01*
X21895413Y-13388853D01*
X21942763Y-13414162D01*
X22108077Y-13464310D01*
X22194967Y-13472868D01*
X22194967Y-13850000D01*
X22207073Y-13972913D01*
X22242925Y-14091103D01*
X22247965Y-14100532D01*
X22239308Y-14129070D01*
X22217548Y-14350000D01*
X22239308Y-14570930D01*
X22303750Y-14783370D01*
X22408400Y-14979156D01*
X22513942Y-15107760D01*
X23263940Y-15857758D01*
X23299235Y-15900765D01*
X23470843Y-16041600D01*
X23666629Y-16146250D01*
X23879069Y-16210693D01*
X24044635Y-16227000D01*
X24044645Y-16227000D01*
X24099999Y-16232452D01*
X24155354Y-16227000D01*
X30744636Y-16227000D01*
X30800000Y-16232453D01*
X31020931Y-16210693D01*
X31233371Y-16146250D01*
X31429157Y-16041600D01*
X31600765Y-15900765D01*
X31741600Y-15729157D01*
X31846250Y-15533371D01*
X31910693Y-15320931D01*
X31927000Y-15155365D01*
X31932453Y-15100000D01*
X31927000Y-15044635D01*
X31927000Y-14066818D01*
X33236058Y-12757761D01*
X33341600Y-12629157D01*
X33446250Y-12433371D01*
X33510693Y-12220931D01*
X33532452Y-12000000D01*
X33510693Y-11779070D01*
X33446250Y-11566629D01*
X33402000Y-11483844D01*
X33402000Y-11473842D01*
X33422963Y-11448298D01*
X33481185Y-11339373D01*
X33517037Y-11221183D01*
X33529143Y-11098270D01*
X33529143Y-9998450D01*
X33517037Y-9875537D01*
X33481185Y-9757347D01*
X33450532Y-9700000D01*
X33481185Y-9642653D01*
X33517037Y-9524463D01*
X33529143Y-9401550D01*
X33529143Y-8301730D01*
X33517037Y-8178817D01*
X33481185Y-8060627D01*
X33429635Y-7964183D01*
X33466818Y-7927000D01*
X42055365Y-7927000D01*
X42220931Y-7910693D01*
X42433371Y-7846250D01*
X42599755Y-7757316D01*
X42552337Y-23429168D01*
X42420931Y-23389307D01*
X42255365Y-23373000D01*
X34930033Y-23373000D01*
X34930033Y-23250000D01*
X34917927Y-23127087D01*
X34882075Y-23008897D01*
X34823853Y-22899972D01*
X34745501Y-22804499D01*
X34650028Y-22726147D01*
X34541103Y-22667925D01*
X34422913Y-22632073D01*
X34300000Y-22619967D01*
X32500000Y-22619967D01*
X32377087Y-22632073D01*
X32258897Y-22667925D01*
X32149972Y-22726147D01*
X32054499Y-22804499D01*
X31976147Y-22899972D01*
X31917925Y-23008897D01*
X31882073Y-23127087D01*
X31869967Y-23250000D01*
X31869967Y-23452737D01*
X31866629Y-23453750D01*
X31670843Y-23558400D01*
X31592128Y-23623000D01*
X29899525Y-23623000D01*
X29873853Y-23574972D01*
X29795501Y-23479499D01*
X29700028Y-23401147D01*
X29591103Y-23342925D01*
X29472913Y-23307073D01*
X29350000Y-23294967D01*
X28750000Y-23294967D01*
X28627087Y-23307073D01*
X28508897Y-23342925D01*
X28399972Y-23401147D01*
X28304499Y-23479499D01*
X28226147Y-23574972D01*
X28167925Y-23683897D01*
X28132073Y-23802087D01*
X28119967Y-23925000D01*
X28119967Y-24975000D01*
X28132073Y-25097913D01*
X28167925Y-25216103D01*
X28226147Y-25325028D01*
X28304499Y-25420501D01*
X28399972Y-25498853D01*
X28508897Y-25557075D01*
X28627087Y-25592927D01*
X28750000Y-25605033D01*
X29350000Y-25605033D01*
X29472913Y-25592927D01*
X29591103Y-25557075D01*
X29700028Y-25498853D01*
X29795501Y-25420501D01*
X29831201Y-25377000D01*
X31592128Y-25377000D01*
X31670843Y-25441600D01*
X31866629Y-25546250D01*
X31869967Y-25547263D01*
X31869967Y-25750000D01*
X31882073Y-25872913D01*
X31917925Y-25991103D01*
X31976147Y-26100028D01*
X32054499Y-26195501D01*
X32149972Y-26273853D01*
X32258897Y-26332075D01*
X32377087Y-26367927D01*
X32500000Y-26380033D01*
X34300000Y-26380033D01*
X34422913Y-26367927D01*
X34541103Y-26332075D01*
X34650028Y-26273853D01*
X34745501Y-26195501D01*
X34823853Y-26100028D01*
X34882075Y-25991103D01*
X34917927Y-25872913D01*
X34930033Y-25750000D01*
X34930033Y-25627000D01*
X42255365Y-25627000D01*
X42420931Y-25610693D01*
X42545850Y-25572799D01*
X42523384Y-32997926D01*
X77384Y-32973075D01*
X176616Y-177074D01*
X42622616Y-201925D01*
G37*
X42622616Y-201925D02*
X42605539Y-5845776D01*
X42433371Y-5753750D01*
X42220931Y-5689307D01*
X42055365Y-5673000D01*
X33055354Y-5673000D01*
X32999999Y-5667548D01*
X32944645Y-5673000D01*
X32944635Y-5673000D01*
X32779069Y-5689307D01*
X32566629Y-5753750D01*
X32370843Y-5858400D01*
X32199235Y-5999235D01*
X32163940Y-6042242D01*
X32135655Y-6070527D01*
X32000380Y-6070527D01*
X31877467Y-6082633D01*
X31759277Y-6118485D01*
X31650352Y-6176707D01*
X31554879Y-6255059D01*
X31476527Y-6350532D01*
X31418305Y-6459457D01*
X31382453Y-6577647D01*
X31370347Y-6700560D01*
X31370347Y-6935579D01*
X31353750Y-6966630D01*
X31289308Y-7179070D01*
X31267548Y-7400000D01*
X31289308Y-7620930D01*
X31353750Y-7833370D01*
X31370347Y-7864421D01*
X31370347Y-7899440D01*
X31375734Y-7954139D01*
X31318815Y-8060627D01*
X31282963Y-8178817D01*
X31270857Y-8301730D01*
X31270857Y-9401550D01*
X31282963Y-9524463D01*
X31318815Y-9642653D01*
X31349468Y-9700000D01*
X31318815Y-9757347D01*
X31282963Y-9875537D01*
X31270857Y-9998450D01*
X31270857Y-11098270D01*
X31282963Y-11221183D01*
X31318815Y-11339373D01*
X31370365Y-11435816D01*
X30042241Y-12763941D01*
X29999235Y-12799235D01*
X29858400Y-12970843D01*
X29753750Y-13166630D01*
X29689307Y-13379070D01*
X29673000Y-13544636D01*
X29673000Y-13544646D01*
X29667548Y-13600000D01*
X29673000Y-13655354D01*
X29673000Y-13973000D01*
X27192901Y-13973000D01*
X27192927Y-13972913D01*
X27205033Y-13850000D01*
X27205033Y-13454266D01*
X27223392Y-13448697D01*
X27300000Y-13456242D01*
X27471921Y-13439309D01*
X27637236Y-13389161D01*
X27789591Y-13307726D01*
X27923133Y-13198132D01*
X28032727Y-13064591D01*
X28114162Y-12912236D01*
X28164310Y-12746921D01*
X28177000Y-12618078D01*
X28177000Y-5163079D01*
X28181243Y-5119999D01*
X28164310Y-4948077D01*
X28114162Y-4782763D01*
X28096650Y-4750000D01*
X28032727Y-4630408D01*
X27923133Y-4496867D01*
X27889668Y-4469403D01*
X27580597Y-4160332D01*
X27553133Y-4126867D01*
X27419592Y-4017273D01*
X27267237Y-3935838D01*
X27101922Y-3885690D01*
X26973079Y-3873000D01*
X26930000Y-3868757D01*
X26886921Y-3873000D01*
X26776121Y-3873000D01*
X26764310Y-3753077D01*
X26714162Y-3587763D01*
X26686408Y-3535838D01*
X26632727Y-3435408D01*
X26565161Y-3353078D01*
X26550594Y-3335328D01*
X26550592Y-3335326D01*
X26523133Y-3301867D01*
X26489675Y-3274409D01*
X25225597Y-2010331D01*
X25198133Y-1976867D01*
X25064592Y-1867273D01*
X24912237Y-1785838D01*
X24746922Y-1735690D01*
X24618079Y-1723000D01*
X24575000Y-1718757D01*
X24531921Y-1723000D01*
X17368079Y-1723000D01*
X17325000Y-1718757D01*
X17153077Y-1735690D01*
X16987763Y-1785838D01*
X16835408Y-1867273D01*
X16701867Y-1976867D01*
X16674403Y-2010332D01*
X15810327Y-2874408D01*
X15776868Y-2901867D01*
X15749409Y-2935326D01*
X15749406Y-2935329D01*
X15667274Y-3035408D01*
X15585838Y-3187764D01*
X15535690Y-3353078D01*
X15521169Y-3500507D01*
X15519972Y-3501147D01*
X15424499Y-3579499D01*
X15346147Y-3674972D01*
X15300000Y-3761306D01*
X15253853Y-3674972D01*
X15175501Y-3579499D01*
X15080028Y-3501147D01*
X14971103Y-3442925D01*
X14852913Y-3407073D01*
X14730000Y-3394967D01*
X13670000Y-3394967D01*
X13547087Y-3407073D01*
X13428897Y-3442925D01*
X13319972Y-3501147D01*
X13224499Y-3579499D01*
X13146147Y-3674972D01*
X13087925Y-3783897D01*
X13052073Y-3902087D01*
X13039967Y-4025000D01*
X13039967Y-4543455D01*
X12995406Y-4567273D01*
X12861865Y-4676867D01*
X12834404Y-4710329D01*
X12535332Y-5009401D01*
X12501867Y-5036865D01*
X12392273Y-5170407D01*
X12323004Y-5300001D01*
X12310838Y-5322762D01*
X12260690Y-5488076D01*
X12243757Y-5659998D01*
X12248000Y-5703078D01*
X12248001Y-11881910D01*
X12243757Y-11925000D01*
X12260690Y-12096922D01*
X12310838Y-12262236D01*
X12392274Y-12414592D01*
X12474406Y-12514671D01*
X12474409Y-12514674D01*
X12501868Y-12548133D01*
X12535327Y-12575592D01*
X13032948Y-13073213D01*
X13042925Y-13106103D01*
X13093114Y-13200000D01*
X13042925Y-13293897D01*
X13007073Y-13412087D01*
X12994967Y-13535000D01*
X12994967Y-14135000D01*
X13007073Y-14257913D01*
X13042925Y-14376103D01*
X13101147Y-14485028D01*
X13179499Y-14580501D01*
X13274972Y-14658853D01*
X13383897Y-14717075D01*
X13502087Y-14752927D01*
X13625000Y-14765033D01*
X15175000Y-14765033D01*
X15297913Y-14752927D01*
X15416103Y-14717075D01*
X15525028Y-14658853D01*
X15620501Y-14580501D01*
X15698853Y-14485028D01*
X15757075Y-14376103D01*
X15792927Y-14257913D01*
X15805033Y-14135000D01*
X15805033Y-13535000D01*
X15792927Y-13412087D01*
X15757075Y-13293897D01*
X15706886Y-13200000D01*
X15757075Y-13106103D01*
X15792927Y-12987913D01*
X15805033Y-12865000D01*
X15805033Y-12665299D01*
X15823000Y-12683266D01*
X15823001Y-14776604D01*
X15276605Y-15323000D01*
X4803199Y-15323000D01*
X4760129Y-15318758D01*
X4717060Y-15323000D01*
X4717051Y-15323000D01*
X4588208Y-15335690D01*
X4422893Y-15385838D01*
X4270538Y-15467273D01*
X4136997Y-15576867D01*
X4109536Y-15610329D01*
X2370453Y-17349412D01*
X2336998Y-17376868D01*
X2309542Y-17410323D01*
X2309536Y-17410329D01*
X2235946Y-17500000D01*
X2227404Y-17510408D01*
X2145968Y-17662764D01*
X2095820Y-17828078D01*
X2078887Y-18000000D01*
X2095820Y-18171922D01*
X2145968Y-18337236D01*
X2227404Y-18489592D01*
X2309536Y-18589671D01*
X2309542Y-18589677D01*
X2336998Y-18623132D01*
X2370453Y-18650588D01*
X4449538Y-20729674D01*
X4476997Y-20763133D01*
X4610538Y-20872727D01*
X4681841Y-20910839D01*
X4762893Y-20954162D01*
X4928207Y-21004310D01*
X5100129Y-21021243D01*
X5102438Y-21021016D01*
X5154629Y-21084611D01*
X5250102Y-21162963D01*
X5359027Y-21221185D01*
X5477217Y-21257037D01*
X5600130Y-21269143D01*
X7077727Y-21269143D01*
X7077763Y-21269162D01*
X7243078Y-21319310D01*
X7371921Y-21332000D01*
X7371930Y-21332000D01*
X7414999Y-21336242D01*
X7458069Y-21332000D01*
X10487605Y-21332000D01*
X8906021Y-22913584D01*
X8840973Y-22878815D01*
X8722783Y-22842963D01*
X8599870Y-22830857D01*
X5600130Y-22830857D01*
X5477217Y-22842963D01*
X5359027Y-22878815D01*
X5250102Y-22937037D01*
X5154629Y-23015389D01*
X5076277Y-23110862D01*
X5018055Y-23219787D01*
X4982203Y-23337977D01*
X4970097Y-23460890D01*
X4970097Y-24459110D01*
X4982203Y-24582023D01*
X5018055Y-24700213D01*
X5076277Y-24809138D01*
X5154629Y-24904611D01*
X5250102Y-24982963D01*
X5359027Y-25041185D01*
X5477217Y-25077037D01*
X5600130Y-25089143D01*
X8599870Y-25089143D01*
X8722783Y-25077037D01*
X8840973Y-25041185D01*
X8949898Y-24982963D01*
X9045371Y-24904611D01*
X9097562Y-24841016D01*
X9099870Y-24841243D01*
X9142949Y-24837000D01*
X9271792Y-24824310D01*
X9437107Y-24774162D01*
X9589462Y-24692727D01*
X9723003Y-24583133D01*
X9750467Y-24549668D01*
X11698135Y-22602000D01*
X12779127Y-22602000D01*
X12769967Y-22695000D01*
X12769967Y-23295000D01*
X12779127Y-23388000D01*
X11377939Y-23388000D01*
X11334869Y-23383758D01*
X11291800Y-23388000D01*
X11291791Y-23388000D01*
X11162948Y-23400690D01*
X10997633Y-23450838D01*
X10845278Y-23532273D01*
X10711737Y-23641867D01*
X10684273Y-23675332D01*
X8906021Y-25453584D01*
X8840973Y-25418815D01*
X8722783Y-25382963D01*
X8599870Y-25370857D01*
X5600130Y-25370857D01*
X5477217Y-25382963D01*
X5359027Y-25418815D01*
X5250102Y-25477037D01*
X5154629Y-25555389D01*
X5076277Y-25650862D01*
X5018055Y-25759787D01*
X4982203Y-25877977D01*
X4970097Y-26000890D01*
X4970097Y-26999110D01*
X4982203Y-27122023D01*
X5018055Y-27240213D01*
X5076277Y-27349138D01*
X5154629Y-27444611D01*
X5250102Y-27522963D01*
X5359027Y-27581185D01*
X5477217Y-27617037D01*
X5600130Y-27629143D01*
X8599870Y-27629143D01*
X8722783Y-27617037D01*
X8840973Y-27581185D01*
X8949898Y-27522963D01*
X9045371Y-27444611D01*
X9097562Y-27381016D01*
X9099870Y-27381243D01*
X9142949Y-27377000D01*
X9191309Y-27372237D01*
X9271792Y-27364310D01*
X9331812Y-27346103D01*
X9437107Y-27314162D01*
X9589462Y-27232727D01*
X9723003Y-27123133D01*
X9750467Y-27089668D01*
X11698135Y-25142000D01*
X11817736Y-25142000D01*
X11610328Y-25349407D01*
X11576868Y-25376867D01*
X11549409Y-25410326D01*
X11549406Y-25410329D01*
X11467274Y-25510408D01*
X11385838Y-25662764D01*
X11335690Y-25828078D01*
X11318757Y-26000000D01*
X11323001Y-26043089D01*
X11323000Y-26671735D01*
X9831735Y-28163000D01*
X9100857Y-28163000D01*
X9045371Y-28095389D01*
X8949898Y-28017037D01*
X8840973Y-27958815D01*
X8722783Y-27922963D01*
X8599870Y-27910857D01*
X5600130Y-27910857D01*
X5477217Y-27922963D01*
X5359027Y-27958815D01*
X5250102Y-28017037D01*
X5154629Y-28095389D01*
X5076277Y-28190862D01*
X5018055Y-28299787D01*
X4982203Y-28417977D01*
X4970097Y-28540890D01*
X4970097Y-29539110D01*
X4982203Y-29662023D01*
X5018055Y-29780213D01*
X5076277Y-29889138D01*
X5154629Y-29984611D01*
X5250102Y-30062963D01*
X5359027Y-30121185D01*
X5477217Y-30157037D01*
X5600130Y-30169143D01*
X8599870Y-30169143D01*
X8722783Y-30157037D01*
X8840973Y-30121185D01*
X8949898Y-30062963D01*
X9045371Y-29984611D01*
X9100857Y-29917000D01*
X10151921Y-29917000D01*
X10195000Y-29921243D01*
X10238079Y-29917000D01*
X10366922Y-29904310D01*
X10532237Y-29854162D01*
X10684592Y-29772727D01*
X10818133Y-29663133D01*
X10845597Y-29629668D01*
X12777582Y-27697683D01*
X12769967Y-27775000D01*
X12769967Y-28375000D01*
X12782073Y-28497913D01*
X12817925Y-28616103D01*
X12876147Y-28725028D01*
X12954499Y-28820501D01*
X13049972Y-28898853D01*
X13158897Y-28957075D01*
X13277087Y-28992927D01*
X13400000Y-29005033D01*
X14900000Y-29005033D01*
X15022913Y-28992927D01*
X15141103Y-28957075D01*
X15250028Y-28898853D01*
X15345501Y-28820501D01*
X15423853Y-28725028D01*
X15482075Y-28616103D01*
X15517927Y-28497913D01*
X15530033Y-28375000D01*
X15530033Y-27775000D01*
X15517927Y-27652087D01*
X15482075Y-27533897D01*
X15431886Y-27440000D01*
X15482075Y-27346103D01*
X15517927Y-27227913D01*
X15530033Y-27105000D01*
X15530033Y-26505000D01*
X15517927Y-26382087D01*
X15482075Y-26263897D01*
X15431886Y-26170000D01*
X15482075Y-26076103D01*
X15517927Y-25957913D01*
X15530033Y-25835000D01*
X15530033Y-25235000D01*
X15517927Y-25112087D01*
X15482075Y-24993897D01*
X15431886Y-24900000D01*
X15482075Y-24806103D01*
X15517927Y-24687913D01*
X15530033Y-24565000D01*
X15530033Y-23965000D01*
X15517927Y-23842087D01*
X15482075Y-23723897D01*
X15431886Y-23630000D01*
X15482075Y-23536103D01*
X15517927Y-23417913D01*
X15530033Y-23295000D01*
X15530033Y-22695000D01*
X15517927Y-22572087D01*
X15482075Y-22453897D01*
X15431886Y-22360000D01*
X15482075Y-22266103D01*
X15517927Y-22147913D01*
X15530033Y-22025000D01*
X15530033Y-21425000D01*
X15517927Y-21302087D01*
X15482075Y-21183897D01*
X15431886Y-21090000D01*
X15482075Y-20996103D01*
X15517927Y-20877913D01*
X15530033Y-20755000D01*
X15530033Y-20155000D01*
X15517927Y-20032087D01*
X15482075Y-19913897D01*
X15423853Y-19804972D01*
X15345501Y-19709499D01*
X15250028Y-19631147D01*
X15141103Y-19572925D01*
X15022913Y-19537073D01*
X14900000Y-19524967D01*
X13400000Y-19524967D01*
X13277087Y-19537073D01*
X13158897Y-19572925D01*
X13149402Y-19578000D01*
X9223709Y-19578000D01*
X9217797Y-19517977D01*
X9181945Y-19399787D01*
X9123723Y-19290862D01*
X9045371Y-19195389D01*
X8949898Y-19117037D01*
X8840973Y-19058815D01*
X8722783Y-19022963D01*
X8599870Y-19010857D01*
X5600130Y-19010857D01*
X5477217Y-19022963D01*
X5359027Y-19058815D01*
X5293980Y-19093584D01*
X4200395Y-18000000D01*
X4970097Y-17230298D01*
X4970097Y-18099110D01*
X4982203Y-18222023D01*
X5018055Y-18340213D01*
X5076277Y-18449138D01*
X5154629Y-18544611D01*
X5250102Y-18622963D01*
X5359027Y-18681185D01*
X5477217Y-18717037D01*
X5600130Y-18729143D01*
X8599870Y-18729143D01*
X8722783Y-18717037D01*
X8840973Y-18681185D01*
X8949898Y-18622963D01*
X9045371Y-18544611D01*
X9123723Y-18449138D01*
X9124022Y-18448579D01*
X14119281Y-18378224D01*
X14486210Y-18451609D01*
X14528078Y-18464310D01*
X14614117Y-18472784D01*
X14699078Y-18481242D01*
X14742614Y-18477000D01*
X15956921Y-18477000D01*
X16000000Y-18481243D01*
X16043079Y-18477000D01*
X16441735Y-18477000D01*
X21549403Y-23584668D01*
X21576867Y-23618133D01*
X21710408Y-23727727D01*
X21862763Y-23809162D01*
X22028078Y-23859310D01*
X22079874Y-23864412D01*
X22069967Y-23965000D01*
X22069967Y-24565000D01*
X22082073Y-24687913D01*
X22117925Y-24806103D01*
X22168114Y-24900000D01*
X22117925Y-24993897D01*
X22082073Y-25112087D01*
X22069967Y-25235000D01*
X22069967Y-25835000D01*
X22082073Y-25957913D01*
X22117925Y-26076103D01*
X22168114Y-26170000D01*
X22117925Y-26263897D01*
X22082073Y-26382087D01*
X22069967Y-26505000D01*
X22069967Y-27105000D01*
X22082073Y-27227913D01*
X22117925Y-27346103D01*
X22168114Y-27440000D01*
X22117925Y-27533897D01*
X22082073Y-27652087D01*
X22069967Y-27775000D01*
X22069967Y-28375000D01*
X22082073Y-28497913D01*
X22117925Y-28616103D01*
X22168114Y-28710000D01*
X22117925Y-28803897D01*
X22082073Y-28922087D01*
X22069967Y-29045000D01*
X22069967Y-29645000D01*
X22082073Y-29767913D01*
X22117925Y-29886103D01*
X22176147Y-29995028D01*
X22254499Y-30090501D01*
X22349972Y-30168853D01*
X22458897Y-30227075D01*
X22577087Y-30262927D01*
X22700000Y-30275033D01*
X24200000Y-30275033D01*
X24322913Y-30262927D01*
X24441103Y-30227075D01*
X24550028Y-30168853D01*
X24645501Y-30090501D01*
X24723853Y-29995028D01*
X24782075Y-29886103D01*
X24817927Y-29767913D01*
X24830033Y-29645000D01*
X24830033Y-29045000D01*
X24817927Y-28922087D01*
X24782075Y-28803897D01*
X24731886Y-28710000D01*
X24782075Y-28616103D01*
X24817927Y-28497913D01*
X24830033Y-28375000D01*
X24830033Y-27775000D01*
X24817927Y-27652087D01*
X24782075Y-27533897D01*
X24731886Y-27440000D01*
X24782075Y-27346103D01*
X24817927Y-27227913D01*
X24830033Y-27105000D01*
X24830033Y-26505000D01*
X24817927Y-26382087D01*
X24782075Y-26263897D01*
X24731886Y-26170000D01*
X24782075Y-26076103D01*
X24817927Y-25957913D01*
X24830033Y-25835000D01*
X24830033Y-25235000D01*
X24817927Y-25112087D01*
X24782075Y-24993897D01*
X24731886Y-24900000D01*
X24782075Y-24806103D01*
X24817927Y-24687913D01*
X24830033Y-24565000D01*
X24830033Y-23965000D01*
X24817927Y-23842087D01*
X24782075Y-23723897D01*
X24731886Y-23630000D01*
X24782075Y-23536103D01*
X24817927Y-23417913D01*
X24830033Y-23295000D01*
X24830033Y-22695000D01*
X24820873Y-22602000D01*
X26313838Y-22602000D01*
X26326147Y-22625028D01*
X26404499Y-22720501D01*
X26499972Y-22798853D01*
X26608897Y-22857075D01*
X26727087Y-22892927D01*
X26850000Y-22905033D01*
X27450000Y-22905033D01*
X27572913Y-22892927D01*
X27625000Y-22877127D01*
X27677087Y-22892927D01*
X27800000Y-22905033D01*
X28400000Y-22905033D01*
X28522913Y-22892927D01*
X28575000Y-22877127D01*
X28627087Y-22892927D01*
X28750000Y-22905033D01*
X29350000Y-22905033D01*
X29472913Y-22892927D01*
X29591103Y-22857075D01*
X29700028Y-22798853D01*
X29795501Y-22720501D01*
X29873853Y-22625028D01*
X29932075Y-22516103D01*
X29967927Y-22397913D01*
X29980033Y-22275000D01*
X29980033Y-21225000D01*
X29967927Y-21102087D01*
X29932075Y-20983897D01*
X29873853Y-20874972D01*
X29795501Y-20779499D01*
X29700028Y-20701147D01*
X29591103Y-20642925D01*
X29472913Y-20607073D01*
X29350000Y-20594967D01*
X28981872Y-20594967D01*
X29036987Y-20527809D01*
X29115423Y-20381065D01*
X29163724Y-20221839D01*
X29164434Y-20214635D01*
X29223193Y-20020931D01*
X29239500Y-19855365D01*
X29239500Y-19431827D01*
X29259871Y-19224999D01*
X29228457Y-18906052D01*
X29135424Y-18599360D01*
X28984346Y-18316714D01*
X28831978Y-18131052D01*
X27593947Y-16893022D01*
X27408285Y-16740654D01*
X27125638Y-16589576D01*
X26818947Y-16496543D01*
X26500000Y-16465129D01*
X26181053Y-16496543D01*
X25874362Y-16589576D01*
X25591715Y-16740654D01*
X25343971Y-16943971D01*
X25140654Y-17191715D01*
X24989576Y-17474362D01*
X24896543Y-17781053D01*
X24865129Y-18100000D01*
X24896543Y-18418947D01*
X24989576Y-18725638D01*
X25140654Y-19008285D01*
X25293022Y-19193947D01*
X26531052Y-20431978D01*
X26716714Y-20584346D01*
X26754231Y-20604399D01*
X26727087Y-20607073D01*
X26608897Y-20642925D01*
X26499972Y-20701147D01*
X26404499Y-20779499D01*
X26348282Y-20848000D01*
X24820873Y-20848000D01*
X24830033Y-20755000D01*
X24830033Y-20155000D01*
X24817927Y-20032087D01*
X24782075Y-19913897D01*
X24723853Y-19804972D01*
X24645501Y-19709499D01*
X24550028Y-19631147D01*
X24500950Y-19604914D01*
X24540423Y-19531065D01*
X24588724Y-19371839D01*
X24605033Y-19206250D01*
X24605033Y-18768750D01*
X24588724Y-18603161D01*
X24540423Y-18443935D01*
X24461987Y-18297191D01*
X24356430Y-18168570D01*
X24227809Y-18063013D01*
X24081065Y-17984577D01*
X23921839Y-17936276D01*
X23756250Y-17919967D01*
X23243750Y-17919967D01*
X23078161Y-17936276D01*
X22918935Y-17984577D01*
X22772191Y-18063013D01*
X22643570Y-18168570D01*
X22538013Y-18297191D01*
X22459577Y-18443935D01*
X22411276Y-18603161D01*
X22409227Y-18623962D01*
X20695597Y-16910332D01*
X20668133Y-16876867D01*
X20534592Y-16767273D01*
X20382237Y-16685838D01*
X20216922Y-16635690D01*
X20215105Y-16635511D01*
X20045000Y-16618757D01*
X20001921Y-16623000D01*
X18517265Y-16623000D01*
X18689669Y-16450596D01*
X18723133Y-16423133D01*
X18832727Y-16289592D01*
X18914162Y-16137237D01*
X18947481Y-16027398D01*
X19025000Y-16035033D01*
X20575000Y-16035033D01*
X20697913Y-16022927D01*
X20816103Y-15987075D01*
X20925028Y-15928853D01*
X21020501Y-15850501D01*
X21098853Y-15755028D01*
X21157075Y-15646103D01*
X21192927Y-15527913D01*
X21205033Y-15405000D01*
X21205033Y-14805000D01*
X21192927Y-14682087D01*
X21157075Y-14563897D01*
X21106886Y-14470000D01*
X21157075Y-14376103D01*
X21192927Y-14257913D01*
X21205033Y-14135000D01*
X21205033Y-13535000D01*
X21192927Y-13412087D01*
X21157075Y-13293897D01*
X21106886Y-13200000D01*
X21157075Y-13106103D01*
X21192927Y-12987913D01*
X21205033Y-12865000D01*
X21205033Y-12816541D01*
X21278161Y-12838724D01*
X21278492Y-12838757D01*
X21629403Y-13189668D01*
X21656867Y-13223133D01*
X21790408Y-13332727D01*
X21895413Y-13388853D01*
X21942763Y-13414162D01*
X22108077Y-13464310D01*
X22194967Y-13472868D01*
X22194967Y-13850000D01*
X22207073Y-13972913D01*
X22242925Y-14091103D01*
X22247965Y-14100532D01*
X22239308Y-14129070D01*
X22217548Y-14350000D01*
X22239308Y-14570930D01*
X22303750Y-14783370D01*
X22408400Y-14979156D01*
X22513942Y-15107760D01*
X23263940Y-15857758D01*
X23299235Y-15900765D01*
X23470843Y-16041600D01*
X23666629Y-16146250D01*
X23879069Y-16210693D01*
X24044635Y-16227000D01*
X24044645Y-16227000D01*
X24099999Y-16232452D01*
X24155354Y-16227000D01*
X30744636Y-16227000D01*
X30800000Y-16232453D01*
X31020931Y-16210693D01*
X31233371Y-16146250D01*
X31429157Y-16041600D01*
X31600765Y-15900765D01*
X31741600Y-15729157D01*
X31846250Y-15533371D01*
X31910693Y-15320931D01*
X31927000Y-15155365D01*
X31932453Y-15100000D01*
X31927000Y-15044635D01*
X31927000Y-14066818D01*
X33236058Y-12757761D01*
X33341600Y-12629157D01*
X33446250Y-12433371D01*
X33510693Y-12220931D01*
X33532452Y-12000000D01*
X33510693Y-11779070D01*
X33446250Y-11566629D01*
X33402000Y-11483844D01*
X33402000Y-11473842D01*
X33422963Y-11448298D01*
X33481185Y-11339373D01*
X33517037Y-11221183D01*
X33529143Y-11098270D01*
X33529143Y-9998450D01*
X33517037Y-9875537D01*
X33481185Y-9757347D01*
X33450532Y-9700000D01*
X33481185Y-9642653D01*
X33517037Y-9524463D01*
X33529143Y-9401550D01*
X33529143Y-8301730D01*
X33517037Y-8178817D01*
X33481185Y-8060627D01*
X33429635Y-7964183D01*
X33466818Y-7927000D01*
X42055365Y-7927000D01*
X42220931Y-7910693D01*
X42433371Y-7846250D01*
X42599755Y-7757316D01*
X42552337Y-23429168D01*
X42420931Y-23389307D01*
X42255365Y-23373000D01*
X34930033Y-23373000D01*
X34930033Y-23250000D01*
X34917927Y-23127087D01*
X34882075Y-23008897D01*
X34823853Y-22899972D01*
X34745501Y-22804499D01*
X34650028Y-22726147D01*
X34541103Y-22667925D01*
X34422913Y-22632073D01*
X34300000Y-22619967D01*
X32500000Y-22619967D01*
X32377087Y-22632073D01*
X32258897Y-22667925D01*
X32149972Y-22726147D01*
X32054499Y-22804499D01*
X31976147Y-22899972D01*
X31917925Y-23008897D01*
X31882073Y-23127087D01*
X31869967Y-23250000D01*
X31869967Y-23452737D01*
X31866629Y-23453750D01*
X31670843Y-23558400D01*
X31592128Y-23623000D01*
X29899525Y-23623000D01*
X29873853Y-23574972D01*
X29795501Y-23479499D01*
X29700028Y-23401147D01*
X29591103Y-23342925D01*
X29472913Y-23307073D01*
X29350000Y-23294967D01*
X28750000Y-23294967D01*
X28627087Y-23307073D01*
X28508897Y-23342925D01*
X28399972Y-23401147D01*
X28304499Y-23479499D01*
X28226147Y-23574972D01*
X28167925Y-23683897D01*
X28132073Y-23802087D01*
X28119967Y-23925000D01*
X28119967Y-24975000D01*
X28132073Y-25097913D01*
X28167925Y-25216103D01*
X28226147Y-25325028D01*
X28304499Y-25420501D01*
X28399972Y-25498853D01*
X28508897Y-25557075D01*
X28627087Y-25592927D01*
X28750000Y-25605033D01*
X29350000Y-25605033D01*
X29472913Y-25592927D01*
X29591103Y-25557075D01*
X29700028Y-25498853D01*
X29795501Y-25420501D01*
X29831201Y-25377000D01*
X31592128Y-25377000D01*
X31670843Y-25441600D01*
X31866629Y-25546250D01*
X31869967Y-25547263D01*
X31869967Y-25750000D01*
X31882073Y-25872913D01*
X31917925Y-25991103D01*
X31976147Y-26100028D01*
X32054499Y-26195501D01*
X32149972Y-26273853D01*
X32258897Y-26332075D01*
X32377087Y-26367927D01*
X32500000Y-26380033D01*
X34300000Y-26380033D01*
X34422913Y-26367927D01*
X34541103Y-26332075D01*
X34650028Y-26273853D01*
X34745501Y-26195501D01*
X34823853Y-26100028D01*
X34882075Y-25991103D01*
X34917927Y-25872913D01*
X34930033Y-25750000D01*
X34930033Y-25627000D01*
X42255365Y-25627000D01*
X42420931Y-25610693D01*
X42545850Y-25572799D01*
X42523384Y-32997926D01*
X77384Y-32973075D01*
X176616Y-177074D01*
X42622616Y-201925D01*
G36*
X15239967Y-6575000D02*
G01*
X15252073Y-6697913D01*
X15287925Y-6816103D01*
X15346147Y-6925028D01*
X15424499Y-7020501D01*
X15519972Y-7098853D01*
X15628897Y-7157075D01*
X15747087Y-7192927D01*
X15870000Y-7205033D01*
X16930000Y-7205033D01*
X17052913Y-7192927D01*
X17171103Y-7157075D01*
X17227369Y-7127000D01*
X20406921Y-7127000D01*
X20450000Y-7131243D01*
X20493079Y-7127000D01*
X20621922Y-7114310D01*
X20787237Y-7064162D01*
X20939592Y-6982727D01*
X21073133Y-6873133D01*
X21100597Y-6839668D01*
X21363264Y-6577000D01*
X22872631Y-6577000D01*
X22928897Y-6607075D01*
X23047087Y-6642927D01*
X23170000Y-6655033D01*
X24230000Y-6655033D01*
X24352913Y-6642927D01*
X24471103Y-6607075D01*
X24580028Y-6548853D01*
X24675501Y-6470501D01*
X24739967Y-6391948D01*
X24739967Y-6975000D01*
X24752073Y-7097913D01*
X24787925Y-7216103D01*
X24846147Y-7325028D01*
X24924499Y-7420501D01*
X25019972Y-7498853D01*
X25023001Y-7500472D01*
X25023000Y-8706921D01*
X25023000Y-8706922D01*
X25023001Y-10973343D01*
X25001147Y-10999972D01*
X24942925Y-11108897D01*
X24907073Y-11227087D01*
X24894967Y-11350000D01*
X24894967Y-11723000D01*
X22805033Y-11723000D01*
X22805033Y-11568750D01*
X22788724Y-11403161D01*
X22740423Y-11243935D01*
X22661987Y-11097191D01*
X22556430Y-10968570D01*
X22427809Y-10863013D01*
X22281065Y-10784577D01*
X22121839Y-10736276D01*
X21956250Y-10719967D01*
X21640232Y-10719967D01*
X21625597Y-10705332D01*
X21598133Y-10671867D01*
X21464592Y-10562273D01*
X21312237Y-10480838D01*
X21146922Y-10430690D01*
X21018079Y-10418000D01*
X20975000Y-10413757D01*
X20931921Y-10418000D01*
X20825598Y-10418000D01*
X20816103Y-10412925D01*
X20697913Y-10377073D01*
X20575000Y-10364967D01*
X19025000Y-10364967D01*
X18902087Y-10377073D01*
X18783897Y-10412925D01*
X18774402Y-10418000D01*
X18568079Y-10418000D01*
X18525000Y-10413757D01*
X18353077Y-10430690D01*
X18219710Y-10471147D01*
X18187763Y-10480838D01*
X18035408Y-10562273D01*
X17901867Y-10671867D01*
X17874403Y-10705332D01*
X17510327Y-11069408D01*
X17476868Y-11096867D01*
X17449409Y-11130326D01*
X17449406Y-11130329D01*
X17367274Y-11230408D01*
X17285838Y-11382764D01*
X17235690Y-11548078D01*
X17229652Y-11609386D01*
X16325596Y-10705331D01*
X16298133Y-10671867D01*
X16164592Y-10562273D01*
X16012237Y-10480838D01*
X15846922Y-10430690D01*
X15718079Y-10418000D01*
X15675000Y-10413757D01*
X15631921Y-10418000D01*
X15425598Y-10418000D01*
X15416103Y-10412925D01*
X15297913Y-10377073D01*
X15175000Y-10364967D01*
X14002000Y-10364967D01*
X14002000Y-6255033D01*
X14730000Y-6255033D01*
X14852913Y-6242927D01*
X14971103Y-6207075D01*
X15027369Y-6177000D01*
X15239967Y-6177000D01*
X15239967Y-6575000D01*
G37*
X15239967Y-6575000D02*
X15252073Y-6697913D01*
X15287925Y-6816103D01*
X15346147Y-6925028D01*
X15424499Y-7020501D01*
X15519972Y-7098853D01*
X15628897Y-7157075D01*
X15747087Y-7192927D01*
X15870000Y-7205033D01*
X16930000Y-7205033D01*
X17052913Y-7192927D01*
X17171103Y-7157075D01*
X17227369Y-7127000D01*
X20406921Y-7127000D01*
X20450000Y-7131243D01*
X20493079Y-7127000D01*
X20621922Y-7114310D01*
X20787237Y-7064162D01*
X20939592Y-6982727D01*
X21073133Y-6873133D01*
X21100597Y-6839668D01*
X21363264Y-6577000D01*
X22872631Y-6577000D01*
X22928897Y-6607075D01*
X23047087Y-6642927D01*
X23170000Y-6655033D01*
X24230000Y-6655033D01*
X24352913Y-6642927D01*
X24471103Y-6607075D01*
X24580028Y-6548853D01*
X24675501Y-6470501D01*
X24739967Y-6391948D01*
X24739967Y-6975000D01*
X24752073Y-7097913D01*
X24787925Y-7216103D01*
X24846147Y-7325028D01*
X24924499Y-7420501D01*
X25019972Y-7498853D01*
X25023001Y-7500472D01*
X25023000Y-8706921D01*
X25023000Y-8706922D01*
X25023001Y-10973343D01*
X25001147Y-10999972D01*
X24942925Y-11108897D01*
X24907073Y-11227087D01*
X24894967Y-11350000D01*
X24894967Y-11723000D01*
X22805033Y-11723000D01*
X22805033Y-11568750D01*
X22788724Y-11403161D01*
X22740423Y-11243935D01*
X22661987Y-11097191D01*
X22556430Y-10968570D01*
X22427809Y-10863013D01*
X22281065Y-10784577D01*
X22121839Y-10736276D01*
X21956250Y-10719967D01*
X21640232Y-10719967D01*
X21625597Y-10705332D01*
X21598133Y-10671867D01*
X21464592Y-10562273D01*
X21312237Y-10480838D01*
X21146922Y-10430690D01*
X21018079Y-10418000D01*
X20975000Y-10413757D01*
X20931921Y-10418000D01*
X20825598Y-10418000D01*
X20816103Y-10412925D01*
X20697913Y-10377073D01*
X20575000Y-10364967D01*
X19025000Y-10364967D01*
X18902087Y-10377073D01*
X18783897Y-10412925D01*
X18774402Y-10418000D01*
X18568079Y-10418000D01*
X18525000Y-10413757D01*
X18353077Y-10430690D01*
X18219710Y-10471147D01*
X18187763Y-10480838D01*
X18035408Y-10562273D01*
X17901867Y-10671867D01*
X17874403Y-10705332D01*
X17510327Y-11069408D01*
X17476868Y-11096867D01*
X17449409Y-11130326D01*
X17449406Y-11130329D01*
X17367274Y-11230408D01*
X17285838Y-11382764D01*
X17235690Y-11548078D01*
X17229652Y-11609386D01*
X16325596Y-10705331D01*
X16298133Y-10671867D01*
X16164592Y-10562273D01*
X16012237Y-10480838D01*
X15846922Y-10430690D01*
X15718079Y-10418000D01*
X15675000Y-10413757D01*
X15631921Y-10418000D01*
X15425598Y-10418000D01*
X15416103Y-10412925D01*
X15297913Y-10377073D01*
X15175000Y-10364967D01*
X14002000Y-10364967D01*
X14002000Y-6255033D01*
X14730000Y-6255033D01*
X14852913Y-6242927D01*
X14971103Y-6207075D01*
X15027369Y-6177000D01*
X15239967Y-6177000D01*
X15239967Y-6575000D01*
M02*
