G04 #@! TF.GenerationSoftware,KiCad,Pcbnew,5.1.5+dfsg1-2~bpo9+1*
G04 #@! TF.CreationDate,2021-01-20T18:26:51-05:00*
G04 #@! TF.ProjectId,coplanar_exposure_cells,636f706c-616e-4617-925f-6578706f7375,rev?*
G04 #@! TF.SameCoordinates,PX189ad40PY2bc60e0*
G04 #@! TF.FileFunction,Copper,L1,Top*
G04 #@! TF.FilePolarity,Positive*
%FSLAX46Y46*%
G04 Gerber Fmt 4.6, Leading zero omitted, Abs format (unit mm)*
G04 Created by KiCad (PCBNEW 5.1.5+dfsg1-2~bpo9+1) date 2021-01-20 18:26:51*
%MOMM*%
%LPD*%
G04 APERTURE LIST*
%ADD10R,1.000000X1.000000*%
%ADD11C,1.000000*%
%ADD12C,0.254000*%
G04 APERTURE END LIST*
D10*
X15700000Y-35800000D03*
X500000Y-35800000D03*
X15700000Y-27800000D03*
X500000Y-27800000D03*
X15700000Y-19800000D03*
X500000Y-19800000D03*
X15700000Y-11800000D03*
X500000Y-11800000D03*
X500000Y-3800000D03*
X15700000Y-3800000D03*
D11*
X14700000Y-11800000D02*
X15700000Y-11800000D01*
X500000Y-11800000D02*
X14700000Y-11800000D01*
X14700000Y-19800000D02*
X15700000Y-19800000D01*
X500000Y-19800000D02*
X14700000Y-19800000D01*
X14700000Y-27800000D02*
X15700000Y-27800000D01*
X500000Y-27800000D02*
X14700000Y-27800000D01*
X14700000Y-35800000D02*
X15700000Y-35800000D01*
X500000Y-35800000D02*
X14700000Y-35800000D01*
X14700000Y-3800000D02*
X15700000Y-3800000D01*
X500000Y-3800000D02*
X14700000Y-3800000D01*
D12*
G36*
X15200000Y-4628582D02*
G01*
X16173000Y-4628582D01*
X16173000Y-7873000D01*
X127000Y-7873000D01*
X127000Y-4628582D01*
X1000000Y-4628582D01*
X1016061Y-4627000D01*
X15183939Y-4627000D01*
X15200000Y-4628582D01*
G37*
X15200000Y-4628582D02*
X16173000Y-4628582D01*
X16173000Y-7873000D01*
X127000Y-7873000D01*
X127000Y-4628582D01*
X1000000Y-4628582D01*
X1016061Y-4627000D01*
X15183939Y-4627000D01*
X15200000Y-4628582D01*
G36*
X16173000Y-2971418D02*
G01*
X15200000Y-2971418D01*
X15183939Y-2973000D01*
X1016061Y-2973000D01*
X1000000Y-2971418D01*
X127000Y-2971418D01*
X127000Y-127000D01*
X16173000Y-127000D01*
X16173000Y-2971418D01*
G37*
X16173000Y-2971418D02*
X15200000Y-2971418D01*
X15183939Y-2973000D01*
X1016061Y-2973000D01*
X1000000Y-2971418D01*
X127000Y-2971418D01*
X127000Y-127000D01*
X16173000Y-127000D01*
X16173000Y-2971418D01*
G36*
X15200000Y-12628582D02*
G01*
X16173000Y-12628582D01*
X16173000Y-15873000D01*
X127000Y-15873000D01*
X127000Y-12628582D01*
X1000000Y-12628582D01*
X1016061Y-12627000D01*
X15183939Y-12627000D01*
X15200000Y-12628582D01*
G37*
X15200000Y-12628582D02*
X16173000Y-12628582D01*
X16173000Y-15873000D01*
X127000Y-15873000D01*
X127000Y-12628582D01*
X1000000Y-12628582D01*
X1016061Y-12627000D01*
X15183939Y-12627000D01*
X15200000Y-12628582D01*
G36*
X16173000Y-10971418D02*
G01*
X15200000Y-10971418D01*
X15183939Y-10973000D01*
X1016061Y-10973000D01*
X1000000Y-10971418D01*
X127000Y-10971418D01*
X127000Y-8127000D01*
X16173000Y-8127000D01*
X16173000Y-10971418D01*
G37*
X16173000Y-10971418D02*
X15200000Y-10971418D01*
X15183939Y-10973000D01*
X1016061Y-10973000D01*
X1000000Y-10971418D01*
X127000Y-10971418D01*
X127000Y-8127000D01*
X16173000Y-8127000D01*
X16173000Y-10971418D01*
G36*
X15200000Y-20628582D02*
G01*
X16173000Y-20628582D01*
X16173000Y-23873000D01*
X127000Y-23873000D01*
X127000Y-20628582D01*
X1000000Y-20628582D01*
X1016061Y-20627000D01*
X15183939Y-20627000D01*
X15200000Y-20628582D01*
G37*
X15200000Y-20628582D02*
X16173000Y-20628582D01*
X16173000Y-23873000D01*
X127000Y-23873000D01*
X127000Y-20628582D01*
X1000000Y-20628582D01*
X1016061Y-20627000D01*
X15183939Y-20627000D01*
X15200000Y-20628582D01*
G36*
X16173000Y-18971418D02*
G01*
X15200000Y-18971418D01*
X15183939Y-18973000D01*
X1016061Y-18973000D01*
X1000000Y-18971418D01*
X127000Y-18971418D01*
X127000Y-16127000D01*
X16173000Y-16127000D01*
X16173000Y-18971418D01*
G37*
X16173000Y-18971418D02*
X15200000Y-18971418D01*
X15183939Y-18973000D01*
X1016061Y-18973000D01*
X1000000Y-18971418D01*
X127000Y-18971418D01*
X127000Y-16127000D01*
X16173000Y-16127000D01*
X16173000Y-18971418D01*
G36*
X15200000Y-28628582D02*
G01*
X16173000Y-28628582D01*
X16173000Y-31873000D01*
X127000Y-31873000D01*
X127000Y-28628582D01*
X1000000Y-28628582D01*
X1016061Y-28627000D01*
X15183939Y-28627000D01*
X15200000Y-28628582D01*
G37*
X15200000Y-28628582D02*
X16173000Y-28628582D01*
X16173000Y-31873000D01*
X127000Y-31873000D01*
X127000Y-28628582D01*
X1000000Y-28628582D01*
X1016061Y-28627000D01*
X15183939Y-28627000D01*
X15200000Y-28628582D01*
G36*
X16173000Y-26971418D02*
G01*
X15200000Y-26971418D01*
X15183939Y-26973000D01*
X1016061Y-26973000D01*
X1000000Y-26971418D01*
X127000Y-26971418D01*
X127000Y-24127000D01*
X16173000Y-24127000D01*
X16173000Y-26971418D01*
G37*
X16173000Y-26971418D02*
X15200000Y-26971418D01*
X15183939Y-26973000D01*
X1016061Y-26973000D01*
X1000000Y-26971418D01*
X127000Y-26971418D01*
X127000Y-24127000D01*
X16173000Y-24127000D01*
X16173000Y-26971418D01*
G36*
X15200000Y-36628582D02*
G01*
X16173000Y-36628582D01*
X16173000Y-39873000D01*
X127000Y-39873000D01*
X127000Y-36628582D01*
X1000000Y-36628582D01*
X1016061Y-36627000D01*
X15183939Y-36627000D01*
X15200000Y-36628582D01*
G37*
X15200000Y-36628582D02*
X16173000Y-36628582D01*
X16173000Y-39873000D01*
X127000Y-39873000D01*
X127000Y-36628582D01*
X1000000Y-36628582D01*
X1016061Y-36627000D01*
X15183939Y-36627000D01*
X15200000Y-36628582D01*
G36*
X16173000Y-34971418D02*
G01*
X15200000Y-34971418D01*
X15183939Y-34973000D01*
X1016061Y-34973000D01*
X1000000Y-34971418D01*
X127000Y-34971418D01*
X127000Y-32127000D01*
X16173000Y-32127000D01*
X16173000Y-34971418D01*
G37*
X16173000Y-34971418D02*
X15200000Y-34971418D01*
X15183939Y-34973000D01*
X1016061Y-34973000D01*
X1000000Y-34971418D01*
X127000Y-34971418D01*
X127000Y-32127000D01*
X16173000Y-32127000D01*
X16173000Y-34971418D01*
M02*
