solid OpenSCAD_Model
  facet normal 1 0 0
    outer loop
      vertex 0 1.5 6
      vertex 0 0 6
      vertex 0 1.5 1
    endloop
  endfacet
  facet normal 1 0 0
    outer loop
      vertex 0 8 6
      vertex 0 6.5 6
      vertex 0 8 1
    endloop
  endfacet
  facet normal 1 0 0
    outer loop
      vertex 0 14.5 6
      vertex 0 13 6
      vertex 0 14.5 1
    endloop
  endfacet
  facet normal 1 0 0
    outer loop
      vertex 0 21 6
      vertex 0 19.5 6
      vertex 0 21 1
    endloop
  endfacet
  facet normal 1 0 0
    outer loop
      vertex 0 27.5 6
      vertex 0 26 6
      vertex 0 27.5 1
    endloop
  endfacet
  facet normal 1 0 0
    outer loop
      vertex 0 34 6
      vertex 0 32.5 6
      vertex 0 34 1
    endloop
  endfacet
  facet normal 1 0 0
    outer loop
      vertex 0 40.5 6
      vertex 0 39 6
      vertex 0 40.5 1
    endloop
  endfacet
  facet normal 1 0 0
    outer loop
      vertex 0 47 6
      vertex 0 45.5 6
      vertex 0 47 1
    endloop
  endfacet
  facet normal 1 0 0
    outer loop
      vertex 0 53.5 6
      vertex 0 52 6
      vertex 0 53.5 1
    endloop
  endfacet
  facet normal 1 0 0
    outer loop
      vertex 0 60 6
      vertex 0 58.5 6
      vertex 0 60 1
    endloop
  endfacet
  facet normal 1 0 0
    outer loop
      vertex 0 66.5 6
      vertex 0 65 6
      vertex 0 66.5 1
    endloop
  endfacet
  facet normal 1 0 0
    outer loop
      vertex 0 71.5 1
      vertex 0 73 6
      vertex 0 71.5 6
    endloop
  endfacet
  facet normal 1 0 0
    outer loop
      vertex 0 73 6
      vertex 0 71.5 1
      vertex 0 73 -1
    endloop
  endfacet
  facet normal 1 -0 0
    outer loop
      vertex 0 66.5 1
      vertex 0 73 -1
      vertex 0 71.5 1
    endloop
  endfacet
  facet normal 1 0 0
    outer loop
      vertex 0 65 1
      vertex 0 66.5 1
      vertex 0 65 6
    endloop
  endfacet
  facet normal 1 -0 0
    outer loop
      vertex 0 65 1
      vertex 0 73 -1
      vertex 0 66.5 1
    endloop
  endfacet
  facet normal 1 -0 0
    outer loop
      vertex 0 60 1
      vertex 0 73 -1
      vertex 0 65 1
    endloop
  endfacet
  facet normal 1 0 0
    outer loop
      vertex 0 58.5 1
      vertex 0 60 1
      vertex 0 58.5 6
    endloop
  endfacet
  facet normal 1 -0 0
    outer loop
      vertex 0 58.5 1
      vertex 0 73 -1
      vertex 0 60 1
    endloop
  endfacet
  facet normal 1 -0 0
    outer loop
      vertex 0 53.5 1
      vertex 0 73 -1
      vertex 0 58.5 1
    endloop
  endfacet
  facet normal 1 0 0
    outer loop
      vertex 0 52 1
      vertex 0 53.5 1
      vertex 0 52 6
    endloop
  endfacet
  facet normal 1 -0 0
    outer loop
      vertex 0 52 1
      vertex 0 73 -1
      vertex 0 53.5 1
    endloop
  endfacet
  facet normal 1 -0 0
    outer loop
      vertex 0 47 1
      vertex 0 73 -1
      vertex 0 52 1
    endloop
  endfacet
  facet normal 1 0 0
    outer loop
      vertex 0 45.5 1
      vertex 0 47 1
      vertex 0 45.5 6
    endloop
  endfacet
  facet normal 1 -0 0
    outer loop
      vertex 0 45.5 1
      vertex 0 73 -1
      vertex 0 47 1
    endloop
  endfacet
  facet normal 1 -0 0
    outer loop
      vertex 0 40.5 1
      vertex 0 73 -1
      vertex 0 45.5 1
    endloop
  endfacet
  facet normal 1 0 0
    outer loop
      vertex 0 39 1
      vertex 0 40.5 1
      vertex 0 39 6
    endloop
  endfacet
  facet normal 1 -0 0
    outer loop
      vertex 0 39 1
      vertex 0 73 -1
      vertex 0 40.5 1
    endloop
  endfacet
  facet normal 1 -0 0
    outer loop
      vertex 0 34 1
      vertex 0 73 -1
      vertex 0 39 1
    endloop
  endfacet
  facet normal 1 0 0
    outer loop
      vertex 0 32.5 1
      vertex 0 34 1
      vertex 0 32.5 6
    endloop
  endfacet
  facet normal 1 0 0
    outer loop
      vertex 0 0 -1
      vertex 0 34 1
      vertex 0 32.5 1
    endloop
  endfacet
  facet normal 1 0 0
    outer loop
      vertex 0 0 -1
      vertex 0 32.5 1
      vertex 0 27.5 1
    endloop
  endfacet
  facet normal 1 0 0
    outer loop
      vertex 0 26 1
      vertex 0 27.5 1
      vertex 0 26 6
    endloop
  endfacet
  facet normal 1 0 0
    outer loop
      vertex 0 0 -1
      vertex 0 27.5 1
      vertex 0 26 1
    endloop
  endfacet
  facet normal 1 0 0
    outer loop
      vertex 0 0 -1
      vertex 0 26 1
      vertex 0 21 1
    endloop
  endfacet
  facet normal 1 0 0
    outer loop
      vertex 0 19.5 1
      vertex 0 21 1
      vertex 0 19.5 6
    endloop
  endfacet
  facet normal 1 0 0
    outer loop
      vertex 0 0 -1
      vertex 0 21 1
      vertex 0 19.5 1
    endloop
  endfacet
  facet normal 1 0 0
    outer loop
      vertex 0 0 -1
      vertex 0 19.5 1
      vertex 0 14.5 1
    endloop
  endfacet
  facet normal 1 0 0
    outer loop
      vertex 0 13 1
      vertex 0 14.5 1
      vertex 0 13 6
    endloop
  endfacet
  facet normal 1 0 0
    outer loop
      vertex 0 0 -1
      vertex 0 14.5 1
      vertex 0 13 1
    endloop
  endfacet
  facet normal 1 0 0
    outer loop
      vertex 0 0 -1
      vertex 0 13 1
      vertex 0 8 1
    endloop
  endfacet
  facet normal 1 0 0
    outer loop
      vertex 0 6.5 1
      vertex 0 8 1
      vertex 0 6.5 6
    endloop
  endfacet
  facet normal 1 0 0
    outer loop
      vertex 0 0 -1
      vertex 0 8 1
      vertex 0 6.5 1
    endloop
  endfacet
  facet normal 1 0 0
    outer loop
      vertex 0 0 -1
      vertex 0 6.5 1
      vertex 0 1.5 1
    endloop
  endfacet
  facet normal 1 0 0
    outer loop
      vertex 0 34 1
      vertex 0 0 -1
      vertex 0 73 -1
    endloop
  endfacet
  facet normal 1 0 0
    outer loop
      vertex 0 0 -1
      vertex 0 1.5 1
      vertex 0 0 6
    endloop
  endfacet
  facet normal 0 0 -1
    outer loop
      vertex 0 0 6
      vertex 7 1.5 6
      vertex 7 0 6
    endloop
  endfacet
  facet normal -0 0 -1
    outer loop
      vertex 7 1.5 6
      vertex 0 0 6
      vertex 0 1.5 6
    endloop
  endfacet
  facet normal -1 0 0
    outer loop
      vertex 7 0 1
      vertex 7 1.5 6
      vertex 7 1.5 1
    endloop
  endfacet
  facet normal -1 -0 0
    outer loop
      vertex 7 1.5 6
      vertex 7 0 1
      vertex 7 0 6
    endloop
  endfacet
  facet normal 0 -1 0
    outer loop
      vertex 0 1.5 1
      vertex 7 1.5 6
      vertex 0 1.5 6
    endloop
  endfacet
  facet normal 0 -1 -0
    outer loop
      vertex 7 1.5 6
      vertex 0 1.5 1
      vertex 7 1.5 1
    endloop
  endfacet
  facet normal 0 1 0
    outer loop
      vertex 70 0 6
      vertex 63 0 1
      vertex 63 0 6
    endloop
  endfacet
  facet normal 0 1 0
    outer loop
      vertex 70 0 -1
      vertex 49 0 1
      vertex 63 0 1
    endloop
  endfacet
  facet normal 0 1 0
    outer loop
      vertex 49 0 1
      vertex 70 0 -1
      vertex 42 0 1
    endloop
  endfacet
  facet normal 0 1 0
    outer loop
      vertex 42 0 1
      vertex 70 0 -1
      vertex 28 0 1
    endloop
  endfacet
  facet normal 0 1 0
    outer loop
      vertex 0 0 -1
      vertex 28 0 1
      vertex 70 0 -1
    endloop
  endfacet
  facet normal 0 1 0
    outer loop
      vertex 28 0 1
      vertex 0 0 -1
      vertex 21 0 1
    endloop
  endfacet
  facet normal 0 1 -0
    outer loop
      vertex 70 0 -1
      vertex 63 0 1
      vertex 70 0 6
    endloop
  endfacet
  facet normal 0 1 -0
    outer loop
      vertex 49 0 1
      vertex 42 0 6
      vertex 49 0 6
    endloop
  endfacet
  facet normal 0 1 0
    outer loop
      vertex 42 0 6
      vertex 49 0 1
      vertex 42 0 1
    endloop
  endfacet
  facet normal 0 1 -0
    outer loop
      vertex 28 0 1
      vertex 21 0 6
      vertex 28 0 6
    endloop
  endfacet
  facet normal 0 1 0
    outer loop
      vertex 21 0 6
      vertex 28 0 1
      vertex 21 0 1
    endloop
  endfacet
  facet normal 0 1 -0
    outer loop
      vertex 7 0 1
      vertex 0 0 6
      vertex 7 0 6
    endloop
  endfacet
  facet normal 0 1 0
    outer loop
      vertex 7 0 1
      vertex 0 0 -1
      vertex 0 0 6
    endloop
  endfacet
  facet normal 0 1 0
    outer loop
      vertex 21 0 1
      vertex 0 0 -1
      vertex 7 0 1
    endloop
  endfacet
  facet normal 1 -0 0
    outer loop
      vertex 21 0 6
      vertex 21 1.5 1
      vertex 21 1.5 6
    endloop
  endfacet
  facet normal 1 0 0
    outer loop
      vertex 21 1.5 1
      vertex 21 0 6
      vertex 21 0 1
    endloop
  endfacet
  facet normal 0 0 -1
    outer loop
      vertex 21 0 6
      vertex 28 1.5 6
      vertex 28 0 6
    endloop
  endfacet
  facet normal -0 0 -1
    outer loop
      vertex 28 1.5 6
      vertex 21 0 6
      vertex 21 1.5 6
    endloop
  endfacet
  facet normal -1 0 0
    outer loop
      vertex 28 0 1
      vertex 28 1.5 6
      vertex 28 1.5 1
    endloop
  endfacet
  facet normal -1 -0 0
    outer loop
      vertex 28 1.5 6
      vertex 28 0 1
      vertex 28 0 6
    endloop
  endfacet
  facet normal 0 -1 0
    outer loop
      vertex 21 1.5 1
      vertex 28 1.5 6
      vertex 21 1.5 6
    endloop
  endfacet
  facet normal 0 -1 -0
    outer loop
      vertex 28 1.5 6
      vertex 21 1.5 1
      vertex 28 1.5 1
    endloop
  endfacet
  facet normal 1 -0 0
    outer loop
      vertex 42 0 6
      vertex 42 1.5 1
      vertex 42 1.5 6
    endloop
  endfacet
  facet normal 1 0 0
    outer loop
      vertex 42 1.5 1
      vertex 42 0 6
      vertex 42 0 1
    endloop
  endfacet
  facet normal 0 0 -1
    outer loop
      vertex 42 0 6
      vertex 49 1.5 6
      vertex 49 0 6
    endloop
  endfacet
  facet normal -0 0 -1
    outer loop
      vertex 49 1.5 6
      vertex 42 0 6
      vertex 42 1.5 6
    endloop
  endfacet
  facet normal -1 0 0
    outer loop
      vertex 49 0 1
      vertex 49 1.5 6
      vertex 49 1.5 1
    endloop
  endfacet
  facet normal -1 -0 0
    outer loop
      vertex 49 1.5 6
      vertex 49 0 1
      vertex 49 0 6
    endloop
  endfacet
  facet normal 0 -1 0
    outer loop
      vertex 42 1.5 1
      vertex 49 1.5 6
      vertex 42 1.5 6
    endloop
  endfacet
  facet normal 0 -1 -0
    outer loop
      vertex 49 1.5 6
      vertex 42 1.5 1
      vertex 49 1.5 1
    endloop
  endfacet
  facet normal 1 -0 0
    outer loop
      vertex 63 0 6
      vertex 63 1.5 1
      vertex 63 1.5 6
    endloop
  endfacet
  facet normal 1 0 0
    outer loop
      vertex 63 1.5 1
      vertex 63 0 6
      vertex 63 0 1
    endloop
  endfacet
  facet normal 0 0 -1
    outer loop
      vertex 63 0 6
      vertex 70 1.5 6
      vertex 70 0 6
    endloop
  endfacet
  facet normal -0 0 -1
    outer loop
      vertex 70 1.5 6
      vertex 63 0 6
      vertex 63 1.5 6
    endloop
  endfacet
  facet normal -1 0 0
    outer loop
      vertex 70 73 -1
      vertex 70 71.5 1
      vertex 70 73 6
    endloop
  endfacet
  facet normal -1 0 0
    outer loop
      vertex 70 73 -1
      vertex 70 66.5 1
      vertex 70 71.5 1
    endloop
  endfacet
  facet normal -1 0 0
    outer loop
      vertex 70 66.5 1
      vertex 70 65 1
      vertex 70 66.5 6
    endloop
  endfacet
  facet normal -1 0 0
    outer loop
      vertex 70 73 -1
      vertex 70 65 1
      vertex 70 66.5 1
    endloop
  endfacet
  facet normal -1 0 0
    outer loop
      vertex 70 73 -1
      vertex 70 60 1
      vertex 70 65 1
    endloop
  endfacet
  facet normal -1 0 0
    outer loop
      vertex 70 60 1
      vertex 70 58.5 1
      vertex 70 60 6
    endloop
  endfacet
  facet normal -1 0 0
    outer loop
      vertex 70 73 -1
      vertex 70 58.5 1
      vertex 70 60 1
    endloop
  endfacet
  facet normal -1 0 0
    outer loop
      vertex 70 73 -1
      vertex 70 53.5 1
      vertex 70 58.5 1
    endloop
  endfacet
  facet normal -1 0 0
    outer loop
      vertex 70 53.5 1
      vertex 70 52 1
      vertex 70 53.5 6
    endloop
  endfacet
  facet normal -1 0 0
    outer loop
      vertex 70 73 -1
      vertex 70 52 1
      vertex 70 53.5 1
    endloop
  endfacet
  facet normal -1 0 0
    outer loop
      vertex 70 73 -1
      vertex 70 47 1
      vertex 70 52 1
    endloop
  endfacet
  facet normal -1 0 0
    outer loop
      vertex 70 47 1
      vertex 70 45.5 1
      vertex 70 47 6
    endloop
  endfacet
  facet normal -1 0 0
    outer loop
      vertex 70 73 -1
      vertex 70 45.5 1
      vertex 70 47 1
    endloop
  endfacet
  facet normal -1 0 0
    outer loop
      vertex 70 73 -1
      vertex 70 40.5 1
      vertex 70 45.5 1
    endloop
  endfacet
  facet normal -1 0 0
    outer loop
      vertex 70 40.5 1
      vertex 70 39 1
      vertex 70 40.5 6
    endloop
  endfacet
  facet normal -1 0 0
    outer loop
      vertex 70 73 -1
      vertex 70 39 1
      vertex 70 40.5 1
    endloop
  endfacet
  facet normal -1 0 0
    outer loop
      vertex 70 73 -1
      vertex 70 34 1
      vertex 70 39 1
    endloop
  endfacet
  facet normal -1 0 0
    outer loop
      vertex 70 34 1
      vertex 70 32.5 1
      vertex 70 34 6
    endloop
  endfacet
  facet normal -1 0 0
    outer loop
      vertex 70 0 -1
      vertex 70 34 1
      vertex 70 73 -1
    endloop
  endfacet
  facet normal -1 -0 0
    outer loop
      vertex 70 34 1
      vertex 70 0 -1
      vertex 70 32.5 1
    endloop
  endfacet
  facet normal -1 0 0
    outer loop
      vertex 70 27.5 1
      vertex 70 26 1
      vertex 70 27.5 6
    endloop
  endfacet
  facet normal -1 -0 0
    outer loop
      vertex 70 32.5 1
      vertex 70 0 -1
      vertex 70 27.5 1
    endloop
  endfacet
  facet normal -1 -0 0
    outer loop
      vertex 70 27.5 1
      vertex 70 0 -1
      vertex 70 26 1
    endloop
  endfacet
  facet normal -1 0 0
    outer loop
      vertex 70 21 1
      vertex 70 19.5 1
      vertex 70 21 6
    endloop
  endfacet
  facet normal -1 -0 0
    outer loop
      vertex 70 26 1
      vertex 70 0 -1
      vertex 70 21 1
    endloop
  endfacet
  facet normal -1 -0 0
    outer loop
      vertex 70 21 1
      vertex 70 0 -1
      vertex 70 19.5 1
    endloop
  endfacet
  facet normal -1 0 0
    outer loop
      vertex 70 14.5 1
      vertex 70 13 1
      vertex 70 14.5 6
    endloop
  endfacet
  facet normal -1 -0 0
    outer loop
      vertex 70 19.5 1
      vertex 70 0 -1
      vertex 70 14.5 1
    endloop
  endfacet
  facet normal -1 -0 0
    outer loop
      vertex 70 14.5 1
      vertex 70 0 -1
      vertex 70 13 1
    endloop
  endfacet
  facet normal -1 0 0
    outer loop
      vertex 70 8 1
      vertex 70 6.5 1
      vertex 70 8 6
    endloop
  endfacet
  facet normal -1 -0 0
    outer loop
      vertex 70 13 1
      vertex 70 0 -1
      vertex 70 8 1
    endloop
  endfacet
  facet normal -1 -0 0
    outer loop
      vertex 70 8 1
      vertex 70 0 -1
      vertex 70 6.5 1
    endloop
  endfacet
  facet normal -1 -0 0
    outer loop
      vertex 70 6.5 1
      vertex 70 0 -1
      vertex 70 1.5 1
    endloop
  endfacet
  facet normal -1 0 0
    outer loop
      vertex 70 0 6
      vertex 70 1.5 1
      vertex 70 0 -1
    endloop
  endfacet
  facet normal -1 0 0
    outer loop
      vertex 70 1.5 1
      vertex 70 0 6
      vertex 70 1.5 6
    endloop
  endfacet
  facet normal -1 -0 0
    outer loop
      vertex 70 73 6
      vertex 70 71.5 1
      vertex 70 71.5 6
    endloop
  endfacet
  facet normal -1 -0 0
    outer loop
      vertex 70 66.5 6
      vertex 70 65 1
      vertex 70 65 6
    endloop
  endfacet
  facet normal -1 -0 0
    outer loop
      vertex 70 60 6
      vertex 70 58.5 1
      vertex 70 58.5 6
    endloop
  endfacet
  facet normal -1 -0 0
    outer loop
      vertex 70 53.5 6
      vertex 70 52 1
      vertex 70 52 6
    endloop
  endfacet
  facet normal -1 -0 0
    outer loop
      vertex 70 47 6
      vertex 70 45.5 1
      vertex 70 45.5 6
    endloop
  endfacet
  facet normal -1 -0 0
    outer loop
      vertex 70 40.5 6
      vertex 70 39 1
      vertex 70 39 6
    endloop
  endfacet
  facet normal -1 -0 0
    outer loop
      vertex 70 34 6
      vertex 70 32.5 1
      vertex 70 32.5 6
    endloop
  endfacet
  facet normal -1 -0 0
    outer loop
      vertex 70 27.5 6
      vertex 70 26 1
      vertex 70 26 6
    endloop
  endfacet
  facet normal -1 -0 0
    outer loop
      vertex 70 21 6
      vertex 70 19.5 1
      vertex 70 19.5 6
    endloop
  endfacet
  facet normal -1 -0 0
    outer loop
      vertex 70 14.5 6
      vertex 70 13 1
      vertex 70 13 6
    endloop
  endfacet
  facet normal -1 -0 0
    outer loop
      vertex 70 8 6
      vertex 70 6.5 1
      vertex 70 6.5 6
    endloop
  endfacet
  facet normal 0 -1 0
    outer loop
      vertex 63 1.5 1
      vertex 70 1.5 6
      vertex 63 1.5 6
    endloop
  endfacet
  facet normal 0 -1 -0
    outer loop
      vertex 70 1.5 6
      vertex 63 1.5 1
      vertex 70 1.5 1
    endloop
  endfacet
  facet normal 0 0 -1
    outer loop
      vertex 0 6.5 6
      vertex 7 8 6
      vertex 7 6.5 6
    endloop
  endfacet
  facet normal -0 0 -1
    outer loop
      vertex 7 8 6
      vertex 0 6.5 6
      vertex 0 8 6
    endloop
  endfacet
  facet normal -1 0 0
    outer loop
      vertex 7 6.5 1
      vertex 7 8 6
      vertex 7 8 1
    endloop
  endfacet
  facet normal -1 -0 0
    outer loop
      vertex 7 8 6
      vertex 7 6.5 1
      vertex 7 6.5 6
    endloop
  endfacet
  facet normal 0 -1 0
    outer loop
      vertex 0 8 1
      vertex 7 8 6
      vertex 0 8 6
    endloop
  endfacet
  facet normal 0 -1 -0
    outer loop
      vertex 7 8 6
      vertex 0 8 1
      vertex 7 8 1
    endloop
  endfacet
  facet normal 0 1 -0
    outer loop
      vertex 7 6.5 1
      vertex 0 6.5 6
      vertex 7 6.5 6
    endloop
  endfacet
  facet normal 0 1 0
    outer loop
      vertex 0 6.5 6
      vertex 7 6.5 1
      vertex 0 6.5 1
    endloop
  endfacet
  facet normal 1 -0 0
    outer loop
      vertex 21 6.5 6
      vertex 21 8 1
      vertex 21 8 6
    endloop
  endfacet
  facet normal 1 0 0
    outer loop
      vertex 21 8 1
      vertex 21 6.5 6
      vertex 21 6.5 1
    endloop
  endfacet
  facet normal 0 0 -1
    outer loop
      vertex 21 6.5 6
      vertex 28 8 6
      vertex 28 6.5 6
    endloop
  endfacet
  facet normal -0 0 -1
    outer loop
      vertex 28 8 6
      vertex 21 6.5 6
      vertex 21 8 6
    endloop
  endfacet
  facet normal -1 0 0
    outer loop
      vertex 28 6.5 1
      vertex 28 8 6
      vertex 28 8 1
    endloop
  endfacet
  facet normal -1 -0 0
    outer loop
      vertex 28 8 6
      vertex 28 6.5 1
      vertex 28 6.5 6
    endloop
  endfacet
  facet normal 0 1 -0
    outer loop
      vertex 28 6.5 1
      vertex 21 6.5 6
      vertex 28 6.5 6
    endloop
  endfacet
  facet normal 0 1 0
    outer loop
      vertex 21 6.5 6
      vertex 28 6.5 1
      vertex 21 6.5 1
    endloop
  endfacet
  facet normal 0 -1 0
    outer loop
      vertex 21 8 1
      vertex 28 8 6
      vertex 21 8 6
    endloop
  endfacet
  facet normal 0 -1 -0
    outer loop
      vertex 28 8 6
      vertex 21 8 1
      vertex 28 8 1
    endloop
  endfacet
  facet normal 1 -0 0
    outer loop
      vertex 42 6.5 6
      vertex 42 8 1
      vertex 42 8 6
    endloop
  endfacet
  facet normal 1 0 0
    outer loop
      vertex 42 8 1
      vertex 42 6.5 6
      vertex 42 6.5 1
    endloop
  endfacet
  facet normal 0 0 -1
    outer loop
      vertex 42 6.5 6
      vertex 49 8 6
      vertex 49 6.5 6
    endloop
  endfacet
  facet normal -0 0 -1
    outer loop
      vertex 49 8 6
      vertex 42 6.5 6
      vertex 42 8 6
    endloop
  endfacet
  facet normal -1 0 0
    outer loop
      vertex 49 6.5 1
      vertex 49 8 6
      vertex 49 8 1
    endloop
  endfacet
  facet normal -1 -0 0
    outer loop
      vertex 49 8 6
      vertex 49 6.5 1
      vertex 49 6.5 6
    endloop
  endfacet
  facet normal 0 -1 0
    outer loop
      vertex 42 8 1
      vertex 49 8 6
      vertex 42 8 6
    endloop
  endfacet
  facet normal 0 -1 -0
    outer loop
      vertex 49 8 6
      vertex 42 8 1
      vertex 49 8 1
    endloop
  endfacet
  facet normal 0 1 -0
    outer loop
      vertex 49 6.5 1
      vertex 42 6.5 6
      vertex 49 6.5 6
    endloop
  endfacet
  facet normal 0 1 0
    outer loop
      vertex 42 6.5 6
      vertex 49 6.5 1
      vertex 42 6.5 1
    endloop
  endfacet
  facet normal 1 -0 0
    outer loop
      vertex 63 6.5 6
      vertex 63 8 1
      vertex 63 8 6
    endloop
  endfacet
  facet normal 1 0 0
    outer loop
      vertex 63 8 1
      vertex 63 6.5 6
      vertex 63 6.5 1
    endloop
  endfacet
  facet normal 0 0 -1
    outer loop
      vertex 63 6.5 6
      vertex 70 8 6
      vertex 70 6.5 6
    endloop
  endfacet
  facet normal -0 0 -1
    outer loop
      vertex 70 8 6
      vertex 63 6.5 6
      vertex 63 8 6
    endloop
  endfacet
  facet normal 0 -1 0
    outer loop
      vertex 63 8 1
      vertex 70 8 6
      vertex 63 8 6
    endloop
  endfacet
  facet normal 0 -1 -0
    outer loop
      vertex 70 8 6
      vertex 63 8 1
      vertex 70 8 1
    endloop
  endfacet
  facet normal 0 1 -0
    outer loop
      vertex 70 6.5 1
      vertex 63 6.5 6
      vertex 70 6.5 6
    endloop
  endfacet
  facet normal 0 1 0
    outer loop
      vertex 63 6.5 6
      vertex 70 6.5 1
      vertex 63 6.5 1
    endloop
  endfacet
  facet normal 0 0 -1
    outer loop
      vertex 0 13 6
      vertex 7 14.5 6
      vertex 7 13 6
    endloop
  endfacet
  facet normal -0 0 -1
    outer loop
      vertex 7 14.5 6
      vertex 0 13 6
      vertex 0 14.5 6
    endloop
  endfacet
  facet normal -1 0 0
    outer loop
      vertex 7 13 1
      vertex 7 14.5 6
      vertex 7 14.5 1
    endloop
  endfacet
  facet normal -1 -0 0
    outer loop
      vertex 7 14.5 6
      vertex 7 13 1
      vertex 7 13 6
    endloop
  endfacet
  facet normal 0 1 -0
    outer loop
      vertex 7 13 1
      vertex 0 13 6
      vertex 7 13 6
    endloop
  endfacet
  facet normal 0 1 0
    outer loop
      vertex 0 13 6
      vertex 7 13 1
      vertex 0 13 1
    endloop
  endfacet
  facet normal 0 -1 0
    outer loop
      vertex 0 14.5 1
      vertex 7 14.5 6
      vertex 0 14.5 6
    endloop
  endfacet
  facet normal 0 -1 -0
    outer loop
      vertex 7 14.5 6
      vertex 0 14.5 1
      vertex 7 14.5 1
    endloop
  endfacet
  facet normal 1 -0 0
    outer loop
      vertex 21 13 6
      vertex 21 14.5 1
      vertex 21 14.5 6
    endloop
  endfacet
  facet normal 1 0 0
    outer loop
      vertex 21 14.5 1
      vertex 21 13 6
      vertex 21 13 1
    endloop
  endfacet
  facet normal 0 0 -1
    outer loop
      vertex 21 13 6
      vertex 28 14.5 6
      vertex 28 13 6
    endloop
  endfacet
  facet normal -0 0 -1
    outer loop
      vertex 28 14.5 6
      vertex 21 13 6
      vertex 21 14.5 6
    endloop
  endfacet
  facet normal -1 0 0
    outer loop
      vertex 28 13 1
      vertex 28 14.5 6
      vertex 28 14.5 1
    endloop
  endfacet
  facet normal -1 -0 0
    outer loop
      vertex 28 14.5 6
      vertex 28 13 1
      vertex 28 13 6
    endloop
  endfacet
  facet normal 0 -1 0
    outer loop
      vertex 21 14.5 1
      vertex 28 14.5 6
      vertex 21 14.5 6
    endloop
  endfacet
  facet normal 0 -1 -0
    outer loop
      vertex 28 14.5 6
      vertex 21 14.5 1
      vertex 28 14.5 1
    endloop
  endfacet
  facet normal 0 1 -0
    outer loop
      vertex 28 13 1
      vertex 21 13 6
      vertex 28 13 6
    endloop
  endfacet
  facet normal 0 1 0
    outer loop
      vertex 21 13 6
      vertex 28 13 1
      vertex 21 13 1
    endloop
  endfacet
  facet normal 1 -0 0
    outer loop
      vertex 42 13 6
      vertex 42 14.5 1
      vertex 42 14.5 6
    endloop
  endfacet
  facet normal 1 0 0
    outer loop
      vertex 42 14.5 1
      vertex 42 13 6
      vertex 42 13 1
    endloop
  endfacet
  facet normal 0 0 -1
    outer loop
      vertex 42 13 6
      vertex 49 14.5 6
      vertex 49 13 6
    endloop
  endfacet
  facet normal -0 0 -1
    outer loop
      vertex 49 14.5 6
      vertex 42 13 6
      vertex 42 14.5 6
    endloop
  endfacet
  facet normal -1 0 0
    outer loop
      vertex 49 13 1
      vertex 49 14.5 6
      vertex 49 14.5 1
    endloop
  endfacet
  facet normal -1 -0 0
    outer loop
      vertex 49 14.5 6
      vertex 49 13 1
      vertex 49 13 6
    endloop
  endfacet
  facet normal 0 -1 0
    outer loop
      vertex 42 14.5 1
      vertex 49 14.5 6
      vertex 42 14.5 6
    endloop
  endfacet
  facet normal 0 -1 -0
    outer loop
      vertex 49 14.5 6
      vertex 42 14.5 1
      vertex 49 14.5 1
    endloop
  endfacet
  facet normal 0 1 -0
    outer loop
      vertex 49 13 1
      vertex 42 13 6
      vertex 49 13 6
    endloop
  endfacet
  facet normal 0 1 0
    outer loop
      vertex 42 13 6
      vertex 49 13 1
      vertex 42 13 1
    endloop
  endfacet
  facet normal 1 -0 0
    outer loop
      vertex 63 13 6
      vertex 63 14.5 1
      vertex 63 14.5 6
    endloop
  endfacet
  facet normal 1 0 0
    outer loop
      vertex 63 14.5 1
      vertex 63 13 6
      vertex 63 13 1
    endloop
  endfacet
  facet normal 0 0 -1
    outer loop
      vertex 63 13 6
      vertex 70 14.5 6
      vertex 70 13 6
    endloop
  endfacet
  facet normal -0 0 -1
    outer loop
      vertex 70 14.5 6
      vertex 63 13 6
      vertex 63 14.5 6
    endloop
  endfacet
  facet normal 0 1 -0
    outer loop
      vertex 70 13 1
      vertex 63 13 6
      vertex 70 13 6
    endloop
  endfacet
  facet normal 0 1 0
    outer loop
      vertex 63 13 6
      vertex 70 13 1
      vertex 63 13 1
    endloop
  endfacet
  facet normal 0 -1 0
    outer loop
      vertex 63 14.5 1
      vertex 70 14.5 6
      vertex 63 14.5 6
    endloop
  endfacet
  facet normal 0 -1 -0
    outer loop
      vertex 70 14.5 6
      vertex 63 14.5 1
      vertex 70 14.5 1
    endloop
  endfacet
  facet normal 0 0 -1
    outer loop
      vertex 0 19.5 6
      vertex 7 21 6
      vertex 7 19.5 6
    endloop
  endfacet
  facet normal -0 0 -1
    outer loop
      vertex 7 21 6
      vertex 0 19.5 6
      vertex 0 21 6
    endloop
  endfacet
  facet normal -1 0 0
    outer loop
      vertex 7 19.5 1
      vertex 7 21 6
      vertex 7 21 1
    endloop
  endfacet
  facet normal -1 -0 0
    outer loop
      vertex 7 21 6
      vertex 7 19.5 1
      vertex 7 19.5 6
    endloop
  endfacet
  facet normal 0 -1 0
    outer loop
      vertex 0 21 1
      vertex 7 21 6
      vertex 0 21 6
    endloop
  endfacet
  facet normal 0 -1 -0
    outer loop
      vertex 7 21 6
      vertex 0 21 1
      vertex 7 21 1
    endloop
  endfacet
  facet normal 0 1 -0
    outer loop
      vertex 7 19.5 1
      vertex 0 19.5 6
      vertex 7 19.5 6
    endloop
  endfacet
  facet normal 0 1 0
    outer loop
      vertex 0 19.5 6
      vertex 7 19.5 1
      vertex 0 19.5 1
    endloop
  endfacet
  facet normal 1 -0 0
    outer loop
      vertex 21 19.5 6
      vertex 21 21 1
      vertex 21 21 6
    endloop
  endfacet
  facet normal 1 0 0
    outer loop
      vertex 21 21 1
      vertex 21 19.5 6
      vertex 21 19.5 1
    endloop
  endfacet
  facet normal 0 0 -1
    outer loop
      vertex 21 19.5 6
      vertex 28 21 6
      vertex 28 19.5 6
    endloop
  endfacet
  facet normal -0 0 -1
    outer loop
      vertex 28 21 6
      vertex 21 19.5 6
      vertex 21 21 6
    endloop
  endfacet
  facet normal -1 0 0
    outer loop
      vertex 28 19.5 1
      vertex 28 21 6
      vertex 28 21 1
    endloop
  endfacet
  facet normal -1 -0 0
    outer loop
      vertex 28 21 6
      vertex 28 19.5 1
      vertex 28 19.5 6
    endloop
  endfacet
  facet normal 0 -1 0
    outer loop
      vertex 21 21 1
      vertex 28 21 6
      vertex 21 21 6
    endloop
  endfacet
  facet normal 0 -1 -0
    outer loop
      vertex 28 21 6
      vertex 21 21 1
      vertex 28 21 1
    endloop
  endfacet
  facet normal 0 1 -0
    outer loop
      vertex 28 19.5 1
      vertex 21 19.5 6
      vertex 28 19.5 6
    endloop
  endfacet
  facet normal 0 1 0
    outer loop
      vertex 21 19.5 6
      vertex 28 19.5 1
      vertex 21 19.5 1
    endloop
  endfacet
  facet normal 1 -0 0
    outer loop
      vertex 42 19.5 6
      vertex 42 21 1
      vertex 42 21 6
    endloop
  endfacet
  facet normal 1 0 0
    outer loop
      vertex 42 21 1
      vertex 42 19.5 6
      vertex 42 19.5 1
    endloop
  endfacet
  facet normal 0 0 -1
    outer loop
      vertex 42 19.5 6
      vertex 49 21 6
      vertex 49 19.5 6
    endloop
  endfacet
  facet normal -0 0 -1
    outer loop
      vertex 49 21 6
      vertex 42 19.5 6
      vertex 42 21 6
    endloop
  endfacet
  facet normal -1 0 0
    outer loop
      vertex 49 19.5 1
      vertex 49 21 6
      vertex 49 21 1
    endloop
  endfacet
  facet normal -1 -0 0
    outer loop
      vertex 49 21 6
      vertex 49 19.5 1
      vertex 49 19.5 6
    endloop
  endfacet
  facet normal 0 -1 0
    outer loop
      vertex 42 21 1
      vertex 49 21 6
      vertex 42 21 6
    endloop
  endfacet
  facet normal 0 -1 -0
    outer loop
      vertex 49 21 6
      vertex 42 21 1
      vertex 49 21 1
    endloop
  endfacet
  facet normal 0 1 -0
    outer loop
      vertex 49 19.5 1
      vertex 42 19.5 6
      vertex 49 19.5 6
    endloop
  endfacet
  facet normal 0 1 0
    outer loop
      vertex 42 19.5 6
      vertex 49 19.5 1
      vertex 42 19.5 1
    endloop
  endfacet
  facet normal 1 -0 0
    outer loop
      vertex 63 19.5 6
      vertex 63 21 1
      vertex 63 21 6
    endloop
  endfacet
  facet normal 1 0 0
    outer loop
      vertex 63 21 1
      vertex 63 19.5 6
      vertex 63 19.5 1
    endloop
  endfacet
  facet normal 0 0 -1
    outer loop
      vertex 63 19.5 6
      vertex 70 21 6
      vertex 70 19.5 6
    endloop
  endfacet
  facet normal -0 0 -1
    outer loop
      vertex 70 21 6
      vertex 63 19.5 6
      vertex 63 21 6
    endloop
  endfacet
  facet normal 0 -1 0
    outer loop
      vertex 63 21 1
      vertex 70 21 6
      vertex 63 21 6
    endloop
  endfacet
  facet normal 0 -1 -0
    outer loop
      vertex 70 21 6
      vertex 63 21 1
      vertex 70 21 1
    endloop
  endfacet
  facet normal 0 1 -0
    outer loop
      vertex 70 19.5 1
      vertex 63 19.5 6
      vertex 70 19.5 6
    endloop
  endfacet
  facet normal 0 1 0
    outer loop
      vertex 63 19.5 6
      vertex 70 19.5 1
      vertex 63 19.5 1
    endloop
  endfacet
  facet normal 0 0 -1
    outer loop
      vertex 0 26 6
      vertex 7 27.5 6
      vertex 7 26 6
    endloop
  endfacet
  facet normal -0 0 -1
    outer loop
      vertex 7 27.5 6
      vertex 0 26 6
      vertex 0 27.5 6
    endloop
  endfacet
  facet normal -1 0 0
    outer loop
      vertex 7 26 1
      vertex 7 27.5 6
      vertex 7 27.5 1
    endloop
  endfacet
  facet normal -1 -0 0
    outer loop
      vertex 7 27.5 6
      vertex 7 26 1
      vertex 7 26 6
    endloop
  endfacet
  facet normal 0 -1 0
    outer loop
      vertex 0 27.5 1
      vertex 7 27.5 6
      vertex 0 27.5 6
    endloop
  endfacet
  facet normal 0 -1 -0
    outer loop
      vertex 7 27.5 6
      vertex 0 27.5 1
      vertex 7 27.5 1
    endloop
  endfacet
  facet normal 0 1 -0
    outer loop
      vertex 7 26 1
      vertex 0 26 6
      vertex 7 26 6
    endloop
  endfacet
  facet normal 0 1 0
    outer loop
      vertex 0 26 6
      vertex 7 26 1
      vertex 0 26 1
    endloop
  endfacet
  facet normal 1 -0 0
    outer loop
      vertex 21 26 6
      vertex 21 27.5 1
      vertex 21 27.5 6
    endloop
  endfacet
  facet normal 1 0 0
    outer loop
      vertex 21 27.5 1
      vertex 21 26 6
      vertex 21 26 1
    endloop
  endfacet
  facet normal 0 0 -1
    outer loop
      vertex 21 26 6
      vertex 28 27.5 6
      vertex 28 26 6
    endloop
  endfacet
  facet normal -0 0 -1
    outer loop
      vertex 28 27.5 6
      vertex 21 26 6
      vertex 21 27.5 6
    endloop
  endfacet
  facet normal -1 0 0
    outer loop
      vertex 28 26 1
      vertex 28 27.5 6
      vertex 28 27.5 1
    endloop
  endfacet
  facet normal -1 -0 0
    outer loop
      vertex 28 27.5 6
      vertex 28 26 1
      vertex 28 26 6
    endloop
  endfacet
  facet normal 0 1 -0
    outer loop
      vertex 28 26 1
      vertex 21 26 6
      vertex 28 26 6
    endloop
  endfacet
  facet normal 0 1 0
    outer loop
      vertex 21 26 6
      vertex 28 26 1
      vertex 21 26 1
    endloop
  endfacet
  facet normal 0 -1 0
    outer loop
      vertex 21 27.5 1
      vertex 28 27.5 6
      vertex 21 27.5 6
    endloop
  endfacet
  facet normal 0 -1 -0
    outer loop
      vertex 28 27.5 6
      vertex 21 27.5 1
      vertex 28 27.5 1
    endloop
  endfacet
  facet normal 1 -0 0
    outer loop
      vertex 42 26 6
      vertex 42 27.5 1
      vertex 42 27.5 6
    endloop
  endfacet
  facet normal 1 0 0
    outer loop
      vertex 42 27.5 1
      vertex 42 26 6
      vertex 42 26 1
    endloop
  endfacet
  facet normal 0 0 -1
    outer loop
      vertex 42 26 6
      vertex 49 27.5 6
      vertex 49 26 6
    endloop
  endfacet
  facet normal -0 0 -1
    outer loop
      vertex 49 27.5 6
      vertex 42 26 6
      vertex 42 27.5 6
    endloop
  endfacet
  facet normal -1 0 0
    outer loop
      vertex 49 26 1
      vertex 49 27.5 6
      vertex 49 27.5 1
    endloop
  endfacet
  facet normal -1 -0 0
    outer loop
      vertex 49 27.5 6
      vertex 49 26 1
      vertex 49 26 6
    endloop
  endfacet
  facet normal 0 -1 0
    outer loop
      vertex 42 27.5 1
      vertex 49 27.5 6
      vertex 42 27.5 6
    endloop
  endfacet
  facet normal 0 -1 -0
    outer loop
      vertex 49 27.5 6
      vertex 42 27.5 1
      vertex 49 27.5 1
    endloop
  endfacet
  facet normal 0 1 -0
    outer loop
      vertex 49 26 1
      vertex 42 26 6
      vertex 49 26 6
    endloop
  endfacet
  facet normal 0 1 0
    outer loop
      vertex 42 26 6
      vertex 49 26 1
      vertex 42 26 1
    endloop
  endfacet
  facet normal 1 -0 0
    outer loop
      vertex 63 26 6
      vertex 63 27.5 1
      vertex 63 27.5 6
    endloop
  endfacet
  facet normal 1 0 0
    outer loop
      vertex 63 27.5 1
      vertex 63 26 6
      vertex 63 26 1
    endloop
  endfacet
  facet normal 0 0 -1
    outer loop
      vertex 63 26 6
      vertex 70 27.5 6
      vertex 70 26 6
    endloop
  endfacet
  facet normal -0 0 -1
    outer loop
      vertex 70 27.5 6
      vertex 63 26 6
      vertex 63 27.5 6
    endloop
  endfacet
  facet normal 0 1 -0
    outer loop
      vertex 70 26 1
      vertex 63 26 6
      vertex 70 26 6
    endloop
  endfacet
  facet normal 0 1 0
    outer loop
      vertex 63 26 6
      vertex 70 26 1
      vertex 63 26 1
    endloop
  endfacet
  facet normal 0 -1 0
    outer loop
      vertex 63 27.5 1
      vertex 70 27.5 6
      vertex 63 27.5 6
    endloop
  endfacet
  facet normal 0 -1 -0
    outer loop
      vertex 70 27.5 6
      vertex 63 27.5 1
      vertex 70 27.5 1
    endloop
  endfacet
  facet normal 0 0 -1
    outer loop
      vertex 0 32.5 6
      vertex 7 34 6
      vertex 7 32.5 6
    endloop
  endfacet
  facet normal -0 0 -1
    outer loop
      vertex 7 34 6
      vertex 0 32.5 6
      vertex 0 34 6
    endloop
  endfacet
  facet normal -1 0 0
    outer loop
      vertex 7 32.5 1
      vertex 7 34 6
      vertex 7 34 1
    endloop
  endfacet
  facet normal -1 -0 0
    outer loop
      vertex 7 34 6
      vertex 7 32.5 1
      vertex 7 32.5 6
    endloop
  endfacet
  facet normal 0 -1 0
    outer loop
      vertex 0 34 1
      vertex 7 34 6
      vertex 0 34 6
    endloop
  endfacet
  facet normal 0 -1 -0
    outer loop
      vertex 7 34 6
      vertex 0 34 1
      vertex 7 34 1
    endloop
  endfacet
  facet normal 0 1 -0
    outer loop
      vertex 7 32.5 1
      vertex 0 32.5 6
      vertex 7 32.5 6
    endloop
  endfacet
  facet normal 0 1 0
    outer loop
      vertex 0 32.5 6
      vertex 7 32.5 1
      vertex 0 32.5 1
    endloop
  endfacet
  facet normal 1 -0 0
    outer loop
      vertex 21 32.5 6
      vertex 21 34 1
      vertex 21 34 6
    endloop
  endfacet
  facet normal 1 0 0
    outer loop
      vertex 21 34 1
      vertex 21 32.5 6
      vertex 21 32.5 1
    endloop
  endfacet
  facet normal 0 0 -1
    outer loop
      vertex 21 32.5 6
      vertex 28 34 6
      vertex 28 32.5 6
    endloop
  endfacet
  facet normal -0 0 -1
    outer loop
      vertex 28 34 6
      vertex 21 32.5 6
      vertex 21 34 6
    endloop
  endfacet
  facet normal -1 0 0
    outer loop
      vertex 28 32.5 1
      vertex 28 34 6
      vertex 28 34 1
    endloop
  endfacet
  facet normal -1 -0 0
    outer loop
      vertex 28 34 6
      vertex 28 32.5 1
      vertex 28 32.5 6
    endloop
  endfacet
  facet normal 0 -1 0
    outer loop
      vertex 21 34 1
      vertex 28 34 6
      vertex 21 34 6
    endloop
  endfacet
  facet normal 0 -1 -0
    outer loop
      vertex 28 34 6
      vertex 21 34 1
      vertex 28 34 1
    endloop
  endfacet
  facet normal 0 1 -0
    outer loop
      vertex 28 32.5 1
      vertex 21 32.5 6
      vertex 28 32.5 6
    endloop
  endfacet
  facet normal 0 1 0
    outer loop
      vertex 21 32.5 6
      vertex 28 32.5 1
      vertex 21 32.5 1
    endloop
  endfacet
  facet normal 1 -0 0
    outer loop
      vertex 42 32.5 6
      vertex 42 34 1
      vertex 42 34 6
    endloop
  endfacet
  facet normal 1 0 0
    outer loop
      vertex 42 34 1
      vertex 42 32.5 6
      vertex 42 32.5 1
    endloop
  endfacet
  facet normal 0 0 -1
    outer loop
      vertex 42 32.5 6
      vertex 49 34 6
      vertex 49 32.5 6
    endloop
  endfacet
  facet normal -0 0 -1
    outer loop
      vertex 49 34 6
      vertex 42 32.5 6
      vertex 42 34 6
    endloop
  endfacet
  facet normal -1 0 0
    outer loop
      vertex 49 32.5 1
      vertex 49 34 6
      vertex 49 34 1
    endloop
  endfacet
  facet normal -1 -0 0
    outer loop
      vertex 49 34 6
      vertex 49 32.5 1
      vertex 49 32.5 6
    endloop
  endfacet
  facet normal 0 -1 0
    outer loop
      vertex 42 34 1
      vertex 49 34 6
      vertex 42 34 6
    endloop
  endfacet
  facet normal 0 -1 -0
    outer loop
      vertex 49 34 6
      vertex 42 34 1
      vertex 49 34 1
    endloop
  endfacet
  facet normal 0 1 -0
    outer loop
      vertex 49 32.5 1
      vertex 42 32.5 6
      vertex 49 32.5 6
    endloop
  endfacet
  facet normal 0 1 0
    outer loop
      vertex 42 32.5 6
      vertex 49 32.5 1
      vertex 42 32.5 1
    endloop
  endfacet
  facet normal 1 -0 0
    outer loop
      vertex 63 32.5 6
      vertex 63 34 1
      vertex 63 34 6
    endloop
  endfacet
  facet normal 1 0 0
    outer loop
      vertex 63 34 1
      vertex 63 32.5 6
      vertex 63 32.5 1
    endloop
  endfacet
  facet normal 0 0 -1
    outer loop
      vertex 63 32.5 6
      vertex 70 34 6
      vertex 70 32.5 6
    endloop
  endfacet
  facet normal -0 0 -1
    outer loop
      vertex 70 34 6
      vertex 63 32.5 6
      vertex 63 34 6
    endloop
  endfacet
  facet normal 0 1 -0
    outer loop
      vertex 70 32.5 1
      vertex 63 32.5 6
      vertex 70 32.5 6
    endloop
  endfacet
  facet normal 0 1 0
    outer loop
      vertex 63 32.5 6
      vertex 70 32.5 1
      vertex 63 32.5 1
    endloop
  endfacet
  facet normal 0 -1 0
    outer loop
      vertex 63 34 1
      vertex 70 34 6
      vertex 63 34 6
    endloop
  endfacet
  facet normal 0 -1 -0
    outer loop
      vertex 70 34 6
      vertex 63 34 1
      vertex 70 34 1
    endloop
  endfacet
  facet normal 0 0 -1
    outer loop
      vertex 0 39 6
      vertex 7 40.5 6
      vertex 7 39 6
    endloop
  endfacet
  facet normal -0 0 -1
    outer loop
      vertex 7 40.5 6
      vertex 0 39 6
      vertex 0 40.5 6
    endloop
  endfacet
  facet normal -1 0 0
    outer loop
      vertex 7 39 1
      vertex 7 40.5 6
      vertex 7 40.5 1
    endloop
  endfacet
  facet normal -1 -0 0
    outer loop
      vertex 7 40.5 6
      vertex 7 39 1
      vertex 7 39 6
    endloop
  endfacet
  facet normal 0 -1 0
    outer loop
      vertex 0 40.5 1
      vertex 7 40.5 6
      vertex 0 40.5 6
    endloop
  endfacet
  facet normal 0 -1 -0
    outer loop
      vertex 7 40.5 6
      vertex 0 40.5 1
      vertex 7 40.5 1
    endloop
  endfacet
  facet normal 0 1 -0
    outer loop
      vertex 7 39 1
      vertex 0 39 6
      vertex 7 39 6
    endloop
  endfacet
  facet normal 0 1 0
    outer loop
      vertex 0 39 6
      vertex 7 39 1
      vertex 0 39 1
    endloop
  endfacet
  facet normal 1 -0 0
    outer loop
      vertex 21 39 6
      vertex 21 40.5 1
      vertex 21 40.5 6
    endloop
  endfacet
  facet normal 1 0 0
    outer loop
      vertex 21 40.5 1
      vertex 21 39 6
      vertex 21 39 1
    endloop
  endfacet
  facet normal 0 0 -1
    outer loop
      vertex 21 39 6
      vertex 28 40.5 6
      vertex 28 39 6
    endloop
  endfacet
  facet normal -0 0 -1
    outer loop
      vertex 28 40.5 6
      vertex 21 39 6
      vertex 21 40.5 6
    endloop
  endfacet
  facet normal -1 0 0
    outer loop
      vertex 28 39 1
      vertex 28 40.5 6
      vertex 28 40.5 1
    endloop
  endfacet
  facet normal -1 -0 0
    outer loop
      vertex 28 40.5 6
      vertex 28 39 1
      vertex 28 39 6
    endloop
  endfacet
  facet normal 0 1 -0
    outer loop
      vertex 28 39 1
      vertex 21 39 6
      vertex 28 39 6
    endloop
  endfacet
  facet normal 0 1 0
    outer loop
      vertex 21 39 6
      vertex 28 39 1
      vertex 21 39 1
    endloop
  endfacet
  facet normal 0 -1 0
    outer loop
      vertex 21 40.5 1
      vertex 28 40.5 6
      vertex 21 40.5 6
    endloop
  endfacet
  facet normal 0 -1 -0
    outer loop
      vertex 28 40.5 6
      vertex 21 40.5 1
      vertex 28 40.5 1
    endloop
  endfacet
  facet normal 1 -0 0
    outer loop
      vertex 42 39 6
      vertex 42 40.5 1
      vertex 42 40.5 6
    endloop
  endfacet
  facet normal 1 0 0
    outer loop
      vertex 42 40.5 1
      vertex 42 39 6
      vertex 42 39 1
    endloop
  endfacet
  facet normal 0 0 -1
    outer loop
      vertex 42 39 6
      vertex 49 40.5 6
      vertex 49 39 6
    endloop
  endfacet
  facet normal -0 0 -1
    outer loop
      vertex 49 40.5 6
      vertex 42 39 6
      vertex 42 40.5 6
    endloop
  endfacet
  facet normal -1 0 0
    outer loop
      vertex 49 39 1
      vertex 49 40.5 6
      vertex 49 40.5 1
    endloop
  endfacet
  facet normal -1 -0 0
    outer loop
      vertex 49 40.5 6
      vertex 49 39 1
      vertex 49 39 6
    endloop
  endfacet
  facet normal 0 1 -0
    outer loop
      vertex 49 39 1
      vertex 42 39 6
      vertex 49 39 6
    endloop
  endfacet
  facet normal 0 1 0
    outer loop
      vertex 42 39 6
      vertex 49 39 1
      vertex 42 39 1
    endloop
  endfacet
  facet normal 0 -1 0
    outer loop
      vertex 42 40.5 1
      vertex 49 40.5 6
      vertex 42 40.5 6
    endloop
  endfacet
  facet normal 0 -1 -0
    outer loop
      vertex 49 40.5 6
      vertex 42 40.5 1
      vertex 49 40.5 1
    endloop
  endfacet
  facet normal 1 -0 0
    outer loop
      vertex 63 39 6
      vertex 63 40.5 1
      vertex 63 40.5 6
    endloop
  endfacet
  facet normal 1 0 0
    outer loop
      vertex 63 40.5 1
      vertex 63 39 6
      vertex 63 39 1
    endloop
  endfacet
  facet normal 0 0 -1
    outer loop
      vertex 63 39 6
      vertex 70 40.5 6
      vertex 70 39 6
    endloop
  endfacet
  facet normal -0 0 -1
    outer loop
      vertex 70 40.5 6
      vertex 63 39 6
      vertex 63 40.5 6
    endloop
  endfacet
  facet normal 0 -1 0
    outer loop
      vertex 63 40.5 1
      vertex 70 40.5 6
      vertex 63 40.5 6
    endloop
  endfacet
  facet normal 0 -1 -0
    outer loop
      vertex 70 40.5 6
      vertex 63 40.5 1
      vertex 70 40.5 1
    endloop
  endfacet
  facet normal 0 1 -0
    outer loop
      vertex 70 39 1
      vertex 63 39 6
      vertex 70 39 6
    endloop
  endfacet
  facet normal 0 1 0
    outer loop
      vertex 63 39 6
      vertex 70 39 1
      vertex 63 39 1
    endloop
  endfacet
  facet normal 0 0 -1
    outer loop
      vertex 0 45.5 6
      vertex 7 47 6
      vertex 7 45.5 6
    endloop
  endfacet
  facet normal -0 0 -1
    outer loop
      vertex 7 47 6
      vertex 0 45.5 6
      vertex 0 47 6
    endloop
  endfacet
  facet normal -1 0 0
    outer loop
      vertex 7 45.5 1
      vertex 7 47 6
      vertex 7 47 1
    endloop
  endfacet
  facet normal -1 -0 0
    outer loop
      vertex 7 47 6
      vertex 7 45.5 1
      vertex 7 45.5 6
    endloop
  endfacet
  facet normal 0 1 -0
    outer loop
      vertex 7 45.5 1
      vertex 0 45.5 6
      vertex 7 45.5 6
    endloop
  endfacet
  facet normal 0 1 0
    outer loop
      vertex 0 45.5 6
      vertex 7 45.5 1
      vertex 0 45.5 1
    endloop
  endfacet
  facet normal 0 -1 0
    outer loop
      vertex 0 47 1
      vertex 7 47 6
      vertex 0 47 6
    endloop
  endfacet
  facet normal 0 -1 -0
    outer loop
      vertex 7 47 6
      vertex 0 47 1
      vertex 7 47 1
    endloop
  endfacet
  facet normal 1 -0 0
    outer loop
      vertex 21 45.5 6
      vertex 21 47 1
      vertex 21 47 6
    endloop
  endfacet
  facet normal 1 0 0
    outer loop
      vertex 21 47 1
      vertex 21 45.5 6
      vertex 21 45.5 1
    endloop
  endfacet
  facet normal 0 0 -1
    outer loop
      vertex 21 45.5 6
      vertex 28 47 6
      vertex 28 45.5 6
    endloop
  endfacet
  facet normal -0 0 -1
    outer loop
      vertex 28 47 6
      vertex 21 45.5 6
      vertex 21 47 6
    endloop
  endfacet
  facet normal -1 0 0
    outer loop
      vertex 28 45.5 1
      vertex 28 47 6
      vertex 28 47 1
    endloop
  endfacet
  facet normal -1 -0 0
    outer loop
      vertex 28 47 6
      vertex 28 45.5 1
      vertex 28 45.5 6
    endloop
  endfacet
  facet normal 0 1 -0
    outer loop
      vertex 28 45.5 1
      vertex 21 45.5 6
      vertex 28 45.5 6
    endloop
  endfacet
  facet normal 0 1 0
    outer loop
      vertex 21 45.5 6
      vertex 28 45.5 1
      vertex 21 45.5 1
    endloop
  endfacet
  facet normal 0 -1 0
    outer loop
      vertex 21 47 1
      vertex 28 47 6
      vertex 21 47 6
    endloop
  endfacet
  facet normal 0 -1 -0
    outer loop
      vertex 28 47 6
      vertex 21 47 1
      vertex 28 47 1
    endloop
  endfacet
  facet normal 1 -0 0
    outer loop
      vertex 42 45.5 6
      vertex 42 47 1
      vertex 42 47 6
    endloop
  endfacet
  facet normal 1 0 0
    outer loop
      vertex 42 47 1
      vertex 42 45.5 6
      vertex 42 45.5 1
    endloop
  endfacet
  facet normal 0 0 -1
    outer loop
      vertex 42 45.5 6
      vertex 49 47 6
      vertex 49 45.5 6
    endloop
  endfacet
  facet normal -0 0 -1
    outer loop
      vertex 49 47 6
      vertex 42 45.5 6
      vertex 42 47 6
    endloop
  endfacet
  facet normal -1 0 0
    outer loop
      vertex 49 45.5 1
      vertex 49 47 6
      vertex 49 47 1
    endloop
  endfacet
  facet normal -1 -0 0
    outer loop
      vertex 49 47 6
      vertex 49 45.5 1
      vertex 49 45.5 6
    endloop
  endfacet
  facet normal 0 1 -0
    outer loop
      vertex 49 45.5 1
      vertex 42 45.5 6
      vertex 49 45.5 6
    endloop
  endfacet
  facet normal 0 1 0
    outer loop
      vertex 42 45.5 6
      vertex 49 45.5 1
      vertex 42 45.5 1
    endloop
  endfacet
  facet normal 0 -1 0
    outer loop
      vertex 42 47 1
      vertex 49 47 6
      vertex 42 47 6
    endloop
  endfacet
  facet normal 0 -1 -0
    outer loop
      vertex 49 47 6
      vertex 42 47 1
      vertex 49 47 1
    endloop
  endfacet
  facet normal 1 -0 0
    outer loop
      vertex 63 45.5 6
      vertex 63 47 1
      vertex 63 47 6
    endloop
  endfacet
  facet normal 1 0 0
    outer loop
      vertex 63 47 1
      vertex 63 45.5 6
      vertex 63 45.5 1
    endloop
  endfacet
  facet normal 0 0 -1
    outer loop
      vertex 63 45.5 6
      vertex 70 47 6
      vertex 70 45.5 6
    endloop
  endfacet
  facet normal -0 0 -1
    outer loop
      vertex 70 47 6
      vertex 63 45.5 6
      vertex 63 47 6
    endloop
  endfacet
  facet normal 0 1 -0
    outer loop
      vertex 70 45.5 1
      vertex 63 45.5 6
      vertex 70 45.5 6
    endloop
  endfacet
  facet normal 0 1 0
    outer loop
      vertex 63 45.5 6
      vertex 70 45.5 1
      vertex 63 45.5 1
    endloop
  endfacet
  facet normal 0 -1 0
    outer loop
      vertex 63 47 1
      vertex 70 47 6
      vertex 63 47 6
    endloop
  endfacet
  facet normal 0 -1 -0
    outer loop
      vertex 70 47 6
      vertex 63 47 1
      vertex 70 47 1
    endloop
  endfacet
  facet normal 0 0 -1
    outer loop
      vertex 0 52 6
      vertex 7 53.5 6
      vertex 7 52 6
    endloop
  endfacet
  facet normal -0 0 -1
    outer loop
      vertex 7 53.5 6
      vertex 0 52 6
      vertex 0 53.5 6
    endloop
  endfacet
  facet normal -1 0 0
    outer loop
      vertex 7 52 1
      vertex 7 53.5 6
      vertex 7 53.5 1
    endloop
  endfacet
  facet normal -1 -0 0
    outer loop
      vertex 7 53.5 6
      vertex 7 52 1
      vertex 7 52 6
    endloop
  endfacet
  facet normal 0 1 -0
    outer loop
      vertex 7 52 1
      vertex 0 52 6
      vertex 7 52 6
    endloop
  endfacet
  facet normal 0 1 0
    outer loop
      vertex 0 52 6
      vertex 7 52 1
      vertex 0 52 1
    endloop
  endfacet
  facet normal 0 -1 0
    outer loop
      vertex 0 53.5 1
      vertex 7 53.5 6
      vertex 0 53.5 6
    endloop
  endfacet
  facet normal 0 -1 -0
    outer loop
      vertex 7 53.5 6
      vertex 0 53.5 1
      vertex 7 53.5 1
    endloop
  endfacet
  facet normal 1 -0 0
    outer loop
      vertex 21 52 6
      vertex 21 53.5 1
      vertex 21 53.5 6
    endloop
  endfacet
  facet normal 1 0 0
    outer loop
      vertex 21 53.5 1
      vertex 21 52 6
      vertex 21 52 1
    endloop
  endfacet
  facet normal 0 0 -1
    outer loop
      vertex 21 52 6
      vertex 28 53.5 6
      vertex 28 52 6
    endloop
  endfacet
  facet normal -0 0 -1
    outer loop
      vertex 28 53.5 6
      vertex 21 52 6
      vertex 21 53.5 6
    endloop
  endfacet
  facet normal -1 0 0
    outer loop
      vertex 28 52 1
      vertex 28 53.5 6
      vertex 28 53.5 1
    endloop
  endfacet
  facet normal -1 -0 0
    outer loop
      vertex 28 53.5 6
      vertex 28 52 1
      vertex 28 52 6
    endloop
  endfacet
  facet normal 0 -1 0
    outer loop
      vertex 21 53.5 1
      vertex 28 53.5 6
      vertex 21 53.5 6
    endloop
  endfacet
  facet normal 0 -1 -0
    outer loop
      vertex 28 53.5 6
      vertex 21 53.5 1
      vertex 28 53.5 1
    endloop
  endfacet
  facet normal 0 1 -0
    outer loop
      vertex 28 52 1
      vertex 21 52 6
      vertex 28 52 6
    endloop
  endfacet
  facet normal 0 1 0
    outer loop
      vertex 21 52 6
      vertex 28 52 1
      vertex 21 52 1
    endloop
  endfacet
  facet normal 1 -0 0
    outer loop
      vertex 42 52 6
      vertex 42 53.5 1
      vertex 42 53.5 6
    endloop
  endfacet
  facet normal 1 0 0
    outer loop
      vertex 42 53.5 1
      vertex 42 52 6
      vertex 42 52 1
    endloop
  endfacet
  facet normal 0 0 -1
    outer loop
      vertex 42 52 6
      vertex 49 53.5 6
      vertex 49 52 6
    endloop
  endfacet
  facet normal -0 0 -1
    outer loop
      vertex 49 53.5 6
      vertex 42 52 6
      vertex 42 53.5 6
    endloop
  endfacet
  facet normal -1 0 0
    outer loop
      vertex 49 52 1
      vertex 49 53.5 6
      vertex 49 53.5 1
    endloop
  endfacet
  facet normal -1 -0 0
    outer loop
      vertex 49 53.5 6
      vertex 49 52 1
      vertex 49 52 6
    endloop
  endfacet
  facet normal 0 1 -0
    outer loop
      vertex 49 52 1
      vertex 42 52 6
      vertex 49 52 6
    endloop
  endfacet
  facet normal 0 1 0
    outer loop
      vertex 42 52 6
      vertex 49 52 1
      vertex 42 52 1
    endloop
  endfacet
  facet normal 0 -1 0
    outer loop
      vertex 42 53.5 1
      vertex 49 53.5 6
      vertex 42 53.5 6
    endloop
  endfacet
  facet normal 0 -1 -0
    outer loop
      vertex 49 53.5 6
      vertex 42 53.5 1
      vertex 49 53.5 1
    endloop
  endfacet
  facet normal 1 -0 0
    outer loop
      vertex 63 52 6
      vertex 63 53.5 1
      vertex 63 53.5 6
    endloop
  endfacet
  facet normal 1 0 0
    outer loop
      vertex 63 53.5 1
      vertex 63 52 6
      vertex 63 52 1
    endloop
  endfacet
  facet normal 0 0 -1
    outer loop
      vertex 63 52 6
      vertex 70 53.5 6
      vertex 70 52 6
    endloop
  endfacet
  facet normal -0 0 -1
    outer loop
      vertex 70 53.5 6
      vertex 63 52 6
      vertex 63 53.5 6
    endloop
  endfacet
  facet normal 0 1 -0
    outer loop
      vertex 70 52 1
      vertex 63 52 6
      vertex 70 52 6
    endloop
  endfacet
  facet normal 0 1 0
    outer loop
      vertex 63 52 6
      vertex 70 52 1
      vertex 63 52 1
    endloop
  endfacet
  facet normal 0 -1 0
    outer loop
      vertex 63 53.5 1
      vertex 70 53.5 6
      vertex 63 53.5 6
    endloop
  endfacet
  facet normal 0 -1 -0
    outer loop
      vertex 70 53.5 6
      vertex 63 53.5 1
      vertex 70 53.5 1
    endloop
  endfacet
  facet normal 0 0 -1
    outer loop
      vertex 0 58.5 6
      vertex 7 60 6
      vertex 7 58.5 6
    endloop
  endfacet
  facet normal -0 0 -1
    outer loop
      vertex 7 60 6
      vertex 0 58.5 6
      vertex 0 60 6
    endloop
  endfacet
  facet normal -1 0 0
    outer loop
      vertex 7 58.5 1
      vertex 7 60 6
      vertex 7 60 1
    endloop
  endfacet
  facet normal -1 -0 0
    outer loop
      vertex 7 60 6
      vertex 7 58.5 1
      vertex 7 58.5 6
    endloop
  endfacet
  facet normal 0 1 -0
    outer loop
      vertex 7 58.5 1
      vertex 0 58.5 6
      vertex 7 58.5 6
    endloop
  endfacet
  facet normal 0 1 0
    outer loop
      vertex 0 58.5 6
      vertex 7 58.5 1
      vertex 0 58.5 1
    endloop
  endfacet
  facet normal 0 -1 0
    outer loop
      vertex 0 60 1
      vertex 7 60 6
      vertex 0 60 6
    endloop
  endfacet
  facet normal 0 -1 -0
    outer loop
      vertex 7 60 6
      vertex 0 60 1
      vertex 7 60 1
    endloop
  endfacet
  facet normal 1 -0 0
    outer loop
      vertex 21 58.5 6
      vertex 21 60 1
      vertex 21 60 6
    endloop
  endfacet
  facet normal 1 0 0
    outer loop
      vertex 21 60 1
      vertex 21 58.5 6
      vertex 21 58.5 1
    endloop
  endfacet
  facet normal 0 0 -1
    outer loop
      vertex 21 58.5 6
      vertex 28 60 6
      vertex 28 58.5 6
    endloop
  endfacet
  facet normal -0 0 -1
    outer loop
      vertex 28 60 6
      vertex 21 58.5 6
      vertex 21 60 6
    endloop
  endfacet
  facet normal -1 0 0
    outer loop
      vertex 28 58.5 1
      vertex 28 60 6
      vertex 28 60 1
    endloop
  endfacet
  facet normal -1 -0 0
    outer loop
      vertex 28 60 6
      vertex 28 58.5 1
      vertex 28 58.5 6
    endloop
  endfacet
  facet normal 0 1 -0
    outer loop
      vertex 28 58.5 1
      vertex 21 58.5 6
      vertex 28 58.5 6
    endloop
  endfacet
  facet normal 0 1 0
    outer loop
      vertex 21 58.5 6
      vertex 28 58.5 1
      vertex 21 58.5 1
    endloop
  endfacet
  facet normal 0 -1 0
    outer loop
      vertex 21 60 1
      vertex 28 60 6
      vertex 21 60 6
    endloop
  endfacet
  facet normal 0 -1 -0
    outer loop
      vertex 28 60 6
      vertex 21 60 1
      vertex 28 60 1
    endloop
  endfacet
  facet normal 1 -0 0
    outer loop
      vertex 42 58.5 6
      vertex 42 60 1
      vertex 42 60 6
    endloop
  endfacet
  facet normal 1 0 0
    outer loop
      vertex 42 60 1
      vertex 42 58.5 6
      vertex 42 58.5 1
    endloop
  endfacet
  facet normal 0 0 -1
    outer loop
      vertex 42 58.5 6
      vertex 49 60 6
      vertex 49 58.5 6
    endloop
  endfacet
  facet normal -0 0 -1
    outer loop
      vertex 49 60 6
      vertex 42 58.5 6
      vertex 42 60 6
    endloop
  endfacet
  facet normal -1 0 0
    outer loop
      vertex 49 58.5 1
      vertex 49 60 6
      vertex 49 60 1
    endloop
  endfacet
  facet normal -1 -0 0
    outer loop
      vertex 49 60 6
      vertex 49 58.5 1
      vertex 49 58.5 6
    endloop
  endfacet
  facet normal 0 1 -0
    outer loop
      vertex 49 58.5 1
      vertex 42 58.5 6
      vertex 49 58.5 6
    endloop
  endfacet
  facet normal 0 1 0
    outer loop
      vertex 42 58.5 6
      vertex 49 58.5 1
      vertex 42 58.5 1
    endloop
  endfacet
  facet normal 0 -1 0
    outer loop
      vertex 42 60 1
      vertex 49 60 6
      vertex 42 60 6
    endloop
  endfacet
  facet normal 0 -1 -0
    outer loop
      vertex 49 60 6
      vertex 42 60 1
      vertex 49 60 1
    endloop
  endfacet
  facet normal 1 -0 0
    outer loop
      vertex 63 58.5 6
      vertex 63 60 1
      vertex 63 60 6
    endloop
  endfacet
  facet normal 1 0 0
    outer loop
      vertex 63 60 1
      vertex 63 58.5 6
      vertex 63 58.5 1
    endloop
  endfacet
  facet normal 0 0 -1
    outer loop
      vertex 63 58.5 6
      vertex 70 60 6
      vertex 70 58.5 6
    endloop
  endfacet
  facet normal -0 0 -1
    outer loop
      vertex 70 60 6
      vertex 63 58.5 6
      vertex 63 60 6
    endloop
  endfacet
  facet normal 0 1 -0
    outer loop
      vertex 70 58.5 1
      vertex 63 58.5 6
      vertex 70 58.5 6
    endloop
  endfacet
  facet normal 0 1 0
    outer loop
      vertex 63 58.5 6
      vertex 70 58.5 1
      vertex 63 58.5 1
    endloop
  endfacet
  facet normal 0 -1 0
    outer loop
      vertex 63 60 1
      vertex 70 60 6
      vertex 63 60 6
    endloop
  endfacet
  facet normal 0 -1 -0
    outer loop
      vertex 70 60 6
      vertex 63 60 1
      vertex 70 60 1
    endloop
  endfacet
  facet normal 0 0 -1
    outer loop
      vertex 0 65 6
      vertex 7 66.5 6
      vertex 7 65 6
    endloop
  endfacet
  facet normal -0 0 -1
    outer loop
      vertex 7 66.5 6
      vertex 0 65 6
      vertex 0 66.5 6
    endloop
  endfacet
  facet normal -1 0 0
    outer loop
      vertex 7 65 1
      vertex 7 66.5 6
      vertex 7 66.5 1
    endloop
  endfacet
  facet normal -1 -0 0
    outer loop
      vertex 7 66.5 6
      vertex 7 65 1
      vertex 7 65 6
    endloop
  endfacet
  facet normal 0 -1 0
    outer loop
      vertex 0 66.5 1
      vertex 7 66.5 6
      vertex 0 66.5 6
    endloop
  endfacet
  facet normal 0 -1 -0
    outer loop
      vertex 7 66.5 6
      vertex 0 66.5 1
      vertex 7 66.5 1
    endloop
  endfacet
  facet normal 0 1 -0
    outer loop
      vertex 7 65 1
      vertex 0 65 6
      vertex 7 65 6
    endloop
  endfacet
  facet normal 0 1 0
    outer loop
      vertex 0 65 6
      vertex 7 65 1
      vertex 0 65 1
    endloop
  endfacet
  facet normal 1 -0 0
    outer loop
      vertex 21 65 6
      vertex 21 66.5 1
      vertex 21 66.5 6
    endloop
  endfacet
  facet normal 1 0 0
    outer loop
      vertex 21 66.5 1
      vertex 21 65 6
      vertex 21 65 1
    endloop
  endfacet
  facet normal 0 0 -1
    outer loop
      vertex 21 65 6
      vertex 28 66.5 6
      vertex 28 65 6
    endloop
  endfacet
  facet normal -0 0 -1
    outer loop
      vertex 28 66.5 6
      vertex 21 65 6
      vertex 21 66.5 6
    endloop
  endfacet
  facet normal -1 0 0
    outer loop
      vertex 28 65 1
      vertex 28 66.5 6
      vertex 28 66.5 1
    endloop
  endfacet
  facet normal -1 -0 0
    outer loop
      vertex 28 66.5 6
      vertex 28 65 1
      vertex 28 65 6
    endloop
  endfacet
  facet normal 0 -1 0
    outer loop
      vertex 21 66.5 1
      vertex 28 66.5 6
      vertex 21 66.5 6
    endloop
  endfacet
  facet normal 0 -1 -0
    outer loop
      vertex 28 66.5 6
      vertex 21 66.5 1
      vertex 28 66.5 1
    endloop
  endfacet
  facet normal 0 1 -0
    outer loop
      vertex 28 65 1
      vertex 21 65 6
      vertex 28 65 6
    endloop
  endfacet
  facet normal 0 1 0
    outer loop
      vertex 21 65 6
      vertex 28 65 1
      vertex 21 65 1
    endloop
  endfacet
  facet normal 1 -0 0
    outer loop
      vertex 42 65 6
      vertex 42 66.5 1
      vertex 42 66.5 6
    endloop
  endfacet
  facet normal 1 0 0
    outer loop
      vertex 42 66.5 1
      vertex 42 65 6
      vertex 42 65 1
    endloop
  endfacet
  facet normal 0 0 -1
    outer loop
      vertex 42 65 6
      vertex 49 66.5 6
      vertex 49 65 6
    endloop
  endfacet
  facet normal -0 0 -1
    outer loop
      vertex 49 66.5 6
      vertex 42 65 6
      vertex 42 66.5 6
    endloop
  endfacet
  facet normal -1 0 0
    outer loop
      vertex 49 65 1
      vertex 49 66.5 6
      vertex 49 66.5 1
    endloop
  endfacet
  facet normal -1 -0 0
    outer loop
      vertex 49 66.5 6
      vertex 49 65 1
      vertex 49 65 6
    endloop
  endfacet
  facet normal 0 -1 0
    outer loop
      vertex 42 66.5 1
      vertex 49 66.5 6
      vertex 42 66.5 6
    endloop
  endfacet
  facet normal 0 -1 -0
    outer loop
      vertex 49 66.5 6
      vertex 42 66.5 1
      vertex 49 66.5 1
    endloop
  endfacet
  facet normal 0 1 -0
    outer loop
      vertex 49 65 1
      vertex 42 65 6
      vertex 49 65 6
    endloop
  endfacet
  facet normal 0 1 0
    outer loop
      vertex 42 65 6
      vertex 49 65 1
      vertex 42 65 1
    endloop
  endfacet
  facet normal 1 -0 0
    outer loop
      vertex 63 65 6
      vertex 63 66.5 1
      vertex 63 66.5 6
    endloop
  endfacet
  facet normal 1 0 0
    outer loop
      vertex 63 66.5 1
      vertex 63 65 6
      vertex 63 65 1
    endloop
  endfacet
  facet normal 0 0 -1
    outer loop
      vertex 63 65 6
      vertex 70 66.5 6
      vertex 70 65 6
    endloop
  endfacet
  facet normal -0 0 -1
    outer loop
      vertex 70 66.5 6
      vertex 63 65 6
      vertex 63 66.5 6
    endloop
  endfacet
  facet normal 0 1 -0
    outer loop
      vertex 70 65 1
      vertex 63 65 6
      vertex 70 65 6
    endloop
  endfacet
  facet normal 0 1 0
    outer loop
      vertex 63 65 6
      vertex 70 65 1
      vertex 63 65 1
    endloop
  endfacet
  facet normal 0 -1 0
    outer loop
      vertex 63 66.5 1
      vertex 70 66.5 6
      vertex 63 66.5 6
    endloop
  endfacet
  facet normal 0 -1 -0
    outer loop
      vertex 70 66.5 6
      vertex 63 66.5 1
      vertex 70 66.5 1
    endloop
  endfacet
  facet normal 0 0 -1
    outer loop
      vertex 0 71.5 6
      vertex 7 73 6
      vertex 7 71.5 6
    endloop
  endfacet
  facet normal -0 0 -1
    outer loop
      vertex 7 73 6
      vertex 0 71.5 6
      vertex 0 73 6
    endloop
  endfacet
  facet normal -1 0 0
    outer loop
      vertex 7 71.5 1
      vertex 7 73 6
      vertex 7 73 1
    endloop
  endfacet
  facet normal -1 -0 0
    outer loop
      vertex 7 73 6
      vertex 7 71.5 1
      vertex 7 71.5 6
    endloop
  endfacet
  facet normal 0 -1 0
    outer loop
      vertex 0 73 6
      vertex 7 73 1
      vertex 7 73 6
    endloop
  endfacet
  facet normal 0 -1 0
    outer loop
      vertex 0 73 -1
      vertex 21 73 1
      vertex 7 73 1
    endloop
  endfacet
  facet normal 0 -1 -0
    outer loop
      vertex 21 73 1
      vertex 0 73 -1
      vertex 28 73 1
    endloop
  endfacet
  facet normal 0 -1 -0
    outer loop
      vertex 28 73 1
      vertex 0 73 -1
      vertex 42 73 1
    endloop
  endfacet
  facet normal 0 -1 0
    outer loop
      vertex 70 73 -1
      vertex 42 73 1
      vertex 0 73 -1
    endloop
  endfacet
  facet normal 0 -1 0
    outer loop
      vertex 42 73 1
      vertex 70 73 -1
      vertex 49 73 1
    endloop
  endfacet
  facet normal 0 -1 0
    outer loop
      vertex 0 73 -1
      vertex 7 73 1
      vertex 0 73 6
    endloop
  endfacet
  facet normal 0 -1 0
    outer loop
      vertex 21 73 1
      vertex 28 73 6
      vertex 21 73 6
    endloop
  endfacet
  facet normal 0 -1 -0
    outer loop
      vertex 28 73 6
      vertex 21 73 1
      vertex 28 73 1
    endloop
  endfacet
  facet normal 0 -1 0
    outer loop
      vertex 42 73 1
      vertex 49 73 6
      vertex 42 73 6
    endloop
  endfacet
  facet normal 0 -1 -0
    outer loop
      vertex 49 73 6
      vertex 42 73 1
      vertex 49 73 1
    endloop
  endfacet
  facet normal 0 -1 0
    outer loop
      vertex 63 73 1
      vertex 70 73 6
      vertex 63 73 6
    endloop
  endfacet
  facet normal 0 -1 0
    outer loop
      vertex 63 73 1
      vertex 70 73 -1
      vertex 70 73 6
    endloop
  endfacet
  facet normal 0 -1 0
    outer loop
      vertex 49 73 1
      vertex 70 73 -1
      vertex 63 73 1
    endloop
  endfacet
  facet normal 0 1 -0
    outer loop
      vertex 7 71.5 1
      vertex 0 71.5 6
      vertex 7 71.5 6
    endloop
  endfacet
  facet normal 0 1 0
    outer loop
      vertex 0 71.5 6
      vertex 7 71.5 1
      vertex 0 71.5 1
    endloop
  endfacet
  facet normal 1 -0 0
    outer loop
      vertex 21 71.5 6
      vertex 21 73 1
      vertex 21 73 6
    endloop
  endfacet
  facet normal 1 0 0
    outer loop
      vertex 21 73 1
      vertex 21 71.5 6
      vertex 21 71.5 1
    endloop
  endfacet
  facet normal 0 0 -1
    outer loop
      vertex 21 71.5 6
      vertex 28 73 6
      vertex 28 71.5 6
    endloop
  endfacet
  facet normal -0 0 -1
    outer loop
      vertex 28 73 6
      vertex 21 71.5 6
      vertex 21 73 6
    endloop
  endfacet
  facet normal -1 0 0
    outer loop
      vertex 28 71.5 1
      vertex 28 73 6
      vertex 28 73 1
    endloop
  endfacet
  facet normal -1 -0 0
    outer loop
      vertex 28 73 6
      vertex 28 71.5 1
      vertex 28 71.5 6
    endloop
  endfacet
  facet normal 0 1 -0
    outer loop
      vertex 28 71.5 1
      vertex 21 71.5 6
      vertex 28 71.5 6
    endloop
  endfacet
  facet normal 0 1 0
    outer loop
      vertex 21 71.5 6
      vertex 28 71.5 1
      vertex 21 71.5 1
    endloop
  endfacet
  facet normal 1 -0 0
    outer loop
      vertex 42 71.5 6
      vertex 42 73 1
      vertex 42 73 6
    endloop
  endfacet
  facet normal 1 0 0
    outer loop
      vertex 42 73 1
      vertex 42 71.5 6
      vertex 42 71.5 1
    endloop
  endfacet
  facet normal 0 0 -1
    outer loop
      vertex 42 71.5 6
      vertex 49 73 6
      vertex 49 71.5 6
    endloop
  endfacet
  facet normal -0 0 -1
    outer loop
      vertex 49 73 6
      vertex 42 71.5 6
      vertex 42 73 6
    endloop
  endfacet
  facet normal -1 0 0
    outer loop
      vertex 49 71.5 1
      vertex 49 73 6
      vertex 49 73 1
    endloop
  endfacet
  facet normal -1 -0 0
    outer loop
      vertex 49 73 6
      vertex 49 71.5 1
      vertex 49 71.5 6
    endloop
  endfacet
  facet normal 0 1 -0
    outer loop
      vertex 49 71.5 1
      vertex 42 71.5 6
      vertex 49 71.5 6
    endloop
  endfacet
  facet normal 0 1 0
    outer loop
      vertex 42 71.5 6
      vertex 49 71.5 1
      vertex 42 71.5 1
    endloop
  endfacet
  facet normal 1 -0 0
    outer loop
      vertex 63 71.5 6
      vertex 63 73 1
      vertex 63 73 6
    endloop
  endfacet
  facet normal 1 0 0
    outer loop
      vertex 63 73 1
      vertex 63 71.5 6
      vertex 63 71.5 1
    endloop
  endfacet
  facet normal 0 0 -1
    outer loop
      vertex 63 71.5 6
      vertex 70 73 6
      vertex 70 71.5 6
    endloop
  endfacet
  facet normal -0 0 -1
    outer loop
      vertex 70 73 6
      vertex 63 71.5 6
      vertex 63 73 6
    endloop
  endfacet
  facet normal 0 1 -0
    outer loop
      vertex 70 71.5 1
      vertex 63 71.5 6
      vertex 70 71.5 6
    endloop
  endfacet
  facet normal 0 1 0
    outer loop
      vertex 63 71.5 6
      vertex 70 71.5 1
      vertex 63 71.5 1
    endloop
  endfacet
  facet normal 0 0 -1
    outer loop
      vertex 0 66.5 1
      vertex 7 71.5 1
      vertex 7 66.5 1
    endloop
  endfacet
  facet normal -0 0 -1
    outer loop
      vertex 7 71.5 1
      vertex 0 66.5 1
      vertex 0 71.5 1
    endloop
  endfacet
  facet normal 0 0 -1
    outer loop
      vertex 0 60 1
      vertex 7 65 1
      vertex 7 60 1
    endloop
  endfacet
  facet normal -0 0 -1
    outer loop
      vertex 7 65 1
      vertex 0 60 1
      vertex 0 65 1
    endloop
  endfacet
  facet normal 0 0 -1
    outer loop
      vertex 0 53.5 1
      vertex 7 58.5 1
      vertex 7 53.5 1
    endloop
  endfacet
  facet normal -0 0 -1
    outer loop
      vertex 7 58.5 1
      vertex 0 53.5 1
      vertex 0 58.5 1
    endloop
  endfacet
  facet normal 0 0 -1
    outer loop
      vertex 0 47 1
      vertex 7 52 1
      vertex 7 47 1
    endloop
  endfacet
  facet normal -0 0 -1
    outer loop
      vertex 7 52 1
      vertex 0 47 1
      vertex 0 52 1
    endloop
  endfacet
  facet normal 0 0 -1
    outer loop
      vertex 0 40.5 1
      vertex 7 45.5 1
      vertex 7 40.5 1
    endloop
  endfacet
  facet normal -0 0 -1
    outer loop
      vertex 7 45.5 1
      vertex 0 40.5 1
      vertex 0 45.5 1
    endloop
  endfacet
  facet normal 0 0 -1
    outer loop
      vertex 0 34 1
      vertex 7 39 1
      vertex 7 34 1
    endloop
  endfacet
  facet normal -0 0 -1
    outer loop
      vertex 7 39 1
      vertex 0 34 1
      vertex 0 39 1
    endloop
  endfacet
  facet normal 0 0 -1
    outer loop
      vertex 0 27.5 1
      vertex 7 32.5 1
      vertex 7 27.5 1
    endloop
  endfacet
  facet normal -0 0 -1
    outer loop
      vertex 7 32.5 1
      vertex 0 27.5 1
      vertex 0 32.5 1
    endloop
  endfacet
  facet normal 0 0 -1
    outer loop
      vertex 0 21 1
      vertex 7 26 1
      vertex 7 21 1
    endloop
  endfacet
  facet normal -0 0 -1
    outer loop
      vertex 7 26 1
      vertex 0 21 1
      vertex 0 26 1
    endloop
  endfacet
  facet normal 0 0 -1
    outer loop
      vertex 0 14.5 1
      vertex 7 19.5 1
      vertex 7 14.5 1
    endloop
  endfacet
  facet normal -0 0 -1
    outer loop
      vertex 7 19.5 1
      vertex 0 14.5 1
      vertex 0 19.5 1
    endloop
  endfacet
  facet normal 0 0 -1
    outer loop
      vertex 0 8 1
      vertex 7 13 1
      vertex 7 8 1
    endloop
  endfacet
  facet normal -0 0 -1
    outer loop
      vertex 7 13 1
      vertex 0 8 1
      vertex 0 13 1
    endloop
  endfacet
  facet normal 0 0 -1
    outer loop
      vertex 0 1.5 1
      vertex 7 6.5 1
      vertex 7 1.5 1
    endloop
  endfacet
  facet normal -0 0 -1
    outer loop
      vertex 7 6.5 1
      vertex 0 1.5 1
      vertex 0 6.5 1
    endloop
  endfacet
  facet normal 0 0 -1
    outer loop
      vertex 7 1.5 1
      vertex 21 1.5 1
      vertex 21 0 1
    endloop
  endfacet
  facet normal 0 0 -1
    outer loop
      vertex 21 1.5 1
      vertex 7 1.5 1
      vertex 21 6.5 1
    endloop
  endfacet
  facet normal 0 0 -1
    outer loop
      vertex 21 6.5 1
      vertex 7 6.5 1
      vertex 21 8 1
    endloop
  endfacet
  facet normal 0 0 -1
    outer loop
      vertex 7 8 1
      vertex 21 8 1
      vertex 7 6.5 1
    endloop
  endfacet
  facet normal 0 0 -1
    outer loop
      vertex 7 13 1
      vertex 21 13 1
      vertex 7 8 1
    endloop
  endfacet
  facet normal 0 0 -1
    outer loop
      vertex 21 13 1
      vertex 7 13 1
      vertex 21 14.5 1
    endloop
  endfacet
  facet normal 0 0 -1
    outer loop
      vertex 21 14.5 1
      vertex 7 14.5 1
      vertex 21 19.5 1
    endloop
  endfacet
  facet normal 0 0 -1
    outer loop
      vertex 7 19.5 1
      vertex 21 19.5 1
      vertex 7 14.5 1
    endloop
  endfacet
  facet normal 0 0 -1
    outer loop
      vertex 7 21 1
      vertex 21 21 1
      vertex 7 19.5 1
    endloop
  endfacet
  facet normal 0 0 -1
    outer loop
      vertex 21 21 1
      vertex 7 21 1
      vertex 21 26 1
    endloop
  endfacet
  facet normal 0 0 -1
    outer loop
      vertex 21 26 1
      vertex 7 26 1
      vertex 21 27.5 1
    endloop
  endfacet
  facet normal 0 0 -1
    outer loop
      vertex 7 27.5 1
      vertex 21 27.5 1
      vertex 7 26 1
    endloop
  endfacet
  facet normal 0 0 -1
    outer loop
      vertex 7 32.5 1
      vertex 21 32.5 1
      vertex 7 27.5 1
    endloop
  endfacet
  facet normal 0 0 -1
    outer loop
      vertex 21 32.5 1
      vertex 7 32.5 1
      vertex 21 34 1
    endloop
  endfacet
  facet normal 0 0 -1
    outer loop
      vertex 21 34 1
      vertex 7 34 1
      vertex 21 39 1
    endloop
  endfacet
  facet normal 0 0 -1
    outer loop
      vertex 7 39 1
      vertex 21 39 1
      vertex 7 34 1
    endloop
  endfacet
  facet normal 0 0 -1
    outer loop
      vertex 7 40.5 1
      vertex 21 40.5 1
      vertex 7 39 1
    endloop
  endfacet
  facet normal 0 0 -1
    outer loop
      vertex 21 40.5 1
      vertex 7 40.5 1
      vertex 21 45.5 1
    endloop
  endfacet
  facet normal 0 0 -1
    outer loop
      vertex 21 45.5 1
      vertex 7 45.5 1
      vertex 21 47 1
    endloop
  endfacet
  facet normal 0 0 -1
    outer loop
      vertex 7 47 1
      vertex 21 47 1
      vertex 7 45.5 1
    endloop
  endfacet
  facet normal 0 0 -1
    outer loop
      vertex 7 52 1
      vertex 21 52 1
      vertex 7 47 1
    endloop
  endfacet
  facet normal 0 0 -1
    outer loop
      vertex 21 52 1
      vertex 7 52 1
      vertex 21 53.5 1
    endloop
  endfacet
  facet normal 0 0 -1
    outer loop
      vertex 7 1.5 1
      vertex 21 0 1
      vertex 7 0 1
    endloop
  endfacet
  facet normal -0 0 -1
    outer loop
      vertex 21 6.5 1
      vertex 7 1.5 1
      vertex 7 6.5 1
    endloop
  endfacet
  facet normal 0 0 -1
    outer loop
      vertex 21 8 1
      vertex 7 8 1
      vertex 21 13 1
    endloop
  endfacet
  facet normal 0 0 -1
    outer loop
      vertex 7 14.5 1
      vertex 21 14.5 1
      vertex 7 13 1
    endloop
  endfacet
  facet normal 0 0 -1
    outer loop
      vertex 21 19.5 1
      vertex 7 19.5 1
      vertex 21 21 1
    endloop
  endfacet
  facet normal 0 0 -1
    outer loop
      vertex 7 26 1
      vertex 21 26 1
      vertex 7 21 1
    endloop
  endfacet
  facet normal 0 0 -1
    outer loop
      vertex 21 27.5 1
      vertex 7 27.5 1
      vertex 21 32.5 1
    endloop
  endfacet
  facet normal 0 0 -1
    outer loop
      vertex 7 34 1
      vertex 21 34 1
      vertex 7 32.5 1
    endloop
  endfacet
  facet normal 0 0 -1
    outer loop
      vertex 21 39 1
      vertex 7 39 1
      vertex 21 40.5 1
    endloop
  endfacet
  facet normal 0 0 -1
    outer loop
      vertex 7 45.5 1
      vertex 21 45.5 1
      vertex 7 40.5 1
    endloop
  endfacet
  facet normal 0 0 -1
    outer loop
      vertex 21 47 1
      vertex 7 47 1
      vertex 21 52 1
    endloop
  endfacet
  facet normal 0 0 -1
    outer loop
      vertex 7 53.5 1
      vertex 21 53.5 1
      vertex 7 52 1
    endloop
  endfacet
  facet normal 0 0 -1
    outer loop
      vertex 21 53.5 1
      vertex 7 53.5 1
      vertex 21 58.5 1
    endloop
  endfacet
  facet normal 0 0 -1
    outer loop
      vertex 7 58.5 1
      vertex 21 58.5 1
      vertex 7 53.5 1
    endloop
  endfacet
  facet normal 0 0 -1
    outer loop
      vertex 21 58.5 1
      vertex 7 58.5 1
      vertex 21 60 1
    endloop
  endfacet
  facet normal 0 0 -1
    outer loop
      vertex 7 60 1
      vertex 21 60 1
      vertex 7 58.5 1
    endloop
  endfacet
  facet normal 0 0 -1
    outer loop
      vertex 21 60 1
      vertex 7 60 1
      vertex 21 65 1
    endloop
  endfacet
  facet normal 0 0 -1
    outer loop
      vertex 7 65 1
      vertex 21 65 1
      vertex 7 60 1
    endloop
  endfacet
  facet normal 0 0 -1
    outer loop
      vertex 21 65 1
      vertex 7 65 1
      vertex 21 66.5 1
    endloop
  endfacet
  facet normal 0 0 -1
    outer loop
      vertex 7 66.5 1
      vertex 21 66.5 1
      vertex 7 65 1
    endloop
  endfacet
  facet normal 0 0 -1
    outer loop
      vertex 21 66.5 1
      vertex 7 66.5 1
      vertex 21 71.5 1
    endloop
  endfacet
  facet normal 0 0 -1
    outer loop
      vertex 7 71.5 1
      vertex 21 71.5 1
      vertex 7 66.5 1
    endloop
  endfacet
  facet normal 0 0 -1
    outer loop
      vertex 21 71.5 1
      vertex 7 71.5 1
      vertex 21 73 1
    endloop
  endfacet
  facet normal -0 0 -1
    outer loop
      vertex 21 73 1
      vertex 7 71.5 1
      vertex 7 73 1
    endloop
  endfacet
  facet normal 0 0 -1
    outer loop
      vertex 21 66.5 1
      vertex 28 71.5 1
      vertex 28 66.5 1
    endloop
  endfacet
  facet normal -0 0 -1
    outer loop
      vertex 28 71.5 1
      vertex 21 66.5 1
      vertex 21 71.5 1
    endloop
  endfacet
  facet normal 0 0 -1
    outer loop
      vertex 21 60 1
      vertex 28 65 1
      vertex 28 60 1
    endloop
  endfacet
  facet normal -0 0 -1
    outer loop
      vertex 28 65 1
      vertex 21 60 1
      vertex 21 65 1
    endloop
  endfacet
  facet normal 0 0 -1
    outer loop
      vertex 21 53.5 1
      vertex 28 58.5 1
      vertex 28 53.5 1
    endloop
  endfacet
  facet normal -0 0 -1
    outer loop
      vertex 28 58.5 1
      vertex 21 53.5 1
      vertex 21 58.5 1
    endloop
  endfacet
  facet normal 0 0 -1
    outer loop
      vertex 21 47 1
      vertex 28 52 1
      vertex 28 47 1
    endloop
  endfacet
  facet normal -0 0 -1
    outer loop
      vertex 28 52 1
      vertex 21 47 1
      vertex 21 52 1
    endloop
  endfacet
  facet normal 0 0 -1
    outer loop
      vertex 21 40.5 1
      vertex 28 45.5 1
      vertex 28 40.5 1
    endloop
  endfacet
  facet normal -0 0 -1
    outer loop
      vertex 28 45.5 1
      vertex 21 40.5 1
      vertex 21 45.5 1
    endloop
  endfacet
  facet normal 0 0 -1
    outer loop
      vertex 21 34 1
      vertex 28 39 1
      vertex 28 34 1
    endloop
  endfacet
  facet normal -0 0 -1
    outer loop
      vertex 28 39 1
      vertex 21 34 1
      vertex 21 39 1
    endloop
  endfacet
  facet normal 0 0 -1
    outer loop
      vertex 21 27.5 1
      vertex 28 32.5 1
      vertex 28 27.5 1
    endloop
  endfacet
  facet normal -0 0 -1
    outer loop
      vertex 28 32.5 1
      vertex 21 27.5 1
      vertex 21 32.5 1
    endloop
  endfacet
  facet normal 0 0 -1
    outer loop
      vertex 21 21 1
      vertex 28 26 1
      vertex 28 21 1
    endloop
  endfacet
  facet normal -0 0 -1
    outer loop
      vertex 28 26 1
      vertex 21 21 1
      vertex 21 26 1
    endloop
  endfacet
  facet normal 0 0 -1
    outer loop
      vertex 21 14.5 1
      vertex 28 19.5 1
      vertex 28 14.5 1
    endloop
  endfacet
  facet normal -0 0 -1
    outer loop
      vertex 28 19.5 1
      vertex 21 14.5 1
      vertex 21 19.5 1
    endloop
  endfacet
  facet normal 0 0 -1
    outer loop
      vertex 21 8 1
      vertex 28 13 1
      vertex 28 8 1
    endloop
  endfacet
  facet normal -0 0 -1
    outer loop
      vertex 28 13 1
      vertex 21 8 1
      vertex 21 13 1
    endloop
  endfacet
  facet normal 0 0 -1
    outer loop
      vertex 21 1.5 1
      vertex 28 6.5 1
      vertex 28 1.5 1
    endloop
  endfacet
  facet normal -0 0 -1
    outer loop
      vertex 28 6.5 1
      vertex 21 1.5 1
      vertex 21 6.5 1
    endloop
  endfacet
  facet normal 0 0 -1
    outer loop
      vertex 28 1.5 1
      vertex 42 1.5 1
      vertex 42 0 1
    endloop
  endfacet
  facet normal 0 0 -1
    outer loop
      vertex 42 1.5 1
      vertex 28 1.5 1
      vertex 42 6.5 1
    endloop
  endfacet
  facet normal 0 0 -1
    outer loop
      vertex 42 6.5 1
      vertex 28 6.5 1
      vertex 42 8 1
    endloop
  endfacet
  facet normal 0 0 -1
    outer loop
      vertex 28 8 1
      vertex 42 8 1
      vertex 28 6.5 1
    endloop
  endfacet
  facet normal 0 0 -1
    outer loop
      vertex 28 13 1
      vertex 42 13 1
      vertex 28 8 1
    endloop
  endfacet
  facet normal 0 0 -1
    outer loop
      vertex 42 13 1
      vertex 28 13 1
      vertex 42 14.5 1
    endloop
  endfacet
  facet normal 0 0 -1
    outer loop
      vertex 42 14.5 1
      vertex 28 14.5 1
      vertex 42 19.5 1
    endloop
  endfacet
  facet normal 0 0 -1
    outer loop
      vertex 28 19.5 1
      vertex 42 19.5 1
      vertex 28 14.5 1
    endloop
  endfacet
  facet normal 0 0 -1
    outer loop
      vertex 28 21 1
      vertex 42 21 1
      vertex 28 19.5 1
    endloop
  endfacet
  facet normal 0 0 -1
    outer loop
      vertex 42 21 1
      vertex 28 21 1
      vertex 42 26 1
    endloop
  endfacet
  facet normal 0 0 -1
    outer loop
      vertex 42 26 1
      vertex 28 26 1
      vertex 42 27.5 1
    endloop
  endfacet
  facet normal 0 0 -1
    outer loop
      vertex 28 27.5 1
      vertex 42 27.5 1
      vertex 28 26 1
    endloop
  endfacet
  facet normal 0 0 -1
    outer loop
      vertex 28 32.5 1
      vertex 42 32.5 1
      vertex 28 27.5 1
    endloop
  endfacet
  facet normal 0 0 -1
    outer loop
      vertex 42 32.5 1
      vertex 28 32.5 1
      vertex 42 34 1
    endloop
  endfacet
  facet normal 0 0 -1
    outer loop
      vertex 42 34 1
      vertex 28 34 1
      vertex 42 39 1
    endloop
  endfacet
  facet normal 0 0 -1
    outer loop
      vertex 28 39 1
      vertex 42 39 1
      vertex 28 34 1
    endloop
  endfacet
  facet normal 0 0 -1
    outer loop
      vertex 28 40.5 1
      vertex 42 40.5 1
      vertex 28 39 1
    endloop
  endfacet
  facet normal 0 0 -1
    outer loop
      vertex 42 40.5 1
      vertex 28 40.5 1
      vertex 42 45.5 1
    endloop
  endfacet
  facet normal 0 0 -1
    outer loop
      vertex 42 45.5 1
      vertex 28 45.5 1
      vertex 42 47 1
    endloop
  endfacet
  facet normal 0 0 -1
    outer loop
      vertex 28 47 1
      vertex 42 47 1
      vertex 28 45.5 1
    endloop
  endfacet
  facet normal 0 0 -1
    outer loop
      vertex 28 52 1
      vertex 42 52 1
      vertex 28 47 1
    endloop
  endfacet
  facet normal 0 0 -1
    outer loop
      vertex 42 52 1
      vertex 28 52 1
      vertex 42 53.5 1
    endloop
  endfacet
  facet normal 0 0 -1
    outer loop
      vertex 28 1.5 1
      vertex 42 0 1
      vertex 28 0 1
    endloop
  endfacet
  facet normal -0 0 -1
    outer loop
      vertex 42 6.5 1
      vertex 28 1.5 1
      vertex 28 6.5 1
    endloop
  endfacet
  facet normal 0 0 -1
    outer loop
      vertex 42 8 1
      vertex 28 8 1
      vertex 42 13 1
    endloop
  endfacet
  facet normal 0 0 -1
    outer loop
      vertex 28 14.5 1
      vertex 42 14.5 1
      vertex 28 13 1
    endloop
  endfacet
  facet normal 0 0 -1
    outer loop
      vertex 42 19.5 1
      vertex 28 19.5 1
      vertex 42 21 1
    endloop
  endfacet
  facet normal 0 0 -1
    outer loop
      vertex 28 26 1
      vertex 42 26 1
      vertex 28 21 1
    endloop
  endfacet
  facet normal 0 0 -1
    outer loop
      vertex 42 27.5 1
      vertex 28 27.5 1
      vertex 42 32.5 1
    endloop
  endfacet
  facet normal 0 0 -1
    outer loop
      vertex 28 34 1
      vertex 42 34 1
      vertex 28 32.5 1
    endloop
  endfacet
  facet normal 0 0 -1
    outer loop
      vertex 42 39 1
      vertex 28 39 1
      vertex 42 40.5 1
    endloop
  endfacet
  facet normal 0 0 -1
    outer loop
      vertex 28 45.5 1
      vertex 42 45.5 1
      vertex 28 40.5 1
    endloop
  endfacet
  facet normal 0 0 -1
    outer loop
      vertex 42 47 1
      vertex 28 47 1
      vertex 42 52 1
    endloop
  endfacet
  facet normal 0 0 -1
    outer loop
      vertex 28 53.5 1
      vertex 42 53.5 1
      vertex 28 52 1
    endloop
  endfacet
  facet normal 0 0 -1
    outer loop
      vertex 42 53.5 1
      vertex 28 53.5 1
      vertex 42 58.5 1
    endloop
  endfacet
  facet normal 0 0 -1
    outer loop
      vertex 28 58.5 1
      vertex 42 58.5 1
      vertex 28 53.5 1
    endloop
  endfacet
  facet normal 0 0 -1
    outer loop
      vertex 42 58.5 1
      vertex 28 58.5 1
      vertex 42 60 1
    endloop
  endfacet
  facet normal 0 0 -1
    outer loop
      vertex 28 60 1
      vertex 42 60 1
      vertex 28 58.5 1
    endloop
  endfacet
  facet normal 0 0 -1
    outer loop
      vertex 42 60 1
      vertex 28 60 1
      vertex 42 65 1
    endloop
  endfacet
  facet normal 0 0 -1
    outer loop
      vertex 28 65 1
      vertex 42 65 1
      vertex 28 60 1
    endloop
  endfacet
  facet normal 0 0 -1
    outer loop
      vertex 42 65 1
      vertex 28 65 1
      vertex 42 66.5 1
    endloop
  endfacet
  facet normal 0 0 -1
    outer loop
      vertex 28 66.5 1
      vertex 42 66.5 1
      vertex 28 65 1
    endloop
  endfacet
  facet normal 0 0 -1
    outer loop
      vertex 42 66.5 1
      vertex 28 66.5 1
      vertex 42 71.5 1
    endloop
  endfacet
  facet normal 0 0 -1
    outer loop
      vertex 28 71.5 1
      vertex 42 71.5 1
      vertex 28 66.5 1
    endloop
  endfacet
  facet normal 0 0 -1
    outer loop
      vertex 42 71.5 1
      vertex 28 71.5 1
      vertex 42 73 1
    endloop
  endfacet
  facet normal -0 0 -1
    outer loop
      vertex 42 73 1
      vertex 28 71.5 1
      vertex 28 73 1
    endloop
  endfacet
  facet normal 0 0 -1
    outer loop
      vertex 42 66.5 1
      vertex 49 71.5 1
      vertex 49 66.5 1
    endloop
  endfacet
  facet normal -0 0 -1
    outer loop
      vertex 49 71.5 1
      vertex 42 66.5 1
      vertex 42 71.5 1
    endloop
  endfacet
  facet normal 0 0 -1
    outer loop
      vertex 42 60 1
      vertex 49 65 1
      vertex 49 60 1
    endloop
  endfacet
  facet normal -0 0 -1
    outer loop
      vertex 49 65 1
      vertex 42 60 1
      vertex 42 65 1
    endloop
  endfacet
  facet normal 0 0 -1
    outer loop
      vertex 42 53.5 1
      vertex 49 58.5 1
      vertex 49 53.5 1
    endloop
  endfacet
  facet normal -0 0 -1
    outer loop
      vertex 49 58.5 1
      vertex 42 53.5 1
      vertex 42 58.5 1
    endloop
  endfacet
  facet normal 0 0 -1
    outer loop
      vertex 42 47 1
      vertex 49 52 1
      vertex 49 47 1
    endloop
  endfacet
  facet normal -0 0 -1
    outer loop
      vertex 49 52 1
      vertex 42 47 1
      vertex 42 52 1
    endloop
  endfacet
  facet normal 0 0 -1
    outer loop
      vertex 42 40.5 1
      vertex 49 45.5 1
      vertex 49 40.5 1
    endloop
  endfacet
  facet normal -0 0 -1
    outer loop
      vertex 49 45.5 1
      vertex 42 40.5 1
      vertex 42 45.5 1
    endloop
  endfacet
  facet normal 0 0 -1
    outer loop
      vertex 42 34 1
      vertex 49 39 1
      vertex 49 34 1
    endloop
  endfacet
  facet normal -0 0 -1
    outer loop
      vertex 49 39 1
      vertex 42 34 1
      vertex 42 39 1
    endloop
  endfacet
  facet normal 0 0 -1
    outer loop
      vertex 42 27.5 1
      vertex 49 32.5 1
      vertex 49 27.5 1
    endloop
  endfacet
  facet normal -0 0 -1
    outer loop
      vertex 49 32.5 1
      vertex 42 27.5 1
      vertex 42 32.5 1
    endloop
  endfacet
  facet normal 0 0 -1
    outer loop
      vertex 42 21 1
      vertex 49 26 1
      vertex 49 21 1
    endloop
  endfacet
  facet normal -0 0 -1
    outer loop
      vertex 49 26 1
      vertex 42 21 1
      vertex 42 26 1
    endloop
  endfacet
  facet normal 0 0 -1
    outer loop
      vertex 42 14.5 1
      vertex 49 19.5 1
      vertex 49 14.5 1
    endloop
  endfacet
  facet normal -0 0 -1
    outer loop
      vertex 49 19.5 1
      vertex 42 14.5 1
      vertex 42 19.5 1
    endloop
  endfacet
  facet normal 0 0 -1
    outer loop
      vertex 42 8 1
      vertex 49 13 1
      vertex 49 8 1
    endloop
  endfacet
  facet normal -0 0 -1
    outer loop
      vertex 49 13 1
      vertex 42 8 1
      vertex 42 13 1
    endloop
  endfacet
  facet normal 0 0 -1
    outer loop
      vertex 42 1.5 1
      vertex 49 6.5 1
      vertex 49 1.5 1
    endloop
  endfacet
  facet normal -0 0 -1
    outer loop
      vertex 49 6.5 1
      vertex 42 1.5 1
      vertex 42 6.5 1
    endloop
  endfacet
  facet normal 0 0 -1
    outer loop
      vertex 49 1.5 1
      vertex 63 1.5 1
      vertex 63 0 1
    endloop
  endfacet
  facet normal 0 0 -1
    outer loop
      vertex 63 1.5 1
      vertex 49 1.5 1
      vertex 63 6.5 1
    endloop
  endfacet
  facet normal 0 0 -1
    outer loop
      vertex 63 6.5 1
      vertex 49 6.5 1
      vertex 63 8 1
    endloop
  endfacet
  facet normal 0 0 -1
    outer loop
      vertex 49 8 1
      vertex 63 8 1
      vertex 49 6.5 1
    endloop
  endfacet
  facet normal 0 0 -1
    outer loop
      vertex 49 13 1
      vertex 63 13 1
      vertex 49 8 1
    endloop
  endfacet
  facet normal 0 0 -1
    outer loop
      vertex 63 13 1
      vertex 49 13 1
      vertex 63 14.5 1
    endloop
  endfacet
  facet normal 0 0 -1
    outer loop
      vertex 63 14.5 1
      vertex 49 14.5 1
      vertex 63 19.5 1
    endloop
  endfacet
  facet normal 0 0 -1
    outer loop
      vertex 49 19.5 1
      vertex 63 19.5 1
      vertex 49 14.5 1
    endloop
  endfacet
  facet normal 0 0 -1
    outer loop
      vertex 49 21 1
      vertex 63 21 1
      vertex 49 19.5 1
    endloop
  endfacet
  facet normal 0 0 -1
    outer loop
      vertex 63 21 1
      vertex 49 21 1
      vertex 63 26 1
    endloop
  endfacet
  facet normal 0 0 -1
    outer loop
      vertex 63 26 1
      vertex 49 26 1
      vertex 63 27.5 1
    endloop
  endfacet
  facet normal 0 0 -1
    outer loop
      vertex 49 27.5 1
      vertex 63 27.5 1
      vertex 49 26 1
    endloop
  endfacet
  facet normal 0 0 -1
    outer loop
      vertex 49 32.5 1
      vertex 63 32.5 1
      vertex 49 27.5 1
    endloop
  endfacet
  facet normal 0 0 -1
    outer loop
      vertex 63 32.5 1
      vertex 49 32.5 1
      vertex 63 34 1
    endloop
  endfacet
  facet normal 0 0 -1
    outer loop
      vertex 63 34 1
      vertex 49 34 1
      vertex 63 39 1
    endloop
  endfacet
  facet normal 0 0 -1
    outer loop
      vertex 49 39 1
      vertex 63 39 1
      vertex 49 34 1
    endloop
  endfacet
  facet normal 0 0 -1
    outer loop
      vertex 49 40.5 1
      vertex 63 40.5 1
      vertex 49 39 1
    endloop
  endfacet
  facet normal 0 0 -1
    outer loop
      vertex 63 40.5 1
      vertex 49 40.5 1
      vertex 63 45.5 1
    endloop
  endfacet
  facet normal 0 0 -1
    outer loop
      vertex 63 45.5 1
      vertex 49 45.5 1
      vertex 63 47 1
    endloop
  endfacet
  facet normal 0 0 -1
    outer loop
      vertex 49 47 1
      vertex 63 47 1
      vertex 49 45.5 1
    endloop
  endfacet
  facet normal 0 0 -1
    outer loop
      vertex 49 52 1
      vertex 63 52 1
      vertex 49 47 1
    endloop
  endfacet
  facet normal 0 0 -1
    outer loop
      vertex 63 52 1
      vertex 49 52 1
      vertex 63 53.5 1
    endloop
  endfacet
  facet normal 0 0 -1
    outer loop
      vertex 49 1.5 1
      vertex 63 0 1
      vertex 49 0 1
    endloop
  endfacet
  facet normal -0 0 -1
    outer loop
      vertex 63 6.5 1
      vertex 49 1.5 1
      vertex 49 6.5 1
    endloop
  endfacet
  facet normal 0 0 -1
    outer loop
      vertex 63 8 1
      vertex 49 8 1
      vertex 63 13 1
    endloop
  endfacet
  facet normal 0 0 -1
    outer loop
      vertex 49 14.5 1
      vertex 63 14.5 1
      vertex 49 13 1
    endloop
  endfacet
  facet normal 0 0 -1
    outer loop
      vertex 63 19.5 1
      vertex 49 19.5 1
      vertex 63 21 1
    endloop
  endfacet
  facet normal 0 0 -1
    outer loop
      vertex 49 26 1
      vertex 63 26 1
      vertex 49 21 1
    endloop
  endfacet
  facet normal 0 0 -1
    outer loop
      vertex 63 27.5 1
      vertex 49 27.5 1
      vertex 63 32.5 1
    endloop
  endfacet
  facet normal 0 0 -1
    outer loop
      vertex 49 34 1
      vertex 63 34 1
      vertex 49 32.5 1
    endloop
  endfacet
  facet normal 0 0 -1
    outer loop
      vertex 63 39 1
      vertex 49 39 1
      vertex 63 40.5 1
    endloop
  endfacet
  facet normal 0 0 -1
    outer loop
      vertex 49 45.5 1
      vertex 63 45.5 1
      vertex 49 40.5 1
    endloop
  endfacet
  facet normal 0 0 -1
    outer loop
      vertex 63 47 1
      vertex 49 47 1
      vertex 63 52 1
    endloop
  endfacet
  facet normal 0 0 -1
    outer loop
      vertex 49 53.5 1
      vertex 63 53.5 1
      vertex 49 52 1
    endloop
  endfacet
  facet normal 0 0 -1
    outer loop
      vertex 63 53.5 1
      vertex 49 53.5 1
      vertex 63 58.5 1
    endloop
  endfacet
  facet normal 0 0 -1
    outer loop
      vertex 49 58.5 1
      vertex 63 58.5 1
      vertex 49 53.5 1
    endloop
  endfacet
  facet normal 0 0 -1
    outer loop
      vertex 63 58.5 1
      vertex 49 58.5 1
      vertex 63 60 1
    endloop
  endfacet
  facet normal 0 0 -1
    outer loop
      vertex 49 60 1
      vertex 63 60 1
      vertex 49 58.5 1
    endloop
  endfacet
  facet normal 0 0 -1
    outer loop
      vertex 63 60 1
      vertex 49 60 1
      vertex 63 65 1
    endloop
  endfacet
  facet normal 0 0 -1
    outer loop
      vertex 49 65 1
      vertex 63 65 1
      vertex 49 60 1
    endloop
  endfacet
  facet normal 0 0 -1
    outer loop
      vertex 63 65 1
      vertex 49 65 1
      vertex 63 66.5 1
    endloop
  endfacet
  facet normal 0 0 -1
    outer loop
      vertex 49 66.5 1
      vertex 63 66.5 1
      vertex 49 65 1
    endloop
  endfacet
  facet normal 0 0 -1
    outer loop
      vertex 63 66.5 1
      vertex 49 66.5 1
      vertex 63 71.5 1
    endloop
  endfacet
  facet normal 0 0 -1
    outer loop
      vertex 49 71.5 1
      vertex 63 71.5 1
      vertex 49 66.5 1
    endloop
  endfacet
  facet normal 0 0 -1
    outer loop
      vertex 63 71.5 1
      vertex 49 71.5 1
      vertex 63 73 1
    endloop
  endfacet
  facet normal -0 0 -1
    outer loop
      vertex 63 73 1
      vertex 49 71.5 1
      vertex 49 73 1
    endloop
  endfacet
  facet normal 0 0 -1
    outer loop
      vertex 63 1.5 1
      vertex 70 6.5 1
      vertex 70 1.5 1
    endloop
  endfacet
  facet normal -0 0 -1
    outer loop
      vertex 70 6.5 1
      vertex 63 1.5 1
      vertex 63 6.5 1
    endloop
  endfacet
  facet normal 0 0 -1
    outer loop
      vertex 63 8 1
      vertex 70 13 1
      vertex 70 8 1
    endloop
  endfacet
  facet normal -0 0 -1
    outer loop
      vertex 70 13 1
      vertex 63 8 1
      vertex 63 13 1
    endloop
  endfacet
  facet normal 0 0 -1
    outer loop
      vertex 63 14.5 1
      vertex 70 19.5 1
      vertex 70 14.5 1
    endloop
  endfacet
  facet normal -0 0 -1
    outer loop
      vertex 70 19.5 1
      vertex 63 14.5 1
      vertex 63 19.5 1
    endloop
  endfacet
  facet normal 0 0 -1
    outer loop
      vertex 63 21 1
      vertex 70 26 1
      vertex 70 21 1
    endloop
  endfacet
  facet normal -0 0 -1
    outer loop
      vertex 70 26 1
      vertex 63 21 1
      vertex 63 26 1
    endloop
  endfacet
  facet normal 0 0 -1
    outer loop
      vertex 63 27.5 1
      vertex 70 32.5 1
      vertex 70 27.5 1
    endloop
  endfacet
  facet normal -0 0 -1
    outer loop
      vertex 70 32.5 1
      vertex 63 27.5 1
      vertex 63 32.5 1
    endloop
  endfacet
  facet normal 0 0 -1
    outer loop
      vertex 63 34 1
      vertex 70 39 1
      vertex 70 34 1
    endloop
  endfacet
  facet normal -0 0 -1
    outer loop
      vertex 70 39 1
      vertex 63 34 1
      vertex 63 39 1
    endloop
  endfacet
  facet normal 0 0 -1
    outer loop
      vertex 63 40.5 1
      vertex 70 45.5 1
      vertex 70 40.5 1
    endloop
  endfacet
  facet normal -0 0 -1
    outer loop
      vertex 70 45.5 1
      vertex 63 40.5 1
      vertex 63 45.5 1
    endloop
  endfacet
  facet normal 0 0 -1
    outer loop
      vertex 63 47 1
      vertex 70 52 1
      vertex 70 47 1
    endloop
  endfacet
  facet normal -0 0 -1
    outer loop
      vertex 70 52 1
      vertex 63 47 1
      vertex 63 52 1
    endloop
  endfacet
  facet normal 0 0 -1
    outer loop
      vertex 63 53.5 1
      vertex 70 58.5 1
      vertex 70 53.5 1
    endloop
  endfacet
  facet normal -0 0 -1
    outer loop
      vertex 70 58.5 1
      vertex 63 53.5 1
      vertex 63 58.5 1
    endloop
  endfacet
  facet normal 0 0 -1
    outer loop
      vertex 63 60 1
      vertex 70 65 1
      vertex 70 60 1
    endloop
  endfacet
  facet normal -0 0 -1
    outer loop
      vertex 70 65 1
      vertex 63 60 1
      vertex 63 65 1
    endloop
  endfacet
  facet normal 0 0 -1
    outer loop
      vertex 63 66.5 1
      vertex 70 71.5 1
      vertex 70 66.5 1
    endloop
  endfacet
  facet normal -0 0 -1
    outer loop
      vertex 70 71.5 1
      vertex 63 66.5 1
      vertex 63 71.5 1
    endloop
  endfacet
  facet normal 0 0 -1
    outer loop
      vertex 71 -1 -1
      vertex 70 0 -1
      vertex 71 74 -1
    endloop
  endfacet
  facet normal 0 0 -1
    outer loop
      vertex 71 -1 -1
      vertex 0 0 -1
      vertex 70 0 -1
    endloop
  endfacet
  facet normal -0 0 -1
    outer loop
      vertex 0 0 -1
      vertex -1 -1 -1
      vertex 0 73 -1
    endloop
  endfacet
  facet normal 0 0 -1
    outer loop
      vertex -1 -1 -1
      vertex 0 0 -1
      vertex 71 -1 -1
    endloop
  endfacet
  facet normal 0 0 -1
    outer loop
      vertex 70 73 -1
      vertex 71 74 -1
      vertex 70 0 -1
    endloop
  endfacet
  facet normal 0 0 -1
    outer loop
      vertex 0 73 -1
      vertex 71 74 -1
      vertex 70 73 -1
    endloop
  endfacet
  facet normal 0 0 -1
    outer loop
      vertex 0 73 -1
      vertex -1 74 -1
      vertex 71 74 -1
    endloop
  endfacet
  facet normal 0 0 -1
    outer loop
      vertex -1 74 -1
      vertex 0 73 -1
      vertex -1 -1 -1
    endloop
  endfacet
  facet normal -1 0 0
    outer loop
      vertex -1 -1 -1
      vertex -1 74 7
      vertex -1 74 -1
    endloop
  endfacet
  facet normal -1 -0 0
    outer loop
      vertex -1 74 7
      vertex -1 -1 -1
      vertex -1 -1 7
    endloop
  endfacet
  facet normal -0 0 1
    outer loop
      vertex -1 74 7
      vertex 71 -1 7
      vertex 71 74 7
    endloop
  endfacet
  facet normal 0 0 1
    outer loop
      vertex 71 -1 7
      vertex -1 74 7
      vertex -1 -1 7
    endloop
  endfacet
  facet normal 1 -0 0
    outer loop
      vertex 71 -1 7
      vertex 71 74 -1
      vertex 71 74 7
    endloop
  endfacet
  facet normal 1 0 0
    outer loop
      vertex 71 74 -1
      vertex 71 -1 7
      vertex 71 -1 -1
    endloop
  endfacet
  facet normal 0 1 -0
    outer loop
      vertex 71 74 -1
      vertex -1 74 7
      vertex 71 74 7
    endloop
  endfacet
  facet normal 0 1 0
    outer loop
      vertex -1 74 7
      vertex 71 74 -1
      vertex -1 74 -1
    endloop
  endfacet
  facet normal 0 -1 0
    outer loop
      vertex -1 -1 -1
      vertex 71 -1 7
      vertex -1 -1 7
    endloop
  endfacet
  facet normal 0 -1 -0
    outer loop
      vertex 71 -1 7
      vertex -1 -1 -1
      vertex 71 -1 -1
    endloop
  endfacet
endsolid OpenSCAD_Model
