G04 #@! TF.GenerationSoftware,KiCad,Pcbnew,5.1.5+dfsg1-2~bpo9+1*
G04 #@! TF.CreationDate,2020-08-23T22:07:57-04:00*
G04 #@! TF.ProjectId,integrated_amp_driver,696e7465-6772-4617-9465-645f616d705f,rev?*
G04 #@! TF.SameCoordinates,PXcd69f00PY2528990*
G04 #@! TF.FileFunction,Copper,L1,Top*
G04 #@! TF.FilePolarity,Positive*
%FSLAX46Y46*%
G04 Gerber Fmt 4.6, Leading zero omitted, Abs format (unit mm)*
G04 Created by KiCad (PCBNEW 5.1.5+dfsg1-2~bpo9+1) date 2020-08-23 22:07:57*
%MOMM*%
%LPD*%
G04 APERTURE LIST*
%ADD10R,0.548640X1.198880*%
%ADD11R,1.198880X0.548640*%
%ADD12R,0.797560X1.198880*%
%ADD13R,2.510000X1.000000*%
%ADD14R,1.099820X0.998220*%
%ADD15R,0.998220X1.099820*%
%ADD16R,1.000000X2.510000*%
%ADD17R,1.050000X0.600000*%
%ADD18R,1.550000X0.600000*%
%ADD19R,1.060000X0.650000*%
%ADD20C,0.150000*%
%ADD21C,0.600000*%
%ADD22C,0.254000*%
G04 APERTURE END LIST*
D10*
X31308040Y-38453060D03*
X32258000Y-38453060D03*
X33207960Y-38453060D03*
X33207960Y-41048940D03*
X32258000Y-41048940D03*
X31308040Y-41048940D03*
D11*
X8989059Y-42351960D03*
X8989059Y-41402000D03*
X8989059Y-40452040D03*
X11584939Y-40452040D03*
X11584939Y-41402000D03*
X11584939Y-42351960D03*
D12*
X26786840Y-17907000D03*
X28585160Y-17907000D03*
D13*
X28444000Y-6223000D03*
X31754000Y-3683000D03*
X31754000Y-8763000D03*
D14*
X21549360Y-48006000D03*
X19852640Y-48006000D03*
X21508720Y-46482000D03*
X19812000Y-46482000D03*
X18755360Y-20320000D03*
X17058640Y-20320000D03*
X17231360Y-15240000D03*
X15534640Y-15240000D03*
D15*
X25146000Y-38140640D03*
X25146000Y-39837360D03*
X24003000Y-49062640D03*
X24003000Y-50759360D03*
D14*
X19517360Y-26162000D03*
X17820640Y-26162000D03*
D15*
X18034000Y-50205640D03*
X18034000Y-51902360D03*
D14*
X32847280Y-43434000D03*
X34544000Y-43434000D03*
D15*
X13335000Y-40894000D03*
X13335000Y-39197280D03*
D13*
X12577000Y-22987000D03*
X9267000Y-25527000D03*
X9267000Y-20447000D03*
X8759000Y-3683000D03*
X12069000Y-6223000D03*
X13077000Y-3683000D03*
X16387000Y-6223000D03*
X21713000Y-3687000D03*
X25023000Y-6227000D03*
X17268000Y-3683000D03*
X20578000Y-6223000D03*
X24566000Y-19334000D03*
X21256000Y-21874000D03*
X21256000Y-16794000D03*
X34929000Y-20828000D03*
X31619000Y-18288000D03*
X22483000Y-37211000D03*
X19173000Y-34671000D03*
X3048000Y-41402000D03*
X6358000Y-38862000D03*
X6358000Y-43942000D03*
D16*
X32258000Y-34413000D03*
X34798000Y-37723000D03*
X29718000Y-37723000D03*
X15875000Y-49526000D03*
X13335000Y-52836000D03*
D17*
X16303000Y-21910000D03*
X16303000Y-22860000D03*
X16303000Y-23810000D03*
X19003000Y-23810000D03*
X19003000Y-21910000D03*
D18*
X23401000Y-41021000D03*
X23401000Y-42291000D03*
X23401000Y-43561000D03*
X23401000Y-44831000D03*
X18001000Y-44831000D03*
X18001000Y-43561000D03*
X18001000Y-42291000D03*
X18001000Y-41021000D03*
D17*
X16303000Y-16830000D03*
X16303000Y-17780000D03*
X16303000Y-18730000D03*
X19003000Y-18730000D03*
X19003000Y-16830000D03*
D19*
X26713000Y-21270000D03*
X26713000Y-19370000D03*
X28913000Y-19370000D03*
X28913000Y-20320000D03*
X28913000Y-21270000D03*
X22055000Y-50419000D03*
X22055000Y-49469000D03*
X22055000Y-51369000D03*
X19855000Y-51369000D03*
X19855000Y-50419000D03*
X19855000Y-49469000D03*
G04 #@! TA.AperFunction,SMDPad,CuDef*
D20*
G36*
X23772691Y-1697053D02*
G01*
X23793926Y-1700203D01*
X23814750Y-1705419D01*
X23834962Y-1712651D01*
X23854368Y-1721830D01*
X23872781Y-1732866D01*
X23890024Y-1745654D01*
X23905930Y-1760070D01*
X23920346Y-1775976D01*
X23933134Y-1793219D01*
X23944170Y-1811632D01*
X23953349Y-1831038D01*
X23960581Y-1851250D01*
X23965797Y-1872074D01*
X23968947Y-1893309D01*
X23970000Y-1914750D01*
X23970000Y-2352250D01*
X23968947Y-2373691D01*
X23965797Y-2394926D01*
X23960581Y-2415750D01*
X23953349Y-2435962D01*
X23944170Y-2455368D01*
X23933134Y-2473781D01*
X23920346Y-2491024D01*
X23905930Y-2506930D01*
X23890024Y-2521346D01*
X23872781Y-2534134D01*
X23854368Y-2545170D01*
X23834962Y-2554349D01*
X23814750Y-2561581D01*
X23793926Y-2566797D01*
X23772691Y-2569947D01*
X23751250Y-2571000D01*
X23238750Y-2571000D01*
X23217309Y-2569947D01*
X23196074Y-2566797D01*
X23175250Y-2561581D01*
X23155038Y-2554349D01*
X23135632Y-2545170D01*
X23117219Y-2534134D01*
X23099976Y-2521346D01*
X23084070Y-2506930D01*
X23069654Y-2491024D01*
X23056866Y-2473781D01*
X23045830Y-2455368D01*
X23036651Y-2435962D01*
X23029419Y-2415750D01*
X23024203Y-2394926D01*
X23021053Y-2373691D01*
X23020000Y-2352250D01*
X23020000Y-1914750D01*
X23021053Y-1893309D01*
X23024203Y-1872074D01*
X23029419Y-1851250D01*
X23036651Y-1831038D01*
X23045830Y-1811632D01*
X23056866Y-1793219D01*
X23069654Y-1775976D01*
X23084070Y-1760070D01*
X23099976Y-1745654D01*
X23117219Y-1732866D01*
X23135632Y-1721830D01*
X23155038Y-1712651D01*
X23175250Y-1705419D01*
X23196074Y-1700203D01*
X23217309Y-1697053D01*
X23238750Y-1696000D01*
X23751250Y-1696000D01*
X23772691Y-1697053D01*
G37*
G04 #@! TD.AperFunction*
G04 #@! TA.AperFunction,SMDPad,CuDef*
G36*
X23772691Y-3272053D02*
G01*
X23793926Y-3275203D01*
X23814750Y-3280419D01*
X23834962Y-3287651D01*
X23854368Y-3296830D01*
X23872781Y-3307866D01*
X23890024Y-3320654D01*
X23905930Y-3335070D01*
X23920346Y-3350976D01*
X23933134Y-3368219D01*
X23944170Y-3386632D01*
X23953349Y-3406038D01*
X23960581Y-3426250D01*
X23965797Y-3447074D01*
X23968947Y-3468309D01*
X23970000Y-3489750D01*
X23970000Y-3927250D01*
X23968947Y-3948691D01*
X23965797Y-3969926D01*
X23960581Y-3990750D01*
X23953349Y-4010962D01*
X23944170Y-4030368D01*
X23933134Y-4048781D01*
X23920346Y-4066024D01*
X23905930Y-4081930D01*
X23890024Y-4096346D01*
X23872781Y-4109134D01*
X23854368Y-4120170D01*
X23834962Y-4129349D01*
X23814750Y-4136581D01*
X23793926Y-4141797D01*
X23772691Y-4144947D01*
X23751250Y-4146000D01*
X23238750Y-4146000D01*
X23217309Y-4144947D01*
X23196074Y-4141797D01*
X23175250Y-4136581D01*
X23155038Y-4129349D01*
X23135632Y-4120170D01*
X23117219Y-4109134D01*
X23099976Y-4096346D01*
X23084070Y-4081930D01*
X23069654Y-4066024D01*
X23056866Y-4048781D01*
X23045830Y-4030368D01*
X23036651Y-4010962D01*
X23029419Y-3990750D01*
X23024203Y-3969926D01*
X23021053Y-3948691D01*
X23020000Y-3927250D01*
X23020000Y-3489750D01*
X23021053Y-3468309D01*
X23024203Y-3447074D01*
X23029419Y-3426250D01*
X23036651Y-3406038D01*
X23045830Y-3386632D01*
X23056866Y-3368219D01*
X23069654Y-3350976D01*
X23084070Y-3335070D01*
X23099976Y-3320654D01*
X23117219Y-3307866D01*
X23135632Y-3296830D01*
X23155038Y-3287651D01*
X23175250Y-3280419D01*
X23196074Y-3275203D01*
X23217309Y-3272053D01*
X23238750Y-3271000D01*
X23751250Y-3271000D01*
X23772691Y-3272053D01*
G37*
G04 #@! TD.AperFunction*
G04 #@! TA.AperFunction,SMDPad,CuDef*
G36*
X23772691Y-7463054D02*
G01*
X23793926Y-7466204D01*
X23814750Y-7471420D01*
X23834962Y-7478652D01*
X23854368Y-7487831D01*
X23872781Y-7498867D01*
X23890024Y-7511655D01*
X23905930Y-7526071D01*
X23920346Y-7541977D01*
X23933134Y-7559220D01*
X23944170Y-7577633D01*
X23953349Y-7597039D01*
X23960581Y-7617251D01*
X23965797Y-7638075D01*
X23968947Y-7659310D01*
X23970000Y-7680751D01*
X23970000Y-8118251D01*
X23968947Y-8139692D01*
X23965797Y-8160927D01*
X23960581Y-8181751D01*
X23953349Y-8201963D01*
X23944170Y-8221369D01*
X23933134Y-8239782D01*
X23920346Y-8257025D01*
X23905930Y-8272931D01*
X23890024Y-8287347D01*
X23872781Y-8300135D01*
X23854368Y-8311171D01*
X23834962Y-8320350D01*
X23814750Y-8327582D01*
X23793926Y-8332798D01*
X23772691Y-8335948D01*
X23751250Y-8337001D01*
X23238750Y-8337001D01*
X23217309Y-8335948D01*
X23196074Y-8332798D01*
X23175250Y-8327582D01*
X23155038Y-8320350D01*
X23135632Y-8311171D01*
X23117219Y-8300135D01*
X23099976Y-8287347D01*
X23084070Y-8272931D01*
X23069654Y-8257025D01*
X23056866Y-8239782D01*
X23045830Y-8221369D01*
X23036651Y-8201963D01*
X23029419Y-8181751D01*
X23024203Y-8160927D01*
X23021053Y-8139692D01*
X23020000Y-8118251D01*
X23020000Y-7680751D01*
X23021053Y-7659310D01*
X23024203Y-7638075D01*
X23029419Y-7617251D01*
X23036651Y-7597039D01*
X23045830Y-7577633D01*
X23056866Y-7559220D01*
X23069654Y-7541977D01*
X23084070Y-7526071D01*
X23099976Y-7511655D01*
X23117219Y-7498867D01*
X23135632Y-7487831D01*
X23155038Y-7478652D01*
X23175250Y-7471420D01*
X23196074Y-7466204D01*
X23217309Y-7463054D01*
X23238750Y-7462001D01*
X23751250Y-7462001D01*
X23772691Y-7463054D01*
G37*
G04 #@! TD.AperFunction*
G04 #@! TA.AperFunction,SMDPad,CuDef*
G36*
X23772691Y-5888054D02*
G01*
X23793926Y-5891204D01*
X23814750Y-5896420D01*
X23834962Y-5903652D01*
X23854368Y-5912831D01*
X23872781Y-5923867D01*
X23890024Y-5936655D01*
X23905930Y-5951071D01*
X23920346Y-5966977D01*
X23933134Y-5984220D01*
X23944170Y-6002633D01*
X23953349Y-6022039D01*
X23960581Y-6042251D01*
X23965797Y-6063075D01*
X23968947Y-6084310D01*
X23970000Y-6105751D01*
X23970000Y-6543251D01*
X23968947Y-6564692D01*
X23965797Y-6585927D01*
X23960581Y-6606751D01*
X23953349Y-6626963D01*
X23944170Y-6646369D01*
X23933134Y-6664782D01*
X23920346Y-6682025D01*
X23905930Y-6697931D01*
X23890024Y-6712347D01*
X23872781Y-6725135D01*
X23854368Y-6736171D01*
X23834962Y-6745350D01*
X23814750Y-6752582D01*
X23793926Y-6757798D01*
X23772691Y-6760948D01*
X23751250Y-6762001D01*
X23238750Y-6762001D01*
X23217309Y-6760948D01*
X23196074Y-6757798D01*
X23175250Y-6752582D01*
X23155038Y-6745350D01*
X23135632Y-6736171D01*
X23117219Y-6725135D01*
X23099976Y-6712347D01*
X23084070Y-6697931D01*
X23069654Y-6682025D01*
X23056866Y-6664782D01*
X23045830Y-6646369D01*
X23036651Y-6626963D01*
X23029419Y-6606751D01*
X23024203Y-6585927D01*
X23021053Y-6564692D01*
X23020000Y-6543251D01*
X23020000Y-6105751D01*
X23021053Y-6084310D01*
X23024203Y-6063075D01*
X23029419Y-6042251D01*
X23036651Y-6022039D01*
X23045830Y-6002633D01*
X23056866Y-5984220D01*
X23069654Y-5966977D01*
X23084070Y-5951071D01*
X23099976Y-5936655D01*
X23117219Y-5923867D01*
X23135632Y-5912831D01*
X23155038Y-5903652D01*
X23175250Y-5896420D01*
X23196074Y-5891204D01*
X23217309Y-5888054D01*
X23238750Y-5887001D01*
X23751250Y-5887001D01*
X23772691Y-5888054D01*
G37*
G04 #@! TD.AperFunction*
G04 #@! TA.AperFunction,SMDPad,CuDef*
G36*
X5802691Y-22513053D02*
G01*
X5823926Y-22516203D01*
X5844750Y-22521419D01*
X5864962Y-22528651D01*
X5884368Y-22537830D01*
X5902781Y-22548866D01*
X5920024Y-22561654D01*
X5935930Y-22576070D01*
X5950346Y-22591976D01*
X5963134Y-22609219D01*
X5974170Y-22627632D01*
X5983349Y-22647038D01*
X5990581Y-22667250D01*
X5995797Y-22688074D01*
X5998947Y-22709309D01*
X6000000Y-22730750D01*
X6000000Y-23243250D01*
X5998947Y-23264691D01*
X5995797Y-23285926D01*
X5990581Y-23306750D01*
X5983349Y-23326962D01*
X5974170Y-23346368D01*
X5963134Y-23364781D01*
X5950346Y-23382024D01*
X5935930Y-23397930D01*
X5920024Y-23412346D01*
X5902781Y-23425134D01*
X5884368Y-23436170D01*
X5864962Y-23445349D01*
X5844750Y-23452581D01*
X5823926Y-23457797D01*
X5802691Y-23460947D01*
X5781250Y-23462000D01*
X5343750Y-23462000D01*
X5322309Y-23460947D01*
X5301074Y-23457797D01*
X5280250Y-23452581D01*
X5260038Y-23445349D01*
X5240632Y-23436170D01*
X5222219Y-23425134D01*
X5204976Y-23412346D01*
X5189070Y-23397930D01*
X5174654Y-23382024D01*
X5161866Y-23364781D01*
X5150830Y-23346368D01*
X5141651Y-23326962D01*
X5134419Y-23306750D01*
X5129203Y-23285926D01*
X5126053Y-23264691D01*
X5125000Y-23243250D01*
X5125000Y-22730750D01*
X5126053Y-22709309D01*
X5129203Y-22688074D01*
X5134419Y-22667250D01*
X5141651Y-22647038D01*
X5150830Y-22627632D01*
X5161866Y-22609219D01*
X5174654Y-22591976D01*
X5189070Y-22576070D01*
X5204976Y-22561654D01*
X5222219Y-22548866D01*
X5240632Y-22537830D01*
X5260038Y-22528651D01*
X5280250Y-22521419D01*
X5301074Y-22516203D01*
X5322309Y-22513053D01*
X5343750Y-22512000D01*
X5781250Y-22512000D01*
X5802691Y-22513053D01*
G37*
G04 #@! TD.AperFunction*
G04 #@! TA.AperFunction,SMDPad,CuDef*
G36*
X7377691Y-22513053D02*
G01*
X7398926Y-22516203D01*
X7419750Y-22521419D01*
X7439962Y-22528651D01*
X7459368Y-22537830D01*
X7477781Y-22548866D01*
X7495024Y-22561654D01*
X7510930Y-22576070D01*
X7525346Y-22591976D01*
X7538134Y-22609219D01*
X7549170Y-22627632D01*
X7558349Y-22647038D01*
X7565581Y-22667250D01*
X7570797Y-22688074D01*
X7573947Y-22709309D01*
X7575000Y-22730750D01*
X7575000Y-23243250D01*
X7573947Y-23264691D01*
X7570797Y-23285926D01*
X7565581Y-23306750D01*
X7558349Y-23326962D01*
X7549170Y-23346368D01*
X7538134Y-23364781D01*
X7525346Y-23382024D01*
X7510930Y-23397930D01*
X7495024Y-23412346D01*
X7477781Y-23425134D01*
X7459368Y-23436170D01*
X7439962Y-23445349D01*
X7419750Y-23452581D01*
X7398926Y-23457797D01*
X7377691Y-23460947D01*
X7356250Y-23462000D01*
X6918750Y-23462000D01*
X6897309Y-23460947D01*
X6876074Y-23457797D01*
X6855250Y-23452581D01*
X6835038Y-23445349D01*
X6815632Y-23436170D01*
X6797219Y-23425134D01*
X6779976Y-23412346D01*
X6764070Y-23397930D01*
X6749654Y-23382024D01*
X6736866Y-23364781D01*
X6725830Y-23346368D01*
X6716651Y-23326962D01*
X6709419Y-23306750D01*
X6704203Y-23285926D01*
X6701053Y-23264691D01*
X6700000Y-23243250D01*
X6700000Y-22730750D01*
X6701053Y-22709309D01*
X6704203Y-22688074D01*
X6709419Y-22667250D01*
X6716651Y-22647038D01*
X6725830Y-22627632D01*
X6736866Y-22609219D01*
X6749654Y-22591976D01*
X6764070Y-22576070D01*
X6779976Y-22561654D01*
X6797219Y-22548866D01*
X6815632Y-22537830D01*
X6835038Y-22528651D01*
X6855250Y-22521419D01*
X6876074Y-22516203D01*
X6897309Y-22513053D01*
X6918750Y-22512000D01*
X7356250Y-22512000D01*
X7377691Y-22513053D01*
G37*
G04 #@! TD.AperFunction*
G04 #@! TA.AperFunction,SMDPad,CuDef*
G36*
X16406691Y-40432053D02*
G01*
X16427926Y-40435203D01*
X16448750Y-40440419D01*
X16468962Y-40447651D01*
X16488368Y-40456830D01*
X16506781Y-40467866D01*
X16524024Y-40480654D01*
X16539930Y-40495070D01*
X16554346Y-40510976D01*
X16567134Y-40528219D01*
X16578170Y-40546632D01*
X16587349Y-40566038D01*
X16594581Y-40586250D01*
X16599797Y-40607074D01*
X16602947Y-40628309D01*
X16604000Y-40649750D01*
X16604000Y-41087250D01*
X16602947Y-41108691D01*
X16599797Y-41129926D01*
X16594581Y-41150750D01*
X16587349Y-41170962D01*
X16578170Y-41190368D01*
X16567134Y-41208781D01*
X16554346Y-41226024D01*
X16539930Y-41241930D01*
X16524024Y-41256346D01*
X16506781Y-41269134D01*
X16488368Y-41280170D01*
X16468962Y-41289349D01*
X16448750Y-41296581D01*
X16427926Y-41301797D01*
X16406691Y-41304947D01*
X16385250Y-41306000D01*
X15872750Y-41306000D01*
X15851309Y-41304947D01*
X15830074Y-41301797D01*
X15809250Y-41296581D01*
X15789038Y-41289349D01*
X15769632Y-41280170D01*
X15751219Y-41269134D01*
X15733976Y-41256346D01*
X15718070Y-41241930D01*
X15703654Y-41226024D01*
X15690866Y-41208781D01*
X15679830Y-41190368D01*
X15670651Y-41170962D01*
X15663419Y-41150750D01*
X15658203Y-41129926D01*
X15655053Y-41108691D01*
X15654000Y-41087250D01*
X15654000Y-40649750D01*
X15655053Y-40628309D01*
X15658203Y-40607074D01*
X15663419Y-40586250D01*
X15670651Y-40566038D01*
X15679830Y-40546632D01*
X15690866Y-40528219D01*
X15703654Y-40510976D01*
X15718070Y-40495070D01*
X15733976Y-40480654D01*
X15751219Y-40467866D01*
X15769632Y-40456830D01*
X15789038Y-40447651D01*
X15809250Y-40440419D01*
X15830074Y-40435203D01*
X15851309Y-40432053D01*
X15872750Y-40431000D01*
X16385250Y-40431000D01*
X16406691Y-40432053D01*
G37*
G04 #@! TD.AperFunction*
G04 #@! TA.AperFunction,SMDPad,CuDef*
G36*
X16406691Y-42007053D02*
G01*
X16427926Y-42010203D01*
X16448750Y-42015419D01*
X16468962Y-42022651D01*
X16488368Y-42031830D01*
X16506781Y-42042866D01*
X16524024Y-42055654D01*
X16539930Y-42070070D01*
X16554346Y-42085976D01*
X16567134Y-42103219D01*
X16578170Y-42121632D01*
X16587349Y-42141038D01*
X16594581Y-42161250D01*
X16599797Y-42182074D01*
X16602947Y-42203309D01*
X16604000Y-42224750D01*
X16604000Y-42662250D01*
X16602947Y-42683691D01*
X16599797Y-42704926D01*
X16594581Y-42725750D01*
X16587349Y-42745962D01*
X16578170Y-42765368D01*
X16567134Y-42783781D01*
X16554346Y-42801024D01*
X16539930Y-42816930D01*
X16524024Y-42831346D01*
X16506781Y-42844134D01*
X16488368Y-42855170D01*
X16468962Y-42864349D01*
X16448750Y-42871581D01*
X16427926Y-42876797D01*
X16406691Y-42879947D01*
X16385250Y-42881000D01*
X15872750Y-42881000D01*
X15851309Y-42879947D01*
X15830074Y-42876797D01*
X15809250Y-42871581D01*
X15789038Y-42864349D01*
X15769632Y-42855170D01*
X15751219Y-42844134D01*
X15733976Y-42831346D01*
X15718070Y-42816930D01*
X15703654Y-42801024D01*
X15690866Y-42783781D01*
X15679830Y-42765368D01*
X15670651Y-42745962D01*
X15663419Y-42725750D01*
X15658203Y-42704926D01*
X15655053Y-42683691D01*
X15654000Y-42662250D01*
X15654000Y-42224750D01*
X15655053Y-42203309D01*
X15658203Y-42182074D01*
X15663419Y-42161250D01*
X15670651Y-42141038D01*
X15679830Y-42121632D01*
X15690866Y-42103219D01*
X15703654Y-42085976D01*
X15718070Y-42070070D01*
X15733976Y-42055654D01*
X15751219Y-42042866D01*
X15769632Y-42031830D01*
X15789038Y-42022651D01*
X15809250Y-42015419D01*
X15830074Y-42010203D01*
X15851309Y-42007053D01*
X15872750Y-42006000D01*
X16385250Y-42006000D01*
X16406691Y-42007053D01*
G37*
G04 #@! TD.AperFunction*
G04 #@! TA.AperFunction,SMDPad,CuDef*
G36*
X25423691Y-41575053D02*
G01*
X25444926Y-41578203D01*
X25465750Y-41583419D01*
X25485962Y-41590651D01*
X25505368Y-41599830D01*
X25523781Y-41610866D01*
X25541024Y-41623654D01*
X25556930Y-41638070D01*
X25571346Y-41653976D01*
X25584134Y-41671219D01*
X25595170Y-41689632D01*
X25604349Y-41709038D01*
X25611581Y-41729250D01*
X25616797Y-41750074D01*
X25619947Y-41771309D01*
X25621000Y-41792750D01*
X25621000Y-42230250D01*
X25619947Y-42251691D01*
X25616797Y-42272926D01*
X25611581Y-42293750D01*
X25604349Y-42313962D01*
X25595170Y-42333368D01*
X25584134Y-42351781D01*
X25571346Y-42369024D01*
X25556930Y-42384930D01*
X25541024Y-42399346D01*
X25523781Y-42412134D01*
X25505368Y-42423170D01*
X25485962Y-42432349D01*
X25465750Y-42439581D01*
X25444926Y-42444797D01*
X25423691Y-42447947D01*
X25402250Y-42449000D01*
X24889750Y-42449000D01*
X24868309Y-42447947D01*
X24847074Y-42444797D01*
X24826250Y-42439581D01*
X24806038Y-42432349D01*
X24786632Y-42423170D01*
X24768219Y-42412134D01*
X24750976Y-42399346D01*
X24735070Y-42384930D01*
X24720654Y-42369024D01*
X24707866Y-42351781D01*
X24696830Y-42333368D01*
X24687651Y-42313962D01*
X24680419Y-42293750D01*
X24675203Y-42272926D01*
X24672053Y-42251691D01*
X24671000Y-42230250D01*
X24671000Y-41792750D01*
X24672053Y-41771309D01*
X24675203Y-41750074D01*
X24680419Y-41729250D01*
X24687651Y-41709038D01*
X24696830Y-41689632D01*
X24707866Y-41671219D01*
X24720654Y-41653976D01*
X24735070Y-41638070D01*
X24750976Y-41623654D01*
X24768219Y-41610866D01*
X24786632Y-41599830D01*
X24806038Y-41590651D01*
X24826250Y-41583419D01*
X24847074Y-41578203D01*
X24868309Y-41575053D01*
X24889750Y-41574000D01*
X25402250Y-41574000D01*
X25423691Y-41575053D01*
G37*
G04 #@! TD.AperFunction*
G04 #@! TA.AperFunction,SMDPad,CuDef*
G36*
X25423691Y-43150053D02*
G01*
X25444926Y-43153203D01*
X25465750Y-43158419D01*
X25485962Y-43165651D01*
X25505368Y-43174830D01*
X25523781Y-43185866D01*
X25541024Y-43198654D01*
X25556930Y-43213070D01*
X25571346Y-43228976D01*
X25584134Y-43246219D01*
X25595170Y-43264632D01*
X25604349Y-43284038D01*
X25611581Y-43304250D01*
X25616797Y-43325074D01*
X25619947Y-43346309D01*
X25621000Y-43367750D01*
X25621000Y-43805250D01*
X25619947Y-43826691D01*
X25616797Y-43847926D01*
X25611581Y-43868750D01*
X25604349Y-43888962D01*
X25595170Y-43908368D01*
X25584134Y-43926781D01*
X25571346Y-43944024D01*
X25556930Y-43959930D01*
X25541024Y-43974346D01*
X25523781Y-43987134D01*
X25505368Y-43998170D01*
X25485962Y-44007349D01*
X25465750Y-44014581D01*
X25444926Y-44019797D01*
X25423691Y-44022947D01*
X25402250Y-44024000D01*
X24889750Y-44024000D01*
X24868309Y-44022947D01*
X24847074Y-44019797D01*
X24826250Y-44014581D01*
X24806038Y-44007349D01*
X24786632Y-43998170D01*
X24768219Y-43987134D01*
X24750976Y-43974346D01*
X24735070Y-43959930D01*
X24720654Y-43944024D01*
X24707866Y-43926781D01*
X24696830Y-43908368D01*
X24687651Y-43888962D01*
X24680419Y-43868750D01*
X24675203Y-43847926D01*
X24672053Y-43826691D01*
X24671000Y-43805250D01*
X24671000Y-43367750D01*
X24672053Y-43346309D01*
X24675203Y-43325074D01*
X24680419Y-43304250D01*
X24687651Y-43284038D01*
X24696830Y-43264632D01*
X24707866Y-43246219D01*
X24720654Y-43228976D01*
X24735070Y-43213070D01*
X24750976Y-43198654D01*
X24768219Y-43185866D01*
X24786632Y-43174830D01*
X24806038Y-43165651D01*
X24826250Y-43158419D01*
X24847074Y-43153203D01*
X24868309Y-43150053D01*
X24889750Y-43149000D01*
X25402250Y-43149000D01*
X25423691Y-43150053D01*
G37*
G04 #@! TD.AperFunction*
G04 #@! TA.AperFunction,SMDPad,CuDef*
G36*
X26859191Y-43087053D02*
G01*
X26880426Y-43090203D01*
X26901250Y-43095419D01*
X26921462Y-43102651D01*
X26940868Y-43111830D01*
X26959281Y-43122866D01*
X26976524Y-43135654D01*
X26992430Y-43150070D01*
X27006846Y-43165976D01*
X27019634Y-43183219D01*
X27030670Y-43201632D01*
X27039849Y-43221038D01*
X27047081Y-43241250D01*
X27052297Y-43262074D01*
X27055447Y-43283309D01*
X27056500Y-43304750D01*
X27056500Y-43817250D01*
X27055447Y-43838691D01*
X27052297Y-43859926D01*
X27047081Y-43880750D01*
X27039849Y-43900962D01*
X27030670Y-43920368D01*
X27019634Y-43938781D01*
X27006846Y-43956024D01*
X26992430Y-43971930D01*
X26976524Y-43986346D01*
X26959281Y-43999134D01*
X26940868Y-44010170D01*
X26921462Y-44019349D01*
X26901250Y-44026581D01*
X26880426Y-44031797D01*
X26859191Y-44034947D01*
X26837750Y-44036000D01*
X26400250Y-44036000D01*
X26378809Y-44034947D01*
X26357574Y-44031797D01*
X26336750Y-44026581D01*
X26316538Y-44019349D01*
X26297132Y-44010170D01*
X26278719Y-43999134D01*
X26261476Y-43986346D01*
X26245570Y-43971930D01*
X26231154Y-43956024D01*
X26218366Y-43938781D01*
X26207330Y-43920368D01*
X26198151Y-43900962D01*
X26190919Y-43880750D01*
X26185703Y-43859926D01*
X26182553Y-43838691D01*
X26181500Y-43817250D01*
X26181500Y-43304750D01*
X26182553Y-43283309D01*
X26185703Y-43262074D01*
X26190919Y-43241250D01*
X26198151Y-43221038D01*
X26207330Y-43201632D01*
X26218366Y-43183219D01*
X26231154Y-43165976D01*
X26245570Y-43150070D01*
X26261476Y-43135654D01*
X26278719Y-43122866D01*
X26297132Y-43111830D01*
X26316538Y-43102651D01*
X26336750Y-43095419D01*
X26357574Y-43090203D01*
X26378809Y-43087053D01*
X26400250Y-43086000D01*
X26837750Y-43086000D01*
X26859191Y-43087053D01*
G37*
G04 #@! TD.AperFunction*
G04 #@! TA.AperFunction,SMDPad,CuDef*
G36*
X28434191Y-43087053D02*
G01*
X28455426Y-43090203D01*
X28476250Y-43095419D01*
X28496462Y-43102651D01*
X28515868Y-43111830D01*
X28534281Y-43122866D01*
X28551524Y-43135654D01*
X28567430Y-43150070D01*
X28581846Y-43165976D01*
X28594634Y-43183219D01*
X28605670Y-43201632D01*
X28614849Y-43221038D01*
X28622081Y-43241250D01*
X28627297Y-43262074D01*
X28630447Y-43283309D01*
X28631500Y-43304750D01*
X28631500Y-43817250D01*
X28630447Y-43838691D01*
X28627297Y-43859926D01*
X28622081Y-43880750D01*
X28614849Y-43900962D01*
X28605670Y-43920368D01*
X28594634Y-43938781D01*
X28581846Y-43956024D01*
X28567430Y-43971930D01*
X28551524Y-43986346D01*
X28534281Y-43999134D01*
X28515868Y-44010170D01*
X28496462Y-44019349D01*
X28476250Y-44026581D01*
X28455426Y-44031797D01*
X28434191Y-44034947D01*
X28412750Y-44036000D01*
X27975250Y-44036000D01*
X27953809Y-44034947D01*
X27932574Y-44031797D01*
X27911750Y-44026581D01*
X27891538Y-44019349D01*
X27872132Y-44010170D01*
X27853719Y-43999134D01*
X27836476Y-43986346D01*
X27820570Y-43971930D01*
X27806154Y-43956024D01*
X27793366Y-43938781D01*
X27782330Y-43920368D01*
X27773151Y-43900962D01*
X27765919Y-43880750D01*
X27760703Y-43859926D01*
X27757553Y-43838691D01*
X27756500Y-43817250D01*
X27756500Y-43304750D01*
X27757553Y-43283309D01*
X27760703Y-43262074D01*
X27765919Y-43241250D01*
X27773151Y-43221038D01*
X27782330Y-43201632D01*
X27793366Y-43183219D01*
X27806154Y-43165976D01*
X27820570Y-43150070D01*
X27836476Y-43135654D01*
X27853719Y-43122866D01*
X27872132Y-43111830D01*
X27891538Y-43102651D01*
X27911750Y-43095419D01*
X27932574Y-43090203D01*
X27953809Y-43087053D01*
X27975250Y-43086000D01*
X28412750Y-43086000D01*
X28434191Y-43087053D01*
G37*
G04 #@! TD.AperFunction*
G04 #@! TA.AperFunction,SMDPad,CuDef*
G36*
X14870691Y-41944053D02*
G01*
X14891926Y-41947203D01*
X14912750Y-41952419D01*
X14932962Y-41959651D01*
X14952368Y-41968830D01*
X14970781Y-41979866D01*
X14988024Y-41992654D01*
X15003930Y-42007070D01*
X15018346Y-42022976D01*
X15031134Y-42040219D01*
X15042170Y-42058632D01*
X15051349Y-42078038D01*
X15058581Y-42098250D01*
X15063797Y-42119074D01*
X15066947Y-42140309D01*
X15068000Y-42161750D01*
X15068000Y-42674250D01*
X15066947Y-42695691D01*
X15063797Y-42716926D01*
X15058581Y-42737750D01*
X15051349Y-42757962D01*
X15042170Y-42777368D01*
X15031134Y-42795781D01*
X15018346Y-42813024D01*
X15003930Y-42828930D01*
X14988024Y-42843346D01*
X14970781Y-42856134D01*
X14952368Y-42867170D01*
X14932962Y-42876349D01*
X14912750Y-42883581D01*
X14891926Y-42888797D01*
X14870691Y-42891947D01*
X14849250Y-42893000D01*
X14411750Y-42893000D01*
X14390309Y-42891947D01*
X14369074Y-42888797D01*
X14348250Y-42883581D01*
X14328038Y-42876349D01*
X14308632Y-42867170D01*
X14290219Y-42856134D01*
X14272976Y-42843346D01*
X14257070Y-42828930D01*
X14242654Y-42813024D01*
X14229866Y-42795781D01*
X14218830Y-42777368D01*
X14209651Y-42757962D01*
X14202419Y-42737750D01*
X14197203Y-42716926D01*
X14194053Y-42695691D01*
X14193000Y-42674250D01*
X14193000Y-42161750D01*
X14194053Y-42140309D01*
X14197203Y-42119074D01*
X14202419Y-42098250D01*
X14209651Y-42078038D01*
X14218830Y-42058632D01*
X14229866Y-42040219D01*
X14242654Y-42022976D01*
X14257070Y-42007070D01*
X14272976Y-41992654D01*
X14290219Y-41979866D01*
X14308632Y-41968830D01*
X14328038Y-41959651D01*
X14348250Y-41952419D01*
X14369074Y-41947203D01*
X14390309Y-41944053D01*
X14411750Y-41943000D01*
X14849250Y-41943000D01*
X14870691Y-41944053D01*
G37*
G04 #@! TD.AperFunction*
G04 #@! TA.AperFunction,SMDPad,CuDef*
G36*
X13295691Y-41944053D02*
G01*
X13316926Y-41947203D01*
X13337750Y-41952419D01*
X13357962Y-41959651D01*
X13377368Y-41968830D01*
X13395781Y-41979866D01*
X13413024Y-41992654D01*
X13428930Y-42007070D01*
X13443346Y-42022976D01*
X13456134Y-42040219D01*
X13467170Y-42058632D01*
X13476349Y-42078038D01*
X13483581Y-42098250D01*
X13488797Y-42119074D01*
X13491947Y-42140309D01*
X13493000Y-42161750D01*
X13493000Y-42674250D01*
X13491947Y-42695691D01*
X13488797Y-42716926D01*
X13483581Y-42737750D01*
X13476349Y-42757962D01*
X13467170Y-42777368D01*
X13456134Y-42795781D01*
X13443346Y-42813024D01*
X13428930Y-42828930D01*
X13413024Y-42843346D01*
X13395781Y-42856134D01*
X13377368Y-42867170D01*
X13357962Y-42876349D01*
X13337750Y-42883581D01*
X13316926Y-42888797D01*
X13295691Y-42891947D01*
X13274250Y-42893000D01*
X12836750Y-42893000D01*
X12815309Y-42891947D01*
X12794074Y-42888797D01*
X12773250Y-42883581D01*
X12753038Y-42876349D01*
X12733632Y-42867170D01*
X12715219Y-42856134D01*
X12697976Y-42843346D01*
X12682070Y-42828930D01*
X12667654Y-42813024D01*
X12654866Y-42795781D01*
X12643830Y-42777368D01*
X12634651Y-42757962D01*
X12627419Y-42737750D01*
X12622203Y-42716926D01*
X12619053Y-42695691D01*
X12618000Y-42674250D01*
X12618000Y-42161750D01*
X12619053Y-42140309D01*
X12622203Y-42119074D01*
X12627419Y-42098250D01*
X12634651Y-42078038D01*
X12643830Y-42058632D01*
X12654866Y-42040219D01*
X12667654Y-42022976D01*
X12682070Y-42007070D01*
X12697976Y-41992654D01*
X12715219Y-41979866D01*
X12733632Y-41968830D01*
X12753038Y-41959651D01*
X12773250Y-41952419D01*
X12794074Y-41947203D01*
X12815309Y-41944053D01*
X12836750Y-41943000D01*
X13274250Y-41943000D01*
X13295691Y-41944053D01*
G37*
G04 #@! TD.AperFunction*
G04 #@! TA.AperFunction,SMDPad,CuDef*
G36*
X5802691Y-19973053D02*
G01*
X5823926Y-19976203D01*
X5844750Y-19981419D01*
X5864962Y-19988651D01*
X5884368Y-19997830D01*
X5902781Y-20008866D01*
X5920024Y-20021654D01*
X5935930Y-20036070D01*
X5950346Y-20051976D01*
X5963134Y-20069219D01*
X5974170Y-20087632D01*
X5983349Y-20107038D01*
X5990581Y-20127250D01*
X5995797Y-20148074D01*
X5998947Y-20169309D01*
X6000000Y-20190750D01*
X6000000Y-20703250D01*
X5998947Y-20724691D01*
X5995797Y-20745926D01*
X5990581Y-20766750D01*
X5983349Y-20786962D01*
X5974170Y-20806368D01*
X5963134Y-20824781D01*
X5950346Y-20842024D01*
X5935930Y-20857930D01*
X5920024Y-20872346D01*
X5902781Y-20885134D01*
X5884368Y-20896170D01*
X5864962Y-20905349D01*
X5844750Y-20912581D01*
X5823926Y-20917797D01*
X5802691Y-20920947D01*
X5781250Y-20922000D01*
X5343750Y-20922000D01*
X5322309Y-20920947D01*
X5301074Y-20917797D01*
X5280250Y-20912581D01*
X5260038Y-20905349D01*
X5240632Y-20896170D01*
X5222219Y-20885134D01*
X5204976Y-20872346D01*
X5189070Y-20857930D01*
X5174654Y-20842024D01*
X5161866Y-20824781D01*
X5150830Y-20806368D01*
X5141651Y-20786962D01*
X5134419Y-20766750D01*
X5129203Y-20745926D01*
X5126053Y-20724691D01*
X5125000Y-20703250D01*
X5125000Y-20190750D01*
X5126053Y-20169309D01*
X5129203Y-20148074D01*
X5134419Y-20127250D01*
X5141651Y-20107038D01*
X5150830Y-20087632D01*
X5161866Y-20069219D01*
X5174654Y-20051976D01*
X5189070Y-20036070D01*
X5204976Y-20021654D01*
X5222219Y-20008866D01*
X5240632Y-19997830D01*
X5260038Y-19988651D01*
X5280250Y-19981419D01*
X5301074Y-19976203D01*
X5322309Y-19973053D01*
X5343750Y-19972000D01*
X5781250Y-19972000D01*
X5802691Y-19973053D01*
G37*
G04 #@! TD.AperFunction*
G04 #@! TA.AperFunction,SMDPad,CuDef*
G36*
X7377691Y-19973053D02*
G01*
X7398926Y-19976203D01*
X7419750Y-19981419D01*
X7439962Y-19988651D01*
X7459368Y-19997830D01*
X7477781Y-20008866D01*
X7495024Y-20021654D01*
X7510930Y-20036070D01*
X7525346Y-20051976D01*
X7538134Y-20069219D01*
X7549170Y-20087632D01*
X7558349Y-20107038D01*
X7565581Y-20127250D01*
X7570797Y-20148074D01*
X7573947Y-20169309D01*
X7575000Y-20190750D01*
X7575000Y-20703250D01*
X7573947Y-20724691D01*
X7570797Y-20745926D01*
X7565581Y-20766750D01*
X7558349Y-20786962D01*
X7549170Y-20806368D01*
X7538134Y-20824781D01*
X7525346Y-20842024D01*
X7510930Y-20857930D01*
X7495024Y-20872346D01*
X7477781Y-20885134D01*
X7459368Y-20896170D01*
X7439962Y-20905349D01*
X7419750Y-20912581D01*
X7398926Y-20917797D01*
X7377691Y-20920947D01*
X7356250Y-20922000D01*
X6918750Y-20922000D01*
X6897309Y-20920947D01*
X6876074Y-20917797D01*
X6855250Y-20912581D01*
X6835038Y-20905349D01*
X6815632Y-20896170D01*
X6797219Y-20885134D01*
X6779976Y-20872346D01*
X6764070Y-20857930D01*
X6749654Y-20842024D01*
X6736866Y-20824781D01*
X6725830Y-20806368D01*
X6716651Y-20786962D01*
X6709419Y-20766750D01*
X6704203Y-20745926D01*
X6701053Y-20724691D01*
X6700000Y-20703250D01*
X6700000Y-20190750D01*
X6701053Y-20169309D01*
X6704203Y-20148074D01*
X6709419Y-20127250D01*
X6716651Y-20107038D01*
X6725830Y-20087632D01*
X6736866Y-20069219D01*
X6749654Y-20051976D01*
X6764070Y-20036070D01*
X6779976Y-20021654D01*
X6797219Y-20008866D01*
X6815632Y-19997830D01*
X6835038Y-19988651D01*
X6855250Y-19981419D01*
X6876074Y-19976203D01*
X6897309Y-19973053D01*
X6918750Y-19972000D01*
X7356250Y-19972000D01*
X7377691Y-19973053D01*
G37*
G04 #@! TD.AperFunction*
G04 #@! TA.AperFunction,SMDPad,CuDef*
G36*
X29932691Y-43087053D02*
G01*
X29953926Y-43090203D01*
X29974750Y-43095419D01*
X29994962Y-43102651D01*
X30014368Y-43111830D01*
X30032781Y-43122866D01*
X30050024Y-43135654D01*
X30065930Y-43150070D01*
X30080346Y-43165976D01*
X30093134Y-43183219D01*
X30104170Y-43201632D01*
X30113349Y-43221038D01*
X30120581Y-43241250D01*
X30125797Y-43262074D01*
X30128947Y-43283309D01*
X30130000Y-43304750D01*
X30130000Y-43817250D01*
X30128947Y-43838691D01*
X30125797Y-43859926D01*
X30120581Y-43880750D01*
X30113349Y-43900962D01*
X30104170Y-43920368D01*
X30093134Y-43938781D01*
X30080346Y-43956024D01*
X30065930Y-43971930D01*
X30050024Y-43986346D01*
X30032781Y-43999134D01*
X30014368Y-44010170D01*
X29994962Y-44019349D01*
X29974750Y-44026581D01*
X29953926Y-44031797D01*
X29932691Y-44034947D01*
X29911250Y-44036000D01*
X29473750Y-44036000D01*
X29452309Y-44034947D01*
X29431074Y-44031797D01*
X29410250Y-44026581D01*
X29390038Y-44019349D01*
X29370632Y-44010170D01*
X29352219Y-43999134D01*
X29334976Y-43986346D01*
X29319070Y-43971930D01*
X29304654Y-43956024D01*
X29291866Y-43938781D01*
X29280830Y-43920368D01*
X29271651Y-43900962D01*
X29264419Y-43880750D01*
X29259203Y-43859926D01*
X29256053Y-43838691D01*
X29255000Y-43817250D01*
X29255000Y-43304750D01*
X29256053Y-43283309D01*
X29259203Y-43262074D01*
X29264419Y-43241250D01*
X29271651Y-43221038D01*
X29280830Y-43201632D01*
X29291866Y-43183219D01*
X29304654Y-43165976D01*
X29319070Y-43150070D01*
X29334976Y-43135654D01*
X29352219Y-43122866D01*
X29370632Y-43111830D01*
X29390038Y-43102651D01*
X29410250Y-43095419D01*
X29431074Y-43090203D01*
X29452309Y-43087053D01*
X29473750Y-43086000D01*
X29911250Y-43086000D01*
X29932691Y-43087053D01*
G37*
G04 #@! TD.AperFunction*
G04 #@! TA.AperFunction,SMDPad,CuDef*
G36*
X31507691Y-43087053D02*
G01*
X31528926Y-43090203D01*
X31549750Y-43095419D01*
X31569962Y-43102651D01*
X31589368Y-43111830D01*
X31607781Y-43122866D01*
X31625024Y-43135654D01*
X31640930Y-43150070D01*
X31655346Y-43165976D01*
X31668134Y-43183219D01*
X31679170Y-43201632D01*
X31688349Y-43221038D01*
X31695581Y-43241250D01*
X31700797Y-43262074D01*
X31703947Y-43283309D01*
X31705000Y-43304750D01*
X31705000Y-43817250D01*
X31703947Y-43838691D01*
X31700797Y-43859926D01*
X31695581Y-43880750D01*
X31688349Y-43900962D01*
X31679170Y-43920368D01*
X31668134Y-43938781D01*
X31655346Y-43956024D01*
X31640930Y-43971930D01*
X31625024Y-43986346D01*
X31607781Y-43999134D01*
X31589368Y-44010170D01*
X31569962Y-44019349D01*
X31549750Y-44026581D01*
X31528926Y-44031797D01*
X31507691Y-44034947D01*
X31486250Y-44036000D01*
X31048750Y-44036000D01*
X31027309Y-44034947D01*
X31006074Y-44031797D01*
X30985250Y-44026581D01*
X30965038Y-44019349D01*
X30945632Y-44010170D01*
X30927219Y-43999134D01*
X30909976Y-43986346D01*
X30894070Y-43971930D01*
X30879654Y-43956024D01*
X30866866Y-43938781D01*
X30855830Y-43920368D01*
X30846651Y-43900962D01*
X30839419Y-43880750D01*
X30834203Y-43859926D01*
X30831053Y-43838691D01*
X30830000Y-43817250D01*
X30830000Y-43304750D01*
X30831053Y-43283309D01*
X30834203Y-43262074D01*
X30839419Y-43241250D01*
X30846651Y-43221038D01*
X30855830Y-43201632D01*
X30866866Y-43183219D01*
X30879654Y-43165976D01*
X30894070Y-43150070D01*
X30909976Y-43135654D01*
X30927219Y-43122866D01*
X30945632Y-43111830D01*
X30965038Y-43102651D01*
X30985250Y-43095419D01*
X31006074Y-43090203D01*
X31027309Y-43087053D01*
X31048750Y-43086000D01*
X31486250Y-43086000D01*
X31507691Y-43087053D01*
G37*
G04 #@! TD.AperFunction*
D21*
X32258000Y-42844720D02*
X32258000Y-41048940D01*
X32847280Y-43434000D02*
X32258000Y-42844720D01*
X12827000Y-41402000D02*
X13335000Y-40894000D01*
X11584939Y-41402000D02*
X12827000Y-41402000D01*
X17354360Y-49526000D02*
X18034000Y-50205640D01*
X15875000Y-49526000D02*
X17354360Y-49526000D01*
X18247360Y-50419000D02*
X18034000Y-50205640D01*
X19855000Y-50419000D02*
X18247360Y-50419000D01*
X21024999Y-48530361D02*
X21549360Y-48006000D01*
X21024999Y-50054003D02*
X21024999Y-48530361D01*
X20660002Y-50419000D02*
X21024999Y-50054003D01*
X19855000Y-50419000D02*
X20660002Y-50419000D01*
X21549360Y-46522640D02*
X21508720Y-46482000D01*
X21549360Y-48006000D02*
X21549360Y-46522640D01*
X21750000Y-46482000D02*
X23401000Y-44831000D01*
X21508720Y-46482000D02*
X21750000Y-46482000D01*
X21508720Y-45382890D02*
X21508720Y-46482000D01*
X19686830Y-43561000D02*
X21508720Y-45382890D01*
X18001000Y-43561000D02*
X19686830Y-43561000D01*
X19686830Y-37452170D02*
X19686830Y-43561000D01*
X20928001Y-36210999D02*
X19686830Y-37452170D01*
X17517999Y-33670999D02*
X20828001Y-33670999D01*
X17200990Y-33988008D02*
X17517999Y-33670999D01*
X17200990Y-37280312D02*
X17200990Y-33988008D01*
X20828001Y-33670999D02*
X20928001Y-33770999D01*
X13587302Y-40894000D02*
X17200990Y-37280312D01*
X13335000Y-40894000D02*
X13587302Y-40894000D01*
X22799271Y-34644001D02*
X25146000Y-36990730D01*
X20928001Y-34644001D02*
X22799271Y-34644001D01*
X20928001Y-34644001D02*
X20928001Y-36210999D01*
X25146000Y-36990730D02*
X25146000Y-38140640D01*
X20928001Y-33770999D02*
X20928001Y-34644001D01*
X32549390Y-44831000D02*
X24765000Y-44831000D01*
X32847280Y-44533110D02*
X32549390Y-44831000D01*
X32847280Y-43434000D02*
X32847280Y-44533110D01*
X24776000Y-44831000D02*
X24765000Y-44831000D01*
X24765000Y-44831000D02*
X23401000Y-44831000D01*
X26063999Y-20320000D02*
X25809999Y-20574000D01*
X28913000Y-20320000D02*
X26063999Y-20320000D01*
X24892000Y-20574000D02*
X24892000Y-20893002D01*
X25809999Y-20574000D02*
X24892000Y-20574000D01*
X24892000Y-20893002D02*
X23495000Y-22290002D01*
X23495000Y-22290002D02*
X23495000Y-23241000D01*
X22926000Y-23810000D02*
X19003000Y-23810000D01*
X23495000Y-23241000D02*
X22926000Y-23810000D01*
X32566000Y-20320000D02*
X30043000Y-20320000D01*
X33074000Y-20828000D02*
X32566000Y-20320000D01*
X30043000Y-20320000D02*
X28913000Y-20320000D01*
X34929000Y-20828000D02*
X33074000Y-20828000D01*
X19003000Y-20072360D02*
X18755360Y-20320000D01*
X19003000Y-18730000D02*
X19003000Y-20072360D01*
X19009360Y-20574000D02*
X18755360Y-20320000D01*
X24892000Y-20574000D02*
X19009360Y-20574000D01*
X19517360Y-24324360D02*
X19003000Y-23810000D01*
X19517360Y-26162000D02*
X19517360Y-24324360D01*
X19003000Y-18573614D02*
X19003000Y-18730000D01*
X17977999Y-17548613D02*
X19003000Y-18573614D01*
X17977999Y-16834999D02*
X17977999Y-17548613D01*
X17231360Y-16088360D02*
X17977999Y-16834999D01*
X17231360Y-15240000D02*
X17231360Y-16088360D01*
X23401000Y-40121000D02*
X23401000Y-41021000D01*
X23572501Y-39949499D02*
X23401000Y-40121000D01*
X33207960Y-40225138D02*
X32932321Y-39949499D01*
X33207960Y-41048940D02*
X33207960Y-40225138D01*
X23446409Y-39949499D02*
X23572501Y-39949499D01*
X34544000Y-42384980D02*
X34544000Y-43434000D01*
X33207960Y-41048940D02*
X34544000Y-42384980D01*
X22260000Y-51369000D02*
X22055000Y-51369000D01*
X23185000Y-52294000D02*
X22260000Y-51369000D01*
X26783110Y-52294000D02*
X23185000Y-52294000D01*
X34544000Y-44533110D02*
X26783110Y-52294000D01*
X34544000Y-43434000D02*
X34544000Y-44533110D01*
X19855000Y-51369000D02*
X22055000Y-51369000D01*
X19321640Y-51902360D02*
X19855000Y-51369000D01*
X18034000Y-51902360D02*
X19321640Y-51902360D01*
X17100360Y-52836000D02*
X18034000Y-51902360D01*
X13335000Y-52836000D02*
X17100360Y-52836000D01*
X12839699Y-39197280D02*
X13335000Y-39197280D01*
X11584939Y-40452040D02*
X12839699Y-39197280D01*
X26979501Y-39949499D02*
X26979501Y-34091501D01*
X32932321Y-39949499D02*
X26979501Y-39949499D01*
X26979501Y-39949499D02*
X23572501Y-39949499D01*
X26979501Y-34091501D02*
X23495000Y-30607000D01*
X23495000Y-30607000D02*
X17399000Y-30607000D01*
X13335000Y-34671000D02*
X13335000Y-39197280D01*
X17399000Y-30607000D02*
X13335000Y-34671000D01*
X28913000Y-18234840D02*
X28585160Y-17907000D01*
X28913000Y-19370000D02*
X28913000Y-18234840D01*
X29995000Y-18288000D02*
X28913000Y-19370000D01*
X31619000Y-18288000D02*
X29995000Y-18288000D01*
X15483840Y-20320000D02*
X15534640Y-20320000D01*
X15527998Y-22860000D02*
X14384730Y-21716732D01*
X16303000Y-22860000D02*
X15527998Y-22860000D01*
X15483840Y-15240000D02*
X15534640Y-15240000D01*
X14384730Y-16339110D02*
X15483840Y-15240000D01*
X14384730Y-16986730D02*
X14384730Y-16339110D01*
X15178000Y-17780000D02*
X14384730Y-16986730D01*
X16303000Y-17780000D02*
X15178000Y-17780000D01*
X17058640Y-20320000D02*
X15483840Y-20320000D01*
X14384730Y-21419110D02*
X15483840Y-20320000D01*
X14384730Y-21716732D02*
X14384730Y-21419110D01*
X17428000Y-19950640D02*
X17058640Y-20320000D01*
X17078002Y-17780000D02*
X16303000Y-17780000D01*
X17328001Y-18029999D02*
X17078002Y-17780000D01*
X17328001Y-20050639D02*
X17328001Y-18029999D01*
X17058640Y-20320000D02*
X17328001Y-20050639D01*
X28585160Y-17706340D02*
X28585160Y-17907000D01*
X26298878Y-15420058D02*
X28585160Y-17706340D01*
X26088058Y-15420058D02*
X26298878Y-15420058D01*
X15534640Y-15240000D02*
X15534640Y-14987698D01*
X15534640Y-14987698D02*
X16281449Y-14240889D01*
X16281449Y-14240889D02*
X24908889Y-14240889D01*
X24908889Y-14240889D02*
X26088058Y-15420058D01*
X23469640Y-49469000D02*
X24003000Y-48935640D01*
X22055000Y-49469000D02*
X23469640Y-49469000D01*
X23789640Y-50419000D02*
X24003000Y-50632360D01*
X22055000Y-50419000D02*
X23789640Y-50419000D01*
X18161000Y-44831000D02*
X19812000Y-46482000D01*
X18001000Y-44831000D02*
X18161000Y-44831000D01*
X19812000Y-47965360D02*
X19852640Y-48006000D01*
X19812000Y-46482000D02*
X19812000Y-47965360D01*
X19855000Y-48008360D02*
X19852640Y-48006000D01*
X19855000Y-49469000D02*
X19855000Y-48008360D01*
X32258000Y-38453060D02*
X32258000Y-34413000D01*
X8989059Y-41402000D02*
X3048000Y-41402000D01*
X28444000Y-6223000D02*
X12069000Y-6223000D01*
X34067940Y-38453060D02*
X34798000Y-37723000D01*
X33207960Y-38453060D02*
X34067940Y-38453060D01*
X7948040Y-40452040D02*
X6358000Y-38862000D01*
X8989059Y-40452040D02*
X7948040Y-40452040D01*
X8784500Y-3708500D02*
X8759000Y-3683000D01*
X23495000Y-3708500D02*
X8784500Y-3708500D01*
X23520500Y-3683000D02*
X23495000Y-3708500D01*
X31754000Y-3683000D02*
X23520500Y-3683000D01*
X16670730Y-26162000D02*
X17820640Y-26162000D01*
X5562500Y-20447000D02*
X5562500Y-22987000D01*
X26713000Y-22195000D02*
X26713000Y-21270000D01*
X21746889Y-27161111D02*
X26713000Y-22195000D01*
X18567449Y-27161111D02*
X21746889Y-27161111D01*
X17820640Y-26414302D02*
X18567449Y-27161111D01*
X17820640Y-26162000D02*
X17820640Y-26414302D01*
X14112616Y-26162000D02*
X16670730Y-26162000D01*
X12477615Y-24526999D02*
X14112616Y-26162000D01*
X6627499Y-24526999D02*
X12477615Y-24526999D01*
X5562500Y-23462000D02*
X6627499Y-24526999D01*
X5562500Y-22987000D02*
X5562500Y-23462000D01*
X29899000Y-8763000D02*
X31754000Y-8763000D01*
X23921000Y-8762999D02*
X29899000Y-8763000D01*
X23495000Y-8336999D02*
X23921000Y-8762999D01*
X23495000Y-7899500D02*
X23495000Y-8336999D01*
X31754000Y-7663000D02*
X31754000Y-8763000D01*
X33509001Y-5907999D02*
X31754000Y-7663000D01*
X33509001Y-2783000D02*
X33509001Y-5907999D01*
X32859502Y-2133500D02*
X33509001Y-2783000D01*
X23494999Y-2133500D02*
X32859502Y-2133500D01*
X21220000Y-16830000D02*
X21256000Y-16794000D01*
X19003000Y-16830000D02*
X21220000Y-16830000D01*
X21220000Y-21910000D02*
X21256000Y-21874000D01*
X19003000Y-21910000D02*
X21220000Y-21910000D01*
X24602000Y-19370000D02*
X24566000Y-19334000D01*
X26713000Y-19370000D02*
X24602000Y-19370000D01*
X26786840Y-17907000D02*
X26786840Y-18679160D01*
X26713000Y-18753000D02*
X26713000Y-19370000D01*
X26786840Y-18679160D02*
X26713000Y-18753000D01*
X16281500Y-41021000D02*
X16129000Y-40868500D01*
X18001000Y-41021000D02*
X16281500Y-41021000D01*
X18001000Y-36943000D02*
X18001000Y-40121000D01*
X18001000Y-40121000D02*
X18001000Y-41021000D01*
X19173000Y-35771000D02*
X18001000Y-36943000D01*
X19173000Y-34671000D02*
X19173000Y-35771000D01*
X22695998Y-42291000D02*
X23401000Y-42291000D01*
X22125999Y-41721001D02*
X22695998Y-42291000D01*
X22125999Y-38668001D02*
X22125999Y-41721001D01*
X22483000Y-38311000D02*
X22125999Y-38668001D01*
X22483000Y-37211000D02*
X22483000Y-38311000D01*
X24866500Y-42291000D02*
X25146000Y-42011500D01*
X23401000Y-42291000D02*
X24866500Y-42291000D01*
X28194000Y-43561000D02*
X29692500Y-43561000D01*
X31308040Y-43520460D02*
X31267500Y-43561000D01*
X31308040Y-41048940D02*
X31308040Y-43520460D01*
X15178000Y-18730000D02*
X16303000Y-18730000D01*
X12331000Y-18730000D02*
X15178000Y-18730000D01*
X10614000Y-20447000D02*
X12331000Y-18730000D01*
X8759000Y-20447000D02*
X10614000Y-20447000D01*
X7137500Y-20447000D02*
X8759000Y-20447000D01*
X16281500Y-42291000D02*
X16129000Y-42443500D01*
X18001000Y-42291000D02*
X16281500Y-42291000D01*
X14656000Y-42443500D02*
X14630500Y-42418000D01*
X16129000Y-42443500D02*
X14656000Y-42443500D01*
X12989460Y-42351960D02*
X13055500Y-42418000D01*
X11584939Y-42351960D02*
X12989460Y-42351960D01*
X25120500Y-43561000D02*
X25146000Y-43586500D01*
X23401000Y-43561000D02*
X25120500Y-43561000D01*
X26593500Y-43586500D02*
X26619000Y-43561000D01*
X25146000Y-43586500D02*
X26593500Y-43586500D01*
X12069000Y-22987000D02*
X7137500Y-22987000D01*
X12892000Y-23810000D02*
X16303000Y-23810000D01*
X12069000Y-22987000D02*
X12892000Y-23810000D01*
X28913000Y-22195000D02*
X28913000Y-21270000D01*
X23146879Y-27961121D02*
X28913000Y-22195000D01*
X10601121Y-27961121D02*
X23146879Y-27961121D01*
X9267000Y-26627000D02*
X10601121Y-27961121D01*
X9267000Y-25527000D02*
X9267000Y-26627000D01*
X7948040Y-42351960D02*
X6358000Y-43942000D01*
X8989059Y-42351960D02*
X7948040Y-42351960D01*
X30448060Y-38453060D02*
X29718000Y-37723000D01*
X31308040Y-38453060D02*
X30448060Y-38453060D01*
D22*
G36*
X39878000Y-56388000D02*
G01*
X127000Y-56388000D01*
X127000Y-40902000D01*
X1263451Y-40902000D01*
X1263451Y-41902000D01*
X1273626Y-42005310D01*
X1303761Y-42104650D01*
X1352696Y-42196202D01*
X1418552Y-42276448D01*
X1498798Y-42342304D01*
X1590350Y-42391239D01*
X1689690Y-42421374D01*
X1793000Y-42431549D01*
X4303000Y-42431549D01*
X4406310Y-42421374D01*
X4505650Y-42391239D01*
X4597202Y-42342304D01*
X4677448Y-42276448D01*
X4716387Y-42229000D01*
X6901446Y-42229000D01*
X6217996Y-42912451D01*
X5103000Y-42912451D01*
X4999690Y-42922626D01*
X4900350Y-42952761D01*
X4808798Y-43001696D01*
X4728552Y-43067552D01*
X4662696Y-43147798D01*
X4613761Y-43239350D01*
X4583626Y-43338690D01*
X4573451Y-43442000D01*
X4573451Y-44442000D01*
X4583626Y-44545310D01*
X4613761Y-44644650D01*
X4662696Y-44736202D01*
X4728552Y-44816448D01*
X4808798Y-44882304D01*
X4900350Y-44931239D01*
X4999690Y-44961374D01*
X5103000Y-44971549D01*
X7613000Y-44971549D01*
X7716310Y-44961374D01*
X7815650Y-44931239D01*
X7907202Y-44882304D01*
X7987448Y-44816448D01*
X8053304Y-44736202D01*
X8102239Y-44644650D01*
X8132374Y-44545310D01*
X8133783Y-44531000D01*
X16696451Y-44531000D01*
X16696451Y-45131000D01*
X16706626Y-45234310D01*
X16736761Y-45333650D01*
X16785696Y-45425202D01*
X16851552Y-45505448D01*
X16931798Y-45571304D01*
X17023350Y-45620239D01*
X17122690Y-45650374D01*
X17226000Y-45660549D01*
X17820996Y-45660549D01*
X18732541Y-46572095D01*
X18732541Y-46981110D01*
X18742716Y-47084420D01*
X18772851Y-47183760D01*
X18821786Y-47275312D01*
X18826126Y-47280601D01*
X18813491Y-47304240D01*
X18783356Y-47403580D01*
X18773181Y-47506890D01*
X18773181Y-48505110D01*
X18783356Y-48608420D01*
X18813491Y-48707760D01*
X18862426Y-48799312D01*
X18894277Y-48838123D01*
X18884696Y-48849798D01*
X18835761Y-48941350D01*
X18805626Y-49040690D01*
X18795451Y-49144000D01*
X18795451Y-49794000D01*
X18805626Y-49897310D01*
X18835761Y-49996650D01*
X18884696Y-50088202D01*
X18950552Y-50168448D01*
X19030798Y-50234304D01*
X19122350Y-50283239D01*
X19221690Y-50313374D01*
X19325000Y-50323549D01*
X20385000Y-50323549D01*
X20488310Y-50313374D01*
X20587650Y-50283239D01*
X20679202Y-50234304D01*
X20759448Y-50168448D01*
X20825304Y-50088202D01*
X20874239Y-49996650D01*
X20904374Y-49897310D01*
X20914549Y-49794000D01*
X20914549Y-49144000D01*
X20904374Y-49040690D01*
X20874239Y-48941350D01*
X20825304Y-48849798D01*
X20813363Y-48835247D01*
X20842854Y-48799312D01*
X20891789Y-48707760D01*
X20921924Y-48608420D01*
X20932099Y-48505110D01*
X20932099Y-47506890D01*
X20921924Y-47403580D01*
X20891789Y-47304240D01*
X20842854Y-47212688D01*
X20838514Y-47207399D01*
X20851149Y-47183760D01*
X20881284Y-47084420D01*
X20891459Y-46981110D01*
X20891459Y-45982890D01*
X20881284Y-45879580D01*
X20851149Y-45780240D01*
X20802214Y-45688688D01*
X20736358Y-45608442D01*
X20656112Y-45542586D01*
X20564560Y-45493651D01*
X20465220Y-45463516D01*
X20361910Y-45453341D01*
X19952895Y-45453341D01*
X19305549Y-44805995D01*
X19305549Y-44531000D01*
X19295374Y-44427690D01*
X19265239Y-44328350D01*
X19216304Y-44236798D01*
X19150448Y-44156552D01*
X19070202Y-44090696D01*
X18978650Y-44041761D01*
X18879310Y-44011626D01*
X18776000Y-44001451D01*
X18175733Y-44001451D01*
X18161000Y-44000000D01*
X18146267Y-44001451D01*
X17226000Y-44001451D01*
X17122690Y-44011626D01*
X17023350Y-44041761D01*
X16931798Y-44090696D01*
X16851552Y-44156552D01*
X16785696Y-44236798D01*
X16736761Y-44328350D01*
X16706626Y-44427690D01*
X16696451Y-44531000D01*
X8133783Y-44531000D01*
X8142549Y-44442000D01*
X8142549Y-43442000D01*
X8132374Y-43338690D01*
X8132022Y-43337531D01*
X8290594Y-43178960D01*
X9029683Y-43178960D01*
X9151179Y-43166994D01*
X9187985Y-43155829D01*
X9588499Y-43155829D01*
X9691809Y-43145654D01*
X9791149Y-43115519D01*
X9882701Y-43066584D01*
X9962947Y-43000728D01*
X10028803Y-42920482D01*
X10077738Y-42828930D01*
X10107873Y-42729590D01*
X10118048Y-42626280D01*
X10118048Y-42077640D01*
X10455950Y-42077640D01*
X10455950Y-42626280D01*
X10466125Y-42729590D01*
X10496260Y-42828930D01*
X10545195Y-42920482D01*
X10611051Y-43000728D01*
X10691297Y-43066584D01*
X10782849Y-43115519D01*
X10882189Y-43145654D01*
X10985499Y-43155829D01*
X11386013Y-43155829D01*
X11422819Y-43166994D01*
X11544315Y-43178960D01*
X12287584Y-43178960D01*
X12307623Y-43203377D01*
X12421017Y-43296438D01*
X12550388Y-43365588D01*
X12690764Y-43408171D01*
X12836750Y-43422549D01*
X13274250Y-43422549D01*
X13420236Y-43408171D01*
X13560612Y-43365588D01*
X13689983Y-43296438D01*
X13803377Y-43203377D01*
X13843000Y-43155097D01*
X13882623Y-43203377D01*
X13996017Y-43296438D01*
X14125388Y-43365588D01*
X14265764Y-43408171D01*
X14411750Y-43422549D01*
X14849250Y-43422549D01*
X14995236Y-43408171D01*
X15135612Y-43365588D01*
X15264983Y-43296438D01*
X15296588Y-43270500D01*
X15440034Y-43270500D01*
X15457017Y-43284438D01*
X15586388Y-43353588D01*
X15726764Y-43396171D01*
X15872750Y-43410549D01*
X16385250Y-43410549D01*
X16531236Y-43396171D01*
X16671612Y-43353588D01*
X16800983Y-43284438D01*
X16914377Y-43191377D01*
X16974597Y-43118000D01*
X17200119Y-43118000D01*
X17226000Y-43120549D01*
X18776000Y-43120549D01*
X18879310Y-43110374D01*
X18978650Y-43080239D01*
X19070202Y-43031304D01*
X19150448Y-42965448D01*
X19216304Y-42885202D01*
X19265239Y-42793650D01*
X19295374Y-42694310D01*
X19305549Y-42591000D01*
X19305549Y-41991000D01*
X19295374Y-41887690D01*
X19265239Y-41788350D01*
X19216304Y-41696798D01*
X19182822Y-41656000D01*
X19216304Y-41615202D01*
X19265239Y-41523650D01*
X19295374Y-41424310D01*
X19305549Y-41321000D01*
X19305549Y-40721000D01*
X19295374Y-40617690D01*
X19265239Y-40518350D01*
X19216304Y-40426798D01*
X19150448Y-40346552D01*
X19070202Y-40280696D01*
X18978650Y-40231761D01*
X18879310Y-40201626D01*
X18828000Y-40196572D01*
X18828000Y-37285553D01*
X19729058Y-36384497D01*
X19760606Y-36358606D01*
X19786496Y-36327059D01*
X19786502Y-36327053D01*
X19863952Y-36232681D01*
X19940744Y-36089011D01*
X19940745Y-36089010D01*
X19988034Y-35933120D01*
X20000000Y-35811624D01*
X20000000Y-35811612D01*
X20004000Y-35771001D01*
X20000000Y-35730390D01*
X20000000Y-35700549D01*
X20428000Y-35700549D01*
X20531310Y-35690374D01*
X20630650Y-35660239D01*
X20722202Y-35611304D01*
X20802448Y-35545448D01*
X20868304Y-35465202D01*
X20917239Y-35373650D01*
X20947374Y-35274310D01*
X20957549Y-35171000D01*
X20957549Y-34171000D01*
X20947374Y-34067690D01*
X20917239Y-33968350D01*
X20868304Y-33876798D01*
X20802448Y-33796552D01*
X20722202Y-33730696D01*
X20630650Y-33681761D01*
X20531310Y-33651626D01*
X20428000Y-33641451D01*
X17918000Y-33641451D01*
X17814690Y-33651626D01*
X17715350Y-33681761D01*
X17623798Y-33730696D01*
X17543552Y-33796552D01*
X17477696Y-33876798D01*
X17428761Y-33968350D01*
X17398626Y-34067690D01*
X17388451Y-34171000D01*
X17388451Y-35171000D01*
X17398626Y-35274310D01*
X17428761Y-35373650D01*
X17477696Y-35465202D01*
X17543552Y-35545448D01*
X17623798Y-35611304D01*
X17715350Y-35660239D01*
X17814690Y-35690374D01*
X17918000Y-35700549D01*
X18073897Y-35700549D01*
X17444952Y-36329495D01*
X17413394Y-36355394D01*
X17387498Y-36386949D01*
X17310048Y-36481321D01*
X17295601Y-36508350D01*
X17233255Y-36624991D01*
X17185966Y-36780881D01*
X17174000Y-36902377D01*
X17174000Y-36902386D01*
X17170000Y-36943000D01*
X17174000Y-36983614D01*
X17174001Y-40080367D01*
X17174000Y-40080377D01*
X17174000Y-40194000D01*
X16974597Y-40194000D01*
X16914377Y-40120623D01*
X16800983Y-40027562D01*
X16671612Y-39958412D01*
X16531236Y-39915829D01*
X16385250Y-39901451D01*
X15872750Y-39901451D01*
X15726764Y-39915829D01*
X15586388Y-39958412D01*
X15457017Y-40027562D01*
X15343623Y-40120623D01*
X15250562Y-40234017D01*
X15181412Y-40363388D01*
X15138829Y-40503764D01*
X15124451Y-40649750D01*
X15124451Y-41087250D01*
X15138829Y-41233236D01*
X15181412Y-41373612D01*
X15250562Y-41502983D01*
X15312763Y-41578775D01*
X15264983Y-41539562D01*
X15135612Y-41470412D01*
X14995236Y-41427829D01*
X14849250Y-41413451D01*
X14411750Y-41413451D01*
X14265764Y-41427829D01*
X14125388Y-41470412D01*
X13996017Y-41539562D01*
X13882623Y-41632623D01*
X13843000Y-41680903D01*
X13803377Y-41632623D01*
X13689983Y-41539562D01*
X13560612Y-41470412D01*
X13420236Y-41427829D01*
X13274250Y-41413451D01*
X12836750Y-41413451D01*
X12690764Y-41427829D01*
X12550388Y-41470412D01*
X12448336Y-41524960D01*
X11544315Y-41524960D01*
X11422819Y-41536926D01*
X11386013Y-41548091D01*
X10985499Y-41548091D01*
X10882189Y-41558266D01*
X10782849Y-41588401D01*
X10691297Y-41637336D01*
X10611051Y-41703192D01*
X10545195Y-41783438D01*
X10496260Y-41874990D01*
X10466125Y-41974330D01*
X10455950Y-42077640D01*
X10118048Y-42077640D01*
X10107873Y-41974330D01*
X10078342Y-41876980D01*
X10107873Y-41779630D01*
X10118048Y-41676320D01*
X10118048Y-41127680D01*
X10107873Y-41024370D01*
X10078342Y-40927020D01*
X10107873Y-40829670D01*
X10118048Y-40726360D01*
X10118048Y-40177720D01*
X10455950Y-40177720D01*
X10455950Y-40726360D01*
X10466125Y-40829670D01*
X10496260Y-40929010D01*
X10545195Y-41020562D01*
X10611051Y-41100808D01*
X10691297Y-41166664D01*
X10782849Y-41215599D01*
X10882189Y-41245734D01*
X10985499Y-41255909D01*
X11386016Y-41255909D01*
X11422819Y-41267073D01*
X11584939Y-41283040D01*
X11747059Y-41267073D01*
X11783862Y-41255909D01*
X12184379Y-41255909D01*
X12287689Y-41245734D01*
X12387029Y-41215599D01*
X12478581Y-41166664D01*
X12558827Y-41100808D01*
X12624683Y-41020562D01*
X12673618Y-40929010D01*
X12703753Y-40829670D01*
X12713928Y-40726360D01*
X12713928Y-40492605D01*
X12929794Y-40276739D01*
X13834110Y-40276739D01*
X13937420Y-40266564D01*
X14036760Y-40236429D01*
X14128312Y-40187494D01*
X14208558Y-40121638D01*
X14274414Y-40041392D01*
X14323349Y-39949840D01*
X14353484Y-39850500D01*
X14363659Y-39747190D01*
X14363659Y-38647370D01*
X14353484Y-38544060D01*
X14323349Y-38444720D01*
X14274414Y-38353168D01*
X14208558Y-38272922D01*
X14162000Y-38234713D01*
X14162000Y-35013553D01*
X17741554Y-31434000D01*
X23152447Y-31434000D01*
X26152502Y-34434057D01*
X26152501Y-39122499D01*
X26145785Y-39122499D01*
X26134349Y-39084800D01*
X26085414Y-38993248D01*
X26019558Y-38913002D01*
X25939312Y-38847146D01*
X25847760Y-38798211D01*
X25748420Y-38768076D01*
X25645110Y-38757901D01*
X24646890Y-38757901D01*
X24543580Y-38768076D01*
X24444240Y-38798211D01*
X24352688Y-38847146D01*
X24272442Y-38913002D01*
X24206586Y-38993248D01*
X24157651Y-39084800D01*
X24146215Y-39122499D01*
X23613114Y-39122499D01*
X23572500Y-39118499D01*
X23531886Y-39122499D01*
X23405785Y-39122499D01*
X23284289Y-39134465D01*
X23128399Y-39181754D01*
X22984730Y-39258547D01*
X22952999Y-39284588D01*
X22952999Y-39010555D01*
X23039052Y-38924501D01*
X23070606Y-38898606D01*
X23112839Y-38847146D01*
X23173952Y-38772679D01*
X23212864Y-38699880D01*
X23250745Y-38629010D01*
X23298034Y-38473120D01*
X23310000Y-38351624D01*
X23310000Y-38351614D01*
X23314000Y-38311000D01*
X23310000Y-38270386D01*
X23310000Y-38240549D01*
X23738000Y-38240549D01*
X23841310Y-38230374D01*
X23940650Y-38200239D01*
X24032202Y-38151304D01*
X24112448Y-38085448D01*
X24178304Y-38005202D01*
X24227239Y-37913650D01*
X24257374Y-37814310D01*
X24267549Y-37711000D01*
X24267549Y-36711000D01*
X24257374Y-36607690D01*
X24227239Y-36508350D01*
X24178304Y-36416798D01*
X24112448Y-36336552D01*
X24032202Y-36270696D01*
X23940650Y-36221761D01*
X23841310Y-36191626D01*
X23738000Y-36181451D01*
X21228000Y-36181451D01*
X21124690Y-36191626D01*
X21025350Y-36221761D01*
X20933798Y-36270696D01*
X20853552Y-36336552D01*
X20787696Y-36416798D01*
X20738761Y-36508350D01*
X20708626Y-36607690D01*
X20698451Y-36711000D01*
X20698451Y-37711000D01*
X20708626Y-37814310D01*
X20738761Y-37913650D01*
X20787696Y-38005202D01*
X20853552Y-38085448D01*
X20933798Y-38151304D01*
X21025350Y-38200239D01*
X21124690Y-38230374D01*
X21228000Y-38240549D01*
X21416752Y-38240549D01*
X21412504Y-38248498D01*
X21358254Y-38349992D01*
X21310965Y-38505882D01*
X21298999Y-38627378D01*
X21298999Y-38627387D01*
X21294999Y-38668001D01*
X21298999Y-38708615D01*
X21299000Y-41680377D01*
X21294999Y-41721001D01*
X21310966Y-41883121D01*
X21358255Y-42039011D01*
X21435047Y-42182680D01*
X21512497Y-42277052D01*
X21538394Y-42308607D01*
X21569946Y-42334501D01*
X22082501Y-42847058D01*
X22108392Y-42878606D01*
X22139939Y-42904496D01*
X22139945Y-42904502D01*
X22197833Y-42952009D01*
X22185696Y-42966798D01*
X22136761Y-43058350D01*
X22106626Y-43157690D01*
X22096451Y-43261000D01*
X22096451Y-43861000D01*
X22106626Y-43964310D01*
X22136761Y-44063650D01*
X22185696Y-44155202D01*
X22251552Y-44235448D01*
X22331798Y-44301304D01*
X22423350Y-44350239D01*
X22522690Y-44380374D01*
X22626000Y-44390549D01*
X24176000Y-44390549D01*
X24201881Y-44388000D01*
X24425962Y-44388000D01*
X24474017Y-44427438D01*
X24603388Y-44496588D01*
X24743764Y-44539171D01*
X24889750Y-44553549D01*
X25402250Y-44553549D01*
X25548236Y-44539171D01*
X25688612Y-44496588D01*
X25817983Y-44427438D01*
X25834966Y-44413500D01*
X25952912Y-44413500D01*
X25984517Y-44439438D01*
X26113888Y-44508588D01*
X26254264Y-44551171D01*
X26400250Y-44565549D01*
X26837750Y-44565549D01*
X26983736Y-44551171D01*
X27124112Y-44508588D01*
X27253483Y-44439438D01*
X27366877Y-44346377D01*
X27406500Y-44298097D01*
X27446123Y-44346377D01*
X27559517Y-44439438D01*
X27688888Y-44508588D01*
X27829264Y-44551171D01*
X27975250Y-44565549D01*
X28412750Y-44565549D01*
X28558736Y-44551171D01*
X28699112Y-44508588D01*
X28828483Y-44439438D01*
X28891160Y-44388000D01*
X28995340Y-44388000D01*
X29058017Y-44439438D01*
X29187388Y-44508588D01*
X29327764Y-44551171D01*
X29473750Y-44565549D01*
X29911250Y-44565549D01*
X30057236Y-44551171D01*
X30197612Y-44508588D01*
X30326983Y-44439438D01*
X30440377Y-44346377D01*
X30480000Y-44298097D01*
X30519623Y-44346377D01*
X30633017Y-44439438D01*
X30762388Y-44508588D01*
X30902764Y-44551171D01*
X31048750Y-44565549D01*
X31486250Y-44565549D01*
X31632236Y-44551171D01*
X31772612Y-44508588D01*
X31901983Y-44439438D01*
X32015377Y-44346377D01*
X32108438Y-44232983D01*
X32177588Y-44103612D01*
X32220171Y-43963236D01*
X32234549Y-43817250D01*
X32234549Y-43304750D01*
X32220171Y-43158764D01*
X32177588Y-43018388D01*
X32135040Y-42938786D01*
X32135040Y-41008316D01*
X32123074Y-40886820D01*
X32111909Y-40850014D01*
X32111909Y-40776499D01*
X32380960Y-40776499D01*
X32380960Y-41008326D01*
X32376960Y-41048940D01*
X32380960Y-41089554D01*
X32380960Y-41089563D01*
X32392926Y-41211059D01*
X32404091Y-41247865D01*
X32404091Y-41648380D01*
X32414266Y-41751690D01*
X32444401Y-41851030D01*
X32493336Y-41942582D01*
X32559192Y-42022828D01*
X32639438Y-42088684D01*
X32730990Y-42137619D01*
X32830330Y-42167754D01*
X32933640Y-42177929D01*
X33167396Y-42177929D01*
X33588209Y-42598743D01*
X33553786Y-42640688D01*
X33504851Y-42732240D01*
X33474716Y-42831580D01*
X33464541Y-42934890D01*
X33464541Y-43933110D01*
X33474716Y-44036420D01*
X33504851Y-44135760D01*
X33553786Y-44227312D01*
X33610787Y-44296769D01*
X26440557Y-51467000D01*
X25004976Y-51467000D01*
X25021484Y-51412580D01*
X25031659Y-51309270D01*
X25031659Y-50209450D01*
X25021484Y-50106140D01*
X24991349Y-50006800D01*
X24942414Y-49915248D01*
X24938928Y-49911000D01*
X24942414Y-49906752D01*
X24991349Y-49815200D01*
X25021484Y-49715860D01*
X25031659Y-49612550D01*
X25031659Y-48512730D01*
X25021484Y-48409420D01*
X24991349Y-48310080D01*
X24942414Y-48218528D01*
X24876558Y-48138282D01*
X24796312Y-48072426D01*
X24704760Y-48023491D01*
X24605420Y-47993356D01*
X24502110Y-47983181D01*
X23503890Y-47983181D01*
X23400580Y-47993356D01*
X23301240Y-48023491D01*
X23209688Y-48072426D01*
X23129442Y-48138282D01*
X23063586Y-48218528D01*
X23014651Y-48310080D01*
X22984516Y-48409420D01*
X22974341Y-48512730D01*
X22974341Y-48642000D01*
X22745583Y-48642000D01*
X22688310Y-48624626D01*
X22585000Y-48614451D01*
X21525000Y-48614451D01*
X21421690Y-48624626D01*
X21322350Y-48654761D01*
X21230798Y-48703696D01*
X21150552Y-48769552D01*
X21084696Y-48849798D01*
X21035761Y-48941350D01*
X21005626Y-49040690D01*
X20995451Y-49144000D01*
X20995451Y-49794000D01*
X21005626Y-49897310D01*
X21019790Y-49944000D01*
X21005626Y-49990690D01*
X20995451Y-50094000D01*
X20995451Y-50542000D01*
X20545583Y-50542000D01*
X20488310Y-50524626D01*
X20385000Y-50514451D01*
X19325000Y-50514451D01*
X19221690Y-50524626D01*
X19122350Y-50554761D01*
X19030798Y-50603696D01*
X18950552Y-50669552D01*
X18884696Y-50749798D01*
X18835761Y-50841350D01*
X18816102Y-50906154D01*
X18735760Y-50863211D01*
X18636420Y-50833076D01*
X18533110Y-50822901D01*
X17534890Y-50822901D01*
X17431580Y-50833076D01*
X17332240Y-50863211D01*
X17240688Y-50912146D01*
X17160442Y-50978002D01*
X17094586Y-51058248D01*
X17045651Y-51149800D01*
X17015516Y-51249140D01*
X17005341Y-51352450D01*
X17005341Y-51761465D01*
X16757806Y-52009000D01*
X14364549Y-52009000D01*
X14364549Y-51581000D01*
X14354374Y-51477690D01*
X14324239Y-51378350D01*
X14275304Y-51286798D01*
X14209448Y-51206552D01*
X14129202Y-51140696D01*
X14037650Y-51091761D01*
X13938310Y-51061626D01*
X13835000Y-51051451D01*
X12835000Y-51051451D01*
X12731690Y-51061626D01*
X12632350Y-51091761D01*
X12540798Y-51140696D01*
X12460552Y-51206552D01*
X12394696Y-51286798D01*
X12345761Y-51378350D01*
X12315626Y-51477690D01*
X12305451Y-51581000D01*
X12305451Y-54091000D01*
X12315626Y-54194310D01*
X12345761Y-54293650D01*
X12394696Y-54385202D01*
X12460552Y-54465448D01*
X12540798Y-54531304D01*
X12632350Y-54580239D01*
X12731690Y-54610374D01*
X12835000Y-54620549D01*
X13835000Y-54620549D01*
X13938310Y-54610374D01*
X14037650Y-54580239D01*
X14129202Y-54531304D01*
X14209448Y-54465448D01*
X14275304Y-54385202D01*
X14324239Y-54293650D01*
X14354374Y-54194310D01*
X14364549Y-54091000D01*
X14364549Y-53663000D01*
X17059746Y-53663000D01*
X17100360Y-53667000D01*
X17140974Y-53663000D01*
X17140984Y-53663000D01*
X17262480Y-53651034D01*
X17418370Y-53603745D01*
X17562039Y-53526952D01*
X17687966Y-53423606D01*
X17713865Y-53392048D01*
X18124095Y-52981819D01*
X18533110Y-52981819D01*
X18636420Y-52971644D01*
X18735760Y-52941509D01*
X18827312Y-52892574D01*
X18907558Y-52826718D01*
X18973414Y-52746472D01*
X18982560Y-52729360D01*
X19281026Y-52729360D01*
X19321640Y-52733360D01*
X19362254Y-52729360D01*
X19362264Y-52729360D01*
X19483760Y-52717394D01*
X19639650Y-52670105D01*
X19783319Y-52593312D01*
X19909246Y-52489966D01*
X19935145Y-52458408D01*
X20170004Y-52223549D01*
X20385000Y-52223549D01*
X20488310Y-52213374D01*
X20545583Y-52196000D01*
X21364417Y-52196000D01*
X21421690Y-52213374D01*
X21525000Y-52223549D01*
X21944995Y-52223549D01*
X22571503Y-52850058D01*
X22597394Y-52881606D01*
X22628941Y-52907496D01*
X22628948Y-52907503D01*
X22723320Y-52984952D01*
X22866989Y-53061745D01*
X22914278Y-53076090D01*
X23022880Y-53109034D01*
X23144376Y-53121000D01*
X23144386Y-53121000D01*
X23185000Y-53125000D01*
X23225614Y-53121000D01*
X26742496Y-53121000D01*
X26783110Y-53125000D01*
X26823724Y-53121000D01*
X26823734Y-53121000D01*
X26945230Y-53109034D01*
X27101120Y-53061745D01*
X27244789Y-52984952D01*
X27370716Y-52881606D01*
X27396615Y-52850048D01*
X35100053Y-45146611D01*
X35131606Y-45120716D01*
X35157502Y-45089162D01*
X35234952Y-44994790D01*
X35275998Y-44917997D01*
X35311745Y-44851120D01*
X35359034Y-44695230D01*
X35371000Y-44573734D01*
X35371000Y-44573724D01*
X35375000Y-44533110D01*
X35371000Y-44492496D01*
X35371000Y-44382560D01*
X35388112Y-44373414D01*
X35468358Y-44307558D01*
X35534214Y-44227312D01*
X35583149Y-44135760D01*
X35613284Y-44036420D01*
X35623459Y-43933110D01*
X35623459Y-42934890D01*
X35613284Y-42831580D01*
X35583149Y-42732240D01*
X35534214Y-42640688D01*
X35468358Y-42560442D01*
X35388112Y-42494586D01*
X35371000Y-42485440D01*
X35371000Y-42425594D01*
X35375000Y-42384980D01*
X35371000Y-42344366D01*
X35371000Y-42344356D01*
X35359034Y-42222860D01*
X35311745Y-42066970D01*
X35262228Y-41974330D01*
X35234952Y-41923300D01*
X35157502Y-41828928D01*
X35157501Y-41828927D01*
X35131606Y-41797374D01*
X35100054Y-41771480D01*
X34034960Y-40706387D01*
X34034960Y-40265748D01*
X34038960Y-40225137D01*
X34034960Y-40184526D01*
X34034960Y-40184514D01*
X34022994Y-40063018D01*
X33975705Y-39907128D01*
X33898912Y-39763459D01*
X33795566Y-39637532D01*
X33764012Y-39611636D01*
X33690915Y-39538540D01*
X33776482Y-39492804D01*
X33856728Y-39426948D01*
X33920710Y-39348985D01*
X33923552Y-39352448D01*
X34003798Y-39418304D01*
X34095350Y-39467239D01*
X34194690Y-39497374D01*
X34298000Y-39507549D01*
X35298000Y-39507549D01*
X35401310Y-39497374D01*
X35500650Y-39467239D01*
X35592202Y-39418304D01*
X35672448Y-39352448D01*
X35738304Y-39272202D01*
X35787239Y-39180650D01*
X35817374Y-39081310D01*
X35827549Y-38978000D01*
X35827549Y-36468000D01*
X35817374Y-36364690D01*
X35787239Y-36265350D01*
X35738304Y-36173798D01*
X35672448Y-36093552D01*
X35592202Y-36027696D01*
X35500650Y-35978761D01*
X35401310Y-35948626D01*
X35298000Y-35938451D01*
X34298000Y-35938451D01*
X34194690Y-35948626D01*
X34095350Y-35978761D01*
X34003798Y-36027696D01*
X33923552Y-36093552D01*
X33857696Y-36173798D01*
X33808761Y-36265350D01*
X33778626Y-36364690D01*
X33768451Y-36468000D01*
X33768451Y-37409023D01*
X33684930Y-37364381D01*
X33585590Y-37334246D01*
X33482280Y-37324071D01*
X33085000Y-37324071D01*
X33085000Y-36081387D01*
X33132448Y-36042448D01*
X33198304Y-35962202D01*
X33247239Y-35870650D01*
X33277374Y-35771310D01*
X33287549Y-35668000D01*
X33287549Y-33158000D01*
X33277374Y-33054690D01*
X33247239Y-32955350D01*
X33198304Y-32863798D01*
X33132448Y-32783552D01*
X33052202Y-32717696D01*
X32960650Y-32668761D01*
X32861310Y-32638626D01*
X32758000Y-32628451D01*
X31758000Y-32628451D01*
X31654690Y-32638626D01*
X31555350Y-32668761D01*
X31463798Y-32717696D01*
X31383552Y-32783552D01*
X31317696Y-32863798D01*
X31268761Y-32955350D01*
X31238626Y-33054690D01*
X31228451Y-33158000D01*
X31228451Y-35668000D01*
X31238626Y-35771310D01*
X31268761Y-35870650D01*
X31317696Y-35962202D01*
X31383552Y-36042448D01*
X31431001Y-36081388D01*
X31431000Y-37324071D01*
X31033720Y-37324071D01*
X30930410Y-37334246D01*
X30831070Y-37364381D01*
X30747549Y-37409023D01*
X30747549Y-36468000D01*
X30737374Y-36364690D01*
X30707239Y-36265350D01*
X30658304Y-36173798D01*
X30592448Y-36093552D01*
X30512202Y-36027696D01*
X30420650Y-35978761D01*
X30321310Y-35948626D01*
X30218000Y-35938451D01*
X29218000Y-35938451D01*
X29114690Y-35948626D01*
X29015350Y-35978761D01*
X28923798Y-36027696D01*
X28843552Y-36093552D01*
X28777696Y-36173798D01*
X28728761Y-36265350D01*
X28698626Y-36364690D01*
X28688451Y-36468000D01*
X28688451Y-38978000D01*
X28698626Y-39081310D01*
X28711121Y-39122499D01*
X27806501Y-39122499D01*
X27806501Y-34132115D01*
X27810501Y-34091501D01*
X27806501Y-34050887D01*
X27806501Y-34050877D01*
X27794535Y-33929381D01*
X27747246Y-33773491D01*
X27747246Y-33773490D01*
X27670453Y-33629821D01*
X27593004Y-33535449D01*
X27592997Y-33535442D01*
X27567107Y-33503895D01*
X27535560Y-33478005D01*
X24108505Y-30050952D01*
X24082606Y-30019394D01*
X23956679Y-29916048D01*
X23813010Y-29839255D01*
X23657120Y-29791966D01*
X23535624Y-29780000D01*
X23535614Y-29780000D01*
X23495000Y-29776000D01*
X23454386Y-29780000D01*
X17439614Y-29780000D01*
X17399000Y-29776000D01*
X17358386Y-29780000D01*
X17358376Y-29780000D01*
X17236880Y-29791966D01*
X17080990Y-29839255D01*
X17014113Y-29875002D01*
X16937320Y-29916048D01*
X16842948Y-29993498D01*
X16811394Y-30019394D01*
X16785499Y-30050947D01*
X12778952Y-34057495D01*
X12747394Y-34083394D01*
X12721498Y-34114949D01*
X12644048Y-34209321D01*
X12603002Y-34286114D01*
X12567255Y-34352991D01*
X12519966Y-34508881D01*
X12508000Y-34630377D01*
X12508000Y-34630386D01*
X12504000Y-34671000D01*
X12508000Y-34711614D01*
X12508001Y-38234712D01*
X12461442Y-38272922D01*
X12395586Y-38353168D01*
X12346651Y-38444720D01*
X12316516Y-38544060D01*
X12315151Y-38557923D01*
X12283647Y-38583777D01*
X12283640Y-38583784D01*
X12252093Y-38609674D01*
X12226202Y-38641222D01*
X11219255Y-39648171D01*
X10985499Y-39648171D01*
X10882189Y-39658346D01*
X10782849Y-39688481D01*
X10691297Y-39737416D01*
X10611051Y-39803272D01*
X10545195Y-39883518D01*
X10496260Y-39975070D01*
X10466125Y-40074410D01*
X10455950Y-40177720D01*
X10118048Y-40177720D01*
X10107873Y-40074410D01*
X10077738Y-39975070D01*
X10028803Y-39883518D01*
X9962947Y-39803272D01*
X9882701Y-39737416D01*
X9791149Y-39688481D01*
X9691809Y-39658346D01*
X9588499Y-39648171D01*
X9187985Y-39648171D01*
X9151179Y-39637006D01*
X9029683Y-39625040D01*
X8290594Y-39625040D01*
X8132022Y-39466469D01*
X8132374Y-39465310D01*
X8142549Y-39362000D01*
X8142549Y-38362000D01*
X8132374Y-38258690D01*
X8102239Y-38159350D01*
X8053304Y-38067798D01*
X7987448Y-37987552D01*
X7907202Y-37921696D01*
X7815650Y-37872761D01*
X7716310Y-37842626D01*
X7613000Y-37832451D01*
X5103000Y-37832451D01*
X4999690Y-37842626D01*
X4900350Y-37872761D01*
X4808798Y-37921696D01*
X4728552Y-37987552D01*
X4662696Y-38067798D01*
X4613761Y-38159350D01*
X4583626Y-38258690D01*
X4573451Y-38362000D01*
X4573451Y-39362000D01*
X4583626Y-39465310D01*
X4613761Y-39564650D01*
X4662696Y-39656202D01*
X4728552Y-39736448D01*
X4808798Y-39802304D01*
X4900350Y-39851239D01*
X4999690Y-39881374D01*
X5103000Y-39891549D01*
X6217996Y-39891549D01*
X6901446Y-40575000D01*
X4716387Y-40575000D01*
X4677448Y-40527552D01*
X4597202Y-40461696D01*
X4505650Y-40412761D01*
X4406310Y-40382626D01*
X4303000Y-40372451D01*
X1793000Y-40372451D01*
X1689690Y-40382626D01*
X1590350Y-40412761D01*
X1498798Y-40461696D01*
X1418552Y-40527552D01*
X1352696Y-40607798D01*
X1303761Y-40699350D01*
X1273626Y-40798690D01*
X1263451Y-40902000D01*
X127000Y-40902000D01*
X127000Y-20190750D01*
X4595451Y-20190750D01*
X4595451Y-20703250D01*
X4609829Y-20849236D01*
X4652412Y-20989612D01*
X4721562Y-21118983D01*
X4735500Y-21135967D01*
X4735501Y-22298033D01*
X4721562Y-22315017D01*
X4652412Y-22444388D01*
X4609829Y-22584764D01*
X4595451Y-22730750D01*
X4595451Y-23243250D01*
X4609829Y-23389236D01*
X4652412Y-23529612D01*
X4721562Y-23658983D01*
X4779432Y-23729497D01*
X4794755Y-23780010D01*
X4871548Y-23923679D01*
X4974895Y-24049606D01*
X5006448Y-24075501D01*
X6013996Y-25083050D01*
X6039893Y-25114605D01*
X6071446Y-25140500D01*
X6071447Y-25140501D01*
X6165819Y-25217951D01*
X6174491Y-25222586D01*
X6309489Y-25294744D01*
X6465379Y-25342033D01*
X6586875Y-25353999D01*
X6586884Y-25353999D01*
X6627498Y-25357999D01*
X6668112Y-25353999D01*
X7482451Y-25353999D01*
X7482451Y-26027000D01*
X7492626Y-26130310D01*
X7522761Y-26229650D01*
X7571696Y-26321202D01*
X7637552Y-26401448D01*
X7717798Y-26467304D01*
X7809350Y-26516239D01*
X7908690Y-26546374D01*
X8012000Y-26556549D01*
X8440001Y-26556549D01*
X8440001Y-26586377D01*
X8436000Y-26627000D01*
X8451967Y-26789120D01*
X8499256Y-26945010D01*
X8576048Y-27088679D01*
X8652674Y-27182047D01*
X8679395Y-27214606D01*
X8710948Y-27240501D01*
X9987620Y-28517174D01*
X10013515Y-28548727D01*
X10045068Y-28574622D01*
X10045069Y-28574623D01*
X10139441Y-28652073D01*
X10216234Y-28693119D01*
X10283111Y-28728866D01*
X10439001Y-28776155D01*
X10560497Y-28788121D01*
X10560506Y-28788121D01*
X10601120Y-28792121D01*
X10641734Y-28788121D01*
X23106265Y-28788121D01*
X23146879Y-28792121D01*
X23187493Y-28788121D01*
X23187503Y-28788121D01*
X23308999Y-28776155D01*
X23464889Y-28728866D01*
X23608558Y-28652073D01*
X23734485Y-28548727D01*
X23760384Y-28517169D01*
X29469060Y-22808495D01*
X29500606Y-22782606D01*
X29526496Y-22751059D01*
X29526503Y-22751052D01*
X29603952Y-22656680D01*
X29680745Y-22513011D01*
X29715210Y-22399394D01*
X29728034Y-22357120D01*
X29740000Y-22235624D01*
X29740000Y-22235614D01*
X29744000Y-22195000D01*
X29740000Y-22154386D01*
X29740000Y-22033008D01*
X29817448Y-21969448D01*
X29883304Y-21889202D01*
X29932239Y-21797650D01*
X29962374Y-21698310D01*
X29972549Y-21595000D01*
X29972549Y-20945000D01*
X29962374Y-20841690D01*
X29932239Y-20742350D01*
X29883304Y-20650798D01*
X29817448Y-20570552D01*
X29737202Y-20504696D01*
X29645650Y-20455761D01*
X29546310Y-20425626D01*
X29443000Y-20415451D01*
X28383000Y-20415451D01*
X28279690Y-20425626D01*
X28180350Y-20455761D01*
X28088798Y-20504696D01*
X28008552Y-20570552D01*
X27942696Y-20650798D01*
X27893761Y-20742350D01*
X27863626Y-20841690D01*
X27853451Y-20945000D01*
X27853451Y-21595000D01*
X27863626Y-21698310D01*
X27893761Y-21797650D01*
X27942696Y-21889202D01*
X27990722Y-21947723D01*
X27504829Y-22433617D01*
X27515210Y-22399394D01*
X27528034Y-22357120D01*
X27540000Y-22235624D01*
X27540000Y-22235614D01*
X27544000Y-22195000D01*
X27540000Y-22154386D01*
X27540000Y-22033008D01*
X27617448Y-21969448D01*
X27683304Y-21889202D01*
X27732239Y-21797650D01*
X27762374Y-21698310D01*
X27772549Y-21595000D01*
X27772549Y-20945000D01*
X27762374Y-20841690D01*
X27732239Y-20742350D01*
X27683304Y-20650798D01*
X27617448Y-20570552D01*
X27537202Y-20504696D01*
X27445650Y-20455761D01*
X27346310Y-20425626D01*
X27243000Y-20415451D01*
X26183000Y-20415451D01*
X26079690Y-20425626D01*
X25980350Y-20455761D01*
X25888798Y-20504696D01*
X25808552Y-20570552D01*
X25742696Y-20650798D01*
X25693761Y-20742350D01*
X25663626Y-20841690D01*
X25653451Y-20945000D01*
X25653451Y-21595000D01*
X25663626Y-21698310D01*
X25693761Y-21797650D01*
X25742696Y-21889202D01*
X25790723Y-21947723D01*
X21404336Y-26334111D01*
X18910003Y-26334111D01*
X18900099Y-26324207D01*
X18900099Y-25662890D01*
X18889924Y-25559580D01*
X18859789Y-25460240D01*
X18810854Y-25368688D01*
X18744998Y-25288442D01*
X18664752Y-25222586D01*
X18573200Y-25173651D01*
X18473860Y-25143516D01*
X18370550Y-25133341D01*
X17270730Y-25133341D01*
X17167420Y-25143516D01*
X17068080Y-25173651D01*
X16976528Y-25222586D01*
X16896282Y-25288442D01*
X16858073Y-25335000D01*
X14455171Y-25335000D01*
X13757170Y-24637000D01*
X15752119Y-24637000D01*
X15778000Y-24639549D01*
X16828000Y-24639549D01*
X16931310Y-24629374D01*
X17030650Y-24599239D01*
X17122202Y-24550304D01*
X17202448Y-24484448D01*
X17268304Y-24404202D01*
X17317239Y-24312650D01*
X17347374Y-24213310D01*
X17357549Y-24110000D01*
X17357549Y-23510000D01*
X17347374Y-23406690D01*
X17325627Y-23335000D01*
X17347374Y-23263310D01*
X17357549Y-23160000D01*
X17357549Y-22560000D01*
X17347374Y-22456690D01*
X17325627Y-22385000D01*
X17347374Y-22313310D01*
X17357549Y-22210000D01*
X17357549Y-21610000D01*
X17948451Y-21610000D01*
X17948451Y-22210000D01*
X17958626Y-22313310D01*
X17988761Y-22412650D01*
X18037696Y-22504202D01*
X18103552Y-22584448D01*
X18183798Y-22650304D01*
X18275350Y-22699239D01*
X18374690Y-22729374D01*
X18478000Y-22739549D01*
X19528000Y-22739549D01*
X19553881Y-22737000D01*
X19617157Y-22737000D01*
X19626552Y-22748448D01*
X19706798Y-22814304D01*
X19798350Y-22863239D01*
X19897690Y-22893374D01*
X20001000Y-22903549D01*
X22511000Y-22903549D01*
X22614310Y-22893374D01*
X22713650Y-22863239D01*
X22805202Y-22814304D01*
X22885448Y-22748448D01*
X22951304Y-22668202D01*
X23000239Y-22576650D01*
X23030374Y-22477310D01*
X23040549Y-22374000D01*
X23040549Y-21374000D01*
X23030374Y-21270690D01*
X23000239Y-21171350D01*
X22951304Y-21079798D01*
X22885448Y-20999552D01*
X22805202Y-20933696D01*
X22713650Y-20884761D01*
X22614310Y-20854626D01*
X22511000Y-20844451D01*
X20001000Y-20844451D01*
X19897690Y-20854626D01*
X19798350Y-20884761D01*
X19706798Y-20933696D01*
X19626552Y-20999552D01*
X19560696Y-21079798D01*
X19558985Y-21083000D01*
X19553881Y-21083000D01*
X19528000Y-21080451D01*
X18478000Y-21080451D01*
X18374690Y-21090626D01*
X18275350Y-21120761D01*
X18183798Y-21169696D01*
X18103552Y-21235552D01*
X18037696Y-21315798D01*
X17988761Y-21407350D01*
X17958626Y-21506690D01*
X17948451Y-21610000D01*
X17357549Y-21610000D01*
X17347374Y-21506690D01*
X17317239Y-21407350D01*
X17285868Y-21348659D01*
X17608550Y-21348659D01*
X17711860Y-21338484D01*
X17811200Y-21308349D01*
X17902752Y-21259414D01*
X17982998Y-21193558D01*
X18048854Y-21113312D01*
X18097789Y-21021760D01*
X18127924Y-20922420D01*
X18138099Y-20819110D01*
X18138099Y-20376497D01*
X18195744Y-20268651D01*
X18243033Y-20112761D01*
X18259000Y-19950640D01*
X18243033Y-19788520D01*
X18195744Y-19632630D01*
X18155001Y-19556405D01*
X18155001Y-18070613D01*
X18159001Y-18029999D01*
X18155001Y-17989385D01*
X18155001Y-17989375D01*
X18143035Y-17867879D01*
X18095746Y-17711989D01*
X18018953Y-17568320D01*
X17915607Y-17442393D01*
X17884049Y-17416494D01*
X17691507Y-17223952D01*
X17665608Y-17192394D01*
X17539681Y-17089048D01*
X17396012Y-17012255D01*
X17357549Y-17000587D01*
X17357549Y-16530000D01*
X17948451Y-16530000D01*
X17948451Y-17130000D01*
X17958626Y-17233310D01*
X17988761Y-17332650D01*
X18037696Y-17424202D01*
X18103552Y-17504448D01*
X18183798Y-17570304D01*
X18275350Y-17619239D01*
X18374690Y-17649374D01*
X18478000Y-17659549D01*
X19528000Y-17659549D01*
X19553881Y-17657000D01*
X19617157Y-17657000D01*
X19626552Y-17668448D01*
X19706798Y-17734304D01*
X19798350Y-17783239D01*
X19897690Y-17813374D01*
X20001000Y-17823549D01*
X22511000Y-17823549D01*
X22614310Y-17813374D01*
X22713650Y-17783239D01*
X22805202Y-17734304D01*
X22885448Y-17668448D01*
X22951304Y-17588202D01*
X23000239Y-17496650D01*
X23030374Y-17397310D01*
X23040549Y-17294000D01*
X23040549Y-16294000D01*
X23030374Y-16190690D01*
X23000239Y-16091350D01*
X22951304Y-15999798D01*
X22885448Y-15919552D01*
X22805202Y-15853696D01*
X22713650Y-15804761D01*
X22614310Y-15774626D01*
X22511000Y-15764451D01*
X20001000Y-15764451D01*
X19897690Y-15774626D01*
X19798350Y-15804761D01*
X19706798Y-15853696D01*
X19626552Y-15919552D01*
X19560696Y-15999798D01*
X19558985Y-16003000D01*
X19553881Y-16003000D01*
X19528000Y-16000451D01*
X18478000Y-16000451D01*
X18374690Y-16010626D01*
X18275350Y-16040761D01*
X18183798Y-16089696D01*
X18103552Y-16155552D01*
X18037696Y-16235798D01*
X17988761Y-16327350D01*
X17958626Y-16426690D01*
X17948451Y-16530000D01*
X17357549Y-16530000D01*
X17347374Y-16426690D01*
X17317239Y-16327350D01*
X17268304Y-16235798D01*
X17202448Y-16155552D01*
X17122202Y-16089696D01*
X17030650Y-16040761D01*
X16931310Y-16010626D01*
X16828000Y-16000451D01*
X16542418Y-16000451D01*
X16573789Y-15941760D01*
X16603924Y-15842420D01*
X16614099Y-15739110D01*
X16614099Y-15077793D01*
X16624003Y-15067889D01*
X24566336Y-15067889D01*
X25474555Y-15976109D01*
X25500452Y-16007664D01*
X25532005Y-16033559D01*
X25532006Y-16033560D01*
X25626378Y-16111010D01*
X25678834Y-16139048D01*
X25770048Y-16187803D01*
X25925938Y-16235092D01*
X25946371Y-16237104D01*
X26487278Y-16778011D01*
X26388060Y-16778011D01*
X26284750Y-16788186D01*
X26185410Y-16818321D01*
X26093858Y-16867256D01*
X26013612Y-16933112D01*
X25947756Y-17013358D01*
X25898821Y-17104910D01*
X25868686Y-17204250D01*
X25858511Y-17307560D01*
X25858511Y-18308145D01*
X25821000Y-18304451D01*
X23311000Y-18304451D01*
X23207690Y-18314626D01*
X23108350Y-18344761D01*
X23016798Y-18393696D01*
X22936552Y-18459552D01*
X22870696Y-18539798D01*
X22821761Y-18631350D01*
X22791626Y-18730690D01*
X22781451Y-18834000D01*
X22781451Y-19834000D01*
X22791626Y-19937310D01*
X22821761Y-20036650D01*
X22870696Y-20128202D01*
X22936552Y-20208448D01*
X23016798Y-20274304D01*
X23108350Y-20323239D01*
X23207690Y-20353374D01*
X23311000Y-20363549D01*
X25821000Y-20363549D01*
X25924310Y-20353374D01*
X26023650Y-20323239D01*
X26115202Y-20274304D01*
X26176597Y-20223918D01*
X26183000Y-20224549D01*
X27243000Y-20224549D01*
X27346310Y-20214374D01*
X27445650Y-20184239D01*
X27537202Y-20135304D01*
X27617448Y-20069448D01*
X27683304Y-19989202D01*
X27732239Y-19897650D01*
X27762374Y-19798310D01*
X27772549Y-19695000D01*
X27772549Y-19045000D01*
X27762374Y-18941690D01*
X27732239Y-18842350D01*
X27683304Y-18750798D01*
X27664689Y-18728116D01*
X27674859Y-18709090D01*
X27686000Y-18672364D01*
X27697141Y-18709090D01*
X27746076Y-18800642D01*
X27811932Y-18880888D01*
X27868090Y-18926975D01*
X27863626Y-18941690D01*
X27853451Y-19045000D01*
X27853451Y-19695000D01*
X27863626Y-19798310D01*
X27893761Y-19897650D01*
X27942696Y-19989202D01*
X28008552Y-20069448D01*
X28088798Y-20135304D01*
X28180350Y-20184239D01*
X28279690Y-20214374D01*
X28383000Y-20224549D01*
X29443000Y-20224549D01*
X29546310Y-20214374D01*
X29645650Y-20184239D01*
X29737202Y-20135304D01*
X29817448Y-20069448D01*
X29883304Y-19989202D01*
X29932239Y-19897650D01*
X29962374Y-19798310D01*
X29972549Y-19695000D01*
X29972549Y-19480004D01*
X30172064Y-19280489D01*
X30260690Y-19307374D01*
X30364000Y-19317549D01*
X32874000Y-19317549D01*
X32977310Y-19307374D01*
X33076650Y-19277239D01*
X33168202Y-19228304D01*
X33248448Y-19162448D01*
X33314304Y-19082202D01*
X33363239Y-18990650D01*
X33393374Y-18891310D01*
X33403549Y-18788000D01*
X33403549Y-17788000D01*
X33393374Y-17684690D01*
X33363239Y-17585350D01*
X33314304Y-17493798D01*
X33248448Y-17413552D01*
X33168202Y-17347696D01*
X33076650Y-17298761D01*
X32977310Y-17268626D01*
X32874000Y-17258451D01*
X30364000Y-17258451D01*
X30260690Y-17268626D01*
X30161350Y-17298761D01*
X30069798Y-17347696D01*
X29989552Y-17413552D01*
X29950282Y-17461403D01*
X29832880Y-17472966D01*
X29676990Y-17520255D01*
X29634847Y-17542781D01*
X29533320Y-17597048D01*
X29513489Y-17613323D01*
X29513489Y-17307560D01*
X29503314Y-17204250D01*
X29473179Y-17104910D01*
X29424244Y-17013358D01*
X29358388Y-16933112D01*
X29278142Y-16867256D01*
X29186590Y-16818321D01*
X29087250Y-16788186D01*
X28983940Y-16778011D01*
X28826385Y-16778011D01*
X26912383Y-14864010D01*
X26886484Y-14832452D01*
X26760557Y-14729106D01*
X26616888Y-14652313D01*
X26460998Y-14605024D01*
X26440565Y-14603012D01*
X25522394Y-13684841D01*
X25496495Y-13653283D01*
X25370568Y-13549937D01*
X25226899Y-13473144D01*
X25071009Y-13425855D01*
X24949513Y-13413889D01*
X24949503Y-13413889D01*
X24908889Y-13409889D01*
X24868275Y-13413889D01*
X16322059Y-13413889D01*
X16281448Y-13409889D01*
X16240837Y-13413889D01*
X16240825Y-13413889D01*
X16119329Y-13425855D01*
X15963439Y-13473144D01*
X15838321Y-13540021D01*
X15819768Y-13549938D01*
X15725396Y-13627387D01*
X15725390Y-13627393D01*
X15693843Y-13653283D01*
X15667952Y-13684831D01*
X15141443Y-14211341D01*
X14984730Y-14211341D01*
X14881420Y-14221516D01*
X14782080Y-14251651D01*
X14690528Y-14300586D01*
X14610282Y-14366442D01*
X14544426Y-14446688D01*
X14495491Y-14538240D01*
X14465356Y-14637580D01*
X14455181Y-14740890D01*
X14455181Y-15099105D01*
X13828678Y-15725609D01*
X13797125Y-15751504D01*
X13771230Y-15783057D01*
X13771228Y-15783059D01*
X13693778Y-15877431D01*
X13628372Y-15999798D01*
X13616986Y-16021100D01*
X13569696Y-16176990D01*
X13557730Y-16298486D01*
X13557730Y-16298496D01*
X13553730Y-16339110D01*
X13557730Y-16379724D01*
X13557730Y-16946116D01*
X13553730Y-16986730D01*
X13557730Y-17027344D01*
X13557730Y-17027353D01*
X13569696Y-17148849D01*
X13616985Y-17304739D01*
X13631904Y-17332650D01*
X13693778Y-17448409D01*
X13731028Y-17493798D01*
X13797124Y-17574336D01*
X13828682Y-17600235D01*
X14131447Y-17903000D01*
X12371614Y-17903000D01*
X12331000Y-17899000D01*
X12290386Y-17903000D01*
X12290376Y-17903000D01*
X12168880Y-17914966D01*
X12012990Y-17962255D01*
X11964436Y-17988208D01*
X11869320Y-18039048D01*
X11774948Y-18116497D01*
X11774941Y-18116504D01*
X11743394Y-18142394D01*
X11717503Y-18173942D01*
X10473995Y-19417451D01*
X8012000Y-19417451D01*
X7908690Y-19427626D01*
X7809350Y-19457761D01*
X7717798Y-19506696D01*
X7693518Y-19526622D01*
X7642612Y-19499412D01*
X7502236Y-19456829D01*
X7356250Y-19442451D01*
X6918750Y-19442451D01*
X6772764Y-19456829D01*
X6632388Y-19499412D01*
X6503017Y-19568562D01*
X6389623Y-19661623D01*
X6350000Y-19709903D01*
X6310377Y-19661623D01*
X6196983Y-19568562D01*
X6067612Y-19499412D01*
X5927236Y-19456829D01*
X5781250Y-19442451D01*
X5343750Y-19442451D01*
X5197764Y-19456829D01*
X5057388Y-19499412D01*
X4928017Y-19568562D01*
X4814623Y-19661623D01*
X4721562Y-19775017D01*
X4652412Y-19904388D01*
X4609829Y-20044764D01*
X4595451Y-20190750D01*
X127000Y-20190750D01*
X127000Y-3183000D01*
X6974451Y-3183000D01*
X6974451Y-4183000D01*
X6984626Y-4286310D01*
X7014761Y-4385650D01*
X7063696Y-4477202D01*
X7129552Y-4557448D01*
X7209798Y-4623304D01*
X7301350Y-4672239D01*
X7400690Y-4702374D01*
X7504000Y-4712549D01*
X10014000Y-4712549D01*
X10117310Y-4702374D01*
X10216650Y-4672239D01*
X10308202Y-4623304D01*
X10388448Y-4557448D01*
X10406460Y-4535500D01*
X11429540Y-4535500D01*
X11447552Y-4557448D01*
X11527798Y-4623304D01*
X11619350Y-4672239D01*
X11718690Y-4702374D01*
X11822000Y-4712549D01*
X14332000Y-4712549D01*
X14435310Y-4702374D01*
X14534650Y-4672239D01*
X14626202Y-4623304D01*
X14706448Y-4557448D01*
X14724460Y-4535500D01*
X15620540Y-4535500D01*
X15638552Y-4557448D01*
X15718798Y-4623304D01*
X15810350Y-4672239D01*
X15909690Y-4702374D01*
X16013000Y-4712549D01*
X18523000Y-4712549D01*
X18626310Y-4702374D01*
X18725650Y-4672239D01*
X18817202Y-4623304D01*
X18897448Y-4557448D01*
X18915460Y-4535500D01*
X20062257Y-4535500D01*
X20083552Y-4561448D01*
X20163798Y-4627304D01*
X20255350Y-4676239D01*
X20354690Y-4706374D01*
X20458000Y-4716549D01*
X22968000Y-4716549D01*
X23071310Y-4706374D01*
X23170650Y-4676239D01*
X23182336Y-4669993D01*
X23238750Y-4675549D01*
X23751250Y-4675549D01*
X23897236Y-4661171D01*
X24037612Y-4618588D01*
X24166983Y-4549438D01*
X24215038Y-4510000D01*
X30085613Y-4510000D01*
X30124552Y-4557448D01*
X30204798Y-4623304D01*
X30296350Y-4672239D01*
X30395690Y-4702374D01*
X30499000Y-4712549D01*
X32682002Y-4712549D01*
X32682002Y-5565444D01*
X31197952Y-7049495D01*
X31166394Y-7075394D01*
X31140498Y-7106949D01*
X31063048Y-7201321D01*
X31045266Y-7234589D01*
X30986255Y-7344991D01*
X30938966Y-7500881D01*
X30927000Y-7622377D01*
X30927000Y-7622386D01*
X30923000Y-7663000D01*
X30927000Y-7703614D01*
X30927000Y-7733451D01*
X30499000Y-7733451D01*
X30395690Y-7743626D01*
X30296350Y-7773761D01*
X30204798Y-7822696D01*
X30124552Y-7888552D01*
X30085613Y-7936000D01*
X29858376Y-7936000D01*
X29858366Y-7936001D01*
X24499549Y-7935999D01*
X24499549Y-7680751D01*
X24485171Y-7534765D01*
X24442588Y-7394389D01*
X24373438Y-7265018D01*
X24366488Y-7256549D01*
X26278000Y-7256549D01*
X26381310Y-7246374D01*
X26480650Y-7216239D01*
X26572202Y-7167304D01*
X26652448Y-7101448D01*
X26694670Y-7050000D01*
X26775613Y-7050000D01*
X26814552Y-7097448D01*
X26894798Y-7163304D01*
X26986350Y-7212239D01*
X27085690Y-7242374D01*
X27189000Y-7252549D01*
X29699000Y-7252549D01*
X29802310Y-7242374D01*
X29901650Y-7212239D01*
X29993202Y-7163304D01*
X30073448Y-7097448D01*
X30139304Y-7017202D01*
X30188239Y-6925650D01*
X30218374Y-6826310D01*
X30228549Y-6723000D01*
X30228549Y-5723000D01*
X30218374Y-5619690D01*
X30188239Y-5520350D01*
X30139304Y-5428798D01*
X30073448Y-5348552D01*
X29993202Y-5282696D01*
X29901650Y-5233761D01*
X29802310Y-5203626D01*
X29699000Y-5193451D01*
X27189000Y-5193451D01*
X27085690Y-5203626D01*
X26986350Y-5233761D01*
X26894798Y-5282696D01*
X26814552Y-5348552D01*
X26775613Y-5396000D01*
X26688105Y-5396000D01*
X26652448Y-5352552D01*
X26572202Y-5286696D01*
X26480650Y-5237761D01*
X26381310Y-5207626D01*
X26278000Y-5197451D01*
X23768000Y-5197451D01*
X23664690Y-5207626D01*
X23565350Y-5237761D01*
X23473798Y-5286696D01*
X23393552Y-5352552D01*
X23389531Y-5357452D01*
X23238750Y-5357452D01*
X23092764Y-5371830D01*
X23013087Y-5396000D01*
X22246387Y-5396000D01*
X22207448Y-5348552D01*
X22127202Y-5282696D01*
X22035650Y-5233761D01*
X21936310Y-5203626D01*
X21833000Y-5193451D01*
X19323000Y-5193451D01*
X19219690Y-5203626D01*
X19120350Y-5233761D01*
X19028798Y-5282696D01*
X18948552Y-5348552D01*
X18909613Y-5396000D01*
X18055387Y-5396000D01*
X18016448Y-5348552D01*
X17936202Y-5282696D01*
X17844650Y-5233761D01*
X17745310Y-5203626D01*
X17642000Y-5193451D01*
X15132000Y-5193451D01*
X15028690Y-5203626D01*
X14929350Y-5233761D01*
X14837798Y-5282696D01*
X14757552Y-5348552D01*
X14718613Y-5396000D01*
X13737387Y-5396000D01*
X13698448Y-5348552D01*
X13618202Y-5282696D01*
X13526650Y-5233761D01*
X13427310Y-5203626D01*
X13324000Y-5193451D01*
X10814000Y-5193451D01*
X10710690Y-5203626D01*
X10611350Y-5233761D01*
X10519798Y-5282696D01*
X10439552Y-5348552D01*
X10373696Y-5428798D01*
X10324761Y-5520350D01*
X10294626Y-5619690D01*
X10284451Y-5723000D01*
X10284451Y-6723000D01*
X10294626Y-6826310D01*
X10324761Y-6925650D01*
X10373696Y-7017202D01*
X10439552Y-7097448D01*
X10519798Y-7163304D01*
X10611350Y-7212239D01*
X10710690Y-7242374D01*
X10814000Y-7252549D01*
X13324000Y-7252549D01*
X13427310Y-7242374D01*
X13526650Y-7212239D01*
X13618202Y-7163304D01*
X13698448Y-7097448D01*
X13737387Y-7050000D01*
X14718613Y-7050000D01*
X14757552Y-7097448D01*
X14837798Y-7163304D01*
X14929350Y-7212239D01*
X15028690Y-7242374D01*
X15132000Y-7252549D01*
X17642000Y-7252549D01*
X17745310Y-7242374D01*
X17844650Y-7212239D01*
X17936202Y-7163304D01*
X18016448Y-7097448D01*
X18055387Y-7050000D01*
X18909613Y-7050000D01*
X18948552Y-7097448D01*
X19028798Y-7163304D01*
X19120350Y-7212239D01*
X19219690Y-7242374D01*
X19323000Y-7252549D01*
X21833000Y-7252549D01*
X21936310Y-7242374D01*
X22035650Y-7212239D01*
X22127202Y-7163304D01*
X22207448Y-7097448D01*
X22246387Y-7050000D01*
X22691258Y-7050000D01*
X22709623Y-7072378D01*
X22757903Y-7112001D01*
X22709623Y-7151624D01*
X22616562Y-7265018D01*
X22547412Y-7394389D01*
X22504829Y-7534765D01*
X22490451Y-7680751D01*
X22490451Y-8118251D01*
X22504829Y-8264237D01*
X22547412Y-8404613D01*
X22616562Y-8533984D01*
X22709623Y-8647378D01*
X22733768Y-8667193D01*
X22804048Y-8798678D01*
X22907395Y-8924605D01*
X22938948Y-8950500D01*
X23307499Y-9319051D01*
X23333394Y-9350604D01*
X23364947Y-9376499D01*
X23364949Y-9376501D01*
X23459321Y-9453951D01*
X23602989Y-9530743D01*
X23758879Y-9578032D01*
X23921000Y-9593999D01*
X23961624Y-9589998D01*
X29858376Y-9590000D01*
X30085613Y-9590000D01*
X30124552Y-9637448D01*
X30204798Y-9703304D01*
X30296350Y-9752239D01*
X30395690Y-9782374D01*
X30499000Y-9792549D01*
X33009000Y-9792549D01*
X33112310Y-9782374D01*
X33211650Y-9752239D01*
X33303202Y-9703304D01*
X33383448Y-9637448D01*
X33449304Y-9557202D01*
X33498239Y-9465650D01*
X33528374Y-9366310D01*
X33538549Y-9263000D01*
X33538549Y-8263000D01*
X33528374Y-8159690D01*
X33498239Y-8060350D01*
X33449304Y-7968798D01*
X33383448Y-7888552D01*
X33303202Y-7822696D01*
X33211650Y-7773761D01*
X33112310Y-7743626D01*
X33009000Y-7733451D01*
X32853102Y-7733451D01*
X34065054Y-6521500D01*
X34096607Y-6495605D01*
X34122503Y-6464051D01*
X34199953Y-6369680D01*
X34276745Y-6226010D01*
X34276746Y-6226009D01*
X34324035Y-6070119D01*
X34336001Y-5948623D01*
X34336001Y-5948614D01*
X34340001Y-5908000D01*
X34336001Y-5867386D01*
X34336001Y-2823614D01*
X34340001Y-2783000D01*
X34336001Y-2742386D01*
X34336001Y-2742376D01*
X34324035Y-2620880D01*
X34276746Y-2464990D01*
X34199954Y-2321322D01*
X34199953Y-2321320D01*
X34122504Y-2226948D01*
X34122497Y-2226941D01*
X34096607Y-2195394D01*
X34065061Y-2169505D01*
X33473003Y-1577447D01*
X33447108Y-1545894D01*
X33389989Y-1499017D01*
X33321182Y-1442549D01*
X33321183Y-1442549D01*
X33321181Y-1442548D01*
X33177512Y-1365755D01*
X33021622Y-1318466D01*
X32900126Y-1306500D01*
X32900116Y-1306500D01*
X32859502Y-1302500D01*
X32818888Y-1306500D01*
X24183966Y-1306500D01*
X24166983Y-1292562D01*
X24037612Y-1223412D01*
X23897236Y-1180829D01*
X23751250Y-1166451D01*
X23238750Y-1166451D01*
X23092764Y-1180829D01*
X22952388Y-1223412D01*
X22823017Y-1292562D01*
X22709623Y-1385623D01*
X22616562Y-1499017D01*
X22547412Y-1628388D01*
X22504829Y-1768764D01*
X22490451Y-1914750D01*
X22490451Y-2352250D01*
X22504829Y-2498236D01*
X22547412Y-2638612D01*
X22557482Y-2657451D01*
X20458000Y-2657451D01*
X20354690Y-2667626D01*
X20255350Y-2697761D01*
X20163798Y-2746696D01*
X20083552Y-2812552D01*
X20026968Y-2881500D01*
X18957315Y-2881500D01*
X18897448Y-2808552D01*
X18817202Y-2742696D01*
X18725650Y-2693761D01*
X18626310Y-2663626D01*
X18523000Y-2653451D01*
X16013000Y-2653451D01*
X15909690Y-2663626D01*
X15810350Y-2693761D01*
X15718798Y-2742696D01*
X15638552Y-2808552D01*
X15578685Y-2881500D01*
X14766315Y-2881500D01*
X14706448Y-2808552D01*
X14626202Y-2742696D01*
X14534650Y-2693761D01*
X14435310Y-2663626D01*
X14332000Y-2653451D01*
X11822000Y-2653451D01*
X11718690Y-2663626D01*
X11619350Y-2693761D01*
X11527798Y-2742696D01*
X11447552Y-2808552D01*
X11387685Y-2881500D01*
X10448315Y-2881500D01*
X10388448Y-2808552D01*
X10308202Y-2742696D01*
X10216650Y-2693761D01*
X10117310Y-2663626D01*
X10014000Y-2653451D01*
X7504000Y-2653451D01*
X7400690Y-2663626D01*
X7301350Y-2693761D01*
X7209798Y-2742696D01*
X7129552Y-2808552D01*
X7063696Y-2888798D01*
X7014761Y-2980350D01*
X6984626Y-3079690D01*
X6974451Y-3183000D01*
X127000Y-3183000D01*
X127000Y-127000D01*
X39878000Y-127000D01*
X39878000Y-56388000D01*
G37*
X39878000Y-56388000D02*
X127000Y-56388000D01*
X127000Y-40902000D01*
X1263451Y-40902000D01*
X1263451Y-41902000D01*
X1273626Y-42005310D01*
X1303761Y-42104650D01*
X1352696Y-42196202D01*
X1418552Y-42276448D01*
X1498798Y-42342304D01*
X1590350Y-42391239D01*
X1689690Y-42421374D01*
X1793000Y-42431549D01*
X4303000Y-42431549D01*
X4406310Y-42421374D01*
X4505650Y-42391239D01*
X4597202Y-42342304D01*
X4677448Y-42276448D01*
X4716387Y-42229000D01*
X6901446Y-42229000D01*
X6217996Y-42912451D01*
X5103000Y-42912451D01*
X4999690Y-42922626D01*
X4900350Y-42952761D01*
X4808798Y-43001696D01*
X4728552Y-43067552D01*
X4662696Y-43147798D01*
X4613761Y-43239350D01*
X4583626Y-43338690D01*
X4573451Y-43442000D01*
X4573451Y-44442000D01*
X4583626Y-44545310D01*
X4613761Y-44644650D01*
X4662696Y-44736202D01*
X4728552Y-44816448D01*
X4808798Y-44882304D01*
X4900350Y-44931239D01*
X4999690Y-44961374D01*
X5103000Y-44971549D01*
X7613000Y-44971549D01*
X7716310Y-44961374D01*
X7815650Y-44931239D01*
X7907202Y-44882304D01*
X7987448Y-44816448D01*
X8053304Y-44736202D01*
X8102239Y-44644650D01*
X8132374Y-44545310D01*
X8133783Y-44531000D01*
X16696451Y-44531000D01*
X16696451Y-45131000D01*
X16706626Y-45234310D01*
X16736761Y-45333650D01*
X16785696Y-45425202D01*
X16851552Y-45505448D01*
X16931798Y-45571304D01*
X17023350Y-45620239D01*
X17122690Y-45650374D01*
X17226000Y-45660549D01*
X17820996Y-45660549D01*
X18732541Y-46572095D01*
X18732541Y-46981110D01*
X18742716Y-47084420D01*
X18772851Y-47183760D01*
X18821786Y-47275312D01*
X18826126Y-47280601D01*
X18813491Y-47304240D01*
X18783356Y-47403580D01*
X18773181Y-47506890D01*
X18773181Y-48505110D01*
X18783356Y-48608420D01*
X18813491Y-48707760D01*
X18862426Y-48799312D01*
X18894277Y-48838123D01*
X18884696Y-48849798D01*
X18835761Y-48941350D01*
X18805626Y-49040690D01*
X18795451Y-49144000D01*
X18795451Y-49794000D01*
X18805626Y-49897310D01*
X18835761Y-49996650D01*
X18884696Y-50088202D01*
X18950552Y-50168448D01*
X19030798Y-50234304D01*
X19122350Y-50283239D01*
X19221690Y-50313374D01*
X19325000Y-50323549D01*
X20385000Y-50323549D01*
X20488310Y-50313374D01*
X20587650Y-50283239D01*
X20679202Y-50234304D01*
X20759448Y-50168448D01*
X20825304Y-50088202D01*
X20874239Y-49996650D01*
X20904374Y-49897310D01*
X20914549Y-49794000D01*
X20914549Y-49144000D01*
X20904374Y-49040690D01*
X20874239Y-48941350D01*
X20825304Y-48849798D01*
X20813363Y-48835247D01*
X20842854Y-48799312D01*
X20891789Y-48707760D01*
X20921924Y-48608420D01*
X20932099Y-48505110D01*
X20932099Y-47506890D01*
X20921924Y-47403580D01*
X20891789Y-47304240D01*
X20842854Y-47212688D01*
X20838514Y-47207399D01*
X20851149Y-47183760D01*
X20881284Y-47084420D01*
X20891459Y-46981110D01*
X20891459Y-45982890D01*
X20881284Y-45879580D01*
X20851149Y-45780240D01*
X20802214Y-45688688D01*
X20736358Y-45608442D01*
X20656112Y-45542586D01*
X20564560Y-45493651D01*
X20465220Y-45463516D01*
X20361910Y-45453341D01*
X19952895Y-45453341D01*
X19305549Y-44805995D01*
X19305549Y-44531000D01*
X19295374Y-44427690D01*
X19265239Y-44328350D01*
X19216304Y-44236798D01*
X19150448Y-44156552D01*
X19070202Y-44090696D01*
X18978650Y-44041761D01*
X18879310Y-44011626D01*
X18776000Y-44001451D01*
X18175733Y-44001451D01*
X18161000Y-44000000D01*
X18146267Y-44001451D01*
X17226000Y-44001451D01*
X17122690Y-44011626D01*
X17023350Y-44041761D01*
X16931798Y-44090696D01*
X16851552Y-44156552D01*
X16785696Y-44236798D01*
X16736761Y-44328350D01*
X16706626Y-44427690D01*
X16696451Y-44531000D01*
X8133783Y-44531000D01*
X8142549Y-44442000D01*
X8142549Y-43442000D01*
X8132374Y-43338690D01*
X8132022Y-43337531D01*
X8290594Y-43178960D01*
X9029683Y-43178960D01*
X9151179Y-43166994D01*
X9187985Y-43155829D01*
X9588499Y-43155829D01*
X9691809Y-43145654D01*
X9791149Y-43115519D01*
X9882701Y-43066584D01*
X9962947Y-43000728D01*
X10028803Y-42920482D01*
X10077738Y-42828930D01*
X10107873Y-42729590D01*
X10118048Y-42626280D01*
X10118048Y-42077640D01*
X10455950Y-42077640D01*
X10455950Y-42626280D01*
X10466125Y-42729590D01*
X10496260Y-42828930D01*
X10545195Y-42920482D01*
X10611051Y-43000728D01*
X10691297Y-43066584D01*
X10782849Y-43115519D01*
X10882189Y-43145654D01*
X10985499Y-43155829D01*
X11386013Y-43155829D01*
X11422819Y-43166994D01*
X11544315Y-43178960D01*
X12287584Y-43178960D01*
X12307623Y-43203377D01*
X12421017Y-43296438D01*
X12550388Y-43365588D01*
X12690764Y-43408171D01*
X12836750Y-43422549D01*
X13274250Y-43422549D01*
X13420236Y-43408171D01*
X13560612Y-43365588D01*
X13689983Y-43296438D01*
X13803377Y-43203377D01*
X13843000Y-43155097D01*
X13882623Y-43203377D01*
X13996017Y-43296438D01*
X14125388Y-43365588D01*
X14265764Y-43408171D01*
X14411750Y-43422549D01*
X14849250Y-43422549D01*
X14995236Y-43408171D01*
X15135612Y-43365588D01*
X15264983Y-43296438D01*
X15296588Y-43270500D01*
X15440034Y-43270500D01*
X15457017Y-43284438D01*
X15586388Y-43353588D01*
X15726764Y-43396171D01*
X15872750Y-43410549D01*
X16385250Y-43410549D01*
X16531236Y-43396171D01*
X16671612Y-43353588D01*
X16800983Y-43284438D01*
X16914377Y-43191377D01*
X16974597Y-43118000D01*
X17200119Y-43118000D01*
X17226000Y-43120549D01*
X18776000Y-43120549D01*
X18879310Y-43110374D01*
X18978650Y-43080239D01*
X19070202Y-43031304D01*
X19150448Y-42965448D01*
X19216304Y-42885202D01*
X19265239Y-42793650D01*
X19295374Y-42694310D01*
X19305549Y-42591000D01*
X19305549Y-41991000D01*
X19295374Y-41887690D01*
X19265239Y-41788350D01*
X19216304Y-41696798D01*
X19182822Y-41656000D01*
X19216304Y-41615202D01*
X19265239Y-41523650D01*
X19295374Y-41424310D01*
X19305549Y-41321000D01*
X19305549Y-40721000D01*
X19295374Y-40617690D01*
X19265239Y-40518350D01*
X19216304Y-40426798D01*
X19150448Y-40346552D01*
X19070202Y-40280696D01*
X18978650Y-40231761D01*
X18879310Y-40201626D01*
X18828000Y-40196572D01*
X18828000Y-37285553D01*
X19729058Y-36384497D01*
X19760606Y-36358606D01*
X19786496Y-36327059D01*
X19786502Y-36327053D01*
X19863952Y-36232681D01*
X19940744Y-36089011D01*
X19940745Y-36089010D01*
X19988034Y-35933120D01*
X20000000Y-35811624D01*
X20000000Y-35811612D01*
X20004000Y-35771001D01*
X20000000Y-35730390D01*
X20000000Y-35700549D01*
X20428000Y-35700549D01*
X20531310Y-35690374D01*
X20630650Y-35660239D01*
X20722202Y-35611304D01*
X20802448Y-35545448D01*
X20868304Y-35465202D01*
X20917239Y-35373650D01*
X20947374Y-35274310D01*
X20957549Y-35171000D01*
X20957549Y-34171000D01*
X20947374Y-34067690D01*
X20917239Y-33968350D01*
X20868304Y-33876798D01*
X20802448Y-33796552D01*
X20722202Y-33730696D01*
X20630650Y-33681761D01*
X20531310Y-33651626D01*
X20428000Y-33641451D01*
X17918000Y-33641451D01*
X17814690Y-33651626D01*
X17715350Y-33681761D01*
X17623798Y-33730696D01*
X17543552Y-33796552D01*
X17477696Y-33876798D01*
X17428761Y-33968350D01*
X17398626Y-34067690D01*
X17388451Y-34171000D01*
X17388451Y-35171000D01*
X17398626Y-35274310D01*
X17428761Y-35373650D01*
X17477696Y-35465202D01*
X17543552Y-35545448D01*
X17623798Y-35611304D01*
X17715350Y-35660239D01*
X17814690Y-35690374D01*
X17918000Y-35700549D01*
X18073897Y-35700549D01*
X17444952Y-36329495D01*
X17413394Y-36355394D01*
X17387498Y-36386949D01*
X17310048Y-36481321D01*
X17295601Y-36508350D01*
X17233255Y-36624991D01*
X17185966Y-36780881D01*
X17174000Y-36902377D01*
X17174000Y-36902386D01*
X17170000Y-36943000D01*
X17174000Y-36983614D01*
X17174001Y-40080367D01*
X17174000Y-40080377D01*
X17174000Y-40194000D01*
X16974597Y-40194000D01*
X16914377Y-40120623D01*
X16800983Y-40027562D01*
X16671612Y-39958412D01*
X16531236Y-39915829D01*
X16385250Y-39901451D01*
X15872750Y-39901451D01*
X15726764Y-39915829D01*
X15586388Y-39958412D01*
X15457017Y-40027562D01*
X15343623Y-40120623D01*
X15250562Y-40234017D01*
X15181412Y-40363388D01*
X15138829Y-40503764D01*
X15124451Y-40649750D01*
X15124451Y-41087250D01*
X15138829Y-41233236D01*
X15181412Y-41373612D01*
X15250562Y-41502983D01*
X15312763Y-41578775D01*
X15264983Y-41539562D01*
X15135612Y-41470412D01*
X14995236Y-41427829D01*
X14849250Y-41413451D01*
X14411750Y-41413451D01*
X14265764Y-41427829D01*
X14125388Y-41470412D01*
X13996017Y-41539562D01*
X13882623Y-41632623D01*
X13843000Y-41680903D01*
X13803377Y-41632623D01*
X13689983Y-41539562D01*
X13560612Y-41470412D01*
X13420236Y-41427829D01*
X13274250Y-41413451D01*
X12836750Y-41413451D01*
X12690764Y-41427829D01*
X12550388Y-41470412D01*
X12448336Y-41524960D01*
X11544315Y-41524960D01*
X11422819Y-41536926D01*
X11386013Y-41548091D01*
X10985499Y-41548091D01*
X10882189Y-41558266D01*
X10782849Y-41588401D01*
X10691297Y-41637336D01*
X10611051Y-41703192D01*
X10545195Y-41783438D01*
X10496260Y-41874990D01*
X10466125Y-41974330D01*
X10455950Y-42077640D01*
X10118048Y-42077640D01*
X10107873Y-41974330D01*
X10078342Y-41876980D01*
X10107873Y-41779630D01*
X10118048Y-41676320D01*
X10118048Y-41127680D01*
X10107873Y-41024370D01*
X10078342Y-40927020D01*
X10107873Y-40829670D01*
X10118048Y-40726360D01*
X10118048Y-40177720D01*
X10455950Y-40177720D01*
X10455950Y-40726360D01*
X10466125Y-40829670D01*
X10496260Y-40929010D01*
X10545195Y-41020562D01*
X10611051Y-41100808D01*
X10691297Y-41166664D01*
X10782849Y-41215599D01*
X10882189Y-41245734D01*
X10985499Y-41255909D01*
X11386016Y-41255909D01*
X11422819Y-41267073D01*
X11584939Y-41283040D01*
X11747059Y-41267073D01*
X11783862Y-41255909D01*
X12184379Y-41255909D01*
X12287689Y-41245734D01*
X12387029Y-41215599D01*
X12478581Y-41166664D01*
X12558827Y-41100808D01*
X12624683Y-41020562D01*
X12673618Y-40929010D01*
X12703753Y-40829670D01*
X12713928Y-40726360D01*
X12713928Y-40492605D01*
X12929794Y-40276739D01*
X13834110Y-40276739D01*
X13937420Y-40266564D01*
X14036760Y-40236429D01*
X14128312Y-40187494D01*
X14208558Y-40121638D01*
X14274414Y-40041392D01*
X14323349Y-39949840D01*
X14353484Y-39850500D01*
X14363659Y-39747190D01*
X14363659Y-38647370D01*
X14353484Y-38544060D01*
X14323349Y-38444720D01*
X14274414Y-38353168D01*
X14208558Y-38272922D01*
X14162000Y-38234713D01*
X14162000Y-35013553D01*
X17741554Y-31434000D01*
X23152447Y-31434000D01*
X26152502Y-34434057D01*
X26152501Y-39122499D01*
X26145785Y-39122499D01*
X26134349Y-39084800D01*
X26085414Y-38993248D01*
X26019558Y-38913002D01*
X25939312Y-38847146D01*
X25847760Y-38798211D01*
X25748420Y-38768076D01*
X25645110Y-38757901D01*
X24646890Y-38757901D01*
X24543580Y-38768076D01*
X24444240Y-38798211D01*
X24352688Y-38847146D01*
X24272442Y-38913002D01*
X24206586Y-38993248D01*
X24157651Y-39084800D01*
X24146215Y-39122499D01*
X23613114Y-39122499D01*
X23572500Y-39118499D01*
X23531886Y-39122499D01*
X23405785Y-39122499D01*
X23284289Y-39134465D01*
X23128399Y-39181754D01*
X22984730Y-39258547D01*
X22952999Y-39284588D01*
X22952999Y-39010555D01*
X23039052Y-38924501D01*
X23070606Y-38898606D01*
X23112839Y-38847146D01*
X23173952Y-38772679D01*
X23212864Y-38699880D01*
X23250745Y-38629010D01*
X23298034Y-38473120D01*
X23310000Y-38351624D01*
X23310000Y-38351614D01*
X23314000Y-38311000D01*
X23310000Y-38270386D01*
X23310000Y-38240549D01*
X23738000Y-38240549D01*
X23841310Y-38230374D01*
X23940650Y-38200239D01*
X24032202Y-38151304D01*
X24112448Y-38085448D01*
X24178304Y-38005202D01*
X24227239Y-37913650D01*
X24257374Y-37814310D01*
X24267549Y-37711000D01*
X24267549Y-36711000D01*
X24257374Y-36607690D01*
X24227239Y-36508350D01*
X24178304Y-36416798D01*
X24112448Y-36336552D01*
X24032202Y-36270696D01*
X23940650Y-36221761D01*
X23841310Y-36191626D01*
X23738000Y-36181451D01*
X21228000Y-36181451D01*
X21124690Y-36191626D01*
X21025350Y-36221761D01*
X20933798Y-36270696D01*
X20853552Y-36336552D01*
X20787696Y-36416798D01*
X20738761Y-36508350D01*
X20708626Y-36607690D01*
X20698451Y-36711000D01*
X20698451Y-37711000D01*
X20708626Y-37814310D01*
X20738761Y-37913650D01*
X20787696Y-38005202D01*
X20853552Y-38085448D01*
X20933798Y-38151304D01*
X21025350Y-38200239D01*
X21124690Y-38230374D01*
X21228000Y-38240549D01*
X21416752Y-38240549D01*
X21412504Y-38248498D01*
X21358254Y-38349992D01*
X21310965Y-38505882D01*
X21298999Y-38627378D01*
X21298999Y-38627387D01*
X21294999Y-38668001D01*
X21298999Y-38708615D01*
X21299000Y-41680377D01*
X21294999Y-41721001D01*
X21310966Y-41883121D01*
X21358255Y-42039011D01*
X21435047Y-42182680D01*
X21512497Y-42277052D01*
X21538394Y-42308607D01*
X21569946Y-42334501D01*
X22082501Y-42847058D01*
X22108392Y-42878606D01*
X22139939Y-42904496D01*
X22139945Y-42904502D01*
X22197833Y-42952009D01*
X22185696Y-42966798D01*
X22136761Y-43058350D01*
X22106626Y-43157690D01*
X22096451Y-43261000D01*
X22096451Y-43861000D01*
X22106626Y-43964310D01*
X22136761Y-44063650D01*
X22185696Y-44155202D01*
X22251552Y-44235448D01*
X22331798Y-44301304D01*
X22423350Y-44350239D01*
X22522690Y-44380374D01*
X22626000Y-44390549D01*
X24176000Y-44390549D01*
X24201881Y-44388000D01*
X24425962Y-44388000D01*
X24474017Y-44427438D01*
X24603388Y-44496588D01*
X24743764Y-44539171D01*
X24889750Y-44553549D01*
X25402250Y-44553549D01*
X25548236Y-44539171D01*
X25688612Y-44496588D01*
X25817983Y-44427438D01*
X25834966Y-44413500D01*
X25952912Y-44413500D01*
X25984517Y-44439438D01*
X26113888Y-44508588D01*
X26254264Y-44551171D01*
X26400250Y-44565549D01*
X26837750Y-44565549D01*
X26983736Y-44551171D01*
X27124112Y-44508588D01*
X27253483Y-44439438D01*
X27366877Y-44346377D01*
X27406500Y-44298097D01*
X27446123Y-44346377D01*
X27559517Y-44439438D01*
X27688888Y-44508588D01*
X27829264Y-44551171D01*
X27975250Y-44565549D01*
X28412750Y-44565549D01*
X28558736Y-44551171D01*
X28699112Y-44508588D01*
X28828483Y-44439438D01*
X28891160Y-44388000D01*
X28995340Y-44388000D01*
X29058017Y-44439438D01*
X29187388Y-44508588D01*
X29327764Y-44551171D01*
X29473750Y-44565549D01*
X29911250Y-44565549D01*
X30057236Y-44551171D01*
X30197612Y-44508588D01*
X30326983Y-44439438D01*
X30440377Y-44346377D01*
X30480000Y-44298097D01*
X30519623Y-44346377D01*
X30633017Y-44439438D01*
X30762388Y-44508588D01*
X30902764Y-44551171D01*
X31048750Y-44565549D01*
X31486250Y-44565549D01*
X31632236Y-44551171D01*
X31772612Y-44508588D01*
X31901983Y-44439438D01*
X32015377Y-44346377D01*
X32108438Y-44232983D01*
X32177588Y-44103612D01*
X32220171Y-43963236D01*
X32234549Y-43817250D01*
X32234549Y-43304750D01*
X32220171Y-43158764D01*
X32177588Y-43018388D01*
X32135040Y-42938786D01*
X32135040Y-41008316D01*
X32123074Y-40886820D01*
X32111909Y-40850014D01*
X32111909Y-40776499D01*
X32380960Y-40776499D01*
X32380960Y-41008326D01*
X32376960Y-41048940D01*
X32380960Y-41089554D01*
X32380960Y-41089563D01*
X32392926Y-41211059D01*
X32404091Y-41247865D01*
X32404091Y-41648380D01*
X32414266Y-41751690D01*
X32444401Y-41851030D01*
X32493336Y-41942582D01*
X32559192Y-42022828D01*
X32639438Y-42088684D01*
X32730990Y-42137619D01*
X32830330Y-42167754D01*
X32933640Y-42177929D01*
X33167396Y-42177929D01*
X33588209Y-42598743D01*
X33553786Y-42640688D01*
X33504851Y-42732240D01*
X33474716Y-42831580D01*
X33464541Y-42934890D01*
X33464541Y-43933110D01*
X33474716Y-44036420D01*
X33504851Y-44135760D01*
X33553786Y-44227312D01*
X33610787Y-44296769D01*
X26440557Y-51467000D01*
X25004976Y-51467000D01*
X25021484Y-51412580D01*
X25031659Y-51309270D01*
X25031659Y-50209450D01*
X25021484Y-50106140D01*
X24991349Y-50006800D01*
X24942414Y-49915248D01*
X24938928Y-49911000D01*
X24942414Y-49906752D01*
X24991349Y-49815200D01*
X25021484Y-49715860D01*
X25031659Y-49612550D01*
X25031659Y-48512730D01*
X25021484Y-48409420D01*
X24991349Y-48310080D01*
X24942414Y-48218528D01*
X24876558Y-48138282D01*
X24796312Y-48072426D01*
X24704760Y-48023491D01*
X24605420Y-47993356D01*
X24502110Y-47983181D01*
X23503890Y-47983181D01*
X23400580Y-47993356D01*
X23301240Y-48023491D01*
X23209688Y-48072426D01*
X23129442Y-48138282D01*
X23063586Y-48218528D01*
X23014651Y-48310080D01*
X22984516Y-48409420D01*
X22974341Y-48512730D01*
X22974341Y-48642000D01*
X22745583Y-48642000D01*
X22688310Y-48624626D01*
X22585000Y-48614451D01*
X21525000Y-48614451D01*
X21421690Y-48624626D01*
X21322350Y-48654761D01*
X21230798Y-48703696D01*
X21150552Y-48769552D01*
X21084696Y-48849798D01*
X21035761Y-48941350D01*
X21005626Y-49040690D01*
X20995451Y-49144000D01*
X20995451Y-49794000D01*
X21005626Y-49897310D01*
X21019790Y-49944000D01*
X21005626Y-49990690D01*
X20995451Y-50094000D01*
X20995451Y-50542000D01*
X20545583Y-50542000D01*
X20488310Y-50524626D01*
X20385000Y-50514451D01*
X19325000Y-50514451D01*
X19221690Y-50524626D01*
X19122350Y-50554761D01*
X19030798Y-50603696D01*
X18950552Y-50669552D01*
X18884696Y-50749798D01*
X18835761Y-50841350D01*
X18816102Y-50906154D01*
X18735760Y-50863211D01*
X18636420Y-50833076D01*
X18533110Y-50822901D01*
X17534890Y-50822901D01*
X17431580Y-50833076D01*
X17332240Y-50863211D01*
X17240688Y-50912146D01*
X17160442Y-50978002D01*
X17094586Y-51058248D01*
X17045651Y-51149800D01*
X17015516Y-51249140D01*
X17005341Y-51352450D01*
X17005341Y-51761465D01*
X16757806Y-52009000D01*
X14364549Y-52009000D01*
X14364549Y-51581000D01*
X14354374Y-51477690D01*
X14324239Y-51378350D01*
X14275304Y-51286798D01*
X14209448Y-51206552D01*
X14129202Y-51140696D01*
X14037650Y-51091761D01*
X13938310Y-51061626D01*
X13835000Y-51051451D01*
X12835000Y-51051451D01*
X12731690Y-51061626D01*
X12632350Y-51091761D01*
X12540798Y-51140696D01*
X12460552Y-51206552D01*
X12394696Y-51286798D01*
X12345761Y-51378350D01*
X12315626Y-51477690D01*
X12305451Y-51581000D01*
X12305451Y-54091000D01*
X12315626Y-54194310D01*
X12345761Y-54293650D01*
X12394696Y-54385202D01*
X12460552Y-54465448D01*
X12540798Y-54531304D01*
X12632350Y-54580239D01*
X12731690Y-54610374D01*
X12835000Y-54620549D01*
X13835000Y-54620549D01*
X13938310Y-54610374D01*
X14037650Y-54580239D01*
X14129202Y-54531304D01*
X14209448Y-54465448D01*
X14275304Y-54385202D01*
X14324239Y-54293650D01*
X14354374Y-54194310D01*
X14364549Y-54091000D01*
X14364549Y-53663000D01*
X17059746Y-53663000D01*
X17100360Y-53667000D01*
X17140974Y-53663000D01*
X17140984Y-53663000D01*
X17262480Y-53651034D01*
X17418370Y-53603745D01*
X17562039Y-53526952D01*
X17687966Y-53423606D01*
X17713865Y-53392048D01*
X18124095Y-52981819D01*
X18533110Y-52981819D01*
X18636420Y-52971644D01*
X18735760Y-52941509D01*
X18827312Y-52892574D01*
X18907558Y-52826718D01*
X18973414Y-52746472D01*
X18982560Y-52729360D01*
X19281026Y-52729360D01*
X19321640Y-52733360D01*
X19362254Y-52729360D01*
X19362264Y-52729360D01*
X19483760Y-52717394D01*
X19639650Y-52670105D01*
X19783319Y-52593312D01*
X19909246Y-52489966D01*
X19935145Y-52458408D01*
X20170004Y-52223549D01*
X20385000Y-52223549D01*
X20488310Y-52213374D01*
X20545583Y-52196000D01*
X21364417Y-52196000D01*
X21421690Y-52213374D01*
X21525000Y-52223549D01*
X21944995Y-52223549D01*
X22571503Y-52850058D01*
X22597394Y-52881606D01*
X22628941Y-52907496D01*
X22628948Y-52907503D01*
X22723320Y-52984952D01*
X22866989Y-53061745D01*
X22914278Y-53076090D01*
X23022880Y-53109034D01*
X23144376Y-53121000D01*
X23144386Y-53121000D01*
X23185000Y-53125000D01*
X23225614Y-53121000D01*
X26742496Y-53121000D01*
X26783110Y-53125000D01*
X26823724Y-53121000D01*
X26823734Y-53121000D01*
X26945230Y-53109034D01*
X27101120Y-53061745D01*
X27244789Y-52984952D01*
X27370716Y-52881606D01*
X27396615Y-52850048D01*
X35100053Y-45146611D01*
X35131606Y-45120716D01*
X35157502Y-45089162D01*
X35234952Y-44994790D01*
X35275998Y-44917997D01*
X35311745Y-44851120D01*
X35359034Y-44695230D01*
X35371000Y-44573734D01*
X35371000Y-44573724D01*
X35375000Y-44533110D01*
X35371000Y-44492496D01*
X35371000Y-44382560D01*
X35388112Y-44373414D01*
X35468358Y-44307558D01*
X35534214Y-44227312D01*
X35583149Y-44135760D01*
X35613284Y-44036420D01*
X35623459Y-43933110D01*
X35623459Y-42934890D01*
X35613284Y-42831580D01*
X35583149Y-42732240D01*
X35534214Y-42640688D01*
X35468358Y-42560442D01*
X35388112Y-42494586D01*
X35371000Y-42485440D01*
X35371000Y-42425594D01*
X35375000Y-42384980D01*
X35371000Y-42344366D01*
X35371000Y-42344356D01*
X35359034Y-42222860D01*
X35311745Y-42066970D01*
X35262228Y-41974330D01*
X35234952Y-41923300D01*
X35157502Y-41828928D01*
X35157501Y-41828927D01*
X35131606Y-41797374D01*
X35100054Y-41771480D01*
X34034960Y-40706387D01*
X34034960Y-40265748D01*
X34038960Y-40225137D01*
X34034960Y-40184526D01*
X34034960Y-40184514D01*
X34022994Y-40063018D01*
X33975705Y-39907128D01*
X33898912Y-39763459D01*
X33795566Y-39637532D01*
X33764012Y-39611636D01*
X33690915Y-39538540D01*
X33776482Y-39492804D01*
X33856728Y-39426948D01*
X33920710Y-39348985D01*
X33923552Y-39352448D01*
X34003798Y-39418304D01*
X34095350Y-39467239D01*
X34194690Y-39497374D01*
X34298000Y-39507549D01*
X35298000Y-39507549D01*
X35401310Y-39497374D01*
X35500650Y-39467239D01*
X35592202Y-39418304D01*
X35672448Y-39352448D01*
X35738304Y-39272202D01*
X35787239Y-39180650D01*
X35817374Y-39081310D01*
X35827549Y-38978000D01*
X35827549Y-36468000D01*
X35817374Y-36364690D01*
X35787239Y-36265350D01*
X35738304Y-36173798D01*
X35672448Y-36093552D01*
X35592202Y-36027696D01*
X35500650Y-35978761D01*
X35401310Y-35948626D01*
X35298000Y-35938451D01*
X34298000Y-35938451D01*
X34194690Y-35948626D01*
X34095350Y-35978761D01*
X34003798Y-36027696D01*
X33923552Y-36093552D01*
X33857696Y-36173798D01*
X33808761Y-36265350D01*
X33778626Y-36364690D01*
X33768451Y-36468000D01*
X33768451Y-37409023D01*
X33684930Y-37364381D01*
X33585590Y-37334246D01*
X33482280Y-37324071D01*
X33085000Y-37324071D01*
X33085000Y-36081387D01*
X33132448Y-36042448D01*
X33198304Y-35962202D01*
X33247239Y-35870650D01*
X33277374Y-35771310D01*
X33287549Y-35668000D01*
X33287549Y-33158000D01*
X33277374Y-33054690D01*
X33247239Y-32955350D01*
X33198304Y-32863798D01*
X33132448Y-32783552D01*
X33052202Y-32717696D01*
X32960650Y-32668761D01*
X32861310Y-32638626D01*
X32758000Y-32628451D01*
X31758000Y-32628451D01*
X31654690Y-32638626D01*
X31555350Y-32668761D01*
X31463798Y-32717696D01*
X31383552Y-32783552D01*
X31317696Y-32863798D01*
X31268761Y-32955350D01*
X31238626Y-33054690D01*
X31228451Y-33158000D01*
X31228451Y-35668000D01*
X31238626Y-35771310D01*
X31268761Y-35870650D01*
X31317696Y-35962202D01*
X31383552Y-36042448D01*
X31431001Y-36081388D01*
X31431000Y-37324071D01*
X31033720Y-37324071D01*
X30930410Y-37334246D01*
X30831070Y-37364381D01*
X30747549Y-37409023D01*
X30747549Y-36468000D01*
X30737374Y-36364690D01*
X30707239Y-36265350D01*
X30658304Y-36173798D01*
X30592448Y-36093552D01*
X30512202Y-36027696D01*
X30420650Y-35978761D01*
X30321310Y-35948626D01*
X30218000Y-35938451D01*
X29218000Y-35938451D01*
X29114690Y-35948626D01*
X29015350Y-35978761D01*
X28923798Y-36027696D01*
X28843552Y-36093552D01*
X28777696Y-36173798D01*
X28728761Y-36265350D01*
X28698626Y-36364690D01*
X28688451Y-36468000D01*
X28688451Y-38978000D01*
X28698626Y-39081310D01*
X28711121Y-39122499D01*
X27806501Y-39122499D01*
X27806501Y-34132115D01*
X27810501Y-34091501D01*
X27806501Y-34050887D01*
X27806501Y-34050877D01*
X27794535Y-33929381D01*
X27747246Y-33773491D01*
X27747246Y-33773490D01*
X27670453Y-33629821D01*
X27593004Y-33535449D01*
X27592997Y-33535442D01*
X27567107Y-33503895D01*
X27535560Y-33478005D01*
X24108505Y-30050952D01*
X24082606Y-30019394D01*
X23956679Y-29916048D01*
X23813010Y-29839255D01*
X23657120Y-29791966D01*
X23535624Y-29780000D01*
X23535614Y-29780000D01*
X23495000Y-29776000D01*
X23454386Y-29780000D01*
X17439614Y-29780000D01*
X17399000Y-29776000D01*
X17358386Y-29780000D01*
X17358376Y-29780000D01*
X17236880Y-29791966D01*
X17080990Y-29839255D01*
X17014113Y-29875002D01*
X16937320Y-29916048D01*
X16842948Y-29993498D01*
X16811394Y-30019394D01*
X16785499Y-30050947D01*
X12778952Y-34057495D01*
X12747394Y-34083394D01*
X12721498Y-34114949D01*
X12644048Y-34209321D01*
X12603002Y-34286114D01*
X12567255Y-34352991D01*
X12519966Y-34508881D01*
X12508000Y-34630377D01*
X12508000Y-34630386D01*
X12504000Y-34671000D01*
X12508000Y-34711614D01*
X12508001Y-38234712D01*
X12461442Y-38272922D01*
X12395586Y-38353168D01*
X12346651Y-38444720D01*
X12316516Y-38544060D01*
X12315151Y-38557923D01*
X12283647Y-38583777D01*
X12283640Y-38583784D01*
X12252093Y-38609674D01*
X12226202Y-38641222D01*
X11219255Y-39648171D01*
X10985499Y-39648171D01*
X10882189Y-39658346D01*
X10782849Y-39688481D01*
X10691297Y-39737416D01*
X10611051Y-39803272D01*
X10545195Y-39883518D01*
X10496260Y-39975070D01*
X10466125Y-40074410D01*
X10455950Y-40177720D01*
X10118048Y-40177720D01*
X10107873Y-40074410D01*
X10077738Y-39975070D01*
X10028803Y-39883518D01*
X9962947Y-39803272D01*
X9882701Y-39737416D01*
X9791149Y-39688481D01*
X9691809Y-39658346D01*
X9588499Y-39648171D01*
X9187985Y-39648171D01*
X9151179Y-39637006D01*
X9029683Y-39625040D01*
X8290594Y-39625040D01*
X8132022Y-39466469D01*
X8132374Y-39465310D01*
X8142549Y-39362000D01*
X8142549Y-38362000D01*
X8132374Y-38258690D01*
X8102239Y-38159350D01*
X8053304Y-38067798D01*
X7987448Y-37987552D01*
X7907202Y-37921696D01*
X7815650Y-37872761D01*
X7716310Y-37842626D01*
X7613000Y-37832451D01*
X5103000Y-37832451D01*
X4999690Y-37842626D01*
X4900350Y-37872761D01*
X4808798Y-37921696D01*
X4728552Y-37987552D01*
X4662696Y-38067798D01*
X4613761Y-38159350D01*
X4583626Y-38258690D01*
X4573451Y-38362000D01*
X4573451Y-39362000D01*
X4583626Y-39465310D01*
X4613761Y-39564650D01*
X4662696Y-39656202D01*
X4728552Y-39736448D01*
X4808798Y-39802304D01*
X4900350Y-39851239D01*
X4999690Y-39881374D01*
X5103000Y-39891549D01*
X6217996Y-39891549D01*
X6901446Y-40575000D01*
X4716387Y-40575000D01*
X4677448Y-40527552D01*
X4597202Y-40461696D01*
X4505650Y-40412761D01*
X4406310Y-40382626D01*
X4303000Y-40372451D01*
X1793000Y-40372451D01*
X1689690Y-40382626D01*
X1590350Y-40412761D01*
X1498798Y-40461696D01*
X1418552Y-40527552D01*
X1352696Y-40607798D01*
X1303761Y-40699350D01*
X1273626Y-40798690D01*
X1263451Y-40902000D01*
X127000Y-40902000D01*
X127000Y-20190750D01*
X4595451Y-20190750D01*
X4595451Y-20703250D01*
X4609829Y-20849236D01*
X4652412Y-20989612D01*
X4721562Y-21118983D01*
X4735500Y-21135967D01*
X4735501Y-22298033D01*
X4721562Y-22315017D01*
X4652412Y-22444388D01*
X4609829Y-22584764D01*
X4595451Y-22730750D01*
X4595451Y-23243250D01*
X4609829Y-23389236D01*
X4652412Y-23529612D01*
X4721562Y-23658983D01*
X4779432Y-23729497D01*
X4794755Y-23780010D01*
X4871548Y-23923679D01*
X4974895Y-24049606D01*
X5006448Y-24075501D01*
X6013996Y-25083050D01*
X6039893Y-25114605D01*
X6071446Y-25140500D01*
X6071447Y-25140501D01*
X6165819Y-25217951D01*
X6174491Y-25222586D01*
X6309489Y-25294744D01*
X6465379Y-25342033D01*
X6586875Y-25353999D01*
X6586884Y-25353999D01*
X6627498Y-25357999D01*
X6668112Y-25353999D01*
X7482451Y-25353999D01*
X7482451Y-26027000D01*
X7492626Y-26130310D01*
X7522761Y-26229650D01*
X7571696Y-26321202D01*
X7637552Y-26401448D01*
X7717798Y-26467304D01*
X7809350Y-26516239D01*
X7908690Y-26546374D01*
X8012000Y-26556549D01*
X8440001Y-26556549D01*
X8440001Y-26586377D01*
X8436000Y-26627000D01*
X8451967Y-26789120D01*
X8499256Y-26945010D01*
X8576048Y-27088679D01*
X8652674Y-27182047D01*
X8679395Y-27214606D01*
X8710948Y-27240501D01*
X9987620Y-28517174D01*
X10013515Y-28548727D01*
X10045068Y-28574622D01*
X10045069Y-28574623D01*
X10139441Y-28652073D01*
X10216234Y-28693119D01*
X10283111Y-28728866D01*
X10439001Y-28776155D01*
X10560497Y-28788121D01*
X10560506Y-28788121D01*
X10601120Y-28792121D01*
X10641734Y-28788121D01*
X23106265Y-28788121D01*
X23146879Y-28792121D01*
X23187493Y-28788121D01*
X23187503Y-28788121D01*
X23308999Y-28776155D01*
X23464889Y-28728866D01*
X23608558Y-28652073D01*
X23734485Y-28548727D01*
X23760384Y-28517169D01*
X29469060Y-22808495D01*
X29500606Y-22782606D01*
X29526496Y-22751059D01*
X29526503Y-22751052D01*
X29603952Y-22656680D01*
X29680745Y-22513011D01*
X29715210Y-22399394D01*
X29728034Y-22357120D01*
X29740000Y-22235624D01*
X29740000Y-22235614D01*
X29744000Y-22195000D01*
X29740000Y-22154386D01*
X29740000Y-22033008D01*
X29817448Y-21969448D01*
X29883304Y-21889202D01*
X29932239Y-21797650D01*
X29962374Y-21698310D01*
X29972549Y-21595000D01*
X29972549Y-20945000D01*
X29962374Y-20841690D01*
X29932239Y-20742350D01*
X29883304Y-20650798D01*
X29817448Y-20570552D01*
X29737202Y-20504696D01*
X29645650Y-20455761D01*
X29546310Y-20425626D01*
X29443000Y-20415451D01*
X28383000Y-20415451D01*
X28279690Y-20425626D01*
X28180350Y-20455761D01*
X28088798Y-20504696D01*
X28008552Y-20570552D01*
X27942696Y-20650798D01*
X27893761Y-20742350D01*
X27863626Y-20841690D01*
X27853451Y-20945000D01*
X27853451Y-21595000D01*
X27863626Y-21698310D01*
X27893761Y-21797650D01*
X27942696Y-21889202D01*
X27990722Y-21947723D01*
X27504829Y-22433617D01*
X27515210Y-22399394D01*
X27528034Y-22357120D01*
X27540000Y-22235624D01*
X27540000Y-22235614D01*
X27544000Y-22195000D01*
X27540000Y-22154386D01*
X27540000Y-22033008D01*
X27617448Y-21969448D01*
X27683304Y-21889202D01*
X27732239Y-21797650D01*
X27762374Y-21698310D01*
X27772549Y-21595000D01*
X27772549Y-20945000D01*
X27762374Y-20841690D01*
X27732239Y-20742350D01*
X27683304Y-20650798D01*
X27617448Y-20570552D01*
X27537202Y-20504696D01*
X27445650Y-20455761D01*
X27346310Y-20425626D01*
X27243000Y-20415451D01*
X26183000Y-20415451D01*
X26079690Y-20425626D01*
X25980350Y-20455761D01*
X25888798Y-20504696D01*
X25808552Y-20570552D01*
X25742696Y-20650798D01*
X25693761Y-20742350D01*
X25663626Y-20841690D01*
X25653451Y-20945000D01*
X25653451Y-21595000D01*
X25663626Y-21698310D01*
X25693761Y-21797650D01*
X25742696Y-21889202D01*
X25790723Y-21947723D01*
X21404336Y-26334111D01*
X18910003Y-26334111D01*
X18900099Y-26324207D01*
X18900099Y-25662890D01*
X18889924Y-25559580D01*
X18859789Y-25460240D01*
X18810854Y-25368688D01*
X18744998Y-25288442D01*
X18664752Y-25222586D01*
X18573200Y-25173651D01*
X18473860Y-25143516D01*
X18370550Y-25133341D01*
X17270730Y-25133341D01*
X17167420Y-25143516D01*
X17068080Y-25173651D01*
X16976528Y-25222586D01*
X16896282Y-25288442D01*
X16858073Y-25335000D01*
X14455171Y-25335000D01*
X13757170Y-24637000D01*
X15752119Y-24637000D01*
X15778000Y-24639549D01*
X16828000Y-24639549D01*
X16931310Y-24629374D01*
X17030650Y-24599239D01*
X17122202Y-24550304D01*
X17202448Y-24484448D01*
X17268304Y-24404202D01*
X17317239Y-24312650D01*
X17347374Y-24213310D01*
X17357549Y-24110000D01*
X17357549Y-23510000D01*
X17347374Y-23406690D01*
X17325627Y-23335000D01*
X17347374Y-23263310D01*
X17357549Y-23160000D01*
X17357549Y-22560000D01*
X17347374Y-22456690D01*
X17325627Y-22385000D01*
X17347374Y-22313310D01*
X17357549Y-22210000D01*
X17357549Y-21610000D01*
X17948451Y-21610000D01*
X17948451Y-22210000D01*
X17958626Y-22313310D01*
X17988761Y-22412650D01*
X18037696Y-22504202D01*
X18103552Y-22584448D01*
X18183798Y-22650304D01*
X18275350Y-22699239D01*
X18374690Y-22729374D01*
X18478000Y-22739549D01*
X19528000Y-22739549D01*
X19553881Y-22737000D01*
X19617157Y-22737000D01*
X19626552Y-22748448D01*
X19706798Y-22814304D01*
X19798350Y-22863239D01*
X19897690Y-22893374D01*
X20001000Y-22903549D01*
X22511000Y-22903549D01*
X22614310Y-22893374D01*
X22713650Y-22863239D01*
X22805202Y-22814304D01*
X22885448Y-22748448D01*
X22951304Y-22668202D01*
X23000239Y-22576650D01*
X23030374Y-22477310D01*
X23040549Y-22374000D01*
X23040549Y-21374000D01*
X23030374Y-21270690D01*
X23000239Y-21171350D01*
X22951304Y-21079798D01*
X22885448Y-20999552D01*
X22805202Y-20933696D01*
X22713650Y-20884761D01*
X22614310Y-20854626D01*
X22511000Y-20844451D01*
X20001000Y-20844451D01*
X19897690Y-20854626D01*
X19798350Y-20884761D01*
X19706798Y-20933696D01*
X19626552Y-20999552D01*
X19560696Y-21079798D01*
X19558985Y-21083000D01*
X19553881Y-21083000D01*
X19528000Y-21080451D01*
X18478000Y-21080451D01*
X18374690Y-21090626D01*
X18275350Y-21120761D01*
X18183798Y-21169696D01*
X18103552Y-21235552D01*
X18037696Y-21315798D01*
X17988761Y-21407350D01*
X17958626Y-21506690D01*
X17948451Y-21610000D01*
X17357549Y-21610000D01*
X17347374Y-21506690D01*
X17317239Y-21407350D01*
X17285868Y-21348659D01*
X17608550Y-21348659D01*
X17711860Y-21338484D01*
X17811200Y-21308349D01*
X17902752Y-21259414D01*
X17982998Y-21193558D01*
X18048854Y-21113312D01*
X18097789Y-21021760D01*
X18127924Y-20922420D01*
X18138099Y-20819110D01*
X18138099Y-20376497D01*
X18195744Y-20268651D01*
X18243033Y-20112761D01*
X18259000Y-19950640D01*
X18243033Y-19788520D01*
X18195744Y-19632630D01*
X18155001Y-19556405D01*
X18155001Y-18070613D01*
X18159001Y-18029999D01*
X18155001Y-17989385D01*
X18155001Y-17989375D01*
X18143035Y-17867879D01*
X18095746Y-17711989D01*
X18018953Y-17568320D01*
X17915607Y-17442393D01*
X17884049Y-17416494D01*
X17691507Y-17223952D01*
X17665608Y-17192394D01*
X17539681Y-17089048D01*
X17396012Y-17012255D01*
X17357549Y-17000587D01*
X17357549Y-16530000D01*
X17948451Y-16530000D01*
X17948451Y-17130000D01*
X17958626Y-17233310D01*
X17988761Y-17332650D01*
X18037696Y-17424202D01*
X18103552Y-17504448D01*
X18183798Y-17570304D01*
X18275350Y-17619239D01*
X18374690Y-17649374D01*
X18478000Y-17659549D01*
X19528000Y-17659549D01*
X19553881Y-17657000D01*
X19617157Y-17657000D01*
X19626552Y-17668448D01*
X19706798Y-17734304D01*
X19798350Y-17783239D01*
X19897690Y-17813374D01*
X20001000Y-17823549D01*
X22511000Y-17823549D01*
X22614310Y-17813374D01*
X22713650Y-17783239D01*
X22805202Y-17734304D01*
X22885448Y-17668448D01*
X22951304Y-17588202D01*
X23000239Y-17496650D01*
X23030374Y-17397310D01*
X23040549Y-17294000D01*
X23040549Y-16294000D01*
X23030374Y-16190690D01*
X23000239Y-16091350D01*
X22951304Y-15999798D01*
X22885448Y-15919552D01*
X22805202Y-15853696D01*
X22713650Y-15804761D01*
X22614310Y-15774626D01*
X22511000Y-15764451D01*
X20001000Y-15764451D01*
X19897690Y-15774626D01*
X19798350Y-15804761D01*
X19706798Y-15853696D01*
X19626552Y-15919552D01*
X19560696Y-15999798D01*
X19558985Y-16003000D01*
X19553881Y-16003000D01*
X19528000Y-16000451D01*
X18478000Y-16000451D01*
X18374690Y-16010626D01*
X18275350Y-16040761D01*
X18183798Y-16089696D01*
X18103552Y-16155552D01*
X18037696Y-16235798D01*
X17988761Y-16327350D01*
X17958626Y-16426690D01*
X17948451Y-16530000D01*
X17357549Y-16530000D01*
X17347374Y-16426690D01*
X17317239Y-16327350D01*
X17268304Y-16235798D01*
X17202448Y-16155552D01*
X17122202Y-16089696D01*
X17030650Y-16040761D01*
X16931310Y-16010626D01*
X16828000Y-16000451D01*
X16542418Y-16000451D01*
X16573789Y-15941760D01*
X16603924Y-15842420D01*
X16614099Y-15739110D01*
X16614099Y-15077793D01*
X16624003Y-15067889D01*
X24566336Y-15067889D01*
X25474555Y-15976109D01*
X25500452Y-16007664D01*
X25532005Y-16033559D01*
X25532006Y-16033560D01*
X25626378Y-16111010D01*
X25678834Y-16139048D01*
X25770048Y-16187803D01*
X25925938Y-16235092D01*
X25946371Y-16237104D01*
X26487278Y-16778011D01*
X26388060Y-16778011D01*
X26284750Y-16788186D01*
X26185410Y-16818321D01*
X26093858Y-16867256D01*
X26013612Y-16933112D01*
X25947756Y-17013358D01*
X25898821Y-17104910D01*
X25868686Y-17204250D01*
X25858511Y-17307560D01*
X25858511Y-18308145D01*
X25821000Y-18304451D01*
X23311000Y-18304451D01*
X23207690Y-18314626D01*
X23108350Y-18344761D01*
X23016798Y-18393696D01*
X22936552Y-18459552D01*
X22870696Y-18539798D01*
X22821761Y-18631350D01*
X22791626Y-18730690D01*
X22781451Y-18834000D01*
X22781451Y-19834000D01*
X22791626Y-19937310D01*
X22821761Y-20036650D01*
X22870696Y-20128202D01*
X22936552Y-20208448D01*
X23016798Y-20274304D01*
X23108350Y-20323239D01*
X23207690Y-20353374D01*
X23311000Y-20363549D01*
X25821000Y-20363549D01*
X25924310Y-20353374D01*
X26023650Y-20323239D01*
X26115202Y-20274304D01*
X26176597Y-20223918D01*
X26183000Y-20224549D01*
X27243000Y-20224549D01*
X27346310Y-20214374D01*
X27445650Y-20184239D01*
X27537202Y-20135304D01*
X27617448Y-20069448D01*
X27683304Y-19989202D01*
X27732239Y-19897650D01*
X27762374Y-19798310D01*
X27772549Y-19695000D01*
X27772549Y-19045000D01*
X27762374Y-18941690D01*
X27732239Y-18842350D01*
X27683304Y-18750798D01*
X27664689Y-18728116D01*
X27674859Y-18709090D01*
X27686000Y-18672364D01*
X27697141Y-18709090D01*
X27746076Y-18800642D01*
X27811932Y-18880888D01*
X27868090Y-18926975D01*
X27863626Y-18941690D01*
X27853451Y-19045000D01*
X27853451Y-19695000D01*
X27863626Y-19798310D01*
X27893761Y-19897650D01*
X27942696Y-19989202D01*
X28008552Y-20069448D01*
X28088798Y-20135304D01*
X28180350Y-20184239D01*
X28279690Y-20214374D01*
X28383000Y-20224549D01*
X29443000Y-20224549D01*
X29546310Y-20214374D01*
X29645650Y-20184239D01*
X29737202Y-20135304D01*
X29817448Y-20069448D01*
X29883304Y-19989202D01*
X29932239Y-19897650D01*
X29962374Y-19798310D01*
X29972549Y-19695000D01*
X29972549Y-19480004D01*
X30172064Y-19280489D01*
X30260690Y-19307374D01*
X30364000Y-19317549D01*
X32874000Y-19317549D01*
X32977310Y-19307374D01*
X33076650Y-19277239D01*
X33168202Y-19228304D01*
X33248448Y-19162448D01*
X33314304Y-19082202D01*
X33363239Y-18990650D01*
X33393374Y-18891310D01*
X33403549Y-18788000D01*
X33403549Y-17788000D01*
X33393374Y-17684690D01*
X33363239Y-17585350D01*
X33314304Y-17493798D01*
X33248448Y-17413552D01*
X33168202Y-17347696D01*
X33076650Y-17298761D01*
X32977310Y-17268626D01*
X32874000Y-17258451D01*
X30364000Y-17258451D01*
X30260690Y-17268626D01*
X30161350Y-17298761D01*
X30069798Y-17347696D01*
X29989552Y-17413552D01*
X29950282Y-17461403D01*
X29832880Y-17472966D01*
X29676990Y-17520255D01*
X29634847Y-17542781D01*
X29533320Y-17597048D01*
X29513489Y-17613323D01*
X29513489Y-17307560D01*
X29503314Y-17204250D01*
X29473179Y-17104910D01*
X29424244Y-17013358D01*
X29358388Y-16933112D01*
X29278142Y-16867256D01*
X29186590Y-16818321D01*
X29087250Y-16788186D01*
X28983940Y-16778011D01*
X28826385Y-16778011D01*
X26912383Y-14864010D01*
X26886484Y-14832452D01*
X26760557Y-14729106D01*
X26616888Y-14652313D01*
X26460998Y-14605024D01*
X26440565Y-14603012D01*
X25522394Y-13684841D01*
X25496495Y-13653283D01*
X25370568Y-13549937D01*
X25226899Y-13473144D01*
X25071009Y-13425855D01*
X24949513Y-13413889D01*
X24949503Y-13413889D01*
X24908889Y-13409889D01*
X24868275Y-13413889D01*
X16322059Y-13413889D01*
X16281448Y-13409889D01*
X16240837Y-13413889D01*
X16240825Y-13413889D01*
X16119329Y-13425855D01*
X15963439Y-13473144D01*
X15838321Y-13540021D01*
X15819768Y-13549938D01*
X15725396Y-13627387D01*
X15725390Y-13627393D01*
X15693843Y-13653283D01*
X15667952Y-13684831D01*
X15141443Y-14211341D01*
X14984730Y-14211341D01*
X14881420Y-14221516D01*
X14782080Y-14251651D01*
X14690528Y-14300586D01*
X14610282Y-14366442D01*
X14544426Y-14446688D01*
X14495491Y-14538240D01*
X14465356Y-14637580D01*
X14455181Y-14740890D01*
X14455181Y-15099105D01*
X13828678Y-15725609D01*
X13797125Y-15751504D01*
X13771230Y-15783057D01*
X13771228Y-15783059D01*
X13693778Y-15877431D01*
X13628372Y-15999798D01*
X13616986Y-16021100D01*
X13569696Y-16176990D01*
X13557730Y-16298486D01*
X13557730Y-16298496D01*
X13553730Y-16339110D01*
X13557730Y-16379724D01*
X13557730Y-16946116D01*
X13553730Y-16986730D01*
X13557730Y-17027344D01*
X13557730Y-17027353D01*
X13569696Y-17148849D01*
X13616985Y-17304739D01*
X13631904Y-17332650D01*
X13693778Y-17448409D01*
X13731028Y-17493798D01*
X13797124Y-17574336D01*
X13828682Y-17600235D01*
X14131447Y-17903000D01*
X12371614Y-17903000D01*
X12331000Y-17899000D01*
X12290386Y-17903000D01*
X12290376Y-17903000D01*
X12168880Y-17914966D01*
X12012990Y-17962255D01*
X11964436Y-17988208D01*
X11869320Y-18039048D01*
X11774948Y-18116497D01*
X11774941Y-18116504D01*
X11743394Y-18142394D01*
X11717503Y-18173942D01*
X10473995Y-19417451D01*
X8012000Y-19417451D01*
X7908690Y-19427626D01*
X7809350Y-19457761D01*
X7717798Y-19506696D01*
X7693518Y-19526622D01*
X7642612Y-19499412D01*
X7502236Y-19456829D01*
X7356250Y-19442451D01*
X6918750Y-19442451D01*
X6772764Y-19456829D01*
X6632388Y-19499412D01*
X6503017Y-19568562D01*
X6389623Y-19661623D01*
X6350000Y-19709903D01*
X6310377Y-19661623D01*
X6196983Y-19568562D01*
X6067612Y-19499412D01*
X5927236Y-19456829D01*
X5781250Y-19442451D01*
X5343750Y-19442451D01*
X5197764Y-19456829D01*
X5057388Y-19499412D01*
X4928017Y-19568562D01*
X4814623Y-19661623D01*
X4721562Y-19775017D01*
X4652412Y-19904388D01*
X4609829Y-20044764D01*
X4595451Y-20190750D01*
X127000Y-20190750D01*
X127000Y-3183000D01*
X6974451Y-3183000D01*
X6974451Y-4183000D01*
X6984626Y-4286310D01*
X7014761Y-4385650D01*
X7063696Y-4477202D01*
X7129552Y-4557448D01*
X7209798Y-4623304D01*
X7301350Y-4672239D01*
X7400690Y-4702374D01*
X7504000Y-4712549D01*
X10014000Y-4712549D01*
X10117310Y-4702374D01*
X10216650Y-4672239D01*
X10308202Y-4623304D01*
X10388448Y-4557448D01*
X10406460Y-4535500D01*
X11429540Y-4535500D01*
X11447552Y-4557448D01*
X11527798Y-4623304D01*
X11619350Y-4672239D01*
X11718690Y-4702374D01*
X11822000Y-4712549D01*
X14332000Y-4712549D01*
X14435310Y-4702374D01*
X14534650Y-4672239D01*
X14626202Y-4623304D01*
X14706448Y-4557448D01*
X14724460Y-4535500D01*
X15620540Y-4535500D01*
X15638552Y-4557448D01*
X15718798Y-4623304D01*
X15810350Y-4672239D01*
X15909690Y-4702374D01*
X16013000Y-4712549D01*
X18523000Y-4712549D01*
X18626310Y-4702374D01*
X18725650Y-4672239D01*
X18817202Y-4623304D01*
X18897448Y-4557448D01*
X18915460Y-4535500D01*
X20062257Y-4535500D01*
X20083552Y-4561448D01*
X20163798Y-4627304D01*
X20255350Y-4676239D01*
X20354690Y-4706374D01*
X20458000Y-4716549D01*
X22968000Y-4716549D01*
X23071310Y-4706374D01*
X23170650Y-4676239D01*
X23182336Y-4669993D01*
X23238750Y-4675549D01*
X23751250Y-4675549D01*
X23897236Y-4661171D01*
X24037612Y-4618588D01*
X24166983Y-4549438D01*
X24215038Y-4510000D01*
X30085613Y-4510000D01*
X30124552Y-4557448D01*
X30204798Y-4623304D01*
X30296350Y-4672239D01*
X30395690Y-4702374D01*
X30499000Y-4712549D01*
X32682002Y-4712549D01*
X32682002Y-5565444D01*
X31197952Y-7049495D01*
X31166394Y-7075394D01*
X31140498Y-7106949D01*
X31063048Y-7201321D01*
X31045266Y-7234589D01*
X30986255Y-7344991D01*
X30938966Y-7500881D01*
X30927000Y-7622377D01*
X30927000Y-7622386D01*
X30923000Y-7663000D01*
X30927000Y-7703614D01*
X30927000Y-7733451D01*
X30499000Y-7733451D01*
X30395690Y-7743626D01*
X30296350Y-7773761D01*
X30204798Y-7822696D01*
X30124552Y-7888552D01*
X30085613Y-7936000D01*
X29858376Y-7936000D01*
X29858366Y-7936001D01*
X24499549Y-7935999D01*
X24499549Y-7680751D01*
X24485171Y-7534765D01*
X24442588Y-7394389D01*
X24373438Y-7265018D01*
X24366488Y-7256549D01*
X26278000Y-7256549D01*
X26381310Y-7246374D01*
X26480650Y-7216239D01*
X26572202Y-7167304D01*
X26652448Y-7101448D01*
X26694670Y-7050000D01*
X26775613Y-7050000D01*
X26814552Y-7097448D01*
X26894798Y-7163304D01*
X26986350Y-7212239D01*
X27085690Y-7242374D01*
X27189000Y-7252549D01*
X29699000Y-7252549D01*
X29802310Y-7242374D01*
X29901650Y-7212239D01*
X29993202Y-7163304D01*
X30073448Y-7097448D01*
X30139304Y-7017202D01*
X30188239Y-6925650D01*
X30218374Y-6826310D01*
X30228549Y-6723000D01*
X30228549Y-5723000D01*
X30218374Y-5619690D01*
X30188239Y-5520350D01*
X30139304Y-5428798D01*
X30073448Y-5348552D01*
X29993202Y-5282696D01*
X29901650Y-5233761D01*
X29802310Y-5203626D01*
X29699000Y-5193451D01*
X27189000Y-5193451D01*
X27085690Y-5203626D01*
X26986350Y-5233761D01*
X26894798Y-5282696D01*
X26814552Y-5348552D01*
X26775613Y-5396000D01*
X26688105Y-5396000D01*
X26652448Y-5352552D01*
X26572202Y-5286696D01*
X26480650Y-5237761D01*
X26381310Y-5207626D01*
X26278000Y-5197451D01*
X23768000Y-5197451D01*
X23664690Y-5207626D01*
X23565350Y-5237761D01*
X23473798Y-5286696D01*
X23393552Y-5352552D01*
X23389531Y-5357452D01*
X23238750Y-5357452D01*
X23092764Y-5371830D01*
X23013087Y-5396000D01*
X22246387Y-5396000D01*
X22207448Y-5348552D01*
X22127202Y-5282696D01*
X22035650Y-5233761D01*
X21936310Y-5203626D01*
X21833000Y-5193451D01*
X19323000Y-5193451D01*
X19219690Y-5203626D01*
X19120350Y-5233761D01*
X19028798Y-5282696D01*
X18948552Y-5348552D01*
X18909613Y-5396000D01*
X18055387Y-5396000D01*
X18016448Y-5348552D01*
X17936202Y-5282696D01*
X17844650Y-5233761D01*
X17745310Y-5203626D01*
X17642000Y-5193451D01*
X15132000Y-5193451D01*
X15028690Y-5203626D01*
X14929350Y-5233761D01*
X14837798Y-5282696D01*
X14757552Y-5348552D01*
X14718613Y-5396000D01*
X13737387Y-5396000D01*
X13698448Y-5348552D01*
X13618202Y-5282696D01*
X13526650Y-5233761D01*
X13427310Y-5203626D01*
X13324000Y-5193451D01*
X10814000Y-5193451D01*
X10710690Y-5203626D01*
X10611350Y-5233761D01*
X10519798Y-5282696D01*
X10439552Y-5348552D01*
X10373696Y-5428798D01*
X10324761Y-5520350D01*
X10294626Y-5619690D01*
X10284451Y-5723000D01*
X10284451Y-6723000D01*
X10294626Y-6826310D01*
X10324761Y-6925650D01*
X10373696Y-7017202D01*
X10439552Y-7097448D01*
X10519798Y-7163304D01*
X10611350Y-7212239D01*
X10710690Y-7242374D01*
X10814000Y-7252549D01*
X13324000Y-7252549D01*
X13427310Y-7242374D01*
X13526650Y-7212239D01*
X13618202Y-7163304D01*
X13698448Y-7097448D01*
X13737387Y-7050000D01*
X14718613Y-7050000D01*
X14757552Y-7097448D01*
X14837798Y-7163304D01*
X14929350Y-7212239D01*
X15028690Y-7242374D01*
X15132000Y-7252549D01*
X17642000Y-7252549D01*
X17745310Y-7242374D01*
X17844650Y-7212239D01*
X17936202Y-7163304D01*
X18016448Y-7097448D01*
X18055387Y-7050000D01*
X18909613Y-7050000D01*
X18948552Y-7097448D01*
X19028798Y-7163304D01*
X19120350Y-7212239D01*
X19219690Y-7242374D01*
X19323000Y-7252549D01*
X21833000Y-7252549D01*
X21936310Y-7242374D01*
X22035650Y-7212239D01*
X22127202Y-7163304D01*
X22207448Y-7097448D01*
X22246387Y-7050000D01*
X22691258Y-7050000D01*
X22709623Y-7072378D01*
X22757903Y-7112001D01*
X22709623Y-7151624D01*
X22616562Y-7265018D01*
X22547412Y-7394389D01*
X22504829Y-7534765D01*
X22490451Y-7680751D01*
X22490451Y-8118251D01*
X22504829Y-8264237D01*
X22547412Y-8404613D01*
X22616562Y-8533984D01*
X22709623Y-8647378D01*
X22733768Y-8667193D01*
X22804048Y-8798678D01*
X22907395Y-8924605D01*
X22938948Y-8950500D01*
X23307499Y-9319051D01*
X23333394Y-9350604D01*
X23364947Y-9376499D01*
X23364949Y-9376501D01*
X23459321Y-9453951D01*
X23602989Y-9530743D01*
X23758879Y-9578032D01*
X23921000Y-9593999D01*
X23961624Y-9589998D01*
X29858376Y-9590000D01*
X30085613Y-9590000D01*
X30124552Y-9637448D01*
X30204798Y-9703304D01*
X30296350Y-9752239D01*
X30395690Y-9782374D01*
X30499000Y-9792549D01*
X33009000Y-9792549D01*
X33112310Y-9782374D01*
X33211650Y-9752239D01*
X33303202Y-9703304D01*
X33383448Y-9637448D01*
X33449304Y-9557202D01*
X33498239Y-9465650D01*
X33528374Y-9366310D01*
X33538549Y-9263000D01*
X33538549Y-8263000D01*
X33528374Y-8159690D01*
X33498239Y-8060350D01*
X33449304Y-7968798D01*
X33383448Y-7888552D01*
X33303202Y-7822696D01*
X33211650Y-7773761D01*
X33112310Y-7743626D01*
X33009000Y-7733451D01*
X32853102Y-7733451D01*
X34065054Y-6521500D01*
X34096607Y-6495605D01*
X34122503Y-6464051D01*
X34199953Y-6369680D01*
X34276745Y-6226010D01*
X34276746Y-6226009D01*
X34324035Y-6070119D01*
X34336001Y-5948623D01*
X34336001Y-5948614D01*
X34340001Y-5908000D01*
X34336001Y-5867386D01*
X34336001Y-2823614D01*
X34340001Y-2783000D01*
X34336001Y-2742386D01*
X34336001Y-2742376D01*
X34324035Y-2620880D01*
X34276746Y-2464990D01*
X34199954Y-2321322D01*
X34199953Y-2321320D01*
X34122504Y-2226948D01*
X34122497Y-2226941D01*
X34096607Y-2195394D01*
X34065061Y-2169505D01*
X33473003Y-1577447D01*
X33447108Y-1545894D01*
X33389989Y-1499017D01*
X33321182Y-1442549D01*
X33321183Y-1442549D01*
X33321181Y-1442548D01*
X33177512Y-1365755D01*
X33021622Y-1318466D01*
X32900126Y-1306500D01*
X32900116Y-1306500D01*
X32859502Y-1302500D01*
X32818888Y-1306500D01*
X24183966Y-1306500D01*
X24166983Y-1292562D01*
X24037612Y-1223412D01*
X23897236Y-1180829D01*
X23751250Y-1166451D01*
X23238750Y-1166451D01*
X23092764Y-1180829D01*
X22952388Y-1223412D01*
X22823017Y-1292562D01*
X22709623Y-1385623D01*
X22616562Y-1499017D01*
X22547412Y-1628388D01*
X22504829Y-1768764D01*
X22490451Y-1914750D01*
X22490451Y-2352250D01*
X22504829Y-2498236D01*
X22547412Y-2638612D01*
X22557482Y-2657451D01*
X20458000Y-2657451D01*
X20354690Y-2667626D01*
X20255350Y-2697761D01*
X20163798Y-2746696D01*
X20083552Y-2812552D01*
X20026968Y-2881500D01*
X18957315Y-2881500D01*
X18897448Y-2808552D01*
X18817202Y-2742696D01*
X18725650Y-2693761D01*
X18626310Y-2663626D01*
X18523000Y-2653451D01*
X16013000Y-2653451D01*
X15909690Y-2663626D01*
X15810350Y-2693761D01*
X15718798Y-2742696D01*
X15638552Y-2808552D01*
X15578685Y-2881500D01*
X14766315Y-2881500D01*
X14706448Y-2808552D01*
X14626202Y-2742696D01*
X14534650Y-2693761D01*
X14435310Y-2663626D01*
X14332000Y-2653451D01*
X11822000Y-2653451D01*
X11718690Y-2663626D01*
X11619350Y-2693761D01*
X11527798Y-2742696D01*
X11447552Y-2808552D01*
X11387685Y-2881500D01*
X10448315Y-2881500D01*
X10388448Y-2808552D01*
X10308202Y-2742696D01*
X10216650Y-2693761D01*
X10117310Y-2663626D01*
X10014000Y-2653451D01*
X7504000Y-2653451D01*
X7400690Y-2663626D01*
X7301350Y-2693761D01*
X7209798Y-2742696D01*
X7129552Y-2808552D01*
X7063696Y-2888798D01*
X7014761Y-2980350D01*
X6984626Y-3079690D01*
X6974451Y-3183000D01*
X127000Y-3183000D01*
X127000Y-127000D01*
X39878000Y-127000D01*
X39878000Y-56388000D01*
M02*
